<?xml version="1.0" encoding="utf-8"?>
<!-- Generator: Adobe Illustrator 24.1.0, SVG Export Plug-In . SVG Version: 6.00 Build 0)  -->
<svg version="1.1" id="Calque_1" xmlns="http://www.w3.org/2000/svg" xmlns:xlink="http://www.w3.org/1999/xlink" x="0px" y="0px"
	 viewBox="0 0 26 29" style="enable-background:new 0 0 26 29;" xml:space="preserve">
<g>
	<g>
		<path d="M20,8V7c0-3.9-3.1-7-7-7S6,3.1,6,7v1H0v21h26V8H20z M8,7c0-2.8,2.2-5,5-5s5,2.2,5,5v1H8V7z M24,27H2V10h4v3h2v-3h10v3h2
			v-3h4V27z"/>
	</g>
	<g>
		<polygon points="14.5,14 12.5,14 12.5,18 8.5,18 8.5,20 12.5,20 12.5,24 14.5,24 14.5,20 18.5,20 18.5,18 14.5,18 		"/>
	</g>
</g>
</svg>
