<?xml version="1.0" encoding="utf-8"?>
<!-- Generator: Adobe Illustrator 24.1.0, SVG Export Plug-In . SVG Version: 6.00 Build 0)  -->
<svg version="1.1" id="Calque_1" xmlns="http://www.w3.org/2000/svg" xmlns:xlink="http://www.w3.org/1999/xlink" x="0px" y="0px"
	 width="27.814px" height="28.004px" viewBox="0 0 27.814 28.004" style="enable-background:new 0 0 27.814 28.004;"
	 xml:space="preserve">
<path id="face" d="M16.291,4.162l-1.309,7.206l2.18-1.697l0.971,3.611l1.309-7.206l-2.177,1.696L16.291,4.162z M7.268,7.446
	l-1.307,7.205l2.179-1.696l0.974,3.61L10.42,9.36l-2.179,1.696L7.268,7.446z M7.675,19.663L6.011,20.95
	c-0.184,0.14-0.215,0.408-0.075,0.596c0.115,0.153,0.309,0.204,0.476,0.143c0.039-0.014,0.075-0.034,0.109-0.062l0.597-0.461
	c2.706,2.868,6.761,3.87,10.424,2.547l0.028-0.01c3.657-1.341,6.119-4.715,6.349-8.651l0.754-0.031
	c0.043-0.003,0.085-0.008,0.123-0.023c0.166-0.06,0.281-0.227,0.272-0.416c-0.008-0.237-0.203-0.419-0.435-0.411l-2.102,0.084
	c-0.231,0.011-0.408,0.206-0.397,0.442c0.013,0.235,0.208,0.417,0.44,0.409l0.506-0.021c-0.242,3.564-2.488,6.61-5.813,7.823
	c-3.326,1.208-7.005,0.318-9.481-2.256l0.402-0.309c0.184-0.141,0.215-0.408,0.075-0.596C8.122,19.558,7.862,19.522,7.675,19.663z
	 M9.026,0.847c2.72-0.99,5.631-1.114,8.42-0.364c0.585,0.157,0.996,0.58,1.391,0.985c0.275,0.282,0.537,0.552,0.827,0.694
	c0.214,0.105,0.522,0.105,0.849,0.109c0.454,0.004,0.97,0.008,1.389,0.305c2.336,1.649,4.089,3.947,5.066,6.64
	c2.64,7.253-1.111,15.303-8.366,17.943c-7.255,2.641-15.304-1.111-17.945-8.367C0.293,17.791,0.6,17.28,0.871,16.827
	c0.188-0.31,0.363-0.606,0.356-1.144c-0.005-0.255-0.211-0.667-0.43-1.102c-0.435-0.868-0.976-1.95-0.74-3.182
	C0.983,6.566,4.421,2.523,9.026,0.847z"/>
</svg>
