<?xml version="1.0" encoding="utf-8"?>
<!-- Generator: Adobe Illustrator 24.1.0, SVG Export Plug-In . SVG Version: 6.00 Build 0)  -->
<svg version="1.1" id="Calque_1" xmlns="http://www.w3.org/2000/svg" xmlns:xlink="http://www.w3.org/1999/xlink" x="0px" y="0px"
	 width="27.814px" height="28.004px" viewBox="0 0 27.814 28.004" style="enable-background:new 0 0 27.814 28.004;"
	 xml:space="preserve">
<g id="face">
	<path d="M16.291,4.162l-1.309,7.206l2.18-1.697l0.971,3.611l1.309-7.206l-2.177,1.696L16.291,4.162z M7.268,7.446l-1.307,7.205
		l2.179-1.696l0.974,3.61L10.42,9.36l-2.179,1.696L7.268,7.446z M9.026,0.847c2.72-0.99,5.631-1.114,8.42-0.364
		c0.585,0.157,0.996,0.58,1.391,0.985c0.275,0.282,0.537,0.552,0.827,0.694c0.214,0.105,0.522,0.105,0.849,0.109
		c0.454,0.004,0.97,0.008,1.389,0.305c2.336,1.649,4.089,3.947,5.066,6.64c2.64,7.253-1.111,15.303-8.366,17.943
		c-7.255,2.641-15.304-1.111-17.945-8.367C0.293,17.791,0.6,17.28,0.871,16.827c0.188-0.31,0.363-0.606,0.356-1.144
		c-0.005-0.255-0.211-0.667-0.43-1.102c-0.435-0.868-0.976-1.95-0.74-3.182C0.983,6.566,4.421,2.523,9.026,0.847z"/>
</g>
</svg>
