<?xml version="1.0" encoding="utf-8"?>
<!-- Generator: Adobe Illustrator 24.1.0, SVG Export Plug-In . SVG Version: 6.00 Build 0)  -->
<svg version="1.1" id="Calque_1" xmlns="http://www.w3.org/2000/svg" xmlns:xlink="http://www.w3.org/1999/xlink" x="0px" y="0px"
	 viewBox="0 0 58.2 37.2" style="enable-background:new 0 0 58.2 37.2;" xml:space="preserve">
<g>
	<path d="M29.1,0C13.1,0,0,8.3,0,18.6c0,10.3,13.1,18.6,29.1,18.6s29.1-8.3,29.1-18.6C58.2,8.3,45.1,0,29.1,0z M39.8,31.9
		c-1.8-0.6-3.7-1.1-5.6-1.4c0.3-1,0.5-2,0.7-3.2c2.7,0.2,5.3,0.5,7.9,0.9C42.1,29.6,41,30.9,39.8,31.9z M44.2,28.5
		c2.1,0.4,4.1,0.8,6.2,1.4c-1.9,1.4-4.2,2.6-6.8,3.6c-0.8-0.4-1.7-0.8-2.5-1.1C42.3,31.2,43.3,29.9,44.2,28.5z M15.3,28.3
		c2.6-0.4,5.3-0.8,7.9-0.9c0.2,1.2,0.5,2.2,0.7,3.2c-1.9,0.3-3.7,0.8-5.6,1.4C17.2,30.9,16.1,29.6,15.3,28.3z M17.1,32.4
		c-0.9,0.3-1.7,0.7-2.5,1.1c-2.6-1-4.8-2.2-6.8-3.6c2-0.5,4.1-1,6.2-1.4C14.9,29.9,15.9,31.2,17.1,32.4z M18.4,5.3
		c1.8,0.6,3.7,1.1,5.6,1.4c-0.3,1-0.5,2-0.7,3.2c-2.7-0.2-5.3-0.5-7.9-0.9C16.1,7.6,17.2,6.3,18.4,5.3z M14,8.7
		C12,8.3,9.9,7.9,7.9,7.3c1.9-1.4,4.2-2.6,6.8-3.6c0.8,0.4,1.7,0.8,2.5,1.1C15.9,6,14.9,7.3,14,8.7z M42.9,8.9
		c-2.6,0.4-5.3,0.8-7.9,0.9c-0.2-1.2-0.5-2.2-0.7-3.2c1.9-0.3,3.7-0.8,5.6-1.4C41,6.3,42.1,7.6,42.9,8.9z M41.1,4.8
		c0.9-0.3,1.7-0.7,2.5-1.1c2.5,1,4.8,2.2,6.8,3.6c-2,0.5-4.1,1-6.2,1.4C43.3,7.3,42.3,6,41.1,4.8z M35.7,18c0-1,0-2-0.1-2.9
		c3.3-0.1,6.5-0.2,9.7-0.4c0.2,1.1,0.4,2.1,0.4,3.3H35.7z M24.3,26.1c-0.1-0.9-0.3-1.8-0.3-2.8c3.5-0.1,6.9-0.1,10.4,0
		c-0.1,1-0.2,1.9-0.3,2.8C30.7,25.9,27.5,25.9,24.3,26.1z M33.7,27.3c-0.2,1.1-0.5,2.1-0.7,3.1c-2.6-0.3-5.2-0.3-7.8,0
		c-0.3-0.9-0.5-2-0.7-3.1C27.5,27.1,30.7,27.1,33.7,27.3z M23.8,22.1c-0.1-0.9-0.1-1.9-0.1-2.9h10.8c0,1,0,2-0.1,2.9
		C30.9,22,27.3,22,23.8,22.1z M23.7,18c0-1,0-2,0.1-2.9c1.8,0,3.5,0.1,5.3,0.1c1.8,0,3.5,0,5.3-0.1c0.1,0.9,0.1,1.9,0.1,2.9H23.7z
		 M29.1,11.3c1.6,0,3.2-0.1,4.8-0.1c0.1,0.9,0.3,1.8,0.3,2.8c-3.5,0.1-6.9,0.1-10.4,0c0.1-1,0.2-1.9,0.3-2.8
		C25.9,11.2,27.5,11.3,29.1,11.3z M24.5,9.9c0.2-1.1,0.5-2.1,0.7-3.1c1.3,0.2,2.6,0.2,3.9,0.2c1.3,0,2.6-0.1,3.9-0.2
		c0.3,0.9,0.5,2,0.7,3.1C30.7,10.1,27.5,10.1,24.5,9.9z M35.5,13.9c-0.1-1-0.2-2-0.3-2.9c2.8-0.2,5.6-0.5,8.4-1
		c0.6,1.1,1.1,2.3,1.5,3.5C41.9,13.7,38.7,13.8,35.5,13.9z M33.9,5.5c-0.6-1.8-1.4-3.2-2.2-4.1c2.6,0.4,5,1.5,7,3
		C37.1,4.9,35.5,5.3,33.9,5.5z M32.6,5.7c-2.3,0.3-4.7,0.3-7.1,0c1-2.8,2.3-4.5,3.5-4.5C30.3,1.2,31.6,2.9,32.6,5.7z M24.3,5.5
		c-1.6-0.2-3.2-0.6-4.8-1.1c2-1.5,4.4-2.5,7-3C25.7,2.4,25,3.7,24.3,5.5z M23,11c-0.1,0.9-0.2,1.8-0.3,2.9c-3.2-0.1-6.4-0.2-9.5-0.3
		c0.4-1.2,0.9-2.4,1.5-3.5C17.4,10.5,20.2,10.8,23,11z M22.6,15.1C22.5,16,22.5,17,22.5,18h-10c0-1.1,0.2-2.2,0.4-3.3
		C16.1,14.9,19.3,15,22.6,15.1z M11.3,18H1.2c0.1-1.4,0.4-2.7,1-4c3.1,0.3,6.3,0.5,9.5,0.7C11.4,15.8,11.3,16.9,11.3,18z M11.3,19.2
		c0,1.1,0.2,2.2,0.4,3.3c-3.2,0.2-6.3,0.4-9.5,0.7c-0.6-1.3-0.9-2.6-1-4H11.3z M12.5,19.2h10c0,1,0,2,0.1,2.9
		c-3.3,0.1-6.5,0.2-9.7,0.4C12.6,21.4,12.5,20.3,12.5,19.2z M22.7,23.3c0.1,1,0.2,2,0.3,2.9c-2.8,0.2-5.6,0.5-8.4,1
		c-0.6-1.1-1.1-2.3-1.5-3.5C16.3,23.5,19.5,23.4,22.7,23.3z M24.3,31.7c0.6,1.8,1.4,3.2,2.2,4.1c-2.6-0.4-5-1.5-7-3
		C21.1,32.3,22.7,31.9,24.3,31.7z M25.6,31.5c2.3-0.3,4.7-0.3,7.1,0c-1,2.8-2.3,4.5-3.5,4.5C27.9,36,26.6,34.3,25.6,31.5z
		 M33.9,31.7c1.6,0.2,3.2,0.6,4.8,1.1c-2,1.5-4.4,2.5-7,3C32.5,34.8,33.2,33.5,33.9,31.7z M35.2,26.2c0.1-0.9,0.2-1.8,0.3-2.9
		c3.2,0.1,6.4,0.2,9.5,0.3c-0.4,1.2-0.9,2.4-1.5,3.5C40.8,26.7,38,26.4,35.2,26.2z M35.6,22.1c0.1-0.9,0.1-1.9,0.1-2.9h10
		c0,1.1-0.2,2.2-0.4,3.3C42.1,22.3,38.9,22.2,35.6,22.1z M46.9,19.2H57c-0.1,1.4-0.4,2.7-1,4c-3.1-0.3-6.3-0.5-9.5-0.7
		C46.8,21.4,46.9,20.3,46.9,19.2z M46.9,18c0-1.1-0.2-2.2-0.4-3.3c3.2-0.2,6.3-0.4,9.5-0.7c0.6,1.3,0.9,2.6,1,4H46.9z M55.4,12.9
		c-3,0.3-6.1,0.5-9.2,0.6c-0.4-1.3-0.8-2.5-1.4-3.7c2.3-0.4,4.5-0.9,6.7-1.5C53.2,9.7,54.5,11.2,55.4,12.9z M41.9,3.2
		c-0.6,0.3-1.3,0.5-1.9,0.8c-1-0.8-2-1.5-3.1-2C38.7,2.2,40.4,2.6,41.9,3.2z M18.2,3.9c-0.6-0.2-1.3-0.5-1.9-0.8
		c1.6-0.5,3.3-0.9,5-1.3C20.2,2.5,19.1,3.1,18.2,3.9z M6.7,8.3c2.2,0.6,4.5,1.1,6.7,1.5c-0.6,1.2-1.1,2.4-1.4,3.7
		c-3.1-0.2-6.1-0.4-9.2-0.6C3.7,11.2,5,9.7,6.7,8.3z M2.8,24.3c3-0.3,6.1-0.5,9.2-0.6c0.4,1.3,0.8,2.5,1.4,3.7
		c-2.3,0.4-4.5,0.9-6.7,1.5C5,27.5,3.7,26,2.8,24.3z M16.3,34c0.6-0.3,1.3-0.5,1.9-0.8c1,0.8,2,1.5,3.1,2C19.5,35,17.8,34.6,16.3,34
		z M40,33.3c0.6,0.2,1.3,0.5,1.9,0.8c-1.6,0.5-3.3,0.9-5,1.3C38,34.7,39.1,34.1,40,33.3z M51.5,28.9c-2.2-0.6-4.5-1.1-6.7-1.5
		c0.6-1.2,1.1-2.4,1.4-3.7c3.1,0.2,6.1,0.4,9.2,0.6C54.5,26,53.2,27.5,51.5,28.9z"/>
</g>
</svg>
