<?xml version="1.0" encoding="utf-8"?>
<!-- Generator: Adobe Illustrator 24.1.0, SVG Export Plug-In . SVG Version: 6.00 Build 0)  -->
<svg version="1.1" id="Calque_1" xmlns="http://www.w3.org/2000/svg" xmlns:xlink="http://www.w3.org/1999/xlink" x="0px" y="0px"
	 viewBox="0 0 24 24" style="enable-background:new 0 0 24 24;" xml:space="preserve">
<path d="M13.2,0c2.2,0,2.7,0,3.8,0.1c2,0.1,3.7,0.6,5,1.9s1.9,3.1,1.9,5C24,8.2,24,8.7,24,11.1v1.8c0,2.5,0,2.9-0.1,4.1
	c-0.1,2-0.6,3.7-1.9,5s-3.1,1.9-5,1.9C15.8,24,15.3,24,12.9,24h-1.8c-2.5,0-2.9,0-4.1-0.1c-2-0.1-3.7-0.6-5-1.9s-1.9-3.1-1.9-5
	C0,15.8,0,15.4,0,13.2v-2.3c0-2.2,0-2.7,0.1-3.8c0.1-2,0.6-3.7,1.9-5s3.1-1.9,5-1.9C8.2,0,8.6,0,10.8,0H13.2z M12.6,2.2h-1.2
	c-0.1,0-0.2,0-0.3,0l-0.5,0c-2,0-2.4,0-3.5,0.1C5.8,2.3,4.5,2.6,3.5,3.5S2.3,5.8,2.2,7.2c0,1.1-0.1,1.5-0.1,3.5l0,0.5
	c0,0.1,0,0.2,0,0.3v1.2c0,0.1,0,0.2,0,0.3l0,0.5c0,1.4,0,2,0,2.7l0,0.2c0,0.2,0,0.4,0,0.6c0.1,1.4,0.3,2.6,1.3,3.6
	c1,1,2.2,1.2,3.6,1.3c1.1,0.1,1.5,0.1,3.7,0.1h2.3c1.6,0,2.3,0,2.9,0l0.2,0c0.2,0,0.4,0,0.6,0c1.4-0.1,2.6-0.3,3.6-1.3
	c1-1,1.2-2.2,1.3-3.6c0-0.2,0-0.4,0-0.6l0-0.2c0-0.7,0-1.3,0-2.9v-2.3c0-2.2,0-2.6-0.1-3.7c-0.1-1.4-0.3-2.6-1.3-3.6
	c-1-1-2.2-1.2-3.6-1.3c-0.2,0-0.4,0-0.6,0l-0.2,0c-0.6,0-1.3,0-2.7,0l-0.5,0C12.8,2.2,12.7,2.2,12.6,2.2z M12,5.8
	c3.4,0,6.2,2.8,6.2,6.2s-2.8,6.2-6.2,6.2S5.8,15.4,5.8,12S8.6,5.8,12,5.8z M12,8c-2.2,0-4,1.8-4,4s1.8,4,4,4s4-1.8,4-4S14.2,8,12,8z
	 M18.4,4.2c0.8,0,1.4,0.6,1.4,1.4S19.2,7,18.4,7S17,6.4,17,5.6S17.6,4.2,18.4,4.2z"/>
</svg>
