<?xml version="1.0" encoding="utf-8"?>
<!-- Generator: Adobe Illustrator 24.1.0, SVG Export Plug-In . SVG Version: 6.00 Build 0)  -->
<svg version="1.1" id="Calque_1" xmlns="http://www.w3.org/2000/svg" xmlns:xlink="http://www.w3.org/1999/xlink" x="0px" y="0px"
	 viewBox="0 0 135.2 135.2" style="enable-background:new 0 0 135.2 135.2;" xml:space="preserve">
<path d="M69.5,0L74,0.5l3.3,8.2l1-0.5c-0.9-1.8-1.3-3.4-1.1-5.1l0.3-2.3l3.3,0.4L79.5,12l-3.8-0.4l-3.9-9.8l-1,0.5
	c0.8,1.6,1.3,3.6,1.1,5.6l-0.4,3.3l-3.3-0.4L69.5,0z"/>
<path d="M84.1,2.1l8.2,2.6l-0.8,2.5l-5-1.6L86,7.1l4,1.3l-0.7,2.3l-4-1.3L84.8,11l5,1.6L89,15.1l-8.2-2.6L84.1,2.1z"/>
<path d="M94.9,5.4l3.2,1.9l-0.7,2c-0.4,1-1.1,2.4-2.2,4.3c-0.2,0.4-0.5,0.8-0.8,1.3l1,0.6c0.2-0.4,0.4-0.7,0.5-0.8
	c0.4-0.6,0.7-1.2,1.2-1.8c0.4-0.6,1-1.3,1.7-2.2l1.9-2l3.3,2l-0.8,2.6c-0.6,1.8-1.3,3.1-2.1,4.4c-0.2,0.4-0.4,0.7-0.5,0.9l1,0.6
	c0.1-0.3,0.4-0.7,0.8-1.4c1.1-1.8,1.9-3.1,2.6-3.8l1.5-1.7l3,1.8l-7.7,8l-3.5-2.1l1-3.2c0.4-1.1,1-2.3,1.9-3.8
	c0.1-0.2,0.3-0.5,0.6-0.9l-1-0.6l-0.6,0.9c-0.9,1.5-1.7,2.6-2.5,3.5l-2.3,2.4l-3.6-2.2L94.9,5.4z"/>
<path d="M116.6,21l2.9,3.5l-3.5,8.1l1,0.4c0.6-1.9,1.5-3.3,2.8-4.4l1.8-1.4l2.1,2.6l-8.4,6.8l-2.4-3l4.1-9.6l-1-0.4
	c-0.6,1.7-1.6,3.5-3.1,4.7l-2.6,2.1l-2.1-2.6L116.6,21z"/>
<path d="M125.4,32.7l4,7.6l-2.3,1.2l-2.4-4.7l-1.4,0.7l1.9,3.7l-2.1,1.1l-1.9-3.7l-1.5,0.8l2.4,4.7l-2.3,1.2l-4-7.6L125.4,32.7z"/>
<path d="M130.8,42.7l0.9,3.6l-1.9,0.9c-1,0.5-2.5,1-4.6,1.5c-0.4,0.1-0.9,0.2-1.5,0.4l0.3,1.1c0.4-0.1,0.7-0.2,0.9-0.3
	c0.7-0.2,1.4-0.3,2.1-0.4c0.7-0.1,1.7-0.2,2.7-0.3l2.7-0.1l1,3.8l-2.4,1.2c-1.7,0.8-3.1,1.3-4.5,1.6c-0.5,0.1-0.8,0.2-1,0.2l0.3,1.1
	c0.3-0.1,0.8-0.2,1.6-0.4c2.1-0.5,3.5-0.8,4.5-0.9l2.3-0.1L135,59l-11.1,0.3l-1-4l3-1.5c1-0.5,2.4-0.9,4-1.4
	c0.3-0.1,0.6-0.2,1.1-0.3l-0.3-1.1l-1.1,0.3c-1.7,0.4-3.1,0.7-4.2,0.7l-3.3,0.1l-1-4.1L130.8,42.7z"/>
<path d="M135.2,69l-0.5,4.5l-8.2,3.3l0.5,1c1.8-0.9,3.4-1.3,5.1-1.2l2.3,0.2l-0.3,3.3L123.3,79l0.4-3.8l9.7-3.9l-0.5-1
	c-1.6,0.8-3.6,1.4-5.6,1.2l-3.3-0.3l0.3-3.3L135.2,69z"/>
<path d="M133.2,83.6l-2.5,8.2l-2.5-0.8l1.6-5l-1.5-0.5l-1.2,4l-2.3-0.7l1.2-4l-1.6-0.5l-1.6,5l-2.5-0.8l2.5-8.2L133.2,83.6z"/>
<path d="M130,94.4l-1.9,3.2l-2.1-0.7c-1-0.4-2.4-1.1-4.3-2.2c-0.4-0.2-0.8-0.5-1.3-0.8l-0.6,1c0.4,0.2,0.7,0.4,0.8,0.5
	c0.6,0.3,1.2,0.7,1.8,1.2s1.3,1,2.2,1.7l2,1.8l-2,3.4l-2.6-0.8c-1.8-0.6-3.1-1.3-4.4-2c-0.4-0.2-0.7-0.4-0.9-0.5l-0.6,1
	c0.3,0.1,0.7,0.4,1.4,0.8c1.8,1.1,3.1,1.9,3.8,2.5l1.7,1.5l-1.8,3l-8.1-7.7l2.1-3.6l3.2,1c1.1,0.4,2.3,1,3.8,1.9
	c0.2,0.1,0.5,0.3,0.9,0.6l0.6-1l-0.9-0.5c-1.5-0.9-2.7-1.7-3.5-2.4l-2.4-2.3l2.1-3.6L130,94.4z"/>
<path d="M114.6,116.2l-3.5,2.9l-8.2-3.4l-0.3,1c1.9,0.6,3.4,1.4,4.4,2.8l1.5,1.8l-2.5,2.1l-6.9-8.4l3-2.4l9.7,4.1l0.4-1
	c-1.7-0.5-3.5-1.6-4.8-3.1l-2.1-2.6l2.5-2.1L114.6,116.2z"/>
<path d="M102.9,125.2l-7.6,4l-1.2-2.3l4.7-2.5l-0.7-1.4l-3.7,2l-1.1-2.1l3.7-2l-0.8-1.5l-4.7,2.5l-1.2-2.3l7.6-4L102.9,125.2z"/>
<path d="M93,130.6l-3.6,0.9l-1-1.9c-0.5-1-1-2.5-1.5-4.6c-0.1-0.4-0.2-0.9-0.4-1.5l-1.1,0.3c0.1,0.4,0.2,0.7,0.3,0.9
	c0.2,0.7,0.3,1.4,0.5,2.1s0.2,1.7,0.4,2.7l0.1,2.7l-3.8,1l-1.3-2.4c-0.8-1.7-1.3-3.1-1.7-4.5c-0.1-0.5-0.2-0.8-0.2-1l-1.1,0.3
	c0.1,0.3,0.2,0.8,0.4,1.6c0.5,2.1,0.9,3.5,0.9,4.5l0.1,2.3l-3.3,0.9l-0.4-11.1l4-1.1l1.5,3c0.5,1,1,2.4,1.4,4
	c0.1,0.3,0.2,0.6,0.3,1.1l1.1-0.3l-0.3-1c-0.4-1.7-0.7-3.1-0.8-4.2l-0.1-3.3l4.1-1.1L93,130.6z"/>
<path d="M66.8,135.2l-4.5-0.4l-3.4-8.2l-1,0.5c0.9,1.8,1.4,3.4,1.2,5.1l-0.2,2.3l-3.3-0.3l1-10.8l3.8,0.4l4,9.7l1-0.5
	c-0.8-1.6-1.4-3.6-1.2-5.5l0.3-3.3l3.3,0.3L66.8,135.2z"/>
<path d="M52.1,133.3l-8.2-2.5l0.8-2.5l5,1.5l0.4-1.5l-4-1.2l0.7-2.3l4,1.2l0.5-1.6l-5-1.5l0.8-2.5l8.2,2.5L52.1,133.3z"/>
<path d="M41.3,130.2l-3.2-1.9l0.7-2.1c0.3-1,1.1-2.4,2.1-4.3c0.2-0.4,0.5-0.8,0.8-1.3l-1-0.6c-0.2,0.4-0.4,0.7-0.5,0.8
	c-0.3,0.6-0.7,1.2-1.2,1.8c-0.4,0.6-1,1.3-1.7,2.2l-1.8,2l-3.4-1.9l0.8-2.6c0.6-1.8,1.2-3.1,2-4.4c0.2-0.4,0.4-0.7,0.5-0.9l-1-0.6
	c-0.1,0.3-0.4,0.7-0.8,1.4c-1.1,1.8-1.9,3.1-2.5,3.8l-1.5,1.7l-3-1.7l7.6-8.1l3.6,2.1l-1,3.2c-0.4,1.1-1,2.3-1.8,3.8
	c-0.1,0.2-0.3,0.5-0.6,0.9l1,0.6l0.5-0.9c0.9-1.5,1.7-2.7,2.4-3.5l2.3-2.4l3.6,2.1L41.3,130.2z"/>
<path d="M19.4,115l-2.9-3.5l3.4-8.2l-1-0.3c-0.6,1.9-1.4,3.4-2.7,4.5l-1.8,1.5l-2.1-2.5l8.3-6.9l2.4,2.9l-4,9.7l1,0.4
	c0.5-1.7,1.6-3.6,3-4.8l2.6-2.1l2.1,2.5L19.4,115z"/>
<path d="M10.3,103.3l-4.1-7.6l2.3-1.2l2.5,4.6l1.3-0.7l-2-3.7l2.1-1.1l2,3.7l1.5-0.8l-2.5-4.6l2.3-1.3l4.1,7.6L10.3,103.3z"/>
<path d="M4.8,93.5l-1-3.6l1.9-1c0.9-0.5,2.5-1,4.6-1.6c0.4-0.1,0.9-0.3,1.5-0.4l-0.3-1.1c-0.4,0.1-0.7,0.2-0.9,0.3
	c-0.7,0.2-1.4,0.3-2.1,0.5S6.9,86.9,5.8,87l-2.7,0.1l-1-3.8l2.4-1.3c1.7-0.8,3.1-1.3,4.5-1.7c0.5-0.1,0.8-0.2,1-0.3L9.6,79
	c-0.3,0.1-0.8,0.2-1.6,0.4c-2,0.6-3.5,0.9-4.5,1l-2.3,0.2l-0.9-3.3l11.1-0.4l1.1,4l-2.9,1.6c-1,0.5-2.4,1-4,1.4
	C5.4,83.9,5,84,4.6,84.1l0.3,1.1l1-0.3c1.7-0.5,3.1-0.7,4.2-0.8l3.3-0.1l1.1,4.1L4.8,93.5z"/>
<path d="M0,67.3l0.4-4.5l8.2-3.5l-0.5-1c-1.8,0.9-3.4,1.4-5.1,1.3l-2.3-0.2L1,56.1L11.8,57l-0.3,3.8l-9.7,4.1l0.5,1
	c1.6-0.8,3.6-1.4,5.5-1.3l3.3,0.3l-0.3,3.3L0,67.3z"/>
<path d="M1.8,52.6l2.4-8.3l2.5,0.7l-1.5,5.1l1.5,0.4l1.2-4l2.3,0.7l-1.2,4l1.6,0.5l1.5-5.1l2.5,0.7l-2.4,8.3L1.8,52.6z"/>
<path d="M4.8,41.7l1.8-3.2l2.1,0.7c1,0.3,2.5,1,4.3,2.1c0.4,0.2,0.8,0.5,1.3,0.8l0.6-1c-0.4-0.2-0.7-0.4-0.8-0.5
	c-0.6-0.3-1.2-0.7-1.8-1.1c-0.6-0.4-1.3-1-2.2-1.7l-2-1.8l1.9-3.4l2.6,0.8c1.8,0.6,3.1,1.2,4.4,2c0.4,0.2,0.7,0.4,0.9,0.5l0.6-1
	c-0.3-0.1-0.7-0.4-1.4-0.8c-1.8-1-3.1-1.9-3.9-2.5l-1.7-1.5l1.7-3l8.2,7.5l-2,3.6l-3.2-1c-1.1-0.4-2.4-1-3.8-1.8
	c-0.2-0.1-0.6-0.3-0.9-0.6l-0.6,1l0.9,0.5c1.5,0.9,2.7,1.6,3.5,2.4l2.5,2.3l-2.1,3.7L4.8,41.7z"/>
<path d="M19.9,19.7l3.5-2.9l8.2,3.3l0.3-1.1c-1.9-0.6-3.4-1.4-4.5-2.7l-1.5-1.8l2.5-2.1l7,8.3l-2.9,2.5l-9.7-3.9l-0.4,1
	c1.7,0.5,3.6,1.5,4.8,3l2.1,2.5L26.9,28L19.9,19.7z"/>
<path d="M31.4,10.6L39,6.4l1.3,2.3l-4.6,2.5l0.7,1.3l3.6-2l1.2,2.1l-3.6,2l0.8,1.5l4.6-2.5l1.3,2.3l-7.5,4.2L31.4,10.6z"/>
<path d="M41.2,5l3.6-1l1,1.9c0.5,0.9,1,2.5,1.6,4.5c0.1,0.4,0.3,0.9,0.4,1.5l1.1-0.3c-0.1-0.4-0.2-0.7-0.3-0.9
	c-0.2-0.7-0.3-1.4-0.5-2.1S47.9,7,47.7,5.9l-0.1-2.7l3.7-1l1.3,2.4C53.5,6.2,54,7.6,54.4,9c0.1,0.5,0.2,0.8,0.3,1l1.1-0.3
	c-0.1-0.3-0.2-0.8-0.5-1.6c-0.6-2-0.9-3.5-1-4.5l-0.2-2.3l3.3-0.9l0.5,11.1l-4,1.1l-1.6-2.9c-0.5-1-1-2.3-1.5-4
	c-0.1-0.3-0.2-0.6-0.3-1.1L49.6,5l0.3,1c0.5,1.7,0.7,3.1,0.8,4.2l0.2,3.3l-4,1.1L41.2,5z"/>
</svg>
