<?xml version="1.0" encoding="utf-8"?>
<!-- Generator: Adobe Illustrator 24.1.0, SVG Export Plug-In . SVG Version: 6.00 Build 0)  -->
<svg version="1.1" id="Calque_1" xmlns="http://www.w3.org/2000/svg" xmlns:xlink="http://www.w3.org/1999/xlink" x="0px" y="0px"
	 viewBox="0 0 343 172" style="enable-background:new 0 0 343 172;" xml:space="preserve">
<g>
	<g>
		<path d="M88.9,172.1c-27.6,0-51.1-4.4-67.2-13.2c-10.9-6-17.8-13.7-20.5-22.9C-10,97.4,57.2,43.6,151.1,16.1
			c69.4-20.4,136.2-21.5,170.2-2.9c10.9,6,17.8,13.7,20.5,22.9c11.2,38.6-56,92.4-149.9,119.9C155.4,166.7,119.6,172.1,88.9,172.1z
			 M254.1,0.9c-30.6,0-66.3,5.4-102.7,16.1C58.1,44.4-8.9,97.7,2.2,135.7c2.6,9,9.3,16.5,20,22.3c33.8,18.5,100.3,17.3,169.4-3
			c93.4-27.4,160.3-80.6,149.2-118.7c-2.6-9-9.3-16.5-20-22.3C304.9,5.3,281.6,0.9,254.1,0.9z"/>
	</g>
</g>
</svg>
