<?xml version="1.0" encoding="utf-8"?>
<!-- Generator: Adobe Illustrator 24.1.0, SVG Export Plug-In . SVG Version: 6.00 Build 0)  -->
<svg version="1.1" id="Calque_1" xmlns="http://www.w3.org/2000/svg" xmlns:xlink="http://www.w3.org/1999/xlink" x="0px" y="0px"
	 viewBox="0 0 57 29" style="enable-background:new 0 0 57 29;" xml:space="preserve">
<g>
	<path d="M15,29c-4.6,0-8.5-0.7-11.2-2.2c-1.9-1-3.1-2.4-3.6-4C-1.7,16.2,9.2,7.3,25,2.6c11.5-3.4,22.5-3.5,28.2-0.4
		c1.9,1,3.1,2.4,3.6,4c1.9,6.6-9,15.5-24.8,20.2C25.9,28.1,20,29,15,29z M42,1c-5,0-10.8,0.9-16.7,2.6C10.3,8-0.6,16.5,1.2,22.5
		c0.4,1.4,1.4,2.5,3.1,3.4c5.4,3,16.2,2.8,27.4-0.5C46.7,21,57.6,12.5,55.8,6.5c-0.4-1.4-1.4-2.5-3.1-3.4C50.2,1.7,46.5,1,42,1z"/>
</g>
</svg>
