<?xml version="1.0" encoding="utf-8"?>
<!-- Generator: Adobe Illustrator 24.1.0, SVG Export Plug-In . SVG Version: 6.00 Build 0)  -->
<svg version="1.1" id="Calque_1" xmlns="http://www.w3.org/2000/svg" xmlns:xlink="http://www.w3.org/1999/xlink" x="0px" y="0px"
	 viewBox="0 0 69.5 70" style="enable-background:new 0 0 69.5 70;" xml:space="preserve">
<style type="text/css">
	.st0{fill:#FFFFFF;}
</style>
<g>
	<path class="st0" d="M40.7,10.4l2.4,9l5.4-4.2l-3.3,18l-2.4-9l-5.4,4.2L40.7,10.4z M18.2,18.6l2.4,9l5.4-4.2l-3.3,18l-2.4-9
		l-5.4,4.2L18.2,18.6z M55.3,36.7c0-0.6,0.4-1.1,1-1.1l5.3-0.2c0.6,0,1.1,0.4,1.1,1c0,0.5-0.3,0.9-0.7,1c-0.1,0-0.2,0-0.3,0.1
		l-1.9,0.1c-0.6,9.8-6.7,18.3-15.9,21.6l-0.1,0c-9.2,3.3-19.3,0.8-26.1-6.4l-1.5,1.2c-0.1,0.1-0.2,0.1-0.3,0.2
		c-0.4,0.2-0.9,0-1.2-0.4c-0.4-0.5-0.3-1.1,0.2-1.5l4.2-3.2c0.5-0.4,1.1-0.3,1.5,0.2c0.4,0.5,0.3,1.1-0.2,1.5l-1,0.8
		c6.2,6.4,15.4,8.7,23.7,5.6c8.3-3,13.9-10.6,14.5-19.6l-1.3,0.1C55.9,37.8,55.4,37.3,55.3,36.7z M23.3,4.1
		c-11,4-18.9,13.3-21.1,24.8c-0.5,2.4,0.7,4.6,1.7,6.6c0.7,1.4,1.3,2.5,1.3,3.7c0,1.9-0.6,3.1-1.2,4c-0.6,1-0.9,1.6-0.4,3.1
		c6.2,17.1,25.1,25.9,42.2,19.7c17.1-6.2,25.9-25.1,19.7-42.2C63.2,17.4,59,12,53.6,8.2c-0.5-0.4-1.4-0.4-2.3-0.4c-1,0-2.1,0-3-0.5
		c-1-0.5-1.9-1.3-2.6-2.2c-0.8-0.9-1.6-1.7-2.5-1.9C36.5,1.5,29.7,1.8,23.3,4.1z M22.6,2.1c6.8-2.5,14.1-2.8,21-0.9
		c1.5,0.4,2.5,1.4,3.5,2.5c0.7,0.7,1.3,1.4,2.1,1.7c0.5,0.3,1.3,0.3,2.1,0.3c1.1,0,2.4,0,3.5,0.8C60.6,10.6,65,16.3,67.4,23
		c6.6,18.1-2.8,38.3-20.9,44.9S8.2,65.1,1.6,47c-0.9-2.5-0.1-3.8,0.5-4.9c0.5-0.8,0.9-1.5,0.9-2.9c0-0.6-0.5-1.7-1.1-2.8
		c-1.1-2.2-2.4-4.9-1.9-8C2.5,16.4,11.1,6.3,22.6,2.1z"/>
</g>
</svg>
