<?xml version="1.0" encoding="utf-8"?>
<!-- Generator: Adobe Illustrator 24.1.0, SVG Export Plug-In . SVG Version: 6.00 Build 0)  -->
<svg version="1.1" id="Calque_1" xmlns="http://www.w3.org/2000/svg" xmlns:xlink="http://www.w3.org/1999/xlink" x="0px" y="0px"
	 width="26px" height="29px" viewBox="0 0 26 29" style="enable-background:new 0 0 26 29;" xml:space="preserve">
<g>
	<path d="M20,8V7c0-3.9-3.1-7-7-7C9.1,0,6,3.1,6,7v1H0v21h26V8H20z M8,7c0-2.8,2.2-5,5-5s5,2.2,5,5v1H8V7z M24,27H2V10h4v3h2v-3h10
		v3h2v-3h4V27z"/>
	<path d="M13,13c-1.3,0-2.5,0.4-3.5,1.1l0,0l-0.2,0.2c-0.4,0.3-0.7,0.6-1,1l-0.2,0.2l0,0C7.4,16.5,7,17.7,7,19c0,3.3,2.7,6,6,6
		c1.3,0,2.5-0.4,3.5-1.1l0,0l0.2-0.2c0.4-0.3,0.7-0.6,1-1l0.2-0.2l0,0c0.7-1,1.1-2.2,1.1-3.5C19,15.7,16.3,13,13,13z M13,15
		c2.2,0,4,1.8,4,4c0,0.7-0.2,1.4-0.6,2L11,15.6C11.6,15.2,12.3,15,13,15z M13,23c-2.2,0-4-1.8-4-4c0-0.7,0.2-1.4,0.6-2l5.5,5.5
		C14.4,22.8,13.7,23,13,23z"/>
</g>
</svg>
