<?xml version="1.0" encoding="utf-8"?>
<!-- Generator: Adobe Illustrator 24.1.0, SVG Export Plug-In . SVG Version: 6.00 Build 0)  -->
<svg version="1.1" id="Calque_1" xmlns="http://www.w3.org/2000/svg" xmlns:xlink="http://www.w3.org/1999/xlink" x="0px" y="0px"
	 viewBox="0 0 19 22" style="enable-background:new 0 0 19 22;" xml:space="preserve">
<g>
	<path d="M7.9,8.2V12c-1-0.3-2-0.1-2.8,0.5C4.3,13.1,3.8,14,3.8,15c-0.1,0.9,0.3,1.7,0.9,2.3c0.6,0.6,1.4,0.9,2.3,0.9
		c0.9,0.1,1.7-0.2,2.3-0.9c0.6-0.6,0.9-1.5,0.8-2.3V0h3.7c0.6,4,2.6,4.9,5.2,5.3v3.8c-1.8-0.2-3.6-0.7-5.1-1.7v7.5
		c0,3.4-2,7.2-6.9,7.2c-1.9,0-3.7-0.8-5-2.1s-2-3.2-2-5.1c0.1-2,1-3.8,2.5-5.1S5.9,7.9,7.9,8.2z"/>
</g>
</svg>
