<?xml version="1.0" encoding="utf-8"?>
<!-- Generator: Adobe Illustrator 24.1.0, SVG Export Plug-In . SVG Version: 6.00 Build 0)  -->
<svg version="1.1" id="Calque_1" xmlns="http://www.w3.org/2000/svg" xmlns:xlink="http://www.w3.org/1999/xlink" x="0px" y="0px"
	 viewBox="0 0 24 16.8" style="enable-background:new 0 0 24 16.8;" xml:space="preserve">
<g>
	<path d="M9.5,11.5V4.8L16,8.2L9.5,11.5z M23.8,3.6c0,0-0.2-1.7-1-2.4c-0.9-1-1.9-1-2.4-1C17,0,12,0,12,0S7,0,3.6,0.2
		c-0.5,0.1-1.5,0.1-2.4,1c-0.7,0.7-1,2.4-1,2.4S0,5.5,0,7.5v1.8c0,1.9,0.2,3.9,0.2,3.9s0.2,1.7,1,2.4c0.9,1,2.1,0.9,2.6,1
		c1.9,0.2,8.2,0.2,8.2,0.2s5,0,8.4-0.3c0.5-0.1,1.5-0.1,2.4-1c0.7-0.7,1-2.4,1-2.4S24,11.2,24,9.2V7.4C24,5.5,23.8,3.6,23.8,3.6z"/>
</g>
</svg>
