<?xml version="1.0" standalone="no"?>
<!DOCTYPE svg PUBLIC "-//W3C//DTD SVG 1.1//EN" "http://www.w3.org/Graphics/SVG/1.1/DTD/svg11.dtd" >
<svg xmlns="http://www.w3.org/2000/svg" xmlns:xlink="http://www.w3.org/1999/xlink" version="1.1">
<metadata>
Created by FontForge 20170731 at Tue Mar 12 05:31:02 2019
 By Aleksey,,,
Copyright 2019 Dinamo (Johannes Breyer, Fabian Harb) &#38; Erkin Karamemet. All rights reserved.
</metadata>
<defs>
<font id="WhyteInktrap-BookItalic" horiz-adv-x="620" >
  <font-face 
    font-family="Whyte Inktrap Book"
    font-weight="350"
    font-style="italic"
    font-stretch="normal"
    units-per-em="1000"
    panose-1="2 11 0 4 5 1 1 2 1 3"
    ascent="800"
    descent="-200"
    x-height="495"
    cap-height="700"
    bbox="-412 -310 1269 1128"
    underline-thickness="24"
    underline-position="-97"
    slope="-12"
    unicode-range="U+000D-FB02"
  />
<missing-glyph horiz-adv-x="695" 
d="M52 0l149 700h487l-149 -700h-487zM143 75h337l117 550h-337z" />
    <glyph glyph-name="fi" unicode="fi" horiz-adv-x="599" 
d="M568 495l-105 -495h-86l90 423h-218l-90 -423h-86l92 423h-109l16 72h108l16 74q19 81 45.5 105t100.5 26h113l-16 -75h-97q-49 0 -60 -50l-17 -80h303zM525 700h89l-23 -108h-89z" />
    <glyph glyph-name="fl" unicode="fl" horiz-adv-x="618" 
d="M631 700l-149 -700h-86l133 625h-187q-49 0 -60 -50l-17 -80h128l-15 -72h-129l-90 -423h-86l92 423h-109l16 72h108l16 74q19 81 45.5 105t100.5 26h289z" />
    <glyph glyph-name="f_f" unicode="ff" horiz-adv-x="676" 
d="M602 575l-17 -80h128l-15 -72h-129l-90 -423h-86l92 423h-236l-90 -423h-86l92 423h-109l16 72h108l16 74q19 81 45.5 105t100.5 26h113l-16 -75h-97q-49 0 -60 -50l-17 -80h235l16 74q19 81 45.5 105t100.5 26h113l-16 -75h-97q-50 0 -60 -50z" />
    <glyph glyph-name="f_f_i" unicode="ffi" horiz-adv-x="919" 
d="M888 495l-105 -495h-86l90 423h-218l-90 -423h-86l92 423h-236l-90 -423h-86l92 423h-109l16 72h108l16 74q19 81 45.5 105t100.5 26h113l-16 -75h-97q-49 0 -60 -50l-17 -80h235l16 74q19 81 45.5 105t100.5 26h113l-16 -75h-97q-50 0 -60 -50l-17 -80h303zM845 700h89
l-23 -108h-89z" />
    <glyph glyph-name="f_f_l" unicode="ffl" horiz-adv-x="938" 
d="M951 700l-149 -700h-86l133 625h-187q-50 0 -60 -50l-17 -80h128l-15 -72h-129l-90 -423h-86l92 423h-236l-90 -423h-86l92 423h-109l16 72h108l16 74q19 81 45.5 105t100.5 26h113l-16 -75h-97q-49 0 -60 -50l-17 -80h235l16 74q19 81 45.5 105t100.5 26h289z" />
    <glyph glyph-name=".notdef" horiz-adv-x="695" 
d="M52 0l149 700h487l-149 -700h-487zM143 75h337l117 550h-337z" />
    <glyph glyph-name=".null" horiz-adv-x="0" 
 />
    <glyph glyph-name="nonmarkingreturn" horiz-adv-x="333" 
 />
    <glyph glyph-name="CR" unicode="&#xd;" horiz-adv-x="263" 
 />
    <glyph glyph-name="space" unicode=" " horiz-adv-x="263" 
 />
    <glyph glyph-name="exclam" unicode="!" horiz-adv-x="268" 
d="M109 217l32 266l46 217h89l-47 -221l-85 -262h-35zM21 0l27 125h119l-27 -125h-119z" />
    <glyph glyph-name="quotedbl" unicode="&#x22;" horiz-adv-x="389" 
d="M124 434l14 187l17 79h89l-17 -79l-58 -187h-45zM299 434l14 187l17 79h89l-17 -79l-58 -187h-45z" />
    <glyph glyph-name="numbersign" unicode="#" horiz-adv-x="714" 
d="M69 0l40 95q13 31 30 50t54 38l-19 35q-37 -23 -91 -23h-55l16 75h138l70 164h-123l16 76h138l80 190h82l-38 -90q-12 -30 -29.5 -49t-53.5 -39l18 -35q38 23 91 23h92l80 190h82l-37 -90q-12 -30 -29.5 -49t-53.5 -39l18 -35q38 23 91 23h55l-16 -76h-139l-70 -164h124
l-16 -75h-139l-82 -195h-82l41 95q14 32 30 50t54 38l-19 35q-37 -23 -91 -23h-92l-83 -195h-82zM264 270h160l70 164h-160z" />
    <glyph glyph-name="dollar" unicode="$" horiz-adv-x="588" 
d="M175 -106l22 102q-70 19 -114 67t-52 113l92 33q14 -98 92 -128l52 241l-22 8q-65 23 -100 60t-35 105q0 95 68 156.5t173 61.5l20 91h77l-22 -100q63 -16 102 -57.5t52 -94.5l-91 -32q-20 74 -81 98l-50 -230l28 -10q63 -22 107 -67.5t44 -110.5q0 -99 -69.5 -156.5
t-195.5 -57.5l-20 -92h-77zM287 413l21 101q9 41 21.5 65.5t39.5 48.5l-15 32q-77 -15 -115.5 -52t-38.5 -104q0 -69 87 -91zM439 198q0 73 -100 101l-25 -121q-7 -35 -19.5 -58.5t-39.5 -50.5l16 -32q75 12 121.5 55t46.5 106z" />
    <glyph glyph-name="percent" unicode="%" horiz-adv-x="930" 
d="M119 0l638 700h100l-637 -700h-101zM548 160q0 106 55 178t136 72q66 0 106 -45.5t40 -121.5q0 -106 -54 -176.5t-136 -70.5q-69 0 -108 43.5t-39 120.5zM807 244q0 47 -19 74t-52 27q-44 0 -76.5 -56t-32.5 -130q0 -98 71 -98q44 0 76.5 55t32.5 128zM89 458
q0 106 55 178t136 72q66 0 106 -45.5t40 -121.5q0 -106 -54 -176.5t-136 -70.5q-69 0 -108 43.5t-39 120.5zM348 542q0 47 -19 74t-52 27q-44 0 -76.5 -56t-32.5 -130q0 -98 71 -98q44 0 76.5 55t32.5 128z" />
    <glyph glyph-name="ampersand" unicode="&#x26;" horiz-adv-x="646" 
d="M34 173q0 114 156 205q-23 64 -23 120q0 88 49.5 152t132.5 64q73 0 116 -39.5t43 -105.5q0 -71 -68.5 -129t-179.5 -68l-8 -40q46 -14 80 -57q42 -57 102 -108q35 48 76 160l79 -34q-41 -107 -90 -175q45 -32 103 -59l-35 -72q-68 30 -123 71q-88 -72 -192 -72
q-100 0 -159 49t-59 138zM261 414l39 20q65 34 95.5 65.5t30.5 71.5q0 33 -21.5 53t-56.5 20q-49 0 -74.5 -40.5t-25.5 -105.5q0 -45 13 -84zM406 93l7 37q-38 2 -65 17.5t-55 49.5q-26 31 -74 112q-96 -55 -96 -136q0 -50 36.5 -81t84.5 -31q98 0 162 32z" />
    <glyph glyph-name="quotesingle" unicode="'" horiz-adv-x="214" 
d="M124 434l14 187l17 79h89l-17 -79l-58 -187h-45z" />
    <glyph glyph-name="parenleft" unicode="(" horiz-adv-x="322" 
d="M49 163q0 129 48 270q50 144 131 237q83 95 178 95l-17 -77q-72 -12 -132 -101q-61 -90 -95 -208t-34 -217q0 -112 22.5 -169.5t73.5 -73.5l-16 -79q-83 18 -121 98.5t-38 224.5z" />
    <glyph glyph-name="parenright" unicode=")" horiz-adv-x="321" 
d="M297 442q0 -128 -48 -271q-49 -143 -130 -236q-83 -95 -179 -95l17 77q72 12 132 100q59 87 94 209t35 217q0 112 -22.5 169.5t-73.5 73.5l16 79q83 -18 121 -98.5t38 -224.5z" />
    <glyph glyph-name="asterisk" unicode="*" horiz-adv-x="526" 
d="M229 385l-69 44l27 32q47 62 101 87l-20 37q-44 -28 -116 -28h-39l16 80l149 -6l-54 139l77 30l15 -43q13 -39 13 -68q0 -12 -2 -30h40q4 27 16 52q11 23 39 60l25 33l68 -46l-105 -127l155 6l-15 -80h-39q-76 0 -117 25l-20 -37q33 -24 63 -93l16 -36l-81 -31l-47 133z
" />
    <glyph glyph-name="plus" unicode="+" horiz-adv-x="622" 
d="M291 85v225h-225v85h225v225h85v-225h225v-85h-225v-225h-85z" />
    <glyph glyph-name="comma" unicode="," horiz-adv-x="269" 
d="M-11 -135l100 135h-57l26 125h119l-28 -130l-96 -130h-64z" />
    <glyph glyph-name="hyphen" unicode="-" horiz-adv-x="413" 
d="M73 264l19 90h273l-19 -90h-273z" />
    <glyph glyph-name="period" unicode="." horiz-adv-x="259" 
d="M24 0l27 125h119l-27 -125h-119z" />
    <glyph glyph-name="slash" unicode="/" horiz-adv-x="438" 
d="M-34 -105l460 910h90l-460 -910h-90z" />
    <glyph glyph-name="zero" unicode="0" horiz-adv-x="682" 
d="M76 271q-2 113 38.5 215t117.5 166t171 62q112 0 179 -79.5t67 -210.5q2 -178 -90.5 -310t-235.5 -128q-119 0 -183 76.5t-64 208.5zM555 426q0 91 -40.5 148.5t-116.5 57.5q-64 2 -118 -53.5t-82.5 -139.5t-27.5 -170q0 -94 40 -147.5t118 -53.5q65 -2 118.5 52
t81.5 136.5t27 169.5z" />
    <glyph glyph-name="one" unicode="1" horiz-adv-x="410" 
d="M162 0l98 462q16 78 47 123h-47q-30 -61 -79.5 -98.5t-110.5 -39.5l21 97q61 8 125.5 50.5t112.5 105.5h72l-149 -700h-90z" />
    <glyph glyph-name="two" unicode="2" horiz-adv-x="585" 
d="M13 0l25 111q155 78 246 136q195 126 195 255q0 61 -35.5 95t-94.5 34t-99 -43t-46 -117l-95 22q14 103 78 162t168 59q99 0 159.5 -58.5t60.5 -145.5q0 -138 -130 -244q-101 -81 -335 -185l23 -40q61 44 149 44h215l-18 -85h-466z" />
    <glyph glyph-name="three" unicode="3" horiz-adv-x="581" 
d="M39 200l95 15q-3 -68 32 -108.5t102 -40.5q65 0 106.5 41t41.5 99q0 54 -33.5 82.5t-90.5 28.5h-46l17 78h46q76 0 118 38t42 99q0 46 -33 74t-81 28q-57 0 -95.5 -34.5t-47.5 -94.5l-94 22q17 84 80.5 135.5t162.5 51.5q89 0 145 -47t56 -120q0 -80 -55 -125.5
t-130 -48.5l-8 -38q59 -5 100 -43.5t41 -96.5q0 -83 -67 -146t-174 -63q-113 0 -173 57.5t-57 156.5z" />
    <glyph glyph-name="four" unicode="4" horiz-adv-x="591" 
d="M314 0l41 194h-334l20 94l362 412h150l-91 -428h101l-17 -78h-101l-41 -194h-90zM372 272l43 204q17 81 69 133l-33 28l-9 -10l-314 -362l31 -30q18 14 23 17.5t18.5 9.5t27.5 7.5t39 2.5h105z" />
    <glyph glyph-name="five" unicode="5" horiz-adv-x="592" 
d="M39 162l94 20q4 -53 44.5 -84.5t96.5 -31.5q77 0 121.5 48.5t44.5 123.5q0 56 -35 90t-94 34q-77 0 -143 -79l-96 25l130 392h403l-18 -85h-329l-42 -129q-27 -80 -76 -136h54q16 33 56 62t93 29q77 0 134 -54t57 -143q0 -115 -72.5 -186.5t-191.5 -71.5
q-100 0 -161 49.5t-70 126.5z" />
    <glyph glyph-name="six" unicode="6" horiz-adv-x="623" 
d="M74 263q-1 121 44.5 223.5t136 166t209.5 61.5q95 0 159 -26l-19 -88q-76 26 -147 26q-120 0 -204.5 -80.5t-105.5 -224.5h43q13 51 61.5 91t117.5 40q88 0 144.5 -57.5t56.5 -140.5q0 -112 -73 -190t-186 -78t-175 71t-62 206zM474 241q0 62 -35.5 96.5t-98.5 34.5
q-66 0 -115.5 -52.5t-49.5 -120.5q0 -60 37.5 -96.5t95.5 -36.5q70 0 118 53t48 122z" />
    <glyph glyph-name="seven" unicode="7" horiz-adv-x="510" 
d="M487 615l16 11l-23 34q-65 -45 -151 -45h-228l18 85h465l-23 -112q-178 -115 -256.5 -250.5t-102.5 -337.5h-105q49 406 390 615z" />
    <glyph glyph-name="eight" unicode="8" horiz-adv-x="607" 
d="M47 173q0 78 57.5 124t146.5 51l10 41q-58 13 -91.5 46.5t-33.5 87.5q0 84 69 137.5t172 53.5q92 0 151.5 -48.5t59.5 -124.5q0 -71 -52 -113.5t-125 -47.5l-9 -41q58 -13 96.5 -51t38.5 -92q0 -89 -70.5 -149.5t-190.5 -60.5q-109 0 -169 52t-60 135zM494 531
q0 47 -34.5 75t-87.5 28q-62 0 -102.5 -36t-40.5 -89q0 -102 121 -102q71 0 107.5 35t36.5 89zM442 204q0 54 -37 83.5t-103 29.5q-76 0 -118 -38.5t-42 -97.5q0 -54 38.5 -84.5t100.5 -30.5q71 0 116 40t45 98z" />
    <glyph glyph-name="nine" unicode="9" horiz-adv-x="616" 
d="M43 15l19 88q61 -27 141 -27q101 0 168 49q110 82 135 238h-41q-49 -104 -164 -104q-91 0 -146 57t-55 144q0 108 67.5 181t178.5 73q99 0 163 -64q75 -77 75 -226q1 -122 -41.5 -221t-129 -158.5t-204.5 -58.5q-110 0 -166 29zM482 496q0 63 -38.5 100.5t-93.5 37.5
q-69 0 -111.5 -48t-42.5 -114q0 -61 36 -97.5t94 -36.5q72 0 114 44.5t42 113.5z" />
    <glyph glyph-name="colon" unicode=":" horiz-adv-x="261" 
d="M98 370l27 125h119l-27 -125h-119zM18 0l27 125h119l-27 -125h-119z" />
    <glyph glyph-name="semicolon" unicode=";" horiz-adv-x="278" 
d="M109 370l27 125h119l-27 -125h-119zM-12 -135l100 135h-57l26 125h119l-28 -130l-96 -130h-64z" />
    <glyph glyph-name="less" unicode="&#x3c;" horiz-adv-x="676" 
d="M605 631v-98l-323 -126q-86 -32 -154 -36v-38q66 -2 154 -36l323 -126v-102l-534 215v132z" />
    <glyph glyph-name="equal" unicode="=" horiz-adv-x="739" 
d="M118 415v85h535v-85h-535zM118 200v85h535v-85h-535z" />
    <glyph glyph-name="greater" unicode="&#x3e;" horiz-adv-x="676" 
d="M116 69v98l323 126q86 33 154 36v38q-66 2 -154 36l-323 126v102l534 -215v-132z" />
    <glyph glyph-name="question" unicode="?" horiz-adv-x="485" 
d="M297 397q64 43 89 71t28 74q0 42 -25.5 66.5t-72.5 24.5q-57 0 -92 -38t-44 -111l-87 19q7 96 70 153t160 57q81 0 133 -47.5t52 -115.5q0 -50 -21 -87q-20 -35 -50.5 -62.5t-92.5 -69.5q-51 -34 -63.5 -51t-21.5 -63h-90q19 79 38 106t90 74zM115 0l27 125h118l-26 -125
h-119z" />
    <glyph glyph-name="at" unicode="@" horiz-adv-x="888" 
d="M57 234q-3 206 127.5 344.5t323.5 135.5q171 2 271 -96.5t98 -239.5q2 -123 -68.5 -213t-161.5 -88q-87 0 -87 70v12h-32q-40 -82 -121 -82q-69 0 -109 49t-40 127q-2 92 62 174.5t148 79.5q85 0 109 -80h33q-5 38 -5 48q0 8 2 20h75l-67 -305q-2 -14 -2 -15
q0 -33 41 -33q57 0 100 72t43 164q0 113 -75 188.5t-214 75.5q-156 2 -264 -113t-105 -286q0 -137 85.5 -211.5t214.5 -74.5q151 0 252 68l29 -67q-108 -73 -281 -73q-169 -2 -276.5 95t-105.5 254zM577 332q0 110 -98 110q-55 2 -98 -61t-42 -127q0 -112 80 -112
q68 0 113 58t45 132z" />
    <glyph glyph-name="A" unicode="A" horiz-adv-x="685" 
d="M512 0l-26 189h-307l-107 -189h-106l411 700h129l104 -700h-98zM227 274h248l-28 206q-7 45 -7 90q0 28 3 63h-38q-10 -42 -24 -76q-15 -36 -40 -81z" />
    <glyph glyph-name="B" unicode="B" horiz-adv-x="704" 
d="M52 0l149 700h278q84 0 137 -42.5t53 -111.5q0 -67 -42.5 -109.5t-120.5 -51.5l-8 -38q68 -5 106 -41t38 -97q0 -86 -70 -147.5t-182 -61.5h-338zM229 405h194q70 0 111 33.5t41 89.5q0 87 -115 87h-186zM161 85h226q72 0 116 37.5t44 97.5q0 48 -33.5 74.5t-91.5 26.5
h-210z" />
    <glyph glyph-name="C" unicode="C" horiz-adv-x="733" 
d="M72 285q0 110 47 210q49 101 134.5 160t192.5 59q118 0 193.5 -61t97.5 -147l-98 -29q-16 58 -62 105q-45 48 -135 48q-120 2 -198 -103t-76 -242q0 -100 55.5 -157.5t152.5 -57.5q158 0 232 167l90 -43q-42 -91 -122 -150q-79 -58 -204 -58q-144 0 -222 82t-78 217z" />
    <glyph glyph-name="D" unicode="D" horiz-adv-x="734" 
d="M53 0l148 700h194q139 0 225 -80t86 -206q2 -179 -109.5 -298t-294.5 -116h-249zM162 85h124q157 0 241.5 88.5t84.5 233.5q0 97 -60 152.5t-173 55.5h-105z" />
    <glyph glyph-name="E" unicode="E" horiz-adv-x="638" 
d="M52 0l149 700h484l-18 -85h-393l-45 -210h290l-18 -84h-290l-50 -236h393l-18 -85h-484z" />
    <glyph glyph-name="F" unicode="F" horiz-adv-x="633" 
d="M52 0l149 700h499l-18 -85h-408l-49 -230h320l-18 -85h-320l-64 -300h-91z" />
    <glyph glyph-name="G" unicode="G" horiz-adv-x="769" 
d="M72 288q-1 79 27 156.5t77 138t122.5 97t156.5 34.5q117 0 193.5 -59.5t102.5 -151.5l-98 -30q-20 69 -75 112.5t-132 43.5q-80 2 -145.5 -47t-100 -128t-32.5 -166q0 -103 57 -160t149 -57q91 -2 159 58.5t82 127.5h-241l18 85h337l-73 -342h-87q6 31 26 73q18 38 38 67
h-46q-31 -61 -89.5 -107.5t-144.5 -46.5q-126 0 -203.5 79.5t-77.5 222.5z" />
    <glyph glyph-name="H" unicode="H" horiz-adv-x="765" 
d="M52 0l149 700h91l-62 -295h374l63 295h91l-149 -700h-91l68 320h-375l-68 -320h-91z" />
    <glyph glyph-name="I" unicode="I" horiz-adv-x="299" 
d="M52 0l149 700h91l-149 -700h-91z" />
    <glyph glyph-name="J" unicode="J" horiz-adv-x="498" 
d="M5 147q0 31 7 58l94 15q-7 -32 -7 -63q0 -89 80 -89q50 0 79.5 36.5t48.5 124.5l100 471h91l-106 -501q-23 -110 -73.5 -161.5t-136.5 -51.5q-80 0 -128.5 43t-48.5 118z" />
    <glyph glyph-name="K" unicode="K" horiz-adv-x="694" 
d="M738 700l-347 -296l270 -404h-111l-227 347l-129 -111l-51 -236h-91l149 700h91l-38 -181q-18 -88 -78 -140l27 -32l402 353h133z" />
    <glyph glyph-name="L" unicode="L" horiz-adv-x="580" 
d="M52 0l149 700h91l-130 -613h373l-19 -87h-464z" />
    <glyph glyph-name="M" unicode="M" horiz-adv-x="936" 
d="M52 0l149 700h142l78 -411q10 -50 10 -90q0 -42 -10 -88h41q15 70 25 99.5t38 75.5l252 414h152l-149 -700h-91l81 380q25 114 101 230l-37 22l-387 -632h-58l-122 631l-40 -8q11 -75 11 -116q0 -58 -14 -125l-81 -382h-91z" />
    <glyph glyph-name="N" unicode="N" horiz-adv-x="801" 
d="M52 0l149 700h134l250 -589l37 14q-14 42 -14 85q0 46 12 100l83 390h91l-149 -700h-109l-262 619l-38 -15q10 -33 10 -75q0 -49 -16 -120l-87 -409h-91z" />
    <glyph glyph-name="O" unicode="O" horiz-adv-x="800" 
d="M74 309q-2 103 48 197.5t139 152t192 55.5q139 0 228 -86t89 -237q2 -106 -47 -200t-137.5 -150.5t-193.5 -54.5q-141 0 -229.5 84.5t-88.5 238.5zM676 392q0 108 -59 172.5t-166 64.5q-119 3 -202 -96t-81 -229q0 -107 59 -170t165 -63q119 -3 202.5 95.5t81.5 225.5z
" />
    <glyph glyph-name="P" unicode="P" horiz-adv-x="647" 
d="M52 0l149 700h235q109 0 169 -52.5t60 -141.5q0 -100 -73 -164t-191 -64h-199l-59 -278h-91zM219 358h179q80 0 126.5 41t46.5 107q0 50 -36.5 79.5t-101.5 29.5h-159z" />
    <glyph glyph-name="Q" unicode="Q" horiz-adv-x="816" 
d="M74 309q-2 103 48 197.5t139 152t192 55.5q139 0 228 -86t89 -237q0 -81 -29.5 -157t-81.5 -134q36 -30 116 -30l-18 -83q-73 0 -104 22t-40 65h-37q-70 -88 -195 -88q-134 0 -220.5 85.5t-86.5 237.5zM546 126l-32 50q-33 49 -65 71t-74 22q-7 0 -23 -2l20 91q22 2 23 2
q74 0 122 -60q32 -37 59 -133h39q61 114 61 225q0 108 -59 172.5t-166 64.5q-119 3 -202 -96t-81 -229q0 -107 59 -170t165 -63q91 0 154 55z" />
    <glyph glyph-name="R" unicode="R" horiz-adv-x="689" 
d="M52 0l149 700h251q96 0 152.5 -49.5t56.5 -126.5q0 -95 -60 -134q-59 -38 -137 -41l-8 -38q57 -1 86 -33t38 -101l22 -177h-97l-15 169q-6 67 -32.5 95.5t-94.5 28.5h-157l-63 -293h-91zM223 377h177q74 0 120.5 36t46.5 100q0 46 -32.5 74t-82.5 28h-178z" />
    <glyph glyph-name="S" unicode="S" horiz-adv-x="595" 
d="M33 186l92 33q9 -69 50 -109.5t114 -40.5q72 0 113 36t41 89q0 42 -27 67t-86 41l-81 24q-136 40 -136 172q0 90 68.5 152.5t169.5 62.5q105 0 163.5 -49.5t73.5 -125.5l-93 -29q-11 48 -44 84q-33 37 -105 37q-61 0 -101.5 -36.5t-40.5 -85.5q0 -41 22 -61.5t80 -38.5
l84 -26q68 -22 110 -67.5t42 -112.5q0 -92 -70 -154t-191 -62q-102 0 -169.5 55t-78.5 145z" />
    <glyph glyph-name="T" unicode="T" horiz-adv-x="618" 
d="M207 0l131 615h-247l18 85h594l-18 -85h-256l-131 -615h-91z" />
    <glyph glyph-name="U" unicode="U" horiz-adv-x="714" 
d="M91 191q0 35 9 79l91 430h91l-89 -418q-9 -40 -9 -75q0 -135 136 -135q91 0 143 52t74 159l88 417h91l-93 -439q-31 -141 -102.5 -208t-200.5 -67q-105 0 -167 53t-62 152z" />
    <glyph glyph-name="V" unicode="V" horiz-adv-x="644" 
d="M201 0l-72 700h97l45 -478q2 -40 2 -52q0 -47 -9 -95h40q19 83 53 146l249 479h104l-373 -700h-136z" />
    <glyph glyph-name="W" unicode="W" horiz-adv-x="978" 
d="M150 0l-12 700h92l4 -415q1 -82 -20 -200h41q9 42 25 92q12 38 44 104l208 419h108l22 -415q3 -47 3 -74q0 -65 -11 -126h39q13 62 23 95q14 48 43 111l183 409h99l-326 -700h-122l-21 399q-1 15 -1 34q0 83 17 187h-41q-23 -119 -73 -217l-200 -403h-124z" />
    <glyph glyph-name="X" unicode="X" horiz-adv-x="639" 
d="M-41 0l330 363l-163 337h103l73 -154q31 -65 31 -110q0 -12 -3 -35h41q13 72 77 142l140 157h118l-305 -332l179 -368h-105l-87 188q-30 67 -30 111q0 17 3 32h-40q-12 -68 -77 -143l-166 -188h-119z" />
    <glyph glyph-name="Y" unicode="Y" horiz-adv-x="642" 
d="M225 0l63 295l-166 405h102l86 -223q19 -48 19 -90q0 -20 -4 -40h39q14 77 55 130l174 223h115l-328 -401l-64 -299h-91z" />
    <glyph glyph-name="Z" unicode="Z" horiz-adv-x="617" 
d="M-12 0l27 132l553 502l-25 31q-60 -50 -143 -50h-262l18 85h508l-24 -117l-566 -513l26 -30q61 45 158 45h292l-18 -85h-544z" />
    <glyph glyph-name="bracketleft" unicode="[" horiz-adv-x="330" 
d="M8 -150l193 905h211l-15 -70h-132l-163 -765h132l-15 -70h-211z" />
    <glyph glyph-name="backslash" unicode="\" horiz-adv-x="413" 
d="M225 -105l-73 910h82l73 -910h-82z" />
    <glyph glyph-name="bracketright" unicode="]" horiz-adv-x="330" 
d="M347 755l-193 -905h-211l15 70h132l163 765h-132l15 70h211z" />
    <glyph glyph-name="asciicircum" unicode="^" horiz-adv-x="525" 
d="M82 335l151 365h125l151 -365h-94l-64 163q-31 77 -36 155h-40q-5 -70 -36 -155l-62 -163h-95z" />
    <glyph glyph-name="underscore" unicode="_" horiz-adv-x="610" 
d="M-25 -145l18 80h500l-18 -80h-500z" />
    <glyph glyph-name="grave" unicode="`" horiz-adv-x="572" 
d="M239 567l-79 139h108l20 -139h-49z" />
    <glyph glyph-name="a" unicode="a" horiz-adv-x="537" 
d="M34 123q0 102 97 148q97 48 253 48l2 13q0 3 0.5 7t1 6.5t0.5 5v3.5q0 80 -105 80q-55 0 -91 -26.5t-51 -62.5l-77 38q23 53 80 89.5t140 36.5q90 0 139.5 -39t49.5 -111q0 -23 -6 -49l-43 -206q0 -3 -0.5 -6t-1.5 -5v-2q0 -16 25 -16h50l-16 -75h-44q-66 0 -66 63
q0 18 4 35h-40q-22 -49 -64.5 -80.5t-101.5 -31.5q-58 0 -96.5 35t-38.5 102zM360 205l10 50q-106 0 -177 -31.5t-71 -95.5q0 -33 22.5 -51.5t63.5 -18.5q51 0 95 41t57 106z" />
    <glyph glyph-name="b" unicode="b" horiz-adv-x="574" 
d="M141 118h-49q22 -44 22 -94q0 -10 -2 -24h-80l150 700h86l-29 -133q-18 -90 -91 -170h58q55 112 156 112q74 0 122.5 -54t48.5 -145q1 -80 -30.5 -155.5t-90.5 -123t-129 -45.5q-115 0 -142 132zM447 303q0 64 -31.5 97.5t-81.5 33.5q-68 3 -121.5 -75.5t-51.5 -163.5
q0 -134 111 -134q74 -2 125.5 74.5t49.5 167.5z" />
    <glyph glyph-name="c" unicode="c" horiz-adv-x="532" 
d="M44 201q-1 77 31 147.5t94 116t139 44.5q77 0 129 -41t67 -108l-83 -22q-12 43 -42 70t-76 27q-53 1 -94 -35.5t-60 -87.5t-18 -103q0 -75 36.5 -112t93.5 -37q49 0 87 32t61 83l76 -37q-70 -152 -229 -152q-95 0 -153.5 56.5t-58.5 158.5z" />
    <glyph glyph-name="d" unicode="d" horiz-adv-x="573" 
d="M42 185q-1 80 30 155t88 123t123 46q126 0 152 -133h49q-24 44 -24 95q0 38 10 84l30 145h86l-149 -700h-74q5 19 22 48q19 31 37 49h-54q-62 -111 -155 -111q-74 0 -122.5 54t-48.5 145zM414 300q0 134 -111 134q-74 2 -125.5 -74.5t-49.5 -167.5q0 -64 31.5 -97.5
t81.5 -33.5q69 -3 122 75t51 164z" />
    <glyph glyph-name="e" unicode="e" horiz-adv-x="534" 
d="M43 195q-2 74 30 146.5t93.5 121t134.5 46.5q88 0 138 -54t50 -141q0 -46 -13 -89h-347q-4 -19 -4 -40q0 -56 31.5 -90.5t85.5 -34.5q98 0 155 103l73 -38q-78 -139 -231 -139q-88 0 -142 54t-54 155zM143 296h259q2 22 2 30q0 51 -29 82t-79 31q-49 0 -92 -39t-61 -104z
" />
    <glyph glyph-name="f" unicode="f" horiz-adv-x="356" 
d="M73 0l92 423h-109l16 72h108l16 74q19 81 45.5 105t100.5 26h113l-16 -75h-97q-49 0 -60 -50l-17 -80h128l-15 -72h-129l-90 -423h-86z" />
    <glyph glyph-name="g" unicode="g" horiz-adv-x="575" 
d="M-31 -99q0 35 22.5 61.5t64.5 39.5l8 35q-38 20 -38 55q0 30 24 56t67 38l9 36q-33 33 -33 96q0 76 59 133.5t143 57.5q67 0 103 -30t48 -69h35q15 85 85 85h47l-15 -72h-37q-34 0 -47.5 -14t-24.5 -59l-7 -33q-18 -84 -69.5 -129.5t-132.5 -45.5q-64 0 -113 26
q-25 -9 -43 -26t-18 -32q0 -32 47 -32h194q68 0 104.5 -36.5t36.5 -87.5q0 -71 -46.5 -110t-136.5 -39h-214q-60 0 -91 28t-31 68zM404 343q0 40 -27.5 67.5t-73.5 27.5q-53 0 -88.5 -38t-35.5 -92q0 -42 27.5 -68.5t74.5 -26.5q55 0 89 37t34 93zM127 -119h184q91 0 91 68
q0 51 -70 51h-228q-57 -24 -57 -67q0 -52 80 -52z" />
    <glyph glyph-name="h" unicode="h" horiz-adv-x="580" 
d="M33 0l148 700h86l-38 -173q-17 -73 -74 -137h52q21 43 59 81q40 38 101 38q69 0 111.5 -42.5t42.5 -113.5q0 -30 -7 -57l-63 -296h-86l64 302q5 22 5 38q0 44 -23.5 69t-66.5 25q-66 0 -112.5 -61.5t-63.5 -142.5l-49 -230h-86z" />
    <glyph glyph-name="i" unicode="i" horiz-adv-x="255" 
d="M158 592l23 108h89l-23 -108h-89zM33 0l105 495h86l-105 -495h-86z" />
    <glyph glyph-name="j" unicode="j" horiz-adv-x="262" 
d="M163 592l23 108h92l-23 -108h-92zM-130 -195l16 78h80q50 0 60 50l119 562h86l-121 -570q-14 -66 -44.5 -93t-96.5 -27h-99z" />
    <glyph glyph-name="k" unicode="k" horiz-adv-x="565" 
d="M606 495l-272 -213l172 -282h-98l-137 231l-123 -97l-29 -134h-86l149 700h86l-61 -287q-15 -70 -31.5 -99t-55.5 -56l28 -34l335 271h123z" />
    <glyph glyph-name="l" unicode="l" horiz-adv-x="254" 
d="M32 0l149 700h86l-149 -700h-86z" />
    <glyph glyph-name="m" unicode="m" horiz-adv-x="885" 
d="M33 0l105 495h80q-10 -43 -57 -90h57q25 51 58 77.5t83 26.5q58 0 90.5 -32t35.5 -82h39q15 46 56.5 80t98.5 34q70 0 109 -38.5t39 -109.5q0 -30 -7 -62l-64 -299h-86l64 298q6 27 6 49q0 86 -86 86q-74 0 -113 -59q-38 -60 -56 -144l-49 -230h-86l64 298q6 28 6 51
q0 84 -79 84q-71 0 -114 -61q-43 -63 -59 -142l-49 -230h-86z" />
    <glyph glyph-name="n" unicode="n" horiz-adv-x="580" 
d="M33 0l105 495h85q-8 -32 -68 -105h52q22 44 60 82q37 37 100 37q69 0 111.5 -42.5t42.5 -113.5q0 -30 -7 -57l-63 -296h-86l64 302q5 22 5 38q0 44 -23.5 69t-66.5 25q-66 0 -112.5 -61.5t-63.5 -142.5l-49 -230h-86z" />
    <glyph glyph-name="o" unicode="o" horiz-adv-x="553" 
d="M42 192q-1 78 32.5 151t97.5 120.5t142 45.5q89 0 143.5 -57.5t54.5 -149.5q2 -124 -75.5 -221t-196.5 -95q-90 0 -144 56.5t-54 149.5zM425 302q0 64 -32.5 98t-85.5 34q-81 2 -130 -73.5t-48 -168.5q0 -64 31.5 -97.5t86.5 -33.5q82 0 130 73t48 168z" />
    <glyph glyph-name="p" unicode="p" horiz-adv-x="574" 
d="M-10 -195l148 690h74q-14 -46 -63 -98h57q25 49 66 80.5t90 31.5q74 0 122.5 -54t48.5 -145q1 -80 -30.5 -155.5t-90.5 -123t-129 -45.5q-62 0 -97 36.5t-45 95.5h-52q26 -47 26 -108q0 -26 -6 -55l-33 -150h-86zM447 303q0 64 -31.5 97.5t-81.5 33.5q-68 3 -121.5 -75.5
t-51.5 -163.5q0 -134 111 -134q74 -2 125.5 74.5t49.5 167.5z" />
    <glyph glyph-name="q" unicode="q" horiz-adv-x="574" 
d="M310 -195l27 126q10 47 38 95q29 48 51 71h-58q-30 -55 -66.5 -83t-91.5 -28q-72 0 -120 54t-48 145q-1 80 30 155t88 123t124 46q124 0 151 -133h49q-26 44 -26 101q0 14 1 18h83l-146 -690h-86zM414 300q0 134 -111 134q-74 2 -125.5 -74.5t-49.5 -167.5
q0 -64 31.5 -97.5t81.5 -33.5q69 -3 122 75t51 164z" />
    <glyph glyph-name="r" unicode="r" horiz-adv-x="397" 
d="M33 0l105 495h75q-13 -64 -74 -136h56q69 143 174 143q44 0 63 -8l-19 -89q-29 7 -60 7q-71 0 -120.5 -55t-70.5 -150l-43 -207h-86z" />
    <glyph glyph-name="s" unicode="s" horiz-adv-x="484" 
d="M15 133l80 18q4 -44 35 -68.5t86 -24.5t86.5 21.5t31.5 58.5q0 28 -17 42.5t-63 28.5l-51 15q-67 20 -96 47.5t-29 83.5q0 65 55 109.5t135 44.5q86 0 134 -38.5t53 -98.5l-81 -18q-4 35 -29 60.5t-77 25.5q-53 0 -80.5 -23.5t-27.5 -52.5q0 -25 14.5 -37t59.5 -26
l51 -15q135 -39 135 -138q0 -76 -55.5 -119t-148.5 -43q-83 0 -141.5 39t-59.5 108z" />
    <glyph glyph-name="t" unicode="t" horiz-adv-x="395" 
d="M100 100q0 19 4 36l62 287h-114l15 72h114l33 155h86l-33 -155h134l-16 -72h-133l-64 -298q0 -4 -0.5 -7.5t-1 -6t-0.5 -3.5q0 -33 46 -33h112l-16 -75h-104q-61 0 -92.5 26.5t-31.5 73.5z" />
    <glyph glyph-name="u" unicode="u" horiz-adv-x="574" 
d="M61 143q0 27 6 56l63 296h86l-64 -302q-5 -23 -5 -38q0 -44 23.5 -69t64.5 -25q68 0 112.5 60.5t60.5 143.5l49 230h86l-105 -495h-72q11 52 67 116h-54q-19 -33 -39 -60q-54 -70 -133 -70q-65 0 -105.5 42.5t-40.5 114.5z" />
    <glyph glyph-name="v" unicode="v" horiz-adv-x="484" 
d="M138 0l-59 495h85l27 -265q3 -32 3 -61q0 -43 -11 -104h43q12 76 52 155l141 275h91l-266 -495h-106z" />
    <glyph glyph-name="w" unicode="w" horiz-adv-x="818" 
d="M134 0l-57 495h84l23 -247q2 -30 2 -51q0 -55 -9 -117h41q21 89 62 168l128 247h98l23 -247q2 -38 2 -52q0 -49 -9 -116h41q13 73 62 167l130 248h94l-271 -495h-98l-24 244q-3 34 -3 63q0 52 11 113h-41q-16 -86 -64 -176l-129 -244h-96z" />
    <glyph glyph-name="x" unicode="x" horiz-adv-x="479" 
d="M-32 0l222 253l-107 242h90l36 -85q22 -51 22 -92q0 -6 -2 -26h39q12 58 61 118l70 85h106l-214 -244l117 -251h-93l-42 94q-23 51 -23 90q0 12 3 28h-39q-14 -56 -64 -118l-78 -94h-104z" />
    <glyph glyph-name="y" unicode="y" horiz-adv-x="498" 
d="M430 495h95l-314 -571q-40 -74 -72.5 -96.5t-95.5 -22.5h-102l16 78h87q28 0 46 9.5t32 34.5l46 83l-105 485h92l49 -257q6 -33 6 -69q0 -41 -7 -73h46q7 71 43 141z" />
    <glyph glyph-name="z" unicode="z" horiz-adv-x="482" 
d="M-10 0l18 85l359 345l-30 33q-44 -43 -96 -43h-153l16 75h384l-16 -74l-367 -353l29 -31q38 38 107 38h170l-16 -75h-405z" />
    <glyph glyph-name="braceleft" unicode="{" horiz-adv-x="332" 
d="M67 -39q0 23 6 53l26 120q10 46 10 69q0 31 -19 45t-64 14l17 79q65 3 87.5 28t39.5 100l30 142q17 77 52.5 110.5t119.5 33.5h38l-15 -70h-38q-33 0 -51.5 -18.5t-26.5 -58.5l-30 -138q-19 -90 -51 -121t-95 -31l-8 -36q88 0 88 -91q0 -30 -7 -62l-28 -132
q-3 -16 -3 -32q0 -45 48 -45h39l-15 -70h-40q-53 0 -81.5 29.5t-28.5 81.5z" />
    <glyph glyph-name="bar" unicode="|" horiz-adv-x="263" 
d="M18 -105l193 910h79l-193 -910h-79z" />
    <glyph glyph-name="braceright" unicode="}" horiz-adv-x="332" 
d="M289 644q0 -23 -6 -53l-26 -120q-10 -46 -10 -69q0 -31 19 -45t64 -14l-17 -79q-65 -3 -87.5 -28t-39.5 -100l-30 -142q-17 -76 -52.5 -110t-119.5 -34h-38l15 70h38q33 0 51.5 18.5t26.5 58.5l30 138q19 90 51 121t95 31l8 36q-88 0 -88 91q0 30 7 62l28 132q3 16 3 32
q0 45 -48 45h-39l15 70h40q53 0 81.5 -29.5t28.5 -81.5z" />
    <glyph glyph-name="asciitilde" unicode="~" horiz-adv-x="645" 
d="M350 304l-30 13q-59 25 -89 25q-48 0 -97 -49l-48 69q32 34 72.5 53t77.5 19q38 0 100 -27l30 -13q59 -25 89 -25q48 0 97 49l48 -69q-32 -34 -72.5 -53t-77.5 -19t-100 27z" />
    <glyph glyph-name="uni00A0" unicode="&#xa0;" horiz-adv-x="263" 
 />
    <glyph glyph-name="exclamdown" unicode="&#xa1;" horiz-adv-x="265" 
d="M260 558l-27 -125h-119l27 125h119zM172 341l-32 -266l-46 -217h-89l47 221l85 262h35z" />
    <glyph glyph-name="cent" unicode="&#xa2;" horiz-adv-x="552" 
d="M169 -119l24 115q-68 19 -106 72t-38 132q-2 73 30.5 143.5t92.5 117.5t131 48l22 105h70l-24 -112q56 -14 93 -50.5t47 -85.5l-84 -26q-15 69 -72 87l-48 -224q-14 -62 -25.5 -90t-39.5 -56l21 -29q113 36 159 142l71 -38q-73 -146 -232 -146l-22 -105h-70zM210 72
l45 213q11 58 23.5 89t41.5 57l-21 29q-75 -28 -118.5 -99.5t-43.5 -160.5q0 -96 73 -128z" />
    <glyph glyph-name="sterling" unicode="&#xa3;" horiz-adv-x="600" 
d="M298 85h232l-18 -85h-498l17 80q71 16 115.5 60t44.5 106q0 32 -9 65h-100l16 75h59q-20 60 -20 115q0 96 67 154t170 58q90 0 153.5 -50.5t64.5 -140.5l-91 -23q-5 67 -40.5 100.5t-94.5 33.5q-60 0 -96.5 -37t-36.5 -96q0 -42 20 -114h181l-16 -75h-143q5 -28 5 -48
q0 -65 -33 -104.5t-100 -67.5l21 -40q55 34 130 34z" />
    <glyph glyph-name="currency" unicode="&#xa4;" horiz-adv-x="649" 
d="M108 84l-50 58l92 80q-24 44 -24 99q0 88 60 164l-71 83l57 50l73 -81q62 37 131 37q62 0 117 -38l93 82l49 -56l-94 -83q26 -46 26 -99q0 -86 -58 -157l72 -81l-57 -53l-73 84q-63 -44 -132 -44q-66 0 -119 38zM484 382q0 51 -31 81.5t-80 30.5q-68 0 -116 -52.5
t-48 -120.5q0 -50 31.5 -80.5t81.5 -30.5q66 0 114 52.5t48 119.5z" />
    <glyph glyph-name="yen" unicode="&#xa5;" horiz-adv-x="656" 
d="M715 700l-265 -307h138l-16 -75h-181l-17 -80h181l-16 -75h-181l-35 -163h-91l35 163h-189l16 75h189l17 80h-189l16 75h142l-140 307h99l83 -188q26 -60 26 -114q0 -17 -1 -26h40q21 90 66 144l155 184h118z" />
    <glyph glyph-name="brokenbar" unicode="&#xa6;" horiz-adv-x="263" 
d="M126 406l85 399h79l-84 -399h-80zM18 -105l85 400h79l-85 -400h-79z" />
    <glyph glyph-name="section" unicode="&#xa7;" horiz-adv-x="588" 
d="M29 -39l89 20q0 -49 28.5 -78.5t82.5 -29.5q53 0 87 31.5t34 75.5q0 29 -17 45t-55 30l-110 39q-130 47 -130 144q0 57 41.5 94.5t120.5 45.5l9 40q-64 38 -64 108q0 79 62.5 133.5t153.5 54.5q94 0 147.5 -46t53.5 -123l-89 -20q0 49 -29 78t-84 29q-52 0 -85.5 -31
t-33.5 -75q0 -29 16.5 -46t53.5 -29l110 -39q131 -46 131 -141q0 -58 -43.5 -96t-125.5 -49l-9 -40q72 -43 72 -110q0 -76 -63 -130.5t-154 -54.5q-94 0 -147 46t-53 124zM455 249q0 50 -67 73l-81 27q-15 5 -36 15l-12 6q-124 -46 -124 -112q0 -50 66 -74l73 -26
q1 -1 10 -3l37 -15q72 23 103 48t31 61z" />
    <glyph glyph-name="dieresis" unicode="&#xa8;" horiz-adv-x="577" 
d="M126 589l21 100h94l-21 -100h-94zM316 589l21 100h94l-21 -100h-94z" />
    <glyph glyph-name="copyright" unicode="&#xa9;" horiz-adv-x="890" 
d="M81 360q-3 155 114 271.5t275 113.5q159 3 275 -113.5t113 -271.5q3 -156 -113 -271.5t-275 -112.5q-159 -3 -275.5 112.5t-113.5 271.5zM788 360q2 131 -92 227t-226 93q-132 3 -226.5 -93t-92.5 -227q-2 -130 92.5 -225.5t226.5 -93.5q132 -2 226 93.5t92 225.5z
M279 369q0 90 56.5 146t141.5 56q63 0 106.5 -30.5t60.5 -87.5l-62 -14q-28 75 -109 75q-55 0 -89.5 -42.5t-34.5 -111.5q0 -68 33.5 -108t89.5 -40q41 0 73 26t43 68l64 -18q-15 -62 -64 -99.5t-116 -37.5q-91 0 -142 58t-51 160z" />
    <glyph glyph-name="ordfeminine" unicode="&#xaa;" horiz-adv-x="504" 
d="M99 462q0 97 57.5 172.5t140.5 75.5q93 0 118 -88h32q-5 27 -5 45t4 33h78l-86 -401h-71q6 28 33 69h-38q-25 -41 -54 -60t-70 -19q-57 0 -98 45t-41 128zM411 538q0 48 -25.5 76.5t-65.5 28.5q-61 0 -99.5 -55t-38.5 -125q0 -49 25 -78t65 -29q58 0 98.5 56t40.5 126z
" />
    <glyph glyph-name="guillemotleft" unicode="&#xab;" horiz-adv-x="526" 
d="M321 466l-184 -222l82 -204h-85l-86 213l176 213h97zM537 466l-203 -246l72 -180h-85l-76 189l195 237h97z" />
    <glyph glyph-name="logicalnot" unicode="&#xac;" horiz-adv-x="698" 
d="M531 159v152h-446v85h531v-237h-85z" />
    <glyph glyph-name="uni00AD" unicode="&#xad;" horiz-adv-x="413" 
d="M73 264l19 90h273l-19 -90h-273z" />
    <glyph glyph-name="registered" unicode="&#xae;" horiz-adv-x="579" 
d="M103 508q0 98 70 167.5t169 69.5q97 2 169.5 -69.5t70.5 -167.5q2 -98 -70.5 -169.5t-169.5 -69.5q-99 0 -169 70t-70 169zM524 508q0 79 -52 131.5t-130 52.5q-77 0 -128.5 -52.5t-51.5 -131.5t51.5 -133t128.5 -54q78 0 130 53.5t52 133.5zM255 393v228h114
q34 0 55 -15t21 -41q0 -24 -18.5 -38t-51.5 -15v-20q53 -2 58 -46l8 -53h-57l-8 52q-3 25 -11 33t-31 8h-26v-93h-53zM308 525h43q39 0 39 29q0 28 -39 28h-43v-57z" />
    <glyph glyph-name="macron" unicode="&#xaf;" horiz-adv-x="349" 
d="M16 593l15 67h302l-15 -67h-302z" />
    <glyph glyph-name="degree" unicode="&#xb0;" horiz-adv-x="429" 
d="M119 605q0 69 48 117t120 48t120 -48t48 -117q0 -70 -48 -117t-121 -47q-71 0 -119 48t-48 116zM375 606q0 42 -24 68t-64 26q-38 0 -63 -26.5t-25 -67.5q0 -43 25 -70t63 -27q40 0 64 27t24 70z" />
    <glyph glyph-name="plusminus" unicode="&#xb1;" horiz-adv-x="704" 
d="M322 241v142h-225v85h225v152h85v-152h225v-85h-225v-142h-85zM97 85v85h535v-85h-535z" />
    <glyph glyph-name="twosuperior" unicode="&#xb2;" horiz-adv-x="373" 
d="M97 393l17 82q124 67 171.5 107.5t50.5 91.5q0 28 -15 44t-42 16q-29 0 -46.5 -24.5t-17.5 -65.5l-80 18q6 64 45.5 100.5t102.5 36.5q57 0 94.5 -34.5t37.5 -86.5q0 -68 -60 -122q-38 -33 -134 -76l-42 -20l16 -29q46 28 106 28h75l-14 -66h-265z" />
    <glyph glyph-name="threesuperior" unicode="&#xb3;" horiz-adv-x="370" 
d="M97 507v12l80 12q-1 -7 -1 -16q0 -66 59 -66q28 0 47 19t19 46q0 50 -58 50h-36l13 62h37q33 0 52.5 17t19.5 47q0 20 -13 32.5t-34 12.5q-55 0 -66 -71l-78 17q7 53 47.5 85.5t99.5 32.5q53 0 87.5 -27.5t34.5 -69.5q0 -41 -27 -65.5t-75 -24.5l-6 -30q36 -2 58 -24
t22 -53q0 -50 -42 -85t-104 -35q-63 0 -99.5 33t-36.5 89z" />
    <glyph glyph-name="acute" unicode="&#xb4;" horiz-adv-x="349" 
d="M122 567l79 139h122l-141 -139h-60z" />
    <glyph glyph-name="mu" unicode="&#xb5;" horiz-adv-x="605" 
d="M91 -195v690h85v-303q0 -131 107 -131q61 0 91 37q28 35 36.5 78.5t8.5 108.5v210h85v-495h-83q0 44 45 116h-49q-47 -130 -161 -130q-44 0 -80 16v-197h-85z" />
    <glyph glyph-name="paragraph" unicode="&#xb6;" horiz-adv-x="645" 
d="M363 700h326l-15 -70h-74l-175 -825h-79l175 825h-99l-175 -825h-81l102 478q-79 3 -131.5 55t-52.5 129q0 104 77.5 168.5t201.5 64.5z" />
    <glyph glyph-name="periodcentered" unicode="&#xb7;" horiz-adv-x="261" 
d="M77 281l27 125h119l-27 -125h-119z" />
    <glyph glyph-name="cedilla" unicode="&#xb8;" horiz-adv-x="349" 
d="M38 -167l40 46q25 -34 67 -34q54 0 54 34q0 13 -12 21.5t-33 8.5q-22 0 -35 -5l-22 39l88 76l42 -19l-32 -26q-12 -11 -29 -24q3 1 12 1q36 0 61 -21t25 -53q0 -42 -32 -66t-87 -24q-73 0 -107 46z" />
    <glyph glyph-name="onesuperior" unicode="&#xb9;" horiz-adv-x="281" 
d="M164 393l50 230q10 51 32 84h-32q-39 -67 -100 -71l15 70q33 1 69 24t64 61h63l-85 -398h-76z" />
    <glyph glyph-name="ordmasculine" unicode="&#xba;" horiz-adv-x="481" 
d="M98 467q-2 93 58 169t155 74q77 0 126 -51t49 -132q0 -98 -57.5 -168t-155.5 -70q-79 0 -127 48.5t-48 129.5zM400 534q0 50 -25.5 79t-65.5 29q-56 0 -90.5 -55.5t-34.5 -126.5q0 -50 24.5 -76.5t66.5 -26.5q59 0 92 50.5t33 126.5z" />
    <glyph glyph-name="guillemotright" unicode="&#xbb;" horiz-adv-x="527" 
d="M210 466l76 -189l-195 -237h-97l203 246l-72 180h85zM397 466l86 -213l-176 -213h-97l184 222l-82 204h85z" />
    <glyph glyph-name="onequarter" unicode="&#xbc;" horiz-adv-x="831" 
d="M151 302l50 230q10 51 32 84h-32q-39 -67 -100 -71l15 70q33 1 69 24t64 61h63l-85 -398h-76zM29 0l638 700h100l-637 -700h-101zM617 0l22 105h-183l14 66l200 227h104l-49 -231h54l-13 -62h-55l-22 -105h-72zM653 167l11 54q11 47 56 91l-23 21l-156 -175l21 -21
q30 30 76 30h15z" />
    <glyph glyph-name="onehalf" unicode="&#xbd;" horiz-adv-x="814" 
d="M150 302l50 230q10 51 32 84h-32q-39 -67 -100 -71l15 70q33 1 69 24t64 61h63l-85 -398h-76zM28 0l638 700h100l-637 -700h-101zM457 0l17 82q124 67 171.5 107.5t50.5 91.5q0 28 -15 44t-42 16q-29 0 -46.5 -24.5t-17.5 -65.5l-80 18q6 64 45.5 100.5t102.5 36.5
q57 0 94.5 -34.5t37.5 -86.5q0 -68 -60 -122q-38 -33 -134 -76l-42 -20l16 -29q46 28 106 28h75l-14 -66h-265z" />
    <glyph glyph-name="threequarters" unicode="&#xbe;" horiz-adv-x="918" 
d="M79 416v12l80 12q-1 -7 -1 -16q0 -66 59 -66q28 0 47 19t19 46q0 50 -58 50h-36l13 62h37q33 0 52.5 17t19.5 47q0 20 -13 32.5t-34 12.5q-55 0 -66 -71l-78 17q7 53 47.5 85.5t99.5 32.5q53 0 87.5 -27.5t34.5 -69.5q0 -41 -27 -65.5t-75 -24.5l-6 -30q36 -2 58 -24
t22 -53q0 -50 -42 -85t-104 -35q-63 0 -99.5 33t-36.5 89zM116 0l638 700h100l-637 -700h-101zM704 0l22 105h-183l14 66l200 227h104l-49 -231h54l-13 -62h-55l-22 -105h-72zM740 167l11 54q11 47 56 91l-23 21l-156 -175l21 -21q30 30 76 30h15z" />
    <glyph glyph-name="questiondown" unicode="&#xbf;" horiz-adv-x="487" 
d="M387 558l-27 -125h-118l26 125h119zM205 161q-65 -43 -89.5 -71t-27.5 -74q0 -42 25.5 -66.5t72.5 -24.5q57 0 92 38t44 111l87 -19q-7 -96 -70 -153t-160 -57q-81 0 -133 47.5t-52 115.5q0 49 21 86q20 36 50 63t93 70q51 34 63.5 51t21.5 63h90q-19 -78 -38.5 -105.5
t-89.5 -74.5z" />
    <glyph glyph-name="Agrave" unicode="&#xc0;" horiz-adv-x="685" 
d="M512 0l-26 189h-307l-107 -189h-106l411 700h129l104 -700h-98zM227 274h248l-28 206q-7 45 -7 90q0 28 3 63h-38q-10 -42 -24 -76q-15 -36 -40 -81zM433 771l-86 139h118l22 -139h-54z" />
    <glyph glyph-name="Aacute" unicode="&#xc1;" horiz-adv-x="685" 
d="M512 0l-26 189h-307l-107 -189h-106l411 700h129l104 -700h-98zM227 274h248l-28 206q-7 45 -7 90q0 28 3 63h-38q-10 -42 -24 -76q-15 -36 -40 -81zM422 771l86 139h135l-155 -139h-66z" />
    <glyph glyph-name="Acircumflex" unicode="&#xc2;" horiz-adv-x="685" 
d="M512 0l-26 189h-307l-107 -189h-106l411 700h129l104 -700h-98zM227 274h248l-28 206q-7 45 -7 90q0 28 3 63h-38q-10 -42 -24 -76q-15 -36 -40 -81zM267 771l145 122h138l88 -122h-92l-73 74l-107 -74h-99z" />
    <glyph glyph-name="Atilde" unicode="&#xc3;" horiz-adv-x="685" 
d="M512 0l-26 189h-307l-107 -189h-106l411 700h129l104 -700h-98zM227 274h248l-28 206q-7 45 -7 90q0 28 3 63h-38q-10 -42 -24 -76q-15 -36 -40 -81zM468 787l-28 19q-26 17 -46 17q-19 0 -34 -14t-20 -38h-80q30 121 132 121q45 0 79 -24l29 -18q26 -18 42 -18
q38 0 55 46h81q-28 -118 -130 -118q-38 0 -80 27z" />
    <glyph glyph-name="Adieresis" unicode="&#xc4;" horiz-adv-x="685" 
d="M512 0l-26 189h-307l-107 -189h-106l411 700h129l104 -700h-98zM227 274h248l-28 206q-7 45 -7 90q0 28 3 63h-38q-10 -42 -24 -76q-15 -36 -40 -81zM300 771l23 100h103l-23 -100h-103zM508 771l24 100h103l-23 -100h-104z" />
    <glyph glyph-name="Aring" unicode="&#xc5;" horiz-adv-x="685" 
d="M512 0l-26 189h-307l-107 -189h-106l411 700h129l104 -700h-98zM227 274h248l-28 206q-7 45 -7 90q0 28 3 63h-38q-10 -42 -24 -76q-15 -36 -40 -81zM351 866q0 58 37.5 94.5t95.5 36.5q48 0 80.5 -31.5t32.5 -73.5q0 -59 -38.5 -95.5t-94.5 -36.5q-49 0 -81 31t-32 75z
M533 884q0 26 -15 41t-39 15q-28 0 -46.5 -19.5t-18.5 -47.5q0 -25 14.5 -40t40.5 -15t45 19.5t19 46.5z" />
    <glyph glyph-name="AE" unicode="&#xc6;" horiz-adv-x="911" 
d="M939 615h-318l-43 -202h235l-18 -84h-235l-52 -244h318l-18 -85h-409l42 196h-237l-149 -196h-118l552 700h468zM553 633h-48q-33 -87 -103 -178l-133 -175h190l43 205q19 86 51 148z" />
    <glyph glyph-name="Ccedilla" unicode="&#xc7;" horiz-adv-x="733" 
d="M608 237l90 -43q-88 -194 -297 -207l-16 -13q-12 -11 -29 -24q3 1 12 1q36 0 61 -21t25 -53q0 -42 -32 -66t-87 -24q-73 0 -107 46l40 46q25 -34 67 -34q54 0 54 34q0 13 -12 21.5t-33 8.5q-22 0 -35 -5l-22 39l51 44q-128 10 -197 91.5t-69 206.5q0 110 47 210
q49 101 134.5 160t192.5 59q118 0 193.5 -61t97.5 -147l-98 -29q-16 58 -62 105q-45 48 -135 48q-120 2 -198 -103t-76 -242q0 -100 55.5 -157.5t152.5 -57.5q158 0 232 167z" />
    <glyph glyph-name="Egrave" unicode="&#xc8;" horiz-adv-x="638" 
d="M52 0l149 700h484l-18 -85h-393l-45 -210h290l-18 -84h-290l-50 -236h393l-18 -85h-484zM435 771l-86 139h118l22 -139h-54z" />
    <glyph glyph-name="Eacute" unicode="&#xc9;" horiz-adv-x="638" 
d="M52 0l149 700h484l-18 -85h-393l-45 -210h290l-18 -84h-290l-50 -236h393l-18 -85h-484zM424 771l86 139h135l-155 -139h-66z" />
    <glyph glyph-name="Ecircumflex" unicode="&#xca;" horiz-adv-x="638" 
d="M52 0l149 700h484l-18 -85h-393l-45 -210h290l-18 -84h-290l-50 -236h393l-18 -85h-484zM269 771l145 122h138l88 -122h-92l-73 74l-107 -74h-99z" />
    <glyph glyph-name="Edieresis" unicode="&#xcb;" horiz-adv-x="638" 
d="M52 0l149 700h484l-18 -85h-393l-45 -210h290l-18 -84h-290l-50 -236h393l-18 -85h-484zM302 771l23 100h103l-23 -100h-103zM510 771l24 100h103l-23 -100h-104z" />
    <glyph glyph-name="Igrave" unicode="&#xcc;" horiz-adv-x="299" 
d="M52 0l149 700h91l-149 -700h-91zM237 771l-86 139h118l22 -139h-54z" />
    <glyph glyph-name="Iacute" unicode="&#xcd;" horiz-adv-x="299" 
d="M52 0l149 700h91l-149 -700h-91zM226 771l86 139h135l-155 -139h-66z" />
    <glyph glyph-name="Icircumflex" unicode="&#xce;" horiz-adv-x="299" 
d="M52 0l149 700h91l-149 -700h-91zM71 771l145 122h138l88 -122h-92l-73 74l-107 -74h-99z" />
    <glyph glyph-name="Idieresis" unicode="&#xcf;" horiz-adv-x="299" 
d="M52 0l149 700h91l-149 -700h-91zM104 771l23 100h103l-23 -100h-103zM312 771l24 100h103l-23 -100h-104z" />
    <glyph glyph-name="Eth" unicode="&#xd0;" horiz-adv-x="738" 
d="M710 414q2 -179 -109.5 -298t-294.5 -116h-249l69 328h-76l16 76h77l62 296h194q139 0 225 -80t86 -206zM616 407q0 97 -60 152.5t-173 55.5h-105l-45 -211h155l-16 -76h-155l-51 -243h124q157 0 241.5 89t84.5 233z" />
    <glyph glyph-name="Ntilde" unicode="&#xd1;" horiz-adv-x="801" 
d="M52 0l149 700h134l250 -589l37 14q-14 42 -14 85q0 46 12 100l83 390h91l-149 -700h-109l-262 619l-38 -15q10 -33 10 -75q0 -49 -16 -120l-87 -409h-91zM520 787l-28 19q-26 17 -46 17q-19 0 -34 -14t-20 -38h-80q30 121 132 121q45 0 79 -24l29 -18q26 -18 42 -18
q38 0 55 46h81q-28 -118 -130 -118q-38 0 -80 27z" />
    <glyph glyph-name="Ograve" unicode="&#xd2;" horiz-adv-x="800" 
d="M74 309q-2 103 48 197.5t139 152t192 55.5q139 0 228 -86t89 -237q2 -106 -47 -200t-137.5 -150.5t-193.5 -54.5q-141 0 -229.5 84.5t-88.5 238.5zM676 392q0 108 -59 172.5t-166 64.5q-119 3 -202 -96t-81 -229q0 -107 59 -170t165 -63q119 -3 202.5 95.5t81.5 225.5z
M475 771l-86 139h118l22 -139h-54z" />
    <glyph glyph-name="Oacute" unicode="&#xd3;" horiz-adv-x="800" 
d="M74 309q-2 103 48 197.5t139 152t192 55.5q139 0 228 -86t89 -237q2 -106 -47 -200t-137.5 -150.5t-193.5 -54.5q-141 0 -229.5 84.5t-88.5 238.5zM676 392q0 108 -59 172.5t-166 64.5q-119 3 -202 -96t-81 -229q0 -107 59 -170t165 -63q119 -3 202.5 95.5t81.5 225.5z
M464 771l86 139h135l-155 -139h-66z" />
    <glyph glyph-name="Ocircumflex" unicode="&#xd4;" horiz-adv-x="800" 
d="M74 309q-2 103 48 197.5t139 152t192 55.5q139 0 228 -86t89 -237q2 -106 -47 -200t-137.5 -150.5t-193.5 -54.5q-141 0 -229.5 84.5t-88.5 238.5zM676 392q0 108 -59 172.5t-166 64.5q-119 3 -202 -96t-81 -229q0 -107 59 -170t165 -63q119 -3 202.5 95.5t81.5 225.5z
M309 771l145 122h138l88 -122h-92l-73 74l-107 -74h-99z" />
    <glyph glyph-name="Otilde" unicode="&#xd5;" horiz-adv-x="800" 
d="M74 309q-2 103 48 197.5t139 152t192 55.5q139 0 228 -86t89 -237q2 -106 -47 -200t-137.5 -150.5t-193.5 -54.5q-141 0 -229.5 84.5t-88.5 238.5zM676 392q0 108 -59 172.5t-166 64.5q-119 3 -202 -96t-81 -229q0 -107 59 -170t165 -63q119 -3 202.5 95.5t81.5 225.5z
M510 787l-28 19q-26 17 -46 17q-19 0 -34 -14t-20 -38h-80q30 121 132 121q45 0 79 -24l29 -18q25 -18 42 -18q38 0 55 46h81q-28 -118 -130 -118q-38 0 -80 27z" />
    <glyph glyph-name="Odieresis" unicode="&#xd6;" horiz-adv-x="800" 
d="M74 309q-2 103 48 197.5t139 152t192 55.5q139 0 228 -86t89 -237q2 -106 -47 -200t-137.5 -150.5t-193.5 -54.5q-141 0 -229.5 84.5t-88.5 238.5zM676 392q0 108 -59 172.5t-166 64.5q-119 3 -202 -96t-81 -229q0 -107 59 -170t165 -63q119 -3 202.5 95.5t81.5 225.5z
M342 771l23 100h103l-23 -100h-103zM550 771l24 100h103l-23 -100h-104z" />
    <glyph glyph-name="multiply" unicode="&#xd7;" horiz-adv-x="628" 
d="M155 111l-58 58l181 181l-182 181l60 60l182 -181l180 180l58 -58l-180 -180l181 -182l-60 -60l-181 182z" />
    <glyph glyph-name="Oslash" unicode="&#xd8;" horiz-adv-x="801" 
d="M90 -19l-58 58l88 86q-45 77 -45 184q-2 103 48 197.5t139 152t192 55.5q121 0 206 -67l78 76l59 -59l-80 -78q54 -81 54 -195q2 -106 -47 -200t-137.5 -150.5t-193.5 -54.5q-134 0 -220 75zM190 192l320 310q51 48 107 55l9 42q-16 9 -71 20q-47 10 -103 10
q-119 3 -202 -96t-81 -229q0 -62 21 -112zM677 392q0 73 -28 129l-334 -323q-51 -48 -108 -55l-9 -42q51 -30 187 -30q125 -3 209.5 94.5t82.5 226.5z" />
    <glyph glyph-name="Ugrave" unicode="&#xd9;" horiz-adv-x="714" 
d="M91 191q0 35 9 79l91 430h91l-89 -418q-9 -40 -9 -75q0 -135 136 -135q91 0 143 52t74 159l88 417h91l-93 -439q-31 -141 -102.5 -208t-200.5 -67q-105 0 -167 53t-62 152zM440 771l-86 139h118l22 -139h-54z" />
    <glyph glyph-name="Uacute" unicode="&#xda;" horiz-adv-x="714" 
d="M91 191q0 35 9 79l91 430h91l-89 -418q-9 -40 -9 -75q0 -135 136 -135q91 0 143 52t74 159l88 417h91l-93 -439q-31 -141 -102.5 -208t-200.5 -67q-105 0 -167 53t-62 152zM429 771l86 139h135l-155 -139h-66z" />
    <glyph glyph-name="Ucircumflex" unicode="&#xdb;" horiz-adv-x="714" 
d="M91 191q0 35 9 79l91 430h91l-89 -418q-9 -40 -9 -75q0 -135 136 -135q91 0 143 52t74 159l88 417h91l-93 -439q-31 -141 -102.5 -208t-200.5 -67q-105 0 -167 53t-62 152zM274 771l145 122h138l88 -122h-92l-73 74l-107 -74h-99z" />
    <glyph glyph-name="Udieresis" unicode="&#xdc;" horiz-adv-x="714" 
d="M91 191q0 35 9 79l91 430h91l-89 -418q-9 -40 -9 -75q0 -135 136 -135q91 0 143 52t74 159l88 417h91l-93 -439q-31 -141 -102.5 -208t-200.5 -67q-105 0 -167 53t-62 152zM307 771l23 100h103l-23 -100h-103zM515 771l24 100h103l-23 -100h-104z" />
    <glyph glyph-name="Yacute" unicode="&#xdd;" horiz-adv-x="642" 
d="M225 0l63 295l-166 405h102l86 -223q19 -48 19 -90q0 -20 -4 -40h39q14 77 55 130l174 223h115l-328 -401l-64 -299h-91zM393 771l86 139h135l-155 -139h-66z" />
    <glyph glyph-name="Thorn" unicode="&#xde;" horiz-adv-x="658" 
d="M638 378q0 -99 -74.5 -163.5t-192.5 -64.5h-196l-32 -150h-91l149 700h91l-27 -128h141q109 0 170.5 -53t61.5 -141zM544 378q0 51 -36.5 80t-101.5 29h-159l-55 -257h179q80 0 126.5 41.5t46.5 106.5z" />
    <glyph glyph-name="germandbls" unicode="&#xdf;" horiz-adv-x="596" 
d="M200 5l17 76q24 -9 69 -9q76 0 121.5 42.5t45.5 106.5q0 53 -33 81.5t-88 28.5h-47l15 74h33q65 0 108 37.5t43 92.5q0 48 -31 76.5t-85 28.5q-55 0 -91.5 -35.5t-49.5 -96.5l-108 -508h-86l108 508q21 99 80 152.5t153 53.5q90 0 143.5 -47t53.5 -119
q0 -65 -44.5 -108.5t-114.5 -49.5l-8 -45q137 -9 137 -134q0 -93 -73.5 -155t-181.5 -62q-51 0 -86 11z" />
    <glyph glyph-name="agrave" unicode="&#xe0;" horiz-adv-x="537" 
d="M34 123q0 102 97 148q97 48 253 48l2 13q0 3 0.5 7t1 6.5t0.5 5v3.5q0 80 -105 80q-55 0 -91 -26.5t-51 -62.5l-77 38q23 53 80 89.5t140 36.5q90 0 139.5 -39t49.5 -111q0 -23 -6 -49l-43 -206q0 -3 -0.5 -6t-1.5 -5v-2q0 -16 25 -16h50l-16 -75h-44q-66 0 -66 63
q0 18 4 35h-40q-22 -49 -64.5 -80.5t-101.5 -31.5q-58 0 -96.5 35t-38.5 102zM360 205l10 50q-106 0 -177 -31.5t-71 -95.5q0 -33 22.5 -51.5t63.5 -18.5q51 0 95 41t57 106zM287 567l-79 139h108l20 -139h-49z" />
    <glyph glyph-name="aacute" unicode="&#xe1;" horiz-adv-x="537" 
d="M34 123q0 102 97 148q97 48 253 48l2 13q0 3 0.5 7t1 6.5t0.5 5v3.5q0 80 -105 80q-55 0 -91 -26.5t-51 -62.5l-77 38q23 53 80 89.5t140 36.5q90 0 139.5 -39t49.5 -111q0 -23 -6 -49l-43 -206q0 -3 -0.5 -6t-1.5 -5v-2q0 -16 25 -16h50l-16 -75h-44q-66 0 -66 63
q0 18 4 35h-40q-22 -49 -64.5 -80.5t-101.5 -31.5q-58 0 -96.5 35t-38.5 102zM360 205l10 50q-106 0 -177 -31.5t-71 -95.5q0 -33 22.5 -51.5t63.5 -18.5q51 0 95 41t57 106zM279 567l79 139h122l-141 -139h-60z" />
    <glyph glyph-name="acircumflex" unicode="&#xe2;" horiz-adv-x="537" 
d="M34 123q0 102 97 148q97 48 253 48l2 13q0 3 0.5 7t1 6.5t0.5 5v3.5q0 80 -105 80q-55 0 -91 -26.5t-51 -62.5l-77 38q23 53 80 89.5t140 36.5q90 0 139.5 -39t49.5 -111q0 -23 -6 -49l-43 -206q0 -3 -0.5 -6t-1.5 -5v-2q0 -16 25 -16h50l-16 -75h-44q-66 0 -66 63
q0 18 4 35h-40q-22 -49 -64.5 -80.5t-101.5 -31.5q-58 0 -96.5 35t-38.5 102zM360 205l10 50q-106 0 -177 -31.5t-71 -95.5q0 -33 22.5 -51.5t63.5 -18.5q51 0 95 41t57 106zM138 567l132 122h126l80 -122h-84l-66 74l-98 -74h-90z" />
    <glyph glyph-name="atilde" unicode="&#xe3;" horiz-adv-x="537" 
d="M34 123q0 102 97 148q97 48 253 48l2 13q0 3 0.5 7t1 6.5t0.5 5v3.5q0 80 -105 80q-55 0 -91 -26.5t-51 -62.5l-77 38q23 53 80 89.5t140 36.5q90 0 139.5 -39t49.5 -111q0 -23 -6 -49l-43 -206q0 -3 -0.5 -6t-1.5 -5v-2q0 -16 25 -16h50l-16 -75h-44q-66 0 -66 63
q0 18 4 35h-40q-22 -49 -64.5 -80.5t-101.5 -31.5q-58 0 -96.5 35t-38.5 102zM360 205l10 50q-106 0 -177 -31.5t-71 -95.5q0 -33 22.5 -51.5t63.5 -18.5q51 0 95 41t57 106zM312 598l-26 19q-23 17 -41 17t-31.5 -14t-18.5 -38h-72q28 121 120 121q40 0 72 -24l26 -18
q24 -18 38 -18q35 0 50 46h74q-24 -118 -119 -118q-34 0 -72 27z" />
    <glyph glyph-name="adieresis" unicode="&#xe4;" horiz-adv-x="537" 
d="M34 123q0 102 97 148q97 48 253 48l2 13q0 3 0.5 7t1 6.5t0.5 5v3.5q0 80 -105 80q-55 0 -91 -26.5t-51 -62.5l-77 38q23 53 80 89.5t140 36.5q90 0 139.5 -39t49.5 -111q0 -23 -6 -49l-43 -206q0 -3 -0.5 -6t-1.5 -5v-2q0 -16 25 -16h50l-16 -75h-44q-66 0 -66 63
q0 18 4 35h-40q-22 -49 -64.5 -80.5t-101.5 -31.5q-58 0 -96.5 35t-38.5 102zM360 205l10 50q-106 0 -177 -31.5t-71 -95.5q0 -33 22.5 -51.5t63.5 -18.5q51 0 95 41t57 106zM173 589l21 100h94l-21 -100h-94zM363 589l21 100h94l-21 -100h-94z" />
    <glyph glyph-name="aring" unicode="&#xe5;" horiz-adv-x="537" 
d="M34 123q0 102 97 148q97 48 253 48l2 13q0 3 0.5 7t1 6.5t0.5 5v3.5q0 80 -105 80q-55 0 -91 -26.5t-51 -62.5l-77 38q23 53 80 89.5t140 36.5q90 0 139.5 -39t49.5 -111q0 -23 -6 -49l-43 -206q0 -3 -0.5 -6t-1.5 -5v-2q0 -16 25 -16h50l-16 -75h-44q-66 0 -66 63
q0 18 4 35h-40q-22 -49 -64.5 -80.5t-101.5 -31.5q-58 0 -96.5 35t-38.5 102zM360 205l10 50q-106 0 -177 -31.5t-71 -95.5q0 -33 22.5 -51.5t63.5 -18.5q51 0 95 41t57 106zM203 650q0 56 35.5 91t91.5 35q46 0 76.5 -30t30.5 -71q0 -55 -36.5 -90t-89.5 -35
q-47 0 -77.5 29.5t-30.5 70.5zM376 668q0 24 -14 38.5t-37 14.5q-27 0 -44.5 -18.5t-17.5 -45.5q0 -24 13.5 -38t38.5 -14q24 0 42.5 19t18.5 44z" />
    <glyph glyph-name="ae" unicode="&#xe6;" horiz-adv-x="856" 
d="M33 123q0 102 97 148q98 48 254 48l4 17q3 14 3 24q0 74 -108 74q-55 0 -91 -26.5t-51 -62.5l-77 38q22 52 80 89t141 37q69 0 109 -27.5t50 -71.5h36q15 37 52.5 68t95.5 31q84 0 134 -54.5t50 -140.5q0 -41 -14 -89h-348q-4 -19 -4 -40q0 -56 31.5 -90.5t85.5 -34.5
q98 0 155 103l73 -38q-78 -139 -228 -139q-67 0 -114 32t-58 79h-37q-16 -36 -55 -75q-37 -36 -117 -36q-64 0 -106.5 35t-42.5 102zM464 293h259q3 13 3 32q0 52 -29 83t-79 31q-49 0 -92 -40t-62 -106zM361 205l11 51q-105 0 -177 -30q-72 -28 -72 -99q0 -30 23.5 -49.5
t62.5 -19.5q54 0 95 37t57 110z" />
    <glyph glyph-name="ccedilla" unicode="&#xe7;" horiz-adv-x="532" 
d="M408 175l76 -37q-65 -142 -211 -152l-15 -12q-12 -11 -29 -24q3 1 12 1q36 0 61 -21t25 -53q0 -42 -32 -66t-87 -24q-73 0 -107 46l40 46q25 -34 67 -34q54 0 54 34q0 13 -12 21.5t-33 8.5q-22 0 -35 -5l-22 39l53 46q-79 12 -124.5 67t-45.5 145q-1 77 31 147.5t94 116
t139 44.5q77 0 129 -41t67 -108l-83 -22q-12 43 -42 70t-76 27q-53 1 -94 -35.5t-60 -87.5t-18 -103q0 -75 36.5 -112t93.5 -37q97 0 148 115z" />
    <glyph glyph-name="egrave" unicode="&#xe8;" horiz-adv-x="534" 
d="M43 195q-2 74 30 146.5t93.5 121t134.5 46.5q88 0 138 -54t50 -141q0 -46 -13 -89h-347q-4 -19 -4 -40q0 -56 31.5 -90.5t85.5 -34.5q98 0 155 103l73 -38q-78 -139 -231 -139q-88 0 -142 54t-54 155zM143 296h259q2 22 2 30q0 51 -29 82t-79 31q-49 0 -92 -39t-61 -104z
M306 567l-79 139h108l20 -139h-49z" />
    <glyph glyph-name="eacute" unicode="&#xe9;" horiz-adv-x="534" 
d="M43 195q-2 74 30 146.5t93.5 121t134.5 46.5q88 0 138 -54t50 -141q0 -46 -13 -89h-347q-4 -19 -4 -40q0 -56 31.5 -90.5t85.5 -34.5q98 0 155 103l73 -38q-78 -139 -231 -139q-88 0 -142 54t-54 155zM143 296h259q2 22 2 30q0 51 -29 82t-79 31q-49 0 -92 -39t-61 -104z
M298 567l79 139h122l-141 -139h-60z" />
    <glyph glyph-name="ecircumflex" unicode="&#xea;" horiz-adv-x="534" 
d="M43 195q-2 74 30 146.5t93.5 121t134.5 46.5q88 0 138 -54t50 -141q0 -46 -13 -89h-347q-4 -19 -4 -40q0 -56 31.5 -90.5t85.5 -34.5q98 0 155 103l73 -38q-78 -139 -231 -139q-88 0 -142 54t-54 155zM143 296h259q2 22 2 30q0 51 -29 82t-79 31q-49 0 -92 -39t-61 -104z
M157 567l132 122h126l80 -122h-84l-66 74l-98 -74h-90z" />
    <glyph glyph-name="edieresis" unicode="&#xeb;" horiz-adv-x="534" 
d="M43 195q-2 74 30 146.5t93.5 121t134.5 46.5q88 0 138 -54t50 -141q0 -46 -13 -89h-347q-4 -19 -4 -40q0 -56 31.5 -90.5t85.5 -34.5q98 0 155 103l73 -38q-78 -139 -231 -139q-88 0 -142 54t-54 155zM143 296h259q2 22 2 30q0 51 -29 82t-79 31q-49 0 -92 -39t-61 -104z
M192 589l21 100h94l-21 -100h-94zM382 589l21 100h94l-21 -100h-94z" />
    <glyph glyph-name="igrave" unicode="&#xec;" horiz-adv-x="255" 
d="M33 0l105 495h86l-105 -495h-86zM175 567l-79 139h108l20 -139h-49z" />
    <glyph glyph-name="iacute" unicode="&#xed;" horiz-adv-x="255" 
d="M33 0l105 495h86l-105 -495h-86zM167 567l79 139h122l-141 -139h-60z" />
    <glyph glyph-name="icircumflex" unicode="&#xee;" horiz-adv-x="255" 
d="M33 0l105 495h86l-105 -495h-86zM26 567l132 122h126l80 -122h-84l-66 74l-98 -74h-90z" />
    <glyph glyph-name="idieresis" unicode="&#xef;" horiz-adv-x="255" 
d="M33 0l105 495h86l-105 -495h-86zM61 589l21 100h94l-21 -100h-94zM251 589l21 100h94l-21 -100h-94z" />
    <glyph glyph-name="eth" unicode="&#xf0;" horiz-adv-x="578" 
d="M587 672l-91 -68q43 -73 43 -190q1 -106 -32.5 -203.5t-103.5 -162.5t-160 -62q-92 0 -147.5 53t-55.5 141q-2 107 67.5 190.5t163.5 81.5q125 0 148 -118h41q4 25 4 56q0 96 -39 161l-78 -59l-34 51l74 56q-47 39 -111 39q-49 0 -109 -17l15 78q52 15 102 15
q109 0 174 -62l91 69zM405 248q0 58 -34.5 93.5t-90.5 35.5q-68 0 -110 -58t-42 -139q0 -51 32.5 -85t82.5 -34q71 0 116.5 57t45.5 130z" />
    <glyph glyph-name="ntilde" unicode="&#xf1;" horiz-adv-x="580" 
d="M33 0l105 495h85q-8 -32 -68 -105h52q22 44 60 82q37 37 100 37q69 0 111.5 -42.5t42.5 -113.5q0 -30 -7 -57l-63 -296h-86l64 302q5 22 5 38q0 44 -23.5 69t-66.5 25q-66 0 -112.5 -61.5t-63.5 -142.5l-49 -230h-86zM363 598l-26 19q-23 17 -41 17t-31.5 -14t-18.5 -38
h-72q28 121 120 121q40 0 72 -24l26 -18q24 -18 38 -18q35 0 50 46h74q-24 -118 -119 -118q-35 0 -72 27z" />
    <glyph glyph-name="ograve" unicode="&#xf2;" horiz-adv-x="553" 
d="M42 192q-1 78 32.5 151t97.5 120.5t142 45.5q89 0 143.5 -57.5t54.5 -149.5q2 -124 -75.5 -221t-196.5 -95q-90 0 -144 56.5t-54 149.5zM425 302q0 64 -32.5 98t-85.5 34q-81 2 -130 -73.5t-48 -168.5q0 -64 31.5 -97.5t86.5 -33.5q82 0 130 73t48 168zM318 567l-79 139
h108l20 -139h-49z" />
    <glyph glyph-name="oacute" unicode="&#xf3;" horiz-adv-x="553" 
d="M42 192q-1 78 32.5 151t97.5 120.5t142 45.5q89 0 143.5 -57.5t54.5 -149.5q2 -124 -75.5 -221t-196.5 -95q-90 0 -144 56.5t-54 149.5zM425 302q0 64 -32.5 98t-85.5 34q-81 2 -130 -73.5t-48 -168.5q0 -64 31.5 -97.5t86.5 -33.5q82 0 130 73t48 168zM310 567l79 139
h122l-141 -139h-60z" />
    <glyph glyph-name="ocircumflex" unicode="&#xf4;" horiz-adv-x="553" 
d="M42 192q-1 78 32.5 151t97.5 120.5t142 45.5q89 0 143.5 -57.5t54.5 -149.5q2 -124 -75.5 -221t-196.5 -95q-90 0 -144 56.5t-54 149.5zM425 302q0 64 -32.5 98t-85.5 34q-81 2 -130 -73.5t-48 -168.5q0 -64 31.5 -97.5t86.5 -33.5q82 0 130 73t48 168zM169 567l132 122
h126l80 -122h-84l-66 74l-98 -74h-90z" />
    <glyph glyph-name="otilde" unicode="&#xf5;" horiz-adv-x="553" 
d="M42 192q-1 78 32.5 151t97.5 120.5t142 45.5q89 0 143.5 -57.5t54.5 -149.5q2 -124 -75.5 -221t-196.5 -95q-90 0 -144 56.5t-54 149.5zM425 302q0 64 -32.5 98t-85.5 34q-81 2 -130 -73.5t-48 -168.5q0 -64 31.5 -97.5t86.5 -33.5q82 0 130 73t48 168zM343 598l-26 19
q-23 17 -41 17t-31.5 -14t-18.5 -38h-72q28 121 120 121q40 0 72 -24l26 -18q24 -18 38 -18q35 0 50 46h74q-24 -118 -119 -118q-35 0 -72 27z" />
    <glyph glyph-name="odieresis" unicode="&#xf6;" horiz-adv-x="553" 
d="M42 192q-1 78 32.5 151t97.5 120.5t142 45.5q89 0 143.5 -57.5t54.5 -149.5q2 -124 -75.5 -221t-196.5 -95q-90 0 -144 56.5t-54 149.5zM425 302q0 64 -32.5 98t-85.5 34q-81 2 -130 -73.5t-48 -168.5q0 -64 31.5 -97.5t86.5 -33.5q82 0 130 73t48 168zM204 589l21 100
h94l-21 -100h-94zM394 589l21 100h94l-21 -100h-94z" />
    <glyph glyph-name="divide" unicode="&#xf7;" horiz-adv-x="653" 
d="M290 495v125h120v-125h-120zM82 310v85h535v-85h-535zM290 85v125h120v-125h-120z" />
    <glyph glyph-name="oslash" unicode="&#xf8;" horiz-adv-x="554" 
d="M104 33l-52 -51l-44 45l58 57q-24 44 -24 108q-1 78 32.5 151t97.5 120.5t142 45.5q83 0 136 -50l53 52l43 -44l-58 -57q24 -50 24 -108q2 -124 -75.5 -221t-196.5 -95q-81 0 -136 47zM133 150l191 185q24 22 38.5 30t33.5 8l11 -1l8 37q-41 28 -101 28q-80 0 -132.5 -70
t-52.5 -175q0 -21 4 -42zM425 302q0 21 -4 42l-187 -184q-45 -43 -88 -44l-8 -37q40 -21 94 -21q85 0 139 69t54 175z" />
    <glyph glyph-name="ugrave" unicode="&#xf9;" horiz-adv-x="574" 
d="M61 143q0 27 6 56l63 296h86l-64 -302q-5 -23 -5 -38q0 -44 23.5 -69t64.5 -25q68 0 112.5 60.5t60.5 143.5l49 230h86l-105 -495h-72q11 52 67 116h-54q-19 -33 -39 -60q-54 -70 -133 -70q-65 0 -105.5 42.5t-40.5 114.5zM325 567l-79 139h108l20 -139h-49z" />
    <glyph glyph-name="uacute" unicode="&#xfa;" horiz-adv-x="574" 
d="M61 143q0 27 6 56l63 296h86l-64 -302q-5 -23 -5 -38q0 -44 23.5 -69t64.5 -25q68 0 112.5 60.5t60.5 143.5l49 230h86l-105 -495h-72q11 52 67 116h-54q-19 -33 -39 -60q-54 -70 -133 -70q-65 0 -105.5 42.5t-40.5 114.5zM317 567l79 139h122l-141 -139h-60z" />
    <glyph glyph-name="ucircumflex" unicode="&#xfb;" horiz-adv-x="574" 
d="M61 143q0 27 6 56l63 296h86l-64 -302q-5 -23 -5 -38q0 -44 23.5 -69t64.5 -25q68 0 112.5 60.5t60.5 143.5l49 230h86l-105 -495h-72q11 52 67 116h-54q-19 -33 -39 -60q-54 -70 -133 -70q-65 0 -105.5 42.5t-40.5 114.5zM176 567l132 122h126l80 -122h-84l-66 74
l-98 -74h-90z" />
    <glyph glyph-name="udieresis" unicode="&#xfc;" horiz-adv-x="574" 
d="M61 143q0 27 6 56l63 296h86l-64 -302q-5 -23 -5 -38q0 -44 23.5 -69t64.5 -25q68 0 112.5 60.5t60.5 143.5l49 230h86l-105 -495h-72q11 52 67 116h-54q-19 -33 -39 -60q-54 -70 -133 -70q-65 0 -105.5 42.5t-40.5 114.5zM211 589l21 100h94l-21 -100h-94zM401 589
l21 100h94l-21 -100h-94z" />
    <glyph glyph-name="yacute" unicode="&#xfd;" horiz-adv-x="498" 
d="M430 495h95l-314 -571q-40 -74 -72.5 -96.5t-95.5 -22.5h-102l16 78h87q28 0 46 9.5t32 34.5l46 83l-105 485h92l49 -257q6 -33 6 -69q0 -41 -7 -73h46q7 71 43 141zM269 567l79 139h122l-141 -139h-60z" />
    <glyph glyph-name="thorn" unicode="&#xfe;" horiz-adv-x="574" 
d="M-10 -195l192 895h86l-29 -133q-18 -90 -91 -170h58q55 112 156 112q74 0 122.5 -54t48.5 -145q1 -80 -30.5 -155.5t-90.5 -123t-129 -45.5q-62 0 -97 36.5t-45 95.5h-55q29 -53 29 -108q0 -26 -6 -55l-33 -150h-86zM447 303q0 64 -31.5 97.5t-81.5 33.5
q-68 3 -121.5 -75.5t-51.5 -163.5q0 -134 111 -134q74 -2 125.5 74.5t49.5 167.5z" />
    <glyph glyph-name="ydieresis" unicode="&#xff;" horiz-adv-x="498" 
d="M430 495h95l-314 -571q-40 -74 -72.5 -96.5t-95.5 -22.5h-102l16 78h87q28 0 46 9.5t32 34.5l46 83l-105 485h92l49 -257q6 -33 6 -69q0 -41 -7 -73h46q7 71 43 141zM163 589l21 100h94l-21 -100h-94zM353 589l21 100h94l-21 -100h-94z" />
    <glyph glyph-name="Amacron" unicode="&#x100;" horiz-adv-x="685" 
d="M512 0l-26 189h-307l-107 -189h-106l411 700h129l104 -700h-98zM227 274h248l-28 206q-7 45 -7 90q0 28 3 63h-38q-10 -42 -24 -76q-15 -36 -40 -81zM299 791l15 67h332l-15 -67h-332z" />
    <glyph glyph-name="amacron" unicode="&#x101;" horiz-adv-x="537" 
d="M34 123q0 102 97 148q97 48 253 48l2 13q0 3 0.5 7t1 6.5t0.5 5v3.5q0 80 -105 80q-55 0 -91 -26.5t-51 -62.5l-77 38q23 53 80 89.5t140 36.5q90 0 139.5 -39t49.5 -111q0 -23 -6 -49l-43 -206q0 -3 -0.5 -6t-1.5 -5v-2q0 -16 25 -16h50l-16 -75h-44q-66 0 -66 63
q0 18 4 35h-40q-22 -49 -64.5 -80.5t-101.5 -31.5q-58 0 -96.5 35t-38.5 102zM360 205l10 50q-106 0 -177 -31.5t-71 -95.5q0 -33 22.5 -51.5t63.5 -18.5q51 0 95 41t57 106zM165 593l15 67h302l-15 -67h-302z" />
    <glyph glyph-name="Abreve" unicode="&#x102;" horiz-adv-x="685" 
d="M512 0l-26 189h-307l-107 -189h-106l411 700h129l104 -700h-98zM227 274h248l-28 206q-7 45 -7 90q0 28 3 63h-38q-10 -42 -24 -76q-15 -36 -40 -81zM328 870q0 10 3 23h75v-9q0 -58 65 -58q70 0 96 67h84q-13 -56 -59 -94t-121 -38q-69 0 -106 31t-37 78z" />
    <glyph glyph-name="abreve" unicode="&#x103;" horiz-adv-x="537" 
d="M34 123q0 102 97 148q97 48 253 48l2 13q0 3 0.5 7t1 6.5t0.5 5v3.5q0 80 -105 80q-55 0 -91 -26.5t-51 -62.5l-77 38q23 53 80 89.5t140 36.5q90 0 139.5 -39t49.5 -111q0 -23 -6 -49l-43 -206q0 -3 -0.5 -6t-1.5 -5v-2q0 -16 25 -16h50l-16 -75h-44q-66 0 -66 63
q0 18 4 35h-40q-22 -49 -64.5 -80.5t-101.5 -31.5q-58 0 -96.5 35t-38.5 102zM360 205l10 50q-106 0 -177 -31.5t-71 -95.5q0 -33 22.5 -51.5t63.5 -18.5q51 0 95 41t57 106zM187 666q0 10 3 23h68v-9q0 -58 60 -58q65 0 86 67h77q-13 -56 -54.5 -94t-108.5 -38
q-64 0 -97.5 31t-33.5 78z" />
    <glyph glyph-name="Aogonek" unicode="&#x104;" horiz-adv-x="685" 
d="M541 -135q13 0 41 5l-14 -69q-30 -6 -54 -6q-47 0 -74.5 22t-27.5 63q0 66 100 123l-26 186h-307l-107 -189h-106l411 700h129l104 -700q-122 -46 -122 -98q0 -37 53 -37zM227 274h248l-28 206q-7 45 -7 90q0 28 3 63h-38q-10 -42 -24 -76q-15 -36 -40 -81z" />
    <glyph glyph-name="aogonek" unicode="&#x105;" horiz-adv-x="537" 
d="M359 -98q0 -37 53 -37q13 0 41 5l-14 -69q-30 -6 -54 -6q-47 0 -74.5 22t-27.5 63q0 68 112 130q-24 15 -24 53q0 18 4 35h-40q-22 -49 -64.5 -80.5t-101.5 -31.5q-58 0 -96.5 35t-38.5 102q0 102 97 148q97 48 253 48l2 13q0 3 0.5 7t1 6.5t0.5 5v3.5q0 80 -105 80
q-55 0 -91 -26.5t-51 -62.5l-77 38q23 53 80 89.5t140 36.5q90 0 139.5 -39t49.5 -111q0 -23 -6 -49l-43 -206q0 -3 -0.5 -6t-1.5 -5v-2q0 -16 25 -16h50l-16 -75q-122 -46 -122 -98zM360 205l10 50q-106 0 -177 -31.5t-71 -95.5q0 -33 22.5 -51.5t63.5 -18.5q51 0 95 41
t57 106z" />
    <glyph glyph-name="Cacute" unicode="&#x106;" horiz-adv-x="733" 
d="M72 285q0 110 47 210q49 101 134.5 160t192.5 59q118 0 193.5 -61t97.5 -147l-98 -29q-16 58 -62 105q-45 48 -135 48q-120 2 -198 -103t-76 -242q0 -100 55.5 -157.5t152.5 -57.5q158 0 232 167l90 -43q-42 -91 -122 -150q-79 -58 -204 -58q-144 0 -222 82t-78 217z
M457 771l86 139h135l-155 -139h-66z" />
    <glyph glyph-name="cacute" unicode="&#x107;" horiz-adv-x="532" 
d="M44 201q-1 77 31 147.5t94 116t139 44.5q77 0 129 -41t67 -108l-83 -22q-12 43 -42 70t-76 27q-53 1 -94 -35.5t-60 -87.5t-18 -103q0 -75 36.5 -112t93.5 -37q49 0 87 32t61 83l76 -37q-70 -152 -229 -152q-95 0 -153.5 56.5t-58.5 158.5zM308 567l79 139h122l-141 -139
h-60z" />
    <glyph glyph-name="Ccircumflex" unicode="&#x108;" horiz-adv-x="733" 
d="M72 285q0 110 47 210q49 101 134.5 160t192.5 59q118 0 193.5 -61t97.5 -147l-98 -29q-16 58 -62 105q-45 48 -135 48q-120 2 -198 -103t-76 -242q0 -100 55.5 -157.5t152.5 -57.5q158 0 232 167l90 -43q-42 -91 -122 -150q-79 -58 -204 -58q-144 0 -222 82t-78 217z
M302 771l145 122h138l88 -122h-92l-73 74l-107 -74h-99z" />
    <glyph glyph-name="ccircumflex" unicode="&#x109;" horiz-adv-x="532" 
d="M44 201q-1 77 31 147.5t94 116t139 44.5q77 0 129 -41t67 -108l-83 -22q-12 43 -42 70t-76 27q-53 1 -94 -35.5t-60 -87.5t-18 -103q0 -75 36.5 -112t93.5 -37q49 0 87 32t61 83l76 -37q-70 -152 -229 -152q-95 0 -153.5 56.5t-58.5 158.5zM167 567l132 122h126l80 -122
h-84l-66 74l-98 -74h-90z" />
    <glyph glyph-name="Cdotaccent" unicode="&#x10a;" horiz-adv-x="733" 
d="M72 285q0 110 47 210q49 101 134.5 160t192.5 59q118 0 193.5 -61t97.5 -147l-98 -29q-16 58 -62 105q-45 48 -135 48q-120 2 -198 -103t-76 -242q0 -100 55.5 -157.5t152.5 -57.5q158 0 232 167l90 -43q-42 -91 -122 -150q-79 -58 -204 -58q-144 0 -222 82t-78 217z
M451 771l23 108h89l-23 -108h-89z" />
    <glyph glyph-name="cdotaccent" unicode="&#x10b;" horiz-adv-x="532" 
d="M44 201q-1 77 31 147.5t94 116t139 44.5q77 0 129 -41t67 -108l-83 -22q-12 43 -42 70t-76 27q-53 1 -94 -35.5t-60 -87.5t-18 -103q0 -75 36.5 -112t93.5 -37q49 0 87 32t61 83l76 -37q-70 -152 -229 -152q-95 0 -153.5 56.5t-58.5 158.5zM300 592l23 108h89l-23 -108
h-89z" />
    <glyph glyph-name="Ccaron" unicode="&#x10c;" horiz-adv-x="733" 
d="M72 285q0 110 47 210q49 101 134.5 160t192.5 59q118 0 193.5 -61t97.5 -147l-98 -29q-16 58 -62 105q-45 48 -135 48q-120 2 -198 -103t-76 -242q0 -100 55.5 -157.5t152.5 -57.5q158 0 232 167l90 -43q-42 -91 -122 -150q-79 -58 -204 -58q-144 0 -222 82t-78 217z
M693 893l-145 -122h-138l-89 122h93l72 -74l108 74h99z" />
    <glyph glyph-name="ccaron" unicode="&#x10d;" horiz-adv-x="532" 
d="M44 201q-1 77 31 147.5t94 116t139 44.5q77 0 129 -41t67 -108l-83 -22q-12 43 -42 70t-76 27q-53 1 -94 -35.5t-60 -87.5t-18 -103q0 -75 36.5 -112t93.5 -37q49 0 87 32t61 83l76 -37q-70 -152 -229 -152q-95 0 -153.5 56.5t-58.5 158.5zM280 567l-80 122h82l66 -74
l98 74h92l-132 -122h-126z" />
    <glyph glyph-name="Dcaron" unicode="&#x10e;" horiz-adv-x="734" 
d="M53 0l148 700h194q139 0 225 -80t86 -206q2 -179 -109.5 -298t-294.5 -116h-249zM162 85h124q157 0 241.5 88.5t84.5 233.5q0 97 -60 152.5t-173 55.5h-105zM637 893l-145 -122h-138l-89 122h93l72 -74l108 74h99z" />
    <glyph glyph-name="dcaron" unicode="&#x10f;" horiz-adv-x="603" 
d="M42 185q-1 80 30 155t88 123t123 46q126 0 152 -133h49q-24 44 -24 95q0 38 10 84l30 145h86l-149 -700h-74q5 19 22 48q19 31 37 49h-54q-62 -111 -155 -111q-74 0 -122.5 54t-48.5 145zM414 300q0 134 -111 134q-74 2 -125.5 -74.5t-49.5 -167.5q0 -64 31.5 -97.5
t81.5 -33.5q69 -3 122 75t51 164zM582 479l87 115h-49l23 107h103l-25 -111l-83 -111h-56z" />
    <glyph glyph-name="Dcroat" unicode="&#x110;" horiz-adv-x="738" 
d="M710 414q2 -179 -109.5 -298t-294.5 -116h-249l69 328h-76l16 76h77l62 296h194q139 0 225 -80t86 -206zM616 407q0 97 -60 152.5t-173 55.5h-105l-45 -211h155l-16 -76h-155l-51 -243h124q157 0 241.5 89t84.5 233z" />
    <glyph glyph-name="dcroat" unicode="&#x111;" horiz-adv-x="573" 
d="M648 623l-13 -62h-79l-119 -561h-74q5 19 22 48q19 31 37 49h-54q-62 -111 -155 -111q-74 0 -122.5 54t-48.5 145q-1 80 30 155t88 123t123 46q126 0 152 -133h49q-24 44 -24 95q0 38 10 84l1 6h-169l13 62h169l16 77h86l-17 -77h79zM414 300q0 134 -111 134
q-74 2 -125.5 -74.5t-49.5 -167.5q0 -64 31.5 -97.5t81.5 -33.5q69 -3 122 75t51 164z" />
    <glyph glyph-name="Emacron" unicode="&#x112;" horiz-adv-x="638" 
d="M52 0l149 700h484l-18 -85h-393l-45 -210h290l-18 -84h-290l-50 -236h393l-18 -85h-484zM292 791l15 67h332l-15 -67h-332z" />
    <glyph glyph-name="emacron" unicode="&#x113;" horiz-adv-x="534" 
d="M43 195q-2 74 30 146.5t93.5 121t134.5 46.5q88 0 138 -54t50 -141q0 -46 -13 -89h-347q-4 -19 -4 -40q0 -56 31.5 -90.5t85.5 -34.5q98 0 155 103l73 -38q-78 -139 -231 -139q-88 0 -142 54t-54 155zM143 296h259q2 22 2 30q0 51 -29 82t-79 31q-49 0 -92 -39t-61 -104z
M184 593l15 67h302l-15 -67h-302z" />
    <glyph glyph-name="Ebreve" unicode="&#x114;" horiz-adv-x="638" 
d="M52 0l149 700h484l-18 -85h-393l-45 -210h290l-18 -84h-290l-50 -236h393l-18 -85h-484zM330 870q0 10 3 23h75v-9q0 -58 65 -58q70 0 96 67h84q-13 -56 -59 -94t-121 -38q-69 0 -106 31t-37 78z" />
    <glyph glyph-name="ebreve" unicode="&#x115;" horiz-adv-x="534" 
d="M43 195q-2 74 30 146.5t93.5 121t134.5 46.5q88 0 138 -54t50 -141q0 -46 -13 -89h-347q-4 -19 -4 -40q0 -56 31.5 -90.5t85.5 -34.5q98 0 155 103l73 -38q-78 -139 -231 -139q-88 0 -142 54t-54 155zM143 296h259q2 22 2 30q0 51 -29 82t-79 31q-49 0 -92 -39t-61 -104z
M206 666q0 10 3 23h68v-9q0 -58 60 -58q65 0 86 67h77q-13 -56 -54.5 -94t-108.5 -38q-64 0 -97.5 31t-33.5 78z" />
    <glyph glyph-name="Edotaccent" unicode="&#x116;" horiz-adv-x="638" 
d="M52 0l149 700h484l-18 -85h-393l-45 -210h290l-18 -84h-290l-50 -236h393l-18 -85h-484zM418 771l23 108h89l-23 -108h-89z" />
    <glyph glyph-name="edotaccent" unicode="&#x117;" horiz-adv-x="534" 
d="M43 195q-2 74 30 146.5t93.5 121t134.5 46.5q88 0 138 -54t50 -141q0 -46 -13 -89h-347q-4 -19 -4 -40q0 -56 31.5 -90.5t85.5 -34.5q98 0 155 103l73 -38q-78 -139 -231 -139q-88 0 -142 54t-54 155zM143 296h259q2 22 2 30q0 51 -29 82t-79 31q-49 0 -92 -39t-61 -104z
M290 592l23 108h89l-23 -108h-89z" />
    <glyph glyph-name="Eogonek" unicode="&#x118;" horiz-adv-x="638" 
d="M667 615h-393l-45 -210h290l-18 -84h-290l-50 -236h393l-18 -85q-122 -46 -122 -98q0 -37 53 -37q13 0 41 5l-14 -69q-30 -6 -54 -6q-47 0 -74.5 22t-27.5 63q0 64 94 120h-380l149 700h484z" />
    <glyph glyph-name="eogonek" unicode="&#x119;" horiz-adv-x="534" 
d="M301 509q88 0 138 -54t50 -141q0 -46 -13 -89h-347q-4 -19 -4 -40q0 -56 31.5 -90.5t85.5 -34.5q98 0 155 103l73 -38q-52 -94 -149 -129q-115 -40 -115 -94q0 -37 53 -37q13 0 41 5l-14 -69q-30 -6 -54 -6q-47 0 -74.5 22t-27.5 63q0 57 75 108q-76 10 -119 63t-43 144
q-2 74 30 146.5t93.5 121t134.5 46.5zM143 296h259q2 22 2 30q0 51 -29 82t-79 31q-49 0 -92 -39t-61 -104z" />
    <glyph glyph-name="Ecaron" unicode="&#x11a;" horiz-adv-x="638" 
d="M52 0l149 700h484l-18 -85h-393l-45 -210h290l-18 -84h-290l-50 -236h393l-18 -85h-484zM660 893l-145 -122h-138l-89 122h93l72 -74l108 74h99z" />
    <glyph glyph-name="ecaron" unicode="&#x11b;" horiz-adv-x="534" 
d="M43 195q-2 74 30 146.5t93.5 121t134.5 46.5q88 0 138 -54t50 -141q0 -46 -13 -89h-347q-4 -19 -4 -40q0 -56 31.5 -90.5t85.5 -34.5q98 0 155 103l73 -38q-78 -139 -231 -139q-88 0 -142 54t-54 155zM143 296h259q2 22 2 30q0 51 -29 82t-79 31q-49 0 -92 -39t-61 -104z
M270 567l-80 122h82l66 -74l98 74h92l-132 -122h-126z" />
    <glyph glyph-name="Gcircumflex" unicode="&#x11c;" horiz-adv-x="769" 
d="M72 288q-1 79 27 156.5t77 138t122.5 97t156.5 34.5q117 0 193.5 -59.5t102.5 -151.5l-98 -30q-20 69 -75 112.5t-132 43.5q-80 2 -145.5 -47t-100 -128t-32.5 -166q0 -103 57 -160t149 -57q91 -2 159 58.5t82 127.5h-241l18 85h337l-73 -342h-87q6 31 26 73q18 38 38 67
h-46q-31 -61 -89.5 -107.5t-144.5 -46.5q-126 0 -203.5 79.5t-77.5 222.5zM301 771l145 122h138l88 -122h-92l-73 74l-107 -74h-99z" />
    <glyph glyph-name="gcircumflex" unicode="&#x11d;" horiz-adv-x="575" 
d="M-31 -99q0 35 22.5 61.5t64.5 39.5l8 35q-38 20 -38 55q0 30 24 56t67 38l9 36q-33 33 -33 96q0 76 59 133.5t143 57.5q67 0 103 -30t48 -69h35q15 85 85 85h47l-15 -72h-37q-34 0 -47.5 -14t-24.5 -59l-7 -33q-18 -84 -69.5 -129.5t-132.5 -45.5q-64 0 -113 26
q-25 -9 -43 -26t-18 -32q0 -32 47 -32h194q68 0 104.5 -36.5t36.5 -87.5q0 -71 -46.5 -110t-136.5 -39h-214q-60 0 -91 28t-31 68zM404 343q0 40 -27.5 67.5t-73.5 27.5q-53 0 -88.5 -38t-35.5 -92q0 -42 27.5 -68.5t74.5 -26.5q55 0 89 37t34 93zM127 -119h184q91 0 91 68
q0 51 -70 51h-228q-57 -24 -57 -67q0 -52 80 -52zM162 567l132 122h126l80 -122h-84l-66 74l-98 -74h-90z" />
    <glyph glyph-name="Gbreve" unicode="&#x11e;" horiz-adv-x="769" 
d="M72 288q-1 79 27 156.5t77 138t122.5 97t156.5 34.5q117 0 193.5 -59.5t102.5 -151.5l-98 -30q-20 69 -75 112.5t-132 43.5q-80 2 -145.5 -47t-100 -128t-32.5 -166q0 -103 57 -160t149 -57q91 -2 159 58.5t82 127.5h-241l18 85h337l-73 -342h-87q6 31 26 73q18 38 38 67
h-46q-31 -61 -89.5 -107.5t-144.5 -46.5q-126 0 -203.5 79.5t-77.5 222.5zM362 870q0 10 3 23h75v-9q0 -58 65 -58q70 0 96 67h84q-13 -56 -59 -94t-121 -38q-69 0 -106 31t-37 78z" />
    <glyph glyph-name="gbreve" unicode="&#x11f;" horiz-adv-x="575" 
d="M-31 -99q0 35 22.5 61.5t64.5 39.5l8 35q-38 20 -38 55q0 30 24 56t67 38l9 36q-33 33 -33 96q0 76 59 133.5t143 57.5q67 0 103 -30t48 -69h35q15 85 85 85h47l-15 -72h-37q-34 0 -47.5 -14t-24.5 -59l-7 -33q-18 -84 -69.5 -129.5t-132.5 -45.5q-64 0 -113 26
q-25 -9 -43 -26t-18 -32q0 -32 47 -32h194q68 0 104.5 -36.5t36.5 -87.5q0 -71 -46.5 -110t-136.5 -39h-214q-60 0 -91 28t-31 68zM404 343q0 40 -27.5 67.5t-73.5 27.5q-53 0 -88.5 -38t-35.5 -92q0 -42 27.5 -68.5t74.5 -26.5q55 0 89 37t34 93zM127 -119h184q91 0 91 68
q0 51 -70 51h-228q-57 -24 -57 -67q0 -52 80 -52zM211 666q0 10 3 23h68v-9q0 -58 60 -58q65 0 86 67h77q-13 -56 -54.5 -94t-108.5 -38q-64 0 -97.5 31t-33.5 78z" />
    <glyph glyph-name="Gdotaccent" unicode="&#x120;" horiz-adv-x="769" 
d="M72 288q-1 79 27 156.5t77 138t122.5 97t156.5 34.5q117 0 193.5 -59.5t102.5 -151.5l-98 -30q-20 69 -75 112.5t-132 43.5q-80 2 -145.5 -47t-100 -128t-32.5 -166q0 -103 57 -160t149 -57q91 -2 159 58.5t82 127.5h-241l18 85h337l-73 -342h-87q6 31 26 73q18 38 38 67
h-46q-31 -61 -89.5 -107.5t-144.5 -46.5q-126 0 -203.5 79.5t-77.5 222.5zM450 771l23 108h89l-23 -108h-89z" />
    <glyph glyph-name="gdotaccent" unicode="&#x121;" horiz-adv-x="575" 
d="M-31 -99q0 35 22.5 61.5t64.5 39.5l8 35q-38 20 -38 55q0 30 24 56t67 38l9 36q-33 33 -33 96q0 76 59 133.5t143 57.5q67 0 103 -30t48 -69h35q15 85 85 85h47l-15 -72h-37q-34 0 -47.5 -14t-24.5 -59l-7 -33q-18 -84 -69.5 -129.5t-132.5 -45.5q-64 0 -113 26
q-25 -9 -43 -26t-18 -32q0 -32 47 -32h194q68 0 104.5 -36.5t36.5 -87.5q0 -71 -46.5 -110t-136.5 -39h-214q-60 0 -91 28t-31 68zM404 343q0 40 -27.5 67.5t-73.5 27.5q-53 0 -88.5 -38t-35.5 -92q0 -42 27.5 -68.5t74.5 -26.5q55 0 89 37t34 93zM127 -119h184q91 0 91 68
q0 51 -70 51h-228q-57 -24 -57 -67q0 -52 80 -52zM295 592l23 108h89l-23 -108h-89z" />
    <glyph glyph-name="uni0122" unicode="&#x122;" horiz-adv-x="769" 
d="M72 288q-1 79 27 156.5t77 138t122.5 97t156.5 34.5q117 0 193.5 -59.5t102.5 -151.5l-98 -30q-20 69 -75 112.5t-132 43.5q-80 2 -145.5 -47t-100 -128t-32.5 -166q0 -103 57 -160t149 -57q91 -2 159 58.5t82 127.5h-241l18 85h337l-73 -342h-87q6 31 26 73q18 38 38 67
h-46q-31 -61 -89.5 -107.5t-144.5 -46.5q-126 0 -203.5 79.5t-77.5 222.5zM236 -310l87 115h-49l23 107h103l-25 -111l-83 -111h-56z" />
    <glyph glyph-name="uni0123" unicode="&#x123;" horiz-adv-x="575" 
d="M-31 -99q0 35 22.5 61.5t64.5 39.5l8 35q-38 20 -38 55q0 30 24 56t67 38l9 36q-33 33 -33 96q0 76 59 133.5t143 57.5q67 0 103 -30t48 -69h35q15 85 85 85h47l-15 -72h-37q-34 0 -47.5 -14t-24.5 -59l-7 -33q-18 -84 -69.5 -129.5t-132.5 -45.5q-64 0 -113 26
q-25 -9 -43 -26t-18 -32q0 -32 47 -32h194q68 0 104.5 -36.5t36.5 -87.5q0 -71 -46.5 -110t-136.5 -39h-214q-60 0 -91 28t-31 68zM404 343q0 40 -27.5 67.5t-73.5 27.5q-53 0 -88.5 -38t-35.5 -92q0 -42 27.5 -68.5t74.5 -26.5q55 0 89 37t34 93zM127 -119h184q91 0 91 68
q0 51 -70 51h-228q-57 -24 -57 -67q0 -52 80 -52zM449 814l-87 -115h50l-23 -107h-103l24 111l83 111h56z" />
    <glyph glyph-name="Hcircumflex" unicode="&#x124;" horiz-adv-x="765" 
d="M52 0l149 700h91l-62 -295h374l63 295h91l-149 -700h-91l68 320h-375l-68 -320h-91zM306 771l145 122h138l88 -122h-92l-73 74l-107 -74h-99z" />
    <glyph glyph-name="hcircumflex" unicode="&#x125;" horiz-adv-x="580" 
d="M33 0l148 700h86l-38 -173q-17 -73 -74 -137h52q21 43 59 81q40 38 101 38q69 0 111.5 -42.5t42.5 -113.5q0 -30 -7 -57l-63 -296h-86l64 302q5 22 5 38q0 44 -23.5 69t-66.5 25q-66 0 -112.5 -61.5t-63.5 -142.5l-49 -230h-86zM236 772l132 122h126l80 -122h-84l-66 74
l-98 -74h-90z" />
    <glyph glyph-name="Hbar" unicode="&#x126;" horiz-adv-x="781" 
d="M831 610l-15 -72h-85l-114 -538h-91l68 320h-375l-68 -320h-91l114 538h-83l15 72h84l19 90h91l-19 -90h375l19 90h91l-19 -90h84zM612 405l28 133h-374l-28 -133h374z" />
    <glyph glyph-name="hbar" unicode="&#x127;" horiz-adv-x="580" 
d="M521 353q0 -30 -7 -57l-63 -296h-86l64 302q5 22 5 38q0 44 -23.5 69t-66.5 25q-66 0 -112.5 -61.5t-63.5 -142.5l-49 -230h-86l119 561h-76l13 62h76l16 77h86l-17 -77h172l-13 -62h-173l-7 -34q-17 -73 -74 -137h52q21 43 59 81q40 38 101 38q69 0 111.5 -42.5
t42.5 -113.5z" />
    <glyph glyph-name="Itilde" unicode="&#x128;" horiz-adv-x="299" 
d="M52 0l149 700h91l-149 -700h-91zM272 787l-28 19q-26 17 -46 17q-19 0 -34 -14t-20 -38h-80q30 121 132 121q45 0 79 -24l29 -18q25 -18 42 -18q38 0 55 46h81q-28 -118 -130 -118q-38 0 -80 27z" />
    <glyph glyph-name="itilde" unicode="&#x129;" horiz-adv-x="255" 
d="M33 0l105 495h86l-105 -495h-86zM200 598l-26 19q-23 17 -41 17t-31.5 -14t-18.5 -38h-72q28 121 120 121q40 0 72 -24l26 -18q24 -18 38 -18q35 0 50 46h74q-24 -118 -119 -118q-34 0 -72 27z" />
    <glyph glyph-name="Imacron" unicode="&#x12a;" horiz-adv-x="299" 
d="M52 0l149 700h91l-149 -700h-91zM103 791l15 67h332l-15 -67h-332z" />
    <glyph glyph-name="imacron" unicode="&#x12b;" horiz-adv-x="255" 
d="M33 0l105 495h86l-105 -495h-86zM53 593l15 67h302l-15 -67h-302z" />
    <glyph glyph-name="Ibreve" unicode="&#x12c;" horiz-adv-x="299" 
d="M52 0l149 700h91l-149 -700h-91zM132 870q0 10 3 23h75v-9q0 -58 65 -58q70 0 96 67h84q-13 -56 -59 -94t-121 -38q-69 0 -106 31t-37 78z" />
    <glyph glyph-name="ibreve" unicode="&#x12d;" horiz-adv-x="255" 
d="M33 0l105 495h86l-105 -495h-86zM75 666q0 10 3 23h68v-9q0 -58 60 -58q65 0 86 67h77q-13 -56 -54.5 -94t-108.5 -38q-64 0 -97.5 31t-33.5 78z" />
    <glyph glyph-name="Iogonek" unicode="&#x12e;" horiz-adv-x="299" 
d="M21 -98q0 -37 53 -37q13 0 41 5l-14 -69q-30 -6 -54 -6q-47 0 -74.5 22t-27.5 63q0 70 109 128l147 692h91l-149 -700q-122 -46 -122 -98z" />
    <glyph glyph-name="iogonek" unicode="&#x12f;" horiz-adv-x="256" 
d="M183 700h89l-23 -108h-89zM37 12l102 483h86l-105 -495q-122 -46 -122 -98q0 -37 53 -37q13 0 41 5l-14 -69q-30 -6 -54 -6q-47 0 -74.5 22t-27.5 63q0 70 115 132z" />
    <glyph glyph-name="Idotaccent" unicode="&#x130;" horiz-adv-x="299" 
d="M52 0l149 700h91l-149 -700h-91zM220 771l23 108h89l-23 -108h-89z" />
    <glyph glyph-name="dotlessi" unicode="&#x131;" horiz-adv-x="255" 
d="M33 0l105 495h86l-105 -495h-86z" />
    <glyph glyph-name="IJ" unicode="&#x132;" horiz-adv-x="797" 
d="M52 0l149 700h91l-149 -700h-91zM302 147q0 31 7 58l94 15q-7 -32 -7 -63q0 -89 80 -89q50 0 79.5 36.5t48.5 124.5l100 471h91l-106 -501q-23 -110 -73.5 -161.5t-136.5 -51.5q-80 0 -128.5 43t-48.5 118z" />
    <glyph glyph-name="ij" unicode="&#x133;" horiz-adv-x="517" 
d="M158 592l23 108h89l-23 -108h-89zM33 0l105 495h86l-105 -495h-86zM418 592l23 108h92l-23 -108h-92zM125 -195l16 78h80q50 0 60 50l119 562h86l-121 -570q-14 -66 -44.5 -93t-96.5 -27h-99z" />
    <glyph glyph-name="Jcircumflex" unicode="&#x134;" horiz-adv-x="496" 
d="M5 147q0 31 7 58l94 15q-7 -32 -7 -63q0 -89 80 -89q50 0 79.5 36.5t48.5 124.5l100 471h91l-106 -501q-23 -110 -73.5 -161.5t-136.5 -51.5q-80 0 -128.5 43t-48.5 118zM278 771l145 122h138l88 -122h-92l-73 74l-107 -74h-99z" />
    <glyph glyph-name="jcircumflex" unicode="&#x135;" horiz-adv-x="262" 
d="M-130 -195l16 78h80q50 0 60 50l119 562h86l-121 -570q-14 -66 -44.5 -93t-96.5 -27h-99zM31 567l132 122h126l80 -122h-84l-66 74l-98 -74h-90z" />
    <glyph glyph-name="uni0136" unicode="&#x136;" horiz-adv-x="694" 
d="M738 700l-347 -296l270 -404h-111l-227 347l-129 -111l-51 -236h-91l149 700h91l-38 -181q-18 -88 -78 -140l27 -32l402 353h133zM218 -310l87 115h-49l23 107h103l-25 -111l-83 -111h-56z" />
    <glyph glyph-name="uni0137" unicode="&#x137;" horiz-adv-x="565" 
d="M606 495l-272 -213l172 -282h-98l-137 231l-123 -97l-29 -134h-86l149 700h86l-61 -287q-15 -70 -31.5 -99t-55.5 -56l28 -34l335 271h123zM135 -310l87 115h-49l23 107h103l-25 -111l-83 -111h-56z" />
    <glyph glyph-name="Lacute" unicode="&#x139;" horiz-adv-x="580" 
d="M52 0l149 700h91l-130 -613h373l-19 -87h-464zM227 771l86 139h135l-155 -139h-66z" />
    <glyph glyph-name="lacute" unicode="&#x13a;" horiz-adv-x="254" 
d="M32 0l149 700h86l-149 -700h-86zM207 772l79 139h122l-141 -139h-60z" />
    <glyph glyph-name="uni013B" unicode="&#x13b;" horiz-adv-x="580" 
d="M52 0l149 700h91l-130 -613h373l-19 -87h-464zM153 -310l87 115h-49l23 107h103l-25 -111l-83 -111h-56z" />
    <glyph glyph-name="uni013C" unicode="&#x13c;" horiz-adv-x="254" 
d="M32 0l149 700h86l-149 -700h-86zM-54 -310l87 115h-49l23 107h103l-25 -111l-83 -111h-56z" />
    <glyph glyph-name="Lcaron" unicode="&#x13d;" horiz-adv-x="581" 
d="M341 458l96 126h-55l25 117h114l-27 -122l-92 -121h-61zM52 0l149 700h91l-130 -613h373l-19 -87h-464z" />
    <glyph glyph-name="lcaron" unicode="&#x13e;" horiz-adv-x="284" 
d="M32 0l149 700h86l-149 -700h-86zM263 479l87 115h-49l23 107h103l-25 -111l-83 -111h-56z" />
    <glyph glyph-name="Ldot" unicode="&#x13f;" horiz-adv-x="583" 
d="M52 0l149 700h91l-130 -613h373l-19 -87h-464zM377 311l27 125h119l-27 -125h-119z" />
    <glyph glyph-name="ldot" unicode="&#x140;" horiz-adv-x="378" 
d="M32 0l149 700h86l-149 -700h-86zM265 291l27 125h119l-27 -125h-119z" />
    <glyph glyph-name="Lslash" unicode="&#x141;" horiz-adv-x="607" 
d="M188 87h373l-19 -87h-464l52 248l-96 -51l20 96l97 51l76 356h91l-64 -302l250 132l-20 -95l-251 -133z" />
    <glyph glyph-name="lslash" unicode="&#x142;" horiz-adv-x="315" 
d="M340 509l-18 -89l-97 -57l-77 -363h-86l65 306l-85 -50l18 88l86 51l65 305h86l-53 -248z" />
    <glyph glyph-name="Nacute" unicode="&#x143;" horiz-adv-x="801" 
d="M52 0l149 700h134l250 -589l37 14q-14 42 -14 85q0 46 12 100l83 390h91l-149 -700h-109l-262 619l-38 -15q10 -33 10 -75q0 -49 -16 -120l-87 -409h-91zM474 771l86 139h135l-155 -139h-66z" />
    <glyph glyph-name="nacute" unicode="&#x144;" horiz-adv-x="580" 
d="M33 0l105 495h85q-8 -32 -68 -105h52q22 44 60 82q37 37 100 37q69 0 111.5 -42.5t42.5 -113.5q0 -30 -7 -57l-63 -296h-86l64 302q5 22 5 38q0 44 -23.5 69t-66.5 25q-66 0 -112.5 -61.5t-63.5 -142.5l-49 -230h-86zM330 567l79 139h122l-141 -139h-60z" />
    <glyph glyph-name="uni0145" unicode="&#x145;" horiz-adv-x="801" 
d="M52 0l149 700h134l250 -589l37 14q-14 42 -14 85q0 46 12 100l83 390h91l-149 -700h-109l-262 619l-38 -15q10 -33 10 -75q0 -49 -16 -120l-87 -409h-91zM220 -310l87 115h-49l23 107h103l-25 -111l-83 -111h-56z" />
    <glyph glyph-name="uni0146" unicode="&#x146;" horiz-adv-x="580" 
d="M33 0l105 495h85q-8 -32 -68 -105h52q22 44 60 82q37 37 100 37q69 0 111.5 -42.5t42.5 -113.5q0 -30 -7 -57l-63 -296h-86l64 302q5 22 5 38q0 44 -23.5 69t-66.5 25q-66 0 -112.5 -61.5t-63.5 -142.5l-49 -230h-86zM120 -310l87 115h-49l23 107h103l-25 -111l-83 -111
h-56z" />
    <glyph glyph-name="Ncaron" unicode="&#x147;" horiz-adv-x="801" 
d="M52 0l149 700h134l250 -589l37 14q-14 42 -14 85q0 46 12 100l83 390h91l-149 -700h-109l-262 619l-38 -15q10 -33 10 -75q0 -49 -16 -120l-87 -409h-91zM710 893l-145 -122h-138l-89 122h93l72 -74l108 74h99z" />
    <glyph glyph-name="ncaron" unicode="&#x148;" horiz-adv-x="580" 
d="M33 0l105 495h85q-8 -32 -68 -105h52q22 44 60 82q37 37 100 37q69 0 111.5 -42.5t42.5 -113.5q0 -30 -7 -57l-63 -296h-86l64 302q5 22 5 38q0 44 -23.5 69t-66.5 25q-66 0 -112.5 -61.5t-63.5 -142.5l-49 -230h-86zM302 567l-80 122h82l66 -74l98 74h92l-132 -122h-126
z" />
    <glyph glyph-name="Eng" unicode="&#x14a;" horiz-adv-x="801" 
d="M393 -195l18 83h51q33 0 54.5 19.5t28.5 51.5l7 30l-267 605l-11 25l-38 -15q10 -33 10 -74q0 -53 -16 -121l-87 -409h-91l149 700h135l247 -563l9 -18l37 16q-17 48 -17 98q0 45 10 86l81 381h91l-158 -742q-17 -80 -61 -116.5t-120 -36.5h-62z" />
    <glyph glyph-name="eng" unicode="&#x14b;" horiz-adv-x="580" 
d="M194 -195l17 78h79q26 0 40 11.5t20 38.5l79 369q5 22 5 38q0 44 -23.5 69t-66.5 25q-66 0 -112.5 -61.5t-63.5 -142.5l-49 -230h-86l105 495h85q-3 -16 -25 -48q-25 -37 -44 -57h53q12 23 23.5 39.5t30.5 36t46.5 31t60.5 12.5q68 0 110.5 -42.5t42.5 -113.5
q0 -30 -7 -57l-79 -371q-15 -67 -49 -93.5t-103 -26.5h-89z" />
    <glyph glyph-name="Omacron" unicode="&#x14c;" horiz-adv-x="800" 
d="M74 309q-2 103 48 197.5t139 152t192 55.5q139 0 228 -86t89 -237q2 -106 -47 -200t-137.5 -150.5t-193.5 -54.5q-141 0 -229.5 84.5t-88.5 238.5zM676 392q0 108 -59 172.5t-166 64.5q-119 3 -202 -96t-81 -229q0 -107 59 -170t165 -63q119 -3 202.5 95.5t81.5 225.5z
M341 791l15 67h332l-15 -67h-332z" />
    <glyph glyph-name="omacron" unicode="&#x14d;" horiz-adv-x="553" 
d="M42 192q-1 78 32.5 151t97.5 120.5t142 45.5q89 0 143.5 -57.5t54.5 -149.5q2 -124 -75.5 -221t-196.5 -95q-90 0 -144 56.5t-54 149.5zM425 302q0 64 -32.5 98t-85.5 34q-81 2 -130 -73.5t-48 -168.5q0 -64 31.5 -97.5t86.5 -33.5q82 0 130 73t48 168zM196 593l15 67
h302l-15 -67h-302z" />
    <glyph glyph-name="Obreve" unicode="&#x14e;" horiz-adv-x="800" 
d="M74 309q-2 103 48 197.5t139 152t192 55.5q139 0 228 -86t89 -237q2 -106 -47 -200t-137.5 -150.5t-193.5 -54.5q-141 0 -229.5 84.5t-88.5 238.5zM676 392q0 108 -59 172.5t-166 64.5q-119 3 -202 -96t-81 -229q0 -107 59 -170t165 -63q119 -3 202.5 95.5t81.5 225.5z
M370 870q0 10 3 23h75v-9q0 -58 65 -58q70 0 96 67h84q-13 -56 -59 -94t-121 -38q-69 0 -106 31t-37 78z" />
    <glyph glyph-name="obreve" unicode="&#x14f;" horiz-adv-x="553" 
d="M42 192q-1 78 32.5 151t97.5 120.5t142 45.5q89 0 143.5 -57.5t54.5 -149.5q2 -124 -75.5 -221t-196.5 -95q-90 0 -144 56.5t-54 149.5zM425 302q0 64 -32.5 98t-85.5 34q-81 2 -130 -73.5t-48 -168.5q0 -64 31.5 -97.5t86.5 -33.5q82 0 130 73t48 168zM218 666
q0 10 3 23h68v-9q0 -58 60 -58q65 0 86 67h77q-13 -56 -54.5 -94t-108.5 -38q-64 0 -97.5 31t-33.5 78z" />
    <glyph glyph-name="Ohungarumlaut" unicode="&#x150;" horiz-adv-x="800" 
d="M74 309q-2 103 48 197.5t139 152t192 55.5q139 0 228 -86t89 -237q2 -106 -47 -200t-137.5 -150.5t-193.5 -54.5q-141 0 -229.5 84.5t-88.5 238.5zM676 392q0 108 -59 172.5t-166 64.5q-119 3 -202 -96t-81 -229q0 -107 59 -170t165 -63q119 -3 202.5 95.5t81.5 225.5z
M378 771l86 139h134l-155 -139h-65zM552 771l86 139h135l-156 -139h-65z" />
    <glyph glyph-name="ohungarumlaut" unicode="&#x151;" horiz-adv-x="553" 
d="M42 192q-1 78 32.5 151t97.5 120.5t142 45.5q89 0 143.5 -57.5t54.5 -149.5q2 -124 -75.5 -221t-196.5 -95q-90 0 -144 56.5t-54 149.5zM425 302q0 64 -32.5 98t-85.5 34q-81 2 -130 -73.5t-48 -168.5q0 -64 31.5 -97.5t86.5 -33.5q82 0 130 73t48 168zM227 567l79 139
h122l-142 -139h-59zM385 567l79 139h122l-141 -139h-60z" />
    <glyph glyph-name="OE" unicode="&#x152;" horiz-adv-x="1221" 
d="M75 308q-2 105 46.5 199.5t134.5 151.5t185 55q116 0 169 -52q55 -53 71 -111h42q-2 70 17 149h529l-18 -85h-439l-42 -201h315l-17 -83h-316l-52 -246h438l-18 -85h-526q11 51 53 119h-50q-43 -65 -95 -99t-127 -34q-125 -2 -213.5 85.5t-86.5 236.5zM673 392
q0 108 -58 172.5t-162 64.5q-119 3 -202 -96t-81 -229q0 -107 59 -170t165 -63q117 -3 199 95.5t80 225.5z" />
    <glyph glyph-name="oe" unicode="&#x153;" horiz-adv-x="909" 
d="M44 199q-2 120 70.5 216t179.5 94q67 0 113 -36.5t59 -84.5h38q23 51 69 86t105 35q88 0 137.5 -53.5t49.5 -137.5q0 -45 -15 -93h-345q-5 -22 -5 -40q0 -54 30.5 -89.5t83.5 -35.5q56 0 97.5 32t60.5 72l73 -38q-83 -140 -221 -140q-71 0 -112.5 30t-58.5 94h-38
q-25 -57 -72 -90.5t-112 -33.5q-84 0 -135.5 57t-51.5 156zM519 293h258q3 16 3 32q0 52 -30 83t-83 31q-47 0 -88.5 -40t-59.5 -106zM427 301q0 65 -33.5 99t-91.5 34q-51 2 -91 -35.5t-59.5 -91.5t-18.5 -108q0 -70 31 -104t86 -34q84 0 130.5 71.5t46.5 168.5z" />
    <glyph glyph-name="Racute" unicode="&#x154;" horiz-adv-x="689" 
d="M52 0l149 700h251q96 0 152.5 -49.5t56.5 -126.5q0 -95 -60 -134q-59 -38 -137 -41l-8 -38q57 -1 86 -33t38 -101l22 -177h-97l-15 169q-6 67 -32.5 95.5t-94.5 28.5h-157l-63 -293h-91zM223 377h177q74 0 120.5 36t46.5 100q0 46 -32.5 74t-82.5 28h-178zM393 771
l86 139h135l-155 -139h-66z" />
    <glyph glyph-name="racute" unicode="&#x155;" horiz-adv-x="397" 
d="M33 0l105 495h75q-13 -64 -74 -136h56q69 143 174 143q44 0 63 -8l-19 -89q-29 7 -60 7q-71 0 -120.5 -55t-70.5 -150l-43 -207h-86zM245 567l79 139h122l-141 -139h-60z" />
    <glyph glyph-name="uni0156" unicode="&#x156;" horiz-adv-x="689" 
d="M52 0l149 700h251q96 0 152.5 -49.5t56.5 -126.5q0 -95 -60 -134q-59 -38 -137 -41l-8 -38q57 -1 86 -33t38 -101l22 -177h-97l-15 169q-6 67 -32.5 95.5t-94.5 28.5h-157l-63 -293h-91zM223 377h177q74 0 120.5 36t46.5 100q0 46 -32.5 74t-82.5 28h-178zM192 -310
l87 115h-49l23 107h103l-25 -111l-83 -111h-56z" />
    <glyph glyph-name="uni0157" unicode="&#x157;" horiz-adv-x="397" 
d="M33 0l105 495h75q-13 -64 -74 -136h56q69 143 174 143q44 0 63 -8l-19 -89q-29 7 -60 7q-71 0 -120.5 -55t-70.5 -150l-43 -207h-86zM-52 -310l87 115h-49l23 107h103l-25 -111l-83 -111h-56z" />
    <glyph glyph-name="Rcaron" unicode="&#x158;" horiz-adv-x="689" 
d="M52 0l149 700h251q96 0 152.5 -49.5t56.5 -126.5q0 -95 -60 -134q-59 -38 -137 -41l-8 -38q57 -1 86 -33t38 -101l22 -177h-97l-15 169q-6 67 -32.5 95.5t-94.5 28.5h-157l-63 -293h-91zM223 377h177q74 0 120.5 36t46.5 100q0 46 -32.5 74t-82.5 28h-178zM649 893
l-145 -122h-138l-89 122h93l72 -74l108 74h99z" />
    <glyph glyph-name="rcaron" unicode="&#x159;" horiz-adv-x="397" 
d="M33 0l105 495h75q-13 -64 -74 -136h56q69 143 174 143q44 0 63 -8l-19 -89q-29 7 -60 7q-71 0 -120.5 -55t-70.5 -150l-43 -207h-86zM217 567l-80 122h82l66 -74l98 74h92l-132 -122h-126z" />
    <glyph glyph-name="Sacute" unicode="&#x15a;" horiz-adv-x="595" 
d="M33 186l92 33q9 -69 50 -109.5t114 -40.5q72 0 113 36t41 89q0 42 -27 67t-86 41l-81 24q-136 40 -136 172q0 90 68.5 152.5t169.5 62.5q105 0 163.5 -49.5t73.5 -125.5l-93 -29q-11 48 -44 84q-33 37 -105 37q-61 0 -101.5 -36.5t-40.5 -85.5q0 -41 22 -61.5t80 -38.5
l84 -26q68 -22 110 -67.5t42 -112.5q0 -92 -70 -154t-191 -62q-102 0 -169.5 55t-78.5 145zM366 771l86 139h135l-155 -139h-66z" />
    <glyph glyph-name="sacute" unicode="&#x15b;" horiz-adv-x="484" 
d="M15 133l80 18q4 -44 35 -68.5t86 -24.5t86.5 21.5t31.5 58.5q0 28 -17 42.5t-63 28.5l-51 15q-67 20 -96 47.5t-29 83.5q0 65 55 109.5t135 44.5q86 0 134 -38.5t53 -98.5l-81 -18q-4 35 -29 60.5t-77 25.5q-53 0 -80.5 -23.5t-27.5 -52.5q0 -25 14.5 -37t59.5 -26
l51 -15q135 -39 135 -138q0 -76 -55.5 -119t-148.5 -43q-83 0 -141.5 39t-59.5 108zM275 567l79 139h122l-141 -139h-60z" />
    <glyph glyph-name="Scircumflex" unicode="&#x15c;" horiz-adv-x="595" 
d="M33 186l92 33q9 -69 50 -109.5t114 -40.5q72 0 113 36t41 89q0 42 -27 67t-86 41l-81 24q-136 40 -136 172q0 90 68.5 152.5t169.5 62.5q105 0 163.5 -49.5t73.5 -125.5l-93 -29q-11 48 -44 84q-33 37 -105 37q-61 0 -101.5 -36.5t-40.5 -85.5q0 -41 22 -61.5t80 -38.5
l84 -26q68 -22 110 -67.5t42 -112.5q0 -92 -70 -154t-191 -62q-102 0 -169.5 55t-78.5 145zM211 771l145 122h138l88 -122h-92l-73 74l-107 -74h-99z" />
    <glyph glyph-name="scircumflex" unicode="&#x15d;" horiz-adv-x="484" 
d="M15 133l80 18q4 -44 35 -68.5t86 -24.5t86.5 21.5t31.5 58.5q0 28 -17 42.5t-63 28.5l-51 15q-67 20 -96 47.5t-29 83.5q0 65 55 109.5t135 44.5q86 0 134 -38.5t53 -98.5l-81 -18q-4 35 -29 60.5t-77 25.5q-53 0 -80.5 -23.5t-27.5 -52.5q0 -25 14.5 -37t59.5 -26
l51 -15q135 -39 135 -138q0 -76 -55.5 -119t-148.5 -43q-83 0 -141.5 39t-59.5 108zM139 567l132 122h126l80 -122h-84l-66 74l-98 -74h-90z" />
    <glyph glyph-name="Scedilla" unicode="&#x15e;" horiz-adv-x="595" 
d="M542 202q0 -89 -66.5 -151t-181.5 -65l-15 -12q-12 -11 -29 -24q3 1 12 1q36 0 61 -21t25 -53q0 -42 -32 -66t-87 -24q-73 0 -107 46l40 46q25 -34 67 -34q54 0 54 34q0 13 -12 21.5t-33 8.5q-22 0 -35 -5l-22 39l53 46q-83 12 -137.5 65.5t-63.5 131.5l92 33
q9 -69 50 -109.5t114 -40.5q72 0 113 36t41 89q0 42 -27 67t-86 41l-81 24q-136 40 -136 172q0 90 68.5 152.5t169.5 62.5q105 0 163.5 -49.5t73.5 -125.5l-93 -29q-11 48 -44 84q-33 37 -105 37q-61 0 -101.5 -36.5t-40.5 -85.5q0 -41 22 -61.5t80 -38.5l84 -26
q68 -22 110 -67.5t42 -112.5z" />
    <glyph glyph-name="scedilla" unicode="&#x15f;" horiz-adv-x="484" 
d="M420 148q0 -72 -51.5 -114.5t-138.5 -47.5l-15 -12q-12 -11 -29 -24q3 1 12 1q36 0 61 -21t25 -53q0 -42 -32 -66t-87 -24q-73 0 -107 46l40 46q27 -34 67 -34q54 0 54 34q0 13 -12 21.5t-33 8.5q-22 0 -35 -5l-22 39l53 46q-68 11 -111 48t-44 96l80 18q4 -44 35 -68.5
t86 -24.5t86.5 21.5t31.5 58.5q0 28 -17 42.5t-63 28.5l-51 15q-67 20 -96 47.5t-29 83.5q0 65 55 109.5t135 44.5q86 0 134 -38.5t53 -98.5l-81 -18q-4 35 -29 60.5t-77 25.5q-53 0 -80.5 -23.5t-27.5 -52.5q0 -25 14.5 -37t59.5 -26l51 -15q135 -39 135 -138z" />
    <glyph glyph-name="Scaron" unicode="&#x160;" horiz-adv-x="595" 
d="M33 186l92 33q9 -69 50 -109.5t114 -40.5q72 0 113 36t41 89q0 42 -27 67t-86 41l-81 24q-136 40 -136 172q0 90 68.5 152.5t169.5 62.5q105 0 163.5 -49.5t73.5 -125.5l-93 -29q-11 48 -44 84q-33 37 -105 37q-61 0 -101.5 -36.5t-40.5 -85.5q0 -41 22 -61.5t80 -38.5
l84 -26q68 -22 110 -67.5t42 -112.5q0 -92 -70 -154t-191 -62q-102 0 -169.5 55t-78.5 145zM602 893l-145 -122h-138l-89 122h93l72 -74l108 74h99z" />
    <glyph glyph-name="scaron" unicode="&#x161;" horiz-adv-x="484" 
d="M15 133l80 18q4 -44 35 -68.5t86 -24.5t86.5 21.5t31.5 58.5q0 28 -17 42.5t-63 28.5l-51 15q-67 20 -96 47.5t-29 83.5q0 65 55 109.5t135 44.5q86 0 134 -38.5t53 -98.5l-81 -18q-4 35 -29 60.5t-77 25.5q-53 0 -80.5 -23.5t-27.5 -52.5q0 -25 14.5 -37t59.5 -26
l51 -15q135 -39 135 -138q0 -76 -55.5 -119t-148.5 -43q-83 0 -141.5 39t-59.5 108zM252 567l-80 122h82l66 -74l98 74h92l-132 -122h-126z" />
    <glyph glyph-name="uni0162" unicode="&#x162;" horiz-adv-x="618" 
d="M109 700h594l-18 -85h-256l-131 -615l-32 -26q-12 -11 -29 -24q3 1 12 1q36 0 61 -21t25 -53q0 -42 -32 -66t-87 -24q-73 0 -107 46l40 46q29 -34 67 -34q54 0 54 34q0 13 -12 21.5t-33 8.5q-20 0 -35 -5l-22 39l66 57h-27l131 615h-247z" />
    <glyph glyph-name="uni0163" unicode="&#x163;" horiz-adv-x="395" 
d="M252 423l-64 -298q0 -4 -0.5 -7.5t-1 -6t-0.5 -3.5q0 -33 46 -33h112l-16 -75h-81l-32 -26q-12 -11 -29 -24q3 1 12 1q36 0 61 -21t25 -53q0 -42 -32 -66t-87 -24q-73 0 -107 46l40 46q27 -34 67 -34q54 0 54 34q0 13 -12 21.5t-33 8.5q-22 0 -35 -5l-22 39l70 60
q-87 16 -87 98q0 20 4 35l62 287h-114l15 72h114l33 155h86l-33 -155h134l-16 -72h-133z" />
    <glyph glyph-name="Tcaron" unicode="&#x164;" horiz-adv-x="618" 
d="M207 0l131 615h-247l18 85h594l-18 -85h-256l-131 -615h-91zM617 893l-145 -122h-138l-89 122h93l72 -74l108 74h99z" />
    <glyph glyph-name="tcaron" unicode="&#x165;" horiz-adv-x="395" 
d="M100 100q0 19 4 36l62 287h-114l15 72h114l33 155h86l-33 -155h134l-16 -72h-133l-64 -298q0 -4 -0.5 -7.5t-1 -6t-0.5 -3.5q0 -33 46 -33h112l-16 -75h-104q-61 0 -92.5 26.5t-31.5 73.5zM356 537l87 115h-49l23 107h103l-25 -111l-83 -111h-56z" />
    <glyph glyph-name="Tbar" unicode="&#x166;" horiz-adv-x="637" 
d="M694 615h-256l-42 -193h160l-16 -75h-159l-74 -347h-91l74 347h-160l16 75h160l41 193h-247l18 85h594z" />
    <glyph glyph-name="tbar" unicode="&#x167;" horiz-adv-x="406" 
d="M394 423h-133l-20 -93h134l-15 -68h-134l-29 -137q0 -4 -0.5 -7.5t-1 -6t-0.5 -3.5q0 -33 46 -33h112l-16 -75h-104q-62 0 -93.5 26.5t-31.5 73.5q0 14 5 36l27 126h-113l15 68h113l20 93h-114l15 72h114l33 155h86l-33 -155h134z" />
    <glyph glyph-name="Utilde" unicode="&#x168;" horiz-adv-x="714" 
d="M91 191q0 35 9 79l91 430h91l-89 -418q-9 -40 -9 -75q0 -135 136 -135q91 0 143 52t74 159l88 417h91l-93 -439q-31 -141 -102.5 -208t-200.5 -67q-105 0 -167 53t-62 152zM475 787l-28 19q-26 17 -46 17q-19 0 -34 -14t-20 -38h-80q30 121 132 121q45 0 79 -24l29 -18
q26 -18 42 -18q38 0 55 46h81q-28 -118 -130 -118q-38 0 -80 27z" />
    <glyph glyph-name="utilde" unicode="&#x169;" horiz-adv-x="574" 
d="M61 143q0 27 6 56l63 296h86l-64 -302q-5 -23 -5 -38q0 -44 23.5 -69t64.5 -25q68 0 112.5 60.5t60.5 143.5l49 230h86l-105 -495h-72q11 52 67 116h-54q-19 -33 -39 -60q-54 -70 -133 -70q-65 0 -105.5 42.5t-40.5 114.5zM350 598l-26 19q-23 17 -41 17t-31.5 -14
t-18.5 -38h-72q28 121 120 121q40 0 72 -24l26 -18q24 -18 38 -18q35 0 50 46h74q-24 -118 -119 -118q-34 0 -72 27z" />
    <glyph glyph-name="Umacron" unicode="&#x16a;" horiz-adv-x="714" 
d="M91 191q0 35 9 79l91 430h91l-89 -418q-9 -40 -9 -75q0 -135 136 -135q91 0 143 52t74 159l88 417h91l-93 -439q-31 -141 -102.5 -208t-200.5 -67q-105 0 -167 53t-62 152zM306 791l15 67h332l-15 -67h-332z" />
    <glyph glyph-name="umacron" unicode="&#x16b;" horiz-adv-x="574" 
d="M61 143q0 27 6 56l63 296h86l-64 -302q-5 -23 -5 -38q0 -44 23.5 -69t64.5 -25q68 0 112.5 60.5t60.5 143.5l49 230h86l-105 -495h-72q11 52 67 116h-54q-19 -33 -39 -60q-54 -70 -133 -70q-65 0 -105.5 42.5t-40.5 114.5zM203 593l15 67h302l-15 -67h-302z" />
    <glyph glyph-name="Ubreve" unicode="&#x16c;" horiz-adv-x="714" 
d="M91 191q0 35 9 79l91 430h91l-89 -418q-9 -40 -9 -75q0 -135 136 -135q91 0 143 52t74 159l88 417h91l-93 -439q-31 -141 -102.5 -208t-200.5 -67q-105 0 -167 53t-62 152zM335 870q0 10 3 23h75v-9q0 -58 65 -58q70 0 96 67h84q-13 -56 -59 -94t-121 -38q-69 0 -106 31
t-37 78z" />
    <glyph glyph-name="ubreve" unicode="&#x16d;" horiz-adv-x="574" 
d="M61 143q0 27 6 56l63 296h86l-64 -302q-5 -23 -5 -38q0 -44 23.5 -69t64.5 -25q68 0 112.5 60.5t60.5 143.5l49 230h86l-105 -495h-72q11 52 67 116h-54q-19 -33 -39 -60q-54 -70 -133 -70q-65 0 -105.5 42.5t-40.5 114.5zM225 666q0 10 3 23h68v-9q0 -58 60 -58
q65 0 86 67h77q-13 -56 -54.5 -94t-108.5 -38q-64 0 -97.5 31t-33.5 78z" />
    <glyph glyph-name="Uring" unicode="&#x16e;" horiz-adv-x="714" 
d="M91 191q0 35 9 79l91 430h91l-89 -418q-9 -40 -9 -75q0 -135 136 -135q91 0 143 52t74 159l88 417h91l-93 -439q-31 -141 -102.5 -208t-200.5 -67q-105 0 -167 53t-62 152zM358 866q0 58 37.5 94.5t95.5 36.5q48 0 80.5 -31.5t32.5 -73.5q0 -59 -38.5 -95.5t-94.5 -36.5
q-49 0 -81 31t-32 75zM540 884q0 26 -15 41t-39 15q-28 0 -46.5 -19.5t-18.5 -47.5q0 -25 14.5 -40t40.5 -15t45 19.5t19 46.5z" />
    <glyph glyph-name="uring" unicode="&#x16f;" horiz-adv-x="574" 
d="M61 143q0 27 6 56l63 296h86l-64 -302q-5 -23 -5 -38q0 -44 23.5 -69t64.5 -25q68 0 112.5 60.5t60.5 143.5l49 230h86l-105 -495h-72q11 52 67 116h-54q-19 -33 -39 -60q-54 -70 -133 -70q-65 0 -105.5 42.5t-40.5 114.5zM241 650q0 56 35.5 91t91.5 35q46 0 76.5 -30
t30.5 -71q0 -55 -36.5 -90t-89.5 -35q-47 0 -77.5 29.5t-30.5 70.5zM414 668q0 24 -14 38.5t-37 14.5q-27 0 -44.5 -18.5t-17.5 -45.5q0 -24 13.5 -38t38.5 -14q24 0 42.5 19t18.5 44z" />
    <glyph glyph-name="Uhungarumlaut" unicode="&#x170;" horiz-adv-x="714" 
d="M91 191q0 35 9 79l91 430h91l-89 -418q-9 -40 -9 -75q0 -135 136 -135q91 0 143 52t74 159l88 417h91l-93 -439q-31 -141 -102.5 -208t-200.5 -67q-105 0 -167 53t-62 152zM343 771l86 139h134l-155 -139h-65zM517 771l86 139h135l-156 -139h-65z" />
    <glyph glyph-name="uhungarumlaut" unicode="&#x171;" horiz-adv-x="574" 
d="M61 143q0 27 6 56l63 296h86l-64 -302q-5 -23 -5 -38q0 -44 23.5 -69t64.5 -25q68 0 112.5 60.5t60.5 143.5l49 230h86l-105 -495h-72q11 52 67 116h-54q-19 -33 -39 -60q-54 -70 -133 -70q-65 0 -105.5 42.5t-40.5 114.5zM234 567l79 139h122l-142 -139h-59zM392 567
l79 139h122l-141 -139h-60z" />
    <glyph glyph-name="Uogonek" unicode="&#x172;" horiz-adv-x="714" 
d="M228 -120q0 57 73 106q-97 5 -153.5 57.5t-56.5 147.5q0 37 9 79l91 430h91l-89 -418q-9 -40 -9 -75q0 -135 136 -135q91 0 143 52t74 159l88 417h91l-93 -439q-46 -211 -188 -258q-65 -21 -98 -48t-33 -53q0 -37 53 -37q13 0 41 5l-14 -69q-30 -6 -54 -6q-47 0 -74.5 22
t-27.5 63z" />
    <glyph glyph-name="uogonek" unicode="&#x173;" horiz-adv-x="574" 
d="M316 -98q0 -37 53 -37q13 0 41 5l-14 -69q-30 -6 -54 -6q-47 0 -74.5 22t-27.5 63q0 75 133 141q19 52 60 95h-54q-19 -33 -39 -60q-54 -70 -133 -70q-65 0 -105.5 42.5t-40.5 114.5q0 27 6 56l63 296h86l-64 -302q-5 -23 -5 -38q0 -44 23.5 -69t64.5 -25
q68 0 112.5 60.5t60.5 143.5l49 230h86l-105 -495q-122 -46 -122 -98z" />
    <glyph glyph-name="Wcircumflex" unicode="&#x174;" horiz-adv-x="978" 
d="M150 0l-12 700h92l4 -415q1 -82 -20 -200h41q9 42 25 92q12 38 44 104l208 419h108l22 -415q3 -47 3 -74q0 -65 -11 -126h39q13 62 23 95q14 48 43 111l183 409h99l-326 -700h-122l-21 399q-1 15 -1 34q0 83 17 187h-41q-23 -119 -73 -217l-200 -403h-124zM409 771
l145 122h138l88 -122h-92l-73 74l-107 -74h-99z" />
    <glyph glyph-name="wcircumflex" unicode="&#x175;" horiz-adv-x="818" 
d="M134 0l-57 495h84l23 -247q2 -30 2 -51q0 -55 -9 -117h41q21 89 62 168l128 247h98l23 -247q2 -38 2 -52q0 -49 -9 -116h41q13 73 62 167l130 248h94l-271 -495h-98l-24 244q-3 34 -3 63q0 52 11 113h-41q-16 -86 -64 -176l-129 -244h-96zM302 567l132 122h126l80 -122
h-84l-66 74l-98 -74h-90z" />
    <glyph glyph-name="Ycircumflex" unicode="&#x176;" horiz-adv-x="642" 
d="M225 0l63 295l-166 405h102l86 -223q19 -48 19 -90q0 -20 -4 -40h39q14 77 55 130l174 223h115l-328 -401l-64 -299h-91zM238 771l145 122h138l88 -122h-92l-73 74l-107 -74h-99z" />
    <glyph glyph-name="ycircumflex" unicode="&#x177;" horiz-adv-x="498" 
d="M430 495h95l-314 -571q-40 -74 -72.5 -96.5t-95.5 -22.5h-102l16 78h87q28 0 46 9.5t32 34.5l46 83l-105 485h92l49 -257q6 -33 6 -69q0 -41 -7 -73h46q7 71 43 141zM128 567l132 122h126l80 -122h-84l-66 74l-98 -74h-90z" />
    <glyph glyph-name="Ydieresis" unicode="&#x178;" horiz-adv-x="642" 
d="M225 0l63 295l-166 405h102l86 -223q19 -48 19 -90q0 -20 -4 -40h39q14 77 55 130l174 223h115l-328 -401l-64 -299h-91zM271 771l23 100h103l-23 -100h-103zM479 771l24 100h103l-23 -100h-104z" />
    <glyph glyph-name="Zacute" unicode="&#x179;" horiz-adv-x="617" 
d="M-12 0l27 132l553 502l-25 31q-60 -50 -143 -50h-262l18 85h508l-24 -117l-566 -513l26 -30q61 45 158 45h292l-18 -85h-544zM378 771l86 139h135l-155 -139h-66z" />
    <glyph glyph-name="zacute" unicode="&#x17a;" horiz-adv-x="482" 
d="M-10 0l18 85l359 345l-30 33q-44 -43 -96 -43h-153l16 75h384l-16 -74l-367 -353l29 -31q38 38 107 38h170l-16 -75h-405zM273 567l79 139h122l-141 -139h-60z" />
    <glyph glyph-name="Zdotaccent" unicode="&#x17b;" horiz-adv-x="617" 
d="M-12 0l27 132l553 502l-25 31q-60 -50 -143 -50h-262l18 85h508l-24 -117l-566 -513l26 -30q61 45 158 45h292l-18 -85h-544zM372 771l23 108h89l-23 -108h-89z" />
    <glyph glyph-name="zdotaccent" unicode="&#x17c;" horiz-adv-x="482" 
d="M-10 0l18 85l359 345l-30 33q-44 -43 -96 -43h-153l16 75h384l-16 -74l-367 -353l29 -31q38 38 107 38h170l-16 -75h-405zM265 592l23 108h89l-23 -108h-89z" />
    <glyph glyph-name="Zcaron" unicode="&#x17d;" horiz-adv-x="617" 
d="M-12 0l27 132l553 502l-25 31q-60 -50 -143 -50h-262l18 85h508l-24 -117l-566 -513l26 -30q61 45 158 45h292l-18 -85h-544zM614 893l-145 -122h-138l-89 122h93l72 -74l108 74h99z" />
    <glyph glyph-name="zcaron" unicode="&#x17e;" horiz-adv-x="482" 
d="M-10 0l18 85l359 345l-30 33q-44 -43 -96 -43h-153l16 75h384l-16 -74l-367 -353l29 -31q38 38 107 38h170l-16 -75h-405zM245 567l-80 122h82l66 -74l98 74h92l-132 -122h-126z" />
    <glyph glyph-name="florin" unicode="&#x192;" horiz-adv-x="462" 
d="M-152 -191l17 79q34 -14 68 -14q81 0 121 101l85 219q26 67 43 93q17 29 45 49l-19 34q-36 -20 -82 -20h-57l16 75h143l49 125q34 87 77.5 125.5t117.5 38.5q33 0 69 -9l-18 -82q-30 5 -55 5q-44 0 -64.5 -20t-43.5 -77l-41 -106h123l-16 -75h-136l-150 -385
q-36 -92 -84 -131t-126 -39q-46 0 -82 14z" />
    <glyph glyph-name="uni01E2" unicode="&#x1e2;" horiz-adv-x="911" 
d="M939 615h-318l-43 -202h235l-18 -84h-235l-52 -244h318l-18 -85h-409l42 196h-237l-149 -196h-118l552 700h468zM553 633h-48q-33 -87 -103 -178l-133 -175h190l43 205q19 86 51 148zM551 791l15 67h332l-15 -67h-332z" />
    <glyph glyph-name="uni01E3" unicode="&#x1e3;" horiz-adv-x="856" 
d="M33 123q0 102 97 148q98 48 254 48l4 17q3 14 3 24q0 74 -108 74q-55 0 -91 -26.5t-51 -62.5l-77 38q22 52 80 89t141 37q69 0 109 -27.5t50 -71.5h36q15 37 52.5 68t95.5 31q84 0 134 -54.5t50 -140.5q0 -41 -14 -89h-348q-4 -19 -4 -40q0 -56 31.5 -90.5t85.5 -34.5
q98 0 155 103l73 -38q-78 -139 -228 -139q-67 0 -114 32t-58 79h-37q-16 -36 -55 -75q-37 -36 -117 -36q-64 0 -106.5 35t-42.5 102zM464 293h259q3 13 3 32q0 52 -29 83t-79 31q-49 0 -92 -40t-62 -106zM361 205l11 51q-105 0 -177 -30q-72 -28 -72 -99q0 -30 23.5 -49.5
t62.5 -19.5q54 0 95 37t57 110zM336 593l15 67h302l-15 -67h-302z" />
    <glyph glyph-name="Aringacute" unicode="&#x1fa;" horiz-adv-x="685" 
d="M512 0l-26 189h-307l-107 -189h-106l411 700h129l104 -700h-98zM227 274h248l-28 206q-7 45 -7 90q0 28 3 63h-38q-10 -42 -24 -76q-15 -36 -40 -81zM359 845q0 56 35.5 91t91.5 35q46 0 76.5 -30t30.5 -71q0 -55 -36.5 -90t-89.5 -35q-47 0 -77.5 29.5t-30.5 70.5z
M532 863q0 24 -14 38.5t-37 14.5q-27 0 -44.5 -18.5t-17.5 -45.5q0 -24 13.5 -38t38.5 -14q24 0 42.5 19t18.5 44zM466 989l79 139h122l-141 -139h-60z" />
    <glyph glyph-name="aringacute" unicode="&#x1fb;" horiz-adv-x="537" 
d="M34 123q0 102 97 148q97 48 253 48l2 13q0 3 0.5 7t1 6.5t0.5 5v3.5q0 80 -105 80q-55 0 -91 -26.5t-51 -62.5l-77 38q23 53 80 89.5t140 36.5q90 0 139.5 -39t49.5 -111q0 -23 -6 -49l-43 -206q0 -3 -0.5 -6t-1.5 -5v-2q0 -16 25 -16h50l-16 -75h-44q-66 0 -66 63
q0 18 4 35h-40q-22 -49 -64.5 -80.5t-101.5 -31.5q-58 0 -96.5 35t-38.5 102zM360 205l10 50q-106 0 -177 -31.5t-71 -95.5q0 -33 22.5 -51.5t63.5 -18.5q51 0 95 41t57 106zM203 650q0 56 35.5 91t91.5 35q46 0 76.5 -30t30.5 -71q0 -55 -36.5 -90t-89.5 -35
q-47 0 -77.5 29.5t-30.5 70.5zM376 668q0 24 -14 38.5t-37 14.5q-27 0 -44.5 -18.5t-17.5 -45.5q0 -24 13.5 -38t38.5 -14q24 0 42.5 19t18.5 44zM310 794l79 139h122l-141 -139h-60z" />
    <glyph glyph-name="AEacute" unicode="&#x1fc;" horiz-adv-x="911" 
d="M939 615h-318l-43 -202h235l-18 -84h-235l-52 -244h318l-18 -85h-409l42 196h-237l-149 -196h-118l552 700h468zM553 633h-48q-33 -87 -103 -178l-133 -175h190l43 205q19 86 51 148zM674 771l86 139h135l-155 -139h-66z" />
    <glyph glyph-name="aeacute" unicode="&#x1fd;" horiz-adv-x="856" 
d="M33 123q0 102 97 148q98 48 254 48l4 17q3 14 3 24q0 74 -108 74q-55 0 -91 -26.5t-51 -62.5l-77 38q22 52 80 89t141 37q69 0 109 -27.5t50 -71.5h36q15 37 52.5 68t95.5 31q84 0 134 -54.5t50 -140.5q0 -41 -14 -89h-348q-4 -19 -4 -40q0 -56 31.5 -90.5t85.5 -34.5
q98 0 155 103l73 -38q-78 -139 -228 -139q-67 0 -114 32t-58 79h-37q-16 -36 -55 -75q-37 -36 -117 -36q-64 0 -106.5 35t-42.5 102zM464 293h259q3 13 3 32q0 52 -29 83t-79 31q-49 0 -92 -40t-62 -106zM361 205l11 51q-105 0 -177 -30q-72 -28 -72 -99q0 -30 23.5 -49.5
t62.5 -19.5q54 0 95 37t57 110zM454 567l79 139h122l-141 -139h-60z" />
    <glyph glyph-name="Oslashacute" unicode="&#x1fe;" horiz-adv-x="801" 
d="M90 -19l-58 58l88 86q-45 77 -45 184q-2 103 48 197.5t139 152t192 55.5q121 0 206 -67l78 76l59 -59l-80 -78q54 -81 54 -195q2 -106 -47 -200t-137.5 -150.5t-193.5 -54.5q-134 0 -220 75zM190 192l320 310q51 48 107 55l9 42q-16 9 -71 20q-47 10 -103 10
q-119 3 -202 -96t-81 -229q0 -62 21 -112zM677 392q0 73 -28 129l-334 -323q-51 -48 -108 -55l-9 -42q51 -30 187 -30q125 -3 209.5 94.5t82.5 226.5zM477 771l86 139h135l-155 -139h-66z" />
    <glyph glyph-name="oslashacute" unicode="&#x1ff;" horiz-adv-x="554" 
d="M104 33l-52 -51l-44 45l58 57q-24 44 -24 108q-1 78 32.5 151t97.5 120.5t142 45.5q83 0 136 -50l53 52l43 -44l-58 -57q24 -50 24 -108q2 -124 -75.5 -221t-196.5 -95q-81 0 -136 47zM133 150l191 185q24 22 38.5 30t33.5 8l11 -1l8 37q-41 28 -101 28q-80 0 -132.5 -70
t-52.5 -175q0 -21 4 -42zM425 302q0 21 -4 42l-187 -184q-45 -43 -88 -44l-8 -37q40 -21 94 -21q85 0 139 69t54 175zM295 567l79 139h122l-141 -139h-60z" />
    <glyph glyph-name="uni0218" unicode="&#x218;" horiz-adv-x="595" 
d="M33 186l92 33q9 -69 50 -109.5t114 -40.5q72 0 113 36t41 89q0 42 -27 67t-86 41l-81 24q-136 40 -136 172q0 90 68.5 152.5t169.5 62.5q105 0 163.5 -49.5t73.5 -125.5l-93 -29q-11 48 -44 84q-33 37 -105 37q-61 0 -101.5 -36.5t-40.5 -85.5q0 -41 22 -61.5t80 -38.5
l84 -26q68 -22 110 -67.5t42 -112.5q0 -92 -70 -154t-191 -62q-102 0 -169.5 55t-78.5 145zM146 -310l87 115h-49l23 107h103l-25 -111l-83 -111h-56z" />
    <glyph glyph-name="uni0219" unicode="&#x219;" horiz-adv-x="484" 
d="M15 133l80 18q4 -44 35 -68.5t86 -24.5t86.5 21.5t31.5 58.5q0 28 -17 42.5t-63 28.5l-51 15q-67 20 -96 47.5t-29 83.5q0 65 55 109.5t135 44.5q86 0 134 -38.5t53 -98.5l-81 -18q-4 35 -29 60.5t-77 25.5q-53 0 -80.5 -23.5t-27.5 -52.5q0 -25 14.5 -37t59.5 -26
l51 -15q135 -39 135 -138q0 -76 -55.5 -119t-148.5 -43q-83 0 -141.5 39t-59.5 108zM77 -310l87 115h-49l23 107h103l-25 -111l-83 -111h-56z" />
    <glyph glyph-name="uni021A" unicode="&#x21a;" horiz-adv-x="618" 
d="M207 0l131 615h-247l18 85h594l-18 -85h-256l-131 -615h-91zM124 -310l87 115h-49l23 107h103l-25 -111l-83 -111h-56z" />
    <glyph glyph-name="uni021B" unicode="&#x21b;" horiz-adv-x="395" 
d="M100 100q0 19 4 36l62 287h-114l15 72h114l33 155h86l-33 -155h134l-16 -72h-133l-64 -298q0 -4 -0.5 -7.5t-1 -6t-0.5 -3.5q0 -33 46 -33h112l-16 -75h-104q-61 0 -92.5 26.5t-31.5 73.5zM77 -310l87 115h-49l23 107h103l-25 -111l-83 -111h-56z" />
    <glyph glyph-name="uni0226" unicode="&#x226;" horiz-adv-x="685" 
d="M512 0l-26 189h-307l-107 -189h-106l411 700h129l104 -700h-98zM227 274h248l-28 206q-7 45 -7 90q0 28 3 63h-38q-10 -42 -24 -76q-15 -36 -40 -81zM416 771l23 108h89l-23 -108h-89z" />
    <glyph glyph-name="uni0227" unicode="&#x227;" horiz-adv-x="537" 
d="M34 123q0 102 97 148q97 48 253 48l2 13q0 3 0.5 7t1 6.5t0.5 5v3.5q0 80 -105 80q-55 0 -91 -26.5t-51 -62.5l-77 38q23 53 80 89.5t140 36.5q90 0 139.5 -39t49.5 -111q0 -23 -6 -49l-43 -206q0 -3 -0.5 -6t-1.5 -5v-2q0 -16 25 -16h50l-16 -75h-44q-66 0 -66 63
q0 18 4 35h-40q-22 -49 -64.5 -80.5t-101.5 -31.5q-58 0 -96.5 35t-38.5 102zM360 205l10 50q-106 0 -177 -31.5t-71 -95.5q0 -33 22.5 -51.5t63.5 -18.5q51 0 95 41t57 106zM271 592l23 108h89l-23 -108h-89z" />
    <glyph glyph-name="uni0232" unicode="&#x232;" horiz-adv-x="642" 
d="M225 0l63 295l-166 405h102l86 -223q19 -48 19 -90q0 -20 -4 -40h39q14 77 55 130l174 223h115l-328 -401l-64 -299h-91zM270 791l15 67h332l-15 -67h-332z" />
    <glyph glyph-name="uni0233" unicode="&#x233;" horiz-adv-x="498" 
d="M430 495h95l-314 -571q-40 -74 -72.5 -96.5t-95.5 -22.5h-102l16 78h87q28 0 46 9.5t32 34.5l46 83l-105 485h92l49 -257q6 -33 6 -69q0 -41 -7 -73h46q7 71 43 141zM155 593l15 67h302l-15 -67h-302z" />
    <glyph glyph-name="uni0237" unicode="&#x237;" horiz-adv-x="262" 
d="M-130 -195l16 78h80q50 0 60 50l119 562h86l-121 -570q-14 -66 -44.5 -93t-96.5 -27h-99z" />
    <glyph glyph-name="circumflex" unicode="&#x2c6;" horiz-adv-x="349" 
d="M-23 567l132 122h126l80 -122h-84l-66 74l-98 -74h-90z" />
    <glyph glyph-name="caron" unicode="&#x2c7;" horiz-adv-x="349" 
d="M73 567l-80 122h82l66 -74l98 74h92l-132 -122h-126z" />
    <glyph glyph-name="breve" unicode="&#x2d8;" horiz-adv-x="349" 
d="M36 666q0 10 3 23h68v-9q0 -58 60 -58q65 0 86 67h77q-13 -56 -54.5 -94t-108.5 -38q-64 0 -97.5 31t-33.5 78z" />
    <glyph glyph-name="dotaccent" unicode="&#x2d9;" horiz-adv-x="313" 
d="M75 592l23 108h89l-23 -108h-89z" />
    <glyph glyph-name="ring" unicode="&#x2da;" horiz-adv-x="349" 
d="M59 650q0 56 35.5 91t91.5 35q46 0 76.5 -30t30.5 -71q0 -55 -36.5 -90t-89.5 -35q-47 0 -77.5 29.5t-30.5 70.5zM232 668q0 24 -14 38.5t-37 14.5q-27 0 -44.5 -18.5t-17.5 -45.5q0 -24 13.5 -38t38.5 -14q24 0 42.5 19t18.5 44z" />
    <glyph glyph-name="ogonek" unicode="&#x2db;" horiz-adv-x="349" 
d="M36 -120q0 45 41 81.5t124 75.5l33 -37q-122 -46 -122 -98q0 -37 53 -37q13 0 41 5l-14 -69q-30 -6 -54 -6q-47 0 -74.5 22t-27.5 63z" />
    <glyph glyph-name="tilde" unicode="&#x2dc;" horiz-adv-x="349" 
d="M195 598l-26 19q-23 17 -41 17t-31.5 -14t-18.5 -38h-72q28 121 120 121q40 0 72 -24l26 -18q24 -18 38 -18q35 0 50 46h74q-24 -118 -119 -118q-35 0 -72 27z" />
    <glyph glyph-name="hungarumlaut" unicode="&#x2dd;" horiz-adv-x="682" 
d="M137 567l79 139h122l-142 -139h-59zM295 567l79 139h122l-141 -139h-60z" />
    <glyph glyph-name="gravecomb" unicode="&#x300;" horiz-adv-x="0" 
d="M-92 567l-79 139h108l20 -139h-49z" />
    <glyph glyph-name="acutecomb" unicode="&#x301;" horiz-adv-x="0" 
d="M-209 567l79 139h122l-141 -139h-60z" />
    <glyph glyph-name="uni0302" unicode="&#x302;" horiz-adv-x="0" 
d="M-398 567l132 122h126l80 -122h-84l-66 74l-98 -74h-90z" />
    <glyph glyph-name="tildecomb" unicode="&#x303;" horiz-adv-x="0" 
d="M-202 598l-26 19q-23 17 -41 17t-31.5 -14t-18.5 -38h-72q28 121 120 121q40 0 72 -24l26 -18q24 -18 38 -18q35 0 50 46h74q-24 -118 -119 -118q-34 0 -72 27z" />
    <glyph glyph-name="uni0304" unicode="&#x304;" horiz-adv-x="0" 
d="M-350 593l15 67h302l-15 -67h-302z" />
    <glyph glyph-name="uni0306" unicode="&#x306;" horiz-adv-x="0" 
d="M-326 666q0 10 3 23h68v-9q0 -58 60 -58q65 0 86 67h77q-13 -56 -54.5 -94t-108.5 -38q-64 0 -97.5 31t-33.5 78z" />
    <glyph glyph-name="uni0307" unicode="&#x307;" horiz-adv-x="0" 
d="M-124 592l23 108h89l-23 -108h-89z" />
    <glyph glyph-name="uni0308" unicode="&#x308;" horiz-adv-x="0" 
d="M-335 589l21 100h94l-21 -100h-94zM-145 589l21 100h94l-21 -100h-94z" />
    <glyph glyph-name="uni030A" unicode="&#x30a;" horiz-adv-x="0" 
d="M-253 650q0 56 35.5 91t91.5 35q46 0 76.5 -30t30.5 -71q0 -55 -36.5 -90t-89.5 -35q-47 0 -77.5 29.5t-30.5 70.5zM-80 668q0 24 -14 38.5t-37 14.5q-27 0 -44.5 -18.5t-17.5 -45.5q0 -24 13.5 -38t38.5 -14q24 0 42.5 19t18.5 44z" />
    <glyph glyph-name="uni030B" unicode="&#x30b;" horiz-adv-x="0" 
d="M-385 567l79 139h122l-142 -139h-59zM-227 567l79 139h122l-141 -139h-60z" />
    <glyph glyph-name="uni030C" unicode="&#x30c;" horiz-adv-x="0" 
d="M-310 567l-80 122h82l66 -74l98 74h92l-132 -122h-126z" />
    <glyph glyph-name="uni0312" unicode="&#x312;" horiz-adv-x="0" 
d="M75 813l-87 -115h50l-23 -107h-103l24 111l83 111h56z" />
    <glyph glyph-name="dotbelowcomb" unicode="&#x323;" horiz-adv-x="0" 
d="M-204 -195l23 108h89l-23 -108h-89z" />
    <glyph glyph-name="uni0326" unicode="&#x326;" horiz-adv-x="0" 
d="M-260 -310l87 115h-49l23 107h103l-25 -111l-83 -111h-56z" />
    <glyph glyph-name="uni0327" unicode="&#x327;" horiz-adv-x="0" 
d="M-262 -167l40 46q25 -34 67 -34q54 0 54 34q0 13 -12 21.5t-33 8.5q-22 0 -35 -5l-22 39l88 76l42 -19l-32 -26q-12 -11 -29 -24q3 1 12 1q36 0 61 -21t25 -53q0 -42 -32 -66t-87 -24q-73 0 -107 46z" />
    <glyph glyph-name="uni0328" unicode="&#x328;" horiz-adv-x="0" 
d="M-223 -120q0 45 41 81.5t124 75.5l33 -37q-122 -46 -122 -98q0 -37 53 -37q13 0 41 5l-14 -69q-30 -6 -54 -6q-47 0 -74.5 22t-27.5 63z" />
    <glyph glyph-name="uni0394" unicode="&#x394;" horiz-adv-x="685" 
d="M506 700l104 -700h-644l411 700h129zM120 85h380l-53 395q-7 45 -7 90q0 28 3 63h-38q-10 -42 -24 -76q-15 -36 -40 -81z" />
    <glyph glyph-name="uni03A9" unicode="&#x3a9;" horiz-adv-x="820" 
d="M22 0l18 85h55q63 0 134 -30l14 37q-81 31 -118 86.5t-37 146.5q-2 97 45.5 187t134.5 147t191 55q138 0 223.5 -79t85.5 -211q0 -122 -72 -210.5t-201 -126.5l14 -39q80 37 132 37h59l-18 -85h-284l23 107q104 15 178.5 109.5t72.5 199.5q0 97 -57.5 155t-157.5 58
q-116 2 -195 -93.5t-77 -225.5q0 -81 34.5 -134.5t104.5 -68.5l-23 -107h-279z" />
    <glyph glyph-name="uni03BC" unicode="&#x3bc;" horiz-adv-x="581" 
d="M-9 -195l146 690h86l-64 -302q-4 -19 -4 -39q0 -43 23.5 -68t63.5 -25q68 0 112.5 60.5t60.5 143.5l49 230h86l-105 -495h-72q11 54 67 116h-54q-26 -43 -40 -61q-52 -69 -132 -69q-54 0 -93 31l-45 -212h-85z" />
    <glyph glyph-name="pi" unicode="&#x3c0;" horiz-adv-x="623" 
d="M68 0l90 420h-104l16 75h555l-16 -75h-104l-63 -296q-2 -10 -2 -18q0 -31 43 -31h65l-16 -75h-66q-54 0 -83 24.5t-29 67.5q0 15 3 30l64 298h-176l-92 -420h-85z" />
    <glyph glyph-name="Wgrave" unicode="&#x1e80;" horiz-adv-x="978" 
d="M150 0l-12 700h92l4 -415q1 -82 -20 -200h41q9 42 25 92q12 38 44 104l208 419h108l22 -415q3 -47 3 -74q0 -65 -11 -126h39q13 62 23 95q14 48 43 111l183 409h99l-326 -700h-122l-21 399q-1 15 -1 34q0 83 17 187h-41q-23 -119 -73 -217l-200 -403h-124zM567 771
l-86 139h118l22 -139h-54z" />
    <glyph glyph-name="wgrave" unicode="&#x1e81;" horiz-adv-x="818" 
d="M134 0l-57 495h84l23 -247q2 -30 2 -51q0 -55 -9 -117h41q21 89 62 168l128 247h98l23 -247q2 -38 2 -52q0 -49 -9 -116h41q13 73 62 167l130 248h94l-271 -495h-98l-24 244q-3 34 -3 63q0 52 11 113h-41q-16 -86 -64 -176l-129 -244h-96zM441 567l-79 139h108l20 -139
h-49z" />
    <glyph glyph-name="Wacute" unicode="&#x1e82;" horiz-adv-x="978" 
d="M150 0l-12 700h92l4 -415q1 -82 -20 -200h41q9 42 25 92q12 38 44 104l208 419h108l22 -415q3 -47 3 -74q0 -65 -11 -126h39q13 62 23 95q14 48 43 111l183 409h99l-326 -700h-122l-21 399q-1 15 -1 34q0 83 17 187h-41q-23 -119 -73 -217l-200 -403h-124zM564 771
l86 139h135l-155 -139h-66z" />
    <glyph glyph-name="wacute" unicode="&#x1e83;" horiz-adv-x="818" 
d="M134 0l-57 495h84l23 -247q2 -30 2 -51q0 -55 -9 -117h41q21 89 62 168l128 247h98l23 -247q2 -38 2 -52q0 -49 -9 -116h41q13 73 62 167l130 248h94l-271 -495h-98l-24 244q-3 34 -3 63q0 52 11 113h-41q-16 -86 -64 -176l-129 -244h-96zM443 567l79 139h122l-141 -139
h-60z" />
    <glyph glyph-name="Wdieresis" unicode="&#x1e84;" horiz-adv-x="978" 
d="M150 0l-12 700h92l4 -415q1 -82 -20 -200h41q9 42 25 92q12 38 44 104l208 419h108l22 -415q3 -47 3 -74q0 -65 -11 -126h39q13 62 23 95q14 48 43 111l183 409h99l-326 -700h-122l-21 399q-1 15 -1 34q0 83 17 187h-41q-23 -119 -73 -217l-200 -403h-124zM442 771
l23 100h103l-23 -100h-103zM650 771l24 100h103l-23 -100h-104z" />
    <glyph glyph-name="wdieresis" unicode="&#x1e85;" horiz-adv-x="818" 
d="M134 0l-57 495h84l23 -247q2 -30 2 -51q0 -55 -9 -117h41q21 89 62 168l128 247h98l23 -247q2 -38 2 -52q0 -49 -9 -116h41q13 73 62 167l130 248h94l-271 -495h-98l-24 244q-3 34 -3 63q0 52 11 113h-41q-16 -86 -64 -176l-129 -244h-96zM337 589l21 100h94l-21 -100
h-94zM527 589l21 100h94l-21 -100h-94z" />
    <glyph glyph-name="uni1E9E" unicode="&#x1e9e;" horiz-adv-x="715" 
d="M213 24l18 86q70 -40 152 -40q80 0 126 39.5t46 99.5q0 50 -38 80.5t-99 30.5h-119l18 85h106q70 0 111 32.5t41 87.5q0 44 -30 67t-85 23h-186l-131 -615h-91l149 700h278q85 0 137.5 -43t52.5 -114q0 -67 -42 -110.5t-114 -47.5l-8 -39q66 -6 107 -47t41 -101
q0 -88 -71 -150t-197 -62q-117 0 -172 38z" />
    <glyph glyph-name="uni1EA0" unicode="&#x1ea0;" horiz-adv-x="685" 
d="M512 0l-26 189h-307l-107 -189h-106l411 700h129l104 -700h-98zM227 274h248l-28 206q-7 45 -7 90q0 28 3 63h-38q-10 -42 -24 -76q-15 -36 -40 -81zM207 -195l23 108h89l-23 -108h-89z" />
    <glyph glyph-name="uni1EA1" unicode="&#x1ea1;" horiz-adv-x="537" 
d="M34 123q0 102 97 148q97 48 253 48l2 13q0 3 0.5 7t1 6.5t0.5 5v3.5q0 80 -105 80q-55 0 -91 -26.5t-51 -62.5l-77 38q23 53 80 89.5t140 36.5q90 0 139.5 -39t49.5 -111q0 -23 -6 -49l-43 -206q0 -3 -0.5 -6t-1.5 -5v-2q0 -16 25 -16h50l-16 -75h-44q-66 0 -66 63
q0 18 4 35h-40q-22 -49 -64.5 -80.5t-101.5 -31.5q-58 0 -96.5 35t-38.5 102zM360 205l10 50q-106 0 -177 -31.5t-71 -95.5q0 -33 22.5 -51.5t63.5 -18.5q51 0 95 41t57 106zM132 -195l23 108h89l-23 -108h-89z" />
    <glyph glyph-name="uni1EB8" unicode="&#x1eb8;" horiz-adv-x="638" 
d="M52 0l149 700h484l-18 -85h-393l-45 -210h290l-18 -84h-290l-50 -236h393l-18 -85h-484zM210 -195l23 108h89l-23 -108h-89z" />
    <glyph glyph-name="uni1EB9" unicode="&#x1eb9;" horiz-adv-x="534" 
d="M43 195q-2 74 30 146.5t93.5 121t134.5 46.5q88 0 138 -54t50 -141q0 -46 -13 -89h-347q-4 -19 -4 -40q0 -56 31.5 -90.5t85.5 -34.5q98 0 155 103l73 -38q-78 -139 -231 -139q-88 0 -142 54t-54 155zM143 296h259q2 22 2 30q0 51 -29 82t-79 31q-49 0 -92 -39t-61 -104z
M145 -195l23 108h89l-23 -108h-89z" />
    <glyph glyph-name="uni1ECA" unicode="&#x1eca;" horiz-adv-x="299" 
d="M52 0l149 700h91l-149 -700h-91zM12 -195l23 108h89l-23 -108h-89z" />
    <glyph glyph-name="uni1ECB" unicode="&#x1ecb;" horiz-adv-x="255" 
d="M157 592l23 108h89l-23 -108h-89zM33 0l105 495h86l-105 -495h-86zM-10 -195l23 108h89l-23 -108h-89z" />
    <glyph glyph-name="uni1ECC" unicode="&#x1ecc;" horiz-adv-x="800" 
d="M74 309q-2 103 48 197.5t139 152t192 55.5q139 0 228 -86t89 -237q2 -106 -47 -200t-137.5 -150.5t-193.5 -54.5q-141 0 -229.5 84.5t-88.5 238.5zM676 392q0 108 -59 172.5t-166 64.5q-119 3 -202 -96t-81 -229q0 -107 59 -170t165 -63q119 -3 202.5 95.5t81.5 225.5z
M263 -195l23 108h89l-23 -108h-89z" />
    <glyph glyph-name="uni1ECD" unicode="&#x1ecd;" horiz-adv-x="553" 
d="M42 192q-1 78 32.5 151t97.5 120.5t142 45.5q89 0 143.5 -57.5t54.5 -149.5q2 -124 -75.5 -221t-196.5 -95q-90 0 -144 56.5t-54 149.5zM425 302q0 64 -32.5 98t-85.5 34q-81 2 -130 -73.5t-48 -168.5q0 -64 31.5 -97.5t86.5 -33.5q82 0 130 73t48 168zM143 -195l23 108
h89l-23 -108h-89z" />
    <glyph glyph-name="uni1EE4" unicode="&#x1ee4;" horiz-adv-x="714" 
d="M91 191q0 35 9 79l91 430h91l-89 -418q-9 -40 -9 -75q0 -135 136 -135q91 0 143 52t74 159l88 417h91l-93 -439q-31 -141 -102.5 -208t-200.5 -67q-105 0 -167 53t-62 152zM222 -195l23 108h89l-23 -108h-89z" />
    <glyph glyph-name="uni1EE5" unicode="&#x1ee5;" horiz-adv-x="574" 
d="M61 143q0 27 6 56l63 296h86l-64 -302q-5 -23 -5 -38q0 -44 23.5 -69t64.5 -25q68 0 112.5 60.5t60.5 143.5l49 230h86l-105 -495h-72q11 52 67 116h-54q-19 -33 -39 -60q-54 -70 -133 -70q-65 0 -105.5 42.5t-40.5 114.5zM147 -195l23 108h89l-23 -108h-89z" />
    <glyph glyph-name="Ygrave" unicode="&#x1ef2;" horiz-adv-x="642" 
d="M225 0l63 295l-166 405h102l86 -223q19 -48 19 -90q0 -20 -4 -40h39q14 77 55 130l174 223h115l-328 -401l-64 -299h-91zM404 771l-86 139h118l22 -139h-54z" />
    <glyph glyph-name="ygrave" unicode="&#x1ef3;" horiz-adv-x="498" 
d="M430 495h95l-314 -571q-40 -74 -72.5 -96.5t-95.5 -22.5h-102l16 78h87q28 0 46 9.5t32 34.5l46 83l-105 485h92l49 -257q6 -33 6 -69q0 -41 -7 -73h46q7 71 43 141zM277 567l-79 139h108l20 -139h-49z" />
    <glyph glyph-name="uni2002" unicode="&#x2002;" horiz-adv-x="500" 
 />
    <glyph glyph-name="uni2003" unicode="&#x2003;" horiz-adv-x="1000" 
 />
    <glyph glyph-name="uni2009" unicode="&#x2009;" horiz-adv-x="125" 
 />
    <glyph glyph-name="endash" unicode="&#x2013;" horiz-adv-x="625" 
d="M79 268l18 80h474l-18 -80h-474z" />
    <glyph glyph-name="emdash" unicode="&#x2014;" horiz-adv-x="952" 
d="M79 268l18 80h801l-18 -80h-801z" />
    <glyph glyph-name="quoteleft" unicode="&#x2018;" horiz-adv-x="252" 
d="M288 700l-96 -128h54l-24 -119h-113l26 124l91 123h62z" />
    <glyph glyph-name="quoteright" unicode="&#x2019;" horiz-adv-x="245" 
d="M106 454l95 128h-53l24 119h113l-26 -124l-91 -123h-62z" />
    <glyph glyph-name="quotesinglbase" unicode="&#x201a;" horiz-adv-x="258" 
d="M-12 -128l95 128h-53l24 119h113l-26 -124l-91 -123h-62z" />
    <glyph glyph-name="quotedblleft" unicode="&#x201c;" horiz-adv-x="431" 
d="M288 700l-96 -128h54l-24 -119h-113l26 124l91 123h62zM467 700l-95 -128h53l-24 -119h-113l26 124l91 123h62z" />
    <glyph glyph-name="quotedblright" unicode="&#x201d;" horiz-adv-x="424" 
d="M106 454l95 128h-53l24 119h113l-26 -124l-91 -123h-62zM285 454l95 128h-53l24 119h113l-26 -124l-91 -123h-62z" />
    <glyph glyph-name="quotedblbase" unicode="&#x201e;" horiz-adv-x="437" 
d="M-12 -128l95 128h-53l24 119h113l-26 -124l-91 -123h-62zM167 -128l95 128h-53l24 119h113l-26 -124l-91 -123h-62z" />
    <glyph glyph-name="dagger" unicode="&#x2020;" horiz-adv-x="572" 
d="M281 -105v515h-200v85h200v205h90v-205h200v-85h-200v-515h-90z" />
    <glyph glyph-name="daggerdbl" unicode="&#x2021;" horiz-adv-x="641" 
d="M287 -105v205h-200v85h200v225h-200v85h200v205h90v-205h200v-85h-200v-225h200v-85h-200v-205h-90z" />
    <glyph glyph-name="bullet" unicode="&#x2022;" horiz-adv-x="525" 
d="M98 349q0 77 55 132t131 55t131 -55t55 -132q0 -74 -55 -129t-131 -55t-131 55t-55 129z" />
    <glyph glyph-name="ellipsis" unicode="&#x2026;" horiz-adv-x="719" 
d="M24 0l27 125h119l-27 -125h-119zM254 0l27 125h119l-27 -125h-119zM484 0l27 125h119l-27 -125h-119z" />
    <glyph glyph-name="perthousand" unicode="&#x2030;" horiz-adv-x="1184" 
d="M89 458q0 106 55 178t136 72q66 0 106 -45.5t40 -121.5q0 -106 -54 -176.5t-136 -70.5q-69 0 -108 43.5t-39 120.5zM757 700h100l-637 -700h-101zM168 457q0 -98 71 -98q44 0 76.5 55t32.5 128q0 47 -18.5 74t-52.5 27q-43 0 -76 -56t-33 -130zM1140 243
q0 -106 -54 -176.5t-136 -70.5q-84 0 -123 64q-52 -64 -132 -64q-69 0 -108 43.5t-39 120.5q0 106 55 178t136 72q83 0 122 -67q55 67 133 67q66 0 106 -45.5t40 -121.5zM807 244q0 48 -18.5 74.5t-52.5 26.5q-43 0 -76 -56t-33 -130q0 -98 71 -98q44 0 76.5 55t32.5 128z
M1062 244q0 48 -19 74.5t-52 26.5q-44 0 -76.5 -56t-32.5 -130q0 -98 71 -98q44 0 76.5 55t32.5 128z" />
    <glyph glyph-name="guilsinglleft" unicode="&#x2039;" horiz-adv-x="320" 
d="M321 466l-184 -222l82 -204h-85l-86 213l176 213h97z" />
    <glyph glyph-name="guilsinglright" unicode="&#x203a;" horiz-adv-x="320" 
d="M190 466l86 -213l-176 -213h-97l184 222l-82 204h85z" />
    <glyph glyph-name="fraction" unicode="&#x2044;" horiz-adv-x="180" 
d="M-259 0l638 700h100l-637 -700h-101z" />
    <glyph glyph-name="uni2070" unicode="&#x2070;" horiz-adv-x="424" 
d="M117 549q0 106 55 178t136 72q66 0 106 -45.5t40 -121.5q0 -106 -54 -176.5t-136 -70.5q-69 0 -108 43.5t-39 120.5zM376 633q0 47 -19 74t-52 27q-44 0 -76.5 -56t-32.5 -130q0 -98 71 -98q44 0 76.5 55t32.5 128z" />
    <glyph glyph-name="uni2074" unicode="&#x2074;" horiz-adv-x="378" 
d="M247 393l22 105h-183l14 66l200 227h104l-49 -231h54l-13 -62h-55l-22 -105h-72zM283 560l11 54q11 47 56 91l-23 21l-156 -175l21 -21q30 30 76 30h15z" />
    <glyph glyph-name="uni2075" unicode="&#x2075;" horiz-adv-x="378" 
d="M97 498l77 17q1 -30 18.5 -48t46.5 -18q32 0 53.5 23.5t21.5 57.5q0 26 -16 42t-40 16q-45 0 -68 -44l-77 19l76 228h244l-13 -66h-179l-13 -39q-18 -58 -55 -89h40q28 53 78 53q45 0 73.5 -32t28.5 -83q0 -66 -42 -108t-111 -42q-61 0 -99.5 31t-43.5 82z" />
    <glyph glyph-name="uni2076" unicode="&#x2076;" horiz-adv-x="392" 
d="M115 545q0 112 63 183t162 71q56 0 100 -20l-14 -67q-51 19 -89 19q-58 0 -103 -33t-56 -101h29q23 60 88 60q48 0 82 -33.5t34 -83.5q0 -66 -44.5 -110.5t-109.5 -44.5q-68 0 -105 42t-37 118zM331 533q0 61 -58 61q-30 0 -52.5 -25t-22.5 -59q0 -28 15.5 -44.5
t41.5 -16.5q31 0 53.5 24.5t22.5 59.5z" />
    <glyph glyph-name="uni2077" unicode="&#x2077;" horiz-adv-x="337" 
d="M326 725l14 8l-17 28q-50 -36 -107 -36h-84l14 66h280l-14 -66q-99 -70 -141.5 -142.5t-54.5 -189.5h-85q11 109 62 195.5t133 136.5z" />
    <glyph glyph-name="uni2078" unicode="&#x2078;" horiz-adv-x="382" 
d="M101 493q0 38 33 65.5t79 27.5l7 31q-35 2 -53 19.5t-18 43.5q0 51 40.5 85t103.5 34q55 0 90.5 -29.5t35.5 -74.5q0 -34 -25.5 -58t-71.5 -23l-7 -30q35 -5 56 -26t21 -50q0 -53 -43.5 -88t-109.5 -35q-62 0 -100 30t-38 78zM341 688q0 22 -14 34.5t-38 12.5
q-27 0 -44.5 -16.5t-17.5 -42.5q0 -22 13.5 -34.5t37.5 -12.5q28 0 45.5 16.5t17.5 42.5zM313 515q0 25 -16 39.5t-44 14.5q-31 0 -51.5 -19t-20.5 -48q0 -25 16 -39t44 -14q32 0 52 18.5t20 47.5z" />
    <glyph glyph-name="uni2079" unicode="&#x2079;" horiz-adv-x="388" 
d="M99 406l14 69q40 -21 87 -21q65 0 107 42q35 35 44 95h-30q-9 -27 -31 -42.5t-52 -15.5q-47 0 -77.5 33.5t-30.5 85.5q0 64 41 105.5t106 41.5q60 0 98 -38q44 -44 44 -129q0 -112 -59 -179.5t-157 -67.5q-61 0 -104 21zM336 671q0 29 -16 46.5t-43 17.5
q-28 0 -47.5 -22.5t-19.5 -54.5q0 -29 15 -45.5t41 -16.5q29 0 49.5 22t20.5 53z" />
    <glyph glyph-name="uni20A9" unicode="&#x20a9;" horiz-adv-x="1053" 
d="M1076 700l-113 -242h93l-15 -70h-110l-35 -75h100l-15 -70h-118l-113 -243h-122l-13 243h-185l-121 -243h-124l-4 243h-114l15 70h98l-2 75h-110l15 70h94l-4 242h89l3 -242h180l119 242h110l13 -242h180l109 242h100zM534 458h72q3 72 17 162h-41q-16 -82 -48 -162z
M266 388l1 -75h107l37 75h-145zM464 313h147l-4 75h-106zM801 313l34 75h-145l4 -75h107zM340 243h-73q-5 -71 -18 -158h41q19 87 50 158zM728 85l3 18q13 59 16 70q7 29 24 70h-73v-37q0 -67 -9 -121h39z" />
    <glyph glyph-name="Euro" unicode="&#x20ac;" horiz-adv-x="697" 
d="M141 238h-101l16 75h86q0 16 4 41q4 23 10 42h-82l16 75h89q43 109 121 176t176 67q61 0 106.5 -17t71.5 -47t39 -63.5t15 -72.5l-93 -19q-3 29 -9 49t-20 42t-41.5 34t-68.5 13q-136 0 -233 -181l29 -21q18 22 43 31t74 9h114l-15 -75h-247q-15 -43 -15 -83h244l-16 -75
h-106q-34 0 -57 6.5t-32 13t-24 21.5l-29 -21q16 -91 60 -140.5t113 -49.5q59 0 105 41t68 104l83 -34q-29 -83 -94.5 -138t-161.5 -55q-109 0 -170.5 67t-67.5 185z" />
    <glyph glyph-name="uni20B9" unicode="&#x20b9;" horiz-adv-x="565" 
d="M443 647l-22 -36q34 -18 53 -51h111l-16 -76h-82q-16 -125 -196 -133l-8 -40q74 -1 100.5 -30.5t31.5 -103.5l12 -177h-99l-7 169q-3 67 -36.5 95.5t-110.5 28.5h-108l18 84h149q68 0 111.5 27.5t55.5 79.5h-293l16 76h276q-24 65 -132 65h-131l16 75h463l-16 -75h-52
q-72 0 -104 22z" />
    <glyph glyph-name="uni20BA" unicode="&#x20ba;" horiz-adv-x="618" 
d="M101 0l31 145q15 63 54 114l-33 21q-28 -48 -61 -64l-39 -20l20 92l100 52l13 63l-101 -52l19 91l102 52l43 206h91l-14 -67q-11 -54 -49 -100l33 -21q38 56 92 84l157 83l-20 -94l-251 -131l-13 -60l252 131l-20 -93l-253 -132l-44 -215h22q30 0 67.5 10.5t77.5 32
t73 60.5t46 89l88 -38q-29 -93 -127 -167t-233 -72h-123z" />
    <glyph glyph-name="uni20BD" unicode="&#x20bd;" horiz-adv-x="631" 
d="M376 278h-149l-15 -70h213l-16 -75h-213l-28 -133h-91l28 133h-76l15 75h78l14 70h-76l17 80h76l73 342h185q109 0 169 -52.5t60 -141.5q0 -100 -73 -164t-191 -64zM299 615l-55 -257h129q80 0 126.5 41t46.5 107q0 50 -36.5 79.5t-101.5 29.5h-109z" />
    <glyph glyph-name="uni20BF" unicode="&#x20bf;" horiz-adv-x="675" 
d="M622 209q0 -84 -68.5 -146t-177.5 -63l-22 -105h-75l22 105h-61l-22 -105h-75l23 105h-114l149 700h112l23 105h75l-22 -105h61l22 105h75l-24 -112q58 -15 92 -54t34 -93q0 -67 -42.5 -109.5t-120.5 -51.5l-8 -38q68 -5 106 -41t38 -97zM274 615l-45 -210h174
q70 0 111 33.5t41 89.5q0 87 -115 87h-166zM527 220q0 48 -33.5 74.5t-91.5 26.5h-190l-51 -236h206q72 0 116 37.5t44 97.5z" />
    <glyph glyph-name="uni2113" unicode="&#x2113;" horiz-adv-x="481" 
d="M79 108q0 19 4 38l12 55q-48 -5 -71 -5l16 76q41 2 72 8l61 281q15 68 56 110.5t105 42.5q73 0 118 -45.5t45 -122.5q0 -109 -85.5 -197.5t-220.5 -128.5l-15 -74q-3 -16 -3 -29q0 -51 51 -51q70 0 99 95l84 -42q-21 -65 -69 -99t-112 -34q-67 0 -107 32t-40 90zM403 545
q0 89 -66 89q-59 0 -77 -83l-26 -122q-10 -49 -26 -77.5t-48 -54.5l19 -29q106 46 165 120.5t59 156.5z" />
    <glyph glyph-name="uni2116" unicode="&#x2116;" horiz-adv-x="1191" 
d="M57 0l149 700h134l250 -589l37 14q-14 42 -14 85q0 46 12 100l83 390h91l-149 -700h-109l-262 619l-38 -15q10 -33 10 -75q0 -49 -16 -120l-87 -409h-91zM818 467q-2 93 58 169t155 74q77 0 126 -51t49 -132q0 -98 -57.5 -168t-155.5 -70q-79 0 -127 48.5t-48 129.5z
M1120 534q0 50 -25.5 79t-65.5 29q-56 0 -90.5 -55.5t-34.5 -126.5q0 -50 24.5 -76.5t66.5 -26.5q59 0 92 50.5t33 126.5z" />
    <glyph glyph-name="uni2117" unicode="&#x2117;" horiz-adv-x="890" 
d="M81 360q-3 155 114 271.5t275 113.5q159 3 275 -113.5t113 -271.5q3 -156 -113 -271.5t-275 -112.5q-159 -3 -275.5 112.5t-113.5 271.5zM788 360q2 131 -92 227t-226 93q-132 3 -226.5 -93t-92.5 -227q-2 -130 92.5 -225.5t226.5 -93.5q132 -2 226 93.5t92 225.5z
M348 166v401h162q57 0 100.5 -33t43.5 -94t-44 -94t-100 -33h-96v-147h-66zM414 370h78q94 0 94 70q0 67 -94 67h-78v-137z" />
    <glyph glyph-name="trademark" unicode="&#x2122;" horiz-adv-x="907" 
d="M172 323l67 311h-122l14 66h317l-14 -66h-123l-67 -311h-72zM417 323l81 377h112l22 -186q2 -24 2 -41q0 -28 -7 -79h33q14 71 40 120l100 186h117l-81 -377h-73l33 150q14 62 74 157l-32 16l-9 -17l-167 -306h-67l-40 307l-2 15l-34 -5q10 -40 10 -85q0 -44 -10 -91
l-30 -141h-72z" />
    <glyph glyph-name="Omega" unicode="&#x2126;" horiz-adv-x="840" 
d="M106 0v85h49q45 0 140 -34l13 38q-214 61 -214 281q-2 145 98 245.5t240 98.5q140 2 239 -98.5t97 -245.5q0 -220 -214 -281l13 -38q93 34 140 34h49v-85h-278v107q90 15 142 87t52 176q0 109 -66.5 184t-174.5 75t-174.5 -75t-66.5 -184q0 -104 51 -175.5t140 -87.5
v-107h-275z" />
    <glyph glyph-name="onethird" unicode="&#x2153;" horiz-adv-x="815" 
d="M150 302l50 230q10 51 32 84h-32q-39 -67 -100 -71l15 70q33 1 69 24t64 61h63l-85 -398h-76zM28 0l638 700h100l-637 -700h-101zM464 114v12l80 12q-1 -7 -1 -16q0 -66 59 -66q28 0 47 19t19 46q0 50 -58 50h-36l13 62h37q33 0 52.5 17t19.5 47q0 20 -13 32.5t-34 12.5
q-55 0 -66 -71l-78 17q7 53 47.5 85.5t99.5 32.5q53 0 87.5 -27.5t34.5 -69.5q0 -41 -27 -65.5t-75 -24.5l-6 -30q36 -2 58 -24t22 -53q0 -50 -42 -85t-104 -35q-63 0 -99.5 33t-36.5 89z" />
    <glyph glyph-name="twothirds" unicode="&#x2154;" horiz-adv-x="907" 
d="M78 302l17 82q124 67 171.5 107.5t50.5 91.5q0 28 -15 44t-42 16q-29 0 -46.5 -24.5t-17.5 -65.5l-80 18q6 64 45.5 100.5t102.5 36.5q57 0 94.5 -34.5t37.5 -86.5q0 -68 -60 -122q-38 -33 -134 -76l-42 -20l16 -29q46 28 106 28h75l-14 -66h-265zM122 0l638 700h100
l-637 -700h-101zM558 114v12l80 12q-1 -7 -1 -16q0 -66 59 -66q28 0 47 19t19 46q0 50 -58 50h-36l13 62h37q33 0 52.5 17t19.5 47q0 20 -13 32.5t-34 12.5q-55 0 -66 -71l-78 17q7 53 47.5 85.5t99.5 32.5q53 0 87.5 -27.5t34.5 -69.5q0 -41 -27 -65.5t-75 -24.5l-6 -30
q36 -2 58 -24t22 -53q0 -50 -42 -85t-104 -35q-63 0 -99.5 33t-36.5 89z" />
    <glyph glyph-name="uni2155" unicode="&#x2155;" horiz-adv-x="831" 
d="M150 302l50 230q10 51 32 84h-32q-39 -67 -100 -71l15 70q33 1 69 24t64 61h63l-85 -398h-76zM28 0l638 700h100l-637 -700h-101zM466 105l77 17q1 -30 18.5 -48t46.5 -18q32 0 53.5 23.5t21.5 57.5q0 27 -15.5 42.5t-40.5 15.5q-45 0 -68 -44l-77 19l76 228h244l-13 -66
h-179l-13 -39q-18 -58 -55 -89h40q28 53 78 53q45 0 73.5 -32t28.5 -83q0 -66 -42 -108t-111 -42q-61 0 -99.5 31t-43.5 82z" />
    <glyph glyph-name="uni2156" unicode="&#x2156;" horiz-adv-x="922" 
d="M77 302l17 82q124 67 171.5 107.5t50.5 91.5q0 28 -15 44t-42 16q-29 0 -46.5 -24.5t-17.5 -65.5l-80 18q6 64 45.5 100.5t102.5 36.5q57 0 94.5 -34.5t37.5 -86.5q0 -68 -60 -122q-38 -33 -134 -76l-42 -20l16 -29q46 28 106 28h75l-14 -66h-265zM121 0l638 700h100
l-637 -700h-101zM559 105l77 17q1 -30 18.5 -48t46.5 -18q32 0 53.5 23.5t21.5 57.5q0 27 -16 42.5t-40 15.5q-45 0 -68 -44l-77 19l76 228h244l-13 -66h-179l-13 -39q-18 -58 -55 -89h40q28 53 78 53q45 0 73.5 -32t28.5 -83q0 -66 -42 -108t-111 -42q-61 0 -99.5 31
t-43.5 82z" />
    <glyph glyph-name="uni2157" unicode="&#x2157;" horiz-adv-x="928" 
d="M76 416v12l80 12q-1 -7 -1 -16q0 -66 59 -66q28 0 47 19t19 46q0 50 -58 50h-36l13 62h37q33 0 52.5 17t19.5 47q0 20 -13 32.5t-34 12.5q-55 0 -66 -71l-78 17q7 53 47.5 85.5t99.5 32.5q53 0 87.5 -27.5t34.5 -69.5q0 -41 -27 -65.5t-75 -24.5l-6 -30q36 -2 58 -24
t22 -53q0 -50 -42 -85t-104 -35q-63 0 -99.5 33t-36.5 89zM113 0l638 700h100l-637 -700h-101zM551 105l77 17q1 -30 18.5 -48t46.5 -18q32 0 53.5 23.5t21.5 57.5q0 27 -16 42.5t-40 15.5q-45 0 -68 -44l-77 19l76 228h244l-13 -66h-179l-13 -39q-18 -58 -55 -89h40
q28 53 78 53q45 0 73.5 -32t28.5 -83q0 -66 -42 -108t-111 -42q-61 0 -99.5 31t-43.5 82z" />
    <glyph glyph-name="uni2158" unicode="&#x2158;" horiz-adv-x="927" 
d="M230 302l22 105h-183l14 66l200 227h104l-49 -231h54l-13 -62h-55l-22 -105h-72zM266 469l11 54q11 47 56 91l-23 21l-156 -175l21 -21q30 30 76 30h15zM121 0l638 700h100l-637 -700h-101zM559 105l77 17q1 -30 18.5 -48t46.5 -18q32 0 53.5 23.5t21.5 57.5
q0 27 -16 42.5t-40 15.5q-45 0 -68 -44l-77 19l76 228h244l-13 -66h-179l-13 -39q-18 -58 -55 -89h40q28 53 78 53q45 0 73.5 -32t28.5 -83q0 -66 -42 -108t-111 -42q-61 0 -99.5 31t-43.5 82z" />
    <glyph glyph-name="uni2159" unicode="&#x2159;" horiz-adv-x="858" 
d="M150 302l50 230q10 51 32 84h-32q-39 -67 -100 -71l15 70q33 1 69 24t64 61h63l-85 -398h-76zM28 0l638 700h100l-637 -700h-101zM479 152q0 112 63 183t162 71q56 0 100 -20l-14 -67q-51 19 -89 19q-58 0 -103 -33t-56 -101h29q23 60 88 60q48 0 82 -33.5t34 -83.5
q0 -66 -44.5 -110.5t-109.5 -44.5q-68 0 -105 42t-37 118zM695 140q0 61 -58 61q-30 0 -52.5 -25t-22.5 -59q0 -28 15.5 -44.5t41.5 -16.5q31 0 53.5 24.5t22.5 59.5z" />
    <glyph glyph-name="uni215A" unicode="&#x215a;" horiz-adv-x="921" 
d="M72 407l77 17q1 -30 18.5 -48t46.5 -18q32 0 53.5 23.5t21.5 57.5q0 27 -15.5 42.5t-40.5 15.5q-45 0 -68 -44l-77 19l76 228h244l-13 -66h-179l-13 -39q-18 -58 -55 -89h40q28 53 78 53q45 0 73.5 -32t28.5 -83q0 -66 -42 -108t-111 -42q-61 0 -99.5 31t-43.5 82zM112 0
l638 700h100l-637 -700h-101zM563 152q0 112 63 183t162 71q56 0 100 -20l-14 -67q-51 19 -89 19q-58 0 -103 -33t-56 -101h29q23 60 88 60q48 0 82 -33.5t34 -83.5q0 -66 -44.5 -110.5t-109.5 -44.5q-68 0 -105 42t-37 118zM779 140q0 61 -58 61q-30 0 -52.5 -25t-22.5 -59
q0 -28 15.5 -44.5t41.5 -16.5q31 0 53.5 24.5t22.5 59.5z" />
    <glyph glyph-name="oneeighth" unicode="&#x215b;" horiz-adv-x="819" 
d="M150 302l50 230q10 51 32 84h-32q-39 -67 -100 -71l15 70q33 1 69 24t64 61h63l-85 -398h-76zM28 0l638 700h100l-637 -700h-101zM459 100q0 38 33 65.5t79 27.5l7 31q-35 2 -53 19.5t-18 43.5q0 51 40.5 85t103.5 34q55 0 90.5 -29.5t35.5 -74.5q0 -34 -25.5 -58
t-71.5 -23l-7 -30q35 -5 56 -26t21 -50q0 -53 -43.5 -88t-109.5 -35q-62 0 -100 30t-38 78zM699 295q0 22 -14 34.5t-38 12.5q-27 0 -44.5 -16.5t-17.5 -42.5q0 -22 13.5 -34.5t37.5 -12.5q28 0 45.5 16.5t17.5 42.5zM671 122q0 25 -16 39.5t-44 14.5q-31 0 -51.5 -19
t-20.5 -48q0 -25 16 -39t44 -14q32 0 52 18.5t20 47.5z" />
    <glyph glyph-name="threeeighths" unicode="&#x215c;" horiz-adv-x="902" 
d="M76 416v12l80 12q-1 -7 -1 -16q0 -66 59 -66q28 0 47 19t19 46q0 50 -58 50h-36l13 62h37q33 0 52.5 17t19.5 47q0 20 -13 32.5t-34 12.5q-55 0 -66 -71l-78 17q7 53 47.5 85.5t99.5 32.5q53 0 87.5 -27.5t34.5 -69.5q0 -41 -27 -65.5t-75 -24.5l-6 -30q36 -2 58 -24
t22 -53q0 -50 -42 -85t-104 -35q-63 0 -99.5 33t-36.5 89zM113 0l638 700h100l-637 -700h-101zM544 100q0 38 33 65.5t79 27.5l7 31q-35 2 -53 19.5t-18 43.5q0 51 40.5 85t103.5 34q55 0 90.5 -29.5t35.5 -74.5q0 -34 -25.5 -58t-71.5 -23l-7 -30q35 -5 56 -26t21 -50
q0 -53 -43.5 -88t-109.5 -35q-62 0 -100 30t-38 78zM784 295q0 22 -14 34.5t-38 12.5q-27 0 -44.5 -16.5t-17.5 -42.5q0 -22 13.5 -34.5t37.5 -12.5q28 0 45.5 16.5t17.5 42.5zM756 122q0 25 -16 39.5t-44 14.5q-31 0 -51.5 -19t-20.5 -48q0 -25 16 -39t44 -14q32 0 52 18.5
t20 47.5z" />
    <glyph glyph-name="fiveeighths" unicode="&#x215d;" horiz-adv-x="901" 
d="M72 407l77 17q1 -30 18.5 -48t46.5 -18q32 0 53.5 23.5t21.5 57.5q0 27 -15.5 42.5t-40.5 15.5q-45 0 -68 -44l-77 19l76 228h244l-13 -66h-179l-13 -39q-18 -58 -55 -89h40q28 53 78 53q45 0 73.5 -32t28.5 -83q0 -66 -42 -108t-111 -42q-61 0 -99.5 31t-43.5 82zM112 0
l638 700h100l-637 -700h-101zM543 100q0 38 33 65.5t79 27.5l7 31q-35 2 -53 19.5t-18 43.5q0 51 40.5 85t103.5 34q55 0 90.5 -29.5t35.5 -74.5q0 -34 -25.5 -58t-71.5 -23l-7 -30q35 -5 56 -26t21 -50q0 -53 -43.5 -88t-109.5 -35q-62 0 -100 30t-38 78zM783 295
q0 22 -14 34.5t-38 12.5q-27 0 -44.5 -16.5t-17.5 -42.5q0 -22 13.5 -34.5t37.5 -12.5q28 0 45.5 16.5t17.5 42.5zM755 122q0 25 -16 39.5t-44 14.5q-31 0 -51.5 -19t-20.5 -48q0 -25 16 -39t44 -14q32 0 52 18.5t20 47.5z" />
    <glyph glyph-name="seveneighths" unicode="&#x215e;" horiz-adv-x="809" 
d="M313 634l14 8l-17 28q-50 -36 -107 -36h-84l14 66h280l-14 -66q-99 -70 -141.5 -142.5t-54.5 -189.5h-85q11 109 62 195.5t133 136.5zM18 0l638 700h100l-637 -700h-101zM449 100q0 38 33 65.5t79 27.5l7 31q-35 2 -53 19.5t-18 43.5q0 51 40.5 85t103.5 34
q55 0 90.5 -29.5t35.5 -74.5q0 -34 -25.5 -58t-71.5 -23l-7 -30q35 -5 56 -26t21 -50q0 -53 -43.5 -88t-109.5 -35q-62 0 -100 30t-38 78zM689 295q0 22 -14 34.5t-38 12.5q-27 0 -44.5 -16.5t-17.5 -42.5q0 -22 13.5 -34.5t37.5 -12.5q28 0 45.5 16.5t17.5 42.5zM661 122
q0 25 -16 39.5t-44 14.5q-31 0 -51.5 -19t-20.5 -48q0 -25 16 -39t44 -14q32 0 52 18.5t20 47.5z" />
    <glyph glyph-name="uni215F" unicode="&#x215f;" horiz-adv-x="363" 
d="M144 302l50 230q10 51 32 84h-32q-39 -67 -100 -71l15 70q33 1 69 24t64 61h63l-85 -398h-76zM22 0l638 700h100l-637 -700h-101z" />
    <glyph glyph-name="arrowleft" unicode="&#x2190;" horiz-adv-x="844" 
d="M823 308h-622v-40q41 -6 65.5 -16t50.5 -36l99 -98l-61 -60l-292 293l292 293l61 -60l-94 -93q-31 -31 -55.5 -41.5t-65.5 -15.5v-40h622v-86z" />
    <glyph glyph-name="arrowup" unicode="&#x2191;" horiz-adv-x="645" 
d="M326 0v622h-40q-6 -41 -16 -65.5t-36 -50.5l-98 -99l-60 61l293 292l293 -292l-60 -61l-93 94q-31 31 -41.5 55.5t-15.5 65.5h-40v-622h-86z" />
    <glyph glyph-name="arrowright" unicode="&#x2192;" horiz-adv-x="842" 
d="M65 392h622v40q-41 6 -65.5 16t-50.5 36l-99 98l61 60l292 -293l-292 -293l-61 60l94 93q32 30 57 41t64 16v40h-622v86z" />
    <glyph glyph-name="arrowdown" unicode="&#x2193;" horiz-adv-x="644" 
d="M363 700v-622h40q6 41 16 65.5t36 50.5l98 99l60 -61l-293 -292l-293 292l60 61l93 -94q31 -31 41.5 -55.5t15.5 -65.5h40v622h86z" />
    <glyph glyph-name="uni2196" unicode="&#x2196;" horiz-adv-x="720" 
d="M683 214l-61 -60l-418 418l-28 -28q18 -25 25 -37t13.5 -33.5t6.5 -48.5v-139h-85v414h414v-85h-132q-43 0 -67 10t-59 36l-28 -28z" />
    <glyph glyph-name="uni2197" unicode="&#x2197;" horiz-adv-x="611" 
d="M93 153l-60 61l418 418l-28 28q-25 -18 -37 -25.5t-33 -13.5t-49 -6h-139v85h414v-414h-85v132q0 31 6.5 53.5t13.5 34t26 38.5l-28 28z" />
    <glyph glyph-name="uni2198" unicode="&#x2198;" horiz-adv-x="714" 
d="M75 486l61 60l418 -418l28 28q-26 34 -35.5 57t-9.5 62v139h85v-414h-414v85h132q31 0 53.5 -6.5t34 -13.5t38.5 -26l28 28z" />
    <glyph glyph-name="uni2199" unicode="&#x2199;" horiz-adv-x="597" 
d="M557 547l60 -61l-418 -418l28 -28q33 25 56 35t63 10h139v-85h-414v414h85v-132q0 -31 -6.5 -53.5t-13.5 -34t-26 -38.5l28 -28z" />
    <glyph glyph-name="uni21A4" unicode="&#x21a4;" horiz-adv-x="904" 
d="M740 603h80v-505h-80v210h-542v-40q70 -7 116 -52l99 -98l-61 -60l-292 293l292 293l61 -60l-94 -93q-32 -31 -56.5 -41.5t-64.5 -15.5v-40h542v209z" />
    <glyph glyph-name="uni21A5" unicode="&#x21a5;" horiz-adv-x="703" 
d="M413 621v-542h209v-80h-505v80h210v542h-40q-7 -70 -52 -116l-98 -99l-60 61l293 292l293 -292l-60 -61l-93 94q-31 32 -41.5 56.5t-15.5 64.5h-40z" />
    <glyph glyph-name="uni21A6" unicode="&#x21a6;" horiz-adv-x="902" 
d="M596 642l292 -293l-292 -293l-61 60l94 93q32 31 56.5 41.5t64.5 15.5v40h-542v-209h-80v505h80v-210h542v40q-39 6 -63.5 16t-52.5 36l-99 98z" />
    <glyph glyph-name="uni21A7" unicode="&#x21a7;" horiz-adv-x="705" 
d="M611 294l60 -61l-293 -292l-293 292l60 61l93 -94q31 -32 41.5 -56t15.5 -64h40v542h-209v79h505v-79h-210v-542h40q7 69 52 115z" />
    <glyph glyph-name="uni21B0" unicode="&#x21b0;" horiz-adv-x="909" 
d="M204 394h622v-394h-88v308h-534v-40q41 -6 65.5 -16t50.5 -36l99 -98l-61 -60l-292 293l292 293l61 -60l-94 -93q-31 -31 -55.5 -41.5t-65.5 -15.5v-40z" />
    <glyph glyph-name="uni21B1" unicode="&#x21b1;" horiz-adv-x="842" 
d="M536 642l292 -293l-292 -293l-61 60l94 93q32 30 57 41t64 16v40h-534v-306h-88v392h622v40q-41 6 -65.5 16t-50.5 36l-99 98z" />
    <glyph glyph-name="uni21B2" unicode="&#x21b2;" horiz-adv-x="843" 
d="M731 700h88v-391h-622v-40q41 -6 65.5 -16.5t50.5 -36.5l99 -97l-60 -60l-292 293l292 293l60 -61l-94 -93q-32 -31 -56 -41t-65 -15v-40h534v305z" />
    <glyph glyph-name="uni21B3" unicode="&#x21b3;" horiz-adv-x="909" 
d="M596 642l292 -293l-292 -293l-61 60l94 93q31 31 55.5 41.5t65.5 15.5v40h-622v394h88v-308h534v40q-41 6 -65.5 16t-50.5 36l-99 98z" />
    <glyph glyph-name="partialdiff" unicode="&#x2202;" horiz-adv-x="627" 
d="M76 229q0 93 60.5 158t151.5 65q124 0 161 -104h43q-1 124 -72 201t-182 77q-66 0 -123 -21v91q57 18 128 18q161 0 249 -108t88 -280q0 -163 -71 -251.5t-190 -88.5q-113 0 -178 70t-65 173zM465 219q0 68 -42 110.5t-105 42.5t-105 -42.5t-42 -110.5q0 -67 42.5 -110
t104.5 -43t104.5 43t42.5 110z" />
    <glyph glyph-name="Delta" unicode="&#x2206;" horiz-adv-x="675" 
d="M386 700l256 -700h-645l262 700h127zM125 85h386l-137 387q-20 58 -27 86q-8 34 -8 75h-40q-1 -38 -10 -78q-8 -35 -25 -83z" />
    <glyph glyph-name="product" unicode="&#x220f;" horiz-adv-x="813" 
d="M769 700v-85h-90v-720h-90v720h-289v-720h-90v720h-90v85h649z" />
    <glyph glyph-name="summation" unicode="&#x2211;" horiz-adv-x="712" 
d="M117 -105v82l264 319l-258 311v93h480v-85h-210q-99 0 -145 43l-28 -27l13 -16l262 -317l-263 -318l-13 -16l28 -27q46 43 146 43h220v-85h-496z" />
    <glyph glyph-name="minus" unicode="&#x2212;" horiz-adv-x="705" 
d="M105 311v85h535v-85h-535z" />
    <glyph glyph-name="uni2215" unicode="&#x2215;" horiz-adv-x="354" 
d="M-76 -105l460 910h90l-460 -910h-90z" />
    <glyph glyph-name="radical" unicode="&#x221a;" horiz-adv-x="601" 
d="M258 -105l-137 412h-88v85h154l89 -287q16 -49 21 -145h40q4 91 20 145l184 595h97l-264 -805h-116z" />
    <glyph glyph-name="infinity" unicode="&#x221e;" horiz-adv-x="848" 
d="M78 353q0 77 55 131.5t127 54.5q57 0 104.5 -38t63.5 -108h38q17 72 63 109t104 37q72 0 126.5 -54.5t54.5 -131.5t-54.5 -131.5t-126.5 -54.5q-59 0 -105 37.5t-62 108.5h-38q-16 -70 -63.5 -108t-104.5 -38q-72 0 -127 54.5t-55 131.5zM393 355q-33 56 -61.5 80
t-63.5 24q-45 0 -75 -30.5t-30 -75.5t30 -75.5t75 -30.5q37 0 66 24.5t59 83.5zM729 353q0 45 -30 75.5t-75 30.5q-35 0 -63.5 -24t-61.5 -80q30 -59 59 -83.5t66 -24.5q45 0 75 30.5t30 75.5z" />
    <glyph glyph-name="integral" unicode="&#x222b;" horiz-adv-x="339" 
d="M-4 -195v80h80q23 0 36.5 15.5t13.5 42.5v632q0 57 30.5 91t88.5 34h101v-80h-80q-23 0 -36.5 -15.5t-13.5 -42.5v-632q0 -57 -30.5 -91t-88.5 -34h-101z" />
    <glyph glyph-name="approxequal" unicode="&#x2248;" horiz-adv-x="660" 
d="M354 401l-30 13q-59 25 -89 25q-48 0 -97 -49l-48 69q32 34 72.5 53t77.5 19q38 0 100 -27l30 -13q59 -25 89 -25q48 0 97 49l48 -69q-32 -34 -72.5 -53t-77.5 -19t-100 27zM354 181l-30 13q-59 25 -89 25q-48 0 -97 -49l-48 69q32 34 72.5 53t77.5 19q38 0 100 -27
l30 -13q59 -25 89 -25q48 0 97 49l48 -69q-32 -34 -72.5 -53t-77.5 -19t-100 27z" />
    <glyph glyph-name="notequal" unicode="&#x2260;" horiz-adv-x="739" 
d="M172 85l71 115h-128v85h179l33 53q23 39 76 69l-21 35q-46 -27 -99 -27h-168v85h311l74 120h94l-73 -120h129v-85h-181l-32 -53q-23 -39 -77 -70l21 -35q48 28 99 28h170v-85h-313l-70 -115h-95z" />
    <glyph glyph-name="lessequal" unicode="&#x2264;" horiz-adv-x="698" 
d="M627 198l-535 143v141l535 143v-91l-323 -80q-63 -17 -155 -22v-38q70 -1 155 -22l323 -79v-95zM92 85v85h535v-85h-535z" />
    <glyph glyph-name="greaterequal" unicode="&#x2265;" horiz-adv-x="721" 
d="M117 198v91l323 80q71 17 155 22v38q-70 1 -155 22l-323 79v95l535 -143v-141zM117 85v85h535v-85h-535z" />
    <glyph glyph-name="angleleft" unicode="&#x2329;" horiz-adv-x="330" 
d="M410 721l-293 -428l113 -431l-75 -22l-122 463l315 462z" />
    <glyph glyph-name="angleright" unicode="&#x232a;" horiz-adv-x="332" 
d="M201 765l122 -463l-315 -462l-62 44l293 428l-113 431z" />
    <glyph glyph-name="uni2460" unicode="&#x2460;" horiz-adv-x="860" 
d="M73 331q-2 102 50 196t145.5 152t202.5 56q155 2 261.5 -97.5t103.5 -249.5q2 -101 -50 -194.5t-146 -152t-203 -56.5q-155 -2 -260.5 96.5t-103.5 249.5zM766 388q0 124 -81.5 203t-211.5 79q-136 3 -235 -100.5t-96 -238.5q0 -123 81.5 -202t211.5 -79q89 -2 167 45.5
t122 126.5t42 166zM392 162l50 230q10 51 32 84h-32q-39 -67 -100 -71l15 70q33 1 69 24t64 61h63l-85 -398h-76z" />
    <glyph glyph-name="uni2461" unicode="&#x2461;" horiz-adv-x="860" 
d="M73 331q-2 102 50 196t145.5 152t202.5 56q155 2 261.5 -97.5t103.5 -249.5q2 -101 -50 -194.5t-146 -152t-203 -56.5q-155 -2 -260.5 96.5t-103.5 249.5zM766 388q0 124 -81.5 203t-211.5 79q-136 3 -235 -100.5t-96 -238.5q0 -123 81.5 -202t211.5 -79q89 -2 167 45.5
t122 126.5t42 166zM293 162l17 82q124 67 171.5 107.5t50.5 91.5q0 28 -15.5 44t-41.5 16q-29 0 -46.5 -24.5t-17.5 -65.5l-80 18q4 63 45 100t103 37q57 0 94.5 -34.5t37.5 -86.5q0 -68 -60 -122q-38 -33 -134 -76l-42 -20l16 -29q51 28 106 28h75l-14 -66h-265z" />
    <glyph glyph-name="uni2462" unicode="&#x2462;" horiz-adv-x="860" 
d="M73 331q-2 102 50 196t145.5 152t202.5 56q155 2 261.5 -97.5t103.5 -249.5q2 -101 -50 -194.5t-146 -152t-203 -56.5q-155 -2 -260.5 96.5t-103.5 249.5zM766 388q0 124 -81.5 203t-211.5 79q-136 3 -235 -100.5t-96 -238.5q0 -123 81.5 -202t211.5 -79q89 -2 167 45.5
t122 126.5t42 166zM292 276q0 9 1 12l80 12q-1 -7 -1 -16q0 -66 59 -66q28 0 47 18.5t19 46.5q0 50 -58 50h-36l13 62h37q33 0 52.5 17t19.5 47q0 20 -13 32.5t-34 12.5q-55 0 -66 -71l-78 17q7 53 47.5 85.5t99.5 32.5q53 0 87.5 -28t34.5 -69t-27 -65.5t-75 -24.5l-6 -30
q36 -2 58 -24t22 -53q0 -50 -42 -85t-104 -35q-63 0 -100 33t-37 89z" />
    <glyph glyph-name="uni2463" unicode="&#x2463;" horiz-adv-x="860" 
d="M73 331q-2 102 50 196t145.5 152t202.5 56q155 2 261.5 -97.5t103.5 -249.5q2 -101 -50 -194.5t-146 -152t-203 -56.5q-155 -2 -260.5 96.5t-103.5 249.5zM766 388q0 124 -81.5 203t-211.5 79q-136 3 -235 -100.5t-96 -238.5q0 -123 81.5 -202t211.5 -79q89 -2 167 45.5
t122 126.5t42 166zM429 162l22 105h-183l14 66l200 227h104l-49 -231h54l-13 -62h-55l-22 -105h-72zM465 329l11 54q11 47 56 91l-23 21l-156 -175l21 -21q30 30 76 30h15z" />
    <glyph glyph-name="uni2464" unicode="&#x2464;" horiz-adv-x="860" 
d="M73 331q-2 102 50 196t145.5 152t202.5 56q155 2 261.5 -97.5t103.5 -249.5q2 -101 -50 -194.5t-146 -152t-203 -56.5q-155 -2 -260.5 96.5t-103.5 249.5zM766 388q0 124 -81.5 203t-211.5 79q-136 3 -235 -100.5t-96 -238.5q0 -123 81.5 -202t211.5 -79q89 -2 167 45.5
t122 126.5t42 166zM288 267l77 17q1 -31 18.5 -48.5t46.5 -17.5q32 0 53.5 23.5t21.5 57.5q0 27 -15.5 42.5t-40.5 15.5q-45 0 -68 -44l-77 19l76 228h244l-13 -66h-179l-13 -39q-18 -58 -55 -89h40q28 53 78 53q45 0 73.5 -32.5t28.5 -82.5q0 -68 -42 -109t-111 -41
q-61 0 -99.5 31t-43.5 82z" />
    <glyph glyph-name="uni2465" unicode="&#x2465;" horiz-adv-x="860" 
d="M73 331q-2 102 50 196t145.5 152t202.5 56q155 2 261.5 -97.5t103.5 -249.5q2 -101 -50 -194.5t-146 -152t-203 -56.5q-155 -2 -260.5 96.5t-103.5 249.5zM766 388q0 124 -81.5 203t-211.5 79q-136 3 -235 -100.5t-96 -238.5q0 -123 81.5 -202t211.5 -79q89 -2 167 45.5
t122 126.5t42 166zM281 314q0 111 63 182.5t162 71.5q56 0 100 -20l-14 -67q-51 19 -89 19q-58 0 -102 -33t-57 -101h29q23 60 88 60q48 0 82 -33.5t34 -83.5q0 -66 -44.5 -110.5t-109.5 -44.5q-68 0 -105 42t-37 118zM497 302q0 61 -58 61q-30 0 -52.5 -25t-22.5 -59
q0 -28 15.5 -44.5t41.5 -16.5q31 0 53.5 24.5t22.5 59.5z" />
    <glyph glyph-name="uni2466" unicode="&#x2466;" horiz-adv-x="860" 
d="M73 331q-2 102 50 196t145.5 152t202.5 56q155 2 261.5 -97.5t103.5 -249.5q2 -101 -50 -194.5t-146 -152t-203 -56.5q-155 -2 -260.5 96.5t-103.5 249.5zM766 388q0 124 -81.5 203t-211.5 79q-136 3 -235 -100.5t-96 -238.5q0 -123 81.5 -202t211.5 -79q89 -2 167 45.5
t122 126.5t42 166zM536 494l14 8l-17 28q-50 -36 -107 -36h-84l14 66h280l-14 -66q-99 -70 -141.5 -142.5t-54.5 -189.5h-85q11 109 62 195.5t133 136.5z" />
    <glyph glyph-name="uni2467" unicode="&#x2467;" horiz-adv-x="860" 
d="M73 331q-2 102 50 196t145.5 152t202.5 56q155 2 261.5 -97.5t103.5 -249.5q2 -101 -50 -194.5t-146 -152t-203 -56.5q-155 -2 -260.5 96.5t-103.5 249.5zM766 388q0 124 -81.5 203t-211.5 79q-136 3 -235 -100.5t-96 -238.5q0 -123 81.5 -202t211.5 -79q89 -2 167 45.5
t122 126.5t42 166zM293 262q0 39 32.5 65t79.5 28l7 31q-35 2 -53 19.5t-18 43.5q0 51 40.5 85t103.5 34q55 0 90.5 -29.5t35.5 -74.5q0 -35 -25.5 -58.5t-71.5 -22.5l-7 -30q35 -5 56 -26t21 -50q0 -53 -43.5 -88t-109.5 -35q-62 0 -100 30t-38 78zM533 457q0 22 -14 34.5
t-38 12.5q-27 0 -44.5 -16.5t-17.5 -42.5q0 -22 13.5 -34.5t37.5 -12.5q28 0 45.5 16.5t17.5 42.5zM505 284q0 25 -16 39.5t-44 14.5q-31 0 -51.5 -19t-20.5 -48q0 -25 16 -39t44 -14q32 0 52 18t20 48z" />
    <glyph glyph-name="uni2468" unicode="&#x2468;" horiz-adv-x="860" 
d="M73 331q-2 102 50 196t145.5 152t202.5 56q155 2 261.5 -97.5t103.5 -249.5q2 -101 -50 -194.5t-146 -152t-203 -56.5q-155 -2 -260.5 96.5t-103.5 249.5zM766 388q0 124 -81.5 203t-211.5 79q-136 3 -235 -100.5t-96 -238.5q0 -123 81.5 -202t211.5 -79q89 -2 167 45.5
t122 126.5t42 166zM295 171l14 69q40 -21 87 -21q65 0 107 42q35 35 44 95h-30q-22 -58 -83 -58q-47 0 -77.5 33.5t-30.5 85.5q0 64 41 105.5t106 41.5q60 0 98 -38q44 -44 44 -129q0 -112 -59 -179.5t-157 -67.5q-62 0 -104 21zM532 436q0 29 -16 46.5t-43 17.5
q-29 0 -48 -22t-19 -55q0 -29 15 -45.5t41 -16.5q29 0 49.5 22t20.5 53z" />
    <glyph glyph-name="uni24EA" unicode="&#x24ea;" horiz-adv-x="860" 
d="M73 331q-2 102 50 196t145.5 152t202.5 56q155 2 261.5 -97.5t103.5 -249.5q2 -101 -50 -194.5t-146 -152t-203 -56.5q-155 -2 -260.5 96.5t-103.5 249.5zM766 388q0 124 -81.5 203t-211.5 79q-136 3 -235 -100.5t-96 -238.5q0 -123 81.5 -202t211.5 -79q89 -2 167 45.5
t122 126.5t42 166zM285 318q0 106 55 178t136 72q66 0 106 -46t40 -121q0 -106 -54 -176.5t-136 -70.5q-69 0 -108 43.5t-39 120.5zM544 402q0 47 -19 74t-52 27q-44 0 -76.5 -56t-32.5 -130q0 -98 71 -98q44 0 76.5 55t32.5 128z" />
    <glyph glyph-name="uni24FF" unicode="&#x24ff;" horiz-adv-x="857" 
d="M836 399q2 -102 -53.5 -198.5t-153 -157t-206.5 -58.5q-157 0 -255 92t-98 244q-2 101 53.5 198t153 158t206.5 58q156 0 254.5 -92.5t98.5 -243.5zM284 318q0 -77 39 -120.5t108 -43.5q82 0 136 70.5t54 176.5q0 75 -40 121t-106 46q-81 0 -136 -72t-55 -178zM543 402
q0 -73 -32.5 -128t-76.5 -55q-71 0 -71 98q0 74 32.5 130t76.5 56q33 0 52 -27t19 -74z" />
    <glyph glyph-name="lozenge" unicode="&#x25ca;" horiz-adv-x="647" 
d="M273 -1l-216 346l220 355h141l215 -349l-219 -352h-141zM528 350l-121 198q-40 64 -40 105h-43q0 -44 -40 -105l-124 -198l121 -194q43 -69 43 -109h43q0 39 40 105z" />
    <glyph glyph-name="uni274C" unicode="&#x274c;" horiz-adv-x="835" 
d="M142 -14l-60 60l297 302l-299 303l63 63l299 -303l298 303l60 -60l-298 -303l298 -302l-63 -63l-298 302z" />
    <glyph glyph-name="uni2776" unicode="&#x2776;" horiz-adv-x="857" 
d="M836 399q2 -102 -53.5 -198.5t-153 -157t-206.5 -58.5q-157 0 -255 92t-98 244q-2 101 53.5 198t153 158t206.5 58q156 0 254.5 -92.5t98.5 -243.5zM441 392l-50 -230h76l85 398h-63q-28 -38 -64 -61t-69 -24l-15 -70q61 4 100 71h32q-22 -33 -32 -84z" />
    <glyph glyph-name="uni2777" unicode="&#x2777;" horiz-adv-x="857" 
d="M836 399q2 -102 -53.5 -198.5t-153 -157t-206.5 -58.5q-157 0 -255 92t-98 244q-2 101 53.5 198t153 158t206.5 58q156 0 254.5 -92.5t98.5 -243.5zM309 244l-17 -82h265l14 66h-75q-55 0 -106 -28l-16 29l42 20q96 43 134 76q60 54 60 122q0 52 -37.5 86.5t-94.5 34.5
q-62 0 -103 -37t-45 -100l80 -18q0 41 17.5 65.5t46.5 24.5q26 0 41.5 -16t15.5 -44q-3 -51 -50.5 -91.5t-171.5 -107.5z" />
    <glyph glyph-name="uni2778" unicode="&#x2778;" horiz-adv-x="857" 
d="M836 399q2 -102 -53.5 -198.5t-153 -157t-206.5 -58.5q-157 0 -255 92t-98 244q-2 101 53.5 198t153 158t206.5 58q156 0 254.5 -92.5t98.5 -243.5zM292 276q0 -56 36.5 -89t99.5 -33q62 0 104 35t42 85q0 31 -22 53t-58 24l6 30q48 0 75 24.5t27 65.5t-34.5 69t-87.5 28
q-59 0 -99.5 -32.5t-47.5 -85.5l78 -17q11 71 66 71q21 0 34 -12.5t13 -32.5q0 -30 -19.5 -47t-52.5 -17h-37l-13 -62h36q58 0 58 -50q0 -28 -19 -46.5t-47 -18.5q-59 0 -59 66q0 9 1 16l-80 -12v-12z" />
    <glyph glyph-name="uni2779" unicode="&#x2779;" horiz-adv-x="857" 
d="M836 399q2 -102 -53.5 -198.5t-153 -157t-206.5 -58.5q-157 0 -255 92t-98 244q-2 101 53.5 198t153 158t206.5 58q156 0 254.5 -92.5t98.5 -243.5zM450 267l-22 -105h72l22 105h55l13 62h-54l49 231h-104l-200 -227l-14 -66h183zM475 383l-11 -54h-15q-46 0 -76 -30
l-21 21l156 175l23 -21q-45 -44 -56 -91z" />
    <glyph glyph-name="uni277A" unicode="&#x277a;" horiz-adv-x="857" 
d="M836 399q2 -102 -53.5 -198.5t-153 -157t-206.5 -58.5q-157 0 -255 92t-98 244q-2 101 53.5 198t153 158t206.5 58q156 0 254.5 -92.5t98.5 -243.5zM287 267q5 -51 43.5 -82t99.5 -31q69 0 111 41t42 109q0 50 -28.5 82.5t-73.5 32.5q-50 0 -78 -53h-40q37 31 55 89
l13 39h179l13 66h-244l-76 -228l77 -19q23 44 68 44q24 0 40 -15.5t16 -42.5q0 -34 -21.5 -57.5t-53.5 -23.5q-29 0 -46.5 17.5t-18.5 48.5z" />
    <glyph glyph-name="uni277B" unicode="&#x277b;" horiz-adv-x="857" 
d="M836 399q2 -102 -53.5 -198.5t-153 -157t-206.5 -58.5q-157 0 -255 92t-98 244q-2 101 53.5 198t153 158t206.5 58q156 0 254.5 -92.5t98.5 -243.5zM280 314q0 -76 37 -118t105 -42q65 0 109.5 44.5t44.5 110.5q0 50 -34 83.5t-82 33.5q-65 0 -88 -60h-29q13 68 57 101
t102 33q38 0 89 -19l14 67q-44 20 -100 20q-99 0 -162 -71.5t-63 -182.5zM496 302q0 -35 -22.5 -59.5t-53.5 -24.5q-26 0 -41.5 16.5t-15.5 44.5q0 34 22.5 59t52.5 25q58 0 58 -61z" />
    <glyph glyph-name="uni277C" unicode="&#x277c;" horiz-adv-x="857" 
d="M836 399q2 -102 -53.5 -198.5t-153 -157t-206.5 -58.5q-157 0 -255 92t-98 244q-2 101 53.5 198t153 158t206.5 58q156 0 254.5 -92.5t98.5 -243.5zM535 494q-82 -50 -133 -136.5t-62 -195.5h85q12 117 54.5 189.5t141.5 142.5l14 66h-280l-14 -66h84q57 0 107 36l17 -28
z" />
    <glyph glyph-name="uni277D" unicode="&#x277d;" horiz-adv-x="857" 
d="M836 399q2 -102 -53.5 -198.5t-153 -157t-206.5 -58.5q-157 0 -255 92t-98 244q-2 101 53.5 198t153 158t206.5 58q156 0 254.5 -92.5t98.5 -243.5zM292 262q0 -48 38 -78t100 -30q66 0 109.5 35t43.5 88q0 29 -21 50t-56 26l7 30q46 -1 71.5 22.5t25.5 58.5
q0 45 -35.5 74.5t-90.5 29.5q-63 0 -103.5 -34t-40.5 -85q0 -26 18 -43.5t53 -19.5l-7 -31q-47 -2 -79.5 -28t-32.5 -65zM532 457q0 -26 -17.5 -42.5t-45.5 -16.5q-24 0 -37.5 12.5t-13.5 34.5q0 26 17.5 42.5t44.5 16.5q24 0 38 -12.5t14 -34.5zM504 284q0 -30 -20 -48
t-52 -18q-28 0 -44 14t-16 39q0 29 20.5 48t51.5 19q28 0 44 -14.5t16 -39.5z" />
    <glyph glyph-name="uni277E" unicode="&#x277e;" horiz-adv-x="857" 
d="M836 399q2 -102 -53.5 -198.5t-153 -157t-206.5 -58.5q-157 0 -255 92t-98 244q-2 101 53.5 198t153 158t206.5 58q156 0 254.5 -92.5t98.5 -243.5zM294 171q42 -21 104 -21q98 0 157 67.5t59 179.5q0 85 -44 129q-38 38 -98 38q-65 0 -106 -41.5t-41 -105.5
q0 -52 30.5 -85.5t77.5 -33.5q61 0 83 58h30q-9 -60 -44 -95q-42 -42 -107 -42q-47 0 -87 21zM531 436q0 -31 -20.5 -53t-49.5 -22q-26 0 -41 16.5t-15 45.5q0 33 19 55t48 22q27 0 43 -17.5t16 -46.5z" />
    <glyph glyph-name="uni300A" unicode="&#x300a;" horiz-adv-x="544" 
d="M410 721l-293 -429l113 -435l-75 -22l-122 467l315 463zM633 721l-311 -455l106 -409l-75 -22l-115 440l333 490z" />
    <glyph glyph-name="uni300B" unicode="&#x300b;" horiz-adv-x="544" 
d="M215 769l115 -440l-333 -490l-62 44l311 455l-106 409zM413 769l122 -467l-315 -463l-62 44l293 429l-113 435z" />
    <glyph glyph-name="uni300C" unicode="&#x300c;" horiz-adv-x="356" 
d="M102 313l94 442h251l-16 -72h-171l-79 -370h-79z" />
    <glyph glyph-name="uni300D" unicode="&#x300d;" horiz-adv-x="335" 
d="M273 292l-94 -442h-251l16 72h171l79 370h79z" />
    <glyph glyph-name="uni300E" unicode="&#x300e;" horiz-adv-x="483" 
d="M87 224l113 531h354l-43 -200h-160l-71 -331h-193zM172 294h59l68 321h158l14 70h-216z" />
    <glyph glyph-name="uni300F" unicode="&#x300f;" horiz-adv-x="469" 
d="M417 380l-113 -531h-354l43 200h160l71 331h193zM332 310h-59l-68 -321h-158l-14 -70h216z" />
    <glyph glyph-name="uni3010" unicode="&#x3010;" horiz-adv-x="353" 
d="M8 -150l192 905h259q-118 -109 -185.5 -219t-94.5 -235q-15 -69 -15 -134q0 -160 103 -317h-259z" />
    <glyph glyph-name="uni3011" unicode="&#x3011;" horiz-adv-x="354" 
d="M370 755l-192 -905h-259q118 109 185.5 219t94.5 235q15 69 15 134q0 160 -103 317h259z" />
    <glyph glyph-name="uni3014" unicode="&#x3014;" horiz-adv-x="308" 
d="M207 544l-105 -499l114 -166l-65 -44l-132 196l117 553l200 181l50 -58z" />
    <glyph glyph-name="uni3015" unicode="&#x3015;" horiz-adv-x="307" 
d="M180 766l132 -196l-117 -553l-200 -181l-50 58l179 163l105 499l-114 166z" />
    <glyph glyph-name="uniE000" unicode="&#xe000;" horiz-adv-x="772" 
d="M363 0v307h-300v85h300v308h90v-308h300v-85h-300v-307h-90z" />
    <glyph glyph-name="uniE001" unicode="&#xe001;" horiz-adv-x="860" 
d="M104 307v85h690v-85h-690z" />
    <glyph glyph-name="uniE002" unicode="&#xe002;" horiz-adv-x="901" 
d="M175 -14l-60 60l297 302l-299 303l63 63l299 -303l298 303l60 -60l-298 -303l298 -302l-63 -63l-298 302z" />
    <glyph glyph-name="uniE003" unicode="&#xe003;" horiz-adv-x="928" 
d="M428 -15l-322 414l72 57l253 -325l434 569l70 -56z" />
    <glyph glyph-name="uniE004" unicode="&#xe004;" horiz-adv-x="1034" 
d="M153 590v85h774v-85h-774zM153 310v85h774v-85h-774zM153 30v85h774v-85h-774z" />
    <glyph glyph-name="uniE005" unicode="&#xe005;" horiz-adv-x="928" 
d="M137 0v700h700v-700h-700zM227 80h520v540h-520v-540z" />
    <glyph glyph-name="uniE006" unicode="&#xe006;" horiz-adv-x="928" 
d="M497 159l-179 290l72 47l64 -106q17 -29 23 -52.5t8 -68.5h40q1 40 9 64q7 23 31 57l233 325l69 -51zM146 0v700h453v-80h-363v-540h520v248h90v-328h-700z" />
    <glyph glyph-name="uniE007" unicode="&#xe007;" horiz-adv-x="928" 
d="M137 0v700h700v-700h-700zM227 80h520v540h-520v-540zM427 288v125h120v-125h-120z" />
    <glyph glyph-name="uniE008" unicode="&#xe008;" horiz-adv-x="788" 
d="M366 85h349v-85h-700v85h349l-267 265l60 61l73 -73q29 -29 38 -51t14 -65h40v535h86v-535h40q5 41 15 65t42 56l68 68l60 -61z" />
    <glyph glyph-name="uniE009" unicode="&#xe009;" horiz-adv-x="788" 
d="M369 184l-268 266l60 61l73 -73q27 -29 37 -52.5t15 -63.5h40v535h86v-535h40q5 41 15 65t42 56l68 68l60 -61zM19 0v85h700v-85h-700z" />
    <glyph glyph-name="uniF8FF" unicode="&#xf8ff;" horiz-adv-x="786" 
d="M682 31q0 -39 -8 -77l-36 2q-12 48 -29 87l-28 -8q13 -56 13 -104l-18 -7q-90 21 -90 102q0 40 30 117l-38 8q-19 -60 -47 -92q-29 19 -50.5 90t-20.5 115q0 111 -7 128q-6 17 -21 30.5t-48 33.5q-24 15 -38.5 32t-30.5 50l77 36l-22 33q-38 0 -62 10q-62 24 -62 76
q0 21 14.5 34.5t36.5 13.5q31 0 53 -19.5t43 -61.5l33 17q-41 62 -41 93q0 15 13 24.5t31 9.5q27 0 43 -15t16 -42q0 -47 -38 -97l24 -39l49 23q50 -38 91 -126t53 -153q115 -175 115 -324z" />
    <glyph glyph-name="Ccedilla.ss04" horiz-adv-x="733" 
d="M608 237l90 -43q-41 -90 -115.5 -145.5t-180.5 -61.5l-14 -11q-24 -18 -54 -26l8 -26q26 12 48 12q27 0 45.5 -16.5t18.5 -42.5q0 -42 -32.5 -66t-86.5 -24q-73 0 -107 46l40 46q26 -34 66 -34q21 0 33.5 9t12.5 24q0 13 -11 22t-31 9q-17 0 -29 -5l-22 39l51 44
q-128 10 -197 91.5t-69 206.5q0 110 47 210q49 101 134.5 160t192.5 59q118 0 193.5 -61t97.5 -147l-98 -29q-16 58 -62 105q-45 48 -135 48q-120 2 -198 -103t-76 -242q0 -100 55.5 -157.5t152.5 -57.5q158 0 232 167z" />
    <glyph glyph-name="G.ss03" horiz-adv-x="766" 
d="M73 296q-1 78 26 154t75 135t120 95t153 34q121 0 200 -59.5t105 -151.5l-98 -30q-20 69 -77 112.5t-139 43.5q-77 2 -140 -45.5t-96.5 -124.5t-32.5 -163q0 -105 60.5 -165t152.5 -60q95 0 153.5 49t79.5 137h-240l18 85h337q-13 -158 -102.5 -257t-245.5 -99
q-141 0 -225 82t-84 228z" />
    <glyph glyph-name="Gbreve.ss03" horiz-adv-x="766" 
d="M73 296q-1 78 26 154t75 135t120 95t153 34q121 0 200 -59.5t105 -151.5l-98 -30q-20 69 -77 112.5t-139 43.5q-77 2 -140 -45.5t-96.5 -124.5t-32.5 -163q0 -105 60.5 -165t152.5 -60q95 0 153.5 49t79.5 137h-240l18 85h337q-13 -158 -102.5 -257t-245.5 -99
q-141 0 -225 82t-84 228zM371 870q0 10 3 23h75v-9q0 -58 65 -58q70 0 96 67h84q-13 -56 -59 -94t-121 -38q-69 0 -106 31t-37 78z" />
    <glyph glyph-name="Gcircumflex.ss03" horiz-adv-x="766" 
d="M73 296q-1 78 26 154t75 135t120 95t153 34q121 0 200 -59.5t105 -151.5l-98 -30q-20 69 -77 112.5t-139 43.5q-77 2 -140 -45.5t-96.5 -124.5t-32.5 -163q0 -105 60.5 -165t152.5 -60q95 0 153.5 49t79.5 137h-240l18 85h337q-13 -158 -102.5 -257t-245.5 -99
q-141 0 -225 82t-84 228zM310 771l145 122h138l88 -122h-92l-73 74l-107 -74h-99z" />
    <glyph glyph-name="uni0122.ss03" horiz-adv-x="766" 
d="M73 296q-1 78 26 154t75 135t120 95t153 34q121 0 200 -59.5t105 -151.5l-98 -30q-20 69 -77 112.5t-139 43.5q-77 2 -140 -45.5t-96.5 -124.5t-32.5 -163q0 -105 60.5 -165t152.5 -60q95 0 153.5 49t79.5 137h-240l18 85h337q-13 -158 -102.5 -257t-245.5 -99
q-141 0 -225 82t-84 228zM237 -310l87 115h-49l23 107h103l-25 -111l-83 -111h-56z" />
    <glyph glyph-name="Gdotaccent.ss03" horiz-adv-x="766" 
d="M73 296q-1 78 26 154t75 135t120 95t153 34q121 0 200 -59.5t105 -151.5l-98 -30q-20 69 -77 112.5t-139 43.5q-77 2 -140 -45.5t-96.5 -124.5t-32.5 -163q0 -105 60.5 -165t152.5 -60q95 0 153.5 49t79.5 137h-240l18 85h337q-13 -158 -102.5 -257t-245.5 -99
q-141 0 -225 82t-84 228zM459 771l23 108h89l-23 -108h-89z" />
    <glyph glyph-name="Scedilla.ss04" horiz-adv-x="595" 
d="M542 202q0 -88 -66 -150t-181 -66l-13 -10q-24 -18 -54 -26l8 -26q26 12 48 12q28 0 46 -16.5t18 -42.5q0 -42 -32.5 -66t-86.5 -24q-73 0 -107 46l40 46q26 -34 66 -34q21 0 33.5 9t12.5 24q0 13 -11 22t-31 9q-17 0 -29 -5l-22 39l53 46q-83 12 -137.5 65.5
t-63.5 131.5l92 33q9 -69 50 -109.5t114 -40.5q72 0 113 36t41 89q0 42 -27 67t-86 41l-81 24q-136 40 -136 172q0 90 68.5 152.5t169.5 62.5q105 0 163.5 -49.5t73.5 -125.5l-93 -29q-11 48 -44 84q-33 37 -105 37q-61 0 -101.5 -36.5t-40.5 -85.5q0 -41 22 -61.5t80 -38.5
l84 -26q68 -22 110 -67.5t42 -112.5z" />
    <glyph glyph-name="uni0162.ss04" horiz-adv-x="618" 
d="M109 700h594l-18 -85h-256l-131 -615l-32 -26q-9 -9 -53 -28l7 -20q21 10 47 10q27 0 46 -16.5t19 -42.5q0 -42 -32.5 -66t-86.5 -24q-73 0 -107 46l40 46q30 -34 66 -34q21 0 33.5 9t12.5 24q0 13 -11 22t-31 9q-17 0 -29 -5l-22 39l66 57h-24l131 615h-247z" />
    <glyph glyph-name="a.salt" horiz-adv-x="573" 
d="M41 185q-1 80 30 155t88 123t124 46q123 0 151 -133h51q-30 50 -29 119h85l-105 -495h-74q11 43 63 98h-59q-59 -112 -154 -112q-74 0 -122.5 54t-48.5 145zM413 300q0 134 -111 134q-74 2 -125 -74t-50 -168q0 -64 31.5 -97.5t81.5 -33.5q69 -3 122 75t51 164z" />
    <glyph glyph-name="aacute.salt" horiz-adv-x="573" 
d="M41 185q-1 80 30 155t88 123t124 46q123 0 151 -133h51q-30 50 -29 119h85l-105 -495h-74q11 43 63 98h-59q-59 -112 -154 -112q-74 0 -122.5 54t-48.5 145zM413 300q0 134 -111 134q-74 2 -125 -74t-50 -168q0 -64 31.5 -97.5t81.5 -33.5q69 -3 122 75t51 164zM314 567
l79 139h122l-141 -139h-60z" />
    <glyph glyph-name="abreve.salt" horiz-adv-x="573" 
d="M41 185q-1 80 30 155t88 123t124 46q123 0 151 -133h51q-30 50 -29 119h85l-105 -495h-74q11 43 63 98h-59q-59 -112 -154 -112q-74 0 -122.5 54t-48.5 145zM413 300q0 134 -111 134q-74 2 -125 -74t-50 -168q0 -64 31.5 -97.5t81.5 -33.5q69 -3 122 75t51 164zM222 666
q0 10 3 23h68v-9q0 -58 60 -58q65 0 86 67h77q-13 -56 -54.5 -94t-108.5 -38q-64 0 -97.5 31t-33.5 78z" />
    <glyph glyph-name="acircumflex.salt" horiz-adv-x="573" 
d="M41 185q-1 80 30 155t88 123t124 46q123 0 151 -133h51q-30 50 -29 119h85l-105 -495h-74q11 43 63 98h-59q-59 -112 -154 -112q-74 0 -122.5 54t-48.5 145zM413 300q0 134 -111 134q-74 2 -125 -74t-50 -168q0 -64 31.5 -97.5t81.5 -33.5q69 -3 122 75t51 164zM173 567
l132 122h126l80 -122h-84l-66 74l-98 -74h-90z" />
    <glyph glyph-name="adieresis.salt" horiz-adv-x="573" 
d="M41 185q-1 80 30 155t88 123t124 46q123 0 151 -133h51q-30 50 -29 119h85l-105 -495h-74q11 43 63 98h-59q-59 -112 -154 -112q-74 0 -122.5 54t-48.5 145zM413 300q0 134 -111 134q-74 2 -125 -74t-50 -168q0 -64 31.5 -97.5t81.5 -33.5q69 -3 122 75t51 164zM208 589
l21 100h94l-21 -100h-94zM398 589l21 100h94l-21 -100h-94z" />
    <glyph glyph-name="uni0227.salt" horiz-adv-x="573" 
d="M41 185q-1 80 30 155t88 123t124 46q123 0 151 -133h51q-30 50 -29 119h85l-105 -495h-74q11 43 63 98h-59q-59 -112 -154 -112q-74 0 -122.5 54t-48.5 145zM413 300q0 134 -111 134q-74 2 -125 -74t-50 -168q0 -64 31.5 -97.5t81.5 -33.5q69 -3 122 75t51 164zM306 592
l23 108h89l-23 -108h-89z" />
    <glyph glyph-name="uni1EA1.salt" horiz-adv-x="573" 
d="M41 185q-1 80 30 155t88 123t124 46q123 0 151 -133h51q-30 50 -29 119h85l-105 -495h-74q11 43 63 98h-59q-59 -112 -154 -112q-74 0 -122.5 54t-48.5 145zM413 300q0 134 -111 134q-74 2 -125 -74t-50 -168q0 -64 31.5 -97.5t81.5 -33.5q69 -3 122 75t51 164zM143 -195
l23 108h89l-23 -108h-89z" />
    <glyph glyph-name="agrave.salt" horiz-adv-x="573" 
d="M41 185q-1 80 30 155t88 123t124 46q123 0 151 -133h51q-30 50 -29 119h85l-105 -495h-74q11 43 63 98h-59q-59 -112 -154 -112q-74 0 -122.5 54t-48.5 145zM413 300q0 134 -111 134q-74 2 -125 -74t-50 -168q0 -64 31.5 -97.5t81.5 -33.5q69 -3 122 75t51 164zM322 567
l-79 139h108l20 -139h-49z" />
    <glyph glyph-name="amacron.salt" horiz-adv-x="573" 
d="M41 185q-1 80 30 155t88 123t124 46q123 0 151 -133h51q-30 50 -29 119h85l-105 -495h-74q11 43 63 98h-59q-59 -112 -154 -112q-74 0 -122.5 54t-48.5 145zM413 300q0 134 -111 134q-74 2 -125 -74t-50 -168q0 -64 31.5 -97.5t81.5 -33.5q69 -3 122 75t51 164zM200 593
l15 67h302l-15 -67h-302z" />
    <glyph glyph-name="aogonek.salt" horiz-adv-x="573" 
d="M315 -98q0 -37 53 -37q13 0 41 5l-14 -69q-30 -6 -54 -6q-47 0 -74.5 22t-27.5 63q0 74 130 140q14 35 56 78h-59q-59 -112 -154 -112q-74 0 -122.5 54t-48.5 145q-1 80 30 155t88 123t124 46q123 0 151 -133h51q-30 50 -29 119h85l-105 -494l1 -1q-122 -46 -122 -98z
M413 300q0 134 -111 134q-74 2 -125 -74t-50 -168q0 -64 31.5 -97.5t81.5 -33.5q69 -3 122 75t51 164z" />
    <glyph glyph-name="aring.salt" horiz-adv-x="573" 
d="M41 185q-1 80 30 155t88 123t124 46q123 0 151 -133h51q-30 50 -29 119h85l-105 -495h-74q11 43 63 98h-59q-59 -112 -154 -112q-74 0 -122.5 54t-48.5 145zM413 300q0 134 -111 134q-74 2 -125 -74t-50 -168q0 -64 31.5 -97.5t81.5 -33.5q69 -3 122 75t51 164zM238 650
q0 56 35.5 91t91.5 35q46 0 76.5 -30t30.5 -71q0 -55 -36.5 -90t-89.5 -35q-47 0 -77.5 29.5t-30.5 70.5zM411 668q0 24 -14 38.5t-37 14.5q-27 0 -44.5 -18.5t-17.5 -45.5q0 -24 13.5 -38t38.5 -14q24 0 42.5 19t18.5 44z" />
    <glyph glyph-name="aringacute.salt" horiz-adv-x="573" 
d="M41 185q-1 80 30 155t88 123t124 46q123 0 151 -133h51q-30 50 -29 119h85l-105 -495h-74q11 43 63 98h-59q-59 -112 -154 -112q-74 0 -122.5 54t-48.5 145zM413 300q0 134 -111 134q-74 2 -125 -74t-50 -168q0 -64 31.5 -97.5t81.5 -33.5q69 -3 122 75t51 164zM255 650
q0 56 35.5 91t91.5 35q46 0 76.5 -30t30.5 -71q0 -55 -36.5 -90t-89.5 -35q-47 0 -77.5 29.5t-30.5 70.5zM428 668q0 24 -14 38.5t-37 14.5q-27 0 -44.5 -18.5t-17.5 -45.5q0 -24 13.5 -38t38.5 -14q24 0 42.5 19t18.5 44zM362 794l79 139h122l-141 -139h-60z" />
    <glyph glyph-name="atilde.salt" horiz-adv-x="573" 
d="M41 185q-1 80 30 155t88 123t124 46q123 0 151 -133h51q-30 50 -29 119h85l-105 -495h-74q11 43 63 98h-59q-59 -112 -154 -112q-74 0 -122.5 54t-48.5 145zM413 300q0 134 -111 134q-74 2 -125 -74t-50 -168q0 -64 31.5 -97.5t81.5 -33.5q69 -3 122 75t51 164zM347 598
l-26 19q-23 17 -41 17t-31.5 -14t-18.5 -38h-72q28 121 120 121q40 0 72 -24l26 -18q24 -18 38 -18q35 0 50 46h74q-24 -118 -119 -118q-35 0 -72 27z" />
    <glyph glyph-name="ccedilla.ss04" horiz-adv-x="532" 
d="M408 175l76 -37q-64 -141 -209 -152l-14 -10q-24 -18 -54 -26l8 -26q25 12 48 12q28 0 46 -16.5t18 -42.5q0 -42 -32.5 -66t-86.5 -24q-73 0 -107 46l40 46q26 -34 66 -34q21 0 33.5 9t12.5 24q0 13 -11 22t-31 9q-17 0 -29 -5l-22 39l53 46q-79 12 -124.5 67t-45.5 145
q-1 77 31 147.5t94 116t139 44.5q77 0 129 -41t67 -108l-83 -22q-12 43 -42 70t-76 27q-53 1 -94 -35.5t-60 -87.5t-18 -103q0 -75 36.5 -112t93.5 -37q97 0 148 115z" />
    <glyph glyph-name="g.ss02" horiz-adv-x="578" 
d="M-27 -53l82 29q17 -108 137 -108q68 0 105 22.5t56 82.5q24 74 79 123h-56q-21 -33 -61 -59.5t-96 -26.5q-73 0 -123 51t-50 137q-1 78 28.5 149.5t86 117.5t125.5 44q77 0 110 -42q34 -41 43 -93h47q-22 46 -22 101q0 10 2 20h81l-105 -493q-24 -106 -83.5 -157.5
t-165.5 -51.5q-94 0 -150.5 39t-69.5 115zM421 295q0 65 -33.5 102t-92.5 37q-73 0 -117 -68.5t-44 -159.5q0 -125 115 -125q76 0 124 60.5t48 153.5z" />
    <glyph glyph-name="gbreve.ss02" horiz-adv-x="578" 
d="M-27 -53l82 29q17 -108 137 -108q68 0 105 22.5t56 82.5q24 74 79 123h-56q-21 -33 -61 -59.5t-96 -26.5q-73 0 -123 51t-50 137q-1 78 28.5 149.5t86 117.5t125.5 44q77 0 110 -42q34 -41 43 -93h47q-22 46 -22 101q0 10 2 20h81l-105 -493q-24 -106 -83.5 -157.5
t-165.5 -51.5q-94 0 -150.5 39t-69.5 115zM421 295q0 65 -33.5 102t-92.5 37q-73 0 -117 -68.5t-44 -159.5q0 -125 115 -125q76 0 124 60.5t48 153.5zM218 666q0 10 3 23h68v-9q0 -58 60 -58q65 0 86 67h77q-13 -56 -54.5 -94t-108.5 -38q-64 0 -97.5 31t-33.5 78z" />
    <glyph glyph-name="gcircumflex.ss02" horiz-adv-x="578" 
d="M-27 -53l82 29q17 -108 137 -108q68 0 105 22.5t56 82.5q24 74 79 123h-56q-21 -33 -61 -59.5t-96 -26.5q-73 0 -123 51t-50 137q-1 78 28.5 149.5t86 117.5t125.5 44q77 0 110 -42q34 -41 43 -93h47q-22 46 -22 101q0 10 2 20h81l-105 -493q-24 -106 -83.5 -157.5
t-165.5 -51.5q-94 0 -150.5 39t-69.5 115zM421 295q0 65 -33.5 102t-92.5 37q-73 0 -117 -68.5t-44 -159.5q0 -125 115 -125q76 0 124 60.5t48 153.5zM169 567l132 122h126l80 -122h-84l-66 74l-98 -74h-90z" />
    <glyph glyph-name="uni0123.ss02" horiz-adv-x="578" 
d="M-27 -53l82 29q17 -108 137 -108q68 0 105 22.5t56 82.5q24 74 79 123h-56q-21 -33 -61 -59.5t-96 -26.5q-73 0 -123 51t-50 137q-1 78 28.5 149.5t86 117.5t125.5 44q77 0 110 -42q34 -41 43 -93h47q-22 46 -22 101q0 10 2 20h81l-105 -493q-24 -106 -83.5 -157.5
t-165.5 -51.5q-94 0 -150.5 39t-69.5 115zM421 295q0 65 -33.5 102t-92.5 37q-73 0 -117 -68.5t-44 -159.5q0 -125 115 -125q76 0 124 60.5t48 153.5zM456 814l-87 -115h50l-23 -107h-103l24 111l83 111h56z" />
    <glyph glyph-name="gdotaccent.ss02" horiz-adv-x="578" 
d="M-27 -53l82 29q17 -108 137 -108q68 0 105 22.5t56 82.5q24 74 79 123h-56q-21 -33 -61 -59.5t-96 -26.5q-73 0 -123 51t-50 137q-1 78 28.5 149.5t86 117.5t125.5 44q77 0 110 -42q34 -41 43 -93h47q-22 46 -22 101q0 10 2 20h81l-105 -493q-24 -106 -83.5 -157.5
t-165.5 -51.5q-94 0 -150.5 39t-69.5 115zM421 295q0 65 -33.5 102t-92.5 37q-73 0 -117 -68.5t-44 -159.5q0 -125 115 -125q76 0 124 60.5t48 153.5zM302 592l23 108h89l-23 -108h-89z" />
    <glyph glyph-name="i.locl" horiz-adv-x="255" 
d="M158 592l23 108h89l-23 -108h-89zM33 0l105 495h86l-105 -495h-86z" />
    <glyph glyph-name="scedilla.ss04" horiz-adv-x="484" 
d="M420 148q0 -72 -51 -114.5t-138 -47.5l-13 -10q-24 -18 -54 -26l8 -26q26 12 48 12q28 0 46 -16.5t18 -42.5q0 -42 -32.5 -66t-86.5 -24q-73 0 -107 46l40 46q26 -34 66 -34q21 0 33.5 9t12.5 24q0 13 -11 22t-31 9q-17 0 -29 -5l-22 39l53 46q-68 11 -111 48t-44 96
l80 18q4 -44 35 -68.5t86 -24.5t86.5 21.5t31.5 58.5q0 28 -17 42.5t-63 28.5l-51 15q-67 20 -96 47.5t-29 83.5q0 65 55 109.5t135 44.5q86 0 134 -38.5t53 -98.5l-81 -18q-4 35 -29 60.5t-77 25.5q-53 0 -80.5 -23.5t-27.5 -52.5q0 -25 14.5 -37t59.5 -26l51 -15
q135 -39 135 -138z" />
    <glyph glyph-name="uni0163.ss04" horiz-adv-x="395" 
d="M252 423l-64 -298q0 -4 -0.5 -7.5t-1 -6t-0.5 -3.5q0 -33 46 -33h112l-16 -75h-78l-32 -24q-24 -18 -54 -26l8 -26q26 12 48 12q28 0 46 -16.5t18 -42.5q0 -42 -32.5 -66t-86.5 -24q-73 0 -107 46l40 46q26 -34 66 -34q21 0 33.5 9t12.5 24q0 13 -11 22t-31 9
q-17 0 -29 -5l-22 39l70 60q-87 16 -87 98q0 20 4 35l62 287h-114l15 72h114l33 155h86l-33 -155h134l-16 -72h-133z" />
    <glyph glyph-name="zero.onum" horiz-adv-x="634" 
d="M51 218q-2 117 85 205t207 86q110 0 175.5 -65t65.5 -165q2 -120 -82.5 -208t-206.5 -85q-109 0 -176.5 65.5t-67.5 166.5zM495 270q0 75 -42 119.5t-116 44.5q-85 0 -141 -61t-56 -147q0 -74 43 -119t118 -45q84 0 139 61t55 147z" />
    <glyph glyph-name="one.onum" horiz-adv-x="384" 
d="M163 0l55 258q16 77 41 113h-44q-28 -55 -74.5 -88t-102.5 -36l20 92q53 7 117.5 51.5t110.5 104.5h64l-105 -495h-82z" />
    <glyph glyph-name="two.onum" horiz-adv-x="506" 
d="M33 0l24 106q174 62 246 112t75 124q0 42 -28.5 67t-71.5 25q-93 0 -110 -104l-85 20q11 73 63 116t132 43q85 0 136 -47t51 -114q0 -95 -92 -163q-68 -51 -234 -106l18 -40q63 36 148 36h111l-16 -75h-367z" />
    <glyph glyph-name="three.onum" horiz-adv-x="548" 
d="M-14 -15q0 14 1 18l88 10q-1 -5 -1 -19q0 -56 36.5 -92t97.5 -36q64 0 106 41.5t42 98.5q0 54 -33.5 83t-90.5 29h-38l17 77h50q70 0 109 37.5t39 98.5q0 47 -32 75t-80 28q-54 0 -93 -36.5t-47 -91.5l-90 13q14 80 78.5 135t151.5 55q92 0 145.5 -48t53.5 -122
q0 -79 -50.5 -120t-122.5 -44l-9 -41q56 -10 93 -45t37 -90q0 -84 -66 -146t-169 -62q-107 0 -165 52t-58 142z" />
    <glyph glyph-name="four.onum" horiz-adv-x="577" 
d="M271 -195l41 195h-329l16 78l372 417h131l-89 -420h101l-16 -75h-101l-42 -195h-84zM233 75h95l38 178q12 54 25.5 80.5t40.5 58.5l7 9l-34 27l-2 -2l-309 -351l-9 -10l31 -29q21 15 31 21t31.5 11.5t54.5 6.5z" />
    <glyph glyph-name="five.onum" horiz-adv-x="554" 
d="M-14 -44l90 20q4 -49 41 -79.5t89 -30.5q76 0 123.5 51.5t47.5 126.5q0 54 -35.5 87t-93.5 33q-76 0 -138 -79l-90 25l131 385h378l-18 -84h-311l-44 -134q-17 -51 -32 -74q-17 -24 -40 -49h55q19 37 55.5 61t83.5 24q76 0 131.5 -51.5t55.5 -141.5q0 -107 -70.5 -181
t-185.5 -74q-94 0 -154 46.5t-69 118.5z" />
    <glyph glyph-name="six.onum" horiz-adv-x="604" 
d="M66 247q-2 119 48.5 227t144 175.5t205.5 64.5q95 0 146 -23l-19 -83q-54 22 -128 22q-113 0 -202 -76t-119 -219h42q17 49 61 83t110 34q94 0 148 -55.5t54 -141.5q2 -108 -79.5 -189.5t-189.5 -79.5q-112 0 -167 62.5t-55 198.5zM470 247q0 62 -36.5 96t-100.5 34
q-68 2 -123.5 -57.5t-53.5 -131.5q0 -59 37 -93t95 -34q75 0 128.5 56.5t53.5 129.5z" />
    <glyph glyph-name="seven.onum" horiz-adv-x="505" 
d="M422 416l15 11l-25 34q-57 -43 -142 -43h-215l16 77h465l-18 -87q-189 -137 -272.5 -273.5t-110.5 -329.5h-92q27 190 119 337.5t260 273.5z" />
    <glyph glyph-name="eight.onum" horiz-adv-x="584" 
d="M44 168q0 85 54.5 130.5t150.5 49.5l7 42q-58 9 -92 41.5t-34 81.5q0 88 65.5 144.5t166.5 56.5q88 0 146 -48.5t58 -123.5t-49 -115t-132 -46l-8 -41q66 -12 103 -48t37 -94q0 -89 -70 -150.5t-179 -61.5q-107 0 -165.5 51t-58.5 131zM478 530q0 50 -34.5 79.5
t-85.5 29.5q-60 0 -100 -38.5t-40 -93.5q0 -48 33 -73.5t87 -25.5q63 0 101.5 34.5t38.5 87.5zM425 206q0 55 -35.5 83.5t-99.5 28.5q-69 0 -111.5 -38.5t-42.5 -97.5q0 -56 37.5 -88.5t96.5 -32.5q69 0 112 42t43 103z" />
    <glyph glyph-name="nine.onum" horiz-adv-x="612" 
d="M8 -186l19 83q53 -22 127 -22q116 0 202 73t109 202h-41q-14 -38 -58 -72.5t-108 -34.5q-93 0 -147.5 55.5t-54.5 141.5q-2 108 79.5 189.5t189.5 79.5q104 0 163 -65.5t59 -195.5q0 -209 -107.5 -333t-285.5 -124q-95 0 -146 23zM458 307q0 59 -37 93t-95 34
q-75 0 -128.5 -56.5t-53.5 -129.5q0 -62 36 -96t101 -34q68 -2 123.5 57.5t53.5 131.5z" />
    <glyph glyph-name="zero.tnum" 
d="M45 271q-2 113 38.5 215t117.5 166t171 62q112 0 179 -79.5t67 -210.5q2 -178 -90.5 -310t-235.5 -128q-119 0 -183 76.5t-64 208.5zM524 426q0 91 -40.5 148.5t-116.5 57.5q-64 2 -118 -53.5t-82.5 -139.5t-27.5 -170q0 -94 40 -147.5t118 -53.5q65 -2 118.5 52
t81.5 136.5t27 169.5z" />
    <glyph glyph-name="one.tnum" 
d="M360 85h167l-18 -85h-458l18 85h201l80 377q16 78 47 123h-47q-30 -61 -79.5 -98.5t-110.5 -39.5l21 97q61 8 125.5 50.5t112.5 105.5h72z" />
    <glyph glyph-name="two.tnum" 
d="M31 0l25 111q155 78 246 136q195 126 195 255q0 61 -35.5 95t-94.5 34t-99 -43t-46 -117l-95 22q14 103 78 162t168 59q99 0 159.5 -58.5t60.5 -145.5q0 -138 -130 -244q-101 -81 -335 -185l23 -40q61 44 149 44h215l-18 -85h-466z" />
    <glyph glyph-name="three.tnum" 
d="M58 200l95 15q-3 -68 32 -108.5t102 -40.5q65 0 106.5 41t41.5 99q0 54 -33.5 82.5t-90.5 28.5h-46l17 78h46q76 0 118 38t42 99q0 46 -33 74t-81 28q-57 0 -95.5 -34.5t-47.5 -94.5l-94 22q17 84 80.5 135.5t162.5 51.5q89 0 145 -47t56 -120q0 -80 -55 -125.5
t-130 -48.5l-8 -38q59 -5 100 -43.5t41 -96.5q0 -83 -67 -146t-174 -63q-113 0 -173 57.5t-57 156.5z" />
    <glyph glyph-name="four.tnum" 
d="M327 0l41 194h-334l20 94l362 412h150l-91 -428h101l-17 -78h-101l-41 -194h-90zM385 272l43 204q17 81 69 133l-33 28l-9 -10l-314 -362l31 -30q18 14 23 17.5t18.5 9.5t27.5 7.5t39 2.5h105z" />
    <glyph glyph-name="five.tnum" 
d="M53 162l94 20q4 -53 44.5 -84.5t96.5 -31.5q77 0 121.5 48.5t44.5 123.5q0 56 -35 90t-94 34q-77 0 -143 -79l-96 25l130 392h403l-18 -85h-329l-42 -129q-27 -80 -76 -136h54q16 33 56 62t93 29q77 0 134 -54t57 -143q0 -115 -72.5 -186.5t-191.5 -71.5
q-100 0 -161 49.5t-70 126.5z" />
    <glyph glyph-name="six.tnum" 
d="M72 263q-1 121 44.5 223.5t136 166t209.5 61.5q95 0 159 -26l-19 -88q-76 26 -147 26q-120 0 -204.5 -80.5t-105.5 -224.5h43q13 51 61.5 91t117.5 40q88 0 144.5 -57.5t56.5 -140.5q0 -112 -73 -190t-186 -78t-175 71t-62 206zM472 241q0 62 -35.5 96.5t-98.5 34.5
q-66 0 -115.5 -52.5t-49.5 -120.5q0 -60 37.5 -96.5t95.5 -36.5q70 0 118 53t48 122z" />
    <glyph glyph-name="seven.tnum" 
d="M543 615l16 11l-23 34q-65 -45 -151 -45h-228l18 85h465l-23 -112q-178 -115 -256.5 -250.5t-102.5 -337.5h-105q49 406 390 615z" />
    <glyph glyph-name="eight.tnum" 
d="M53 173q0 78 57.5 124t146.5 51l10 41q-58 13 -91.5 46.5t-33.5 87.5q0 84 69 137.5t172 53.5q92 0 151.5 -48.5t59.5 -124.5q0 -71 -52 -113.5t-125 -47.5l-9 -41q58 -13 96.5 -51t38.5 -92q0 -89 -70.5 -149.5t-190.5 -60.5q-109 0 -169 52t-60 135zM500 531
q0 47 -34.5 75t-87.5 28q-62 0 -102.5 -36t-40.5 -89q0 -102 121 -102q71 0 107.5 35t36.5 89zM448 204q0 54 -37 83.5t-103 29.5q-76 0 -118 -38.5t-42 -97.5q0 -54 38.5 -84.5t100.5 -30.5q71 0 116 40t45 98z" />
    <glyph glyph-name="nine.tnum" 
d="M45 15l19 88q61 -27 141 -27q101 0 168 49q110 82 135 238h-41q-49 -104 -164 -104q-91 0 -146 57t-55 144q0 108 67.5 181t178.5 73q99 0 163 -64q75 -77 75 -226q1 -122 -41.5 -221t-129 -158.5t-204.5 -58.5q-110 0 -166 29zM484 496q0 63 -38.5 100.5t-93.5 37.5
q-69 0 -111.5 -48t-42.5 -114q0 -61 36 -97.5t94 -36.5q72 0 114 44.5t42 113.5z" />
    <glyph glyph-name="zero.subs" horiz-adv-x="424" 
d="M10 48q0 106 55 178t136 72q66 0 106 -45.5t40 -121.5q0 -106 -54 -176.5t-136 -70.5q-69 0 -108 43.5t-39 120.5zM269 132q0 47 -19 74t-52 27q-44 0 -76.5 -56t-32.5 -130q0 -98 71 -98q44 0 76.5 55t32.5 128z" />
    <glyph glyph-name="one.subs" horiz-adv-x="281" 
d="M57 -108l50 230q10 51 32 84h-32q-39 -67 -100 -71l15 70q33 1 69 24t64 61h63l-85 -398h-76z" />
    <glyph glyph-name="two.subs" horiz-adv-x="373" 
d="M-10 -108l17 82q124 67 171.5 107.5t50.5 91.5q0 28 -15 44t-42 16q-29 0 -46.5 -24.5t-17.5 -65.5l-80 18q6 64 45.5 100.5t102.5 36.5q57 0 94.5 -34.5t37.5 -86.5q0 -68 -60 -122q-38 -33 -134 -76l-42 -20l16 -29q46 28 106 28h75l-14 -66h-265z" />
    <glyph glyph-name="three.subs" horiz-adv-x="370" 
d="M-9 6v12l80 12q-1 -7 -1 -16q0 -66 59 -66q28 0 47 19t19 46q0 50 -58 50h-36l13 62h37q33 0 52.5 17t19.5 47q0 20 -13 32.5t-34 12.5q-55 0 -66 -71l-78 17q7 53 47.5 85.5t99.5 32.5q53 0 87.5 -27.5t34.5 -69.5q0 -41 -27 -65.5t-75 -24.5l-6 -30q36 -2 58 -24
t22 -53q0 -50 -42 -85t-104 -35q-63 0 -99.5 33t-36.5 89z" />
    <glyph glyph-name="four.subs" horiz-adv-x="378" 
d="M-5 6v12l80 12q-1 -7 -1 -16q0 -66 59 -66q28 0 47 19t19 46q0 50 -58 50h-36l13 62h37q33 0 52.5 17t19.5 47q0 20 -13 32.5t-34 12.5q-55 0 -66 -71l-78 17q7 53 47.5 85.5t99.5 32.5q53 0 87.5 -27.5t34.5 -69.5q0 -41 -27 -65.5t-75 -24.5l-6 -30q36 -2 58 -24
t22 -53q0 -50 -42 -85t-104 -35q-63 0 -99.5 33t-36.5 89z" />
    <glyph glyph-name="five.subs" horiz-adv-x="378" 
d="M-9 -3l77 17q1 -30 18.5 -48t46.5 -18q32 0 53.5 23.5t21.5 57.5q0 27 -16 42.5t-40 15.5q-45 0 -68 -44l-77 19l76 228h244l-13 -66h-179l-13 -39q-18 -58 -55 -89h40q28 53 78 53q45 0 73.5 -32t28.5 -83q0 -66 -42 -108t-111 -42q-61 0 -99.5 31t-43.5 82z" />
    <glyph glyph-name="six.subs" horiz-adv-x="392" 
d="M9 44q0 112 63 183t162 71q56 0 100 -20l-14 -67q-51 19 -89 19q-58 0 -103 -33t-56 -101h29q23 60 88 60q48 0 82 -33.5t34 -83.5q0 -66 -44.5 -110.5t-109.5 -44.5q-68 0 -105 42t-37 118zM225 32q0 61 -58 61q-30 0 -52.5 -25t-22.5 -59q0 -28 15.5 -44.5t41.5 -16.5
q31 0 53.5 24.5t22.5 59.5z" />
    <glyph glyph-name="seven.subs" horiz-adv-x="337" 
d="M219 224l14 8l-17 28q-50 -36 -107 -36h-84l14 66h280l-14 -66q-99 -70 -141.5 -142.5t-54.5 -189.5h-85q11 109 62 195.5t133 136.5z" />
    <glyph glyph-name="eight.subs" horiz-adv-x="382" 
d="M-6 -8q0 38 33 65.5t79 27.5l7 31q-35 2 -53 19.5t-18 43.5q0 51 40.5 85t103.5 34q55 0 90.5 -29.5t35.5 -74.5q0 -34 -25.5 -58t-71.5 -23l-7 -30q35 -5 56 -26t21 -50q0 -53 -43.5 -88t-109.5 -35q-62 0 -100 30t-38 78zM234 187q0 22 -14 34.5t-38 12.5
q-27 0 -44.5 -16.5t-17.5 -42.5q0 -22 13.5 -34.5t37.5 -12.5q28 0 45.5 16.5t17.5 42.5zM206 14q0 25 -16 39.5t-44 14.5q-31 0 -51.5 -19t-20.5 -48q0 -25 16 -39t44 -14q32 0 52 18.5t20 47.5z" />
    <glyph glyph-name="nine.subs" horiz-adv-x="388" 
d="M-8 -95l14 69q40 -21 87 -21q65 0 107 42q35 35 44 95h-30q-9 -27 -31 -42.5t-52 -15.5q-47 0 -77.5 33.5t-30.5 85.5q0 64 41 105.5t106 41.5q60 0 98 -38q44 -44 44 -129q0 -112 -59 -179.5t-157 -67.5q-60 0 -104 21zM229 170q0 29 -16 46.5t-43 17.5
q-28 0 -47.5 -22.5t-19.5 -54.5q0 -29 15 -45.5t41 -16.5q29 0 49.5 22t20.5 53z" />
    <glyph glyph-name="zero.dnom" horiz-adv-x="424" 
d="M33 156q0 106 55 178t136 72q66 0 106 -45.5t40 -121.5q0 -106 -54 -176.5t-136 -70.5q-69 0 -108 43.5t-39 120.5zM292 240q0 47 -19 74t-52 27q-44 0 -76.5 -56t-32.5 -130q0 -98 71 -98q44 0 76.5 55t32.5 128z" />
    <glyph glyph-name="one.dnom" horiz-adv-x="281" 
d="M80 0l50 230q10 51 32 84h-32q-39 -67 -100 -71l15 70q33 1 69 24t64 61h63l-85 -398h-76z" />
    <glyph glyph-name="two.dnom" horiz-adv-x="373" 
d="M13 0l17 82q124 67 171.5 107.5t50.5 91.5q0 28 -15 44t-42 16q-29 0 -46.5 -24.5t-17.5 -65.5l-80 18q6 64 45.5 100.5t102.5 36.5q57 0 94.5 -34.5t37.5 -86.5q0 -68 -60 -122q-38 -33 -134 -76l-42 -20l16 -29q46 28 106 28h75l-14 -66h-265z" />
    <glyph glyph-name="three.dnom" horiz-adv-x="370" 
d="M15 114v12l80 12q-1 -7 -1 -16q0 -66 59 -66q28 0 47 19t19 46q0 50 -58 50h-36l13 62h37q33 0 52.5 17t19.5 47q0 20 -13 32.5t-34 12.5q-55 0 -66 -71l-78 17q7 53 47.5 85.5t99.5 32.5q53 0 87.5 -27.5t34.5 -69.5q0 -41 -27 -65.5t-75 -24.5l-6 -30q36 -2 58 -24
t22 -53q0 -50 -42 -85t-104 -35q-63 0 -99.5 33t-36.5 89z" />
    <glyph glyph-name="four.dnom" horiz-adv-x="378" 
d="M164 0l22 105h-183l14 66l200 227h104l-49 -231h54l-13 -62h-55l-22 -105h-72zM200 167l11 54q11 47 56 91l-23 21l-156 -175l21 -21q30 30 76 30h15z" />
    <glyph glyph-name="five.dnom" horiz-adv-x="378" 
d="M14 105l77 17q1 -30 18.5 -48t46.5 -18q32 0 53.5 23.5t21.5 57.5q0 27 -15.5 42.5t-40.5 15.5q-45 0 -68 -44l-77 19l76 228h244l-13 -66h-179l-13 -39q-18 -58 -55 -89h40q28 53 78 53q45 0 73.5 -32t28.5 -83q0 -66 -42 -108t-111 -42q-61 0 -99.5 31t-43.5 82z" />
    <glyph glyph-name="six.dnom" horiz-adv-x="392" 
d="M32 152q0 112 63 183t162 71q56 0 100 -20l-14 -67q-51 19 -89 19q-58 0 -103 -33t-56 -101h29q23 60 88 60q48 0 82 -33.5t34 -83.5q0 -66 -44.5 -110.5t-109.5 -44.5q-68 0 -105 42t-37 118zM248 140q0 61 -58 61q-30 0 -52.5 -25t-22.5 -59q0 -28 15.5 -44.5
t41.5 -16.5q31 0 53.5 24.5t22.5 59.5z" />
    <glyph glyph-name="seven.dnom" horiz-adv-x="337" 
d="M242 332l14 8l-17 28q-50 -36 -107 -36h-84l14 66h280l-14 -66q-99 -70 -141.5 -142.5t-54.5 -189.5h-85q11 109 62 195.5t133 136.5z" />
    <glyph glyph-name="eight.dnom" horiz-adv-x="382" 
d="M17 100q0 38 33 65.5t79 27.5l7 31q-35 2 -53 19.5t-18 43.5q0 51 40.5 85t103.5 34q55 0 90.5 -29.5t35.5 -74.5q0 -34 -25.5 -58t-71.5 -23l-7 -30q35 -5 56 -26t21 -50q0 -53 -43.5 -88t-109.5 -35q-62 0 -100 30t-38 78zM257 295q0 22 -14 34.5t-38 12.5
q-27 0 -44.5 -16.5t-17.5 -42.5q0 -22 13.5 -34.5t37.5 -12.5q28 0 45.5 16.5t17.5 42.5zM229 122q0 25 -16 39.5t-44 14.5q-31 0 -51.5 -19t-20.5 -48q0 -25 16 -39t44 -14q32 0 52 18.5t20 47.5z" />
    <glyph glyph-name="nine.dnom" horiz-adv-x="388" 
d="M15 13l14 69q40 -21 87 -21q65 0 107 42q35 35 44 95h-30q-9 -27 -31 -42.5t-52 -15.5q-47 0 -77.5 33.5t-30.5 85.5q0 64 41 105.5t106 41.5q60 0 98 -38q44 -44 44 -129q0 -112 -59 -179.5t-157 -67.5q-61 0 -104 21zM252 278q0 29 -16 46.5t-43 17.5
q-28 0 -47.5 -22.5t-19.5 -54.5q0 -29 15 -45.5t41 -16.5q29 0 49.5 22t20.5 53z" />
    <glyph glyph-name="zero.numr" horiz-adv-x="424" 
d="M98 458q0 106 55 178t136 72q66 0 106 -45.5t40 -121.5q0 -106 -54 -176.5t-136 -70.5q-69 0 -108 43.5t-39 120.5zM357 542q0 47 -19 74t-52 27q-44 0 -76.5 -56t-32.5 -130q0 -98 71 -98q44 0 76.5 55t32.5 128z" />
    <glyph glyph-name="one.numr" horiz-adv-x="281" 
d="M145 302l50 230q10 51 32 84h-32q-39 -67 -100 -71l15 70q33 1 69 24t64 61h63l-85 -398h-76z" />
    <glyph glyph-name="two.numr" horiz-adv-x="373" 
d="M77 302l17 82q124 67 171.5 107.5t50.5 91.5q0 28 -15 44t-42 16q-29 0 -46.5 -24.5t-17.5 -65.5l-80 18q6 64 45.5 100.5t102.5 36.5q57 0 94.5 -34.5t37.5 -86.5q0 -68 -60 -122q-38 -33 -134 -76l-42 -20l16 -29q46 28 106 28h75l-14 -66h-265z" />
    <glyph glyph-name="three.numr" horiz-adv-x="370" 
d="M79 416v12l80 12q-1 -7 -1 -16q0 -66 59 -66q28 0 47 19t19 46q0 50 -58 50h-36l13 62h37q33 0 52.5 17t19.5 47q0 20 -13 32.5t-34 12.5q-55 0 -66 -71l-78 17q7 53 47.5 85.5t99.5 32.5q53 0 87.5 -27.5t34.5 -69.5q0 -41 -27 -65.5t-75 -24.5l-6 -30q36 -2 58 -24
t22 -53q0 -50 -42 -85t-104 -35q-63 0 -99.5 33t-36.5 89z" />
    <glyph glyph-name="four.numr" horiz-adv-x="378" 
d="M229 302l22 105h-183l14 66l200 227h104l-49 -231h54l-13 -62h-55l-22 -105h-72zM265 469l11 54q11 47 56 91l-23 21l-156 -175l21 -21q30 30 76 30h15z" />
    <glyph glyph-name="five.numr" horiz-adv-x="378" 
d="M78 407l77 17q1 -30 18.5 -48t46.5 -18q32 0 53.5 23.5t21.5 57.5q0 27 -15.5 42.5t-40.5 15.5q-45 0 -68 -44l-77 19l76 228h244l-13 -66h-179l-13 -39q-18 -58 -55 -89h40q28 53 78 53q45 0 73.5 -32t28.5 -83q0 -66 -42 -108t-111 -42q-61 0 -99.5 31t-43.5 82z" />
    <glyph glyph-name="six.numr" horiz-adv-x="392" 
d="M96 454q0 112 63 183t162 71q56 0 100 -20l-14 -67q-51 19 -89 19q-58 0 -103 -33t-56 -101h29q23 60 88 60q48 0 82 -33.5t34 -83.5q0 -66 -44.5 -110.5t-109.5 -44.5q-68 0 -105 42t-37 118zM312 442q0 61 -58 61q-30 0 -52.5 -25t-22.5 -59q0 -28 15.5 -44.5
t41.5 -16.5q31 0 53.5 24.5t22.5 59.5z" />
    <glyph glyph-name="seven.numr" horiz-adv-x="337" 
d="M306 634l14 8l-17 28q-50 -36 -107 -36h-84l14 66h280l-14 -66q-99 -70 -141.5 -142.5t-54.5 -189.5h-85q11 109 62 195.5t133 136.5z" />
    <glyph glyph-name="eight.numr" horiz-adv-x="382" 
d="M81 402q0 38 33 65.5t79 27.5l7 31q-35 2 -53 19.5t-18 43.5q0 51 40.5 85t103.5 34q55 0 90.5 -29.5t35.5 -74.5q0 -34 -25.5 -58t-71.5 -23l-7 -30q35 -5 56 -26t21 -50q0 -53 -43.5 -88t-109.5 -35q-62 0 -100 30t-38 78zM321 597q0 22 -14 34.5t-38 12.5
q-27 0 -44.5 -16.5t-17.5 -42.5q0 -22 13.5 -34.5t37.5 -12.5q28 0 45.5 16.5t17.5 42.5zM293 424q0 25 -16 39.5t-44 14.5q-31 0 -51.5 -19t-20.5 -48q0 -25 16 -39t44 -14q32 0 52 18.5t20 47.5z" />
    <glyph glyph-name="nine.numr" horiz-adv-x="388" 
d="M79 315l14 69q40 -21 87 -21q65 0 107 42q35 35 44 95h-30q-9 -27 -31 -42.5t-52 -15.5q-47 0 -77.5 33.5t-30.5 85.5q0 64 41 105.5t106 41.5q60 0 98 -38q44 -44 44 -129q0 -112 -59 -179.5t-157 -67.5q-61 0 -104 21zM316 580q0 29 -16 46.5t-43 17.5
q-28 0 -47.5 -22.5t-19.5 -54.5q0 -29 15 -45.5t41 -16.5q29 0 49.5 22t20.5 53z" />
    <glyph glyph-name="comma.ss04" horiz-adv-x="269" 
d="M-12 -135l60 80q24 32 69 46l-16 32q-30 -23 -57 -23h-12l26 125h119l-29 -132l-95 -128h-65z" />
    <glyph glyph-name="semicolon.ss04" horiz-adv-x="280" 
d="M-11 -135l60 80q24 32 69 46l-16 32q-30 -23 -57 -23h-12l26 125h119l-29 -132l-95 -128h-65zM110 370l27 125h119l-27 -125h-119z" />
    <glyph glyph-name="exclamdown.case" horiz-adv-x="292" 
d="M304 700l-27 -125h-119l27 125h119zM216 483l-32 -266l-46 -217h-89l47 221l85 262h35z" />
    <glyph glyph-name="questiondown.case" horiz-adv-x="485" 
d="M415 700l-27 -125h-118l26 125h119zM233 303q-65 -43 -89.5 -71t-27.5 -74q0 -42 25.5 -66.5t72.5 -24.5q57 0 92 38t44 111l87 -19q-7 -96 -70 -153t-160 -57q-81 0 -133 47.5t-52 115.5q0 49 21 86q20 36 50 63t93 70q51 34 63.5 51t21.5 63h90q-19 -78 -38.5 -105.5
t-89.5 -74.5z" />
    <glyph glyph-name="period.tnum" 
d="M188 0l32 150h143l-32 -150h-143z" />
    <glyph glyph-name="comma.tnum" 
d="M138 -162l120 162h-68l32 150h142l-33 -156l-115 -156h-78z" />
    <glyph glyph-name="colon.tnum" 
d="M268 385l32 150h143l-32 -150h-143zM187 0l32 150h143l-32 -150h-143z" />
    <glyph glyph-name="semicolon.tnum" 
d="M272 385l32 150h143l-32 -150h-143zM138 -162l120 162h-68l32 150h142l-33 -156l-115 -156h-78z" />
    <glyph glyph-name="semicolon.tnum_ss04" 
d="M273 386l32 150h143l-32 -150h-143zM139 -162l72 96q28 38 83 55l-20 38q-34 -27 -68 -27h-14l31 150h142l-34 -158l-114 -154h-78z" />
    <glyph glyph-name="numbersign.tnum" 
d="M35 0l39 93q13 31 31 51t54 39l-19 35q-46 -23 -101 -23h-25l16 75h118l70 164h-123l16 76h138l80 190h89l-38 -89q-13 -31 -30.5 -50.5t-52.5 -38.5l18 -35q48 23 101 23h42l80 190h89l-38 -89q-13 -31 -30.5 -50.5t-52.5 -38.5l18 -35q48 23 101 23h26l-16 -76h-119
l-70 -164h124l-16 -75h-139l-82 -195h-89l39 94q13 31 30 50.5t54 38.5l-19 35q-46 -23 -101 -23h-42l-81 -195h-89zM237 270h120l70 164h-120z" />
    <glyph glyph-name="parenleft.case" horiz-adv-x="327" 
d="M63 213q0 129 48 270q50 144 131 237q83 95 178 95l-17 -77q-72 -12 -132 -101q-61 -90 -95 -208t-34 -217q0 -112 22.5 -169.5t73.5 -73.5l-16 -79q-83 18 -121 98.5t-38 224.5z" />
    <glyph glyph-name="parenright.case" horiz-adv-x="327" 
d="M310 492q0 -129 -49 -270q-49 -143 -130 -236q-83 -96 -178 -96l17 77q72 12 132 101q59 86 94 208t35 217q0 112 -22.5 169.5t-73.5 73.5l16 79q83 -18 121 -98.5t38 -224.5z" />
    <glyph glyph-name="braceleft.case" horiz-adv-x="347" 
d="M90 11q0 23 6 53l26 120q10 46 10 69q0 31 -19 45t-64 14l17 79q65 3 87.5 28t39.5 100l30 142q17 77 52.5 110.5t119.5 33.5h38l-15 -70h-38q-33 0 -51.5 -18.5t-26.5 -58.5l-30 -138q-19 -90 -51 -121t-95 -31l-8 -36q88 0 88 -91q0 -30 -7 -62l-28 -132q-3 -17 -3 -32
q0 -45 48 -45h39l-15 -70h-40q-53 0 -81.5 29.5t-28.5 81.5z" />
    <glyph glyph-name="braceright.case" horiz-adv-x="346" 
d="M303 693q0 -23 -6 -53l-26 -119q-10 -46 -10 -69q0 -32 19 -46t64 -14l-17 -79q-65 -2 -88 -27t-39 -101l-30 -142q-17 -77 -52.5 -110.5t-119.5 -33.5h-38l15 70h38q33 0 51.5 18.5t26.5 58.5l30 138q19 90 51 121t95 31l8 36q-88 1 -88 91q0 30 7 62l28 132q4 15 4 32
q0 45 -49 45h-39l15 70h40q53 0 81.5 -29.5t28.5 -81.5z" />
    <glyph glyph-name="bracketleft.case" horiz-adv-x="346" 
d="M31 -100l193 905h211l-15 -70h-132l-163 -765h132l-15 -70h-211z" />
    <glyph glyph-name="bracketright.case" horiz-adv-x="346" 
d="M361 805l-193 -905h-211l15 70h132l163 765h-132l15 70h211z" />
    <glyph glyph-name="angleleft.case" horiz-adv-x="341" 
d="M428 771l-293 -428l113 -431l-75 -22l-122 463l315 462z" />
    <glyph glyph-name="angleright.case" horiz-adv-x="341" 
d="M214 815l122 -463l-315 -462l-62 44l293 428l-113 431z" />
    <glyph glyph-name="uni3010.case" horiz-adv-x="369" 
d="M31 -100l192 905h259q-118 -109 -185.5 -219t-94.5 -235q-15 -69 -15 -134q0 -160 103 -317h-259z" />
    <glyph glyph-name="uni3011.case" horiz-adv-x="369" 
d="M383 805l-192 -905h-259q229 211 280 454q15 69 15 135q0 161 -103 316h259z" />
    <glyph glyph-name="uni300C.case" horiz-adv-x="348" 
d="M103 363l94 442h251l-16 -72h-171l-79 -370h-79z" />
    <glyph glyph-name="uni300D.case" horiz-adv-x="354" 
d="M294 343l-94 -442h-251l16 72h171l79 370h79z" />
    <glyph glyph-name="uni300A.case" horiz-adv-x="555" 
d="M428 771l-293 -429l113 -435l-75 -22l-122 467l315 463zM651 771l-311 -455l106 -409l-75 -22l-115 440l333 490z" />
    <glyph glyph-name="uni300B.case" horiz-adv-x="553" 
d="M228 816l115 -440l-333 -490l-62 44l311 455l-106 409zM426 816l122 -466l-315 -464l-62 44l293 429l-113 435z" />
    <glyph glyph-name="uni3014.case" horiz-adv-x="315" 
d="M222 594l-105 -499l114 -166l-65 -44l-132 196l117 553l200 181l50 -58z" />
    <glyph glyph-name="uni3015.case" horiz-adv-x="315" 
d="M194 816l132 -195l-118 -554l-199 -181l-51 58l180 163l105 499l-114 166z" />
    <glyph glyph-name="uni300E.case" horiz-adv-x="476" 
d="M87 274l113 531h354l-43 -200h-160l-71 -331h-193zM172 344h59l68 321h158l14 70h-216z" />
    <glyph glyph-name="uni300F.case" horiz-adv-x="490" 
d="M434 432l-113 -531h-354l43 200h160l71 331h193zM349 362h-59l-68 -321h-158l-14 -70h216z" />
    <glyph glyph-name="hyphen.case" horiz-adv-x="425" 
d="M89 313l19 90h273l-19 -90h-273z" />
    <glyph glyph-name="uni00AD.case" horiz-adv-x="425" 
d="M89 313l19 90h273l-19 -90h-273z" />
    <glyph glyph-name="endash.case" horiz-adv-x="632" 
d="M92 318l18 80h474l-18 -80h-474z" />
    <glyph glyph-name="emdash.case" horiz-adv-x="959" 
d="M92 318l18 80h801l-18 -80h-801z" />
    <glyph glyph-name="quotesinglbase.ss04" horiz-adv-x="259" 
d="M-13 -128l57 76q22 30 66 44l-15 30q-29 -22 -54 -22h-11l24 119h113l-27 -125l-90 -122h-63z" />
    <glyph glyph-name="quotedblbase.ss04" horiz-adv-x="438" 
d="M-13 -128l57 76q22 30 66 44l-15 30q-29 -22 -54 -22h-11l24 119h113l-27 -125l-90 -122h-63zM166 -128l57 76q22 30 66 44l-15 30q-29 -22 -54 -22h-11l24 119h113l-27 -125l-90 -122h-63z" />
    <glyph glyph-name="quotedblleft.ss04" horiz-adv-x="431" 
d="M289 700l-58 -76q-21 -30 -65 -44l15 -30q29 22 54 22h11l-24 -119h-113l27 125l90 122h63zM468 700l-57 -76q-22 -30 -66 -44l15 -30q29 22 55 22h10l-24 -119h-113l27 125l90 122h63z" />
    <glyph glyph-name="quotedblright.ss04" horiz-adv-x="424" 
d="M105 454l57 76q22 30 66 44l-15 30q-29 -22 -54 -22h-11l24 119h113l-27 -125l-90 -122h-63zM284 454l57 76q22 30 66 44l-15 30q-29 -22 -54 -22h-11l24 119h113l-27 -125l-90 -122h-63z" />
    <glyph glyph-name="quoteleft.ss04" horiz-adv-x="252" 
d="M289 700l-58 -76q-21 -30 -65 -44l15 -30q29 22 54 22h11l-24 -119h-113l27 125l90 122h63z" />
    <glyph glyph-name="quoteright.ss04" horiz-adv-x="245" 
d="M105 454l57 76q22 30 66 44l-15 30q-29 -22 -54 -22h-11l24 119h113l-27 -125l-90 -122h-63z" />
    <glyph glyph-name="guillemotleft.case" horiz-adv-x="552" 
d="M351 566l-184 -222l82 -204h-85l-86 213l176 213h97zM567 566l-203 -246l72 -180h-85l-76 189l195 237h97z" />
    <glyph glyph-name="guillemotright.case" horiz-adv-x="553" 
d="M248 566l76 -189l-195 -237h-97l203 246l-72 180h85zM435 566l86 -213l-176 -213h-97l184 222l-82 204h85z" />
    <glyph glyph-name="guilsinglleft.case" horiz-adv-x="347" 
d="M351 566l-184 -222l82 -204h-85l-86 213l176 213h97z" />
    <glyph glyph-name="guilsinglright.case" horiz-adv-x="347" 
d="M229 566l86 -213l-176 -213h-97l184 222l-82 204h85z" />
    <glyph glyph-name="space.tnum" 
 />
    <glyph glyph-name="uni20BF.tnum" 
d="M594 209q0 -84 -68.5 -146t-177.5 -63l-22 -105h-75l22 105h-61l-22 -105h-75l23 105h-114l149 700h112l23 105h75l-22 -105h61l22 105h75l-24 -112q58 -15 92 -54t34 -93q0 -67 -42.5 -109.5t-120.5 -51.5l-8 -38q68 -5 106 -41t38 -97zM246 615l-45 -210h174
q70 0 111 33.5t41 89.5q0 87 -115 87h-166zM499 220q0 48 -33.5 74.5t-91.5 26.5h-190l-51 -236h206q72 0 116 37.5t44 97.5z" />
    <glyph glyph-name="cent.tnum" 
d="M203 -119l24 115q-68 19 -106 72t-38 132q-2 73 30.5 143.5t92.5 117.5t131 48l22 105h70l-24 -112q56 -14 93 -50.5t47 -85.5l-84 -26q-15 69 -72 87l-48 -224q-14 -62 -25.5 -90t-39.5 -56l21 -29q113 36 159 142l71 -38q-73 -146 -232 -146l-22 -105h-70zM244 72
l45 213q11 58 23.5 89t41.5 57l-21 29q-75 -28 -118.5 -99.5t-43.5 -160.5q0 -96 73 -128z" />
    <glyph glyph-name="currency.tnum" 
d="M93 84l-50 58l92 80q-24 44 -24 99q0 88 60 164l-71 83l57 50l73 -81q62 37 131 37q62 0 117 -38l93 82l49 -56l-94 -83q26 -46 26 -99q0 -86 -58 -157l72 -81l-57 -53l-73 84q-63 -44 -132 -44q-66 0 -119 38zM469 382q0 51 -31 81.5t-80 30.5q-68 0 -116 -52.5
t-48 -120.5q0 -50 31.5 -80.5t81.5 -30.5q66 0 114 52.5t48 119.5z" />
    <glyph glyph-name="dollar.tnum" 
d="M191 -106l22 102q-70 19 -114 67t-52 113l92 33q14 -98 92 -128l52 241l-22 8q-65 23 -100 60t-35 105q0 95 68 156.5t173 61.5l20 91h77l-22 -100q63 -16 102 -57.5t52 -94.5l-91 -32q-20 74 -81 98l-50 -230l28 -10q63 -22 107 -67.5t44 -110.5q0 -99 -69.5 -156.5
t-195.5 -57.5l-20 -92h-77zM303 413l21 101q9 41 21.5 65.5t39.5 48.5l-15 32q-77 -15 -115.5 -52t-38.5 -104q0 -69 87 -91zM455 198q0 73 -100 101l-25 -121q-7 -35 -19.5 -58.5t-39.5 -50.5l16 -32q75 12 121.5 55t46.5 106z" />
    <glyph glyph-name="Euro.tnum" 
d="M118 238h-93l16 75h79q8 62 14 83h-75l16 75h82q40 109 114.5 176t165.5 67q100 0 151.5 -59.5t56.5 -142.5l-90 -17q-4 52 -32 95q-25 43 -92 43q-118 0 -212 -171l29 -21q33 30 94 30h113l-15 -75h-229q-6 -21 -10 -44q-4 -25 -4 -39h225l-16 -75h-120q-36 0 -51 6
t-32 23l-28 -16q14 -89 55 -136t104 -47q101 0 161 142l76 -31q-29 -84 -90.5 -138.5t-152.5 -54.5q-98 0 -152.5 67.5t-57.5 184.5z" />
    <glyph glyph-name="uni20BA.tnum" 
d="M102 0l31 145q15 63 54 114l-33 21q-28 -48 -61 -64l-39 -20l20 92l100 52l13 63l-101 -52l19 91l102 52l43 206h91l-14 -67q-11 -54 -49 -100l33 -21q38 56 92 84l157 83l-20 -94l-251 -131l-13 -60l252 131l-20 -93l-253 -132l-44 -215h22q30 0 67.5 10.5t77.5 32
t73 60.5t46 89l88 -38q-29 -93 -127 -167t-233 -72h-123z" />
    <glyph glyph-name="uni20BD.tnum" 
d="M370 278h-149l-15 -70h213l-16 -75h-213l-28 -133h-91l28 133h-76l15 75h78l14 70h-76l17 80h76l73 342h185q109 0 169 -52.5t60 -141.5q0 -100 -73 -164t-191 -64zM293 615l-55 -257h129q80 0 126.5 41t46.5 107q0 50 -36.5 79.5t-101.5 29.5h-109z" />
    <glyph glyph-name="uni20B9.tnum" 
d="M470 647l-22 -36q34 -18 53 -51h111l-16 -76h-82q-16 -125 -196 -133l-8 -40q74 -1 100.5 -30.5t31.5 -103.5l12 -177h-99l-7 169q-3 67 -36.5 95.5t-110.5 28.5h-108l18 84h149q68 0 111.5 27.5t55.5 79.5h-293l16 76h276q-24 65 -132 65h-131l16 75h463l-16 -75h-52
q-72 0 -104 22z" />
    <glyph glyph-name="sterling.tnum" 
d="M308 85h232l-18 -85h-498l17 80q71 16 115.5 60t44.5 106q0 32 -9 65h-100l16 75h59q-20 60 -20 115q0 96 67 154t170 58q90 0 153.5 -50.5t64.5 -140.5l-91 -23q-5 67 -40.5 100.5t-94.5 33.5q-60 0 -96.5 -37t-36.5 -96q0 -42 20 -114h181l-16 -75h-143q5 -28 5 -48
q0 -65 -33 -104.5t-100 -67.5l21 -40q55 34 130 34z" />
    <glyph glyph-name="uni20A9.tnum" 
d="M658 700l-81 -242h70l-15 -70h-79l-25 -75h88l-15 -70h-97l-81 -243h-125l32 199l7 46q12 69 22 139h-40q-27 -110 -49 -188l-56 -196h-128l24 243h-92l15 70h84l7 75h-75l15 70h67l24 242h93l-29 -222q-12 -91 -66 -379h40l45 160l68 236h115l-23 -196q-9 -74 -27 -179
l-3 -17h40q45 228 87 367l70 230h93z" />
    <glyph glyph-name="yen.tnum" 
d="M697 700l-265 -307h138l-16 -75h-181l-17 -80h181l-16 -75h-181l-35 -163h-91l35 163h-189l16 75h189l17 80h-189l16 75h142l-140 307h99l83 -188q26 -60 26 -114q0 -17 -1 -26h40q21 90 66 144l155 184h118z" />
    <glyph glyph-name="_576" 
d="M151 111l-58 58l181 181l-182 181l60 60l182 -181l180 180l58 -58l-180 -180l181 -182l-60 -60l-181 182z" />
    <glyph glyph-name="plus.tnum" 
d="M290 85v225h-225v85h225v225h85v-225h225v-85h-225v-225h-85z" />
    <glyph glyph-name="minus.tnum" 
d="M90 311v85h481v-85h-481z" />
    <glyph glyph-name="multiply.tnum" 
d="M151 111l-58 58l181 181l-182 181l60 60l182 -181l180 180l58 -58l-180 -180l181 -182l-60 -60l-181 182z" />
    <glyph glyph-name="divide.tnum" 
d="M279 495v125h108v-125h-108zM92 310v85h482v-85h-482zM279 85v125h108v-125h-108z" />
    <glyph glyph-name="equal.tnum" 
d="M85 415v85h481v-85h-481zM85 200v85h481v-85h-481z" />
    <glyph glyph-name="notequal.tnum" 
d="M134 85l64 115h-115v85h161l29 53q24 40 69 69l-19 35q-42 -27 -89 -27h-151v85h279l67 120h85l-66 -120h116v-85h-163l-28 -53q-22 -39 -70 -70l19 -35q43 28 89 28h153v-85h-282l-63 -115h-85z" />
    <glyph glyph-name="greater.tnum" 
d="M114 69v98l291 126q77 33 138 36v38q-59 1 -138 36l-291 126v102l481 -215v-132z" />
    <glyph glyph-name="less.tnum" 
d="M550 631v-98l-290 -126q-76 -31 -138 -36v-38q58 -1 138 -36l290 -126v-102l-480 215v132z" />
    <glyph glyph-name="greaterequal.tnum" 
d="M93 198v91l291 80q64 17 139 22v38q-61 1 -139 22l-291 79v95l482 -143v-141zM93 85v85h482v-85h-482z" />
    <glyph glyph-name="lessequal.tnum" 
d="M562 198l-482 143v141l482 143v-91l-291 -80q-58 -17 -140 -22v-38q62 -1 140 -22l291 -79v-95zM80 85v85h482v-85h-482z" />
    <glyph glyph-name="plusminus.tnum" 
d="M284 241v142h-202v85h202v152h77v-152h202v-85h-202v-142h-77zM82 85v85h481v-85h-481z" />
    <glyph glyph-name="approxequal.tnum" 
d="M334 401l-30 13q-59 25 -89 25q-48 0 -97 -49l-48 69q32 34 72.5 53t77.5 19q38 0 100 -27l30 -13q59 -25 89 -25q48 0 97 49l48 -69q-32 -34 -72.5 -53t-77.5 -19t-100 27zM334 181l-30 13q-59 25 -89 25q-48 0 -97 -49l-48 69q32 34 72.5 53t77.5 19q38 0 100 -27
l30 -13q59 -25 89 -25q48 0 97 49l48 -69q-32 -34 -72.5 -53t-77.5 -19t-100 27z" />
    <glyph glyph-name="logicalnot.tnum" 
d="M474 159v152h-401v85h478v-237h-77z" />
    <glyph glyph-name="percent.tnum" 
d="M75 511q0 80 44 141.5t110 61.5q58 0 87.5 -35.5t29.5 -96.5q0 -81 -42 -140t-107 -59q-57 0 -89.5 35t-32.5 93zM42 0l507 700h77l-506 -700h-78zM271 590q0 59 -45 59q-35 0 -55 -45.5t-20 -99.5q0 -56 46 -56q34 0 54 45t20 97zM317 114q0 80 44 141.5t110 61.5
q58 0 87.5 -35.5t29.5 -96.5q0 -81 -42 -140t-107 -59q-58 0 -90 34.5t-32 93.5zM513 193q0 59 -45 59q-35 0 -55 -45.5t-20 -99.5q0 -56 46 -56q34 0 54 45t20 97z" />
    <glyph glyph-name="perthousand.tnum" 
d="M58 492q0 90 39 156t104 66q45 0 68 -28t23 -79q0 -89 -38.5 -156.5t-102.5 -67.5q-93 0 -93 109zM475 700h75l-506 -700h-76zM129 487q0 -39 27 -39q26 -3 46.5 55t19.5 106q0 40 -28 40q-27 3 -46 -53.5t-19 -108.5zM607 208q0 -89 -36 -155.5t-100 -66.5q-50 0 -74 38
q-31 -37 -75 -37q-45 0 -69 28t-24 81q0 88 36 155t100 67q49 0 74 -38q31 37 75 37q45 0 69 -28t24 -81zM393 213q0 40 -28 40q-27 3 -46.5 -54t-18.5 -108q0 -39 27 -39q27 -3 46.5 54t19.5 107zM536 213q0 39 -27 39q-28 2 -47.5 -54.5t-18.5 -106.5q0 -40 28 -40
q20 -2 35.5 27t22.5 66t7 69z" />
    <glyph glyph-name="at.case" horiz-adv-x="894" 
d="M71 284q-3 206 127.5 344.5t323.5 135.5q171 2 271 -96.5t98 -239.5q2 -123 -68.5 -213t-161.5 -88q-87 0 -87 70v12h-32q-40 -82 -121 -82q-69 0 -109 49t-40 127q-2 92 62 174.5t148 79.5q85 0 109 -80h33q-5 38 -5 48q0 8 2 20h75l-67 -305q-2 -14 -2 -15
q0 -33 41 -33q57 0 100 72t43 164q0 113 -75 188.5t-214 75.5q-156 2 -264 -113t-105 -286q0 -137 85.5 -211.5t214.5 -74.5q151 0 252 68l29 -67q-108 -73 -281 -73q-169 -2 -276.5 95t-105.5 254zM591 382q0 110 -98 110q-55 2 -98 -61t-42 -127q0 -112 80 -112
q68 0 113 58t45 132z" />
    <glyph glyph-name="registered.case" horiz-adv-x="890" 
d="M81 360q-3 155 114 271.5t275 113.5q159 3 275 -113.5t113 -271.5q3 -156 -113 -271.5t-275 -112.5q-159 -3 -275.5 112.5t-113.5 271.5zM788 360q2 131 -92 227t-226 93q-132 3 -226.5 -93t-92.5 -227q-2 -130 92.5 -225.5t226.5 -93.5q132 -2 226 93.5t92 225.5z
M324 166v401h168q60 0 99 -28t39 -76q0 -42 -29.5 -64.5t-76.5 -25.5v-32q39 -2 59 -20t30 -64l21 -91h-73l-18 93q-9 44 -27.5 59t-59.5 15h-67v-167h-65zM389 390h93q80 0 80 60q0 58 -80 58h-93v-118z" />
    <glyph glyph-name="section.tnum" 
d="M59 -39l85 20q0 -49 26.5 -78.5t78.5 -29.5q50 0 82.5 32t32.5 75q0 29 -16 45.5t-53 29.5l-104 39q-124 47 -124 144q0 57 40 94.5t115 45.5l8 40q-61 38 -61 108q0 79 59.5 133.5t145.5 54.5q90 0 140.5 -46t50.5 -123l-84 -20q0 49 -27.5 78t-80.5 29q-50 0 -81.5 -31
t-31.5 -75q0 -29 16 -45.5t51 -29.5l104 -39q125 -46 125 -141q0 -58 -41.5 -96t-119.5 -49l-8 -40q68 -45 68 -110q0 -76 -60.5 -130.5t-145.5 -54.5q-89 0 -139.5 46t-50.5 124zM463 249q0 50 -63 73l-77 27q-19 7 -36 16l-10 5q-118 -47 -118 -112q0 -49 63 -74l70 -26
l44 -18q69 23 98 48t29 61z" />
    <glyph glyph-name="degree.tnum" 
d="M215 605q0 69 48 117t120 48t120 -48t48 -117q0 -70 -48 -117t-121 -47q-71 0 -119 48t-48 116zM471 606q0 42 -24 68t-64 26q-38 0 -63 -26.5t-25 -67.5q0 -43 25 -70t63 -27q40 0 64 27t24 70z" />
    <glyph glyph-name="_642" horiz-adv-x="0" 
d="M-92 479l87 115h-49l23 107h103l-25 -111l-83 -111h-56z" />
    <glyph glyph-name="_647" horiz-adv-x="277" 
d="M17 650q0 56 35.5 91t91.5 35q46 0 76.5 -30t30.5 -71q0 -55 -36.5 -90t-89.5 -35q-47 0 -77.5 29.5t-30.5 70.5zM190 668q0 24 -14 38.5t-37 14.5q-27 0 -44.5 -18.5t-17.5 -45.5q0 -24 13.5 -38t38.5 -14q24 0 42.5 19t18.5 44zM124 794l79 139h122l-141 -139h-60z" />
    <glyph glyph-name="uni0327.ss04" horiz-adv-x="0" 
d="M-262 -167l40 46q26 -34 66 -34q21 0 33.5 9t12.5 24q0 13 -11 22t-31 9q-17 0 -29 -5l-22 39l88 76l45 -19l-32 -24q-24 -18 -54 -26l8 -26q26 12 48 12q27 0 45.5 -16.5t18.5 -42.5q0 -41 -33 -65.5t-86 -24.5q-73 0 -107 46z" />
    <glyph glyph-name="cedilla.ss04" horiz-adv-x="349" 
d="M38 -167l40 46q25 -34 67 -34q54 0 54 34q0 13 -12 21.5t-33 8.5q-22 0 -35 -5l-22 39l88 76l42 -19l-32 -26q-12 -11 -29 -24q3 1 12 1q36 0 61 -21t25 -53q0 -42 -32 -66t-87 -24q-73 0 -107 46z" />
    <glyph glyph-name="_670" horiz-adv-x="0" 
d="M-346 566l23 100h103l-23 -100h-103zM-138 566l24 100h103l-23 -100h-104z" />
    <glyph glyph-name="_671" horiz-adv-x="0" 
d="M-116 566l23 108h89l-23 -108h-89z" />
    <glyph glyph-name="_672" horiz-adv-x="0" 
d="M-81 566l-86 139h118l22 -139h-54z" />
    <glyph glyph-name="_673" horiz-adv-x="0" 
d="M-104 566l86 139h135l-155 -139h-66z" />
    <glyph glyph-name="_674" horiz-adv-x="0" 
d="M-383 566l86 139h134l-155 -139h-65zM-209 566l86 139h135l-156 -139h-65z" />
    <glyph glyph-name="_675" horiz-adv-x="0" 
d="M-412 566l145 122h138l88 -122h-92l-73 74l-107 -74h-99z" />
    <glyph glyph-name="_676" horiz-adv-x="0" 
d="M-38 688l-145 -122h-138l-89 122h93l72 -74l108 74h99z" />
    <glyph glyph-name="_677" horiz-adv-x="0" 
d="M-328 665q0 9 3 23h75v-9q0 -58 65 -58q70 0 96 67h84q-13 -56 -59 -94t-121 -38q-69 0 -106 31t-37 78z" />
    </font>
</defs>
</svg>
