<?xml version="1.0" standalone="no"?>
<!DOCTYPE svg PUBLIC "-//W3C//DTD SVG 1.1//EN" "http://www.w3.org/Graphics/SVG/1.1/DTD/svg11.dtd" >
<svg xmlns="http://www.w3.org/2000/svg" xmlns:xlink="http://www.w3.org/1999/xlink" version="1.1">
<metadata>
Created by FontForge 20170731 at Tue Mar 12 05:31:11 2019
 By Aleksey,,,
Copyright 2019 Dinamo (Johannes Breyer, Fabian Harb) &#38; Erkin Karamemet. All rights reserved.
</metadata>
<defs>
<font id="WhyteInktrap-SuperItalic" horiz-adv-x="620" >
  <font-face 
    font-family="Whyte Inktrap Super"
    font-weight="1000"
    font-style="italic"
    font-stretch="normal"
    units-per-em="1000"
    panose-1="2 11 0 4 5 1 1 2 1 3"
    ascent="800"
    descent="-200"
    x-height="505"
    cap-height="700"
    bbox="-597 -386 1420 1161"
    underline-thickness="24"
    underline-position="-97"
    slope="-12"
    unicode-range="U+000D-FB02"
  />
<missing-glyph horiz-adv-x="698" 
d="M-4 0l148 700h599l-148 -700h-599zM224 143h203l88 414h-203z" />
    <glyph glyph-name="fi" unicode="fi" horiz-adv-x="805" 
d="M627 730h243l-37 -175h-243zM822 505l-108 -505h-243l75 355h-197l-75 -355h-228l75 355h-84l32 150h84l8 37q19 91 67 133t134 42h208l-32 -150h-114q-30 0 -36 -30l-7 -32h441z" />
    <glyph glyph-name="fl" unicode="fl" horiz-adv-x="772" 
d="M834 717l-23 -108l-129 -609h-236l119 567h-141q-30 0 -36 -30l-7 -32h112l-32 -150h-112l-75 -355h-228l75 355h-84l32 150h84l8 37q19 91 67 133t134 42h472z" />
    <glyph glyph-name="f_f" unicode="ff" horiz-adv-x="854" 
d="M797 537l-7 -32h112l-32 -150h-112l-75 -355h-228l75 355h-181l-75 -355h-228l75 355h-84l32 150h84l8 37q19 91 67 133t134 42h208l-32 -150h-114q-30 0 -36 -30l-7 -32h181l8 37q19 90 67 132.5t134 42.5h208l-32 -150h-114q-30 0 -36 -30z" />
    <glyph glyph-name="f_f_i" unicode="ffi" horiz-adv-x="1213" 
d="M1035 730h243l-37 -175h-243zM1230 505l-108 -505h-243l76 355h-197l-75 -355h-228l75 355h-181l-75 -355h-228l75 355h-84l32 150h84l8 37q19 91 67 133t134 42h208l-32 -150h-114q-30 0 -36 -30l-7 -32h181l8 37q19 90 67 132.5t134 42.5h208l-32 -150h-114
q-30 0 -36 -30l-7 -32h440z" />
    <glyph glyph-name="f_f_l" unicode="ffl" horiz-adv-x="1173" 
d="M1235 717l-32 -150l-120 -567h-236l119 567h-133q-30 0 -36 -30l-7 -32h112l-32 -150h-112l-75 -355h-228l75 355h-181l-75 -355h-228l75 355h-84l32 150h84l8 37q19 91 67 133t134 42h208l-32 -150h-114q-30 0 -36 -30l-7 -32h181l8 37q19 90 67 132.5t134 42.5h464z
" />
    <glyph glyph-name=".notdef" horiz-adv-x="698" 
d="M-4 0l148 700h599l-148 -700h-599zM224 143h203l88 414h-203z" />
    <glyph glyph-name=".null" horiz-adv-x="0" 
 />
    <glyph glyph-name="nonmarkingreturn" horiz-adv-x="333" 
 />
    <glyph glyph-name="CR" unicode="&#xd;" horiz-adv-x="179" 
 />
    <glyph glyph-name="space" unicode=" " horiz-adv-x="179" 
 />
    <glyph glyph-name="exclam" unicode="!" horiz-adv-x="330" 
d="M99 274l1 266l34 160h250l-34 -160l-111 -266h-140zM-12 0l45 214h248l-45 -214h-248z" />
    <glyph glyph-name="quotedbl" unicode="&#x22;" horiz-adv-x="573" 
d="M75 294l18 260l31 146h218l-31 -146l-98 -260h-138zM370 294l18 260l31 146h218l-31 -146l-98 -260h-138z" />
    <glyph glyph-name="numbersign" unicode="#" horiz-adv-x="823" 
d="M55 0l7 17q17 41 53 76.5t102 82.5l-42 56q-91 -97 -164 -97h-9l35 165h145l46 105h-119l35 165h155l55 130h172l-7 -17q-13 -29 -33 -56q-31 -37 -113 -98l46 -58q23 25 54 56q48 43 94 43h9l55 130h170l-4 -12q-11 -33 -30 -58q-19 -24 -41.5 -43.5t-73.5 -57.5l46 -58
q51 54 83.5 76.5t73.5 22.5h9l-35 -165h-151l-45 -105h124l-35 -165h-160l-56 -135h-173l8 19q18 42 50.5 75.5t97.5 81.5l-42 56q-47 -53 -79 -75t-74 -22h-10l-57 -135h-172zM355 300h106l44 105h-105z" />
    <glyph glyph-name="dollar" unicode="$" horiz-adv-x="708" 
d="M215 -79l18 80q-205 36 -221 207l226 42q-1 -1 -1 -8q0 -20 9 -35.5t24 -19.5l20 94l-10 2q-108 22 -149.5 68t-41.5 129q0 109 84 176t211 72l15 71h133l-17 -82q89 -20 140.5 -72t57.5 -124l-211 -30q2 47 -21 60l-22 -104l18 -3q90 -15 141.5 -67.5t51.5 -135.5
q0 -114 -83.5 -179t-222.5 -70l-16 -71h-133zM332 474l3 13q8 41 64 66l-35 60q-32 -15 -49.5 -38t-17.5 -48q0 -32 35 -53zM452 196q0 41 -35 61l-2 -9q-11 -48 -62 -73l39 -60q60 31 60 81z" />
    <glyph glyph-name="percent" unicode="%" horiz-adv-x="1002" 
d="M118 0l635 700h172l-634 -700h-173zM581 150q0 107 59.5 177.5t150.5 70.5q82 0 129.5 -45t47.5 -123q0 -105 -60.5 -172.5t-152.5 -67.5q-83 0 -128.5 42t-45.5 118zM806 241q0 45 -19 45q-17 0 -31.5 -42t-14.5 -101q0 -40 17 -40q19 0 33.5 40t14.5 98zM74 462
q0 107 59.5 177.5t150.5 70.5q82 0 129.5 -45t47.5 -123q0 -105 -60.5 -172.5t-152.5 -67.5q-83 0 -128.5 42t-45.5 118zM299 553q0 45 -19 45q-17 0 -31.5 -42t-14.5 -101q0 -40 17 -40q19 0 33.5 40t14.5 98z" />
    <glyph glyph-name="ampersand" unicode="&#x26;" horiz-adv-x="778" 
d="M6 175q0 73 43.5 121t132.5 82q-38 59 -38 123q0 92 72 154.5t180 62.5q107 0 172 -49.5t65 -116.5q0 -84 -64 -127t-159 -43q-16 0 -40 2l-13 -72q24 2 32 2q59 0 103 -36l18 -14l12 -8q48 57 89 132l142 -82q-43 -75 -92 -134q47 -25 101 -47l-63 -141q-70 23 -163 72
q-104 -74 -263 -74q-114 0 -190.5 54t-76.5 139zM340 437l10 3q95 27 95 78q0 20 -14.5 31.5t-38.5 11.5q-31 0 -49.5 -20.5t-18.5 -52.5q0 -31 16 -51zM425 121l13 65q-30 -3 -46 -3q-47 0 -80 29q-38 38 -43 44q-55 -26 -55 -81q0 -34 28 -53.5t76 -19.5q68 0 107 19z" />
    <glyph glyph-name="quotesingle" unicode="'" horiz-adv-x="278" 
d="M75 294l18 260l31 146h218l-31 -146l-98 -260h-138z" />
    <glyph glyph-name="parenleft" unicode="(" horiz-adv-x="386" 
d="M21 168q0 152 54 292t157 225q102 85 243 80l-37 -178q-67 -4 -119 -67q-50 -60 -79 -157q-28 -93 -28 -189q0 -149 104 -158l-37 -176q-137 9 -197.5 92t-60.5 236z" />
    <glyph glyph-name="parenright" unicode=")" horiz-adv-x="386" 
d="M385 437q0 -155 -55 -293q-54 -139 -157 -224q-102 -85 -242 -80l37 178q64 0 117.5 65t81.5 159.5t27 188.5q0 149 -104 158l37 176q137 -9 197.5 -92t60.5 -236z" />
    <glyph glyph-name="asterisk" unicode="*" horiz-adv-x="575" 
d="M240 315l-119 77l30 34q42 48 126 80l-30 56q-83 -59 -143 -62l-24 -1l32 147l133 -8l-56 127l143 63l10 -30q9 -27 9 -55q0 -42 -20 -97h63q6 89 47 144l29 40l122 -79l-100 -113l141 8l-32 -147l-23 1q-83 4 -144 60l-34 -52q78 -40 105 -95l18 -37l-147 -61l-41 135z
" />
    <glyph glyph-name="plus" unicode="+" horiz-adv-x="623" 
d="M241 80v188h-181v170h181v188h182v-188h181v-170h-181v-188h-182z" />
    <glyph glyph-name="comma" unicode="," horiz-adv-x="322" 
d="M-51 -195l173 195h-132l45 214h245l-45 -214l-167 -195h-119z" />
    <glyph glyph-name="hyphen" unicode="-" horiz-adv-x="520" 
d="M36 228l38 180h437l-38 -180h-437z" />
    <glyph glyph-name="period" unicode="." horiz-adv-x="322" 
d="M-10 0l46 214h245l-46 -214h-245z" />
    <glyph glyph-name="slash" unicode="/" horiz-adv-x="504" 
d="M-53 -89l453 878h198l-453 -878h-198z" />
    <glyph glyph-name="zero" unicode="0" horiz-adv-x="729" 
d="M44 268q-2 115 42 217.5t132.5 168.5t203.5 64q136 0 218.5 -78.5t82.5 -222.5q1 -115 -43 -214t-131.5 -161t-201.5 -60q-140 0 -221.5 72.5t-81.5 213.5zM458 441q0 88 -51 88q-32 2 -56 -43.5t-34 -105t-10 -119.5q0 -88 51 -88q32 -2 56 43.5t34 105t10 119.5z" />
    <glyph glyph-name="one" unicode="1" horiz-adv-x="508" 
d="M160 0l53 250q14 65 32 110q31 75 85 155h-90q-23 -56 -52 -106q-58 -101 -158 -105l53 246q170 12 234 150h234l-148 -700h-243z" />
    <glyph glyph-name="two" unicode="2" horiz-adv-x="674" 
d="M4 0l51 240q218 60 301 119q83 60 83 116q0 27 -14.5 41t-39.5 14q-34 0 -54.5 -32t-24.5 -80l-245 30q5 39 18.5 75t40.5 72t63.5 63t91.5 43.5t122 16.5q127 0 204 -57.5t77 -150.5q0 -119 -118 -198q-69 -45 -171 -79q-99 -33 -192 -55l26 -72q179 84 299 84h103
l-40 -190h-581z" />
    <glyph glyph-name="three" unicode="3" horiz-adv-x="658" 
d="M7 196l236 39q1 -67 64 -67q33 0 53 17t20 45q0 22 -17.5 34.5t-45.5 12.5h-84l32 155h91q32 0 51 15t19 42q0 18 -14.5 29t-38.5 11q-49 0 -67 -55l-233 36q27 100 109 154t213 54q112 0 186 -47t74 -125q0 -73 -59 -113t-169 -40h-25l-16 -75q15 1 33 1q97 0 147 -35
t50 -98q0 -99 -85.5 -151.5t-223.5 -52.5q-140 0 -218.5 56t-81.5 158z" />
    <glyph glyph-name="four" unicode="4" horiz-adv-x="722" 
d="M319 0l26 123h-357l48 225l307 352h347l-85 -404h99l-37 -173h-99l-26 -123h-223zM381 296l10 46q16 74 85 142l-54 47l-223 -256l54 -44q27 36 52 50.5t58 14.5h18z" />
    <glyph glyph-name="five" unicode="5" horiz-adv-x="660" 
d="M5 189l237 35q12 -57 65 -57q34 0 54.5 22.5t20.5 57.5q0 28 -17 43.5t-42 15.5q-43 0 -63 -45l-209 28l120 411h515l-40 -190h-330l-10 -29q-24 -72 -91 -131h93q43 94 143 94q72 0 123 -48t51 -138q0 -133 -87.5 -204.5t-224.5 -71.5q-79 0 -139 18t-94.5 49.5t-52 66
t-22.5 73.5z" />
    <glyph glyph-name="six" unicode="6" horiz-adv-x="677" 
d="M43 269q-1 89 28 169.5t83.5 144t140.5 100t191 35.5q58 0 115.5 -12.5t78.5 -24.5l-39 -187q-84 35 -167 35q-106 0 -161 -44.5t-70 -135.5h74q10 51 48 82t97 31q28 0 58 -10t60 -31.5t48.5 -63t17.5 -96.5q0 -121 -87 -200t-229 -79q-144 0 -215.5 76.5t-71.5 210.5z
M407 249q0 26 -17 42.5t-44 16.5q-33 0 -54.5 -22.5t-21.5 -56.5q0 -27 15.5 -42.5t43.5 -15.5q33 0 55.5 21.5t22.5 56.5z" />
    <glyph glyph-name="seven" unicode="7" horiz-adv-x="574" 
d="M473 510l43 19l-36 70q-140 -89 -275 -89h-133l40 190h541l-53 -253q-135 -61 -212 -180q-74 -117 -103 -267h-263q68 340 451 510z" />
    <glyph glyph-name="eight" unicode="8" horiz-adv-x="669" 
d="M17 157q0 80 64 123t171 45l16 75q-173 3 -173 115q0 92 90 147t222 55q123 0 196 -44.5t73 -117.5q0 -74 -59.5 -114t-162.5 -41l-16 -75q90 -1 139.5 -36t49.5 -96q2 -98 -95 -155.5t-232 -56.5q-131 0 -207 47.5t-76 128.5zM448 498q0 22 -15.5 35.5t-44.5 13.5
q-33 0 -53.5 -19.5t-20.5 -49.5q0 -22 16 -35t45 -13q33 0 53 18.5t20 49.5zM401 240q0 24 -18 39t-49 15q-35 0 -57.5 -20.5t-22.5 -55.5q0 -24 17.5 -38.5t47.5 -14.5q32 0 57 22.5t25 52.5z" />
    <glyph glyph-name="nine" unicode="9" horiz-adv-x="670" 
d="M24 34l39 184q93 -50 175 -50q127 0 184 64q36 42 41 109h-70q-17 -52 -56 -79t-92 -27q-28 0 -56 11t-55 33.5t-43.5 65t-16.5 97.5q0 122 80.5 199t222.5 77q134 0 211 -79q79 -81 79 -212q1 -90 -26.5 -170t-80 -142t-137 -98t-189.5 -35q-138 0 -210 52zM437 467
q0 29 -17.5 46t-46.5 17q-34 0 -57.5 -22.5t-23.5 -58.5q0 -28 18.5 -46t46.5 -18q34 0 57 23t23 59z" />
    <glyph glyph-name="colon" unicode=":" horiz-adv-x="329" 
d="M55 319l46 214h245l-46 -214h-245zM-12 0l46 214h245l-46 -214h-245z" />
    <glyph glyph-name="semicolon" unicode=";" horiz-adv-x="328" 
d="M55 319l46 214h245l-46 -214h-245zM-53 -195l173 195h-132l45 214h245l-45 -214l-167 -195h-119z" />
    <glyph glyph-name="less" unicode="&#x3c;" horiz-adv-x="669" 
d="M606 612v-191l-96 -20q-116 -24 -260 -24q-33 0 -43 1v-72q9 1 39 1q140 0 260 -24l100 -19v-193l-536 136v269z" />
    <glyph glyph-name="equal" unicode="=" horiz-adv-x="654" 
d="M85 384v160h518v-160h-518zM85 154v160h518v-160h-518z" />
    <glyph glyph-name="greater" unicode="&#x3e;" horiz-adv-x="669" 
d="M101 71v191l96 20q115 24 260 24q33 0 43 -1v72q-9 -1 -39 -1q-140 0 -260 24l-100 19v193l536 -136v-269z" />
    <glyph glyph-name="question" unicode="?" horiz-adv-x="676" 
d="M360 441q50 23 66.5 36t16.5 30q0 16 -13 26t-36 10q-62 0 -68 -80l-255 34q7 44 28 81.5t60 70t104.5 51t151.5 18.5q143 0 219 -49.5t76 -129.5q0 -64 -37.5 -102.5t-109.5 -71.5q-81 -38 -96 -49.5t-24 -41.5h-218q12 67 36 99t99 68zM156 0l45 214h245l-45 -214h-245
z" />
    <glyph glyph-name="at" unicode="@" horiz-adv-x="984" 
d="M22 239q-1 95 35.5 182.5t103 154t164.5 105.5t212 37q127 1 232 -41.5t168 -125.5t61 -191q0 -131 -82 -213t-209 -82q-57 0 -91 27t-32 69h-53q-18 -43 -53 -69.5t-76 -26.5q-52 0 -82.5 46t-30.5 125q-2 92 50.5 166.5t130.5 72.5q92 0 107 -98h56q-11 32 -11 56
q0 13 3 29h122l-46 -214q-3 -12 -3 -21q0 -31 36 -31q45 0 75 47.5t30 110.5q0 101 -81 162.5t-221 61.5q-169 0 -258.5 -92t-89.5 -247q0 -132 85.5 -204.5t222.5 -72.5q152 0 279 75l64 -122q-145 -93 -343 -93q-210 -2 -343.5 108.5t-131.5 308.5zM569 312q0 53 -39 53
q-32 0 -51.5 -36.5t-19.5 -79.5q0 -56 41 -56q31 0 50 36.5t19 82.5z" />
    <glyph glyph-name="A" unicode="A" horiz-adv-x="787" 
d="M486 0l-6 109h-221l-52 -109h-268l374 700h351l77 -700h-255zM346 289h125l-1 11v26q0 130 47 257h-85q-25 -166 -81 -283z" />
    <glyph glyph-name="B" unicode="B" horiz-adv-x="708" 
d="M-4 0l148 700h352q99 0 157 -38.5t58 -103.5q0 -80 -60.5 -121t-168.5 -39l-16 -74q210 4 210 -134q0 -90 -82.5 -140t-211.5 -50h-386zM332 426h78q29 0 47 15.5t18 41.5q0 17 -13 28t-35 11h-74zM279 178h80q32 0 51 16t19 43q0 19 -13.5 30.5t-37.5 11.5h-77z" />
    <glyph glyph-name="C" unicode="C" horiz-adv-x="807" 
d="M42 282q-2 187 117 313t309 123q151 0 249 -71.5t115 -179.5l-281 -61q-14 112 -98 112q-62 0 -99 -66t-37 -151q0 -57 22.5 -88.5t62.5 -31.5q86 0 133 119l266 -91q-102 -227 -397 -227q-171 0 -266.5 81.5t-95.5 218.5z" />
    <glyph glyph-name="D" unicode="D" horiz-adv-x="781" 
d="M-4 0l148 700h291q158 0 251.5 -79t93.5 -210q2 -176 -119 -295t-305 -116h-360zM294 197h52q71 0 116 56t45 133q0 55 -30 87t-86 32h-31z" />
    <glyph glyph-name="E" unicode="E" horiz-adv-x="650" 
d="M-4 0l148 700h563l-41 -193h-316l-15 -70h258l-36 -170h-258l-15 -73h316l-41 -194h-563z" />
    <glyph glyph-name="F" unicode="F" horiz-adv-x="643" 
d="M-4 0l148 700h565l-42 -200h-313l-22 -105h260l-40 -185h-260l-44 -210h-252z" />
    <glyph glyph-name="G" unicode="G" horiz-adv-x="819" 
d="M41 269q-2 197 119.5 324t322.5 125q85 1 153.5 -20.5t108 -56.5t61.5 -70.5t28 -70.5l-269 -72q-24 90 -102 90q-71 0 -112.5 -74.5t-41.5 -173.5q0 -58 26.5 -87.5t73.5 -29.5q83 0 110 73h-125l35 165h379l-83 -391h-209q14 54 77 137h-90q-22 -51 -75 -104
q-51 -51 -149 -51q-106 0 -172 77t-66 210z" />
    <glyph glyph-name="H" unicode="H" horiz-adv-x="787" 
d="M-4 0l148 700h263l-51 -243h162l51 243h263l-148 -700h-263l54 257h-162l-54 -257h-263z" />
    <glyph glyph-name="I" unicode="I" horiz-adv-x="362" 
d="M-4 0l148 700h263l-148 -700h-263z" />
    <glyph glyph-name="J" unicode="J" horiz-adv-x="657" 
d="M3 212q0 35 8 78l250 54q-18 -74 -18 -111q0 -62 46 -62q52 0 69 77l96 452h254l-90 -423q-16 -75 -37 -124t-58 -89.5t-95.5 -60.5t-143.5 -21q-137 0 -209 59.5t-72 170.5z" />
    <glyph glyph-name="K" unicode="K" horiz-adv-x="813" 
d="M894 700l-331 -307l233 -393h-298l-139 259l-75 -68l-40 -191h-248l148 700h250l-8 -35q-10 -46 -41 -87q-45 -62 -133 -129l56 -63l301 314h325z" />
    <glyph glyph-name="L" unicode="L" horiz-adv-x="639" 
d="M-4 0l148 700h262l-106 -500h315l-42 -200h-577z" />
    <glyph glyph-name="M" unicode="M" horiz-adv-x="1028" 
d="M-4 0l148 700h372v-131q0 -64 -15 -152q-13 -87 -54 -273h77q41 189 62 264q27 95 55 161l55 131h377l-148 -700h-239l11 54q24 118 82 259q61 149 130 268l-74 32l-285 -613h-188l-25 610l-80 -11q17 -113 17 -236q0 -172 -28 -309l-11 -54h-239z" />
    <glyph glyph-name="N" unicode="N" horiz-adv-x="843" 
d="M-4 0l148 700h310l161 -491l71 25q-67 170 -67 284q0 48 11 103l16 79h242l-148 -700h-261l-194 591l-72 -23q66 -169 66 -297q0 -70 -16 -141l-27 -130h-240z" />
    <glyph glyph-name="O" unicode="O" horiz-adv-x="867" 
d="M45 302q-2 180 120.5 299t316.5 117q185 0 283 -86t98 -233q2 -181 -120.5 -300.5t-316.5 -116.5q-186 0 -283.5 86t-97.5 234zM585 398q0 58 -28.5 90t-82.5 32q-69 0 -109.5 -62.5t-40.5 -154.5q0 -58 28 -90t82 -32q70 0 110.5 62.5t40.5 154.5z" />
    <glyph glyph-name="P" unicode="P" horiz-adv-x="708" 
d="M-4 0l148 700h340q109 0 180 -55.5t71 -157.5q2 -117 -85 -201.5t-220 -82.5h-138l-43 -203h-253zM330 383h75q35 0 56.5 22t21.5 51q0 54 -67 54h-59z" />
    <glyph glyph-name="Q" unicode="Q" horiz-adv-x="877" 
d="M45 302q-3 182 121.5 300t315.5 116q181 0 281 -83.5t100 -232.5q0 -73 -26.5 -139.5t-72.5 -112.5q30 -8 85 -8l-34 -160q-80 3 -114 31t-31 97h-61q-81 -128 -236 -128q-147 0 -237.5 86.5t-90.5 233.5zM465 183l-10 12q-29 36 -100 38l37 168q53 1 87.5 -19.5
t44.5 -57.5q3 -14 3 -27q0 -29 -17 -68h69q43 68 43 159q0 61 -35 98.5t-107 37.5q-85 0 -134 -70.5t-49 -172.5q0 -51 30 -79.5t81 -28.5q36 0 57 10z" />
    <glyph glyph-name="R" unicode="R" horiz-adv-x="770" 
d="M-4 0l148 700h398q109 0 169.5 -43.5t60.5 -114.5q0 -179 -288 -179l-16 -74q124 -2 164.5 -30.5t57.5 -123.5l20 -135h-271l-12 174q-3 40 -15.5 54t-47.5 14h-64l-51 -242h-253zM334 402h92q33 0 53 18t20 45q0 47 -56 47h-86z" />
    <glyph glyph-name="S" unicode="S" horiz-adv-x="762" 
d="M4 198l280 47q10 -84 93 -84q41 0 63.5 13.5t22.5 37.5q0 37 -58 45l-64 8q-145 19 -201.5 68t-56.5 137q0 113 98 180.5t246 67.5q158 0 249 -57.5t100 -149.5l-285 -37q-13 68 -83 68q-29 0 -47 -13t-18 -32q0 -23 20 -35t67 -17l56 -6q118 -13 183 -67t65 -141
q0 -119 -96.5 -184t-257.5 -65q-351 0 -376 216z" />
    <glyph glyph-name="T" unicode="T" horiz-adv-x="683" 
d="M157 0l110 520h-198l38 180h659l-38 -180h-198l-110 -520h-263z" />
    <glyph glyph-name="U" unicode="U" horiz-adv-x="778" 
d="M43 220q0 44 10 88l83 392h259l-77 -366q-9 -44 -9 -73q0 -37 15.5 -53.5t49.5 -16.5q88 0 117 143l77 366h262l-83 -392q-36 -174 -126.5 -250t-264.5 -76q-154 0 -233.5 61t-79.5 177z" />
    <glyph glyph-name="V" unicode="V" horiz-adv-x="833" 
d="M176 0l-92 700h277l16 -190q4 -40 4 -99q0 -144 -35 -281h86q9 76 35 171q28 94 60 160l117 239h292l-384 -700h-376z" />
    <glyph glyph-name="W" unicode="W" horiz-adv-x="1114" 
d="M112 0l-19 700h263l-2 -60q-1 -76 -30 -220q-34 -169 -56 -259h82q37 197 73 301l83 238h276l-14 -237q-5 -98 -53 -302h82q21 114 53 257q31 136 57 211l25 71h266l-291 -700h-324l5 133q4 122 71 412h-84q-16 -93 -46 -223q-25 -106 -56 -189l-50 -133h-311z" />
    <glyph glyph-name="X" unicode="X" horiz-adv-x="799" 
d="M-78 0l352 384l-167 316h288l11 -25q15 -35 15 -84q0 -58 -26 -167h82q6 72 25 138q20 70 54 110l23 28h318l-315 -353l184 -347h-294l-22 49q-17 40 -17 100q0 74 23 161h-82q-28 -182 -90 -261l-38 -49h-324z" />
    <glyph glyph-name="Y" unicode="Y" horiz-adv-x="742" 
d="M184 0l55 256l-156 444h263l16 -58q13 -46 13 -103q0 -74 -27 -176h79q28 169 111 292l31 45h281l-349 -448l-54 -252h-263z" />
    <glyph glyph-name="Z" unicode="Z" horiz-adv-x="672" 
d="M-21 0l52 249l461 318l-45 61q-54 -48 -128 -85.5t-137 -37.5h-84l41 195h576l-52 -244l-464 -321l48 -59q58 50 128 89q71 40 166 40h90l-43 -205h-609z" />
    <glyph glyph-name="bracketleft" unicode="[" horiz-adv-x="392" 
d="M-39 -150l191 905h330l-32 -153h-122l-127 -599h122l-32 -153h-330z" />
    <glyph glyph-name="backslash" unicode="\" horiz-adv-x="474" 
d="M209 -89l-81 878h178l81 -878h-178z" />
    <glyph glyph-name="bracketright" unicode="]" horiz-adv-x="392" 
d="M452 755l-191 -905h-330l32 153h122l127 599h-122l32 153h330z" />
    <glyph glyph-name="asciicircum" unicode="^" horiz-adv-x="681" 
d="M47 327l218 373h202l210 -373h-208l-35 66q-35 65 -35 173q0 18 1 32h-73v-16q0 -114 -41 -189l-37 -66h-202z" />
    <glyph glyph-name="underscore" unicode="_" horiz-adv-x="644" 
d="M-72 -195l32 150h599l-32 -150h-599z" />
    <glyph glyph-name="grave" unicode="`" horiz-adv-x="301" 
d="M123 566l-99 154h232l18 -154h-151z" />
    <glyph glyph-name="a" unicode="a" horiz-adv-x="640" 
d="M4 116q0 88 90.5 142t277.5 63l3 13q1 5 1 14q0 38 -45 38q-48 0 -62 -56l-237 25q19 74 99.5 121t212.5 47q118 0 183.5 -46t65.5 -132q0 -23 -6 -54l-21 -98q0 -3 -0.5 -6t-1 -5t-0.5 -3q0 -19 24 -19h28l-34 -160h-111q-87 0 -87 66q0 13 5 38h-64q-58 -122 -181 -122
q-63 0 -101.5 38t-38.5 96zM346 199l6 28q-53 -3 -85 -22t-32 -50q0 -32 34 -32q59 0 77 76z" />
    <glyph glyph-name="b" unicode="b" horiz-adv-x="660" 
d="M278 96h-78q16 -41 16 -71q0 -9 -2 -25h-231l149 700h241l-23 -101q-26 -109 -100 -193h94q22 57 54 87t84 30q73 0 117.5 -57.5t44.5 -154.5q1 -83 -28.5 -158.5t-85 -124t-122.5 -46.5q-113 0 -130 114zM389 300q0 71 -44 71q-33 0 -56.5 -50t-23.5 -116q0 -71 44 -71
q34 0 57 50t23 116z" />
    <glyph glyph-name="c" unicode="c" horiz-adv-x="621" 
d="M15 205q-2 136 92 228t234 90q120 0 193.5 -58t79.5 -146l-230 -34q0 38 -13.5 62.5t-39.5 24.5q-37 0 -58 -53t-21 -117q0 -69 45 -69q25 0 45 23t30 64l229 -33q-23 -88 -99 -146.5t-208 -58.5q-131 0 -205 58t-74 165z" />
    <glyph glyph-name="d" unicode="d" horiz-adv-x="659" 
d="M16 194q-1 83 27.5 158.5t82.5 124t119 46.5q55 0 91 -32t44 -85h79q-19 39 -19 88q0 30 8 68l29 138h240l-149 -700h-221q16 57 50 99h-86q-51 -117 -147 -117q-65 0 -106.5 58t-41.5 154zM394 300q0 71 -44 71q-33 0 -56.5 -50t-23.5 -116q0 -71 44 -71q33 0 56.5 50
t23.5 116z" />
    <glyph glyph-name="e" unicode="e" horiz-adv-x="615" 
d="M15 204q0 140 90.5 229.5t236.5 89.5q115 0 183 -60t68 -160q0 -42 -14 -92h-340q-4 -19 -4 -33q0 -47 44 -47t78 59l223 -54q-33 -68 -109.5 -111t-188.5 -43q-124 0 -195.5 59t-71.5 163zM258 311h112q3 13 3 24q0 49 -46 49q-51 0 -69 -73z" />
    <glyph glyph-name="f" unicode="f" horiz-adv-x="445" 
d="M46 0l75 355h-84l32 150h84l8 37q19 91 67 133t134 42h208l-32 -150h-114q-30 0 -36 -30l-7 -32h112l-32 -150h-112l-75 -355h-228z" />
    <glyph glyph-name="g" unicode="g" horiz-adv-x="688" 
d="M-63 -122q0 81 111 100l14 62q-81 4 -81 53q0 33 34.5 61t96.5 35l13 60q-49 29 -49 86q0 85 67.5 136.5t174.5 51.5q99 0 153.5 -36.5t61.5 -100.5h57q20 119 100 119h40l-35 -165h-85q-33 0 -45 -34l-7 -18q-25 -67 -84 -96.5t-167 -29.5q-76 0 -127 24
q-22 -16 -22 -32q0 -27 46 -27h206q86 0 136.5 -38.5t50.5 -102.5q0 -83 -57.5 -132t-163.5 -49h-317q-122 0 -122 73zM381 355q0 26 -11.5 40.5t-30.5 14.5q-24 0 -40.5 -26t-16.5 -65q0 -55 40 -55q24 0 41.5 27t17.5 64zM160 -55h182q38 0 38 30q0 25 -31 25h-211
q-16 -13 -16 -32q0 -23 38 -23z" />
    <glyph glyph-name="h" unicode="h" horiz-adv-x="638" 
d="M-16 0l146 700h233l-18 -86q-15 -69 -46.5 -130t-59.5 -95h88q52 133 159 133q59 0 99 -37t40 -110q0 -33 -7 -62l-66 -313h-241l62 291q2 18 2 21q0 40 -36 40q-40 0 -52 -61l-62 -291h-241z" />
    <glyph glyph-name="i" unicode="i" horiz-adv-x="316" 
d="M101 555l37 175h243l-37 -175h-243zM-18 0l108 505h243l-108 -505h-243z" />
    <glyph glyph-name="j" unicode="j" horiz-adv-x="313" 
d="M103 555l37 175h243l-37 -175h-243zM-134 -195l34 160h53q30 0 36 30l108 510h232l-112 -530q-19 -88 -68 -129t-136 -41h-147z" />
    <glyph glyph-name="k" unicode="k" horiz-adv-x="696" 
d="M754 505l-256 -204l173 -301h-266l-92 182l-74 -57l-26 -125h-230l148 700h230l-31 -146q-17 -77 -57 -122t-110 -89l45 -59l252 221h294z" />
    <glyph glyph-name="l" unicode="l" horiz-adv-x="309" 
d="M-17 0l148 700h236l-148 -700h-236z" />
    <glyph glyph-name="m" unicode="m" horiz-adv-x="940" 
d="M-16 0l105 505h209q-13 -57 -60 -106h87q26 62 56.5 92.5t85.5 30.5q46 0 74.5 -26t28.5 -73q0 -10 -2 -24h65q55 123 170 123q58 0 94.5 -35.5t36.5 -97.5q0 -21 -6 -48l-73 -341h-240l62 298q2 10 2 17q0 37 -34 37q-36 0 -48 -54l-62 -298h-232l62 298q2 10 2 16
q0 18 -9.5 28t-24.5 10q-36 0 -48 -54l-62 -298h-239z" />
    <glyph glyph-name="n" unicode="n" horiz-adv-x="637" 
d="M-16 0l105 505h210q-14 -62 -60 -116h88q52 133 159 133q59 0 99 -37t40 -110q0 -33 -7 -62l-66 -313h-241l62 291q2 18 2 21q0 40 -36 40q-40 0 -52 -61l-62 -291h-241z" />
    <glyph glyph-name="o" unicode="o" horiz-adv-x="663" 
d="M16 212q0 140 93.5 225.5t243.5 85.5q139 0 215.5 -63.5t76.5 -172.5q0 -139 -92 -222t-242 -83q-140 0 -217.5 61t-77.5 169zM390 296q0 75 -45 75q-34 0 -54 -49.5t-20 -113.5q0 -40 10 -57.5t33 -17.5q35 0 55.5 49.5t20.5 113.5z" />
    <glyph glyph-name="p" unicode="p" horiz-adv-x="659" 
d="M-59 -195l149 700h218q-17 -58 -61 -99h94q26 59 55.5 88t82.5 29q73 0 117.5 -57.5t44.5 -154.5q1 -83 -28.5 -158.5t-85 -124t-122.5 -46.5q-113 0 -130 114h-78q19 -45 19 -95q0 -33 -7 -65l-27 -131h-241zM388 300q0 71 -44 71q-33 0 -56.5 -50t-23.5 -116
q0 -71 44 -71q34 0 57 50t23 116z" />
    <glyph glyph-name="q" unicode="q" horiz-adv-x="660" 
d="M287 -195l24 112q22 96 93 182h-91q-51 -117 -149 -117q-66 0 -106.5 57.5t-40.5 154.5q-1 83 27 158.5t82 124t119 46.5q55 0 91 -32t44 -85h79q-22 48 -23 99h241l-149 -700h-241zM395 300q0 71 -44 71q-33 0 -56.5 -50t-23.5 -116q0 -71 44 -71q33 0 56.5 50t23.5 116
z" />
    <glyph glyph-name="r" unicode="r" horiz-adv-x="498" 
d="M-17 0l107 505h218q-15 -85 -74 -168h91q28 96 67.5 140t96.5 44q27 0 53 -6l-47 -220q-45 9 -78 9q-128 0 -154 -130l-37 -174h-243z" />
    <glyph glyph-name="s" unicode="s" horiz-adv-x="587" 
d="M-10 152l227 16q3 -28 16 -41.5t43 -13.5q24 0 38.5 9t14.5 25q0 24 -43 34l-65 14q-91 19 -133.5 54t-42.5 94q0 83 72.5 131.5t193.5 48.5q124 0 192 -41.5t74 -104.5l-231 -26q-7 47 -55 47q-20 0 -31 -8.5t-11 -20.5q0 -13 13 -20t47 -13l58 -11q185 -35 185 -162
q0 -90 -78.5 -135.5t-205.5 -45.5q-134 0 -204.5 44t-73.5 126z" />
    <glyph glyph-name="t" unicode="t" horiz-adv-x="479" 
d="M76 137q0 27 8 70l31 148h-91l32 150h91l32 150h233l-32 -150h100l-32 -150h-100l-33 -155q-1 -5 -1 -9q0 -21 25 -21h113l-37 -170h-149q-99 0 -144.5 32.5t-45.5 104.5z" />
    <glyph glyph-name="u" unicode="u" horiz-adv-x="634" 
d="M7 108q0 31 7 60l71 337h242l-63 -298q0 -3 -0.5 -5.5t-1 -4.5t-0.5 -3.5v-2.5q0 -18 10 -28t25 -10q41 0 53 54l63 298h237l-105 -505h-211q11 51 53 106h-86q-64 -123 -167 -123q-60 0 -93.5 31.5t-33.5 93.5z" />
    <glyph glyph-name="v" unicode="v" horiz-adv-x="630" 
d="M106 0l-62 505h238l4 -97q1 -5 1 -24q0 -113 -43 -279h73q32 181 86 299l47 101h240l-270 -505h-314z" />
    <glyph glyph-name="w" unicode="w" horiz-adv-x="876" 
d="M54 0l1 505h213l-7 -48q-18 -126 -73 -352h72q21 107 36 171q19 74 38 130l34 99h239l-8 -99q-5 -63 -18 -129q-13 -70 -36 -172h72q18 101 38 196q15 69 43 156l16 48h214l-214 -505h-274l4 48q4 58 20 164q16 107 37 198h-76q-61 -299 -84 -365l-16 -45h-271z" />
    <glyph glyph-name="x" unicode="x" horiz-adv-x="660" 
d="M-73 0l259 281l-136 224h262l4 -22q4 -19 4 -43q0 -61 -22 -130h74q10 106 50 163l23 32h268l-239 -260l157 -245h-271l-9 48q-7 35 -7 67q0 42 14 96h-72q-9 -58 -22.5 -96t-40.5 -78l-26 -37h-270z" />
    <glyph glyph-name="y" unicode="y" horiz-adv-x="627" 
d="M452 505h236l-297 -530q-36 -66 -68 -104q-54 -66 -179 -66h-187l36 170h140q15 0 21.5 5.5t15.5 21.5l17 31l-159 472h241l18 -90q5 -27 5 -58q0 -82 -35 -222h71q31 184 83 289z" />
    <glyph glyph-name="z" unicode="z" horiz-adv-x="533" 
d="M-28 0l47 223l285 153l-39 62q-44 -37 -93 -64q-53 -29 -94 -29h-28l34 160h466l-44 -203l-323 -174l41 -63q128 105 249 105h15l-36 -170h-480z" />
    <glyph glyph-name="braceleft" unicode="{" horiz-adv-x="409" 
d="M37 2q0 30 8 73l20 93q3 14 3 26q0 21 -12.5 29.5t-40.5 8.5l29 141q36 0 52 11t22 38l38 174q19 92 64.5 125.5t147.5 33.5h134l-30 -141h-62q-29 0 -42.5 -14t-21.5 -50l-16 -76q-14 -72 -56 -101t-116 -29h-22l-16 -75q5 1 20 1q58 0 89.5 -25.5t31.5 -73.5
q0 -19 -5 -42l-18 -82q-3 -12 -3 -19q0 -37 49 -37h55l-30 -141h-120q-74 0 -113 39.5t-39 112.5z" />
    <glyph glyph-name="bar" unicode="|" horiz-adv-x="290" 
d="M-27 -89l186 878h199l-186 -878h-199z" />
    <glyph glyph-name="braceright" unicode="}" horiz-adv-x="409" 
d="M393 602q0 -32 -9 -73l-20 -93q-3 -13 -3 -26q0 -21 12.5 -29.5t40.5 -8.5l-29 -141q-36 0 -52 -11t-22 -38l-38 -174q-19 -92 -64.5 -125.5t-147.5 -33.5h-134l30 141h62q29 0 42.5 14t21.5 50l16 76q14 72 56.5 101t115.5 29h22l16 75q-5 -1 -20 -1q-58 0 -89.5 25.5
t-31.5 73.5q0 19 5 42l18 82q3 12 3 19q0 37 -49 37h-55l30 141h120q75 0 114 -39.5t39 -112.5z" />
    <glyph glyph-name="asciitilde" unicode="~" horiz-adv-x="670" 
d="M382 249l-30 18q-50 31 -79 31q-32 0 -52.5 -15t-35.5 -53l-149 81q24 82 74.5 127t121.5 45q53 0 115 -37l33 -20q30 -18 58 -18q32 0 52.5 15t35.5 53l149 -81q-24 -82 -74.5 -127t-121.5 -45q-53 0 -97 26z" />
    <glyph glyph-name="uni00A0" unicode="&#xa0;" horiz-adv-x="179" 
 />
    <glyph glyph-name="exclamdown" unicode="&#xa1;" horiz-adv-x="333" 
d="M368 621l-45 -214h-248l45 214h248zM257 347l-1 -266l-34 -160h-250l34 160l111 266h140z" />
    <glyph glyph-name="cent" unicode="&#xa2;" horiz-adv-x="645" 
d="M193 -108l21 98q-89 21 -136.5 75.5t-47.5 140.5q-2 128 83.5 218.5t212.5 97.5l20 91h124l-21 -100q168 -46 180 -194l-192 -28q0 38 -23 61l-10 -47q-19 -93 -91 -135l37 -50q42 25 67 96l199 -29q-20 -83 -90 -140.5t-190 -64.5l-19 -90h-124zM250 161l11 50
q12 50 31.5 74t58.5 51l-36 51q-44 -24 -69 -65.5t-25 -87.5q0 -47 29 -73z" />
    <glyph glyph-name="sterling" unicode="&#xa3;" horiz-adv-x="678" 
d="M500 190h137l-40 -190h-610l40 190q70 21 106.5 41t50.5 48h-138l27 129h85q-30 55 -30 96q0 100 77.5 157t208.5 57q130 0 205.5 -56t77.5 -150l-246 -45l1 11q0 63 -46 63q-25 0 -40 -16.5t-15 -42.5q0 -32 24 -74h174l-27 -129h-144q-51 -64 -174 -100l40 -74
q109 85 256 85z" />
    <glyph glyph-name="currency" unicode="&#xa4;" horiz-adv-x="664" 
d="M119 52l-100 124l85 72q-10 27 -10 75q0 88 55 149l-61 74l121 101l60 -73q57 26 115 26q54 0 106 -24l84 71l105 -122l-88 -74q11 -27 11 -66q0 -77 -50 -151l65 -78l-121 -104l-65 79q-67 -26 -118 -26q-56 0 -104 23zM413 361q0 26 -16 43t-42 17q-31 0 -52 -22.5
t-21 -52.5q0 -27 16 -44.5t43 -17.5q31 0 51.5 23t20.5 54z" />
    <glyph glyph-name="yen" unicode="&#xa5;" horiz-adv-x="800" 
d="M877 700l-246 -287h86l-27 -129h-159l-9 -45h157l-24 -115h-155l-25 -124h-263l24 124h-156l24 115h155l9 45h-153l27 129h84l-115 287h267l15 -58q11 -46 11 -92q0 -79 -30 -187h82q29 178 111 292l32 45h278z" />
    <glyph glyph-name="brokenbar" unicode="&#xa6;" horiz-adv-x="290" 
d="M81 420l78 369h199l-78 -369h-199zM-27 -89l78 367h199l-78 -367h-199z" />
    <glyph glyph-name="section" unicode="&#xa7;" horiz-adv-x="696" 
d="M4 -19l222 25q1 -35 17.5 -53.5t45.5 -18.5q24 0 38 11t14 28t-13.5 29.5t-47.5 24.5l-78 29q-91 34 -133.5 73.5t-42.5 97.5q0 55 44 90.5t122 35.5q14 0 25 -1l14 60q-55 25 -78.5 53t-23.5 78q0 74 73.5 124.5t192.5 50.5q121 0 190 -50.5t77 -128.5l-216 -31
q-5 60 -56 60q-18 0 -30.5 -11t-12.5 -26q0 -17 12 -27.5t49 -23.5l103 -36q84 -30 122 -64.5t38 -84.5q0 -65 -48.5 -103.5t-149.5 -37.5l-13 -60q107 -42 107 -129q0 -78 -73.5 -129.5t-206.5 -51.5q-136 0 -209.5 57.5t-73.5 139.5zM450 230q0 25 -38 42l-99 44
q-4 1 -37 17q-19 -19 -26 -30t-7 -25q0 -25 38 -42l97 -44l10 -4l30 -13q32 28 32 55z" />
    <glyph glyph-name="dieresis" unicode="&#xa8;" horiz-adv-x="490" 
d="M2 566l32 154h197l-32 -154h-197zM259 566l32 154h197l-32 -154h-197z" />
    <glyph glyph-name="copyright" unicode="&#xa9;" horiz-adv-x="941" 
d="M56 342q-2 115 55 212.5t157 153.5t218 54q118 2 219.5 -54t160.5 -154t57 -212q2 -114 -57 -213t-161 -156.5t-219 -55.5q-117 -2 -217 55.5t-157.5 156.5t-55.5 213zM777 342q0 128 -79.5 211t-209.5 83q-129 0 -207.5 -83t-78.5 -211t79 -213.5t207 -85.5t208.5 85.5
t80.5 213.5zM275 345q0 95 63 155t158 60q70 0 121 -34t73 -88l-134 -46q-20 65 -67 65q-70 0 -70 -112q0 -114 70 -114q49 0 71 70l137 -44q-24 -60 -77.5 -95t-124.5 -35q-96 0 -158 60.5t-62 157.5z" />
    <glyph glyph-name="ordfeminine" unicode="&#xaa;" horiz-adv-x="557" 
d="M67 463q-1 97 55.5 176t140.5 76q91 0 110 -92h55q-10 27 -10 44t4 33h185l-85 -401h-177q11 44 40 78h-64q-45 -93 -132 -93q-56 0 -89 47.5t-33 131.5zM378 534q0 66 -37 66q-25 0 -44 -40t-19 -90q0 -68 33 -68q26 0 46.5 41t20.5 91z" />
    <glyph glyph-name="guillemotleft" unicode="&#xab;" horiz-adv-x="722" 
d="M427 505l-196 -271l98 -234h-201l-101 252l172 253h228zM753 505l-228 -305l90 -200h-201l-94 218l205 287h228z" />
    <glyph glyph-name="logicalnot" unicode="&#xac;" horiz-adv-x="634" 
d="M407 142v131h-344v170h518v-301h-174z" />
    <glyph glyph-name="uni00AD" unicode="&#xad;" horiz-adv-x="520" 
d="M36 228l38 180h437l-38 -180h-437z" />
    <glyph glyph-name="registered" unicode="&#xae;" horiz-adv-x="570" 
d="M86 516q0 104 69 175t184 71t184.5 -71t69.5 -175q0 -105 -69.5 -176.5t-184.5 -71.5q-114 0 -183.5 72t-69.5 176zM506 516q0 73 -44 121.5t-123 48.5t-123 -48.5t-44 -121.5q0 -72 44 -122t123 -50t123 50t44 122zM246 403v224h113q39 0 60.5 -14t21.5 -39
q0 -24 -19 -37t-50 -13v-30q29 0 43.5 -8t18.5 -31l9 -52h-77l-7 58q-2 15 -8 20t-19 5h-12v-83h-74zM320 535h28q20 0 20 17t-20 17h-28v-34z" />
    <glyph glyph-name="macron" unicode="&#xaf;" horiz-adv-x="382" 
d="M87 576l26 124h346l-26 -124h-346z" />
    <glyph glyph-name="degree" unicode="&#xb0;" horiz-adv-x="490" 
d="M84 590q0 95 65 157.5t165 62.5t166 -62.5t66 -157.5q0 -97 -64.5 -157.5t-167.5 -60.5t-166.5 61.5t-63.5 156.5zM390 592q0 33 -22.5 54.5t-52.5 21.5t-52.5 -21.5t-22.5 -54.5q0 -35 21.5 -56.5t53.5 -21.5q30 0 52.5 22t22.5 56z" />
    <glyph glyph-name="plusminus" unicode="&#xb1;" horiz-adv-x="659" 
d="M249 248v95h-172v150h172v120h174v-120h172v-150h-172v-95h-174zM77 53v150h518v-150h-518z" />
    <glyph glyph-name="twosuperior" unicode="&#xb2;" horiz-adv-x="426" 
d="M87 403l28 133q110 30 159.5 60.5t49.5 66.5q0 12 -7 19t-17 7q-33 0 -38 -57l-147 14q4 27 15.5 52t33 49.5t58 39t83.5 14.5q75 0 120 -31.5t45 -81.5q0 -64 -65 -105q-36 -23 -102 -42q-55 -17 -102 -26l16 -47q25 14 86 31t104 17h36l-24 -113h-332z" />
    <glyph glyph-name="threesuperior" unicode="&#xb3;" horiz-adv-x="418" 
d="M87 512l144 23q0 -14 9.5 -22.5t24.5 -8.5q32 0 32 26q0 23 -31 23h-34l19 90h36q15 0 24.5 7.5t9.5 19.5q0 21 -25 21q-27 0 -33 -30l-140 19q14 57 62 89t122 32q64 0 107.5 -25.5t43.5 -69.5q0 -41 -32.5 -63.5t-92.5 -22.5l-15 1l-9 -43h20q53 0 80.5 -19t27.5 -53
q0 -55 -47 -84t-125 -29q-81 0 -127.5 31.5t-50.5 87.5z" />
    <glyph glyph-name="acute" unicode="&#xb4;" horiz-adv-x="292" 
d="M-5 566l82 154h232l-163 -154h-151z" />
    <glyph glyph-name="mu" unicode="&#xb5;" horiz-adv-x="724" 
d="M75 -195v700h245v-302q0 -23 12.5 -36.5t31.5 -13.5q18 0 29.5 13t11.5 37v302h240v-505h-217q0 49 30 106h-79q-6 -22 -19 -46q-15 -29 -45 -52v-203h-240z" />
    <glyph glyph-name="paragraph" unicode="&#xb6;" horiz-adv-x="960" 
d="M434 700h586l-38 -180h-100l-152 -715h-189l152 715h-79l-152 -715h-188l63 300h-24q-120 0 -191.5 67t-71.5 174q-3 154 108.5 255t275.5 99z" />
    <glyph glyph-name="periodcentered" unicode="&#xb7;" horiz-adv-x="324" 
d="M44 281l46 214h245l-46 -214h-245z" />
    <glyph glyph-name="cedilla" unicode="&#xb8;" horiz-adv-x="332" 
d="M46 -171l81 74q7 -13 22.5 -23t34.5 -10q38 0 38 22q0 19 -28 19q-12 0 -23 -3l-23 62l183 68l39 -38l-45 -16l-41 -15l-33 -12q20 -3 43 -14q43 -26 43 -69q0 -52 -39 -80.5t-108 -28.5q-93 0 -144 64z" />
    <glyph glyph-name="onesuperior" unicode="&#xb9;" horiz-adv-x="347" 
d="M179 403l29 139q15 76 65 146h-52q-25 -59 -49 -85.5t-73 -30.5l30 138q101 2 137 81h146l-82 -388h-151z" />
    <glyph glyph-name="ordmasculine" unicode="&#xba;" horiz-adv-x="540" 
d="M63 464q0 113 77.5 182t196.5 69q113 0 177.5 -51.5t64.5 -140.5q0 -105 -77.5 -172t-196.5 -67q-112 0 -177 49t-65 131zM375 535q0 67 -42 67q-29 0 -47 -39t-18 -94q0 -57 41 -57q29 0 47.5 37.5t18.5 85.5z" />
    <glyph glyph-name="guillemotright" unicode="&#xbb;" horiz-adv-x="722" 
d="M308 505l94 -218l-205 -287h-228l228 305l-90 200h201zM594 505l101 -252l-172 -253h-228l196 271l-98 234h201z" />
    <glyph glyph-name="onequarter" unicode="&#xbc;" horiz-adv-x="1004" 
d="M151 312l29 139q15 76 65 146h-52q-25 -59 -49 -85.5t-73 -30.5l30 138q101 2 137 81h146l-82 -388h-151zM85 0l635 700h172l-634 -700h-173zM736 0l14 66h-197l34 151l153 171h216l-46 -218h53l-22 -104h-53l-14 -66h-138zM772 170l5 26q10 41 47 78l-29 26l-124 -142
l30 -24q27 36 61 36h10z" />
    <glyph glyph-name="onehalf" unicode="&#xbd;" horiz-adv-x="975" 
d="M151 312l29 139q15 76 65 146h-52q-25 -59 -49 -85.5t-73 -30.5l30 138q101 2 137 81h146l-82 -388h-151zM85 0l635 700h172l-634 -700h-173zM563 0l28 133q110 30 159.5 60.5t49.5 66.5q0 12 -7 19t-17 7q-33 0 -38 -57l-147 14q4 27 15.5 52t33 49.5t58 39t83.5 14.5
q75 0 120 -31.5t45 -81.5q0 -64 -65 -105q-36 -22 -102 -42q-55 -17 -102 -26l16 -47q25 14 86 31t104 17h36l-24 -113h-332z" />
    <glyph glyph-name="threequarters" unicode="&#xbe;" horiz-adv-x="1064" 
d="M58 421l144 23q0 -14 9.5 -22.5t24.5 -8.5q32 0 32 26q0 23 -31 23h-34l19 90h36q15 0 24.5 7.5t9.5 19.5q0 21 -25 21q-27 0 -33 -30l-140 19q14 57 62 89t122 32q64 0 107.5 -25.5t43.5 -69.5q0 -41 -32.5 -63.5t-92.5 -22.5l-15 1l-9 -43h20q53 0 80.5 -19t27.5 -53
q0 -55 -47 -84t-125 -29q-81 0 -127.5 31.5t-50.5 87.5zM145 0l635 700h172l-634 -700h-173zM796 0l14 66h-197l34 151l153 171h216l-46 -218h53l-22 -104h-53l-14 -66h-138zM832 170l5 26q10 41 47 78l-29 26l-124 -142l30 -24q27 36 61 36h10z" />
    <glyph glyph-name="questiondown" unicode="&#xbf;" horiz-adv-x="677" 
d="M544 622l-45 -214h-245l45 214h245zM340 181q-51 -25 -67 -37t-16 -29q0 -16 13 -26t36 -10q63 0 68 80l255 -34q-13 -94 -96.5 -157.5t-247.5 -63.5q-142 0 -218.5 49.5t-76.5 129.5q0 64 37.5 102.5t109.5 71.5q81 38 96 49.5t24 41.5h218q-12 -66 -36 -98.5t-99 -68.5
z" />
    <glyph glyph-name="Agrave" unicode="&#xc0;" horiz-adv-x="787" 
d="M486 0l-6 109h-221l-52 -109h-268l374 700h351l77 -700h-255zM346 289h125l-1 11v26q0 130 47 257h-85q-25 -166 -81 -283zM412 761l-109 154h255l20 -154h-166z" />
    <glyph glyph-name="Aacute" unicode="&#xc1;" horiz-adv-x="787" 
d="M486 0l-6 109h-221l-52 -109h-268l374 700h351l77 -700h-255zM346 289h125l-1 11v26q0 130 47 257h-85q-25 -166 -81 -283zM411 761l90 154h255l-179 -154h-166z" />
    <glyph glyph-name="Acircumflex" unicode="&#xc2;" horiz-adv-x="787" 
d="M486 0l-6 109h-221l-52 -109h-268l374 700h351l77 -700h-255zM346 289h125l-1 11v26q0 130 47 257h-85q-25 -166 -81 -283zM233 761l161 154h276l91 -154h-196l-48 74l-77 -74h-207z" />
    <glyph glyph-name="Atilde" unicode="&#xc3;" horiz-adv-x="787" 
d="M486 0l-6 109h-221l-52 -109h-268l374 700h351l77 -700h-255zM346 289h125l-1 11v26q0 130 47 257h-85q-25 -166 -81 -283zM504 780l-22 13q-21 16 -42 16q-37 0 -48 -49h-133q9 78 52 122t111 44q50 0 103 -29l22 -15q26 -14 43 -14q18 0 30.5 13t16.5 36h132
q-9 -76 -52 -121t-112 -45q-28 0 -47 4.5t-26.5 8.5t-27.5 16z" />
    <glyph glyph-name="Adieresis" unicode="&#xc4;" horiz-adv-x="787" 
d="M486 0l-6 109h-221l-52 -109h-268l374 700h351l77 -700h-255zM346 289h125l-1 11v26q0 130 47 257h-85q-25 -166 -81 -283zM251 761l35 154h217l-35 -154h-217zM533 761l36 154h216l-35 -154h-217z" />
    <glyph glyph-name="Aring" unicode="&#xc5;" horiz-adv-x="787" 
d="M486 0l-6 109h-221l-52 -109h-268l374 700h351l77 -700h-255zM346 289h125l-1 11v26q0 130 47 257h-85q-25 -166 -81 -283zM341 880q0 70 52 123.5t133 53.5q78 0 121 -41t43 -103q0 -70 -51 -123t-133 -53q-78 0 -121.5 40.5t-43.5 102.5zM564 904q0 18 -11 29t-30 11
q-24 0 -39 -14.5t-15 -38.5q0 -18 11 -29.5t31 -11.5q23 0 38 15.5t15 38.5z" />
    <glyph glyph-name="AE" unicode="&#xc6;" horiz-adv-x="1040" 
d="M1056 505h-313l-15 -70h255l-35 -167h-255l-16 -73h313l-41 -195h-526l25 120h-166l-70 -120h-287l453 700h719zM582 583h-93l-3 -12q-13 -59 -22 -92q-21 -86 -64 -158l-12 -21h98l9 43q9 46 36 118q28 75 51 122z" />
    <glyph glyph-name="Ccedilla" unicode="&#xc7;" horiz-adv-x="807" 
d="M535 300l266 -91q-84 -191 -311 -222l-14 -5l-44 -16l-38 -13q25 -3 47 -16q48 -26 48 -76q0 -56 -43 -87.5t-119 -31.5q-55 0 -96 21t-63 49l90 81q8 -14 25.5 -25t37.5 -11q42 0 42 24q0 21 -31 21q-14 0 -26 -3l-25 68l51 19q-139 18 -214.5 96.5t-75.5 199.5
q-2 187 117 313t309 123q151 0 249 -71.5t115 -179.5l-281 -61q-14 112 -98 112q-62 0 -99 -66t-37 -151q0 -57 22.5 -88.5t62.5 -31.5q86 0 133 119z" />
    <glyph glyph-name="Egrave" unicode="&#xc8;" horiz-adv-x="650" 
d="M-4 0l148 700h563l-41 -193h-316l-15 -70h258l-36 -170h-258l-15 -73h316l-41 -194h-563zM349 761l-109 154h255l20 -154h-166z" />
    <glyph glyph-name="Eacute" unicode="&#xc9;" horiz-adv-x="650" 
d="M-4 0l148 700h563l-41 -193h-316l-15 -70h258l-36 -170h-258l-15 -73h316l-41 -194h-563zM348 761l90 154h255l-179 -154h-166z" />
    <glyph glyph-name="Ecircumflex" unicode="&#xca;" horiz-adv-x="650" 
d="M-4 0l148 700h563l-41 -193h-316l-15 -70h258l-36 -170h-258l-15 -73h316l-41 -194h-563zM170 761l161 154h276l91 -154h-196l-48 74l-77 -74h-207z" />
    <glyph glyph-name="Edieresis" unicode="&#xcb;" horiz-adv-x="650" 
d="M-4 0l148 700h563l-41 -193h-316l-15 -70h258l-36 -170h-258l-15 -73h316l-41 -194h-563zM188 761l35 154h217l-35 -154h-217zM470 761l36 154h216l-35 -154h-217z" />
    <glyph glyph-name="Igrave" unicode="&#xcc;" horiz-adv-x="362" 
d="M-4 0l148 700h263l-148 -700h-263zM201 761l-109 154h255l20 -154h-166z" />
    <glyph glyph-name="Iacute" unicode="&#xcd;" horiz-adv-x="362" 
d="M-4 0l148 700h263l-148 -700h-263zM200 761l90 154h255l-179 -154h-166z" />
    <glyph glyph-name="Icircumflex" unicode="&#xce;" horiz-adv-x="362" 
d="M-4 0l148 700h263l-148 -700h-263zM20 761l161 154h276l91 -154h-196l-48 74l-77 -74h-207z" />
    <glyph glyph-name="Idieresis" unicode="&#xcf;" horiz-adv-x="362" 
d="M-4 0l148 700h263l-148 -700h-263zM38 761l35 154h217l-35 -154h-217zM320 761l36 154h216l-35 -154h-217z" />
    <glyph glyph-name="Eth" unicode="&#xd0;" horiz-adv-x="801" 
d="M800 411q2 -176 -119 -295t-305 -116h-360l59 277h-59l30 145h59l59 278h291q158 0 251.5 -79t93.5 -210zM527 386q0 55 -30 87t-86 32h-31l-18 -83h91l-30 -145h-92l-17 -80h52q71 0 116 56t45 133z" />
    <glyph glyph-name="Ntilde" unicode="&#xd1;" horiz-adv-x="843" 
d="M-4 0l148 700h310l161 -491l71 25q-67 170 -67 284q0 48 11 103l16 79h242l-148 -700h-261l-194 591l-72 -23q66 -169 66 -297q0 -70 -16 -141l-27 -130h-240zM530 780l-22 13q-21 16 -42 16q-37 0 -48 -49h-133q9 78 52 122t111 44q50 0 103 -29l22 -15q26 -14 43 -14
q18 0 30.5 13t16.5 36h132q-9 -76 -52 -121t-112 -45q-28 0 -47 4.5t-26.5 8.5t-27.5 16z" />
    <glyph glyph-name="Ograve" unicode="&#xd2;" horiz-adv-x="867" 
d="M45 302q-2 180 120.5 299t316.5 117q185 0 283 -86t98 -233q2 -181 -120.5 -300.5t-316.5 -116.5q-186 0 -283.5 86t-97.5 234zM585 398q0 58 -28.5 90t-82.5 32q-69 0 -109.5 -62.5t-40.5 -154.5q0 -58 28 -90t82 -32q70 0 110.5 62.5t40.5 154.5zM433 761l-109 154h255
l20 -154h-166z" />
    <glyph glyph-name="Oacute" unicode="&#xd3;" horiz-adv-x="867" 
d="M45 302q-2 180 120.5 299t316.5 117q185 0 283 -86t98 -233q2 -181 -120.5 -300.5t-316.5 -116.5q-186 0 -283.5 86t-97.5 234zM585 398q0 58 -28.5 90t-82.5 32q-69 0 -109.5 -62.5t-40.5 -154.5q0 -58 28 -90t82 -32q70 0 110.5 62.5t40.5 154.5zM432 761l90 154h255
l-179 -154h-166z" />
    <glyph glyph-name="Ocircumflex" unicode="&#xd4;" horiz-adv-x="867" 
d="M45 302q-2 180 120.5 299t316.5 117q185 0 283 -86t98 -233q2 -181 -120.5 -300.5t-316.5 -116.5q-186 0 -283.5 86t-97.5 234zM585 398q0 58 -28.5 90t-82.5 32q-69 0 -109.5 -62.5t-40.5 -154.5q0 -58 28 -90t82 -32q70 0 110.5 62.5t40.5 154.5zM254 761l161 154h276
l91 -154h-196l-48 74l-77 -74h-207z" />
    <glyph glyph-name="Otilde" unicode="&#xd5;" horiz-adv-x="867" 
d="M45 302q-2 180 120.5 299t316.5 117q185 0 283 -86t98 -233q2 -181 -120.5 -300.5t-316.5 -116.5q-186 0 -283.5 86t-97.5 234zM585 398q0 58 -28.5 90t-82.5 32q-69 0 -109.5 -62.5t-40.5 -154.5q0 -58 28 -90t82 -32q70 0 110.5 62.5t40.5 154.5zM525 780l-22 13
q-21 16 -42 16q-37 0 -48 -49h-133q9 78 52 122t111 44q50 0 103 -29l22 -15q26 -14 43 -14q18 0 30.5 13t16.5 36h132q-9 -76 -52 -121t-112 -45q-28 0 -47 4.5t-26.5 8.5t-27.5 16z" />
    <glyph glyph-name="Odieresis" unicode="&#xd6;" horiz-adv-x="867" 
d="M45 302q-2 180 120.5 299t316.5 117q185 0 283 -86t98 -233q2 -181 -120.5 -300.5t-316.5 -116.5q-186 0 -283.5 86t-97.5 234zM585 398q0 58 -28.5 90t-82.5 32q-69 0 -109.5 -62.5t-40.5 -154.5q0 -58 28 -90t82 -32q70 0 110.5 62.5t40.5 154.5zM272 761l35 154h217
l-35 -154h-217zM554 761l36 154h216l-35 -154h-217z" />
    <glyph glyph-name="multiply" unicode="&#xd7;" horiz-adv-x="662" 
d="M189 68l-118 118l159 155l-160 157l120 117l160 -157l159 155l118 -115l-159 -156l159 -157l-119 -117l-159 157z" />
    <glyph glyph-name="Oslash" unicode="&#xd8;" horiz-adv-x="869" 
d="M87 -24l-92 120l81 62q-30 64 -30 144q-2 181 120.5 300t316.5 117q145 0 251 -62l93 70l92 -124l-83 -62q28 -60 28 -142q2 -181 -120.5 -300.5t-316.5 -116.5q-156 0 -251 62zM328 349l107 81q47 36 106 36q13 0 42 -3l23 69q-38 15 -84 15q-79 0 -129.5 -42.5
t-61.5 -129.5zM576 313q7 31 8 37l-101 -76q-54 -41 -109 -41q-18 0 -53 4l-15 -71q33 -14 77 -14q72 0 122.5 42t70.5 119z" />
    <glyph glyph-name="Ugrave" unicode="&#xd9;" horiz-adv-x="778" 
d="M43 220q0 44 10 88l83 392h259l-77 -366q-9 -44 -9 -73q0 -37 15.5 -53.5t49.5 -16.5q88 0 117 143l77 366h262l-83 -392q-36 -174 -126.5 -250t-264.5 -76q-154 0 -233.5 61t-79.5 177zM410 761l-109 154h255l20 -154h-166z" />
    <glyph glyph-name="Uacute" unicode="&#xda;" horiz-adv-x="778" 
d="M43 220q0 44 10 88l83 392h259l-77 -366q-9 -44 -9 -73q0 -37 15.5 -53.5t49.5 -16.5q88 0 117 143l77 366h262l-83 -392q-36 -174 -126.5 -250t-264.5 -76q-154 0 -233.5 61t-79.5 177zM409 761l90 154h255l-179 -154h-166z" />
    <glyph glyph-name="Ucircumflex" unicode="&#xdb;" horiz-adv-x="778" 
d="M43 220q0 44 10 88l83 392h259l-77 -366q-9 -44 -9 -73q0 -37 15.5 -53.5t49.5 -16.5q88 0 117 143l77 366h262l-83 -392q-36 -174 -126.5 -250t-264.5 -76q-154 0 -233.5 61t-79.5 177zM221 761l161 154h276l91 -154h-196l-48 74l-77 -74h-207z" />
    <glyph glyph-name="Udieresis" unicode="&#xdc;" horiz-adv-x="778" 
d="M43 220q0 44 10 88l83 392h259l-77 -366q-9 -44 -9 -73q0 -37 15.5 -53.5t49.5 -16.5q88 0 117 143l77 366h262l-83 -392q-36 -174 -126.5 -250t-264.5 -76q-154 0 -233.5 61t-79.5 177zM239 761l35 154h217l-35 -154h-217zM521 761l36 154h216l-35 -154h-217z" />
    <glyph glyph-name="Yacute" unicode="&#xdd;" horiz-adv-x="742" 
d="M184 0l55 256l-156 444h263l16 -58q13 -46 13 -103q0 -74 -27 -176h79q28 169 111 292l31 45h281l-349 -448l-54 -252h-263zM386 761l90 154h255l-179 -154h-166z" />
    <glyph glyph-name="Thorn" unicode="&#xde;" horiz-adv-x="722" 
d="M724 386q2 -117 -85 -201.5t-220 -82.5h-139l-21 -102h-263l148 700h263l-21 -101h87q109 0 180 -55.5t71 -157.5zM472 355q0 54 -67 54h-59l-27 -127h75q35 0 56.5 22t21.5 51z" />
    <glyph glyph-name="germandbls" unicode="&#xdf;" horiz-adv-x="663" 
d="M264 -2l39 184q21 -7 41 -7q29 0 46.5 16t17.5 41q0 19 -15.5 33.5t-39.5 14.5h-29l32 151h16q34 0 53.5 16t19.5 41q0 19 -14 31.5t-38 12.5q-32 0 -49.5 -20.5t-28.5 -69.5l-94 -442h-238l92 434q14 67 36.5 116t60 88.5t96 59.5t137.5 20q125 0 190 -49t65 -116
q0 -74 -55 -115t-152 -40l-15 -74q85 2 138 -40t53 -110q0 -88 -66.5 -140t-168.5 -52q-78 0 -130 16z" />
    <glyph glyph-name="agrave" unicode="&#xe0;" horiz-adv-x="640" 
d="M4 116q0 88 90.5 142t277.5 63l3 13q1 5 1 14q0 38 -45 38q-48 0 -62 -56l-237 25q19 74 99.5 121t212.5 47q118 0 183.5 -46t65.5 -132q0 -23 -6 -54l-21 -98q0 -3 -0.5 -6t-1 -5t-0.5 -3q0 -19 24 -19h28l-34 -160h-111q-87 0 -87 66q0 13 5 38h-64q-58 -122 -181 -122
q-63 0 -101.5 38t-38.5 96zM346 199l6 28q-53 -3 -85 -22t-32 -50q0 -32 34 -32q59 0 77 76zM295 566l-99 154h232l18 -154h-151z" />
    <glyph glyph-name="aacute" unicode="&#xe1;" horiz-adv-x="640" 
d="M4 116q0 88 90.5 142t277.5 63l3 13q1 5 1 14q0 38 -45 38q-48 0 -62 -56l-237 25q19 74 99.5 121t212.5 47q118 0 183.5 -46t65.5 -132q0 -23 -6 -54l-21 -98q0 -3 -0.5 -6t-1 -5t-0.5 -3q0 -19 24 -19h28l-34 -160h-111q-87 0 -87 66q0 13 5 38h-64q-58 -122 -181 -122
q-63 0 -101.5 38t-38.5 96zM346 199l6 28q-53 -3 -85 -22t-32 -50q0 -32 34 -32q59 0 77 76zM292 566l82 154h232l-163 -154h-151z" />
    <glyph glyph-name="acircumflex" unicode="&#xe2;" horiz-adv-x="640" 
d="M4 116q0 88 90.5 142t277.5 63l3 13q1 5 1 14q0 38 -45 38q-48 0 -62 -56l-237 25q19 74 99.5 121t212.5 47q118 0 183.5 -46t65.5 -132q0 -23 -6 -54l-21 -98q0 -3 -0.5 -6t-1 -5t-0.5 -3q0 -19 24 -19h28l-34 -160h-111q-87 0 -87 66q0 13 5 38h-64q-58 -122 -181 -122
q-63 0 -101.5 38t-38.5 96zM346 199l6 28q-53 -3 -85 -22t-32 -50q0 -32 34 -32q59 0 77 76zM126 566l147 154h250l83 -154h-178l-43 74l-71 -74h-188z" />
    <glyph glyph-name="atilde" unicode="&#xe3;" horiz-adv-x="640" 
d="M4 116q0 88 90.5 142t277.5 63l3 13q1 5 1 14q0 38 -45 38q-48 0 -62 -56l-237 25q19 74 99.5 121t212.5 47q118 0 183.5 -46t65.5 -132q0 -23 -6 -54l-21 -98q0 -3 -0.5 -6t-1 -5t-0.5 -3q0 -19 24 -19h28l-34 -160h-111q-87 0 -87 66q0 13 5 38h-64q-58 -122 -181 -122
q-63 0 -101.5 38t-38.5 96zM346 199l6 28q-53 -3 -85 -22t-32 -50q0 -32 34 -32q59 0 77 76zM366 585l-21 13q-21 16 -41 16q-34 0 -46 -48h-129q9 76 50.5 120t107.5 44q53 0 99 -30l22 -14q25 -14 41 -14q17 0 29.5 13t16.5 35h128q-9 -76 -51.5 -120t-107.5 -44
q-9 0 -17 0.5t-15 2t-11.5 2t-10.5 2.5l-9 3t-9 4t-7.5 4t-9 5.5t-9.5 5.5z" />
    <glyph glyph-name="adieresis" unicode="&#xe4;" horiz-adv-x="640" 
d="M4 116q0 88 90.5 142t277.5 63l3 13q1 5 1 14q0 38 -45 38q-48 0 -62 -56l-237 25q19 74 99.5 121t212.5 47q118 0 183.5 -46t65.5 -132q0 -23 -6 -54l-21 -98q0 -3 -0.5 -6t-1 -5t-0.5 -3q0 -19 24 -19h28l-34 -160h-111q-87 0 -87 66q0 13 5 38h-64q-58 -122 -181 -122
q-63 0 -101.5 38t-38.5 96zM346 199l6 28q-53 -3 -85 -22t-32 -50q0 -32 34 -32q59 0 77 76zM143 566l32 154h197l-32 -154h-197zM400 566l32 154h197l-32 -154h-197z" />
    <glyph glyph-name="aring" unicode="&#xe5;" horiz-adv-x="640" 
d="M4 116q0 88 90.5 142t277.5 63l3 13q1 5 1 14q0 38 -45 38q-48 0 -62 -56l-237 25q19 74 99.5 121t212.5 47q118 0 183.5 -46t65.5 -132q0 -23 -6 -54l-21 -98q0 -3 -0.5 -6t-1 -5t-0.5 -3q0 -19 24 -19h28l-34 -160h-111q-87 0 -87 66q0 13 5 38h-64q-58 -122 -181 -122
q-63 0 -101.5 38t-38.5 96zM346 199l6 28q-53 -3 -85 -22t-32 -50q0 -32 34 -32q59 0 77 76zM228 670q0 61 45 107t115 46q68 0 104.5 -35.5t36.5 -89.5q0 -60 -44 -106t-114 -46q-69 0 -106 35.5t-37 88.5zM421 691q0 34 -36 34q-21 0 -33.5 -12.5t-12.5 -33.5
q0 -15 9.5 -25t26.5 -10q20 0 33 13t13 34z" />
    <glyph glyph-name="ae" unicode="&#xe6;" horiz-adv-x="953" 
d="M-4 114q0 84 92.5 141t274.5 66l3 16q1 5 1 10q0 39 -47 39q-52 0 -74 -57l-210 24q25 76 91 123t164 47q77 0 120 -34.5t51 -88.5h65q17 49 67 86t123 37q96 0 157.5 -60t61.5 -155q0 -44 -14 -92h-340q-3 -22 -3 -36q0 -49 44 -49q48 0 80 59l211 -54
q-32 -67 -104 -110.5t-168 -43.5q-112 0 -170.5 45t-63.5 100h-61q-17 -56 -65 -100q-48 -45 -143 -45q-63 0 -103 33t-40 99zM601 311h115q3 15 3 23q0 23 -12.5 36.5t-34.5 13.5q-53 0 -71 -73zM337 199l6 28q-117 -12 -117 -75q0 -13 8.5 -21t23.5 -8q63 0 79 76z" />
    <glyph glyph-name="ccedilla" unicode="&#xe7;" horiz-adv-x="621" 
d="M372 220l229 -33q-19 -77 -79 -131.5t-157 -68.5l-9 -3l-41 -15l-33 -12q20 -3 43 -14q43 -26 43 -69q0 -52 -39 -80.5t-108 -28.5q-93 0 -144 64l81 74q7 -13 22.5 -23t34.5 -10q38 0 38 22q0 19 -28 19q-13 0 -23 -3l-23 62l45 17q-100 14 -154.5 70.5t-54.5 147.5
q-2 136 92 228t234 90q120 0 193.5 -58t79.5 -146l-230 -34q0 38 -13.5 62.5t-39.5 24.5q-37 0 -58 -53t-21 -117q0 -69 45 -69q25 0 45 23t30 64z" />
    <glyph glyph-name="egrave" unicode="&#xe8;" horiz-adv-x="615" 
d="M15 204q0 140 90.5 229.5t236.5 89.5q115 0 183 -60t68 -160q0 -42 -14 -92h-340q-4 -19 -4 -33q0 -47 44 -47t78 59l223 -54q-33 -68 -109.5 -111t-188.5 -43q-124 0 -195.5 59t-71.5 163zM258 311h112q3 13 3 24q0 49 -46 49q-51 0 -69 -73zM295 566l-99 154h232
l18 -154h-151z" />
    <glyph glyph-name="eacute" unicode="&#xe9;" horiz-adv-x="615" 
d="M15 204q0 140 90.5 229.5t236.5 89.5q115 0 183 -60t68 -160q0 -42 -14 -92h-340q-4 -19 -4 -33q0 -47 44 -47t78 59l223 -54q-33 -68 -109.5 -111t-188.5 -43q-124 0 -195.5 59t-71.5 163zM258 311h112q3 13 3 24q0 49 -46 49q-51 0 -69 -73zM292 566l82 154h232
l-163 -154h-151z" />
    <glyph glyph-name="ecircumflex" unicode="&#xea;" horiz-adv-x="615" 
d="M15 204q0 140 90.5 229.5t236.5 89.5q115 0 183 -60t68 -160q0 -42 -14 -92h-340q-4 -19 -4 -33q0 -47 44 -47t78 59l223 -54q-33 -68 -109.5 -111t-188.5 -43q-124 0 -195.5 59t-71.5 163zM258 311h112q3 13 3 24q0 49 -46 49q-51 0 -69 -73zM126 566l147 154h250
l83 -154h-178l-43 74l-71 -74h-188z" />
    <glyph glyph-name="edieresis" unicode="&#xeb;" horiz-adv-x="615" 
d="M15 204q0 140 90.5 229.5t236.5 89.5q115 0 183 -60t68 -160q0 -42 -14 -92h-340q-4 -19 -4 -33q0 -47 44 -47t78 59l223 -54q-33 -68 -109.5 -111t-188.5 -43q-124 0 -195.5 59t-71.5 163zM258 311h112q3 13 3 24q0 49 -46 49q-51 0 -69 -73zM143 566l32 154h197
l-32 -154h-197zM400 566l32 154h197l-32 -154h-197z" />
    <glyph glyph-name="igrave" unicode="&#xec;" horiz-adv-x="316" 
d="M-18 0l108 505h243l-108 -505h-243zM151 566l-99 154h232l18 -154h-151z" />
    <glyph glyph-name="iacute" unicode="&#xed;" horiz-adv-x="316" 
d="M-18 0l108 505h243l-108 -505h-243zM148 566l82 154h232l-163 -154h-151z" />
    <glyph glyph-name="icircumflex" unicode="&#xee;" horiz-adv-x="316" 
d="M-18 0l108 505h243l-108 -505h-243zM-18 566l147 154h250l83 -154h-178l-43 74l-71 -74h-188z" />
    <glyph glyph-name="idieresis" unicode="&#xef;" horiz-adv-x="316" 
d="M-18 0l108 505h243l-108 -505h-243zM-1 566l32 154h197l-32 -154h-197zM256 566l32 154h197l-32 -154h-197z" />
    <glyph glyph-name="eth" unicode="&#xf0;" horiz-adv-x="655" 
d="M685 609l-78 -34q44 -80 44 -195q2 -169 -104 -285t-268 -113q-53 0 -98 11.5t-84 36.5t-61.5 71t-22.5 109q0 111 64 183t159 72q78 0 112 -34q36 -35 50 -79h70v24q0 84 -34 125l-78 -33l-37 81h-11q-87 0 -192 -49l39 185q90 34 178 34q104 0 178 -44l117 53zM385 250
q0 36 -18 56t-51 20q-35 0 -59.5 -30t-24.5 -66q0 -37 18 -58.5t50 -21.5q39 0 62 31t23 69z" />
    <glyph glyph-name="ntilde" unicode="&#xf1;" horiz-adv-x="637" 
d="M-16 0l105 505h210q-14 -62 -60 -116h88q52 133 159 133q59 0 99 -37t40 -110q0 -33 -7 -62l-66 -313h-241l62 291q2 18 2 21q0 40 -36 40q-40 0 -52 -61l-62 -291h-241zM384 585l-21 13q-21 16 -41 16q-34 0 -46 -48h-129q9 76 50.5 120t107.5 44q53 0 99 -30l22 -14
q25 -14 41 -14q17 0 29.5 13t16.5 35h128q-9 -76 -51.5 -120t-107.5 -44q-9 0 -17 0.5t-15 2t-11.5 2t-10.5 2.5l-9 3t-9 4t-7.5 4t-9 5.5t-9.5 5.5z" />
    <glyph glyph-name="ograve" unicode="&#xf2;" horiz-adv-x="663" 
d="M16 212q0 140 93.5 225.5t243.5 85.5q139 0 215.5 -63.5t76.5 -172.5q0 -139 -92 -222t-242 -83q-140 0 -217.5 61t-77.5 169zM390 296q0 75 -45 75q-34 0 -54 -49.5t-20 -113.5q0 -40 10 -57.5t33 -17.5q35 0 55.5 49.5t20.5 113.5zM313 566l-99 154h232l18 -154h-151z
" />
    <glyph glyph-name="oacute" unicode="&#xf3;" horiz-adv-x="663" 
d="M16 212q0 140 93.5 225.5t243.5 85.5q139 0 215.5 -63.5t76.5 -172.5q0 -139 -92 -222t-242 -83q-140 0 -217.5 61t-77.5 169zM390 296q0 75 -45 75q-34 0 -54 -49.5t-20 -113.5q0 -40 10 -57.5t33 -17.5q35 0 55.5 49.5t20.5 113.5zM310 566l82 154h232l-163 -154h-151z
" />
    <glyph glyph-name="ocircumflex" unicode="&#xf4;" horiz-adv-x="663" 
d="M16 212q0 140 93.5 225.5t243.5 85.5q139 0 215.5 -63.5t76.5 -172.5q0 -139 -92 -222t-242 -83q-140 0 -217.5 61t-77.5 169zM390 296q0 75 -45 75q-34 0 -54 -49.5t-20 -113.5q0 -40 10 -57.5t33 -17.5q35 0 55.5 49.5t20.5 113.5zM144 566l147 154h250l83 -154h-178
l-43 74l-71 -74h-188z" />
    <glyph glyph-name="otilde" unicode="&#xf5;" horiz-adv-x="663" 
d="M16 212q0 140 93.5 225.5t243.5 85.5q139 0 215.5 -63.5t76.5 -172.5q0 -139 -92 -222t-242 -83q-140 0 -217.5 61t-77.5 169zM390 296q0 75 -45 75q-34 0 -54 -49.5t-20 -113.5q0 -40 10 -57.5t33 -17.5q35 0 55.5 49.5t20.5 113.5zM384 585l-21 13q-21 16 -41 16
q-34 0 -46 -48h-129q9 76 50.5 120t107.5 44q53 0 99 -30l22 -14q25 -14 41 -14q17 0 29.5 13t16.5 35h128q-9 -76 -51.5 -120t-107.5 -44q-9 0 -17 0.5t-15 2t-11.5 2t-10.5 2.5l-9 3t-9 4t-7.5 4t-9 5.5t-9.5 5.5z" />
    <glyph glyph-name="odieresis" unicode="&#xf6;" horiz-adv-x="663" 
d="M16 212q0 140 93.5 225.5t243.5 85.5q139 0 215.5 -63.5t76.5 -172.5q0 -139 -92 -222t-242 -83q-140 0 -217.5 61t-77.5 169zM390 296q0 75 -45 75q-34 0 -54 -49.5t-20 -113.5q0 -40 10 -57.5t33 -17.5q35 0 55.5 49.5t20.5 113.5zM161 566l32 154h197l-32 -154h-197z
M418 566l32 154h197l-32 -154h-197z" />
    <glyph glyph-name="divide" unicode="&#xf7;" horiz-adv-x="614" 
d="M237 473v167h183v-167h-183zM59 278v150h538v-150h-538zM237 66v167h183v-167h-183z" />
    <glyph glyph-name="oslash" unicode="&#xf8;" horiz-adv-x="669" 
d="M109 35l-74 -48l-71 102l69 44q-13 33 -13 79q0 140 93.5 225.5t243.5 85.5q125 0 202 -53l80 54l70 -103l-74 -50q14 -40 14 -84q0 -139 -92 -222t-242 -83q-132 0 -206 53zM283 296l18 11q25 15 56 15q20 0 44 -8l16 74q-18 6 -42 6q-33 0 -56.5 -23.5t-32.5 -60.5z
M377 191l4 19l-19 -13q-35 -25 -66 -25q-11 0 -23 4l-16 -74q9 -4 23 -4q37 0 59 23t38 70z" />
    <glyph glyph-name="ugrave" unicode="&#xf9;" horiz-adv-x="634" 
d="M7 108q0 31 7 60l71 337h242l-63 -298q0 -3 -0.5 -5.5t-1 -4.5t-0.5 -3.5v-2.5q0 -18 10 -28t25 -10q41 0 53 54l63 298h237l-105 -505h-211q11 51 53 106h-86q-64 -123 -167 -123q-60 0 -93.5 31.5t-33.5 93.5zM308 566l-99 154h232l18 -154h-151z" />
    <glyph glyph-name="uacute" unicode="&#xfa;" horiz-adv-x="634" 
d="M7 108q0 31 7 60l71 337h242l-63 -298q0 -3 -0.5 -5.5t-1 -4.5t-0.5 -3.5v-2.5q0 -18 10 -28t25 -10q41 0 53 54l63 298h237l-105 -505h-211q11 51 53 106h-86q-64 -123 -167 -123q-60 0 -93.5 31.5t-33.5 93.5zM305 566l82 154h232l-163 -154h-151z" />
    <glyph glyph-name="ucircumflex" unicode="&#xfb;" horiz-adv-x="634" 
d="M7 108q0 31 7 60l71 337h242l-63 -298q0 -3 -0.5 -5.5t-1 -4.5t-0.5 -3.5v-2.5q0 -18 10 -28t25 -10q41 0 53 54l63 298h237l-105 -505h-211q11 51 53 106h-86q-64 -123 -167 -123q-60 0 -93.5 31.5t-33.5 93.5zM139 566l147 154h250l83 -154h-178l-43 74l-71 -74h-188z
" />
    <glyph glyph-name="udieresis" unicode="&#xfc;" horiz-adv-x="634" 
d="M7 108q0 31 7 60l71 337h242l-63 -298q0 -3 -0.5 -5.5t-1 -4.5t-0.5 -3.5v-2.5q0 -18 10 -28t25 -10q41 0 53 54l63 298h237l-105 -505h-211q11 51 53 106h-86q-64 -123 -167 -123q-60 0 -93.5 31.5t-33.5 93.5zM156 566l32 154h197l-32 -154h-197zM413 566l32 154h197
l-32 -154h-197z" />
    <glyph glyph-name="yacute" unicode="&#xfd;" horiz-adv-x="627" 
d="M452 505h236l-297 -530q-36 -66 -68 -104q-54 -66 -179 -66h-187l36 170h140q15 0 21.5 5.5t15.5 21.5l17 31l-159 472h241l18 -90q5 -27 5 -58q0 -82 -35 -222h71q31 184 83 289zM289 566l82 154h232l-163 -154h-151z" />
    <glyph glyph-name="thorn" unicode="&#xfe;" horiz-adv-x="660" 
d="M-58 -195l190 895h241l-23 -101q-26 -109 -100 -193h94q26 58 56 87.5t81 29.5q73 0 116.5 -57t43.5 -155q1 -83 -28.5 -158.5t-85 -124t-122.5 -46.5q-113 0 -130 114h-78q19 -45 19 -95q0 -33 -7 -65l-27 -131h-240zM388 300q0 70 -50 70q-30 0 -52 -50.5t-22 -115.5
q0 -71 47 -71q31 0 54 50.5t23 116.5z" />
    <glyph glyph-name="ydieresis" unicode="&#xff;" horiz-adv-x="627" 
d="M452 505h236l-297 -530q-36 -66 -68 -104q-54 -66 -179 -66h-187l36 170h140q15 0 21.5 5.5t15.5 21.5l17 31l-159 472h241l18 -90q5 -27 5 -58q0 -82 -35 -222h71q31 184 83 289zM140 566l32 154h197l-32 -154h-197zM397 566l32 154h197l-32 -154h-197z" />
    <glyph glyph-name="Amacron" unicode="&#x100;" horiz-adv-x="787" 
d="M486 0l-6 109h-221l-52 -109h-268l374 700h351l77 -700h-255zM346 289h125l-1 11v26q0 130 47 257h-85q-25 -166 -81 -283zM290 761l27 124h415l-27 -124h-415z" />
    <glyph glyph-name="amacron" unicode="&#x101;" horiz-adv-x="640" 
d="M4 116q0 88 90.5 142t277.5 63l3 13q1 5 1 14q0 38 -45 38q-48 0 -62 -56l-237 25q19 74 99.5 121t212.5 47q118 0 183.5 -46t65.5 -132q0 -23 -6 -54l-21 -98q0 -3 -0.5 -6t-1 -5t-0.5 -3q0 -19 24 -19h28l-34 -160h-111q-87 0 -87 66q0 13 5 38h-64q-58 -122 -181 -122
q-63 0 -101.5 38t-38.5 96zM346 199l6 28q-53 -3 -85 -22t-32 -50q0 -32 34 -32q59 0 77 76zM198 576l26 124h346l-26 -124h-346z" />
    <glyph glyph-name="Abreve" unicode="&#x102;" horiz-adv-x="787" 
d="M486 0l-6 109h-221l-52 -109h-268l374 700h351l77 -700h-255zM346 289h125l-1 11v26q0 130 47 257h-85q-25 -166 -81 -283zM300 917h149q0 -31 19 -49t54 -18q76 0 104 67h153q-57 -179 -261 -179q-106 0 -163.5 47t-54.5 132z" />
    <glyph glyph-name="abreve" unicode="&#x103;" horiz-adv-x="640" 
d="M4 116q0 88 90.5 142t277.5 63l3 13q1 5 1 14q0 38 -45 38q-48 0 -62 -56l-237 25q19 74 99.5 121t212.5 47q118 0 183.5 -46t65.5 -132q0 -23 -6 -54l-21 -98q0 -3 -0.5 -6t-1 -5t-0.5 -3q0 -19 24 -19h28l-34 -160h-111q-87 0 -87 66q0 13 5 38h-64q-58 -122 -181 -122
q-63 0 -101.5 38t-38.5 96zM346 199l6 28q-53 -3 -85 -22t-32 -50q0 -32 34 -32q59 0 77 76zM186 720h135q0 -30 17 -46.5t50 -16.5q68 0 94 63h140q-52 -168 -238 -168q-96 0 -148.5 44.5t-49.5 123.5z" />
    <glyph glyph-name="Aogonek" unicode="&#x104;" horiz-adv-x="787" 
d="M628 -80q38 0 101 23l-29 -135q-56 -27 -118 -27q-55 0 -89 24t-34 70q0 76 88 125h-61l-6 109h-221l-52 -109h-268l374 700h351l77 -700q-60 -15 -93 -28t-41 -20t-8 -15q0 -17 29 -17zM346 289h125l-1 11v26q0 130 47 257h-85q-25 -166 -81 -283z" />
    <glyph glyph-name="aogonek" unicode="&#x105;" horiz-adv-x="640" 
d="M440 -63q0 -17 29 -17q37 0 101 23l-29 -135q-56 -27 -118 -27q-55 0 -89 24t-34 70q0 87 112 137q-28 16 -28 54q0 13 5 38h-64q-58 -122 -181 -122q-63 0 -101.5 38t-38.5 96q0 88 90.5 142t277.5 63l3 13q1 5 1 14q0 38 -45 38q-48 0 -62 -56l-237 25q19 74 99.5 121
t212.5 47q118 0 183.5 -46t65.5 -132q0 -23 -6 -54l-21 -98q0 -3 -0.5 -6t-1 -5t-0.5 -3q0 -19 24 -19h28l-34 -160q-60 -15 -93 -28t-41 -20t-8 -15zM346 199l6 28q-53 -3 -85 -22t-32 -50q0 -32 34 -32q59 0 77 76z" />
    <glyph glyph-name="Cacute" unicode="&#x106;" horiz-adv-x="807" 
d="M42 282q-2 187 117 313t309 123q151 0 249 -71.5t115 -179.5l-281 -61q-14 112 -98 112q-62 0 -99 -66t-37 -151q0 -57 22.5 -88.5t62.5 -31.5q86 0 133 119l266 -91q-102 -227 -397 -227q-171 0 -266.5 81.5t-95.5 218.5zM420 761l90 154h255l-179 -154h-166z" />
    <glyph glyph-name="cacute" unicode="&#x107;" horiz-adv-x="621" 
d="M15 205q-2 136 92 228t234 90q120 0 193.5 -58t79.5 -146l-230 -34q0 38 -13.5 62.5t-39.5 24.5q-37 0 -58 -53t-21 -117q0 -69 45 -69q25 0 45 23t30 64l229 -33q-23 -88 -99 -146.5t-208 -58.5q-131 0 -205 58t-74 165zM300 566l82 154h232l-163 -154h-151z" />
    <glyph glyph-name="Ccircumflex" unicode="&#x108;" horiz-adv-x="807" 
d="M42 282q-2 187 117 313t309 123q151 0 249 -71.5t115 -179.5l-281 -61q-14 112 -98 112q-62 0 -99 -66t-37 -151q0 -57 22.5 -88.5t62.5 -31.5q86 0 133 119l266 -91q-102 -227 -397 -227q-171 0 -266.5 81.5t-95.5 218.5zM242 761l161 154h276l91 -154h-196l-48 74
l-77 -74h-207z" />
    <glyph glyph-name="ccircumflex" unicode="&#x109;" horiz-adv-x="621" 
d="M15 205q-2 136 92 228t234 90q120 0 193.5 -58t79.5 -146l-230 -34q0 38 -13.5 62.5t-39.5 24.5q-37 0 -58 -53t-21 -117q0 -69 45 -69q25 0 45 23t30 64l229 -33q-23 -88 -99 -146.5t-208 -58.5q-131 0 -205 58t-74 165zM134 566l147 154h250l83 -154h-178l-43 74
l-71 -74h-188z" />
    <glyph glyph-name="Cdotaccent" unicode="&#x10a;" horiz-adv-x="807" 
d="M42 282q-2 187 117 313t309 123q151 0 249 -71.5t115 -179.5l-281 -61q-14 112 -98 112q-62 0 -99 -66t-37 -151q0 -57 22.5 -88.5t62.5 -31.5q86 0 133 119l266 -91q-102 -227 -397 -227q-171 0 -266.5 81.5t-95.5 218.5zM409 749l38 175h198l-38 -175h-198z" />
    <glyph glyph-name="cdotaccent" unicode="&#x10b;" horiz-adv-x="621" 
d="M15 205q-2 136 92 228t234 90q120 0 193.5 -58t79.5 -146l-230 -34q0 38 -13.5 62.5t-39.5 24.5q-37 0 -58 -53t-21 -117q0 -69 45 -69q25 0 45 23t30 64l229 -33q-23 -88 -99 -146.5t-208 -58.5q-131 0 -205 58t-74 165zM280 555l38 175h198l-38 -175h-198z" />
    <glyph glyph-name="Ccaron" unicode="&#x10c;" horiz-adv-x="807" 
d="M42 282q-2 187 117 313t309 123q151 0 249 -71.5t115 -179.5l-281 -61q-14 112 -98 112q-62 0 -99 -66t-37 -151q0 -57 22.5 -88.5t62.5 -31.5q86 0 133 119l266 -91q-102 -227 -397 -227q-171 0 -266.5 81.5t-95.5 218.5zM806 915l-161 -154h-276l-90 154h195l48 -74
l77 74h207z" />
    <glyph glyph-name="ccaron" unicode="&#x10d;" horiz-adv-x="621" 
d="M15 205q-2 136 92 228t234 90q120 0 193.5 -58t79.5 -146l-230 -34q0 38 -13.5 62.5t-39.5 24.5q-37 0 -58 -53t-21 -117q0 -69 45 -69q25 0 45 23t30 64l229 -33q-23 -88 -99 -146.5t-208 -58.5q-131 0 -205 58t-74 165zM254 566l-83 154h178l40 -84l74 84h188
l-147 -154h-250z" />
    <glyph glyph-name="Dcaron" unicode="&#x10e;" horiz-adv-x="781" 
d="M-4 0l148 700h291q158 0 251.5 -79t93.5 -210q2 -176 -119 -295t-305 -116h-360zM294 197h52q71 0 116 56t45 133q0 55 -30 87t-86 32h-31zM753 915l-161 -154h-276l-90 154h195l48 -74l77 74h207z" />
    <glyph glyph-name="dcaron" unicode="&#x10f;" horiz-adv-x="831" 
d="M16 194q-1 83 27.5 158.5t82.5 124t119 46.5q55 0 91 -32t44 -85h79q-19 39 -19 88q0 30 8 68l29 138h240l-149 -700h-221q16 57 50 99h-86q-51 -117 -147 -117q-65 0 -106.5 58t-41.5 154zM394 300q0 71 -44 71q-33 0 -56.5 -50t-23.5 -116q0 -71 44 -71q33 0 56.5 50
t23.5 116zM689 365l145 160h-111l38 175h205l-37 -175l-140 -160h-100z" />
    <glyph glyph-name="Dcroat" unicode="&#x110;" horiz-adv-x="801" 
d="M800 411q2 -176 -119 -295t-305 -116h-360l59 277h-59l30 145h59l59 278h291q158 0 251.5 -79t93.5 -210zM527 386q0 55 -30 87t-86 32h-31l-18 -83h91l-30 -145h-92l-17 -80h52q71 0 116 56t45 133z" />
    <glyph glyph-name="dcroat" unicode="&#x111;" horiz-adv-x="659" 
d="M767 639l-22 -108h-64l-113 -531h-221q16 57 50 99h-86q-51 -117 -147 -117q-65 0 -106.5 58t-41.5 154q-1 83 27.5 158.5t82.5 124t119 46.5q55 0 91 -32t44 -85h79q-19 39 -19 88q0 14 3 37h-116l22 108h115l13 61h240l-13 -61h63zM394 300q0 71 -44 71
q-33 0 -56.5 -50t-23.5 -116q0 -71 44 -71q33 0 56.5 50t23.5 116z" />
    <glyph glyph-name="Emacron" unicode="&#x112;" horiz-adv-x="650" 
d="M-4 0l148 700h563l-41 -193h-316l-15 -70h258l-36 -170h-258l-15 -73h316l-41 -194h-563zM227 761l27 124h415l-27 -124h-415z" />
    <glyph glyph-name="emacron" unicode="&#x113;" horiz-adv-x="615" 
d="M15 204q0 140 90.5 229.5t236.5 89.5q115 0 183 -60t68 -160q0 -42 -14 -92h-340q-4 -19 -4 -33q0 -47 44 -47t78 59l223 -54q-33 -68 -109.5 -111t-188.5 -43q-124 0 -195.5 59t-71.5 163zM258 311h112q3 13 3 24q0 49 -46 49q-51 0 -69 -73zM198 576l26 124h346
l-26 -124h-346z" />
    <glyph glyph-name="Ebreve" unicode="&#x114;" horiz-adv-x="650" 
d="M-4 0l148 700h563l-41 -193h-316l-15 -70h258l-36 -170h-258l-15 -73h316l-41 -194h-563zM237 917h149q0 -31 19 -49t54 -18q76 0 104 67h153q-57 -179 -261 -179q-106 0 -163.5 47t-54.5 132z" />
    <glyph glyph-name="ebreve" unicode="&#x115;" horiz-adv-x="615" 
d="M15 204q0 140 90.5 229.5t236.5 89.5q115 0 183 -60t68 -160q0 -42 -14 -92h-340q-4 -19 -4 -33q0 -47 44 -47t78 59l223 -54q-33 -68 -109.5 -111t-188.5 -43q-124 0 -195.5 59t-71.5 163zM258 311h112q3 13 3 24q0 49 -46 49q-51 0 -69 -73zM186 720h135
q0 -30 17 -46.5t50 -16.5q68 0 94 63h140q-52 -168 -238 -168q-96 0 -148.5 44.5t-49.5 123.5z" />
    <glyph glyph-name="Edotaccent" unicode="&#x116;" horiz-adv-x="650" 
d="M-4 0l148 700h563l-41 -193h-316l-15 -70h258l-36 -170h-258l-15 -73h316l-41 -194h-563zM337 749l38 175h198l-38 -175h-198z" />
    <glyph glyph-name="edotaccent" unicode="&#x117;" horiz-adv-x="615" 
d="M15 204q0 140 90.5 229.5t236.5 89.5q115 0 183 -60t68 -160q0 -42 -14 -92h-340q-4 -19 -4 -33q0 -47 44 -47t78 59l223 -54q-33 -68 -109.5 -111t-188.5 -43q-124 0 -195.5 59t-71.5 163zM258 311h112q3 13 3 24q0 49 -46 49q-51 0 -69 -73zM272 555l38 175h198
l-38 -175h-198z" />
    <glyph glyph-name="Eogonek" unicode="&#x118;" horiz-adv-x="650" 
d="M666 507h-316l-15 -70h258l-36 -170h-258l-15 -73h316l-41 -194q-60 -15 -93 -28t-41 -20t-8 -15q0 -17 29 -17q37 0 101 23l-29 -135q-56 -27 -118 -27q-55 0 -89 24t-34 70q0 76 88 125h-369l148 700h563z" />
    <glyph glyph-name="eogonek" unicode="&#x119;" horiz-adv-x="615" 
d="M342 523q115 0 183 -60t68 -160q0 -42 -14 -92h-340q-4 -19 -4 -33q0 -47 44 -47t78 59l223 -54q-58 -112 -210 -148q-102 -23 -102 -51q0 -17 29 -17q37 0 101 23l-29 -135q-56 -27 -118 -27q-55 0 -89 24t-34 70q0 65 72 115q-88 18 -136.5 74t-48.5 140
q0 140 90.5 229.5t236.5 89.5zM258 311h112q3 13 3 24q0 49 -46 49q-51 0 -69 -73z" />
    <glyph glyph-name="Ecaron" unicode="&#x11a;" horiz-adv-x="650" 
d="M-4 0l148 700h563l-41 -193h-316l-15 -70h258l-36 -170h-258l-15 -73h316l-41 -194h-563zM734 915l-161 -154h-276l-90 154h195l48 -74l77 74h207z" />
    <glyph glyph-name="ecaron" unicode="&#x11b;" horiz-adv-x="615" 
d="M15 204q0 140 90.5 229.5t236.5 89.5q115 0 183 -60t68 -160q0 -42 -14 -92h-340q-4 -19 -4 -33q0 -47 44 -47t78 59l223 -54q-33 -68 -109.5 -111t-188.5 -43q-124 0 -195.5 59t-71.5 163zM258 311h112q3 13 3 24q0 49 -46 49q-51 0 -69 -73zM246 566l-83 154h178
l40 -84l74 84h188l-147 -154h-250z" />
    <glyph glyph-name="Gcircumflex" unicode="&#x11c;" horiz-adv-x="819" 
d="M41 269q-2 197 119.5 324t322.5 125q85 1 153.5 -20.5t108 -56.5t61.5 -70.5t28 -70.5l-269 -72q-24 90 -102 90q-71 0 -112.5 -74.5t-41.5 -173.5q0 -58 26.5 -87.5t73.5 -29.5q83 0 110 73h-125l35 165h379l-83 -391h-209q14 54 77 137h-90q-22 -51 -75 -104
q-51 -51 -149 -51q-106 0 -172 77t-66 210zM252 761l161 154h276l91 -154h-196l-48 74l-77 -74h-207z" />
    <glyph glyph-name="gcircumflex" unicode="&#x11d;" horiz-adv-x="688" 
d="M-63 -122q0 81 111 100l14 62q-81 4 -81 53q0 33 34.5 61t96.5 35l13 60q-49 29 -49 86q0 85 67.5 136.5t174.5 51.5q99 0 153.5 -36.5t61.5 -100.5h57q20 119 100 119h40l-35 -165h-85q-33 0 -45 -34l-7 -18q-25 -67 -84 -96.5t-167 -29.5q-76 0 -127 24
q-22 -16 -22 -32q0 -27 46 -27h206q86 0 136.5 -38.5t50.5 -102.5q0 -83 -57.5 -132t-163.5 -49h-317q-122 0 -122 73zM381 355q0 26 -11.5 40.5t-30.5 14.5q-24 0 -40.5 -26t-16.5 -65q0 -55 40 -55q24 0 41.5 27t17.5 64zM160 -55h182q38 0 38 30q0 25 -31 25h-211
q-16 -13 -16 -32q0 -23 38 -23zM134 566l147 154h250l83 -154h-178l-43 74l-71 -74h-188z" />
    <glyph glyph-name="Gbreve" unicode="&#x11e;" horiz-adv-x="819" 
d="M41 269q-2 197 119.5 324t322.5 125q85 1 153.5 -20.5t108 -56.5t61.5 -70.5t28 -70.5l-269 -72q-24 90 -102 90q-71 0 -112.5 -74.5t-41.5 -173.5q0 -58 26.5 -87.5t73.5 -29.5q83 0 110 73h-125l35 165h379l-83 -391h-209q14 54 77 137h-90q-22 -51 -75 -104
q-51 -51 -149 -51q-106 0 -172 77t-66 210zM309 917h149q0 -31 19 -49t54 -18q76 0 104 67h153q-57 -179 -261 -179q-106 0 -163.5 47t-54.5 132z" />
    <glyph glyph-name="gbreve" unicode="&#x11f;" horiz-adv-x="688" 
d="M-63 -122q0 81 111 100l14 62q-81 4 -81 53q0 33 34.5 61t96.5 35l13 60q-49 29 -49 86q0 85 67.5 136.5t174.5 51.5q99 0 153.5 -36.5t61.5 -100.5h57q20 119 100 119h40l-35 -165h-85q-33 0 -45 -34l-7 -18q-25 -67 -84 -96.5t-167 -29.5q-76 0 -127 24
q-22 -16 -22 -32q0 -27 46 -27h206q86 0 136.5 -38.5t50.5 -102.5q0 -83 -57.5 -132t-163.5 -49h-317q-122 0 -122 73zM381 355q0 26 -11.5 40.5t-30.5 14.5q-24 0 -40.5 -26t-16.5 -65q0 -55 40 -55q24 0 41.5 27t17.5 64zM160 -55h182q38 0 38 30q0 25 -31 25h-211
q-16 -13 -16 -32q0 -23 38 -23zM194 720h135q0 -30 17 -46.5t50 -16.5q68 0 94 63h140q-52 -168 -238 -168q-96 0 -148.5 44.5t-49.5 123.5z" />
    <glyph glyph-name="Gdotaccent" unicode="&#x120;" horiz-adv-x="819" 
d="M41 269q-2 197 119.5 324t322.5 125q85 1 153.5 -20.5t108 -56.5t61.5 -70.5t28 -70.5l-269 -72q-24 90 -102 90q-71 0 -112.5 -74.5t-41.5 -173.5q0 -58 26.5 -87.5t73.5 -29.5q83 0 110 73h-125l35 165h379l-83 -391h-209q14 54 77 137h-90q-22 -51 -75 -104
q-51 -51 -149 -51q-106 0 -172 77t-66 210zM419 749l38 175h198l-38 -175h-198z" />
    <glyph glyph-name="gdotaccent" unicode="&#x121;" horiz-adv-x="688" 
d="M-63 -122q0 81 111 100l14 62q-81 4 -81 53q0 33 34.5 61t96.5 35l13 60q-49 29 -49 86q0 85 67.5 136.5t174.5 51.5q99 0 153.5 -36.5t61.5 -100.5h57q20 119 100 119h40l-35 -165h-85q-33 0 -45 -34l-7 -18q-25 -67 -84 -96.5t-167 -29.5q-76 0 -127 24
q-22 -16 -22 -32q0 -27 46 -27h206q86 0 136.5 -38.5t50.5 -102.5q0 -83 -57.5 -132t-163.5 -49h-317q-122 0 -122 73zM381 355q0 26 -11.5 40.5t-30.5 14.5q-24 0 -40.5 -26t-16.5 -65q0 -55 40 -55q24 0 41.5 27t17.5 64zM160 -55h182q38 0 38 30q0 25 -31 25h-211
q-16 -13 -16 -32q0 -23 38 -23zM280 555l38 175h198l-38 -175h-198z" />
    <glyph glyph-name="uni0122" unicode="&#x122;" horiz-adv-x="819" 
d="M41 269q-2 197 119.5 324t322.5 125q85 1 153.5 -20.5t108 -56.5t61.5 -70.5t28 -70.5l-269 -72q-24 90 -102 90q-71 0 -112.5 -74.5t-41.5 -173.5q0 -58 26.5 -87.5t73.5 -29.5q83 0 110 73h-125l35 165h379l-83 -391h-209q14 54 77 137h-90q-22 -51 -75 -104
q-51 -51 -149 -51q-106 0 -172 77t-66 210zM224 -386l145 160h-111l38 175h205l-37 -175l-140 -160h-100z" />
    <glyph glyph-name="uni0123" unicode="&#x123;" horiz-adv-x="688" 
d="M-63 -122q0 81 111 100l14 62q-81 4 -81 53q0 33 34.5 61t96.5 35l13 60q-49 29 -49 86q0 85 67.5 136.5t174.5 51.5q99 0 153.5 -36.5t61.5 -100.5h57q20 119 100 119h40l-35 -165h-85q-33 0 -45 -34l-7 -18q-25 -67 -84 -96.5t-167 -29.5q-76 0 -127 24
q-22 -16 -22 -32q0 -27 46 -27h206q86 0 136.5 -38.5t50.5 -102.5q0 -83 -57.5 -132t-163.5 -49h-317q-122 0 -122 73zM381 355q0 26 -11.5 40.5t-30.5 14.5q-24 0 -40.5 -26t-16.5 -65q0 -55 40 -55q24 0 41.5 27t17.5 64zM160 -55h182q38 0 38 30q0 25 -31 25h-211
q-16 -13 -16 -32q0 -23 38 -23zM548 890l-145 -160h111l-38 -175h-205l38 175l140 160h99z" />
    <glyph glyph-name="Hcircumflex" unicode="&#x124;" horiz-adv-x="787" 
d="M-4 0l148 700h263l-51 -243h162l51 243h263l-148 -700h-263l54 257h-162l-54 -257h-263zM235 761l161 154h276l91 -154h-196l-48 74l-77 -74h-207z" />
    <glyph glyph-name="hcircumflex" unicode="&#x125;" horiz-adv-x="638" 
d="M-16 0l146 700h233l-18 -86q-15 -69 -46.5 -130t-59.5 -95h88q52 133 159 133q59 0 99 -37t40 -110q0 -33 -7 -62l-66 -313h-241l62 291q2 18 2 21q0 40 -36 40q-40 0 -52 -61l-62 -291h-241zM190 761l147 154h250l83 -154h-178l-43 74l-71 -74h-188z" />
    <glyph glyph-name="Hbar" unicode="&#x126;" horiz-adv-x="829" 
d="M901 631l-26 -121h-61l-108 -510h-263l54 257h-162l-54 -257h-263l108 510h-63l26 121h62l15 69h263l-14 -69h161l15 69h263l-15 -69h62zM540 457l11 53h-162l-11 -53h162z" />
    <glyph glyph-name="hbar" unicode="&#x127;" horiz-adv-x="638" 
d="M625 375q0 -33 -7 -62l-66 -313h-241l62 291q2 18 2 21q0 40 -36 40q-40 0 -52 -61l-62 -291h-241l111 531h-73l22 108h73l13 61h233l-12 -61h111l-22 -108h-120q-32 -85 -81 -142h88q52 133 159 133q59 0 99 -37t40 -110z" />
    <glyph glyph-name="Itilde" unicode="&#x128;" horiz-adv-x="362" 
d="M-4 0l148 700h263l-148 -700h-263zM290 780l-22 13q-21 16 -42 16q-37 0 -48 -49h-133q9 78 52 122t111 44q50 0 103 -29l22 -15q26 -14 43 -14q18 0 30.5 13t16.5 36h132q-9 -76 -52 -121t-112 -45q-28 0 -47 4.5t-26.5 8.5t-27.5 16z" />
    <glyph glyph-name="itilde" unicode="&#x129;" horiz-adv-x="316" 
d="M-18 0l108 505h243l-108 -505h-243zM222 585l-21 13q-21 16 -41 16q-34 0 -46 -48h-129q9 76 50.5 120t107.5 44q53 0 99 -30l22 -14q25 -14 41 -14q17 0 29.5 13t16.5 35h128q-9 -76 -51.5 -120t-107.5 -44q-9 0 -17 0.5t-15 2t-11.5 2t-10.5 2.5l-9 3t-9 4t-7.5 4
t-9 5.5t-9.5 5.5z" />
    <glyph glyph-name="Imacron" unicode="&#x12a;" horiz-adv-x="362" 
d="M-4 0l148 700h263l-148 -700h-263zM77 761l27 124h415l-27 -124h-415z" />
    <glyph glyph-name="imacron" unicode="&#x12b;" horiz-adv-x="316" 
d="M-18 0l108 505h243l-108 -505h-243zM54 576l26 124h346l-26 -124h-346z" />
    <glyph glyph-name="Ibreve" unicode="&#x12c;" horiz-adv-x="362" 
d="M-4 0l148 700h263l-148 -700h-263zM87 917h149q0 -31 19 -49t54 -18q76 0 104 67h153q-57 -179 -261 -179q-106 0 -163.5 47t-54.5 132z" />
    <glyph glyph-name="ibreve" unicode="&#x12d;" horiz-adv-x="316" 
d="M-18 0l108 505h243l-108 -505h-243zM42 720h135q0 -30 17 -46.5t50 -16.5q68 0 94 63h140q-52 -168 -238 -168q-96 0 -148.5 44.5t-49.5 123.5z" />
    <glyph glyph-name="Iogonek" unicode="&#x12e;" horiz-adv-x="362" 
d="M117 -63q0 -17 29 -17q38 0 101 23l-29 -135q-56 -27 -118 -27q-55 0 -89 24t-34 70q0 76 88 125h-69l148 700h263l-148 -700q-60 -15 -93 -28t-41 -20t-8 -15z" />
    <glyph glyph-name="iogonek" unicode="&#x12f;" horiz-adv-x="316" 
d="M137 730h241l-37 -175h-242zM-18 0l108 505h243l-108 -505q-60 -15 -93 -28t-41 -20t-8 -15q0 -17 29 -17q37 0 101 23l-29 -135q-56 -27 -118 -27q-55 0 -89 24t-34 70q0 76 88 125h-49z" />
    <glyph glyph-name="Idotaccent" unicode="&#x130;" horiz-adv-x="362" 
d="M153 749l38 175h263l-37 -175h-264zM-4 0l148 700h263l-148 -700h-263z" />
    <glyph glyph-name="dotlessi" unicode="&#x131;" horiz-adv-x="316" 
d="M-18 0l108 505h243l-108 -505h-243z" />
    <glyph glyph-name="IJ" unicode="&#x132;" horiz-adv-x="1036" 
d="M-4 0l148 700h263l-148 -700h-263zM382 212q0 35 8 78l250 54q-18 -74 -18 -111q0 -62 46 -62q52 0 69 77l96 452h254l-90 -423q-16 -75 -37 -124t-58 -89.5t-95.5 -60.5t-143.5 -21q-137 0 -209 59.5t-72 170.5z" />
    <glyph glyph-name="ij" unicode="&#x133;" horiz-adv-x="629" 
d="M101 555l37 175h243l-37 -175h-243zM-18 0l108 505h243l-108 -505h-243zM419 555l37 175h243l-37 -175h-243zM182 -195l34 160h53q30 0 36 30l108 510h232l-112 -530q-19 -88 -68 -129t-136 -41h-147z" />
    <glyph glyph-name="Jcircumflex" unicode="&#x134;" horiz-adv-x="657" 
d="M3 212q0 35 8 78l250 54q-18 -74 -18 -111q0 -62 46 -62q52 0 69 77l96 452h254l-90 -423q-16 -75 -37 -124t-58 -89.5t-95.5 -60.5t-143.5 -21q-137 0 -209 59.5t-72 170.5zM323 761l161 154h276l91 -154h-196l-48 74l-77 -74h-207z" />
    <glyph glyph-name="jcircumflex" unicode="&#x135;" horiz-adv-x="313" 
d="M-134 -195l34 160h61q22 0 29 34l107 506h232l-108 -511q-38 -189 -199 -189h-156zM-15 566l147 154h250l83 -154h-178l-43 74l-71 -74h-188z" />
    <glyph glyph-name="uni0136" unicode="&#x136;" horiz-adv-x="813" 
d="M894 700l-331 -307l233 -393h-298l-139 259l-75 -68l-40 -191h-248l148 700h250l-8 -35q-10 -46 -41 -87q-45 -62 -133 -129l56 -63l301 314h325zM194 -386l145 160h-111l38 175h205l-37 -175l-140 -160h-100z" />
    <glyph glyph-name="uni0137" unicode="&#x137;" horiz-adv-x="696" 
d="M754 505l-256 -204l173 -301h-266l-92 182l-74 -57l-26 -125h-230l148 700h230l-31 -146q-17 -77 -57 -122t-110 -89l45 -59l252 221h294zM130 -386l145 160h-111l38 175h205l-37 -175l-140 -160h-100z" />
    <glyph glyph-name="Lacute" unicode="&#x139;" horiz-adv-x="639" 
d="M-4 0l148 700h262l-106 -500h315l-42 -200h-577zM197 761l90 154h255l-179 -154h-166z" />
    <glyph glyph-name="lacute" unicode="&#x13a;" horiz-adv-x="309" 
d="M-17 0l148 700h236l-148 -700h-236zM185 761l82 154h232l-163 -154h-151z" />
    <glyph glyph-name="uni013B" unicode="&#x13b;" horiz-adv-x="639" 
d="M-4 0l148 700h262l-106 -500h315l-42 -200h-577zM118 -386l145 160h-111l38 175h205l-37 -175l-140 -160h-100z" />
    <glyph glyph-name="uni013C" unicode="&#x13c;" horiz-adv-x="309" 
d="M-17 0l148 700h236l-148 -700h-236zM-76 -386l145 160h-111l38 175h205l-37 -175l-140 -160h-100z" />
    <glyph glyph-name="Lcaron" unicode="&#x13d;" horiz-adv-x="663" 
d="M386 332l160 176h-122l41 193h226l-41 -193l-154 -176h-110zM-4 0l148 700h262l-106 -500h315l-42 -200h-577z" />
    <glyph glyph-name="lcaron" unicode="&#x13e;" horiz-adv-x="483" 
d="M-17 0l148 700h236l-148 -700h-236zM341 365l145 160h-111l38 175h205l-37 -175l-140 -160h-100z" />
    <glyph glyph-name="Ldot" unicode="&#x13f;" horiz-adv-x="662" 
d="M-4 0l148 700h262l-106 -500h315l-42 -200h-577zM393 298l46 214h245l-46 -214h-245z" />
    <glyph glyph-name="ldot" unicode="&#x140;" horiz-adv-x="564" 
d="M-17 0l148 700h236l-148 -700h-236zM318 269l46 214h245l-46 -214h-245z" />
    <glyph glyph-name="Lslash" unicode="&#x141;" horiz-adv-x="693" 
d="M354 200h315l-42 -200h-577l47 222l-87 -35l36 168l86 34l66 311h262l-43 -200l215 84l-35 -164l-215 -85z" />
    <glyph glyph-name="lslash" unicode="&#x142;" horiz-adv-x="417" 
d="M464 563l-37 -174l-81 -46l-73 -343h-236l40 189l-78 -44l37 178l79 44l70 333h236l-38 -182z" />
    <glyph glyph-name="Nacute" unicode="&#x143;" horiz-adv-x="843" 
d="M-4 0l148 700h310l161 -491l71 25q-67 170 -67 284q0 48 11 103l16 79h242l-148 -700h-261l-194 591l-72 -23q66 -169 66 -297q0 -70 -16 -141l-27 -130h-240zM402 761l90 154h255l-179 -154h-166z" />
    <glyph glyph-name="nacute" unicode="&#x144;" horiz-adv-x="637" 
d="M-16 0l105 505h210q-14 -62 -60 -116h88q52 133 159 133q59 0 99 -37t40 -110q0 -33 -7 -62l-66 -313h-241l62 291q2 18 2 21q0 40 -36 40q-40 0 -52 -61l-62 -291h-241zM310 566l82 154h232l-163 -154h-151z" />
    <glyph glyph-name="uni0145" unicode="&#x145;" horiz-adv-x="843" 
d="M-4 0l148 700h310l161 -491l71 25q-67 170 -67 284q0 48 11 103l16 79h242l-148 -700h-261l-194 591l-72 -23q66 -169 66 -297q0 -70 -16 -141l-27 -130h-240zM193 -386l145 160h-111l38 175h205l-37 -175l-140 -160h-100z" />
    <glyph glyph-name="uni0146" unicode="&#x146;" horiz-adv-x="637" 
d="M-16 0l105 505h210q-14 -62 -60 -116h88q52 133 159 133q59 0 99 -37t40 -110q0 -33 -7 -62l-66 -313h-241l62 291q2 18 2 21q0 40 -36 40q-40 0 -52 -61l-62 -291h-241zM91 -386l145 160h-111l38 175h205l-37 -175l-140 -160h-100z" />
    <glyph glyph-name="Ncaron" unicode="&#x147;" horiz-adv-x="843" 
d="M-4 0l148 700h310l161 -491l71 25q-67 170 -67 284q0 48 11 103l16 79h242l-148 -700h-261l-194 591l-72 -23q66 -169 66 -297q0 -70 -16 -141l-27 -130h-240zM823 915l-161 -154h-276l-90 154h195l48 -74l77 74h207z" />
    <glyph glyph-name="ncaron" unicode="&#x148;" horiz-adv-x="637" 
d="M-16 0l105 505h210q-14 -62 -60 -116h88q52 133 159 133q59 0 99 -37t40 -110q0 -33 -7 -62l-66 -313h-241l62 291q2 18 2 21q0 40 -36 40q-40 0 -52 -61l-62 -291h-241zM264 566l-83 154h178l40 -84l74 84h188l-147 -154h-250z" />
    <glyph glyph-name="Eng" unicode="&#x14a;" horiz-adv-x="843" 
d="M319 -195l38 177h106q32 0 39 35l7 33l-215 491l-16 37l-68 -29q35 -89 53 -162q17 -68 17 -129q0 -58 -14 -128l-27 -130h-240l148 700h296l197 -458l69 31q-43 95 -63 159q-19 63 -19 123q0 42 10 86l12 59h242l-156 -724q-19 -86 -74.5 -128.5t-162.5 -42.5h-179z" />
    <glyph glyph-name="eng" unicode="&#x14b;" horiz-adv-x="637" 
d="M194 -195l34 163h40q36 0 46 44l59 279q2 18 2 21q0 40 -36 40q-40 0 -52 -61l-62 -291h-241l105 505h210q-14 -62 -60 -116h88q52 133 159 133q59 0 99 -37t40 -110q0 -33 -7 -62l-69 -328q-20 -96 -62.5 -138t-136.5 -42h-156z" />
    <glyph glyph-name="Omacron" unicode="&#x14c;" horiz-adv-x="867" 
d="M45 302q-2 180 120.5 299t316.5 117q185 0 283 -86t98 -233q2 -181 -120.5 -300.5t-316.5 -116.5q-186 0 -283.5 86t-97.5 234zM585 398q0 58 -28.5 90t-82.5 32q-69 0 -109.5 -62.5t-40.5 -154.5q0 -58 28 -90t82 -32q70 0 110.5 62.5t40.5 154.5zM311 761l27 124h415
l-27 -124h-415z" />
    <glyph glyph-name="omacron" unicode="&#x14d;" horiz-adv-x="663" 
d="M16 212q0 140 93.5 225.5t243.5 85.5q139 0 215.5 -63.5t76.5 -172.5q0 -139 -92 -222t-242 -83q-140 0 -217.5 61t-77.5 169zM390 296q0 75 -45 75q-34 0 -54 -49.5t-20 -113.5q0 -40 10 -57.5t33 -17.5q35 0 55.5 49.5t20.5 113.5zM216 576l26 124h346l-26 -124h-346z
" />
    <glyph glyph-name="Obreve" unicode="&#x14e;" horiz-adv-x="867" 
d="M45 302q-2 180 120.5 299t316.5 117q185 0 283 -86t98 -233q2 -181 -120.5 -300.5t-316.5 -116.5q-186 0 -283.5 86t-97.5 234zM585 398q0 58 -28.5 90t-82.5 32q-69 0 -109.5 -62.5t-40.5 -154.5q0 -58 28 -90t82 -32q70 0 110.5 62.5t40.5 154.5zM321 917h149
q0 -31 19 -49t54 -18q76 0 104 67h153q-57 -179 -261 -179q-106 0 -163.5 47t-54.5 132z" />
    <glyph glyph-name="obreve" unicode="&#x14f;" horiz-adv-x="663" 
d="M16 212q0 140 93.5 225.5t243.5 85.5q139 0 215.5 -63.5t76.5 -172.5q0 -139 -92 -222t-242 -83q-140 0 -217.5 61t-77.5 169zM390 296q0 75 -45 75q-34 0 -54 -49.5t-20 -113.5q0 -40 10 -57.5t33 -17.5q35 0 55.5 49.5t20.5 113.5zM204 720h135q0 -30 17 -46.5
t50 -16.5q68 0 94 63h140q-52 -168 -238 -168q-96 0 -148.5 44.5t-49.5 123.5z" />
    <glyph glyph-name="Ohungarumlaut" unicode="&#x150;" horiz-adv-x="867" 
d="M45 302q-2 180 120.5 299t316.5 117q185 0 283 -86t98 -233q2 -181 -120.5 -300.5t-316.5 -116.5q-186 0 -283.5 86t-97.5 234zM585 398q0 58 -28.5 90t-82.5 32q-69 0 -109.5 -62.5t-40.5 -154.5q0 -58 28 -90t82 -32q70 0 110.5 62.5t40.5 154.5zM289 761l89 154h256
l-180 -154h-165zM561 761l90 154h254l-178 -154h-166z" />
    <glyph glyph-name="ohungarumlaut" unicode="&#x151;" horiz-adv-x="663" 
d="M16 212q0 140 93.5 225.5t243.5 85.5q139 0 215.5 -63.5t76.5 -172.5q0 -139 -92 -222t-242 -83q-140 0 -217.5 61t-77.5 169zM390 296q0 75 -45 75q-34 0 -54 -49.5t-20 -113.5q0 -40 10 -57.5t33 -17.5q35 0 55.5 49.5t20.5 113.5zM174 566l81 154h232l-163 -154h-150z
M421 566l82 154h231l-162 -154h-151z" />
    <glyph glyph-name="OE" unicode="&#x152;" horiz-adv-x="1128" 
d="M35 256q-2 118 40 224.5t120.5 173.5t174.5 64q88 0 142 -47.5t73 -128.5h77q-22 45 -22 106q0 27 6 52h538l-41 -196h-311l-14 -65h252l-37 -175h-252l-15 -69h311l-41 -195h-498q14 80 82 158h-95q-46 -88 -103.5 -132t-152.5 -44q-114 0 -174 75t-60 199zM579 398
q0 58 -29 90t-83 32q-70 0 -109.5 -62.5t-39.5 -154.5q0 -58 28 -90t82 -32q67 0 109 63.5t42 153.5z" />
    <glyph glyph-name="oe" unicode="&#x153;" horiz-adv-x="1017" 
d="M16 209q-2 138 81.5 227t207.5 87q80 0 133.5 -34.5t72.5 -90.5h64q15 45 66 84.5t133 39.5q103 0 162.5 -57.5t59.5 -152.5q0 -45 -14 -96h-342q-3 -16 -3 -30q0 -55 44 -55q47 0 79 59l223 -56q-35 -68 -100.5 -110t-154.5 -42q-80 0 -131 34.5t-65 88.5h-64
q-30 -55 -77 -88q-49 -35 -138 -35q-103 0 -170 62t-67 165zM660 311h115q3 15 3 23q0 23 -12.5 36.5t-34.5 13.5q-53 0 -71 -73zM391 296q0 75 -46 75q-31 0 -52.5 -49t-21.5 -114q0 -75 45 -75q32 0 53.5 49t21.5 114z" />
    <glyph glyph-name="Racute" unicode="&#x154;" horiz-adv-x="770" 
d="M-4 0l148 700h398q109 0 169.5 -43.5t60.5 -114.5q0 -179 -288 -179l-16 -74q124 -2 164.5 -30.5t57.5 -123.5l20 -135h-271l-12 174q-3 40 -15.5 54t-47.5 14h-64l-51 -242h-253zM334 402h92q33 0 53 18t20 45q0 47 -56 47h-86zM367 761l90 154h255l-179 -154h-166z" />
    <glyph glyph-name="racute" unicode="&#x155;" horiz-adv-x="498" 
d="M-17 0l107 505h218q-15 -85 -74 -168h91q28 96 67.5 140t96.5 44q27 0 53 -6l-47 -220q-45 9 -78 9q-128 0 -154 -130l-37 -174h-243zM233 566l82 154h232l-163 -154h-151z" />
    <glyph glyph-name="uni0156" unicode="&#x156;" horiz-adv-x="770" 
d="M-4 0l148 700h398q109 0 169.5 -43.5t60.5 -114.5q0 -179 -288 -179l-16 -74q124 -2 164.5 -30.5t57.5 -123.5l20 -135h-271l-12 174q-3 40 -15.5 54t-47.5 14h-64l-51 -242h-253zM334 402h92q33 0 53 18t20 45q0 47 -56 47h-86zM148 -386l145 160h-111l38 175h205
l-37 -175l-140 -160h-100z" />
    <glyph glyph-name="uni0157" unicode="&#x157;" horiz-adv-x="498" 
d="M-17 0l107 505h218q-15 -85 -74 -168h91q28 96 67.5 140t96.5 44q27 0 53 -6l-47 -220q-45 9 -78 9q-128 0 -154 -130l-37 -174h-243zM-72 -386l145 160h-111l38 175h205l-37 -175l-140 -160h-100z" />
    <glyph glyph-name="Rcaron" unicode="&#x158;" horiz-adv-x="770" 
d="M-4 0l148 700h398q109 0 169.5 -43.5t60.5 -114.5q0 -179 -288 -179l-16 -74q124 -2 164.5 -30.5t57.5 -123.5l20 -135h-271l-12 174q-3 40 -15.5 54t-47.5 14h-64l-51 -242h-253zM334 402h92q33 0 53 18t20 45q0 47 -56 47h-86zM763 915l-161 -154h-276l-90 154h195
l48 -74l77 74h207z" />
    <glyph glyph-name="rcaron" unicode="&#x159;" horiz-adv-x="498" 
d="M-17 0l107 505h218q-15 -85 -74 -168h91q28 96 67.5 140t96.5 44q27 0 53 -6l-47 -220q-45 9 -78 9q-128 0 -154 -130l-37 -174h-243zM187 566l-83 154h178l40 -84l74 84h188l-147 -154h-250z" />
    <glyph glyph-name="Sacute" unicode="&#x15a;" horiz-adv-x="762" 
d="M4 198l280 47q10 -84 93 -84q41 0 63.5 13.5t22.5 37.5q0 37 -58 45l-64 8q-145 19 -201.5 68t-56.5 137q0 113 98 180.5t246 67.5q158 0 249 -57.5t100 -149.5l-285 -37q-13 68 -83 68q-29 0 -47 -13t-18 -32q0 -23 20 -35t67 -17l56 -6q118 -13 183 -67t65 -141
q0 -119 -96.5 -184t-257.5 -65q-351 0 -376 216zM385 761l90 154h255l-179 -154h-166z" />
    <glyph glyph-name="sacute" unicode="&#x15b;" horiz-adv-x="587" 
d="M-10 152l227 16q3 -28 16 -41.5t43 -13.5q24 0 38.5 9t14.5 25q0 24 -43 34l-65 14q-91 19 -133.5 54t-42.5 94q0 83 72.5 131.5t193.5 48.5q124 0 192 -41.5t74 -104.5l-231 -26q-7 47 -55 47q-20 0 -31 -8.5t-11 -20.5q0 -13 13 -20t47 -13l58 -11q185 -35 185 -162
q0 -90 -78.5 -135.5t-205.5 -45.5q-134 0 -204.5 44t-73.5 126zM268 566l82 154h232l-163 -154h-151z" />
    <glyph glyph-name="Scircumflex" unicode="&#x15c;" horiz-adv-x="762" 
d="M4 198l280 47q10 -84 93 -84q41 0 63.5 13.5t22.5 37.5q0 37 -58 45l-64 8q-145 19 -201.5 68t-56.5 137q0 113 98 180.5t246 67.5q158 0 249 -57.5t100 -149.5l-285 -37q-13 68 -83 68q-29 0 -47 -13t-18 -32q0 -23 20 -35t67 -17l56 -6q118 -13 183 -67t65 -141
q0 -119 -96.5 -184t-257.5 -65q-351 0 -376 216zM207 761l161 154h276l91 -154h-196l-48 74l-77 -74h-207z" />
    <glyph glyph-name="scircumflex" unicode="&#x15d;" horiz-adv-x="587" 
d="M-10 152l227 16q3 -28 16 -41.5t43 -13.5q24 0 38.5 9t14.5 25q0 24 -43 34l-65 14q-91 19 -133.5 54t-42.5 94q0 83 72.5 131.5t193.5 48.5q124 0 192 -41.5t74 -104.5l-231 -26q-7 47 -55 47q-20 0 -31 -8.5t-11 -20.5q0 -13 13 -20t47 -13l58 -11q185 -35 185 -162
q0 -90 -78.5 -135.5t-205.5 -45.5q-134 0 -204.5 44t-73.5 126zM102 566l147 154h250l83 -154h-178l-43 74l-71 -74h-188z" />
    <glyph glyph-name="Scedilla" unicode="&#x15e;" horiz-adv-x="762" 
d="M734 231q0 -104 -74 -167t-203 -78l-10 -4l-44 -16q-4 -2 -17.5 -6t-20.5 -7q25 -3 47 -16q47 -26 47 -76q0 -56 -42.5 -87.5t-118.5 -31.5q-104 0 -159 70l90 81q7 -13 25 -24.5t38 -11.5q41 0 41 24q0 21 -31 21q-13 0 -25 -3l-26 68l49 18q-273 22 -296 213l280 47
q10 -84 93 -84q41 0 63.5 13.5t22.5 37.5q0 37 -58 45l-64 8q-145 19 -201.5 68t-56.5 137q0 113 98 180.5t246 67.5q158 0 249 -57.5t100 -149.5l-285 -37q-13 68 -83 68q-29 0 -47 -13t-18 -32q0 -23 20 -35t67 -17l56 -6q118 -13 183 -67t65 -141z" />
    <glyph glyph-name="scedilla" unicode="&#x15f;" horiz-adv-x="587" 
d="M552 163q0 -76 -56.5 -120.5t-157.5 -56.5l-5 -2l-41 -15l-33 -12q20 -3 43 -14q43 -26 43 -69q0 -52 -39 -80.5t-108 -28.5q-93 0 -144 64l81 74q7 -13 22.5 -23t34.5 -10q38 0 38 22q0 19 -28 19q-12 0 -23 -3l-23 62l41 15q-99 12 -151.5 55t-55.5 112l227 16
q3 -28 16 -41.5t43 -13.5q24 0 38.5 9t14.5 25q0 24 -43 34l-65 14q-91 19 -133.5 54t-42.5 94q0 83 72.5 131.5t193.5 48.5q124 0 192 -41.5t74 -104.5l-231 -26q-7 47 -55 47q-20 0 -31 -8.5t-11 -20.5q0 -13 13 -20t47 -13l58 -11q185 -35 185 -162z" />
    <glyph glyph-name="Scaron" unicode="&#x160;" horiz-adv-x="762" 
d="M4 198l280 47q10 -84 93 -84q41 0 63.5 13.5t22.5 37.5q0 37 -58 45l-64 8q-145 19 -201.5 68t-56.5 137q0 113 98 180.5t246 67.5q158 0 249 -57.5t100 -149.5l-285 -37q-13 68 -83 68q-29 0 -47 -13t-18 -32q0 -23 20 -35t67 -17l56 -6q118 -13 183 -67t65 -141
q0 -119 -96.5 -184t-257.5 -65q-351 0 -376 216zM771 915l-161 -154h-276l-90 154h195l48 -74l77 74h207z" />
    <glyph glyph-name="scaron" unicode="&#x161;" horiz-adv-x="587" 
d="M-10 152l227 16q3 -28 16 -41.5t43 -13.5q24 0 38.5 9t14.5 25q0 24 -43 34l-65 14q-91 19 -133.5 54t-42.5 94q0 83 72.5 131.5t193.5 48.5q124 0 192 -41.5t74 -104.5l-231 -26q-7 47 -55 47q-20 0 -31 -8.5t-11 -20.5q0 -13 13 -20t47 -13l58 -11q185 -35 185 -162
q0 -90 -78.5 -135.5t-205.5 -45.5q-134 0 -204.5 44t-73.5 126zM222 566l-83 154h178l40 -84l74 84h188l-147 -154h-250z" />
    <glyph glyph-name="uni0162" unicode="&#x162;" horiz-adv-x="683" 
d="M107 700h659l-38 -180h-198l-110 -520l-45 -16l-33 -12l-41 -15q23 -3 43 -14q43 -24 43 -69q0 -51 -39 -80t-108 -29q-50 0 -87.5 19.5t-56.5 44.5l81 74q20 -33 57 -33q38 0 38 22q0 19 -28 19q-12 0 -23 -3l-23 62l80 30h-121l110 520h-198z" />
    <glyph glyph-name="uni0163" unicode="&#x163;" horiz-adv-x="479" 
d="M314 191q0 -21 25 -21h113l-37 -170h-68l-45 -16l-41 -15l-33 -12q20 -3 43 -14q43 -24 43 -69q0 -52 -39 -80.5t-108 -28.5q-93 0 -144 64l81 74q7 -13 22.5 -23t34.5 -10q38 0 38 22q0 19 -28 19q-13 0 -23 -3l-23 62l88 33q-70 8 -103.5 40.5t-33.5 93.5q0 27 8 70
l31 148h-91l32 150h91l32 150h233l-32 -150h100l-32 -150h-100l-33 -155q-1 -5 -1 -9z" />
    <glyph glyph-name="Tcaron" unicode="&#x164;" horiz-adv-x="683" 
d="M157 0l110 520h-198l38 180h659l-38 -180h-198l-110 -520h-263zM744 915l-161 -154h-276l-90 154h195l48 -74l77 74h207z" />
    <glyph glyph-name="tcaron" unicode="&#x165;" horiz-adv-x="479" 
d="M76 137q0 27 8 70l31 148h-91l32 150h91l32 150h233l-32 -150h100l-32 -150h-100l-33 -155q-1 -5 -1 -9q0 -21 25 -21h113l-37 -170h-149q-99 0 -144.5 32.5t-45.5 104.5zM410 546l145 160h-111l38 175h205l-37 -175l-140 -160h-100z" />
    <glyph glyph-name="Tbar" unicode="&#x166;" horiz-adv-x="691" 
d="M731 520h-198l-21 -100h107l-32 -152h-108l-56 -268h-263l57 268h-105l32 152h105l21 100h-198l38 180h659z" />
    <glyph glyph-name="tbar" unicode="&#x167;" horiz-adv-x="487" 
d="M322 191q0 -21 25 -21h113l-37 -170h-149q-99 0 -145 32.5t-46 104.5q0 29 9 70l2 10h-91l22 108h92l6 30h-91l32 150h91l32 150h233l-32 -150h100l-32 -150h-100l-6 -30h100l-23 -108h-101l-3 -17q-1 -5 -1 -9z" />
    <glyph glyph-name="Utilde" unicode="&#x168;" horiz-adv-x="778" 
d="M43 220q0 44 10 88l83 392h259l-77 -366q-9 -44 -9 -73q0 -37 15.5 -53.5t49.5 -16.5q88 0 117 143l77 366h262l-83 -392q-36 -174 -126.5 -250t-264.5 -76q-154 0 -233.5 61t-79.5 177zM492 780l-22 13q-21 16 -42 16q-37 0 -48 -49h-133q9 78 52 122t111 44
q50 0 103 -29l22 -15q26 -14 43 -14q18 0 30.5 13t16.5 36h132q-9 -76 -52 -121t-112 -45q-28 0 -47 4.5t-26.5 8.5t-27.5 16z" />
    <glyph glyph-name="utilde" unicode="&#x169;" horiz-adv-x="634" 
d="M7 108q0 31 7 60l71 337h242l-63 -298q0 -3 -0.5 -5.5t-1 -4.5t-0.5 -3.5v-2.5q0 -18 10 -28t25 -10q41 0 53 54l63 298h237l-105 -505h-211q11 51 53 106h-86q-64 -123 -167 -123q-60 0 -93.5 31.5t-33.5 93.5zM379 585l-21 13q-21 16 -41 16q-34 0 -46 -48h-129
q9 76 50.5 120t107.5 44q53 0 99 -30l22 -14q25 -14 41 -14q17 0 29.5 13t16.5 35h128q-9 -76 -51.5 -120t-107.5 -44q-9 0 -17 0.5t-15 2t-11.5 2t-10.5 2.5l-9 3t-9 4t-7.5 4t-9 5.5t-9.5 5.5z" />
    <glyph glyph-name="Umacron" unicode="&#x16a;" horiz-adv-x="778" 
d="M43 220q0 44 10 88l83 392h259l-77 -366q-9 -44 -9 -73q0 -37 15.5 -53.5t49.5 -16.5q88 0 117 143l77 366h262l-83 -392q-36 -174 -126.5 -250t-264.5 -76q-154 0 -233.5 61t-79.5 177zM278 761l27 124h415l-27 -124h-415z" />
    <glyph glyph-name="umacron" unicode="&#x16b;" horiz-adv-x="634" 
d="M7 108q0 31 7 60l71 337h242l-63 -298q0 -3 -0.5 -5.5t-1 -4.5t-0.5 -3.5v-2.5q0 -18 10 -28t25 -10q41 0 53 54l63 298h237l-105 -505h-211q11 51 53 106h-86q-64 -123 -167 -123q-60 0 -93.5 31.5t-33.5 93.5zM211 576l26 124h346l-26 -124h-346z" />
    <glyph glyph-name="Ubreve" unicode="&#x16c;" horiz-adv-x="778" 
d="M43 220q0 44 10 88l83 392h259l-77 -366q-9 -44 -9 -73q0 -37 15.5 -53.5t49.5 -16.5q88 0 117 143l77 366h262l-83 -392q-36 -174 -126.5 -250t-264.5 -76q-154 0 -233.5 61t-79.5 177zM288 917h149q0 -31 19 -49t54 -18q76 0 104 67h153q-57 -179 -261 -179
q-106 0 -163.5 47t-54.5 132z" />
    <glyph glyph-name="ubreve" unicode="&#x16d;" horiz-adv-x="634" 
d="M7 108q0 31 7 60l71 337h242l-63 -298q0 -3 -0.5 -5.5t-1 -4.5t-0.5 -3.5v-2.5q0 -18 10 -28t25 -10q41 0 53 54l63 298h237l-105 -505h-211q11 51 53 106h-86q-64 -123 -167 -123q-60 0 -93.5 31.5t-33.5 93.5zM199 720h135q0 -30 17 -46.5t50 -16.5q68 0 94 63h140
q-53 -168 -238 -168q-96 0 -148.5 44.5t-49.5 123.5z" />
    <glyph glyph-name="Uring" unicode="&#x16e;" horiz-adv-x="778" 
d="M43 220q0 44 10 88l83 392h259l-77 -366q-9 -44 -9 -73q0 -37 15.5 -53.5t49.5 -16.5q88 0 117 143l77 366h262l-83 -392q-36 -174 -126.5 -250t-264.5 -76q-154 0 -233.5 61t-79.5 177zM329 880q0 70 52 123.5t133 53.5q78 0 121 -41t43 -103q0 -70 -51 -123t-133 -53
q-78 0 -121.5 40.5t-43.5 102.5zM552 904q0 18 -11 29t-30 11q-24 0 -39 -14.5t-15 -38.5q0 -18 11 -29.5t31 -11.5q23 0 38 15.5t15 38.5z" />
    <glyph glyph-name="uring" unicode="&#x16f;" horiz-adv-x="634" 
d="M7 108q0 31 7 60l71 337h242l-63 -298q0 -3 -0.5 -5.5t-1 -4.5t-0.5 -3.5v-2.5q0 -18 10 -28t25 -10q41 0 53 54l63 298h237l-105 -505h-211q11 51 53 106h-86q-64 -123 -167 -123q-60 0 -93.5 31.5t-33.5 93.5zM241 670q0 61 45 107t115 46q68 0 104.5 -35.5t36.5 -89.5
q0 -60 -44 -106t-114 -46q-69 0 -106 35.5t-37 88.5zM434 691q0 34 -36 34q-21 0 -33.5 -12.5t-12.5 -33.5q0 -15 9.5 -25t26.5 -10q20 0 33 13t13 34z" />
    <glyph glyph-name="Uhungarumlaut" unicode="&#x170;" horiz-adv-x="778" 
d="M43 220q0 44 10 88l83 392h259l-77 -366q-9 -44 -9 -73q0 -37 15.5 -53.5t49.5 -16.5q88 0 117 143l77 366h262l-83 -392q-36 -174 -126.5 -250t-264.5 -76q-154 0 -233.5 61t-79.5 177zM261 761l89 154h256l-180 -154h-165zM533 761l90 154h254l-178 -154h-166z" />
    <glyph glyph-name="uhungarumlaut" unicode="&#x171;" horiz-adv-x="634" 
d="M7 108q0 31 7 60l71 337h242l-63 -298q0 -3 -0.5 -5.5t-1 -4.5t-0.5 -3.5v-2.5q0 -18 10 -28t25 -10q41 0 53 54l63 298h237l-105 -505h-211q11 51 53 106h-86q-64 -123 -167 -123q-60 0 -93.5 31.5t-33.5 93.5zM169 566l81 154h232l-163 -154h-150zM416 566l82 154h231
l-162 -154h-151z" />
    <glyph glyph-name="Uogonek" unicode="&#x172;" horiz-adv-x="778" 
d="M189 -125q0 68 71 114q-217 36 -217 231q0 44 10 88l83 392h259l-77 -366q-9 -44 -9 -73q0 -37 15.5 -53.5t49.5 -16.5q88 0 117 143l77 366h262l-83 -392q-33 -157 -106 -230.5t-218 -95.5q-94 -15 -94 -45q0 -17 29 -17q37 0 101 23l-29 -135q-56 -27 -118 -27
q-55 0 -89 24t-34 70z" />
    <glyph glyph-name="uogonek" unicode="&#x173;" horiz-adv-x="634" 
d="M403 -63q0 -17 29 -17q37 0 101 23l-29 -135q-56 -27 -118 -27q-55 0 -89 24t-34 70q0 76 88 125h-17q11 51 53 106h-86q-64 -123 -167 -123q-60 0 -93.5 31.5t-33.5 93.5q0 31 7 60l71 337h242l-63 -298q0 -3 -0.5 -5.5t-1 -4.5t-0.5 -3.5v-2.5q0 -18 10 -28t25 -10
q41 0 53 54l63 298h237l-105 -505q-60 -15 -93 -28t-41 -20t-8 -15z" />
    <glyph glyph-name="Wcircumflex" unicode="&#x174;" horiz-adv-x="1114" 
d="M112 0l-19 700h263l-2 -60q-1 -76 -30 -220q-34 -169 -56 -259h82q37 197 73 301l83 238h276l-14 -237q-5 -98 -53 -302h82q21 114 53 257q31 136 57 211l25 71h266l-291 -700h-324l5 133q4 122 71 412h-84q-16 -93 -46 -223q-25 -106 -56 -189l-50 -133h-311zM386 761
l161 154h276l91 -154h-196l-48 74l-77 -74h-207z" />
    <glyph glyph-name="wcircumflex" unicode="&#x175;" horiz-adv-x="876" 
d="M54 0l1 505h213l-7 -48q-18 -126 -73 -352h72q21 107 36 171q19 74 38 130l34 99h239l-8 -99q-5 -63 -18 -129q-13 -70 -36 -172h72q18 101 38 196q15 69 43 156l16 48h214l-214 -505h-274l4 48q4 58 20 164q16 107 37 198h-76q-61 -299 -84 -365l-16 -45h-271zM255 566
l147 154h250l83 -154h-178l-43 74l-71 -74h-188z" />
    <glyph glyph-name="Ycircumflex" unicode="&#x176;" horiz-adv-x="742" 
d="M184 0l55 256l-156 444h263l16 -58q13 -46 13 -103q0 -74 -27 -176h79q28 169 111 292l31 45h281l-349 -448l-54 -252h-263zM208 761l161 154h276l91 -154h-196l-48 74l-77 -74h-207z" />
    <glyph glyph-name="ycircumflex" unicode="&#x177;" horiz-adv-x="627" 
d="M452 505h236l-297 -530q-36 -66 -68 -104q-54 -66 -179 -66h-187l36 170h140q15 0 21.5 5.5t15.5 21.5l17 31l-159 472h241l18 -90q5 -27 5 -58q0 -82 -35 -222h71q31 184 83 289zM123 566l147 154h250l83 -154h-178l-43 74l-71 -74h-188z" />
    <glyph glyph-name="Ydieresis" unicode="&#x178;" horiz-adv-x="742" 
d="M184 0l55 256l-156 444h263l16 -58q13 -46 13 -103q0 -74 -27 -176h79q28 169 111 292l31 45h281l-349 -448l-54 -252h-263zM226 761l35 154h217l-35 -154h-217zM508 761l36 154h216l-35 -154h-217z" />
    <glyph glyph-name="Zacute" unicode="&#x179;" horiz-adv-x="672" 
d="M-21 0l52 249l461 318l-45 61q-54 -48 -128 -85.5t-137 -37.5h-84l41 195h576l-52 -244l-464 -321l48 -59q58 50 128 89q71 40 166 40h90l-43 -205h-609zM339 761l90 154h255l-179 -154h-166z" />
    <glyph glyph-name="zacute" unicode="&#x17a;" horiz-adv-x="533" 
d="M-28 0l47 223l285 153l-39 62q-44 -37 -93 -64q-53 -29 -94 -29h-28l34 160h466l-44 -203l-323 -174l41 -63q128 105 249 105h15l-36 -170h-480zM240 566l82 154h232l-163 -154h-151z" />
    <glyph glyph-name="Zdotaccent" unicode="&#x17b;" horiz-adv-x="672" 
d="M-21 0l52 249l461 318l-45 61q-54 -48 -128 -85.5t-137 -37.5h-84l41 195h576l-52 -244l-464 -321l48 -59q58 50 128 89q71 40 166 40h90l-43 -205h-609zM328 749l38 175h198l-38 -175h-198z" />
    <glyph glyph-name="zdotaccent" unicode="&#x17c;" horiz-adv-x="533" 
d="M-28 0l47 223l285 153l-39 62q-44 -37 -93 -64q-53 -29 -94 -29h-28l34 160h466l-44 -203l-323 -174l41 -63q128 105 249 105h15l-36 -170h-480zM220 555l38 175h198l-38 -175h-198z" />
    <glyph glyph-name="Zcaron" unicode="&#x17d;" horiz-adv-x="672" 
d="M-21 0l52 249l461 318l-45 61q-54 -48 -128 -85.5t-137 -37.5h-84l41 195h576l-52 -244l-464 -321l48 -59q58 50 128 89q71 40 166 40h90l-43 -205h-609zM725 915l-161 -154h-276l-90 154h195l48 -74l77 74h207z" />
    <glyph glyph-name="zcaron" unicode="&#x17e;" horiz-adv-x="533" 
d="M-28 0l47 223l285 153l-39 62q-44 -37 -93 -64q-53 -29 -94 -29h-28l34 160h466l-44 -203l-323 -174l41 -63q128 105 249 105h15l-36 -170h-480zM194 566l-83 154h178l40 -84l74 84h188l-147 -154h-250z" />
    <glyph glyph-name="florin" unicode="&#x192;" horiz-adv-x="489" 
d="M-140 -202l36 166q15 -4 35 -4q71 0 94 76l35 107q17 48 44 84t49 52.5t53 32.5l-49 64q-29 -30 -51.5 -45t-52.5 -17h-33l28 135h111l19 60q37 118 109 163q71 46 169 46q63 0 114 -19l-34 -160q-32 6 -52 6q-72 0 -92 -59l-12 -37h117l-27 -125h-130l-97 -298
q-40 -123 -113 -181t-188 -58q-40 0 -82 11z" />
    <glyph glyph-name="uni01E2" unicode="&#x1e2;" horiz-adv-x="1040" 
d="M1056 505h-313l-15 -70h255l-35 -167h-255l-16 -73h313l-41 -195h-526l25 120h-166l-70 -120h-287l453 700h719zM582 583h-93l-3 -12q-13 -59 -22 -92q-21 -86 -64 -158l-12 -21h98l9 43q9 46 36 118q28 75 51 122zM543 761l27 124h415l-27 -124h-415z" />
    <glyph glyph-name="uni01E3" unicode="&#x1e3;" horiz-adv-x="953" 
d="M-4 114q0 84 92.5 141t274.5 66l3 16q1 5 1 10q0 39 -47 39q-52 0 -74 -57l-210 24q25 76 91 123t164 47q77 0 120 -34.5t51 -88.5h65q17 49 67 86t123 37q96 0 157.5 -60t61.5 -155q0 -44 -14 -92h-340q-3 -22 -3 -36q0 -49 44 -49q48 0 80 59l211 -54
q-32 -67 -104 -110.5t-168 -43.5q-112 0 -170.5 45t-63.5 100h-61q-17 -56 -65 -100q-48 -45 -143 -45q-63 0 -103 33t-40 99zM601 311h115q3 15 3 23q0 23 -12.5 36.5t-34.5 13.5q-53 0 -71 -73zM337 199l6 28q-117 -12 -117 -75q0 -13 8.5 -21t23.5 -8q63 0 79 76z
M355 576l26 124h346l-26 -124h-346z" />
    <glyph glyph-name="Aringacute" unicode="&#x1fa;" horiz-adv-x="787" 
d="M486 0l-6 109h-221l-52 -109h-268l374 700h351l77 -700h-255zM346 289h125l-1 11v26q0 130 47 257h-85q-25 -166 -81 -283zM477 1038l77 123h218l-154 -123h-141zM374 860q0 61 45 107t115 46q68 0 104.5 -35.5t36.5 -89.5q0 -60 -44 -106t-114 -46q-67 0 -105 36t-38 88
zM567 881q0 34 -36 34q-20 0 -33 -12.5t-13 -33.5q0 -15 10 -25t26 -10q20 0 33 13t13 34z" />
    <glyph glyph-name="aringacute" unicode="&#x1fb;" horiz-adv-x="640" 
d="M4 116q0 88 90.5 142t277.5 63l3 13q1 5 1 14q0 38 -45 38q-48 0 -62 -56l-237 25q19 74 99.5 121t212.5 47q118 0 183.5 -46t65.5 -132q0 -23 -6 -54l-21 -98q0 -3 -0.5 -6t-1 -5t-0.5 -3q0 -19 24 -19h28l-34 -160h-111q-87 0 -87 66q0 13 5 38h-64q-58 -122 -181 -122
q-63 0 -101.5 38t-38.5 96zM346 199l6 28q-53 -3 -85 -22t-32 -50q0 -32 34 -32q59 0 77 76zM331 848l77 123h218l-154 -123h-141zM228 670q0 61 45 107t115 46q68 0 104.5 -35.5t36.5 -89.5q0 -60 -44 -106t-114 -46q-67 0 -105 36t-38 88zM421 691q0 34 -36 34
q-20 0 -33 -12.5t-13 -33.5q0 -15 10 -25t26 -10q20 0 33 13t13 34z" />
    <glyph glyph-name="AEacute" unicode="&#x1fc;" horiz-adv-x="1040" 
d="M1056 505h-313l-15 -70h255l-35 -167h-255l-16 -73h313l-41 -195h-526l25 120h-166l-70 -120h-287l453 700h719zM582 583h-93l-3 -12q-13 -59 -22 -92q-21 -86 -64 -158l-12 -21h98l9 43q9 46 36 118q28 75 51 122zM664 761l90 154h255l-179 -154h-166z" />
    <glyph glyph-name="aeacute" unicode="&#x1fd;" horiz-adv-x="953" 
d="M-4 114q0 84 92.5 141t274.5 66l3 16q1 5 1 10q0 39 -47 39q-52 0 -74 -57l-210 24q25 76 91 123t164 47q77 0 120 -34.5t51 -88.5h65q17 49 67 86t123 37q96 0 157.5 -60t61.5 -155q0 -44 -14 -92h-340q-3 -22 -3 -36q0 -49 44 -49q48 0 80 59l211 -54
q-32 -67 -104 -110.5t-168 -43.5q-112 0 -170.5 45t-63.5 100h-61q-17 -56 -65 -100q-48 -45 -143 -45q-63 0 -103 33t-40 99zM601 311h115q3 15 3 23q0 23 -12.5 36.5t-34.5 13.5q-53 0 -71 -73zM337 199l6 28q-117 -12 -117 -75q0 -13 8.5 -21t23.5 -8q63 0 79 76z
M449 566l82 154h232l-163 -154h-151z" />
    <glyph glyph-name="Oslashacute" unicode="&#x1fe;" horiz-adv-x="869" 
d="M87 -24l-92 120l81 62q-30 64 -30 144q-2 181 120.5 300t316.5 117q145 0 251 -62l93 70l92 -124l-83 -62q28 -60 28 -142q2 -181 -120.5 -300.5t-316.5 -116.5q-156 0 -251 62zM328 349l107 81q47 36 106 36q13 0 42 -3l23 69q-38 15 -84 15q-79 0 -129.5 -42.5
t-61.5 -129.5zM576 313q7 31 8 37l-101 -76q-54 -41 -109 -41q-18 0 -53 4l-15 -71q33 -14 77 -14q72 0 122.5 42t70.5 119zM448 761l90 154h255l-179 -154h-166z" />
    <glyph glyph-name="oslashacute" unicode="&#x1ff;" horiz-adv-x="669" 
d="M109 35l-74 -48l-71 102l69 44q-13 33 -13 79q0 140 93.5 225.5t243.5 85.5q125 0 202 -53l80 54l70 -103l-74 -50q14 -40 14 -84q0 -139 -92 -222t-242 -83q-132 0 -206 53zM283 296l18 11q25 15 56 15q20 0 44 -8l16 74q-18 6 -42 6q-33 0 -56.5 -23.5t-32.5 -60.5z
M377 191l4 19l-19 -13q-35 -25 -66 -25q-11 0 -23 4l-16 -74q9 -4 23 -4q37 0 59 23t38 70zM305 566l82 154h232l-163 -154h-151z" />
    <glyph glyph-name="uni0218" unicode="&#x218;" horiz-adv-x="762" 
d="M4 198l280 47q10 -84 93 -84q41 0 63.5 13.5t22.5 37.5q0 37 -58 45l-64 8q-145 19 -201.5 68t-56.5 137q0 113 98 180.5t246 67.5q158 0 249 -57.5t100 -149.5l-285 -37q-13 68 -83 68q-29 0 -47 -13t-18 -32q0 -23 20 -35t67 -17l56 -6q118 -13 183 -67t65 -141
q0 -119 -96.5 -184t-257.5 -65q-351 0 -376 216zM175 -386l145 160h-111l38 175h205l-37 -175l-140 -160h-100z" />
    <glyph glyph-name="uni0219" unicode="&#x219;" horiz-adv-x="587" 
d="M-10 152l227 16q3 -28 16 -41.5t43 -13.5q24 0 38.5 9t14.5 25q0 24 -43 34l-65 14q-91 19 -133.5 54t-42.5 94q0 83 72.5 131.5t193.5 48.5q124 0 192 -41.5t74 -104.5l-231 -26q-7 47 -55 47q-20 0 -31 -8.5t-11 -20.5q0 -13 13 -20t47 -13l58 -11q185 -35 185 -162
q0 -90 -78.5 -135.5t-205.5 -45.5q-134 0 -204.5 44t-73.5 126zM70 -386l145 160h-111l38 175h205l-37 -175l-140 -160h-100z" />
    <glyph glyph-name="uni021A" unicode="&#x21a;" horiz-adv-x="683" 
d="M157 0l110 520h-198l38 180h659l-38 -180h-198l-110 -520h-263zM105 -386l145 160h-111l38 175h205l-37 -175l-140 -160h-100z" />
    <glyph glyph-name="uni021B" unicode="&#x21b;" horiz-adv-x="479" 
d="M76 137q0 27 8 70l31 148h-91l32 150h91l32 150h233l-32 -150h100l-32 -150h-100l-33 -155q-1 -5 -1 -9q0 -21 25 -21h113l-37 -170h-149q-99 0 -144.5 32.5t-45.5 104.5zM39 -386l145 160h-111l38 175h205l-37 -175l-140 -160h-100z" />
    <glyph glyph-name="uni0226" unicode="&#x226;" horiz-adv-x="787" 
d="M486 0l-6 109h-221l-52 -109h-268l374 700h351l77 -700h-255zM346 289h125l-1 11v26q0 130 47 257h-85q-25 -166 -81 -283zM400 749l38 175h198l-38 -175h-198z" />
    <glyph glyph-name="uni0227" unicode="&#x227;" horiz-adv-x="640" 
d="M4 116q0 88 90.5 142t277.5 63l3 13q1 5 1 14q0 38 -45 38q-48 0 -62 -56l-237 25q19 74 99.5 121t212.5 47q118 0 183.5 -46t65.5 -132q0 -23 -6 -54l-21 -98q0 -3 -0.5 -6t-1 -5t-0.5 -3q0 -19 24 -19h28l-34 -160h-111q-87 0 -87 66q0 13 5 38h-64q-58 -122 -181 -122
q-63 0 -101.5 38t-38.5 96zM346 199l6 28q-53 -3 -85 -22t-32 -50q0 -32 34 -32q59 0 77 76zM272 555l38 175h198l-38 -175h-198z" />
    <glyph glyph-name="uni0232" unicode="&#x232;" horiz-adv-x="742" 
d="M184 0l55 256l-156 444h263l16 -58q13 -46 13 -103q0 -74 -27 -176h79q28 169 111 292l31 45h281l-349 -448l-54 -252h-263zM265 761l27 124h415l-27 -124h-415z" />
    <glyph glyph-name="uni0233" unicode="&#x233;" horiz-adv-x="627" 
d="M452 505h236l-297 -530q-36 -66 -68 -104q-54 -66 -179 -66h-187l36 170h140q15 0 21.5 5.5t15.5 21.5l17 31l-159 472h241l18 -90q5 -27 5 -58q0 -82 -35 -222h71q31 184 83 289zM195 576l26 124h346l-26 -124h-346z" />
    <glyph glyph-name="uni0237" unicode="&#x237;" horiz-adv-x="313" 
d="M-134 -195l34 160h61q22 0 29 34l107 506h232l-108 -511q-38 -189 -199 -189h-156z" />
    <glyph glyph-name="circumflex" unicode="&#x2c6;" horiz-adv-x="504" 
d="M-4 566l147 154h250l83 -154h-178l-43 74l-71 -74h-188z" />
    <glyph glyph-name="caron" unicode="&#x2c7;" horiz-adv-x="504" 
d="M111 566l-83 154h178l40 -84l74 84h188l-147 -154h-250z" />
    <glyph glyph-name="breve" unicode="&#x2d8;" horiz-adv-x="460" 
d="M30 720h135q0 -30 17 -46.5t50 -16.5q68 0 94 63h140q-52 -168 -238 -168q-96 0 -148.5 44.5t-49.5 123.5z" />
    <glyph glyph-name="dotaccent" unicode="&#x2d9;" horiz-adv-x="282" 
d="M23 555l38 175h198l-38 -175h-198z" />
    <glyph glyph-name="ring" unicode="&#x2da;" horiz-adv-x="317" 
d="M107 663q0 61 45 107t115 46q68 0 104.5 -35.5t36.5 -89.5q0 -60 -44 -106t-114 -46q-69 0 -106 35.5t-37 88.5zM300 684q0 34 -36 34q-21 0 -33.5 -12.5t-12.5 -33.5q0 -15 9.5 -25t26.5 -10q20 0 33 13t13 34z" />
    <glyph glyph-name="ogonek" unicode="&#x2db;" horiz-adv-x="318" 
d="M45 -125q0 55 48.5 97t131.5 63l102 -35q-60 -15 -93 -28t-41 -20t-8 -15q0 -17 29 -17q38 0 101 23l-29 -135q-56 -27 -118 -27q-55 0 -89 24t-34 70z" />
    <glyph glyph-name="tilde" unicode="&#x2dc;" horiz-adv-x="574" 
d="M305 585l-21 13q-21 16 -41 16q-34 0 -46 -48h-129q9 76 50.5 120t107.5 44q53 0 99 -30l22 -14q25 -14 41 -14q17 0 29.5 13t16.5 35h128q-9 -76 -51.5 -120t-107.5 -44q-9 0 -17 0.5t-15 2t-11.5 2t-10.5 2.5l-9 3t-9 4t-7.5 4t-9 5.5t-9.5 5.5z" />
    <glyph glyph-name="hungarumlaut" unicode="&#x2dd;" horiz-adv-x="541" 
d="M-3 566l81 154h232l-163 -154h-150zM244 566l82 154h231l-162 -154h-151z" />
    <glyph glyph-name="gravecomb" unicode="&#x300;" horiz-adv-x="0" 
d="M-178 566l-99 154h232l18 -154h-151z" />
    <glyph glyph-name="acutecomb" unicode="&#x301;" horiz-adv-x="0" 
d="M-297 566l82 154h232l-163 -154h-151z" />
    <glyph glyph-name="uni0302" unicode="&#x302;" horiz-adv-x="0" 
d="M-508 566l147 154h250l83 -154h-178l-43 74l-71 -74h-188z" />
    <glyph glyph-name="tildecomb" unicode="&#x303;" horiz-adv-x="0" 
d="M-253 585l-21 13q-21 16 -41 16q-34 0 -46 -48h-129q9 76 50.5 120t107.5 44q53 0 99 -30l22 -14q25 -14 41 -14q17 0 29.5 13t16.5 35h128q-9 -76 -51.5 -120t-107.5 -44q-9 0 -17 0.5t-15 2t-11.5 2t-10.5 2.5l-9 3t-9 4t-7.5 4t-9 5.5t-9.5 5.5z" />
    <glyph glyph-name="uni0304" unicode="&#x304;" horiz-adv-x="0" 
d="M-295 576l26 124h346l-26 -124h-346z" />
    <glyph glyph-name="uni0306" unicode="&#x306;" horiz-adv-x="0" 
d="M-347 720h135q0 -30 17 -46.5t50 -16.5q68 0 94 63h140q-53 -168 -238 -168q-96 0 -148.5 44.5t-49.5 123.5z" />
    <glyph glyph-name="uni0307" unicode="&#x307;" horiz-adv-x="0" 
d="M-259 555l38 175h198l-38 -175h-198z" />
    <glyph glyph-name="uni0308" unicode="&#x308;" horiz-adv-x="0" 
d="M-488 566l32 154h197l-32 -154h-197zM-231 566l32 154h197l-32 -154h-197z" />
    <glyph glyph-name="uni030A" unicode="&#x30a;" horiz-adv-x="0" 
d="M-260 670q0 61 45 107t115 46q68 0 104.5 -35.5t36.5 -89.5q0 -60 -44 -106t-114 -46q-69 0 -106 35.5t-37 88.5zM-67 691q0 34 -36 34q-21 0 -33.5 -12.5t-12.5 -33.5q0 -15 9.5 -25t26.5 -10q20 0 33 13t13 34z" />
    <glyph glyph-name="uni030B" unicode="&#x30b;" horiz-adv-x="0" 
d="M-544 566l81 154h232l-163 -154h-150zM-297 566l82 154h231l-162 -154h-151z" />
    <glyph glyph-name="uni030C" unicode="&#x30c;" horiz-adv-x="0" 
d="M-393 566l-83 154h178l40 -84l74 84h188l-147 -154h-250z" />
    <glyph glyph-name="uni0312" unicode="&#x312;" horiz-adv-x="0" 
d="M93 890l-145 -160h111l-38 -175h-205l38 175l140 160h99z" />
    <glyph glyph-name="dotbelowcomb" unicode="&#x323;" horiz-adv-x="0" 
d="M-316 -226l38 175h198l-38 -175h-198z" />
    <glyph glyph-name="uni0326" unicode="&#x326;" horiz-adv-x="0" 
d="M-293 -386l145 160h-111l38 175h205l-37 -175l-140 -160h-100z" />
    <glyph glyph-name="uni0327" unicode="&#x327;" horiz-adv-x="0" 
d="M-286 -171l81 74q7 -13 22.5 -23t34.5 -10q38 0 38 22q0 19 -28 19q-12 0 -23 -3l-23 62l183 68l39 -38l-45 -16l-41 -15l-33 -12q20 -3 43 -14q43 -26 43 -69q0 -52 -39 -80.5t-108 -28.5q-93 0 -144 64z" />
    <glyph glyph-name="uni0328" unicode="&#x328;" horiz-adv-x="0" 
d="M-273 -125q0 55 48.5 97t131.5 63l102 -35q-60 -15 -93 -28t-41 -20t-8 -15q0 -17 29 -17q38 0 101 23l-29 -135q-56 -27 -118 -27q-55 0 -89 24t-34 70z" />
    <glyph glyph-name="uni0394" unicode="&#x394;" horiz-adv-x="803" 
d="M676 700l81 -700h-818l374 700h363zM307 199h180l-6 101q-1 11 -1 27q0 104 40 256h-82q-28 -168 -83 -283z" />
    <glyph glyph-name="uni03A9" unicode="&#x3a9;" horiz-adv-x="866" 
d="M-30 0l40 188h30q47 0 109.5 -27t98.5 -53l33 68q-53 19 -107 49q-108 65 -108 174q-2 81 57.5 156t161.5 120t214 43q77 1 141.5 -15t106 -42.5t70.5 -60.5t41 -68t12 -67q0 -121 -89 -189q-88 -67 -208 -100l33 -68q28 21 99 51.5t101 28.5h22l-40 -188h-377l39 182
q67 23 102.5 83.5t35.5 137.5q0 55 -28 85t-81 30q-70 0 -113.5 -68.5t-43.5 -158.5q0 -44 15 -69t49 -40l-39 -182h-377z" />
    <glyph glyph-name="uni03BC" unicode="&#x3bc;" horiz-adv-x="634" 
d="M-63 -195l148 700h242l-63 -299q-2 -14 -2 -16q0 -18 10 -27.5t25 -9.5q18 0 33 14.5t20 38.5l63 299h237l-105 -505h-211q11 51 53 106h-79q-14 -26 -32 -50q-24 -32 -55 -51l-42 -200h-242z" />
    <glyph glyph-name="pi" unicode="&#x3c0;" horiz-adv-x="749" 
d="M54 0l70 328h-90l38 177h698l-38 -177h-92l-25 -119q-1 -5 -1 -9q0 -24 29 -24h57l-38 -176h-99q-173 0 -173 148q0 34 9 75l23 105h-75l-70 -328h-223z" />
    <glyph glyph-name="Wgrave" unicode="&#x1e80;" horiz-adv-x="1114" 
d="M112 0l-19 700h263l-2 -60q-1 -76 -30 -220q-34 -169 -56 -259h82q37 197 73 301l83 238h276l-14 -237q-5 -98 -53 -302h82q21 114 53 257q31 136 57 211l25 71h266l-291 -700h-324l5 133q4 122 71 412h-84q-16 -93 -46 -223q-25 -106 -56 -189l-50 -133h-311zM565 761
l-109 154h255l20 -154h-166z" />
    <glyph glyph-name="wgrave" unicode="&#x1e81;" horiz-adv-x="876" 
d="M54 0l1 505h213l-7 -48q-18 -126 -73 -352h72q21 107 36 171q19 74 38 130l34 99h239l-8 -99q-5 -63 -18 -129q-13 -70 -36 -172h72q18 101 38 196q15 69 43 156l16 48h214l-214 -505h-274l4 48q4 58 20 164q16 107 37 198h-76q-61 -299 -84 -365l-16 -45h-271zM424 566
l-99 154h232l18 -154h-151z" />
    <glyph glyph-name="Wacute" unicode="&#x1e82;" horiz-adv-x="1114" 
d="M112 0l-19 700h263l-2 -60q-1 -76 -30 -220q-34 -169 -56 -259h82q37 197 73 301l83 238h276l-14 -237q-5 -98 -53 -302h82q21 114 53 257q31 136 57 211l25 71h266l-291 -700h-324l5 133q4 122 71 412h-84q-16 -93 -46 -223q-25 -106 -56 -189l-50 -133h-311zM564 761
l90 154h255l-179 -154h-166z" />
    <glyph glyph-name="wacute" unicode="&#x1e83;" horiz-adv-x="876" 
d="M54 0l1 505h213l-7 -48q-18 -126 -73 -352h72q21 107 36 171q19 74 38 130l34 99h239l-8 -99q-5 -63 -18 -129q-13 -70 -36 -172h72q18 101 38 196q15 69 43 156l16 48h214l-214 -505h-274l4 48q4 58 20 164q16 107 37 198h-76q-61 -299 -84 -365l-16 -45h-271zM421 566
l82 154h232l-163 -154h-151z" />
    <glyph glyph-name="Wdieresis" unicode="&#x1e84;" horiz-adv-x="1114" 
d="M112 0l-19 700h263l-2 -60q-1 -76 -30 -220q-34 -169 -56 -259h82q37 197 73 301l83 238h276l-14 -237q-5 -98 -53 -302h82q21 114 53 257q31 136 57 211l25 71h266l-291 -700h-324l5 133q4 122 71 412h-84q-16 -93 -46 -223q-25 -106 -56 -189l-50 -133h-311zM404 761
l35 154h217l-35 -154h-217zM686 761l36 154h216l-35 -154h-217z" />
    <glyph glyph-name="wdieresis" unicode="&#x1e85;" horiz-adv-x="876" 
d="M54 0l1 505h213l-7 -48q-18 -126 -73 -352h72q21 107 36 171q19 74 38 130l34 99h239l-8 -99q-5 -63 -18 -129q-13 -70 -36 -172h72q18 101 38 196q15 69 43 156l16 48h214l-214 -505h-274l4 48q4 58 20 164q16 107 37 198h-76q-61 -299 -84 -365l-16 -45h-271zM272 566
l32 154h197l-32 -154h-197zM529 566l32 154h197l-32 -154h-197z" />
    <glyph glyph-name="uni1E9E" unicode="&#x1e9e;" horiz-adv-x="755" 
d="M288 9l41 189q30 -17 73 -17q35 0 55 15t20 40q0 19 -16 31t-45 12h-71l30 148h62q29 0 46.5 15t17.5 38q0 41 -57 41h-92l-110 -521h-247l149 700h379q99 0 157 -39.5t58 -107.5q0 -77 -60.5 -117t-168.5 -38l-16 -74q4 1 18 1q92 0 152.5 -37.5t60.5 -109.5
q0 -92 -80 -144t-204 -52q-98 0 -152 27z" />
    <glyph glyph-name="uni1EA0" unicode="&#x1ea0;" horiz-adv-x="787" 
d="M486 0l-6 109h-221l-52 -109h-268l374 700h351l77 -700h-255zM346 289h125l-1 11v26q0 130 47 257h-85q-25 -166 -81 -283zM206 -226l38 175h198l-38 -175h-198z" />
    <glyph glyph-name="uni1EA1" unicode="&#x1ea1;" horiz-adv-x="640" 
d="M4 116q0 88 90.5 142t277.5 63l3 13q1 5 1 14q0 38 -45 38q-48 0 -62 -56l-237 25q19 74 99.5 121t212.5 47q118 0 183.5 -46t65.5 -132q0 -23 -6 -54l-21 -98q0 -3 -0.5 -6t-1 -5t-0.5 -3q0 -19 24 -19h28l-34 -160h-111q-87 0 -87 66q0 13 5 38h-64q-58 -122 -181 -122
q-63 0 -101.5 38t-38.5 96zM346 199l6 28q-53 -3 -85 -22t-32 -50q0 -32 34 -32q59 0 77 76zM110 -226l38 175h198l-38 -175h-198z" />
    <glyph glyph-name="uni1EB8" unicode="&#x1eb8;" horiz-adv-x="650" 
d="M-4 0l148 700h563l-41 -193h-316l-15 -70h258l-36 -170h-258l-15 -73h316l-41 -194h-563zM140 -226l38 175h198l-38 -175h-198z" />
    <glyph glyph-name="uni1EB9" unicode="&#x1eb9;" horiz-adv-x="615" 
d="M15 204q0 140 90.5 229.5t236.5 89.5q115 0 183 -60t68 -160q0 -42 -14 -92h-340q-4 -19 -4 -33q0 -47 44 -47t78 59l223 -54q-33 -68 -109.5 -111t-188.5 -43q-124 0 -195.5 59t-71.5 163zM258 311h112q3 13 3 24q0 49 -46 49q-51 0 -69 -73zM109 -226l38 175h198
l-38 -175h-198z" />
    <glyph glyph-name="uni1ECA" unicode="&#x1eca;" horiz-adv-x="362" 
d="M-4 0l148 700h263l-148 -700h-263zM-15 -226l38 175h198l-38 -175h-198z" />
    <glyph glyph-name="uni1ECB" unicode="&#x1ecb;" horiz-adv-x="316" 
d="M101 555l37 175h243l-37 -175h-243zM-18 0l108 505h243l-108 -505h-243zM-65 -226l37 175h243l-37 -175h-243z" />
    <glyph glyph-name="uni1ECC" unicode="&#x1ecc;" horiz-adv-x="867" 
d="M45 302q-2 180 120.5 299t316.5 117q185 0 283 -86t98 -233q2 -181 -120.5 -300.5t-316.5 -116.5q-186 0 -283.5 86t-97.5 234zM585 398q0 58 -28.5 90t-82.5 32q-69 0 -109.5 -62.5t-40.5 -154.5q0 -58 28 -90t82 -32q70 0 110.5 62.5t40.5 154.5zM239 -226l38 175h198
l-38 -175h-198z" />
    <glyph glyph-name="uni1ECD" unicode="&#x1ecd;" horiz-adv-x="663" 
d="M16 212q0 140 93.5 225.5t243.5 85.5q139 0 215.5 -63.5t76.5 -172.5q0 -139 -92 -222t-242 -83q-140 0 -217.5 61t-77.5 169zM390 296q0 75 -45 75q-34 0 -54 -49.5t-20 -113.5q0 -40 10 -57.5t33 -17.5q35 0 55.5 49.5t20.5 113.5zM151 -226l38 175h198l-38 -175h-198z
" />
    <glyph glyph-name="uni1EE4" unicode="&#x1ee4;" horiz-adv-x="778" 
d="M43 220q0 44 10 88l83 392h259l-77 -366q-9 -44 -9 -73q0 -37 15.5 -53.5t49.5 -16.5q88 0 117 143l77 366h262l-83 -392q-36 -174 -126.5 -250t-264.5 -76q-154 0 -233.5 61t-79.5 177zM192 -226l38 175h198l-38 -175h-198z" />
    <glyph glyph-name="uni1EE5" unicode="&#x1ee5;" horiz-adv-x="634" 
d="M7 108q0 31 7 60l71 337h242l-63 -298q0 -3 -0.5 -5.5t-1 -4.5t-0.5 -3.5v-2.5q0 -18 10 -28t25 -10q41 0 53 54l63 298h237l-105 -505h-211q11 51 53 106h-86q-64 -123 -167 -123q-60 0 -93.5 31.5t-33.5 93.5zM116 -226l38 175h198l-38 -175h-198z" />
    <glyph glyph-name="Ygrave" unicode="&#x1ef2;" horiz-adv-x="742" 
d="M184 0l55 256l-156 444h263l16 -58q13 -46 13 -103q0 -74 -27 -176h79q28 169 111 292l31 45h281l-349 -448l-54 -252h-263zM387 761l-109 154h255l20 -154h-166z" />
    <glyph glyph-name="ygrave" unicode="&#x1ef3;" horiz-adv-x="627" 
d="M452 505h236l-297 -530q-36 -66 -68 -104q-54 -66 -179 -66h-187l36 170h140q15 0 21.5 5.5t15.5 21.5l17 31l-159 472h241l18 -90q5 -27 5 -58q0 -82 -35 -222h71q31 184 83 289zM292 566l-99 154h232l18 -154h-151z" />
    <glyph glyph-name="uni2002" unicode="&#x2002;" horiz-adv-x="500" 
 />
    <glyph glyph-name="uni2003" unicode="&#x2003;" horiz-adv-x="1000" 
 />
    <glyph glyph-name="uni2009" unicode="&#x2009;" horiz-adv-x="125" 
 />
    <glyph glyph-name="endash" unicode="&#x2013;" horiz-adv-x="689" 
d="M37 240l36 170h609l-36 -170h-609z" />
    <glyph glyph-name="emdash" unicode="&#x2014;" horiz-adv-x="899" 
d="M39 245l36 165h816l-36 -165h-816z" />
    <glyph glyph-name="quoteleft" unicode="&#x2018;" horiz-adv-x="300" 
d="M357 700l-164 -185h125l-42 -203h-233l43 203l159 185h112z" />
    <glyph glyph-name="quoteright" unicode="&#x2019;" horiz-adv-x="293" 
d="M50 312l164 185h-125l42 203h233l-43 -203l-159 -185h-112z" />
    <glyph glyph-name="quotesinglbase" unicode="&#x201a;" horiz-adv-x="310" 
d="M-48 -185l164 185h-125l42 203h233l-43 -203l-159 -185h-112z" />
    <glyph glyph-name="quotedblleft" unicode="&#x201c;" horiz-adv-x="587" 
d="M357 700l-164 -185h125l-42 -203h-233l43 203l159 185h112zM645 700l-165 -185h125l-42 -203h-232l42 203l159 185h113z" />
    <glyph glyph-name="quotedblright" unicode="&#x201d;" horiz-adv-x="580" 
d="M50 312l164 185h-125l42 203h233l-43 -203l-159 -185h-112zM337 312l164 185h-125l42 203h233l-43 -203l-159 -185h-112z" />
    <glyph glyph-name="quotedblbase" unicode="&#x201e;" horiz-adv-x="597" 
d="M-48 -185l164 185h-125l42 203h233l-43 -203l-159 -185h-112zM239 -185l164 185h-125l42 203h233l-43 -203l-159 -185h-112z" />
    <glyph glyph-name="dagger" unicode="&#x2020;" horiz-adv-x="679" 
d="M269 -89v426h-194v190h194v173h210v-173h195v-190h-195v-426h-210z" />
    <glyph glyph-name="daggerdbl" unicode="&#x2021;" horiz-adv-x="742" 
d="M277 -89v163h-194v190h194v73h-194v190h194v173h210v-173h195v-190h-195v-73h195v-190h-195v-163h-210z" />
    <glyph glyph-name="bullet" unicode="&#x2022;" horiz-adv-x="609" 
d="M72 342q-2 99 74 174t177 73q101 2 177 -73t74 -174q2 -98 -74 -173t-177 -74q-101 -1 -177 74t-74 173z" />
    <glyph glyph-name="ellipsis" unicode="&#x2026;" horiz-adv-x="1012" 
d="M-10 0l46 214h245l-46 -214h-245zM335 0l46 214h245l-46 -214h-245zM680 0l46 214h245l-46 -214h-245z" />
    <glyph glyph-name="perthousand" unicode="&#x2030;" horiz-adv-x="1225" 
d="M248 302q-83 0 -128.5 42t-45.5 118q0 107 59.5 177.5t150.5 70.5q82 0 129.5 -45t47.5 -123q0 -105 -60.5 -172.5t-152.5 -67.5zM753 700h172l-634 -700h-173zM251 415q19 0 33.5 40t14.5 98q0 45 -19 45q-17 0 -31.5 -42t-14.5 -101q0 -40 17 -40zM1190 230
q0 -105 -60.5 -172.5t-152.5 -67.5q-69 0 -113 30q-50 -30 -109 -30q-83 0 -128.5 42t-45.5 118q0 106 60 177t150 71q68 0 114 -32q49 32 108 32q82 0 129.5 -45t47.5 -123zM806 241q0 45 -19 45q-17 0 -31.5 -42t-14.5 -101q0 -40 17 -40q19 0 33.5 40t14.5 98zM1028 241
q0 45 -19 45q-13 0 -24.5 -24t-17.5 -63q0 -3 -0.5 -6t-1 -5.5t-0.5 -3.5q-2 -22 -2 -41q0 -40 17 -40q19 0 33.5 40t14.5 98z" />
    <glyph glyph-name="guilsinglleft" unicode="&#x2039;" horiz-adv-x="421" 
d="M459 505l-230 -273l92 -232h-201l-94 255l205 250h228z" />
    <glyph glyph-name="guilsinglright" unicode="&#x203a;" horiz-adv-x="421" 
d="M301 505l94 -255l-205 -250h-228l230 273l-92 232h201z" />
    <glyph glyph-name="fraction" unicode="&#x2044;" horiz-adv-x="200" 
d="M-285 0l635 700h172l-634 -700h-173z" />
    <glyph glyph-name="uni2070" unicode="&#x2070;" horiz-adv-x="454" 
d="M106 553q0 107 59.5 177.5t150.5 70.5q82 0 129.5 -45t47.5 -123q0 -105 -60.5 -172.5t-152.5 -67.5q-83 0 -128.5 42t-45.5 118zM331 644q0 45 -19 45q-17 0 -31.5 -42t-14.5 -101q0 -40 17 -40q19 0 33.5 40t14.5 98z" />
    <glyph glyph-name="uni2074" unicode="&#x2074;" horiz-adv-x="457" 
d="M263 403l14 66h-197l34 151l153 171h216l-46 -218h53l-22 -104h-53l-14 -66h-138zM299 573l5 26q10 41 47 78l-29 26l-124 -142l30 -24q27 36 61 36h10z" />
    <glyph glyph-name="uni2075" unicode="&#x2075;" horiz-adv-x="419" 
d="M83 511l145 21q1 -14 10.5 -22t22.5 -8q15 0 25 10.5t10 27.5q0 14 -8 22t-20 8q-18 0 -29 -23l-129 16l66 228h298l-24 -113h-192l-3 -9q-11 -39 -54 -72h55q25 52 83 52q43 0 73 -26t30 -77q0 -69 -49.5 -111t-131.5 -42q-89 0 -130.5 35.5t-47.5 82.5z" />
    <glyph glyph-name="uni2076" unicode="&#x2076;" horiz-adv-x="426" 
d="M105 553q0 110 67 179t175 69q35 0 70.5 -8t51.5 -18l-23 -111q-50 25 -104 25q-109 0 -129 -95h42q7 27 29 43t55 16q40 0 76 -26t36 -80q0 -68 -51 -111t-130 -43t-122 41.5t-43 118.5zM305 541q0 13 -8 21.5t-21 8.5t-23 -11t-10 -26q0 -14 7.5 -22.5t19.5 -8.5
q15 0 25 11t10 27z" />
    <glyph glyph-name="uni2077" unicode="&#x2077;" horiz-adv-x="372" 
d="M354 683l24 11l-25 44q-85 -60 -173 -60h-59l24 113h312l-28 -136q-67 -31 -111.5 -95.5t-61.5 -156.5h-162q22 106 78.5 163.5t181.5 116.5z" />
    <glyph glyph-name="uni2078" unicode="&#x2078;" horiz-adv-x="422" 
d="M91 490q0 44 35.5 68.5t96.5 25.5l10 41q-101 2 -101 64q0 51 52.5 81.5t128.5 30.5q72 0 112 -24t40 -66q0 -84 -124 -86l-10 -41q53 -1 82 -20.5t29 -53.5q0 -55 -55 -86t-135 -31q-75 0 -118 26.5t-43 70.5zM325 675q0 24 -25 24q-12 0 -20.5 -9t-8.5 -23
q0 -23 24 -23q13 0 21.5 8.5t8.5 22.5zM300 536q0 27 -28 27q-15 0 -24.5 -10t-9.5 -27q0 -25 28 -25q15 0 24.5 10t9.5 25z" />
    <glyph glyph-name="uni2079" unicode="&#x2079;" horiz-adv-x="424" 
d="M94 419l25 112q45 -29 108 -29q64 0 96 29q28 26 34 68h-39q-21 -60 -90 -60q-39 0 -72.5 27t-33.5 81q0 71 45.5 112.5t123.5 41.5q79 0 124 -47q47 -49 47 -124q0 -108 -62 -172.5t-172 -64.5q-80 0 -134 26zM321 659q0 32 -31 32q-14 0 -24 -11t-10 -29q0 -32 29 -32
q15 0 25.5 11t10.5 29z" />
    <glyph glyph-name="uni20A9" unicode="&#x20a9;" horiz-adv-x="1111" 
d="M1111 402h-111l-23 -58h85l-22 -105h-104l-94 -239h-269l4 63q6 96 19 176h-86q-22 -85 -53 -176l-22 -63h-259l1 239h-94l22 105h72l1 58h-121l23 105h98l1 193h228l-5 -90q-1 -25 -13 -103h87l19 65l42 128h225l-12 -128q-7 -61 -8 -65h87q17 68 30 103l32 90h225
l-75 -193h93zM585 595l-16 -75l-2 -13h80l20 88h-82zM370 402l-12 -58h79l13 58h-80zM534 344h80l11 58h-79zM804 402h-80l-12 -58h79zM415 239h-79l-22 -107h81q2 14 20 107zM666 132h81l22 107h-80q-3 -14 -8.5 -41t-8.5 -39z" />
    <glyph glyph-name="Euro" unicode="&#x20ac;" horiz-adv-x="785" 
d="M95 213h-67l23 110h53l10 45h-53l23 110h62q42 118 127.5 179t204.5 61q122 0 207 -65.5t95 -192.5l-232 -45q3 69 -26.5 102t-83.5 33q-36 0 -74 -23t-67 -64l46 -42q45 57 108 57h18l-23 -110h-106l-10 -45h106l-23 -110h-18q-62 0 -84 57l-64 -42q11 -41 39 -64
t65 -23q51 0 96 36.5t74 107.5l233 -73q-49 -116 -142.5 -173t-219.5 -57q-123 0 -202 60t-95 171z" />
    <glyph glyph-name="uni20B9" unicode="&#x20b9;" horiz-adv-x="634" 
d="M214 0l-10 159q-3 47 -18 63t-56 16h-92l35 164h125q34 0 55.5 16t21.5 42q0 20 -15 32.5t-40 12.5h-125l41 195h565l-31 -147h-31q-106 0 -196 76l-55 -68q44 -11 83 -68h185l-26 -125h-155h-228l-17 -78q38 2 54 2q87 0 128.5 -28t51.5 -104l21 -160h-271z" />
    <glyph glyph-name="uni20BA" unicode="&#x20ba;" horiz-adv-x="790" 
d="M74 0l3 15q13 68 133 161l-57 54q-74 -88 -110 -105l-17 -8l31 149l81 36l12 56l-81 -36l32 149l80 36l41 193h240l-1 -9q-2 -15 -23.5 -47t-56.5 -61l64 -48q76 122 140 148l61 26l-31 -149l-199 -86l-11 -55l198 86l-32 -150l-198 -86l-13 -61h33q91 0 171 113
l195 -143q-69 -104 -156.5 -140.5t-249.5 -37.5h-279z" />
    <glyph glyph-name="uni20BD" unicode="&#x20bd;" horiz-adv-x="733" 
d="M494 289h-151l-10 -50h198l-28 -130h-196l-22 -109h-232l23 109h-69l28 130h69l10 50h-69l30 140h69l57 271h309q116 0 180 -49.5t64 -141.5q0 -99 -73 -159.5t-187 -60.5zM391 530l-20 -101h77q27 0 44 17t17 38q0 20 -14 33t-38 13h-66z" />
    <glyph glyph-name="uni20BF" unicode="&#x20bf;" horiz-adv-x="719" 
d="M679 189q0 -85 -72 -133.5t-190 -54.5l-22 -104h-135l22 103h-49l-22 -103h-135l22 103h-98l148 700h99l19 89h135l-19 -89h49l19 89h135l-20 -94q70 -12 109.5 -48.5t39.5 -88.5q0 -80 -60.5 -121t-168.5 -39l-16 -74q210 1 210 -135zM479 483q0 16 -13.5 27.5
t-34.5 11.5h-74l-21 -96h78q29 0 47 15.5t18 41.5zM433 237q0 19 -13.5 30.5t-37.5 11.5h-77l-22 -101h80q32 0 51 16t19 43z" />
    <glyph glyph-name="uni2113" unicode="&#x2113;" 
d="M69 139q0 19 4 39l2 11q-48 -2 -65 -2l26 125l64 7l40 192q23 110 95 158q71 49 167 49q112 0 173 -51t61 -137q0 -113 -91.5 -193.5t-256.5 -117.5l-8 -36q-2 -14 -2 -16q0 -25 24 -25q19 0 35.5 19t23.5 48l221 -45q-25 -72 -93 -128q-67 -54 -197 -54
q-104 0 -163.5 40.5t-59.5 116.5zM443 489q3 13 3 26q0 26 -12 40.5t-32 14.5q-40 0 -50 -46l-5 -24q-8 -41 -26 -71.5t-61 -61.5l31 -51q131 61 152 173z" />
    <glyph glyph-name="uni2116" unicode="&#x2116;" horiz-adv-x="1392" 
d="M903 464q1 113 80 182t198 69q111 0 175 -50.5t64 -137.5q0 -107 -79.5 -175t-198.5 -68q-112 0 -176.5 49t-62.5 131zM8 0l148 700h310l161 -491l71 25q-67 177 -67 284q0 48 11 103l16 79h242l-148 -700h-261l-194 591l-72 -23q66 -169 66 -297q0 -70 -16 -141
l-27 -130h-240zM1216 538q0 64 -41 64q-29 0 -48 -40.5t-19 -94.5q0 -55 40 -55q29 0 48.5 38.5t19.5 87.5z" />
    <glyph glyph-name="uni2117" unicode="&#x2117;" horiz-adv-x="941" 
d="M56 342q-2 115 55 212.5t157 153.5t218 54q118 2 219.5 -54t160.5 -154t57 -212q2 -114 -57 -213t-161 -156.5t-219 -55.5q-117 -2 -217 55.5t-157.5 156.5t-55.5 213zM777 342q0 128 -79.5 211t-209.5 83q-129 0 -207.5 -83t-78.5 -211t79 -213.5t207 -85.5t208.5 85.5
t80.5 213.5zM345 142v408h189q66 0 109 -36t43 -96t-43 -96t-109 -36h-62v-144h-127zM472 372h27q49 0 49 46t-49 46h-27v-92z" />
    <glyph glyph-name="trademark" unicode="&#x2122;" horiz-adv-x="968" 
d="M142 322l58 274h-104l22 104h336l-22 -104h-104l-58 -274h-128zM433 322l79 378h196l2 -69q1 -69 -30 -228q0 -2 -1.5 -6.5t-1.5 -6.5h36l4 18q34 147 68 227l28 65h193l-79 -378h-123l12 55q14 60 104 246l-36 18l-6 -11l-146 -308h-104l-22 308l-1 10l-41 -6
q9 -114 9 -176q0 -52 -6 -82l-11 -54h-123z" />
    <glyph glyph-name="Omega" unicode="&#x2126;" horiz-adv-x="964" 
d="M74 0v188h21q56 0 125 -27t104 -53l33 68q-74 22 -136 52q-58 28 -100 81t-42 130q-1 48 24 96t72 90.5t127.5 68t180.5 24.5q100 1 180.5 -24.5t127.5 -68t72 -90.5t24 -96q0 -77 -42 -130q-39 -48 -94.5 -77.5t-141.5 -55.5l33 -68q36 26 104 53t125 27h21v-188h-377
v182q50 20 72.5 58t22.5 113q0 79 -33 122t-94 43q-123 0 -123 -165q0 -77 21 -115t70 -56v-182h-377z" />
    <glyph glyph-name="onethird" unicode="&#x2153;" horiz-adv-x="969" 
d="M151 312l29 139q15 76 65 146h-52q-25 -59 -49 -85.5t-73 -30.5l30 138q101 2 137 81h146l-82 -388h-151zM85 0l635 700h172l-634 -700h-173zM564 109l144 23q0 -14 9.5 -22.5t24.5 -8.5q32 0 32 26q0 23 -31 23h-34l19 90h36q15 0 24.5 7.5t9.5 19.5q0 21 -25 21
q-27 0 -33 -30l-140 19q14 57 62 89t122 32q64 0 107.5 -25.5t43.5 -69.5q0 -41 -32.5 -63.5t-92.5 -22.5l-15 1l-9 -43h20q53 0 80.5 -19t27.5 -53q0 -55 -47 -84t-125 -29q-81 0 -127.5 31.5t-50.5 87.5z" />
    <glyph glyph-name="twothirds" unicode="&#x2154;" horiz-adv-x="1052" 
d="M62 312l28 133q110 30 159.5 60.5t49.5 66.5q0 12 -7 19t-17 7q-33 0 -38 -57l-147 14q4 27 15.5 52t33 49.5t58 39t83.5 14.5q75 0 120 -31.5t45 -81.5q0 -64 -65 -105q-36 -22 -102 -42q-55 -17 -102 -26l16 -47q25 14 86 31t104 17h36l-24 -113h-332zM168 0l635 700
h172l-634 -700h-173zM647 109l144 23q0 -14 9.5 -22.5t24.5 -8.5q32 0 32 26q0 23 -31 23h-34l19 90h36q15 0 24.5 7.5t9.5 19.5q0 21 -25 21q-27 0 -33 -30l-140 19q14 57 62 89t122 32q64 0 107.5 -25.5t43.5 -69.5q0 -41 -32.5 -63.5t-92.5 -22.5l-15 1l-9 -43h20
q53 0 80.5 -19t27.5 -53q0 -55 -47 -84t-125 -29q-81 0 -127.5 31.5t-50.5 87.5z" />
    <glyph glyph-name="uni2155" unicode="&#x2155;" horiz-adv-x="976" 
d="M151 312l29 139q15 76 65 146h-52q-25 -59 -49 -85.5t-73 -30.5l30 138q101 2 137 81h146l-82 -388h-151zM85 0l635 700h172l-634 -700h-173zM564 108l145 21q1 -14 10.5 -22t22.5 -8q15 0 25 10.5t10 27.5q0 14 -8 22t-20 8q-18 0 -29 -23l-129 16l66 228h298l-24 -113
h-192l-3 -9q-11 -39 -54 -72h55q25 52 83 52q43 0 73 -26t30 -77q0 -69 -49.5 -111t-131.5 -42q-89 0 -130.5 35.5t-47.5 82.5z" />
    <glyph glyph-name="uni2156" unicode="&#x2156;" horiz-adv-x="1056" 
d="M60 312l28 133q110 30 159.5 60.5t49.5 66.5q0 12 -7 19t-17 7q-33 0 -38 -57l-147 14q4 27 15.5 52t33 49.5t58 39t83.5 14.5q75 0 120 -31.5t45 -81.5q0 -64 -65 -105q-36 -22 -102 -42q-55 -17 -102 -26l16 -47q25 14 86 31t104 17h36l-24 -113h-332zM166 0l635 700
h172l-634 -700h-173zM645 108l145 21q1 -14 10.5 -22t22.5 -8q15 0 25 10.5t10 27.5q0 14 -8 22t-20 8q-18 0 -29 -23l-129 16l66 228h298l-24 -113h-192l-3 -9q-11 -39 -54 -72h55q25 52 83 52q43 0 73 -26t30 -77q0 -69 -49.5 -111t-131.5 -42q-89 0 -130.5 35.5
t-47.5 82.5z" />
    <glyph glyph-name="uni2157" unicode="&#x2157;" horiz-adv-x="1036" 
d="M58 421l144 23q0 -14 9.5 -22.5t24.5 -8.5q32 0 32 26q0 23 -31 23h-34l19 90h36q15 0 24.5 7.5t9.5 19.5q0 21 -25 21q-27 0 -33 -30l-140 19q14 57 62 89t122 32q64 0 107.5 -25.5t43.5 -69.5q0 -41 -32.5 -63.5t-92.5 -22.5l-15 1l-9 -43h20q53 0 80.5 -19t27.5 -53
q0 -55 -47 -84t-125 -29q-81 0 -127.5 31.5t-50.5 87.5zM145 0l635 700h172l-634 -700h-173zM624 108l145 21q1 -14 10.5 -22t22.5 -8q15 0 25 10.5t10 27.5q0 14 -8 22t-20 8q-18 0 -29 -23l-129 16l66 228h298l-24 -113h-192l-3 -9q-11 -39 -54 -72h55q25 52 83 52
q43 0 73 -26t30 -77q0 -69 -49.5 -111t-131.5 -42q-89 0 -130.5 35.5t-47.5 82.5z" />
    <glyph glyph-name="uni2158" unicode="&#x2158;" horiz-adv-x="1078" 
d="M231 312l14 66h-197l34 151l153 171h216l-46 -218h53l-22 -104h-53l-14 -66h-138zM267 482l5 26q10 41 47 78l-29 26l-124 -142l30 -24q27 36 61 36h10zM185 0l635 700h172l-634 -700h-173zM664 108l145 21q1 -14 10.5 -22t22.5 -8q15 0 25 10.5t10 27.5q0 14 -8 22
t-20 8q-18 0 -29 -23l-129 16l66 228h298l-24 -113h-192l-3 -9q-11 -39 -54 -72h55q25 52 83 52q43 0 73 -26t30 -77q0 -69 -49.5 -111t-131.5 -42q-89 0 -130.5 35.5t-47.5 82.5z" />
    <glyph glyph-name="uni2159" unicode="&#x2159;" horiz-adv-x="975" 
d="M151 312l29 139q15 76 65 146h-52q-25 -59 -49 -85.5t-73 -30.5l30 138q101 2 137 81h146l-82 -388h-151zM85 0l635 700h172l-634 -700h-173zM579 150q0 110 67 179t175 69q35 0 70.5 -8t51.5 -18l-23 -111q-50 25 -104 25q-109 0 -129 -95h42q7 27 29 43t55 16
q40 0 76 -26t36 -80q0 -68 -51 -111t-130 -43t-122 41.5t-43 118.5zM779 138q0 13 -8 21.5t-21 8.5t-23 -11t-10 -26q0 -14 7.5 -22.5t19.5 -8.5q15 0 25 11t10 27z" />
    <glyph glyph-name="uni215A" unicode="&#x215a;" horiz-adv-x="1026" 
d="M57 420l145 21q1 -14 10.5 -22t22.5 -8q15 0 25 10.5t10 27.5q0 14 -8 22t-20 8q-18 0 -29 -23l-129 16l66 228h298l-24 -113h-192l-3 -9q-11 -39 -54 -72h55q25 52 83 52q43 0 73 -26t30 -77q0 -69 -49.5 -111t-131.5 -42q-89 0 -130.5 35.5t-47.5 82.5zM135 0l635 700
h172l-634 -700h-173zM629 150q0 110 67 179t175 69q35 0 70.5 -8t51.5 -18l-23 -111q-50 25 -104 25q-109 0 -129 -95h42q7 27 29 43t55 16q40 0 76 -26t36 -80q0 -68 -51 -111t-130 -43t-122 41.5t-43 118.5zM829 138q0 13 -8 21.5t-21 8.5t-23 -11t-10 -26
q0 -14 7.5 -22.5t19.5 -8.5q15 0 25 11t10 27z" />
    <glyph glyph-name="oneeighth" unicode="&#x215b;" horiz-adv-x="969" 
d="M151 312l29 139q15 76 65 146h-52q-25 -59 -49 -85.5t-73 -30.5l30 138q101 2 137 81h146l-82 -388h-151zM85 0l635 700h172l-634 -700h-173zM563 87q0 44 35.5 68.5t96.5 25.5l10 41q-101 2 -101 64q0 51 52.5 81.5t128.5 30.5q72 0 112 -24t40 -66q0 -84 -124 -86
l-10 -41q53 -1 82 -20.5t29 -53.5q0 -55 -55 -86t-135 -31q-75 0 -118 26.5t-43 70.5zM797 272q0 24 -25 24q-12 0 -20.5 -9t-8.5 -23q0 -23 24 -23q13 0 21.5 8.5t8.5 22.5zM772 133q0 27 -28 27q-15 0 -24.5 -10t-9.5 -27q0 -25 28 -25q15 0 24.5 10t9.5 25z" />
    <glyph glyph-name="threeeighths" unicode="&#x215c;" horiz-adv-x="1028" 
d="M58 421l144 23q0 -14 9.5 -22.5t24.5 -8.5q32 0 32 26q0 23 -31 23h-34l19 90h36q15 0 24.5 7.5t9.5 19.5q0 21 -25 21q-27 0 -33 -30l-140 19q14 57 62 89t122 32q64 0 107.5 -25.5t43.5 -69.5q0 -41 -32.5 -63.5t-92.5 -22.5l-15 1l-9 -43h20q53 0 80.5 -19t27.5 -53
q0 -55 -47 -84t-125 -29q-81 0 -127.5 31.5t-50.5 87.5zM145 0l635 700h172l-634 -700h-173zM623 87q0 44 35.5 68.5t96.5 25.5l10 41q-101 2 -101 64q0 51 52.5 81.5t128.5 30.5q72 0 112 -24t40 -66q0 -84 -124 -86l-10 -41q53 -1 82 -20.5t29 -53.5q0 -55 -55 -86
t-135 -31q-75 0 -118 26.5t-43 70.5zM857 272q0 24 -25 24q-12 0 -20.5 -9t-8.5 -23q0 -23 24 -23q13 0 21.5 8.5t8.5 22.5zM832 133q0 27 -28 27q-15 0 -24.5 -10t-9.5 -27q0 -25 28 -25q15 0 24.5 10t9.5 25z" />
    <glyph glyph-name="fiveeighths" unicode="&#x215d;" horiz-adv-x="1020" 
d="M57 420l145 21q1 -14 10.5 -22t22.5 -8q15 0 25 10.5t10 27.5q0 14 -8 22t-20 8q-18 0 -29 -23l-129 16l66 228h298l-24 -113h-192l-3 -9q-11 -39 -54 -72h55q25 52 83 52q43 0 73 -26t30 -77q0 -69 -49.5 -111t-131.5 -42q-89 0 -130.5 35.5t-47.5 82.5zM135 0l635 700
h172l-634 -700h-173zM613 87q0 44 35.5 68.5t96.5 25.5l10 41q-101 2 -101 64q0 51 52.5 81.5t128.5 30.5q72 0 112 -24t40 -66q0 -84 -124 -86l-10 -41q53 -1 82 -20.5t29 -53.5q0 -55 -55 -86t-135 -31q-75 0 -118 26.5t-43 70.5zM847 272q0 24 -25 24q-12 0 -20.5 -9
t-8.5 -23q0 -23 24 -23q13 0 21.5 8.5t8.5 22.5zM822 133q0 27 -28 27q-15 0 -24.5 -10t-9.5 -27q0 -25 28 -25q15 0 24.5 10t9.5 25z" />
    <glyph glyph-name="seveneighths" unicode="&#x215e;" horiz-adv-x="919" 
d="M331 592l24 11l-25 44q-85 -60 -173 -60h-59l24 113h312l-28 -136q-67 -31 -111.5 -95.5t-61.5 -156.5h-162q22 106 78.5 163.5t181.5 116.5zM35 0l635 700h172l-634 -700h-173zM513 87q0 44 35.5 68.5t96.5 25.5l10 41q-101 2 -101 64q0 51 52.5 81.5t128.5 30.5
q72 0 112 -24t40 -66q0 -84 -124 -86l-10 -41q53 -1 82 -20.5t29 -53.5q0 -55 -55 -86t-135 -31q-75 0 -118 26.5t-43 70.5zM747 272q0 24 -25 24q-12 0 -20.5 -9t-8.5 -23q0 -23 24 -23q13 0 21.5 8.5t8.5 22.5zM722 133q0 27 -28 27q-15 0 -24.5 -10t-9.5 -27
q0 -25 28 -25q15 0 24.5 10t9.5 25z" />
    <glyph glyph-name="uni215F" unicode="&#x215f;" horiz-adv-x="481" 
d="M132 312l29 139q15 76 65 146h-52q-25 -59 -49 -85.5t-73 -30.5l30 138q101 2 137 81h146l-82 -388h-151zM66 0l635 700h172l-634 -700h-173z" />
    <glyph glyph-name="arrowleft" unicode="&#x2190;" horiz-adv-x="854" 
d="M826 240h-474v-77q35 4 63 4q94 0 154 -59l27 -26l-146 -145l-414 413l414 414l146 -146l-27 -26q-59 -58 -152 -58q-26 0 -65 3v-77h474v-220z" />
    <glyph glyph-name="arrowup" unicode="&#x2191;" horiz-adv-x="859" 
d="M345 0v474h-77q3 -38 3 -63q0 -95 -58 -154l-26 -27l-145 146l413 414l414 -414l-146 -146l-26 27q-58 59 -58 153q0 25 3 64h-77v-474h-220z" />
    <glyph glyph-name="arrowright" unicode="&#x2192;" horiz-adv-x="853" 
d="M69 460h474v77q-39 -3 -63 -3q-95 0 -154 58l-27 26l146 145l414 -413l-414 -414l-146 146l27 26q60 59 153 59q29 0 64 -4v77h-474v220z" />
    <glyph glyph-name="arrowdown" unicode="&#x2193;" horiz-adv-x="859" 
d="M555 700v-474h77q-4 35 -4 63q0 94 59 154l26 27l145 -146l-413 -414l-414 414l146 146l26 -27q58 -59 58 -152q0 -25 -3 -65h77v474h220z" />
    <glyph glyph-name="uni2196" unicode="&#x2196;" horiz-adv-x="791" 
d="M767 220l-156 -156l-335 335l-54 -54q60 -51 84.5 -89.5t29.5 -103.5l1 -36h-207v584h586v-206h-38q-42 0 -76 14q-30 14 -52.5 34t-63.5 67l-54 -54z" />
    <glyph glyph-name="uni2197" unicode="&#x2197;" horiz-adv-x="760" 
d="M221 63l-156 156l335 335l-54 54q-53 -62 -90.5 -86t-102.5 -28l-36 -1v207h584v-586h-206v38q0 42 14 76q14 31 35.5 55t65.5 61l-54 54z" />
    <glyph glyph-name="uni2198" unicode="&#x2198;" horiz-adv-x="791" 
d="M64 480l156 156l335 -335l54 54q-62 53 -86 90.5t-28 102.5l-1 36h207v-584h-586v206h38q43 0 76 -15q31 -13 55 -34.5t61 -65.5l54 54z" />
    <glyph glyph-name="uni2199" unicode="&#x2199;" horiz-adv-x="759" 
d="M579 637l156 -156l-335 -335l54 -54q53 61 91 86t102 28l36 1v-207h-584v586h206v-38q0 -43 -15 -76q-14 -30 -34.5 -53t-65.5 -63l54 -54z" />
    <glyph glyph-name="uni21A4" unicode="&#x21a4;" horiz-adv-x="959" 
d="M655 700h210v-700h-210v240h-304v-77q35 4 63 4q94 0 154 -59l27 -26l-146 -145l-414 413l414 414l146 -146l-27 -26q-59 -58 -152 -58q-26 0 -65 3v-77h304v240z" />
    <glyph glyph-name="uni21A5" unicode="&#x21a5;" horiz-adv-x="893" 
d="M573 514v-304h240v-210h-700v210h240v304h-77q3 -38 3 -63q0 -92 -58 -154l-26 -27l-145 146l413 414l414 -414l-146 -146l-26 27q-59 62 -59 153q0 29 4 64h-77z" />
    <glyph glyph-name="uni21A6" unicode="&#x21a6;" horiz-adv-x="959" 
d="M551 763l414 -413l-414 -414l-146 146l27 26q59 59 152 59q30 0 65 -4v77h-304v-240h-210v700h210v-240h304v77q-39 -3 -63 -3q-95 0 -154 58l-27 26z" />
    <glyph glyph-name="uni21A7" unicode="&#x21a7;" horiz-adv-x="895" 
d="M739 430l145 -146l-413 -414l-414 414l146 146l26 -27q59 -59 59 -153q0 -28 -4 -64h77v304h-240v210h700v-210h-240v-304h77q-3 39 -3 63q0 95 58 154z" />
    <glyph glyph-name="uni21B0" unicode="&#x21b0;" horiz-adv-x="936" 
d="M857 460v-460h-210v240h-294v-77q35 4 63 4q94 0 154 -59l27 -26l-146 -145l-414 413l414 414l146 -146l-27 -26q-59 -58 -153 -58q-25 0 -64 3v-77h504z" />
    <glyph glyph-name="uni21B1" unicode="&#x21b1;" horiz-adv-x="883" 
d="M475 763l414 -413l-414 -414l-146 146l27 26q60 59 153 59q29 0 64 -4v77h-288v-240h-210v460h498v77q-37 -3 -63 -3q-95 0 -154 58l-27 26z" />
    <glyph glyph-name="uni21B2" unicode="&#x21b2;" horiz-adv-x="884" 
d="M639 700h210v-460h-498v-77q33 4 63 4q94 0 154 -59l27 -26l-146 -145l-414 413l414 414l146 -146l-27 -26q-59 -58 -153 -58q-25 0 -64 3v-77h288v240z" />
    <glyph glyph-name="uni21B3" unicode="&#x21b3;" horiz-adv-x="936" 
d="M526 763l414 -413l-414 -414l-146 146l27 26q60 59 153 59q29 0 64 -4v77h-504v460h210v-240h294v77q-39 -3 -63 -3q-95 0 -154 58l-27 26z" />
    <glyph glyph-name="partialdiff" unicode="&#x2202;" horiz-adv-x="697" 
d="M53 226q0 58 19 103t50.5 70t66 37.5t70.5 12.5q67 0 112 -32t63 -81h74q-6 88 -66 141.5t-159 53.5q-84 0 -177 -38v192q85 33 206 33q69 0 133 -22t118 -66.5t86 -120.5t31 -173q0 -52 -11 -101.5t-37 -96t-63.5 -81.5t-95.5 -55.5t-128 -19.5q-116 -2 -204.5 63
t-87.5 181zM422 241q0 28 -18 46t-47 18q-27 0 -46.5 -18.5t-19.5 -45.5q0 -30 19 -48.5t47 -18.5q29 0 47 18t18 49z" />
    <glyph glyph-name="Delta" unicode="&#x2206;" horiz-adv-x="879" 
d="M584 700l229 -700h-818l226 700h363zM309 199h180l-27 101q-23 81 -23 203q0 37 3 80h-82q1 -23 1 -52q0 -133 -25 -231z" />
    <glyph glyph-name="product" unicode="&#x220f;" horiz-adv-x="1000" 
d="M999 700v-200h-115v-589h-245v589h-169v-589h-245v589h-115v200h889z" />
    <glyph glyph-name="summation" unicode="&#x2211;" horiz-adv-x="877" 
d="M111 -89v211l218 182l-218 212v184h667v-200h-90q-69 0 -122 22q-77 31 -145 103l-52 -56l38 -37l233 -227l-317 -264l52 -56q40 44 108 85q67 40 165 40h140v-199h-677z" />
    <glyph glyph-name="minus" unicode="&#x2212;" horiz-adv-x="614" 
d="M66 268v170h518v-170h-518z" />
    <glyph glyph-name="uni2215" unicode="&#x2215;" horiz-adv-x="416" 
d="M-98 -89l453 878h198l-453 -878h-198z" />
    <glyph glyph-name="radical" unicode="&#x221a;" horiz-adv-x="768" 
d="M256 -89l-116 342h-112v195h256l40 -129q35 -114 35 -261q0 -23 -1 -42h72q-1 21 -1 62q0 146 32 237l140 385h253l-326 -789h-272z" />
    <glyph glyph-name="infinity" unicode="&#x221e;" horiz-adv-x="904" 
d="M51 346q0 88 55.5 151.5t148.5 63.5q70 0 120.5 -40t65.5 -110h63q15 72 62.5 111t119.5 39q93 0 150 -64t57 -151t-57 -151t-150 -64q-72 0 -119.5 39t-62.5 111h-63q-15 -71 -65.5 -110.5t-120.5 -39.5q-93 0 -148.5 63.5t-55.5 151.5zM372 348q-42 60 -81 60
q-22 0 -39.5 -15.5t-17.5 -46.5q0 -30 17.5 -46t39.5 -16q19 0 34.5 11.5t46.5 52.5zM709 346q0 31 -17.5 46.5t-39.5 15.5q-39 0 -81 -60q31 -41 46.5 -52.5t34.5 -11.5q22 0 39.5 16t17.5 46z" />
    <glyph glyph-name="integral" unicode="&#x222b;" horiz-adv-x="397" 
d="M-1 -195v209h31q50 0 50 52v426q0 100 55.5 154t149.5 54h113v-209h-31q-50 0 -50 -52v-426q0 -100 -55 -154t-150 -54h-113z" />
    <glyph glyph-name="approxequal" unicode="&#x2248;" horiz-adv-x="733" 
d="M411 374l-30 18q-50 31 -79 31q-32 0 -52.5 -15t-35.5 -53l-149 81q24 82 74.5 127t121.5 45q53 0 115 -37l33 -20q30 -18 58 -18q32 0 52.5 15t35.5 53l149 -81q-24 -82 -74.5 -127t-121.5 -45q-53 0 -97 26zM411 94l-30 18q-50 31 -79 31q-32 0 -52.5 -15t-35.5 -53
l-149 81q24 82 74.5 127t121.5 45q53 0 115 -37l33 -20q30 -18 58 -18q32 0 52.5 15t35.5 53l149 -81q-24 -82 -74.5 -127t-121.5 -45q-53 0 -97 26z" />
    <glyph glyph-name="notequal" unicode="&#x2260;" horiz-adv-x="654" 
d="M120 79l41 75h-76v160h165l6 11q17 32 35 49q17 16 57 43l-49 55q-36 -44 -71 -66t-83 -22h-60v160h292l41 75h151l-41 -75h75v-160h-164l-6 -11q-17 -32 -35 -49q-17 -16 -57 -43l49 -55q36 44 71 66t83 22h59v-160h-291l-41 -75h-151z" />
    <glyph glyph-name="lessequal" unicode="&#x2264;" horiz-adv-x="668" 
d="M603 212l-518 102v237l518 119v-173l-38 -6q-63 -9 -152 -13q-110 -5 -187 -5h-22v-72q29 1 96 1q75 0 149 -3q67 -3 116 -8l38 -5v-174zM85 53v150h518v-150h-518z" />
    <glyph glyph-name="greaterequal" unicode="&#x2265;" horiz-adv-x="695" 
d="M113 212v173l38 6q63 9 152 13q112 5 189 5h20v72q-56 -2 -95 -2q-79 0 -152 3t-114 9l-38 5v174l518 -102v-237zM113 53v150h518v-150h-518z" />
    <glyph glyph-name="angleleft" unicode="&#x2329;" horiz-adv-x="406" 
d="M491 644l-278 -371l125 -367l-190 -66l-146 462l330 463z" />
    <glyph glyph-name="angleright" unicode="&#x232a;" horiz-adv-x="401" 
d="M278 765l146 -462l-330 -463l-159 121l278 371l-125 367z" />
    <glyph glyph-name="uni2460" unicode="&#x2460;" horiz-adv-x="920" 
d="M40 301q-2 128 60 235.5t167.5 167.5t227.5 58q192 0 307 -105t115 -279q3 -194 -132.5 -329.5t-322.5 -131.5q-191 0 -306.5 105.5t-115.5 278.5zM771 378q0 113 -68.5 185.5t-193.5 72.5q-139 2 -232 -92t-91 -243q0 -113 68.5 -185.5t193.5 -72.5q142 0 232.5 92
t90.5 243zM396 146l29 139q15 76 65 146h-52q-25 -59 -49 -85.5t-73 -30.5l30 138q50 1 83.5 19.5t53.5 61.5h146l-82 -388h-151z" />
    <glyph glyph-name="uni2461" unicode="&#x2461;" horiz-adv-x="920" 
d="M40 301q-2 128 60 235.5t167.5 167.5t227.5 58q192 0 307 -105t115 -279q3 -194 -132.5 -329.5t-322.5 -131.5q-191 0 -306.5 105.5t-115.5 278.5zM771 378q0 113 -68.5 185.5t-193.5 72.5q-139 2 -232 -92t-91 -243q0 -113 68.5 -185.5t193.5 -72.5q142 0 232.5 92
t90.5 243zM275 146l28 133q110 30 159.5 60.5t49.5 66.5q0 12 -7 19t-17 7q-33 0 -38 -57l-147 14q4 27 15.5 52t33 49.5t58 39t83.5 14.5q75 0 120 -31.5t45 -81.5q0 -64 -65 -105q-36 -22 -102 -42q-55 -17 -102 -26l16 -47q25 14 86 31t104 17h36l-24 -113h-332z" />
    <glyph glyph-name="uni2462" unicode="&#x2462;" horiz-adv-x="920" 
d="M40 301q-2 128 60 235.5t167.5 167.5t227.5 58q192 0 307 -105t115 -279q3 -194 -132.5 -329.5t-322.5 -131.5q-191 0 -306.5 105.5t-115.5 278.5zM771 378q0 113 -68.5 185.5t-193.5 72.5q-139 2 -232 -92t-91 -243q0 -113 68.5 -185.5t193.5 -72.5q142 0 232.5 92
t90.5 243zM280 255l144 23q0 -14 9.5 -22.5t24.5 -8.5q32 0 32 26q0 23 -31 23h-34l19 90h36q15 0 24.5 7.5t9.5 19.5q0 21 -25 21q-27 0 -33 -30l-140 19q14 57 62 89t122 32q64 0 107.5 -26t43.5 -69q0 -41 -32.5 -63.5t-93.5 -22.5l-14 1l-9 -43h19q53 0 81 -19t28 -53
q0 -55 -47 -84t-125 -29q-81 0 -127.5 31.5t-50.5 87.5z" />
    <glyph glyph-name="uni2463" unicode="&#x2463;" horiz-adv-x="920" 
d="M40 301q-2 128 60 235.5t167.5 167.5t227.5 58q192 0 307 -105t115 -279q3 -194 -132.5 -329.5t-322.5 -131.5q-191 0 -306.5 105.5t-115.5 278.5zM771 378q0 113 -68.5 185.5t-193.5 72.5q-139 2 -232 -92t-91 -243q0 -113 68.5 -185.5t193.5 -72.5q142 0 232.5 92
t90.5 243zM426 146l14 66h-197l34 151l153 171h216l-46 -218h53l-22 -104h-53l-14 -66h-138zM462 316l5 26q10 41 47 78l-29 26l-124 -142l30 -24q27 36 61 36h10z" />
    <glyph glyph-name="uni2464" unicode="&#x2464;" horiz-adv-x="920" 
d="M40 301q-2 128 60 235.5t167.5 167.5t227.5 58q192 0 307 -105t115 -279q3 -194 -132.5 -329.5t-322.5 -131.5q-191 0 -306.5 105.5t-115.5 278.5zM771 378q0 113 -68.5 185.5t-193.5 72.5q-139 2 -232 -92t-91 -243q0 -113 68.5 -185.5t193.5 -72.5q142 0 232.5 92
t90.5 243zM274 254l145 21q1 -14 10.5 -22t22.5 -8q15 0 25 10.5t10 27.5q0 14 -8 22t-20 8q-18 0 -29 -23l-129 16l66 228h298l-24 -113h-192l-3 -9q-15 -41 -54 -72h55q25 52 83 52q43 0 73 -26t30 -77q0 -69 -49.5 -111t-131.5 -42q-89 0 -130.5 35.5t-47.5 82.5z" />
    <glyph glyph-name="uni2465" unicode="&#x2465;" horiz-adv-x="920" 
d="M40 301q-2 128 60 235.5t167.5 167.5t227.5 58q192 0 307 -105t115 -279q3 -194 -132.5 -329.5t-322.5 -131.5q-191 0 -306.5 105.5t-115.5 278.5zM771 378q0 113 -68.5 185.5t-193.5 72.5q-139 2 -232 -92t-91 -243q0 -113 68.5 -185.5t193.5 -72.5q142 0 232.5 92
t90.5 243zM282 296q0 110 67 179t175 69q76 0 122 -26l-23 -111q-50 25 -104 25q-109 0 -129 -95h42q6 27 28 43t56 16q40 0 76 -26t36 -80q0 -68 -51 -111t-130 -43t-122 41.5t-43 118.5zM482 284q0 13 -8.5 21.5t-20.5 8.5q-14 0 -23.5 -10.5t-9.5 -26.5q0 -14 7.5 -22.5
t19.5 -8.5q15 0 25 11t10 27z" />
    <glyph glyph-name="uni2466" unicode="&#x2466;" horiz-adv-x="920" 
d="M40 301q-2 128 60 235.5t167.5 167.5t227.5 58q192 0 307 -105t115 -279q3 -194 -132.5 -329.5t-322.5 -131.5q-191 0 -306.5 105.5t-115.5 278.5zM771 378q0 113 -68.5 185.5t-193.5 72.5q-139 2 -232 -92t-91 -243q0 -113 68.5 -185.5t193.5 -72.5q142 0 232.5 92
t90.5 243zM577 426l24 11l-25 44q-85 -60 -173 -60h-59l24 113h312l-28 -136q-67 -31 -111.5 -95.5t-61.5 -156.5h-162q22 105 78.5 162.5t181.5 117.5z" />
    <glyph glyph-name="uni2467" unicode="&#x2467;" horiz-adv-x="920" 
d="M40 301q-2 128 60 235.5t167.5 167.5t227.5 58q192 0 307 -105t115 -279q3 -194 -132.5 -329.5t-322.5 -131.5q-191 0 -306.5 105.5t-115.5 278.5zM771 378q0 113 -68.5 185.5t-193.5 72.5q-139 2 -232 -92t-91 -243q0 -113 68.5 -185.5t193.5 -72.5q142 0 232.5 92
t90.5 243zM281 233q0 44 35.5 68.5t96.5 25.5l10 41q-101 2 -101 64q0 51 52.5 81.5t128.5 30.5q71 0 111.5 -24.5t40.5 -65.5q0 -84 -124 -86l-10 -41q53 -1 82 -20.5t29 -53.5q0 -55 -55 -86t-135 -31q-75 0 -118 26.5t-43 70.5zM515 418q0 24 -25 24q-12 0 -20.5 -9
t-8.5 -23q0 -23 24 -23q13 0 21.5 8.5t8.5 22.5zM490 279q0 27 -28 27q-15 0 -24.5 -10t-9.5 -27q0 -25 28 -25q15 0 24.5 10t9.5 25z" />
    <glyph glyph-name="uni2468" unicode="&#x2468;" horiz-adv-x="920" 
d="M40 301q-2 128 60 235.5t167.5 167.5t227.5 58q192 0 307 -105t115 -279q3 -194 -132.5 -329.5t-322.5 -131.5q-191 0 -306.5 105.5t-115.5 278.5zM771 378q0 113 -68.5 185.5t-193.5 72.5q-139 2 -232 -92t-91 -243q0 -113 68.5 -185.5t193.5 -72.5q142 0 232.5 92
t90.5 243zM297 162l25 112q49 -29 108 -29q64 0 96 29q28 26 34 68h-39q-21 -60 -90 -60q-39 0 -72.5 27t-33.5 81q0 71 45.5 112.5t123.5 41.5q80 0 124 -47q47 -49 47 -124q0 -108 -62 -172.5t-172 -64.5q-80 0 -134 26zM524 402q0 32 -31 32q-15 0 -24.5 -11t-9.5 -29
q0 -14 8 -23t21 -9q15 0 25.5 11t10.5 29z" />
    <glyph glyph-name="uni24EA" unicode="&#x24ea;" horiz-adv-x="920" 
d="M40 301q-2 128 60 235.5t167.5 167.5t227.5 58q192 0 307 -105t115 -279q3 -194 -132.5 -329.5t-322.5 -131.5q-191 0 -306.5 105.5t-115.5 278.5zM771 378q0 113 -68.5 185.5t-193.5 72.5q-139 2 -232 -92t-91 -243q0 -113 68.5 -185.5t193.5 -72.5q142 0 232.5 92
t90.5 243zM280 296q0 106 60 177t150 71q82 0 129.5 -45t47.5 -123q0 -105 -60.5 -172.5t-152.5 -67.5q-83 0 -128.5 42t-45.5 118zM505 387q0 45 -19 45q-17 0 -31.5 -42t-14.5 -101q0 -40 17 -40q19 0 33.5 40t14.5 98z" />
    <glyph glyph-name="uni24FF" unicode="&#x24ff;" horiz-adv-x="918" 
d="M918 398q2 -132 -63 -244.5t-174.5 -175.5t-235.5 -61q-184 -2 -297.5 103.5t-111.5 260.5q-2 132 63 244.5t174.5 175.5t234.5 61q185 2 298.5 -103.5t111.5 -260.5zM278 296q0 -76 45.5 -118t128.5 -42q92 0 152.5 67.5t60.5 172.5q0 78 -47.5 123t-129.5 45
q-90 0 -150 -71t-60 -177zM503 387q0 -58 -14.5 -98t-33.5 -40q-17 0 -17 40q0 59 14.5 101t31.5 42q19 0 19 -45z" />
    <glyph glyph-name="lozenge" unicode="&#x25ca;" horiz-adv-x="709" 
d="M252 0l-209 349l201 351h240l221 -351l-214 -349h-239zM468 349l-32 56q-30 56 -30 131q0 30 1 47h-82q0 -11 0.5 -25.5t1 -22t0.5 -11.5q0 -70 -28 -126l-26 -49l28 -53q26 -49 26 -122q0 -4 -0.5 -11.5t-1 -22t-0.5 -25.5h82q-1 17 -1 45q0 78 33 137z" />
    <glyph glyph-name="uni274C" unicode="&#x274c;" horiz-adv-x="787" 
d="M181 -16l-135 133l234 232l-234 232l135 135l234 -232l234 232l132 -135l-231 -230l233 -231l-135 -136l-234 232z" />
    <glyph glyph-name="uni2776" unicode="&#x2776;" horiz-adv-x="918" 
d="M918 398q2 -132 -63 -244.5t-174.5 -175.5t-235.5 -61q-184 -2 -297.5 103.5t-111.5 260.5q-2 132 63 244.5t174.5 175.5t234.5 61q185 2 298.5 -103.5t111.5 -260.5zM423 285l-29 -139h151l82 388h-146q-20 -43 -53.5 -61.5t-83.5 -19.5l-30 -138q49 4 73 30.5t49 85.5
h52q-50 -70 -65 -146z" />
    <glyph glyph-name="uni2777" unicode="&#x2777;" horiz-adv-x="918" 
d="M918 398q2 -132 -63 -244.5t-174.5 -175.5t-235.5 -61q-184 -2 -297.5 103.5t-111.5 260.5q-2 132 63 244.5t174.5 175.5t234.5 61q185 2 298.5 -103.5t111.5 -260.5zM301 279l-28 -133h332l24 113h-36q-43 0 -104 -17t-86 -31l-16 47q47 9 102 26q66 20 102 42
q65 41 65 105q0 50 -45 81.5t-120 31.5q-47 0 -83.5 -14.5t-58 -39t-33 -49.5t-15.5 -52l147 -14q5 57 38 57q10 0 17 -7t7 -19q0 -36 -49.5 -66.5t-159.5 -60.5z" />
    <glyph glyph-name="uni2778" unicode="&#x2778;" horiz-adv-x="918" 
d="M918 398q2 -132 -63 -244.5t-174.5 -175.5t-235.5 -61q-184 -2 -297.5 103.5t-111.5 260.5q-2 132 63 244.5t174.5 175.5t234.5 61q185 2 298.5 -103.5t111.5 -260.5zM278 255q4 -56 50.5 -87.5t127.5 -31.5q78 0 125 29t47 84q0 34 -27.5 53t-80.5 19h-20l9 43l14 -1
q61 0 93.5 22.5t32.5 63.5q0 43 -43.5 69t-107.5 26q-74 0 -122 -32t-62 -89l140 -19q6 30 33 30q25 0 25 -21q0 -12 -9.5 -19.5t-24.5 -7.5h-36l-19 -90h34q31 0 31 -23q0 -26 -32 -26q-15 0 -24.5 8.5t-9.5 22.5z" />
    <glyph glyph-name="uni2779" unicode="&#x2779;" horiz-adv-x="918" 
d="M918 398q2 -132 -63 -244.5t-174.5 -175.5t-235.5 -61q-184 -2 -297.5 103.5t-111.5 260.5q-2 132 63 244.5t174.5 175.5t234.5 61q185 2 298.5 -103.5t111.5 -260.5zM438 212l-14 -66h138l14 66h53l22 104h-53l46 218h-216l-153 -171l-34 -151h197zM465 342l-5 -26h-10
q-34 0 -61 -36l-30 24l124 142l29 -26q-37 -37 -47 -78z" />
    <glyph glyph-name="uni277A" unicode="&#x277a;" horiz-adv-x="918" 
d="M918 398q2 -132 -63 -244.5t-174.5 -175.5t-235.5 -61q-184 -2 -297.5 103.5t-111.5 260.5q-2 132 63 244.5t174.5 175.5t234.5 61q185 2 298.5 -103.5t111.5 -260.5zM272 254q6 -47 47.5 -82.5t130.5 -35.5q82 0 131.5 42t49.5 111q0 51 -30 77t-73 26q-58 0 -83 -52
h-55q43 33 54 72l3 9h192l24 113h-298l-66 -228l129 -16q11 23 29 23q12 0 20 -8t8 -22q0 -17 -10 -27.5t-25 -10.5q-13 0 -22.5 8t-10.5 22z" />
    <glyph glyph-name="uni277B" unicode="&#x277b;" horiz-adv-x="918" 
d="M918 398q2 -132 -63 -244.5t-174.5 -175.5t-235.5 -61q-184 -2 -297.5 103.5t-111.5 260.5q-2 132 63 244.5t174.5 175.5t234.5 61q185 2 298.5 -103.5t111.5 -260.5zM279 296q0 -77 43 -118.5t122 -41.5t130 43t51 111q0 54 -36 80t-76 26q-33 0 -55 -16t-29 -43h-42
q20 95 129 95q54 0 104 -25l23 111q-46 26 -122 26q-108 0 -175 -69t-67 -179zM479 284q0 -16 -10 -27t-25 -11q-12 0 -19.5 8.5t-7.5 22.5q0 15 10 26t23 11q12 0 20.5 -8.5t8.5 -21.5z" />
    <glyph glyph-name="uni277C" unicode="&#x277c;" horiz-adv-x="918" 
d="M918 398q2 -132 -63 -244.5t-174.5 -175.5t-235.5 -61q-184 -2 -297.5 103.5t-111.5 260.5q-2 132 63 244.5t174.5 175.5t234.5 61q185 2 298.5 -103.5t111.5 -260.5zM575 426q-125 -60 -181.5 -117.5t-78.5 -162.5h162q17 92 61.5 156.5t111.5 95.5l28 136h-312
l-24 -113h59q90 0 173 60l25 -44z" />
    <glyph glyph-name="uni277D" unicode="&#x277d;" horiz-adv-x="918" 
d="M918 398q2 -132 -63 -244.5t-174.5 -175.5t-235.5 -61q-184 -2 -297.5 103.5t-111.5 260.5q-2 132 63 244.5t174.5 175.5t234.5 61q185 2 298.5 -103.5t111.5 -260.5zM279 233q0 -44 43 -70.5t118 -26.5q80 0 135 31t55 86q0 34 -29 53.5t-82 20.5l10 41q124 2 124 86
q0 41 -40.5 65.5t-111.5 24.5q-76 0 -128.5 -30.5t-52.5 -81.5q0 -62 101 -64l-10 -41q-61 -1 -96.5 -25.5t-35.5 -68.5zM513 418q0 -14 -8.5 -22.5t-21.5 -8.5q-24 0 -24 23q0 14 8.5 23t20.5 9q25 0 25 -24zM488 279q0 -15 -9.5 -25t-24.5 -10q-28 0 -28 25q0 17 9.5 27
t24.5 10q28 0 28 -27z" />
    <glyph glyph-name="uni277E" unicode="&#x277e;" horiz-adv-x="918" 
d="M918 398q2 -132 -63 -244.5t-174.5 -175.5t-235.5 -61q-184 -2 -297.5 103.5t-111.5 260.5q-2 132 63 244.5t174.5 175.5t234.5 61q185 2 298.5 -103.5t111.5 -260.5zM293 162q54 -26 134 -26q110 0 172 64.5t62 172.5q0 75 -47 124q-44 47 -124 47q-78 0 -123.5 -41.5
t-45.5 -112.5q0 -54 33.5 -81t72.5 -27q71 0 90 60h39q-6 -42 -34 -68q-32 -29 -96 -29q-59 0 -108 29zM520 402q0 -18 -10 -29t-26 -11q-13 0 -21 9t-8 23q0 18 9.5 29t24.5 11q31 0 31 -32z" />
    <glyph glyph-name="uni300A" unicode="&#x300a;" horiz-adv-x="783" 
d="M491 644l-278 -371l125 -367l-190 -66l-146 462l330 463zM887 644l-325 -413l118 -325l-190 -66l-142 419l380 506z" />
    <glyph glyph-name="uni300B" unicode="&#x300b;" horiz-adv-x="778" 
d="M313 765l142 -419l-380 -506l-159 121l326 413l-119 325zM655 765l146 -462l-330 -463l-159 121l278 371l-125 367z" />
    <glyph glyph-name="uni300C" unicode="&#x300c;" horiz-adv-x="419" 
d="M53 297l98 458h366l-38 -176h-157l-60 -282h-209z" />
    <glyph glyph-name="uni300D" unicode="&#x300d;" horiz-adv-x="415" 
d="M385 307l-98 -458h-366l38 176h157l60 282h209z" />
    <glyph glyph-name="uni300E" unicode="&#x300e;" horiz-adv-x="614" 
d="M21 132l132 623h538l-77 -362h-152l-55 -261h-386zM202 277h103l49 232h135l21 101h-238z" />
    <glyph glyph-name="uni300F" unicode="&#x300f;" horiz-adv-x="603" 
d="M608 473l-132 -623h-538l77 362h152l55 261h386zM427 328h-103l-49 -232h-135l-21 -101h238z" />
    <glyph glyph-name="uni3010" unicode="&#x3010;" horiz-adv-x="425" 
d="M-39 -150l192 905h403q-232 -208 -281 -451q-14 -70 -14 -130q0 -176 103 -324h-403z" />
    <glyph glyph-name="uni3011" unicode="&#x3011;" horiz-adv-x="424" 
d="M485 755l-192 -905h-403q232 208 281 451q14 70 14 130q0 176 -103 324h403z" />
    <glyph glyph-name="uni3014" unicode="&#x3014;" horiz-adv-x="402" 
d="M270 440l-62 -304l138 -184l-148 -112l-199 259l84 410l293 256l116 -138z" />
    <glyph glyph-name="uni3015" unicode="&#x3015;" horiz-adv-x="402" 
d="M225 765l199 -259l-84 -410l-293 -256l-116 138l222 187l62 304l-138 184z" />
    <glyph glyph-name="uniE000" unicode="&#xe000;" horiz-adv-x="768" 
d="M302 0v259h-243v180h243v261h203v-261h244v-180h-244v-259h-203z" />
    <glyph glyph-name="uniE001" unicode="&#xe001;" horiz-adv-x="790" 
d="M67 259v180h690v-180h-690z" />
    <glyph glyph-name="uniE002" unicode="&#xe002;" horiz-adv-x="866" 
d="M220 -16l-135 133l234 232l-234 232l135 135l234 -232l234 232l132 -135l-231 -230l233 -231l-135 -136l-234 232z" />
    <glyph glyph-name="uniE003" unicode="&#xe003;" horiz-adv-x="894" 
d="M407 -15l-322 403l157 128l174 -216l349 450l149 -119z" />
    <glyph glyph-name="uniE004" unicode="&#xe004;" horiz-adv-x="960" 
d="M112 497v164h774v-164h-774zM112 268v154h774v-154h-774zM112 29v164h774v-164h-774z" />
    <glyph glyph-name="uniE005" unicode="&#xe005;" horiz-adv-x="894" 
d="M116 0v686h700v-686h-700zM279 149h374v388h-374v-388z" />
    <glyph glyph-name="uniE006" unicode="&#xe006;" horiz-adv-x="894" 
d="M485 157l-197 236l102 90l27 -33q37 -46 37 -140l-1 -29h68v24q0 107 43 162l213 266l111 -87zM121 0v686h438v-149h-275v-388h374v175h163v-324h-700z" />
    <glyph glyph-name="uniE007" unicode="&#xe007;" horiz-adv-x="894" 
d="M116 0v686h700v-686h-700zM279 149h374v388h-374v-388zM367 236v214h198v-214h-198z" />
    <glyph glyph-name="uniE008" unicode="&#xe008;" horiz-adv-x="899" 
d="M475 200l-386 384l148 147l13 -14q41 -45 41 -136q0 -5 -2 -65h76v411h220v-411h76q-2 62 -2 67q0 92 43 135l13 13l146 -146zM126 0v200h700v-200h-700z" />
    <glyph glyph-name="uniE009" unicode="&#xe009;" horiz-adv-x="899" 
d="M484 290l-386 384l148 147l13 -14q41 -42 41 -135q0 -4 -2 -66h76v411h220v-411h76q-2 62 -2 66q0 93 43 136l13 13l146 -146zM134 0v200h700v-200h-700z" />
    <glyph glyph-name="uniF8FF" unicode="&#xf8ff;" horiz-adv-x="970" 
d="M835 46q0 -65 -24 -155l-50 1q-8 107 -32 150l-68 -10q17 -108 17 -162q0 -19 -1 -34l-24 1q-72 31 -103 65t-31 86q0 31 10 68q13 48 51 133l4 10l-73 20q-40 -98 -72 -140q-37 26 -50.5 57.5t-13.5 79.5v29q1 17 1 37q0 25 -4 41q-5 24 -18.5 37t-45.5 33
q-32 21 -42 28q-40 30 -61 87l127 50l-20 34l-66 16q-48 12 -79 44.5t-31 71.5q0 11 3 23q18 71 78 71q13 0 25 -3q37 -11 58.5 -38t53.5 -104l72 33q-41 68 -50 84q-11 24 -11 43q0 11 3 23q5 19 25 32t47 13q14 0 27 -3q34 -9 55.5 -31.5t21.5 -53.5q0 -12 -3 -24
q-11 -35 -25 -58q-15 -22 -47 -59l-9 -11l24 -43l58 22q51 -41 90.5 -105t55 -109.5t20.5 -75.5q63 -37 95 -122t32 -182z" />
    <glyph glyph-name="Ccedilla.ss04" horiz-adv-x="807" 
d="M535 300l266 -91q-97 -217 -375 -227q-28 -15 -81 -24l9 -41q26 13 61 13q33 0 55.5 -21t22.5 -53q0 -55 -45.5 -84.5t-119.5 -29.5q-117 0 -162 70l94 81q20 -36 58 -36q20 0 31 7.5t11 19.5q0 19 -27 19q-13 0 -28 -7l-24 49l49 41q-138 18 -213 96.5t-75 199.5
q-2 187 117 313t309 123q151 0 249 -71.5t115 -179.5l-281 -61q-14 112 -98 112q-62 0 -99 -66t-37 -151q0 -57 22.5 -88.5t62.5 -31.5q86 0 133 119z" />
    <glyph glyph-name="G.ss03" horiz-adv-x="821" 
d="M44 299q-1 86 30.5 163t88.5 134t141 90t182 32q69 1 126.5 -13.5t96 -37t67 -52.5t42.5 -58.5t19 -56.5l-269 -72q-22 90 -104 90q-66 2 -109.5 -67.5t-42.5 -151.5q0 -68 28 -104.5t77 -36.5q82 0 107 68h-127l35 165h379q0 -186 -100 -297.5t-303 -111.5
q-364 0 -364 317z" />
    <glyph glyph-name="Gbreve.ss03" horiz-adv-x="821" 
d="M44 299q-1 86 30.5 163t88.5 134t141 90t182 32q69 1 126.5 -13.5t96 -37t67 -52.5t42.5 -58.5t19 -56.5l-269 -72q-22 90 -104 90q-66 2 -109.5 -67.5t-42.5 -151.5q0 -68 28 -104.5t77 -36.5q82 0 107 68h-127l35 165h379q0 -186 -100 -297.5t-303 -111.5
q-364 0 -364 317zM318 917h149q0 -31 19 -49t54 -18q76 0 104 67h153q-57 -179 -261 -179q-106 0 -163.5 47t-54.5 132z" />
    <glyph glyph-name="Gcircumflex.ss03" horiz-adv-x="821" 
d="M44 299q-1 86 30.5 163t88.5 134t141 90t182 32q69 1 126.5 -13.5t96 -37t67 -52.5t42.5 -58.5t19 -56.5l-269 -72q-22 90 -104 90q-66 2 -109.5 -67.5t-42.5 -151.5q0 -68 28 -104.5t77 -36.5q82 0 107 68h-127l35 165h379q0 -186 -100 -297.5t-303 -111.5
q-364 0 -364 317zM251 761l161 154h276l91 -154h-196l-48 74l-77 -74h-207z" />
    <glyph glyph-name="uni0122.ss03" horiz-adv-x="821" 
d="M44 299q-1 86 30.5 163t88.5 134t141 90t182 32q69 1 126.5 -13.5t96 -37t67 -52.5t42.5 -58.5t19 -56.5l-269 -72q-22 90 -104 90q-66 2 -109.5 -67.5t-42.5 -151.5q0 -68 28 -104.5t77 -36.5q82 0 107 68h-127l35 165h379q0 -186 -100 -297.5t-303 -111.5
q-364 0 -364 317zM227 -386l145 160h-111l38 175h205l-37 -175l-140 -160h-100z" />
    <glyph glyph-name="Gdotaccent.ss03" horiz-adv-x="821" 
d="M44 299q-1 86 30.5 163t88.5 134t141 90t182 32q69 1 126.5 -13.5t96 -37t67 -52.5t42.5 -58.5t19 -56.5l-269 -72q-22 90 -104 90q-66 2 -109.5 -67.5t-42.5 -151.5q0 -68 28 -104.5t77 -36.5q82 0 107 68h-127l35 165h379q0 -186 -100 -297.5t-303 -111.5
q-364 0 -364 317zM418 749l38 175h198l-38 -175h-198z" />
    <glyph glyph-name="Scedilla.ss04" horiz-adv-x="762" 
d="M734 231q0 -116 -91.5 -181t-246.5 -68q-32 -17 -81 -24l10 -41q26 13 61 13q33 0 55.5 -21t22.5 -53q0 -55 -46 -84.5t-119 -29.5q-118 0 -163 70l94 81q25 -36 59 -36q20 0 31 7.5t11 19.5q0 19 -27 19q-15 0 -28 -7l-25 49l48 40q-273 24 -295 213l280 47
q10 -84 93 -84q41 0 63.5 13.5t22.5 37.5q0 37 -58 45l-64 8q-145 19 -201.5 68t-56.5 137q0 113 98 180.5t246 67.5q158 0 249 -57.5t100 -149.5l-285 -37q-13 68 -83 68q-29 0 -47 -13t-18 -32q0 -23 20 -35t67 -17l56 -6q118 -13 183 -67t65 -141z" />
    <glyph glyph-name="uni0162.ss04" horiz-adv-x="683" 
d="M107 700h659l-38 -180h-198l-110 -520l-66 -14q-57 -12 -105 -24l12 -37q24 11 55 11q30 0 50.5 -19t20.5 -48q0 -50 -41 -77t-109 -27q-104 0 -148 64l86 74q21 -33 53 -33q38 0 38 25q0 17 -24 17q-12 0 -26 -6l-22 44l59 50h-96l110 520h-198z" />
    <glyph glyph-name="a.salt" horiz-adv-x="658" 
d="M15 194q-1 83 27.5 158.5t82.5 124t119 46.5q55 0 91 -32t44 -85h79q-22 48 -23 99h241l-108 -505h-221q16 57 50 99h-85q-51 -117 -149 -117q-65 0 -106.5 58t-41.5 154zM394 293q0 79 -47 79q-30 0 -53 -48.5t-23 -110.5q0 -79 44 -79q32 0 55.5 48t23.5 111z" />
    <glyph glyph-name="aacute.salt" horiz-adv-x="658" 
d="M15 194q-1 83 27.5 158.5t82.5 124t119 46.5q55 0 91 -32t44 -85h79q-22 48 -23 99h241l-108 -505h-221q16 57 50 99h-85q-51 -117 -149 -117q-65 0 -106.5 58t-41.5 154zM394 293q0 79 -47 79q-30 0 -53 -48.5t-23 -110.5q0 -79 44 -79q32 0 55.5 48t23.5 111zM310 566
l82 154h232l-163 -154h-151z" />
    <glyph glyph-name="abreve.salt" horiz-adv-x="658" 
d="M15 194q-1 83 27.5 158.5t82.5 124t119 46.5q55 0 91 -32t44 -85h79q-22 48 -23 99h241l-108 -505h-221q16 57 50 99h-85q-51 -117 -149 -117q-65 0 -106.5 58t-41.5 154zM394 293q0 79 -47 79q-30 0 -53 -48.5t-23 -110.5q0 -79 44 -79q32 0 55.5 48t23.5 111zM204 720
h135q0 -30 17 -46.5t50 -16.5q68 0 94 63h140q-52 -168 -238 -168q-96 0 -148.5 44.5t-49.5 123.5z" />
    <glyph glyph-name="acircumflex.salt" horiz-adv-x="658" 
d="M15 194q-1 83 27.5 158.5t82.5 124t119 46.5q55 0 91 -32t44 -85h79q-22 48 -23 99h241l-108 -505h-221q16 57 50 99h-85q-51 -117 -149 -117q-65 0 -106.5 58t-41.5 154zM394 293q0 79 -47 79q-30 0 -53 -48.5t-23 -110.5q0 -79 44 -79q32 0 55.5 48t23.5 111zM144 566
l147 154h250l83 -154h-178l-43 74l-71 -74h-188z" />
    <glyph glyph-name="adieresis.salt" horiz-adv-x="658" 
d="M15 194q-1 83 27.5 158.5t82.5 124t119 46.5q55 0 91 -32t44 -85h79q-22 48 -23 99h241l-108 -505h-221q16 57 50 99h-85q-51 -117 -149 -117q-65 0 -106.5 58t-41.5 154zM394 293q0 79 -47 79q-30 0 -53 -48.5t-23 -110.5q0 -79 44 -79q32 0 55.5 48t23.5 111zM161 566
l32 154h197l-32 -154h-197zM418 566l32 154h197l-32 -154h-197z" />
    <glyph glyph-name="uni0227.salt" horiz-adv-x="658" 
d="M15 194q-1 83 27.5 158.5t82.5 124t119 46.5q55 0 91 -32t44 -85h79q-22 48 -23 99h241l-108 -505h-221q16 57 50 99h-85q-51 -117 -149 -117q-65 0 -106.5 58t-41.5 154zM394 293q0 79 -47 79q-30 0 -53 -48.5t-23 -110.5q0 -79 44 -79q32 0 55.5 48t23.5 111zM290 555
l38 175h198l-38 -175h-198z" />
    <glyph glyph-name="uni1EA1.salt" horiz-adv-x="658" 
d="M15 194q-1 83 27.5 158.5t82.5 124t119 46.5q55 0 91 -32t44 -85h79q-22 48 -23 99h241l-108 -505h-221q16 57 50 99h-85q-51 -117 -149 -117q-65 0 -106.5 58t-41.5 154zM394 293q0 79 -47 79q-30 0 -53 -48.5t-23 -110.5q0 -79 44 -79q32 0 55.5 48t23.5 111zM137 -226
l38 175h198l-38 -175h-198z" />
    <glyph glyph-name="agrave.salt" horiz-adv-x="658" 
d="M15 194q-1 83 27.5 158.5t82.5 124t119 46.5q55 0 91 -32t44 -85h79q-22 48 -23 99h241l-108 -505h-221q16 57 50 99h-85q-51 -117 -149 -117q-65 0 -106.5 58t-41.5 154zM394 293q0 79 -47 79q-30 0 -53 -48.5t-23 -110.5q0 -79 44 -79q32 0 55.5 48t23.5 111zM313 566
l-99 154h232l18 -154h-151z" />
    <glyph glyph-name="amacron.salt" horiz-adv-x="658" 
d="M15 194q-1 83 27.5 158.5t82.5 124t119 46.5q55 0 91 -32t44 -85h79q-22 48 -23 99h241l-108 -505h-221q16 57 50 99h-85q-51 -117 -149 -117q-65 0 -106.5 58t-41.5 154zM394 293q0 79 -47 79q-30 0 -53 -48.5t-23 -110.5q0 -79 44 -79q32 0 55.5 48t23.5 111zM216 576
l26 124h346l-26 -124h-346z" />
    <glyph glyph-name="aogonek.salt" horiz-adv-x="658" 
d="M426 -63q0 -17 29 -17q38 0 101 23l-29 -135q-56 -27 -118 -27q-55 0 -89 24t-34 70q0 76 89 125h-28q16 57 50 99h-85q-51 -117 -149 -117q-65 0 -106.5 58t-41.5 154q-1 83 27.5 158.5t82.5 124t119 46.5q55 0 91 -32t44 -85h79q-22 48 -23 99h241l-108 -505
q-60 -15 -93 -28t-41 -20t-8 -15zM394 293q0 79 -47 79q-30 0 -53 -48.5t-23 -110.5q0 -79 44 -79q32 0 55.5 48t23.5 111z" />
    <glyph glyph-name="aring.salt" horiz-adv-x="658" 
d="M15 194q-1 83 27.5 158.5t82.5 124t119 46.5q55 0 91 -32t44 -85h79q-22 48 -23 99h241l-108 -505h-221q16 57 50 99h-85q-51 -117 -149 -117q-65 0 -106.5 58t-41.5 154zM394 293q0 79 -47 79q-30 0 -53 -48.5t-23 -110.5q0 -79 44 -79q32 0 55.5 48t23.5 111zM246 670
q0 61 45 107t115 46q68 0 104.5 -35.5t36.5 -89.5q0 -60 -44 -106t-114 -46q-69 0 -106 35.5t-37 88.5zM439 691q0 34 -36 34q-21 0 -33.5 -12.5t-12.5 -33.5q0 -15 9.5 -25t26.5 -10q20 0 33 13t13 34z" />
    <glyph glyph-name="aringacute.salt" horiz-adv-x="658" 
d="M15 194q-1 83 27.5 158.5t82.5 124t119 46.5q55 0 91 -32t44 -85h79q-22 48 -23 99h241l-108 -505h-221q16 57 50 99h-85q-51 -117 -149 -117q-65 0 -106.5 58t-41.5 154zM394 293q0 79 -47 79q-30 0 -53 -48.5t-23 -110.5q0 -79 44 -79q32 0 55.5 48t23.5 111zM357 847
l77 123h218l-154 -123h-141zM254 669q0 61 45 107t115 46q68 0 104.5 -35.5t36.5 -89.5q0 -60 -44 -106t-114 -46q-67 0 -105 36t-38 88zM447 690q0 34 -36 34q-20 0 -33 -12.5t-13 -33.5q0 -15 10 -25t26 -10q20 0 33 13t13 34z" />
    <glyph glyph-name="atilde.salt" horiz-adv-x="658" 
d="M15 194q-1 83 27.5 158.5t82.5 124t119 46.5q55 0 91 -32t44 -85h79q-22 48 -23 99h241l-108 -505h-221q16 57 50 99h-85q-51 -117 -149 -117q-65 0 -106.5 58t-41.5 154zM394 293q0 79 -47 79q-30 0 -53 -48.5t-23 -110.5q0 -79 44 -79q32 0 55.5 48t23.5 111zM384 585
l-21 13q-21 16 -41 16q-34 0 -46 -48h-129q9 76 50.5 120t107.5 44q53 0 99 -30l22 -14q25 -14 41 -14q17 0 29.5 13t16.5 35h128q-9 -76 -51.5 -120t-107.5 -44q-9 0 -17 0.5t-15 2t-11.5 2t-10.5 2.5l-9 3t-9 4t-7.5 4t-9 5.5t-9.5 5.5z" />
    <glyph glyph-name="ccedilla.ss04" horiz-adv-x="621" 
d="M372 220l229 -33q-23 -86 -95 -144t-199 -61q-29 -13 -70 -20l9 -37q24 11 55 11q30 0 50.5 -19t20.5 -48q0 -50 -41 -77t-109 -27q-106 0 -148 64l86 74q18 -33 53 -33q38 0 38 25q0 17 -24 17q-14 0 -26 -6l-22 44l44 37q-100 14 -154 70t-54 148q-2 136 92 228t234 90
q120 0 193.5 -58t79.5 -146l-230 -34q0 38 -13.5 62.5t-39.5 24.5q-37 0 -58 -53t-21 -117q0 -69 45 -69q25 0 45 23t30 64z" />
    <glyph glyph-name="g.ss02" horiz-adv-x="665" 
d="M-37 -37l247 31q2 -51 56 -51t72 59q15 46 27.5 69.5t36.5 49.5h-92q-49 -107 -144 -107q-64 0 -104 53t-40 144q-2 122 64.5 218.5t164.5 93.5q55 0 90.5 -33t44.5 -88h79q-21 46 -23 103h241l-101 -477q-28 -136 -107.5 -188.5t-232.5 -52.5q-76 0 -132 15.5t-86 42.5
t-44.5 56t-16.5 62zM396 309q0 53 -43 53q-36 0 -54 -41t-18 -97q0 -61 42 -61q35 0 54 45.5t19 100.5z" />
    <glyph glyph-name="gbreve.ss02" horiz-adv-x="665" 
d="M-37 -37l247 31q2 -51 56 -51t72 59q15 46 27.5 69.5t36.5 49.5h-92q-49 -107 -144 -107q-64 0 -104 53t-40 144q-2 122 64.5 218.5t164.5 93.5q55 0 90.5 -33t44.5 -88h79q-21 46 -23 103h241l-101 -477q-28 -136 -107.5 -188.5t-232.5 -52.5q-76 0 -132 15.5t-86 42.5
t-44.5 56t-16.5 62zM396 309q0 53 -43 53q-36 0 -54 -41t-18 -97q0 -61 42 -61q35 0 54 45.5t19 100.5zM220 720h135q0 -30 17 -46.5t50 -16.5q68 0 94 63h140q-52 -168 -238 -168q-96 0 -148.5 44.5t-49.5 123.5z" />
    <glyph glyph-name="gcircumflex.ss02" horiz-adv-x="665" 
d="M-37 -37l247 31q2 -51 56 -51t72 59q15 46 27.5 69.5t36.5 49.5h-92q-49 -107 -144 -107q-64 0 -104 53t-40 144q-2 122 64.5 218.5t164.5 93.5q55 0 90.5 -33t44.5 -88h79q-21 46 -23 103h241l-101 -477q-28 -136 -107.5 -188.5t-232.5 -52.5q-76 0 -132 15.5t-86 42.5
t-44.5 56t-16.5 62zM396 309q0 53 -43 53q-36 0 -54 -41t-18 -97q0 -61 42 -61q35 0 54 45.5t19 100.5zM160 566l147 154h250l83 -154h-178l-43 74l-71 -74h-188z" />
    <glyph glyph-name="uni0123.ss02" horiz-adv-x="665" 
d="M-37 -37l247 31q2 -51 56 -51t72 59q15 46 27.5 69.5t36.5 49.5h-92q-49 -107 -144 -107q-64 0 -104 53t-40 144q-2 122 64.5 218.5t164.5 93.5q55 0 90.5 -33t44.5 -88h79q-21 46 -23 103h241l-101 -477q-28 -136 -107.5 -188.5t-232.5 -52.5q-76 0 -132 15.5t-86 42.5
t-44.5 56t-16.5 62zM396 309q0 53 -43 53q-36 0 -54 -41t-18 -97q0 -61 42 -61q35 0 54 45.5t19 100.5zM574 890l-145 -160h111l-38 -175h-205l38 175l140 160h99z" />
    <glyph glyph-name="gdotaccent.ss02" horiz-adv-x="665" 
d="M-37 -37l247 31q2 -51 56 -51t72 59q15 46 27.5 69.5t36.5 49.5h-92q-49 -107 -144 -107q-64 0 -104 53t-40 144q-2 122 64.5 218.5t164.5 93.5q55 0 90.5 -33t44.5 -88h79q-21 46 -23 103h241l-101 -477q-28 -136 -107.5 -188.5t-232.5 -52.5q-76 0 -132 15.5t-86 42.5
t-44.5 56t-16.5 62zM396 309q0 53 -43 53q-36 0 -54 -41t-18 -97q0 -61 42 -61q35 0 54 45.5t19 100.5zM306 555l38 175h198l-38 -175h-198z" />
    <glyph glyph-name="i.locl" horiz-adv-x="316" 
d="M101 555l37 175h243l-37 -175h-243zM-18 0l108 505h243l-108 -505h-243z" />
    <glyph glyph-name="scedilla.ss04" horiz-adv-x="587" 
d="M552 163q0 -87 -73.5 -132.5t-194.5 -48.5q-29 -13 -70 -20l9 -37q24 11 55 11q30 0 50.5 -19t20.5 -48q0 -50 -41 -77t-109 -27q-106 0 -148 64l86 74q18 -33 53 -33q38 0 38 25q0 17 -24 17q-14 0 -26 -6l-22 44l42 35q-202 24 -208 167l227 16q3 -28 16 -41.5
t43 -13.5q24 0 38.5 9t14.5 25q0 24 -43 34l-65 14q-91 19 -133.5 54t-42.5 94q0 83 72.5 131.5t193.5 48.5q124 0 192 -41.5t74 -104.5l-231 -26q-7 47 -55 47q-20 0 -31 -8.5t-11 -20.5q0 -13 13 -20t47 -13l58 -11q185 -35 185 -162z" />
    <glyph glyph-name="uni0163.ss04" horiz-adv-x="479" 
d="M314 191q0 -21 25 -21h113l-37 -170h-134l-8 -6q-27 -20 -90 -32l9 -37q24 11 55 11q30 0 50.5 -19t20.5 -48q0 -50 -41 -77t-109 -27q-104 0 -148 64l86 74q18 -33 53 -33q38 0 38 25q0 17 -24 17q-14 0 -26 -6l-22 44l67 56q-116 22 -116 131q0 27 8 70l31 148h-91
l32 150h91l32 150h233l-32 -150h100l-32 -150h-100l-33 -155q-1 -5 -1 -9z" />
    <glyph glyph-name="zero.onum" horiz-adv-x="701" 
d="M22 213q-2 136 98 224t248 86q142 0 225.5 -64.5t83.5 -172.5q0 -137 -98 -220.5t-249 -83.5q-143 0 -225.5 61.5t-82.5 169.5zM428 290q0 80 -65 80q-38 0 -65 -47.5t-27 -110.5q0 -80 64 -80q40 0 66.5 47t26.5 111z" />
    <glyph glyph-name="one.onum" horiz-adv-x="501" 
d="M161 0l15 70q11 53 32 102q30 72 92 163h-92q-38 -101 -83 -153t-124 -58l52 246q154 8 232 135h227l-108 -505h-243z" />
    <glyph glyph-name="two.onum" horiz-adv-x="607" 
d="M-7 0l40 184q148 30 199 43q137 36 137 91q0 21 -14 32t-37 11q-31 0 -49 -23t-22 -48l-214 30q16 92 92.5 147.5t209.5 55.5q114 0 182 -42t68 -108q0 -76 -76 -123q-75 -47 -301 -91l20 -71q71 26 162 52q86 24 148 24h21l-36 -164h-530z" />
    <glyph glyph-name="three.onum" horiz-adv-x="632" 
d="M-41 -8l224 43q1 -70 66 -70q34 0 55.5 17.5t21.5 46.5q0 47 -64 49l-90 2l31 158h95q35 0 56 15t21 44q0 18 -14 29.5t-37 11.5q-50 0 -74 -59l-225 37q20 91 102.5 149t203.5 58q112 0 188 -46.5t76 -122.5q0 -75 -58 -115.5t-164 -40.5h-27l-16 -75q15 1 31 1
q96 0 146 -35t50 -98q0 -97 -85 -150.5t-220 -53.5q-134 0 -209 54.5t-84 150.5z" />
    <glyph glyph-name="four.onum" horiz-adv-x="697" 
d="M265 -196l41 196h-342l48 232l239 273h380l-73 -344h99l-34 -161h-99l-41 -196h-218zM322 161h18l10 46q16 74 85 142l-54 47l-223 -256l54 -44q27 36 52 50.5t58 14.5z" />
    <glyph glyph-name="five.onum" horiz-adv-x="616" 
d="M-41 -1l217 34q12 -61 66 -61q34 0 56 23t22 58q0 27 -17 42.5t-40 15.5q-41 0 -69 -45l-196 28l134 411h471l-40 -189h-321l-10 -30q-27 -80 -91 -136h96q43 99 140 99q71 0 122.5 -50t51.5 -142q0 -124 -85 -197t-212 -73q-72 -1 -131 18.5t-93.5 51.5t-52.5 69t-18 73
z" />
    <glyph glyph-name="six.onum" horiz-adv-x="662" 
d="M41 269q-1 90 27.5 170.5t82 143.5t138.5 99.5t190 35.5q57 0 114 -12.5t80 -24.5l-39 -181q-73 34 -164 34q-193 0 -225 -185h70q10 51 47 82t94 31q27 0 56 -10t57.5 -31t46.5 -61.5t18 -93.5q0 -126 -84.5 -205.5t-226.5 -79.5q-140 0 -211 78t-71 210zM409 249
q0 27 -18 44.5t-46 17.5q-35 0 -57 -23.5t-22 -59.5q0 -28 16.5 -44t45.5 -16q34 0 57.5 22.5t23.5 58.5z" />
    <glyph glyph-name="seven.onum" horiz-adv-x="567" 
d="M434 318l43 19l-36 68q-135 -85 -286 -85h-130l39 185h541l-49 -234q-121 -59 -204 -179.5t-118 -288.5h-251q39 184 147.5 306.5t303.5 208.5z" />
    <glyph glyph-name="eight.onum" horiz-adv-x="644" 
d="M14 157q0 80 61 123t166 45l16 75q-168 2 -168 115q0 92 87.5 147t215.5 55q121 0 190.5 -44.5t69.5 -117.5q0 -74 -57.5 -114t-157.5 -41l-15 -75q86 -1 134.5 -36.5t48.5 -96.5q0 -98 -92 -154.5t-225 -56.5q-126 0 -200 48t-74 128zM441 504q0 25 -16.5 39t-48.5 14
q-36 0 -58.5 -21t-22.5 -54q0 -52 67 -52q35 0 57 20t22 54zM394 234q0 27 -20 43.5t-54 16.5q-89 0 -89 -84q0 -26 19.5 -42t52.5 -16q38 0 64.5 24t26.5 58z" />
    <glyph glyph-name="nine.onum" horiz-adv-x="670" 
d="M-31 -161l39 182q88 -49 171 -49q189 0 211 179h-67q-36 -112 -143 -112q-64 0 -108.5 51.5t-44.5 152.5q0 122 77.5 201t208.5 79q133 0 209.5 -83t76.5 -216q0 -88 -26.5 -166t-77.5 -139.5t-133 -97t-184 -34.5q-136 0 -209 52zM380 270q0 29 -17.5 46t-46.5 17
q-34 0 -57 -22.5t-23 -58.5q0 -28 17.5 -46t46.5 -18q34 0 57 23.5t23 58.5z" />
    <glyph glyph-name="zero.tnum" 
d="M36 241q0 21 1 27q4 115 46.5 217.5t121.5 168.5t176 64q111 0 176.5 -71t65.5 -202q0 -15 -1 -28q-5 -115 -47.5 -214t-120.5 -161t-175 -60q-112 0 -177.5 66t-65.5 193zM397 441q1 4 1 17q0 71 -39 71q-40 3 -67.5 -84t-31.5 -184l-1 -15q0 -73 39 -73q40 -3 68 85
t31 183z" />
    <glyph glyph-name="one.tnum" 
d="M456 190h122l-38 -190h-535l38 190h182l13 60q17 81 44.5 140.5t71.5 124.5h-86q-43 -104 -86 -154.5t-117 -56.5l55 246q160 12 224 150h222z" />
    <glyph glyph-name="two.tnum" 
d="M7 0l50 240q197 60 274 120q76 61 76 117q0 25 -13 39t-35 14q-31 0 -50 -32t-23 -80l-220 30q7 49 27 93.5t54.5 86t93 66t132.5 24.5q114 0 182 -56t68 -148q0 -120 -110 -202q-63 -45 -156 -79q-88 -32 -173 -55l22 -72q162 84 271 84h92l-39 -190h-523z" />
    <glyph glyph-name="three.tnum" 
d="M2 196l225 39q1 -67 60 -67q31 0 50.5 17.5t19.5 45.5q0 21 -16.5 33.5t-42.5 12.5h-80l33 155h87q31 0 49 15t18 43q0 17 -13.5 28t-36.5 11q-46 0 -64 -55l-221 36q27 100 106 154t204 54q106 0 175 -46t69 -123q0 -74 -57 -115t-162 -41h-24l-16 -75q14 1 31 1
q90 0 137.5 -34.5t47.5 -95.5q0 -99 -83 -153t-214 -54q-134 0 -207 56t-75 158z" />
    <glyph glyph-name="four.tnum" 
d="M263 0l28 123h-312l50 225l280 352h302l-89 -404h87l-39 -173h-86l-26 -123h-195zM328 296l10 46q16 74 79 142l-45 47l-203 -256l45 -44q25 36 47 50.5t51 14.5h16z" />
    <glyph glyph-name="five.tnum" 
d="M9 189l219 35q9 -57 59 -57q31 0 50.5 23t19.5 58q0 27 -15.5 42.5t-37.5 15.5q-40 0 -59 -45l-192 28l117 411h475l-41 -190h-303l-9 -29q-26 -75 -87 -131h86q40 94 133 94q66 0 112 -48t45 -138q-1 -133 -83 -204.5t-209 -71.5q-74 0 -128.5 18t-85.5 49.5t-46.5 65.5
t-19.5 74z" />
    <glyph glyph-name="six.tnum" 
d="M45 259q-1 90 25.5 172.5t76.5 147.5t129 102.5t175 36.5q53 0 103.5 -12.5t70.5 -24.5l-38 -187q-75 35 -150 35q-94 0 -145 -44.5t-66 -135.5h66q12 52 46 82.5t87 30.5q26 0 52.5 -9.5t52 -30.5t41.5 -61t16 -93q0 -124 -79.5 -205t-209.5 -81q-126 0 -189.5 72.5
t-63.5 204.5zM372 250q0 26 -15 42t-39 16q-30 0 -49.5 -23t-19.5 -58q0 -26 13.5 -41t38.5 -15q29 0 50 22.5t21 56.5z" />
    <glyph glyph-name="seven.tnum" 
d="M496 510l43 19l-36 70q-140 -89 -275 -89h-133l40 190h541l-53 -253q-135 -61 -212 -180q-74 -117 -103 -267h-263q68 340 451 510z" />
    <glyph glyph-name="eight.tnum" 
d="M19 157q0 80 59 123t157 45l15 75q-159 3 -159 115q0 92 83 147t204 55q114 0 180.5 -44.5t66.5 -117.5q0 -74 -54.5 -114t-149.5 -41l-15 -75q83 -1 128.5 -36t45.5 -96q0 -99 -87.5 -155.5t-213.5 -56.5q-119 0 -189.5 48t-70.5 128zM416 498q0 22 -14.5 35.5
t-41.5 13.5q-29 0 -48.5 -19.5t-19.5 -49.5q0 -22 15 -35t42 -13q30 0 48.5 18.5t18.5 49.5zM372 240q0 24 -16.5 39t-44.5 15q-33 0 -53.5 -20.5t-20.5 -55.5q0 -24 15.5 -38.5t44.5 -14.5q31 0 53 22.5t22 52.5z" />
    <glyph glyph-name="nine.tnum" 
d="M13 34l39 184q88 -50 166 -50q121 0 175 64q35 41 40 109h-66q-15 -52 -52.5 -79t-89.5 -27q-60 0 -110 49.5t-50 153.5q0 124 77 202t213 78q127 0 200 -79q73 -81 73 -210q1 -89 -25.5 -169.5t-77 -143.5t-131.5 -99t-182 -35q-128 0 -199 52zM410 468q0 28 -16.5 45
t-43.5 17q-33 0 -56 -22.5t-23 -58.5q0 -28 17.5 -46t44.5 -18q32 0 54.5 23.5t22.5 59.5z" />
    <glyph glyph-name="zero.subs" horiz-adv-x="454" 
d="M-3 42q0 107 59.5 177.5t150.5 70.5q82 0 129.5 -45t47.5 -123q0 -105 -60.5 -172.5t-152.5 -67.5q-83 0 -128.5 42t-45.5 118zM222 133q0 45 -19 45q-17 0 -31.5 -42t-14.5 -101q0 -40 17 -40q19 0 33.5 40t14.5 98z" />
    <glyph glyph-name="one.subs" horiz-adv-x="347" 
d="M71 -108l29 139q15 76 65 146h-52q-25 -59 -49 -85.5t-73 -30.5l30 138q101 2 137 81h146l-82 -388h-151z" />
    <glyph glyph-name="two.subs" horiz-adv-x="426" 
d="M-22 -108l28 133q110 30 159.5 60.5t49.5 66.5q0 12 -7 19t-17 7q-33 0 -38 -57l-147 14q4 27 15.5 52t33 49.5t58 39t83.5 14.5q75 0 120 -31.5t45 -81.5q0 -64 -65 -105q-36 -22 -102 -42q-55 -17 -102 -26l16 -47q25 14 86 31t104 17h36l-24 -113h-332z" />
    <glyph glyph-name="three.subs" horiz-adv-x="418" 
d="M-21 1l144 23q0 -14 9.5 -22.5t24.5 -8.5q32 0 32 26q0 23 -31 23h-34l19 90h36q15 0 24.5 7.5t9.5 19.5q0 21 -25 21q-27 0 -33 -30l-140 19q14 57 62 89t122 32q64 0 107.5 -25.5t43.5 -69.5q0 -41 -32.5 -63.5t-92.5 -22.5l-15 1l-9 -43h20q53 0 80.5 -19t27.5 -53
q0 -55 -47 -84t-125 -29q-81 0 -127.5 31.5t-50.5 87.5z" />
    <glyph glyph-name="four.subs" horiz-adv-x="457" 
d="M-2 1l144 23q0 -14 9.5 -22.5t24.5 -8.5q32 0 32 26q0 23 -31 23h-34l19 90h36q15 0 24.5 7.5t9.5 19.5q0 21 -25 21q-27 0 -33 -30l-140 19q14 57 62 89t122 32q64 0 107.5 -25.5t43.5 -69.5q0 -41 -32.5 -63.5t-92.5 -22.5l-15 1l-9 -43h20q53 0 80.5 -19t27.5 -53
q0 -55 -47 -84t-125 -29q-81 0 -127.5 31.5t-50.5 87.5z" />
    <glyph glyph-name="five.subs" horiz-adv-x="419" 
d="M-25 0l145 21q1 -14 10.5 -22t22.5 -8q15 0 25 10.5t10 27.5q0 14 -8 22t-20 8q-18 0 -29 -23l-129 16l66 228h298l-24 -113h-192l-3 -9q-11 -39 -54 -72h55q25 52 83 52q43 0 73 -26t30 -77q0 -69 -49.5 -111t-131.5 -42q-89 0 -130.5 35.5t-47.5 82.5z" />
    <glyph glyph-name="six.subs" horiz-adv-x="426" 
d="M-3 42q0 110 67 179t175 69q35 0 70.5 -8t51.5 -18l-23 -111q-50 25 -104 25q-109 0 -129 -95h42q7 27 29 43t55 16q40 0 76 -26t36 -80q0 -68 -51 -111t-130 -43t-122 41.5t-43 118.5zM197 30q0 13 -8 21.5t-21 8.5t-23 -11t-10 -26q0 -14 7.5 -22.5t19.5 -8.5
q15 0 25 11t10 27z" />
    <glyph glyph-name="seven.subs" horiz-adv-x="372" 
d="M245 172l24 11l-25 44q-85 -60 -173 -60h-59l24 113h312l-28 -136q-67 -31 -111.5 -95.5t-61.5 -156.5h-162q22 106 78.5 163.5t181.5 116.5z" />
    <glyph glyph-name="eight.subs" horiz-adv-x="422" 
d="M-17 -21q0 44 35.5 68.5t96.5 25.5l10 41q-101 2 -101 64q0 51 52.5 81.5t128.5 30.5q72 0 112 -24t40 -66q0 -84 -124 -86l-10 -41q53 -1 82 -20.5t29 -53.5q0 -55 -55 -86t-135 -31q-75 0 -118 26.5t-43 70.5zM217 164q0 24 -25 24q-12 0 -20.5 -9t-8.5 -23
q0 -23 24 -23q13 0 21.5 8.5t8.5 22.5zM192 25q0 27 -28 27q-15 0 -24.5 -10t-9.5 -27q0 -25 28 -25q15 0 24.5 10t9.5 25z" />
    <glyph glyph-name="nine.subs" horiz-adv-x="424" 
d="M-14 -92l25 112q45 -29 108 -29q64 0 96 29q28 26 34 68h-39q-21 -60 -90 -60q-39 0 -72.5 27t-33.5 81q0 71 45.5 112.5t123.5 41.5q79 0 124 -47q47 -49 47 -124q0 -108 -62 -172.5t-172 -64.5q-80 0 -134 26zM213 148q0 32 -31 32q-14 0 -24 -11t-10 -29q0 -32 29 -32
q15 0 25.5 11t10.5 29z" />
    <glyph glyph-name="zero.dnom" horiz-adv-x="454" 
d="M20 150q0 107 59.5 177.5t150.5 70.5q82 0 129.5 -45t47.5 -123q0 -105 -60.5 -172.5t-152.5 -67.5q-83 0 -128.5 42t-45.5 118zM245 241q0 45 -19 45q-17 0 -31.5 -42t-14.5 -101q0 -40 17 -40q19 0 33.5 40t14.5 98z" />
    <glyph glyph-name="one.dnom" horiz-adv-x="347" 
d="M94 0l29 139q15 76 65 146h-52q-25 -59 -49 -85.5t-73 -30.5l30 138q101 2 137 81h146l-82 -388h-151z" />
    <glyph glyph-name="two.dnom" horiz-adv-x="426" 
d="M1 0l28 133q110 30 159.5 60.5t49.5 66.5q0 12 -7 19t-17 7q-33 0 -38 -57l-147 14q4 27 15.5 52t33 49.5t58 39t83.5 14.5q75 0 120 -31.5t45 -81.5q0 -64 -65 -105q-36 -22 -102 -42q-55 -17 -102 -26l16 -47q25 14 86 31t104 17h36l-24 -113h-332z" />
    <glyph glyph-name="three.dnom" horiz-adv-x="418" 
d="M1 109l144 23q0 -14 9.5 -22.5t24.5 -8.5q32 0 32 26q0 23 -31 23h-34l19 90h36q15 0 24.5 7.5t9.5 19.5q0 21 -25 21q-27 0 -33 -30l-140 19q14 57 62 89t122 32q64 0 107.5 -25.5t43.5 -69.5q0 -41 -32.5 -63.5t-92.5 -22.5l-15 1l-9 -43h20q53 0 80.5 -19t27.5 -53
q0 -55 -47 -84t-125 -29q-81 0 -127.5 31.5t-50.5 87.5z" />
    <glyph glyph-name="four.dnom" horiz-adv-x="457" 
d="M175 0l14 66h-197l34 151l153 171h216l-46 -218h53l-22 -104h-53l-14 -66h-138zM211 170l5 26q10 41 47 78l-29 26l-124 -142l30 -24q27 36 61 36h10z" />
    <glyph glyph-name="five.dnom" horiz-adv-x="419" 
d="M-2 108l145 21q1 -14 10.5 -22t22.5 -8q15 0 25 10.5t10 27.5q0 14 -8 22t-20 8q-18 0 -29 -23l-129 16l66 228h298l-24 -113h-192l-3 -9q-11 -39 -54 -72h55q25 52 83 52q43 0 73 -26t30 -77q0 -69 -49.5 -111t-131.5 -42q-89 0 -130.5 35.5t-47.5 82.5z" />
    <glyph glyph-name="six.dnom" horiz-adv-x="426" 
d="M20 150q0 110 67 179t175 69q35 0 70.5 -8t51.5 -18l-23 -111q-50 25 -104 25q-109 0 -129 -95h42q7 27 29 43t55 16q40 0 76 -26t36 -80q0 -68 -51 -111t-130 -43t-122 41.5t-43 118.5zM220 138q0 13 -8 21.5t-21 8.5t-23 -11t-10 -26q0 -14 7.5 -22.5t19.5 -8.5
q15 0 25 11t10 27z" />
    <glyph glyph-name="seven.dnom" horiz-adv-x="372" 
d="M268 280l24 11l-25 44q-85 -60 -173 -60h-59l24 113h312l-28 -136q-67 -31 -111.5 -95.5t-61.5 -156.5h-162q22 106 78.5 163.5t181.5 116.5z" />
    <glyph glyph-name="eight.dnom" horiz-adv-x="422" 
d="M6 87q0 44 35.5 68.5t96.5 25.5l10 41q-101 2 -101 64q0 51 52.5 81.5t128.5 30.5q72 0 112 -24t40 -66q0 -84 -124 -86l-10 -41q53 -1 82 -20.5t29 -53.5q0 -55 -55 -86t-135 -31q-75 0 -118 26.5t-43 70.5zM240 272q0 24 -25 24q-12 0 -20.5 -9t-8.5 -23q0 -23 24 -23
q13 0 21.5 8.5t8.5 22.5zM215 133q0 27 -28 27q-15 0 -24.5 -10t-9.5 -27q0 -25 28 -25q15 0 24.5 10t9.5 25z" />
    <glyph glyph-name="nine.dnom" horiz-adv-x="424" 
d="M9 16l25 112q45 -29 108 -29q64 0 96 29q28 26 34 68h-39q-21 -60 -90 -60q-39 0 -72.5 27t-33.5 81q0 71 45.5 112.5t123.5 41.5q79 0 124 -47q47 -49 47 -124q0 -108 -62 -172.5t-172 -64.5q-80 0 -134 26zM236 256q0 32 -31 32q-15 0 -24.5 -11t-9.5 -29q0 -32 29 -32
q15 0 25.5 11t10.5 29z" />
    <glyph glyph-name="zero.numr" horiz-adv-x="454" 
d="M86 462q0 107 59.5 177.5t150.5 70.5q82 0 129.5 -45t47.5 -123q0 -105 -60.5 -172.5t-152.5 -67.5q-83 0 -128.5 42t-45.5 118zM311 553q0 45 -19 45q-17 0 -31.5 -42t-14.5 -101q0 -40 17 -40q19 0 33.5 40t14.5 98z" />
    <glyph glyph-name="one.numr" horiz-adv-x="347" 
d="M160 312l29 139q15 76 65 146h-52q-25 -59 -49 -85.5t-73 -30.5l30 138q101 2 137 81h146l-82 -388h-151z" />
    <glyph glyph-name="two.numr" horiz-adv-x="426" 
d="M67 312l28 133q110 30 159.5 60.5t49.5 66.5q0 12 -7 19t-17 7q-33 0 -38 -57l-147 14q4 27 15.5 52t33 49.5t58 39t83.5 14.5q75 0 120 -31.5t45 -81.5q0 -64 -65 -105q-36 -22 -102 -42q-55 -17 -102 -26l16 -47q25 14 86 31t104 17h36l-24 -113h-332z" />
    <glyph glyph-name="three.numr" horiz-adv-x="418" 
d="M67 421l144 23q0 -14 9.5 -22.5t24.5 -8.5q32 0 32 26q0 23 -31 23h-34l19 90h36q15 0 24.5 7.5t9.5 19.5q0 21 -25 21q-27 0 -33 -30l-140 19q14 57 62 89t122 32q64 0 107.5 -25.5t43.5 -69.5q0 -41 -32.5 -63.5t-92.5 -22.5l-15 1l-9 -43h20q53 0 80.5 -19t27.5 -53
q0 -55 -47 -84t-125 -29q-81 0 -127.5 31.5t-50.5 87.5z" />
    <glyph glyph-name="four.numr" horiz-adv-x="457" 
d="M244 312l14 66h-197l34 151l153 171h216l-46 -218h53l-22 -104h-53l-14 -66h-138zM280 482l5 26q10 41 47 78l-29 26l-124 -142l30 -24q27 36 61 36h10z" />
    <glyph glyph-name="five.numr" horiz-adv-x="419" 
d="M64 420l145 21q1 -14 10.5 -22t22.5 -8q15 0 25 10.5t10 27.5q0 14 -8 22t-20 8q-18 0 -29 -23l-129 16l66 228h298l-24 -113h-192l-3 -9q-11 -39 -54 -72h55q25 52 83 52q43 0 73 -26t30 -77q0 -69 -49.5 -111t-131.5 -42q-89 0 -130.5 35.5t-47.5 82.5z" />
    <glyph glyph-name="six.numr" horiz-adv-x="426" 
d="M86 462q0 110 67 179t175 69q35 0 70.5 -8t51.5 -18l-23 -111q-50 25 -104 25q-109 0 -129 -95h42q7 27 29 43t55 16q40 0 76 -26t36 -80q0 -68 -51 -111t-130 -43t-122 41.5t-43 118.5zM286 450q0 13 -8 21.5t-21 8.5t-23 -11t-10 -26q0 -14 7.5 -22.5t19.5 -8.5
q15 0 25 11t10 27z" />
    <glyph glyph-name="seven.numr" horiz-adv-x="372" 
d="M335 592l24 11l-25 44q-85 -60 -173 -60h-59l24 113h312l-28 -136q-67 -31 -111.5 -95.5t-61.5 -156.5h-162q22 106 78.5 163.5t181.5 116.5z" />
    <glyph glyph-name="eight.numr" horiz-adv-x="422" 
d="M72 399q0 44 35.5 68.5t96.5 25.5l10 41q-101 2 -101 64q0 51 52.5 81.5t128.5 30.5q72 0 112 -24t40 -66q0 -84 -124 -86l-10 -41q53 -1 82 -20.5t29 -53.5q0 -55 -55 -86t-135 -31q-75 0 -118 26.5t-43 70.5zM306 584q0 24 -25 24q-12 0 -20.5 -9t-8.5 -23
q0 -23 24 -23q13 0 21.5 8.5t8.5 22.5zM281 445q0 27 -28 27q-15 0 -24.5 -10t-9.5 -27q0 -25 28 -25q15 0 24.5 10t9.5 25z" />
    <glyph glyph-name="nine.numr" horiz-adv-x="424" 
d="M75 328l25 112q45 -29 108 -29q64 0 96 29q28 26 34 68h-39q-21 -60 -90 -60q-39 0 -72.5 27t-33.5 81q0 71 45.5 112.5t123.5 41.5q79 0 124 -47q47 -49 47 -124q0 -108 -62 -172.5t-172 -64.5q-80 0 -134 26zM302 568q0 32 -31 32q-15 0 -24.5 -11t-9.5 -29
q0 -32 29 -32q15 0 25.5 11t10.5 29z" />
    <glyph glyph-name="comma.ss04" horiz-adv-x="322" 
d="M-52 -195l82 91q42 45 62.5 60t69.5 40l-33 57q-25 -19 -31.5 -24t-22.5 -14t-28.5 -11.5t-32.5 -3.5h-25l45 214h247l-45 -214l-168 -195h-120z" />
    <glyph glyph-name="semicolon.ss04" horiz-adv-x="328" 
d="M-54 -195l82 91q42 45 62.5 60t69.5 40l-33 57q-25 -19 -31.5 -24t-22.5 -14t-28.5 -11.5t-32.5 -3.5h-25l45 214h247l-45 -214l-168 -195h-120zM55 319l46 214h245l-46 -214h-245z" />
    <glyph glyph-name="exclamdown.case" horiz-adv-x="339" 
d="M387 700l-45 -214h-248l45 214h248zM276 426l-1 -266l-34 -160h-250l34 160l111 266h140z" />
    <glyph glyph-name="questiondown.case" horiz-adv-x="676" 
d="M561 700l-45 -214h-245l45 214h245zM357 259q-51 -25 -67 -37t-16 -29q0 -16 13 -26t36 -10q63 0 68 80l255 -34q-13 -94 -96.5 -157.5t-247.5 -63.5q-142 0 -218.5 49.5t-76.5 129.5q0 64 37.5 102.5t109.5 71.5q81 38 96 49.5t24 41.5h218q-12 -66 -36 -98.5t-99 -68.5
z" />
    <glyph glyph-name="period.tnum" 
d="M125 0l54 257h264l-54 -257h-264z" />
    <glyph glyph-name="comma.tnum" 
d="M84 -234l187 234h-143l49 257h264l-49 -257l-180 -234h-128z" />
    <glyph glyph-name="colon.tnum" 
d="M207 389l54 257h264l-54 -257h-264zM125 0l54 257h264l-54 -257h-264z" />
    <glyph glyph-name="semicolon.tnum" 
d="M207 389l54 257h264l-54 -257h-264zM76 -234l191 234h-143l53 257h264l-53 -257l-184 -234h-128z" />
    <glyph glyph-name="semicolon.tnum_ss04" 
d="M211 389l54 257h264l-54 -257h-264zM81 -234l89 109q30 37 50 55q35 31 95 65l-34 69q-35 -29 -43 -35q-36 -29 -82 -29h-28l54 257h266l-52 -257l-186 -234h-129z" />
    <glyph glyph-name="numbersign.tnum" 
d="M-6 0l6 17q15 35 45 60.5t87 59.5l43 27l-46 61l-15 -15q-33 -32 -45.5 -43t-28.5 -21t-32 -11h-4l34 165h72l41 105h-48l34 165h78l50 130h168l-5 -13q-11 -26 -31.5 -48t-39.5 -35.5t-62 -41.5l-34 -22l45 -60l13 13q32 31 45.5 43.5t32.5 22.5t39 11h12l50 130h167
l-6 -15q-17 -36 -46 -60.5t-86 -59.5l-40 -25l45 -60l21 20q39 40 59 55t38 15h9l-34 -165h-74l-41 -105h49l-34 -165h-80l-51 -135h-167l6 17q16 38 45 64t86 60q33 19 37 23l-46 61l-16 -16q-31 -31 -43.5 -42t-31.5 -21.5t-38 -10.5h-14l-53 -135h-165zM276 300h67
l41 105h-66z" />
    <glyph glyph-name="parenleft.case" horiz-adv-x="397" 
d="M36 218q0 152 54 292t157 225q102 85 243 80l-37 -178q-67 -4 -119 -67q-50 -60 -79 -157q-28 -93 -28 -189q0 -149 104 -158l-37 -176q-137 9 -197.5 92t-60.5 236z" />
    <glyph glyph-name="parenright.case" horiz-adv-x="396" 
d="M403 488q0 -154 -55 -292q-54 -139 -157 -224t-242 -81l37 178q67 4 118 66q51 61 80 158q28 93 28 189q0 149 -104 158l37 176q140 -9 199 -95t59 -233z" />
    <glyph glyph-name="braceleft.case" horiz-adv-x="416" 
d="M50 52q0 30 8 73l20 93q3 14 3 26q0 21 -12.5 29.5t-40.5 8.5l29 141q36 0 52 11t22 38l38 174q19 92 64.5 125.5t147.5 33.5h134l-30 -141h-62q-29 0 -42.5 -14t-21.5 -50l-16 -76q-14 -72 -56 -101t-116 -29h-22l-16 -75q5 1 20 1q58 0 89.5 -25.5t31.5 -73.5
q0 -19 -5 -42l-18 -82q-3 -12 -3 -19q0 -37 49 -37h55l-30 -141h-120q-74 0 -113 39.5t-39 112.5z" />
    <glyph glyph-name="braceright.case" horiz-adv-x="416" 
d="M408 653q0 -30 -8 -73l-20 -93q-4 -12 -4 -26q0 -21 12.5 -29.5t41.5 -8.5l-29 -141q-36 0 -52 -10.5t-22 -38.5l-38 -174q-21 -92 -65.5 -125.5t-146.5 -33.5h-134l30 142h62q29 0 42.5 13.5t21.5 49.5l16 76q14 72 56 101.5t116 29.5q17 0 22 -1l16 75h-20
q-58 0 -89.5 25t-31.5 73q0 19 5 42l18 82q2 18 2 19q0 37 -48 37h-55l30 141h120q75 0 113.5 -39t38.5 -113z" />
    <glyph glyph-name="bracketleft.case" horiz-adv-x="403" 
d="M-24 -100l191 905h330l-32 -153h-122l-127 -599h122l-32 -153h-330z" />
    <glyph glyph-name="bracketright.case" horiz-adv-x="403" 
d="M469 805l-191 -905h-330l31 153h123l127 599h-123l33 153h330z" />
    <glyph glyph-name="angleleft.case" horiz-adv-x="420" 
d="M510 695l-278 -371l125 -367l-190 -66l-146 462l330 463z" />
    <glyph glyph-name="angleright.case" horiz-adv-x="421" 
d="M296 816l146 -462l-330 -463l-159 121l278 371l-125 367z" />
    <glyph glyph-name="uni3010.case" horiz-adv-x="432" 
d="M-24 -99l192 905h403q-232 -208 -281 -451q-14 -70 -14 -130q0 -176 103 -324h-403z" />
    <glyph glyph-name="uni3011.case" horiz-adv-x="432" 
d="M499 806l-192 -905h-403q232 208 281 451q14 70 14 130q0 176 -103 324h403z" />
    <glyph glyph-name="uni300C.case" horiz-adv-x="426" 
d="M68 347l98 458h366l-38 -176h-157l-60 -282h-209z" />
    <glyph glyph-name="uni300D.case" horiz-adv-x="425" 
d="M401 359l-98 -458h-366l38 176h157l60 282h209z" />
    <glyph glyph-name="uni300A.case" horiz-adv-x="794" 
d="M510 695l-278 -371l125 -367l-190 -66l-146 462l330 463zM906 695l-325 -413l118 -325l-190 -66l-142 419l380 506z" />
    <glyph glyph-name="uni300B.case" horiz-adv-x="794" 
d="M327 816l142 -419l-380 -506l-159 121l325 413l-118 325zM669 816l146 -462l-330 -463l-159 121l278 371l-125 367z" />
    <glyph glyph-name="uni3014.case" horiz-adv-x="409" 
d="M284 491l-62 -304l138 -184l-148 -112l-199 259l84 410l293 256l116 -138z" />
    <glyph glyph-name="uni3015.case" horiz-adv-x="410" 
d="M240 816l199 -259l-84 -410l-293 -256l-116 138l222 187l62 305l-138 183z" />
    <glyph glyph-name="uni300E.case" horiz-adv-x="625" 
d="M36 182l132 623h538l-77 -362h-152l-55 -261h-386zM217 327h103l49 232h135l21 101h-238z" />
    <glyph glyph-name="uni300F.case" horiz-adv-x="612" 
d="M624 524l-132 -623h-538l77 362h152l55 261h386zM443 379h-103l-49 -232h-135l-21 -101h238z" />
    <glyph glyph-name="hyphen.case" horiz-adv-x="527" 
d="M51 286l38 180h437l-38 -180h-437z" />
    <glyph glyph-name="uni00AD.case" horiz-adv-x="527" 
d="M51 286l38 180h437l-38 -180h-437z" />
    <glyph glyph-name="endash.case" horiz-adv-x="697" 
d="M51 290l36 170h609l-36 -170h-609z" />
    <glyph glyph-name="emdash.case" horiz-adv-x="907" 
d="M52 293l36 165h816l-36 -165h-816z" />
    <glyph glyph-name="quotesinglbase.ss04" horiz-adv-x="310" 
d="M-50 -185l78 86q9 10 16 17.5t14.5 14.5t11.5 11t12 9.5t11 8t12.5 8t13 7.5t16.5 9t18 10l-31 55q-36 -29 -55.5 -39t-53.5 -12h-24l43 203h234l-42 -203l-160 -185h-114z" />
    <glyph glyph-name="quotedblbase.ss04" horiz-adv-x="597" 
d="M-50 -185l78 86q9 10 16 17.5t14.5 14.5t11.5 11t12 9.5t11 8t12.5 8t13 7.5t16.5 9t18 10l-31 55q-36 -29 -55.5 -39t-53.5 -12h-24l43 203h234l-42 -203l-160 -185h-114zM237 -185l78 86q9 10 16 17.5t14.5 14.5t11.5 11t12 9.5t11 8t12.5 8t13 7.5t16.5 9t18 10
l-31 55q-36 -29 -55.5 -39t-53.5 -12h-24l43 203h234l-42 -203l-160 -185h-114z" />
    <glyph glyph-name="quotedblleft.ss04" horiz-adv-x="587" 
d="M359 700l-78 -86q-24 -27 -43 -43q-24 -21 -82 -52l31 -55q36 29 55.5 39t53.5 12h24l-43 -203h-234l42 203l160 185h114zM646 700l-78 -86q-24 -27 -43 -43q-24 -21 -82 -52l31 -55q38 30 56.5 39.5t52.5 11.5h24l-43 -203h-234l43 203l159 185h114z" />
    <glyph glyph-name="quotedblright.ss04" horiz-adv-x="580" 
d="M48 312l78 86q9 10 16 17.5t14.5 14.5t11.5 11t12 9.5t11 8t12.5 8t13 7.5t16.5 9t18 10l-31 55q-36 -29 -55.5 -39t-53.5 -12h-24l43 203h234l-42 -203l-160 -185h-114zM335 312l78 86q9 10 16 17.5t14.5 14.5t11.5 11t12 9.5t11 8t12.5 8t13 7.5t16.5 9t18 10l-31 55
q-36 -29 -55.5 -39t-53.5 -12h-24l43 203h234l-42 -203l-160 -185h-114z" />
    <glyph glyph-name="quoteleft.ss04" horiz-adv-x="300" 
d="M359 700l-78 -86q-24 -27 -43 -43q-24 -21 -82 -52l31 -55q36 29 55.5 39t53.5 12h24l-43 -203h-234l42 203l160 185h114z" />
    <glyph glyph-name="quoteright.ss04" horiz-adv-x="293" 
d="M48 312l78 86q9 10 16 17.5t14.5 14.5t11.5 11t12 9.5t11 8t12.5 8t13 7.5t16.5 9t18 10l-31 55q-36 -29 -55.5 -39t-53.5 -12h-24l43 203h234l-42 -203l-160 -185h-114z" />
    <glyph glyph-name="guillemotleft.case" horiz-adv-x="723" 
d="M444 587l-196 -271l98 -234h-201l-101 252l172 253h228zM770 587l-228 -305l90 -200h-201l-94 218l205 287h228z" />
    <glyph glyph-name="guillemotright.case" horiz-adv-x="723" 
d="M326 587l94 -218l-205 -287h-228l228 305l-90 200h201zM612 587l101 -252l-172 -253h-228l196 271l-98 234h201z" />
    <glyph glyph-name="guilsinglleft.case" horiz-adv-x="428" 
d="M477 587l-230 -273l92 -232h-201l-94 255l205 250h228z" />
    <glyph glyph-name="guilsinglright.case" horiz-adv-x="429" 
d="M325 587l94 -255l-205 -250h-228l230 273l-92 232h201z" />
    <glyph glyph-name="space.tnum" 
 />
    <glyph glyph-name="_525" horiz-adv-x="645" 
d="M387 220l229 -33q-21 -85 -92.5 -142t-194.5 -63l-19 -90h-113l21 98q-91 18 -139.5 73.5t-48.5 141.5q0 131 84 220.5t217 96.5l19 91h113l-21 -99q85 -19 133.5 -71.5t53.5 -123.5l-230 -34q0 87 -53 87q-37 0 -58 -53t-21 -117q0 -69 45 -69q25 0 45 23t30 64z" />
    <glyph glyph-name="_528" horiz-adv-x="708" 
d="M215 -79l18 80q-205 36 -221 207l253 47q7 -84 82 -84q37 0 58 14t21 37q0 39 -52 45l-57 8q-130 19 -179 67.5t-49 137.5q0 109 84 176t211 72l15 71h133l-17 -82q89 -20 140.5 -72t57.5 -124l-258 -37q-11 68 -73 68q-26 0 -42.5 -13t-16.5 -32q0 -23 17.5 -35
t59.5 -17l50 -6q105 -12 162.5 -66t57.5 -142q0 -114 -83.5 -179t-222.5 -70l-16 -71h-133z" />
    <glyph glyph-name="_536" horiz-adv-x="1111" 
d="M1111 402h-111l-23 -58h85l-22 -105h-104l-94 -239h-269l4 63q7 125 30 247t60 285h-82q-78 -388 -128 -532l-22 -63h-259l1 239h-94l22 105h72l1 58h-121l23 105h98l1 193h228l-5 -90q-5 -77 -29 -197q-34 -171 -59 -281h81q23 122 48 243q27 123 52 197l42 128h225
l-12 -128q-10 -122 -84 -440h81q72 366 112 478l32 90h225l-75 -193h93z" />
    <glyph glyph-name="uni20BF.tnum" 
d="M428 398l-16 -74q186 2 186 -130q0 -88 -66.5 -137.5t-174.5 -55.5l-23 -104h-122l23 103h-44l-23 -103h-121l22 103h-88l152 700h89l20 89h121l-20 -89h45l19 89h121l-20 -94q63 -12 97.5 -48.5t33.5 -88.5q-2 -79 -58 -120.5t-153 -39.5zM383 522h-67l-21 -96h70
q27 0 43.5 16t16.5 42q0 16 -12 27t-30 11zM333 279h-70l-22 -101h72q29 0 46.5 16.5t17.5 43.5q0 18 -11.5 29.5t-32.5 11.5z" />
    <glyph glyph-name="cent.tnum" 
d="M193 -108l18 98q-79 21 -122 75.5t-43 140.5q0 129 75.5 218t191.5 98l18 91h111l-19 -100q151 -46 162 -194l-172 -28q0 36 -21 61l-10 -47q-16 -92 -81 -135l33 -50q38 26 61 96l179 -29q-20 -84 -82 -141t-171 -64l-17 -90h-111zM244 161l10 50q12 51 29 74.5t52 50.5
l-32 51q-39 -24 -62 -65.5t-23 -87.5q0 -47 26 -73z" />
    <glyph glyph-name="currency.tnum" 
d="M113 79l-95 118l81 69q-10 26 -10 71q0 85 53 142l-59 69l116 97l56 -70q51 25 110 25q50 0 101 -23l79 68l100 -117l-83 -70q10 -21 10 -62q0 -76 -48 -144l62 -74l-115 -99l-61 75q-67 -25 -113 -25q-55 0 -98 22zM393 373q0 24 -16 40.5t-40 16.5q-29 0 -49 -21.5
t-20 -49.5q0 -25 15 -42t41 -17q29 0 49 21.5t20 51.5z" />
    <glyph glyph-name="dollar.tnum" 
d="M176 -79l18 80q-186 37 -193 207l205 42q-1 -2 -1 -10q0 -19 7.5 -34t20.5 -19l20 94l-9 2q-97 22 -133 68t-33 129q3 109 80 176t191 72l16 71h120l-18 -82q80 -20 124.5 -71.5t48.5 -124.5l-190 -30v10q0 39 -18 50l-22 -104l16 -3q81 -15 125.5 -67.5t42.5 -135.5
q-3 -115 -79.5 -179.5t-202.5 -69.5l-16 -71h-120zM296 474l3 13q12 42 59 66l-30 60q-62 -31 -62 -87q0 -31 30 -52zM397 198q0 37 -30 59l-2 -9q-12 -49 -58 -73l34 -60q56 31 56 83z" />
    <glyph glyph-name="Euro.tnum" 
d="M72 213h-63l23 110h39q2 18 2 20l4 25h-36l23 110h40q38 109 112.5 174.5t176.5 65.5q64 0 118 -26.5t90 -86.5t37 -145l-191 -45q-7 135 -90 135q-30 0 -59 -23t-51 -64l47 -39l8 9q21 27 34 36t37 9h18l-23 -110h-89q-5 -17 -7 -45h86l-23 -110h-17q-21 0 -34 5.5
t-18 13t-18 28.5l-50 -32q9 -40 35 -63.5t58 -23.5q85 0 129 144l188 -73q-39 -115 -115.5 -172.5t-165.5 -57.5q-104 0 -173 59.5t-82 171.5z" />
    <glyph glyph-name="uni20BA.tnum" 
d="M24 0l4 15q13 66 121 161l-48 54q-67 -88 -99 -105l-15 -8l32 149l72 36l12 56l-72 -36l33 149l71 36l43 193h208l-1 -9q-3 -18 -22.5 -48.5t-50.5 -59.5l54 -48q71 123 127 148l54 26l-32 -149l-177 -86l-11 -55l175 86l-33 -150l-175 -86l-14 -61h29q79 0 153 113
l164 -143q-60 -103 -139.5 -140.5t-219.5 -37.5h-243z" />
    <glyph glyph-name="uni20BD.tnum" 
d="M657 519q0 -102 -66.5 -166t-167.5 -64h-131l-11 -50h172l-29 -130h-170l-23 -109h-202l24 109h-60l29 130h60l11 50h-61l31 140h60l60 271h268q99 0 152.5 -47t53.5 -134zM399 530h-57l-21 -101h67q24 0 39 17.5t15 39.5q0 20 -11 32t-32 12z" />
    <glyph glyph-name="uni20B9.tnum" 
d="M207 0l-10 159q-3 47 -18 63t-56 16h-92l35 164h125q34 0 55.5 16t21.5 42q0 20 -15 32.5t-40 12.5h-125l41 195h565l-31 -147h-31q-106 0 -196 76l-55 -68q44 -11 83 -68h185l-26 -125h-155h-228l-17 -78q38 2 54 2q87 0 128.5 -28t51.5 -104l21 -160h-271z" />
    <glyph glyph-name="sterling.tnum" 
d="M639 512l-222 -45v15q0 59 -39 59q-24 0 -37.5 -17t-13.5 -45q0 -29 20 -71h156l-27 -129h-130q-48 -64 -159 -100l34 -74q101 85 233 85h123l-41 -190h-549l41 190q63 22 96 41.5t47 47.5h-124l28 129h76q-25 54 -24 96q1 100 72.5 157t190.5 57q117 0 184 -56t65 -150z
" />
    <glyph glyph-name="uni20A9.tnum" 
d="M651 700l-52 -193h48l-26 -124h-56l-16 -60h59l-26 -124h-67l-54 -199h-161l14 79q40 232 46 271h-61l-70 -273l-20 -77h-156l30 199h-67l26 124h60l9 60h-56l26 124h49l29 193h143l-8 -42q-16 -86 -66 -246q-47 -153 -83 -251h67q19 80 43 157q21 67 46 139l17 48h92
l-3 -48q-6 -82 -42 -296h68q7 96 24 252q18 156 39 245l10 42h145z" />
    <glyph glyph-name="yen.tnum" 
d="M746 700l-221 -287h77l-24 -129h-143l-8 -45h141l-22 -115h-140l-22 -124h-237l22 124h-140l21 115h140l8 45h-138l24 129h76l-104 287h241l14 -58q9 -44 9 -91q0 -75 -27 -188h74q25 174 100 292l29 45h250z" />
    <glyph glyph-name="_579" 
d="M177 68l-113 118l151 155l-152 157l115 117l152 -157l150 155l113 -115l-152 -156l152 -157l-114 -117l-150 157z" />
    <glyph glyph-name="plus.tnum" 
d="M245 97v179h-172v161h172v179h173v-179h172v-161h-172v-179h-173z" />
    <glyph glyph-name="minus.tnum" 
d="M83 273v161h492v-161h-492z" />
    <glyph glyph-name="multiply.tnum" 
d="M178 84l-113 113l151 147l-152 149l115 111l152 -149l150 147l113 -109l-152 -148l152 -149l-114 -112l-150 150z" />
    <glyph glyph-name="divide.tnum" 
d="M240 473v167h183v-167h-183zM62 278v150h538v-150h-538zM240 66v167h183v-167h-183z" />
    <glyph glyph-name="equal.tnum" 
d="M95 384v160h466v-160h-466zM95 154v160h466v-160h-466z" />
    <glyph glyph-name="notequal.tnum" 
d="M125 79l37 75h-68v160h148l6 11q15 32 31 49q13 14 52 43l-45 55q-32 -44 -64 -66t-75 -22h-53v160h262l37 75h136l-37 -75h68v-160h-148l-5 -11q-15 -30 -31.5 -48t-51.5 -44l44 -55q32 44 64 66t75 22h53v-160h-262l-37 -75h-136z" />
    <glyph glyph-name="greater.tnum" 
d="M103 71v191l86 20q104 24 233 24q31 0 40 -1v72q-8 -1 -36 -1q-126 0 -233 24l-90 19v193l482 -136v-269z" />
    <glyph glyph-name="less.tnum" 
d="M555 612v-191l-86 -20q-105 -24 -234 -24q-30 0 -39 1v-72q8 1 35 1q126 0 233 -24l91 -19v-193l-483 136v269z" />
    <glyph glyph-name="greaterequal.tnum" 
d="M103 212v173l34 6q55 9 137 13q100 5 169 5h19v72q-52 -2 -86 -2q-165 0 -239 12l-34 5v174l466 -102v-237zM103 53v150h466v-150h-466z" />
    <glyph glyph-name="lessequal.tnum" 
d="M552 212l-467 102v237l467 119v-173l-35 -6q-56 -9 -136 -13q-100 -5 -169 -5h-20v-72q26 1 87 1q161 0 238 -11l35 -5v-174zM85 53v150h467v-150h-467z" />
    <glyph glyph-name="plusminus.tnum" 
d="M239 248v95h-155v150h155v120h157v-120h155v-150h-155v-95h-157zM84 53v150h467v-150h-467z" />
    <glyph glyph-name="approxequal.tnum" 
d="M349 365l-26 17q-50 34 -67 30q-27 0 -44 -14t-31 -51l-126 77q20 78 63 120.5t103 42.5q48 0 98 -35l28 -19q25 -17 49 -17q28 0 45.5 14t29.5 51l127 -77q-20 -78 -63.5 -121t-103.5 -43q-47 0 -82 25zM349 99l-26 18q-3 2 -9 5.5t-8 5t-7 4.5t-7 4l-6 3t-6 2.5t-5.5 2
t-6 1.5t-6 0.5t-6.5 0.5q-27 0 -44 -14t-31 -51l-126 77q20 78 63 120.5t103 42.5q48 0 98 -35l28 -19q25 -17 49 -17q28 0 45.5 14t29.5 51l127 -77q-20 -78 -63.5 -120.5t-103.5 -42.5q-45 0 -82 24z" />
    <glyph glyph-name="logicalnot.tnum" 
d="M391 142v131h-310v170h466v-301h-156z" />
    <glyph glyph-name="percent.tnum" 
d="M62 527q0 75 45.5 133t116.5 58q132 0 132 -135q0 -76 -44.5 -133.5t-115.5 -57.5q-134 0 -134 135zM13 0l518 700h120l-519 -700h-119zM251 583q0 44 -32 44q-22 0 -36.5 -31.5t-14.5 -66.5q0 -46 32 -46q23 0 37 31t14 69zM303 117q0 75 45.5 133t116.5 58
q132 0 132 -135q0 -76 -44.5 -133.5t-115.5 -57.5q-134 0 -134 135zM492 173q0 44 -32 44q-24 0 -37.5 -31t-13.5 -67q0 -46 32 -46q23 0 37 31t14 69z" />
    <glyph glyph-name="perthousand.tnum" 
d="M75 505q-2 77 44 146t104 67q50 0 76 -29.5t26 -82.5q1 -79 -43.5 -147t-103.5 -65q-50 0 -76.5 29.5t-26.5 81.5zM485 700h103l-525 -700h-103zM168 514q0 -29 17 -29q18 -3 32 39t14 74q0 29 -17 29q-18 0 -32 -40.5t-14 -72.5zM587 193q0 -80 -40 -145.5t-97 -65.5
q-48 0 -69 35q-33 -35 -72 -35q-38 0 -60 28.5t-22 78.5q-2 80 38.5 150t95.5 68q43 0 67 -32q32 32 67 32q44 0 68 -31t24 -83zM374 194q0 21 -14 21q-15 3 -28.5 -43.5t-12.5 -75.5q0 -22 13 -22q15 0 28.5 44t13.5 76zM495 194q0 21 -14 21q-16 0 -29.5 -43t-13.5 -75
q0 -23 14 -23q16 0 29.5 44t13.5 76z" />
    <glyph glyph-name="at.case" horiz-adv-x="990" 
d="M36 289q-1 95 35.5 182.5t103 154t164.5 105.5t212 37q127 1 232 -41.5t168 -125.5t61 -191q0 -131 -82 -213t-209 -82q-57 0 -91 27t-32 69h-53q-18 -43 -53 -69.5t-76 -26.5q-52 0 -82.5 46t-30.5 125q-2 92 50.5 166.5t130.5 72.5q92 0 107 -98h56q-11 32 -11 56
q0 13 3 29h122l-46 -214q-3 -12 -3 -21q0 -31 36 -31q45 0 75 47.5t30 110.5q0 101 -81 162.5t-221 61.5q-169 0 -258.5 -92t-89.5 -247q0 -132 85.5 -204.5t222.5 -72.5q152 0 279 75l64 -122q-145 -93 -343 -93q-210 -2 -343.5 108.5t-131.5 308.5zM583 362q0 53 -39 53
q-32 0 -51.5 -36.5t-19.5 -79.5q0 -56 41 -56q31 0 50 36.5t19 82.5z" />
    <glyph glyph-name="registered.case" horiz-adv-x="941" 
d="M56 342q-2 115 55 212.5t157 153.5t218 54q118 2 219.5 -54t160.5 -154t57 -212q2 -114 -57 -213t-161 -156.5t-219 -55.5q-117 -2 -217 55.5t-157.5 156.5t-55.5 213zM777 342q0 128 -79.5 211t-209.5 83q-129 0 -207.5 -83t-78.5 -211t79 -213.5t207 -85.5t208.5 85.5
t80.5 213.5zM324 142v408h214q58 0 93.5 -25t35.5 -67q0 -84 -110 -86v-49q56 0 78 -17t30 -66l15 -98h-133l-9 91q-4 38 -16 53.5t-40 15.5h-34v-160h-124zM448 386h34q51 0 51 40q0 38 -51 38h-34v-78z" />
    <glyph glyph-name="section.tnum" 
d="M6 -19l196 25q0 -35 15 -53.5t40 -18.5q21 0 33.5 11t12.5 28q0 33 -54 54l-68 29q-80 34 -117.5 73.5t-37.5 97.5q0 55 38.5 90.5t107.5 35.5q12 0 22 -1l12 60q-48 25 -69 53.5t-21 77.5q0 74 65 124.5t170 50.5t167 -50.5t67 -128.5l-190 -31q-2 60 -49 60
q-17 0 -27 -10.5t-10 -26.5q0 -17 10 -27.5t43 -23.5l91 -36q74 -30 107 -64.5t33 -84.5q0 -66 -43.5 -104.5t-130.5 -36.5l-11 -60q94 -41 94 -129q0 -78 -65 -129.5t-182 -51.5q-119 0 -184 57.5t-65 139.5zM399 230q0 25 -33 42l-88 44l-32 17q-29 -29 -29 -55t33 -42
l85 -44l36 -17q28 29 28 55z" />
    <glyph glyph-name="degree.tnum" 
d="M149 590q0 95 65 157.5t165 62.5t166 -62.5t66 -157.5q0 -97 -64.5 -157.5t-167.5 -60.5t-166.5 61.5t-63.5 156.5zM455 592q0 33 -22.5 54.5t-52.5 21.5t-52.5 -21.5t-22.5 -54.5q0 -35 21.5 -56.5t53.5 -21.5q30 0 52.5 22t22.5 56z" />
    <glyph glyph-name="_645" horiz-adv-x="0" 
d="M-322 365l145 160h-111l38 175h205l-37 -175l-140 -160h-100z" />
    <glyph glyph-name="_650" horiz-adv-x="277" 
d="M179 847l77 123h218l-154 -123h-141zM76 669q0 61 45 107t115 46q68 0 104.5 -35.5t36.5 -89.5q0 -60 -44 -106t-114 -46q-67 0 -105 36t-38 88zM269 690q0 34 -36 34q-20 0 -33 -12.5t-13 -33.5q0 -15 10 -25t26 -10q20 0 33 13t13 34z" />
    <glyph glyph-name="uni0327.ss04" horiz-adv-x="0" 
d="M-289 -171l86 74q18 -33 53 -33q38 0 38 25q0 17 -24 17q-14 0 -26 -6l-22 44l103 86l62 -29l-17 -13q-27 -20 -90 -32l9 -37q24 11 55 11q30 0 50.5 -19t20.5 -48q0 -50 -41 -77t-109 -27q-104 0 -148 64z" />
    <glyph glyph-name="cedilla.ss04" horiz-adv-x="332" 
d="M46 -171l81 74q7 -13 22.5 -23t34.5 -10q38 0 38 22q0 19 -28 19q-12 0 -23 -3l-23 62l183 68l39 -38l-45 -16l-41 -15l-33 -12q20 -3 43 -14q43 -26 43 -69q0 -52 -39 -80.5t-108 -28.5q-93 0 -144 64z" />
    <glyph glyph-name="_673" horiz-adv-x="0" 
d="M-504 566l35 154h217l-35 -154h-217zM-222 566l36 154h216l-35 -154h-217z" />
    <glyph glyph-name="_674" horiz-adv-x="0" 
d="M-229 554l38 175h198l-38 -175h-198z" />
    <glyph glyph-name="_675" horiz-adv-x="0" 
d="M-176 566l-109 154h255l20 -154h-166z" />
    <glyph glyph-name="_676" horiz-adv-x="0" 
d="M-295 566l90 154h255l-179 -154h-166z" />
    <glyph glyph-name="_677" horiz-adv-x="0" 
d="M-597 566l89 154h256l-180 -154h-165zM-325 566l90 154h254l-178 -154h-166z" />
    <glyph glyph-name="_678" horiz-adv-x="0" 
d="M-529 566l161 154h276l91 -154h-196l-48 74l-77 -74h-207z" />
    <glyph glyph-name="_679" horiz-adv-x="0" 
d="M5 720l-161 -154h-276l-90 154h195l48 -74l77 74h207z" />
    <glyph glyph-name="_680" horiz-adv-x="0" 
d="M-444 722h149q0 -31 19 -49t54 -18q76 0 104 67h153q-57 -179 -261 -179q-106 0 -163.5 47t-54.5 132z" />
    <glyph glyph-name="_681" horiz-adv-x="0" 
d="M-186 685q0 70 52 123.5t133 53.5q78 0 121 -41t43 -103q0 -70 -51 -123t-133 -53q-78 0 -121.5 40.5t-43.5 102.5zM37 709q0 18 -11 29t-30 11q-24 0 -39 -14.5t-15 -38.5q0 -18 11 -29.5t31 -11.5q23 0 38 15.5t15 38.5z" />
    </font>
</defs>
</svg>
