<?xml version="1.0" standalone="no"?>
<!DOCTYPE svg PUBLIC "-//W3C//DTD SVG 1.1//EN" "http://www.w3.org/Graphics/SVG/1.1/DTD/svg11.dtd" >
<svg xmlns="http://www.w3.org/2000/svg" xmlns:xlink="http://www.w3.org/1999/xlink" version="1.1">
<metadata>
Created by FontForge 20170731 at Tue Mar 12 05:31:02 2019
 By Aleksey,,,
Copyright 2019 Dinamo (Johannes Breyer, Fabian Harb) &#38; Erkin Karamemet. All rights reserved.
</metadata>
<defs>
<font id="WhyteInktrap-ExtraLight" horiz-adv-x="620" >
  <font-face 
    font-family="Whyte Inktrap ExtraLight"
    font-weight="275"
    font-stretch="normal"
    units-per-em="1000"
    panose-1="2 11 0 4 5 1 1 2 1 3"
    ascent="800"
    descent="-200"
    x-height="492"
    cap-height="700"
    bbox="-386 -282 1113 1108"
    underline-thickness="24"
    underline-position="-97"
    unicode-range="U+000D-FB02"
  />
<missing-glyph horiz-adv-x="698" 
d="M114 0v700h469v-700h-469zM160 43h379v613h-379v-613z" />
    <glyph glyph-name="fi" unicode="fi" horiz-adv-x="578" 
d="M482 492l1 -492h-48v450h-242v-450h-48v450h-125v42h125v78q0 130 135 130h73v-44h-74q-86 0 -86 -86v-78h289zM434 700h50v-95h-50v95z" />
    <glyph glyph-name="fl" unicode="fl" horiz-adv-x="574" 
d="M479 700v-700h-47v656h-153q-86 0 -86 -86v-78h143v-42h-143v-450h-48v450h-125v42h125v78q0 130 135 130h199z" />
    <glyph glyph-name="f_f" unicode="ff" horiz-adv-x="670" 
d="M509 570v-78h143v-42h-143v-450h-48v450h-268v-450h-48v450h-125v42h125v78q0 130 135 130h73v-44h-74q-86 0 -86 -86v-78h268v78q0 130 135 130h72v-44h-73q-86 0 -86 -86z" />
    <glyph glyph-name="f_f_i" unicode="ffi" horiz-adv-x="927" 
d="M832 492l1 -492h-49v450h-275v-450h-48v450h-268v-450h-48v450h-125v42h125v78q0 130 135 130h73v-44h-74q-86 0 -86 -86v-78h268v78q0 130 135 130h72v-44h-73q-86 0 -86 -86v-78h323zM783 700h50v-95h-50v95z" />
    <glyph glyph-name="f_f_l" unicode="ffl" horiz-adv-x="920" 
d="M825 700v-700h-47v656h-183q-86 0 -86 -86v-78h143v-42h-143v-450h-48v450h-268v-450h-48v450h-125v42h125v78q0 130 135 130h73v-44h-74q-86 0 -86 -86v-78h268v78q0 130 135 130h229z" />
    <glyph glyph-name=".notdef" horiz-adv-x="698" 
d="M114 0v700h469v-700h-469zM160 43h379v613h-379v-613z" />
    <glyph glyph-name=".null" horiz-adv-x="0" 
 />
    <glyph glyph-name="nonmarkingreturn" horiz-adv-x="333" 
 />
    <glyph glyph-name="CR" unicode="&#xd;" horiz-adv-x="280" 
 />
    <glyph glyph-name="space" unicode=" " horiz-adv-x="280" 
 />
    <glyph glyph-name="exclam" unicode="!" horiz-adv-x="260" 
d="M117 194l-12 327v179h50v-180l-12 -326h-26zM94 0v98h73v-98h-73z" />
    <glyph glyph-name="quotedbl" unicode="&#x22;" horiz-adv-x="364" 
d="M86 478l-10 162v60h49v-60l-10 -162h-29zM248 478l-10 162v60h49v-60l-10 -162h-29z" />
    <glyph glyph-name="numbersign" unicode="#" horiz-adv-x="686" 
d="M131 0l28 134q6 31 13.5 45.5t26.5 30.5l-17 25q-26 -17 -72 -17h-69v43h145l38 187h-133v44h142l44 208h46l-26 -124q-6 -32 -13.5 -46t-26.5 -30l17 -26q17 12 30 15t41 3h123l43 208h47l-25 -124q-7 -32 -14.5 -46t-26.5 -30l18 -26q24 18 71 18h65v-44h-140l-39 -187
h128v-43h-137l-45 -218h-47l29 134q6 31 13.5 45.5t26.5 30.5l-18 25q-24 -17 -71 -17h-123l-45 -218h-47zM232 261h188l39 187h-188z" />
    <glyph glyph-name="dollar" unicode="$" horiz-adv-x="582" 
d="M266 -109v97q-84 7 -143.5 51.5t-83.5 120.5l47 24q18 -63 66 -102t114 -46v309l-33 10q-81 25 -122.5 66t-41.5 110q0 78 54.5 126.5t142.5 54.5v93h44v-93q86 -6 141.5 -51t68.5 -97l-46 -23q-13 44 -53.5 81t-110.5 44v-281l50 -16q173 -53 173 -188
q0 -84 -59.5 -136.5t-163.5 -56.5v-97h-44zM266 396v152q0 49 4 73.5t17 43.5l-15 21q-72 -13 -113.5 -51.5t-41.5 -100.5q0 -54 33.5 -84t115.5 -54zM482 179q0 60 -38.5 94t-133.5 61v-182q0 -80 -21 -115l15 -21q73 8 125.5 51.5t52.5 111.5z" />
    <glyph glyph-name="percent" unicode="%" horiz-adv-x="833" 
d="M143 0l495 700h52l-493 -700h-54zM473 201q0 89 43.5 144.5t113.5 55.5t112.5 -55t42.5 -145q0 -96 -41.5 -151t-113.5 -55t-114.5 55.5t-42.5 150.5zM739 201q0 72 -30 116t-79 44q-50 0 -81 -44t-31 -116q0 -76 31 -121.5t81 -45.5q49 0 79 45.5t30 121.5zM47 507
q0 89 43.5 144.5t113.5 55.5t112.5 -55t42.5 -145q0 -96 -41.5 -151t-113.5 -55t-114.5 55.5t-42.5 150.5zM313 507q0 72 -30 116t-79 44q-50 0 -81 -44t-31 -116q0 -76 31 -121.5t81 -45.5q49 0 79 45.5t30 121.5z" />
    <glyph glyph-name="ampersand" unicode="&#x26;" horiz-adv-x="645" 
d="M55 169q0 60 31 107.5t103 94.5q-50 92 -50 176q0 77 44 121.5t110 44.5q65 0 106.5 -39.5t41.5 -98.5q0 -68 -52.5 -120.5t-152.5 -81.5l-2 -31q29 -16 84 -77l16 -17q50 -56 124 -114q50 76 70 188l46 -18q-20 -108 -78 -197q63 -43 132 -78l-21 -41q-66 31 -139 84
q-79 -85 -207 -85q-96 0 -151 51.5t-55 130.5zM229 394l33 20q133 74 133 162q0 38 -27.5 66.5t-75.5 28.5t-77.5 -33.5t-29.5 -89.5q0 -72 44 -154zM444 86v27q-74 28 -165 129q-32 37 -68 91q-107 -71 -107 -159q0 -67 45 -105.5t115 -38.5q98 0 180 56z" />
    <glyph glyph-name="quotesingle" unicode="'" horiz-adv-x="201" 
d="M86 478l-10 162v60h49v-60l-10 -162h-29z" />
    <glyph glyph-name="parenleft" unicode="(" horiz-adv-x="305" 
d="M62 304q0 383 215 461v-49q-81 -30 -125.5 -136.5t-44.5 -273.5q0 -171 44.5 -279.5t125.5 -137.5v-49q-215 68 -215 464z" />
    <glyph glyph-name="parenright" unicode=")" horiz-adv-x="305" 
d="M244 301q0 -383 -216 -461v49q81 30 125.5 136.5t44.5 273.5q0 171 -44.5 279.5t-125.5 137.5v49q216 -69 216 -464z" />
    <glyph glyph-name="asterisk" unicode="*" horiz-adv-x="501" 
d="M175 418l-41 25l27 44q37 61 72 87l-13 25q-40 -17 -109 -17h-56v44l159 -3l-83 137l40 24l19 -35q43 -82 47 -119h26q1 36 50 125l16 29l40 -23l-84 -139l161 4v-45h-55q-70 0 -110 18l-14 -25q38 -28 72 -87l27 -43l-42 -25l-74 139z" />
    <glyph glyph-name="plus" unicode="+" horiz-adv-x="610" 
d="M282 82v247h-241v47h241v248h47v-248h240v-47h-240v-247h-47z" />
    <glyph glyph-name="comma" unicode="," horiz-adv-x="242" 
d="M64 -116l61 116h-39v98h74v-98l-58 -116h-38z" />
    <glyph glyph-name="hyphen" unicode="-" horiz-adv-x="382" 
d="M78 282v52h226v-52h-226z" />
    <glyph glyph-name="period" unicode="." horiz-adv-x="230" 
d="M78 0v98h74v-98h-74z" />
    <glyph glyph-name="slash" unicode="/" horiz-adv-x="399" 
d="M39 -109l274 918h48l-275 -918h-47z" />
    <glyph glyph-name="zero" unicode="0" horiz-adv-x="683" 
d="M68 356q0 167 78 262t197 95q118 0 194.5 -95t76.5 -262q0 -174 -74.5 -271.5t-196.5 -97.5t-198.5 98.5t-76.5 270.5zM562 356q0 137 -59 224t-160 87q-103 0 -162.5 -87t-59.5 -224q0 -144 58.5 -233.5t163.5 -89.5q103 0 161 90t58 233z" />
    <glyph glyph-name="one" unicode="1" horiz-adv-x="392" 
d="M226 0v514q0 60 16 104h-32q-48 -113 -177 -150v53q138 48 210 179h33v-700h-50z" />
    <glyph glyph-name="two" unicode="2" horiz-adv-x="558" 
d="M64 0v61q139 84 253 195q116 113 116 240q0 81 -46 126t-116 45q-66 0 -113 -46.5t-46 -136.5l-50 8q0 103 59 162t150 59q97 0 155.5 -59t58.5 -153q0 -100 -62 -187q-91 -135 -313 -264l17 -28q41 25 103 25h269v-47h-435z" />
    <glyph glyph-name="three" unicode="3" horiz-adv-x="576" 
d="M57 196l53 12q-1 -78 48.5 -126.5t129.5 -48.5q73 0 120.5 42t47.5 110q0 69 -49.5 112t-125.5 43h-56v46h56q65 0 110.5 39.5t45.5 102.5t-43 101t-110 38q-68 0 -111 -42t-44 -111l-52 13q3 80 61 133t146 53q93 0 149.5 -51.5t56.5 -128.5q0 -62 -40 -103t-97 -51v-29
q65 -6 110.5 -52t45.5 -118q0 -80 -58.5 -136.5t-162.5 -56.5q-103 0 -165.5 56.5t-65.5 152.5z" />
    <glyph glyph-name="four" unicode="4" horiz-adv-x="564" 
d="M362 0v204h-329v54l295 442h84v-452h115v-44h-115v-204h-50zM362 248v298q0 61 25 106l-27 16l-280 -420l-3 -4l23 -19q29 23 87 23h175z" />
    <glyph glyph-name="five" unicode="5" horiz-adv-x="582" 
d="M59 157l52 20q11 -71 59 -107.5t121 -36.5q76 0 126 50t50 132q0 85 -47.5 133t-128.5 48q-102 0 -159 -91l-59 10l54 385h371v-47h-332l-21 -158q-16 -102 -41 -150h34q50 96 161 96q104 0 163 -61.5t59 -162.5q0 -102 -64.5 -166t-164.5 -64q-99 0 -159.5 48t-73.5 122
z" />
    <glyph glyph-name="six" unicode="6" horiz-adv-x="598" 
d="M68 328q0 172 81.5 278t225.5 106q70 0 129 -22v-52q-66 26 -127 26q-131 0 -201.5 -99t-72.5 -267h30q13 60 63 103.5t125 43.5q101 0 161 -65.5t60 -158.5q0 -96 -62 -165t-167 -69q-110 0 -177.5 83.5t-67.5 257.5zM488 217q0 83 -50.5 133t-124.5 50
q-72 0 -123.5 -52t-51.5 -131q0 -80 51.5 -132t123.5 -52q74 0 124.5 50.5t50.5 133.5z" />
    <glyph glyph-name="seven" unicode="7" horiz-adv-x="501" 
d="M429 645l10 9l-17 25q-38 -26 -126 -26h-268v47h455v-50q-120 -103 -182 -207q-63 -105 -84 -209q-20 -106 -20 -234h-57q0 426 289 645z" />
    <glyph glyph-name="eight" unicode="8" horiz-adv-x="599" 
d="M67 181q0 71 45.5 117t115.5 54v28q-62 10 -101 49.5t-39 105.5q0 78 58.5 128t153.5 50t153.5 -50t58.5 -128q0 -66 -39.5 -105.5t-97.5 -49.5v-28q69 -9 113.5 -54.5t44.5 -116.5q0 -82 -60 -138t-173 -56q-114 0 -173.5 56t-59.5 138zM459 532q0 61 -44.5 98
t-114.5 37q-69 0 -114.5 -37t-45.5 -98q0 -64 45.5 -103t114.5 -39t114 39t45 103zM479 184q0 68 -50 112t-129 44q-77 0 -128 -44.5t-51 -111.5q0 -68 48.5 -109.5t130.5 -41.5t130.5 41.5t48.5 109.5z" />
    <glyph glyph-name="nine" unicode="9" horiz-adv-x="603" 
d="M97 22v53q63 -38 145 -38q143 0 208 134q43 88 43 213h-31q-19 -61 -70 -96t-114 -35q-104 0 -162 64t-58 158q0 100 59.5 169t168.5 69q96 0 161 -62q87 -81 87 -274q0 -182 -78 -286t-212 -104q-91 0 -147 35zM466 483q0 82 -51.5 133t-127.5 51q-77 0 -127.5 -49.5
t-50.5 -134.5t50.5 -134.5t127.5 -49.5q76 0 127.5 51t51.5 133z" />
    <glyph glyph-name="colon" unicode=":" horiz-adv-x="230" 
d="M78 375v98h74v-98h-74zM78 0v98h74v-98h-74z" />
    <glyph glyph-name="semicolon" unicode=";" horiz-adv-x="262" 
d="M99 375v98h74v-98h-74zM77 -116l61 116h-39v98h74v-98l-58 -116h-38z" />
    <glyph glyph-name="less" unicode="&#x3c;" horiz-adv-x="651" 
d="M575 625v-55l-401 -174q-59 -26 -103 -28v-31q45 0 103 -25l401 -176v-56l-536 238v71z" />
    <glyph glyph-name="equal" unicode="=" horiz-adv-x="703" 
d="M83 429v47h538v-47h-538zM83 229v47h538v-47h-538z" />
    <glyph glyph-name="greater" unicode="&#x3e;" horiz-adv-x="651" 
d="M76 80v54l401 175q60 25 103 27v31q-45 0 -103 25l-401 176v57l536 -239v-71z" />
    <glyph glyph-name="question" unicode="?" horiz-adv-x="458" 
d="M258 369q64 57 85.5 90.5t21.5 79.5q0 57 -37.5 92.5t-98.5 35.5q-67 0 -104 -46.5t-34 -128.5l-49 8q-3 95 49 153t138 58q80 0 133.5 -48t53.5 -123q0 -55 -26 -97t-98 -107q-38 -35 -50 -61t-13 -81h-48q0 63 16.5 98t60.5 77zM169 0v98h74v-98h-74z" />
    <glyph glyph-name="at" unicode="@" horiz-adv-x="900" 
d="M57 295q-2 186 112.5 301t289.5 113q174 3 288 -105.5t112 -268.5q0 -110 -54.5 -179.5t-127.5 -69.5q-83 0 -83 77q0 7 1 14h-25q-15 -41 -48 -66.5t-82 -25.5q-75 0 -121.5 56t-46.5 152q0 95 47.5 153t120.5 58q102 0 131 -88h28q-16 41 -16 76h44v-311q0 -54 53 -54
q52 0 92.5 58.5t40.5 149.5q2 143 -98.5 238.5t-255.5 93.5q-157 0 -256.5 -101t-99.5 -271q0 -174 100 -273t265 -99q152 0 257 79l22 -39q-111 -82 -279 -82q-188 0 -299.5 110.5t-111.5 303.5zM587 298q0 79 -37 123t-99 44q-58 0 -95.5 -45.5t-37.5 -123.5
q0 -79 36.5 -124.5t94.5 -45.5q55 0 96.5 48t41.5 124z" />
    <glyph glyph-name="A" unicode="A" horiz-adv-x="659" 
d="M571 0l-80 217h-325l-81 -217h-55l265 700h69l264 -700h-57zM183 264h291l-107 290q-23 59 -23 111h-31q-1 -49 -23 -111z" />
    <glyph glyph-name="B" unicode="B" horiz-adv-x="692" 
d="M114 0v700h281q94 0 148 -47t54 -125q0 -63 -35.5 -99.5t-86.5 -46.5v-28q63 -7 107 -49.5t44 -115.5q0 -85 -57 -137t-148 -52h-307zM165 387h218q76 0 118 37t42 97q0 61 -40.5 96.5t-114.5 35.5h-223v-266zM165 47h249q73 0 116 42t43 106q0 63 -43.5 104t-120.5 41
h-244v-293z" />
    <glyph glyph-name="C" unicode="C" horiz-adv-x="729" 
d="M63 362q0 156 88.5 253.5t236.5 97.5q119 1 195.5 -63t96.5 -138l-51 -19q-19 67 -80.5 120t-160.5 53q-127 0 -199.5 -82.5t-72.5 -221.5q0 -142 74.5 -235t197.5 -93q187 0 246 183l51 -19q-30 -90 -104 -150.5t-193 -60.5q-149 -2 -238 106t-87 269z" />
    <glyph glyph-name="D" unicode="D" horiz-adv-x="719" 
d="M114 0v700h200q157 0 249 -94t92 -254q0 -164 -89 -258t-253 -94h-199zM165 47h136q148 0 225 79.5t77 225.5q0 142 -77.5 221.5t-223.5 79.5h-137v-606z" />
    <glyph glyph-name="E" unicode="E" horiz-adv-x="632" 
d="M114 0v700h469v-47h-418v-265h316v-46h-316v-295h418v-47h-469z" />
    <glyph glyph-name="F" unicode="F" horiz-adv-x="624" 
d="M114 0v700h488v-47h-437v-276h338v-47h-338v-330h-51z" />
    <glyph glyph-name="G" unicode="G" horiz-adv-x="781" 
d="M63 355q-3 155 94.5 257.5t243.5 100.5q67 1 122.5 -18.5t91.5 -52.5t59 -67.5t34 -71.5l-51 -20q-23 76 -87 129t-170 53q-126 0 -205 -84.5t-79 -224.5q0 -143 76 -232.5t203 -89.5q112 0 182.5 70.5t75.5 178.5h-264v47h316v-330h-50q0 55 5 92q5 25 17 73h-32
q-27 -74 -87 -127q-58 -51 -172 -51q-147 0 -235 103t-88 265z" />
    <glyph glyph-name="H" unicode="H" horiz-adv-x="769" 
d="M114 0v700h51v-312h439v312h50v-700h-50v341h-439v-341h-51z" />
    <glyph glyph-name="I" unicode="I" horiz-adv-x="279" 
d="M114 0v700h51v-700h-51z" />
    <glyph glyph-name="J" unicode="J" horiz-adv-x="479" 
d="M32 180q0 14 1 26l51 16q-1 -12 -1 -35q0 -76 32.5 -115t85.5 -39q121 0 121 168v499h50v-509q0 -98 -42.5 -151t-127.5 -53q-78 0 -124 50.5t-46 142.5z" />
    <glyph glyph-name="K" unicode="K" horiz-adv-x="659" 
d="M591 0l-302 369l-124 -130v-239h-51v700h51v-253q0 -87 -28 -132l21 -18l378 403h68l-280 -294l334 -406h-67z" />
    <glyph glyph-name="L" unicode="L" horiz-adv-x="562" 
d="M114 0v700h51v-652h382v-48h-433z" />
    <glyph glyph-name="M" unicode="M" horiz-adv-x="908" 
d="M114 0v700h91l206 -509q28 -66 29 -131h31q1 61 29 132l204 508h89v-700h-50v492q0 98 26 154l-31 13l-265 -659h-36l-268 660l-30 -13q26 -55 26 -154v-493h-51z" />
    <glyph glyph-name="N" unicode="N" horiz-adv-x="781" 
d="M114 0v700h82l419 -647l27 17q-17 29 -21 55q-5 30 -5 79v496h51v-700h-75l-424 655l-27 -17q24 -49 24 -140v-498h-51z" />
    <glyph glyph-name="O" unicode="O" horiz-adv-x="796" 
d="M62 352q-3 156 95.5 259.5t240.5 101.5q142 2 240.5 -101.5t96.5 -259.5q2 -157 -96.5 -262t-240.5 -103q-141 -2 -240 103.5t-96 261.5zM681 352q2 131 -80 223.5t-203 90.5q-123 0 -203 -90.5t-80 -223.5q-2 -134 80 -227t203 -91q121 -2 203 91t80 227z" />
    <glyph glyph-name="P" unicode="P" horiz-adv-x="630" 
d="M114 0v700h258q103 0 161 -56t58 -144q0 -90 -58.5 -145.5t-163.5 -55.5h-204v-299h-51zM165 344h196q86 0 131.5 44.5t45.5 111.5t-44.5 110t-132.5 43h-196v-309z" />
    <glyph glyph-name="Q" unicode="Q" horiz-adv-x="808" 
d="M62 352q-3 156 95.5 259.5t240.5 101.5q142 2 240.5 -101.5t96.5 -259.5q0 -145 -85 -248q29 -39 57.5 -53.5t81.5 -14.5v-49q-68 0 -105 23.5t-53 73.5h-29q-79 -97 -204 -97q-141 -2 -240 103.5t-96 261.5zM585 109l-46 73q-33 46 -65 68.5t-77 22.5q-9 0 -18 -1v50
q8 1 24 1q83 0 138 -73q38 -48 58 -118h27q55 95 55 220q2 131 -80 223.5t-203 90.5q-123 0 -203 -90.5t-80 -223.5q-2 -134 80 -227t203 -91q110 0 187 75z" />
    <glyph glyph-name="R" unicode="R" horiz-adv-x="669" 
d="M114 0v700h263q94 0 153 -53t59 -137q0 -64 -41 -108.5t-103 -53.5v-30q53 -3 80.5 -33t42.5 -93l44 -192h-55l-41 187q-14 66 -50.5 95t-112.5 29h-188v-311h-51zM165 357h205q74 0 120 40t46 109q0 67 -46.5 107t-118.5 40h-206v-296z" />
    <glyph glyph-name="S" unicode="S" horiz-adv-x="604" 
d="M47 161l49 24q21 -68 77 -109t132 -41q85 0 136 39t51 104q0 108 -145 146l-103 29q-166 46 -166 178q0 82 62.5 132t158.5 50q95 0 154 -45.5t80 -103.5l-47 -23q-18 46 -63 85q-44 40 -128 40q-73 0 -120 -36t-47 -96q0 -51 33.5 -82.5t109.5 -52.5l98 -27
q176 -49 176 -191q0 -87 -65 -140.5t-177 -53.5q-95 0 -160.5 45.5t-95.5 128.5z" />
    <glyph glyph-name="T" unicode="T" horiz-adv-x="611" 
d="M273 0v653h-259v47h583v-47h-274v-653h-50z" />
    <glyph glyph-name="U" unicode="U" horiz-adv-x="683" 
d="M104 259v441h50v-431q0 -233 189 -233q185 0 185 233v431h50v-441q0 -132 -59.5 -202t-175.5 -70q-115 0 -177 70t-62 202z" />
    <glyph glyph-name="V" unicode="V" horiz-adv-x="624" 
d="M273 0l-228 700h55l165 -512q31 -92 31 -149h31q0 51 29 141l170 520h53l-230 -700h-76z" />
    <glyph glyph-name="W" unicode="W" horiz-adv-x="952" 
d="M222 0l-171 700h53l115 -482q25 -104 26 -176h30q1 73 32 175l141 483h57l142 -498q29 -97 30 -160h31q0 82 23 178l121 480h51l-176 -700h-71l-143 498q-12 40 -17 78q-3 23 -5 77h-31q0 -87 -22 -155l-145 -498h-71z" />
    <glyph glyph-name="X" unicode="X" horiz-adv-x="607" 
d="M22 0l250 361l-233 339h60l146 -213q38 -56 42 -104h30q1 40 45 103l147 214h60l-236 -338l252 -362h-63l-162 237q-40 60 -41 104h-30q-1 -41 -43 -104l-163 -237h-61z" />
    <glyph glyph-name="Y" unicode="Y" horiz-adv-x="636" 
d="M293 0v306l-249 394h60l161 -259q40 -63 40 -107h30q0 45 39 109l156 257h60l-246 -394v-306h-51z" />
    <glyph glyph-name="Z" unicode="Z" horiz-adv-x="584" 
d="M36 0v67l452 589l-21 23q-34 -26 -121 -26h-283v47h475v-60l-458 -596l21 -22q22 15 43 19q24 6 77 6h331v-47h-516z" />
    <glyph glyph-name="bracketleft" unicode="[" horiz-adv-x="323" 
d="M107 -150v905h186v-42h-139v-821h139v-42h-186z" />
    <glyph glyph-name="backslash" unicode="\" horiz-adv-x="400" 
d="M313 -109l-275 918h49l274 -918h-48z" />
    <glyph glyph-name="bracketright" unicode="]" horiz-adv-x="323" 
d="M216 755v-905h-187v42h140v821h-140v42h187z" />
    <glyph glyph-name="asciicircum" unicode="^" horiz-adv-x="474" 
d="M56 336l150 364h60l153 -364h-52l-88 214q-28 73 -29 117h-30q-1 -52 -27 -119l-84 -212h-53z" />
    <glyph glyph-name="underscore" unicode="_" horiz-adv-x="564" 
d="M50 -118v46h464v-46h-464z" />
    <glyph glyph-name="grave" unicode="`" horiz-adv-x="273" 
d="M150 566l-103 122h69l69 -122h-35z" />
    <glyph glyph-name="a" unicode="a" horiz-adv-x="532" 
d="M60 119q0 90 90.5 141t233.5 57v28q0 53 -34 84t-98 31q-120 0 -155 -97l-45 18q15 51 66 87t134 36q91 0 135.5 -45t44.5 -117v-247q0 -52 45 -52h44v-43h-37q-46 0 -65 22.5t-18 81.5h-26q-44 -117 -165 -117q-70 0 -110 35.5t-40 96.5zM384 220v59q-123 -8 -199 -48.5
t-76 -109.5q0 -42 29.5 -66.5t80.5 -24.5q67 0 116 48.5t49 141.5z" />
    <glyph glyph-name="b" unicode="b" horiz-adv-x="570" 
d="M148 112h-33l4 -11q20 -55 20 -101h-44v700h47v-189q0 -43 -6 -68t-21 -63h33q18 55 60 89.5t103 34.5q86 0 144 -68.5t58 -189.5t-58 -190t-144 -69q-62 0 -103 35t-60 90zM463 246q0 106 -45 160t-116 54q-72 0 -117.5 -55t-45.5 -159t45.5 -159.5t117.5 -55.5
q71 0 116 55t45 160z" />
    <glyph glyph-name="c" unicode="c" horiz-adv-x="517" 
d="M56 247q0 112 61 184.5t156 72.5q76 0 127.5 -39.5t67.5 -97.5l-46 -15q-15 49 -53.5 78.5t-95.5 29.5q-71 0 -119 -56.5t-48 -156.5q0 -102 47.5 -159t121.5 -57q63 0 102 36.5t52 90.5l46 -16q-20 -70 -72.5 -112.5t-127.5 -42.5q-98 0 -158.5 71t-60.5 189z" />
    <glyph glyph-name="d" unicode="d" horiz-adv-x="570" 
d="M57 246q0 121 58.5 189.5t143.5 68.5q61 0 103 -34.5t60 -89.5h33q-15 38 -21 63q-6 26 -6 68v189h47v-700h-44q0 31 5 54q7 25 19 58h-33q-19 -55 -60 -90t-103 -35q-85 0 -143.5 69t-58.5 190zM431 246q0 104 -45.5 159t-117.5 55q-71 0 -116.5 -54.5t-45.5 -159.5
t45.5 -160t116.5 -55q72 0 117.5 55.5t45.5 159.5z" />
    <glyph glyph-name="e" unicode="e" horiz-adv-x="527" 
d="M57 255q0 114 60 181.5t148 67.5q91 0 149 -64.5t58 -167.5q0 -7 -2 -29h-365q1 -109 47 -160.5t118 -51.5q59 0 99.5 32.5t55.5 77.5l44 -17q-19 -58 -73.5 -97.5t-126.5 -39.5q-99 0 -155.5 69t-56.5 199zM105 285h317q0 83 -45.5 130t-111.5 47q-69 0 -112 -49.5
t-48 -127.5z" />
    <glyph glyph-name="f" unicode="f" horiz-adv-x="354" 
d="M145 0v450h-125v42h125v78q0 130 135 130h73v-44h-74q-86 0 -86 -86v-78h143v-42h-143v-450h-48z" />
    <glyph glyph-name="g" unicode="g" horiz-adv-x="570" 
d="M39 -104q0 66 71 99v26q-47 16 -47 56q0 61 78 93v26q-62 50 -62 133q0 74 51 124.5t132 50.5q56 0 96.5 -26.5t58.5 -72.5h26q0 40 20 63.5t55 23.5h36v-43h-32q-34 0 -51.5 -15.5t-18.5 -66.5v-38q-1 -82 -54 -133t-134 -51q-53 0 -91 20q-28 -13 -46.5 -34.5
t-18.5 -42.5q0 -44 57 -44h224q65 0 104.5 -32t39.5 -88q0 -58 -38.5 -88.5t-97.5 -30.5h-239q-60 0 -89.5 24.5t-29.5 66.5zM404 324q0 60 -39.5 99t-99.5 39q-62 0 -100 -38.5t-38 -99.5q0 -60 38 -99t99 -39q62 0 101 39t39 99zM178 -152h213q93 0 93 76t-103 76h-235
q-23 -11 -42.5 -36t-19.5 -52q0 -64 94 -64z" />
    <glyph glyph-name="h" unicode="h" horiz-adv-x="578" 
d="M95 0v700h47v-187q0 -82 -28 -142h32q17 53 55 93q39 40 112 40q88 0 133 -52.5t45 -143.5v-308h-49v296q0 80 -36 122t-102 42q-47 0 -81 -21t-50.5 -56t-23.5 -70.5t-7 -74.5v-238h-47z" />
    <glyph glyph-name="i" unicode="i" horiz-adv-x="238" 
d="M93 605v95h51v-95h-51zM95 0v492h47l1 -492h-48z" />
    <glyph glyph-name="j" unicode="j" horiz-adv-x="245" 
d="M101 605v95h50v-95h-50zM-37 -195v45h62q78 0 78 88v554h47v-559q0 -64 -31.5 -96t-88.5 -32h-67z" />
    <glyph glyph-name="k" unicode="k" horiz-adv-x="546" 
d="M475 0l-223 260l-110 -98v-162h-47v700h47v-353q0 -77 -27 -117l19 -19l313 281h67l-226 -201l249 -291h-62z" />
    <glyph glyph-name="l" unicode="l" horiz-adv-x="237" 
d="M95 0v700h47v-700h-47z" />
    <glyph glyph-name="m" unicode="m" horiz-adv-x="898" 
d="M95 0v492h46q0 -55 -23 -98h33q12 40 45 75q35 35 103 35q58 0 99 -34t52 -89h29q9 49 49 86t105 37q82 0 130 -50.5t48 -132.5v-321h-48v308q0 75 -36.5 113.5t-101.5 38.5t-98 -36q-51 -54 -51 -171v-253h-47v304q0 77 -36.5 116.5t-99.5 39.5q-67 0 -101 -36
q-30 -33 -40 -76.5t-10 -110.5v-237h-47z" />
    <glyph glyph-name="n" unicode="n" horiz-adv-x="578" 
d="M95 0v492h46q0 -59 -27 -121h32q17 53 55 93q39 40 112 40q88 0 133 -52.5t45 -143.5v-308h-49v296q0 80 -36 122t-102 42q-47 0 -81 -21t-50.5 -56t-23.5 -70.5t-7 -74.5v-238h-47z" />
    <glyph glyph-name="o" unicode="o" horiz-adv-x="562" 
d="M55 245q0 118 66.5 188.5t159.5 70.5t159.5 -70.5t66.5 -188.5q0 -117 -67 -187.5t-159 -70.5t-159 70.5t-67 187.5zM457 245q0 100 -50.5 157.5t-125.5 57.5t-125.5 -57.5t-50.5 -157.5q0 -101 50 -157.5t126 -56.5q75 0 125.5 56.5t50.5 157.5z" />
    <glyph glyph-name="p" unicode="p" horiz-adv-x="570" 
d="M95 -195v687h44q0 -33 -6 -54q-4 -20 -18 -58h33q19 55 60 89.5t103 34.5q86 0 144 -69t58 -189q0 -121 -58 -190t-144 -69q-61 0 -103 35t-60 90h-33l4 -10q13 -39 17 -60q6 -23 6 -62v-175h-47zM463 245q0 106 -45 160.5t-116 54.5q-72 0 -117.5 -55.5t-45.5 -159.5
q0 -103 45.5 -158.5t117.5 -55.5q71 0 116 55t45 159z" />
    <glyph glyph-name="q" unicode="q" horiz-adv-x="570" 
d="M428 -195v175q0 29 3 50q4 27 24 82h-33q-18 -55 -60 -90t-103 -35q-85 0 -143.5 69t-58.5 190q0 120 58.5 189t143.5 69q62 0 103 -34.5t60 -89.5h33q0 1 -1.5 4.5t-4 9t-4.5 11.5q-14 45 -14 87h44v-687h-47zM431 245q0 104 -45.5 159.5t-117.5 55.5
q-71 0 -116.5 -54.5t-45.5 -160.5q0 -104 45.5 -159t116.5 -55q72 0 117.5 55.5t45.5 158.5z" />
    <glyph glyph-name="r" unicode="r" horiz-adv-x="389" 
d="M95 0v492h46q0 -47 -27 -132h33q34 138 155 138q40 0 68 -9v-48q-46 8 -69 8q-80 0 -119.5 -62.5t-39.5 -161.5v-225h-47z" />
    <glyph glyph-name="s" unicode="s" horiz-adv-x="479" 
d="M46 127l47 16q8 -48 47.5 -80.5t101.5 -32.5q66 0 101.5 25t35.5 68q0 75 -106 100l-68 16q-66 16 -102 46t-36 84q0 58 48 96.5t122 38.5q73 0 118 -33t60 -85l-44 -17q-9 37 -43.5 65t-90.5 28q-57 0 -90 -25.5t-33 -61.5q0 -65 92 -86l68 -17q154 -36 154 -147
q0 -62 -47.5 -100t-138.5 -38q-81 0 -133 39.5t-63 100.5z" />
    <glyph glyph-name="t" unicode="t" horiz-adv-x="372" 
d="M144 126v324h-127v42h127v145h47v-145h144v-42h-144v-320q0 -87 87 -87h75v-43h-75q-134 0 -134 126z" />
    <glyph glyph-name="u" unicode="u" horiz-adv-x="569" 
d="M87 180v312h48v-299q0 -162 134 -162q77 0 117 62.5t40 161.5v237h48v-492h-46q0 55 25 121h-31q-17 -53 -53 -93q-36 -41 -108 -41q-86 0 -130 50.5t-44 142.5z" />
    <glyph glyph-name="v" unicode="v" horiz-adv-x="509" 
d="M225 0l-190 492h51l122 -319q29 -73 35 -137h28q6 62 31 135l117 321h50l-181 -492h-63z" />
    <glyph glyph-name="w" unicode="w" horiz-adv-x="808" 
d="M205 0l-168 492h50l101 -299q31 -97 32 -153h29q1 51 33 153l94 299h56l97 -308q27 -87 30 -144h29q5 74 32 153l101 299h51l-169 -492h-61l-95 300q-27 87 -28 147h-30q-1 -63 -28 -147l-97 -300h-59z" />
    <glyph glyph-name="x" unicode="x" horiz-adv-x="465" 
d="M26 0l177 254l-162 238h56l83 -122q30 -47 37 -94h28q4 41 40 93l84 123h56l-164 -237l177 -255h-59l-94 137q-34 51 -39 96h-27q-7 -44 -41 -96l-96 -137h-56z" />
    <glyph glyph-name="y" unicode="y" horiz-adv-x="499" 
d="M409 492h51l-204 -568q-24 -67 -54 -93t-94 -26h-67v45h67q40 0 62.5 16t38.5 61l33 90l-214 475h54l135 -303q30 -70 31 -121h29q1 52 24 117z" />
    <glyph glyph-name="z" unicode="z" horiz-adv-x="474" 
d="M45 0v53l322 397l-20 21q-26 -23 -84 -23h-213v44h372v-47l-327 -403l20 -21q27 22 89 22h232l1 -43h-392z" />
    <glyph glyph-name="braceleft" unicode="{" horiz-adv-x="316" 
d="M132 -25v138v26q-1 34 -2.5 52t-7.5 37.5t-17.5 28t-32 15t-51.5 7.5v45q31 1 51.5 7.5t32 15t17.5 28t7.5 37.5t2.5 52v26v140q0 125 103 125h48v-42h-42q-62 0 -62 -76v-162q0 -79 -16.5 -112.5t-76.5 -46.5v-29q60 -13 76.5 -46.5t16.5 -112.5v-160q0 -76 62 -76h42
v-42h-48q-103 0 -103 125z" />
    <glyph glyph-name="bar" unicode="|" horiz-adv-x="260" 
d="M107 -109v918h46v-918h-46z" />
    <glyph glyph-name="braceright" unicode="}" horiz-adv-x="316" 
d="M184 629v-138v-26q1 -80 19.5 -108.5t90.5 -31.5v-46q-72 -3 -90.5 -31t-19.5 -108v-27v-140q0 -124 -103 -124h-48v42h42q62 0 62 76v162q0 79 16 112.5t77 46.5v28q-61 13 -77 46.5t-16 112.5v160q0 40 -15 58t-47 18h-42v42h48q103 0 103 -124z" />
    <glyph glyph-name="asciitilde" unicode="~" horiz-adv-x="648" 
d="M333 346l-30 13q-57 25 -89 25q-50 0 -101 -54l-30 37q58 67 135 67q37 0 100 -27l30 -13q57 -25 89 -25q51 0 102 54l30 -37q-61 -67 -136 -67q-34 0 -100 27z" />
    <glyph glyph-name="uni00A0" unicode="&#xa0;" horiz-adv-x="280" 
 />
    <glyph glyph-name="exclamdown" unicode="&#xa1;" horiz-adv-x="249" 
d="M161 538v-98h-73v98h73zM138 344l11 -327v-179h-49v181l12 325h26z" />
    <glyph glyph-name="cent" unicode="&#xa2;" horiz-adv-x="519" 
d="M249 -120v109q-87 9 -138 78t-51 179q0 104 52.5 176.5t136.5 79.5v105h42v-103q66 -5 110.5 -41.5t63.5 -93.5l-45 -15q-33 98 -129 105v-304q0 -53 -4 -79.5t-17 -45.5l14 -19q52 12 90 52.5t53 94.5l47 -16q-45 -144 -183 -154v-108h-42zM249 34v298q0 53 4 80t18 46
l-15 20q-67 -19 -106.5 -78.5t-39.5 -153.5q0 -93 37.5 -148t101.5 -64z" />
    <glyph glyph-name="sterling" unicode="&#xa3;" horiz-adv-x="573" 
d="M276 47h241v-47h-452v47q20 4 52 20q35 17 59.5 50.5t24.5 80.5q0 61 -38 124h-96v44h68q-51 76 -51 141q0 93 63.5 148.5t150.5 55.5t149 -49.5t72 -139.5l-49 -17q-11 80 -57 120.5t-117 40.5q-66 0 -113 -43.5t-47 -115.5q1 -22 3.5 -38t12.5 -36.5t14.5 -28
t23.5 -38.5h202v-44h-175q32 -58 32 -119q0 -101 -112 -148l15 -31q54 23 124 23z" />
    <glyph glyph-name="currency" unicode="&#xa4;" horiz-adv-x="643" 
d="M105 103l-30 31l80 81q-42 56 -42 137q0 82 43 137l-81 82l30 31l82 -81q56 48 135 48q77 0 134 -48l82 81l30 -31l-81 -82q43 -57 43 -137q0 -82 -43 -137l81 -81l-30 -31l-82 80q-57 -48 -134 -48q-79 0 -135 48zM482 352q0 78 -45.5 125t-114.5 47t-115 -47t-46 -125
q0 -79 45.5 -125.5t115.5 -46.5q69 0 114.5 47t45.5 125z" />
    <glyph glyph-name="yen" unicode="&#xa5;" horiz-adv-x="618" 
d="M586 700l-219 -343h138v-44h-166v-107h166v-44h-166v-162h-49v162h-176v44h176v107h-176v44h147l-228 343h61l166 -258q40 -63 41 -108h30q1 54 36 109l159 257h60z" />
    <glyph glyph-name="brokenbar" unicode="&#xa6;" horiz-adv-x="260" 
d="M107 396v413h46v-413h-46zM107 -109v415h46v-415h-46z" />
    <glyph glyph-name="section" unicode="&#xa7;" horiz-adv-x="583" 
d="M88 -70l48 20q29 -113 153 -113q61 0 100 33t39 85q0 88 -112 121l-131 40q-143 44 -143 157q0 54 35.5 91.5t98.5 49.5v29q-72 38 -72 113q0 68 50.5 112.5t133.5 44.5q86 0 137.5 -41t66.5 -96l-49 -21q-34 114 -155 114q-61 0 -97.5 -31t-36.5 -79q0 -47 24.5 -71.5
t87.5 -44.5l131 -40q69 -20 106.5 -60.5t37.5 -94.5q0 -55 -38.5 -94t-101.5 -50v-28q78 -40 78 -120q0 -72 -53.5 -117.5t-136.5 -45.5q-87 0 -137.5 39.5t-63.5 97.5zM490 239q0 89 -116 121l-119 35q-17 4 -35 12q-54 -11 -90.5 -44.5t-36.5 -80.5q0 -88 115 -123
l119 -34l35 -12q53 9 90.5 45t37.5 81z" />
    <glyph glyph-name="dieresis" unicode="&#xa8;" horiz-adv-x="632" 
d="M172 600v80h58v-80h-58zM346 600v80h59v-80h-59z" />
    <glyph glyph-name="copyright" unicode="&#xa9;" horiz-adv-x="884" 
d="M59 352q-2 102 49 192t141 143t194 51q104 2 193.5 -51t140 -142.5t48.5 -192.5q2 -158 -110.5 -272t-271.5 -111q-159 -3 -273 111.5t-111 271.5zM780 352q2 142 -96.5 245t-240.5 101q-143 2 -242.5 -101t-96.5 -245q-2 -143 96.5 -244t242.5 -99q142 -2 240.5 99
t96.5 244zM262 358q0 90 51 148.5t133 58.5q61 0 106 -34t59 -87l-39 -12q-15 45 -48.5 70.5t-78.5 25.5q-62 0 -100.5 -46t-38.5 -128q0 -81 38 -126t102 -45q49 0 83 31.5t47 77.5l41 -11q-19 -62 -63 -99t-109 -37q-84 0 -133.5 57t-49.5 156z" />
    <glyph glyph-name="ordfeminine" unicode="&#xaa;" horiz-adv-x="504" 
d="M61 501q0 102 48 155.5t121 53.5q101 0 134 -91h24q-13 52 -13 81h43v-401h-43q0 29 13 82h-24q-38 -92 -134 -92q-73 0 -121 55.5t-48 156.5zM377 500q0 84 -36.5 127t-98.5 43q-61 0 -97 -43t-36 -127q0 -81 36.5 -126t96.5 -45q61 0 98 44.5t37 126.5z" />
    <glyph glyph-name="guillemotleft" unicode="&#xab;" horiz-adv-x="476" 
d="M234 449l-126 -196l128 -198h-56l-127 197l128 197h53zM287 254l128 -199h-56l-126 197l127 197h54z" />
    <glyph glyph-name="logicalnot" unicode="&#xac;" horiz-adv-x="700" 
d="M563 178v158h-482v47h531v-205h-49z" />
    <glyph glyph-name="uni00AD" unicode="&#xad;" horiz-adv-x="382" 
d="M78 282v52h226v-52h-226z" />
    <glyph glyph-name="registered" unicode="&#xae;" horiz-adv-x="593" 
d="M59 503q0 101 68 168t169 67q100 0 169 -67t69 -168q0 -100 -69 -168t-169 -68q-99 0 -168 68.5t-69 167.5zM495 503q0 86 -57 142.5t-142 56.5q-86 0 -142 -56t-56 -143t56 -143.5t142 -56.5q85 0 142 56.5t57 143.5zM215 392v228h102q33 0 53 -15t20 -42
q0 -21 -15 -34.5t-41 -15.5v-18q38 -2 45 -38l14 -65h-40l-11 60q-5 22 -14.5 30.5t-30.5 8.5h-46v-99h-36zM251 521h59q19 0 30.5 9.5t11.5 25.5q0 15 -11.5 24t-30.5 9h-59v-68z" />
    <glyph glyph-name="macron" unicode="&#xaf;" horiz-adv-x="361" 
d="M21 597v40h298v-40h-298z" />
    <glyph glyph-name="degree" unicode="&#xb0;" horiz-adv-x="416" 
d="M56 608q0 64 43.5 108t108.5 44t108.5 -44t43.5 -108q0 -63 -44 -106.5t-109 -43.5q-66 0 -108.5 43.5t-42.5 106.5zM313 609q0 49 -29 79t-76 30t-76 -30.5t-29 -78.5q0 -50 29 -80t76 -30t76 30t29 80z" />
    <glyph glyph-name="plusminus" unicode="&#xb1;" horiz-adv-x="718" 
d="M335 229v172h-247v47h247v176h49v-176h246v-47h-246v-172h-49zM90 83v48h539v-48h-539z" />
    <glyph glyph-name="twosuperior" unicode="&#xb2;" horiz-adv-x="353" 
d="M52 398v41q62 42 101 75q98 82 98 160q0 39 -21.5 61.5t-57.5 22.5q-33 0 -55 -21.5t-22 -62.5q0 -13 1 -18l-46 9v12q0 53 34 87t88 34q56 0 90.5 -33.5t34.5 -88.5q0 -57 -37 -106q-47 -65 -166 -131l11 -20q15 8 22.5 11t23 5.5t40.5 2.5h113v-40h-252z" />
    <glyph glyph-name="threesuperior" unicode="&#xb3;" horiz-adv-x="359" 
d="M47 517l44 11q-2 -44 22 -70.5t66 -26.5q37 0 60 20.5t23 54.5t-24.5 55t-64.5 21h-36v39h36q35 0 56.5 19.5t21.5 50.5q0 30 -20.5 48.5t-52.5 18.5q-36 0 -57 -23t-19 -62l-45 11q0 49 34 81.5t87 32.5q52 0 85.5 -28.5t33.5 -73.5q0 -32 -21 -54.5t-54 -27.5v-22
q37 -1 61 -26.5t24 -62.5q0 -51 -35 -81t-92 -30q-61 0 -97.5 34t-35.5 91z" />
    <glyph glyph-name="acute" unicode="&#xb4;" horiz-adv-x="347" 
d="M174 566l70 122h69l-104 -122h-35z" />
    <glyph glyph-name="mu" unicode="&#xb5;" horiz-adv-x="597" 
d="M105 -195v687h48v-305q0 -77 36.5 -117t100.5 -40q76 0 114.5 63t38.5 162v237h48v-492h-47q0 53 25 121h-31q-42 -134 -157 -134q-85 0 -128 55v-237h-48z" />
    <glyph glyph-name="paragraph" unicode="&#xb6;" horiz-adv-x="572" 
d="M259 700h255v-42h-70v-854h-46v854h-116v-854h-46v519h-14q-74 0 -131 55t-57 130q0 88 64.5 140t160.5 52z" />
    <glyph glyph-name="periodcentered" unicode="&#xb7;" horiz-adv-x="230" 
d="M78 281v98h74v-98h-74z" />
    <glyph glyph-name="cedilla" unicode="&#xb8;" horiz-adv-x="318" 
d="M36 -155l25 30q31 -37 74 -37q58 0 58 43q0 18 -15.5 29t-38.5 11q-22 0 -41 -7l-19 24l60 69l35 -7l-24 -24q-15 -15 -26 -28q14 2 25 2q38 0 62 -19t24 -52q0 -35 -26.5 -56.5t-70.5 -21.5q-68 0 -102 44z" />
    <glyph glyph-name="onesuperior" unicode="&#xb9;" horiz-adv-x="263" 
d="M139 398v248q0 46 16 89h-23q-28 -72 -97 -84v42q77 24 116 98h32v-393h-44z" />
    <glyph glyph-name="ordmasculine" unicode="&#xba;" horiz-adv-x="479" 
d="M60 500q0 100 50.5 155t128.5 55t129 -55t51 -155q0 -99 -51 -155t-129 -56q-77 0 -128 56t-51 155zM370 500q0 82 -35 126t-96 44t-95.5 -44t-34.5 -126t34.5 -126t95.5 -44t96 44t35 126z" />
    <glyph glyph-name="guillemotright" unicode="&#xbb;" horiz-adv-x="477" 
d="M116 449l127 -198l-127 -196h-54l126 195l-127 199h55zM295 449l127 -198l-127 -196h-54l127 195l-128 199h55z" />
    <glyph glyph-name="onequarter" unicode="&#xbc;" horiz-adv-x="775" 
d="M146 307v248q0 46 16 89h-23q-28 -72 -97 -84v42q77 24 116 98h32v-393h-44zM74 0l495 700h52l-493 -700h-54zM633 0v110h-180v44l159 239h63v-244h62v-39h-62v-110h-42zM633 149v123q0 40 20 67l-20 13l-141 -209l18 -14q20 20 51 20h72z" />
    <glyph glyph-name="onehalf" unicode="&#xbd;" horiz-adv-x="760" 
d="M146 307v248q0 46 16 89h-23q-28 -72 -97 -84v42q77 24 116 98h32v-393h-44zM73 0l495 700h52l-493 -700h-54zM468 0v41q62 42 101 75q98 82 98 160q0 39 -21.5 61.5t-57.5 22.5q-33 0 -55 -21.5t-22 -62.5q0 -13 1 -18l-46 9v12q0 53 34 87t88 34q56 0 90.5 -33.5
t34.5 -88.5q0 -57 -37 -106q-47 -65 -166 -131l11 -20q15 8 22.5 11t23 5.5t40.5 2.5h113v-40h-252z" />
    <glyph glyph-name="threequarters" unicode="&#xbe;" horiz-adv-x="871" 
d="M48 426l44 11q-2 -44 22 -70.5t66 -26.5q37 0 60 20.5t23 54.5t-24.5 55t-64.5 21h-36v39h36q35 0 56.5 19.5t21.5 50.5q0 30 -20.5 48.5t-52.5 18.5q-36 0 -57 -23t-19 -62l-45 11q0 49 34 81.5t87 32.5q52 0 85.5 -28.5t33.5 -73.5q0 -32 -21 -54.5t-54 -27.5v-22
q37 -1 61 -26.5t24 -62.5q0 -51 -35 -81t-92 -30q-61 0 -97.5 34t-35.5 91zM170 0l495 700h52l-493 -700h-54zM730 0v110h-180v44l159 239h63v-244h62v-39h-62v-110h-42zM730 149v123q0 40 20 67l-20 13l-141 -209l18 -14q20 20 51 20h72z" />
    <glyph glyph-name="questiondown" unicode="&#xbf;" horiz-adv-x="455" 
d="M288 537v-98h-73v98h73zM199 168q-64 -59 -85 -91.5t-21 -78.5q0 -57 37.5 -92t97.5 -35q67 0 104.5 46.5t34.5 127.5l49 -8q3 -95 -49 -153t-139 -58q-81 0 -133.5 47.5t-52.5 124.5q0 55 25.5 96.5t97.5 106.5q38 34 49.5 60.5t13.5 81.5h48q0 -63 -16.5 -98t-60.5 -77
z" />
    <glyph glyph-name="Agrave" unicode="&#xc0;" horiz-adv-x="659" 
d="M571 0l-80 217h-325l-81 -217h-55l265 700h69l264 -700h-57zM183 264h291l-107 290q-23 59 -23 111h-31q-1 -49 -23 -111zM312 781l-114 122h75l77 -122h-38z" />
    <glyph glyph-name="Aacute" unicode="&#xc1;" horiz-adv-x="659" 
d="M571 0l-80 217h-325l-81 -217h-55l265 700h69l264 -700h-57zM183 264h291l-107 290q-23 59 -23 111h-31q-1 -49 -23 -111zM309 781l76 122h76l-114 -122h-38z" />
    <glyph glyph-name="Acircumflex" unicode="&#xc2;" horiz-adv-x="659" 
d="M571 0l-80 217h-325l-81 -217h-55l265 700h69l264 -700h-57zM183 264h291l-107 290q-23 59 -23 111h-31q-1 -49 -23 -111zM175 781l114 116h82l113 -116h-53l-101 86l-102 -86h-53z" />
    <glyph glyph-name="Atilde" unicode="&#xc3;" horiz-adv-x="659" 
d="M571 0l-80 217h-325l-81 -217h-55l265 700h69l264 -700h-57zM183 264h291l-107 290q-23 59 -23 111h-31q-1 -49 -23 -111zM338 803l-33 21q-35 22 -54 22q-48 0 -46 -59h-46q-1 47 24 73t68 26q34 0 76 -25l31 -21q36 -22 56 -22q47 0 47 57h46q1 -47 -23.5 -72.5
t-68.5 -25.5q-36 0 -77 26z" />
    <glyph glyph-name="Adieresis" unicode="&#xc4;" horiz-adv-x="659" 
d="M571 0l-80 217h-325l-81 -217h-55l265 700h69l264 -700h-57zM183 264h291l-107 290q-23 59 -23 111h-31q-1 -49 -23 -111zM198 781v80h64v-80h-64zM390 781v80h64v-80h-64z" />
    <glyph glyph-name="Aring" unicode="&#xc5;" horiz-adv-x="659" 
d="M571 0l-80 217h-325l-81 -217h-55l265 700h69l264 -700h-57zM183 264h291l-107 290q-23 59 -23 111h-31q-1 -49 -23 -111zM224 873q0 41 30 71.5t75 30.5q43 0 73 -30.5t30 -72.5q0 -44 -29.5 -74t-73.5 -30q-45 0 -75 30.5t-30 74.5zM392 872q0 26 -18 46.5t-45 20.5
q-28 0 -46 -20t-18 -46q0 -29 17.5 -49.5t46.5 -20.5q27 0 45 21t18 48z" />
    <glyph glyph-name="AE" unicode="&#xc6;" horiz-adv-x="923" 
d="M872 653h-365v-262h271v-47h-271v-297h365v-47h-414v217h-271l-134 -217h-60l437 700h442v-47zM470 665h-32q-4 -45 -46 -116l-176 -286h242v298q0 65 12 104z" />
    <glyph glyph-name="Ccedilla" unicode="&#xc7;" horiz-adv-x="729" 
d="M413 -12l-12 -12l-27 -28q16 2 25 2q39 0 62.5 -19t23.5 -52q0 -35 -26 -56.5t-70 -21.5q-66 0 -103 44l25 30q31 -37 75 -37q57 0 57 43q0 18 -15.5 29t-37.5 11q-23 0 -42 -7l-19 24l43 50q-144 6 -226.5 110.5t-82.5 263.5q0 156 88.5 253.5t236.5 97.5
q119 1 195.5 -63t96.5 -138l-51 -19q-19 67 -80.5 120t-160.5 53q-127 0 -199.5 -82.5t-72.5 -221.5q0 -142 74.5 -235t197.5 -93q187 0 246 183l51 -19q-30 -86 -96.5 -144.5t-175.5 -65.5z" />
    <glyph glyph-name="Egrave" unicode="&#xc8;" horiz-adv-x="632" 
d="M114 0v700h469v-47h-418v-265h316v-46h-316v-295h418v-47h-469zM331 781l-114 122h75l77 -122h-38z" />
    <glyph glyph-name="Eacute" unicode="&#xc9;" horiz-adv-x="632" 
d="M114 0v700h469v-47h-418v-265h316v-46h-316v-295h418v-47h-469zM327 781l76 122h76l-114 -122h-38z" />
    <glyph glyph-name="Ecircumflex" unicode="&#xca;" horiz-adv-x="632" 
d="M114 0v700h469v-47h-418v-265h316v-46h-316v-295h418v-47h-469zM194 781l114 116h82l113 -116h-53l-101 86l-102 -86h-53z" />
    <glyph glyph-name="Edieresis" unicode="&#xcb;" horiz-adv-x="632" 
d="M114 0v700h469v-47h-418v-265h316v-46h-316v-295h418v-47h-469zM217 781v80h64v-80h-64zM409 781v80h64v-80h-64z" />
    <glyph glyph-name="Igrave" unicode="&#xcc;" horiz-adv-x="279" 
d="M114 0v700h51v-700h-51zM122 781l-114 122h75l77 -122h-38z" />
    <glyph glyph-name="Iacute" unicode="&#xcd;" horiz-adv-x="279" 
d="M114 0v700h51v-700h-51zM118 781l76 122h76l-114 -122h-38z" />
    <glyph glyph-name="Icircumflex" unicode="&#xce;" horiz-adv-x="279" 
d="M114 0v700h51v-700h-51zM-15 781l114 116h82l113 -116h-53l-101 86l-102 -86h-53z" />
    <glyph glyph-name="Idieresis" unicode="&#xcf;" horiz-adv-x="279" 
d="M114 0v700h51v-700h-51zM8 781v80h64v-80h-64zM200 781v80h64v-80h-64z" />
    <glyph glyph-name="Eth" unicode="&#xd0;" horiz-adv-x="723" 
d="M660 352q0 -163 -89.5 -257.5t-253.5 -94.5h-198v334h-79v44h79v322h200q157 0 249 -94t92 -254zM607 352q0 141 -77.5 221t-222.5 80h-138v-275h177v-44h-177v-287h136q148 0 225 79.5t77 225.5z" />
    <glyph glyph-name="Ntilde" unicode="&#xd1;" horiz-adv-x="781" 
d="M114 0v700h82l419 -647l27 17q-17 29 -21 55q-5 30 -5 79v496h51v-700h-75l-424 655l-27 -17q24 -49 24 -140v-498h-51zM400 803l-33 21q-35 22 -54 22q-48 0 -46 -59h-46q-1 47 24 73t68 26q34 0 76 -25l31 -21q36 -22 56 -22q47 0 47 57h46q1 -47 -23.5 -72.5
t-68.5 -25.5q-36 0 -77 26z" />
    <glyph glyph-name="Ograve" unicode="&#xd2;" horiz-adv-x="796" 
d="M62 352q-3 156 95.5 259.5t240.5 101.5q142 2 240.5 -101.5t96.5 -259.5q2 -157 -96.5 -262t-240.5 -103q-141 -2 -240 103.5t-96 261.5zM681 352q2 131 -80 223.5t-203 90.5q-123 0 -203 -90.5t-80 -223.5q-2 -134 80 -227t203 -91q121 -2 203 91t80 227zM382 781
l-114 122h75l77 -122h-38z" />
    <glyph glyph-name="Oacute" unicode="&#xd3;" horiz-adv-x="796" 
d="M62 352q-3 156 95.5 259.5t240.5 101.5q142 2 240.5 -101.5t96.5 -259.5q2 -157 -96.5 -262t-240.5 -103q-141 -2 -240 103.5t-96 261.5zM681 352q2 131 -80 223.5t-203 90.5q-123 0 -203 -90.5t-80 -223.5q-2 -134 80 -227t203 -91q121 -2 203 91t80 227zM379 781
l76 122h76l-114 -122h-38z" />
    <glyph glyph-name="Ocircumflex" unicode="&#xd4;" horiz-adv-x="796" 
d="M62 352q-3 156 95.5 259.5t240.5 101.5q142 2 240.5 -101.5t96.5 -259.5q2 -157 -96.5 -262t-240.5 -103q-141 -2 -240 103.5t-96 261.5zM681 352q2 131 -80 223.5t-203 90.5q-123 0 -203 -90.5t-80 -223.5q-2 -134 80 -227t203 -91q121 -2 203 91t80 227zM245 781
l114 116h82l113 -116h-53l-101 86l-102 -86h-53z" />
    <glyph glyph-name="Otilde" unicode="&#xd5;" horiz-adv-x="796" 
d="M62 352q-3 156 95.5 259.5t240.5 101.5q142 2 240.5 -101.5t96.5 -259.5q2 -157 -96.5 -262t-240.5 -103q-141 -2 -240 103.5t-96 261.5zM681 352q2 131 -80 223.5t-203 90.5q-123 0 -203 -90.5t-80 -223.5q-2 -134 80 -227t203 -91q121 -2 203 91t80 227zM409 803
l-33 21q-35 22 -54 22q-48 0 -46 -59h-46q-1 47 24 73t68 26q34 0 76 -25l31 -21q36 -22 56 -22q47 0 47 57h46q1 -47 -23.5 -72.5t-68.5 -25.5q-36 0 -77 26z" />
    <glyph glyph-name="Odieresis" unicode="&#xd6;" horiz-adv-x="796" 
d="M62 352q-3 156 95.5 259.5t240.5 101.5q142 2 240.5 -101.5t96.5 -259.5q2 -157 -96.5 -262t-240.5 -103q-141 -2 -240 103.5t-96 261.5zM681 352q2 131 -80 223.5t-203 90.5q-123 0 -203 -90.5t-80 -223.5q-2 -134 80 -227t203 -91q121 -2 203 91t80 227zM269 781v80h64
v-80h-64zM461 781v80h64v-80h-64z" />
    <glyph glyph-name="multiply" unicode="&#xd7;" horiz-adv-x="609" 
d="M109 131l-33 34l195 194l-195 195l33 34l196 -195l195 194l33 -33l-195 -194l195 -195l-33 -34l-196 195z" />
    <glyph glyph-name="Oslash" unicode="&#xd8;" horiz-adv-x="798" 
d="M138 -21l-36 29l61 77q-101 106 -101 267q-3 156 96 259.5t240 101.5q115 0 204 -67l64 81l36 -30l-66 -84q99 -99 99 -261q2 -157 -96.5 -262t-240.5 -103q-111 0 -200 67zM195 126l312 399q40 52 77 59v31q-74 51 -186 51q-122 0 -202.5 -90.5t-80.5 -223.5
q0 -137 80 -226zM682 352q0 130 -78 221l-314 -402q-38 -47 -75 -56v-31q73 -50 185 -50q120 -2 202 91t80 227z" />
    <glyph glyph-name="Ugrave" unicode="&#xd9;" horiz-adv-x="683" 
d="M104 259v441h50v-431q0 -233 189 -233q185 0 185 233v431h50v-441q0 -132 -59.5 -202t-175.5 -70q-115 0 -177 70t-62 202zM325 781l-114 122h75l77 -122h-38z" />
    <glyph glyph-name="Uacute" unicode="&#xda;" horiz-adv-x="683" 
d="M104 259v441h50v-431q0 -233 189 -233q185 0 185 233v431h50v-441q0 -132 -59.5 -202t-175.5 -70q-115 0 -177 70t-62 202zM322 781l76 122h76l-114 -122h-38z" />
    <glyph glyph-name="Ucircumflex" unicode="&#xdb;" horiz-adv-x="683" 
d="M104 259v441h50v-431q0 -233 189 -233q185 0 185 233v431h50v-441q0 -132 -59.5 -202t-175.5 -70q-115 0 -177 70t-62 202zM188 781l114 116h82l113 -116h-53l-101 86l-102 -86h-53z" />
    <glyph glyph-name="Udieresis" unicode="&#xdc;" horiz-adv-x="683" 
d="M104 259v441h50v-431q0 -233 189 -233q185 0 185 233v431h50v-441q0 -132 -59.5 -202t-175.5 -70q-115 0 -177 70t-62 202zM211 781v80h64v-80h-64zM403 781v80h64v-80h-64z" />
    <glyph glyph-name="Yacute" unicode="&#xdd;" horiz-adv-x="636" 
d="M293 0v306l-249 394h60l161 -259q40 -63 40 -107h30q0 45 39 109l156 257h60l-246 -394v-306h-51zM306 781l76 122h76l-114 -122h-38z" />
    <glyph glyph-name="Thorn" unicode="&#xde;" horiz-adv-x="646" 
d="M591 365q0 -87 -59 -144t-159 -57h-208v-164h-51v700h51v-135h210q99 0 157.5 -56.5t58.5 -143.5zM539 365q0 68 -44.5 111t-129.5 43h-200v-309h200q84 0 129 44.5t45 110.5z" />
    <glyph glyph-name="germandbls" unicode="&#xdf;" horiz-adv-x="578" 
d="M229 0v47q43 -12 80 -12q72 0 119 42.5t47 113.5q0 73 -54.5 116t-132.5 43h-29v46h22q60 0 103 39t43 105q0 59 -38.5 94t-98.5 35q-71 0 -109 -44.5t-38 -119.5v-505h-48v506q0 95 54 151t140 56q83 0 135 -49.5t52 -121.5q0 -55 -33.5 -96t-90.5 -54v-31
q73 -8 123 -53.5t50 -119.5q0 -92 -58.5 -145t-153.5 -53q-45 0 -84 10z" />
    <glyph glyph-name="agrave" unicode="&#xe0;" horiz-adv-x="532" 
d="M60 119q0 90 90.5 141t233.5 57v28q0 53 -34 84t-98 31q-120 0 -155 -97l-45 18q15 51 66 87t134 36q91 0 135.5 -45t44.5 -117v-247q0 -52 45 -52h44v-43h-37q-46 0 -65 22.5t-18 81.5h-26q-44 -117 -165 -117q-70 0 -110 35.5t-40 96.5zM384 220v59q-123 -8 -199 -48.5
t-76 -109.5q0 -42 29.5 -66.5t80.5 -24.5q67 0 116 48.5t49 141.5zM233 566l-103 122h69l69 -122h-35z" />
    <glyph glyph-name="aacute" unicode="&#xe1;" horiz-adv-x="532" 
d="M60 119q0 90 90.5 141t233.5 57v28q0 53 -34 84t-98 31q-120 0 -155 -97l-45 18q15 51 66 87t134 36q91 0 135.5 -45t44.5 -117v-247q0 -52 45 -52h44v-43h-37q-46 0 -65 22.5t-18 81.5h-26q-44 -117 -165 -117q-70 0 -110 35.5t-40 96.5zM384 220v59q-123 -8 -199 -48.5
t-76 -109.5q0 -42 29.5 -66.5t80.5 -24.5q67 0 116 48.5t49 141.5zM234 566l70 122h69l-104 -122h-35z" />
    <glyph glyph-name="acircumflex" unicode="&#xe2;" horiz-adv-x="532" 
d="M60 119q0 90 90.5 141t233.5 57v28q0 53 -34 84t-98 31q-120 0 -155 -97l-45 18q15 51 66 87t134 36q91 0 135.5 -45t44.5 -117v-247q0 -52 45 -52h44v-43h-37q-46 0 -65 22.5t-18 81.5h-26q-44 -117 -165 -117q-70 0 -110 35.5t-40 96.5zM384 220v59q-123 -8 -199 -48.5
t-76 -109.5q0 -42 29.5 -66.5t80.5 -24.5q67 0 116 48.5t49 141.5zM109 566l104 117h74l104 -117h-49l-92 86l-92 -86h-49z" />
    <glyph glyph-name="atilde" unicode="&#xe3;" horiz-adv-x="532" 
d="M60 119q0 90 90.5 141t233.5 57v28q0 53 -34 84t-98 31q-120 0 -155 -97l-45 18q15 51 66 87t134 36q91 0 135.5 -45t44.5 -117v-247q0 -52 45 -52h44v-43h-37q-46 0 -65 22.5t-18 81.5h-26q-44 -117 -165 -117q-70 0 -110 35.5t-40 96.5zM384 220v59q-123 -8 -199 -48.5
t-76 -109.5q0 -42 29.5 -66.5t80.5 -24.5q67 0 116 48.5t49 141.5zM256 600l-29 21q-32 22 -50 22q-43 0 -41 -60h-42q-1 48 21.5 74t62.5 26q32 0 68 -25l29 -21q31 -22 51 -22q42 0 43 57h41q1 -47 -21.5 -72.5t-61.5 -25.5q-33 0 -71 26z" />
    <glyph glyph-name="adieresis" unicode="&#xe4;" horiz-adv-x="532" 
d="M60 119q0 90 90.5 141t233.5 57v28q0 53 -34 84t-98 31q-120 0 -155 -97l-45 18q15 51 66 87t134 36q91 0 135.5 -45t44.5 -117v-247q0 -52 45 -52h44v-43h-37q-46 0 -65 22.5t-18 81.5h-26q-44 -117 -165 -117q-70 0 -110 35.5t-40 96.5zM384 220v59q-123 -8 -199 -48.5
t-76 -109.5q0 -42 29.5 -66.5t80.5 -24.5q67 0 116 48.5t49 141.5zM135 600v80h58v-80h-58zM309 600v80h59v-80h-59z" />
    <glyph glyph-name="aring" unicode="&#xe5;" horiz-adv-x="532" 
d="M60 119q0 90 90.5 141t233.5 57v28q0 53 -34 84t-98 31q-120 0 -155 -97l-45 18q15 51 66 87t134 36q91 0 135.5 -45t44.5 -117v-247q0 -52 45 -52h44v-43h-37q-46 0 -65 22.5t-18 81.5h-26q-44 -117 -165 -117q-70 0 -110 35.5t-40 96.5zM384 220v59q-123 -8 -199 -48.5
t-76 -109.5q0 -42 29.5 -66.5t80.5 -24.5q67 0 116 48.5t49 141.5zM153 646q0 40 28.5 68.5t70.5 28.5t70.5 -29t28.5 -69q0 -42 -28.5 -71t-70.5 -29t-70.5 29.5t-28.5 71.5zM313 645q0 25 -17 44t-44 19t-44 -18t-17 -44q0 -28 17 -47t44 -19t44 19.5t17 45.5z" />
    <glyph glyph-name="ae" unicode="&#xe6;" horiz-adv-x="854" 
d="M60 120q0 88 91.5 140t233.5 57v20q0 59 -33 91t-99 32q-116 0 -156 -97l-44 17q20 50 67 87t132 37q70 0 108.5 -35.5t45.5 -85.5h26q18 55 60 88t100 33q92 0 148.5 -63.5t56.5 -168.5q0 -22 -1 -29h-365q1 -108 47.5 -160t115.5 -52q59 0 100 32t59 77l45 -17
q-22 -59 -76 -97.5t-126 -38.5q-73 0 -118.5 39.5t-60.5 110.5h-26q-15 -68 -59 -109t-117 -41t-114 36t-41 97zM432 284h317q0 84 -46 131t-113 47q-68 0 -110.5 -50t-47.5 -128zM385 224v55q-122 -6 -199 -46.5t-77 -109.5q0 -43 29.5 -68t84.5 -25q67 0 114.5 49
t47.5 145z" />
    <glyph glyph-name="ccedilla" unicode="&#xe7;" horiz-adv-x="517" 
d="M291 -12l-12 -12l-27 -28q16 2 25 2q38 0 62 -19t24 -52q0 -35 -26 -56.5t-70 -21.5q-66 0 -103 44l25 30q31 -37 75 -37q57 0 57 43q0 18 -15.5 29t-37.5 11q-23 0 -42 -7l-19 24l44 50q-89 9 -142 78.5t-53 180.5q0 112 61 184.5t156 72.5q76 0 127.5 -39.5t67.5 -97.5
l-46 -15q-15 49 -53.5 78.5t-95.5 29.5q-71 0 -119 -56.5t-48 -156.5q0 -102 47.5 -159t121.5 -57q63 0 102 36.5t52 90.5l46 -16q-18 -67 -67 -108.5t-117 -45.5z" />
    <glyph glyph-name="egrave" unicode="&#xe8;" horiz-adv-x="527" 
d="M57 255q0 114 60 181.5t148 67.5q91 0 149 -64.5t58 -167.5q0 -7 -2 -29h-365q1 -109 47 -160.5t118 -51.5q59 0 99.5 32.5t55.5 77.5l44 -17q-19 -58 -73.5 -97.5t-126.5 -39.5q-99 0 -155.5 69t-56.5 199zM105 285h317q0 83 -45.5 130t-111.5 47q-69 0 -112 -49.5
t-48 -127.5zM247 566l-103 122h69l69 -122h-35z" />
    <glyph glyph-name="eacute" unicode="&#xe9;" horiz-adv-x="527" 
d="M57 255q0 114 60 181.5t148 67.5q91 0 149 -64.5t58 -167.5q0 -7 -2 -29h-365q1 -109 47 -160.5t118 -51.5q59 0 99.5 32.5t55.5 77.5l44 -17q-19 -58 -73.5 -97.5t-126.5 -39.5q-99 0 -155.5 69t-56.5 199zM105 285h317q0 83 -45.5 130t-111.5 47q-69 0 -112 -49.5
t-48 -127.5zM248 566l70 122h69l-104 -122h-35z" />
    <glyph glyph-name="ecircumflex" unicode="&#xea;" horiz-adv-x="527" 
d="M57 255q0 114 60 181.5t148 67.5q91 0 149 -64.5t58 -167.5q0 -7 -2 -29h-365q1 -109 47 -160.5t118 -51.5q59 0 99.5 32.5t55.5 77.5l44 -17q-19 -58 -73.5 -97.5t-126.5 -39.5q-99 0 -155.5 69t-56.5 199zM105 285h317q0 83 -45.5 130t-111.5 47q-69 0 -112 -49.5
t-48 -127.5zM125 566l104 117h74l104 -117h-49l-92 86l-92 -86h-49z" />
    <glyph glyph-name="edieresis" unicode="&#xeb;" horiz-adv-x="527" 
d="M57 255q0 114 60 181.5t148 67.5q91 0 149 -64.5t58 -167.5q0 -7 -2 -29h-365q1 -109 47 -160.5t118 -51.5q59 0 99.5 32.5t55.5 77.5l44 -17q-19 -58 -73.5 -97.5t-126.5 -39.5q-99 0 -155.5 69t-56.5 199zM105 285h317q0 83 -45.5 130t-111.5 47q-69 0 -112 -49.5
t-48 -127.5zM149 600v80h58v-80h-58zM323 600v80h59v-80h-59z" />
    <glyph glyph-name="igrave" unicode="&#xec;" horiz-adv-x="243" 
d="M95 0v492h47l1 -492h-48zM100 566l-103 122h69l69 -122h-35z" />
    <glyph glyph-name="iacute" unicode="&#xed;" horiz-adv-x="236" 
d="M95 0v492h47l1 -492h-48zM101 566l70 122h69l-104 -122h-35z" />
    <glyph glyph-name="icircumflex" unicode="&#xee;" horiz-adv-x="238" 
d="M95 0v492h47l1 -492h-48zM-22 566l104 117h74l104 -117h-49l-92 86l-92 -86h-49z" />
    <glyph glyph-name="idieresis" unicode="&#xef;" horiz-adv-x="238" 
d="M95 0v492h47l1 -492h-48zM3 600v80h58v-80h-58zM177 600v80h59v-80h-59z" />
    <glyph glyph-name="eth" unicode="&#xf0;" horiz-adv-x="547" 
d="M475 320q0 -171 -58.5 -252t-156.5 -81q-102 0 -152 65.5t-50 165.5q0 94 48.5 159.5t144.5 65.5q60 0 102 -34.5t57 -100.5h28q-1 190 -86 287l-88 -83l-25 30l85 80q-59 47 -141 47q-60 0 -104 -23v46q50 21 109 21q102 0 169 -60l66 61l26 -28l-64 -60
q90 -106 90 -306zM410 215q0 85 -41.5 135t-110.5 50q-72 0 -112 -48.5t-40 -135.5q0 -85 40.5 -135t111.5 -50t111.5 49.5t40.5 134.5z" />
    <glyph glyph-name="ntilde" unicode="&#xf1;" horiz-adv-x="578" 
d="M95 0v492h46q0 -59 -27 -121h32q17 53 55 93q39 40 112 40q88 0 133 -52.5t45 -143.5v-308h-49v296q0 80 -36 122t-102 42q-47 0 -81 -21t-50.5 -56t-23.5 -70.5t-7 -74.5v-238h-47zM295 600l-29 21q-32 22 -50 22q-43 0 -41 -60h-42q-1 48 21.5 74t62.5 26q32 0 68 -25
l29 -21q31 -22 51 -22q41 0 43 57h41q1 -47 -21.5 -72.5t-61.5 -25.5q-33 0 -71 26z" />
    <glyph glyph-name="ograve" unicode="&#xf2;" horiz-adv-x="562" 
d="M55 245q0 118 66.5 188.5t159.5 70.5t159.5 -70.5t66.5 -188.5q0 -117 -67 -187.5t-159 -70.5t-159 70.5t-67 187.5zM457 245q0 100 -50.5 157.5t-125.5 57.5t-125.5 -57.5t-50.5 -157.5q0 -101 50 -157.5t126 -56.5q75 0 125.5 56.5t50.5 157.5zM262 566l-103 122h69
l69 -122h-35z" />
    <glyph glyph-name="oacute" unicode="&#xf3;" horiz-adv-x="562" 
d="M55 245q0 118 66.5 188.5t159.5 70.5t159.5 -70.5t66.5 -188.5q0 -117 -67 -187.5t-159 -70.5t-159 70.5t-67 187.5zM457 245q0 100 -50.5 157.5t-125.5 57.5t-125.5 -57.5t-50.5 -157.5q0 -101 50 -157.5t126 -56.5q75 0 125.5 56.5t50.5 157.5zM263 566l70 122h69
l-104 -122h-35z" />
    <glyph glyph-name="ocircumflex" unicode="&#xf4;" horiz-adv-x="562" 
d="M55 245q0 118 66.5 188.5t159.5 70.5t159.5 -70.5t66.5 -188.5q0 -117 -67 -187.5t-159 -70.5t-159 70.5t-67 187.5zM457 245q0 100 -50.5 157.5t-125.5 57.5t-125.5 -57.5t-50.5 -157.5q0 -101 50 -157.5t126 -56.5q75 0 125.5 56.5t50.5 157.5zM139 566l104 117h74
l104 -117h-49l-92 86l-92 -86h-49z" />
    <glyph glyph-name="otilde" unicode="&#xf5;" horiz-adv-x="562" 
d="M55 245q0 118 66.5 188.5t159.5 70.5t159.5 -70.5t66.5 -188.5q0 -117 -67 -187.5t-159 -70.5t-159 70.5t-67 187.5zM457 245q0 100 -50.5 157.5t-125.5 57.5t-125.5 -57.5t-50.5 -157.5q0 -101 50 -157.5t126 -56.5q75 0 125.5 56.5t50.5 157.5zM285 600l-29 21
q-32 22 -50 22q-43 0 -41 -60h-42q-1 48 21.5 74t62.5 26q32 0 68 -25l29 -21q31 -22 51 -22q41 0 43 57h41q1 -47 -21.5 -72.5t-61.5 -25.5q-33 0 -71 26z" />
    <glyph glyph-name="odieresis" unicode="&#xf6;" horiz-adv-x="562" 
d="M55 245q0 118 66.5 188.5t159.5 70.5t159.5 -70.5t66.5 -188.5q0 -117 -67 -187.5t-159 -70.5t-159 70.5t-67 187.5zM457 245q0 100 -50.5 157.5t-125.5 57.5t-125.5 -57.5t-50.5 -157.5q0 -101 50 -157.5t126 -56.5q75 0 125.5 56.5t50.5 157.5zM164 600v80h58v-80h-58z
M338 600v80h59v-80h-59z" />
    <glyph glyph-name="divide" unicode="&#xf7;" horiz-adv-x="706" 
d="M314 506v104h78v-104h-78zM82 330v47h542v-47h-542zM314 97v104h78v-104h-78z" />
    <glyph glyph-name="oslash" unicode="&#xf8;" horiz-adv-x="567" 
d="M149 34l-40 -53l-31 25l43 57q-63 69 -63 182q0 118 66.5 188.5t159.5 70.5q78 0 139 -50l35 45l30 -24l-38 -49q60 -69 60 -181q0 -117 -66 -187.5t-159 -70.5q-77 0 -136 47zM151 100l196 256q28 36 62 46v26q-49 33 -122 33q-76 0 -127.5 -58t-51.5 -158
q0 -90 43 -145zM460 245q0 84 -40 142l-192 -252q-35 -42 -65 -51v-26q40 -27 112 -27q82 0 133.5 55.5t51.5 158.5z" />
    <glyph glyph-name="ugrave" unicode="&#xf9;" horiz-adv-x="569" 
d="M87 180v312h48v-299q0 -162 134 -162q77 0 117 62.5t40 161.5v237h48v-492h-46q0 55 25 121h-31q-17 -53 -53 -93q-36 -41 -108 -41q-86 0 -130 50.5t-44 142.5zM261 566l-103 122h69l69 -122h-35z" />
    <glyph glyph-name="uacute" unicode="&#xfa;" horiz-adv-x="569" 
d="M87 180v312h48v-299q0 -162 134 -162q77 0 117 62.5t40 161.5v237h48v-492h-46q0 55 25 121h-31q-17 -53 -53 -93q-36 -41 -108 -41q-86 0 -130 50.5t-44 142.5zM262 566l70 122h69l-104 -122h-35z" />
    <glyph glyph-name="ucircumflex" unicode="&#xfb;" horiz-adv-x="569" 
d="M87 180v312h48v-299q0 -162 134 -162q77 0 117 62.5t40 161.5v237h48v-492h-46q0 55 25 121h-31q-17 -53 -53 -93q-36 -41 -108 -41q-86 0 -130 50.5t-44 142.5zM139 566l104 117h74l104 -117h-49l-92 86l-92 -86h-49z" />
    <glyph glyph-name="udieresis" unicode="&#xfc;" horiz-adv-x="569" 
d="M87 180v312h48v-299q0 -162 134 -162q77 0 117 62.5t40 161.5v237h48v-492h-46q0 55 25 121h-31q-17 -53 -53 -93q-36 -41 -108 -41q-86 0 -130 50.5t-44 142.5zM164 600v80h58v-80h-58zM338 600v80h59v-80h-59z" />
    <glyph glyph-name="yacute" unicode="&#xfd;" horiz-adv-x="499" 
d="M409 492h51l-204 -568q-24 -67 -54 -93t-94 -26h-67v45h67q40 0 62.5 16t38.5 61l33 90l-214 475h54l135 -303q30 -70 31 -121h29q1 52 24 117zM228 566l70 122h69l-104 -122h-35z" />
    <glyph glyph-name="thorn" unicode="&#xfe;" horiz-adv-x="570" 
d="M95 -195v895h47v-189q0 -43 -6 -68t-21 -63h33q18 55 60 89.5t103 34.5q86 0 144 -69t58 -189q0 -121 -58 -190t-144 -69q-61 0 -103 35t-60 90h-33l4 -10q13 -39 17 -60q6 -23 6 -62v-175h-47zM463 246q0 106 -45 160t-116 54q-72 0 -117.5 -55t-45.5 -159t45.5 -159.5
t117.5 -55.5q71 0 116 55t45 160z" />
    <glyph glyph-name="ydieresis" unicode="&#xff;" horiz-adv-x="499" 
d="M409 492h51l-204 -568q-24 -67 -54 -93t-94 -26h-67v45h67q40 0 62.5 16t38.5 61l33 90l-214 475h54l135 -303q30 -70 31 -121h29q1 52 24 117zM129 600v80h58v-80h-58zM303 600v80h59v-80h-59z" />
    <glyph glyph-name="Amacron" unicode="&#x100;" horiz-adv-x="659" 
d="M571 0l-80 217h-325l-81 -217h-55l265 700h69l264 -700h-57zM183 264h291l-107 290q-23 59 -23 111h-31q-1 -49 -23 -111zM165 808v40h328v-40h-328z" />
    <glyph glyph-name="amacron" unicode="&#x101;" horiz-adv-x="532" 
d="M60 119q0 90 90.5 141t233.5 57v28q0 53 -34 84t-98 31q-120 0 -155 -97l-45 18q15 51 66 87t134 36q91 0 135.5 -45t44.5 -117v-247q0 -52 45 -52h44v-43h-37q-46 0 -65 22.5t-18 81.5h-26q-44 -117 -165 -117q-70 0 -110 35.5t-40 96.5zM384 220v59q-123 -8 -199 -48.5
t-76 -109.5q0 -42 29.5 -66.5t80.5 -24.5q67 0 116 48.5t49 141.5zM102 597v40h298v-40h-298z" />
    <glyph glyph-name="Abreve" unicode="&#x102;" horiz-adv-x="659" 
d="M571 0l-80 217h-325l-81 -217h-55l265 700h69l264 -700h-57zM183 264h291l-107 290q-23 59 -23 111h-31q-1 -49 -23 -111zM187 896h45q5 -40 30 -61t66 -21q85 0 95 82h46q-3 -53 -40 -87.5t-101 -34.5t-101 34.5t-40 87.5z" />
    <glyph glyph-name="abreve" unicode="&#x103;" horiz-adv-x="532" 
d="M60 119q0 90 90.5 141t233.5 57v28q0 53 -34 84t-98 31q-120 0 -155 -97l-45 18q15 51 66 87t134 36q91 0 135.5 -45t44.5 -117v-247q0 -52 45 -52h44v-43h-37q-46 0 -65 22.5t-18 81.5h-26q-44 -117 -165 -117q-70 0 -110 35.5t-40 96.5zM384 220v59q-123 -8 -199 -48.5
t-76 -109.5q0 -42 29.5 -66.5t80.5 -24.5q67 0 116 48.5t49 141.5zM123 683h41q4 -39 27 -60t60 -21t59.5 21t26.5 60h42q-3 -53 -36.5 -87.5t-91.5 -34.5q-59 0 -92 34.5t-36 87.5z" />
    <glyph glyph-name="Aogonek" unicode="&#x104;" horiz-adv-x="659" 
d="M628 -145v-41q-22 -9 -46 -9q-42 0 -67 21.5t-25 57.5q0 68 81 116l-80 217h-325l-81 -217h-55l265 700h69l264 -700q-96 -46 -96 -105q0 -22 14 -35t40 -13q16 0 42 8zM183 264h291l-107 290q-23 59 -23 111h-31q-1 -49 -23 -111z" />
    <glyph glyph-name="aogonek" unicode="&#x105;" horiz-adv-x="532" 
d="M522 -145v-41q-22 -9 -47 -9q-41 0 -66 21.5t-25 57.5q0 69 81 117q-35 4 -50 27.5t-14 75.5h-26q-44 -117 -165 -117q-70 0 -110 35.5t-40 96.5q0 90 90.5 141t233.5 57v28q0 53 -34 84t-98 31q-120 0 -155 -97l-45 18q15 51 66 87t134 36q91 0 135.5 -45t44.5 -117
v-247q0 -52 45 -52h44v-43q-95 -45 -95 -105q0 -48 54 -48q15 0 42 8zM384 220v59q-123 -8 -199 -48.5t-76 -109.5q0 -42 29.5 -66.5t80.5 -24.5q67 0 116 48.5t49 141.5z" />
    <glyph glyph-name="Cacute" unicode="&#x106;" horiz-adv-x="729" 
d="M63 362q0 156 88.5 253.5t236.5 97.5q119 1 195.5 -63t96.5 -138l-51 -19q-19 67 -80.5 120t-160.5 53q-127 0 -199.5 -82.5t-72.5 -221.5q0 -142 74.5 -235t197.5 -93q187 0 246 183l51 -19q-30 -90 -104 -150.5t-193 -60.5q-149 -2 -238 106t-87 269zM370 781l76 122
h76l-114 -122h-38z" />
    <glyph glyph-name="cacute" unicode="&#x107;" horiz-adv-x="517" 
d="M56 247q0 112 61 184.5t156 72.5q76 0 127.5 -39.5t67.5 -97.5l-46 -15q-15 49 -53.5 78.5t-95.5 29.5q-71 0 -119 -56.5t-48 -156.5q0 -102 47.5 -159t121.5 -57q63 0 102 36.5t52 90.5l46 -16q-20 -70 -72.5 -112.5t-127.5 -42.5q-98 0 -158.5 71t-60.5 189zM256 566
l70 122h69l-104 -122h-35z" />
    <glyph glyph-name="Ccircumflex" unicode="&#x108;" horiz-adv-x="729" 
d="M63 362q0 156 88.5 253.5t236.5 97.5q119 1 195.5 -63t96.5 -138l-51 -19q-19 67 -80.5 120t-160.5 53q-127 0 -199.5 -82.5t-72.5 -221.5q0 -142 74.5 -235t197.5 -93q187 0 246 183l51 -19q-30 -90 -104 -150.5t-193 -60.5q-149 -2 -238 106t-87 269zM236 781l114 116
h82l113 -116h-53l-101 86l-102 -86h-53z" />
    <glyph glyph-name="ccircumflex" unicode="&#x109;" horiz-adv-x="517" 
d="M56 247q0 112 61 184.5t156 72.5q76 0 127.5 -39.5t67.5 -97.5l-46 -15q-15 49 -53.5 78.5t-95.5 29.5q-71 0 -119 -56.5t-48 -156.5q0 -102 47.5 -159t121.5 -57q63 0 102 36.5t52 90.5l46 -16q-20 -70 -72.5 -112.5t-127.5 -42.5q-98 0 -158.5 71t-60.5 189zM132 566
l104 117h74l104 -117h-49l-92 86l-92 -86h-49z" />
    <glyph glyph-name="Cdotaccent" unicode="&#x10a;" horiz-adv-x="729" 
d="M63 362q0 156 88.5 253.5t236.5 97.5q119 1 195.5 -63t96.5 -138l-51 -19q-19 67 -80.5 120t-160.5 53q-127 0 -199.5 -82.5t-72.5 -221.5q0 -142 74.5 -235t197.5 -93q187 0 246 183l51 -19q-30 -90 -104 -150.5t-193 -60.5q-149 -2 -238 106t-87 269zM366 780v95h50
v-95h-50z" />
    <glyph glyph-name="cdotaccent" unicode="&#x10b;" horiz-adv-x="517" 
d="M56 247q0 112 61 184.5t156 72.5q76 0 127.5 -39.5t67.5 -97.5l-46 -15q-15 49 -53.5 78.5t-95.5 29.5q-71 0 -119 -56.5t-48 -156.5q0 -102 47.5 -159t121.5 -57q63 0 102 36.5t52 90.5l46 -16q-20 -70 -72.5 -112.5t-127.5 -42.5q-98 0 -158.5 71t-60.5 189zM249 605
v95h50v-95h-50z" />
    <glyph glyph-name="Ccaron" unicode="&#x10c;" horiz-adv-x="729" 
d="M63 362q0 156 88.5 253.5t236.5 97.5q119 1 195.5 -63t96.5 -138l-51 -19q-19 67 -80.5 120t-160.5 53q-127 0 -199.5 -82.5t-72.5 -221.5q0 -142 74.5 -235t197.5 -93q187 0 246 183l51 -19q-30 -90 -104 -150.5t-193 -60.5q-149 -2 -238 106t-87 269zM546 897
l-114 -116h-82l-113 116h53l101 -85l102 85h53z" />
    <glyph glyph-name="ccaron" unicode="&#x10d;" horiz-adv-x="517" 
d="M56 247q0 112 61 184.5t156 72.5q76 0 127.5 -39.5t67.5 -97.5l-46 -15q-15 49 -53.5 78.5t-95.5 29.5q-71 0 -119 -56.5t-48 -156.5q0 -102 47.5 -159t121.5 -57q63 0 102 36.5t52 90.5l46 -16q-20 -70 -72.5 -112.5t-127.5 -42.5q-98 0 -158.5 71t-60.5 189zM236 566
l-104 117h49l92 -86l92 86h49l-104 -117h-74z" />
    <glyph glyph-name="Dcaron" unicode="&#x10e;" horiz-adv-x="719" 
d="M114 0v700h200q157 0 249 -94t92 -254q0 -164 -89 -258t-253 -94h-199zM165 47h136q148 0 225 79.5t77 225.5q0 142 -77.5 221.5t-223.5 79.5h-137v-606zM467 897l-114 -116h-82l-113 116h53l101 -85l102 85h53z" />
    <glyph glyph-name="dcaron" unicode="&#x10f;" horiz-adv-x="578" 
d="M57 246q0 121 58.5 189.5t143.5 68.5q61 0 103 -34.5t60 -89.5h33q-15 38 -21 63q-6 26 -6 68v189h47v-700h-44q0 31 5 54q7 25 19 58h-33q-19 -55 -60 -90t-103 -35q-85 0 -143.5 69t-58.5 190zM431 246q0 104 -45.5 159t-117.5 55q-71 0 -116.5 -54.5t-45.5 -159.5
t45.5 -160t116.5 -55q72 0 117.5 55.5t45.5 159.5zM538 519l52 98h-33v83h63v-83l-50 -98h-32z" />
    <glyph glyph-name="Dcroat" unicode="&#x110;" horiz-adv-x="723" 
d="M660 352q0 -163 -89.5 -257.5t-253.5 -94.5h-198v334h-79v44h79v322h200q157 0 249 -94t92 -254zM607 352q0 141 -77.5 221t-222.5 80h-138v-275h177v-44h-177v-287h136q148 0 225 79.5t77 225.5z" />
    <glyph glyph-name="dcroat" unicode="&#x111;" horiz-adv-x="561" 
d="M562 617v-36h-87v-581h-44q0 31 5 54q7 25 19 58h-33q-19 -55 -60 -90t-103 -35q-85 0 -143.5 69t-58.5 190t58.5 189.5t143.5 68.5q61 0 103 -34.5t60 -89.5h33q-15 38 -21 63q-6 26 -6 68v70h-185v36h185v83h47v-83h87zM431 246q0 104 -45.5 159t-117.5 55
q-71 0 -116.5 -54.5t-45.5 -159.5t45.5 -160t116.5 -55q72 0 117.5 55.5t45.5 159.5z" />
    <glyph glyph-name="Emacron" unicode="&#x112;" horiz-adv-x="632" 
d="M114 0v700h469v-47h-418v-265h316v-46h-316v-295h418v-47h-469zM184 808v40h328v-40h-328z" />
    <glyph glyph-name="emacron" unicode="&#x113;" horiz-adv-x="527" 
d="M57 255q0 114 60 181.5t148 67.5q91 0 149 -64.5t58 -167.5q0 -7 -2 -29h-365q1 -109 47 -160.5t118 -51.5q59 0 99.5 32.5t55.5 77.5l44 -17q-19 -58 -73.5 -97.5t-126.5 -39.5q-99 0 -155.5 69t-56.5 199zM105 285h317q0 83 -45.5 130t-111.5 47q-69 0 -112 -49.5
t-48 -127.5zM116 597v40h298v-40h-298z" />
    <glyph glyph-name="Ebreve" unicode="&#x114;" horiz-adv-x="632" 
d="M114 0v700h469v-47h-418v-265h316v-46h-316v-295h418v-47h-469zM206 896h45q5 -40 30 -61t66 -21q85 0 95 82h46q-3 -53 -40 -87.5t-101 -34.5t-101 34.5t-40 87.5z" />
    <glyph glyph-name="ebreve" unicode="&#x115;" horiz-adv-x="527" 
d="M57 255q0 114 60 181.5t148 67.5q91 0 149 -64.5t58 -167.5q0 -7 -2 -29h-365q1 -109 47 -160.5t118 -51.5q59 0 99.5 32.5t55.5 77.5l44 -17q-19 -58 -73.5 -97.5t-126.5 -39.5q-99 0 -155.5 69t-56.5 199zM105 285h317q0 83 -45.5 130t-111.5 47q-69 0 -112 -49.5
t-48 -127.5zM138 683h41q4 -39 27 -60t60 -21t59.5 21t26.5 60h42q-3 -53 -36.5 -87.5t-91.5 -34.5q-59 0 -92 34.5t-36 87.5z" />
    <glyph glyph-name="Edotaccent" unicode="&#x116;" horiz-adv-x="632" 
d="M114 0v700h469v-47h-418v-265h316v-46h-316v-295h418v-47h-469zM323 780v95h50v-95h-50z" />
    <glyph glyph-name="edotaccent" unicode="&#x117;" horiz-adv-x="527" 
d="M57 255q0 114 60 181.5t148 67.5q91 0 149 -64.5t58 -167.5q0 -7 -2 -29h-365q1 -109 47 -160.5t118 -51.5q59 0 99.5 32.5t55.5 77.5l44 -17q-19 -58 -73.5 -97.5t-126.5 -39.5q-99 0 -155.5 69t-56.5 199zM105 285h317q0 83 -45.5 130t-111.5 47q-69 0 -112 -49.5
t-48 -127.5zM241 605v95h50v-95h-50z" />
    <glyph glyph-name="Eogonek" unicode="&#x118;" horiz-adv-x="632" 
d="M583 -145v-41q-22 -9 -47 -9q-41 0 -66 21.5t-25 57.5q0 69 79 116h-410v700h469v-47h-418v-265h316v-46h-316v-295h418v-47q-96 -45 -96 -105q0 -48 54 -48q15 0 42 8z" />
    <glyph glyph-name="eogonek" unicode="&#x119;" horiz-adv-x="527" 
d="M265 504q91 0 149 -64.5t58 -167.5q0 -7 -2 -29h-365q1 -109 47 -160.5t118 -51.5q59 0 99 33t56 77l44 -17q-13 -40 -44 -73t-73 -51q-102 -42 -102 -105q0 -48 51 -48q19 0 45 8v-41q-23 -9 -50 -9q-41 0 -64.5 21.5t-23.5 57.5q0 58 59 104q-100 0 -155 69.5
t-55 197.5q0 114 60 181.5t148 67.5zM105 285h317q0 83 -45.5 130t-111.5 47q-69 0 -112 -49.5t-48 -127.5z" />
    <glyph glyph-name="Ecaron" unicode="&#x11a;" horiz-adv-x="632" 
d="M114 0v700h469v-47h-418v-265h316v-46h-316v-295h418v-47h-469zM503 897l-114 -116h-82l-113 116h53l101 -85l102 85h53z" />
    <glyph glyph-name="ecaron" unicode="&#x11b;" horiz-adv-x="527" 
d="M57 255q0 114 60 181.5t148 67.5q91 0 149 -64.5t58 -167.5q0 -7 -2 -29h-365q1 -109 47 -160.5t118 -51.5q59 0 99.5 32.5t55.5 77.5l44 -17q-19 -58 -73.5 -97.5t-126.5 -39.5q-99 0 -155.5 69t-56.5 199zM105 285h317q0 83 -45.5 130t-111.5 47q-69 0 -112 -49.5
t-48 -127.5zM228 566l-104 117h49l92 -86l92 86h49l-104 -117h-74z" />
    <glyph glyph-name="Gcircumflex" unicode="&#x11c;" horiz-adv-x="781" 
d="M63 355q-3 155 94.5 257.5t243.5 100.5q67 1 122.5 -18.5t91.5 -52.5t59 -67.5t34 -71.5l-51 -20q-23 76 -87 129t-170 53q-126 0 -205 -84.5t-79 -224.5q0 -143 76 -232.5t203 -89.5q112 0 182.5 70.5t75.5 178.5h-264v47h316v-330h-50q0 55 5 92q5 25 17 73h-32
q-27 -74 -87 -127q-58 -51 -172 -51q-147 0 -235 103t-88 265zM247 781l114 116h82l113 -116h-53l-101 86l-102 -86h-53z" />
    <glyph glyph-name="gcircumflex" unicode="&#x11d;" horiz-adv-x="577" 
d="M39 -104q0 66 71 99v26q-47 16 -47 56q0 61 78 93v26q-62 50 -62 133q0 74 51 124.5t132 50.5q56 0 96.5 -26.5t58.5 -72.5h26q0 40 20 63.5t55 23.5h36v-43h-32q-34 0 -51.5 -15.5t-18.5 -66.5v-38q-1 -82 -54 -133t-134 -51q-53 0 -91 20q-28 -13 -46.5 -34.5
t-18.5 -42.5q0 -44 57 -44h224q65 0 104.5 -32t39.5 -88q0 -58 -38.5 -88.5t-97.5 -30.5h-239q-60 0 -89.5 24.5t-29.5 66.5zM404 324q0 60 -39.5 99t-99.5 39q-62 0 -100 -38.5t-38 -99.5q0 -60 38 -99t99 -39q62 0 101 39t39 99zM178 -152h213q93 0 93 76t-103 76h-235
q-23 -11 -42.5 -36t-19.5 -52q0 -64 94 -64zM138 566l104 117h74l104 -117h-49l-92 86l-92 -86h-49z" />
    <glyph glyph-name="Gbreve" unicode="&#x11e;" horiz-adv-x="781" 
d="M63 355q-3 155 94.5 257.5t243.5 100.5q67 1 122.5 -18.5t91.5 -52.5t59 -67.5t34 -71.5l-51 -20q-23 76 -87 129t-170 53q-126 0 -205 -84.5t-79 -224.5q0 -143 76 -232.5t203 -89.5q112 0 182.5 70.5t75.5 178.5h-264v47h316v-330h-50q0 55 5 92q5 25 17 73h-32
q-27 -74 -87 -127q-58 -51 -172 -51q-147 0 -235 103t-88 265zM259 896h45q5 -40 30 -61t66 -21q85 0 95 82h46q-3 -53 -40 -87.5t-101 -34.5t-101 34.5t-40 87.5z" />
    <glyph glyph-name="gbreve" unicode="&#x11f;" horiz-adv-x="577" 
d="M39 -104q0 66 71 99v26q-47 16 -47 56q0 61 78 93v26q-62 50 -62 133q0 74 51 124.5t132 50.5q56 0 96.5 -26.5t58.5 -72.5h26q0 40 20 63.5t55 23.5h36v-43h-32q-34 0 -51.5 -15.5t-18.5 -66.5v-38q-1 -82 -54 -133t-134 -51q-53 0 -91 20q-28 -13 -46.5 -34.5
t-18.5 -42.5q0 -44 57 -44h224q65 0 104.5 -32t39.5 -88q0 -58 -38.5 -88.5t-97.5 -30.5h-239q-60 0 -89.5 24.5t-29.5 66.5zM404 324q0 60 -39.5 99t-99.5 39q-62 0 -100 -38.5t-38 -99.5q0 -60 38 -99t99 -39q62 0 101 39t39 99zM178 -152h213q93 0 93 76t-103 76h-235
q-23 -11 -42.5 -36t-19.5 -52q0 -64 94 -64zM152 683h41q4 -39 27 -60t60 -21t59.5 21t26.5 60h42q-3 -53 -36.5 -87.5t-91.5 -34.5q-59 0 -92 34.5t-36 87.5z" />
    <glyph glyph-name="Gdotaccent" unicode="&#x120;" horiz-adv-x="781" 
d="M63 355q-3 155 94.5 257.5t243.5 100.5q67 1 122.5 -18.5t91.5 -52.5t59 -67.5t34 -71.5l-51 -20q-23 76 -87 129t-170 53q-126 0 -205 -84.5t-79 -224.5q0 -143 76 -232.5t203 -89.5q112 0 182.5 70.5t75.5 178.5h-264v47h316v-330h-50q0 55 5 92q5 25 17 73h-32
q-27 -74 -87 -127q-58 -51 -172 -51q-147 0 -235 103t-88 265zM377 780v95h50v-95h-50z" />
    <glyph glyph-name="gdotaccent" unicode="&#x121;" horiz-adv-x="577" 
d="M39 -104q0 66 71 99v26q-47 16 -47 56q0 61 78 93v26q-62 50 -62 133q0 74 51 124.5t132 50.5q56 0 96.5 -26.5t58.5 -72.5h26q0 40 20 63.5t55 23.5h36v-43h-32q-34 0 -51.5 -15.5t-18.5 -66.5v-38q-1 -82 -54 -133t-134 -51q-53 0 -91 20q-28 -13 -46.5 -34.5
t-18.5 -42.5q0 -44 57 -44h224q65 0 104.5 -32t39.5 -88q0 -58 -38.5 -88.5t-97.5 -30.5h-239q-60 0 -89.5 24.5t-29.5 66.5zM404 324q0 60 -39.5 99t-99.5 39q-62 0 -100 -38.5t-38 -99.5q0 -60 38 -99t99 -39q62 0 101 39t39 99zM178 -152h213q93 0 93 76t-103 76h-235
q-23 -11 -42.5 -36t-19.5 -52q0 -64 94 -64zM254 605v95h50v-95h-50z" />
    <glyph glyph-name="uni0122" unicode="&#x122;" horiz-adv-x="781" 
d="M63 355q-3 155 94.5 257.5t243.5 100.5q67 1 122.5 -18.5t91.5 -52.5t59 -67.5t34 -71.5l-51 -20q-23 76 -87 129t-170 53q-126 0 -205 -84.5t-79 -224.5q0 -143 76 -232.5t203 -89.5q112 0 182.5 70.5t75.5 178.5h-264v47h316v-330h-50q0 55 5 92q5 25 17 73h-32
q-27 -74 -87 -127q-58 -51 -172 -51q-147 0 -235 103t-88 265zM363 -282l52 98h-33v83h63v-83l-50 -98h-32z" />
    <glyph glyph-name="uni0123" unicode="&#x123;" horiz-adv-x="577" 
d="M39 -104q0 66 71 99v26q-47 16 -47 56q0 61 78 93v26q-62 50 -62 133q0 74 51 124.5t132 50.5q56 0 96.5 -26.5t58.5 -72.5h26q0 40 20 63.5t55 23.5h36v-43h-32q-34 0 -51.5 -15.5t-18.5 -66.5v-38q-1 -82 -54 -133t-134 -51q-53 0 -91 20q-28 -13 -46.5 -34.5
t-18.5 -42.5q0 -44 57 -44h224q65 0 104.5 -32t39.5 -88q0 -58 -38.5 -88.5t-97.5 -30.5h-239q-60 0 -89.5 24.5t-29.5 66.5zM404 324q0 60 -39.5 99t-99.5 39q-62 0 -100 -38.5t-38 -99.5q0 -60 38 -99t99 -39q62 0 101 39t39 99zM178 -152h213q93 0 93 76t-103 76h-235
q-23 -11 -42.5 -36t-19.5 -52q0 -64 94 -64zM331 786l-52 -98h33v-84h-63v84l50 98h32z" />
    <glyph glyph-name="Hcircumflex" unicode="&#x124;" horiz-adv-x="769" 
d="M114 0v700h51v-312h439v312h50v-700h-50v341h-439v-341h-51zM227 781l114 116h82l113 -116h-53l-101 86l-102 -86h-53z" />
    <glyph glyph-name="hcircumflex" unicode="&#x125;" horiz-adv-x="578" 
d="M95 0v700h47v-187q0 -82 -28 -142h32q17 53 55 93q39 40 112 40q88 0 133 -52.5t45 -143.5v-308h-49v296q0 80 -36 122t-102 42q-47 0 -81 -21t-50.5 -56t-23.5 -70.5t-7 -74.5v-238h-47zM157 774l104 117h74l104 -117h-49l-92 86l-92 -86h-49z" />
    <glyph glyph-name="Hbar" unicode="&#x126;" horiz-adv-x="776" 
d="M735 596v-42h-77v-554h-50v341h-440v-341h-50v554h-82v42h82v104h50v-104h440v104h50v-104h77zM608 388v166h-440v-166h440z" />
    <glyph glyph-name="hbar" unicode="&#x127;" horiz-adv-x="583" 
d="M491 308v-308h-49v296q0 80 -36 122t-102 42q-47 0 -81 -21t-50.5 -56t-23.5 -70.5t-7 -74.5v-238h-47v581h-77v36h77v83h47v-83h194v-36h-194v-68q0 -82 -28 -142h32q17 53 55 93q39 40 112 40q88 0 133 -52.5t45 -143.5z" />
    <glyph glyph-name="Itilde" unicode="&#x128;" horiz-adv-x="279" 
d="M114 0v700h51v-700h-51zM148 803l-33 21q-35 22 -54 22q-48 0 -46 -59h-46q-1 47 24 73t68 26q34 0 76 -25l31 -21q36 -22 56 -22q47 0 47 57h46q1 -47 -23.5 -72.5t-68.5 -25.5q-36 0 -77 26z" />
    <glyph glyph-name="itilde" unicode="&#x129;" horiz-adv-x="238" 
d="M95 0v492h47l1 -492h-48zM124 600l-29 21q-32 22 -50 22q-43 0 -41 -60h-42q-1 48 21.5 74t62.5 26q32 0 68 -25l29 -21q31 -22 51 -22q42 0 43 57h41q1 -47 -21.5 -72.5t-61.5 -25.5q-33 0 -71 26z" />
    <glyph glyph-name="Imacron" unicode="&#x12a;" horiz-adv-x="279" 
d="M114 0v700h51v-700h-51zM-25 808v40h328v-40h-328z" />
    <glyph glyph-name="imacron" unicode="&#x12b;" horiz-adv-x="238" 
d="M95 0v492h47l1 -492h-48zM-30 597v40h298v-40h-298z" />
    <glyph glyph-name="Ibreve" unicode="&#x12c;" horiz-adv-x="279" 
d="M114 0v700h51v-700h-51zM-3 896h45q5 -40 30 -61t66 -21q85 0 95 82h46q-3 -53 -40 -87.5t-101 -34.5t-101 34.5t-40 87.5z" />
    <glyph glyph-name="ibreve" unicode="&#x12d;" horiz-adv-x="238" 
d="M95 0v492h47l1 -492h-48zM-9 683h41q4 -39 27 -60t60 -21t59.5 21t26.5 60h42q-3 -53 -36.5 -87.5t-91.5 -34.5q-59 0 -92 34.5t-36 87.5z" />
    <glyph glyph-name="Iogonek" unicode="&#x12e;" horiz-adv-x="279" 
d="M166 -145v-41q-23 -9 -47 -9q-42 0 -67 21.5t-25 57.5q0 71 88 121v695h50v-700q-96 -46 -96 -105q0 -22 14 -35t41 -13q15 0 42 8z" />
    <glyph glyph-name="iogonek" unicode="&#x12f;" horiz-adv-x="243" 
d="M95 700h50v-95h-50v95zM103 -153q15 0 42 8v-41q-23 -9 -47 -9q-42 0 -67 21.5t-25 57.5q0 72 90 122v486h47l1 -492q-96 -46 -96 -105q0 -22 14 -35t41 -13z" />
    <glyph glyph-name="Idotaccent" unicode="&#x130;" horiz-adv-x="279" 
d="M114 0v700h51v-700h-51zM114 780v95h50v-95h-50z" />
    <glyph glyph-name="dotlessi" unicode="&#x131;" horiz-adv-x="238" 
d="M95 0v492h47l1 -492h-48z" />
    <glyph glyph-name="IJ" unicode="&#x132;" horiz-adv-x="751" 
d="M114 0v700h51v-700h-51zM305 180q0 14 1 26l51 16q-1 -12 -1 -35q0 -76 32.5 -115t85.5 -39q121 0 121 168v499h50v-509q0 -98 -42.5 -151t-127.5 -53q-78 0 -124 50.5t-46 142.5z" />
    <glyph glyph-name="ij" unicode="&#x133;" horiz-adv-x="483" 
d="M93 605v95h51v-95h-51zM95 0v492h47l1 -492h-48zM339 605v95h50v-95h-50zM201 -195v45h62q78 0 78 88v554h47v-559q0 -64 -31.5 -96t-88.5 -32h-67z" />
    <glyph glyph-name="Jcircumflex" unicode="&#x134;" horiz-adv-x="479" 
d="M32 180q0 14 1 26l51 16q-1 -12 -1 -35q0 -76 32.5 -115t85.5 -39q121 0 121 168v499h50v-509q0 -98 -42.5 -151t-127.5 -53q-78 0 -124 50.5t-46 142.5zM195 781l114 116h82l113 -116h-53l-101 86l-102 -86h-53z" />
    <glyph glyph-name="jcircumflex" unicode="&#x135;" horiz-adv-x="234" 
d="M-37 -195v45h62q78 0 78 88v554h47v-559q0 -64 -31.5 -96t-88.5 -32h-67zM-14 566l104 117h74l104 -117h-49l-92 86l-92 -86h-49z" />
    <glyph glyph-name="uni0136" unicode="&#x136;" horiz-adv-x="659" 
d="M591 0l-302 369l-124 -130v-239h-51v700h51v-253q0 -87 -28 -132l21 -18l378 403h68l-280 -294l334 -406h-67zM328 -282l52 98h-33v83h63v-83l-50 -98h-32z" />
    <glyph glyph-name="uni0137" unicode="&#x137;" horiz-adv-x="546" 
d="M475 0l-223 260l-110 -98v-162h-47v700h47v-353q0 -77 -27 -117l19 -19l313 281h67l-226 -201l249 -291h-62zM258 -282l52 98h-33v83h63v-83l-50 -98h-32z" />
    <glyph glyph-name="Lacute" unicode="&#x139;" horiz-adv-x="562" 
d="M114 0v700h51v-652h382v-48h-433zM120 781l76 122h76l-114 -122h-38z" />
    <glyph glyph-name="lacute" unicode="&#x13a;" horiz-adv-x="236" 
d="M95 0v700h47v-700h-47zM100 774l70 122h69l-104 -122h-35z" />
    <glyph glyph-name="uni013B" unicode="&#x13b;" horiz-adv-x="562" 
d="M114 0v700h51v-652h382v-48h-433zM277 -282l52 98h-33v83h63v-83l-50 -98h-32z" />
    <glyph glyph-name="uni013C" unicode="&#x13c;" horiz-adv-x="237" 
d="M95 0v700h47v-700h-47zM68 -282l52 98h-33v83h63v-83l-50 -98h-32z" />
    <glyph glyph-name="Lcaron" unicode="&#x13d;" horiz-adv-x="562" 
d="M114 0v700h51v-652h382v-48h-433zM313 500l56 109h-36v91h69v-91l-54 -109h-35z" />
    <glyph glyph-name="lcaron" unicode="&#x13e;" horiz-adv-x="250" 
d="M95 0v700h47v-700h-47zM204 519l52 98h-33v83h63v-83l-50 -98h-32z" />
    <glyph glyph-name="Ldot" unicode="&#x13f;" horiz-adv-x="563" 
d="M114 0v700h51v-652h382v-48h-433zM370 314v98h74v-98h-74z" />
    <glyph glyph-name="ldot" unicode="&#x140;" horiz-adv-x="353" 
d="M95 0v700h47v-700h-47zM254 291v98h74v-98h-74z" />
    <glyph glyph-name="Lslash" unicode="&#x141;" horiz-adv-x="578" 
d="M181 48h382v-48h-433v259l-81 -52v51l81 53v389h51v-357l242 156v-52l-242 -156v-243z" />
    <glyph glyph-name="lslash" unicode="&#x142;" horiz-adv-x="281" 
d="M243 482v-51l-80 -61v-370h-47v333l-70 -53v51l70 54v315h47v-279z" />
    <glyph glyph-name="Nacute" unicode="&#x143;" horiz-adv-x="781" 
d="M114 0v700h82l419 -647l27 17q-17 29 -21 55q-5 30 -5 79v496h51v-700h-75l-424 655l-27 -17q24 -49 24 -140v-498h-51zM370 781l76 122h76l-114 -122h-38z" />
    <glyph glyph-name="nacute" unicode="&#x144;" horiz-adv-x="578" 
d="M95 0v492h46q0 -59 -27 -121h32q17 53 55 93q39 40 112 40q88 0 133 -52.5t45 -143.5v-308h-49v296q0 80 -36 122t-102 42q-47 0 -81 -21t-50.5 -56t-23.5 -70.5t-7 -74.5v-238h-47zM273 566l70 122h69l-104 -122h-35z" />
    <glyph glyph-name="uni0145" unicode="&#x145;" horiz-adv-x="781" 
d="M114 0v700h82l419 -647l27 17q-17 29 -21 55q-5 30 -5 79v496h51v-700h-75l-424 655l-27 -17q24 -49 24 -140v-498h-51zM339 -282l52 98h-33v83h63v-83l-50 -98h-32z" />
    <glyph glyph-name="uni0146" unicode="&#x146;" horiz-adv-x="578" 
d="M95 0v492h46q0 -59 -27 -121h32q17 53 55 93q39 40 112 40q88 0 133 -52.5t45 -143.5v-308h-49v296q0 80 -36 122t-102 42q-47 0 -81 -21t-50.5 -56t-23.5 -70.5t-7 -74.5v-238h-47zM242 -282l52 98h-33v83h63v-83l-50 -98h-32z" />
    <glyph glyph-name="Ncaron" unicode="&#x147;" horiz-adv-x="781" 
d="M114 0v700h82l419 -647l27 17q-17 29 -21 55q-5 30 -5 79v496h51v-700h-75l-424 655l-27 -17q24 -49 24 -140v-498h-51zM546 897l-114 -116h-82l-113 116h53l101 -85l102 85h53z" />
    <glyph glyph-name="ncaron" unicode="&#x148;" horiz-adv-x="578" 
d="M95 0v492h46q0 -59 -27 -121h32q17 53 55 93q39 40 112 40q88 0 133 -52.5t45 -143.5v-308h-49v296q0 80 -36 122t-102 42q-47 0 -81 -21t-50.5 -56t-23.5 -70.5t-7 -74.5v-238h-47zM253 566l-104 117h49l92 -86l92 86h49l-104 -117h-74z" />
    <glyph glyph-name="Eng" unicode="&#x14a;" horiz-adv-x="781" 
d="M494 -196v47h33q41 0 65 25.5t24 68.5v52l-429 630l-19 28l-27 -17q24 -49 24 -140v-498h-51v700h82l419 -616l27 18q-17 29 -21 55q-5 30 -5 78v465h51v-749q0 -75 -39 -111t-99 -36h-35z" />
    <glyph glyph-name="eng" unicode="&#x14b;" horiz-adv-x="578" 
d="M304 -195v45h80q58 0 58 64v382q0 80 -36 122t-102 42q-47 0 -81 -21t-50.5 -56t-23.5 -70.5t-7 -74.5v-238h-47v492h46q0 -59 -27 -121h32q17 53 55 93q39 40 112 40q88 0 133 -52.5t45 -143.5v-391q0 -59 -26.5 -85.5t-83.5 -26.5h-77z" />
    <glyph glyph-name="Omacron" unicode="&#x14c;" horiz-adv-x="796" 
d="M62 352q-3 156 95.5 259.5t240.5 101.5q142 2 240.5 -101.5t96.5 -259.5q2 -157 -96.5 -262t-240.5 -103q-141 -2 -240 103.5t-96 261.5zM681 352q2 131 -80 223.5t-203 90.5q-123 0 -203 -90.5t-80 -223.5q-2 -134 80 -227t203 -91q121 -2 203 91t80 227zM235 808v40
h328v-40h-328z" />
    <glyph glyph-name="omacron" unicode="&#x14d;" horiz-adv-x="562" 
d="M55 245q0 118 66.5 188.5t159.5 70.5t159.5 -70.5t66.5 -188.5q0 -117 -67 -187.5t-159 -70.5t-159 70.5t-67 187.5zM457 245q0 100 -50.5 157.5t-125.5 57.5t-125.5 -57.5t-50.5 -157.5q0 -101 50 -157.5t126 -56.5q75 0 125.5 56.5t50.5 157.5zM131 597v40h298v-40
h-298z" />
    <glyph glyph-name="Obreve" unicode="&#x14e;" horiz-adv-x="796" 
d="M62 352q-3 156 95.5 259.5t240.5 101.5q142 2 240.5 -101.5t96.5 -259.5q2 -157 -96.5 -262t-240.5 -103q-141 -2 -240 103.5t-96 261.5zM681 352q2 131 -80 223.5t-203 90.5q-123 0 -203 -90.5t-80 -223.5q-2 -134 80 -227t203 -91q121 -2 203 91t80 227zM257 896h45
q5 -40 30 -61t66 -21q85 0 95 82h46q-3 -53 -40 -87.5t-101 -34.5t-101 34.5t-40 87.5z" />
    <glyph glyph-name="obreve" unicode="&#x14f;" horiz-adv-x="562" 
d="M55 245q0 118 66.5 188.5t159.5 70.5t159.5 -70.5t66.5 -188.5q0 -117 -67 -187.5t-159 -70.5t-159 70.5t-67 187.5zM457 245q0 100 -50.5 157.5t-125.5 57.5t-125.5 -57.5t-50.5 -157.5q0 -101 50 -157.5t126 -56.5q75 0 125.5 56.5t50.5 157.5zM152 683h41
q4 -39 27 -60t60 -21t59.5 21t26.5 60h42q-3 -53 -36.5 -87.5t-91.5 -34.5q-59 0 -92 34.5t-36 87.5z" />
    <glyph glyph-name="Ohungarumlaut" unicode="&#x150;" horiz-adv-x="796" 
d="M62 352q-3 156 95.5 259.5t240.5 101.5q142 2 240.5 -101.5t96.5 -259.5q2 -157 -96.5 -262t-240.5 -103q-141 -2 -240 103.5t-96 261.5zM681 352q2 131 -80 223.5t-203 90.5q-123 0 -203 -90.5t-80 -223.5q-2 -134 80 -227t203 -91q121 -2 203 91t80 227zM309 781
l76 122h76l-115 -122h-37zM456 781l76 122h77l-115 -122h-38z" />
    <glyph glyph-name="ohungarumlaut" unicode="&#x151;" horiz-adv-x="562" 
d="M55 245q0 118 66.5 188.5t159.5 70.5t159.5 -70.5t66.5 -188.5q0 -117 -67 -187.5t-159 -70.5t-159 70.5t-67 187.5zM457 245q0 100 -50.5 157.5t-125.5 57.5t-125.5 -57.5t-50.5 -157.5q0 -101 50 -157.5t126 -56.5q75 0 125.5 56.5t50.5 157.5zM198 566l69 122h70
l-105 -122h-34zM332 566l70 122h69l-104 -122h-35z" />
    <glyph glyph-name="OE" unicode="&#x152;" horiz-adv-x="1164" 
d="M63 351q0 161 88.5 261.5t227.5 100.5q102 0 169 -53t91 -136h34q-9 28 -14 68q-4 29 -4 93v15h458v-47h-407v-262h300v-46h-300v-298h407v-47h-458v16q0 95 18 160h-34q-24 -83 -91 -136t-169 -53q-137 -2 -227.5 102t-88.5 262zM656 352q0 136 -75 225t-195 89
q-122 0 -196 -88.5t-74 -225.5q0 -138 74 -228t196 -90q120 0 195 90t75 228z" />
    <glyph glyph-name="oe" unicode="&#x153;" horiz-adv-x="928" 
d="M55 245q-1 117 65 189t155 70q69 0 118.5 -37.5t70.5 -108.5h30q15 68 61 107t110 39q91 0 148.5 -64.5t57.5 -166.5q0 -19 -1 -30h-365q1 -107 46 -159.5t115 -52.5q59 0 100 32.5t60 77.5l45 -18q-23 -58 -77.5 -97t-127.5 -39q-66 0 -111 38.5t-63 110.5h-30
q-21 -71 -70 -110t-117 -39q-91 0 -155.5 69.5t-64.5 188.5zM505 284h317q0 84 -46 131t-114 47t-110 -49.5t-47 -128.5zM456 245q0 102 -49 158.5t-123 56.5q-76 0 -127.5 -57t-51.5 -158t51.5 -157.5t127.5 -56.5q74 0 123 56.5t49 157.5z" />
    <glyph glyph-name="Racute" unicode="&#x154;" horiz-adv-x="669" 
d="M114 0v700h263q94 0 153 -53t59 -137q0 -64 -41 -108.5t-103 -53.5v-30q53 -3 80.5 -33t42.5 -93l44 -192h-55l-41 187q-14 66 -50.5 95t-112.5 29h-188v-311h-51zM165 357h205q74 0 120 40t46 109q0 67 -46.5 107t-118.5 40h-206v-296zM301 781l76 122h76l-114 -122h-38
z" />
    <glyph glyph-name="racute" unicode="&#x155;" horiz-adv-x="389" 
d="M95 0v492h46q0 -47 -27 -132h33q34 138 155 138q40 0 68 -9v-48q-46 8 -69 8q-80 0 -119.5 -62.5t-39.5 -161.5v-225h-47zM202 566l70 122h69l-104 -122h-35z" />
    <glyph glyph-name="uni0156" unicode="&#x156;" horiz-adv-x="669" 
d="M114 0v700h263q94 0 153 -53t59 -137q0 -64 -41 -108.5t-103 -53.5v-30q53 -3 80.5 -33t42.5 -93l44 -192h-55l-41 187q-14 66 -50.5 95t-112.5 29h-188v-311h-51zM165 357h205q74 0 120 40t46 109q0 67 -46.5 107t-118.5 40h-206v-296zM294 -282l52 98h-33v83h63v-83
l-50 -98h-32z" />
    <glyph glyph-name="uni0157" unicode="&#x157;" horiz-adv-x="389" 
d="M95 0v492h46q0 -47 -27 -132h33q34 138 155 138q40 0 68 -9v-48q-46 8 -69 8q-80 0 -119.5 -62.5t-39.5 -161.5v-225h-47zM69 -282l52 98h-33v83h63v-83l-50 -98h-32z" />
    <glyph glyph-name="Rcaron" unicode="&#x158;" horiz-adv-x="669" 
d="M114 0v700h263q94 0 153 -53t59 -137q0 -64 -41 -108.5t-103 -53.5v-30q53 -3 80.5 -33t42.5 -93l44 -192h-55l-41 187q-14 66 -50.5 95t-112.5 29h-188v-311h-51zM165 357h205q74 0 120 40t46 109q0 67 -46.5 107t-118.5 40h-206v-296zM477 897l-114 -116h-82l-113 116
h53l101 -85l102 85h53z" />
    <glyph glyph-name="rcaron" unicode="&#x159;" horiz-adv-x="389" 
d="M95 0v492h46q0 -47 -27 -132h33q34 138 155 138q40 0 68 -9v-48q-46 8 -69 8q-80 0 -119.5 -62.5t-39.5 -161.5v-225h-47zM182 566l-104 117h49l92 -86l92 86h49l-104 -117h-74z" />
    <glyph glyph-name="Sacute" unicode="&#x15a;" horiz-adv-x="604" 
d="M47 161l49 24q21 -68 77 -109t132 -41q85 0 136 39t51 104q0 108 -145 146l-103 29q-166 46 -166 178q0 82 62.5 132t158.5 50q95 0 154 -45.5t80 -103.5l-47 -23q-18 46 -63 85q-44 40 -128 40q-73 0 -120 -36t-47 -96q0 -51 33.5 -82.5t109.5 -52.5l98 -27
q176 -49 176 -191q0 -87 -65 -140.5t-177 -53.5q-95 0 -160.5 45.5t-95.5 128.5zM277 781l76 122h76l-114 -122h-38z" />
    <glyph glyph-name="sacute" unicode="&#x15b;" horiz-adv-x="479" 
d="M46 127l47 16q8 -48 47.5 -80.5t101.5 -32.5q66 0 101.5 25t35.5 68q0 75 -106 100l-68 16q-66 16 -102 46t-36 84q0 58 48 96.5t122 38.5q73 0 118 -33t60 -85l-44 -17q-9 37 -43.5 65t-90.5 28q-57 0 -90 -25.5t-33 -61.5q0 -65 92 -86l68 -17q154 -36 154 -147
q0 -62 -47.5 -100t-138.5 -38q-81 0 -133 39.5t-63 100.5zM226 566l70 122h69l-104 -122h-35z" />
    <glyph glyph-name="Scircumflex" unicode="&#x15c;" horiz-adv-x="604" 
d="M47 161l49 24q21 -68 77 -109t132 -41q85 0 136 39t51 104q0 108 -145 146l-103 29q-166 46 -166 178q0 82 62.5 132t158.5 50q95 0 154 -45.5t80 -103.5l-47 -23q-18 46 -63 85q-44 40 -128 40q-73 0 -120 -36t-47 -96q0 -51 33.5 -82.5t109.5 -52.5l98 -27
q176 -49 176 -191q0 -87 -65 -140.5t-177 -53.5q-95 0 -160.5 45.5t-95.5 128.5zM143 781l114 116h82l113 -116h-53l-101 86l-102 -86h-53z" />
    <glyph glyph-name="scircumflex" unicode="&#x15d;" horiz-adv-x="479" 
d="M46 127l47 16q8 -48 47.5 -80.5t101.5 -32.5q66 0 101.5 25t35.5 68q0 75 -106 100l-68 16q-66 16 -102 46t-36 84q0 58 48 96.5t122 38.5q73 0 118 -33t60 -85l-44 -17q-9 37 -43.5 65t-90.5 28q-57 0 -90 -25.5t-33 -61.5q0 -65 92 -86l68 -17q154 -36 154 -147
q0 -62 -47.5 -100t-138.5 -38q-81 0 -133 39.5t-63 100.5zM102 566l104 117h74l104 -117h-49l-92 86l-92 -86h-49z" />
    <glyph glyph-name="Scedilla" unicode="&#x15e;" horiz-adv-x="604" 
d="M326 -12l-12 -12q-15 -15 -26 -28q14 2 25 2q38 0 62 -19t24 -52q0 -35 -26.5 -56.5t-70.5 -21.5q-68 0 -102 44l25 30q31 -37 74 -37q58 0 58 43q0 18 -15.5 29t-38.5 11q-22 0 -41 -7l-19 24l43 50q-88 4 -149.5 49t-89.5 124l49 24q21 -68 77 -109t132 -41
q85 0 136 39t51 104q0 108 -145 146l-103 29q-166 46 -166 178q0 82 62.5 132t158.5 50q95 0 154 -45.5t80 -103.5l-47 -23q-18 46 -63 85q-44 40 -128 40q-73 0 -120 -36t-47 -96q0 -51 33.5 -82.5t109.5 -52.5l98 -27q176 -49 176 -191q0 -83 -58 -135t-161 -58z" />
    <glyph glyph-name="scedilla" unicode="&#x15f;" horiz-adv-x="479" 
d="M258 -12l-11 -12q-12 -10 -27 -28q14 2 25 2q38 0 62 -19t24 -52q0 -35 -26.5 -56.5t-70.5 -21.5q-68 0 -102 44l25 30q31 -37 74 -37q58 0 58 43q0 18 -15.5 29t-38.5 11q-22 0 -41 -7l-19 24l44 50q-73 6 -118.5 44.5t-54.5 94.5l47 16q8 -48 47.5 -80.5t101.5 -32.5
q66 0 101.5 25t35.5 68q0 75 -106 100l-68 16q-66 16 -102 46t-36 84q0 58 48 96.5t122 38.5q73 0 118 -33t60 -85l-44 -17q-9 37 -43.5 65t-90.5 28q-57 0 -90 -25.5t-33 -61.5q0 -65 92 -86l68 -17q154 -36 154 -147q0 -59 -43 -96.5t-127 -40.5z" />
    <glyph glyph-name="Scaron" unicode="&#x160;" horiz-adv-x="604" 
d="M47 161l49 24q21 -68 77 -109t132 -41q85 0 136 39t51 104q0 108 -145 146l-103 29q-166 46 -166 178q0 82 62.5 132t158.5 50q95 0 154 -45.5t80 -103.5l-47 -23q-18 46 -63 85q-44 40 -128 40q-73 0 -120 -36t-47 -96q0 -51 33.5 -82.5t109.5 -52.5l98 -27
q176 -49 176 -191q0 -87 -65 -140.5t-177 -53.5q-95 0 -160.5 45.5t-95.5 128.5zM453 897l-114 -116h-82l-113 116h53l101 -85l102 85h53z" />
    <glyph glyph-name="scaron" unicode="&#x161;" horiz-adv-x="479" 
d="M46 127l47 16q8 -48 47.5 -80.5t101.5 -32.5q66 0 101.5 25t35.5 68q0 75 -106 100l-68 16q-66 16 -102 46t-36 84q0 58 48 96.5t122 38.5q73 0 118 -33t60 -85l-44 -17q-9 37 -43.5 65t-90.5 28q-57 0 -90 -25.5t-33 -61.5q0 -65 92 -86l68 -17q154 -36 154 -147
q0 -62 -47.5 -100t-138.5 -38q-81 0 -133 39.5t-63 100.5zM206 566l-104 117h49l92 -86l92 86h49l-104 -117h-74z" />
    <glyph glyph-name="uni0162" unicode="&#x162;" horiz-adv-x="611" 
d="M323 0l-24 -24l-27 -28q16 2 26 2q37 0 61 -19t24 -52q0 -35 -26 -56.5t-70 -21.5q-66 0 -103 44l25 30q31 -37 75 -37q57 0 57 43q0 18 -15.5 29t-37.5 11q-23 0 -42 -7l-19 24l54 62h-8v653h-259v47h583v-47h-274v-653z" />
    <glyph glyph-name="uni0163" unicode="&#x163;" horiz-adv-x="372" 
d="M353 0h-75h-2l-24 -24q-15 -15 -26 -28q14 2 25 2q38 0 62 -19t24 -52q0 -35 -26.5 -56.5t-70.5 -21.5q-68 0 -102 44l25 30q31 -37 74 -37q58 0 58 43q0 18 -15.5 29t-38.5 11q-22 0 -41 -7l-19 24l57 65q-94 16 -94 123v324h-127v42h127v145h47v-145h144v-42h-144v-320
q0 -87 87 -87h75v-43z" />
    <glyph glyph-name="Tcaron" unicode="&#x164;" horiz-adv-x="611" 
d="M273 0v653h-259v47h583v-47h-274v-653h-50zM453 897l-114 -116h-82l-113 116h53l101 -85l102 85h53z" />
    <glyph glyph-name="tcaron" unicode="&#x165;" horiz-adv-x="372" 
d="M144 126v324h-127v42h127v145h47v-145h144v-42h-144v-320q0 -87 87 -87h75v-43h-75q-134 0 -134 126zM277 539l52 98h-33v83h63v-83l-50 -98h-32z" />
    <glyph glyph-name="Tbar" unicode="&#x166;" horiz-adv-x="630" 
d="M607 653h-274v-248h172v-42h-172v-363h-50v363h-170v42h170v248h-259v47h583v-47z" />
    <glyph glyph-name="tbar" unicode="&#x167;" horiz-adv-x="395" 
d="M293 43h75v-43h-75q-134 0 -134 126v149h-127v40h127v135h-127v42h127v145h47v-145h145v-42h-145v-135h145v-40h-145v-145q0 -87 87 -87z" />
    <glyph glyph-name="Utilde" unicode="&#x168;" horiz-adv-x="683" 
d="M104 259v441h50v-431q0 -233 189 -233q185 0 185 233v431h50v-441q0 -132 -59.5 -202t-175.5 -70q-115 0 -177 70t-62 202zM351 803l-33 21q-35 22 -54 22q-48 0 -46 -59h-46q-1 47 24 73t68 26q34 0 76 -25l31 -21q36 -22 56 -22q47 0 47 57h46q1 -47 -23.5 -72.5
t-68.5 -25.5q-36 0 -77 26z" />
    <glyph glyph-name="utilde" unicode="&#x169;" horiz-adv-x="569" 
d="M87 180v312h48v-299q0 -162 134 -162q77 0 117 62.5t40 161.5v237h48v-492h-46q0 55 25 121h-31q-17 -53 -53 -93q-36 -41 -108 -41q-86 0 -130 50.5t-44 142.5zM284 600l-29 21q-32 22 -50 22q-43 0 -41 -60h-42q-1 48 21.5 74t62.5 26q32 0 68 -25l29 -21
q31 -22 51 -22q42 0 43 57h41q1 -47 -21.5 -72.5t-61.5 -25.5q-33 0 -71 26z" />
    <glyph glyph-name="Umacron" unicode="&#x16a;" horiz-adv-x="683" 
d="M104 259v441h50v-431q0 -233 189 -233q185 0 185 233v431h50v-441q0 -132 -59.5 -202t-175.5 -70q-115 0 -177 70t-62 202zM178 808v40h328v-40h-328z" />
    <glyph glyph-name="umacron" unicode="&#x16b;" horiz-adv-x="569" 
d="M87 180v312h48v-299q0 -162 134 -162q77 0 117 62.5t40 161.5v237h48v-492h-46q0 55 25 121h-31q-17 -53 -53 -93q-36 -41 -108 -41q-86 0 -130 50.5t-44 142.5zM131 597v40h298v-40h-298z" />
    <glyph glyph-name="Ubreve" unicode="&#x16c;" horiz-adv-x="683" 
d="M104 259v441h50v-431q0 -233 189 -233q185 0 185 233v431h50v-441q0 -132 -59.5 -202t-175.5 -70q-115 0 -177 70t-62 202zM200 896h45q5 -40 30 -61t66 -21q85 0 95 82h46q-3 -53 -40 -87.5t-101 -34.5t-101 34.5t-40 87.5z" />
    <glyph glyph-name="ubreve" unicode="&#x16d;" horiz-adv-x="569" 
d="M87 180v312h48v-299q0 -162 134 -162q77 0 117 62.5t40 161.5v237h48v-492h-46q0 55 25 121h-31q-17 -53 -53 -93q-36 -41 -108 -41q-86 0 -130 50.5t-44 142.5zM152 683h41q4 -39 27 -60t60 -21t59.5 21t26.5 60h42q-3 -53 -36.5 -87.5t-91.5 -34.5q-59 0 -92 34.5
t-36 87.5z" />
    <glyph glyph-name="Uring" unicode="&#x16e;" horiz-adv-x="683" 
d="M104 259v441h50v-431q0 -233 189 -233q185 0 185 233v431h50v-441q0 -132 -59.5 -202t-175.5 -70q-115 0 -177 70t-62 202zM237 873q0 41 30 71.5t75 30.5q43 0 73 -30.5t30 -72.5q0 -44 -29.5 -74t-73.5 -30q-45 0 -75 30.5t-30 74.5zM405 872q0 26 -18 46.5t-45 20.5
q-28 0 -46 -20t-18 -46q0 -29 17.5 -49.5t46.5 -20.5q27 0 45 21t18 48z" />
    <glyph glyph-name="uring" unicode="&#x16f;" horiz-adv-x="569" 
d="M87 180v312h48v-299q0 -162 134 -162q77 0 117 62.5t40 161.5v237h48v-492h-46q0 55 25 121h-31q-17 -53 -53 -93q-36 -41 -108 -41q-86 0 -130 50.5t-44 142.5zM181 646q0 40 28.5 68.5t70.5 28.5t70.5 -29t28.5 -69q0 -42 -28.5 -71t-70.5 -29t-70.5 29.5t-28.5 71.5z
M341 645q0 25 -17 44t-44 19t-44 -18t-17 -44q0 -28 17 -47t44 -19t44 19.5t17 45.5z" />
    <glyph glyph-name="Uhungarumlaut" unicode="&#x170;" horiz-adv-x="683" 
d="M104 259v441h50v-431q0 -233 189 -233q185 0 185 233v431h50v-441q0 -132 -59.5 -202t-175.5 -70q-115 0 -177 70t-62 202zM252 781l76 122h76l-115 -122h-37zM399 781l76 122h77l-115 -122h-38z" />
    <glyph glyph-name="uhungarumlaut" unicode="&#x171;" horiz-adv-x="569" 
d="M87 180v312h48v-299q0 -162 134 -162q77 0 117 62.5t40 161.5v237h48v-492h-46q0 55 25 121h-31q-17 -53 -53 -93q-36 -41 -108 -41q-86 0 -130 50.5t-44 142.5zM198 566l69 122h70l-105 -122h-34zM332 566l70 122h69l-104 -122h-35z" />
    <glyph glyph-name="Uogonek" unicode="&#x172;" horiz-adv-x="683" 
d="M292 -116q0 58 61 104q-120 -4 -184.5 65.5t-64.5 205.5v441h50v-431q0 -233 189 -233q185 0 185 233v431h50v-441q0 -199 -140 -258q-104 -42 -104 -106q0 -48 52 -48q19 0 45 8v-41q-23 -9 -50 -9q-41 0 -65 21.5t-24 57.5z" />
    <glyph glyph-name="uogonek" unicode="&#x173;" horiz-adv-x="569" 
d="M475 -145v-41q-23 -9 -47 -9q-42 0 -67 21.5t-25 57.5q0 73 92 123q1 46 25 114h-31q-17 -53 -53 -93q-36 -41 -108 -41q-86 0 -130 50.5t-44 142.5v312h48v-299q0 -162 134 -162q77 0 117 62.5t40 161.5v237h48v-492q-96 -46 -96 -105q0 -22 14 -35t41 -13q15 0 42 8z
" />
    <glyph glyph-name="Wcircumflex" unicode="&#x174;" horiz-adv-x="952" 
d="M222 0l-171 700h53l115 -482q25 -104 26 -176h30q1 73 32 175l141 483h57l142 -498q29 -97 30 -160h31q0 82 23 178l121 480h51l-176 -700h-71l-143 498q-12 40 -17 78q-3 23 -5 77h-31q0 -87 -22 -155l-145 -498h-71zM322 781l114 116h82l113 -116h-53l-101 86l-102 -86
h-53z" />
    <glyph glyph-name="wcircumflex" unicode="&#x175;" horiz-adv-x="808" 
d="M205 0l-168 492h50l101 -299q31 -97 32 -153h29q1 51 33 153l94 299h56l97 -308q27 -87 30 -144h29q5 74 32 153l101 299h51l-169 -492h-61l-95 300q-27 87 -28 147h-30q-1 -63 -28 -147l-97 -300h-59zM264 566l104 117h74l104 -117h-49l-92 86l-92 -86h-49z" />
    <glyph glyph-name="Ycircumflex" unicode="&#x176;" horiz-adv-x="636" 
d="M293 0v306l-249 394h60l161 -259q40 -63 40 -107h30q0 45 39 109l156 257h60l-246 -394v-306h-51zM173 781l114 116h82l113 -116h-53l-101 86l-102 -86h-53z" />
    <glyph glyph-name="ycircumflex" unicode="&#x177;" horiz-adv-x="499" 
d="M409 492h51l-204 -568q-24 -67 -54 -93t-94 -26h-67v45h67q40 0 62.5 16t38.5 61l33 90l-214 475h54l135 -303q30 -70 31 -121h29q1 52 24 117zM105 566l104 117h74l104 -117h-49l-92 86l-92 -86h-49z" />
    <glyph glyph-name="Ydieresis" unicode="&#x178;" horiz-adv-x="636" 
d="M293 0v306l-249 394h60l161 -259q40 -63 40 -107h30q0 45 39 109l156 257h60l-246 -394v-306h-51zM196 781v80h64v-80h-64zM388 781v80h64v-80h-64z" />
    <glyph glyph-name="Zacute" unicode="&#x179;" horiz-adv-x="584" 
d="M36 0v67l452 589l-21 23q-34 -26 -121 -26h-283v47h475v-60l-458 -596l21 -22q22 15 43 19q24 6 77 6h331v-47h-516zM279 781l76 122h76l-114 -122h-38z" />
    <glyph glyph-name="zacute" unicode="&#x17a;" horiz-adv-x="474" 
d="M45 0v53l322 397l-20 21q-26 -23 -84 -23h-213v44h372v-47l-327 -403l20 -21q27 22 89 22h232l1 -43h-392zM219 566l70 122h69l-104 -122h-35z" />
    <glyph glyph-name="Zdotaccent" unicode="&#x17b;" horiz-adv-x="584" 
d="M36 0v67l452 589l-21 23q-34 -26 -121 -26h-283v47h475v-60l-458 -596l21 -22q22 15 43 19q24 6 77 6h331v-47h-516zM275 780v95h50v-95h-50z" />
    <glyph glyph-name="zdotaccent" unicode="&#x17c;" horiz-adv-x="474" 
d="M45 0v53l322 397l-20 21q-26 -23 -84 -23h-213v44h372v-47l-327 -403l20 -21q27 22 89 22h232l1 -43h-392zM211 605v95h50v-95h-50z" />
    <glyph glyph-name="Zcaron" unicode="&#x17d;" horiz-adv-x="584" 
d="M36 0v67l452 589l-21 23q-34 -26 -121 -26h-283v47h475v-60l-458 -596l21 -22q22 15 43 19q24 6 77 6h331v-47h-516zM455 897l-114 -116h-82l-113 116h53l101 -85l102 85h53z" />
    <glyph glyph-name="zcaron" unicode="&#x17e;" horiz-adv-x="474" 
d="M45 0v53l322 397l-20 21q-26 -23 -84 -23h-213v44h372v-47l-327 -403l20 -21q27 22 89 22h232l1 -43h-392zM199 566l-104 117h49l92 -86l92 86h49l-104 -117h-74z" />
    <glyph glyph-name="florin" unicode="&#x192;" horiz-adv-x="461" 
d="M-58 -190v46q36 -17 81 -17q38 0 66 27.5t37 81.5l45 273q10 60 18 88q9 28 28 51l-16 21q-41 -16 -89 -16h-52v43h142l26 158q22 145 144 145q33 0 68 -8v-45q-32 8 -64 8q-45 0 -67.5 -28t-34.5 -92l-22 -138h135v-43h-142l-69 -419q-26 -153 -148 -153q-50 0 -86 17z
" />
    <glyph glyph-name="uni01E2" unicode="&#x1e2;" horiz-adv-x="923" 
d="M872 653h-365v-262h271v-47h-271v-297h365v-47h-414v217h-271l-134 -217h-60l437 700h442v-47zM470 665h-32q-4 -45 -46 -116l-176 -286h242v298q0 65 12 104zM452 808v40h328v-40h-328z" />
    <glyph glyph-name="uni01E3" unicode="&#x1e3;" horiz-adv-x="854" 
d="M60 120q0 88 91.5 140t233.5 57v20q0 59 -33 91t-99 32q-116 0 -156 -97l-44 17q20 50 67 87t132 37q70 0 108.5 -35.5t45.5 -85.5h26q18 55 60 88t100 33q92 0 148.5 -63.5t56.5 -168.5q0 -22 -1 -29h-365q1 -108 47.5 -160t115.5 -52q59 0 100 32t59 77l45 -17
q-22 -59 -76 -97.5t-126 -38.5q-73 0 -118.5 39.5t-60.5 110.5h-26q-15 -68 -59 -109t-117 -41t-114 36t-41 97zM432 284h317q0 84 -46 131t-113 47q-68 0 -110.5 -50t-47.5 -128zM385 224v55q-122 -6 -199 -46.5t-77 -109.5q0 -43 29.5 -68t84.5 -25q67 0 114.5 49
t47.5 145zM278 597v40h298v-40h-298z" />
    <glyph glyph-name="Aringacute" unicode="&#x1fa;" horiz-adv-x="659" 
d="M571 0l-80 217h-325l-81 -217h-55l265 700h69l264 -700h-57zM183 264h291l-107 290q-23 59 -23 111h-31q-1 -49 -23 -111zM316 970l70 138h69l-104 -138h-35zM231 849q0 39 28.5 68t70.5 29t70.5 -29t28.5 -69q0 -42 -28.5 -71t-70.5 -29t-70.5 29.5t-28.5 71.5zM391 848
q0 25 -17 44t-44 19t-44 -18t-17 -44q0 -28 17 -47t44 -19t44 19.5t17 45.5z" />
    <glyph glyph-name="aringacute" unicode="&#x1fb;" horiz-adv-x="532" 
d="M60 119q0 90 90.5 141t233.5 57v28q0 53 -34 84t-98 31q-120 0 -155 -97l-45 18q15 51 66 87t134 36q91 0 135.5 -45t44.5 -117v-247q0 -52 45 -52h44v-43h-37q-46 0 -65 22.5t-18 81.5h-26q-44 -117 -165 -117q-70 0 -110 35.5t-40 96.5zM384 220v59q-123 -8 -199 -48.5
t-76 -109.5q0 -42 29.5 -66.5t80.5 -24.5q67 0 116 48.5t49 141.5zM238 767l70 138h69l-104 -138h-35zM153 646q0 40 28.5 68.5t70.5 28.5t70.5 -29t28.5 -69q0 -42 -28.5 -71t-70.5 -29t-70.5 29.5t-28.5 71.5zM313 645q0 25 -17 44t-44 19t-44 -18t-17 -44q0 -28 17 -47
t44 -19t44 19.5t17 45.5z" />
    <glyph glyph-name="AEacute" unicode="&#x1fc;" horiz-adv-x="923" 
d="M872 653h-365v-262h271v-47h-271v-297h365v-47h-414v217h-271l-134 -217h-60l437 700h442v-47zM470 665h-32q-4 -45 -46 -116l-176 -286h242v298q0 65 12 104zM595 781l76 122h76l-114 -122h-38z" />
    <glyph glyph-name="aeacute" unicode="&#x1fd;" horiz-adv-x="854" 
d="M60 120q0 88 91.5 140t233.5 57v20q0 59 -33 91t-99 32q-116 0 -156 -97l-44 17q20 50 67 87t132 37q70 0 108.5 -35.5t45.5 -85.5h26q18 55 60 88t100 33q92 0 148.5 -63.5t56.5 -168.5q0 -22 -1 -29h-365q1 -108 47.5 -160t115.5 -52q59 0 100 32t59 77l45 -17
q-22 -59 -76 -97.5t-126 -38.5q-73 0 -118.5 39.5t-60.5 110.5h-26q-15 -68 -59 -109t-117 -41t-114 36t-41 97zM432 284h317q0 84 -46 131t-113 47q-68 0 -110.5 -50t-47.5 -128zM385 224v55q-122 -6 -199 -46.5t-77 -109.5q0 -43 29.5 -68t84.5 -25q67 0 114.5 49
t47.5 145zM410 566l70 122h69l-104 -122h-35z" />
    <glyph glyph-name="Oslashacute" unicode="&#x1fe;" horiz-adv-x="798" 
d="M138 -21l-36 29l61 77q-101 106 -101 267q-3 156 96 259.5t240 101.5q115 0 204 -67l64 81l36 -30l-66 -84q99 -99 99 -261q2 -157 -96.5 -262t-240.5 -103q-111 0 -200 67zM195 126l312 399q40 52 77 59v31q-74 51 -186 51q-122 0 -202.5 -90.5t-80.5 -223.5
q0 -137 80 -226zM682 352q0 130 -78 221l-314 -402q-38 -47 -75 -56v-31q73 -50 185 -50q120 -2 202 91t80 227zM379 781l76 122h76l-114 -122h-38z" />
    <glyph glyph-name="oslashacute" unicode="&#x1ff;" horiz-adv-x="567" 
d="M149 34l-40 -53l-31 25l43 57q-63 69 -63 182q0 118 66.5 188.5t159.5 70.5q78 0 139 -50l35 45l30 -24l-38 -49q60 -69 60 -181q0 -117 -66 -187.5t-159 -70.5q-77 0 -136 47zM151 100l196 256q28 36 62 46v26q-49 33 -122 33q-76 0 -127.5 -58t-51.5 -158
q0 -90 43 -145zM460 245q0 84 -40 142l-192 -252q-35 -42 -65 -51v-26q40 -27 112 -27q82 0 133.5 55.5t51.5 158.5zM280 566l70 122h69l-104 -122h-35z" />
    <glyph glyph-name="uni0218" unicode="&#x218;" horiz-adv-x="604" 
d="M47 161l49 24q21 -68 77 -109t132 -41q85 0 136 39t51 104q0 108 -145 146l-103 29q-166 46 -166 178q0 82 62.5 132t158.5 50q95 0 154 -45.5t80 -103.5l-47 -23q-18 46 -63 85q-44 40 -128 40q-73 0 -120 -36t-47 -96q0 -51 33.5 -82.5t109.5 -52.5l98 -27
q176 -49 176 -191q0 -87 -65 -140.5t-177 -53.5q-95 0 -160.5 45.5t-95.5 128.5zM263 -282l52 98h-33v83h63v-83l-50 -98h-32z" />
    <glyph glyph-name="uni0219" unicode="&#x219;" horiz-adv-x="479" 
d="M46 127l47 16q8 -48 47.5 -80.5t101.5 -32.5q66 0 101.5 25t35.5 68q0 75 -106 100l-68 16q-66 16 -102 46t-36 84q0 58 48 96.5t122 38.5q73 0 118 -33t60 -85l-44 -17q-9 37 -43.5 65t-90.5 28q-57 0 -90 -25.5t-33 -61.5q0 -65 92 -86l68 -17q154 -36 154 -147
q0 -62 -47.5 -100t-138.5 -38q-81 0 -133 39.5t-63 100.5zM195 -282l52 98h-33v83h63v-83l-50 -98h-32z" />
    <glyph glyph-name="uni021A" unicode="&#x21a;" horiz-adv-x="611" 
d="M273 0v653h-259v47h583v-47h-274v-653h-50zM247 -282l52 98h-33v83h63v-83l-50 -98h-32z" />
    <glyph glyph-name="uni021B" unicode="&#x21b;" horiz-adv-x="372" 
d="M144 126v324h-127v42h127v145h47v-145h144v-42h-144v-320q0 -87 87 -87h75v-43h-75q-134 0 -134 126zM201 -282l52 98h-33v83h63v-83l-50 -98h-32z" />
    <glyph glyph-name="uni0226" unicode="&#x226;" horiz-adv-x="659" 
d="M571 0l-80 217h-325l-81 -217h-55l265 700h69l264 -700h-57zM183 264h291l-107 290q-23 59 -23 111h-31q-1 -49 -23 -111zM305 780v95h50v-95h-50z" />
    <glyph glyph-name="uni0227" unicode="&#x227;" horiz-adv-x="532" 
d="M60 119q0 90 90.5 141t233.5 57v28q0 53 -34 84t-98 31q-120 0 -155 -97l-45 18q15 51 66 87t134 36q91 0 135.5 -45t44.5 -117v-247q0 -52 45 -52h44v-43h-37q-46 0 -65 22.5t-18 81.5h-26q-44 -117 -165 -117q-70 0 -110 35.5t-40 96.5zM384 220v59q-123 -8 -199 -48.5
t-76 -109.5q0 -42 29.5 -66.5t80.5 -24.5q67 0 116 48.5t49 141.5zM226 605v95h50v-95h-50z" />
    <glyph glyph-name="uni0232" unicode="&#x232;" horiz-adv-x="636" 
d="M293 0v306l-249 394h60l161 -259q40 -63 40 -107h30q0 45 39 109l156 257h60l-246 -394v-306h-51zM163 808v40h328v-40h-328z" />
    <glyph glyph-name="uni0233" unicode="&#x233;" horiz-adv-x="499" 
d="M409 492h51l-204 -568q-24 -67 -54 -93t-94 -26h-67v45h67q40 0 62.5 16t38.5 61l33 90l-214 475h54l135 -303q30 -70 31 -121h29q1 52 24 117zM96 597v40h298v-40h-298z" />
    <glyph glyph-name="uni0237" unicode="&#x237;" horiz-adv-x="245" 
d="M-37 -195v45h62q78 0 78 88v554h47v-559q0 -64 -31.5 -96t-88.5 -32h-67z" />
    <glyph glyph-name="circumflex" unicode="&#x2c6;" horiz-adv-x="286" 
d="M-3 566l104 117h74l104 -117h-49l-92 86l-92 -86h-49z" />
    <glyph glyph-name="caron" unicode="&#x2c7;" horiz-adv-x="286" 
d="M98 566l-104 117h49l92 -86l92 86h49l-104 -117h-74z" />
    <glyph glyph-name="breve" unicode="&#x2d8;" horiz-adv-x="266" 
d="M1 683h41q4 -39 27 -60t60 -21t59.5 21t26.5 60h42q-3 -53 -36.5 -87.5t-91.5 -34.5q-59 0 -92 34.5t-36 87.5z" />
    <glyph glyph-name="dotaccent" unicode="&#x2d9;" horiz-adv-x="303" 
d="M118 605v95h50v-95h-50z" />
    <glyph glyph-name="ring" unicode="&#x2da;" horiz-adv-x="334" 
d="M69 646q0 40 28.5 68.5t70.5 28.5t70.5 -29t28.5 -69q0 -42 -28.5 -71t-70.5 -29t-70.5 29.5t-28.5 71.5zM229 645q0 25 -17 44t-44 19t-44 -18t-17 -44q0 -28 17 -47t44 -19t44 19.5t17 45.5z" />
    <glyph glyph-name="ogonek" unicode="&#x2db;" horiz-adv-x="368" 
d="M57 -116q0 38 29.5 74t87.5 62l21 -20q-96 -46 -96 -105q0 -22 14 -35t41 -13q15 0 41 8v-41q-22 -9 -46 -9q-42 0 -67 21.5t-25 57.5z" />
    <glyph glyph-name="tilde" unicode="&#x2dc;" horiz-adv-x="249" 
d="M151 600l-29 21q-32 22 -50 22q-43 0 -41 -60h-42q-1 48 21.5 74t62.5 26q32 0 68 -25l29 -21q31 -22 51 -22q41 0 43 57h41q1 -47 -21.5 -72.5t-61.5 -25.5q-33 0 -71 26z" />
    <glyph glyph-name="hungarumlaut" unicode="&#x2dd;" horiz-adv-x="393" 
d="M52 566l69 122h70l-105 -122h-34zM186 566l70 122h69l-104 -122h-35z" />
    <glyph glyph-name="gravecomb" unicode="&#x300;" horiz-adv-x="0" 
d="M-74 566l-103 122h69l69 -122h-35z" />
    <glyph glyph-name="acutecomb" unicode="&#x301;" horiz-adv-x="0" 
d="M-198 566l70 122h69l-104 -122h-35z" />
    <glyph glyph-name="uni0302" unicode="&#x302;" horiz-adv-x="0" 
d="M-370 566l104 117h74l104 -117h-49l-92 86l-92 -86h-49z" />
    <glyph glyph-name="tildecomb" unicode="&#x303;" horiz-adv-x="0" 
d="M-197 600l-29 21q-32 22 -50 22q-43 0 -41 -60h-42q-1 48 21.5 74t62.5 26q32 0 68 -25l29 -21q31 -22 51 -22q41 0 43 57h41q1 -47 -21.5 -72.5t-61.5 -25.5q-33 0 -71 26z" />
    <glyph glyph-name="uni0304" unicode="&#x304;" horiz-adv-x="0" 
d="M-343 597v40h298v-40h-298z" />
    <glyph glyph-name="uni0306" unicode="&#x306;" horiz-adv-x="0" 
d="M-316 683h41q4 -39 27 -60t60 -21t59.5 21t26.5 60h42q-3 -53 -36.5 -87.5t-91.5 -34.5q-59 0 -92 34.5t-36 87.5z" />
    <glyph glyph-name="uni0307" unicode="&#x307;" horiz-adv-x="0" 
d="M-81 605v95h50v-95h-50z" />
    <glyph glyph-name="uni0308" unicode="&#x308;" horiz-adv-x="0" 
d="M-277 600v80h58v-80h-58zM-103 600v80h59v-80h-59z" />
    <glyph glyph-name="uni030A" unicode="&#x30a;" horiz-adv-x="0" 
d="M-236 646q0 40 29 68.5t70 28.5q42 0 70.5 -29t28.5 -69q0 -42 -28.5 -71t-70.5 -29t-70.5 29.5t-28.5 71.5zM-76 645q0 25 -17 44t-44 19t-44 -18t-17 -44q0 -28 17 -47t44 -19t44 19.5t17 45.5z" />
    <glyph glyph-name="uni030B" unicode="&#x30b;" horiz-adv-x="0" 
d="M-359 566l69 122h70l-105 -122h-34zM-225 566l70 122h69l-104 -122h-35z" />
    <glyph glyph-name="uni030C" unicode="&#x30c;" horiz-adv-x="0" 
d="M-282 566l-104 117h49l92 -86l92 86h49l-104 -117h-74z" />
    <glyph glyph-name="uni0312" unicode="&#x312;" horiz-adv-x="0" 
d="M-12 786l-52 -98h33v-84h-63v84l50 98h32z" />
    <glyph glyph-name="dotbelowcomb" unicode="&#x323;" horiz-adv-x="0" 
d="M-91 -195v95h50v-95h-50z" />
    <glyph glyph-name="uni0326" unicode="&#x326;" horiz-adv-x="0" 
d="M-129 -282l52 98h-33v83h63v-83l-50 -98h-32z" />
    <glyph glyph-name="uni0327" unicode="&#x327;" horiz-adv-x="0" 
d="M-238 -155l25 30q31 -37 74 -37q58 0 58 43q0 18 -15.5 29t-38.5 11q-22 0 -41 -7l-19 24l60 69l35 -7l-24 -24q-15 -15 -26 -28q14 2 25 2q38 0 62 -19t24 -52q0 -35 -26.5 -56.5t-70.5 -21.5q-68 0 -102 44z" />
    <glyph glyph-name="uni0328" unicode="&#x328;" horiz-adv-x="0" 
d="M-180 -116q0 38 29 74t88 62l21 -20q-96 -46 -96 -105q0 -22 14 -35t41 -13q15 0 41 8v-41q-22 -9 -46 -9q-42 0 -67 21.5t-25 57.5z" />
    <glyph glyph-name="uni0394" unicode="&#x394;" horiz-adv-x="656" 
d="M363 700l262 -700h-594l262 700h70zM103 47h448l-186 506q-22 62 -23 112h-30q-1 -54 -24 -112z" />
    <glyph glyph-name="uni03A9" unicode="&#x3a9;" horiz-adv-x="789" 
d="M95 0v47h59q55 0 109 -21l9 29q-203 69 -203 303q-2 154 91.5 255.5t234.5 99.5q140 2 233 -99.5t91 -255.5q0 -235 -203 -303l10 -29q54 21 109 21h58v-47h-249v54q103 21 162.5 103t59.5 201q0 131 -75.5 219.5t-195.5 88.5q-122 0 -197 -88t-75 -220q0 -119 59 -201
t162 -103v-54h-249z" />
    <glyph glyph-name="uni03BC" unicode="&#x3bc;" horiz-adv-x="574" 
d="M95 -195v687h47v-305q0 -77 36.5 -117t100.5 -40q76 0 114.5 63t38.5 162v237h47v-492h-48q2 55 26 121h-32q-17 -54 -51 -94t-105 -40q-84 0 -127 55v-237h-47z" />
    <glyph glyph-name="pi" unicode="&#x3c0;" horiz-adv-x="616" 
d="M138 0v448h-117v44h545v-44h-119v-346q0 -59 56 -59h68v-43h-71q-102 0 -102 88v360h-212v-448h-48z" />
    <glyph glyph-name="Wgrave" unicode="&#x1e80;" horiz-adv-x="952" 
d="M222 0l-171 700h53l115 -482q25 -104 26 -176h30q1 73 32 175l141 483h57l142 -498q29 -97 30 -160h31q0 82 23 178l121 480h51l-176 -700h-71l-143 498q-12 40 -17 78q-3 23 -5 77h-31q0 -87 -22 -155l-145 -498h-71zM458 781l-114 122h75l77 -122h-38z" />
    <glyph glyph-name="wgrave" unicode="&#x1e81;" horiz-adv-x="808" 
d="M205 0l-168 492h50l101 -299q31 -97 32 -153h29q1 51 33 153l94 299h56l97 -308q27 -87 30 -144h29q5 74 32 153l101 299h51l-169 -492h-61l-95 300q-27 87 -28 147h-30q-1 -63 -28 -147l-97 -300h-59zM386 566l-103 122h69l69 -122h-35z" />
    <glyph glyph-name="Wacute" unicode="&#x1e82;" horiz-adv-x="952" 
d="M222 0l-171 700h53l115 -482q25 -104 26 -176h30q1 73 32 175l141 483h57l142 -498q29 -97 30 -160h31q0 82 23 178l121 480h51l-176 -700h-71l-143 498q-12 40 -17 78q-3 23 -5 77h-31q0 -87 -22 -155l-145 -498h-71zM455 781l76 122h76l-114 -122h-38z" />
    <glyph glyph-name="wacute" unicode="&#x1e83;" horiz-adv-x="808" 
d="M205 0l-168 492h50l101 -299q31 -97 32 -153h29q1 51 33 153l94 299h56l97 -308q27 -87 30 -144h29q5 74 32 153l101 299h51l-169 -492h-61l-95 300q-27 87 -28 147h-30q-1 -63 -28 -147l-97 -300h-59zM387 566l70 122h69l-104 -122h-35z" />
    <glyph glyph-name="Wdieresis" unicode="&#x1e84;" horiz-adv-x="952" 
d="M222 0l-171 700h53l115 -482q25 -104 26 -176h30q1 73 32 175l141 483h57l142 -498q29 -97 30 -160h31q0 82 23 178l121 480h51l-176 -700h-71l-143 498q-12 40 -17 78q-3 23 -5 77h-31q0 -87 -22 -155l-145 -498h-71zM345 781v80h64v-80h-64zM537 781v80h64v-80h-64z
" />
    <glyph glyph-name="wdieresis" unicode="&#x1e85;" horiz-adv-x="808" 
d="M205 0l-168 492h50l101 -299q31 -97 32 -153h29q1 51 33 153l94 299h56l97 -308q27 -87 30 -144h29q5 74 32 153l101 299h51l-169 -492h-61l-95 300q-27 87 -28 147h-30q-1 -63 -28 -147l-97 -300h-59zM289 600v80h58v-80h-58zM463 600v80h59v-80h-59z" />
    <glyph glyph-name="uni1E9E" unicode="&#x1e9e;" horiz-adv-x="694" 
d="M230 33v53q71 -53 165 -53q82 0 132.5 41.5t50.5 113.5q0 66 -48.5 109.5t-137.5 43.5h-102v45h93q72 0 117 38.5t45 96.5q0 59 -42 95.5t-115 36.5h-223v-653h-51v700h281q93 0 148 -46t55 -124q0 -61 -36 -99.5t-87 -48.5v-28q65 -10 110.5 -54.5t45.5 -113.5
q0 -89 -62.5 -144t-173.5 -55q-106 0 -165 46z" />
    <glyph glyph-name="uni1EA0" unicode="&#x1ea0;" horiz-adv-x="659" 
d="M571 0l-80 217h-325l-81 -217h-55l265 700h69l264 -700h-57zM183 264h291l-107 290q-23 59 -23 111h-31q-1 -49 -23 -111zM303 -195v95h50v-95h-50z" />
    <glyph glyph-name="uni1EA1" unicode="&#x1ea1;" horiz-adv-x="532" 
d="M60 119q0 90 90.5 141t233.5 57v28q0 53 -34 84t-98 31q-120 0 -155 -97l-45 18q15 51 66 87t134 36q91 0 135.5 -45t44.5 -117v-247q0 -52 45 -52h44v-43h-37q-46 0 -65 22.5t-18 81.5h-26q-44 -117 -165 -117q-70 0 -110 35.5t-40 96.5zM384 220v59q-123 -8 -199 -48.5
t-76 -109.5q0 -42 29.5 -66.5t80.5 -24.5q67 0 116 48.5t49 141.5zM232 -195v95h50v-95h-50z" />
    <glyph glyph-name="uni1EB8" unicode="&#x1eb8;" horiz-adv-x="632" 
d="M114 0v700h469v-47h-418v-265h316v-46h-316v-295h418v-47h-469zM324 -195v95h50v-95h-50z" />
    <glyph glyph-name="uni1EB9" unicode="&#x1eb9;" horiz-adv-x="527" 
d="M57 255q0 114 60 181.5t148 67.5q91 0 149 -64.5t58 -167.5q0 -7 -2 -29h-365q1 -109 47 -160.5t118 -51.5q59 0 99.5 32.5t55.5 77.5l44 -17q-19 -58 -73.5 -97.5t-126.5 -39.5q-99 0 -155.5 69t-56.5 199zM105 285h317q0 83 -45.5 130t-111.5 47q-69 0 -112 -49.5
t-48 -127.5zM238 -195v95h50v-95h-50z" />
    <glyph glyph-name="uni1ECA" unicode="&#x1eca;" horiz-adv-x="279" 
d="M114 0v700h51v-700h-51zM114 -195v95h50v-95h-50z" />
    <glyph glyph-name="uni1ECB" unicode="&#x1ecb;" horiz-adv-x="238" 
d="M93 605v95h51v-95h-51zM95 0v492h48v-492h-48zM93 -195v95h51v-95h-51z" />
    <glyph glyph-name="uni1ECC" unicode="&#x1ecc;" horiz-adv-x="796" 
d="M62 352q-3 156 95.5 259.5t240.5 101.5q142 2 240.5 -101.5t96.5 -259.5q2 -157 -96.5 -262t-240.5 -103q-141 -2 -240 103.5t-96 261.5zM681 352q2 131 -80 223.5t-203 90.5q-123 0 -203 -90.5t-80 -223.5q-2 -134 80 -227t203 -91q121 -2 203 91t80 227zM378 -195v95
h50v-95h-50z" />
    <glyph glyph-name="uni1ECD" unicode="&#x1ecd;" horiz-adv-x="562" 
d="M55 245q0 118 66.5 188.5t159.5 70.5t159.5 -70.5t66.5 -188.5q0 -117 -67 -187.5t-159 -70.5t-159 70.5t-67 187.5zM457 245q0 100 -50.5 157.5t-125.5 57.5t-125.5 -57.5t-50.5 -157.5q0 -101 50 -157.5t126 -56.5q75 0 125.5 56.5t50.5 157.5zM255 -195v95h50v-95h-50
z" />
    <glyph glyph-name="uni1EE4" unicode="&#x1ee4;" horiz-adv-x="683" 
d="M104 259v441h50v-431q0 -233 189 -233q185 0 185 233v431h50v-441q0 -132 -59.5 -202t-175.5 -70q-115 0 -177 70t-62 202zM321 -195v95h50v-95h-50z" />
    <glyph glyph-name="uni1EE5" unicode="&#x1ee5;" horiz-adv-x="569" 
d="M87 180v312h48v-299q0 -162 134 -162q77 0 117 62.5t40 161.5v237h48v-492h-46q0 55 25 121h-31q-17 -53 -53 -93q-36 -41 -108 -41q-86 0 -130 50.5t-44 142.5zM249 -195v95h50v-95h-50z" />
    <glyph glyph-name="Ygrave" unicode="&#x1ef2;" horiz-adv-x="636" 
d="M293 0v306l-249 394h60l161 -259q40 -63 40 -107h30q0 45 39 109l156 257h60l-246 -394v-306h-51zM310 781l-114 122h75l77 -122h-38z" />
    <glyph glyph-name="ygrave" unicode="&#x1ef3;" horiz-adv-x="499" 
d="M409 492h51l-204 -568q-24 -67 -54 -93t-94 -26h-67v45h67q40 0 62.5 16t38.5 61l33 90l-214 475h54l135 -303q30 -70 31 -121h29q1 52 24 117zM227 566l-103 122h69l69 -122h-35z" />
    <glyph glyph-name="uni2002" unicode="&#x2002;" horiz-adv-x="500" 
 />
    <glyph glyph-name="uni2003" unicode="&#x2003;" horiz-adv-x="1000" 
 />
    <glyph glyph-name="uni2009" unicode="&#x2009;" horiz-adv-x="125" 
 />
    <glyph glyph-name="endash" unicode="&#x2013;" horiz-adv-x="599" 
d="M77 283v46h444v-46h-444z" />
    <glyph glyph-name="emdash" unicode="&#x2014;" horiz-adv-x="979" 
d="M77 283v46h824v-46h-824z" />
    <glyph glyph-name="quoteleft" unicode="&#x2018;" horiz-adv-x="228" 
d="M166 700l-59 -110h37v-93h-70v93l55 110h37z" />
    <glyph glyph-name="quoteright" unicode="&#x2019;" horiz-adv-x="224" 
d="M71 498l58 110h-37v93h71v-93l-56 -110h-36z" />
    <glyph glyph-name="quotesinglbase" unicode="&#x201a;" horiz-adv-x="241" 
d="M66 -110l58 110h-37v93h71v-93l-56 -110h-36z" />
    <glyph glyph-name="quotedblleft" unicode="&#x201c;" horiz-adv-x="380" 
d="M166 700l-59 -110h37v-93h-70v93l55 110h37zM318 700l-58 -110h36v-93h-70v93l56 110h36z" />
    <glyph glyph-name="quotedblright" unicode="&#x201d;" horiz-adv-x="376" 
d="M71 498l58 110h-37v93h71v-93l-56 -110h-36zM223 498l58 110h-37v93h71v-93l-56 -110h-36z" />
    <glyph glyph-name="quotedblbase" unicode="&#x201e;" horiz-adv-x="394" 
d="M66 -110l58 110h-37v93h71v-93l-56 -110h-36zM218 -110l58 110h-37v93h71v-93l-56 -110h-36z" />
    <glyph glyph-name="dagger" unicode="&#x2020;" horiz-adv-x="513" 
d="M231 -109v538h-197v48h197v223h51v-223h197v-48h-197v-538h-51z" />
    <glyph glyph-name="daggerdbl" unicode="&#x2021;" horiz-adv-x="562" 
d="M256 -109v224h-198v47h198v267h-198v48h198v223h50v-223h198v-48h-198v-267h198v-47h-198v-224h-50z" />
    <glyph glyph-name="bullet" unicode="&#x2022;" horiz-adv-x="511" 
d="M83 350q0 72 51 122.5t121 50.5q71 0 121.5 -50.5t50.5 -122.5q0 -68 -51 -118t-121 -50t-121 50t-51 118z" />
    <glyph glyph-name="ellipsis" unicode="&#x2026;" horiz-adv-x="717" 
d="M78 0v98h74v-98h-74zM321 0v98h74v-98h-74zM565 0v98h74v-98h-74z" />
    <glyph glyph-name="perthousand" unicode="&#x2030;" horiz-adv-x="1099" 
d="M204 301q-72 0 -115 55.5t-43 150.5q0 89 43.5 144.5t114.5 55.5q70 0 112.5 -55.5t42.5 -144.5q0 -95 -42 -150.5t-113 -55.5zM638 700h52l-493 -700h-54zM204 340q49 0 79 45.5t30 121.5q0 72 -30 116t-79 44q-50 0 -81 -44t-31 -116q0 -76 31 -121.5t81 -45.5z
M1054 201q0 -95 -42 -150.5t-113 -55.5q-95 0 -135 89q-40 -89 -134 -89q-72 0 -114.5 55.5t-42.5 150.5q0 90 43 144.5t114 54.5q92 0 134 -89q42 89 135 89q70 0 112.5 -54.5t42.5 -144.5zM739 201q0 72 -30 116t-79 44q-50 0 -81 -44t-31 -116q0 -76 30.5 -121.5
t81.5 -45.5q50 0 79.5 45.5t29.5 121.5zM1007 201q0 72 -30 116t-78 44q-51 0 -81.5 -44t-30.5 -116q0 -77 30 -122t82 -45q49 0 78.5 45.5t29.5 121.5z" />
    <glyph glyph-name="guilsinglleft" unicode="&#x2039;" horiz-adv-x="296" 
d="M108 253l128 -198h-56l-127 196l128 198h53z" />
    <glyph glyph-name="guilsinglright" unicode="&#x203a;" horiz-adv-x="297" 
d="M116 449l127 -197l-127 -197h-54l126 195l-127 199h55z" />
    <glyph glyph-name="fraction" unicode="&#x2044;" horiz-adv-x="180" 
d="M-185 0l495 700h52l-493 -700h-54z" />
    <glyph glyph-name="uni2070" unicode="&#x2070;" horiz-adv-x="416" 
d="M52 598q0 89 43.5 144.5t113.5 55.5t112.5 -55t42.5 -145q0 -96 -41.5 -151t-113.5 -55t-114.5 55.5t-42.5 150.5zM318 598q0 72 -30 116t-79 44q-50 0 -81 -44t-31 -116q0 -76 31 -121.5t81 -45.5q49 0 79 45.5t30 121.5z" />
    <glyph glyph-name="uni2074" unicode="&#x2074;" horiz-adv-x="355" 
d="M214 398v110h-180v44l159 239h63v-244h62v-39h-62v-110h-42zM214 547v123q0 40 20 67l-20 13l-141 -209l18 -14q20 20 51 20h72z" />
    <glyph glyph-name="uni2075" unicode="&#x2075;" horiz-adv-x="365" 
d="M47 495l45 16q3 -39 26.5 -59.5t63.5 -20.5q39 0 63 25t24 67t-23 65.5t-64 23.5q-54 0 -78 -51l-49 9l31 221h217v-40h-181l-10 -70q-5 -47 -30 -86h27q25 56 87 56q51 0 85 -35.5t34 -91.5q0 -59 -37 -95.5t-96 -36.5q-56 0 -92 27.5t-43 75.5z" />
    <glyph glyph-name="uni2076" unicode="&#x2076;" horiz-adv-x="373" 
d="M52 583q0 98 47.5 156.5t128.5 58.5q40 0 77 -15v-45q-39 19 -78 19q-65 0 -102.5 -49.5t-40.5 -132.5h22q7 32 33.5 55.5t66.5 23.5q51 0 85 -37t34 -92q0 -58 -37 -95.5t-95 -37.5q-68 0 -104.5 49.5t-36.5 141.5zM279 523q0 41 -23.5 66t-61.5 25t-62 -25.5t-24 -65.5
q0 -39 24.5 -65.5t61.5 -26.5q38 0 61.5 25.5t23.5 66.5z" />
    <glyph glyph-name="uni2077" unicode="&#x2077;" horiz-adv-x="328" 
d="M251 748l7 6l-14 19q-15 -10 -21 -13t-19.5 -6t-35.5 -3h-134v40h263v-36q-94 -84 -123.5 -161t-30.5 -196h-48q-2 228 156 350z" />
    <glyph glyph-name="uni2078" unicode="&#x2078;" horiz-adv-x="369" 
d="M52 500q0 38 25 63t63 29v22q-33 4 -55 26t-22 58q0 42 34.5 71t87.5 29t86.5 -28.5t33.5 -71.5q0 -36 -22 -58.5t-52 -25.5v-22q38 -5 62 -29.5t24 -62.5q0 -46 -35.5 -77t-96.5 -31t-97 31t-36 77zM259 693q0 29 -20.5 47t-54.5 18t-54.5 -18t-20.5 -47
q0 -33 20.5 -53.5t54.5 -20.5t54.5 20.5t20.5 53.5zM271 506q0 35 -23.5 56.5t-63.5 21.5q-39 0 -62.5 -21.5t-23.5 -56.5t23 -55t63 -20t63.5 20t23.5 55z" />
    <glyph glyph-name="uni2079" unicode="&#x2079;" horiz-adv-x="375" 
d="M69 414v45q38 -26 87 -26q41 0 72 25.5t47 70.5q14 36 16 82h-22q-11 -35 -38 -55.5t-58 -20.5q-56 0 -91 35.5t-35 92.5q0 58 37.5 96.5t94.5 38.5q55 0 93 -35q50 -47 50 -153q0 -101 -44.5 -159.5t-120.5 -58.5q-53 0 -88 22zM268 666q0 41 -24.5 66.5t-63.5 25.5
t-63 -25t-24 -67t23.5 -66.5t63.5 -24.5q38 0 63 25.5t25 65.5z" />
    <glyph glyph-name="uni20A9" unicode="&#x20a9;" horiz-adv-x="999" 
d="M952 398h-105l-27 -106h102v-42h-112l-62 -250h-71l-71 250h-217l-72 -250h-71l-60 250h-109v42h98l-26 106h-102v42h92l-63 260h53l62 -260h204l76 260h57l74 -260h205l64 260h52l-65 -260h94v-42zM460 499l-16 -59h108l-17 59q-21 69 -22 154h-30q-1 -79 -23 -154z
M201 398l26 -106h125l31 106h-182zM401 292h193l-30 106h-132zM770 292l26 106h-182l30 -106h126zM331 217l9 33h-104l8 -32q13 -58 18 -95q4 -36 6 -81h31q0 44 7 76q9 42 25 99zM751 217l8 33h-103l10 -34q18 -64 24 -99q6 -29 8 -75h31q0 51 4 83q5 37 18 92z" />
    <glyph glyph-name="Euro" unicode="&#x20ac;" horiz-adv-x="696" 
d="M136 261h-90v43h84q-3 28 -3 53q0 9 2 57h-83v43h90q21 122 88 189t173 67q53 0 97 -18.5t72 -48.5t45 -62t25 -65l-48 -19q-15 69 -62.5 118t-130.5 49q-171 0 -227 -216l22 -16q41 22 114 22h129v-43h-254q-3 -27 -3 -53q0 -29 3 -57h254v-43h-129q-71 0 -114 23
l-22 -17q54 -234 227 -234q86 0 130 48q43 48 66 128l50 -19q-25 -84 -84 -144q-59 -59 -161 -59q-108 0 -175.5 74t-84.5 200z" />
    <glyph glyph-name="uni20B9" unicode="&#x20b9;" horiz-adv-x="574" 
d="M341 676l-12 -30q39 -14 65.5 -43t34.5 -68h92v-43h-90q-5 -59 -42.5 -96.5t-99.5 -47.5v-29q62 -6 90.5 -35t46.5 -95l56 -189h-54l-57 197q-17 60 -54.5 87t-103.5 27h-148v47h158q65 0 108.5 36t47.5 98h-314v43h313q-9 57 -51 89t-104 32h-158v44h456v-44h-79
q-56 0 -101 20z" />
    <glyph glyph-name="uni20BA" unicode="&#x20ba;" horiz-adv-x="563" 
d="M155 0v187q0 60 22 100l-28 15q-19 -33 -57 -54l-34 -19v49l97 54v85l-97 -53v50l97 53v233h50v-115q0 -58 -22 -95l27 -15q23 37 67 60l144 79v-49l-216 -119v-86l216 121v-50l-216 -120v-263l11 1q34 0 70.5 12t76.5 39t71.5 79.5t44.5 124.5l49 -18
q-24 -127 -110.5 -206.5t-234.5 -79.5h-28z" />
    <glyph glyph-name="uni20BD" unicode="&#x20bd;" horiz-adv-x="601" 
d="M335 299h-153v-98h172v-43h-172v-158h-50v158h-79v43h79v98h-79v45h79v356h206q103 0 161 -56t58 -144q0 -89 -59 -145t-163 -56zM182 653v-309h146q85 0 130.5 44.5t45.5 111.5t-44 110t-132 43h-146z" />
    <glyph glyph-name="uni20BF" unicode="&#x20bf;" horiz-adv-x="645" 
d="M395 0v-105h-43v105h-83v-105h-43v105h-112v700h112v105h43v-105h83v105h43v-107q79 -9 122.5 -54t43.5 -114q0 -64 -35.5 -101t-87.5 -47v-28q63 -7 107.5 -50.5t44.5 -115.5q0 -83 -54 -134t-141 -54zM165 653v-266h188q73 0 114 37.5t41 96.5q0 60 -41 96t-114 36
h-188zM536 195q0 63 -42.5 104t-114.5 41h-214v-293h213q72 0 115 42t43 106z" />
    <glyph glyph-name="uni2113" unicode="&#x2113;" horiz-adv-x="438" 
d="M111 113v111q-41 -8 -74 -9v44q30 1 74 11v291q0 62 33.5 107t97.5 45q70 0 111 -51t41 -131q0 -94 -59.5 -177t-173.5 -118v-127q0 -36 23 -56t52 -20q76 0 108 105l42 -23q-17 -65 -57 -96.5t-91 -31.5q-50 0 -88.5 29.5t-38.5 96.5zM341 531q0 58 -27 97t-72 39
q-81 0 -81 -120v-140q0 -50 -4.5 -74.5t-23.5 -50.5l18 -19q95 44 142.5 115t47.5 153z" />
    <glyph glyph-name="uni2116" unicode="&#x2116;" horiz-adv-x="1153" 
d="M115 0v700h82l419 -647l27 17q-17 29 -21 55q-5 30 -5 79v496h51v-700h-75l-424 655l-27 -17q24 -49 24 -140v-498h-51zM751 500q0 100 50.5 155t128.5 55t129 -55t51 -155q0 -99 -51 -155t-129 -56q-77 0 -128 56t-51 155zM1061 500q0 82 -35 126t-96 44t-95.5 -44
t-34.5 -126t34.5 -126t95.5 -44t96 44t35 126z" />
    <glyph glyph-name="uni2117" unicode="&#x2117;" horiz-adv-x="884" 
d="M59 352q-2 102 49 192t141 143t194 51q104 2 193.5 -51t140 -142.5t48.5 -192.5q2 -158 -110.5 -272t-271.5 -111q-159 -3 -273 111.5t-111 271.5zM780 352q2 142 -96.5 245t-240.5 101q-143 2 -242.5 -101t-96.5 -245q-2 -143 96.5 -244t242.5 -99q142 -2 240.5 99
t96.5 244zM327 157v399h144q66 0 108.5 -33.5t42.5 -97.5t-42 -97.5t-108 -33.5h-104v-137h-41zM368 332h90q121 0 121 93t-121 93h-90v-186z" />
    <glyph glyph-name="trademark" unicode="&#x2122;" horiz-adv-x="846" 
d="M162 323v336h-126v41h297v-41h-127v-336h-44zM397 323v377h71l71 -204q16 -48 21 -73q6 -29 7 -57h24q2 42 5 58q4 18 20 72l66 204h72v-377h-44v193q0 63 25 138l-24 9l-8 -25l-102 -315h-44l-109 314l-9 25l-23 -9q25 -70 25 -137v-193h-44z" />
    <glyph glyph-name="Omega" unicode="&#x2126;" horiz-adv-x="781" 
d="M91 0v47h59q57 0 109 -22l10 30q-204 68 -204 303q-2 154 91.5 255.5t234.5 99.5q140 2 233 -99.5t91 -255.5q0 -234 -203 -303l9 -30q52 22 110 22h59v-47h-250v54q103 21 162.5 103t59.5 201q0 132 -75.5 220t-196.5 88q-120 0 -195.5 -88.5t-75.5 -219.5
q0 -119 59 -201t162 -103v-54h-249z" />
    <glyph glyph-name="onethird" unicode="&#x2153;" horiz-adv-x="776" 
d="M147 307v248q0 46 16 89h-23q-28 -72 -97 -84v42q77 24 116 98h32v-393h-44zM74 0l495 700h52l-493 -700h-54zM466 119l44 11q-2 -44 22 -70.5t66 -26.5q37 0 60 20.5t23 54.5t-24.5 55t-64.5 21h-36v39h36q35 0 56.5 19.5t21.5 50.5q0 30 -20.5 48.5t-52.5 18.5
q-36 0 -57 -23t-19 -62l-45 11q0 49 34 81.5t87 32.5q52 0 85.5 -28.5t33.5 -73.5q0 -32 -21 -54.5t-54 -27.5v-22q37 -1 61 -26.5t24 -62.5q0 -51 -35 -81t-92 -30q-61 0 -97.5 34t-35.5 91z" />
    <glyph glyph-name="twothirds" unicode="&#x2154;" horiz-adv-x="870" 
d="M58 307v41q62 42 101 75q98 82 98 160q0 39 -21.5 61.5t-57.5 22.5q-33 0 -55 -21.5t-22 -62.5q0 -13 1 -18l-46 9v12q0 53 34 87t88 34q56 0 90.5 -33.5t34.5 -88.5q0 -57 -37 -106q-47 -65 -166 -131l11 -20q15 8 22.5 11t23 5.5t40.5 2.5h113v-40h-252zM168 0l495 700
h52l-493 -700h-54zM560 119l44 11q-2 -44 22 -70.5t66 -26.5q37 0 60 20.5t23 54.5t-24.5 55t-64.5 21h-36v39h36q35 0 56.5 19.5t21.5 50.5q0 30 -20.5 48.5t-52.5 18.5q-36 0 -57 -23t-19 -62l-45 11q0 49 34 81.5t87 32.5q52 0 85.5 -28.5t33.5 -73.5q0 -32 -21 -54.5
t-54 -27.5v-22q37 -1 61 -26.5t24 -62.5q0 -51 -35 -81t-92 -30q-61 0 -97.5 34t-35.5 91z" />
    <glyph glyph-name="uni2155" unicode="&#x2155;" horiz-adv-x="794" 
d="M147 307v248q0 46 16 89h-23q-28 -72 -97 -84v42q77 24 116 98h32v-393h-44zM74 0l495 700h52l-493 -700h-54zM471 97l45 16q3 -39 26.5 -59.5t63.5 -20.5q39 0 63 25t24 67t-23 65.5t-64 23.5q-54 0 -78 -51l-49 9l31 221h217v-40h-181l-10 -70q-5 -47 -30 -86h27
q25 56 87 56q51 0 85 -35.5t34 -91.5q0 -59 -37 -95.5t-96 -36.5q-56 0 -92 27.5t-43 75.5z" />
    <glyph glyph-name="uni2156" unicode="&#x2156;" horiz-adv-x="888" 
d="M58 307v41q62 42 101 75q98 82 98 160q0 39 -21.5 61.5t-57.5 22.5q-33 0 -55 -21.5t-22 -62.5q0 -13 1 -18l-46 9v12q0 53 34 87t88 34q56 0 90.5 -33.5t34.5 -88.5q0 -57 -37 -106q-47 -65 -166 -131l11 -20q15 8 22.5 11t23 5.5t40.5 2.5h113v-40h-252zM168 0l495 700
h52l-493 -700h-54zM565 97l45 16q3 -39 26.5 -59.5t63.5 -20.5q39 0 63 25t24 67t-23 65.5t-64 23.5q-54 0 -78 -51l-49 9l31 221h217v-40h-181l-10 -70q-5 -47 -30 -86h27q25 56 87 56q51 0 85 -35.5t34 -91.5q0 -59 -37 -95.5t-96 -36.5q-56 0 -92 27.5t-43 75.5z" />
    <glyph glyph-name="uni2157" unicode="&#x2157;" horiz-adv-x="889" 
d="M47 426l44 11q-2 -44 22 -70.5t66 -26.5q37 0 60 20.5t23 54.5t-24.5 55t-64.5 21h-36v39h36q35 0 56.5 19.5t21.5 50.5q0 30 -20.5 48.5t-52.5 18.5q-36 0 -57 -23t-19 -62l-45 11q0 49 34 81.5t87 32.5q52 0 85.5 -28.5t33.5 -73.5q0 -32 -21 -54.5t-54 -27.5v-22
q37 -1 61 -26.5t24 -62.5q0 -51 -35 -81t-92 -30q-61 0 -97.5 34t-35.5 91zM169 0l495 700h52l-493 -700h-54zM566 97l45 16q3 -39 26.5 -59.5t63.5 -20.5q39 0 63 25t24 67t-23 65.5t-64 23.5q-54 0 -78 -51l-49 9l31 221h217v-40h-181l-10 -70q-5 -47 -30 -86h27
q25 56 87 56q51 0 85 -35.5t34 -91.5q0 -59 -37 -95.5t-96 -36.5q-56 0 -92 27.5t-43 75.5z" />
    <glyph glyph-name="uni2158" unicode="&#x2158;" horiz-adv-x="877" 
d="M215 307v110h-180v44l159 239h63v-244h62v-39h-62v-110h-42zM215 456v123q0 40 20 67l-20 13l-141 -209l18 -14q20 20 51 20h72zM155 0l495 700h52l-493 -700h-54zM552 97l45 16q3 -39 26.5 -59.5t63.5 -20.5q39 0 63 25t24 67t-23 65.5t-64 23.5q-54 0 -78 -51l-49 9
l31 221h217v-40h-181l-10 -70q-5 -47 -30 -86h27q25 56 87 56q51 0 85 -35.5t34 -91.5q0 -59 -37 -95.5t-96 -36.5q-56 0 -92 27.5t-43 75.5z" />
    <glyph glyph-name="uni2159" unicode="&#x2159;" horiz-adv-x="793" 
d="M147 307v248q0 46 16 89h-23q-28 -72 -97 -84v42q77 24 116 98h32v-393h-44zM74 0l495 700h52l-493 -700h-54zM477 185q0 98 47.5 156.5t128.5 58.5q39 0 77 -15v-45q-39 19 -78 19q-65 0 -102.5 -49.5t-40.5 -132.5h22q7 32 33.5 55.5t66.5 23.5q51 0 85 -37t34 -92
q0 -58 -37 -95.5t-95 -37.5q-68 0 -104.5 49.5t-36.5 141.5zM704 125q0 41 -23.5 66t-61.5 25t-62 -25.5t-24 -65.5q0 -39 24.5 -65.5t61.5 -26.5q38 0 61.5 25.5t23.5 66.5z" />
    <glyph glyph-name="uni215A" unicode="&#x215a;" horiz-adv-x="895" 
d="M45 404l45 16q3 -39 26.5 -59.5t63.5 -20.5q39 0 63 25t24 67t-23 65.5t-64 23.5q-54 0 -78 -51l-49 9l31 221h217v-40h-181l-10 -70q-5 -47 -30 -86h27q25 56 87 56q51 0 85 -35.5t34 -91.5q0 -59 -37 -95.5t-96 -36.5q-56 0 -92 27.5t-43 75.5zM169 0l495 700h52
l-493 -700h-54zM573 185q0 98 47.5 156.5t128.5 58.5q39 0 77 -15v-45q-39 19 -78 19q-65 0 -102.5 -49.5t-40.5 -132.5h22q7 32 33.5 55.5t66.5 23.5q51 0 85 -37t34 -92q0 -58 -37 -95.5t-95 -37.5q-68 0 -104.5 49.5t-36.5 141.5zM800 125q0 41 -23.5 66t-61.5 25
t-62 -25.5t-24 -65.5q0 -39 24.5 -65.5t61.5 -26.5q38 0 61.5 25.5t23.5 66.5z" />
    <glyph glyph-name="oneeighth" unicode="&#x215b;" horiz-adv-x="789" 
d="M147 307v248q0 46 16 89h-23q-28 -72 -97 -84v42q77 24 116 98h32v-393h-44zM74 0l495 700h52l-493 -700h-54zM475 102q0 38 25 63t63 29v22q-33 4 -55 26t-22 58q0 42 34.5 71t87.5 29t86.5 -28.5t33.5 -71.5q0 -36 -22 -58.5t-52 -25.5v-22q38 -5 62 -29.5t24 -62.5
q0 -46 -35.5 -77t-96.5 -31t-97 31t-36 77zM682 295q0 29 -20.5 47t-54.5 18t-54.5 -18t-20.5 -47q0 -33 20.5 -53.5t54.5 -20.5t54.5 20.5t20.5 53.5zM694 108q0 35 -23.5 56.5t-63.5 21.5q-39 0 -62.5 -21.5t-23.5 -56.5t23 -55t63 -20t63.5 20t23.5 55z" />
    <glyph glyph-name="threeeighths" unicode="&#x215c;" horiz-adv-x="883" 
d="M47 426l44 11q-2 -44 22 -70.5t66 -26.5q37 0 60 20.5t23 54.5t-24.5 55t-64.5 21h-36v39h36q35 0 56.5 19.5t21.5 50.5q0 30 -20.5 48.5t-52.5 18.5q-36 0 -57 -23t-19 -62l-45 11q0 49 34 81.5t87 32.5q52 0 85.5 -28.5t33.5 -73.5q0 -32 -21 -54.5t-54 -27.5v-22
q37 -1 61 -26.5t24 -62.5q0 -51 -35 -81t-92 -30q-61 0 -97.5 34t-35.5 91zM169 0l495 700h52l-493 -700h-54zM570 102q0 38 25 63t63 29v22q-33 4 -55 26t-22 58q0 42 34.5 71t87.5 29t86.5 -28.5t33.5 -71.5q0 -36 -22 -58.5t-52 -25.5v-22q38 -5 62 -29.5t24 -62.5
q0 -46 -35.5 -77t-96.5 -31t-97 31t-36 77zM777 295q0 29 -20.5 47t-54.5 18t-54.5 -18t-20.5 -47q0 -33 20.5 -53.5t54.5 -20.5t54.5 20.5t20.5 53.5zM789 108q0 35 -23.5 56.5t-63.5 21.5q-39 0 -62.5 -21.5t-23.5 -56.5t23 -55t63 -20t63.5 20t23.5 55z" />
    <glyph glyph-name="fiveeighths" unicode="&#x215d;" horiz-adv-x="884" 
d="M45 404l45 16q3 -39 26.5 -59.5t63.5 -20.5q39 0 63 25t24 67t-23 65.5t-64 23.5q-54 0 -78 -51l-49 9l31 221h217v-40h-181l-10 -70q-5 -47 -30 -86h27q25 56 87 56q51 0 85 -35.5t34 -91.5q0 -59 -37 -95.5t-96 -36.5q-56 0 -92 27.5t-43 75.5zM169 0l495 700h52
l-493 -700h-54zM571 102q0 38 25 63t63 29v22q-33 4 -55 26t-22 58q0 42 34.5 71t87.5 29t86.5 -28.5t33.5 -71.5q0 -36 -22 -58.5t-52 -25.5v-22q38 -5 62 -29.5t24 -62.5q0 -46 -35.5 -77t-96.5 -31t-97 31t-36 77zM778 295q0 29 -20.5 47t-54.5 18t-54.5 -18t-20.5 -47
q0 -33 20.5 -53.5t54.5 -20.5t54.5 20.5t20.5 53.5zM790 108q0 35 -23.5 56.5t-63.5 21.5q-39 0 -62.5 -21.5t-23.5 -56.5t23 -55t63 -20t63.5 20t23.5 55z" />
    <glyph glyph-name="seveneighths" unicode="&#x215e;" horiz-adv-x="790" 
d="M256 657l7 6l-14 19q-15 -10 -21 -13t-19.5 -6t-35.5 -3h-134v40h263v-36q-94 -84 -123.5 -161t-30.5 -196h-48q-2 228 156 350zM76 0l495 700h52l-493 -700h-54zM477 102q0 38 25 63t63 29v22q-33 4 -55 26t-22 58q0 42 34.5 71t87.5 29t86.5 -28.5t33.5 -71.5
q0 -36 -22 -58.5t-52 -25.5v-22q38 -5 62 -29.5t24 -62.5q0 -46 -35.5 -77t-96.5 -31t-97 31t-36 77zM684 295q0 29 -20.5 47t-54.5 18t-54.5 -18t-20.5 -47q0 -33 20.5 -53.5t54.5 -20.5t54.5 20.5t20.5 53.5zM696 108q0 35 -23.5 56.5t-63.5 21.5q-39 0 -62.5 -21.5
t-23.5 -56.5t23 -55t63 -20t63.5 20t23.5 55z" />
    <glyph glyph-name="uni215F" unicode="&#x215f;" horiz-adv-x="320" 
d="M145 307v248q0 46 16 89h-23q-28 -72 -97 -84v42q77 24 116 98h32v-393h-44zM72 0l495 700h52l-493 -700h-54z" />
    <glyph glyph-name="arrowleft" unicode="&#x2190;" horiz-adv-x="841" 
d="M795 326h-675v-28q44 -9 91 -56l127 -126l-34 -33l-264 267l264 268l34 -35l-126 -124q-48 -48 -92 -57v-27h675v-49z" />
    <glyph glyph-name="arrowup" unicode="&#x2191;" horiz-adv-x="595" 
d="M273 0v675h-27q-10 -44 -57 -91l-126 -127l-33 34l267 264l268 -264l-34 -34l-124 126q-49 46 -58 92h-27v-675h-49z" />
    <glyph glyph-name="arrowright" unicode="&#x2192;" horiz-adv-x="842" 
d="M46 375h675v27q-44 9 -91 56l-127 126l35 34l263 -268l-263 -267l-35 34l126 124q48 48 92 57v28h-675v49z" />
    <glyph glyph-name="arrowdown" unicode="&#x2193;" horiz-adv-x="595" 
d="M322 700v-675h27q9 44 56 91l126 127l34 -34l-268 -264l-267 264l34 34l124 -125q49 -51 58 -93h27v675h49z" />
    <glyph glyph-name="uni2196" unicode="&#x2196;" horiz-adv-x="640" 
d="M605 208l-35 -34l-450 451l-19 -19q26 -42 26 -104v-179h-47v377h376v-47h-177q-64 0 -106 26l-19 -19z" />
    <glyph glyph-name="uni2197" unicode="&#x2197;" horiz-adv-x="642" 
d="M69 175l-34 34l452 451l-20 19q-42 -26 -103 -26h-179v47h377v-376h-48v176q0 67 27 106l-20 20z" />
    <glyph glyph-name="uni2198" unicode="&#x2198;" horiz-adv-x="634" 
d="M27 492l35 34l451 -451l19 19q-27 44 -27 104v179h48v-377h-376v47h176q68 0 106 -26l20 20z" />
    <glyph glyph-name="uni2199" unicode="&#x2199;" horiz-adv-x="636" 
d="M574 525l34 -34l-452 -451l20 -19q42 26 103 26h179v-47h-376v376h47v-176q0 -66 -26 -106l19 -20z" />
    <glyph glyph-name="uni21A4" unicode="&#x21a4;" horiz-adv-x="914" 
d="M750 578h46v-455h-46v203h-629v-28q44 -9 91 -56l127 -126l-34 -33l-263 267l263 268l34 -35l-125 -124q-51 -48 -93 -57v-27h629v203z" />
    <glyph glyph-name="uni21A5" unicode="&#x21a5;" horiz-adv-x="606" 
d="M354 675h-27v-630h204v-45h-456v45h203v630h-27q-9 -44 -56 -91l-126 -127l-34 34l268 263l267 -263l-34 -34l-124 125q-49 51 -58 93z" />
    <glyph glyph-name="uni21A6" unicode="&#x21a6;" horiz-adv-x="914" 
d="M609 618l264 -268l-264 -267l-34 34l125 124q51 48 93 57v28h-629v-204h-46v456h46v-203h629v27q-44 9 -91 56l-127 126z" />
    <glyph glyph-name="uni21A7" unicode="&#x21a7;" horiz-adv-x="606" 
d="M538 243l33 -34l-267 -263l-268 263l34 34l124 -125q49 -49 58 -93h27v630h-203v45h455v-45h-203v-630h27q10 44 57 91z" />
    <glyph glyph-name="uni21B0" unicode="&#x21b0;" horiz-adv-x="862" 
d="M112 375h675v-375h-48v326h-627v-28q44 -9 91 -56l127 -126l-34 -33l-264 267l264 268l34 -35l-125 -124q-52 -49 -93 -57v-27z" />
    <glyph glyph-name="uni21B1" unicode="&#x21b1;" horiz-adv-x="862" 
d="M566 618l264 -268l-264 -267l-34 34l126 124q48 48 92 57v28h-627v-326h-48v375h675v27q-44 9 -91 56l-127 126z" />
    <glyph glyph-name="uni21B2" unicode="&#x21b2;" horiz-adv-x="863" 
d="M739 700h48v-374h-675v-28q44 -9 91 -56l127 -126l-34 -33l-264 267l264 268l34 -35l-125 -124q-52 -49 -93 -57v-27h627v325z" />
    <glyph glyph-name="uni21B3" unicode="&#x21b3;" horiz-adv-x="863" 
d="M567 618l264 -268l-264 -267l-34 34l125 124q51 48 92 57v28h-674v374h48v-325h626v27q-43 9 -90 56l-127 126z" />
    <glyph glyph-name="partialdiff" unicode="&#x2202;" horiz-adv-x="590" 
d="M54 223q0 94 58 158t159 64q73 0 120.5 -39.5t60.5 -95.5h31q-2 158 -75.5 256.5t-208.5 98.5q-58 0 -107 -16v50q44 14 111 14q85 1 149 -32t101 -89.5t54.5 -123t17.5 -140.5q0 -174 -66 -257.5t-177 -83.5q-109 0 -168.5 68.5t-59.5 167.5zM456 217q0 80 -50.5 131.5
t-124.5 51.5q-76 0 -124.5 -49.5t-48.5 -133.5t49 -134t124 -50q74 0 124.5 51t50.5 133z" />
    <glyph glyph-name="Delta" unicode="&#x2206;" horiz-adv-x="655" 
d="M362 700l263 -700h-595l263 700h69zM103 47h448l-188 509q-21 65 -21 109h-31q-1 -53 -23 -112z" />
    <glyph glyph-name="product" unicode="&#x220f;" horiz-adv-x="675" 
d="M636 700v-48h-97v-761h-51v761h-302v-761h-50v761h-97v48h597z" />
    <glyph glyph-name="summation" unicode="&#x2211;" horiz-adv-x="532" 
d="M41 -110v52l276 352l-275 351v55h448v-46h-250q-58 0 -81 4.5t-44 20.5l-20 -22l284 -362l-284 -362l21 -22q19 16 44 21t81 5h252v-47h-452z" />
    <glyph glyph-name="minus" unicode="&#x2212;" horiz-adv-x="693" 
d="M83 329v47h528v-47h-528z" />
    <glyph glyph-name="uni2215" unicode="&#x2215;" horiz-adv-x="329" 
d="M4 -109l274 918h48l-275 -918h-47z" />
    <glyph glyph-name="radical" unicode="&#x221a;" horiz-adv-x="616" 
d="M274 -109l-156 445h-101v47h137l98 -287q21 -58 29 -90q10 -34 12 -79h29q3 40 11 78q8 29 27 89l198 606h53l-271 -809h-66z" />
    <glyph glyph-name="infinity" unicode="&#x221e;" horiz-adv-x="854" 
d="M64 355q0 76 51 128t122 52q128 0 177 -154h27q50 154 177 154q71 0 122 -52t51 -128t-51 -128t-122 -52q-127 0 -177 154h-27q-49 -154 -177 -154q-71 0 -122 52t-51 128zM402 355q-41 72 -75.5 103.5t-84.5 31.5q-57 0 -93.5 -40t-36.5 -95t36.5 -95t93.5 -40
q50 0 83.5 30.5t76.5 104.5zM743 355q0 55 -36.5 95t-93.5 40q-50 0 -84.5 -31.5t-75.5 -103.5q43 -74 76.5 -104.5t83.5 -30.5q57 0 93.5 40t36.5 95z" />
    <glyph glyph-name="integral" unicode="&#x222b;" horiz-adv-x="364" 
d="M2 -196v46h87q67 0 67 72v659q0 54 28.5 86.5t85.5 32.5h90v-45h-93q-27 0 -44 -21.5t-17 -56.5v-653q0 -54 -28.5 -87t-85.5 -33h-90z" />
    <glyph glyph-name="approxequal" unicode="&#x2248;" horiz-adv-x="650" 
d="M333 441l-30 13q-57 25 -89 25q-50 0 -101 -54l-30 37q58 67 135 67q37 0 100 -27l30 -13q57 -25 89 -25q51 0 102 54l30 -37q-61 -67 -136 -67q-34 0 -100 27zM333 221l-30 13q-57 25 -89 25q-50 0 -101 -54l-30 37q58 67 135 67q37 0 100 -27l30 -13q57 -25 89 -25
q51 0 102 54l30 -37q-61 -67 -136 -67q-34 0 -100 27z" />
    <glyph glyph-name="notequal" unicode="&#x2260;" horiz-adv-x="703" 
d="M157 77l94 152h-168v47h198l47 77q30 46 70 70l-15 26q-35 -20 -74 -20h-226v47h322l88 141h54l-88 -141h162v-47h-190l-47 -76q-31 -49 -71 -71l16 -26q35 20 74 20h218v-47h-314l-95 -152h-55z" />
    <glyph glyph-name="lessequal" unicode="&#x2264;" horiz-adv-x="704" 
d="M616 176l-538 187v70l538 190v-52l-386 -135q-57 -20 -119 -21v-31q47 0 118 -22l387 -133v-53zM78 83v48h538v-48h-538z" />
    <glyph glyph-name="greaterequal" unicode="&#x2265;" horiz-adv-x="704" 
d="M88 176v52l387 133q62 22 118 22v31q-61 2 -120 21l-385 134v54l537 -190v-70zM88 83v48h537v-48h-537z" />
    <glyph glyph-name="angleleft" unicode="&#x2329;" horiz-adv-x="319" 
d="M292 746l-211 -442l210 -447l-42 -19l-217 464l218 463z" />
    <glyph glyph-name="angleright" unicode="&#x232a;" horiz-adv-x="317" 
d="M70 765l217 -463l-218 -464l-42 20l211 442l-210 446z" />
    <glyph glyph-name="uni2460" unicode="&#x2460;" horiz-adv-x="879" 
d="M56 352q-2 102 49.5 192.5t141.5 143.5t194 51q158 3 271.5 -113.5t110.5 -273.5q2 -103 -48.5 -192.5t-140 -141.5t-193.5 -50q-105 -2 -195 50t-141 141.5t-49 192.5zM780 352q2 143 -97.5 246.5t-242.5 100.5q-142 3 -242.5 -101t-97.5 -246q-3 -142 97 -244t243 -100
q144 -2 243 100t97 244zM435 157v248q0 46 16 89h-23q-28 -71 -97 -85v42q78 25 116 99h32v-393h-44z" />
    <glyph glyph-name="uni2461" unicode="&#x2461;" horiz-adv-x="879" 
d="M56 352q-2 102 49.5 192.5t141.5 143.5t194 51q158 3 271.5 -113.5t110.5 -273.5q2 -103 -48.5 -192.5t-140 -141.5t-193.5 -50q-105 -2 -195 50t-141 141.5t-49 192.5zM780 352q2 143 -97.5 246.5t-242.5 100.5q-142 3 -242.5 -101t-97.5 -246q-3 -142 97 -244t243 -100
q144 -2 243 100t97 244zM315 157v40q100 69 148.5 121t51.5 114q0 39 -21.5 62t-57.5 23q-34 0 -56 -21.5t-22 -62.5q0 -14 1 -18l-45 9q-1 3 -1 12q0 54 34 87t89 33t90 -33.5t35 -87.5q0 -57 -37 -106q-49 -67 -166 -131l11 -20q15 8 21.5 10.5t22.5 5t42 3.5h112v-40
h-252z" />
    <glyph glyph-name="uni2462" unicode="&#x2462;" horiz-adv-x="879" 
d="M56 352q-2 102 49.5 192.5t141.5 143.5t194 51q158 3 271.5 -113.5t110.5 -273.5q2 -103 -48.5 -192.5t-140 -141.5t-193.5 -50q-105 -2 -195 50t-141 141.5t-49 192.5zM780 352q2 143 -97.5 246.5t-242.5 100.5q-142 3 -242.5 -101t-97.5 -246q-3 -142 97 -244t243 -100
q144 -2 243 100t97 244zM304 275l44 11q-2 -43 22 -70t66 -27q37 0 60 21t23 54q0 35 -24.5 56t-64.5 21h-36v39h36q35 0 56.5 19.5t21.5 50.5q0 30 -20.5 48.5t-52.5 18.5q-37 0 -57.5 -23.5t-18.5 -61.5l-45 11q-1 48 33.5 80.5t87.5 32.5q51 0 85 -29t34 -72
q0 -33 -21 -55.5t-54 -26.5v-22q37 -3 61 -27.5t24 -62.5q0 -50 -35 -80.5t-92 -30.5q-62 0 -98.5 34.5t-34.5 90.5z" />
    <glyph glyph-name="uni2463" unicode="&#x2463;" horiz-adv-x="879" 
d="M56 352q-2 102 49.5 192.5t141.5 143.5t194 51q158 3 271.5 -113.5t110.5 -273.5q2 -103 -48.5 -192.5t-140 -141.5t-193.5 -50q-105 -2 -195 50t-141 141.5t-49 192.5zM780 352q2 143 -97.5 246.5t-242.5 100.5q-142 3 -242.5 -101t-97.5 -246q-3 -142 97 -244t243 -100
q144 -2 243 100t97 244zM460 157v110h-180v44l159 239h63v-245h62v-38h-62v-110h-42zM460 305v124q0 38 20 67l-20 13l-141 -209l18 -15q20 20 51 20h72z" />
    <glyph glyph-name="uni2464" unicode="&#x2464;" horiz-adv-x="879" 
d="M56 352q-2 102 49.5 192.5t141.5 143.5t194 51q158 3 271.5 -113.5t110.5 -273.5q2 -103 -48.5 -192.5t-140 -141.5t-193.5 -50q-105 -2 -195 50t-141 141.5t-49 192.5zM780 352q2 143 -97.5 246.5t-242.5 100.5q-142 3 -242.5 -101t-97.5 -246q-3 -142 97 -244t243 -100
q144 -2 243 100t97 244zM303 253l44 17q8 -81 90 -81q40 0 63.5 25.5t23.5 67.5t-23 65.5t-63 23.5q-54 0 -79 -51l-48 8l30 222h218v-40h-182l-9 -71q-7 -50 -31 -85h27q25 56 87 56q50 0 85 -36t35 -92q0 -57 -37.5 -94.5t-95.5 -37.5q-56 0 -92.5 28t-42.5 75z" />
    <glyph glyph-name="uni2465" unicode="&#x2465;" horiz-adv-x="879" 
d="M56 352q-2 102 49.5 192.5t141.5 143.5t194 51q158 3 271.5 -113.5t110.5 -273.5q2 -103 -48.5 -192.5t-140 -141.5t-193.5 -50q-105 -2 -195 50t-141 141.5t-49 192.5zM780 352q2 143 -97.5 246.5t-242.5 100.5q-142 3 -242.5 -101t-97.5 -246q-3 -142 97 -244t243 -100
q144 -2 243 100t97 244zM290 342q0 98 47.5 156t128.5 58q42 0 77 -14v-45q-41 18 -79 18q-64 0 -101.5 -49t-40.5 -133h22q6 32 33 55.5t66 23.5q52 0 86 -36t34 -92q0 -58 -37.5 -96t-94.5 -38q-68 0 -104.5 50t-36.5 142zM517 282q0 41 -23.5 66t-61.5 25
q-37 0 -61.5 -26t-24.5 -65q0 -41 24.5 -67t61.5 -26q38 0 61.5 26t23.5 67z" />
    <glyph glyph-name="uni2466" unicode="&#x2466;" horiz-adv-x="879" 
d="M56 352q-2 102 49.5 192.5t141.5 143.5t194 51q158 3 271.5 -113.5t110.5 -273.5q2 -103 -48.5 -192.5t-140 -141.5t-193.5 -50q-105 -2 -195 50t-141 141.5t-49 192.5zM780 352q2 143 -97.5 246.5t-242.5 100.5q-142 3 -242.5 -101t-97.5 -246q-3 -142 97 -244t243 -100
q144 -2 243 100t97 244zM537 507l7 5l-14 20q-17 -13 -30.5 -17.5t-45.5 -4.5h-134v40h263v-37q-93 -82 -123.5 -160.5t-30.5 -195.5h-48q-2 228 156 350z" />
    <glyph glyph-name="uni2467" unicode="&#x2467;" horiz-adv-x="879" 
d="M56 352q-2 102 49.5 192.5t141.5 143.5t194 51q158 3 271.5 -113.5t110.5 -273.5q2 -103 -48.5 -192.5t-140 -141.5t-193.5 -50q-105 -2 -195 50t-141 141.5t-49 192.5zM780 352q2 143 -97.5 246.5t-242.5 100.5q-142 3 -242.5 -101t-97.5 -246q-3 -142 97 -244t243 -100
q144 -2 243 100t97 244zM307 259q0 37 25 62t64 30v22q-34 3 -55.5 25t-21.5 59q0 42 34.5 70.5t86.5 28.5t86.5 -28.5t34.5 -70.5q0 -36 -22.5 -58.5t-51.5 -25.5v-22q37 -6 61 -30.5t24 -61.5q0 -46 -35.5 -77.5t-96.5 -31.5q-62 0 -97.5 31.5t-35.5 77.5zM515 451
q0 30 -20.5 48t-55.5 18q-34 0 -54 -18t-20 -48q0 -32 20.5 -53t53.5 -21q35 0 55.5 20.5t20.5 53.5zM526 264q0 35 -23.5 56.5t-63.5 21.5q-39 0 -62 -21.5t-23 -56.5t22.5 -55t62.5 -20t63.5 20t23.5 55z" />
    <glyph glyph-name="uni2468" unicode="&#x2468;" horiz-adv-x="879" 
d="M56 352q-2 102 49.5 192.5t141.5 143.5t194 51q158 3 271.5 -113.5t110.5 -273.5q2 -103 -48.5 -192.5t-140 -141.5t-193.5 -50q-105 -2 -195 50t-141 141.5t-49 192.5zM780 352q2 143 -97.5 246.5t-242.5 100.5q-142 3 -242.5 -101t-97.5 -246q-3 -142 97 -244t243 -100
q144 -2 243 100t97 244zM334 172v46q40 -27 87 -27q86 0 120 97q13 38 15 81h-22q-11 -35 -38 -55t-58 -20q-55 0 -90 35.5t-35 91.5q0 60 36.5 97.5t95.5 37.5q55 0 93 -35q49 -46 49 -152q0 -102 -43.5 -160.5t-120.5 -58.5q-52 0 -89 22zM534 425q0 41 -25 66.5t-64 25.5
t-63 -25.5t-24 -66.5q0 -42 24 -67t63 -25t64 25.5t25 66.5z" />
    <glyph glyph-name="uni24EA" unicode="&#x24ea;" horiz-adv-x="879" 
d="M56 352q-2 102 49.5 192.5t141.5 143.5t194 51q158 3 271.5 -113.5t110.5 -273.5q2 -103 -48.5 -192.5t-140 -141.5t-193.5 -50q-105 -2 -195 50t-141 141.5t-49 192.5zM780 352q2 143 -97.5 246.5t-242.5 100.5q-142 3 -242.5 -101t-97.5 -246q-3 -142 97 -244t243 -100
q144 -2 243 100t97 244zM283 356q0 90 43.5 145t114.5 55q70 0 112.5 -54.5t42.5 -145.5q0 -93 -42.5 -149.5t-112.5 -56.5q-72 0 -115 56.5t-43 149.5zM549 356q0 72 -30 116.5t-78 44.5q-51 0 -81.5 -44t-30.5 -117q0 -77 30 -121.5t82 -44.5q49 0 78.5 45t29.5 121z" />
    <glyph glyph-name="uni24FF" unicode="&#x24ff;" horiz-adv-x="879" 
d="M823 352q2 -103 -48.5 -192.5t-140 -141.5t-193.5 -50q-105 -2 -195 50t-141 141.5t-49 192.5q-2 102 49.5 192.5t141.5 143.5t194 51q158 3 271.5 -113.5t110.5 -273.5zM283 356q0 -93 43 -149.5t115 -56.5q70 0 112.5 56.5t42.5 149.5q0 91 -42.5 145.5t-112.5 54.5
q-71 0 -114.5 -55t-43.5 -145zM549 356q0 -76 -29.5 -121t-78.5 -45q-52 0 -82 44.5t-30 121.5q0 73 30.5 117t81.5 44q48 0 78 -44.5t30 -116.5z" />
    <glyph glyph-name="lozenge" unicode="&#x25ca;" horiz-adv-x="601" 
d="M267 0l-225 349l227 351h65l224 -352l-225 -348h-66zM500 348l-139 219q-42 65 -46 101h-28q-5 -35 -48 -101l-138 -216l138 -219l7 -12q40 -63 41 -90h29q3 32 46 101z" />
    <glyph glyph-name="uni274C" unicode="&#x274c;" horiz-adv-x="770" 
d="M66 -13l-33 34l318 328l-319 329l34 35l319 -329l319 329l33 -34l-319 -329l319 -329l-34 -34l-319 329z" />
    <glyph glyph-name="uni2776" unicode="&#x2776;" horiz-adv-x="879" 
d="M823 352q2 -103 -48.5 -192.5t-140 -141.5t-193.5 -50q-105 -2 -195 50t-141 141.5t-49 192.5q-2 102 49.5 192.5t141.5 143.5t194 51q158 3 271.5 -113.5t110.5 -273.5zM435 405v-248h44v393h-32q-38 -74 -116 -99v-42q69 14 97 85h23q-16 -43 -16 -89z" />
    <glyph glyph-name="uni2777" unicode="&#x2777;" horiz-adv-x="879" 
d="M823 352q2 -103 -48.5 -192.5t-140 -141.5t-193.5 -50q-105 -2 -195 50t-141 141.5t-49 192.5q-2 102 49.5 192.5t141.5 143.5t194 51q158 3 271.5 -113.5t110.5 -273.5zM315 197v-40h252v40h-112q-26 -1 -42 -3.5t-22.5 -5t-21.5 -10.5l-11 20q117 64 166 131
q37 49 37 106q0 54 -35 87.5t-90 33.5t-89 -33t-34 -87q0 -9 1 -12l45 -9q-1 4 -1 18q0 41 22 62.5t56 21.5q36 0 57.5 -23t21.5 -62q-3 -62 -51.5 -114t-148.5 -121z" />
    <glyph glyph-name="uni2778" unicode="&#x2778;" horiz-adv-x="879" 
d="M823 352q2 -103 -48.5 -192.5t-140 -141.5t-193.5 -50q-105 -2 -195 50t-141 141.5t-49 192.5q-2 102 49.5 192.5t141.5 143.5t194 51q158 3 271.5 -113.5t110.5 -273.5zM304 275q-2 -56 34.5 -90.5t98.5 -34.5q57 0 92 30.5t35 80.5q0 38 -24 62.5t-61 27.5v22
q33 4 54 26.5t21 55.5q0 43 -34 72t-85 29q-53 0 -87.5 -32.5t-33.5 -80.5l45 -11q-2 38 18.5 61.5t57.5 23.5q32 0 52.5 -18.5t20.5 -48.5q0 -31 -21.5 -50.5t-56.5 -19.5h-36v-39h36q40 0 64.5 -21t24.5 -56q0 -33 -23 -54t-60 -21q-42 0 -66 27t-22 70z" />
    <glyph glyph-name="uni2779" unicode="&#x2779;" horiz-adv-x="879" 
d="M823 352q2 -103 -48.5 -192.5t-140 -141.5t-193.5 -50q-105 -2 -195 50t-141 141.5t-49 192.5q-2 102 49.5 192.5t141.5 143.5t194 51q158 3 271.5 -113.5t110.5 -273.5zM460 267v-110h42v110h62v38h-62v245h-63l-159 -239v-44h180zM460 429v-124h-72q-31 0 -51 -20
l-18 15l141 209l20 -13q-20 -29 -20 -67z" />
    <glyph glyph-name="uni277A" unicode="&#x277a;" horiz-adv-x="879" 
d="M823 352q2 -103 -48.5 -192.5t-140 -141.5t-193.5 -50q-105 -2 -195 50t-141 141.5t-49 192.5q-2 102 49.5 192.5t141.5 143.5t194 51q158 3 271.5 -113.5t110.5 -273.5zM303 253q6 -47 42.5 -75t92.5 -28q58 0 95.5 37.5t37.5 94.5q0 56 -35 92t-85 36q-62 0 -87 -56
h-27q24 35 31 85l9 71h182v40h-218l-30 -222l48 -8q25 51 79 51q40 0 63 -23.5t23 -65.5t-23.5 -67.5t-63.5 -25.5q-82 0 -90 81z" />
    <glyph glyph-name="uni277B" unicode="&#x277b;" horiz-adv-x="879" 
d="M823 352q2 -103 -48.5 -192.5t-140 -141.5t-193.5 -50q-105 -2 -195 50t-141 141.5t-49 192.5q-2 102 49.5 192.5t141.5 143.5t194 51q158 3 271.5 -113.5t110.5 -273.5zM290 342q0 -92 36.5 -142t104.5 -50q57 0 94.5 38t37.5 96q0 56 -34 92t-86 36q-39 0 -66 -23.5
t-33 -55.5h-22q3 84 40.5 133t101.5 49q38 0 79 -18v45q-35 14 -77 14q-81 0 -128.5 -58t-47.5 -156zM517 282q0 -41 -23.5 -67t-61.5 -26q-37 0 -61.5 26t-24.5 67q0 39 24.5 65t61.5 26q38 0 61.5 -25t23.5 -66z" />
    <glyph glyph-name="uni277C" unicode="&#x277c;" horiz-adv-x="879" 
d="M823 352q2 -103 -48.5 -192.5t-140 -141.5t-193.5 -50q-105 -2 -195 50t-141 141.5t-49 192.5q-2 102 49.5 192.5t141.5 143.5t194 51q158 3 271.5 -113.5t110.5 -273.5zM537 507q-158 -122 -156 -350h48q0 117 30.5 195.5t123.5 160.5v37h-263v-40h134q32 0 45.5 4.5
t30.5 17.5l14 -20z" />
    <glyph glyph-name="uni277D" unicode="&#x277d;" horiz-adv-x="879" 
d="M823 352q2 -103 -48.5 -192.5t-140 -141.5t-193.5 -50q-105 -2 -195 50t-141 141.5t-49 192.5q-2 102 49.5 192.5t141.5 143.5t194 51q158 3 271.5 -113.5t110.5 -273.5zM307 259q0 -46 35.5 -77.5t97.5 -31.5q61 0 96.5 31.5t35.5 77.5q0 37 -24 61.5t-61 30.5v22
q29 3 51.5 25.5t22.5 58.5q0 42 -34.5 70.5t-86.5 28.5t-86.5 -28.5t-34.5 -70.5q0 -37 21.5 -59t55.5 -25v-22q-39 -5 -64 -30t-25 -62zM515 451q0 -33 -20.5 -53.5t-55.5 -20.5q-33 0 -53.5 21t-20.5 53q0 30 20 48t54 18q35 0 55.5 -18t20.5 -48zM526 264
q0 -35 -23.5 -55t-63.5 -20t-62.5 20t-22.5 55t23 56.5t62 21.5q40 0 63.5 -21.5t23.5 -56.5z" />
    <glyph glyph-name="uni277E" unicode="&#x277e;" horiz-adv-x="879" 
d="M823 352q2 -103 -48.5 -192.5t-140 -141.5t-193.5 -50q-105 -2 -195 50t-141 141.5t-49 192.5q-2 102 49.5 192.5t141.5 143.5t194 51q158 3 271.5 -113.5t110.5 -273.5zM334 172q37 -22 89 -22q77 0 120.5 58.5t43.5 160.5q0 106 -49 152q-38 35 -93 35
q-59 0 -95.5 -37.5t-36.5 -97.5q0 -56 35 -91.5t90 -35.5q31 0 58 20t38 55h22q-2 -43 -15 -81q-34 -97 -120 -97q-47 0 -87 27v-46zM534 425q0 -41 -25 -66.5t-64 -25.5t-63 25t-24 67q0 41 24 66.5t63 25.5t64 -25.5t25 -66.5z" />
    <glyph glyph-name="uni300A" unicode="&#x300a;" horiz-adv-x="494" 
d="M292 746l-211 -443l210 -446l-42 -19l-217 463l218 464zM466 746l-211 -443l210 -446l-42 -19l-217 463l218 464z" />
    <glyph glyph-name="uni300B" unicode="&#x300b;" horiz-adv-x="491" 
d="M70 765l217 -463l-218 -464l-42 20l211 443l-210 445zM245 765l216 -463l-217 -464l-43 20l211 443l-209 445z" />
    <glyph glyph-name="uni300C" unicode="&#x300c;" horiz-adv-x="332" 
d="M89 317v438h225v-43h-178v-395h-47z" />
    <glyph glyph-name="uni300D" unicode="&#x300d;" horiz-adv-x="248" 
d="M166 288v-438h-225v43h178v395h47z" />
    <glyph glyph-name="uni300E" unicode="&#x300e;" horiz-adv-x="430" 
d="M90 241v514h301v-149h-158v-365h-143zM134 283h57v362h158v68h-215v-430z" />
    <glyph glyph-name="uni300F" unicode="&#x300f;" horiz-adv-x="426" 
d="M337 364v-514h-301v149h158v365h143zM293 322h-57v-362h-157v-68h214v430z" />
    <glyph glyph-name="uni3010" unicode="&#x3010;" horiz-adv-x="347" 
d="M107 -150v905h227q-95 -110 -139 -219.5t-44 -235.5q0 -125 42.5 -230t140.5 -220h-227z" />
    <glyph glyph-name="uni3011" unicode="&#x3011;" horiz-adv-x="347" 
d="M240 755v-904h-228q95 109 139.5 218.5t44.5 235.5t-42.5 231t-141.5 219h228z" />
    <glyph glyph-name="uni3014" unicode="&#x3014;" horiz-adv-x="280" 
d="M123 17l133 -146l-34 -33l-146 164v598l146 165l33 -32l-132 -146v-570z" />
    <glyph glyph-name="uni3015" unicode="&#x3015;" horiz-adv-x="281" 
d="M59 765l146 -164v-598l-146 -165l-33 32l132 146v570l-133 146z" />
    <glyph glyph-name="uniE000" unicode="&#xe000;" horiz-adv-x="769" 
d="M360 0v326h-324v48h324v326h49v-326h324v-48h-324v-326h-49z" />
    <glyph glyph-name="uniE001" unicode="&#xe001;" horiz-adv-x="861" 
d="M83 326v48h696v-48h-696z" />
    <glyph glyph-name="uniE002" unicode="&#xe002;" horiz-adv-x="779" 
d="M71 -13l-33 34l318 328l-319 329l34 35l319 -329l319 329l33 -34l-319 -329l319 -329l-34 -34l-319 329z" />
    <glyph glyph-name="uniE003" unicode="&#xe003;" horiz-adv-x="929" 
d="M376 -15l-309 425l39 32l271 -377l455 623l39 -31z" />
    <glyph glyph-name="uniE004" unicode="&#xe004;" horiz-adv-x="951" 
d="M88 619v48h774v-48h-774zM88 331v46h774v-46h-774zM88 42v48h774v-48h-774z" />
    <glyph glyph-name="uniE005" unicode="&#xe005;" horiz-adv-x="929" 
d="M114 0v700h700v-700h-700zM165 45h599v610h-599v-610z" />
    <glyph glyph-name="uniE006" unicode="&#xe006;" horiz-adv-x="929" 
d="M466 160l-180 291l41 27l75 -124q49 -76 54 -134h27q4 51 60 134l246 362l39 -28zM114 0v700h459v-45h-408v-610h599v280h50v-325h-700z" />
    <glyph glyph-name="uniE007" unicode="&#xe007;" horiz-adv-x="929" 
d="M114 0v700h700v-700h-700zM165 45h599v610h-599v-610zM428 301v98h73v-98h-73z" />
    <glyph glyph-name="uniE008" unicode="&#xe008;" horiz-adv-x="761" 
d="M378 48h352v-48h-699v48h346l-246 239l35 35l105 -106q47 -49 56 -90h27v582h49v-582h27q10 44 58 92l105 104l33 -35z" />
    <glyph glyph-name="uniE009" unicode="&#xe009;" horiz-adv-x="761" 
d="M378 167l-247 239l35 35l105 -106q47 -47 56 -89h27v582h49v-582h27q11 45 58 92l105 103l33 -35zM31 0v48h699v-48h-699z" />
    <glyph glyph-name="uniF8FF" unicode="&#xf8ff;" horiz-adv-x="768" 
d="M630 95l-26 -12q23 -48 36 -93l-14 -10q-79 7 -93 110q-4 16 -5 54q0 7 -3 40l-33 -3q6 -37 6 -54q0 -31 -12 -50q-26 19 -46 48q-30 47 -60 140q-2 4 -5 15q-33 102 -53 129q-21 28 -71 52q-10 5 -37 20q-32 16 -68 63l57 46l-27 27q-17 -4 -34 -4q-33 0 -54.5 13
t-21.5 35q0 40 44 40q34 0 64 -44l23 20q-40 40 -40 58q0 14 11 23.5t29 9.5q45 0 45 -59q0 -27 -18 -55l26 -27l40 32q58 -24 109 -93q51 -70 87 -154q132 -97 188 -258q23 -72 26 -135l-29 -5q-20 53 -41 81z" />
    <glyph glyph-name="Ccedilla.ss04" horiz-adv-x="729" 
d="M413 -12l-9 -9q-14 -15 -43 -27l13 -21q22 12 45 12q29 0 47.5 -17.5t18.5 -46.5q0 -36 -25.5 -57t-69.5 -21q-67 0 -104 44l25 30q31 -37 75 -37q57 0 57 43q0 18 -15.5 29t-37.5 11q-23 0 -42 -7l-19 24l43 50q-144 6 -226.5 110.5t-82.5 263.5q0 156 88.5 253.5
t236.5 97.5q119 1 195.5 -63t96.5 -138l-51 -19q-19 67 -80.5 120t-160.5 53q-127 0 -199.5 -82.5t-72.5 -221.5q0 -142 74.5 -235t197.5 -93q187 0 246 183l51 -19q-30 -86 -96.5 -144.5t-175.5 -65.5z" />
    <glyph glyph-name="G.ss03" horiz-adv-x="767" 
d="M63 355q-3 155 94.5 257.5t243.5 100.5q67 1 122.5 -18.5t91.5 -52.5t59 -67.5t34 -71.5l-51 -20q-23 76 -87 129t-170 53q-126 0 -205 -84.5t-79 -224.5q0 -144 74.5 -233t201.5 -89q116 0 184 67.5t71 181.5h-258v47h313v-25q0 -145 -84.5 -231.5t-224.5 -86.5
q-155 0 -242.5 101.5t-87.5 266.5z" />
    <glyph glyph-name="Gbreve.ss03" horiz-adv-x="767" 
d="M63 355q-3 155 94.5 257.5t243.5 100.5q67 1 122.5 -18.5t91.5 -52.5t59 -67.5t34 -71.5l-51 -20q-23 76 -87 129t-170 53q-126 0 -205 -84.5t-79 -224.5q0 -144 74.5 -233t201.5 -89q116 0 184 67.5t71 181.5h-258v47h313v-25q0 -145 -84.5 -231.5t-224.5 -86.5
q-155 0 -242.5 101.5t-87.5 266.5zM259 896h45q5 -40 30 -61t66 -21q85 0 95 82h46q-3 -53 -40 -87.5t-101 -34.5t-101 34.5t-40 87.5z" />
    <glyph glyph-name="Gcircumflex.ss03" horiz-adv-x="767" 
d="M63 355q-3 155 94.5 257.5t243.5 100.5q67 1 122.5 -18.5t91.5 -52.5t59 -67.5t34 -71.5l-51 -20q-23 76 -87 129t-170 53q-126 0 -205 -84.5t-79 -224.5q0 -144 74.5 -233t201.5 -89q116 0 184 67.5t71 181.5h-258v47h313v-25q0 -145 -84.5 -231.5t-224.5 -86.5
q-155 0 -242.5 101.5t-87.5 266.5zM247 781l114 116h82l113 -116h-53l-101 86l-102 -86h-53z" />
    <glyph glyph-name="uni0122.ss03" horiz-adv-x="767" 
d="M63 355q-3 155 94.5 257.5t243.5 100.5q67 1 122.5 -18.5t91.5 -52.5t59 -67.5t34 -71.5l-51 -20q-23 76 -87 129t-170 53q-126 0 -205 -84.5t-79 -224.5q0 -144 74.5 -233t201.5 -89q116 0 184 67.5t71 181.5h-258v47h313v-25q0 -145 -84.5 -231.5t-224.5 -86.5
q-155 0 -242.5 101.5t-87.5 266.5zM363 -282l52 98h-33v83h63v-83l-50 -98h-32z" />
    <glyph glyph-name="Gdotaccent.ss03" horiz-adv-x="767" 
d="M63 355q-3 155 94.5 257.5t243.5 100.5q67 1 122.5 -18.5t91.5 -52.5t59 -67.5t34 -71.5l-51 -20q-23 76 -87 129t-170 53q-126 0 -205 -84.5t-79 -224.5q0 -144 74.5 -233t201.5 -89q116 0 184 67.5t71 181.5h-258v47h313v-25q0 -145 -84.5 -231.5t-224.5 -86.5
q-155 0 -242.5 101.5t-87.5 266.5zM376 780v95h50v-95h-50z" />
    <glyph glyph-name="Scedilla.ss04" horiz-adv-x="604" 
d="M327 -12l-10 -9q-15 -16 -43 -27l14 -21q22 12 45 12q28 0 47 -17.5t19 -46.5q0 -35 -26 -56.5t-70 -21.5q-69 0 -103 44l25 30q31 -37 75 -37q57 0 57 43q0 18 -15.5 29t-38.5 11q-22 0 -41 -7l-19 24l43 50q-88 4 -149.5 49t-89.5 124l49 24q21 -68 77 -109t132 -41
q85 0 136 39t51 104q0 108 -145 146l-103 29q-166 46 -166 178q0 82 62.5 132t158.5 50q95 0 154 -45.5t80 -103.5l-47 -23q-18 46 -63 85q-44 40 -128 40q-73 0 -120 -36t-47 -96q0 -51 33.5 -82.5t109.5 -52.5l98 -27q176 -49 176 -191q0 -83 -57.5 -135t-160.5 -58z" />
    <glyph glyph-name="uni0162.ss04" horiz-adv-x="611" 
d="M323 0l-21 -21q-15 -15 -43 -27l13 -21q22 12 45 12q29 0 47.5 -17.5t18.5 -46.5q0 -36 -25.5 -57t-69.5 -21q-67 0 -104 44l25 30q31 -37 75 -37q57 0 57 43q0 18 -15.5 29t-37.5 11q-23 0 -42 -7l-19 24l54 62h-8v653h-259v47h583v-47h-274v-653z" />
    <glyph glyph-name="a.salt" horiz-adv-x="570" 
d="M57 246q0 123 58 190.5t144 67.5q126 0 164 -122h29q-22 66 -22 110h45v-492h-44q0 53 22 112h-29q-15 -52 -57.5 -88.5t-107.5 -36.5q-84 0 -143 68.5t-59 190.5zM431 246q0 102 -46 158t-118 56q-71 0 -116 -54t-45 -160q0 -105 45 -160t116 -55q72 0 118 55.5
t46 159.5z" />
    <glyph glyph-name="aacute.salt" horiz-adv-x="570" 
d="M57 246q0 123 58 190.5t144 67.5q126 0 164 -122h29q-22 66 -22 110h45v-492h-44q0 53 22 112h-29q-15 -52 -57.5 -88.5t-107.5 -36.5q-84 0 -143 68.5t-59 190.5zM431 246q0 102 -46 158t-118 56q-71 0 -116 -54t-45 -160q0 -105 45 -160t116 -55q72 0 118 55.5
t46 159.5zM258 566l70 122h69l-104 -122h-35z" />
    <glyph glyph-name="abreve.salt" horiz-adv-x="570" 
d="M57 246q0 123 58 190.5t144 67.5q126 0 164 -122h29q-22 66 -22 110h45v-492h-44q0 53 22 112h-29q-15 -52 -57.5 -88.5t-107.5 -36.5q-84 0 -143 68.5t-59 190.5zM431 246q0 102 -46 158t-118 56q-71 0 -116 -54t-45 -160q0 -105 45 -160t116 -55q72 0 118 55.5
t46 159.5zM147 683h41q4 -39 27 -60t60 -21t59.5 21t26.5 60h42q-3 -53 -36.5 -87.5t-91.5 -34.5q-59 0 -92 34.5t-36 87.5z" />
    <glyph glyph-name="acircumflex.salt" horiz-adv-x="570" 
d="M57 246q0 123 58 190.5t144 67.5q126 0 164 -122h29q-22 66 -22 110h45v-492h-44q0 53 22 112h-29q-15 -52 -57.5 -88.5t-107.5 -36.5q-84 0 -143 68.5t-59 190.5zM431 246q0 102 -46 158t-118 56q-71 0 -116 -54t-45 -160q0 -105 45 -160t116 -55q72 0 118 55.5
t46 159.5zM134 566l104 117h74l104 -117h-49l-92 86l-92 -86h-49z" />
    <glyph glyph-name="adieresis.salt" horiz-adv-x="570" 
d="M57 246q0 123 58 190.5t144 67.5q126 0 164 -122h29q-22 66 -22 110h45v-492h-44q0 53 22 112h-29q-15 -52 -57.5 -88.5t-107.5 -36.5q-84 0 -143 68.5t-59 190.5zM431 246q0 102 -46 158t-118 56q-71 0 -116 -54t-45 -160q0 -105 45 -160t116 -55q72 0 118 55.5
t46 159.5zM159 600v80h58v-80h-58zM333 600v80h59v-80h-59z" />
    <glyph glyph-name="uni0227.salt" horiz-adv-x="570" 
d="M57 246q0 123 58 190.5t144 67.5q126 0 164 -122h29q-22 66 -22 110h45v-492h-44q0 53 22 112h-29q-15 -52 -57.5 -88.5t-107.5 -36.5q-84 0 -143 68.5t-59 190.5zM431 246q0 102 -46 158t-118 56q-71 0 -116 -54t-45 -160q0 -105 45 -160t116 -55q72 0 118 55.5
t46 159.5zM250 605v95h50v-95h-50z" />
    <glyph glyph-name="uni1EA1.salt" horiz-adv-x="570" 
d="M57 246q0 123 58 190.5t144 67.5q126 0 164 -122h29q-22 66 -22 110h45v-492h-44q0 53 22 112h-29q-15 -52 -57.5 -88.5t-107.5 -36.5q-84 0 -143 68.5t-59 190.5zM431 246q0 102 -46 158t-118 56q-71 0 -116 -54t-45 -160q0 -105 45 -160t116 -55q72 0 118 55.5
t46 159.5zM253 -195v95h50v-95h-50z" />
    <glyph glyph-name="agrave.salt" horiz-adv-x="570" 
d="M57 246q0 123 58 190.5t144 67.5q126 0 164 -122h29q-22 66 -22 110h45v-492h-44q0 53 22 112h-29q-15 -52 -57.5 -88.5t-107.5 -36.5q-84 0 -143 68.5t-59 190.5zM431 246q0 102 -46 158t-118 56q-71 0 -116 -54t-45 -160q0 -105 45 -160t116 -55q72 0 118 55.5
t46 159.5zM257 566l-103 122h69l69 -122h-35z" />
    <glyph glyph-name="amacron.salt" horiz-adv-x="570" 
d="M57 246q0 123 58 190.5t144 67.5q126 0 164 -122h29q-22 66 -22 110h45v-492h-44q0 53 22 112h-29q-15 -52 -57.5 -88.5t-107.5 -36.5q-84 0 -143 68.5t-59 190.5zM431 246q0 102 -46 158t-118 56q-71 0 -116 -54t-45 -160q0 -105 45 -160t116 -55q72 0 118 55.5
t46 159.5zM126 597v40h298v-40h-298z" />
    <glyph glyph-name="aogonek.salt" horiz-adv-x="570" 
d="M476 -145v-41q-22 -9 -47 -9q-41 0 -66 21.5t-25 57.5q0 73 93 124q1 50 22 104h-29q-15 -52 -57.5 -88.5t-107.5 -36.5q-84 0 -143 68.5t-59 190.5q0 123 58 190.5t144 67.5q126 0 164 -122h29q-22 66 -22 110h45v-492h1q-96 -45 -96 -105q0 -48 54 -48q15 0 42 8z
M431 246q0 102 -46 158t-118 56q-71 0 -116 -54t-45 -160q0 -105 45 -160t116 -55q72 0 118 55.5t46 159.5z" />
    <glyph glyph-name="aring.salt" horiz-adv-x="570" 
d="M57 246q0 123 58 190.5t144 67.5q126 0 164 -122h29q-22 66 -22 110h45v-492h-44q0 53 22 112h-29q-15 -52 -57.5 -88.5t-107.5 -36.5q-84 0 -143 68.5t-59 190.5zM431 246q0 102 -46 158t-118 56q-71 0 -116 -54t-45 -160q0 -105 45 -160t116 -55q72 0 118 55.5
t46 159.5zM177 646q0 40 28.5 68.5t70.5 28.5t70.5 -29t28.5 -69q0 -42 -28.5 -71t-70.5 -29t-70.5 29.5t-28.5 71.5zM337 645q0 25 -17 44t-44 19t-44 -18t-17 -44q0 -28 17 -47t44 -19t44 19.5t17 45.5z" />
    <glyph glyph-name="aringacute.salt" horiz-adv-x="570" 
d="M57 246q0 123 58 190.5t144 67.5q126 0 164 -122h29q-22 66 -22 110h45v-492h-44q0 53 22 112h-29q-15 -52 -57.5 -88.5t-107.5 -36.5q-84 0 -143 68.5t-59 190.5zM431 246q0 102 -46 158t-118 56q-71 0 -116 -54t-45 -160q0 -105 45 -160t116 -55q72 0 118 55.5
t46 159.5zM264 767l70 138h69l-104 -138h-35zM179 646q0 40 28.5 68.5t70.5 28.5t70.5 -29t28.5 -69q0 -42 -28.5 -71t-70.5 -29t-70.5 29.5t-28.5 71.5zM339 645q0 25 -17 44t-44 19t-44 -18t-17 -44q0 -28 17 -47t44 -19t44 19.5t17 45.5z" />
    <glyph glyph-name="atilde.salt" horiz-adv-x="570" 
d="M57 246q0 123 58 190.5t144 67.5q126 0 164 -122h29q-22 66 -22 110h45v-492h-44q0 53 22 112h-29q-15 -52 -57.5 -88.5t-107.5 -36.5q-84 0 -143 68.5t-59 190.5zM431 246q0 102 -46 158t-118 56q-71 0 -116 -54t-45 -160q0 -105 45 -160t116 -55q72 0 118 55.5
t46 159.5zM280 600l-29 21q-32 22 -50 22q-43 0 -41 -60h-42q-1 48 21.5 74t62.5 26q32 0 68 -25l29 -21q31 -22 51 -22q42 0 43 57h41q1 -47 -21.5 -72.5t-61.5 -25.5q-33 0 -71 26z" />
    <glyph glyph-name="ccedilla.ss04" horiz-adv-x="517" 
d="M291 -12l-9 -9q-16 -16 -43 -27l13 -21q22 12 45 12q29 0 47.5 -17.5t18.5 -46.5q0 -36 -25.5 -57t-69.5 -21q-67 0 -104 44l25 30q31 -37 75 -37q57 0 57 43q0 18 -15.5 29t-37.5 11q-23 0 -42 -7l-19 24l44 50q-89 9 -142 78.5t-53 180.5q0 112 61 184.5t156 72.5
q76 0 127.5 -39.5t67.5 -97.5l-46 -15q-15 49 -53.5 78.5t-95.5 29.5q-71 0 -119 -56.5t-48 -156.5q0 -102 47.5 -159t121.5 -57q63 0 102 36.5t52 90.5l46 -16q-18 -67 -67 -108.5t-117 -45.5z" />
    <glyph glyph-name="g.ss02" horiz-adv-x="570" 
d="M47 -55l48 16q6 -53 49 -89t112 -36q81 0 126 45t46 128q0 67 26 123h-30q-19 -55 -60.5 -89t-104.5 -34q-84 0 -143 64.5t-59 182.5q0 117 58 182.5t144 65.5q64 0 106.5 -35.5t57.5 -86.5h29q-14 40 -18 60q-4 17 -4 50h45v-486q0 -94 -56 -153.5t-163 -59.5
q-88 0 -142 42.5t-67 109.5zM431 255q0 97 -46.5 151t-117.5 54q-74 0 -117.5 -52t-43.5 -152q0 -101 43.5 -153t117.5 -52q71 0 117.5 54t46.5 150z" />
    <glyph glyph-name="gbreve.ss02" horiz-adv-x="570" 
d="M47 -55l48 16q6 -53 49 -89t112 -36q81 0 126 45t46 128q0 67 26 123h-30q-19 -55 -60.5 -89t-104.5 -34q-84 0 -143 64.5t-59 182.5q0 117 58 182.5t144 65.5q64 0 106.5 -35.5t57.5 -86.5h29q-14 40 -18 60q-4 17 -4 50h45v-486q0 -94 -56 -153.5t-163 -59.5
q-88 0 -142 42.5t-67 109.5zM431 255q0 97 -46.5 151t-117.5 54q-74 0 -117.5 -52t-43.5 -152q0 -101 43.5 -153t117.5 -52q71 0 117.5 54t46.5 150zM146 683h41q4 -39 27 -60t60 -21t59.5 21t26.5 60h42q-3 -53 -36.5 -87.5t-91.5 -34.5q-59 0 -92 34.5t-36 87.5z" />
    <glyph glyph-name="gcircumflex.ss02" horiz-adv-x="570" 
d="M47 -55l48 16q6 -53 49 -89t112 -36q81 0 126 45t46 128q0 67 26 123h-30q-19 -55 -60.5 -89t-104.5 -34q-84 0 -143 64.5t-59 182.5q0 117 58 182.5t144 65.5q64 0 106.5 -35.5t57.5 -86.5h29q-14 40 -18 60q-4 17 -4 50h45v-486q0 -94 -56 -153.5t-163 -59.5
q-88 0 -142 42.5t-67 109.5zM431 255q0 97 -46.5 151t-117.5 54q-74 0 -117.5 -52t-43.5 -152q0 -101 43.5 -153t117.5 -52q71 0 117.5 54t46.5 150zM133 566l104 117h74l104 -117h-49l-92 86l-92 -86h-49z" />
    <glyph glyph-name="uni0123.ss02" horiz-adv-x="570" 
d="M47 -55l48 16q6 -53 49 -89t112 -36q81 0 126 45t46 128q0 67 26 123h-30q-19 -55 -60.5 -89t-104.5 -34q-84 0 -143 64.5t-59 182.5q0 117 58 182.5t144 65.5q64 0 106.5 -35.5t57.5 -86.5h29q-14 40 -18 60q-4 17 -4 50h45v-486q0 -94 -56 -153.5t-163 -59.5
q-88 0 -142 42.5t-67 109.5zM431 255q0 97 -46.5 151t-117.5 54q-74 0 -117.5 -52t-43.5 -152q0 -101 43.5 -153t117.5 -52q71 0 117.5 54t46.5 150zM324 786l-52 -98h33v-84h-63v84l50 98h32z" />
    <glyph glyph-name="gdotaccent.ss02" horiz-adv-x="570" 
d="M47 -55l48 16q6 -53 49 -89t112 -36q81 0 126 45t46 128q0 67 26 123h-30q-19 -55 -60.5 -89t-104.5 -34q-84 0 -143 64.5t-59 182.5q0 117 58 182.5t144 65.5q64 0 106.5 -35.5t57.5 -86.5h29q-14 40 -18 60q-4 17 -4 50h45v-486q0 -94 -56 -153.5t-163 -59.5
q-88 0 -142 42.5t-67 109.5zM431 255q0 97 -46.5 151t-117.5 54q-74 0 -117.5 -52t-43.5 -152q0 -101 43.5 -153t117.5 -52q71 0 117.5 54t46.5 150zM249 605v95h50v-95h-50z" />
    <glyph glyph-name="i.locl" horiz-adv-x="243" 
d="M93 605v95h51v-95h-51zM95 0v492h47l1 -492h-48z" />
    <glyph glyph-name="scedilla.ss04" horiz-adv-x="479" 
d="M258 -12l-8 -9q-16 -16 -43 -27l13 -21q22 12 45 12q28 0 47 -17.5t19 -46.5q0 -35 -26 -56.5t-70 -21.5q-69 0 -103 44l25 30q31 -37 75 -37q57 0 57 43q0 18 -15.5 29t-38.5 11q-22 0 -41 -7l-19 24l44 50q-73 6 -118.5 44.5t-54.5 94.5l47 16q8 -48 47.5 -80.5
t101.5 -32.5q66 0 101.5 25t35.5 68q0 75 -106 100l-68 16q-66 16 -102 46t-36 84q0 58 48 96.5t122 38.5q73 0 118 -33t60 -85l-44 -17q-9 37 -43.5 65t-90.5 28q-57 0 -90 -25.5t-33 -61.5q0 -65 92 -86l68 -17q154 -36 154 -147q0 -59 -43 -96.5t-127 -40.5z" />
    <glyph glyph-name="uni0163.ss04" horiz-adv-x="372" 
d="M353 0h-75h-2l-21 -21q-15 -16 -43 -27l14 -21q22 12 45 12q28 0 47 -17.5t19 -46.5q0 -35 -26 -56.5t-70 -21.5q-69 0 -103 44l25 30q31 -37 75 -37q57 0 57 43q0 18 -15.5 29t-38.5 11q-22 0 -41 -7l-19 24l57 65q-94 16 -94 123v324h-127v42h127v145h47v-145h144v-42
h-144v-320q0 -87 87 -87h75v-43z" />
    <glyph glyph-name="zero.onum" horiz-adv-x="616" 
d="M61 243q0 112 70.5 184t178.5 72t176.5 -71.5t68.5 -184.5t-68.5 -184.5t-176.5 -71.5t-178.5 72t-70.5 184zM506 243q0 94 -52.5 153t-143.5 59t-145.5 -59.5t-54.5 -152.5t54.5 -152.5t145.5 -59.5q90 0 143 59.5t53 152.5z" />
    <glyph glyph-name="one.onum" horiz-adv-x="348" 
d="M200 0v303q0 59 16 103h-31q-19 -47 -56 -83.5t-86 -51.5v51q52 19 98.5 65t70.5 105h36v-492h-48z" />
    <glyph glyph-name="two.onum" horiz-adv-x="494" 
d="M68 0v52q94 46 163 89q143 90 143 194q0 58 -36.5 91.5t-93.5 33.5q-55 0 -91 -28t-41 -88l-49 7q7 70 57 111.5t124 41.5q80 0 130 -47t50 -115q0 -96 -84 -171q-57 -50 -213 -123l16 -28q39 23 102 23h191v-43h-368z" />
    <glyph glyph-name="three.onum" horiz-adv-x="537" 
d="M48 -4l49 13q-3 -76 44 -125t124 -49q75 0 119 43t44 112q0 66 -46 107.5t-118 41.5h-38v44h38q63 0 105.5 40t42.5 102q0 61 -41.5 98.5t-105.5 37.5t-104.5 -36.5t-45.5 -95.5l-48 9q8 75 60.5 120.5t137.5 45.5q88 0 141.5 -48.5t53.5 -127.5q0 -61 -38 -101.5
t-95 -49.5v-29q64 -6 107.5 -50.5t43.5 -113.5q0 -81 -56.5 -136.5t-156.5 -55.5q-98 0 -157.5 55.5t-59.5 148.5z" />
    <glyph glyph-name="four.onum" horiz-adv-x="546" 
d="M361 -195v195h-324v48l294 444h78v-449h102v-43h-102v-195h-48zM195 43h166v292q0 58 25 103l-26 16l-2 -3l-270 -408l-3 -3l24 -19q27 22 86 22z" />
    <glyph glyph-name="five.onum" horiz-adv-x="537" 
d="M56 -50l48 16q12 -60 58.5 -95t105.5 -35q77 0 123.5 49.5t46.5 123.5q0 78 -45.5 125t-122.5 47q-52 0 -92.5 -29.5t-62.5 -76.5l-55 8l52 409h347v-45h-310l-20 -168q-16 -105 -40 -152h36q21 46 63 72t97 26q88 0 145.5 -61t57.5 -152q0 -96 -61 -158t-153 -62
q-93 0 -147.5 43.5t-70.5 114.5z" />
    <glyph glyph-name="six.onum" horiz-adv-x="593" 
d="M64 325q0 60 11.5 115.5t37.5 106t63 87.5t91.5 58.5t120.5 20.5q21 0 59 -5q32 -4 55 -13v-49q-58 20 -113 20q-137 0 -213 -102t-78 -270h31q10 60 61 104t126 44q99 0 161.5 -63.5t62.5 -160.5q0 -101 -64 -166t-166 -65q-113 0 -180 79q-66 79 -66 259zM490 214
q0 81 -51 132.5t-128 51.5t-128.5 -52.5t-51.5 -134.5q0 -81 50.5 -130.5t129.5 -49.5q77 0 128 50.5t51 132.5z" />
    <glyph glyph-name="seven.onum" horiz-adv-x="503" 
d="M155 -195v26q0 108 19 206q20 107 82 212t168 190l12 9l-19 25q-37 -26 -126 -26h-270v45h458v-44q-117 -102 -176 -205q-59 -102 -79 -201q-18 -96 -18 -207v-30h-51z" />
    <glyph glyph-name="eight.onum" horiz-adv-x="572" 
d="M64 181q0 71 43 117t111 54v28q-59 10 -96.5 49.5t-37.5 105.5q0 78 55 128t147 50t147 -50t55 -128q0 -66 -37.5 -105.5t-94.5 -49.5v-28q67 -9 109.5 -54.5t42.5 -116.5q0 -82 -58 -138t-164 -56q-107 0 -164.5 55.5t-57.5 138.5zM438 530q0 61 -43 100t-109 39
t-109.5 -39t-43.5 -100t43.5 -101t109.5 -40q65 0 108.5 40t43.5 101zM458 188q0 67 -48 110t-124 43q-75 0 -123.5 -43t-48.5 -110q0 -68 48.5 -112.5t123.5 -44.5q76 0 124 44t48 113z" />
    <glyph glyph-name="nine.onum" horiz-adv-x="605" 
d="M101 -192v49q55 -17 129 -17q137 0 206 94.5t66 247.5h-30q-17 -66 -68.5 -101t-115.5 -35q-100 0 -162.5 64t-62.5 162q0 101 64.5 166.5t166.5 65.5q115 0 183.5 -80.5t68.5 -250.5q0 -80 -18.5 -147t-55 -120.5t-98.5 -83.5t-143 -30q-82 0 -130 16zM475 279
q0 81 -51 130t-131 49q-78 0 -129 -49t-51 -133q0 -81 51.5 -132.5t128.5 -51.5q79 0 130.5 52t51.5 135z" />
    <glyph glyph-name="zero.tnum" 
d="M37 356q0 167 78 262t197 95q118 0 194.5 -95t76.5 -262q0 -174 -74.5 -271.5t-196.5 -97.5t-198.5 98.5t-76.5 270.5zM531 356q0 137 -59 224t-160 87q-103 0 -162.5 -87t-59.5 -224q0 -144 58.5 -233.5t163.5 -89.5q103 0 161 90t58 233z" />
    <glyph glyph-name="one.tnum" 
d="M374 47h174v-47h-437v47h213v467q0 60 16 104h-31q-50 -113 -178 -150v53q138 48 210 179h33v-653z" />
    <glyph glyph-name="two.tnum" 
d="M95 0v61q139 84 253 195q116 113 116 240q0 81 -46 126t-116 45q-66 0 -113 -46.5t-46 -136.5l-50 8q0 103 59 162t150 59q97 0 155.5 -59t58.5 -153q0 -100 -62 -187q-91 -135 -313 -264l17 -28q41 25 103 25h269v-47h-435z" />
    <glyph glyph-name="three.tnum" 
d="M78 196l53 12q-1 -78 48.5 -126.5t129.5 -48.5q73 0 120.5 42t47.5 110q0 69 -49.5 112t-125.5 43h-56v46h56q65 0 110.5 39.5t45.5 102.5t-43 101t-110 38q-68 0 -111 -42t-44 -111l-52 13q3 80 61 133t146 53q93 0 149.5 -51.5t56.5 -128.5q0 -62 -40 -103t-97 -51v-29
q65 -6 110.5 -52t45.5 -118q0 -80 -58.5 -136.5t-162.5 -56.5q-103 0 -165.5 56.5t-65.5 152.5z" />
    <glyph glyph-name="four.tnum" 
d="M389 0v204h-329v54l295 442h84v-452h115v-44h-115v-204h-50zM389 248v298q0 61 25 106l-27 16l-280 -420l-3 -4l23 -19q29 23 87 23h175z" />
    <glyph glyph-name="five.tnum" 
d="M79 157l52 20q11 -71 59 -107.5t121 -36.5q76 0 126 50t50 132q0 85 -47.5 133t-128.5 48q-102 0 -159 -91l-59 10l54 385h371v-47h-332l-21 -158q-16 -102 -41 -150h34q50 96 161 96q104 0 163 -61.5t59 -162.5q0 -102 -64.5 -166t-164.5 -64q-99 0 -159.5 48t-73.5 122
z" />
    <glyph glyph-name="six.tnum" 
d="M79 328q0 172 81.5 278t225.5 106q70 0 129 -22v-52q-66 26 -127 26q-131 0 -201.5 -99t-72.5 -267h30q13 60 63 103.5t125 43.5q101 0 161 -65.5t60 -158.5q0 -96 -62 -165t-167 -69q-110 0 -177.5 83.5t-67.5 257.5zM499 217q0 83 -50.5 133t-124.5 50
q-72 0 -123.5 -52t-51.5 -131q0 -80 51.5 -132t123.5 -52q74 0 124.5 50.5t50.5 133.5z" />
    <glyph glyph-name="seven.tnum" 
d="M492 645l10 9l-17 25q-38 -26 -126 -26h-268v47h455v-50q-120 -103 -182 -207q-63 -105 -84 -209q-20 -106 -20 -234h-57q0 426 289 645z" />
    <glyph glyph-name="eight.tnum" 
d="M77 181q0 71 45.5 117t115.5 54v28q-62 10 -101 49.5t-39 105.5q0 78 58.5 128t153.5 50t153.5 -50t58.5 -128q0 -66 -39.5 -105.5t-97.5 -49.5v-28q69 -9 113.5 -54.5t44.5 -116.5q0 -82 -60 -138t-173 -56q-114 0 -173.5 56t-59.5 138zM469 532q0 61 -44.5 98
t-114.5 37q-69 0 -114.5 -37t-45.5 -98q0 -64 45.5 -103t114.5 -39t114 39t45 103zM489 184q0 68 -50 112t-129 44q-77 0 -128 -44.5t-51 -111.5q0 -68 48.5 -109.5t130.5 -41.5t130.5 41.5t48.5 109.5z" />
    <glyph glyph-name="nine.tnum" 
d="M106 22v53q63 -38 145 -38q143 0 208 134q43 88 43 213h-31q-19 -61 -70 -96t-114 -35q-104 0 -162 64t-58 158q0 100 59.5 169t168.5 69q96 0 161 -62q87 -81 87 -274q0 -182 -78 -286t-212 -104q-91 0 -147 35zM475 483q0 82 -51.5 133t-127.5 51q-77 0 -127.5 -49.5
t-50.5 -134.5t50.5 -134.5t127.5 -49.5q76 0 127.5 51t51.5 133z" />
    <glyph glyph-name="zero.subs" horiz-adv-x="416" 
d="M52 91q0 89 43.5 144.5t113.5 55.5t112.5 -55t42.5 -145q0 -96 -41.5 -151t-113.5 -55t-114.5 55.5t-42.5 150.5zM318 91q0 72 -30 116t-79 44q-50 0 -81 -44t-31 -116q0 -76 31 -121.5t81 -45.5q49 0 79 45.5t30 121.5z" />
    <glyph glyph-name="one.subs" horiz-adv-x="263" 
d="M139 -109v248q0 46 16 89h-23q-28 -72 -97 -84v42q77 24 116 98h32v-393h-44z" />
    <glyph glyph-name="two.subs" horiz-adv-x="353" 
d="M52 -109v41q62 42 101 75q98 82 98 160q0 39 -21.5 61.5t-57.5 22.5q-33 0 -55 -21.5t-22 -62.5q0 -13 1 -18l-46 9v12q0 53 34 87t88 34q56 0 90.5 -33.5t34.5 -88.5q0 -57 -37 -106q-47 -65 -166 -131l11 -20q15 8 22.5 11t23 5.5t40.5 2.5h113v-40h-252z" />
    <glyph glyph-name="three.subs" horiz-adv-x="359" 
d="M47 10l44 11q-2 -44 22 -70.5t66 -26.5q37 0 60 20.5t23 54.5t-24.5 55t-64.5 21h-36v39h36q35 0 56.5 19.5t21.5 50.5q0 30 -20.5 48.5t-52.5 18.5q-36 0 -57 -23t-19 -62l-45 11q0 49 34 81.5t87 32.5q52 0 85.5 -28.5t33.5 -73.5q0 -32 -21 -54.5t-54 -27.5v-22
q37 -1 61 -26.5t24 -62.5q0 -51 -35 -81t-92 -30q-61 0 -97.5 34t-35.5 91z" />
    <glyph glyph-name="four.subs" horiz-adv-x="355" 
d="M45 10l44 11q-2 -44 22 -70.5t66 -26.5q37 0 60 20.5t23 54.5t-24.5 55t-64.5 21h-36v39h36q35 0 56.5 19.5t21.5 50.5q0 30 -20.5 48.5t-52.5 18.5q-36 0 -57 -23t-19 -62l-45 11q0 49 34 81.5t87 32.5q52 0 85.5 -28.5t33.5 -73.5q0 -32 -21 -54.5t-54 -27.5v-22
q37 -1 61 -26.5t24 -62.5q0 -51 -35 -81t-92 -30q-61 0 -97.5 34t-35.5 91z" />
    <glyph glyph-name="five.subs" horiz-adv-x="365" 
d="M47 -12l45 16q3 -39 26.5 -59.5t63.5 -20.5q39 0 63 25t24 67t-23 65.5t-64 23.5q-54 0 -78 -51l-49 9l31 221h217v-40h-181l-10 -70q-5 -47 -30 -86h27q25 56 87 56q51 0 85 -35.5t34 -91.5q0 -59 -37 -95.5t-96 -36.5q-56 0 -92 27.5t-43 75.5z" />
    <glyph glyph-name="six.subs" horiz-adv-x="373" 
d="M52 76q0 98 47.5 156.5t128.5 58.5q40 0 77 -15v-45q-39 19 -78 19q-65 0 -102.5 -49.5t-40.5 -132.5h22q7 32 33.5 55.5t66.5 23.5q51 0 85 -37t34 -92q0 -58 -37 -95.5t-95 -37.5q-68 0 -104.5 49.5t-36.5 141.5zM279 16q0 41 -23.5 66t-61.5 25t-62 -25.5t-24 -65.5
q0 -39 24.5 -65.5t61.5 -26.5q38 0 61.5 25.5t23.5 66.5z" />
    <glyph glyph-name="seven.subs" horiz-adv-x="328" 
d="M251 241l7 6l-14 19q-15 -10 -21 -13t-19.5 -6t-35.5 -3h-134v40h263v-36q-94 -84 -123.5 -161t-30.5 -196h-48q-2 228 156 350z" />
    <glyph glyph-name="eight.subs" horiz-adv-x="369" 
d="M52 -7q0 38 25 63t63 29v22q-33 4 -55 26t-22 58q0 42 34.5 71t87.5 29t86.5 -28.5t33.5 -71.5q0 -36 -22 -58.5t-52 -25.5v-22q38 -5 62 -29.5t24 -62.5q0 -46 -35.5 -77t-96.5 -31t-97 31t-36 77zM259 186q0 29 -20.5 47t-54.5 18t-54.5 -18t-20.5 -47
q0 -33 20.5 -53.5t54.5 -20.5t54.5 20.5t20.5 53.5zM271 -1q0 35 -23.5 56.5t-63.5 21.5q-39 0 -62.5 -21.5t-23.5 -56.5t23 -55t63 -20t63.5 20t23.5 55z" />
    <glyph glyph-name="nine.subs" horiz-adv-x="375" 
d="M69 -93v45q38 -26 87 -26q41 0 72 25.5t47 70.5q14 36 16 82h-22q-11 -35 -38 -55.5t-58 -20.5q-56 0 -91 35.5t-35 92.5q0 58 37.5 96.5t94.5 38.5q55 0 93 -35q50 -47 50 -153q0 -101 -44.5 -159.5t-120.5 -58.5q-53 0 -88 22zM268 159q0 41 -24.5 66.5t-63.5 25.5
t-63 -25t-24 -67t23.5 -66.5t63.5 -24.5q38 0 63 25.5t25 65.5z" />
    <glyph glyph-name="zero.dnom" horiz-adv-x="416" 
d="M52 200q0 89 43.5 144.5t113.5 55.5t112.5 -55t42.5 -145q0 -96 -41.5 -151t-113.5 -55t-114.5 55.5t-42.5 150.5zM318 200q0 72 -30 116t-79 44q-50 0 -81 -44t-31 -116q0 -76 31 -121.5t81 -45.5q49 0 79 45.5t30 121.5z" />
    <glyph glyph-name="one.dnom" horiz-adv-x="263" 
d="M139 0v248q0 46 16 89h-23q-28 -72 -97 -84v42q77 24 116 98h32v-393h-44z" />
    <glyph glyph-name="two.dnom" horiz-adv-x="353" 
d="M52 0v41q62 42 101 75q98 82 98 160q0 39 -21.5 61.5t-57.5 22.5q-33 0 -55 -21.5t-22 -62.5q0 -13 1 -18l-46 9v12q0 53 34 87t88 34q56 0 90.5 -33.5t34.5 -88.5q0 -57 -37 -106q-47 -65 -166 -131l11 -20q15 8 22.5 11t23 5.5t40.5 2.5h113v-40h-252z" />
    <glyph glyph-name="three.dnom" horiz-adv-x="359" 
d="M47 119l44 11q-2 -44 22 -70.5t66 -26.5q37 0 60 20.5t23 54.5t-24.5 55t-64.5 21h-36v39h36q35 0 56.5 19.5t21.5 50.5q0 30 -20.5 48.5t-52.5 18.5q-36 0 -57 -23t-19 -62l-45 11q0 49 34 81.5t87 32.5q52 0 85.5 -28.5t33.5 -73.5q0 -32 -21 -54.5t-54 -27.5v-22
q37 -1 61 -26.5t24 -62.5q0 -51 -35 -81t-92 -30q-61 0 -97.5 34t-35.5 91z" />
    <glyph glyph-name="four.dnom" horiz-adv-x="355" 
d="M214 0v110h-180v44l159 239h63v-244h62v-39h-62v-110h-42zM214 149v123q0 40 20 67l-20 13l-141 -209l18 -14q20 20 51 20h72z" />
    <glyph glyph-name="five.dnom" horiz-adv-x="365" 
d="M47 97l45 16q3 -39 26.5 -59.5t63.5 -20.5q39 0 63 25t24 67t-23 65.5t-64 23.5q-54 0 -78 -51l-49 9l31 221h217v-40h-181l-10 -70q-5 -47 -30 -86h27q25 56 87 56q51 0 85 -35.5t34 -91.5q0 -59 -37 -95.5t-96 -36.5q-56 0 -92 27.5t-43 75.5z" />
    <glyph glyph-name="six.dnom" horiz-adv-x="373" 
d="M52 185q0 98 47.5 156.5t128.5 58.5q40 0 77 -15v-45q-39 19 -78 19q-65 0 -102.5 -49.5t-40.5 -132.5h22q7 32 33.5 55.5t66.5 23.5q51 0 85 -37t34 -92q0 -58 -37 -95.5t-95 -37.5q-68 0 -104.5 49.5t-36.5 141.5zM279 125q0 41 -23.5 66t-61.5 25t-62 -25.5t-24 -65.5
q0 -39 24.5 -65.5t61.5 -26.5q38 0 61.5 25.5t23.5 66.5z" />
    <glyph glyph-name="seven.dnom" horiz-adv-x="328" 
d="M251 350l7 6l-14 19q-15 -10 -21 -13t-19.5 -6t-35.5 -3h-134v40h263v-36q-94 -84 -123.5 -161t-30.5 -196h-48q-2 228 156 350z" />
    <glyph glyph-name="eight.dnom" horiz-adv-x="369" 
d="M52 102q0 38 25 63t63 29v22q-33 4 -55 26t-22 58q0 42 34.5 71t87.5 29t86.5 -28.5t33.5 -71.5q0 -36 -22 -58.5t-52 -25.5v-22q38 -5 62 -29.5t24 -62.5q0 -46 -35.5 -77t-96.5 -31t-97 31t-36 77zM259 295q0 29 -20.5 47t-54.5 18t-54.5 -18t-20.5 -47
q0 -33 20.5 -53.5t54.5 -20.5t54.5 20.5t20.5 53.5zM271 108q0 35 -23.5 56.5t-63.5 21.5q-39 0 -62.5 -21.5t-23.5 -56.5t23 -55t63 -20t63.5 20t23.5 55z" />
    <glyph glyph-name="nine.dnom" horiz-adv-x="375" 
d="M69 16v45q38 -26 87 -26q41 0 72 25.5t47 70.5q14 36 16 82h-22q-11 -35 -38 -55.5t-58 -20.5q-56 0 -91 35.5t-35 92.5q0 58 37.5 96.5t94.5 38.5q55 0 93 -35q50 -47 50 -153q0 -101 -44.5 -159.5t-120.5 -58.5q-53 0 -88 22zM268 268q0 41 -24.5 66.5t-63.5 25.5
t-63 -25t-24 -67t23.5 -66.5t63.5 -24.5q38 0 63 25.5t25 65.5z" />
    <glyph glyph-name="zero.numr" horiz-adv-x="416" 
d="M52 507q0 89 43.5 144.5t113.5 55.5t112.5 -55t42.5 -145q0 -96 -41.5 -151t-113.5 -55t-114.5 55.5t-42.5 150.5zM318 507q0 72 -30 116t-79 44q-50 0 -81 -44t-31 -116q0 -76 31 -121.5t81 -45.5q49 0 79 45.5t30 121.5z" />
    <glyph glyph-name="one.numr" horiz-adv-x="263" 
d="M139 307v248q0 46 16 89h-23q-28 -72 -97 -84v42q77 24 116 98h32v-393h-44z" />
    <glyph glyph-name="two.numr" horiz-adv-x="353" 
d="M52 307v41q62 42 101 75q98 82 98 160q0 39 -21.5 61.5t-57.5 22.5q-33 0 -55 -21.5t-22 -62.5q0 -13 1 -18l-46 9v12q0 53 34 87t88 34q56 0 90.5 -33.5t34.5 -88.5q0 -57 -37 -106q-47 -65 -166 -131l11 -20q15 8 22.5 11t23 5.5t40.5 2.5h113v-40h-252z" />
    <glyph glyph-name="three.numr" horiz-adv-x="359" 
d="M47 426l44 11q-2 -44 22 -70.5t66 -26.5q37 0 60 20.5t23 54.5t-24.5 55t-64.5 21h-36v39h36q35 0 56.5 19.5t21.5 50.5q0 30 -20.5 48.5t-52.5 18.5q-36 0 -57 -23t-19 -62l-45 11q0 49 34 81.5t87 32.5q52 0 85.5 -28.5t33.5 -73.5q0 -32 -21 -54.5t-54 -27.5v-22
q37 -1 61 -26.5t24 -62.5q0 -51 -35 -81t-92 -30q-61 0 -97.5 34t-35.5 91z" />
    <glyph glyph-name="four.numr" horiz-adv-x="355" 
d="M214 307v110h-180v44l159 239h63v-244h62v-39h-62v-110h-42zM214 456v123q0 40 20 67l-20 13l-141 -209l18 -14q20 20 51 20h72z" />
    <glyph glyph-name="five.numr" horiz-adv-x="365" 
d="M47 404l45 16q3 -39 26.5 -59.5t63.5 -20.5q39 0 63 25t24 67t-23 65.5t-64 23.5q-54 0 -78 -51l-49 9l31 221h217v-40h-181l-10 -70q-5 -47 -30 -86h27q25 56 87 56q51 0 85 -35.5t34 -91.5q0 -59 -37 -95.5t-96 -36.5q-56 0 -92 27.5t-43 75.5z" />
    <glyph glyph-name="six.numr" horiz-adv-x="373" 
d="M52 492q0 98 47.5 156.5t128.5 58.5q40 0 77 -15v-45q-39 19 -78 19q-65 0 -102.5 -49.5t-40.5 -132.5h22q7 32 33.5 55.5t66.5 23.5q51 0 85 -37t34 -92q0 -58 -37 -95.5t-95 -37.5q-68 0 -104.5 49.5t-36.5 141.5zM279 432q0 41 -23.5 66t-61.5 25t-62 -25.5t-24 -65.5
q0 -39 24.5 -65.5t61.5 -26.5q38 0 61.5 25.5t23.5 66.5z" />
    <glyph glyph-name="seven.numr" horiz-adv-x="328" 
d="M251 657l7 6l-14 19q-15 -10 -21 -13t-19.5 -6t-35.5 -3h-134v40h263v-36q-94 -84 -123.5 -161t-30.5 -196h-48q-2 228 156 350z" />
    <glyph glyph-name="eight.numr" horiz-adv-x="369" 
d="M52 409q0 38 25 63t63 29v22q-33 4 -55 26t-22 58q0 42 34.5 71t87.5 29t86.5 -28.5t33.5 -71.5q0 -36 -22 -58.5t-52 -25.5v-22q38 -5 62 -29.5t24 -62.5q0 -46 -35.5 -77t-96.5 -31t-97 31t-36 77zM259 602q0 29 -20.5 47t-54.5 18t-54.5 -18t-20.5 -47
q0 -33 20.5 -53.5t54.5 -20.5t54.5 20.5t20.5 53.5zM271 415q0 35 -23.5 56.5t-63.5 21.5q-39 0 -62.5 -21.5t-23.5 -56.5t23 -55t63 -20t63.5 20t23.5 55z" />
    <glyph glyph-name="nine.numr" horiz-adv-x="375" 
d="M69 323v45q38 -26 87 -26q41 0 72 25.5t47 70.5q14 36 16 82h-22q-11 -35 -38 -55.5t-58 -20.5q-56 0 -91 35.5t-35 92.5q0 58 37.5 96.5t94.5 38.5q55 0 93 -35q50 -47 50 -153q0 -101 -44.5 -159.5t-120.5 -58.5q-53 0 -88 22zM268 575q0 41 -24.5 66.5t-63.5 25.5
t-63 -25t-24 -67t23.5 -66.5t63.5 -24.5q38 0 63 25.5t25 65.5z" />
    <glyph glyph-name="comma.ss04" horiz-adv-x="242" 
d="M64 -116l29 55q21 40 49 56l-13 21q-17 -16 -36 -16h-7v98h74v-98l-58 -116h-38z" />
    <glyph glyph-name="semicolon.ss04" horiz-adv-x="261" 
d="M76 -116l29 55q21 40 49 56l-13 21q-17 -16 -36 -16h-7v98h74v-98l-58 -116h-38zM99 375v98h74v-98h-74z" />
    <glyph glyph-name="exclamdown.case" horiz-adv-x="275" 
d="M174 700v-98h-73v98h73zM151 506l11 -327v-179h-49v181l12 325h26z" />
    <glyph glyph-name="questiondown.case" horiz-adv-x="458" 
d="M289 700v-98h-73v98h73zM200 331q-64 -59 -85 -91.5t-21 -78.5q0 -57 37.5 -92t97.5 -35q67 0 104.5 46.5t34.5 127.5l49 -8q3 -95 -49 -153t-139 -58q-81 0 -133.5 47.5t-52.5 124.5q0 55 25.5 96.5t97.5 106.5q38 34 49.5 60.5t13.5 81.5h48q0 -63 -16.5 -98t-60.5 -77
z" />
    <glyph glyph-name="period.tnum" 
d="M266 0v117h88v-117h-88z" />
    <glyph glyph-name="comma.tnum" 
d="M241 -140l73 140h-46v117h88v-117l-70 -140h-45z" />
    <glyph glyph-name="colon.tnum" 
d="M266 388v117h88v-117h-88zM266 0v117h88v-117h-88z" />
    <glyph glyph-name="semicolon.tnum" 
d="M271 388v117h88v-117h-88zM245 -140l73 140h-47v117h89v-117l-70 -140h-45z" />
    <glyph glyph-name="semicolon.tnum_ss04" 
d="M271 388v117h88v-117h-88zM245 -140l35 67q26 49 58 67l-15 26q-20 -20 -43 -20h-9v117h89v-117l-70 -140h-45z" />
    <glyph glyph-name="numbersign.tnum" 
d="M109 0l28 133q6 32 13.5 46.5t26.5 30.5l-17 25q-30 -17 -75 -17h-40v43h119l38 187h-127v44h136l44 208h47l-26 -124q-7 -32 -14.5 -46t-26.5 -30l17 -26q33 18 75 18h92l44 208h47l-26 -124q-7 -32 -14.5 -46t-26.5 -30l17 -26q33 18 75 18h42v-44h-120l-39 -187h122
v-43h-131l-45 -218h-47l27 133q7 32 14.5 46.5t26.5 30.5l-18 25q-30 -17 -75 -17h-91l-45 -218h-47zM210 261h161l39 187h-160z" />
    <glyph glyph-name="parenleft.case" horiz-adv-x="311" 
d="M66 354q0 383 215 461v-49q-81 -30 -125.5 -136.5t-44.5 -273.5q0 -171 44.5 -279.5t125.5 -137.5v-49q-215 68 -215 464z" />
    <glyph glyph-name="parenright.case" horiz-adv-x="311" 
d="M245 352q0 -384 -216 -462v49q81 30 125.5 136.5t44.5 273.5q0 172 -44 280t-126 137v49q114 -36 165 -158q51 -121 51 -305z" />
    <glyph glyph-name="braceleft.case" horiz-adv-x="325" 
d="M139 25v138v26q-1 34 -2.5 52t-7.5 37.5t-17.5 28t-32 15t-51.5 7.5v45q31 1 51.5 7.5t32 15t17.5 28t7.5 37.5t2.5 52v26v140q0 125 103 125h48v-42h-42q-62 0 -62 -76v-162q0 -79 -16.5 -112.5t-76.5 -46.5v-29q60 -13 76.5 -46.5t16.5 -112.5v-160q0 -76 62 -76h42
v-42h-48q-103 0 -103 125z" />
    <glyph glyph-name="braceright.case" horiz-adv-x="325" 
d="M187 681v-138v-26q0 -34 2 -52t7.5 -37.5t17.5 -28t32 -15t51 -7.5v-45q-38 -2 -60.5 -9.5t-33 -27t-13.5 -40.5t-3 -63v-26v-141q0 -124 -104 -124h-48v42h42q63 0 63 76v162q0 79 15.5 112.5t76.5 46.5v29q-61 12 -76.5 45t-15.5 113v161q0 76 -63 76h-42v42h48
q104 0 104 -125z" />
    <glyph glyph-name="bracketleft.case" horiz-adv-x="332" 
d="M114 -100v905h186v-42h-139v-821h139v-42h-186z" />
    <glyph glyph-name="bracketright.case" horiz-adv-x="333" 
d="M218 804v-905h-186v42h139v821h-139v42h186z" />
    <glyph glyph-name="angleleft.case" horiz-adv-x="328" 
d="M298 796l-211 -442l210 -447l-42 -19l-217 464l218 463z" />
    <glyph glyph-name="angleright.case" horiz-adv-x="329" 
d="M74 815l217 -463l-218 -463l-43 19l211 442l-209 446z" />
    <glyph glyph-name="uni3010.case" horiz-adv-x="356" 
d="M114 -100v905h227q-95 -110 -139 -219.5t-44 -235.5q0 -125 42.5 -230t140.5 -220h-227z" />
    <glyph glyph-name="uni3011.case" horiz-adv-x="356" 
d="M242 805v-905h-227q95 110 139 219.5t44 235.5t-42 230.5t-141 219.5h227z" />
    <glyph glyph-name="uni300C.case" horiz-adv-x="332" 
d="M89 367v438h225v-43h-178v-395h-47z" />
    <glyph glyph-name="uni300D.case" horiz-adv-x="335" 
d="M245 339v-438h-225v42h178v396h47z" />
    <glyph glyph-name="uni300A.case" horiz-adv-x="502" 
d="M298 796l-211 -443l210 -446l-42 -19l-217 463l218 464zM472 796l-211 -443l210 -446l-42 -19l-217 463l218 464z" />
    <glyph glyph-name="uni300B.case" horiz-adv-x="503" 
d="M74 815l217 -462l-218 -464l-43 19l211 443l-209 445zM248 815l217 -462l-218 -464l-42 19l211 443l-210 445z" />
    <glyph glyph-name="uni3014.case" horiz-adv-x="289" 
d="M128 67l133 -146l-34 -33l-146 164v598l146 165l33 -32l-132 -146v-570z" />
    <glyph glyph-name="uni3015.case" horiz-adv-x="288" 
d="M62 816l146 -164v-598l-146 -165l-33 32l132 146v570l-133 146z" />
    <glyph glyph-name="uni300E.case" horiz-adv-x="431" 
d="M90 291v514h301v-149h-158v-365h-143zM134 333h57v362h158v68h-215v-430z" />
    <glyph glyph-name="uni300F.case" horiz-adv-x="446" 
d="M340 415v-514h-300v149h158v365h142zM297 373h-57v-362h-158v-68h215v430z" />
    <glyph glyph-name="hyphen.case" horiz-adv-x="389" 
d="M81 330v52h226v-52h-226z" />
    <glyph glyph-name="uni00AD.case" horiz-adv-x="389" 
d="M81 330v52h226v-52h-226z" />
    <glyph glyph-name="endash.case" horiz-adv-x="597" 
d="M76 333v46h444v-46h-444z" />
    <glyph glyph-name="emdash.case" horiz-adv-x="977" 
d="M76 333v46h824v-46h-824z" />
    <glyph glyph-name="quotesinglbase.ss04" horiz-adv-x="241" 
d="M66 -110l28 52q20 39 46 53l-12 20q-16 -15 -34 -15h-7v93h71v-93l-56 -110h-36z" />
    <glyph glyph-name="quotedblbase.ss04" horiz-adv-x="400" 
d="M66 -110l28 52q20 39 46 53l-12 20q-16 -15 -34 -15h-7v93h71v-93l-56 -110h-36zM225 -110l28 52q20 39 46 53l-12 20q-16 -15 -34 -15h-7v93h71v-93l-56 -110h-36z" />
    <glyph glyph-name="quotedblleft.ss04" horiz-adv-x="387" 
d="M165 700l-28 -53q-20 -38 -46 -52l12 -20q18 15 34 15h7v-93h-71v93l56 110h36zM324 700l-28 -53q-20 -38 -46 -52l12 -20q18 15 34 15h7v-93h-71v93l56 110h36z" />
    <glyph glyph-name="quotedblright.ss04" horiz-adv-x="383" 
d="M71 498l28 52q20 39 46 53l-12 20q-16 -15 -34 -15h-7v93h71v-93l-56 -110h-36zM230 498l28 52q20 39 46 53l-12 20q-16 -15 -34 -15h-7v93h71v-93l-56 -110h-36z" />
    <glyph glyph-name="quoteleft.ss04" horiz-adv-x="228" 
d="M166 700l-28 -53q-20 -38 -47 -52l12 -20q18 15 35 15h6v-93h-70v93l55 110h37z" />
    <glyph glyph-name="quoteright.ss04" horiz-adv-x="224" 
d="M71 498l28 52q20 39 46 53l-12 20q-16 -15 -34 -15h-7v93h71v-93l-56 -110h-36z" />
    <glyph glyph-name="guillemotleft.case" horiz-adv-x="496" 
d="M242 535l-126 -196l128 -198h-56l-127 197l128 197h53zM295 340l128 -199h-56l-126 197l127 197h54z" />
    <glyph glyph-name="guillemotright.case" horiz-adv-x="496" 
d="M128 536l127 -198l-127 -196h-54l127 195l-128 199h55zM308 536l127 -198l-128 -196h-54l127 195l-128 199h56z" />
    <glyph glyph-name="guilsinglleft.case" horiz-adv-x="316" 
d="M116 339l128 -198h-56l-127 196l128 198h53z" />
    <glyph glyph-name="guilsinglright.case" horiz-adv-x="316" 
d="M128 536l127 -197l-127 -197h-54l127 195l-128 199h55z" />
    <glyph glyph-name="space.tnum" 
 />
    <glyph glyph-name="uni20BF.tnum" 
d="M383 0v-105h-43v105h-83v-105h-43v105h-112v700h112v105h43v-105h83v105h43v-107q79 -9 122.5 -54t43.5 -114q0 -64 -35.5 -101t-87.5 -47v-28q63 -7 107.5 -50.5t44.5 -115.5q0 -83 -54 -134t-141 -54zM153 653v-266h188q73 0 114 37.5t41 96.5q0 60 -41 96t-114 36
h-188zM524 195q0 63 -42.5 104t-114.5 41h-214v-293h213q72 0 115 42t43 106z" />
    <glyph glyph-name="cent.tnum" 
d="M299 -120v109q-87 9 -138 78t-51 179q0 104 52.5 176.5t136.5 79.5v105h42v-103q66 -5 110.5 -41.5t63.5 -93.5l-45 -15q-33 98 -129 105v-304q0 -53 -4 -79.5t-17 -45.5l14 -19q52 12 90 52.5t53 94.5l47 -16q-45 -144 -183 -154v-108h-42zM299 34v298q0 53 4 80t18 46
l-15 20q-67 -19 -106.5 -78.5t-39.5 -153.5q0 -93 37.5 -148t101.5 -64z" />
    <glyph glyph-name="currency.tnum" 
d="M94 103l-30 31l80 81q-42 56 -42 137q0 82 43 137l-81 82l30 31l82 -81q56 48 135 48q77 0 134 -48l82 81l30 -31l-81 -82q43 -57 43 -137q0 -82 -43 -137l81 -81l-30 -31l-82 80q-57 -48 -134 -48q-79 0 -135 48zM471 352q0 78 -45.5 125t-114.5 47t-115 -47t-46 -125
q0 -79 45.5 -125.5t115.5 -46.5q69 0 114.5 47t45.5 125z" />
    <glyph glyph-name="dollar.tnum" 
d="M286 -109v97q-84 7 -143.5 51.5t-83.5 120.5l47 24q18 -63 66 -102t114 -46v309l-33 10q-81 25 -122.5 66t-41.5 110q0 78 54.5 126.5t142.5 54.5v93h44v-93q86 -6 141.5 -51t68.5 -97l-46 -23q-13 44 -53.5 81t-110.5 44v-281l50 -16q173 -53 173 -188
q0 -84 -59.5 -136.5t-163.5 -56.5v-97h-44zM286 396v152q0 49 4 73.5t17 43.5l-15 21q-72 -13 -113.5 -51.5t-41.5 -100.5q0 -54 33.5 -84t115.5 -54zM502 179q0 60 -38.5 94t-133.5 61v-182q0 -80 -21 -115l15 -21q73 8 125.5 51.5t52.5 111.5z" />
    <glyph glyph-name="Euro.tnum" 
d="M111 261h-82v43h77q-2 38 -2 53q0 33 1 57h-76v43h82q20 119 84.5 187.5t163.5 68.5q94 0 149.5 -59t72.5 -135l-46 -18q-16 68 -59 117t-119 49q-163 0 -215 -216l22 -18q42 24 108 24h116v-43h-235q-2 -28 -2 -53q0 -27 2 -57h235v-43h-117q-43 0 -62 4q-17 4 -46 19
l-21 -17q51 -234 207 -234q75 0 118 45t66 131l48 -17q-24 -84 -80 -145q-55 -60 -151 -60q-98 0 -159 72.5t-80 201.5z" />
    <glyph glyph-name="uni20BA.tnum" 
d="M183 0v187q0 60 22 100l-28 15q-19 -33 -57 -54l-34 -19v49l97 54v85l-97 -53v50l97 53v233h50v-115q0 -58 -22 -95l27 -15q23 37 67 60l144 79v-49l-216 -119v-86l216 121v-50l-216 -120v-263l11 1q34 0 70.5 12t76.5 39t71.5 79.5t44.5 124.5l49 -18
q-24 -127 -110.5 -206.5t-234.5 -79.5h-28z" />
    <glyph glyph-name="uni20BD.tnum" 
d="M345 299h-153v-98h172v-43h-172v-158h-50v158h-79v43h79v98h-79v45h79v356h206q103 0 161 -56t58 -144q0 -89 -59 -145t-163 -56zM192 653v-309h146q85 0 130.5 44.5t45.5 111.5t-44 110t-132 43h-146z" />
    <glyph glyph-name="uni20B9.tnum" 
d="M364 676l-12 -30q39 -14 65.5 -43t34.5 -68h92v-43h-90q-5 -59 -42.5 -96.5t-99.5 -47.5v-29q62 -6 90.5 -35t46.5 -95l56 -189h-54l-57 197q-17 60 -54.5 87t-103.5 27h-148v47h158q65 0 108.5 36t47.5 98h-314v43h313q-9 57 -51 89t-104 32h-158v44h456v-44h-79
q-56 0 -101 20z" />
    <glyph glyph-name="sterling.tnum" 
d="M299 47h241v-47h-452v47q20 4 52 20q35 17 59.5 50.5t24.5 80.5q0 61 -38 124h-96v44h68q-51 76 -51 141q0 93 63.5 148.5t150.5 55.5t149 -49.5t72 -139.5l-49 -17q-11 80 -57 120.5t-117 40.5q-66 0 -113 -43.5t-47 -115.5q1 -22 3.5 -38t12.5 -36.5t14.5 -28
t23.5 -38.5h202v-44h-175q32 -58 32 -119q0 -101 -112 -148l15 -31q54 23 124 23z" />
    <glyph glyph-name="uni20A9.tnum" 
d="M598 391h-104l-12 -106h103v-42h-107l-28 -243h-69l-38 221q-16 93 -18 187h-31q0 -84 -18 -187l-39 -221h-69l-26 243h-106v42h101l-12 106h-103v42h99l-29 267h52l35 -372q9 -91 9 -232v-54h31q2 87 26 214l35 209h61l35 -209q22 -117 24 -214h31v23q0 149 10 263
l37 372h51l-30 -267h99v-42z" />
    <glyph glyph-name="yen.tnum" 
d="M587 700l-219 -343h138v-44h-166v-107h166v-44h-166v-162h-49v162h-176v44h176v107h-176v44h147l-228 343h61l166 -258q40 -63 41 -108h30q1 54 36 109l159 257h60z" />
    <glyph glyph-name="_576" 
d="M114 131l-33 34l195 194l-195 195l33 34l196 -195l195 194l33 -33l-195 -194l195 -195l-33 -34l-196 195z" />
    <glyph glyph-name="plus.tnum" 
d="M286 82v247h-241v47h241v248h47v-248h240v-47h-240v-247h-47z" />
    <glyph glyph-name="minus.tnum" 
d="M72 329v47h475v-47h-475z" />
    <glyph glyph-name="multiply.tnum" 
d="M114 131l-33 34l195 194l-195 195l33 34l196 -195l195 194l33 -33l-195 -194l195 -195l-33 -34l-196 195z" />
    <glyph glyph-name="divide.tnum" 
d="M275 506v104h70v-104h-70zM66 330v47h487v-47h-487zM275 97v104h70v-104h-70z" />
    <glyph glyph-name="equal.tnum" 
d="M68 429v47h484v-47h-484zM68 229v47h484v-47h-484z" />
    <glyph glyph-name="notequal.tnum" 
d="M135 77l85 152h-152v47h179l42 77q27 48 63 70l-14 26q-31 -20 -66 -20h-204v47h290l80 141h48l-79 -141h145v-47h-170l-43 -76q-26 -47 -63 -71l14 -26q31 20 66 20h196v-47h-282l-85 -152h-50z" />
    <glyph glyph-name="greater.tnum" 
d="M87 80v54l361 175q55 25 93 27v31q-40 0 -93 25l-361 176v57l483 -239v-71z" />
    <glyph glyph-name="less.tnum" 
d="M533 625v-55l-362 -174q-54 -26 -92 -28v-31q41 0 92 -25l362 -176v-56l-483 238v71z" />
    <glyph glyph-name="greaterequal.tnum" 
d="M73 176v52l348 133q56 22 106 22v31q-54 1 -108 21l-346 134v54l484 -190v-70zM73 83v48h484v-48h-484z" />
    <glyph glyph-name="lessequal.tnum" 
d="M548 176l-485 187v70l485 190v-52l-347 -135q-54 -20 -108 -21v-31q41 0 106 -22l349 -133v-53zM63 83v48h485v-48h-485z" />
    <glyph glyph-name="plusminus.tnum" 
d="M289 229v172h-223v47h223v176h43v-176h222v-47h-222v-172h-43zM68 83v48h485v-48h-485z" />
    <glyph glyph-name="approxequal.tnum" 
d="M318 441l-30 13q-57 25 -89 25q-50 0 -101 -54l-30 37q58 67 135 67q37 0 100 -27l30 -13q57 -25 89 -25q51 0 102 54l30 -37q-61 -67 -136 -67q-34 0 -100 27zM318 221l-30 13q-57 25 -89 25q-50 0 -101 -54l-30 37q58 67 135 67q37 0 100 -27l30 -13q57 -25 89 -25
q51 0 102 54l30 -37q-61 -67 -136 -67q-34 0 -100 27z" />
    <glyph glyph-name="logicalnot.tnum" 
d="M502 178v158h-435v47h478v-205h-43z" />
    <glyph glyph-name="percent.tnum" 
d="M43 549q0 75 36 119.5t92 44.5q55 0 90.5 -44t35.5 -120q0 -78 -35 -123.5t-91 -45.5q-57 0 -92.5 46t-35.5 123zM118 0l336 700h46l-335 -700h-47zM251 549q0 56 -21.5 90t-58.5 34q-38 0 -60 -33.5t-22 -90.5q0 -60 21.5 -95t60.5 -35q38 0 59 35t21 95zM322 156
q0 76 36 120.5t92 44.5q55 0 90.5 -45t35.5 -120q0 -78 -34.5 -123t-91.5 -45t-92.5 45.5t-35.5 122.5zM530 156q0 58 -21 91.5t-59 33.5q-39 0 -60.5 -33.5t-21.5 -91.5q0 -60 21.5 -94.5t60.5 -34.5q38 0 59 34.5t21 94.5z" />
    <glyph glyph-name="perthousand.tnum" 
d="M15 549q0 77 27.5 120.5t74.5 43.5t73 -43.5t26 -120.5q0 -81 -25.5 -125t-73.5 -44t-75 44.5t-27 124.5zM378 700h47l-336 -700h-47zM60 549q0 -130 56 -130q55 0 55 130q0 124 -54 124q-57 0 -57 -124zM605 156q0 -168 -97 -168q-53 0 -79 55q-24 -55 -77 -55
q-47 0 -74 44t-27 124q0 77 27.5 121t73.5 44q52 0 77 -54q26 54 79 54q46 0 71.5 -43.5t25.5 -121.5zM407 156q0 125 -54 125q-57 0 -57 -125q0 -129 57 -129q54 0 54 129zM561 156q0 125 -55 125q-56 0 -56 -125q0 -129 56 -129q55 0 55 129z" />
    <glyph glyph-name="at.case" horiz-adv-x="906" 
d="M60 345q-2 186 112.5 301t289.5 113q174 3 288 -105.5t112 -268.5q0 -110 -54.5 -179.5t-127.5 -69.5q-83 0 -83 77q0 7 1 14h-25q-15 -41 -48 -66.5t-82 -25.5q-75 0 -121.5 56t-46.5 152q0 95 47.5 153t120.5 58q102 0 131 -88h28q-16 41 -16 76h44v-311q0 -54 53 -54
q52 0 92.5 58.5t40.5 149.5q2 143 -98.5 238.5t-255.5 93.5q-157 0 -256.5 -101t-99.5 -271q0 -174 100 -273t265 -99q152 0 257 79l22 -39q-111 -82 -279 -82q-188 0 -299.5 110.5t-111.5 303.5zM590 348q0 79 -37 123t-99 44q-58 0 -95.5 -45.5t-37.5 -123.5
q0 -79 36.5 -124.5t94.5 -45.5q55 0 96.5 48t41.5 124z" />
    <glyph glyph-name="registered.case" horiz-adv-x="884" 
d="M59 352q-2 102 49 192t141 143t194 51q104 2 193.5 -51t140 -142.5t48.5 -192.5q2 -158 -110.5 -272t-271.5 -111q-159 -3 -273 111.5t-111 271.5zM780 352q2 142 -96.5 245t-240.5 101q-143 2 -242.5 -101t-96.5 -245q-2 -143 96.5 -244t242.5 -99q142 -2 240.5 99
t96.5 244zM315 157v399h153q59 0 95.5 -28t36.5 -78q0 -43 -29.5 -66.5t-66.5 -25.5v-25q31 -1 48 -18.5t29 -60.5l28 -97h-46l-29 105q-10 39 -32 55t-66 16h-81v-176h-40zM355 368h108q94 0 94 75q0 74 -94 74h-108v-149z" />
    <glyph glyph-name="section.tnum" 
d="M110 -70l48 20q27 -113 150 -113q60 0 98 32.5t38 85.5q0 88 -109 121l-130 40q-140 45 -140 157q0 54 35 91.5t97 49.5v29q-71 38 -71 113q0 69 49.5 113t131.5 44q84 0 135 -41t65 -96l-48 -21q-34 114 -152 114q-60 0 -96 -31t-36 -79q0 -47 24 -71.5t86 -44.5
l130 -40q66 -21 103 -61t37 -94q0 -55 -37.5 -94t-99.5 -50v-28q76 -40 76 -120q0 -72 -52 -117.5t-134 -45.5q-85 0 -134 39t-64 98zM505 239q0 89 -114 121l-116 35q-19 5 -35 12q-54 -11 -89.5 -44.5t-35.5 -80.5t28 -76t86 -47l116 -34l34 -12q52 9 89 45t37 81z" />
    <glyph glyph-name="degree.tnum" 
d="M159 608q0 64 43.5 108t108.5 44t108.5 -44t43.5 -108q0 -63 -44 -106.5t-109 -43.5q-66 0 -108.5 43.5t-42.5 106.5zM416 609q0 49 -29 79t-76 30t-76 -30.5t-29 -78.5q0 -50 29 -80t76 -30t76 30t29 80z" />
    <glyph glyph-name="_642" horiz-adv-x="0" 
d="M-105 519l52 98h-33v83h63v-83l-50 -98h-32z" />
    <glyph glyph-name="_647" horiz-adv-x="277" 
d="M95 767l70 138h69l-104 -138h-35zM10 646q0 40 29 68.5t70 28.5q42 0 70.5 -29t28.5 -69q0 -42 -28.5 -71t-70.5 -29t-70.5 29.5t-28.5 71.5zM170 645q0 25 -17 44t-44 19t-44 -18t-17 -44q0 -28 17 -47t44 -19t44 19.5t17 45.5z" />
    <glyph glyph-name="uni0327.ss04" horiz-adv-x="0" 
d="M-238 -155l25 30q31 -37 75 -37q57 0 57 43q0 18 -15.5 29t-38.5 11q-22 0 -41 -7l-19 24l60 69l35 -7l-21 -21q-15 -16 -43 -27l14 -21q22 12 45 12q28 0 47 -17.5t19 -46.5q0 -35 -26 -56.5t-70 -21.5q-69 0 -103 44z" />
    <glyph glyph-name="cedilla.ss04" horiz-adv-x="318" 
d="M36 -155l25 30q31 -37 74 -37q58 0 58 43q0 18 -15.5 29t-38.5 11q-22 0 -41 -7l-19 24l60 69l35 -7l-24 -24q-15 -15 -26 -28q14 2 25 2q38 0 62 -19t24 -52q0 -35 -26.5 -56.5t-70.5 -21.5q-68 0 -102 44z" />
    <glyph glyph-name="_670" horiz-adv-x="0" 
d="M-333 573v80h64v-80h-64zM-141 573v80h64v-80h-64z" />
    <glyph glyph-name="_671" horiz-adv-x="0" 
d="M-104 572v95h50v-95h-50z" />
    <glyph glyph-name="_672" horiz-adv-x="0" 
d="M-64 573l-114 122h75l77 -122h-38z" />
    <glyph glyph-name="_673" horiz-adv-x="0" 
d="M-200 573l76 122h76l-114 -122h-38z" />
    <glyph glyph-name="_674" horiz-adv-x="0" 
d="M-369 573l76 122h76l-115 -122h-37zM-222 573l76 122h77l-115 -122h-38z" />
    <glyph glyph-name="_675" horiz-adv-x="0" 
d="M-386 573l114 116h82l113 -116h-53l-101 86l-102 -86h-53z" />
    <glyph glyph-name="_676" horiz-adv-x="0" 
d="M-50 689l-114 -116h-82l-113 116h53l101 -85l102 85h53z" />
    <glyph glyph-name="_677" horiz-adv-x="0" 
d="M-332 688h45q5 -40 30 -61t66 -21q85 0 95 82h46q-3 -53 -40 -87.5t-101 -34.5t-101 34.5t-40 87.5z" />
    <glyph glyph-name="_678" horiz-adv-x="0" 
d="M-243 665q0 41 30 71.5t75 30.5q43 0 73 -30.5t30 -72.5q0 -44 -29.5 -74t-73.5 -30q-45 0 -75 30.5t-30 74.5zM-75 664q0 26 -18 46.5t-45 20.5q-28 0 -46 -20t-18 -46q0 -29 17.5 -49.5t46.5 -20.5q27 0 45 21t18 48z" />
    <glyph glyph-name="_679" horiz-adv-x="277" 
d="M99 762l70 138h69l-104 -138h-35zM14 641q0 39 29 68t70 29q42 0 70.5 -29t28.5 -69q0 -42 -28.5 -71t-70.5 -29t-70.5 29.5t-28.5 71.5zM174 640q0 25 -17 44t-44 19t-44 -18t-17 -44q0 -28 17 -47t44 -19t44 19.5t17 45.5z" />
    <glyph glyph-name="_680" horiz-adv-x="0" 
d="M-195 595l-33 21q-35 22 -54 22q-48 0 -46 -59h-46q-1 47 24 73t68 26q34 0 76 -25l31 -21q36 -22 56 -22q47 0 47 57h46q1 -47 -23.5 -72.5t-68.5 -25.5q-36 0 -77 26z" />
    <glyph glyph-name="_681" horiz-adv-x="0" 
d="M-361 600v40h328v-40h-328z" />
    <glyph glyph-name="_682" horiz-adv-x="0" 
d="M-95 -195v95h50v-95h-50z" />
    <glyph glyph-name="NULL" horiz-adv-x="0" 
 />
    </font>
</defs>
</svg>
