<?xml version="1.0" standalone="no"?>
<!DOCTYPE svg PUBLIC "-//W3C//DTD SVG 1.1//EN" "http://www.w3.org/Graphics/SVG/1.1/DTD/svg11.dtd" >
<svg xmlns="http://www.w3.org/2000/svg" xmlns:xlink="http://www.w3.org/1999/xlink" version="1.1">
<metadata>
Created by FontForge 20170731 at Tue Mar 12 05:31:03 2019
 By Aleksey,,,
Copyright 2019 Dinamo (Johannes Breyer, Fabian Harb) &#38; Erkin Karamemet. All rights reserved.
</metadata>
<defs>
<font id="WhyteInktrap-ExtraLightItalic" horiz-adv-x="620" >
  <font-face 
    font-family="Whyte Inktrap ExtraLight"
    font-weight="275"
    font-style="italic"
    font-stretch="normal"
    units-per-em="1000"
    panose-1="2 11 0 4 5 1 1 2 1 3"
    ascent="800"
    descent="-200"
    x-height="492"
    cap-height="700"
    bbox="-381 -282 1244 1108"
    underline-thickness="24"
    underline-position="-97"
    slope="-12"
    unicode-range="U+000D-FB02"
  />
<missing-glyph horiz-adv-x="696" 
d="M64 0l148 700h465l-148 -700h-465zM118 43h375l130 613h-375z" />
    <glyph glyph-name="fi" unicode="fi" horiz-adv-x="570" 
d="M526 492l-103 -492h-49l96 450h-237l-95 -450h-48l96 450h-124l9 42h124l16 78q16 69 50 99.5t106 30.5h77l-9 -44h-72q-87 0 -104 -86l-17 -78h284zM522 700h51l-20 -95h-51z" />
    <glyph glyph-name="fl" unicode="fl" horiz-adv-x="573" 
d="M574 700l-149 -700h-48l140 656h-154q-87 0 -104 -86l-17 -78h142l-9 -42h-142l-95 -450h-48l96 450h-124l9 42h124l16 78q16 69 50 99.5t106 30.5h207z" />
    <glyph glyph-name="f_f" unicode="ff" horiz-adv-x="665" 
d="M575 570l-17 -78h142l-9 -42h-142l-95 -450h-48l95 450h-123l3 13h-3l-3 -13h-142l-95 -450h-48l96 450h-124l9 42h124l16 78q16 69 50 99.5t106 30.5h77l-9 -44h-72q-87 0 -104 -86l-17 -78h142v-2h3v2h124l16 78q16 69 50 99.5t106 30.5h77l-9 -44h-72q-87 0 -104 -86z
" />
    <glyph glyph-name="f_f_i" unicode="ffi" horiz-adv-x="919" 
d="M876 492l-104 -492h-48l95 450h-270l-95 -450h-48l95 450h-123l3 13h-3l-3 -13h-142l-95 -450h-48l96 450h-124l9 42h124l16 78q16 69 50 99.5t106 30.5h77l-9 -44h-72q-87 0 -104 -86l-17 -78h142v-2h3v2h124l16 78q16 69 50 99.5t106 30.5h77l-9 -44h-72
q-87 0 -104 -86l-17 -78h318zM872 700h50l-20 -95h-50z" />
    <glyph glyph-name="f_f_l" unicode="ffl" horiz-adv-x="918" 
d="M920 700l-149 -700h-47l139 656h-184q-87 0 -104 -86l-17 -78h142l-9 -42h-142l-95 -450h-48l95 450h-123l3 13h-3l-3 -13h-142l-95 -450h-48l96 450h-124l9 42h124l16 78q16 69 50 99.5t106 30.5h77l-9 -44h-72q-87 0 -104 -86l-17 -78h142v-2h3v2h124l16 78
q16 69 50 99.5t106 30.5h237z" />
    <glyph glyph-name=".notdef" horiz-adv-x="696" 
d="M64 0l148 700h465l-148 -700h-465zM118 43h375l130 613h-375z" />
    <glyph glyph-name=".null" horiz-adv-x="0" 
 />
    <glyph glyph-name="nonmarkingreturn" horiz-adv-x="333" 
 />
    <glyph glyph-name="CR" unicode="&#xd;" horiz-adv-x="284" 
 />
    <glyph glyph-name="space" unicode=" " horiz-adv-x="284" 
 />
    <glyph glyph-name="exclam" unicode="!" horiz-adv-x="262" 
d="M108 194l57 327l37 179h50l-38 -180l-82 -326h-24zM42 0l20 98h73l-20 -98h-73z" />
    <glyph glyph-name="quotedbl" unicode="&#x22;" horiz-adv-x="364" 
d="M133 478l24 162l12 60h51l-13 -60l-43 -162h-31zM295 478l24 162l12 60h51l-13 -60l-43 -162h-31z" />
    <glyph glyph-name="numbersign" unicode="#" horiz-adv-x="686" 
d="M78 0l56 134q16 37 23 46q10 13 35 30l-16 25q-26 -17 -66 -17h-75l9 43h144l78 187h-132l10 44h140l88 208h48l-52 -124q-13 -31 -24 -45.5t-34 -30.5l15 -26q29 18 66 18h128l87 208h49l-51 -124q-12 -30 -24 -45t-34 -31l15 -26q28 18 65 18h72l-9 -44h-140l-78 -187
h128l-9 -43h-138l-90 -218h-49l56 134q13 31 24 45.5t34 30.5l-15 25q-26 -17 -67 -17h-127l-91 -218h-49zM236 261h186l78 187h-186z" />
    <glyph glyph-name="dollar" unicode="$" horiz-adv-x="581" 
d="M189 -109l22 102q-75 12 -123 56.5t-60 111.5l50 21q8 -57 45 -94t97 -48l66 304l-35 13q-62 25 -94 60t-32 91q0 94 64 149t175 55l20 93h45l-20 -97q71 -14 113 -56.5t53 -88.5l-49 -20q-7 36 -39.5 70t-88.5 46l-59 -280l33 -12q147 -55 147 -175q0 -96 -69 -150
t-195 -54l-20 -97h-46zM296 395l33 151q10 47 19.5 72.5t26.5 43.5l-11 21q-86 -6 -138 -49.5t-52 -120.5q0 -83 122 -118zM466 191q0 50 -32.5 82.5t-105.5 56.5l-38 -183q-18 -79 -47 -111l12 -22q95 8 153 54.5t58 122.5z" />
    <glyph glyph-name="percent" unicode="%" horiz-adv-x="875" 
d="M115 0l633 700h60l-633 -700h-60zM502 158q0 96 50.5 169.5t129.5 73.5q65 0 103 -44.5t38 -120.5q0 -95 -51 -168t-129 -73q-66 0 -103.5 43t-37.5 120zM778 236q0 58 -26 91.5t-71 33.5q-56 0 -94.5 -62.5t-38.5 -140.5q0 -59 25.5 -91.5t70.5 -32.5q57 0 95.5 62
t38.5 140zM96 464q0 96 50.5 169.5t129.5 73.5q65 0 103 -44.5t38 -120.5q0 -95 -51 -168t-129 -73q-66 0 -103.5 43t-37.5 120zM372 542q0 58 -26 91.5t-71 33.5q-56 0 -94.5 -62.5t-38.5 -140.5q0 -59 25.5 -91.5t70.5 -32.5q57 0 95.5 62t38.5 140z" />
    <glyph glyph-name="ampersand" unicode="&#x26;" horiz-adv-x="644" 
d="M42 165q0 128 166 210q-21 61 -21 123q0 88 45.5 151.5t127.5 63.5q64 0 104.5 -37.5t40.5 -95.5q0 -147 -253 -209l-5 -30q27 -15 63 -69l16 -22q54 -71 113 -120q61 73 93 197l44 -21q-31 -121 -100 -204q56 -42 117 -72l-23 -42q-61 30 -126 79q-88 -80 -205 -80
q-87 0 -142 48.5t-55 129.5zM249 396l48 22q84 39 121.5 73.5t39.5 89.5q0 38 -26 64t-72 26q-62 0 -94.5 -49t-32.5 -125q0 -57 16 -101zM421 83l5 28q-73 29 -128 102q-37 48 -73 122q-134 -69 -134 -170q0 -61 43.5 -98t102.5 -37q92 0 184 53z" />
    <glyph glyph-name="quotesingle" unicode="'" horiz-adv-x="202" 
d="M133 478l24 162l12 60h51l-13 -60l-43 -162h-31z" />
    <glyph glyph-name="parenleft" unicode="(" horiz-adv-x="310" 
d="M58 132q0 135 40 276t117 242t181 115l-12 -48q-88 -21 -153 -120q-64 -98 -95 -227q-32 -131 -32 -237q0 -205 103 -245l-10 -48q-139 48 -139 292z" />
    <glyph glyph-name="parenright" unicode=")" horiz-adv-x="310" 
d="M276 473q0 -135 -40 -276t-117 -242t-181 -115l12 48q89 21 152 119q64 99 96 228q32 131 32 237q0 205 -103 245l10 48q139 -48 139 -292z" />
    <glyph glyph-name="asterisk" unicode="*" horiz-adv-x="497" 
d="M213 417l-40 26l38 47q44 57 86 84l-12 25q-46 -18 -109 -18h-53l9 46l157 -4l-54 146l46 18l13 -41q20 -64 20 -97q0 -9 -1 -17h27q8 37 74 126l23 31l40 -28l-112 -139l159 4l-9 -45h-55q-67 0 -106 16l-15 -24q25 -24 51 -90l18 -45l-47 -20l-46 139z" />
    <glyph glyph-name="plus" unicode="+" horiz-adv-x="613" 
d="M306 82v247h-241v47h241v248h48v-248h240v-47h-240v-247h-48z" />
    <glyph glyph-name="comma" unicode="," horiz-adv-x="244" 
d="M-4 -116l82 116h-36l21 98h74l-21 -99l-80 -115h-40z" />
    <glyph glyph-name="hyphen" unicode="-" horiz-adv-x="383" 
d="M86 282l11 52h223l-10 -52h-224z" />
    <glyph glyph-name="period" unicode="." horiz-adv-x="234" 
d="M35 0l21 98h73l-21 -98h-73z" />
    <glyph glyph-name="slash" unicode="/" horiz-adv-x="416" 
d="M-29 -109l467 918h52l-467 -918h-52z" />
    <glyph glyph-name="zero" unicode="0" horiz-adv-x="690" 
d="M86 276q-1 107 37.5 207.5t113 166.5t166.5 63q113 0 179 -76.5t66 -215.5q2 -107 -36.5 -207t-113.5 -165t-167 -62q-114 0 -179.5 76t-65.5 213zM596 421q0 112 -52 179t-143 67q-74 2 -136.5 -58.5t-95 -150.5t-31.5 -182q0 -112 51.5 -177.5t143.5 -65.5
q75 -3 137.5 57.5t94.5 150t31 180.5z" />
    <glyph glyph-name="one" unicode="1" horiz-adv-x="391" 
d="M172 0l107 507q13 65 41 110h-33q-31 -56 -87.5 -97t-120.5 -54l13 55q65 19 129.5 66t111.5 113h37l-148 -700h-50z" />
    <glyph glyph-name="two" unicode="2" horiz-adv-x="568" 
d="M29 0l14 66q119 64 218 127q95 61 164 142q71 83 71 173q0 69 -45 114t-111 45q-68 0 -118 -44.5t-57 -132.5l-51 13q13 101 74 155.5t154 54.5q92 0 149 -59t57 -143q0 -116 -100 -219q-108 -117 -362 -241l17 -30q40 26 105 26h268l-10 -47h-437z" />
    <glyph glyph-name="three" unicode="3" horiz-adv-x="580" 
d="M53 193l52 14q-1 -9 -1 -19q0 -71 45.5 -113t117.5 -42q80 0 130 47t50 119q0 63 -44.5 102.5t-108.5 39.5h-49l11 45h53q85 0 134.5 40.5t49.5 111.5q0 57 -42.5 93t-105.5 36q-70 0 -117 -41.5t-52 -107.5l-51 14q12 81 71.5 131t149.5 50q89 0 143.5 -48.5
t54.5 -121.5t-48.5 -117t-115.5 -51l-6 -29q53 -9 89.5 -50.5t36.5 -99.5q0 -87 -64.5 -148t-165.5 -61q-103 0 -161.5 55.5t-55.5 150.5z" />
    <glyph glyph-name="four" unicode="4" horiz-adv-x="569" 
d="M316 0l43 204h-332l13 60l384 436h90l-96 -452h114l-10 -44h-113l-43 -204h-50zM369 248l63 300q11 56 46 102l-24 17l-3 -2l-365 -415l-3 -4l21 -21q32 23 88 23h177z" />
    <glyph glyph-name="five" unicode="5" horiz-adv-x="587" 
d="M48 161l50 13q4 -66 51 -103.5t121 -37.5q88 0 143.5 57.5t55.5 148.5q0 68 -44.5 112.5t-112.5 44.5q-56 0 -93 -21.5t-71 -70.5l-61 16l123 380h378l-10 -47h-337l-51 -160q-29 -89 -69 -147h37q58 95 165 95q86 0 142.5 -57.5t56.5 -142.5q0 -111 -71 -182.5
t-183 -71.5q-102 0 -157 49.5t-63 124.5z" />
    <glyph glyph-name="six" unicode="6" horiz-adv-x="607" 
d="M82 238q-1 129 41.5 236.5t129 173.5t200.5 64q89 0 149 -26l-11 -50q-64 28 -140 28q-131 0 -217 -94.5t-114 -252.5h32q15 51 65.5 89.5t120.5 38.5q94 0 149 -58t55 -145q0 -107 -68 -181t-174 -74q-104 0 -161 66.5t-57 184.5zM490 236q0 75 -45 119.5t-116 44.5
q-82 0 -136.5 -59.5t-54.5 -143.5q0 -74 45.5 -119t115.5 -45q82 0 136.5 59.5t54.5 143.5z" />
    <glyph glyph-name="seven" unicode="7" horiz-adv-x="503" 
d="M500 645l13 9l-17 25q-38 -26 -130 -26h-254l10 47h450l-10 -52q-144 -95 -229 -200q-83 -101 -125 -208.5t-58 -239.5h-58q26 205 122.5 361t285.5 284z" />
    <glyph glyph-name="eight" unicode="8" horiz-adv-x="605" 
d="M58 174q0 78 56 127t142 55l7 30q-54 12 -86.5 46t-32.5 88q0 84 64.5 138.5t159.5 54.5q92 0 148.5 -48t56.5 -120q0 -71 -49 -115.5t-124 -52.5l-6 -29q57 -12 94.5 -53t37.5 -97q0 -88 -69.5 -149.5t-177.5 -61.5q-102 0 -161.5 51.5t-59.5 135.5zM519 540
q0 58 -42.5 92.5t-109.5 34.5q-72 0 -122.5 -43t-50.5 -106q0 -60 41 -94t108 -34q78 0 127 43t49 107zM473 199q0 65 -46 103.5t-121 38.5q-85 0 -140 -47.5t-55 -118.5q0 -65 47 -103.5t120 -38.5q84 0 139.5 47.5t55.5 118.5z" />
    <glyph glyph-name="nine" unicode="9" 
d="M61 19l10 49q60 -31 138 -31q149 0 230 110q77 90 100 223h-33q-58 -117 -191 -117q-95 0 -152 59.5t-57 145.5q0 108 66.5 181t174.5 73q104 0 167 -72q66 -74 66 -202q1 -91 -23 -172.5t-69.5 -144t-116.5 -99t-159 -35.5q-95 0 -151 32zM520 491q0 74 -51 124.5
t-118 50.5q-85 0 -138 -58.5t-53 -143.5q0 -76 46 -120.5t117 -44.5q91 0 144 53.5t53 138.5z" />
    <glyph glyph-name="colon" unicode=":" horiz-adv-x="231" 
d="M106 375l21 98h73l-21 -98h-73zM27 0l21 98h73l-21 -98h-73z" />
    <glyph glyph-name="semicolon" unicode=";" horiz-adv-x="266" 
d="M127 375l21 98h73l-21 -98h-73zM1 -116l82 116h-36l21 98h74l-21 -99l-80 -115h-40z" />
    <glyph glyph-name="less" unicode="&#x3c;" horiz-adv-x="675" 
d="M603 625v-55l-401 -175q-63 -26 -103 -27v-30q45 -2 103 -26l401 -176v-56l-537 238v71z" />
    <glyph glyph-name="equal" unicode="=" horiz-adv-x="764" 
d="M129 429v47h538v-47h-538zM129 229v47h538v-47h-538z" />
    <glyph glyph-name="greater" unicode="&#x3e;" horiz-adv-x="675" 
d="M118 80v54l402 175q60 25 103 27v30q-47 2 -103 26l-402 176v57l537 -239v-71z" />
    <glyph glyph-name="question" unicode="?" horiz-adv-x="461" 
d="M285 377q49 33 83 60q62 49 62 118q0 48 -34 80t-90 32q-72 0 -113 -46t-43 -128l-47 10q1 94 57 151t147 57q77 0 125.5 -43.5t48.5 -109.5q0 -47 -21 -85q-20 -35 -54 -64q-32 -28 -94 -70q-51 -37 -63.5 -57.5t-28.5 -87.5h-51q19 79 37 109t79 74zM123 0l21 98h72
l-21 -98h-72z" />
    <glyph glyph-name="at" unicode="@" horiz-adv-x="907" 
d="M68 245q-3 195 125.5 331t320.5 133q167 3 270.5 -95.5t101.5 -239.5q2 -121 -67.5 -205.5t-153.5 -82.5q-39 0 -60.5 18t-21.5 49q0 7 2 25h-23q-49 -92 -139 -92q-64 0 -102 43t-38 116q-2 100 59 181t148 78q50 0 82.5 -28.5t37.5 -69.5h27q-3 22 -3 38q0 20 6 48h43
l-66 -309q-1 -5 -1 -15q0 -42 50 -42q64 -2 120 74t54 174q0 125 -88.5 209t-237.5 84q-173 3 -286.5 -119.5t-111.5 -298.5q0 -147 96 -236t242 -89q165 0 265 80l20 -40q-108 -83 -284 -83q-168 -2 -278.5 101.5t-108.5 262.5zM608 341q0 58 -31 91t-83 33q-70 0 -117 -67
t-47 -150q0 -59 26.5 -90.5t72.5 -31.5q72 -2 126.5 67t52.5 148z" />
    <glyph glyph-name="A" unicode="A" horiz-adv-x="660" 
d="M521 0l-34 217h-321l-125 -217h-60l411 700h70l113 -700h-54zM193 264h286l-45 296q-4 25 -4 51q0 29 4 54h-30q-18 -64 -44 -110z" />
    <glyph glyph-name="B" unicode="B" horiz-adv-x="696" 
d="M64 0l148 700h260q81 0 131.5 -42.5t50.5 -111.5q0 -67 -41 -111t-111 -56l-5 -29q48 -5 86 -42t38 -98q0 -90 -67.5 -150t-170.5 -60h-319zM196 387h219q82 0 134.5 41.5t52.5 109.5q0 54 -36.5 84.5t-101.5 30.5h-212zM125 47h256q82 0 134 46.5t52 120.5
q0 56 -38.5 91t-107.5 35h-234z" />
    <glyph glyph-name="C" unicode="C" horiz-adv-x="732" 
d="M83 285q-1 114 43 212t127.5 158t187.5 58q62 1 115.5 -19t88 -52t56 -67t28.5 -68l-53 -15q-17 68 -76.5 121t-159.5 53q-91 2 -162 -51.5t-107 -140t-34 -187.5q0 -112 64 -182.5t169 -70.5q184 0 266 185l50 -24q-40 -87 -118 -148q-76 -60 -199 -60
q-131 0 -208.5 83.5t-77.5 214.5z" />
    <glyph glyph-name="D" unicode="D" horiz-adv-x="727" 
d="M64 0l148 700h159q140 0 228.5 -83t88.5 -222q2 -168 -109.5 -283t-288.5 -112h-226zM124 47h160q163 0 257.5 97.5t94.5 247.5q0 122 -73 191.5t-205 69.5h-106z" />
    <glyph glyph-name="E" unicode="E" horiz-adv-x="629" 
d="M64 0l148 700h464l-9 -47h-415l-56 -265h314l-10 -46h-313l-62 -295h413l-10 -47h-464z" />
    <glyph glyph-name="F" unicode="F" horiz-adv-x="627" 
d="M64 0l148 700h484l-10 -47h-434l-58 -276h336l-10 -47h-335l-71 -330h-50z" />
    <glyph glyph-name="G" unicode="G" horiz-adv-x="778" 
d="M83 294q-2 108 45.5 204.5t136 156.5t195.5 58q66 0 120.5 -19t89.5 -50.5t56.5 -66.5t29.5 -71l-54 -16q-19 72 -80.5 124t-163.5 52q-141 2 -233 -110t-90 -262q0 -117 65.5 -188.5t171.5 -71.5q110 0 187 69.5t105 179.5h-261l10 47h313l-70 -330h-49q11 54 23 88
q9 26 28 63h-33q-78 -164 -260 -164q-126 0 -204 84.5t-78 222.5z" />
    <glyph glyph-name="H" unicode="H" horiz-adv-x="766" 
d="M64 0l148 700h50l-66 -312h435l67 312h50l-149 -700h-50l72 341h-435l-72 -341h-50z" />
    <glyph glyph-name="I" unicode="I" horiz-adv-x="282" 
d="M64 0l148 700h51l-149 -700h-50z" />
    <glyph glyph-name="J" unicode="J" horiz-adv-x="478" 
d="M13 129q0 37 12 79l53 7q-15 -46 -15 -83q0 -48 25.5 -73.5t68.5 -25.5q61 0 98 42.5t56 126.5l106 498h50l-110 -515q-21 -99 -68.5 -148.5t-129.5 -49.5q-67 0 -106.5 38t-39.5 104z" />
    <glyph glyph-name="K" unicode="K" horiz-adv-x="659" 
d="M703 700l-345 -299l252 -401h-61l-229 369l-157 -137l-49 -232h-50l148 700h50l-54 -253q-17 -88 -55 -127l19 -21l457 401h74z" />
    <glyph glyph-name="L" unicode="L" horiz-adv-x="560" 
d="M64 0l148 700h51l-138 -652h379l-11 -48h-429z" />
    <glyph glyph-name="M" unicode="M" horiz-adv-x="905" 
d="M64 0l148 700h86l97 -508q9 -45 9 -75q0 -28 -7 -57h32q17 74 54 131l311 509h92l-148 -700h-50l104 492q21 89 61 150l-29 17l-405 -659h-35l-126 657l-31 -6q4 -25 4 -57q0 -44 -12 -100l-105 -494h-50z" />
    <glyph glyph-name="N" unicode="N" horiz-adv-x="778" 
d="M64 0l148 700h77l281 -647l29 11q-7 27 -7 51q0 33 12 89l105 496h50l-148 -700h-71l-285 655l-28 -12q5 -27 5 -47q0 -37 -13 -96l-105 -500h-50z" />
    <glyph glyph-name="O" unicode="O" horiz-adv-x="805" 
d="M83 299q-2 110 47 206t136 153t188 55q137 0 224.5 -86.5t87.5 -226.5q1 -110 -47.5 -205.5t-135 -152.5t-187.5 -55q-137 0 -225 86t-88 226zM714 401q0 114 -72 189.5t-187 75.5q-133 3 -228 -107.5t-92 -257.5q0 -116 71.5 -191.5t187.5 -75.5q87 -2 162 49t117 136
t41 182z" />
    <glyph glyph-name="P" unicode="P" horiz-adv-x="635" 
d="M64 0l148 700h226q97 0 153 -53t56 -134q0 -94 -69.5 -154t-177.5 -60h-223l-63 -299h-50zM187 344h207q91 0 146.5 46t55.5 123q0 59 -42.5 99.5t-118.5 40.5h-183z" />
    <glyph glyph-name="Q" unicode="Q" horiz-adv-x="816" 
d="M83 299q-2 110 47 206t136 153t188 55q137 0 224.5 -87.5t87.5 -232.5q0 -93 -38 -175t-98 -131q18 -31 45.5 -41.5t84.5 -10.5l-10 -47q-70 0 -101.5 18.5t-43.5 64.5h-28q-70 -84 -186 -84q-131 -2 -220 86t-88 226zM566 99l-42 91q-22 42 -50 62t-71 20q-16 0 -21 -1
l12 50q8 1 18 1q87 0 126 -74q28 -50 45 -129h28q47 49 75 121.5t28 153.5q0 119 -71.5 195.5t-187.5 76.5q-133 3 -228 -107.5t-92 -257.5q0 -116 71.5 -191.5t188.5 -75.5q97 0 171 65z" />
    <glyph glyph-name="R" unicode="R" horiz-adv-x="678" 
d="M64 0l148 700h234q87 0 140.5 -48.5t53.5 -120.5q0 -75 -45.5 -123.5t-124.5 -61.5l-7 -29q45 -6 66 -35t30 -93l24 -189h-53l-20 180q-8 73 -36 102t-101 29h-192l-67 -311h-50zM189 357h201q87 0 142.5 45t55.5 125q0 56 -38 91t-107 35h-191z" />
    <glyph glyph-name="S" unicode="S" horiz-adv-x="594" 
d="M34 164l50 21q9 -67 62.5 -109t131.5 -42q88 0 141 43t53 113q0 50 -31.5 82.5t-95.5 53.5l-87 28q-128 40 -128 155q0 91 64.5 147t164.5 56q97 0 152 -47.5t66 -107.5l-49 -17q-12 50 -52.5 88t-119.5 38q-78 0 -126.5 -42.5t-48.5 -110.5q0 -42 27 -69t90 -48l81 -27
q68 -22 107.5 -67t39.5 -108q0 -91 -68.5 -149t-181.5 -58q-97 0 -163.5 48t-78.5 129z" />
    <glyph glyph-name="T" unicode="T" horiz-adv-x="607" 
d="M220 0l138 653h-256l10 47h577l-9 -47h-272l-138 -653h-50z" />
    <glyph glyph-name="U" unicode="U" horiz-adv-x="681" 
d="M99 172q0 38 9 80l95 448h50l-93 -437q-10 -41 -10 -82q0 -146 148 -146q95 0 151 58t81 176l93 431h50l-95 -444q-28 -135 -96.5 -202t-183.5 -67q-96 0 -147.5 48t-51.5 137z" />
    <glyph glyph-name="V" unicode="V" horiz-adv-x="621" 
d="M220 0l-78 700h52l56 -512q6 -52 6 -84q0 -36 -6 -65h30q12 54 59 141l276 520h57l-376 -700h-76z" />
    <glyph glyph-name="W" unicode="W" horiz-adv-x="947" 
d="M169 0l-21 700h51l13 -481v-36q0 -75 -12 -141h31q6 31 22 75q19 47 46 100l242 483h57l34 -480q4 -51 4 -95q0 -43 -8 -83h30q9 41 21 77q14 40 42 101l218 480h55l-323 -700h-71l-36 486q-1 17 -1 46q0 56 12 121h-31q-18 -86 -59 -166l-244 -487h-72z" />
    <glyph glyph-name="X" unicode="X" horiz-adv-x="603" 
d="M-28 0l323 361l-160 339h56l100 -213q22 -48 22 -84q0 -13 -1 -20h30q10 43 65 103l190 214h64l-305 -338l173 -362h-58l-108 234q-27 57 -27 90q0 7 2 17h-30q-10 -45 -61 -104l-210 -237h-65z" />
    <glyph glyph-name="Y" unicode="Y" horiz-adv-x="635" 
d="M241 0l65 306l-163 394h56l106 -263q18 -45 18 -78q0 -7 -2 -25h30q11 50 54 104l215 262h64l-328 -394l-64 -306h-51z" />
    <glyph glyph-name="Z" unicode="Z" horiz-adv-x="577" 
d="M-17 0l13 67l569 592l-17 23q-44 -29 -129 -29h-271l10 47h471l-12 -58l-577 -600l17 -22q19 12 29 16t32 7.5t59 3.5h328l-10 -47h-512z" />
    <glyph glyph-name="bracketleft" unicode="[" horiz-adv-x="321" 
d="M24 -150l192 905h185l-9 -42h-138l-175 -821h138l-9 -42h-184z" />
    <glyph glyph-name="backslash" unicode="\" horiz-adv-x="392" 
d="M233 -109l-76 918h46l77 -918h-47z" />
    <glyph glyph-name="bracketright" unicode="]" horiz-adv-x="321" 
d="M321 755l-192 -905h-185l10 42h137l175 821h-138l9 42h184z" />
    <glyph glyph-name="asciicircum" unicode="^" horiz-adv-x="479" 
d="M91 336l151 364h60l153 -364h-53l-88 214q-27 74 -28 117h-30q-1 -52 -27 -119l-84 -212h-54z" />
    <glyph glyph-name="underscore" unicode="_" horiz-adv-x="560" 
d="M-25 -118l10 46h464l-10 -46h-464z" />
    <glyph glyph-name="grave" unicode="`" horiz-adv-x="273" 
d="M140 566l-77 122h65l42 -122h-30z" />
    <glyph glyph-name="a" unicode="a" horiz-adv-x="531" 
d="M42 114q0 100 100.5 150.5t257.5 48.5l3 16q3 12 3 27q0 48 -32.5 76t-95.5 28q-61 0 -102 -27t-58 -69l-44 23q18 44 71 80.5t135 36.5q79 0 127 -38.5t48 -107.5q0 -20 -6 -46l-46 -215q-3 -10 -3 -20q0 -34 39 -34h44l-9 -43h-38q-69 0 -69 63q0 15 3 30h-27
q-56 -106 -167 -106q-63 0 -98.5 33t-35.5 94zM379 214l12 60q-81 0 -146.5 -15.5t-109.5 -52t-44 -89.5q0 -41 27 -64t72 -23q63 0 116.5 48t72.5 136z" />
    <glyph glyph-name="b" unicode="b" horiz-adv-x="569" 
d="M124 131h-33q5 -47 5 -66q0 -31 -7 -65h-46l150 700h48l-39 -178q-10 -40 -21 -66q-9 -21 -35 -63h34q54 111 162 111q75 0 124.5 -52.5t49.5 -141.5q2 -129 -66 -227t-171 -96q-69 0 -106.5 39.5t-48.5 104.5zM467 306q0 73 -38 113.5t-98 40.5q-56 2 -101.5 -38
t-69.5 -102.5t-23 -130.5q0 -75 38.5 -116.5t100.5 -41.5q83 0 137 82t54 193z" />
    <glyph glyph-name="c" unicode="c" horiz-adv-x="518" 
d="M53 190q-1 79 29.5 151t89 118.5t129.5 44.5q76 0 124.5 -40t59.5 -102l-47 -13q-11 48 -47 80t-91 32q-59 2 -105.5 -39t-69.5 -101.5t-22 -124.5q0 -81 38 -123t101 -42q60 0 105 38t68 93l44 -22q-71 -153 -219 -153q-85 0 -136 54t-51 149z" />
    <glyph glyph-name="d" unicode="d" horiz-adv-x="568" 
d="M53 181q-1 83 28 157t83.5 120.5t122.5 45.5q74 0 111 -43q38 -42 48 -102h32q-7 32 -7 63t11 88l40 190h48l-149 -700h-43q9 40 44 97h-33q-56 -110 -162 -110q-75 0 -124.5 52.5t-49.5 141.5zM432 301q0 76 -38.5 117.5t-100.5 41.5q-56 2 -101 -38.5t-68 -103.5
t-22 -133q0 -73 38 -113.5t98 -40.5q55 -2 100.5 38t70 102.5t23.5 129.5z" />
    <glyph glyph-name="e" unicode="e" horiz-adv-x="529" 
d="M52 188q-1 77 29.5 149.5t89 120.5t130.5 46q82 0 130 -50.5t48 -130.5q0 -38 -12 -80h-362q-6 -31 -6 -59q0 -69 36 -111t100 -42q118 0 178 114l43 -23q-75 -135 -222 -135q-82 0 -132 51t-50 150zM114 285h312q4 20 4 42q0 60 -35 97.5t-96 37.5q-66 0 -115.5 -49.5
t-69.5 -127.5z" />
    <glyph glyph-name="f" unicode="f" horiz-adv-x="349" 
d="M90 0l96 450h-124l9 42h124l16 78q16 69 50 99.5t106 30.5h77l-9 -44h-72q-87 0 -104 -86l-17 -78h142l-9 -42h-142l-95 -450h-48z" />
    <glyph glyph-name="g" unicode="g" horiz-adv-x="552" 
d="M-33 -105q0 36 24.5 64.5t68.5 40.5l5 28q-17 6 -28.5 21t-11.5 34q0 70 93 105l6 28q-31 32 -31 97q0 77 55.5 134t137.5 57q57 0 97 -28t53 -74h26q13 90 85 90h41l-9 -42h-25q-36 0 -56 -16.5t-28 -68.5l-6 -43q-12 -84 -65.5 -130.5t-131.5 -46.5q-71 0 -118 35
q-35 -15 -56.5 -39.5t-21.5 -50.5q0 -21 15.5 -33.5t43.5 -12.5h203q61 0 96.5 -30t35.5 -77q0 -62 -43.5 -97t-119.5 -35h-220q-56 0 -85.5 25.5t-29.5 64.5zM418 340q0 52 -35.5 87.5t-93.5 35.5q-66 0 -107.5 -46.5t-41.5 -113.5q0 -54 33.5 -85t93.5 -31
q68 0 109.5 42.5t41.5 110.5zM100 -152h199q117 0 117 87q0 65 -97 65h-221q-35 -12 -60 -37t-25 -54q0 -61 87 -61z" />
    <glyph glyph-name="h" unicode="h" horiz-adv-x="576" 
d="M43 0l149 700h48l-43 -198q-14 -62 -50 -118h33q60 120 168 120q76 0 116 -43t40 -116q0 -28 -6 -61l-61 -284h-49l60 282q7 31 7 59q0 59 -30 89t-85 30q-41 0 -76 -20t-58.5 -52.5t-38.5 -68t-23 -74.5l-52 -245h-49z" />
    <glyph glyph-name="i" unicode="i" horiz-adv-x="240" 
d="M172 605l20 95h50l-20 -95h-50zM43 0l105 492h48l-104 -492h-49z" />
    <glyph glyph-name="j" unicode="j" horiz-adv-x="248" 
d="M179 605l20 95h52l-20 -95h-52zM-127 -195l9 45h57q81 0 99 87l118 555h48l-119 -560q-13 -65 -47 -96t-99 -31h-66z" />
    <glyph glyph-name="k" unicode="k" horiz-adv-x="543" 
d="M568 492l-272 -205l184 -287h-56l-165 258l-134 -100l-33 -158h-49l149 700h48l-75 -350q-18 -78 -54 -117l17 -22l369 281h71z" />
    <glyph glyph-name="l" unicode="l" horiz-adv-x="239" 
d="M43 0l149 700h48l-149 -700h-48z" />
    <glyph glyph-name="m" unicode="m" horiz-adv-x="892" 
d="M43 0l105 492h45q-12 -48 -39 -85h35q47 97 149 97q61 0 97 -32t38 -91h29q20 54 63.5 88.5t101.5 34.5q76 0 116 -40t40 -110q0 -28 -6 -56l-64 -298h-47l63 295q6 31 6 54q0 54 -30.5 82.5t-85.5 28.5q-86 0 -127 -62q-40 -61 -55 -133l-56 -265h-47l62 296q6 30 6 55
q0 54 -28.5 81.5t-81.5 27.5q-61 0 -101 -35q-62 -56 -90 -188l-50 -237h-48z" />
    <glyph glyph-name="n" unicode="n" horiz-adv-x="576" 
d="M43 0l105 492h47q-8 -34 -17 -52q-20 -37 -31 -56h33q60 120 168 120q76 0 116 -43t40 -116q0 -28 -6 -61l-61 -284h-49l60 282q7 31 7 59q0 59 -30 89t-85 30q-41 0 -76 -20t-58.5 -52.5t-38.5 -68t-23 -74.5l-52 -245h-49z" />
    <glyph glyph-name="o" unicode="o" horiz-adv-x="560" 
d="M53 201q-1 75 31 145t92.5 115t133.5 43q87 0 142 -57.5t55 -155.5q1 -77 -30.5 -147t-92 -114.5t-134.5 -42.5q-87 0 -142 57.5t-55 156.5zM457 288q0 82 -41.5 127t-107.5 45q-58 2 -106.5 -36.5t-74 -98t-24.5 -122.5q0 -81 42 -126.5t107 -45.5q58 -2 106.5 36.5
t74 98t24.5 122.5z" />
    <glyph glyph-name="p" unicode="p" horiz-adv-x="569" 
d="M1 -195l147 687h44q-8 -30 -17 -47q-6 -13 -29 -52h34q56 111 162 111q75 0 124.5 -52.5t49.5 -141.5q2 -129 -66 -227t-171 -96q-73 0 -110 42q-36 43 -45 102h-34q7 -47 7 -74q0 -35 -9 -72l-39 -180h-48zM467 306q0 73 -38 113.5t-98 40.5q-56 2 -101.5 -38
t-69.5 -102.5t-23 -130.5q0 -75 38.5 -116.5t100.5 -41.5q83 0 137 82t54 193z" />
    <glyph glyph-name="q" unicode="q" horiz-adv-x="569" 
d="M331 -195l38 179q11 51 54 114h-34q-58 -111 -163 -111q-74 0 -123.5 52.5t-49.5 142.5q-2 128 65.5 226.5t168.5 95.5q70 0 109 -39.5t50 -104.5h32q-5 42 -5 69q0 29 6 63h46l-146 -687h-48zM432 303q0 75 -38.5 116t-100.5 41q-84 2 -138.5 -82t-52.5 -192
q0 -73 38.5 -114t97.5 -41q83 -2 139.5 82t54.5 190z" />
    <glyph glyph-name="r" unicode="r" horiz-adv-x="389" 
d="M43 0l105 492h45q-12 -52 -52 -121h35q59 127 175 127q41 0 71 -9l-10 -50q-32 9 -71 9q-75 0 -126.5 -58.5t-73.5 -158.5l-49 -231h-49z" />
    <glyph glyph-name="s" unicode="s" horiz-adv-x="478" 
d="M26 129l46 13q2 -48 40 -79.5t105 -31.5q65 0 101 28t36 73q0 66 -90 92l-62 18q-58 16 -87 44.5t-29 75.5q0 62 49.5 102t124.5 40q76 0 123 -36.5t53 -92.5l-47 -13q-5 42 -38.5 71.5t-90.5 29.5q-58 0 -92 -27.5t-34 -67.5q0 -57 81 -80l61 -18q129 -39 129 -133
q0 -67 -50.5 -108.5t-137.5 -41.5q-86 0 -138.5 41t-52.5 101z" />
    <glyph glyph-name="t" unicode="t" horiz-adv-x="375" 
d="M111 102q0 20 6 46l64 302h-125l9 42h124l32 145h48l-31 -145h143l-9 -42h-143l-66 -310q-4 -17 -4 -33q0 -64 77 -64h88l-10 -43h-79q-124 0 -124 102z" />
    <glyph glyph-name="u" unicode="u" horiz-adv-x="567" 
d="M71 139q0 38 10 77l59 276h48l-60 -285q-7 -32 -7 -62q0 -114 108 -114q74 0 124 56.5t72 161.5l52 243h47l-104 -492h-42q11 54 48 111h-34q-15 -29 -33 -54q-51 -70 -139 -70q-72 0 -110.5 39.5t-38.5 112.5z" />
    <glyph glyph-name="v" unicode="v" horiz-adv-x="503" 
d="M171 0l-85 492h49l49 -297q13 -77 13 -122q0 -18 -3 -37h29q7 28 21 60q10 25 49 94l172 302h52l-284 -492h-62z" />
    <glyph glyph-name="w" unicode="w" horiz-adv-x="799" 
d="M150 0l-62 492h48l35 -299q5 -48 5 -86q0 -37 -5 -67h29q15 62 63 153l158 299h56l29 -299q5 -52 5 -84q0 -39 -5 -69h30q18 72 64 153l163 299h52l-271 -492h-60l-31 300q-4 40 -4 75q0 38 7 72h-30q-20 -74 -59 -147l-159 -300h-58z" />
    <glyph glyph-name="x" unicode="x" horiz-adv-x="461" 
d="M-25 0l229 256l-110 236h52l52 -116q24 -54 24 -86q0 -11 -1 -14h28q12 43 55 93l109 123h61l-213 -238l122 -254h-55l-64 137q-22 47 -22 81q0 8 1 15h-28q-17 -49 -58 -96l-121 -137h-61z" />
    <glyph glyph-name="y" unicode="y" horiz-adv-x="495" 
d="M457 492h53l-323 -571q-39 -68 -71 -91t-97 -25h-70l9 45h62q40 0 65.5 16t52.5 61l54 94l-110 471h52l67 -303q10 -47 10 -82q0 -18 -3 -39h31q13 59 47 121z" />
    <glyph glyph-name="z" unicode="z" horiz-adv-x="468" 
d="M-8 0l10 48l396 403l-19 21q-28 -24 -84 -24h-202l9 44h368l-10 -44l-398 -406l19 -21q25 22 90 22h217l-8 -43h-388z" />
    <glyph glyph-name="braceleft" unicode="{" horiz-adv-x="312" 
d="M68 -63q0 19 4 38l31 138q16 80 16 98q0 36 -21 52t-71 16l10 46q52 0 79 18q26 17 38 44.5t25 89.5l3 14l31 146q14 62 42 90t86 28h48l-9 -42h-42q-62 0 -78 -76l-33 -156q-20 -87 -43 -121t-85 -45l-6 -28q68 -13 68 -85q0 -27 -11 -80l-33 -154q-3 -15 -3 -30
q0 -46 50 -46h42l-10 -42h-37q-45 0 -68 22.5t-23 64.5z" />
    <glyph glyph-name="bar" unicode="|" horiz-adv-x="261" 
d="M33 -109l195 918h45l-195 -918h-45z" />
    <glyph glyph-name="braceright" unicode="}" horiz-adv-x="312" 
d="M269 668q0 -15 -5 -38l-30 -138q-16 -73 -16 -98q0 -36 20.5 -52t70.5 -16l-10 -46q-52 0 -80 -18q-25 -17 -37 -44.5t-25 -89.5l-3 -14l-31 -146q-13 -61 -41.5 -89.5t-86.5 -28.5h-47l9 42h41q33 0 51.5 18.5t27.5 57.5l33 156q20 87 42.5 121t84.5 45l7 28
q-68 12 -68 85q0 27 11 80l32 154q4 13 4 30q0 46 -50 46h-42l9 42h37q45 0 68.5 -22.5t23.5 -64.5z" />
    <glyph glyph-name="asciitilde" unicode="~" horiz-adv-x="640" 
d="M354 346l-30 13q-59 25 -89 25q-51 0 -102 -54l-29 37q58 67 135 67q37 0 100 -27l30 -13q57 -25 89 -25q51 0 102 54l29 -37q-60 -67 -135 -67q-37 0 -100 27z" />
    <glyph glyph-name="uni00A0" unicode="&#xa0;" horiz-adv-x="284" 
 />
    <glyph glyph-name="exclamdown" unicode="&#xa1;" horiz-adv-x="250" 
d="M225 538l-21 -98h-73l20 98h74zM158 344l-57 -327l-37 -179h-50l38 181l82 325h24z" />
    <glyph glyph-name="cent" unicode="&#xa2;" horiz-adv-x="527" 
d="M171 -120l24 113q-65 14 -102 65.5t-37 131.5q-2 120 70 217.5t177 96.5l22 103h43l-22 -107q57 -9 95.5 -48.5t46.5 -87.5l-48 -15q-18 92 -104 108l-64 -300q-19 -93 -49 -127l14 -19q135 26 184 148l43 -21q-73 -151 -228 -151l-22 -107h-43zM204 37l63 295
q19 94 49 126l-14 20q-91 -20 -144 -101.5t-53 -186.5q0 -61 26.5 -101t72.5 -52z" />
    <glyph glyph-name="sterling" unicode="&#xa3;" horiz-adv-x="574" 
d="M194 493q0 -52 29 -127h198l-9 -44h-173q12 -42 12 -81q0 -133 -142 -185l15 -30q50 21 126 21h237l-9 -47h-458l9 47q76 19 124 68.5t48 119.5q0 45 -16 87h-96l10 44h68q-26 67 -26 124q0 92 64.5 156.5t166.5 64.5q88 0 145.5 -51t57.5 -137l-50 -16
q-1 74 -43.5 116.5t-110.5 42.5q-80 0 -128.5 -50t-48.5 -123z" />
    <glyph glyph-name="currency" unicode="&#xa4;" horiz-adv-x="639" 
d="M92 102l-28 33l95 83q-26 43 -26 100q0 101 64 176l-67 81l32 29l68 -81q63 46 135 46q79 0 131 -49l95 83l28 -33l-95 -84q28 -46 28 -102q0 -100 -65 -173l66 -78l-33 -30l-66 79q-59 -47 -134 -47q-81 0 -133 50zM505 385q0 64 -38.5 101.5t-102.5 37.5
q-78 0 -131 -60.5t-53 -143.5q0 -64 38.5 -102t102.5 -38q78 0 131 60.5t53 144.5z" />
    <glyph glyph-name="yen" unicode="&#xa5;" horiz-adv-x="618" 
d="M676 700l-289 -343h138l-10 -44h-164l-22 -107h163l-9 -44h-164l-34 -162h-50l34 162h-174l9 44h174l23 107h-174l10 44h146l-153 343h56l108 -252q23 -50 23 -87q0 -11 -1 -18h30q12 53 58 108l207 249h65z" />
    <glyph glyph-name="brokenbar" unicode="&#xa6;" horiz-adv-x="261" 
d="M140 396l88 413h45l-87 -413h-46zM33 -109l88 415h46l-89 -415h-45z" />
    <glyph glyph-name="section" unicode="&#xa7;" horiz-adv-x="582" 
d="M33 -65l49 16q3 -44 39.5 -77.5t103.5 -33.5q65 0 106 36t41 91q0 73 -100 108l-93 33q-132 46 -132 147q0 62 43 103.5t118 55.5l6 28q-54 32 -54 91q0 77 56 128.5t143 51.5q84 0 135.5 -43.5t56.5 -98.5l-49 -15q-3 42 -41.5 76t-102.5 34t-105 -37t-41 -92
q0 -43 23 -63t89 -43l76 -26q71 -25 104 -60.5t33 -88.5q0 -64 -44 -108.5t-122 -57.5l-6 -28q60 -35 60 -99q0 -72 -56.5 -121t-142.5 -49q-87 0 -137.5 42.5t-55.5 99.5zM484 246q0 77 -103 110l-77 27q-33 11 -59 24q-64 -17 -104.5 -56.5t-40.5 -87.5q0 -38 24.5 -64
t77.5 -45l69 -25q42 -14 67 -27q66 15 106 54.5t40 89.5z" />
    <glyph glyph-name="dieresis" unicode="&#xa8;" horiz-adv-x="632" 
d="M163 600l16 80h59l-17 -80h-58zM336 600l16 80h58l-16 -80h-58z" />
    <glyph glyph-name="copyright" unicode="&#xa9;" horiz-adv-x="899" 
d="M90 352q-2 102 49 192t141 143t194 51q158 3 271 -113t110 -273q2 -158 -109.5 -272t-271.5 -111q-160 -3 -274 111.5t-110 271.5zM811 352q3 142 -96.5 245t-241.5 101q-142 2 -241.5 -101t-97.5 -245q-2 -142 97 -243.5t242 -99.5q144 -2 242 99t96 244zM293 358
q0 90 51 148.5t133 58.5q62 0 106 -34t58 -87l-38 -12q-15 45 -48.5 70.5t-78.5 25.5q-61 0 -100.5 -46t-39.5 -128q0 -80 38.5 -125.5t102.5 -45.5q49 0 82.5 31.5t46.5 77.5l41 -11q-18 -62 -62.5 -99t-108.5 -37q-85 0 -134 57t-49 156z" />
    <glyph glyph-name="ordfeminine" unicode="&#xaa;" horiz-adv-x="503" 
d="M109 459q0 100 56 175.5t141 75.5q55 0 89.5 -30.5t42.5 -78.5h23q-1 7 -1 28q0 31 9 71h44l-85 -401h-42q9 37 27 70l5 10h-25q-26 -46 -56.5 -68t-78.5 -22q-63 0 -106 45t-43 125zM432 546q0 57 -33.5 90t-84.5 33q-69 0 -113 -63t-44 -145q0 -62 32.5 -97t82.5 -35
q69 0 114.5 65.5t45.5 151.5z" />
    <glyph glyph-name="guillemotleft" unicode="&#xab;" horiz-adv-x="479" 
d="M281 449l-173 -202l82 -192h-50l-84 196l168 198h57zM471 449l-188 -220l74 -174h-50l-76 178l183 216h57z" />
    <glyph glyph-name="logicalnot" unicode="&#xac;" horiz-adv-x="726" 
d="M583 178v158h-482v47h531v-205h-49z" />
    <glyph glyph-name="uni00AD" unicode="&#xad;" horiz-adv-x="383" 
d="M86 282l11 52h223l-10 -52h-224z" />
    <glyph glyph-name="registered" unicode="&#xae;" horiz-adv-x="598" 
d="M113 503q0 101 68 168t169 67q102 0 170.5 -67t68.5 -168q0 -99 -70 -167.5t-169 -68.5t-168 68.5t-69 167.5zM549 503q0 87 -56.5 143t-142.5 56q-85 0 -141 -56t-56 -143t56 -143.5t141 -56.5q86 0 142.5 56.5t56.5 143.5zM270 392v228h102q32 0 52 -15.5t20 -41.5
q0 -21 -15 -34.5t-41 -15.5v-18q39 -1 46 -38l13 -65h-40l-11 60q-4 21 -13.5 30t-30.5 9h-46v-99h-36zM306 521h58q19 0 30.5 9.5t11.5 25.5q0 15 -11.5 24t-30.5 9h-58v-68z" />
    <glyph glyph-name="macron" unicode="&#xaf;" horiz-adv-x="361" 
d="M18 597l9 40h295l-9 -40h-295z" />
    <glyph glyph-name="degree" unicode="&#xb0;" horiz-adv-x="418" 
d="M130 608q0 63 44 107.5t108 44.5q66 0 109.5 -44t43.5 -108q0 -63 -44 -106.5t-110 -43.5q-64 0 -107.5 44t-43.5 106zM388 609q0 49 -29 79t-77 30q-46 0 -75.5 -30.5t-29.5 -78.5q0 -49 29.5 -79.5t75.5 -30.5q48 0 77 30t29 80z" />
    <glyph glyph-name="plusminus" unicode="&#xb1;" horiz-adv-x="730" 
d="M350 229v172h-247v47h247v176h48v-176h247v-47h-247v-172h-48zM104 83v48h540v-48h-540z" />
    <glyph glyph-name="twosuperior" unicode="&#xb2;" horiz-adv-x="356" 
d="M102 398l9 47q134 81 184 129.5t52 105.5q0 34 -21.5 56t-54.5 22q-39 0 -62.5 -27.5t-23.5 -74.5l-45 11q3 59 39.5 95t93.5 36q51 0 85 -33.5t34 -83.5q0 -60 -57 -122q-47 -48 -186 -120l12 -20q32 19 88 19h106l-8 -40h-245z" />
    <glyph glyph-name="threesuperior" unicode="&#xb3;" horiz-adv-x="361" 
d="M106 505q0 8 1 11l44 9v-12q0 -38 21.5 -60t58.5 -22q39 0 64 23t25 59q0 31 -21 50.5t-54 19.5h-37l10 38h36q42 0 66 20t24 55q0 27 -20 44.5t-51 17.5q-37 0 -59.5 -22t-24.5 -60l-44 12q4 50 40 80t89 30q49 0 82 -27t33 -68q0 -40 -26 -64.5t-66 -26.5l-4 -21
q32 -6 52 -29t20 -54q0 -50 -37.5 -83t-96.5 -33q-57 0 -91 30t-34 83z" />
    <glyph glyph-name="acute" unicode="&#xb4;" horiz-adv-x="347" 
d="M161 566l95 122h72l-128 -122h-39z" />
    <glyph glyph-name="mu" unicode="&#xb5;" horiz-adv-x="598" 
d="M100 -195v687h47v-305q0 -77 36.5 -117t100.5 -40q76 0 114.5 63t38.5 162v237h48v-492h-47q0 53 25 121h-31q-41 -134 -157 -134q-86 0 -128 55v-237h-47z" />
    <glyph glyph-name="paragraph" unicode="&#xb6;" horiz-adv-x="573" 
d="M334 700h276l-9 -42h-70l-181 -854h-45l181 854h-115l-182 -854h-45l109 519h-4q-69 0 -114 45.5t-45 119.5q0 89 67 150.5t177 61.5z" />
    <glyph glyph-name="periodcentered" unicode="&#xb7;" horiz-adv-x="234" 
d="M86 281l21 98h73l-21 -98h-73z" />
    <glyph glyph-name="cedilla" unicode="&#xb8;" horiz-adv-x="318" 
d="M29 -154l28 28q23 -36 68 -36q29 0 46.5 12t17.5 34q0 16 -13.5 26.5t-34.5 10.5q-23 0 -41 -7l-17 28l88 74l25 -16l-26 -22l-20 -16l-18 -15q11 3 22 3q33 0 54.5 -19t21.5 -47q0 -36 -28 -59.5t-77 -23.5q-63 0 -96 45z" />
    <glyph glyph-name="onesuperior" unicode="&#xb9;" horiz-adv-x="262" 
d="M170 398l53 248q11 52 36 89h-24q-43 -72 -115 -86l10 45q76 13 133 97h35l-83 -393h-45z" />
    <glyph glyph-name="ordmasculine" unicode="&#xba;" horiz-adv-x="479" 
d="M109 460q-1 98 56.5 175.5t147.5 74.5q73 0 116.5 -47t43.5 -129q0 -99 -56.5 -172t-147.5 -73q-75 0 -117.5 44.5t-42.5 126.5zM426 535q0 63 -30.5 98.5t-83.5 35.5q-69 0 -112.5 -63.5t-43.5 -146.5q0 -62 29.5 -95.5t83.5 -33.5q70 0 113.5 61t43.5 144z" />
    <glyph glyph-name="guillemotright" unicode="&#xbb;" horiz-adv-x="479" 
d="M175 449l76 -178l-183 -216h-57l188 220l-74 174h50zM342 449l84 -197l-168 -197h-56l172 202l-82 192h50z" />
    <glyph glyph-name="onequarter" unicode="&#xbc;" horiz-adv-x="754" 
d="M156 307l53 248q11 52 36 89h-24q-43 -72 -115 -86l10 45q76 13 133 97h35l-83 -393h-45zM37 0l633 700h60l-633 -700h-60zM590 0l23 110h-180l8 39l216 244h59l-51 -244h61l-9 -39h-61l-24 -110h-42zM621 149l25 114q8 35 36 66l-18 16l-176 -199l17 -16q25 19 55 19h61
z" />
    <glyph glyph-name="onehalf" unicode="&#xbd;" horiz-adv-x="774" 
d="M155 307l53 248q11 52 36 89h-24q-43 -72 -115 -86l10 45q76 13 133 97h35l-83 -393h-45zM36 0l633 700h60l-633 -700h-60zM437 0l9 47q134 81 184 129.5t52 105.5q0 34 -21.5 56t-54.5 22q-39 0 -62.5 -27.5t-23.5 -74.5l-45 11q3 59 39.5 95t93.5 36q51 0 85 -33.5
t34 -83.5q0 -60 -57 -122q-47 -48 -186 -120l12 -20q32 19 88 19h106l-8 -40h-245z" />
    <glyph glyph-name="threequarters" unicode="&#xbe;" horiz-adv-x="865" 
d="M87 414q0 8 1 11l44 9v-12q0 -38 21.5 -60t58.5 -22q39 0 64 23t25 59q0 31 -21 50.5t-54 19.5h-37l10 38h36q42 0 66 20t24 55q0 27 -20 44.5t-51 17.5q-37 0 -59.5 -22t-24.5 -60l-44 12q4 50 40 80t89 30q49 0 82 -27t33 -68q0 -40 -26 -64.5t-66 -26.5l-4 -21
q32 -6 52 -29t20 -54q0 -50 -37.5 -83t-96.5 -33q-57 0 -91 30t-34 83zM119 0l633 700h60l-633 -700h-60zM672 0l23 110h-180l8 39l216 244h59l-51 -244h61l-9 -39h-61l-24 -110h-42zM703 149l25 114q8 35 36 66l-18 16l-176 -199l17 -16q25 19 55 19h61z" />
    <glyph glyph-name="questiondown" unicode="&#xbf;" horiz-adv-x="459" 
d="M349 537l-21 -98h-73l21 98h73zM186 160q-49 -33 -83 -60q-62 -50 -62 -118q0 -49 34 -80t90 -31q72 0 113 45.5t43 127.5l48 -10q-1 -94 -58 -151t-147 -57q-76 0 -125 44t-49 109q0 48 21 84q20 36 54 65q28 24 95 70q50 37 62.5 57.5t28.5 87.5h51q-16 -77 -35 -107.5
t-81 -75.5z" />
    <glyph glyph-name="Agrave" unicode="&#xc0;" horiz-adv-x="660" 
d="M521 0l-34 217h-321l-125 -217h-60l411 700h70l113 -700h-54zM193 264h286l-45 296q-4 25 -4 51q0 29 4 54h-30q-18 -64 -44 -110zM423 780l-84 122h71l47 -122h-34z" />
    <glyph glyph-name="Aacute" unicode="&#xc1;" horiz-adv-x="660" 
d="M521 0l-34 217h-321l-125 -217h-60l411 700h70l113 -700h-54zM193 264h286l-45 296q-4 25 -4 51q0 29 4 54h-30q-18 -64 -44 -110zM419 780l105 122h78l-140 -122h-43z" />
    <glyph glyph-name="Acircumflex" unicode="&#xc2;" horiz-adv-x="660" 
d="M521 0l-34 217h-321l-125 -217h-60l411 700h70l113 -700h-54zM193 264h286l-45 296q-4 25 -4 51q0 29 4 54h-30q-18 -64 -44 -110zM286 780l140 117h80l86 -117h-51l-79 86l-120 -86h-56z" />
    <glyph glyph-name="Atilde" unicode="&#xc3;" horiz-adv-x="660" 
d="M521 0l-34 217h-321l-125 -217h-60l411 700h70l113 -700h-54zM193 264h286l-45 296q-4 25 -4 51q0 29 4 54h-30q-18 -64 -44 -110zM455 803l-27 21q-26 22 -50 22q-46 0 -60 -59h-49q23 99 110 99q39 0 71 -25l27 -21q32 -22 51 -22q46 0 60 57h49q-23 -98 -109 -98
q-36 0 -73 26z" />
    <glyph glyph-name="Adieresis" unicode="&#xc4;" horiz-adv-x="660" 
d="M521 0l-34 217h-321l-125 -217h-60l411 700h70l113 -700h-54zM193 264h286l-45 296q-4 25 -4 51q0 29 4 54h-30q-18 -64 -44 -110zM316 781l18 80h64l-18 -80h-64zM506 781l18 80h64l-19 -80h-63z" />
    <glyph glyph-name="Aring" unicode="&#xc5;" horiz-adv-x="660" 
d="M521 0l-34 217h-321l-125 -217h-60l411 700h70l113 -700h-54zM193 264h286l-45 296q-4 25 -4 51q0 29 4 54h-30q-18 -64 -44 -110zM352 859q0 48 33.5 82t82.5 34q40 0 67 -26.5t27 -63.5q0 -49 -33.5 -83t-80.5 -34q-42 0 -69 26t-27 65zM521 881q0 25 -15 41.5
t-41 16.5q-31 0 -51.5 -23.5t-20.5 -54.5q0 -25 15.5 -41.5t41.5 -16.5q30 0 50.5 24t20.5 54z" />
    <glyph glyph-name="AE" unicode="&#xc6;" horiz-adv-x="919" 
d="M957 653h-358l-56 -262h265l-10 -47h-265l-62 -297h357l-10 -47h-407l46 217h-269l-178 -217h-65l581 700h440zM565 665h-33q-15 -49 -70 -116l-235 -286h240l63 298q18 70 35 104z" />
    <glyph glyph-name="Ccedilla" unicode="&#xc7;" horiz-adv-x="732" 
d="M636 219l50 -24q-38 -82 -108 -140q-72 -60 -179 -67l-13 -10q-3 -3 -9.5 -8t-9.5 -8l-18 -15q9 3 22 3q33 0 54.5 -19t21.5 -47q0 -36 -28 -59.5t-78 -23.5q-63 0 -95 45l27 28q25 -36 68 -36q30 0 47.5 12t17.5 34q0 16 -13.5 26.5t-35.5 10.5t-40 -7l-18 28l55 46
q-125 4 -198 87t-73 210q-1 114 43 212t127.5 158t187.5 58q62 1 115.5 -19t88 -52t56 -67t28.5 -68l-53 -15q-17 68 -76.5 121t-159.5 53q-91 2 -162 -51.5t-107 -140t-34 -187.5q0 -112 64 -182.5t169 -70.5q184 0 266 185z" />
    <glyph glyph-name="Egrave" unicode="&#xc8;" horiz-adv-x="629" 
d="M64 0l148 700h464l-9 -47h-415l-56 -265h314l-10 -46h-313l-62 -295h413l-10 -47h-464zM444 780l-84 122h71l47 -122h-34z" />
    <glyph glyph-name="Eacute" unicode="&#xc9;" horiz-adv-x="629" 
d="M64 0l148 700h464l-9 -47h-415l-56 -265h314l-10 -46h-313l-62 -295h413l-10 -47h-464zM436 780l105 122h78l-140 -122h-43z" />
    <glyph glyph-name="Ecircumflex" unicode="&#xca;" horiz-adv-x="629" 
d="M64 0l148 700h464l-9 -47h-415l-56 -265h314l-10 -46h-313l-62 -295h413l-10 -47h-464zM306 780l140 117h80l86 -117h-51l-79 86l-120 -86h-56z" />
    <glyph glyph-name="Edieresis" unicode="&#xcb;" horiz-adv-x="629" 
d="M64 0l148 700h464l-9 -47h-415l-56 -265h314l-10 -46h-313l-62 -295h413l-10 -47h-464zM331 781l18 80h64l-18 -80h-64zM521 781l18 80h64l-19 -80h-63z" />
    <glyph glyph-name="Igrave" unicode="&#xcc;" horiz-adv-x="282" 
d="M64 0l148 700h51l-149 -700h-50zM237 780l-84 122h71l47 -122h-34z" />
    <glyph glyph-name="Iacute" unicode="&#xcd;" horiz-adv-x="282" 
d="M64 0l148 700h51l-149 -700h-50zM229 780l105 122h78l-140 -122h-43z" />
    <glyph glyph-name="Icircumflex" unicode="&#xce;" horiz-adv-x="282" 
d="M64 0l148 700h51l-149 -700h-50zM98 780l140 117h80l86 -117h-51l-79 86l-120 -86h-56z" />
    <glyph glyph-name="Idieresis" unicode="&#xcf;" horiz-adv-x="282" 
d="M64 0l148 700h51l-149 -700h-50zM125 781l18 80h64l-18 -80h-64zM315 781l18 80h64l-19 -80h-63z" />
    <glyph glyph-name="Eth" unicode="&#xd0;" horiz-adv-x="728" 
d="M691 395q1 -110 -47 -200t-140 -143.5t-211 -51.5h-225l71 334h-78l9 44h78l68 322h159q140 0 228 -83t88 -222zM640 392q0 122 -73 191.5t-205 69.5h-106l-58 -275h176l-9 -44h-177l-60 -287h160q161 -2 257.5 97.5t94.5 247.5z" />
    <glyph glyph-name="Ntilde" unicode="&#xd1;" horiz-adv-x="778" 
d="M64 0l148 700h77l281 -647l29 11q-7 27 -7 51q0 33 12 89l105 496h50l-148 -700h-71l-285 655l-28 -12q5 -27 5 -47q0 -37 -13 -96l-105 -500h-50zM511 803l-27 21q-26 22 -50 22q-46 0 -60 -59h-49q23 99 110 99q39 0 71 -25l27 -21q32 -22 51 -22q46 0 60 57h49
q-23 -98 -109 -98q-36 0 -73 26z" />
    <glyph glyph-name="Ograve" unicode="&#xd2;" horiz-adv-x="805" 
d="M83 299q-2 110 47 206t136 153t188 55q137 0 224.5 -86.5t87.5 -226.5q1 -110 -47.5 -205.5t-135 -152.5t-187.5 -55q-137 0 -225 86t-88 226zM714 401q0 114 -72 189.5t-187 75.5q-133 3 -228 -107.5t-92 -257.5q0 -116 71.5 -191.5t187.5 -75.5q87 -2 162 49t117 136
t41 182zM490 780l-84 122h71l47 -122h-34z" />
    <glyph glyph-name="Oacute" unicode="&#xd3;" horiz-adv-x="805" 
d="M83 299q-2 110 47 206t136 153t188 55q137 0 224.5 -86.5t87.5 -226.5q1 -110 -47.5 -205.5t-135 -152.5t-187.5 -55q-137 0 -225 86t-88 226zM714 401q0 114 -72 189.5t-187 75.5q-133 3 -228 -107.5t-92 -257.5q0 -116 71.5 -191.5t187.5 -75.5q87 -2 162 49t117 136
t41 182zM482 780l105 122h78l-140 -122h-43z" />
    <glyph glyph-name="Ocircumflex" unicode="&#xd4;" horiz-adv-x="805" 
d="M83 299q-2 110 47 206t136 153t188 55q137 0 224.5 -86.5t87.5 -226.5q1 -110 -47.5 -205.5t-135 -152.5t-187.5 -55q-137 0 -225 86t-88 226zM714 401q0 114 -72 189.5t-187 75.5q-133 3 -228 -107.5t-92 -257.5q0 -116 71.5 -191.5t187.5 -75.5q87 -2 162 49t117 136
t41 182zM350 780l140 117h80l86 -117h-51l-79 86l-120 -86h-56z" />
    <glyph glyph-name="Otilde" unicode="&#xd5;" horiz-adv-x="805" 
d="M83 299q-2 110 47 206t136 153t188 55q137 0 224.5 -86.5t87.5 -226.5q1 -110 -47.5 -205.5t-135 -152.5t-187.5 -55q-137 0 -225 86t-88 226zM714 401q0 114 -72 189.5t-187 75.5q-133 3 -228 -107.5t-92 -257.5q0 -116 71.5 -191.5t187.5 -75.5q87 -2 162 49t117 136
t41 182zM518 803l-27 21q-26 22 -50 22q-46 0 -60 -59h-49q23 99 110 99q39 0 71 -25l27 -21q32 -22 51 -22q46 0 60 57h49q-23 -98 -109 -98q-36 0 -73 26z" />
    <glyph glyph-name="Odieresis" unicode="&#xd6;" horiz-adv-x="805" 
d="M83 299q-2 110 47 206t136 153t188 55q137 0 224.5 -86.5t87.5 -226.5q1 -110 -47.5 -205.5t-135 -152.5t-187.5 -55q-137 0 -225 86t-88 226zM714 401q0 114 -72 189.5t-187 75.5q-133 3 -228 -107.5t-92 -257.5q0 -116 71.5 -191.5t187.5 -75.5q87 -2 162 49t117 136
t41 182zM378 781l18 80h64l-18 -80h-64zM568 781l18 80h64l-19 -80h-63z" />
    <glyph glyph-name="multiply" unicode="&#xd7;" horiz-adv-x="629" 
d="M142 131l-32 34l195 194l-196 195l34 34l196 -195l195 194l33 -33l-195 -194l195 -195l-33 -34l-196 195z" />
    <glyph glyph-name="Oslash" unicode="&#xd8;" horiz-adv-x="805" 
d="M90 -19l-33 33l89 89q-63 82 -63 196q-2 109 47.5 205.5t136.5 153.5t188 55q129 0 216 -79l90 92l32 -33l-91 -93q64 -81 64 -200q1 -110 -47.5 -205.5t-135 -152.5t-187.5 -55q-133 0 -220 81zM183 141l380 386q43 43 82 54l6 29q-72 56 -195 56q-88 2 -163 -49
t-116.5 -135.5t-40.5 -180.5q0 -93 47 -160zM714 401q0 93 -49 162l-385 -390q-44 -42 -82 -53l-7 -30q73 -56 201 -56q135 -3 230 107.5t92 259.5z" />
    <glyph glyph-name="Ugrave" unicode="&#xd9;" horiz-adv-x="681" 
d="M99 172q0 38 9 80l95 448h50l-93 -437q-10 -41 -10 -82q0 -146 148 -146q95 0 151 58t81 176l93 431h50l-95 -444q-28 -135 -96.5 -202t-183.5 -67q-96 0 -147.5 48t-51.5 137zM434 780l-84 122h71l47 -122h-34z" />
    <glyph glyph-name="Uacute" unicode="&#xda;" horiz-adv-x="681" 
d="M99 172q0 38 9 80l95 448h50l-93 -437q-10 -41 -10 -82q0 -146 148 -146q95 0 151 58t81 176l93 431h50l-95 -444q-28 -135 -96.5 -202t-183.5 -67q-96 0 -147.5 48t-51.5 137zM426 780l105 122h78l-140 -122h-43z" />
    <glyph glyph-name="Ucircumflex" unicode="&#xdb;" horiz-adv-x="681" 
d="M99 172q0 38 9 80l95 448h50l-93 -437q-10 -41 -10 -82q0 -146 148 -146q95 0 151 58t81 176l93 431h50l-95 -444q-28 -135 -96.5 -202t-183.5 -67q-96 0 -147.5 48t-51.5 137zM294 780l140 117h80l86 -117h-51l-79 86l-120 -86h-56z" />
    <glyph glyph-name="Udieresis" unicode="&#xdc;" horiz-adv-x="681" 
d="M99 172q0 38 9 80l95 448h50l-93 -437q-10 -41 -10 -82q0 -146 148 -146q95 0 151 58t81 176l93 431h50l-95 -444q-28 -135 -96.5 -202t-183.5 -67q-96 0 -147.5 48t-51.5 137zM322 781l18 80h64l-18 -80h-64zM512 781l18 80h64l-19 -80h-63z" />
    <glyph glyph-name="Yacute" unicode="&#xdd;" horiz-adv-x="635" 
d="M241 0l65 306l-163 394h56l106 -263q18 -45 18 -78q0 -7 -2 -25h30q11 50 54 104l215 262h64l-328 -394l-64 -306h-51zM403 780l105 122h78l-140 -122h-43z" />
    <glyph glyph-name="Thorn" unicode="&#xde;" horiz-adv-x="639" 
d="M611 390q0 -101 -71 -163.5t-185 -62.5h-206l-35 -164h-50l148 700h51l-29 -135h169q98 0 153 -49t55 -126zM560 390q0 54 -43 91.5t-116 37.5h-177l-65 -310h196q93 0 149 49.5t56 131.5z" />
    <glyph glyph-name="germandbls" unicode="&#xdf;" horiz-adv-x="580" 
d="M177 2l10 46q36 -13 81 -13q90 0 143 49.5t53 129.5q0 62 -43.5 99t-109.5 37h-29l9 46h25q72 0 123.5 45t51.5 111q0 54 -36 85.5t-90 31.5q-66 0 -107.5 -42.5t-56.5 -112.5l-109 -514h-49l110 517q20 94 76 145t140 51q74 0 123 -44.5t49 -110.5q0 -65 -42 -111.5
t-109 -58.5l-7 -31q58 -9 95 -48t37 -98q0 -98 -68.5 -159.5t-174.5 -61.5q-58 0 -95 12z" />
    <glyph glyph-name="agrave" unicode="&#xe0;" horiz-adv-x="531" 
d="M42 114q0 100 100.5 150.5t257.5 48.5l3 16q3 12 3 27q0 48 -32.5 76t-95.5 28q-61 0 -102 -27t-58 -69l-44 23q18 44 71 80.5t135 36.5q79 0 127 -38.5t48 -107.5q0 -20 -6 -46l-46 -215q-3 -10 -3 -20q0 -34 39 -34h44l-9 -43h-38q-69 0 -69 63q0 15 3 30h-27
q-56 -106 -167 -106q-63 0 -98.5 33t-35.5 94zM379 214l12 60q-81 0 -146.5 -15.5t-109.5 -52t-44 -89.5q0 -41 27 -64t72 -23q63 0 116.5 48t72.5 136zM290 566l-77 122h65l42 -122h-30z" />
    <glyph glyph-name="aacute" unicode="&#xe1;" horiz-adv-x="531" 
d="M42 114q0 100 100.5 150.5t257.5 48.5l3 16q3 12 3 27q0 48 -32.5 76t-95.5 28q-61 0 -102 -27t-58 -69l-44 23q18 44 71 80.5t135 36.5q79 0 127 -38.5t48 -107.5q0 -20 -6 -46l-46 -215q-3 -10 -3 -20q0 -34 39 -34h44l-9 -43h-38q-69 0 -69 63q0 15 3 30h-27
q-56 -106 -167 -106q-63 0 -98.5 33t-35.5 94zM379 214l12 60q-81 0 -146.5 -15.5t-109.5 -52t-44 -89.5q0 -41 27 -64t72 -23q63 0 116.5 48t72.5 136zM285 566l95 122h72l-128 -122h-39z" />
    <glyph glyph-name="acircumflex" unicode="&#xe2;" horiz-adv-x="531" 
d="M42 114q0 100 100.5 150.5t257.5 48.5l3 16q3 12 3 27q0 48 -32.5 76t-95.5 28q-61 0 -102 -27t-58 -69l-44 23q18 44 71 80.5t135 36.5q79 0 127 -38.5t48 -107.5q0 -20 -6 -46l-46 -215q-3 -10 -3 -20q0 -34 39 -34h44l-9 -43h-38q-69 0 -69 63q0 15 3 30h-27
q-56 -106 -167 -106q-63 0 -98.5 33t-35.5 94zM379 214l12 60q-81 0 -146.5 -15.5t-109.5 -52t-44 -89.5q0 -41 27 -64t72 -23q63 0 116.5 48t72.5 136zM162 566l128 117h73l78 -117h-47l-71 86l-110 -86h-51z" />
    <glyph glyph-name="atilde" unicode="&#xe3;" horiz-adv-x="531" 
d="M42 114q0 100 100.5 150.5t257.5 48.5l3 16q3 12 3 27q0 48 -32.5 76t-95.5 28q-61 0 -102 -27t-58 -69l-44 23q18 44 71 80.5t135 36.5q79 0 127 -38.5t48 -107.5q0 -20 -6 -46l-46 -215q-3 -10 -3 -20q0 -34 39 -34h44l-9 -43h-38q-69 0 -69 63q0 15 3 30h-27
q-56 -106 -167 -106q-63 0 -98.5 33t-35.5 94zM379 214l12 60q-81 0 -146.5 -15.5t-109.5 -52t-44 -89.5q0 -41 27 -64t72 -23q63 0 116.5 48t72.5 136zM311 600l-24 21q-23 22 -46 22q-41 0 -55 -60h-44q19 100 100 100q34 0 65 -25l25 -21q26 -22 45 -22q41 0 55 57h45
q-23 -98 -100 -98q-32 0 -66 26z" />
    <glyph glyph-name="adieresis" unicode="&#xe4;" horiz-adv-x="531" 
d="M42 114q0 100 100.5 150.5t257.5 48.5l3 16q3 12 3 27q0 48 -32.5 76t-95.5 28q-61 0 -102 -27t-58 -69l-44 23q18 44 71 80.5t135 36.5q79 0 127 -38.5t48 -107.5q0 -20 -6 -46l-46 -215q-3 -10 -3 -20q0 -34 39 -34h44l-9 -43h-38q-69 0 -69 63q0 15 3 30h-27
q-56 -106 -167 -106q-63 0 -98.5 33t-35.5 94zM379 214l12 60q-81 0 -146.5 -15.5t-109.5 -52t-44 -89.5q0 -41 27 -64t72 -23q63 0 116.5 48t72.5 136zM196 600l16 80h59l-17 -80h-58zM369 600l16 80h58l-16 -80h-58z" />
    <glyph glyph-name="aring" unicode="&#xe5;" horiz-adv-x="531" 
d="M42 114q0 100 100.5 150.5t257.5 48.5l3 16q3 12 3 27q0 48 -32.5 76t-95.5 28q-61 0 -102 -27t-58 -69l-44 23q18 44 71 80.5t135 36.5q79 0 127 -38.5t48 -107.5q0 -20 -6 -46l-46 -215q-3 -10 -3 -20q0 -34 39 -34h44l-9 -43h-38q-69 0 -69 63q0 15 3 30h-27
q-56 -106 -167 -106q-63 0 -98.5 33t-35.5 94zM379 214l12 60q-81 0 -146.5 -15.5t-109.5 -52t-44 -89.5q0 -41 27 -64t72 -23q63 0 116.5 48t72.5 136zM212 633q0 45 32 77.5t79 32.5q38 0 63.5 -25.5t25.5 -60.5q0 -47 -31.5 -79.5t-77.5 -32.5q-39 0 -65 25.5t-26 62.5z
M373 654q0 24 -14.5 39t-38.5 15q-30 0 -49.5 -22t-19.5 -51q0 -24 15 -39.5t39 -15.5q29 0 48.5 22.5t19.5 51.5z" />
    <glyph glyph-name="ae" unicode="&#xe6;" horiz-adv-x="858" 
d="M41 114q0 69 50.5 115t128 65t178.5 19l5 21q3 14 3 26q0 45 -32.5 72.5t-91.5 27.5q-115 0 -166 -96l-43 23q26 52 78.5 84.5t132.5 32.5q63 0 104 -30t49 -81h26q57 111 168 111q82 0 129.5 -50.5t47.5 -130.5q0 -41 -13 -80h-362q-7 -27 -7 -59q0 -68 36.5 -110.5
t100.5 -42.5q116 0 179 114l43 -23q-77 -135 -222 -135q-67 0 -114 37t-54 101h-28q-21 -59 -70.5 -98.5t-117.5 -39.5q-62 0 -100 34.5t-38 92.5zM441 284h313q4 20 4 42q0 62 -34.5 99t-95.5 37q-67 0 -116 -49t-71 -129zM377 213l13 61q-78 1 -142.5 -13t-111 -51
t-46.5 -93q0 -37 27.5 -62t70.5 -25q63 0 117.5 47t71.5 136z" />
    <glyph glyph-name="ccedilla" unicode="&#xe7;" horiz-adv-x="518" 
d="M414 162l45 -22q-63 -136 -188 -151l-14 -11q-3 -3 -9 -8t-10 -8l-18 -15q9 3 22 3q33 0 54.5 -19t21.5 -47q0 -36 -27.5 -59.5t-78.5 -23.5q-63 0 -95 45l28 28q23 -36 67 -36q30 0 47.5 12t17.5 34q0 16 -13.5 26.5t-34.5 10.5q-23 0 -41 -7l-18 28l55 46
q-79 5 -126 58t-47 144q-2 122 70 219.5t179 94.5q76 0 123.5 -40t60.5 -102l-48 -13q-10 48 -46 80t-91 32q-88 3 -144 -80.5t-54 -184.5q0 -81 38.5 -123t100.5 -42t106 38t67 93z" />
    <glyph glyph-name="egrave" unicode="&#xe8;" horiz-adv-x="529" 
d="M52 188q-1 77 29.5 149.5t89 120.5t130.5 46q82 0 130 -50.5t48 -130.5q0 -38 -12 -80h-362q-6 -31 -6 -59q0 -69 36 -111t100 -42q118 0 178 114l43 -23q-75 -135 -222 -135q-82 0 -132 51t-50 150zM114 285h312q4 20 4 42q0 60 -35 97.5t-96 37.5q-66 0 -115.5 -49.5
t-69.5 -127.5zM313 566l-77 122h65l42 -122h-30z" />
    <glyph glyph-name="eacute" unicode="&#xe9;" horiz-adv-x="529" 
d="M52 188q-1 77 29.5 149.5t89 120.5t130.5 46q82 0 130 -50.5t48 -130.5q0 -38 -12 -80h-362q-6 -31 -6 -59q0 -69 36 -111t100 -42q118 0 178 114l43 -23q-75 -135 -222 -135q-82 0 -132 51t-50 150zM114 285h312q4 20 4 42q0 60 -35 97.5t-96 37.5q-66 0 -115.5 -49.5
t-69.5 -127.5zM308 566l95 122h72l-128 -122h-39z" />
    <glyph glyph-name="ecircumflex" unicode="&#xea;" horiz-adv-x="529" 
d="M52 188q-1 77 29.5 149.5t89 120.5t130.5 46q82 0 130 -50.5t48 -130.5q0 -38 -12 -80h-362q-6 -31 -6 -59q0 -69 36 -111t100 -42q118 0 178 114l43 -23q-75 -135 -222 -135q-82 0 -132 51t-50 150zM114 285h312q4 20 4 42q0 60 -35 97.5t-96 37.5q-66 0 -115.5 -49.5
t-69.5 -127.5zM185 566l128 117h73l78 -117h-47l-71 86l-110 -86h-51z" />
    <glyph glyph-name="edieresis" unicode="&#xeb;" horiz-adv-x="529" 
d="M52 188q-1 77 29.5 149.5t89 120.5t130.5 46q82 0 130 -50.5t48 -130.5q0 -38 -12 -80h-362q-6 -31 -6 -59q0 -69 36 -111t100 -42q118 0 178 114l43 -23q-75 -135 -222 -135q-82 0 -132 51t-50 150zM114 285h312q4 20 4 42q0 60 -35 97.5t-96 37.5q-66 0 -115.5 -49.5
t-69.5 -127.5zM219 600l16 80h59l-17 -80h-58zM392 600l16 80h58l-16 -80h-58z" />
    <glyph glyph-name="igrave" unicode="&#xec;" horiz-adv-x="240" 
d="M43 0l105 492h48l-104 -492h-49zM174 566l-77 122h65l42 -122h-30z" />
    <glyph glyph-name="iacute" unicode="&#xed;" horiz-adv-x="240" 
d="M43 0l105 492h48l-104 -492h-49zM169 566l95 122h72l-128 -122h-39z" />
    <glyph glyph-name="icircumflex" unicode="&#xee;" horiz-adv-x="240" 
d="M43 0l105 492h48l-104 -492h-49zM46 566l128 117h73l78 -117h-47l-71 86l-110 -86h-51z" />
    <glyph glyph-name="idieresis" unicode="&#xef;" horiz-adv-x="240" 
d="M43 0l105 492h48l-104 -492h-49zM80 600l16 80h59l-17 -80h-58zM253 600l16 80h58l-16 -80h-58z" />
    <glyph glyph-name="eth" unicode="&#xf0;" horiz-adv-x="554" 
d="M536 686l-81 -66q46 -71 46 -186q0 -106 -28 -208q-29 -103 -88 -171q-60 -68 -152 -68q-87 0 -135.5 55t-48.5 141q-2 100 63.5 181.5t158.5 78.5q62 0 103.5 -39t47.5 -107h29q8 59 8 107q0 118 -42 185l-97 -78l-22 30l97 78q-49 51 -129 51q-52 0 -104 -20l9 46
q54 17 99 17q104 0 162 -64l81 66zM410 243q0 72 -38 114t-100 42q-75 0 -124 -65t-49 -150q0 -70 38 -111.5t97 -41.5q75 0 125.5 64.5t50.5 147.5z" />
    <glyph glyph-name="ntilde" unicode="&#xf1;" horiz-adv-x="576" 
d="M43 0l105 492h47q-8 -34 -17 -52q-20 -37 -31 -56h33q60 120 168 120q76 0 116 -43t40 -116q0 -28 -6 -61l-61 -284h-49l60 282q7 31 7 59q0 59 -30 89t-85 30q-41 0 -76 -20t-58.5 -52.5t-38.5 -68t-23 -74.5l-52 -245h-49zM366 600l-24 21q-23 22 -46 22q-42 0 -55 -60
h-44q19 100 100 100q34 0 65 -25l25 -21q26 -22 45 -22q42 0 55 57h45q-23 -98 -100 -98q-32 0 -66 26z" />
    <glyph glyph-name="ograve" unicode="&#xf2;" horiz-adv-x="560" 
d="M53 201q-1 75 31 145t92.5 115t133.5 43q87 0 142 -57.5t55 -155.5q1 -77 -30.5 -147t-92 -114.5t-134.5 -42.5q-87 0 -142 57.5t-55 156.5zM457 288q0 82 -41.5 127t-107.5 45q-58 2 -106.5 -36.5t-74 -98t-24.5 -122.5q0 -81 42 -126.5t107 -45.5q58 -2 106.5 36.5
t74 98t24.5 122.5zM328 566l-77 122h65l42 -122h-30z" />
    <glyph glyph-name="oacute" unicode="&#xf3;" horiz-adv-x="560" 
d="M53 201q-1 75 31 145t92.5 115t133.5 43q87 0 142 -57.5t55 -155.5q1 -77 -30.5 -147t-92 -114.5t-134.5 -42.5q-87 0 -142 57.5t-55 156.5zM457 288q0 82 -41.5 127t-107.5 45q-58 2 -106.5 -36.5t-74 -98t-24.5 -122.5q0 -81 42 -126.5t107 -45.5q58 -2 106.5 36.5
t74 98t24.5 122.5zM323 566l95 122h72l-128 -122h-39z" />
    <glyph glyph-name="ocircumflex" unicode="&#xf4;" horiz-adv-x="560" 
d="M53 201q-1 75 31 145t92.5 115t133.5 43q87 0 142 -57.5t55 -155.5q1 -77 -30.5 -147t-92 -114.5t-134.5 -42.5q-87 0 -142 57.5t-55 156.5zM457 288q0 82 -41.5 127t-107.5 45q-58 2 -106.5 -36.5t-74 -98t-24.5 -122.5q0 -81 42 -126.5t107 -45.5q58 -2 106.5 36.5
t74 98t24.5 122.5zM200 566l128 117h73l78 -117h-47l-71 86l-110 -86h-51z" />
    <glyph glyph-name="otilde" unicode="&#xf5;" horiz-adv-x="560" 
d="M53 201q-1 75 31 145t92.5 115t133.5 43q87 0 142 -57.5t55 -155.5q1 -77 -30.5 -147t-92 -114.5t-134.5 -42.5q-87 0 -142 57.5t-55 156.5zM457 288q0 82 -41.5 127t-107.5 45q-58 2 -106.5 -36.5t-74 -98t-24.5 -122.5q0 -81 42 -126.5t107 -45.5q58 -2 106.5 36.5
t74 98t24.5 122.5zM349 600l-24 21q-23 22 -46 22q-41 0 -55 -60h-44q19 100 100 100q34 0 65 -25l25 -21q26 -22 45 -22q41 0 55 57h45q-23 -98 -100 -98q-32 0 -66 26z" />
    <glyph glyph-name="odieresis" unicode="&#xf6;" horiz-adv-x="560" 
d="M53 201q-1 75 31 145t92.5 115t133.5 43q87 0 142 -57.5t55 -155.5q1 -77 -30.5 -147t-92 -114.5t-134.5 -42.5q-87 0 -142 57.5t-55 156.5zM457 288q0 82 -41.5 127t-107.5 45q-58 2 -106.5 -36.5t-74 -98t-24.5 -122.5q0 -81 42 -126.5t107 -45.5q58 -2 106.5 36.5
t74 98t24.5 122.5zM234 600l16 80h59l-17 -80h-58zM407 600l16 80h58l-16 -80h-58z" />
    <glyph glyph-name="divide" unicode="&#xf7;" horiz-adv-x="711" 
d="M340 506v104h78v-104h-78zM108 330v47h542v-47h-542zM340 97v104h78v-104h-78z" />
    <glyph glyph-name="oslash" unicode="&#xf8;" horiz-adv-x="560" 
d="M113 41l-59 -62l-28 29l62 63q-35 53 -35 130q-1 75 31 145t92.5 115t133.5 43q89 0 143 -60l56 56l28 -27l-59 -60q29 -60 29 -122q1 -77 -30.5 -147t-92 -114.5t-134.5 -42.5q-86 0 -137 54zM125 107l234 240q37 38 69 44l7 26q-51 44 -125 44q-88 2 -148.5 -77
t-58.5 -181q0 -56 22 -96zM458 288q0 50 -18 87l-231 -238q-39 -40 -71 -47l-6 -27q40 -33 116 -33q87 -2 149.5 78t60.5 180z" />
    <glyph glyph-name="ugrave" unicode="&#xf9;" horiz-adv-x="567" 
d="M71 139q0 38 10 77l59 276h48l-60 -285q-7 -32 -7 -62q0 -114 108 -114q74 0 124 56.5t72 161.5l52 243h47l-104 -492h-42q11 54 48 111h-34q-15 -29 -33 -54q-51 -70 -139 -70q-72 0 -110.5 39.5t-38.5 112.5zM332 566l-77 122h65l42 -122h-30z" />
    <glyph glyph-name="uacute" unicode="&#xfa;" horiz-adv-x="567" 
d="M71 139q0 38 10 77l59 276h48l-60 -285q-7 -32 -7 -62q0 -114 108 -114q74 0 124 56.5t72 161.5l52 243h47l-104 -492h-42q11 54 48 111h-34q-15 -29 -33 -54q-51 -70 -139 -70q-72 0 -110.5 39.5t-38.5 112.5zM324 566l95 122h72l-128 -122h-39z" />
    <glyph glyph-name="ucircumflex" unicode="&#xfb;" horiz-adv-x="567" 
d="M71 139q0 38 10 77l59 276h48l-60 -285q-7 -32 -7 -62q0 -114 108 -114q74 0 124 56.5t72 161.5l52 243h47l-104 -492h-42q11 54 48 111h-34q-15 -29 -33 -54q-51 -70 -139 -70q-72 0 -110.5 39.5t-38.5 112.5zM203 566l128 117h73l78 -117h-47l-71 86l-110 -86h-51z" />
    <glyph glyph-name="udieresis" unicode="&#xfc;" horiz-adv-x="567" 
d="M71 139q0 38 10 77l59 276h48l-60 -285q-7 -32 -7 -62q0 -114 108 -114q74 0 124 56.5t72 161.5l52 243h47l-104 -492h-42q11 54 48 111h-34q-15 -29 -33 -54q-51 -70 -139 -70q-72 0 -110.5 39.5t-38.5 112.5zM237 600l16 80h59l-17 -80h-58zM410 600l16 80h58l-16 -80
h-58z" />
    <glyph glyph-name="yacute" unicode="&#xfd;" horiz-adv-x="495" 
d="M457 492h53l-323 -571q-39 -68 -71 -91t-97 -25h-70l9 45h62q40 0 65.5 16t52.5 61l54 94l-110 471h52l67 -303q10 -47 10 -82q0 -18 -3 -39h31q13 59 47 121zM282 566l95 122h72l-128 -122h-39z" />
    <glyph glyph-name="thorn" unicode="&#xfe;" horiz-adv-x="569" 
d="M1 -195l192 895h48l-39 -184q-13 -52 -49 -110l-7 -13h34q54 111 162 111q75 0 124.5 -52.5t49.5 -141.5q2 -129 -66 -227t-171 -96q-73 0 -110 42q-36 43 -45 102h-35q2 -19 3 -23q4 -31 4 -55q0 -28 -8 -68l-39 -180h-48zM467 306q0 73 -38 113.5t-98 40.5
q-82 3 -138.5 -80.5t-55.5 -188.5q0 -76 38.5 -118t100.5 -42q83 0 137 82t54 193z" />
    <glyph glyph-name="ydieresis" unicode="&#xff;" horiz-adv-x="495" 
d="M457 492h53l-323 -571q-39 -68 -71 -91t-97 -25h-70l9 45h62q40 0 65.5 16t52.5 61l54 94l-110 471h52l67 -303q10 -47 10 -82q0 -18 -3 -39h31q13 59 47 121zM193 600l16 80h59l-17 -80h-58zM366 600l16 80h58l-16 -80h-58z" />
    <glyph glyph-name="Amacron" unicode="&#x100;" horiz-adv-x="660" 
d="M521 0l-34 217h-321l-125 -217h-60l411 700h70l113 -700h-54zM193 264h286l-45 296q-4 25 -4 51q0 29 4 54h-30q-18 -64 -44 -110zM290 808l9 40h325l-10 -40h-324z" />
    <glyph glyph-name="amacron" unicode="&#x101;" horiz-adv-x="531" 
d="M42 114q0 100 100.5 150.5t257.5 48.5l3 16q3 12 3 27q0 48 -32.5 76t-95.5 28q-61 0 -102 -27t-58 -69l-44 23q18 44 71 80.5t135 36.5q79 0 127 -38.5t48 -107.5q0 -20 -6 -46l-46 -215q-3 -10 -3 -20q0 -34 39 -34h44l-9 -43h-38q-69 0 -69 63q0 15 3 30h-27
q-56 -106 -167 -106q-63 0 -98.5 33t-35.5 94zM379 214l12 60q-81 0 -146.5 -15.5t-109.5 -52t-44 -89.5q0 -41 27 -64t72 -23q63 0 116.5 48t72.5 136zM164 597l9 40h295l-9 -40h-295z" />
    <glyph glyph-name="Abreve" unicode="&#x102;" horiz-adv-x="660" 
d="M521 0l-34 217h-321l-125 -217h-60l411 700h70l113 -700h-54zM193 264h286l-45 296q-4 25 -4 51q0 29 4 54h-30q-18 -64 -44 -110zM332 874q0 2 2 22h42l-1 -10q0 -72 78 -72q86 0 114 82h49q-16 -56 -58.5 -89t-104.5 -33q-58 0 -89.5 27t-31.5 73z" />
    <glyph glyph-name="abreve" unicode="&#x103;" horiz-adv-x="531" 
d="M42 114q0 100 100.5 150.5t257.5 48.5l3 16q3 12 3 27q0 48 -32.5 76t-95.5 28q-61 0 -102 -27t-58 -69l-44 23q18 44 71 80.5t135 36.5q79 0 127 -38.5t48 -107.5q0 -20 -6 -46l-46 -215q-3 -10 -3 -20q0 -34 39 -34h44l-9 -43h-38q-69 0 -69 63q0 15 3 30h-27
q-56 -106 -167 -106q-63 0 -98.5 33t-35.5 94zM379 214l12 60q-81 0 -146.5 -15.5t-109.5 -52t-44 -89.5q0 -41 27 -64t72 -23q63 0 116.5 48t72.5 136zM202 661q0 15 1 22h38v-10q0 -71 70 -71q78 0 104 81h44q-15 -56 -53 -89t-95 -33q-53 0 -81 27t-28 73z" />
    <glyph glyph-name="Aogonek" unicode="&#x104;" horiz-adv-x="660" 
d="M456 -118q0 -35 43 -35q21 0 45 8l-8 -42q-24 -8 -45 -8q-37 0 -57.5 18.5t-20.5 50.5q0 34 28 69.5t79 62.5l-33 211h-321l-125 -217h-60l411 700h70l113 -700q-107 -47 -118 -107q-1 -5 -1 -11zM193 264h286l-45 296q-4 25 -4 51q0 29 4 54h-30q-18 -64 -44 -110z" />
    <glyph glyph-name="aogonek" unicode="&#x105;" horiz-adv-x="531" 
d="M356 -107q-1 -5 -1 -11q0 -35 43 -35q20 0 46 8l-9 -42q-24 -8 -45 -8q-37 0 -57.5 18.5t-20.5 50.5q0 33 26.5 67t73.5 61q-45 10 -45 61q0 15 3 30h-27q-56 -106 -167 -106q-63 0 -98.5 33t-35.5 94q0 100 100.5 150.5t257.5 48.5l3 16q3 12 3 27q0 48 -32.5 76
t-95.5 28q-61 0 -102 -27t-58 -69l-44 23q18 44 71 80.5t135 36.5q79 0 127 -38.5t48 -107.5q0 -20 -6 -46l-46 -215q-3 -10 -3 -20q0 -34 39 -34h44l-9 -43q-107 -47 -118 -107zM379 214l12 60q-81 0 -146.5 -15.5t-109.5 -52t-44 -89.5q0 -41 27 -64t72 -23q63 0 116.5 48
t72.5 136z" />
    <glyph glyph-name="Cacute" unicode="&#x106;" horiz-adv-x="732" 
d="M83 285q-1 114 43 212t127.5 158t187.5 58q62 1 115.5 -19t88 -52t56 -67t28.5 -68l-53 -15q-17 68 -76.5 121t-159.5 53q-91 2 -162 -51.5t-107 -140t-34 -187.5q0 -112 64 -182.5t169 -70.5q184 0 266 185l50 -24q-40 -87 -118 -148q-76 -60 -199 -60
q-131 0 -208.5 83.5t-77.5 214.5zM469 780l105 122h78l-140 -122h-43z" />
    <glyph glyph-name="cacute" unicode="&#x107;" horiz-adv-x="518" 
d="M53 190q-1 79 29.5 151t89 118.5t129.5 44.5q76 0 124.5 -40t59.5 -102l-47 -13q-11 48 -47 80t-91 32q-59 2 -105.5 -39t-69.5 -101.5t-22 -124.5q0 -81 38 -123t101 -42q60 0 105 38t68 93l44 -22q-71 -153 -219 -153q-85 0 -136 54t-51 149zM310 566l95 122h72
l-128 -122h-39z" />
    <glyph glyph-name="Ccircumflex" unicode="&#x108;" horiz-adv-x="732" 
d="M83 285q-1 114 43 212t127.5 158t187.5 58q62 1 115.5 -19t88 -52t56 -67t28.5 -68l-53 -15q-17 68 -76.5 121t-159.5 53q-91 2 -162 -51.5t-107 -140t-34 -187.5q0 -112 64 -182.5t169 -70.5q184 0 266 185l50 -24q-40 -87 -118 -148q-76 -60 -199 -60
q-131 0 -208.5 83.5t-77.5 214.5zM337 780l140 117h80l86 -117h-51l-79 86l-120 -86h-56z" />
    <glyph glyph-name="ccircumflex" unicode="&#x109;" horiz-adv-x="518" 
d="M53 190q-1 79 29.5 151t89 118.5t129.5 44.5q76 0 124.5 -40t59.5 -102l-47 -13q-11 48 -47 80t-91 32q-59 2 -105.5 -39t-69.5 -101.5t-22 -124.5q0 -81 38 -123t101 -42q60 0 105 38t68 93l44 -22q-71 -153 -219 -153q-85 0 -136 54t-51 149zM187 566l128 117h73
l78 -117h-47l-71 86l-110 -86h-51z" />
    <glyph glyph-name="Cdotaccent" unicode="&#x10a;" horiz-adv-x="732" 
d="M83 285q-1 114 43 212t127.5 158t187.5 58q62 1 115.5 -19t88 -52t56 -67t28.5 -68l-53 -15q-17 68 -76.5 121t-159.5 53q-91 2 -162 -51.5t-107 -140t-34 -187.5q0 -112 64 -182.5t169 -70.5q184 0 266 185l50 -24q-40 -87 -118 -148q-76 -60 -199 -60
q-131 0 -208.5 83.5t-77.5 214.5zM470 780l20 95h50l-20 -95h-50z" />
    <glyph glyph-name="cdotaccent" unicode="&#x10b;" horiz-adv-x="518" 
d="M53 190q-1 79 29.5 151t89 118.5t129.5 44.5q76 0 124.5 -40t59.5 -102l-47 -13q-11 48 -47 80t-91 32q-59 2 -105.5 -39t-69.5 -101.5t-22 -124.5q0 -81 38 -123t101 -42q60 0 105 38t68 93l44 -22q-71 -153 -219 -153q-85 0 -136 54t-51 149zM313 605l20 95h50l-20 -95
h-50z" />
    <glyph glyph-name="Ccaron" unicode="&#x10c;" horiz-adv-x="732" 
d="M83 285q-1 114 43 212t127.5 158t187.5 58q62 1 115.5 -19t88 -52t56 -67t28.5 -68l-53 -15q-17 68 -76.5 121t-159.5 53q-91 2 -162 -51.5t-107 -140t-34 -187.5q0 -112 64 -182.5t169 -70.5q184 0 266 185l50 -24q-40 -87 -118 -148q-76 -60 -199 -60
q-131 0 -208.5 83.5t-77.5 214.5zM669 896l-140 -116h-80l-86 116h51l79 -85l120 85h56z" />
    <glyph glyph-name="ccaron" unicode="&#x10d;" horiz-adv-x="518" 
d="M53 190q-1 79 29.5 151t89 118.5t129.5 44.5q76 0 124.5 -40t59.5 -102l-47 -13q-11 48 -47 80t-91 32q-59 2 -105.5 -39t-69.5 -101.5t-22 -124.5q0 -81 38 -123t101 -42q60 0 105 38t68 93l44 -22q-71 -153 -219 -153q-85 0 -136 54t-51 149zM296 566l-79 117h46
l72 -86l109 86h52l-127 -117h-73z" />
    <glyph glyph-name="Dcaron" unicode="&#x10e;" horiz-adv-x="727" 
d="M64 0l148 700h159q140 0 228.5 -83t88.5 -222q2 -168 -109.5 -283t-288.5 -112h-226zM124 47h160q163 0 257.5 97.5t94.5 247.5q0 122 -73 191.5t-205 69.5h-106zM605 896l-140 -116h-80l-86 116h51l79 -85l120 85h56z" />
    <glyph glyph-name="dcaron" unicode="&#x10f;" horiz-adv-x="586" 
d="M53 181q-1 83 28 157t83.5 120.5t122.5 45.5q74 0 111 -43q38 -42 48 -102h32q-7 32 -7 63t11 88l40 190h48l-149 -700h-43q9 40 44 97h-33q-56 -110 -162 -110q-75 0 -124.5 52.5t-49.5 141.5zM432 301q0 76 -38.5 117.5t-100.5 41.5q-56 2 -101 -38.5t-68 -103.5
t-22 -133q0 -73 38 -113.5t98 -40.5q55 -2 100.5 38t70 102.5t23.5 129.5zM588 518l71 98h-30l17 83h64l-19 -84l-68 -97h-35z" />
    <glyph glyph-name="Dcroat" unicode="&#x110;" horiz-adv-x="748" 
d="M691 395q1 -110 -47 -200t-140 -143.5t-211 -51.5h-225l71 334h-78l9 44h78l68 322h159q140 0 228 -83t88 -222zM640 392q0 122 -73 191.5t-205 69.5h-106l-58 -275h176l-9 -44h-177l-60 -287h160q161 -2 257.5 97.5t94.5 247.5z" />
    <glyph glyph-name="dcroat" unicode="&#x111;" horiz-adv-x="568" 
d="M639 617l-7 -36h-88l-123 -581h-43q9 40 44 97h-33q-56 -110 -162 -110q-75 0 -124.5 52.5t-49.5 141.5q-1 83 28 157t83.5 120.5t122.5 45.5q74 0 111 -43q38 -42 48 -102h32q-7 32 -7 63t11 88l15 71h-181l8 36h181l17 83h48l-18 -83h87zM432 301q0 76 -38.5 117.5
t-100.5 41.5q-56 2 -101 -38.5t-68 -103.5t-22 -133q0 -73 38 -113.5t98 -40.5q55 -2 100.5 38t70 102.5t23.5 129.5z" />
    <glyph glyph-name="Emacron" unicode="&#x112;" horiz-adv-x="629" 
d="M64 0l148 700h464l-9 -47h-415l-56 -265h314l-10 -46h-313l-62 -295h413l-10 -47h-464zM304 808l9 40h325l-10 -40h-324z" />
    <glyph glyph-name="emacron" unicode="&#x113;" horiz-adv-x="529" 
d="M52 188q-1 77 29.5 149.5t89 120.5t130.5 46q82 0 130 -50.5t48 -130.5q0 -38 -12 -80h-362q-6 -31 -6 -59q0 -69 36 -111t100 -42q118 0 178 114l43 -23q-75 -135 -222 -135q-82 0 -132 51t-50 150zM114 285h312q4 20 4 42q0 60 -35 97.5t-96 37.5q-66 0 -115.5 -49.5
t-69.5 -127.5zM187 597l9 40h295l-9 -40h-295z" />
    <glyph glyph-name="Ebreve" unicode="&#x114;" horiz-adv-x="629" 
d="M64 0l148 700h464l-9 -47h-415l-56 -265h314l-10 -46h-313l-62 -295h413l-10 -47h-464zM352 874q0 2 2 22h42l-1 -10q0 -72 78 -72q86 0 114 82h49q-16 -56 -58.5 -89t-104.5 -33q-58 0 -89.5 27t-31.5 73z" />
    <glyph glyph-name="ebreve" unicode="&#x115;" horiz-adv-x="529" 
d="M52 188q-1 77 29.5 149.5t89 120.5t130.5 46q82 0 130 -50.5t48 -130.5q0 -38 -12 -80h-362q-6 -31 -6 -59q0 -69 36 -111t100 -42q118 0 178 114l43 -23q-75 -135 -222 -135q-82 0 -132 51t-50 150zM114 285h312q4 20 4 42q0 60 -35 97.5t-96 37.5q-66 0 -115.5 -49.5
t-69.5 -127.5zM225 661q0 15 1 22h38v-10q0 -71 70 -71q78 0 104 81h44q-15 -56 -53 -89t-95 -33q-53 0 -81 27t-28 73z" />
    <glyph glyph-name="Edotaccent" unicode="&#x116;" horiz-adv-x="629" 
d="M64 0l148 700h464l-9 -47h-415l-56 -265h314l-10 -46h-313l-62 -295h413l-10 -47h-464zM437 780l20 95h50l-20 -95h-50z" />
    <glyph glyph-name="edotaccent" unicode="&#x117;" horiz-adv-x="529" 
d="M52 188q-1 77 29.5 149.5t89 120.5t130.5 46q82 0 130 -50.5t48 -130.5q0 -38 -12 -80h-362q-6 -31 -6 -59q0 -69 36 -111t100 -42q118 0 178 114l43 -23q-75 -135 -222 -135q-82 0 -132 51t-50 150zM114 285h312q4 20 4 42q0 60 -35 97.5t-96 37.5q-66 0 -115.5 -49.5
t-69.5 -127.5zM311 605l20 95h50l-20 -95h-50z" />
    <glyph glyph-name="Eogonek" unicode="&#x118;" horiz-adv-x="629" 
d="M667 653h-415l-56 -265h314l-10 -46h-313l-62 -295h413l-10 -47q-106 -46 -117 -107q-1 -5 -1 -11q0 -35 43 -35q19 0 45 8l-9 -42q-24 -8 -45 -8q-37 0 -57.5 18.5t-20.5 50.5q0 68 96 126h-398l148 700h464z" />
    <glyph glyph-name="eogonek" unicode="&#x119;" horiz-adv-x="529" 
d="M301 504q82 0 130 -50.5t48 -130.5q0 -38 -12 -80h-362q-6 -31 -6 -59q0 -69 36 -111t100 -42q118 0 178 114l43 -23q-47 -86 -130 -120q-116 -46 -127 -109q-1 -5 -1 -11q0 -35 43 -35q20 0 46 8l-9 -42q-24 -8 -45 -8q-37 0 -57.5 18.5t-20.5 50.5q0 64 78 114
q-86 1 -133.5 53t-47.5 147q-1 77 29.5 149.5t89 120.5t130.5 46zM114 285h312q4 20 4 42q0 60 -35 97.5t-96 37.5q-66 0 -115.5 -49.5t-69.5 -127.5z" />
    <glyph glyph-name="Ecaron" unicode="&#x11a;" horiz-adv-x="629" 
d="M64 0l148 700h464l-9 -47h-415l-56 -265h314l-10 -46h-313l-62 -295h413l-10 -47h-464zM637 896l-140 -116h-80l-86 116h51l79 -85l120 85h56z" />
    <glyph glyph-name="ecaron" unicode="&#x11b;" horiz-adv-x="529" 
d="M52 188q-1 77 29.5 149.5t89 120.5t130.5 46q82 0 130 -50.5t48 -130.5q0 -38 -12 -80h-362q-6 -31 -6 -59q0 -69 36 -111t100 -42q118 0 178 114l43 -23q-75 -135 -222 -135q-82 0 -132 51t-50 150zM114 285h312q4 20 4 42q0 60 -35 97.5t-96 37.5q-66 0 -115.5 -49.5
t-69.5 -127.5zM294 566l-79 117h46l72 -86l109 86h52l-127 -117h-73z" />
    <glyph glyph-name="Gcircumflex" unicode="&#x11c;" horiz-adv-x="778" 
d="M83 294q-2 108 45.5 204.5t136 156.5t195.5 58q66 0 120.5 -19t89.5 -50.5t56.5 -66.5t29.5 -71l-54 -16q-19 72 -80.5 124t-163.5 52q-141 2 -233 -110t-90 -262q0 -117 65.5 -188.5t171.5 -71.5q110 0 187 69.5t105 179.5h-261l10 47h313l-70 -330h-49q11 54 23 88
q9 26 28 63h-33q-78 -164 -260 -164q-126 0 -204 84.5t-78 222.5zM350 780l140 117h80l86 -117h-51l-79 86l-120 -86h-56z" />
    <glyph glyph-name="gcircumflex" unicode="&#x11d;" horiz-adv-x="568" 
d="M-33 -105q0 36 24.5 64.5t68.5 40.5l5 28q-17 6 -28.5 21t-11.5 34q0 70 93 105l6 28q-31 32 -31 97q0 77 55.5 134t137.5 57q57 0 97 -28t53 -74h26q13 90 85 90h41l-9 -42h-25q-36 0 -56 -16.5t-28 -68.5l-6 -43q-12 -84 -65.5 -130.5t-131.5 -46.5q-71 0 -118 35
q-35 -15 -56.5 -39.5t-21.5 -50.5q0 -21 15.5 -33.5t43.5 -12.5h203q61 0 96.5 -30t35.5 -77q0 -62 -43.5 -97t-119.5 -35h-220q-56 0 -85.5 25.5t-29.5 64.5zM418 340q0 52 -35.5 87.5t-93.5 35.5q-66 0 -107.5 -46.5t-41.5 -113.5q0 -54 33.5 -85t93.5 -31
q68 0 109.5 42.5t41.5 110.5zM100 -152h199q117 0 117 87q0 65 -97 65h-221q-35 -12 -60 -37t-25 -54q0 -61 87 -61zM190 566l128 117h73l78 -117h-47l-71 86l-110 -86h-51z" />
    <glyph glyph-name="Gbreve" unicode="&#x11e;" horiz-adv-x="778" 
d="M83 294q-2 108 45.5 204.5t136 156.5t195.5 58q66 0 120.5 -19t89.5 -50.5t56.5 -66.5t29.5 -71l-54 -16q-19 72 -80.5 124t-163.5 52q-141 2 -233 -110t-90 -262q0 -117 65.5 -188.5t171.5 -71.5q110 0 187 69.5t105 179.5h-261l10 47h313l-70 -330h-49q11 54 23 88
q9 26 28 63h-33q-78 -164 -260 -164q-126 0 -204 84.5t-78 222.5zM398 874q0 2 2 22h42l-1 -10q0 -72 78 -72q86 0 114 82h49q-16 -56 -58.5 -89t-104.5 -33q-58 0 -89.5 27t-31.5 73z" />
    <glyph glyph-name="gbreve" unicode="&#x11f;" horiz-adv-x="568" 
d="M-33 -105q0 36 24.5 64.5t68.5 40.5l5 28q-17 6 -28.5 21t-11.5 34q0 70 93 105l6 28q-31 32 -31 97q0 77 55.5 134t137.5 57q57 0 97 -28t53 -74h26q13 90 85 90h41l-9 -42h-25q-36 0 -56 -16.5t-28 -68.5l-6 -43q-12 -84 -65.5 -130.5t-131.5 -46.5q-71 0 -118 35
q-35 -15 -56.5 -39.5t-21.5 -50.5q0 -21 15.5 -33.5t43.5 -12.5h203q61 0 96.5 -30t35.5 -77q0 -62 -43.5 -97t-119.5 -35h-220q-56 0 -85.5 25.5t-29.5 64.5zM418 340q0 52 -35.5 87.5t-93.5 35.5q-66 0 -107.5 -46.5t-41.5 -113.5q0 -54 33.5 -85t93.5 -31
q68 0 109.5 42.5t41.5 110.5zM100 -152h199q117 0 117 87q0 65 -97 65h-221q-35 -12 -60 -37t-25 -54q0 -61 87 -61zM225 661q0 15 1 22h38v-10q0 -71 70 -71q78 0 104 81h44q-15 -56 -53 -89t-95 -33q-53 0 -81 27t-28 73z" />
    <glyph glyph-name="Gdotaccent" unicode="&#x120;" horiz-adv-x="778" 
d="M83 294q-2 108 45.5 204.5t136 156.5t195.5 58q66 0 120.5 -19t89.5 -50.5t56.5 -66.5t29.5 -71l-54 -16q-19 72 -80.5 124t-163.5 52q-141 2 -233 -110t-90 -262q0 -117 65.5 -188.5t171.5 -71.5q110 0 187 69.5t105 179.5h-261l10 47h313l-70 -330h-49q11 54 23 88
q9 26 28 63h-33q-78 -164 -260 -164q-126 0 -204 84.5t-78 222.5zM482 780l20 95h50l-20 -95h-50z" />
    <glyph glyph-name="gdotaccent" unicode="&#x121;" horiz-adv-x="568" 
d="M-33 -105q0 36 24.5 64.5t68.5 40.5l5 28q-17 6 -28.5 21t-11.5 34q0 70 93 105l6 28q-31 32 -31 97q0 77 55.5 134t137.5 57q57 0 97 -28t53 -74h26q13 90 85 90h41l-9 -42h-25q-36 0 -56 -16.5t-28 -68.5l-6 -43q-12 -84 -65.5 -130.5t-131.5 -46.5q-71 0 -118 35
q-35 -15 -56.5 -39.5t-21.5 -50.5q0 -21 15.5 -33.5t43.5 -12.5h203q61 0 96.5 -30t35.5 -77q0 -62 -43.5 -97t-119.5 -35h-220q-56 0 -85.5 25.5t-29.5 64.5zM418 340q0 52 -35.5 87.5t-93.5 35.5q-66 0 -107.5 -46.5t-41.5 -113.5q0 -54 33.5 -85t93.5 -31
q68 0 109.5 42.5t41.5 110.5zM100 -152h199q117 0 117 87q0 65 -97 65h-221q-35 -12 -60 -37t-25 -54q0 -61 87 -61zM315 605l20 95h50l-20 -95h-50z" />
    <glyph glyph-name="uni0122" unicode="&#x122;" horiz-adv-x="778" 
d="M83 294q-2 108 45.5 204.5t136 156.5t195.5 58q66 0 120.5 -19t89.5 -50.5t56.5 -66.5t29.5 -71l-54 -16q-19 72 -80.5 124t-163.5 52q-141 2 -233 -110t-90 -262q0 -117 65.5 -188.5t171.5 -71.5q110 0 187 69.5t105 179.5h-261l10 47h313l-70 -330h-49q11 54 23 88
q9 26 28 63h-33q-78 -164 -260 -164q-126 0 -204 84.5t-78 222.5zM263 -282l71 98h-30l17 83h64l-19 -84l-68 -97h-35z" />
    <glyph glyph-name="uni0123" unicode="&#x123;" horiz-adv-x="568" 
d="M-33 -105q0 36 24.5 64.5t68.5 40.5l5 28q-17 6 -28.5 21t-11.5 34q0 70 93 105l6 28q-31 32 -31 97q0 77 55.5 134t137.5 57q57 0 97 -28t53 -74h26q13 90 85 90h41l-9 -42h-25q-36 0 -56 -16.5t-28 -68.5l-6 -43q-12 -84 -65.5 -130.5t-131.5 -46.5q-71 0 -118 35
q-35 -15 -56.5 -39.5t-21.5 -50.5q0 -21 15.5 -33.5t43.5 -12.5h203q61 0 96.5 -30t35.5 -77q0 -62 -43.5 -97t-119.5 -35h-220q-56 0 -85.5 25.5t-29.5 64.5zM418 340q0 52 -35.5 87.5t-93.5 35.5q-66 0 -107.5 -46.5t-41.5 -113.5q0 -54 33.5 -85t93.5 -31
q68 0 109.5 42.5t41.5 110.5zM100 -152h199q117 0 117 87q0 65 -97 65h-221q-35 -12 -60 -37t-25 -54q0 -61 87 -61zM423 787l-71 -99h30l-17 -83h-64l19 84l68 98h35z" />
    <glyph glyph-name="Hcircumflex" unicode="&#x124;" horiz-adv-x="766" 
d="M64 0l148 700h50l-66 -312h435l67 312h50l-149 -700h-50l72 341h-435l-72 -341h-50zM341 780l140 117h80l86 -117h-51l-79 86l-120 -86h-56z" />
    <glyph glyph-name="hcircumflex" unicode="&#x125;" horiz-adv-x="576" 
d="M43 0l149 700h48l-43 -198q-14 -62 -50 -118h33q60 120 168 120q76 0 116 -43t40 -116q0 -28 -6 -61l-61 -284h-49l60 282q7 31 7 59q0 59 -30 89t-85 30q-41 0 -76 -20t-58.5 -52.5t-38.5 -68t-23 -74.5l-52 -245h-49zM260 774l128 117h73l78 -117h-47l-71 86l-110 -86
h-51z" />
    <glyph glyph-name="Hbar" unicode="&#x126;" horiz-adv-x="772" 
d="M808 596l-10 -42h-79l-117 -554h-50l72 341h-436l-72 -341h-50l118 554h-79l10 42h78l22 104h50l-23 -104h436l22 104h50l-22 -104h80zM634 388l35 166h-436l-35 -166h436z" />
    <glyph glyph-name="hbar" unicode="&#x127;" horiz-adv-x="576" 
d="M504 345q0 -28 -6 -61l-61 -284h-49l60 282q7 31 7 59q0 59 -30 89t-85 30q-41 0 -76 -20t-58.5 -52.5t-38.5 -68t-23 -74.5l-52 -245h-49l124 581h-84l7 36h85l17 83h48l-18 -83h184l-8 -36h-184l-17 -79q-14 -62 -50 -118h33q60 120 168 120q76 0 116 -43t40 -116z" />
    <glyph glyph-name="Itilde" unicode="&#x128;" horiz-adv-x="282" 
d="M64 0l148 700h51l-149 -700h-50zM265 803l-27 21q-26 22 -50 22q-46 0 -60 -59h-49q23 99 110 99q39 0 71 -25l27 -21q32 -22 51 -22q46 0 60 57h49q-23 -98 -109 -98q-36 0 -73 26z" />
    <glyph glyph-name="itilde" unicode="&#x129;" horiz-adv-x="240" 
d="M43 0l105 492h48l-104 -492h-49zM195 600l-24 21q-23 22 -46 22q-41 0 -55 -60h-44q19 100 100 100q34 0 65 -25l25 -21q26 -22 45 -22q41 0 55 57h45q-23 -98 -100 -98q-32 0 -66 26z" />
    <glyph glyph-name="Imacron" unicode="&#x12a;" horiz-adv-x="282" 
d="M64 0l148 700h51l-149 -700h-50zM101 808l9 40h325l-10 -40h-324z" />
    <glyph glyph-name="imacron" unicode="&#x12b;" horiz-adv-x="240" 
d="M43 0l105 492h48l-104 -492h-49zM48 597l9 40h295l-9 -40h-295z" />
    <glyph glyph-name="Ibreve" unicode="&#x12c;" horiz-adv-x="282" 
d="M64 0l148 700h51l-149 -700h-50zM146 874q0 2 2 22h42l-1 -10q0 -72 78 -72q86 0 114 82h49q-16 -56 -58.5 -89t-104.5 -33q-58 0 -89.5 27t-31.5 73z" />
    <glyph glyph-name="ibreve" unicode="&#x12d;" horiz-adv-x="240" 
d="M43 0l105 492h48l-104 -492h-49zM86 661q0 15 1 22h38v-10q0 -71 70 -71q78 0 104 81h44q-15 -56 -53 -89t-95 -33q-53 0 -81 27t-28 73z" />
    <glyph glyph-name="Iogonek" unicode="&#x12e;" horiz-adv-x="282" 
d="M-2 -107q-1 -5 -1 -11q0 -35 43 -35q19 0 45 8l-9 -42q-24 -8 -45 -8q-37 0 -57.5 18.5t-20.5 50.5q0 35 30 71t83 65l147 690h50l-148 -700q-109 -47 -117 -107z" />
    <glyph glyph-name="iogonek" unicode="&#x12f;" horiz-adv-x="240" 
d="M192 700h51l-21 -95h-50zM149 492h48l-104 -492h1q-107 -47 -118 -107q-1 -5 -1 -11q0 -35 43 -35q21 0 45 8l-8 -42q-24 -8 -45 -8q-37 0 -57.5 18.5t-20.5 50.5q0 36 30.5 72t84.5 65z" />
    <glyph glyph-name="Idotaccent" unicode="&#x130;" horiz-adv-x="282" 
d="M64 0l148 700h51l-149 -700h-50zM230 780l20 95h50l-20 -95h-50z" />
    <glyph glyph-name="dotlessi" unicode="&#x131;" horiz-adv-x="240" 
d="M43 0l105 492h48l-104 -492h-49z" />
    <glyph glyph-name="IJ" unicode="&#x132;" horiz-adv-x="755" 
d="M64 0l148 700h51l-149 -700h-50zM289 129q0 37 12 79l53 7q-15 -46 -15 -83q0 -48 25.5 -73.5t68.5 -25.5q61 0 98 42.5t56 126.5l106 498h50l-110 -515q-21 -99 -68.5 -148.5t-129.5 -49.5q-67 0 -106.5 38t-39.5 104z" />
    <glyph glyph-name="ij" unicode="&#x133;" horiz-adv-x="487" 
d="M172 605l20 95h50l-20 -95h-50zM43 0l105 492h48l-104 -492h-49zM419 605l20 95h52l-20 -95h-52zM113 -195l9 45h57q81 0 99 87l118 555h48l-119 -560q-13 -65 -47 -96t-99 -31h-66z" />
    <glyph glyph-name="Jcircumflex" unicode="&#x134;" horiz-adv-x="478" 
d="M13 129q0 37 12 79l53 7q-15 -46 -15 -83q0 -48 25.5 -73.5t68.5 -25.5q61 0 98 42.5t56 126.5l106 498h50l-110 -515q-21 -99 -68.5 -148.5t-129.5 -49.5q-67 0 -106.5 38t-39.5 104zM302 780l140 117h80l86 -117h-51l-79 86l-120 -86h-56z" />
    <glyph glyph-name="jcircumflex" unicode="&#x135;" horiz-adv-x="247" 
d="M-128 -195l9 45h61q78 0 96 88l118 554h48l-120 -559q-28 -128 -141 -128h-71zM53 566l128 117h73l78 -117h-47l-71 86l-110 -86h-51z" />
    <glyph glyph-name="uni0136" unicode="&#x136;" horiz-adv-x="659" 
d="M703 700l-345 -299l252 -401h-61l-229 369l-157 -137l-49 -232h-50l148 700h50l-54 -253q-17 -88 -55 -127l19 -21l457 401h74zM221 -282l71 98h-30l17 83h64l-19 -84l-68 -97h-35z" />
    <glyph glyph-name="uni0137" unicode="&#x137;" horiz-adv-x="543" 
d="M568 492l-272 -205l184 -287h-56l-165 258l-134 -100l-33 -158h-49l149 700h48l-75 -350q-18 -78 -54 -117l17 -22l369 281h71zM148 -282l71 98h-30l17 83h64l-19 -84l-68 -97h-35z" />
    <glyph glyph-name="Lacute" unicode="&#x139;" horiz-adv-x="560" 
d="M64 0l148 700h51l-138 -652h379l-11 -48h-429zM230 780l105 122h78l-140 -122h-43z" />
    <glyph glyph-name="lacute" unicode="&#x13a;" horiz-adv-x="239" 
d="M43 0l149 700h48l-149 -700h-48zM211 774l95 122h72l-128 -122h-39z" />
    <glyph glyph-name="uni013B" unicode="&#x13b;" horiz-adv-x="560" 
d="M64 0l148 700h51l-138 -652h379l-11 -48h-429zM165 -282l71 98h-30l17 83h64l-19 -84l-68 -97h-35z" />
    <glyph glyph-name="uni013C" unicode="&#x13c;" horiz-adv-x="239" 
d="M43 0l149 700h48l-149 -700h-48zM-43 -282l71 98h-30l17 83h64l-19 -84l-68 -97h-35z" />
    <glyph glyph-name="Lcaron" unicode="&#x13d;" horiz-adv-x="561" 
d="M64 0l148 700h51l-138 -652h379l-11 -48h-429zM363 500l77 108h-33l20 92h69l-20 -93l-76 -107h-37z" />
    <glyph glyph-name="lcaron" unicode="&#x13e;" horiz-adv-x="257" 
d="M43 0l149 700h48l-149 -700h-48zM257 518l71 98h-30l17 83h64l-19 -84l-68 -97h-35z" />
    <glyph glyph-name="Ldot" unicode="&#x13f;" horiz-adv-x="562" 
d="M64 0l148 700h51l-138 -652h379l-11 -48h-429zM385 314l21 98h73l-21 -98h-73z" />
    <glyph glyph-name="ldot" unicode="&#x140;" horiz-adv-x="353" 
d="M43 0l149 700h48l-149 -700h-48zM265 291l21 98h73l-21 -98h-73z" />
    <glyph glyph-name="Lslash" unicode="&#x141;" horiz-adv-x="594" 
d="M139 48h380l-11 -48h-429l54 255l-91 -52l12 56l91 53l82 388h50l-75 -355l273 157l-12 -56l-273 -157z" />
    <glyph glyph-name="lslash" unicode="&#x142;" horiz-adv-x="282" 
d="M292 485l-12 -56l-92 -62l-78 -367h-48l70 330l-80 -55l12 57l80 53l66 315h48l-58 -277z" />
    <glyph glyph-name="Nacute" unicode="&#x143;" horiz-adv-x="778" 
d="M64 0l148 700h77l281 -647l29 11q-7 27 -7 51q0 33 12 89l105 496h50l-148 -700h-71l-285 655l-28 -12q5 -27 5 -47q0 -37 -13 -96l-105 -500h-50zM475 780l105 122h78l-140 -122h-43z" />
    <glyph glyph-name="nacute" unicode="&#x144;" horiz-adv-x="576" 
d="M43 0l105 492h47q-8 -34 -17 -52q-20 -37 -31 -56h33q60 120 168 120q76 0 116 -43t40 -116q0 -28 -6 -61l-61 -284h-49l60 282q7 31 7 59q0 59 -30 89t-85 30q-41 0 -76 -20t-58.5 -52.5t-38.5 -68t-23 -74.5l-52 -245h-49zM340 566l95 122h72l-128 -122h-39z" />
    <glyph glyph-name="uni0145" unicode="&#x145;" horiz-adv-x="778" 
d="M64 0l148 700h77l281 -647l29 11q-7 27 -7 51q0 33 12 89l105 496h50l-148 -700h-71l-285 655l-28 -12q5 -27 5 -47q0 -37 -13 -96l-105 -500h-50zM227 -282l71 98h-30l17 83h64l-19 -84l-68 -97h-35z" />
    <glyph glyph-name="uni0146" unicode="&#x146;" horiz-adv-x="576" 
d="M43 0l105 492h47q-8 -34 -17 -52q-20 -37 -31 -56h33q60 120 168 120q76 0 116 -43t40 -116q0 -28 -6 -61l-61 -284h-49l60 282q7 31 7 59q0 59 -30 89t-85 30q-41 0 -76 -20t-58.5 -52.5t-38.5 -68t-23 -74.5l-52 -245h-49zM137 -282l71 98h-30l17 83h64l-19 -84
l-68 -97h-35z" />
    <glyph glyph-name="Ncaron" unicode="&#x147;" horiz-adv-x="778" 
d="M64 0l148 700h77l281 -647l29 11q-7 27 -7 51q0 33 12 89l105 496h50l-148 -700h-71l-285 655l-28 -12q5 -27 5 -47q0 -37 -13 -96l-105 -500h-50zM675 896l-140 -116h-80l-86 116h51l79 -85l120 85h56z" />
    <glyph glyph-name="ncaron" unicode="&#x148;" horiz-adv-x="576" 
d="M43 0l105 492h47q-8 -34 -17 -52q-20 -37 -31 -56h33q60 120 168 120q76 0 116 -43t40 -116q0 -28 -6 -61l-61 -284h-49l60 282q7 31 7 59q0 59 -30 89t-85 30q-41 0 -76 -20t-58.5 -52.5t-38.5 -68t-23 -74.5l-52 -245h-49zM327 566l-79 117h46l72 -86l109 86h52
l-127 -117h-73z" />
    <glyph glyph-name="Eng" unicode="&#x14a;" horiz-adv-x="778" 
d="M399 -196l10 47h39q40 0 66 24.5t36 69.5l12 55l-296 631l-11 24l-28 -12q5 -27 5 -47q0 -37 -13 -96l-105 -500h-50l148 700h77l274 -589l15 -30l29 11q-8 29 -8 55q0 32 11 84l99 469h50l-159 -749q-17 -78 -56 -112.5t-103 -34.5h-42z" />
    <glyph glyph-name="eng" unicode="&#x14b;" horiz-adv-x="576" 
d="M210 -195l10 45h79q29 0 46 15t25 49l78 368q7 31 7 59q0 59 -30 89t-85 30q-41 0 -76 -20t-58.5 -52.5t-38.5 -68t-23 -74.5l-52 -245h-49l105 492h47q-11 -47 -49 -108h34q22 46 64 83q41 37 104 37q76 0 116 -43t40 -116q0 -31 -6 -61l-79 -371q-13 -60 -42.5 -84
t-86.5 -24h-80z" />
    <glyph glyph-name="Omacron" unicode="&#x14c;" horiz-adv-x="805" 
d="M83 299q-2 110 47 206t136 153t188 55q137 0 224.5 -86.5t87.5 -226.5q1 -110 -47.5 -205.5t-135 -152.5t-187.5 -55q-137 0 -225 86t-88 226zM714 401q0 114 -72 189.5t-187 75.5q-133 3 -228 -107.5t-92 -257.5q0 -116 71.5 -191.5t187.5 -75.5q87 -2 162 49t117 136
t41 182zM353 808l9 40h325l-10 -40h-324z" />
    <glyph glyph-name="omacron" unicode="&#x14d;" horiz-adv-x="560" 
d="M53 201q-1 75 31 145t92.5 115t133.5 43q87 0 142 -57.5t55 -155.5q1 -77 -30.5 -147t-92 -114.5t-134.5 -42.5q-87 0 -142 57.5t-55 156.5zM457 288q0 82 -41.5 127t-107.5 45q-58 2 -106.5 -36.5t-74 -98t-24.5 -122.5q0 -81 42 -126.5t107 -45.5q58 -2 106.5 36.5
t74 98t24.5 122.5zM201 597l9 40h295l-9 -40h-295z" />
    <glyph glyph-name="Obreve" unicode="&#x14e;" horiz-adv-x="805" 
d="M83 299q-2 110 47 206t136 153t188 55q137 0 224.5 -86.5t87.5 -226.5q1 -110 -47.5 -205.5t-135 -152.5t-187.5 -55q-137 0 -225 86t-88 226zM714 401q0 114 -72 189.5t-187 75.5q-133 3 -228 -107.5t-92 -257.5q0 -116 71.5 -191.5t187.5 -75.5q87 -2 162 49t117 136
t41 182zM398 874q0 2 2 22h42l-1 -10q0 -72 78 -72q86 0 114 82h49q-16 -56 -58.5 -89t-104.5 -33q-58 0 -89.5 27t-31.5 73z" />
    <glyph glyph-name="obreve" unicode="&#x14f;" horiz-adv-x="560" 
d="M53 201q-1 75 31 145t92.5 115t133.5 43q87 0 142 -57.5t55 -155.5q1 -77 -30.5 -147t-92 -114.5t-134.5 -42.5q-87 0 -142 57.5t-55 156.5zM457 288q0 82 -41.5 127t-107.5 45q-58 2 -106.5 -36.5t-74 -98t-24.5 -122.5q0 -81 42 -126.5t107 -45.5q58 -2 106.5 36.5
t74 98t24.5 122.5zM240 661q0 15 1 22h38v-10q0 -71 70 -71q78 0 104 81h44q-15 -56 -53 -89t-95 -33q-53 0 -81 27t-28 73z" />
    <glyph glyph-name="Ohungarumlaut" unicode="&#x150;" horiz-adv-x="805" 
d="M83 299q-2 110 47 206t136 153t188 55q137 0 224.5 -86.5t87.5 -226.5q1 -110 -47.5 -205.5t-135 -152.5t-187.5 -55q-137 0 -225 86t-88 226zM714 401q0 114 -72 189.5t-187 75.5q-133 3 -228 -107.5t-92 -257.5q0 -116 71.5 -191.5t187.5 -75.5q87 -2 162 49t117 136
t41 182zM397 780l103 122h79l-143 -122h-39zM544 780l104 122h79l-142 -122h-41z" />
    <glyph glyph-name="ohungarumlaut" unicode="&#x151;" horiz-adv-x="560" 
d="M53 201q-1 75 31 145t92.5 115t133.5 43q87 0 142 -57.5t55 -155.5q1 -77 -30.5 -147t-92 -114.5t-134.5 -42.5q-87 0 -142 57.5t-55 156.5zM457 288q0 82 -41.5 127t-107.5 45q-58 2 -106.5 -36.5t-74 -98t-24.5 -122.5q0 -81 42 -126.5t107 -45.5q58 -2 106.5 36.5
t74 98t24.5 122.5zM248 566l94 122h71l-129 -122h-36zM382 566l95 122h71l-129 -122h-37z" />
    <glyph glyph-name="OE" unicode="&#x152;" horiz-adv-x="1197" 
d="M85 308q-2 108 45.5 202.5t130 149.5t177.5 53q114 0 182 -61.5t82 -163.5h32q1 67 31 212h479l-10 -47h-429l-55 -262h322l-10 -46h-322l-63 -298h429l-10 -47h-478q15 61 21.5 79.5t27.5 58.5h-37q-83 -151 -253 -151q-129 0 -210.5 87t-81.5 234zM692 393
q0 122 -68 197.5t-182 75.5q-127 2 -217 -104.5t-88 -253.5q0 -121 65 -197.5t179 -76.5q131 -3 222 104t89 255z" />
    <glyph glyph-name="oe" unicode="&#x153;" horiz-adv-x="929" 
d="M53 203q-1 74 30.5 144t91 114.5t130.5 42.5q70 0 116.5 -41t57.5 -111h30q28 71 77 111.5t116 40.5q83 0 130 -50.5t47 -129.5q0 -40 -12 -81h-361q-6 -30 -6 -58q0 -68 35 -111t98 -43q62 0 108.5 32t72.5 82l43 -23q-78 -135 -220 -135q-140 0 -165 144h-30
q-27 -68 -76 -106t-117 -38q-84 0 -140 58.5t-56 157.5zM514 284h312q4 20 4 42q0 60 -35.5 98t-96.5 38q-66 0 -115 -49.5t-69 -128.5zM458 288q0 82 -41.5 127t-109.5 45q-56 2 -104.5 -37t-74 -97.5t-24.5 -119.5q0 -83 42.5 -129t108.5 -46q87 -3 146 77.5t57 179.5z
" />
    <glyph glyph-name="Racute" unicode="&#x154;" horiz-adv-x="678" 
d="M64 0l148 700h234q87 0 140.5 -48.5t53.5 -120.5q0 -75 -45.5 -123.5t-124.5 -61.5l-7 -29q45 -6 66 -35t30 -93l24 -189h-53l-20 180q-8 73 -36 102t-101 29h-192l-67 -311h-50zM189 357h201q87 0 142.5 45t55.5 125q0 56 -38 91t-107 35h-191zM403 780l105 122h78
l-140 -122h-43z" />
    <glyph glyph-name="racute" unicode="&#x155;" horiz-adv-x="389" 
d="M43 0l105 492h45q-12 -52 -52 -121h35q59 127 175 127q41 0 71 -9l-10 -50q-32 9 -71 9q-75 0 -126.5 -58.5t-73.5 -158.5l-49 -231h-49zM256 566l95 122h72l-128 -122h-39z" />
    <glyph glyph-name="uni0156" unicode="&#x156;" horiz-adv-x="678" 
d="M64 0l148 700h234q87 0 140.5 -48.5t53.5 -120.5q0 -75 -45.5 -123.5t-124.5 -61.5l-7 -29q45 -6 66 -35t30 -93l24 -189h-53l-20 180q-8 73 -36 102t-101 29h-192l-67 -311h-50zM189 357h201q87 0 142.5 45t55.5 125q0 56 -38 91t-107 35h-191zM203 -282l71 98h-30
l17 83h64l-19 -84l-68 -97h-35z" />
    <glyph glyph-name="uni0157" unicode="&#x157;" horiz-adv-x="389" 
d="M43 0l105 492h45q-12 -52 -52 -121h35q59 127 175 127q41 0 71 -9l-10 -50q-32 9 -71 9q-75 0 -126.5 -58.5t-73.5 -158.5l-49 -231h-49zM-41 -282l71 98h-30l17 83h64l-19 -84l-68 -97h-35z" />
    <glyph glyph-name="Rcaron" unicode="&#x158;" horiz-adv-x="678" 
d="M64 0l148 700h234q87 0 140.5 -48.5t53.5 -120.5q0 -75 -45.5 -123.5t-124.5 -61.5l-7 -29q45 -6 66 -35t30 -93l24 -189h-53l-20 180q-8 73 -36 102t-101 29h-192l-67 -311h-50zM189 357h201q87 0 142.5 45t55.5 125q0 56 -38 91t-107 35h-191zM615 896l-140 -116h-80
l-86 116h51l79 -85l120 85h56z" />
    <glyph glyph-name="rcaron" unicode="&#x159;" horiz-adv-x="389" 
d="M43 0l105 492h45q-12 -52 -52 -121h35q59 127 175 127q41 0 71 -9l-10 -50q-32 9 -71 9q-75 0 -126.5 -58.5t-73.5 -158.5l-49 -231h-49zM249 566l-79 117h46l72 -86l109 86h52l-127 -117h-73z" />
    <glyph glyph-name="Sacute" unicode="&#x15a;" horiz-adv-x="594" 
d="M34 164l50 21q9 -67 62.5 -109t131.5 -42q88 0 141 43t53 113q0 50 -31.5 82.5t-95.5 53.5l-87 28q-128 40 -128 155q0 91 64.5 147t164.5 56q97 0 152 -47.5t66 -107.5l-49 -17q-12 50 -52.5 88t-119.5 38q-78 0 -126.5 -42.5t-48.5 -110.5q0 -42 27 -69t90 -48l81 -27
q68 -22 107.5 -67t39.5 -108q0 -91 -68.5 -149t-181.5 -58q-97 0 -163.5 48t-78.5 129zM382 780l105 122h78l-140 -122h-43z" />
    <glyph glyph-name="sacute" unicode="&#x15b;" horiz-adv-x="478" 
d="M26 129l46 13q2 -48 40 -79.5t105 -31.5q65 0 101 28t36 73q0 66 -90 92l-62 18q-58 16 -87 44.5t-29 75.5q0 62 49.5 102t124.5 40q76 0 123 -36.5t53 -92.5l-47 -13q-5 42 -38.5 71.5t-90.5 29.5q-58 0 -92 -27.5t-34 -67.5q0 -57 81 -80l61 -18q129 -39 129 -133
q0 -67 -50.5 -108.5t-137.5 -41.5q-86 0 -138.5 41t-52.5 101zM275 566l95 122h72l-128 -122h-39z" />
    <glyph glyph-name="Scircumflex" unicode="&#x15c;" horiz-adv-x="594" 
d="M34 164l50 21q9 -67 62.5 -109t131.5 -42q88 0 141 43t53 113q0 50 -31.5 82.5t-95.5 53.5l-87 28q-128 40 -128 155q0 91 64.5 147t164.5 56q97 0 152 -47.5t66 -107.5l-49 -17q-12 50 -52.5 88t-119.5 38q-78 0 -126.5 -42.5t-48.5 -110.5q0 -42 27 -69t90 -48l81 -27
q68 -22 107.5 -67t39.5 -108q0 -91 -68.5 -149t-181.5 -58q-97 0 -163.5 48t-78.5 129zM250 780l140 117h80l86 -117h-51l-79 86l-120 -86h-56z" />
    <glyph glyph-name="scircumflex" unicode="&#x15d;" horiz-adv-x="478" 
d="M26 129l46 13q2 -48 40 -79.5t105 -31.5q65 0 101 28t36 73q0 66 -90 92l-62 18q-58 16 -87 44.5t-29 75.5q0 62 49.5 102t124.5 40q76 0 123 -36.5t53 -92.5l-47 -13q-5 42 -38.5 71.5t-90.5 29.5q-58 0 -92 -27.5t-34 -67.5q0 -57 81 -80l61 -18q129 -39 129 -133
q0 -67 -50.5 -108.5t-137.5 -41.5q-86 0 -138.5 41t-52.5 101zM161 566l128 117h73l78 -117h-47l-71 86l-110 -86h-51z" />
    <glyph glyph-name="Scedilla" unicode="&#x15e;" horiz-adv-x="594" 
d="M181 513q0 -42 27 -69t90 -48l81 -27q68 -22 107.5 -67t39.5 -108q0 -89 -65 -146.5t-174 -60.5l-12 -9l-20 -16l-17 -15q9 3 21 3q33 0 54.5 -19t21.5 -47q0 -36 -27.5 -59.5t-77.5 -23.5q-63 0 -95 45l27 28q25 -36 68 -36q30 0 47 12t17 34q0 16 -13.5 26.5
t-34.5 10.5q-22 0 -40 -7l-18 28l56 47q-86 8 -142 54.5t-68 120.5l50 21q9 -67 62.5 -109t131.5 -42q88 0 141 43t53 113q0 50 -31.5 82.5t-95.5 53.5l-87 28q-128 40 -128 155q0 91 64.5 147t164.5 56q97 0 152 -47.5t66 -107.5l-49 -17q-12 50 -52.5 88t-119.5 38
q-78 0 -126.5 -42.5t-48.5 -110.5z" />
    <glyph glyph-name="scedilla" unicode="&#x15f;" horiz-adv-x="478" 
d="M405 137q0 -66 -50 -108t-136 -42l-11 -9l-20 -16l-18 -15q10 3 22 3q33 0 54.5 -19t21.5 -47q0 -36 -28 -59.5t-77 -23.5q-63 0 -96 45l28 28q23 -36 68 -36q29 0 46.5 12t17.5 34q0 16 -13.5 26.5t-34.5 10.5q-23 0 -41 -7l-17 28l56 48q-69 9 -110 48t-41 91l46 13
q2 -48 40 -79.5t105 -31.5q65 0 101 28t36 73q0 66 -90 92l-62 18q-58 16 -87 44.5t-29 75.5q0 62 49.5 102t124.5 40q76 0 123 -36.5t53 -92.5l-47 -13q-5 42 -38.5 71.5t-90.5 29.5q-58 0 -92 -27.5t-34 -67.5q0 -57 81 -80l61 -18q129 -39 129 -133z" />
    <glyph glyph-name="Scaron" unicode="&#x160;" horiz-adv-x="594" 
d="M34 164l50 21q9 -67 62.5 -109t131.5 -42q88 0 141 43t53 113q0 50 -31.5 82.5t-95.5 53.5l-87 28q-128 40 -128 155q0 91 64.5 147t164.5 56q97 0 152 -47.5t66 -107.5l-49 -17q-12 50 -52.5 88t-119.5 38q-78 0 -126.5 -42.5t-48.5 -110.5q0 -42 27 -69t90 -48l81 -27
q68 -22 107.5 -67t39.5 -108q0 -91 -68.5 -149t-181.5 -58q-97 0 -163.5 48t-78.5 129zM582 896l-140 -116h-80l-86 116h51l79 -85l120 85h56z" />
    <glyph glyph-name="scaron" unicode="&#x161;" horiz-adv-x="478" 
d="M26 129l46 13q2 -48 40 -79.5t105 -31.5q65 0 101 28t36 73q0 66 -90 92l-62 18q-58 16 -87 44.5t-29 75.5q0 62 49.5 102t124.5 40q76 0 123 -36.5t53 -92.5l-47 -13q-5 42 -38.5 71.5t-90.5 29.5q-58 0 -92 -27.5t-34 -67.5q0 -57 81 -80l61 -18q129 -39 129 -133
q0 -67 -50.5 -108.5t-137.5 -41.5q-86 0 -138.5 41t-52.5 101zM270 566l-79 117h46l72 -86l109 86h52l-127 -117h-73z" />
    <glyph glyph-name="uni0162" unicode="&#x162;" horiz-adv-x="607" 
d="M112 700h577l-9 -47h-272l-138 -653l-27 -22l-18 -16l-18 -15q7 3 21 3q33 0 54.5 -19t21.5 -47q0 -36 -28 -59.5t-77 -23.5q-63 0 -96 45l27 28q26 -36 69 -36q29 0 46.5 12t17.5 34q0 16 -13.5 26.5t-35.5 10.5t-40 -7l-17 28l69 58h-6l138 653h-256z" />
    <glyph glyph-name="uni0163" unicode="&#x163;" horiz-adv-x="375" 
d="M229 450l-66 -310q-4 -17 -4 -33q0 -64 77 -64h88l-10 -43h-79h-6l-27 -22l-20 -16l-17 -15q9 3 21 3q33 0 54.5 -19t21.5 -47q0 -36 -28 -59.5t-77 -23.5q-63 0 -95 45l27 28q25 -36 68 -36q30 0 47 12t17 34q0 16 -13.5 26.5t-34.5 10.5q-23 0 -41 -7l-17 28l74 62
q-78 18 -78 98q0 20 6 46l64 302h-125l9 42h124l32 145h48l-31 -145h143l-9 -42h-143z" />
    <glyph glyph-name="Tcaron" unicode="&#x164;" horiz-adv-x="607" 
d="M220 0l138 653h-256l10 47h577l-9 -47h-272l-138 -653h-50zM585 896l-140 -116h-80l-86 116h51l79 -85l120 85h56z" />
    <glyph glyph-name="tcaron" unicode="&#x165;" horiz-adv-x="375" 
d="M111 102q0 20 6 46l64 302h-125l9 42h124l32 145h48l-31 -145h143l-9 -42h-143l-66 -310q-4 -17 -4 -33q0 -64 77 -64h88l-10 -43h-79q-124 0 -124 102zM328 538l71 98h-30l17 83h64l-19 -84l-68 -97h-35z" />
    <glyph glyph-name="Tbar" unicode="&#x166;" horiz-adv-x="627" 
d="M690 653h-272l-52 -248h171l-10 -42h-170l-77 -363h-50l77 363h-168l9 42h168l52 248h-256l10 47h578z" />
    <glyph glyph-name="tbar" unicode="&#x167;" horiz-adv-x="391" 
d="M386 450h-143l-29 -135h144l-9 -40h-143l-29 -135q-4 -17 -4 -33q0 -64 77 -64h88l-9 -43h-80q-124 0 -124 102q0 20 6 46l27 127h-125l9 40h124l29 135h-125l9 42h125l31 145h48l-31 -145h143z" />
    <glyph glyph-name="Utilde" unicode="&#x168;" horiz-adv-x="681" 
d="M99 172q0 38 9 80l95 448h50l-93 -437q-10 -41 -10 -82q0 -146 148 -146q95 0 151 58t81 176l93 431h50l-95 -444q-28 -135 -96.5 -202t-183.5 -67q-96 0 -147.5 48t-51.5 137zM462 803l-27 21q-26 22 -50 22q-46 0 -60 -59h-49q23 99 110 99q39 0 71 -25l27 -21
q32 -22 51 -22q46 0 60 57h49q-23 -98 -109 -98q-36 0 -73 26z" />
    <glyph glyph-name="utilde" unicode="&#x169;" horiz-adv-x="567" 
d="M71 139q0 38 10 77l59 276h48l-60 -285q-7 -32 -7 -62q0 -114 108 -114q74 0 124 56.5t72 161.5l52 243h47l-104 -492h-42q11 54 48 111h-34q-15 -29 -33 -54q-51 -70 -139 -70q-72 0 -110.5 39.5t-38.5 112.5zM352 600l-24 21q-23 22 -46 22q-42 0 -55 -60h-44
q19 100 100 100q34 0 65 -25l25 -21q26 -22 45 -22q42 0 55 57h45q-23 -98 -100 -98q-32 0 -66 26z" />
    <glyph glyph-name="Umacron" unicode="&#x16a;" horiz-adv-x="681" 
d="M99 172q0 38 9 80l95 448h50l-93 -437q-10 -41 -10 -82q0 -146 148 -146q95 0 151 58t81 176l93 431h50l-95 -444q-28 -135 -96.5 -202t-183.5 -67q-96 0 -147.5 48t-51.5 137zM297 808l9 40h325l-10 -40h-324z" />
    <glyph glyph-name="umacron" unicode="&#x16b;" horiz-adv-x="567" 
d="M71 139q0 38 10 77l59 276h48l-60 -285q-7 -32 -7 -62q0 -114 108 -114q74 0 124 56.5t72 161.5l52 243h47l-104 -492h-42q11 54 48 111h-34q-15 -29 -33 -54q-51 -70 -139 -70q-72 0 -110.5 39.5t-38.5 112.5zM205 597l9 40h295l-9 -40h-295z" />
    <glyph glyph-name="Ubreve" unicode="&#x16c;" horiz-adv-x="681" 
d="M99 172q0 38 9 80l95 448h50l-93 -437q-10 -41 -10 -82q0 -146 148 -146q95 0 151 58t81 176l93 431h50l-95 -444q-28 -135 -96.5 -202t-183.5 -67q-96 0 -147.5 48t-51.5 137zM342 874q0 2 2 22h42l-1 -10q0 -72 78 -72q86 0 114 82h49q-16 -56 -58.5 -89t-104.5 -33
q-58 0 -89.5 27t-31.5 73z" />
    <glyph glyph-name="ubreve" unicode="&#x16d;" horiz-adv-x="567" 
d="M71 139q0 38 10 77l59 276h48l-60 -285q-7 -32 -7 -62q0 -114 108 -114q74 0 124 56.5t72 161.5l52 243h47l-104 -492h-42q11 54 48 111h-34q-15 -29 -33 -54q-51 -70 -139 -70q-72 0 -110.5 39.5t-38.5 112.5zM243 661q0 15 1 22h38v-10q0 -71 70 -71q78 0 104 81h44
q-15 -56 -53 -89t-95 -33q-53 0 -81 27t-28 73z" />
    <glyph glyph-name="Uring" unicode="&#x16e;" horiz-adv-x="681" 
d="M99 172q0 38 9 80l95 448h50l-93 -437q-10 -41 -10 -82q0 -146 148 -146q95 0 151 58t81 176l93 431h50l-95 -444q-28 -135 -96.5 -202t-183.5 -67q-96 0 -147.5 48t-51.5 137zM358 859q0 48 33.5 82t82.5 34q40 0 67 -26.5t27 -63.5q0 -49 -33.5 -83t-80.5 -34
q-42 0 -69 26t-27 65zM527 881q0 25 -15 41.5t-41 16.5q-31 0 -51.5 -23.5t-20.5 -54.5q0 -25 15.5 -41.5t41.5 -16.5q30 0 50.5 24t20.5 54z" />
    <glyph glyph-name="uring" unicode="&#x16f;" horiz-adv-x="567" 
d="M71 139q0 38 10 77l59 276h48l-60 -285q-7 -32 -7 -62q0 -114 108 -114q74 0 124 56.5t72 161.5l52 243h47l-104 -492h-42q11 54 48 111h-34q-15 -29 -33 -54q-51 -70 -139 -70q-72 0 -110.5 39.5t-38.5 112.5zM253 633q0 45 32 77.5t79 32.5q38 0 63.5 -25.5t25.5 -60.5
q0 -47 -31.5 -79.5t-77.5 -32.5q-39 0 -65 25.5t-26 62.5zM414 654q0 24 -14.5 39t-38.5 15q-30 0 -49.5 -22t-19.5 -51q0 -24 15 -39.5t39 -15.5q29 0 48.5 22.5t19.5 51.5z" />
    <glyph glyph-name="Uhungarumlaut" unicode="&#x170;" horiz-adv-x="681" 
d="M99 172q0 38 9 80l95 448h50l-93 -437q-10 -41 -10 -82q0 -146 148 -146q95 0 151 58t81 176l93 431h50l-95 -444q-28 -135 -96.5 -202t-183.5 -67q-96 0 -147.5 48t-51.5 137zM341 780l103 122h79l-143 -122h-39zM488 780l104 122h79l-142 -122h-41z" />
    <glyph glyph-name="uhungarumlaut" unicode="&#x171;" horiz-adv-x="567" 
d="M71 139q0 38 10 77l59 276h48l-60 -285q-7 -32 -7 -62q0 -114 108 -114q74 0 124 56.5t72 161.5l52 243h47l-104 -492h-42q11 54 48 111h-34q-15 -29 -33 -54q-51 -70 -139 -70q-72 0 -110.5 39.5t-38.5 112.5zM252 566l94 122h71l-129 -122h-36zM386 566l95 122h71
l-129 -122h-37z" />
    <glyph glyph-name="Uogonek" unicode="&#x172;" horiz-adv-x="681" 
d="M225 -126q0 61 80 113q-99 -1 -152.5 46.5t-53.5 137.5q0 37 9 81l95 448h50l-93 -437q-10 -41 -10 -82q0 -146 148 -146q95 0 151 58t81 176l93 431h50l-95 -444q-22 -105 -67 -167.5t-119 -90.5q-123 -47 -123 -116q0 -35 42 -35q21 0 45 8l-8 -42q-24 -8 -45 -8
q-37 0 -57.5 18.5t-20.5 50.5z" />
    <glyph glyph-name="uogonek" unicode="&#x173;" horiz-adv-x="567" 
d="M303 -107q-1 -5 -1 -11q0 -35 43 -35q19 0 45 8l-9 -42q-24 -8 -45 -8q-37 0 -57.5 18.5t-20.5 50.5q0 7 1 9q6 72 122 132q13 49 45 96h-34q-15 -29 -33 -54q-51 -70 -139 -70q-72 0 -110.5 39.5t-38.5 112.5q0 38 10 77l59 276h48l-60 -285q-7 -32 -7 -62
q0 -114 108 -114q74 0 124 56.5t72 161.5l52 243h47l-104 -492q-106 -46 -117 -107z" />
    <glyph glyph-name="Wcircumflex" unicode="&#x174;" horiz-adv-x="947" 
d="M169 0l-21 700h51l13 -481v-36q0 -75 -12 -141h31q6 31 22 75q19 47 46 100l242 483h57l34 -480q4 -51 4 -95q0 -43 -8 -83h30q9 41 21 77q14 40 42 101l218 480h55l-323 -700h-71l-36 486q-1 17 -1 46q0 56 12 121h-31q-18 -86 -59 -166l-244 -487h-72zM429 780l140 117
h80l86 -117h-51l-79 86l-120 -86h-56z" />
    <glyph glyph-name="wcircumflex" unicode="&#x175;" horiz-adv-x="799" 
d="M150 0l-62 492h48l35 -299q5 -48 5 -86q0 -37 -5 -67h29q15 62 63 153l158 299h56l29 -299q5 -52 5 -84q0 -39 -5 -69h30q18 72 64 153l163 299h52l-271 -492h-60l-31 300q-4 40 -4 75q0 38 7 72h-30q-20 -74 -59 -147l-159 -300h-58zM323 566l128 117h73l78 -117h-47
l-71 86l-110 -86h-51z" />
    <glyph glyph-name="Ycircumflex" unicode="&#x176;" horiz-adv-x="635" 
d="M241 0l65 306l-163 394h56l106 -263q18 -45 18 -78q0 -7 -2 -25h30q11 50 54 104l215 262h64l-328 -394l-64 -306h-51zM271 780l140 117h80l86 -117h-51l-79 86l-120 -86h-56z" />
    <glyph glyph-name="ycircumflex" unicode="&#x177;" horiz-adv-x="495" 
d="M457 492h53l-323 -571q-39 -68 -71 -91t-97 -25h-70l9 45h62q40 0 65.5 16t52.5 61l54 94l-110 471h52l67 -303q10 -47 10 -82q0 -18 -3 -39h31q13 59 47 121zM159 566l128 117h73l78 -117h-47l-71 86l-110 -86h-51z" />
    <glyph glyph-name="Ydieresis" unicode="&#x178;" horiz-adv-x="635" 
d="M241 0l65 306l-163 394h56l106 -263q18 -45 18 -78q0 -7 -2 -25h30q11 50 54 104l215 262h64l-328 -394l-64 -306h-51zM299 781l18 80h64l-18 -80h-64zM489 781l18 80h64l-19 -80h-63z" />
    <glyph glyph-name="Zacute" unicode="&#x179;" horiz-adv-x="577" 
d="M-17 0l13 67l569 592l-17 23q-44 -29 -129 -29h-271l10 47h471l-12 -58l-577 -600l17 -22q19 12 29 16t32 7.5t59 3.5h328l-10 -47h-512zM374 780l105 122h78l-140 -122h-43z" />
    <glyph glyph-name="zacute" unicode="&#x17a;" horiz-adv-x="468" 
d="M-8 0l10 48l396 403l-19 21q-28 -24 -84 -24h-202l9 44h368l-10 -44l-398 -406l19 -21q25 22 90 22h217l-8 -43h-388zM280 566l95 122h72l-128 -122h-39z" />
    <glyph glyph-name="Zdotaccent" unicode="&#x17b;" horiz-adv-x="577" 
d="M-17 0l13 67l569 592l-17 23q-44 -29 -129 -29h-271l10 47h471l-12 -58l-577 -600l17 -22q19 12 29 16t32 7.5t59 3.5h328l-10 -47h-512zM375 780l20 95h50l-20 -95h-50z" />
    <glyph glyph-name="zdotaccent" unicode="&#x17c;" horiz-adv-x="468" 
d="M-8 0l10 48l396 403l-19 21q-28 -24 -84 -24h-202l9 44h368l-10 -44l-398 -406l19 -21q25 22 90 22h217l-8 -43h-388zM282 605l20 95h50l-20 -95h-50z" />
    <glyph glyph-name="Zcaron" unicode="&#x17d;" horiz-adv-x="577" 
d="M-17 0l13 67l569 592l-17 23q-44 -29 -129 -29h-271l10 47h471l-12 -58l-577 -600l17 -22q19 12 29 16t32 7.5t59 3.5h328l-10 -47h-512zM573 896l-140 -116h-80l-86 116h51l79 -85l120 85h56z" />
    <glyph glyph-name="zcaron" unicode="&#x17e;" horiz-adv-x="468" 
d="M-8 0l10 48l396 403l-19 21q-28 -24 -84 -24h-202l9 44h368l-10 -44l-398 -406l19 -21q25 22 90 22h217l-8 -43h-388zM266 566l-79 117h46l72 -86l109 86h52l-127 -117h-73z" />
    <glyph glyph-name="florin" unicode="&#x192;" horiz-adv-x="463" 
d="M-150 -190l10 46q31 -17 77 -17q38 0 71.5 27t54.5 82l102 271q26 71 37.5 93t34.5 47l-14 22q-39 -16 -87 -16h-52l10 43h141l58 158q29 75 69.5 111t102.5 36q45 0 72 -13l-10 -46q-29 12 -62 12q-46 0 -76.5 -29t-52.5 -91l-49 -138h134l-10 -43h-140l-158 -419
q-30 -82 -73 -117.5t-103 -35.5q-54 0 -87 17z" />
    <glyph glyph-name="uni01E2" unicode="&#x1e2;" horiz-adv-x="919" 
d="M957 653h-358l-56 -262h265l-10 -47h-265l-62 -297h357l-10 -47h-407l46 217h-269l-178 -217h-65l581 700h440zM565 665h-33q-15 -49 -70 -116l-235 -286h240l63 298q18 70 35 104zM579 808l9 40h325l-10 -40h-324z" />
    <glyph glyph-name="uni01E3" unicode="&#x1e3;" horiz-adv-x="858" 
d="M41 114q0 69 50.5 115t128 65t178.5 19l5 21q3 14 3 26q0 45 -32.5 72.5t-91.5 27.5q-115 0 -166 -96l-43 23q26 52 78.5 84.5t132.5 32.5q63 0 104 -30t49 -81h26q57 111 168 111q82 0 129.5 -50.5t47.5 -130.5q0 -41 -13 -80h-362q-7 -27 -7 -59q0 -68 36.5 -110.5
t100.5 -42.5q116 0 179 114l43 -23q-77 -135 -222 -135q-67 0 -114 37t-54 101h-28q-21 -59 -70.5 -98.5t-117.5 -39.5q-62 0 -100 34.5t-38 92.5zM441 284h313q4 20 4 42q0 62 -34.5 99t-95.5 37q-67 0 -116 -49t-71 -129zM377 213l13 61q-78 1 -142.5 -13t-111 -51
t-46.5 -93q0 -37 27.5 -62t70.5 -25q63 0 117.5 47t71.5 136zM336 597l9 40h295l-9 -40h-295z" />
    <glyph glyph-name="Aringacute" unicode="&#x1fa;" horiz-adv-x="660" 
d="M521 0l-34 217h-321l-125 -217h-60l411 700h70l113 -700h-54zM193 264h286l-45 296q-4 25 -4 51q0 29 4 54h-30q-18 -64 -44 -110zM452 970l95 138h72l-128 -138h-39zM356 836q0 45 32 77.5t78 32.5q38 0 64 -25.5t26 -60.5q0 -47 -31.5 -79.5t-77.5 -32.5
q-40 0 -65.5 25.5t-25.5 62.5zM517 857q0 24 -14.5 39t-39.5 15q-29 0 -48.5 -22t-19.5 -51q0 -24 15 -39.5t39 -15.5q29 0 48.5 22.5t19.5 51.5z" />
    <glyph glyph-name="aringacute" unicode="&#x1fb;" horiz-adv-x="531" 
d="M42 114q0 100 100.5 150.5t257.5 48.5l3 16q3 12 3 27q0 48 -32.5 76t-95.5 28q-61 0 -102 -27t-58 -69l-44 23q18 44 71 80.5t135 36.5q79 0 127 -38.5t48 -107.5q0 -20 -6 -46l-46 -215q-3 -10 -3 -20q0 -34 39 -34h44l-9 -43h-38q-69 0 -69 63q0 15 3 30h-27
q-56 -106 -167 -106q-63 0 -98.5 33t-35.5 94zM379 214l12 60q-81 0 -146.5 -15.5t-109.5 -52t-44 -89.5q0 -41 27 -64t72 -23q63 0 116.5 48t72.5 136zM307 767l95 138h72l-128 -138h-39zM211 633q0 45 32 77.5t78 32.5q38 0 64 -25.5t26 -60.5q0 -47 -31.5 -79.5
t-77.5 -32.5q-40 0 -65.5 25.5t-25.5 62.5zM372 654q0 24 -14.5 39t-39.5 15q-29 0 -48.5 -22t-19.5 -51q0 -24 15 -39.5t39 -15.5q29 0 48.5 22.5t19.5 51.5z" />
    <glyph glyph-name="AEacute" unicode="&#x1fc;" horiz-adv-x="919" 
d="M957 653h-358l-56 -262h265l-10 -47h-265l-62 -297h357l-10 -47h-407l46 217h-269l-178 -217h-65l581 700h440zM565 665h-33q-15 -49 -70 -116l-235 -286h240l63 298q18 70 35 104zM708 780l105 122h78l-140 -122h-43z" />
    <glyph glyph-name="aeacute" unicode="&#x1fd;" horiz-adv-x="858" 
d="M41 114q0 69 50.5 115t128 65t178.5 19l5 21q3 14 3 26q0 45 -32.5 72.5t-91.5 27.5q-115 0 -166 -96l-43 23q26 52 78.5 84.5t132.5 32.5q63 0 104 -30t49 -81h26q57 111 168 111q82 0 129.5 -50.5t47.5 -130.5q0 -41 -13 -80h-362q-7 -27 -7 -59q0 -68 36.5 -110.5
t100.5 -42.5q116 0 179 114l43 -23q-77 -135 -222 -135q-67 0 -114 37t-54 101h-28q-21 -59 -70.5 -98.5t-117.5 -39.5q-62 0 -100 34.5t-38 92.5zM441 284h313q4 20 4 42q0 62 -34.5 99t-95.5 37q-67 0 -116 -49t-71 -129zM377 213l13 61q-78 1 -142.5 -13t-111 -51
t-46.5 -93q0 -37 27.5 -62t70.5 -25q63 0 117.5 47t71.5 136zM458 566l95 122h72l-128 -122h-39z" />
    <glyph glyph-name="Oslashacute" unicode="&#x1fe;" horiz-adv-x="805" 
d="M90 -19l-33 33l89 89q-63 82 -63 196q-2 109 47.5 205.5t136.5 153.5t188 55q129 0 216 -79l90 92l32 -33l-91 -93q64 -81 64 -200q1 -110 -47.5 -205.5t-135 -152.5t-187.5 -55q-133 0 -220 81zM183 141l380 386q43 43 82 54l6 29q-72 56 -195 56q-88 2 -163 -49
t-116.5 -135.5t-40.5 -180.5q0 -93 47 -160zM714 401q0 93 -49 162l-385 -390q-44 -42 -82 -53l-7 -30q73 -56 201 -56q135 -3 230 107.5t92 259.5zM487 780l105 122h78l-140 -122h-43z" />
    <glyph glyph-name="oslashacute" unicode="&#x1ff;" horiz-adv-x="560" 
d="M113 41l-59 -62l-28 29l62 63q-35 53 -35 130q-1 75 31 145t92.5 115t133.5 43q89 0 143 -60l56 56l28 -27l-59 -60q29 -60 29 -122q1 -77 -30.5 -147t-92 -114.5t-134.5 -42.5q-86 0 -137 54zM125 107l234 240q37 38 69 44l7 26q-51 44 -125 44q-88 2 -148.5 -77
t-58.5 -181q0 -56 22 -96zM458 288q0 50 -18 87l-231 -238q-39 -40 -71 -47l-6 -27q40 -33 116 -33q87 -2 149.5 78t60.5 180zM302 566l95 122h72l-128 -122h-39z" />
    <glyph glyph-name="uni0218" unicode="&#x218;" horiz-adv-x="594" 
d="M34 164l50 21q9 -67 62.5 -109t131.5 -42q88 0 141 43t53 113q0 50 -31.5 82.5t-95.5 53.5l-87 28q-128 40 -128 155q0 91 64.5 147t164.5 56q97 0 152 -47.5t66 -107.5l-49 -17q-12 50 -52.5 88t-119.5 38q-78 0 -126.5 -42.5t-48.5 -110.5q0 -42 27 -69t90 -48l81 -27
q68 -22 107.5 -67t39.5 -108q0 -91 -68.5 -149t-181.5 -58q-97 0 -163.5 48t-78.5 129zM164 -282l71 98h-30l17 83h64l-19 -84l-68 -97h-35z" />
    <glyph glyph-name="uni0219" unicode="&#x219;" horiz-adv-x="478" 
d="M26 129l46 13q2 -48 40 -79.5t105 -31.5q65 0 101 28t36 73q0 66 -90 92l-62 18q-58 16 -87 44.5t-29 75.5q0 62 49.5 102t124.5 40q76 0 123 -36.5t53 -92.5l-47 -13q-5 42 -38.5 71.5t-90.5 29.5q-58 0 -92 -27.5t-34 -67.5q0 -57 81 -80l61 -18q129 -39 129 -133
q0 -67 -50.5 -108.5t-137.5 -41.5q-86 0 -138.5 41t-52.5 101zM88 -282l71 98h-30l17 83h64l-19 -84l-68 -97h-35z" />
    <glyph glyph-name="uni021A" unicode="&#x21a;" horiz-adv-x="607" 
d="M220 0l138 653h-256l10 47h577l-9 -47h-272l-138 -653h-50zM134 -282l71 98h-30l17 83h64l-19 -84l-68 -97h-35z" />
    <glyph glyph-name="uni021B" unicode="&#x21b;" horiz-adv-x="375" 
d="M111 102q0 20 6 46l64 302h-125l9 42h124l32 145h48l-31 -145h143l-9 -42h-143l-66 -310q-4 -17 -4 -33q0 -64 77 -64h88l-10 -43h-79q-124 0 -124 102zM82 -282l71 98h-30l17 83h64l-19 -84l-68 -97h-35z" />
    <glyph glyph-name="uni0226" unicode="&#x226;" horiz-adv-x="660" 
d="M521 0l-34 217h-321l-125 -217h-60l411 700h70l113 -700h-54zM193 264h286l-45 296q-4 25 -4 51q0 29 4 54h-30q-18 -64 -44 -110zM420 780l20 95h50l-20 -95h-50z" />
    <glyph glyph-name="uni0227" unicode="&#x227;" horiz-adv-x="531" 
d="M42 114q0 100 100.5 150.5t257.5 48.5l3 16q3 12 3 27q0 48 -32.5 76t-95.5 28q-61 0 -102 -27t-58 -69l-44 23q18 44 71 80.5t135 36.5q79 0 127 -38.5t48 -107.5q0 -20 -6 -46l-46 -215q-3 -10 -3 -20q0 -34 39 -34h44l-9 -43h-38q-69 0 -69 63q0 15 3 30h-27
q-56 -106 -167 -106q-63 0 -98.5 33t-35.5 94zM379 214l12 60q-81 0 -146.5 -15.5t-109.5 -52t-44 -89.5q0 -41 27 -64t72 -23q63 0 116.5 48t72.5 136zM287 605l20 95h50l-20 -95h-50z" />
    <glyph glyph-name="uni0232" unicode="&#x232;" horiz-adv-x="635" 
d="M241 0l65 306l-163 394h56l106 -263q18 -45 18 -78q0 -7 -2 -25h30q11 50 54 104l215 262h64l-328 -394l-64 -306h-51zM274 808l9 40h325l-10 -40h-324z" />
    <glyph glyph-name="uni0233" unicode="&#x233;" horiz-adv-x="495" 
d="M457 492h53l-323 -571q-39 -68 -71 -91t-97 -25h-70l9 45h62q40 0 65.5 16t52.5 61l54 94l-110 471h52l67 -303q10 -47 10 -82q0 -18 -3 -39h31q13 59 47 121zM161 597l9 40h295l-9 -40h-295z" />
    <glyph glyph-name="uni0237" unicode="&#x237;" horiz-adv-x="247" 
d="M-128 -195l9 45h61q78 0 96 88l118 554h48l-120 -559q-28 -128 -141 -128h-71z" />
    <glyph glyph-name="circumflex" unicode="&#x2c6;" horiz-adv-x="286" 
d="M-14 566l128 117h73l78 -117h-47l-71 86l-110 -86h-51z" />
    <glyph glyph-name="caron" unicode="&#x2c7;" horiz-adv-x="286" 
d="M87 566l-79 117h46l72 -86l109 86h52l-127 -117h-73z" />
    <glyph glyph-name="breve" unicode="&#x2d8;" horiz-adv-x="266" 
d="M14 661q0 15 1 22h38v-10q0 -71 70 -71q78 0 104 81h44q-15 -56 -53 -89t-95 -33q-53 0 -81 27t-28 73z" />
    <glyph glyph-name="dotaccent" unicode="&#x2d9;" horiz-adv-x="303" 
d="M114 605l20 95h50l-20 -95h-50z" />
    <glyph glyph-name="ring" unicode="&#x2da;" horiz-adv-x="334" 
d="M68 633q0 45 32 77.5t79 32.5q38 0 63.5 -25.5t25.5 -60.5q0 -47 -31.5 -79.5t-77.5 -32.5q-39 0 -65 25.5t-26 62.5zM229 654q0 24 -14.5 39t-38.5 15q-30 0 -49.5 -22t-19.5 -51q0 -24 15 -39.5t39 -15.5q29 0 48.5 22.5t19.5 51.5z" />
    <glyph glyph-name="ogonek" unicode="&#x2db;" horiz-adv-x="368" 
d="M51 -126q0 39 36 78t99 69l27 -21q-107 -47 -118 -107q-1 -5 -1 -11q0 -35 43 -35q20 0 46 8l-9 -42q-24 -8 -45 -8q-37 0 -57.5 18.5t-20.5 50.5z" />
    <glyph glyph-name="tilde" unicode="&#x2dc;" horiz-adv-x="249" 
d="M151 600l-24 21q-23 22 -46 22q-42 0 -55 -60h-44q19 100 100 100q34 0 65 -25l25 -21q26 -22 45 -22q41 0 55 57h45q-23 -98 -100 -98q-32 0 -66 26z" />
    <glyph glyph-name="hungarumlaut" unicode="&#x2dd;" horiz-adv-x="393" 
d="M39 566l94 122h71l-129 -122h-36zM173 566l95 122h71l-129 -122h-37z" />
    <glyph glyph-name="gravecomb" unicode="&#x300;" horiz-adv-x="0" 
d="M-84 566l-77 122h65l42 -122h-30z" />
    <glyph glyph-name="acutecomb" unicode="&#x301;" horiz-adv-x="0" 
d="M-211 566l95 122h72l-128 -122h-39z" />
    <glyph glyph-name="uni0302" unicode="&#x302;" horiz-adv-x="0" 
d="M-381 566l128 117h73l78 -117h-47l-71 86l-110 -86h-51z" />
    <glyph glyph-name="tildecomb" unicode="&#x303;" horiz-adv-x="0" 
d="M-197 600l-24 21q-23 22 -46 22q-41 0 -55 -60h-44q19 100 100 100q34 0 65 -25l25 -21q26 -22 45 -22q41 0 55 57h45q-23 -98 -100 -98q-32 0 -66 26z" />
    <glyph glyph-name="uni0304" unicode="&#x304;" horiz-adv-x="0" 
d="M-346 597l9 40h295l-9 -40h-295z" />
    <glyph glyph-name="uni0306" unicode="&#x306;" horiz-adv-x="0" 
d="M-303 661q0 15 1 22h38v-10q0 -71 70 -71q78 0 104 81h44q-15 -56 -53 -89t-95 -33q-53 0 -81 27t-28 73z" />
    <glyph glyph-name="uni0307" unicode="&#x307;" horiz-adv-x="0" 
d="M-85 605l20 95h50l-20 -95h-50z" />
    <glyph glyph-name="uni0308" unicode="&#x308;" horiz-adv-x="0" 
d="M-286 600l16 80h59l-17 -80h-58zM-113 600l16 80h58l-16 -80h-58z" />
    <glyph glyph-name="uni030A" unicode="&#x30a;" horiz-adv-x="0" 
d="M-237 633q0 45 32 77.5t79 32.5q38 0 63.5 -25.5t25.5 -60.5q0 -47 -31.5 -79.5t-77.5 -32.5q-39 0 -65 25.5t-26 62.5zM-76 654q0 24 -14.5 39t-38.5 15q-30 0 -49.5 -22t-19.5 -51q0 -24 15 -39.5t39 -15.5q29 0 48.5 22.5t19.5 51.5z" />
    <glyph glyph-name="uni030B" unicode="&#x30b;" horiz-adv-x="0" 
d="M-372 566l94 122h71l-129 -122h-36zM-238 566l95 122h71l-129 -122h-37z" />
    <glyph glyph-name="uni030C" unicode="&#x30c;" horiz-adv-x="0" 
d="M-293 566l-79 117h46l72 -86l109 86h52l-127 -117h-73z" />
    <glyph glyph-name="uni0312" unicode="&#x312;" horiz-adv-x="0" 
d="M43 787l-71 -99h30l-17 -83h-64l19 84l68 98h35z" />
    <glyph glyph-name="dotbelowcomb" unicode="&#x323;" horiz-adv-x="0" 
d="M-155 -195l20 95h50l-20 -95h-50z" />
    <glyph glyph-name="uni0326" unicode="&#x326;" horiz-adv-x="0" 
d="M-204 -282l71 98h-30l17 83h64l-19 -84l-68 -97h-35z" />
    <glyph glyph-name="uni0327" unicode="&#x327;" horiz-adv-x="0" 
d="M-245 -154l28 28q23 -36 68 -36q29 0 46.5 12t17.5 34q0 16 -13.5 26.5t-34.5 10.5q-23 0 -41 -7l-17 28l88 74l25 -16l-26 -22l-20 -16l-18 -15q10 3 22 3q33 0 54.5 -19t21.5 -47q0 -36 -28 -59.5t-77 -23.5q-63 0 -96 45z" />
    <glyph glyph-name="uni0328" unicode="&#x328;" horiz-adv-x="0" 
d="M-186 -126q0 39 36 78t99 69l27 -21q-107 -47 -118 -107q-1 -5 -1 -11q0 -35 43 -35q20 0 46 8l-9 -42q-24 -8 -45 -8q-37 0 -57.5 18.5t-20.5 50.5z" />
    <glyph glyph-name="uni0394" unicode="&#x394;" horiz-adv-x="661" 
d="M462 700l113 -700h-594l411 700h70zM67 47h446l-79 513q-4 25 -4 51q0 29 4 54h-30q-18 -64 -44 -110z" />
    <glyph glyph-name="uni03A9" unicode="&#x3a9;" horiz-adv-x="784" 
d="M37 0l10 47h75q60 0 107 -20l10 29q-150 71 -150 254q-1 106 45 200t128.5 149.5t179.5 53.5q129 2 214 -83t83 -215q0 -121 -66.5 -219.5t-184.5 -141.5l10 -29q51 22 106 22h59l-10 -47h-266l12 54q69 2 137 53.5t111 135t41 169.5q0 110 -68 182.5t-177 72.5
q-126 3 -215 -105t-87 -255q0 -92 42.5 -160.5t117.5 -92.5l-12 -54h-252z" />
    <glyph glyph-name="uni03BC" unicode="&#x3bc;" horiz-adv-x="570" 
d="M-4 -195l146 687h48l-65 -305q-5 -30 -5 -48q0 -52 29 -80t81 -28q75 0 125 56.5t72 161.5l52 243h48l-105 -492h-42q11 54 49 111h-35q-1 -2 -21 -38t-61.5 -61t-89.5 -25q-91 0 -125 64l-53 -246h-48z" />
    <glyph glyph-name="pi" unicode="&#x3c0;" horiz-adv-x="605" 
d="M79 0l96 448h-115l9 44h541l-10 -44h-118l-73 -346q-3 -14 -3 -21q0 -38 46 -38h67l-10 -43h-62q-89 0 -89 73q0 13 3 28l74 347h-211l-97 -448h-48z" />
    <glyph glyph-name="Wgrave" unicode="&#x1e80;" horiz-adv-x="947" 
d="M169 0l-21 700h51l13 -481v-36q0 -75 -12 -141h31q6 31 22 75q19 47 46 100l242 483h57l34 -480q4 -51 4 -95q0 -43 -8 -83h30q9 41 21 77q14 40 42 101l218 480h55l-323 -700h-71l-36 486q-1 17 -1 46q0 56 12 121h-31q-18 -86 -59 -166l-244 -487h-72zM559 780l-84 122
h71l47 -122h-34z" />
    <glyph glyph-name="wgrave" unicode="&#x1e81;" horiz-adv-x="799" 
d="M150 0l-62 492h48l35 -299q5 -48 5 -86q0 -37 -5 -67h29q15 62 63 153l158 299h56l29 -299q5 -52 5 -84q0 -39 -5 -69h30q18 72 64 153l163 299h52l-271 -492h-60l-31 300q-4 40 -4 75q0 38 7 72h-30q-20 -74 -59 -147l-159 -300h-58zM438 566l-77 122h65l42 -122h-30z
" />
    <glyph glyph-name="Wacute" unicode="&#x1e82;" horiz-adv-x="947" 
d="M169 0l-21 700h51l13 -481v-36q0 -75 -12 -141h31q6 31 22 75q19 47 46 100l242 483h57l34 -480q4 -51 4 -95q0 -43 -8 -83h30q9 41 21 77q14 40 42 101l218 480h55l-323 -700h-71l-36 486q-1 17 -1 46q0 56 12 121h-31q-18 -86 -59 -166l-244 -487h-72zM561 780l105 122
h78l-140 -122h-43z" />
    <glyph glyph-name="wacute" unicode="&#x1e83;" horiz-adv-x="799" 
d="M150 0l-62 492h48l35 -299q5 -48 5 -86q0 -37 -5 -67h29q15 62 63 153l158 299h56l29 -299q5 -52 5 -84q0 -39 -5 -69h30q18 72 64 153l163 299h52l-271 -492h-60l-31 300q-4 40 -4 75q0 38 7 72h-30q-20 -74 -59 -147l-159 -300h-58zM446 566l95 122h72l-128 -122h-39z
" />
    <glyph glyph-name="Wdieresis" unicode="&#x1e84;" horiz-adv-x="947" 
d="M169 0l-21 700h51l13 -481v-36q0 -75 -12 -141h31q6 31 22 75q19 47 46 100l242 483h57l34 -480q4 -51 4 -95q0 -43 -8 -83h30q9 41 21 77q14 40 42 101l218 480h55l-323 -700h-71l-36 486q-1 17 -1 46q0 56 12 121h-31q-18 -86 -59 -166l-244 -487h-72zM456 781l18 80
h64l-18 -80h-64zM646 781l18 80h64l-19 -80h-63z" />
    <glyph glyph-name="wdieresis" unicode="&#x1e85;" horiz-adv-x="799" 
d="M150 0l-62 492h48l35 -299q5 -48 5 -86q0 -37 -5 -67h29q15 62 63 153l158 299h56l29 -299q5 -52 5 -84q0 -39 -5 -69h30q18 72 64 153l163 299h52l-271 -492h-60l-31 300q-4 40 -4 75q0 38 7 72h-30q-20 -74 -59 -147l-159 -300h-58zM358 600l16 80h59l-17 -80h-58z
M531 600l16 80h58l-16 -80h-58z" />
    <glyph glyph-name="uni1E9E" unicode="&#x1e9e;" horiz-adv-x="702" 
d="M189 42l11 52q56 -60 166 -60q92 0 148 47.5t56 122.5q0 61 -40.5 98.5t-115.5 37.5h-108l10 47h96q85 0 138 42t53 114q0 49 -37.5 79.5t-102.5 30.5h-211l-138 -653h-50l148 700h258q83 0 133.5 -42.5t50.5 -114.5q0 -67 -44 -111t-109 -52l-5 -29q48 -5 88.5 -45
t40.5 -105q0 -93 -70.5 -153.5t-188.5 -60.5q-124 0 -177 55z" />
    <glyph glyph-name="uni1EA0" unicode="&#x1ea0;" horiz-adv-x="660" 
d="M521 0l-34 217h-321l-125 -217h-60l411 700h70l113 -700h-54zM193 264h286l-45 296q-4 25 -4 51q0 29 4 54h-30q-18 -64 -44 -110zM214 -195l20 95h50l-20 -95h-50z" />
    <glyph glyph-name="uni1EA1" unicode="&#x1ea1;" horiz-adv-x="531" 
d="M42 114q0 100 100.5 150.5t257.5 48.5l3 16q3 12 3 27q0 48 -32.5 76t-95.5 28q-61 0 -102 -27t-58 -69l-44 23q18 44 71 80.5t135 36.5q79 0 127 -38.5t48 -107.5q0 -20 -6 -46l-46 -215q-3 -10 -3 -20q0 -34 39 -34h44l-9 -43h-38q-69 0 -69 63q0 15 3 30h-27
q-56 -106 -167 -106q-63 0 -98.5 33t-35.5 94zM379 214l12 60q-81 0 -146.5 -15.5t-109.5 -52t-44 -89.5q0 -41 27 -64t72 -23q63 0 116.5 48t72.5 136zM143 -195l20 95h50l-20 -95h-50z" />
    <glyph glyph-name="uni1EB8" unicode="&#x1eb8;" horiz-adv-x="629" 
d="M64 0l148 700h464l-9 -47h-415l-56 -265h314l-10 -46h-313l-62 -295h413l-10 -47h-464zM230 -195l20 95h50l-20 -95h-50z" />
    <glyph glyph-name="uni1EB9" unicode="&#x1eb9;" horiz-adv-x="529" 
d="M52 188q-1 77 29.5 149.5t89 120.5t130.5 46q82 0 130 -50.5t48 -130.5q0 -38 -12 -80h-362q-6 -31 -6 -59q0 -69 36 -111t100 -42q118 0 178 114l43 -23q-75 -135 -222 -135q-82 0 -132 51t-50 150zM114 285h312q4 20 4 42q0 60 -35 97.5t-96 37.5q-66 0 -115.5 -49.5
t-69.5 -127.5zM165 -195l20 95h50l-20 -95h-50z" />
    <glyph glyph-name="uni1ECA" unicode="&#x1eca;" horiz-adv-x="282" 
d="M64 0l148 700h51l-149 -700h-50zM22 -195l20 95h50l-20 -95h-50z" />
    <glyph glyph-name="uni1ECB" unicode="&#x1ecb;" horiz-adv-x="240" 
d="M171 605l20 95h51l-20 -95h-51zM43 0l105 492h48l-104 -492h-49zM0 -195l21 95h51l-20 -95h-52z" />
    <glyph glyph-name="uni1ECC" unicode="&#x1ecc;" horiz-adv-x="805" 
d="M83 299q-2 110 47 206t136 153t188 55q137 0 224.5 -86.5t87.5 -226.5q1 -110 -47.5 -205.5t-135 -152.5t-187.5 -55q-137 0 -225 86t-88 226zM714 401q0 114 -72 189.5t-187 75.5q-133 3 -228 -107.5t-92 -257.5q0 -116 71.5 -191.5t187.5 -75.5q87 -2 162 49t117 136
t41 182zM287 -195l20 95h50l-20 -95h-50z" />
    <glyph glyph-name="uni1ECD" unicode="&#x1ecd;" horiz-adv-x="560" 
d="M53 201q-1 75 31 145t92.5 115t133.5 43q87 0 142 -57.5t55 -155.5q1 -77 -30.5 -147t-92 -114.5t-134.5 -42.5q-87 0 -142 57.5t-55 156.5zM457 288q0 82 -41.5 127t-107.5 45q-58 2 -106.5 -36.5t-74 -98t-24.5 -122.5q0 -81 42 -126.5t107 -45.5q58 -2 106.5 36.5
t74 98t24.5 122.5zM172 -195l20 95h50l-20 -95h-50z" />
    <glyph glyph-name="uni1EE4" unicode="&#x1ee4;" horiz-adv-x="681" 
d="M99 172q0 38 9 80l95 448h50l-93 -437q-10 -41 -10 -82q0 -146 148 -146q95 0 151 58t81 176l93 431h50l-95 -444q-28 -135 -96.5 -202t-183.5 -67q-96 0 -147.5 48t-51.5 137zM225 -195l20 95h50l-20 -95h-50z" />
    <glyph glyph-name="uni1EE5" unicode="&#x1ee5;" horiz-adv-x="567" 
d="M71 139q0 38 10 77l59 276h48l-60 -285q-7 -32 -7 -62q0 -114 108 -114q74 0 124 56.5t72 161.5l52 243h47l-104 -492h-42q11 54 48 111h-34q-15 -29 -33 -54q-51 -70 -139 -70q-72 0 -110.5 39.5t-38.5 112.5zM161 -195l20 95h50l-20 -95h-50z" />
    <glyph glyph-name="Ygrave" unicode="&#x1ef2;" horiz-adv-x="635" 
d="M241 0l65 306l-163 394h56l106 -263q18 -45 18 -78q0 -7 -2 -25h30q11 50 54 104l215 262h64l-328 -394l-64 -306h-51zM411 780l-84 122h71l47 -122h-34z" />
    <glyph glyph-name="ygrave" unicode="&#x1ef3;" horiz-adv-x="495" 
d="M457 492h53l-323 -571q-39 -68 -71 -91t-97 -25h-70l9 45h62q40 0 65.5 16t52.5 61l54 94l-110 471h52l67 -303q10 -47 10 -82q0 -18 -3 -39h31q13 59 47 121zM288 566l-77 122h65l42 -122h-30z" />
    <glyph glyph-name="uni2002" unicode="&#x2002;" horiz-adv-x="500" 
 />
    <glyph glyph-name="uni2003" unicode="&#x2003;" horiz-adv-x="1000" 
 />
    <glyph glyph-name="uni2009" unicode="&#x2009;" horiz-adv-x="125" 
 />
    <glyph glyph-name="endash" unicode="&#x2013;" horiz-adv-x="599" 
d="M85 283l11 46h441l-10 -46h-442z" />
    <glyph glyph-name="emdash" unicode="&#x2014;" horiz-adv-x="976" 
d="M85 283l11 46h818l-10 -46h-819z" />
    <glyph glyph-name="quoteleft" unicode="&#x2018;" horiz-adv-x="230" 
d="M262 700l-79 -110h34l-20 -93h-70l20 94l77 109h38z" />
    <glyph glyph-name="quoteright" unicode="&#x2019;" horiz-adv-x="227" 
d="M123 498l79 110h-34l20 93h70l-21 -94l-76 -109h-38z" />
    <glyph glyph-name="quotesinglbase" unicode="&#x201a;" horiz-adv-x="242" 
d="M-1 -110l79 110h-34l20 93h70l-21 -94l-76 -109h-38z" />
    <glyph glyph-name="quotedblleft" unicode="&#x201c;" horiz-adv-x="383" 
d="M262 700l-79 -110h34l-20 -93h-70l20 94l77 109h38zM414 700l-79 -110h34l-19 -93h-71l21 94l76 109h38z" />
    <glyph glyph-name="quotedblright" unicode="&#x201d;" horiz-adv-x="379" 
d="M123 498l79 110h-34l20 93h70l-21 -94l-76 -109h-38zM275 498l79 110h-34l20 93h70l-21 -94l-76 -109h-38z" />
    <glyph glyph-name="quotedblbase" unicode="&#x201e;" horiz-adv-x="395" 
d="M-1 -110l79 110h-34l20 93h70l-21 -94l-76 -109h-38zM151 -110l79 110h-34l20 93h70l-21 -94l-76 -109h-38z" />
    <glyph glyph-name="dagger" unicode="&#x2020;" horiz-adv-x="529" 
d="M279 -109v538h-198v48h198v223h50v-223h198v-48h-198v-538h-50z" />
    <glyph glyph-name="daggerdbl" unicode="&#x2021;" horiz-adv-x="595" 
d="M284 -109v224h-199v47h199v267h-199v48h199v223h49v-223h199v-48h-199v-267h199v-47h-199v-224h-49z" />
    <glyph glyph-name="bullet" unicode="&#x2022;" horiz-adv-x="514" 
d="M105 350q0 72 51 122.5t121 50.5q71 0 121.5 -50.5t50.5 -122.5q0 -68 -51 -118t-121 -50t-121 50t-51 118z" />
    <glyph glyph-name="ellipsis" unicode="&#x2026;" horiz-adv-x="720" 
d="M35 0l21 98h73l-21 -98h-73zM278 0l21 98h73l-21 -98h-73zM522 0l21 98h73l-21 -98h-73z" />
    <glyph glyph-name="perthousand" unicode="&#x2030;" horiz-adv-x="1144" 
d="M96 464q0 95 51.5 169t128.5 74q65 0 103 -44.5t38 -120.5q0 -96 -50.5 -168.5t-129.5 -72.5q-66 0 -103.5 43t-37.5 120zM748 700h59l-632 -700h-60zM142 464q0 -59 25.5 -91.5t70.5 -32.5q57 0 95.5 62t38.5 140q0 58 -26 91.5t-71 33.5q-56 0 -94.5 -62.5
t-38.5 -140.5zM1096 236q1 -95 -51 -169.5t-129 -71.5q-100 0 -131 92q-52 -92 -141 -92q-67 0 -104.5 43t-37.5 120q0 96 51 169t129 73q100 0 131 -93q52 93 142 93q66 0 103.5 -43.5t37.5 -120.5zM778 236q0 58 -26 91.5t-71 33.5q-56 0 -94.5 -62.5t-38.5 -140.5
q0 -59 25.5 -91.5t71.5 -32.5q56 0 94.5 62.5t38.5 139.5zM1051 236q0 58 -26 91.5t-71 33.5q-57 0 -95 -62.5t-38 -140.5q0 -59 25.5 -91.5t70.5 -32.5q57 0 95.5 62t38.5 140z" />
    <glyph glyph-name="guilsinglleft" unicode="&#x2039;" horiz-adv-x="298" 
d="M281 449l-172 -202l83 -192h-51l-85 196l168 198h57z" />
    <glyph glyph-name="guilsinglright" unicode="&#x203a;" horiz-adv-x="298" 
d="M160 449l85 -197l-168 -197h-56l171 202l-83 192h51z" />
    <glyph glyph-name="fraction" unicode="&#x2044;" horiz-adv-x="180" 
d="M-236 0l633 700h60l-633 -700h-60z" />
    <glyph glyph-name="uni2070" unicode="&#x2070;" horiz-adv-x="419" 
d="M124 555q0 96 50.5 169.5t129.5 73.5q65 0 103 -44.5t38 -120.5q0 -95 -51 -168t-129 -73q-66 0 -103.5 43t-37.5 120zM400 633q0 58 -26 91.5t-71 33.5q-56 0 -94.5 -62.5t-38.5 -140.5q0 -59 25.5 -91.5t70.5 -32.5q57 0 95.5 62t38.5 140z" />
    <glyph glyph-name="uni2074" unicode="&#x2074;" horiz-adv-x="356" 
d="M248 398l23 110h-180l8 39l216 244h59l-51 -244h61l-9 -39h-61l-24 -110h-42zM279 547l25 114q8 35 36 66l-18 16l-176 -199l17 -16q25 19 55 19h61z" />
    <glyph glyph-name="uni2075" unicode="&#x2075;" horiz-adv-x="366" 
d="M103 498l44 11q1 -36 23.5 -57t61.5 -21q44 0 71.5 29t27.5 75q0 34 -22 55.5t-55 21.5q-52 0 -85 -51l-46 13l70 217h221l-9 -40h-181l-23 -70q-15 -44 -46 -84h28q32 54 86 54q47 0 77.5 -32.5t30.5 -82.5q0 -64 -40.5 -104t-104.5 -40q-57 0 -91.5 28t-37.5 78z" />
    <glyph glyph-name="uni2076" unicode="&#x2076;" horiz-adv-x="375" 
d="M121 534q0 117 58.5 190.5t150.5 73.5q55 0 90 -19l-9 -41q-41 19 -82 19q-67 0 -113.5 -46.5t-60.5 -124.5h22q10 29 36 48.5t61 19.5q50 0 82 -33.5t32 -84.5q0 -62 -40.5 -103t-100.5 -41t-93 37t-33 105zM342 533q0 37 -21.5 59t-57.5 22q-39 0 -66.5 -29.5
t-27.5 -72.5q0 -37 21.5 -59t56.5 -22q40 0 67.5 29.5t27.5 72.5z" />
    <glyph glyph-name="uni2077" unicode="&#x2077;" horiz-adv-x="324" 
d="M347 748l9 6l-12 20q-36 -23 -80 -23h-124l9 40h260l-7 -36q-112 -76 -161 -160.5t-62 -196.5h-49q27 226 217 350z" />
    <glyph glyph-name="uni2078" unicode="&#x2078;" horiz-adv-x="371" 
d="M110 497q0 39 29.5 67t74.5 31l5 22q-63 13 -63 69q0 48 37 80t92 32q50 0 82.5 -27.5t32.5 -70.5q0 -35 -24.5 -59.5t-66.5 -28.5l-5 -21q34 -8 53 -30t19 -51q0 -50 -40.5 -84t-99.5 -34q-57 0 -91.5 29t-34.5 76zM354 696q0 29 -19.5 45.5t-50.5 16.5q-36 0 -60 -21
t-24 -52q0 -29 19.5 -46t50.5 -17q36 0 60 21.5t24 52.5zM330 514q0 32 -21.5 51t-58.5 19q-40 0 -67 -24t-27 -59q0 -32 21.5 -51t57.5 -19q41 0 68 23.5t27 59.5z" />
    <glyph glyph-name="uni2079" unicode="&#x2079;" horiz-adv-x="382" 
d="M110 412l9 42q35 -21 81 -21q85 0 136 77q27 39 36 91h-22q-26 -66 -97 -66q-51 0 -84 33.5t-33 85.5q0 62 39.5 103t98.5 41q58 0 96 -41q38 -44 38 -114q0 -113 -56.5 -182t-149.5 -69q-55 0 -92 20zM359 671q0 36 -25 61.5t-58 25.5q-41 0 -67.5 -28.5t-26.5 -73.5
q0 -37 22 -59t57 -22q41 0 69.5 27.5t28.5 68.5z" />
    <glyph glyph-name="uni20A9" unicode="&#x20a9;" horiz-adv-x="990" 
d="M1013 700l-120 -260h89l-9 -42h-99l-49 -106h96l-9 -42h-107l-115 -250h-71l-18 250h-216l-125 -250h-72l-7 250h-105l8 42h96l-3 106h-100l9 42h89l-8 260h50l8 -260h204l130 260h58l18 -260h204l119 260h55zM504 487l-23 -47h106l-4 46q-1 15 -1 48q0 59 12 119h-31
q-18 -86 -59 -166zM226 398l3 -106h125l54 106h-182zM406 292h192l-8 106h-130zM772 292l48 106h-182l8 -106h126zM317 217l16 33h-104l1 -31q1 -9 1 -38q0 -75 -12 -139h31q14 65 67 175zM740 221l12 29h-103l2 -31q4 -55 4 -94q0 -43 -8 -83h30q10 44 21 79q15 42 42 100z
" />
    <glyph glyph-name="Euro" unicode="&#x20ac;" horiz-adv-x="687" 
d="M138 261h-89l8 43h82q6 65 19 110h-76l8 43h81q39 115 115.5 185.5t174.5 70.5q56 1 99.5 -18.5t67.5 -51.5t36.5 -64.5t14.5 -64.5l-52 -13q-2 29 -11 55.5t-27 52.5t-51.5 42t-77.5 16q-158 0 -256 -216l19 -16q31 22 88 22h161l-8 -43h-256q-19 -50 -21 -110h253
l-9 -43h-155q-54 0 -86 24l-20 -13q4 -113 51.5 -176t133.5 -63q79 0 138 51.5t87 127.5l46 -20q-28 -82 -99 -143.5t-171 -61.5q-106 0 -163 71.5t-55 202.5z" />
    <glyph glyph-name="uni20B9" unicode="&#x20b9;" horiz-adv-x="571" 
d="M421 674l-15 -29q70 -38 76 -110h96l-10 -44h-88q-11 -59 -57.5 -97t-114.5 -46l-6 -29q60 -6 80.5 -34t27.5 -96l17 -189h-54l-16 197q-4 60 -35.5 87t-97.5 27h-147l10 47h158q68 0 120.5 36.5t65.5 96.5h-315l9 44h310q-1 56 -40 88.5t-100 32.5h-145l9 44h453l-9 -44
h-96q-46 0 -86 18z" />
    <glyph glyph-name="uni20BA" unicode="&#x20ba;" horiz-adv-x="575" 
d="M103 0l38 184q13 59 45 100l-24 17q-30 -37 -70 -58l-38 -18l12 53l107 54l17 82l-107 -54l12 54l107 53l49 233h50l-24 -115q-12 -58 -41 -95l23 -17q31 40 80 64l160 78l-13 -54l-239 -120l-18 -80l241 120l-12 -54l-241 -120l-53 -259h14q52 0 113 18q63 20 120 74
q59 56 87 155l46 -20q-32 -125 -132.5 -200t-245.5 -75h-63z" />
    <glyph glyph-name="uni20BD" unicode="&#x20bd;" horiz-adv-x="604" 
d="M613 525q0 -101 -70 -163.5t-180 -62.5h-168l-20 -98h179l-10 -43h-178l-34 -158h-50l33 158h-79l8 43h80l21 98h-80l10 45h79l76 356h175q97 0 152.5 -50t55.5 -125zM561 525q0 53 -42.5 90.5t-116.5 37.5h-131l-66 -309h151q93 0 149 49.5t56 131.5z" />
    <glyph glyph-name="uni20BF" unicode="&#x20bf;" horiz-adv-x="645" 
d="M581 211q0 -89 -67.5 -150t-170.5 -61h-3l-23 -105h-44l23 105h-82l-23 -105h-44l23 105h-106l148 700h107l22 105h44l-23 -105h70h13l22 105h44l-24 -111q58 -13 92.5 -53t34.5 -97q0 -65 -45 -110t-109 -54l-6 -29q50 -7 88.5 -43.5t38.5 -96.5zM252 653l-56 -266h179
q82 0 134.5 41.5t52.5 109.5q0 54 -36.5 84.5t-101.5 30.5h-172zM527 215q0 55 -38 90t-108 35h-194l-62 -293h216q81 0 133.5 47.5t52.5 120.5z" />
    <glyph glyph-name="uni2113" unicode="&#x2113;" horiz-adv-x="454" 
d="M83 101q0 17 5 45l16 76q-28 -5 -74 -7l10 44q33 2 75 10l65 305q12 57 45 97q33 42 96 42q59 0 98 -40.5t39 -106.5q0 -112 -86 -204.5t-214 -127.5l-21 -102q-3 -20 -3 -29q0 -35 20 -52.5t52 -17.5q39 0 72.5 26.5t53.5 80.5l45 -25q-23 -63 -68 -95.5t-100 -32.5
q-58 0 -92 29t-34 85zM406 564q0 48 -24 75.5t-60 27.5q-40 0 -62 -27t-32 -79l-35 -164q-10 -45 -20.5 -69t-31.5 -46l15 -19q114 49 182 129.5t68 171.5z" />
    <glyph glyph-name="uni2116" unicode="&#x2116;" horiz-adv-x="1154" 
d="M65 0l148 700h77l281 -647l29 11q-7 27 -7 51q0 33 12 89l105 496h50l-148 -700h-71l-285 655l-28 -12q5 -27 5 -47q0 -37 -13 -96l-105 -500h-50zM802 460q-1 98 56.5 175.5t147.5 74.5q73 0 116.5 -47t43.5 -129q0 -99 -56.5 -172t-147.5 -73q-75 0 -117.5 44.5
t-42.5 126.5zM1119 535q0 63 -30.5 98.5t-83.5 35.5q-69 0 -112.5 -63.5t-43.5 -146.5q0 -62 29.5 -95.5t83.5 -33.5q70 0 113.5 61t43.5 144z" />
    <glyph glyph-name="uni2117" unicode="&#x2117;" horiz-adv-x="899" 
d="M90 352q-2 102 49 192t141 143t194 51q158 3 271 -113t110 -273q2 -158 -109.5 -272t-271.5 -111q-160 -3 -274 111.5t-110 271.5zM811 352q3 142 -96.5 245t-241.5 101q-142 2 -241.5 -101t-97.5 -245q-2 -142 97 -243.5t242 -99.5q144 -2 242 99t96 244zM358 157v399
h143q67 0 109.5 -33.5t42.5 -97.5t-42.5 -97.5t-108.5 -33.5h-104v-137h-40zM398 332h91q121 0 121 93t-121 93h-91v-186z" />
    <glyph glyph-name="trademark" unicode="&#x2122;" horiz-adv-x="844" 
d="M177 323l72 336h-125l8 41h295l-9 -41h-126l-71 -336h-44zM410 323l81 377h70l23 -211q6 -53 6 -78q0 -22 -3 -46h24q7 28 17 57q6 18 31 67l109 211h76l-81 -377h-43l40 187q16 76 54 141l-24 13l-10 -19l-167 -322h-46l-39 320l-2 18l-25 -4q4 -25 4 -51q0 -36 -11 -89
l-40 -194h-44z" />
    <glyph glyph-name="Omega" unicode="&#x2126;" horiz-adv-x="817" 
d="M123 0v47h59q55 0 109 -21l10 29q-204 68 -204 303q-2 153 91.5 255t234.5 100q140 2 233.5 -99.5t91.5 -255.5q0 -235 -204 -303l10 -29q54 21 109 21h59v-47h-250v54q103 21 162.5 103t59.5 201q0 132 -75.5 220t-196.5 88t-196 -88t-75 -220q0 -119 59.5 -201
t161.5 -103v-54h-249z" />
    <glyph glyph-name="onethird" unicode="&#x2153;" horiz-adv-x="786" 
d="M155 307l53 248q11 52 36 89h-24q-43 -72 -115 -86l10 45q76 13 133 97h35l-83 -393h-45zM36 0l633 700h60l-633 -700h-60zM452 107q0 8 1 11l44 9v-12q0 -38 21.5 -60t58.5 -22q39 0 64 23t25 59q0 31 -21 50.5t-54 19.5h-37l10 38h36q42 0 66 20t24 55q0 27 -20 44.5
t-51 17.5q-37 0 -59.5 -22t-24.5 -60l-44 12q4 50 40 80t89 30q49 0 82 -27t33 -68q0 -40 -26 -64.5t-66 -26.5l-4 -21q32 -6 52 -29t20 -54q0 -50 -37.5 -83t-96.5 -33q-57 0 -91 30t-34 83z" />
    <glyph glyph-name="twothirds" unicode="&#x2154;" horiz-adv-x="871" 
d="M84 307l9 47q134 81 184 129.5t52 105.5q0 34 -21.5 56t-54.5 22q-39 0 -62.5 -27.5t-23.5 -74.5l-45 11q3 59 39.5 95t93.5 36q51 0 85 -33.5t34 -83.5q0 -60 -57 -122q-47 -48 -186 -120l12 -20q32 19 88 19h106l-8 -40h-245zM122 0l633 700h60l-633 -700h-60zM538 107
q0 8 1 11l44 9v-12q0 -38 21.5 -60t58.5 -22q39 0 64 23t25 59q0 31 -21 50.5t-54 19.5h-37l10 38h36q42 0 66 20t24 55q0 27 -20 44.5t-51 17.5q-37 0 -59.5 -22t-24.5 -60l-44 12q4 50 40 80t89 30q49 0 82 -27t33 -68q0 -40 -26 -64.5t-66 -26.5l-4 -21q32 -6 52 -29
t20 -54q0 -50 -37.5 -83t-96.5 -33q-57 0 -91 30t-34 83z" />
    <glyph glyph-name="uni2155" unicode="&#x2155;" horiz-adv-x="804" 
d="M155 307l53 248q11 52 36 89h-24q-43 -72 -115 -86l10 45q76 13 133 97h35l-83 -393h-45zM36 0l633 700h60l-633 -700h-60zM456 100l44 11q1 -36 23.5 -57t61.5 -21q44 0 71.5 29t27.5 75q0 34 -22 55.5t-55 21.5q-52 0 -85 -51l-46 13l70 217h221l-9 -40h-181l-23 -70
q-14 -43 -46 -84h28q32 54 86 54q47 0 77.5 -32.5t30.5 -82.5q0 -64 -40.5 -104t-104.5 -40q-57 0 -91.5 28t-37.5 78z" />
    <glyph glyph-name="uni2156" unicode="&#x2156;" horiz-adv-x="889" 
d="M84 307l9 47q134 81 184 129.5t52 105.5q0 34 -21.5 56t-54.5 22q-39 0 -62.5 -27.5t-23.5 -74.5l-45 11q3 59 39.5 95t93.5 36q51 0 85 -33.5t34 -83.5q0 -60 -57 -122q-47 -48 -186 -120l12 -20q32 19 88 19h106l-8 -40h-245zM122 0l633 700h60l-633 -700h-60zM541 100
l44 11q1 -36 23.5 -57t61.5 -21q44 0 71.5 29t27.5 75q0 34 -22 55.5t-55 21.5q-52 0 -85 -51l-46 13l70 217h221l-9 -40h-181l-23 -70q-15 -44 -46 -84h28q31 54 86 54q47 0 77.5 -32.5t30.5 -82.5q0 -64 -40.5 -104t-104.5 -40q-57 0 -91.5 28t-37.5 78z" />
    <glyph glyph-name="uni2157" unicode="&#x2157;" horiz-adv-x="889" 
d="M85 414q0 8 1 11l44 9v-12q0 -38 21.5 -60t58.5 -22q39 0 64 23t25 59q0 31 -21 50.5t-54 19.5h-37l10 38h36q42 0 66 20t24 55q0 27 -20 44.5t-51 17.5q-37 0 -59.5 -22t-24.5 -60l-44 12q4 50 40 80t89 30q49 0 82 -27t33 -68q0 -40 -26 -64.5t-66 -26.5l-4 -21
q32 -6 52 -29t20 -54q0 -50 -37.5 -83t-96.5 -33q-57 0 -91 30t-34 83zM117 0l633 700h60l-633 -700h-60zM536 100l44 11q1 -36 23.5 -57t61.5 -21q44 0 71.5 29t27.5 75q0 34 -22 55.5t-55 21.5q-52 0 -85 -51l-46 13l70 217h221l-9 -40h-181l-23 -70q-14 -44 -46 -84h28
q32 54 86 54q47 0 77.5 -32.5t30.5 -82.5q0 -64 -40.5 -104t-104.5 -40q-57 0 -91.5 28t-37.5 78z" />
    <glyph glyph-name="uni2158" unicode="&#x2158;" horiz-adv-x="884" 
d="M230 307l23 110h-180l8 39l216 244h59l-51 -244h61l-9 -39h-61l-24 -110h-42zM261 456l25 114q8 34 36 66l-18 16l-176 -199l17 -16q25 19 55 19h61zM113 0l633 700h60l-633 -700h-60zM533 100l44 11q1 -36 23.5 -57t61.5 -21q44 0 71.5 29t27.5 75q0 34 -22 55.5
t-55 21.5q-52 0 -85 -51l-46 13l70 217h221l-9 -40h-181l-23 -70q-15 -44 -46 -84h28q31 54 86 54q47 0 77.5 -32.5t30.5 -82.5q0 -64 -40.5 -104t-104.5 -40q-57 0 -91.5 28t-37.5 78z" />
    <glyph glyph-name="uni2159" unicode="&#x2159;" horiz-adv-x="812" 
d="M155 307l53 248q11 52 36 89h-24q-43 -72 -115 -86l10 45q76 13 133 97h35l-83 -393h-45zM36 0l633 700h60l-633 -700h-60zM467 136q0 117 58.5 190.5t150.5 73.5q55 0 90 -19l-9 -41q-41 19 -82 19q-67 0 -113.5 -46.5t-60.5 -124.5h22q10 29 36 48.5t61 19.5
q50 0 82 -33.5t32 -84.5q0 -62 -40.5 -103t-100.5 -41t-93 37t-33 105zM688 135q0 37 -21.5 59t-57.5 22q-39 0 -66.5 -29.5t-27.5 -72.5q0 -37 21.5 -59t56.5 -22q40 0 67.5 29.5t27.5 72.5z" />
    <glyph glyph-name="uni215A" unicode="&#x215a;" horiz-adv-x="886" 
d="M81 407l44 11q1 -36 23.5 -57t61.5 -21q44 0 71.5 29t27.5 75q0 34 -22 55.5t-55 21.5q-52 0 -85 -51l-46 13l70 217h221l-9 -40h-181l-23 -70q-15 -44 -46 -84h28q31 54 86 54q47 0 77.5 -32.5t30.5 -82.5q0 -64 -40.5 -104t-104.5 -40q-57 0 -91.5 28t-37.5 78zM118 0
l633 700h60l-633 -700h-60zM548 136q0 117 58.5 190.5t150.5 73.5q55 0 90 -19l-9 -41q-41 19 -82 19q-67 0 -113.5 -46.5t-60.5 -124.5h22q10 29 36 48.5t61 19.5q50 0 82 -33.5t32 -84.5q0 -62 -40.5 -103t-100.5 -41t-93 37t-33 105zM769 135q0 37 -21.5 59t-57.5 22
q-39 0 -66.5 -29.5t-27.5 -72.5q0 -37 21.5 -59t56.5 -22q40 0 67.5 29.5t27.5 72.5z" />
    <glyph glyph-name="oneeighth" unicode="&#x215b;" horiz-adv-x="793" 
d="M155 307l53 248q11 52 36 89h-24q-43 -72 -115 -86l10 45q76 13 133 97h35l-83 -393h-45zM36 0l633 700h60l-633 -700h-60zM452 99q0 39 29.5 67t74.5 31l5 22q-63 13 -63 69q0 48 37 80t92 32q50 0 82.5 -27.5t32.5 -70.5q0 -35 -24.5 -59.5t-66.5 -28.5l-5 -21
q34 -8 53 -30t19 -51q0 -50 -40.5 -84t-99.5 -34q-57 0 -91.5 29t-34.5 76zM696 298q0 29 -19.5 45.5t-50.5 16.5q-36 0 -60 -21t-24 -52q0 -29 19.5 -46t50.5 -17q36 0 60 21.5t24 52.5zM672 116q0 32 -21.5 51t-58.5 19q-40 0 -67 -24t-27 -59q0 -32 21.5 -51t57.5 -19
q41 0 68 23.5t27 59.5z" />
    <glyph glyph-name="threeeighths" unicode="&#x215c;" horiz-adv-x="873" 
d="M85 414q0 8 1 11l44 9v-12q0 -38 21.5 -60t58.5 -22q39 0 64 23t25 59q0 31 -21 50.5t-54 19.5h-37l10 38h36q42 0 66 20t24 55q0 27 -20 44.5t-51 17.5q-37 0 -59.5 -22t-24.5 -60l-44 12q4 50 40 80t89 30q49 0 82 -27t33 -68q0 -40 -26 -64.5t-66 -26.5l-4 -21
q32 -6 52 -29t20 -54q0 -50 -37.5 -83t-96.5 -33q-57 0 -91 30t-34 83zM117 0l633 700h60l-633 -700h-60zM533 99q0 39 29.5 67t74.5 31l5 22q-63 13 -63 69q0 48 37 80t92 32q50 0 82.5 -27.5t32.5 -70.5q0 -35 -24.5 -59.5t-66.5 -28.5l-5 -21q34 -8 53 -30t19 -51
q0 -50 -40.5 -84t-99.5 -34q-57 0 -91.5 29t-34.5 76zM777 298q0 29 -19.5 45.5t-50.5 16.5q-36 0 -60 -21t-24 -52q0 -29 19.5 -46t50.5 -17q36 0 60 21.5t24 52.5zM753 116q0 32 -21.5 51t-58.5 19q-40 0 -67 -24t-27 -59q0 -32 21.5 -51t57.5 -19q41 0 68 23.5t27 59.5z
" />
    <glyph glyph-name="fiveeighths" unicode="&#x215d;" horiz-adv-x="874" 
d="M81 407l44 11q1 -36 23.5 -57t61.5 -21q44 0 71.5 29t27.5 75q0 34 -22 55.5t-55 21.5q-52 0 -85 -51l-46 13l70 217h221l-9 -40h-181l-23 -70q-15 -44 -46 -84h28q31 54 86 54q47 0 77.5 -32.5t30.5 -82.5q0 -64 -40.5 -104t-104.5 -40q-57 0 -91.5 28t-37.5 78zM118 0
l633 700h60l-633 -700h-60zM534 99q0 39 29.5 67t74.5 31l5 22q-63 13 -63 69q0 48 37 80t92 32q50 0 82.5 -27.5t32.5 -70.5q0 -35 -24.5 -59.5t-66.5 -28.5l-5 -21q34 -8 53 -30t19 -51q0 -50 -40.5 -84t-99.5 -34q-57 0 -91.5 29t-34.5 76zM778 298q0 29 -19.5 45.5
t-50.5 16.5q-36 0 -60 -21t-24 -52q0 -29 19.5 -46t50.5 -17q36 0 60 21.5t24 52.5zM754 116q0 32 -21.5 51t-58.5 19q-40 0 -67 -24t-27 -59q0 -32 21.5 -51t57.5 -19q41 0 68 23.5t27 59.5z" />
    <glyph glyph-name="seveneighths" unicode="&#x215e;" horiz-adv-x="769" 
d="M338 657l9 6l-12 20q-36 -23 -80 -23h-124l9 40h260l-7 -36q-112 -76 -161 -160.5t-62 -196.5h-49q27 226 217 350zM13 0l633 700h60l-633 -700h-60zM428 99q0 39 29.5 67t74.5 31l5 22q-63 13 -63 69q0 48 37 80t92 32q50 0 82.5 -27.5t32.5 -70.5q0 -35 -24.5 -59.5
t-66.5 -28.5l-5 -21q34 -8 53 -30t19 -51q0 -50 -40.5 -84t-99.5 -34q-57 0 -91.5 29t-34.5 76zM672 298q0 29 -19.5 45.5t-50.5 16.5q-36 0 -60 -21t-24 -52q0 -29 19.5 -46t50.5 -17q36 0 60 21.5t24 52.5zM648 116q0 32 -21.5 51t-58.5 19q-40 0 -67 -24t-27 -59
q0 -32 21.5 -51t57.5 -19q41 0 68 23.5t27 59.5z" />
    <glyph glyph-name="uni215F" unicode="&#x215f;" horiz-adv-x="331" 
d="M152 307l53 248q11 52 36 89h-24q-43 -72 -115 -86l10 45q76 13 133 97h35l-83 -393h-45zM34 0l633 700h60l-633 -700h-60z" />
    <glyph glyph-name="arrowleft" unicode="&#x2190;" horiz-adv-x="847" 
d="M825 326h-675v-28q44 -9 91 -56l127 -126l-34 -34l-264 268l264 268l34 -35l-125 -124q-51 -49 -93 -58v-27h675v-48z" />
    <glyph glyph-name="arrowup" unicode="&#x2191;" horiz-adv-x="599" 
d="M326 0v675h-27q-10 -45 -56 -91l-126 -127l-34 34l267 264l268 -264l-34 -34l-125 126q-48 48 -57 92h-27v-675h-49z" />
    <glyph glyph-name="arrowright" unicode="&#x2192;" horiz-adv-x="846" 
d="M66 374h675v27q-43 10 -91 57l-127 125l35 35l263 -268l-263 -268l-35 34l126 125q48 48 92 57v28h-675v48z" />
    <glyph glyph-name="arrowdown" unicode="&#x2193;" horiz-adv-x="599" 
d="M317 700v-675h28q9 44 56 91l126 127l34 -34l-268 -264l-268 264l35 34l124 -125q49 -51 58 -93h27v675h48z" />
    <glyph glyph-name="uni2196" unicode="&#x2196;" horiz-adv-x="705" 
d="M663 208l-35 -34l-450 451l-19 -19q26 -42 26 -104v-179h-47v377h376v-47h-177q-64 0 -106 26l-19 -19z" />
    <glyph glyph-name="uni2197" unicode="&#x2197;" horiz-adv-x="598" 
d="M72 175l-34 34l451 451l-19 19q-42 -26 -104 -26h-179v47h376v-376h-46v176q0 68 25 106l-19 20z" />
    <glyph glyph-name="uni2198" unicode="&#x2198;" horiz-adv-x="701" 
d="M78 492l34 34l451 -451l19 19q-26 42 -26 103v179h47v-376h-376v47h176q66 0 106 -26l20 19z" />
    <glyph glyph-name="uni2199" unicode="&#x2199;" horiz-adv-x="581" 
d="M566 525l35 -34l-452 -451l19 -19q42 26 104 26h179v-47h-376v376h47v-176q0 -66 -26 -106l19 -20z" />
    <glyph glyph-name="uni21A4" unicode="&#x21a4;" horiz-adv-x="917" 
d="M778 578h45v-455h-45v203h-630v-27q45 -10 91 -56l127 -126l-34 -34l-263 267l263 268l34 -34l-125 -125q-52 -49 -93 -57v-27h630v203z" />
    <glyph glyph-name="uni21A5" unicode="&#x21a5;" horiz-adv-x="662" 
d="M404 675h-27v-630h204v-45h-456v45h204v630h-28q-9 -44 -56 -91l-126 -127l-34 34l268 263l268 -263l-35 -34l-124 125q-49 51 -58 93z" />
    <glyph glyph-name="uni21A6" unicode="&#x21a6;" horiz-adv-x="917" 
d="M630 618l263 -268l-263 -268l-34 34l125 125q51 48 92 57v28h-629v-204h-45v456h45v-204h629v27q-44 11 -90 57l-127 125z" />
    <glyph glyph-name="uni21A7" unicode="&#x21a7;" horiz-adv-x="663" 
d="M587 243l35 -34l-268 -263l-268 263l34 34l125 -125q49 -52 57 -93h28v630h-204v45h456v-45h-204v-630h27q10 43 56 91z" />
    <glyph glyph-name="uni21B0" unicode="&#x21b0;" horiz-adv-x="905" 
d="M141 375h675v-375h-48v326h-627v-27q45 -10 91 -56l127 -126l-34 -34l-264 267l264 268l34 -34l-126 -125q-48 -48 -92 -57v-27z" />
    <glyph glyph-name="uni21B1" unicode="&#x21b1;" horiz-adv-x="842" 
d="M566 618l264 -268l-264 -268l-34 34l125 125q52 49 93 57v28h-627v-326h-48v374h675v27q-44 10 -91 57l-127 125z" />
    <glyph glyph-name="uni21B2" unicode="&#x21b2;" horiz-adv-x="843" 
d="M765 700h48v-374h-675v-27q44 -11 91 -56l126 -126l-34 -34l-263 267l263 268l34 -34l-125 -125q-48 -48 -92 -57v-27h627v325z" />
    <glyph glyph-name="uni21B3" unicode="&#x21b3;" horiz-adv-x="905" 
d="M625 618l264 -268l-264 -268l-34 34l126 125q48 48 92 57v28h-675v374h48v-326h627v27q-43 10 -91 57l-127 125z" />
    <glyph glyph-name="partialdiff" unicode="&#x2202;" horiz-adv-x="613" 
d="M83 223q0 95 57.5 158.5t159.5 63.5q72 0 120.5 -40t59.5 -95h32q-2 158 -75.5 256.5t-208.5 98.5q-59 0 -108 -16v50q47 14 111 14q68 1 123.5 -21t92 -59t61.5 -87.5t35.5 -105t10.5 -112.5q0 -174 -66 -257.5t-177 -83.5q-109 0 -168.5 68.5t-59.5 167.5zM484 217
q0 80 -50 131.5t-124 51.5q-75 0 -124.5 -49.5t-49.5 -133.5t49.5 -134t124.5 -50q74 0 124 51t50 133z" />
    <glyph glyph-name="Delta" unicode="&#x2206;" horiz-adv-x="676" 
d="M353 700l262 -700h-594l263 700h69zM93 47h448l-187 510q-21 56 -21 108h-31q-1 -50 -24 -111z" />
    <glyph glyph-name="product" unicode="&#x220f;" horiz-adv-x="761" 
d="M718 700v-48h-98v-761h-50v761h-303v-761h-50v761h-97v48h598z" />
    <glyph glyph-name="summation" unicode="&#x2211;" horiz-adv-x="676" 
d="M123 -110v52l276 352l-274 351v55h447v-46h-250q-58 0 -81 4.5t-44 20.5l-20 -22l284 -362l-261 -332l-23 -30l21 -21q20 16 44 20.5t81 4.5h252v-47h-452z" />
    <glyph glyph-name="minus" unicode="&#x2212;" horiz-adv-x="709" 
d="M110 329v47h528v-47h-528z" />
    <glyph glyph-name="uni2215" unicode="&#x2215;" horiz-adv-x="336" 
d="M-69 -109l467 918h52l-467 -918h-52z" />
    <glyph glyph-name="radical" unicode="&#x221a;" horiz-adv-x="603" 
d="M294 -109l-156 445h-101v47h137l98 -287q21 -58 29 -90q10 -34 12 -79h29q3 40 11 78q8 29 27 89l198 606h53l-271 -809h-66z" />
    <glyph glyph-name="infinity" unicode="&#x221e;" horiz-adv-x="859" 
d="M88 355q0 76 51 128t122 52q128 0 177 -154h27q50 154 177 154q72 0 122 -52t50 -128t-50 -128t-122 -52q-127 0 -177 154h-27q-49 -154 -177 -154q-71 0 -122 52t-51 128zM422 355q-37 71 -71.5 103t-84.5 32q-58 0 -94 -40t-36 -95t36 -95t94 -40q50 0 84.5 32
t71.5 103zM767 355q0 55 -36.5 95t-93.5 40q-50 0 -84 -31.5t-73 -103.5q37 -71 72 -103t85 -32q57 0 93.5 40t36.5 95z" />
    <glyph glyph-name="integral" unicode="&#x222b;" horiz-adv-x="320" 
d="M-17 -196v46h86q68 0 68 72v659q0 54 28 86.5t85 32.5h91v-45h-93q-28 0 -44.5 -21.5t-16.5 -56.5v-653q0 -54 -28.5 -87t-85.5 -33h-90z" />
    <glyph glyph-name="approxequal" unicode="&#x2248;" horiz-adv-x="675" 
d="M367 441l-30 13q-59 25 -89 25q-51 0 -102 -54l-29 37q58 67 135 67q37 0 100 -27l30 -13q57 -25 89 -25q51 0 102 54l29 -37q-60 -67 -135 -67q-37 0 -100 27zM367 221l-30 13q-59 25 -89 25q-51 0 -102 -54l-29 37q58 67 135 67q37 0 100 -27l30 -13q57 -25 89 -25
q51 0 102 54l29 -37q-60 -67 -135 -67q-37 0 -100 27z" />
    <glyph glyph-name="notequal" unicode="&#x2260;" horiz-adv-x="764" 
d="M203 77l95 152h-170v47h199l48 77q27 45 69 70l-15 26q-35 -20 -74 -20h-227v47h323l89 141h53l-87 -141h161v-47h-190l-47 -76q-31 -49 -71 -71l16 -26q35 20 74 20h218v-47h-314l-95 -152h-55z" />
    <glyph glyph-name="lessequal" unicode="&#x2264;" horiz-adv-x="707" 
d="M628 176l-537 187v70l537 190v-52l-385 -135q-59 -20 -120 -21v-30q47 -1 118 -23l387 -133v-53zM91 83v48h537v-48h-537z" />
    <glyph glyph-name="greaterequal" unicode="&#x2265;" horiz-adv-x="736" 
d="M122 176v52l387 133q69 22 118 23v30q-56 0 -120 21l-385 134v54l537 -190v-70zM122 83v48h537v-48h-537z" />
    <glyph glyph-name="angleleft" unicode="&#x2329;" horiz-adv-x="319" 
d="M398 740l-303 -442l112 -444l-45 -14l-116 463l315 462z" />
    <glyph glyph-name="angleright" unicode="&#x232a;" horiz-adv-x="317" 
d="M182 765l116 -463l-315 -462l-37 25l303 442l-111 444z" />
    <glyph glyph-name="uni2460" unicode="&#x2460;" horiz-adv-x="892" 
d="M83 325q-3 173 118 295t291 119q156 2 260.5 -100.5t102.5 -257.5q3 -174 -118 -295t-291 -118q-156 -2 -261 100t-102 257zM810 381q0 138 -88.5 227.5t-227.5 89.5q-152 3 -261 -105.5t-106 -267.5q0 -138 88.5 -227t228.5 -89q151 -3 259.5 105.5t106.5 266.5z
M421 157l54 248q10 51 35 89h-24q-43 -72 -114 -86l9 44q77 13 133 98h35l-83 -393h-45z" />
    <glyph glyph-name="uni2461" unicode="&#x2461;" horiz-adv-x="892" 
d="M83 325q-3 173 118 295t291 119q156 2 260.5 -100.5t102.5 -257.5q3 -174 -118 -295t-291 -118q-156 -2 -261 100t-102 257zM810 381q0 138 -88.5 227.5t-227.5 89.5q-152 3 -261 -105.5t-106 -267.5q0 -138 88.5 -227t228.5 -89q151 -3 259.5 105.5t106.5 266.5z
M318 156l10 48q132 80 182.5 128.5t52.5 105.5q0 34 -21 56t-55 22q-39 0 -62.5 -27.5t-23.5 -74.5l-45 11q3 58 40 94.5t93 36.5q51 0 85 -33.5t34 -83.5q0 -60 -57 -122q-47 -48 -186 -120l12 -20q15 8 22.5 11t23.5 5.5t42 2.5h107l-9 -40h-245z" />
    <glyph glyph-name="uni2462" unicode="&#x2462;" horiz-adv-x="892" 
d="M83 325q-3 173 118 295t291 119q156 2 260.5 -100.5t102.5 -257.5q3 -174 -118 -295t-291 -118q-156 -2 -261 100t-102 257zM810 381q0 138 -88.5 227.5t-227.5 89.5q-152 3 -261 -105.5t-106 -267.5q0 -138 88.5 -227t228.5 -89q151 -3 259.5 105.5t106.5 266.5z
M321 263v11l45 10q-1 -3 -1 -12q0 -39 21.5 -61t59.5 -22t63 23.5t25 58.5q0 31 -21 50.5t-54 19.5h-36l10 39h35q42 0 66.5 19.5t24.5 55.5q0 27 -20 44.5t-52 17.5q-36 0 -58.5 -22.5t-25.5 -59.5l-44 11q6 50 41 80t88 30q50 0 83 -26.5t33 -67.5q0 -40 -26 -64.5
t-66 -26.5l-4 -22q31 -5 51.5 -28.5t20.5 -54.5q0 -49 -38.5 -82.5t-95.5 -33.5q-58 0 -91.5 30.5t-33.5 82.5z" />
    <glyph glyph-name="uni2463" unicode="&#x2463;" horiz-adv-x="892" 
d="M83 325q-3 173 118 295t291 119q156 2 260.5 -100.5t102.5 -257.5q3 -174 -118 -295t-291 -118q-156 -2 -261 100t-102 257zM810 381q0 138 -88.5 227.5t-227.5 89.5q-152 3 -261 -105.5t-106 -267.5q0 -138 88.5 -227t228.5 -89q151 -3 259.5 105.5t106.5 266.5z
M452 157l24 110h-181l8 38l216 245h60l-52 -245h61l-8 -38h-62l-23 -110h-43zM483 305l25 114q8 36 36 67l-18 15l-175 -199l16 -16q23 19 55 19h61z" />
    <glyph glyph-name="uni2464" unicode="&#x2464;" horiz-adv-x="892" 
d="M83 325q-3 173 118 295t291 119q156 2 260.5 -100.5t102.5 -257.5q3 -174 -118 -295t-291 -118q-156 -2 -261 100t-102 257zM810 381q0 138 -88.5 227.5t-227.5 89.5q-152 3 -261 -105.5t-106 -267.5q0 -138 88.5 -227t228.5 -89q151 -3 259.5 105.5t106.5 266.5z
M317 257l44 11q1 -37 23 -58t62 -21q44 0 71 29.5t27 74.5q0 34 -21.5 56t-54.5 22q-29 0 -48 -11.5t-37 -39.5l-46 13l70 217h220l-8 -40h-181l-23 -71q-15 -45 -46 -84h27q34 54 87 54q46 0 77 -33t31 -81q0 -64 -40.5 -104.5t-104.5 -40.5q-57 0 -91.5 28.5t-37.5 78.5z
" />
    <glyph glyph-name="uni2465" unicode="&#x2465;" horiz-adv-x="892" 
d="M83 325q-3 173 118 295t291 119q156 2 260.5 -100.5t102.5 -257.5q3 -174 -118 -295t-291 -118q-156 -2 -261 100t-102 257zM810 381q0 138 -88.5 227.5t-227.5 89.5q-152 3 -261 -105.5t-106 -267.5q0 -138 88.5 -227t228.5 -89q151 -3 259.5 105.5t106.5 266.5z
M315 293q0 117 58 190t151 73q57 0 90 -18l-9 -41q-42 18 -82 18q-66 0 -113 -46.5t-61 -123.5h22q10 29 36 48t61 19q50 0 82 -33.5t32 -84.5q0 -61 -41 -102.5t-100 -41.5q-60 0 -93 37.5t-33 105.5zM536 292q0 37 -21.5 59t-57.5 22q-39 0 -66.5 -29.5t-27.5 -72.5
q0 -37 21.5 -59.5t55.5 -22.5q41 0 68.5 29.5t27.5 73.5z" />
    <glyph glyph-name="uni2466" unicode="&#x2466;" horiz-adv-x="892" 
d="M83 325q-3 173 118 295t291 119q156 2 260.5 -100.5t102.5 -257.5q3 -174 -118 -295t-291 -118q-156 -2 -261 100t-102 257zM810 381q0 138 -88.5 227.5t-227.5 89.5q-152 3 -261 -105.5t-106 -267.5q0 -138 88.5 -227t228.5 -89q151 -3 259.5 105.5t106.5 266.5z
M583 507l9 5l-12 20q-37 -22 -80 -22h-124l9 40h260l-7 -36q-112 -78 -162 -162.5t-61 -194.5h-49q26 225 217 350z" />
    <glyph glyph-name="uni2467" unicode="&#x2467;" horiz-adv-x="892" 
d="M83 325q-3 173 118 295t291 119q156 2 260.5 -100.5t102.5 -257.5q3 -174 -118 -295t-291 -118q-156 -2 -261 100t-102 257zM810 381q0 138 -88.5 227.5t-227.5 89.5q-152 3 -261 -105.5t-106 -267.5q0 -138 88.5 -227t228.5 -89q151 -3 259.5 105.5t106.5 266.5z
M320 255q0 40 29 68t75 31l5 21q-63 15 -63 70q0 48 36.5 79.5t92.5 31.5q50 0 82.5 -27.5t32.5 -70.5q0 -35 -24.5 -59t-66.5 -28l-5 -21q34 -8 53 -30.5t19 -50.5q0 -50 -41 -84.5t-99 -34.5q-57 0 -91.5 29.5t-34.5 75.5zM564 455q0 28 -19.5 45t-50.5 17q-36 0 -60 -21
t-24 -53q0 -28 19.5 -45t50.5 -17q36 0 60 21t24 53zM540 272q0 32 -21.5 51.5t-58.5 19.5q-40 0 -67 -24t-27 -60q0 -31 21.5 -50.5t57.5 -19.5q40 0 67.5 24t27.5 59z" />
    <glyph glyph-name="uni2468" unicode="&#x2468;" horiz-adv-x="892" 
d="M83 325q-3 173 118 295t291 119q156 2 260.5 -100.5t102.5 -257.5q3 -174 -118 -295t-291 -118q-156 -2 -261 100t-102 257zM810 381q0 138 -88.5 227.5t-227.5 89.5q-152 3 -261 -105.5t-106 -267.5q0 -138 88.5 -227t228.5 -89q151 -3 259.5 105.5t106.5 266.5z
M322 169l9 43q35 -22 81 -22q85 0 136 78q26 40 35 90h-22q-26 -66 -97 -66q-51 0 -83.5 33.5t-32.5 85.5q0 63 38.5 103.5t99.5 40.5q60 0 96 -41q38 -43 38 -114q0 -112 -57 -181.5t-150 -69.5q-56 0 -91 20zM570 429q0 36 -24 61t-59 25q-41 0 -67 -28.5t-26 -72.5
q0 -37 21.5 -59t57.5 -22q42 0 69.5 27t27.5 69z" />
    <glyph glyph-name="uni24EA" unicode="&#x24ea;" horiz-adv-x="892" 
d="M83 325q-3 173 118 295t291 119q156 2 260.5 -100.5t102.5 -257.5q3 -174 -118 -295t-291 -118q-156 -2 -261 100t-102 257zM810 381q0 138 -88.5 227.5t-227.5 89.5q-152 3 -261 -105.5t-106 -267.5q0 -138 88.5 -227t228.5 -89q151 -3 259.5 105.5t106.5 266.5z
M305 313q-2 95 50 169.5t129 73.5q66 0 103.5 -43.5t37.5 -120.5q2 -94 -50 -169t-129 -73q-66 0 -103.5 43.5t-37.5 119.5zM581 392q0 58 -26.5 91.5t-71.5 33.5q-56 0 -94 -62.5t-38 -141.5q0 -58 25 -90.5t71 -32.5q55 0 94.5 62t39.5 140z" />
    <glyph glyph-name="uni24FF" unicode="&#x24ff;" horiz-adv-x="890" 
d="M855 392q2 -116 -55 -215t-154 -154.5t-209 -54.5q-159 0 -257.5 96t-98.5 251q-2 116 55 215t154.5 155t209.5 54q158 0 256.5 -96t98.5 -251zM304 313q0 -76 37.5 -119.5t103.5 -43.5q78 0 129 73t51 169q0 76 -38.5 120t-103.5 44q-77 1 -129 -73.5t-50 -169.5z
M580 392q0 -78 -39.5 -140t-94.5 -62q-46 0 -71 32.5t-25 90.5q0 79 38 141.5t94 62.5q45 0 71.5 -33.5t26.5 -91.5z" />
    <glyph glyph-name="lozenge" unicode="&#x25ca;" horiz-adv-x="603" 
d="M290 0l-225 349l226 351h65l225 -352l-226 -348h-65zM522 348l-138 219q-42 67 -46 101h-28q-5 -33 -48 -101l-138 -216l138 -219l6 -10q38 -61 42 -92h29q4 37 45 101z" />
    <glyph glyph-name="uni274C" unicode="&#x274c;" horiz-adv-x="833" 
d="M122 -13l-34 34l318 328l-318 329l34 35l319 -329l319 329l32 -34l-318 -329l318 -329l-33 -34l-319 329z" />
    <glyph glyph-name="uni2776" unicode="&#x2776;" horiz-adv-x="890" 
d="M855 392q2 -116 -55 -215t-154 -154.5t-209 -54.5q-159 0 -257.5 96t-98.5 251q-2 116 55 215t154.5 155t209.5 54q158 0 256.5 -96t98.5 -251zM474 405l-54 -248h45l83 393h-35q-56 -85 -133 -98l-9 -44q71 14 114 86h24q-25 -38 -35 -89z" />
    <glyph glyph-name="uni2777" unicode="&#x2777;" horiz-adv-x="890" 
d="M855 392q2 -116 -55 -215t-154 -154.5t-209 -54.5q-159 0 -257.5 96t-98.5 251q-2 116 55 215t154.5 155t209.5 54q158 0 256.5 -96t98.5 -251zM327 204l-10 -48h245l9 40h-107q-37 0 -52 -4t-36 -15l-12 20q139 72 186 120q57 62 57 122q0 50 -34 83.5t-85 33.5
q-56 0 -93 -36.5t-40 -94.5l45 -11q0 47 23.5 74.5t62.5 27.5q34 0 55 -22t21 -56q-2 -57 -52.5 -105.5t-182.5 -128.5z" />
    <glyph glyph-name="uni2778" unicode="&#x2778;" horiz-adv-x="890" 
d="M855 392q2 -116 -55 -215t-154 -154.5t-209 -54.5q-159 0 -257.5 96t-98.5 251q-2 116 55 215t154.5 155t209.5 54q158 0 256.5 -96t98.5 -251zM320 263q0 -52 33.5 -82.5t91.5 -30.5q57 0 95.5 33.5t38.5 82.5q0 31 -20.5 54.5t-51.5 28.5l4 22q40 2 66 26.5t26 64.5
q0 41 -33 67.5t-83 26.5q-53 0 -88 -30t-41 -80l44 -11q3 37 25.5 59.5t58.5 22.5q32 0 52 -17.5t20 -44.5q0 -36 -24.5 -55.5t-66.5 -19.5h-35l-10 -39h36q33 0 54 -19.5t21 -50.5q0 -35 -25 -58.5t-63 -23.5t-59.5 22t-21.5 61q0 9 1 12l-45 -10v-11z" />
    <glyph glyph-name="uni2779" unicode="&#x2779;" horiz-adv-x="890" 
d="M855 392q2 -116 -55 -215t-154 -154.5t-209 -54.5q-159 0 -257.5 96t-98.5 251q-2 116 55 215t154.5 155t209.5 54q158 0 256.5 -96t98.5 -251zM475 267l-24 -110h43l23 110h62l8 38h-61l52 245h-60l-216 -245l-8 -38h181zM507 419l-25 -114h-61q-32 0 -55 -19l-16 16
l175 199l18 -15q-28 -31 -36 -67z" />
    <glyph glyph-name="uni277A" unicode="&#x277a;" horiz-adv-x="890" 
d="M855 392q2 -116 -55 -215t-154 -154.5t-209 -54.5q-159 0 -257.5 96t-98.5 251q-2 116 55 215t154.5 155t209.5 54q158 0 256.5 -96t98.5 -251zM316 257q3 -50 37.5 -78.5t91.5 -28.5q64 0 104.5 40.5t40.5 104.5q0 48 -30.5 81t-77.5 33q-55 0 -86 -54h-28q31 39 46 84
l23 71h181l8 40h-220l-70 -217l46 -13q18 28 37 39.5t48 11.5q33 0 54.5 -22t21.5 -56q0 -45 -27 -74.5t-71 -29.5q-40 0 -62 21t-23 58z" />
    <glyph glyph-name="uni277B" unicode="&#x277b;" horiz-adv-x="890" 
d="M855 392q2 -116 -55 -215t-154 -154.5t-209 -54.5q-159 0 -257.5 96t-98.5 251q-2 116 55 215t154.5 155t209.5 54q158 0 256.5 -96t98.5 -251zM314 293q0 -68 33 -105.5t93 -37.5q59 0 100 41.5t41 102.5q0 51 -32 84.5t-82 33.5q-35 0 -61 -19t-36 -48h-22
q14 77 61 123.5t113 46.5q40 0 82 -18l9 41q-33 18 -90 18q-93 0 -151 -73t-58 -190zM535 292q0 -44 -27.5 -73.5t-68.5 -29.5q-34 0 -55.5 22.5t-21.5 59.5q0 43 27.5 72.5t66.5 29.5q36 0 57.5 -22t21.5 -59z" />
    <glyph glyph-name="uni277C" unicode="&#x277c;" horiz-adv-x="890" 
d="M855 392q2 -116 -55 -215t-154 -154.5t-209 -54.5q-159 0 -257.5 96t-98.5 251q-2 116 55 215t154.5 155t209.5 54q158 0 256.5 -96t98.5 -251zM582 507q-191 -125 -217 -350h49q11 110 61 194.5t162 162.5l7 36h-260l-9 -40h124q43 0 80 22l12 -20z" />
    <glyph glyph-name="uni277D" unicode="&#x277d;" horiz-adv-x="890" 
d="M855 392q2 -116 -55 -215t-154 -154.5t-209 -54.5q-159 0 -257.5 96t-98.5 251q-2 116 55 215t154.5 155t209.5 54q158 0 256.5 -96t98.5 -251zM319 255q0 -46 34.5 -75.5t91.5 -29.5q58 0 99 34.5t41 84.5q0 28 -19 50.5t-53 30.5l5 21q42 4 66.5 28t24.5 59
q0 43 -32.5 70.5t-82.5 27.5q-56 0 -92.5 -31.5t-36.5 -79.5q0 -55 63 -70l-5 -21q-46 -3 -75 -31t-29 -68zM563 455q0 -32 -23.5 -53t-60.5 -21q-31 0 -50.5 17t-19.5 45q0 32 24 53t60 21q31 0 50.5 -17t19.5 -45zM539 272q0 -35 -27.5 -59t-67.5 -24q-36 0 -57.5 19.5
t-21.5 50.5q0 36 27 60t67 24q37 0 58.5 -19.5t21.5 -51.5z" />
    <glyph glyph-name="uni277E" unicode="&#x277e;" horiz-adv-x="890" 
d="M855 392q2 -116 -55 -215t-154 -154.5t-209 -54.5q-159 0 -257.5 96t-98.5 251q-2 116 55 215t154.5 155t209.5 54q158 0 256.5 -96t98.5 -251zM322 169q37 -20 92 -20q93 0 149.5 69.5t56.5 181.5q0 71 -38 114q-35 41 -96 41q-60 0 -99 -40.5t-39 -103.5
q0 -52 32.5 -85.5t84.5 -33.5q71 0 97 66h21q-7 -50 -35 -90q-51 -78 -136 -78q-44 0 -81 22zM571 429q0 -42 -28 -69t-70 -27q-35 0 -57 22t-22 59q0 44 26.5 72.5t67.5 28.5q33 0 58 -25t25 -61z" />
    <glyph glyph-name="uni300A" unicode="&#x300a;" horiz-adv-x="498" 
d="M398 740l-303 -442l112 -446l-45 -14l-116 465l315 462zM585 740l-319 -466l105 -422l-44 -14l-110 442l331 485z" />
    <glyph glyph-name="uni300B" unicode="&#x300b;" horiz-adv-x="495" 
d="M195 766l110 -441l-331 -486l-37 26l319 465l-105 423zM360 766l116 -464l-315 -463l-37 26l303 442l-112 446z" />
    <glyph glyph-name="uni300C" unicode="&#x300c;" horiz-adv-x="333" 
d="M104 317l93 438h223l-9 -43h-176l-84 -395h-47z" />
    <glyph glyph-name="uni300D" unicode="&#x300d;" horiz-adv-x="248" 
d="M175 288l-92 -438h-224l10 43h176l84 395h46z" />
    <glyph glyph-name="uni300E" unicode="&#x300e;" horiz-adv-x="432" 
d="M90 241l109 514h299l-35 -162h-157l-76 -352h-140zM142 283h57l74 349h156l17 81h-212z" />
    <glyph glyph-name="uni300F" unicode="&#x300f;" horiz-adv-x="426" 
d="M362 363l-109 -513h-299l35 162h157l76 351h140zM310 321h-57l-74 -348h-156l-17 -81h212z" />
    <glyph glyph-name="uni3010" unicode="&#x3010;" horiz-adv-x="345" 
d="M24 -150l193 905h225q-118 -110 -185 -219.5t-94 -235.5q-16 -70 -16 -136q0 -157 102 -314h-225z" />
    <glyph glyph-name="uni3011" unicode="&#x3011;" horiz-adv-x="345" 
d="M346 755l-193 -905h-225q118 110 185 219.5t94 235.5q16 70 16 136q0 157 -102 314h225z" />
    <glyph glyph-name="uni3014" unicode="&#x3014;" horiz-adv-x="281" 
d="M194 581l-119 -565l102 -150l-37 -28l-114 170l125 594l180 164l29 -35z" />
    <glyph glyph-name="uni3015" unicode="&#x3015;" horiz-adv-x="280" 
d="M166 765l113 -169l-125 -594l-179 -164l-30 35l166 150l119 564l-102 150z" />
    <glyph glyph-name="uniE000" unicode="&#xe000;" horiz-adv-x="776" 
d="M386 0v326h-324v48h324v326h49v-326h323v-48h-323v-326h-49z" />
    <glyph glyph-name="uniE001" unicode="&#xe001;" horiz-adv-x="878" 
d="M109 326v48h697v-48h-697z" />
    <glyph glyph-name="uniE002" unicode="&#xe002;" horiz-adv-x="899" 
d="M154 -13l-34 34l318 328l-318 329l34 35l319 -329l319 329l32 -34l-318 -329l318 -329l-33 -34l-319 329z" />
    <glyph glyph-name="uniE003" unicode="&#xe003;" horiz-adv-x="949" 
d="M440 -15l-308 425l39 32l271 -377l454 623l40 -31z" />
    <glyph glyph-name="uniE004" unicode="&#xe004;" horiz-adv-x="1073" 
d="M172 619v48h774v-48h-774zM172 331v46h774v-46h-774zM172 42v48h774v-48h-774z" />
    <glyph glyph-name="uniE005" unicode="&#xe005;" horiz-adv-x="949" 
d="M147 0v700h700v-700h-700zM198 45h598v610h-598v-610z" />
    <glyph glyph-name="uniE006" unicode="&#xe006;" horiz-adv-x="949" 
d="M506 160l-180 291l41 27l75 -124q52 -81 53 -134h27q6 52 61 134l246 362l39 -28zM154 0v700h458v-45h-407v-610h598v280h51v-325h-700z" />
    <glyph glyph-name="uniE007" unicode="&#xe007;" horiz-adv-x="949" 
d="M147 0v700h700v-700h-700zM198 45h598v610h-598v-610zM460 301v98h74v-98h-74z" />
    <glyph glyph-name="uniE008" unicode="&#xe008;" horiz-adv-x="779" 
d="M352 48h352v-48h-700v48h347l-247 239l35 35l106 -106q46 -47 56 -90h27v582h48v-582h28q10 43 57 92l106 104l33 -35z" />
    <glyph glyph-name="uniE009" unicode="&#xe009;" horiz-adv-x="779" 
d="M356 167l-247 239l35 35l106 -106q46 -46 55 -89h28v582h48v-582h28q11 46 57 92l106 103l33 -35zM9 0v48h700v-48h-700z" />
    <glyph glyph-name="uniF8FF" unicode="&#xf8ff;" horiz-adv-x="772" 
d="M647 24q0 -17 -2 -55h-31q-8 46 -26 87l-27 -7q14 -40 20 -98l-15 -7q-69 18 -75 111q0 28 7 75l4 32l-31 3q-5 -75 -26 -102q-23 23 -36 54q-18 44 -35 142l-4 24q-15 109 -29 136q-16 30 -59 62q-12 8 -36 28q-31 23 -55 74l64 34l-22 32q-25 -1 -42 3q-59 15 -59 56
q0 16 10.5 26.5t28.5 10.5q42 0 68 -56l25 15q-30 43 -30 60q0 13 12 22t28 8q41 -5 41 -49q0 -36 -29 -68l22 -31l44 24q52 -33 90 -110q38 -76 60 -168q121 -132 142 -304q3 -30 3 -64z" />
    <glyph glyph-name="Ccedilla.ss04" horiz-adv-x="732" 
d="M636 219l50 -24q-38 -82 -108 -140q-68 -58 -179 -67l-14 -11q-19 -16 -51 -26l9 -20q25 12 43 12q25 0 43 -17t18 -41q0 -37 -29.5 -60.5t-75.5 -23.5q-64 0 -95 44l27 29q23 -36 68 -36q28 0 44 12t16 34q0 17 -13.5 27t-32.5 10q-24 0 -39 -7l-18 28l54 46
q-124 4 -197 87t-73 210q-1 114 43 212t127.5 158t187.5 58q62 1 115.5 -19t88 -52t56 -67t28.5 -68l-53 -15q-17 68 -76.5 121t-159.5 53q-91 2 -162 -51.5t-107 -140t-34 -187.5q0 -112 64 -182.5t169 -70.5q184 0 266 185z" />
    <glyph glyph-name="G.ss03" horiz-adv-x="777" 
d="M85 311q-2 103 43.5 195.5t131.5 150.5t192 56q68 0 124 -19t91.5 -50.5t57.5 -66t30 -71.5l-53 -16q-18 72 -82.5 124t-170.5 52q-92 2 -164.5 -49t-110 -132t-36.5 -174q0 -126 68.5 -201.5t183.5 -75.5q120 0 191.5 68t88.5 181h-267l9 47h319q-13 -154 -100 -248.5
t-240 -94.5q-141 0 -223.5 88.5t-82.5 235.5z" />
    <glyph glyph-name="Gbreve.ss03" horiz-adv-x="777" 
d="M85 311q-2 103 43.5 195.5t131.5 150.5t192 56q68 0 124 -19t91.5 -50.5t57.5 -66t30 -71.5l-53 -16q-18 72 -82.5 124t-170.5 52q-92 2 -164.5 -49t-110 -132t-36.5 -174q0 -126 68.5 -201.5t183.5 -75.5q120 0 191.5 68t88.5 181h-267l9 47h319q-13 -154 -100 -248.5
t-240 -94.5q-141 0 -223.5 88.5t-82.5 235.5zM396 874q0 2 2 22h42l-1 -10q0 -72 78 -72q86 0 114 82h49q-16 -56 -58.5 -89t-104.5 -33q-58 0 -89.5 27t-31.5 73z" />
    <glyph glyph-name="Gcircumflex.ss03" horiz-adv-x="777" 
d="M85 311q-2 103 43.5 195.5t131.5 150.5t192 56q68 0 124 -19t91.5 -50.5t57.5 -66t30 -71.5l-53 -16q-18 72 -82.5 124t-170.5 52q-92 2 -164.5 -49t-110 -132t-36.5 -174q0 -126 68.5 -201.5t183.5 -75.5q120 0 191.5 68t88.5 181h-267l9 47h319q-13 -154 -100 -248.5
t-240 -94.5q-141 0 -223.5 88.5t-82.5 235.5zM348 780l140 117h80l86 -117h-51l-79 86l-120 -86h-56z" />
    <glyph glyph-name="uni0122.ss03" horiz-adv-x="777" 
d="M85 311q-2 103 43.5 195.5t131.5 150.5t192 56q68 0 124 -19t91.5 -50.5t57.5 -66t30 -71.5l-53 -16q-18 72 -82.5 124t-170.5 52q-92 2 -164.5 -49t-110 -132t-36.5 -174q0 -126 68.5 -201.5t183.5 -75.5q120 0 191.5 68t88.5 181h-267l9 47h319q-13 -154 -100 -248.5
t-240 -94.5q-141 0 -223.5 88.5t-82.5 235.5zM262 -282l71 98h-30l17 83h64l-19 -84l-68 -97h-35z" />
    <glyph glyph-name="Gdotaccent.ss03" horiz-adv-x="777" 
d="M85 311q-2 103 43.5 195.5t131.5 150.5t192 56q68 0 124 -19t91.5 -50.5t57.5 -66t30 -71.5l-53 -16q-18 72 -82.5 124t-170.5 52q-92 2 -164.5 -49t-110 -132t-36.5 -174q0 -126 68.5 -201.5t183.5 -75.5q120 0 191.5 68t88.5 181h-267l9 47h319q-13 -154 -100 -248.5
t-240 -94.5q-141 0 -223.5 88.5t-82.5 235.5zM480 780l20 95h50l-20 -95h-50z" />
    <glyph glyph-name="Scedilla.ss04" horiz-adv-x="594" 
d="M181 513q0 -42 27 -69t90 -48l81 -27q68 -22 107.5 -67t39.5 -108q0 -89 -65 -146.5t-174 -60.5l-14 -10q-17 -16 -50 -26l9 -20q26 12 42 12q25 0 43 -17t18 -41q0 -38 -29 -61t-75 -23q-65 0 -96 44l28 29q23 -36 67 -36q28 0 44.5 12t16.5 34q0 17 -13.5 27t-32.5 10
q-24 0 -39 -7l-18 28l55 47q-84 8 -140.5 55t-68.5 120l50 21q9 -67 62.5 -109t131.5 -42q88 0 141 43t53 113q0 50 -31.5 82.5t-95.5 53.5l-87 28q-128 40 -128 155q0 91 64.5 147t164.5 56q97 0 152 -47.5t66 -107.5l-49 -17q-12 50 -52.5 88t-119.5 38
q-78 0 -126.5 -42.5t-48.5 -110.5z" />
    <glyph glyph-name="uni0162.ss04" horiz-adv-x="607" 
d="M112 700h577l-9 -47h-272l-138 -653l-29 -24q-14 -13 -51 -26l9 -19q24 12 43 12q25 0 43 -17t18 -41q0 -37 -29.5 -60.5t-75.5 -23.5q-64 0 -95 44l27 29q23 -36 68 -36q28 0 44.5 12t16.5 34q0 17 -13.5 27t-33.5 10q-24 0 -39 -7l-17 28l68 58h-4l138 653h-256z" />
    <glyph glyph-name="a.salt" horiz-adv-x="568" 
d="M52 181q-2 128 66 227t169 96q74 0 111 -43q36 -41 47 -102h34l-2 12q-5 43 -5 61q0 24 6 60h47l-104 -492h-43q8 34 37 83l8 14h-35q-55 -110 -161 -110q-75 0 -125 52t-50 142zM432 301q0 76 -38.5 117.5t-101.5 41.5q-82 3 -137 -82t-53 -193q0 -73 37.5 -113.5
t98.5 -40.5q82 -3 138.5 81t55.5 189z" />
    <glyph glyph-name="aacute.salt" horiz-adv-x="568" 
d="M52 181q-2 128 66 227t169 96q74 0 111 -43q36 -41 47 -102h34l-2 12q-5 43 -5 61q0 24 6 60h47l-104 -492h-43q8 34 37 83l8 14h-35q-55 -110 -161 -110q-75 0 -125 52t-50 142zM432 301q0 76 -38.5 117.5t-101.5 41.5q-82 3 -137 -82t-53 -193q0 -73 37.5 -113.5
t98.5 -40.5q82 -3 138.5 81t55.5 189zM311 566l95 122h72l-128 -122h-39z" />
    <glyph glyph-name="abreve.salt" horiz-adv-x="568" 
d="M52 181q-2 128 66 227t169 96q74 0 111 -43q36 -41 47 -102h34l-2 12q-5 43 -5 61q0 24 6 60h47l-104 -492h-43q8 34 37 83l8 14h-35q-55 -110 -161 -110q-75 0 -125 52t-50 142zM432 301q0 76 -38.5 117.5t-101.5 41.5q-82 3 -137 -82t-53 -193q0 -73 37.5 -113.5
t98.5 -40.5q82 -3 138.5 81t55.5 189zM228 661q0 15 1 22h38v-10q0 -71 70 -71q78 0 104 81h44q-15 -56 -53 -89t-95 -33q-53 0 -81 27t-28 73z" />
    <glyph glyph-name="acircumflex.salt" horiz-adv-x="568" 
d="M52 181q-2 128 66 227t169 96q74 0 111 -43q36 -41 47 -102h34l-2 12q-5 43 -5 61q0 24 6 60h47l-104 -492h-43q8 34 37 83l8 14h-35q-55 -110 -161 -110q-75 0 -125 52t-50 142zM432 301q0 76 -38.5 117.5t-101.5 41.5q-82 3 -137 -82t-53 -193q0 -73 37.5 -113.5
t98.5 -40.5q82 -3 138.5 81t55.5 189zM188 566l128 117h73l78 -117h-47l-71 86l-110 -86h-51z" />
    <glyph glyph-name="adieresis.salt" horiz-adv-x="568" 
d="M52 181q-2 128 66 227t169 96q74 0 111 -43q36 -41 47 -102h34l-2 12q-5 43 -5 61q0 24 6 60h47l-104 -492h-43q8 34 37 83l8 14h-35q-55 -110 -161 -110q-75 0 -125 52t-50 142zM432 301q0 76 -38.5 117.5t-101.5 41.5q-82 3 -137 -82t-53 -193q0 -73 37.5 -113.5
t98.5 -40.5q82 -3 138.5 81t55.5 189zM222 600l16 80h59l-17 -80h-58zM395 600l16 80h58l-16 -80h-58z" />
    <glyph glyph-name="uni0227.salt" horiz-adv-x="568" 
d="M52 181q-2 128 66 227t169 96q74 0 111 -43q36 -41 47 -102h34l-2 12q-5 43 -5 61q0 24 6 60h47l-104 -492h-43q8 34 37 83l8 14h-35q-55 -110 -161 -110q-75 0 -125 52t-50 142zM432 301q0 76 -38.5 117.5t-101.5 41.5q-82 3 -137 -82t-53 -193q0 -73 37.5 -113.5
t98.5 -40.5q82 -3 138.5 81t55.5 189zM313 605l20 95h50l-20 -95h-50z" />
    <glyph glyph-name="uni1EA1.salt" horiz-adv-x="568" 
d="M52 181q-2 128 66 227t169 96q74 0 111 -43q36 -41 47 -102h34l-2 12q-5 43 -5 61q0 24 6 60h47l-104 -492h-43q8 34 37 83l8 14h-35q-55 -110 -161 -110q-75 0 -125 52t-50 142zM432 301q0 76 -38.5 117.5t-101.5 41.5q-82 3 -137 -82t-53 -193q0 -73 37.5 -113.5
t98.5 -40.5q82 -3 138.5 81t55.5 189zM170 -195l20 95h50l-20 -95h-50z" />
    <glyph glyph-name="agrave.salt" horiz-adv-x="568" 
d="M52 181q-2 128 66 227t169 96q74 0 111 -43q36 -41 47 -102h34l-2 12q-5 43 -5 61q0 24 6 60h47l-104 -492h-43q8 34 37 83l8 14h-35q-55 -110 -161 -110q-75 0 -125 52t-50 142zM432 301q0 76 -38.5 117.5t-101.5 41.5q-82 3 -137 -82t-53 -193q0 -73 37.5 -113.5
t98.5 -40.5q82 -3 138.5 81t55.5 189zM316 566l-77 122h65l42 -122h-30z" />
    <glyph glyph-name="amacron.salt" horiz-adv-x="568" 
d="M52 181q-2 128 66 227t169 96q74 0 111 -43q36 -41 47 -102h34l-2 12q-5 43 -5 61q0 24 6 60h47l-104 -492h-43q8 34 37 83l8 14h-35q-55 -110 -161 -110q-75 0 -125 52t-50 142zM432 301q0 76 -38.5 117.5t-101.5 41.5q-82 3 -137 -82t-53 -193q0 -73 37.5 -113.5
t98.5 -40.5q82 -3 138.5 81t55.5 189zM190 597l9 40h295l-9 -40h-295z" />
    <glyph glyph-name="aogonek.salt" horiz-adv-x="568" 
d="M304 -107q-1 -5 -1 -11q0 -35 43 -35q19 0 45 8l-9 -42q-24 -8 -45 -8q-37 0 -57.5 18.5t-20.5 50.5q0 7 1 9q6 72 122 132q8 27 35 72l6 10h-35q-55 -110 -161 -110q-75 0 -125 52t-50 142q-2 128 66 227t169 96q74 0 111 -43q36 -41 47 -102h34l-2 12q-5 43 -5 61
q0 24 6 60h47l-104 -492q-106 -46 -117 -107zM432 301q0 76 -38.5 117.5t-101.5 41.5q-82 3 -137 -82t-53 -193q0 -73 37.5 -113.5t98.5 -40.5q82 -3 138.5 81t55.5 189z" />
    <glyph glyph-name="aring.salt" horiz-adv-x="568" 
d="M52 181q-2 128 66 227t169 96q74 0 111 -43q36 -41 47 -102h34l-2 12q-5 43 -5 61q0 24 6 60h47l-104 -492h-43q8 34 37 83l8 14h-35q-55 -110 -161 -110q-75 0 -125 52t-50 142zM432 301q0 76 -38.5 117.5t-101.5 41.5q-82 3 -137 -82t-53 -193q0 -73 37.5 -113.5
t98.5 -40.5q82 -3 138.5 81t55.5 189zM238 633q0 45 32 77.5t79 32.5q38 0 63.5 -25.5t25.5 -60.5q0 -47 -31.5 -79.5t-77.5 -32.5q-39 0 -65 25.5t-26 62.5zM399 654q0 24 -14.5 39t-38.5 15q-30 0 -49.5 -22t-19.5 -51q0 -24 15 -39.5t39 -15.5q29 0 48.5 22.5t19.5 51.5z
" />
    <glyph glyph-name="aringacute.salt" horiz-adv-x="568" 
d="M52 181q-2 128 66 227t169 96q74 0 111 -43q36 -41 47 -102h34l-2 12q-5 43 -5 61q0 24 6 60h47l-104 -492h-43q8 34 37 83l8 14h-35q-55 -110 -161 -110q-75 0 -125 52t-50 142zM432 301q0 76 -38.5 117.5t-101.5 41.5q-82 3 -137 -82t-53 -193q0 -73 37.5 -113.5
t98.5 -40.5q82 -3 138.5 81t55.5 189zM342 767l95 138h72l-128 -138h-39zM246 633q0 45 32 77.5t78 32.5q38 0 64 -25.5t26 -60.5q0 -47 -31.5 -79.5t-77.5 -32.5q-40 0 -65.5 25.5t-25.5 62.5zM407 654q0 24 -14.5 39t-39.5 15q-29 0 -48.5 -22t-19.5 -51q0 -24 15 -39.5
t39 -15.5q29 0 48.5 22.5t19.5 51.5z" />
    <glyph glyph-name="atilde.salt" horiz-adv-x="568" 
d="M52 181q-2 128 66 227t169 96q74 0 111 -43q36 -41 47 -102h34l-2 12q-5 43 -5 61q0 24 6 60h47l-104 -492h-43q8 34 37 83l8 14h-35q-55 -110 -161 -110q-75 0 -125 52t-50 142zM432 301q0 76 -38.5 117.5t-101.5 41.5q-82 3 -137 -82t-53 -193q0 -73 37.5 -113.5
t98.5 -40.5q82 -3 138.5 81t55.5 189zM337 600l-24 21q-23 22 -46 22q-41 0 -55 -60h-44q19 100 100 100q34 0 65 -25l25 -21q26 -22 45 -22q41 0 55 57h45q-23 -98 -100 -98q-32 0 -66 26z" />
    <glyph glyph-name="ccedilla.ss04" horiz-adv-x="518" 
d="M414 162l45 -22q-63 -136 -188 -151l-15 -12q-19 -16 -51 -26l9 -20q29 12 43 12q25 0 43 -17t18 -41q0 -38 -29 -61t-76 -23q-64 0 -95 44l27 29q23 -36 68 -36q28 0 44 12t16 34q0 17 -13.5 27t-32.5 10q-24 0 -39 -7l-18 28l55 46q-79 5 -126 58t-47 144
q-2 122 70 219.5t179 94.5q76 0 123.5 -40t60.5 -102l-48 -13q-10 48 -46 80t-91 32q-88 3 -144 -80.5t-54 -184.5q0 -81 38.5 -123t100.5 -42t106 38t67 93z" />
    <glyph glyph-name="g.ss02" horiz-adv-x="575" 
d="M-11 -55l47 16q4 -60 45.5 -92.5t111.5 -32.5q148 0 185 157q14 51 45 101l8 12h-35q-24 -43 -66.5 -70t-99.5 -27q-74 0 -124.5 50.5t-50.5 137.5q-2 122 66 215.5t171 91.5q79 0 114 -41q36 -42 46 -96h33q-6 47 -6 68q0 30 7 57h46l-105 -492q-43 -207 -236 -207
q-90 0 -143 41t-59 111zM442 300q0 76 -40.5 118t-105.5 42q-85 0 -137.5 -77.5t-52.5 -180.5q0 -75 37 -113t101 -38q89 0 143.5 74t54.5 175z" />
    <glyph glyph-name="gbreve.ss02" horiz-adv-x="575" 
d="M-11 -55l47 16q4 -60 45.5 -92.5t111.5 -32.5q148 0 185 157q14 51 45 101l8 12h-35q-24 -43 -66.5 -70t-99.5 -27q-74 0 -124.5 50.5t-50.5 137.5q-2 122 66 215.5t171 91.5q79 0 114 -41q36 -42 46 -96h33q-6 47 -6 68q0 30 7 57h46l-105 -492q-43 -207 -236 -207
q-90 0 -143 41t-59 111zM442 300q0 76 -40.5 118t-105.5 42q-85 0 -137.5 -77.5t-52.5 -180.5q0 -75 37 -113t101 -38q89 0 143.5 74t54.5 175zM239 661q0 15 1 22h38v-10q0 -71 70 -71q78 0 104 81h44q-15 -56 -53 -89t-95 -33q-53 0 -81 27t-28 73z" />
    <glyph glyph-name="gcircumflex.ss02" horiz-adv-x="575" 
d="M-11 -55l47 16q4 -60 45.5 -92.5t111.5 -32.5q148 0 185 157q14 51 45 101l8 12h-35q-24 -43 -66.5 -70t-99.5 -27q-74 0 -124.5 50.5t-50.5 137.5q-2 122 66 215.5t171 91.5q79 0 114 -41q36 -42 46 -96h33q-6 47 -6 68q0 30 7 57h46l-105 -492q-43 -207 -236 -207
q-90 0 -143 41t-59 111zM442 300q0 76 -40.5 118t-105.5 42q-85 0 -137.5 -77.5t-52.5 -180.5q0 -75 37 -113t101 -38q89 0 143.5 74t54.5 175zM199 566l128 117h73l78 -117h-47l-71 86l-110 -86h-51z" />
    <glyph glyph-name="uni0123.ss02" horiz-adv-x="575" 
d="M-11 -55l47 16q4 -60 45.5 -92.5t111.5 -32.5q148 0 185 157q14 51 45 101l8 12h-35q-24 -43 -66.5 -70t-99.5 -27q-74 0 -124.5 50.5t-50.5 137.5q-2 122 66 215.5t171 91.5q79 0 114 -41q36 -42 46 -96h33q-6 47 -6 68q0 30 7 57h46l-105 -492q-43 -207 -236 -207
q-90 0 -143 41t-59 111zM442 300q0 76 -40.5 118t-105.5 42q-85 0 -137.5 -77.5t-52.5 -180.5q0 -75 37 -113t101 -38q89 0 143.5 74t54.5 175zM432 787l-71 -99h30l-17 -83h-64l19 84l68 98h35z" />
    <glyph glyph-name="gdotaccent.ss02" horiz-adv-x="575" 
d="M-11 -55l47 16q4 -60 45.5 -92.5t111.5 -32.5q148 0 185 157q14 51 45 101l8 12h-35q-24 -43 -66.5 -70t-99.5 -27q-74 0 -124.5 50.5t-50.5 137.5q-2 122 66 215.5t171 91.5q79 0 114 -41q36 -42 46 -96h33q-6 47 -6 68q0 30 7 57h46l-105 -492q-43 -207 -236 -207
q-90 0 -143 41t-59 111zM442 300q0 76 -40.5 118t-105.5 42q-85 0 -137.5 -77.5t-52.5 -180.5q0 -75 37 -113t101 -38q89 0 143.5 74t54.5 175zM324 605l20 95h50l-20 -95h-50z" />
    <glyph glyph-name="i.locl" horiz-adv-x="240" 
d="M172 605l20 95h50l-20 -95h-50zM43 0l105 492h48l-104 -492h-49z" />
    <glyph glyph-name="scedilla.ss04" horiz-adv-x="478" 
d="M405 137q0 -66 -49.5 -107.5t-135.5 -42.5l-14 -10q-19 -16 -51 -26l10 -20q25 12 42 12q25 0 43 -17t18 -41q0 -37 -29 -60.5t-75 -23.5q-65 0 -96 44l27 29q23 -36 68 -36q28 0 44.5 12t16.5 34q0 17 -13.5 27t-33.5 10q-24 0 -39 -7l-17 28l56 48q-69 9 -110 48
t-41 91l46 13q2 -48 40 -79.5t105 -31.5q65 0 101 28t36 73q0 66 -90 92l-62 18q-58 16 -87 44.5t-29 75.5q0 62 49.5 102t124.5 40q76 0 123 -36.5t53 -92.5l-47 -13q-5 42 -38.5 71.5t-90.5 29.5q-58 0 -92 -27.5t-34 -67.5q0 -57 81 -80l61 -18q129 -39 129 -133z" />
    <glyph glyph-name="uni0163.ss04" horiz-adv-x="375" 
d="M229 450l-66 -310q-4 -17 -4 -33q0 -64 77 -64h88l-10 -43h-79h-6l-29 -23q-17 -16 -51 -26l10 -20q25 12 42 12q25 0 43 -17t18 -41q0 -37 -29 -60.5t-75 -23.5q-65 0 -96 44l27 29q25 -36 68 -36q28 0 44.5 12t16.5 34q0 17 -13.5 27t-33.5 10q-24 0 -39 -7l-17 28
l74 62q-78 18 -78 98q0 20 6 46l64 302h-125l9 42h124l32 145h48l-31 -145h143l-9 -42h-143z" />
    <glyph glyph-name="zero.onum" horiz-adv-x="625" 
d="M62 211q-2 118 76.5 203.5t194.5 84.5q101 0 165.5 -63t64.5 -160q0 -123 -77 -206t-199 -83q-100 0 -162.5 63t-62.5 161zM512 270q0 81 -49 133t-132 52q-94 2 -157.5 -69t-61.5 -167q0 -83 47 -135.5t131 -52.5q99 0 160.5 69.5t61.5 169.5z" />
    <glyph glyph-name="one.onum" horiz-adv-x="354" 
d="M152 0l63 297q14 66 39 107h-32q-27 -52 -79 -90t-94 -45l11 53q53 16 112 63q58 46 98 107h34l-104 -492h-48z" />
    <glyph glyph-name="two.onum" horiz-adv-x="493" 
d="M41 0l13 63q180 74 258 138t80 149q0 50 -35.5 80t-86.5 30q-114 0 -135 -120l-46 12q11 73 58 112.5t123 39.5q74 0 123 -43.5t49 -107.5q0 -95 -89 -173q-79 -67 -247 -128l14 -30q39 23 98 23h176l-9 -45h-344z" />
    <glyph glyph-name="three.onum" horiz-adv-x="545" 
d="M-4 -23v18l49 11q-2 -16 -2 -24q0 -67 43 -107t115 -40q77 0 129 48t52 117q0 64 -42.5 101.5t-106.5 37.5h-40l11 45h45q79 0 128 43.5t49 111.5q0 54 -39 88t-98 34q-67 0 -112.5 -42t-48.5 -106l-47 11q6 78 65 129t143 51q85 0 135.5 -48t50.5 -121q0 -71 -48 -113
t-113 -49l-6 -29q52 -11 88 -51t36 -95q0 -86 -64.5 -146t-165.5 -60q-98 0 -152 49t-54 136z" />
    <glyph glyph-name="four.onum" horiz-adv-x="546" 
d="M271 -195l41 195h-323l10 48l395 444h71l-95 -449h101l-10 -43h-101l-42 -195h-47zM162 43h159l58 271q10 54 47 108l-24 16h-1l-348 -395l-3 -2l20 -21q34 23 92 23z" />
    <glyph glyph-name="five.onum" horiz-adv-x="554" 
d="M0 -45l49 16q-1 -61 45 -99t109 -38q89 0 145 59t56 150q0 66 -41.5 108t-109.5 42q-53 0 -91 -21.5t-72 -68.5l-57 16l122 373h366l-10 -46h-327l-52 -164q-28 -88 -63 -134h37q52 89 157 89q84 0 138 -54.5t54 -138.5q0 -109 -70 -181t-181 -72q-90 0 -147 49.5
t-57 114.5z" />
    <glyph glyph-name="six.onum" horiz-adv-x="599" 
d="M77 242q-2 122 45 230t137 175t201 65q85 0 138 -28l-10 -48q-57 30 -128 30q-131 0 -220.5 -96t-121.5 -261h31q17 59 68 97.5t123 38.5q92 0 145.5 -56.5t53.5 -139.5q2 -107 -72.5 -185.5t-178.5 -76.5q-211 0 -211 255zM490 245q0 71 -44.5 114t-112.5 43
q-82 0 -142 -64t-60 -151q0 -69 44.5 -113t109.5 -44q86 0 145.5 63.5t59.5 151.5z" />
    <glyph glyph-name="seven.onum" horiz-adv-x="501" 
d="M451 439l13 10l-18 25q-40 -27 -128 -27h-256l9 45h454l-10 -44q-147 -109 -230 -219q-84 -111 -120 -211q-35 -98 -55 -213h-50q38 212 123 353.5t268 280.5z" />
    <glyph glyph-name="eight.onum" horiz-adv-x="581" 
d="M53 166q0 85 55.5 136.5t141.5 56.5l6 30q-50 12 -80.5 45.5t-30.5 83.5q0 86 61 140.5t156 54.5q86 0 140 -48.5t54 -121.5t-47 -116t-121 -51l-7 -29q55 -15 88 -54t33 -95q0 -91 -66 -151t-170 -60q-98 0 -155.5 51.5t-57.5 127.5zM507 538q0 59 -42 95t-105 36
q-71 0 -118.5 -43t-47.5 -107q0 -58 41.5 -93.5t103.5 -35.5q72 0 120 42t48 106zM451 200q0 67 -43 104.5t-116 37.5q-81 0 -134.5 -48t-53.5 -119q0 -66 45.5 -105.5t116.5 -39.5q79 0 132 49t53 121z" />
    <glyph glyph-name="nine.onum" horiz-adv-x="617" 
d="M33 -185l10 48q63 -23 127 -23q129 0 215.5 88t114.5 238h-33q-28 -57 -77 -87.5t-113 -30.5q-95 0 -151.5 58t-56.5 141q-2 103 71 181.5t177 75.5q103 0 164.5 -66.5t61.5 -187.5q1 -129 -42.5 -232.5t-129 -165t-198.5 -59.5q-77 0 -140 22zM489 296q0 74 -49.5 119
t-120.5 45q-87 0 -143.5 -61t-56.5 -147q0 -73 46.5 -116.5t119.5 -43.5q89 0 146.5 60t57.5 144z" />
    <glyph glyph-name="zero.tnum" 
d="M51 276q-1 107 37.5 207.5t113 166.5t166.5 63q113 0 179 -76.5t66 -215.5q2 -107 -36.5 -207t-113.5 -165t-167 -62q-114 0 -179.5 76t-65.5 213zM561 421q0 112 -52 179t-143 67q-74 2 -136.5 -58.5t-95 -150.5t-31.5 -182q0 -112 51.5 -177.5t143.5 -65.5
q75 -3 137.5 57.5t94.5 150t31 180.5z" />
    <glyph glyph-name="one.tnum" 
d="M329 47h180l-9 -47h-434l10 47h202l98 460q13 65 41 110h-33q-31 -55 -88 -96.5t-120 -54.5l12 55q65 19 129 65.5t113 113.5h37z" />
    <glyph glyph-name="two.tnum" 
d="M55 0l14 66q119 64 218 127q95 61 164 142q71 83 71 173q0 69 -45 114t-111 45q-68 0 -118 -44.5t-57 -132.5l-51 13q13 101 74 155.5t154 54.5q92 0 149 -59t57 -143q0 -116 -100 -219q-108 -117 -362 -241l17 -30q40 26 105 26h268l-10 -47h-437z" />
    <glyph glyph-name="three.tnum" 
d="M73 193l52 14q-1 -9 -1 -19q0 -71 45.5 -113t117.5 -42q80 0 130 47t50 119q0 63 -44.5 102.5t-108.5 39.5h-49l11 45h53q85 0 134.5 40.5t49.5 111.5q0 57 -42.5 93t-105.5 36q-70 0 -117 -41.5t-52 -107.5l-51 14q12 81 71.5 131t149.5 50q89 0 143.5 -48.5
t54.5 -121.5t-48.5 -117t-115.5 -51l-6 -29q53 -9 89.5 -50.5t36.5 -99.5q0 -87 -64.5 -148t-165.5 -61q-103 0 -161.5 55.5t-55.5 150.5z" />
    <glyph glyph-name="four.tnum" 
d="M340 0l43 204h-332l13 60l384 436h90l-96 -452h114l-10 -44h-113l-43 -204h-50zM393 248l63 300q11 56 46 102l-24 17l-3 -2l-365 -415l-3 -4l21 -21q32 23 88 23h177z" />
    <glyph glyph-name="five.tnum" 
d="M65 161l50 13q4 -66 51 -103.5t121 -37.5q88 0 143.5 57.5t55.5 148.5q0 68 -44.5 112.5t-112.5 44.5q-56 0 -93 -21.5t-71 -70.5l-61 16l123 380h378l-10 -47h-337l-51 -160q-29 -89 -69 -147h37q58 95 165 95q86 0 142.5 -57.5t56.5 -142.5q0 -111 -71 -182.5
t-183 -71.5q-102 0 -157 49.5t-63 124.5z" />
    <glyph glyph-name="six.tnum" 
d="M88 238q-1 129 41.5 236.5t129 173.5t200.5 64q89 0 149 -26l-11 -50q-64 28 -140 28q-131 0 -217 -94.5t-114 -252.5h32q15 51 65.5 89.5t120.5 38.5q94 0 149 -58t55 -145q0 -107 -68 -181t-174 -74q-104 0 -161 66.5t-57 184.5zM496 236q0 75 -45 119.5t-116 44.5
q-82 0 -136.5 -59.5t-54.5 -143.5q0 -74 45.5 -119t115.5 -45q82 0 136.5 59.5t54.5 143.5z" />
    <glyph glyph-name="seven.tnum" 
d="M564 645l13 9l-17 25q-38 -26 -130 -26h-254l10 47h450l-10 -52q-144 -95 -229 -200q-83 -101 -125 -208.5t-58 -239.5h-58q26 205 122.5 361t285.5 284z" />
    <glyph glyph-name="eight.tnum" 
d="M66 174q0 78 56 127t142 55l7 30q-54 12 -86.5 46t-32.5 88q0 84 64.5 138.5t159.5 54.5q92 0 148.5 -48t56.5 -120q0 -71 -49 -115.5t-124 -52.5l-6 -29q57 -12 94.5 -53t37.5 -97q0 -88 -69.5 -149.5t-177.5 -61.5q-102 0 -161.5 51.5t-59.5 135.5zM527 540
q0 58 -42.5 92.5t-109.5 34.5q-72 0 -122.5 -43t-50.5 -106q0 -60 41 -94t108 -34q78 0 127 43t49 107zM481 199q0 65 -46 103.5t-121 38.5q-85 0 -140 -47.5t-55 -118.5q0 -65 47 -103.5t120 -38.5q84 0 139.5 47.5t55.5 118.5z" />
    <glyph glyph-name="nine.tnum" 
d="M61 19l10 49q60 -31 138 -31q149 0 230 110q77 90 100 223h-33q-58 -117 -191 -117q-95 0 -152 59.5t-57 145.5q0 108 66.5 181t174.5 73q104 0 167 -72q66 -74 66 -202q1 -91 -23 -172.5t-69.5 -144t-116.5 -99t-159 -35.5q-95 0 -151 32zM520 491q0 74 -51 124.5
t-118 50.5q-85 0 -138 -58.5t-53 -143.5q0 -76 46 -120.5t117 -44.5q91 0 144 53.5t53 138.5z" />
    <glyph glyph-name="zero.subs" horiz-adv-x="419" 
d="M16 48q0 96 50.5 169.5t129.5 73.5q65 0 103 -44.5t38 -120.5q0 -95 -51 -168t-129 -73q-66 0 -103.5 43t-37.5 120zM292 126q0 58 -26 91.5t-71 33.5q-56 0 -94.5 -62.5t-38.5 -140.5q0 -59 25.5 -91.5t70.5 -32.5q57 0 95.5 62t38.5 140z" />
    <glyph glyph-name="one.subs" horiz-adv-x="262" 
d="M62 -109l53 248q11 52 36 89h-24q-43 -72 -115 -86l10 45q76 13 133 97h35l-83 -393h-45z" />
    <glyph glyph-name="two.subs" horiz-adv-x="356" 
d="M-6 -109l9 47q134 81 184 129.5t52 105.5q0 34 -21.5 56t-54.5 22q-39 0 -62.5 -27.5t-23.5 -74.5l-45 11q3 59 39.5 95t93.5 36q51 0 85 -33.5t34 -83.5q0 -60 -57 -122q-47 -48 -186 -120l12 -20q32 19 88 19h106l-8 -40h-245z" />
    <glyph glyph-name="three.subs" horiz-adv-x="361" 
d="M-2 -2q0 8 1 11l44 9v-12q0 -38 21.5 -60t58.5 -22q39 0 64 23t25 59q0 31 -21 50.5t-54 19.5h-37l10 38h36q42 0 66 20t24 55q0 27 -20 44.5t-51 17.5q-37 0 -59.5 -22t-24.5 -60l-44 12q4 50 40 80t89 30q49 0 82 -27t33 -68q0 -40 -26 -64.5t-66 -26.5l-4 -21
q32 -6 52 -29t20 -54q0 -50 -37.5 -83t-96.5 -33q-57 0 -91 30t-34 83z" />
    <glyph glyph-name="four.subs" horiz-adv-x="356" 
d="M-4 -2q0 8 1 11l44 9v-12q0 -38 21.5 -60t58.5 -22q39 0 64 23t25 59q0 31 -21 50.5t-54 19.5h-37l10 38h36q42 0 66 20t24 55q0 27 -20 44.5t-51 17.5q-37 0 -59.5 -22t-24.5 -60l-44 12q4 50 40 80t89 30q49 0 82 -27t33 -68q0 -40 -26 -64.5t-66 -26.5l-4 -21
q32 -6 52 -29t20 -54q0 -50 -37.5 -83t-96.5 -33q-57 0 -91 30t-34 83z" />
    <glyph glyph-name="five.subs" horiz-adv-x="366" 
d="M-4 -9l44 11q1 -36 23.5 -57t61.5 -21q44 0 71.5 29t27.5 75q0 34 -22 55.5t-55 21.5q-52 0 -85 -51l-46 13l70 217h221l-9 -40h-181l-23 -70q-14 -44 -46 -84h28q32 54 86 54q47 0 77.5 -32.5t30.5 -82.5q0 -64 -40.5 -104t-104.5 -40q-57 0 -91.5 28t-37.5 78z" />
    <glyph glyph-name="six.subs" horiz-adv-x="375" 
d="M14 27q0 117 58.5 190.5t150.5 73.5q55 0 90 -19l-9 -41q-41 19 -82 19q-67 0 -113.5 -46.5t-60.5 -124.5h22q10 29 36 48.5t61 19.5q50 0 82 -33.5t32 -84.5q0 -62 -40.5 -103t-100.5 -41t-93 37t-33 105zM235 26q0 37 -21.5 59t-57.5 22q-39 0 -66.5 -29.5t-27.5 -72.5
q0 -37 21.5 -59t56.5 -22q40 0 67.5 29.5t27.5 72.5z" />
    <glyph glyph-name="seven.subs" horiz-adv-x="324" 
d="M239 241l9 6l-12 20q-36 -23 -80 -23h-124l9 40h260l-7 -36q-112 -76 -161 -160.5t-62 -196.5h-49q27 226 217 350z" />
    <glyph glyph-name="eight.subs" horiz-adv-x="371" 
d="M2 -10q0 39 29.5 67t74.5 31l5 22q-63 14 -63 69q0 48 37 80t92 32q50 0 82.5 -27.5t32.5 -70.5q0 -35 -24.5 -59.5t-66.5 -28.5l-5 -21q34 -8 53 -30t19 -51q0 -50 -40.5 -84t-99.5 -34q-57 0 -91.5 29t-34.5 76zM246 189q0 29 -19.5 45.5t-50.5 16.5q-36 0 -60 -21
t-24 -52q0 -29 19.5 -46t50.5 -17q36 0 60 21.5t24 52.5zM222 7q0 32 -21.5 51t-58.5 19q-40 0 -67 -24t-27 -59q0 -32 21.5 -51t57.5 -19q41 0 68 23.5t27 59.5z" />
    <glyph glyph-name="nine.subs" horiz-adv-x="382" 
d="M2 -95l9 42q35 -21 81 -21q85 0 136 77q27 39 36 91h-22q-26 -66 -97 -66q-51 0 -84 33.5t-33 85.5q0 62 39.5 103t98.5 41q58 0 96 -41q38 -44 38 -114q0 -113 -56.5 -182t-149.5 -69q-55 0 -92 20zM251 164q0 36 -25 61.5t-58 25.5q-41 0 -67.5 -28.5t-26.5 -73.5
q0 -37 22 -59t57 -22q41 0 69.5 27.5t28.5 68.5z" />
    <glyph glyph-name="zero.dnom" horiz-adv-x="419" 
d="M39 157q0 96 50.5 169.5t129.5 73.5q65 0 103 -44.5t38 -120.5q0 -95 -51 -168t-129 -73q-66 0 -103.5 43t-37.5 120zM315 235q0 58 -26 91.5t-71 33.5q-56 0 -94.5 -62.5t-38.5 -140.5q0 -59 25.5 -91.5t70.5 -32.5q57 0 95.5 62t38.5 140z" />
    <glyph glyph-name="one.dnom" horiz-adv-x="262" 
d="M85 0l53 248q11 52 36 89h-24q-43 -72 -115 -86l10 45q76 13 133 97h35l-83 -393h-45z" />
    <glyph glyph-name="two.dnom" horiz-adv-x="356" 
d="M17 0l9 47q134 81 184 129.5t52 105.5q0 34 -21.5 56t-54.5 22q-39 0 -62.5 -27.5t-23.5 -74.5l-45 11q3 59 39.5 95t93.5 36q51 0 85 -33.5t34 -83.5q0 -60 -57 -122q-47 -48 -186 -120l12 -20q32 19 88 19h106l-8 -40h-245z" />
    <glyph glyph-name="three.dnom" horiz-adv-x="361" 
d="M22 107q0 8 1 11l44 9v-12q0 -38 21.5 -60t58.5 -22q39 0 64 23t25 59q0 31 -21 50.5t-54 19.5h-37l10 38h36q42 0 66 20t24 55q0 27 -20 44.5t-51 17.5q-37 0 -59.5 -22t-24.5 -60l-44 12q4 50 40 80t89 30q49 0 82 -27t33 -68q0 -40 -26 -64.5t-66 -26.5l-4 -21
q32 -6 52 -29t20 -54q0 -50 -37.5 -83t-96.5 -33q-57 0 -91 30t-34 83z" />
    <glyph glyph-name="four.dnom" horiz-adv-x="356" 
d="M164 0l23 110h-180l8 39l216 244h59l-51 -244h61l-9 -39h-61l-24 -110h-42zM195 149l25 114q8 35 36 66l-18 16l-176 -199l17 -16q25 19 55 19h61z" />
    <glyph glyph-name="five.dnom" horiz-adv-x="366" 
d="M19 100l44 11q1 -36 23.5 -57t61.5 -21q44 0 71.5 29t27.5 75q0 34 -22 55.5t-55 21.5q-52 0 -85 -51l-46 13l70 217h221l-9 -40h-181l-23 -70q-14 -44 -46 -84h28q31 54 86 54q47 0 77.5 -32.5t30.5 -82.5q0 -64 -40.5 -104t-104.5 -40q-57 0 -91.5 28t-37.5 78z" />
    <glyph glyph-name="six.dnom" horiz-adv-x="375" 
d="M37 136q0 117 58.5 190.5t150.5 73.5q55 0 90 -19l-9 -41q-41 19 -82 19q-67 0 -113.5 -46.5t-60.5 -124.5h22q10 29 36 48.5t61 19.5q50 0 82 -33.5t32 -84.5q0 -62 -40.5 -103t-100.5 -41t-93 37t-33 105zM258 135q0 37 -21.5 59t-57.5 22q-39 0 -66.5 -29.5
t-27.5 -72.5q0 -37 21.5 -59t56.5 -22q40 0 67.5 29.5t27.5 72.5z" />
    <glyph glyph-name="seven.dnom" horiz-adv-x="324" 
d="M262 350l9 6l-12 20q-36 -23 -80 -23h-124l9 40h260l-7 -36q-112 -76 -161 -160.5t-62 -196.5h-49q27 226 217 350z" />
    <glyph glyph-name="eight.dnom" horiz-adv-x="371" 
d="M25 99q0 39 29.5 67t74.5 31l5 22q-63 13 -63 69q0 48 37 80t92 32q50 0 82.5 -27.5t32.5 -70.5q0 -35 -24.5 -59.5t-66.5 -28.5l-5 -21q34 -8 53 -30t19 -51q0 -50 -40.5 -84t-99.5 -34q-57 0 -91.5 29t-34.5 76zM269 298q0 29 -19.5 45.5t-50.5 16.5q-36 0 -60 -21
t-24 -52q0 -29 19.5 -46t50.5 -17q36 0 60 21.5t24 52.5zM245 116q0 32 -21.5 51t-58.5 19q-40 0 -67 -24t-27 -59q0 -32 21.5 -51t57.5 -19q41 0 68 23.5t27 59.5z" />
    <glyph glyph-name="nine.dnom" horiz-adv-x="382" 
d="M25 14l9 42q35 -21 81 -21q85 0 136 77q27 39 36 91h-22q-26 -66 -97 -66q-51 0 -84 33.5t-33 85.5q0 62 39.5 103t98.5 41q58 0 96 -41q38 -44 38 -114q0 -113 -56.5 -182t-149.5 -69q-55 0 -92 20zM274 273q0 36 -25 61.5t-58 25.5q-41 0 -67.5 -28.5t-26.5 -73.5
q0 -37 22 -59t57 -22q41 0 69.5 27.5t28.5 68.5z" />
    <glyph glyph-name="zero.numr" horiz-adv-x="419" 
d="M104 464q0 96 50.5 169.5t129.5 73.5q65 0 103 -44.5t38 -120.5q0 -95 -51 -168t-129 -73q-66 0 -103.5 43t-37.5 120zM380 542q0 58 -26 91.5t-71 33.5q-56 0 -94.5 -62.5t-38.5 -140.5q0 -59 25.5 -91.5t70.5 -32.5q57 0 95.5 62t38.5 140z" />
    <glyph glyph-name="one.numr" horiz-adv-x="262" 
d="M151 307l53 248q11 52 36 89h-24q-43 -72 -115 -86l10 45q76 13 133 97h35l-83 -393h-45z" />
    <glyph glyph-name="two.numr" horiz-adv-x="356" 
d="M82 307l9 47q134 81 184 129.5t52 105.5q0 34 -21.5 56t-54.5 22q-39 0 -62.5 -27.5t-23.5 -74.5l-45 11q3 59 39.5 95t93.5 36q51 0 85 -33.5t34 -83.5q0 -60 -57 -122q-47 -48 -186 -120l12 -20q32 19 88 19h106l-8 -40h-245z" />
    <glyph glyph-name="three.numr" horiz-adv-x="361" 
d="M87 414q0 8 1 11l44 9v-12q0 -38 21.5 -60t58.5 -22q39 0 64 23t25 59q0 31 -21 50.5t-54 19.5h-37l10 38h36q42 0 66 20t24 55q0 27 -20 44.5t-51 17.5q-37 0 -59.5 -22t-24.5 -60l-44 12q4 50 40 80t89 30q49 0 82 -27t33 -68q0 -40 -26 -64.5t-66 -26.5l-4 -21
q32 -6 52 -29t20 -54q0 -50 -37.5 -83t-96.5 -33q-57 0 -91 30t-34 83z" />
    <glyph glyph-name="four.numr" horiz-adv-x="356" 
d="M229 307l23 110h-180l8 39l216 244h59l-51 -244h61l-9 -39h-61l-24 -110h-42zM260 456l25 114q7 34 36 66l-18 16l-176 -199l17 -16q25 19 55 19h61z" />
    <glyph glyph-name="five.numr" horiz-adv-x="366" 
d="M84 407l44 11q1 -36 23.5 -57t61.5 -21q44 0 71.5 29t27.5 75q0 34 -22 55.5t-55 21.5q-52 0 -85 -51l-46 13l70 217h221l-9 -40h-181l-23 -70q-14 -44 -46 -84h28q32 54 86 54q47 0 77.5 -32.5t30.5 -82.5q0 -64 -40.5 -104t-104.5 -40q-57 0 -91.5 28t-37.5 78z" />
    <glyph glyph-name="six.numr" horiz-adv-x="375" 
d="M102 443q0 117 58.5 190.5t150.5 73.5q55 0 90 -19l-9 -41q-41 19 -82 19q-67 0 -113.5 -46.5t-60.5 -124.5h22q10 29 36 48.5t61 19.5q50 0 82 -33.5t32 -84.5q0 -62 -40.5 -103t-100.5 -41t-93 37t-33 105zM323 442q0 37 -21.5 59t-57.5 22q-39 0 -66.5 -29.5
t-27.5 -72.5q0 -37 21.5 -59t56.5 -22q40 0 67.5 29.5t27.5 72.5z" />
    <glyph glyph-name="seven.numr" horiz-adv-x="324" 
d="M327 657l9 6l-12 20q-36 -23 -80 -23h-124l9 40h260l-7 -36q-112 -76 -161 -160.5t-62 -196.5h-49q27 226 217 350z" />
    <glyph glyph-name="eight.numr" horiz-adv-x="371" 
d="M90 406q0 39 29.5 67t74.5 31l5 22q-63 14 -63 69q0 48 37 80t92 32q50 0 82.5 -27.5t32.5 -70.5q0 -35 -24.5 -59.5t-66.5 -28.5l-5 -21q34 -8 53 -30t19 -51q0 -50 -40.5 -84t-99.5 -34q-57 0 -91.5 29t-34.5 76zM334 605q0 29 -19.5 45.5t-50.5 16.5q-36 0 -60 -21
t-24 -52q0 -29 19.5 -46t50.5 -17q36 0 60 21.5t24 52.5zM310 423q0 32 -21.5 51t-58.5 19q-40 0 -67 -24t-27 -59q0 -32 21.5 -51t57.5 -19q41 0 68 23.5t27 59.5z" />
    <glyph glyph-name="nine.numr" horiz-adv-x="382" 
d="M90 321l9 42q35 -21 81 -21q85 0 136 77q27 39 36 91h-22q-26 -66 -97 -66q-51 0 -84 33.5t-33 85.5q0 62 39.5 103t98.5 41q58 0 96 -41q38 -44 38 -114q0 -113 -56.5 -182t-149.5 -69q-55 0 -92 20zM339 580q0 36 -25 61.5t-58 25.5q-41 0 -67.5 -28.5t-26.5 -73.5
q0 -37 22 -59t57 -22q41 0 69.5 27.5t28.5 68.5z" />
    <glyph glyph-name="comma.ss04" horiz-adv-x="243" 
d="M-5 -116l47 64q24 33 56 46l-11 22q-22 -16 -38 -16h-7l21 98h73l-21 -100l-81 -114h-39z" />
    <glyph glyph-name="semicolon.ss04" horiz-adv-x="265" 
d="M1 -116l47 64q24 33 56 46l-11 22q-22 -16 -38 -16h-7l21 98h73l-21 -100l-81 -114h-39zM128 375l21 98h73l-21 -98h-73z" />
    <glyph glyph-name="exclamdown.case" horiz-adv-x="277" 
d="M273 700l-21 -98h-73l20 98h74zM206 506l-57 -327l-37 -179h-50l38 181l82 325h24z" />
    <glyph glyph-name="questiondown.case" horiz-adv-x="463" 
d="M385 700l-21 -98h-73l21 98h73zM222 323q-49 -33 -83 -60q-62 -50 -62 -118q0 -49 34 -80t90 -31q72 0 113 45.5t43 127.5l48 -10q-1 -94 -58 -151t-147 -57q-76 0 -125 44t-49 109q0 48 21 84q20 36 54 65q28 24 95 70q50 37 62.5 57.5t28.5 87.5h51q-16 -77 -35 -107.5
t-81 -75.5z" />
    <glyph glyph-name="period.tnum" 
d="M215 0l26 117h88l-26 -117h-88z" />
    <glyph glyph-name="comma.tnum" 
d="M162 -140l99 140h-43l25 117h89l-26 -119l-96 -138h-48z" />
    <glyph glyph-name="colon.tnum" 
d="M296 388l26 117h88l-26 -117h-88zM214 0l25 117h88l-25 -117h-88z" />
    <glyph glyph-name="semicolon.tnum" 
d="M302 388l26 117h88l-26 -117h-88zM163 -140l99 140h-43l25 117h89l-26 -119l-96 -138h-48z" />
    <glyph glyph-name="semicolon.tnum_ss04" 
d="M302 388l25 117h88l-25 -117h-88zM164 -140l56 78q31 42 67 54l-13 27q-25 -19 -45 -19h-8l25 117h87l-25 -120l-97 -137h-47z" />
    <glyph glyph-name="numbersign.tnum" 
d="M54 0l55 133q12 30 23 44.5t35 32.5l-16 25q-33 -17 -76 -17h-38l9 43h117l78 187h-125l9 44h135l87 208h50l-52 -124q-13 -31 -24 -45.5t-34 -30.5l15 -26q37 18 77 18h92l88 208h50l-52 -124q-12 -30 -23.5 -45t-33.5 -31l15 -26q35 18 76 18h40l-9 -44h-119l-78 -187
h120l-9 -43h-130l-91 -218h-50l55 133q13 32 24 47t34 30l-15 25q-35 -17 -77 -17h-92l-90 -218h-50zM213 261h162l78 187h-161z" />
    <glyph glyph-name="parenleft.case" horiz-adv-x="316" 
d="M73 183q0 135 40 276t117 242t181 115l-12 -48q-89 -21 -153 -120q-64 -98 -95 -227q-32 -131 -32 -237q0 -205 103 -245l-10 -48q-139 48 -139 292z" />
    <glyph glyph-name="parenright.case" horiz-adv-x="315" 
d="M290 523q0 -133 -41 -277q-41 -142 -117 -243q-76 -99 -180 -113l11 48q89 20 152 119q65 99 96 228q32 131 32 237q0 204 -102 245l9 48q140 -48 140 -292z" />
    <glyph glyph-name="braceleft.case" horiz-adv-x="323" 
d="M87 -13q0 19 4 38l31 138q16 80 16 98q0 36 -21 52t-71 16l10 46q52 0 79 18q26 17 38 44.5t25 89.5l3 14l31 146q14 62 42 90t86 28h48l-9 -42h-42q-62 0 -78 -76l-33 -156q-20 -87 -43 -121t-85 -45l-6 -28q68 -13 68 -85q0 -27 -11 -80l-33 -154q-3 -15 -3 -30
q0 -46 50 -46h42l-10 -42h-37q-45 0 -68 22.5t-23 64.5z" />
    <glyph glyph-name="braceright.case" horiz-adv-x="323" 
d="M282 718q0 -19 -4 -38l-30 -138q-17 -79 -17 -99q0 -35 21 -51.5t71 -16.5l-10 -45q-52 0 -80 -19q-25 -17 -37 -44t-25 -89l-3 -14l-31 -146q-14 -62 -42 -90t-86 -28h-48l9 42h42q62 0 78 76l34 155q18 86 41.5 120.5t85.5 45.5l6 29q-68 13 -68 85q0 27 11 80l33 154
q3 15 3 29q0 47 -49 47h-42l9 42h37q45 0 68 -22.5t23 -64.5z" />
    <glyph glyph-name="bracketleft.case" horiz-adv-x="332" 
d="M43 -99l192 905h185l-9 -42h-138l-175 -821h138l-9 -42h-184z" />
    <glyph glyph-name="bracketright.case" horiz-adv-x="330" 
d="M333 806l-192 -905h-184l9 42h138l174 821h-138l9 42h184z" />
    <glyph glyph-name="angleleft.case" horiz-adv-x="326" 
d="M412 791l-303 -442l112 -444l-45 -14l-116 463l315 462z" />
    <glyph glyph-name="angleright.case" horiz-adv-x="326" 
d="M195 814l116 -463l-315 -462l-37 26l303 441l-111 445z" />
    <glyph glyph-name="uni3010.case" horiz-adv-x="355" 
d="M43 -99l193 905h225q-118 -110 -185 -219.5t-94 -235.5q-16 -70 -16 -136q0 -157 102 -314h-225z" />
    <glyph glyph-name="uni3011.case" horiz-adv-x="356" 
d="M359 806l-192 -905h-226q118 110 185 219.5t94 234.5q16 71 16 137q0 157 -102 314h225z" />
    <glyph glyph-name="uni300C.case" horiz-adv-x="334" 
d="M115 367l93 438h223l-9 -43h-176l-84 -395h-47z" />
    <glyph glyph-name="uni300D.case" horiz-adv-x="337" 
d="M267 339l-93 -438h-223l9 43h176l84 395h47z" />
    <glyph glyph-name="uni300A.case" horiz-adv-x="504" 
d="M412 791l-303 -442l112 -446l-45 -14l-116 465l315 462zM599 791l-319 -466l105 -422l-44 -14l-110 442l331 485z" />
    <glyph glyph-name="uni300B.case" horiz-adv-x="503" 
d="M208 815l110 -441l-331 -486l-37 26l319 465l-105 423zM373 815l115 -464l-315 -463l-37 26l303 441l-111 447z" />
    <glyph glyph-name="uni3014.case" horiz-adv-x="289" 
d="M209 632l-119 -565l102 -150l-37 -28l-114 170l125 594l180 164l29 -35z" />
    <glyph glyph-name="uni3015.case" horiz-adv-x="289" 
d="M179 815l114 -169l-126 -594l-179 -164l-29 34l166 151l119 564l-102 150z" />
    <glyph glyph-name="uni300E.case" horiz-adv-x="435" 
d="M101 291l109 514h299l-35 -162h-157l-76 -352h-140zM153 333h57l74 349h156l17 81h-212z" />
    <glyph glyph-name="uni300F.case" horiz-adv-x="451" 
d="M380 415l-109 -514h-299l35 162h157l75 352h141zM328 373h-57l-74 -349h-156l-18 -81h213z" />
    <glyph glyph-name="hyphen.case" horiz-adv-x="395" 
d="M101 330l11 52h223l-10 -52h-224z" />
    <glyph glyph-name="uni00AD.case" horiz-adv-x="395" 
d="M101 330l11 52h223l-10 -52h-224z" />
    <glyph glyph-name="endash.case" horiz-adv-x="603" 
d="M95 333l11 46h441l-10 -46h-442z" />
    <glyph glyph-name="emdash.case" horiz-adv-x="979" 
d="M95 333l11 46h818l-10 -46h-819z" />
    <glyph glyph-name="quotesinglbase.ss04" horiz-adv-x="242" 
d="M-1 -110l44 61q25 33 53 43l-10 21q-21 -15 -36 -15h-6l20 93h69l-21 -95l-76 -108h-37z" />
    <glyph glyph-name="quotedblbase.ss04" horiz-adv-x="401" 
d="M-1 -110l44 61q25 33 53 43l-10 21q-21 -15 -36 -15h-6l20 93h69l-21 -95l-76 -108h-37zM158 -110l44 61q25 33 53 43l-10 21q-21 -15 -36 -15h-6l20 93h69l-21 -95l-76 -108h-37z" />
    <glyph glyph-name="quotedblleft.ss04" horiz-adv-x="389" 
d="M261 700l-45 -61q-22 -32 -52 -43l10 -21q20 15 36 15h6l-20 -93h-69l20 95l77 108h37zM420 700l-45 -61q-22 -32 -52 -43l10 -21q19 15 36 15h6l-20 -93h-69l21 95l76 108h37z" />
    <glyph glyph-name="quotedblright.ss04" horiz-adv-x="385" 
d="M123 498l44 61q25 33 53 43l-10 21q-21 -15 -36 -15h-6l20 93h69l-21 -95l-76 -108h-37zM282 498l44 61q25 33 53 43l-10 21q-21 -15 -36 -15h-6l20 93h69l-21 -95l-76 -108h-37z" />
    <glyph glyph-name="quoteleft.ss04" horiz-adv-x="230" 
d="M261 700l-45 -61q-22 -32 -52 -43l10 -21q20 15 36 15h6l-20 -93h-69l20 95l77 108h37z" />
    <glyph glyph-name="quoteright.ss04" horiz-adv-x="227" 
d="M123 498l44 61q25 33 53 43l-10 21q-21 -15 -36 -15h-6l20 93h69l-21 -95l-76 -108h-37z" />
    <glyph glyph-name="guillemotleft.case" horiz-adv-x="497" 
d="M307 535l-173 -202l82 -192h-50l-84 196l168 198h57zM497 535l-188 -220l74 -174h-50l-76 178l183 216h57z" />
    <glyph glyph-name="guillemotright.case" horiz-adv-x="500" 
d="M207 536l76 -178l-183 -216h-58l188 220l-74 174h51zM374 536l84 -197l-168 -197h-57l172 202l-82 192h51z" />
    <glyph glyph-name="guilsinglleft.case" horiz-adv-x="318" 
d="M307 535l-172 -202l83 -192h-51l-85 196l168 198h57z" />
    <glyph glyph-name="guilsinglright.case" horiz-adv-x="317" 
d="M190 536l85 -197l-168 -197h-57l172 202l-83 192h51z" />
    <glyph glyph-name="space.tnum" 
 />
    <glyph glyph-name="uni20BF.tnum" 
d="M569 211q0 -89 -67.5 -150t-170.5 -61h-3l-23 -105h-44l23 105h-82l-23 -105h-44l23 105h-106l148 700h107l22 105h44l-23 -105h70h13l22 105h44l-24 -111q58 -13 92.5 -53t34.5 -97q0 -65 -45 -110t-109 -54l-6 -29q50 -7 88.5 -43.5t38.5 -96.5zM240 653l-56 -266h179
q82 0 134.5 41.5t52.5 109.5q0 54 -36.5 84.5t-101.5 30.5h-172zM515 215q0 55 -38 90t-108 35h-194l-62 -293h216q81 0 133.5 47.5t52.5 120.5z" />
    <glyph glyph-name="cent.tnum" 
d="M218 -120l24 113q-65 14 -102 65.5t-37 131.5q-2 120 70 217.5t177 96.5l22 103h43l-22 -107q57 -9 95.5 -48.5t46.5 -87.5l-48 -15q-18 92 -104 108l-64 -300q-19 -93 -49 -127l14 -19q135 26 184 148l43 -21q-73 -151 -228 -151l-22 -107h-43zM251 37l63 295
q19 94 49 126l-14 20q-91 -20 -144 -101.5t-53 -186.5q0 -61 26.5 -101t72.5 -52z" />
    <glyph glyph-name="currency.tnum" 
d="M82 102l-28 33l95 83q-26 43 -26 100q0 101 64 176l-67 81l32 29l68 -81q63 46 135 46q79 0 131 -49l95 83l28 -33l-95 -84q28 -46 28 -102q0 -100 -65 -173l66 -78l-33 -30l-66 79q-59 -47 -134 -47q-81 0 -133 50zM495 385q0 64 -38.5 101.5t-102.5 37.5
q-78 0 -131 -60.5t-53 -143.5q0 -64 38.5 -102t102.5 -38q78 0 131 60.5t53 144.5z" />
    <glyph glyph-name="dollar.tnum" 
d="M209 -109l22 102q-75 12 -123 56.5t-60 111.5l50 21q8 -57 45 -94t97 -48l66 304l-35 13q-62 25 -94 60t-32 91q0 94 64 149t175 55l20 93h45l-20 -97q71 -14 113 -56.5t53 -88.5l-49 -20q-7 36 -39.5 70t-88.5 46l-59 -280l33 -12q147 -55 147 -175q0 -96 -69 -150
t-195 -54l-20 -97h-46zM316 395l33 151q10 47 19.5 72.5t26.5 43.5l-11 21q-86 -6 -138 -49.5t-52 -120.5q0 -83 122 -118zM486 191q0 50 -32.5 82.5t-105.5 56.5l-38 -183q-18 -79 -47 -111l12 -22q95 8 153 54.5t58 122.5z" />
    <glyph glyph-name="Euro.tnum" 
d="M115 261h-83l9 43h76q4 52 19 110h-71l9 43h75q39 114 112 185t163 71q97 1 148.5 -63t54.5 -137l-49 -12q-2 28 -10.5 55.5t-26 53t-48.5 41.5t-71 16q-146 0 -240 -212l22 -18q41 20 105 20h124l-8 -43h-242q-15 -48 -21 -110h239l-9 -43h-125q-62 0 -98 20l-24 -16
q3 -110 49 -171t127 -61q73 0 128 51t83 127l44 -19q-28 -83 -95 -144t-161 -61q-100 0 -153.5 71t-51.5 203z" />
    <glyph glyph-name="uni20BA.tnum" 
d="M125 0l38 184q13 59 45 100l-24 17q-30 -37 -70 -58l-38 -18l12 53l107 54l17 82l-107 -54l12 54l107 53l49 233h50l-24 -115q-12 -58 -41 -95l23 -17q31 40 80 64l160 78l-13 -54l-239 -120l-18 -80l241 120l-12 -54l-241 -120l-53 -259h14q52 0 113 18q63 20 120 74
q59 56 87 155l46 -20q-32 -125 -132.5 -200t-245.5 -75h-63z" />
    <glyph glyph-name="uni20BD.tnum" 
d="M621 525q0 -101 -70 -163.5t-180 -62.5h-168l-20 -98h179l-10 -43h-178l-34 -158h-50l33 158h-79l8 43h80l21 98h-80l10 45h79l76 356h175q97 0 152.5 -50t55.5 -125zM569 525q0 53 -42.5 90.5t-116.5 37.5h-131l-66 -309h151q93 0 149 49.5t56 131.5z" />
    <glyph glyph-name="uni20B9.tnum" 
d="M445 674l-15 -29q70 -38 76 -110h96l-10 -44h-88q-11 -59 -57.5 -97t-114.5 -46l-6 -29q60 -6 80.5 -34t27.5 -96l17 -189h-54l-16 197q-4 60 -35.5 87t-97.5 27h-147l10 47h158q68 0 120.5 36.5t65.5 96.5h-315l9 44h310q-1 56 -40 88.5t-100 32.5h-145l9 44h453l-9 -44
h-96q-46 0 -86 18z" />
    <glyph glyph-name="sterling.tnum" 
d="M216 493q0 -52 29 -127h198l-9 -44h-173q12 -42 12 -81q0 -133 -142 -185l15 -30q50 21 126 21h237l-9 -47h-458l9 47q76 19 124 68.5t48 119.5q0 45 -16 87h-96l10 44h68q-26 67 -26 124q0 92 64.5 156.5t166.5 64.5q88 0 145.5 -51t57.5 -137l-50 -16
q-1 74 -43.5 116.5t-110.5 42.5q-80 0 -128.5 -50t-48.5 -123z" />
    <glyph glyph-name="uni20A9.tnum" 
d="M626 391h-101l-34 -106h100l-9 -42h-105l-78 -243h-72l10 221q6 95 21 187h-30q-19 -86 -57 -188l-83 -220h-74l26 243h-104l9 42h99l11 106h-101l9 42h97l28 267h51l-42 -371q-13 -105 -42 -251l-7 -32h30q14 53 28 95q13 42 41 113l77 211h62l-7 -197q-1 -109 -21 -220
h31q12 64 29 140q16 66 39 139l115 373h52l-86 -267h97z" />
    <glyph glyph-name="yen.tnum" 
d="M676 700l-289 -343h138l-10 -44h-164l-22 -107h163l-9 -44h-164l-34 -162h-50l34 162h-174l9 44h174l23 107h-174l10 44h146l-153 343h56l108 -252q23 -50 23 -87q0 -11 -1 -18h30q12 53 58 108l207 249h65z" />
    <glyph glyph-name="_576" 
d="M138 131l-32 34l195 194l-196 195l34 34l196 -195l195 194l33 -33l-195 -194l195 -195l-33 -34l-196 195z" />
    <glyph glyph-name="plus.tnum" 
d="M310 82v247h-241v47h241v248h48v-248h240v-47h-240v-247h-48z" />
    <glyph glyph-name="minus.tnum" 
d="M92 329v47h475v-47h-475z" />
    <glyph glyph-name="multiply.tnum" 
d="M138 131l-32 34l195 194l-196 195l34 34l196 -195l195 194l33 -33l-195 -194l195 -195l-33 -34l-196 195z" />
    <glyph glyph-name="divide.tnum" 
d="M298 506v104h70v-104h-70zM89 330v47h488v-47h-488zM298 97v104h70v-104h-70z" />
    <glyph glyph-name="equal.tnum" 
d="M84 429v47h485v-47h-485zM84 229v47h485v-47h-485z" />
    <glyph glyph-name="notequal.tnum" 
d="M150 77l86 152h-153v47h179l43 77q24 44 63 70l-14 26q-32 -20 -67 -20h-204v47h291l79 141h49l-79 -141h144v-47h-170l-43 -76q-27 -48 -63 -71l14 -26q31 20 67 20h195v-47h-281l-86 -152h-50z" />
    <glyph glyph-name="greater.tnum" 
d="M117 80v54l361 175q55 25 93 27v30q-42 2 -93 26l-361 176v57l483 -239v-71z" />
    <glyph glyph-name="less.tnum" 
d="M549 625v-55l-361 -175q-55 -25 -93 -27v-30q42 -2 93 -26l361 -176v-56l-483 238v71z" />
    <glyph glyph-name="greaterequal.tnum" 
d="M90 176v52l349 133q61 22 106 23v30q-50 0 -108 21l-347 134v54l484 -190v-70zM90 83v48h484v-48h-484z" />
    <glyph glyph-name="lessequal.tnum" 
d="M558 176l-484 187v70l484 190v-52l-348 -135q-50 -20 -107 -21v-30q42 -1 106 -23l349 -133v-53zM74 83v48h484v-48h-484z" />
    <glyph glyph-name="plusminus.tnum" 
d="M298 229v172h-222v47h222v176h44v-176h221v-47h-221v-172h-44zM78 83v48h485v-48h-485z" />
    <glyph glyph-name="approxequal.tnum" 
d="M340 441l-30 13q-59 25 -89 25q-51 0 -102 -54l-29 37q58 67 135 67q37 0 100 -27l30 -13q57 -25 89 -25q51 0 102 54l29 -37q-60 -67 -135 -67q-37 0 -100 27zM340 221l-30 13q-59 25 -89 25q-51 0 -102 -54l-29 37q58 67 135 67q37 0 100 -27l30 -13q57 -25 89 -25
q51 0 102 54l29 -37q-60 -67 -135 -67q-37 0 -100 27z" />
    <glyph glyph-name="logicalnot.tnum" 
d="M509 178v158h-434v47h478v-205h-44z" />
    <glyph glyph-name="percent.tnum" 
d="M100 504q0 83 42.5 146t107.5 63q51 0 81.5 -34t30.5 -93q0 -83 -42 -144.5t-106 -61.5q-54 0 -84 32.5t-30 91.5zM69 0l481 700h47l-480 -700h-48zM317 587q0 41 -18 63t-50 22q-47 0 -75.5 -51.5t-28.5 -116.5q0 -41 18 -63.5t51 -22.5q45 0 74 53.5t29 115.5zM302 112
q0 82 42.5 145t108.5 63q51 0 81 -33.5t30 -92.5q0 -83 -41.5 -145t-105.5 -62q-54 0 -84.5 33t-30.5 92zM520 195q0 85 -69 85q-46 0 -74.5 -52t-28.5 -116q0 -86 69 -86q45 0 74 53t29 116z" />
    <glyph glyph-name="perthousand.tnum" 
d="M69 492q-1 83 36 153.5t95 67.5q40 0 62 -28.5t22 -82.5q1 -51 -14.5 -102t-46.5 -86t-69 -34q-85 0 -85 112zM474 700h46l-485 -700h-46zM112 490q0 -72 43 -72q25 -2 45.5 30.5t30.5 75t10 79.5q0 69 -43 69q-37 3 -62 -59t-24 -123zM598 215q0 -84 -36 -157.5
t-94 -70.5q-58 0 -76 55q-34 -54 -82 -54q-86 0 -86 105q-1 83 35 156.5t94 71.5q56 0 76 -56q34 55 84 55q39 0 62 -27.5t23 -77.5zM396 217q0 28 -11 45.5t-31 17.5q-25 2 -46 -31t-31 -76t-9 -80q0 -66 43 -66q34 -3 60 63t25 127zM554 216q0 30 -12 47t-32 17
q-25 2 -45.5 -33.5t-30 -78.5t-8.5 -76q0 -30 11.5 -48t30.5 -18q25 -2 46 32t31 77.5t9 80.5z" />
    <glyph glyph-name="at.case" horiz-adv-x="912" 
d="M81 295q-3 195 125.5 331t320.5 133q167 3 270.5 -95.5t101.5 -239.5q2 -121 -67.5 -205.5t-153.5 -82.5q-39 0 -60.5 18t-21.5 49q0 7 2 25h-23q-49 -92 -139 -92q-64 0 -102 43t-38 116q-2 100 59 181t148 78q50 0 82.5 -28.5t37.5 -69.5h27q-3 22 -3 38q0 20 6 48h43
l-66 -309q-1 -5 -1 -15q0 -42 50 -42q64 -2 120 74t54 174q0 125 -88.5 209t-237.5 84q-173 3 -286.5 -119.5t-111.5 -298.5q0 -147 96 -236t242 -89q165 0 265 80l20 -40q-108 -83 -284 -83q-168 -2 -278.5 101.5t-108.5 262.5zM621 391q0 58 -31 91t-83 33q-70 0 -117 -67
t-47 -150q0 -59 26.5 -90.5t72.5 -31.5q72 -2 126.5 67t52.5 148z" />
    <glyph glyph-name="registered.case" horiz-adv-x="899" 
d="M90 352q-2 102 49 192t141 143t194 51q158 3 271 -113t110 -273q2 -158 -109.5 -272t-271.5 -111q-160 -3 -274 111.5t-110 271.5zM811 352q3 142 -96.5 245t-241.5 101q-142 2 -241.5 -101t-97.5 -245q-2 -142 97 -243.5t242 -99.5q144 -2 242 99t96 244zM346 157v399
h153q59 0 95.5 -28t36.5 -78q0 -43 -29.5 -66.5t-66.5 -25.5v-25q31 -1 48 -18.5t29 -60.5l27 -97h-46l-28 105q-10 39 -32 55t-66 16h-81v-176h-40zM386 368h107q95 0 95 75q0 74 -95 74h-107v-149z" />
    <glyph glyph-name="section.tnum" 
d="M58 -65l47 16q3 -44 39 -77.5t102 -33.5q63 0 103.5 36t40.5 91q0 73 -98 108l-92 33q-129 47 -129 147q0 62 42 103.5t116 55.5l6 28q-53 30 -53 91q0 77 55.5 128.5t139.5 51.5q83 0 133.5 -43.5t55.5 -98.5l-48 -15q-2 40 -40.5 75t-101.5 35q-61 0 -102 -37t-41 -92
q2 -44 23 -63.5t87 -42.5l74 -26q70 -25 102.5 -60.5t32.5 -88.5q0 -64 -43.5 -108.5t-119.5 -57.5l-5 -28q58 -35 58 -99q0 -72 -55.5 -121t-139.5 -49q-86 0 -135 42.5t-54 99.5zM500 246q0 75 -101 110l-76 27q-31 11 -57 24q-64 -17 -103.5 -56.5t-39.5 -87.5
q0 -39 24.5 -64.5t76.5 -44.5l68 -25q42 -16 65 -27q65 15 104 54.5t39 89.5z" />
    <glyph glyph-name="degree.tnum" 
d="M231 608q0 63 44 107.5t108 44.5q66 0 109.5 -44t43.5 -108q0 -63 -44 -106.5t-110 -43.5q-64 0 -107.5 44t-43.5 106zM489 609q0 49 -29 79t-77 30q-46 0 -75.5 -30.5t-29.5 -78.5q0 -49 29.5 -79.5t75.5 -30.5q48 0 77 30t29 80z" />
    <glyph glyph-name="_642" horiz-adv-x="0" 
d="M-115 518l71 98h-30l17 83h64l-19 -84l-68 -97h-35z" />
    <glyph glyph-name="_647" horiz-adv-x="277" 
d="M119 767l95 138h72l-128 -138h-39zM23 633q0 45 32 77.5t78 32.5q38 0 64 -25.5t26 -60.5q0 -47 -31.5 -79.5t-77.5 -32.5q-40 0 -65.5 25.5t-25.5 62.5zM184 654q0 24 -14.5 39t-39.5 15q-29 0 -48.5 -22t-19.5 -51q0 -24 15 -39.5t39 -15.5q29 0 48.5 22.5t19.5 51.5z
" />
    <glyph glyph-name="uni0327.ss04" horiz-adv-x="0" 
d="M-244 -155l27 29q23 -36 68 -36q28 0 44.5 12t16.5 34q0 17 -13.5 27t-33.5 10q-24 0 -39 -7l-17 28l85 72l29 -14l-29 -23q-19 -16 -51 -26l10 -20q26 12 42 12q25 0 43 -17t18 -41q0 -37 -29 -60.5t-75 -23.5q-65 0 -96 44z" />
    <glyph glyph-name="cedilla.ss04" horiz-adv-x="318" 
d="M29 -154l28 28q23 -36 68 -36q29 0 46.5 12t17.5 34q0 16 -13.5 26.5t-34.5 10.5q-23 0 -41 -7l-17 28l88 74l25 -16l-26 -22l-20 -16l-18 -15q11 3 22 3q33 0 54.5 -19t21.5 -47q0 -36 -28 -59.5t-77 -23.5q-63 0 -96 45z" />
    <glyph glyph-name="_670" horiz-adv-x="0" 
d="M-315 573l18 80h64l-18 -80h-64zM-125 573l18 80h64l-19 -80h-63z" />
    <glyph glyph-name="_671" horiz-adv-x="0" 
d="M-46 572l20 95h50l-20 -95h-50z" />
    <glyph glyph-name="_672" horiz-adv-x="0" 
d="M-54 572l-84 122h71l47 -122h-34z" />
    <glyph glyph-name="_673" horiz-adv-x="0" 
d="M-100 572l105 122h78l-140 -122h-43z" />
    <glyph glyph-name="_674" horiz-adv-x="0" 
d="M-376 572l103 122h79l-143 -122h-39zM-229 572l104 122h79l-142 -122h-41z" />
    </font>
</defs>
</svg>
