<?xml version="1.0" standalone="no"?>
<!DOCTYPE svg PUBLIC "-//W3C//DTD SVG 1.1//EN" "http://www.w3.org/Graphics/SVG/1.1/DTD/svg11.dtd" >
<svg xmlns="http://www.w3.org/2000/svg" xmlns:xlink="http://www.w3.org/1999/xlink" version="1.1">
<metadata>
Created by FontForge 20170731 at Tue Mar 12 05:31:05 2019
 By Aleksey,,,
Copyright 2019 Dinamo (Johannes Breyer, Fabian Harb) &#38; Erkin Karamemet. All rights reserved.
</metadata>
<defs>
<font id="WhyteInktrap-HeavyItalic" horiz-adv-x="620" >
  <font-face 
    font-family="Whyte Inktrap Heavy"
    font-weight="900"
    font-style="italic"
    font-stretch="normal"
    units-per-em="1000"
    panose-1="2 11 0 4 5 1 1 2 1 3"
    ascent="800"
    descent="-200"
    x-height="501"
    cap-height="700"
    bbox="-418 -353 1344 1144"
    underline-thickness="24"
    underline-position="-97"
    slope="-12"
    unicode-range="U+000D-FB02"
  />
<missing-glyph horiz-adv-x="700" 
d="M21 0l149 703h551l-149 -703h-551zM191 114h260l100 475h-259z" />
    <glyph glyph-name="fi" unicode="fi" horiz-adv-x="707" 
d="M569 711h181l-31 -148h-181zM704 501l-107 -501h-175l81 379h-196l-81 -379h-171l81 379h-92l26 122h92l12 59q30 146 163 146h177l-26 -126h-100q-41 0 -48 -39l-8 -40h372z" />
    <glyph glyph-name="fl" unicode="fl" horiz-adv-x="697" 
d="M736 706l-16 -71l-135 -635h-172l124 580h-149q-41 0 -48 -39l-8 -40h114l-26 -122h-113l-81 -379h-171l81 379h-92l26 122h92l12 59q30 146 163 146h399z" />
    <glyph glyph-name="f_f" unicode="ff" horiz-adv-x="765" 
d="M701 541l-9 -40h114l-25 -122h-114l-81 -379h-170l81 379h-190l-81 -379h-171l81 379h-92l26 122h92l12 59q30 146 163 146h177l-26 -126h-100q-41 0 -48 -39l-8 -40h190l13 59q30 146 162 146h178l-27 -126h-99q-41 0 -48 -39z" />
    <glyph glyph-name="f_f_i" unicode="ffi" horiz-adv-x="1066" 
d="M928 711h181l-31 -148h-181zM1063 501l-106 -501h-176l81 379h-195l-81 -379h-170l81 379h-190l-81 -379h-171l81 379h-92l26 122h92l12 59q30 146 163 146h177l-26 -126h-100q-41 0 -48 -39l-8 -40h190l13 59q30 146 162 146h178l-27 -126h-99q-41 0 -48 -39l-9 -40h371
z" />
    <glyph glyph-name="f_f_l" unicode="ffl" horiz-adv-x="1055" 
d="M1094 706l-3 -6h1l-149 -700h-172l124 580h-146q-41 0 -48 -39l-9 -40h114l-25 -122h-114l-81 -379h-170l81 379h-190l-81 -379h-171l81 379h-92l26 122h92l12 59q30 146 163 146h177l-26 -126h-100q-41 0 -48 -39l-8 -40h190l13 59q30 146 162 146h397z" />
    <glyph glyph-name=".notdef" horiz-adv-x="700" 
d="M21 0l149 703h551l-149 -703h-551zM191 114h260l100 475h-259z" />
    <glyph glyph-name=".null" horiz-adv-x="0" 
 />
    <glyph glyph-name="nonmarkingreturn" horiz-adv-x="333" 
 />
    <glyph glyph-name="CR" unicode="&#xd;" horiz-adv-x="217" 
 />
    <glyph glyph-name="space" unicode=" " horiz-adv-x="217" 
 />
    <glyph glyph-name="exclam" unicode="!" horiz-adv-x="306" 
d="M110 259l10 282l34 159h187l-33 -159l-108 -282h-90zM3 0l38 176h192l-38 -176h-192z" />
    <glyph glyph-name="quotedbl" unicode="&#x22;" horiz-adv-x="475" 
d="M102 347l5 218l29 135h168l-28 -135l-85 -218h-89zM331 347l5 218l29 135h168l-28 -135l-85 -218h-89z" />
    <glyph glyph-name="numbersign" unicode="#" horiz-adv-x="781" 
d="M62 0l15 38q28 72 121 144l-38 46q-61 -70 -120 -70h-27l28 131h143l53 123h-120l29 139h150l63 149h139l-14 -32q-30 -73 -118 -142l39 -46q33 39 62.5 55t67.5 16h21l63 149h137l-11 -30q-27 -70 -119 -144l40 -46q60 71 118 71h27l-30 -139h-145l-52 -123h121
l-27 -131h-150l-67 -158h-139l17 39q29 70 119 143l-38 46q-33 -39 -62 -54.5t-68 -15.5h-22l-67 -158h-139zM324 289h122l51 123h-122z" />
    <glyph glyph-name="dollar" unicode="$" horiz-adv-x="652" 
d="M198 -92l20 91q-87 20 -137.5 72.5t-58.5 129.5l164 42q2 -31 19 -58t44 -40l31 146l-17 5q-86 27 -124.5 69.5t-38.5 125.5q0 103 75 165t198 64l17 79h105l-20 -91q76 -20 122.5 -69t57.5 -116l-159 -39q-12 61 -52 83l-31 -143l19 -6q175 -52 175 -196
q0 -112 -76 -173.5t-212 -61.5l-17 -79h-104zM315 451l6 28q15 71 69 105l-28 45q-45 -18 -71 -48t-26 -64q0 -51 50 -66zM436 195q0 49 -57 69l-5 -26q-15 -73 -69 -109l30 -45q47 18 74 47.5t27 63.5z" />
    <glyph glyph-name="percent" unicode="%" horiz-adv-x="962" 
d="M108 0l643 700h147l-642 -700h-148zM560 161q-2 100 56.5 173.5t138.5 71.5q77 0 122.5 -46t45.5 -125q0 -103 -57 -174t-140 -71q-79 0 -122.5 45t-43.5 126zM793 238q0 70 -38 70q-25 0 -45.5 -46t-20.5 -104q0 -68 36 -68q27 0 47.5 44t20.5 104zM82 464
q-2 100 56.5 173.5t138.5 71.5q77 0 122.5 -46t45.5 -125q0 -103 -57 -174t-140 -71q-79 0 -122.5 45t-43.5 126zM315 541q0 70 -38 70q-25 0 -45.5 -46t-20.5 -104q0 -68 36 -68q27 0 47.5 44t20.5 104z" />
    <glyph glyph-name="ampersand" unicode="&#x26;" horiz-adv-x="735" 
d="M18 176q0 72 41.5 121.5t127.5 86.5q-21 50 -21 102q0 98 63 164.5t162 66.5q95 0 149.5 -45t54.5 -110q0 -81 -67.5 -134.5t-170.5 -53.5q-14 0 -25 1l-12 -55q55 -1 119 -61q19 -18 44 -36q46 55 78 142l124 -68q-36 -85 -82 -146q52 -26 106 -45l-46 -121
q-76 21 -163 67q-100 -69 -230 -69q-116 0 -184 53t-68 140zM316 434l25 10q107 42 107 100q0 22 -16 36t-43 14q-38 0 -59.5 -31.5t-21.5 -83.5q0 -23 8 -45zM402 123l11 49q-75 -4 -127 51q-23 23 -42 52q-63 -31 -63 -92q0 -39 28.5 -61.5t81.5 -22.5q66 0 111 24z" />
    <glyph glyph-name="quotesingle" unicode="'" horiz-adv-x="255" 
d="M102 347l5 218l29 135h168l-28 -135l-85 -218h-89z" />
    <glyph glyph-name="parenleft" unicode="(" horiz-adv-x="362" 
d="M33 147q0 156 49 299q50 145 143 234q94 89 221 85l-30 -145q-70 -3 -124 -77q-54 -76 -82 -182q-29 -110 -29 -211q0 -150 99 -166l-30 -144q-217 29 -217 307z" />
    <glyph glyph-name="parenright" unicode=")" horiz-adv-x="361" 
d="M351 458q0 -154 -50 -299t-143 -234q-94 -89 -221 -85l31 145q69 3 123 76q55 74 83 182q29 111 29 212q0 150 -100 166l30 144q218 -29 218 -307z" />
    <glyph glyph-name="asterisk" unicode="*" horiz-adv-x="566" 
d="M241 347l-98 73l30 36q38 45 108 72l-25 50q-75 -51 -133 -53h-33l29 127l138 -9l-57 124l123 56l14 -39q8 -26 8 -52q0 -32 -12 -77h55q4 79 42 132l25 36l103 -74l-95 -106l148 9l-27 -127h-34q-72 1 -131 48l-28 -47q63 -29 89 -86l19 -39l-127 -52l-41 127z" />
    <glyph glyph-name="plus" unicode="+" horiz-adv-x="619" 
d="M261 85v200h-197v136h197v200h141v-200h197v-136h-197v-200h-141z" />
    <glyph glyph-name="comma" unicode="," horiz-adv-x="299" 
d="M-39 -175l148 175h-102l38 177h190l-39 -183l-141 -169h-94z" />
    <glyph glyph-name="hyphen" unicode="-" horiz-adv-x="489" 
d="M52 245l31 147h381l-31 -147h-381z" />
    <glyph glyph-name="period" unicode="." horiz-adv-x="297" 
d="M5 0l38 177h191l-38 -177h-191z" />
    <glyph glyph-name="slash" unicode="/" horiz-adv-x="481" 
d="M-47 -96l456 896h161l-457 -896h-160z" />
    <glyph glyph-name="zero" unicode="0" horiz-adv-x="694" 
d="M57 277q-2 108 39.5 209.5t121.5 167.5t178 63q128 0 205 -79t77 -221q2 -109 -39.5 -209t-121.5 -163.5t-178 -61.5q-131 0 -206.5 76t-75.5 218zM488 423q0 146 -94 146q-44 2 -79.5 -47t-52.5 -116t-16 -129q0 -146 93 -146q66 -3 108 93t41 199z" />
    <glyph glyph-name="one" unicode="1" horiz-adv-x="461" 
d="M159 0l78 370q19 91 74 169h-68q-40 -82 -86 -123.5t-109 -44.5l39 183q161 13 234 146h159l-147 -700h-174z" />
    <glyph glyph-name="two" unicode="2" horiz-adv-x="639" 
d="M5 0l39 183q214 85 313 156t99 148q0 39 -22.5 61t-61.5 22q-46 0 -74.5 -37.5t-35.5 -96.5l-179 29q6 49 27 92.5t56 80t90 58t123 21.5q120 0 190.5 -58t70.5 -148q0 -141 -156 -240q-42 -26 -98 -50t-150 -60l-62 -24l28 -60q109 70 230 70h136l-31 -147h-532z" />
    <glyph glyph-name="three" unicode="3" horiz-adv-x="622" 
d="M17 206l175 23q1 -48 26 -74.5t71 -26.5q45 0 74.5 26.5t29.5 67.5q0 29 -22.5 47.5t-59.5 18.5h-76l28 131h72q46 0 74.5 23.5t28.5 64.5q0 29 -20.5 46.5t-53.5 17.5q-37 0 -62.5 -23t-33.5 -67l-173 35q20 91 93.5 146t190.5 55q102 0 168 -47.5t66 -120.5
q0 -81 -55.5 -122.5t-148.5 -41.5h-20l-12 -59l15 1q85 0 131.5 -37.5t46.5 -97.5q0 -90 -80.5 -149.5t-202.5 -59.5q-125 0 -195.5 57t-74.5 166z" />
    <glyph glyph-name="four" unicode="4" horiz-adv-x="677" 
d="M323 0l32 152h-354l34 159l342 389h261l-87 -410h102l-29 -138h-103l-32 -152h-166zM384 290l15 74q11 51 32 88t60 79l-45 40l-5 -5l-245 -282l-8 -10l46 -37q25 29 46.5 41t61.5 12h42z" />
    <glyph glyph-name="five" unicode="5" horiz-adv-x="619" 
d="M16 181l173 34q4 -40 27.5 -63.5t65.5 -23.5q51 0 82 33.5t31 81.5q0 40 -25.5 63t-61.5 23q-57 0 -92 -50l-157 29l134 392h450l-32 -148h-317l-24 -64q-35 -89 -95 -135h80q49 90 138 90q79 0 130.5 -53t51.5 -142q0 -120 -82.5 -192.5t-208.5 -72.5q-122 0 -191 55.5
t-77 142.5z" />
    <glyph glyph-name="six" unicode="6" horiz-adv-x="652" 
d="M56 271q-2 193 110 321t296 125q114 0 190 -37l-32 -152q-74 37 -168 37q-104 0 -174.5 -57.5t-83.5 -165.5h58q30 120 161 120q85 0 143.5 -56t58.5 -149q0 -121 -80.5 -197.5t-205.5 -76.5q-130 0 -201.5 79t-71.5 209zM434 247q0 40 -26 65t-64 25q-50 0 -81 -34.5
t-31 -84.5q0 -39 25.5 -64t64.5 -25q47 0 79.5 35.5t32.5 82.5z" />
    <glyph glyph-name="seven" unicode="7" horiz-adv-x="551" 
d="M475 553l21 10l-29 57q-101 -68 -216 -68h-168l32 148h512l-40 -191q-141 -75 -230 -211.5t-114 -297.5h-189q20 183 139 330.5t282 222.5z" />
    <glyph glyph-name="eight" unicode="8" horiz-adv-x="641" 
d="M30 160q0 83 63.5 127t158.5 46l13 59q-75 3 -116 35t-41 91q0 83 77.5 140.5t202.5 57.5q115 0 181 -48.5t66 -121.5q0 -147 -208 -159l-12 -59q79 -3 126 -38.5t47 -97.5q2 -87 -83 -148.5t-218 -60.5q-118 0 -187.5 51t-69.5 126zM465 508q0 33 -23.5 52.5t-63.5 19.5
q-45 0 -74 -26.5t-29 -64.5q0 -34 24.5 -53t66.5 -19q43 0 71 26.5t28 64.5zM411 224q0 35 -25.5 56t-67.5 21q-47 0 -78.5 -28.5t-31.5 -69.5q0 -36 25 -56.5t67 -20.5q48 0 79.5 28t31.5 70z" />
    <glyph glyph-name="nine" unicode="9" horiz-adv-x="647" 
d="M34 25l33 153q75 -42 177 -42q130 0 197 99q36 53 40 115h-56q-18 -51 -59 -79.5t-98 -28.5q-77 0 -132 56t-55 149q0 119 77.5 194.5t201.5 75.5q129 0 202 -81q70 -76 70 -209q2 -195 -107 -320.5t-291 -123.5q-118 0 -200 42zM455 484q0 38 -25 62.5t-63 24.5
q-47 0 -78.5 -34t-31.5 -81q0 -40 25.5 -64.5t62.5 -24.5q49 0 79.5 34t30.5 83z" />
    <glyph glyph-name="colon" unicode=":" horiz-adv-x="299" 
d="M73 341l38 177h191l-38 -177h-191zM0 0l38 177h191l-38 -177h-191z" />
    <glyph glyph-name="semicolon" unicode=";" horiz-adv-x="310" 
d="M80 341l38 177h191l-38 -177h-191zM-39 -175l148 175h-102l38 177h190l-39 -183l-141 -169h-94z" />
    <glyph glyph-name="less" unicode="&#x3c;" horiz-adv-x="674" 
d="M607 621v-150l-169 -52q-137 -39 -264 -43v-56q126 -4 263 -43l170 -51v-153l-535 165v218z" />
    <glyph glyph-name="equal" unicode="=" horiz-adv-x="690" 
d="M96 401v134h529v-134h-529zM96 165v133h529v-133h-529z" />
    <glyph glyph-name="greater" unicode="&#x3e;" horiz-adv-x="674" 
d="M108 73v150l170 52q133 38 264 42v57q-122 1 -263 43l-171 51v153l536 -165v-218z" />
    <glyph glyph-name="question" unicode="?" horiz-adv-x="586" 
d="M336 431q48 28 66.5 46t18.5 42q0 28 -19 44t-50 16q-41 0 -65.5 -28.5t-28.5 -84.5l-178 28q10 98 82 160.5t201 62.5q118 0 182 -50t64 -126q0 -63 -35 -102.5t-116 -84.5q-45 -22 -63 -42t-24 -53h-159q16 73 36 102.5t88 69.5zM146 0l38 176h191l-38 -176h-191z" />
    <glyph glyph-name="at" unicode="@" horiz-adv-x="958" 
d="M37 244q-1 93 35.5 179.5t101 152t157.5 104.5t198 37q121 1 219 -40t156.5 -123.5t56.5 -192.5q2 -117 -76.5 -203.5t-193.5 -84.5q-51 0 -77.5 23.5t-26.5 64.5v13h-42q-18 -46 -52 -73.5t-78 -27.5q-60 0 -95 49t-35 127q-1 93 51 169.5t128 74.5q96 0 111 -101h48
q-9 28 -9 55q0 17 3 34h116l-52 -250q-2 -10 -2 -16q0 -28 32 -28q49 0 80 53t31 119q0 112 -82 175t-214 63q-159 0 -252.5 -101t-93.5 -252q0 -126 85.5 -198t222.5 -72q142 0 263 64l49 -108q-133 -76 -311 -76q-196 -2 -325 102.5t-127 287.5zM568 323q0 71 -59 71
q-37 0 -60 -42.5t-23 -92.5q0 -73 54 -73q37 0 62.5 44t25.5 93z" />
    <glyph glyph-name="A" unicode="A" horiz-adv-x="752" 
d="M506 0l-16 146h-261l-78 -146h-203l400 700h248l101 -700h-191zM305 290h170l-10 85q-3 26 -3 52q0 83 28 177h-65q-22 -129 -71 -222z" />
    <glyph glyph-name="B" unicode="B" horiz-adv-x="721" 
d="M20 0l148 700h313q105 0 166 -39.5t61 -110.5q0 -80 -57 -118.5t-156 -39.5l-13 -60q195 -2 195 -140q0 -89 -78.5 -140.5t-200.5 -51.5h-378zM292 424h135q45 0 70.5 20t25.5 54q0 59 -83 59h-120zM233 144h148q53 0 82 22t29 61q0 33 -25 49.5t-69 16.5h-133z" />
    <glyph glyph-name="C" unicode="C" horiz-adv-x="776" 
d="M55 290q-2 114 49.5 212.5t148 157.5t216.5 57q133 0 222 -66.5t109 -166.5l-193 -46q-32 128 -149 128q-62 2 -110.5 -39t-72.5 -102.5t-23 -128.5q0 -78 38 -119.5t106 -41.5q115 0 175 128l181 -73q-108 -207 -358 -207q-158 0 -248.5 82t-90.5 225z" />
    <glyph glyph-name="D" unicode="D" horiz-adv-x="769" 
d="M20 0l148 700h248q156 0 248 -78.5t92 -217.5q3 -167 -117.5 -287t-298.5 -117h-320zM238 150h95q103 0 165 70.5t62 175.5q0 74 -41 114.5t-118 40.5h-77z" />
    <glyph glyph-name="E" unicode="E" horiz-adv-x="654" 
d="M20 0l148 700h537l-32 -149h-354l-26 -124h274l-30 -139h-274l-29 -139h355l-32 -149h-537z" />
    <glyph glyph-name="F" unicode="F" horiz-adv-x="646" 
d="M20 0l148 700h543l-31 -151h-359l-33 -156h290l-31 -146h-290l-53 -247h-184z" />
    <glyph glyph-name="G" unicode="G" horiz-adv-x="802" 
d="M54 281q-1 86 28 165.5t82 140.5t132.5 96.5t172.5 33.5q138 0 224.5 -64.5t106.5 -153.5l-194 -54q-36 117 -148 117q-94 2 -152.5 -82.5t-56.5 -190.5q0 -82 39.5 -124t110.5 -42q58 0 103 32t61 76h-189l29 140h374l-78 -371h-154q17 65 76 138h-74q-21 -40 -44 -70
q-28 -36 -75 -60.5t-108 -24.5q-114 0 -190 79.5t-76 218.5z" />
    <glyph glyph-name="H" unicode="H" horiz-adv-x="774" 
d="M20 0l148 700h188l-56 -265h252l57 265h188l-149 -700h-188l60 284h-252l-60 -284h-188z" />
    <glyph glyph-name="I" unicode="I" horiz-adv-x="334" 
d="M20 0l148 700h188l-148 -700h-188z" />
    <glyph glyph-name="J" unicode="J" horiz-adv-x="593" 
d="M3 194q0 27 6 60l183 36q-9 -50 -9 -80q0 -80 62 -80q37 0 59 27.5t35 86.5l97 456h185l-95 -446q-29 -140 -91.5 -205.5t-190.5 -65.5q-115 0 -178 56t-63 155z" />
    <glyph glyph-name="K" unicode="K" horiz-adv-x="751" 
d="M833 700l-343 -301l229 -399h-217l-156 290l-100 -87l-43 -203h-183l148 700h185l-18 -80q-12 -56 -43 -99.5t-84 -89.5l43 -47l329 316h253z" />
    <glyph glyph-name="L" unicode="L" horiz-adv-x="627" 
d="M20 0l148 700h188l-116 -547h354l-32 -153h-542z" />
    <glyph glyph-name="M" unicode="M" horiz-adv-x="1002" 
d="M20 0l148 700h283l25 -246q2 -32 2 -58q0 -98 -38 -261h65q19 107 39 174t51 129l139 262h290l-148 -700h-180l41 195q40 186 166 390l-59 33l-323 -618h-151l-61 616l-67 -10q19 -105 19 -216q0 -103 -16 -180l-44 -210h-181z" />
    <glyph glyph-name="N" unicode="N" horiz-adv-x="842" 
d="M20 0l148 700h247l194 -518l58 25q-41 99 -41 183q0 43 11 96l46 214h181l-149 -700h-203l-224 602l-59 -23q42 -101 42 -193q0 -52 -12 -108l-58 -278h-181z" />
    <glyph glyph-name="O" unicode="O" horiz-adv-x="849" 
d="M56 300q-2 176 119 297.5t301 119.5q171 0 264.5 -87.5t93.5 -229.5q2 -116 -52 -212t-151 -151.5t-215 -53.5q-172 0 -266 87.5t-94 229.5zM636 401q0 76 -42.5 120.5t-120.5 44.5q-93 3 -156 -77.5t-61 -188.5q0 -76 42.5 -121t120.5 -45q95 -2 157 78.5t60 188.5z" />
    <glyph glyph-name="P" unicode="P" horiz-adv-x="688" 
d="M20 0l148 700h279q126 0 194.5 -57t68.5 -153q0 -113 -83 -186t-212 -73h-161l-49 -231h-185zM284 375h121q49 0 82.5 28.5t33.5 73.5q0 34 -25.5 54.5t-71.5 20.5h-102z" />
    <glyph glyph-name="Q" unicode="Q" horiz-adv-x="863" 
d="M56 299q-2 179 119.5 299.5t301.5 118.5q169 0 263 -87t94 -229q0 -151 -99 -263q38 -20 98 -20l-28 -135q-68 2 -102 29t-41 92h-50q-34 -58 -94 -89.5t-137 -31.5q-147 0 -236 89t-89 227zM513 159l-22 26q-34 38 -62.5 50t-80.5 12l30 136q16 2 24 2q75 0 119 -52
q32 -32 32 -97q0 -11 -1 -19h55q41 79 41 181q0 75 -45.5 122.5t-126.5 47.5q-101 0 -165 -81t-64 -195q0 -72 44 -116.5t119 -44.5q59 0 103 28z" />
    <glyph glyph-name="R" unicode="R" horiz-adv-x="744" 
d="M20 0l148 700h333q111 0 173 -44t62 -125q0 -98 -77 -139q-77 -39 -187 -38l-14 -61q105 -2 141 -27t49 -110l20 -156h-197l-13 162q-5 56 -23 76t-70 20h-105l-55 -258h-185zM288 394h137q55 0 85 25t30 65q0 69 -90 69h-128z" />
    <glyph glyph-name="S" unicode="S" horiz-adv-x="704" 
d="M15 198l192 43q6 -51 45 -84t98 -33q53 0 83.5 20.5t30.5 54.5q0 27 -20 43t-63 26l-72 17q-111 22 -161 69t-50 133q0 102 84 166t219 64q134 0 214 -55.5t96 -144.5l-192 -39q-12 46 -44.5 72.5t-81.5 26.5q-47 0 -74 -20t-27 -51q0 -27 19 -43t61 -25l79 -19
q100 -21 156 -71.5t57 -129.5q0 -110 -85.5 -172.5t-227.5 -62.5q-150 0 -236 58.5t-100 156.5z" />
    <glyph glyph-name="T" unicode="T" horiz-adv-x="661" 
d="M184 0l117 556h-224l30 144h638l-31 -144h-224l-118 -556h-188z" />
    <glyph glyph-name="U" unicode="U" horiz-adv-x="776" 
d="M65 217q0 35 9 81l86 402h187l-83 -390q-7 -31 -7 -58q0 -55 30 -83.5t87 -28.5q65 0 104 42t57 128l83 390h188l-88 -412q-33 -158 -116 -231.5t-235 -73.5q-145 0 -223.5 61t-78.5 173z" />
    <glyph glyph-name="V" unicode="V" horiz-adv-x="757" 
d="M191 0l-91 700h200l31 -315q3 -42 3 -89q0 -93 -21 -180h66q24 135 85 252l169 332h213l-386 -700h-269z" />
    <glyph glyph-name="W" unicode="W" horiz-adv-x="1074" 
d="M139 0l-32 700h191l1 -204q-1 -120 -53 -349h65q30 157 69 249l135 304h225l5 -304q0 -108 -35 -249h66q41 223 91 345l88 208h200l-322 -700h-224l-11 278q-2 69 9 132q13 82 29 153h-66q-31 -170 -83 -285l-129 -278h-219z" />
    <glyph glyph-name="X" unicode="X" horiz-adv-x="747" 
d="M-57 0l345 376l-187 324h209l44 -77q26 -47 26 -106q0 -42 -13 -101h64q13 72 33.5 119.5t59.5 91.5l65 73h228l-309 -341l208 -359h-214l-57 103q-28 53 -28 124q0 40 11 92h-63q-9 -41 -22 -80q-23 -72 -80 -137l-90 -102h-230z" />
    <glyph glyph-name="Y" unicode="Y" horiz-adv-x="696" 
d="M201 0l59 275l-162 425h197l38 -110q19 -54 19 -110q0 -53 -17 -122h64q15 75 36 128t61 110l76 104h215l-340 -426l-58 -274h-188z" />
    <glyph glyph-name="Z" unicode="Z" horiz-adv-x="664" 
d="M-13 0l42 198l491 391l-39 52q-94 -90 -206 -90h-162l32 149h561l-43 -194l-493 -394l43 -49q92 92 217 92h180l-33 -155h-590z" />
    <glyph glyph-name="bracketleft" unicode="[" horiz-adv-x="372" 
d="M-16 -150l192 905h280l-27 -125h-123l-140 -655h124l-27 -125h-279z" />
    <glyph glyph-name="backslash" unicode="\" horiz-adv-x="454" 
d="M214 -96l-77 896h146l77 -896h-146z" />
    <glyph glyph-name="bracketright" unicode="]" horiz-adv-x="372" 
d="M409 755l-192 -905h-280l27 125h123l140 655h-124l27 125h279z" />
    <glyph glyph-name="asciicircum" unicode="^" horiz-adv-x="615" 
d="M59 329l195 371h160l192 -371h-169l-41 88q-35 70 -35 193h-57q0 -115 -38 -192l-43 -89h-164z" />
    <glyph glyph-name="underscore" unicode="_" horiz-adv-x="646" 
d="M-53 -178l27 126h573l-26 -126h-574z" />
    <glyph glyph-name="grave" unicode="`" horiz-adv-x="335" 
d="M214 566l-89 154h180l17 -154h-108z" />
    <glyph glyph-name="a" unicode="a" horiz-adv-x="596" 
d="M15 115q0 96 93.5 148.5t265.5 58.5l4 21q2 10 2 12q0 49 -67 49q-74 0 -101 -70l-165 33q18 64 87.5 107.5t182.5 43.5q108 0 166 -42.5t58 -122.5q0 -25 -6 -54l-32 -148q-1 -4 -1 -8q0 -18 19 -18h46l-27 -125h-67q-49 0 -70.5 15t-21.5 48q0 15 5 38h-55
q-52 -118 -174 -118q-61 0 -101.5 36t-40.5 96zM349 203l5 28q-164 -7 -164 -86q0 -22 13.5 -34t37.5 -12q35 0 66.5 29t41.5 75z" />
    <glyph glyph-name="b" unicode="b" horiz-adv-x="635" 
d="M224 104h-62q14 -34 14 -69q0 -19 -4 -35h-167l149 700h174l-20 -90q-24 -110 -110 -207h78q31 59 67 87t86 28q79 0 128.5 -61t49.5 -155q2 -130 -73 -225.5t-175 -93.5q-110 0 -135 121zM425 292q0 104 -82 104q-50 0 -84 -56.5t-34 -127.5q0 -106 82 -106
q50 0 84 57.5t34 128.5z" />
    <glyph glyph-name="c" unicode="c" horiz-adv-x="586" 
d="M28 212q-2 125 85 217t214 89q101 0 168.5 -48.5t81.5 -126.5l-166 -37q-7 40 -30.5 63.5t-58.5 23.5q-55 0 -87.5 -56t-32.5 -126q0 -48 22.5 -75t62.5 -27q67 0 108 92l159 -49q-76 -169 -275 -169q-115 0 -183 61t-68 168z" />
    <glyph glyph-name="d" unicode="d" horiz-adv-x="636" 
d="M29 200q-2 131 68.5 226t162.5 93q59 0 98 -34t55 -89h65q-20 35 -20 81q0 33 11 83l30 140h174l-150 -700h-157q20 54 64 98h-75q-38 -60 -75 -87.5t-88 -27.5q-73 0 -118 60.5t-45 156.5zM411 290q0 106 -83 106q-49 0 -83 -57.5t-34 -128.5q0 -105 82 -105
q50 0 84 57.5t34 127.5z" />
    <glyph glyph-name="e" unicode="e" horiz-adv-x="581" 
d="M26 201q-2 126 84.5 223t210.5 94q108 0 169.5 -58t61.5 -154q0 -42 -14 -92h-348q-2 -22 -2 -29q0 -80 81 -80q65 0 107 78l154 -54q-35 -66 -100.5 -106t-159.5 -40q-117 0 -180.5 57t-63.5 161zM211 314h178q1 4 1 17q0 34 -19 53t-53 19q-80 0 -107 -89z" />
    <glyph glyph-name="f" unicode="f" horiz-adv-x="404" 
d="M55 0l81 379h-92l26 122h92l12 59q30 146 163 146h177l-26 -126h-100q-41 0 -48 -39l-8 -40h114l-26 -122h-113l-81 -379h-171z" />
    <glyph glyph-name="g" unicode="g" horiz-adv-x="640" 
d="M-49 -114q0 78 91 99l12 53q-54 14 -54 56q0 37 29.5 63t83.5 36l11 52q-42 28 -42 86q0 79 62.5 133t160.5 54q85 0 132 -33.5t60 -84.5h52q22 101 97 101h34l-27 -129h-64q-39 0 -51 -39l-12 -34q-50 -144 -226 -144q-72 0 -126 24q-39 -13 -39 -37q0 -26 47 -26h182
q87 0 135 -39.5t48 -100.5q0 -82 -57 -126.5t-169 -44.5h-247q-59 0 -91 23t-32 58zM388 349q0 31 -17 49t-48 18q-34 0 -59 -28.5t-25 -69.5q0 -67 64 -67q33 0 59 29.5t26 68.5zM139 -80h183q59 0 59 45q0 35 -48 35h-219q-26 -20 -26 -44q0 -36 51 -36z" />
    <glyph glyph-name="h" unicode="h" horiz-adv-x="608" 
d="M5 0l149 700h172l-20 -94q-26 -122 -112 -216h75q59 128 161 128q66 0 104.5 -41.5t38.5 -111.5q0 -29 -6 -59l-66 -306h-174l63 293q3 15 3 30q0 59 -58 59q-73 0 -101 -129l-54 -253h-175z" />
    <glyph glyph-name="i" unicode="i" horiz-adv-x="290" 
d="M120 563l31 148h181l-31 -148h-181zM4 0l108 501h175l-107 -501h-176z" />
    <glyph glyph-name="j" unicode="j" horiz-adv-x="294" 
d="M127 564l32 146h178l-31 -146h-179zM-132 -195l28 129h63q41 0 48 39l112 528h170l-118 -552q-15 -73 -53.5 -108.5t-108.5 -35.5h-141z" />
    <glyph glyph-name="k" unicode="k" horiz-adv-x="643" 
d="M684 501l-254 -205l181 -296h-199l-115 199l-94 -75l-27 -124h-171l149 700h171l-40 -191q-18 -73 -48 -111.5t-85 -78.5l38 -48l272 230h222z" />
    <glyph glyph-name="l" unicode="l" horiz-adv-x="289" 
d="M5 0l149 700h173l-150 -700h-172z" />
    <glyph glyph-name="m" unicode="m" horiz-adv-x="908" 
d="M5 0l106 501h146q-10 -49 -58 -101h74q26 60 58.5 89t82.5 29q48 0 78 -31.5t29 -89.5h55q50 121 156 121q65 0 104 -39.5t39 -108.5q0 -26 -6 -55l-68 -315h-174l63 295q4 17 4 33q0 54 -51 54q-72 0 -101 -131l-52 -251h-171l63 295q4 17 4 32q0 55 -53 55
q-69 0 -100 -131l-54 -251h-174z" />
    <glyph glyph-name="n" unicode="n" horiz-adv-x="608" 
d="M5 0l106 501h145q-14 -60 -60 -111h73q53 128 161 128q63 0 103.5 -40t40.5 -111q0 -33 -7 -61l-66 -306h-174l63 293q3 16 3 31q0 58 -58 58q-73 0 -101 -129l-54 -253h-175z" />
    <glyph glyph-name="o" unicode="o" 
d="M28 213q-2 129 85.5 218t213.5 87q123 0 193 -63t70 -171q2 -130 -85 -216.5t-214 -84.5q-122 0 -192.5 63t-70.5 167zM409 288q0 104 -84 104q-50 0 -83 -56t-33 -124q0 -103 83 -103q50 0 83.5 55.5t33.5 123.5z" />
    <glyph glyph-name="p" unicode="p" horiz-adv-x="636" 
d="M-37 -195l149 696h155q-27 -61 -69 -98h77q62 115 154 115q78 0 127.5 -61t49.5 -155q1 -131 -73 -226t-174 -93q-61 0 -95 35t-41 86h-64q17 -43 17 -89q0 -31 -8 -71l-30 -139h-175zM425 292q0 104 -82 104q-50 0 -84 -56.5t-34 -127.5q0 -106 82 -106q51 0 84.5 57.5
t33.5 128.5z" />
    <glyph glyph-name="q" unicode="q" horiz-adv-x="635" 
d="M308 -195l22 104q14 61 40 103.5t69 85.5h-82q-63 -115 -165 -115q-72 0 -117 60.5t-45 156.5q-2 131 68 226t162 93q61 0 99.5 -35t53.5 -88h68q-24 50 -23 105h172l-148 -696h-174zM412 290q0 106 -83 106q-50 0 -84 -57.5t-34 -128.5q0 -105 83 -105q50 0 84 57.5
t34 127.5z" />
    <glyph glyph-name="r" unicode="r" horiz-adv-x="452" 
d="M5 0l107 501h160q-18 -76 -72 -153h72q32 89 71 128t101 39q24 0 48 -4l-37 -175q-31 6 -66 6q-73 0 -113.5 -40.5t-56.5 -121.5l-39 -180h-175z" />
    <glyph glyph-name="s" unicode="s" horiz-adv-x="541" 
d="M-4 134l165 33q16 -73 89 -73q32 0 51 13.5t19 35.5q0 31 -49 44l-61 15q-151 36 -151 141q0 79 63 127t168 48q100 0 159 -37.5t73 -92.5l-157 -39q-19 62 -81 62q-29 0 -45.5 -12.5t-16.5 -31.5q0 -15 13.5 -24.5t46.5 -17.5l51 -12q164 -41 164 -153
q0 -82 -70.5 -129.5t-178.5 -47.5q-111 0 -177 41t-75 110z" />
    <glyph glyph-name="t" unicode="t" horiz-adv-x="451" 
d="M86 127q0 25 6 49l44 203h-100l26 122h100l33 155h172l-34 -155h119l-26 -122h-118l-45 -208q-2 -10 -2 -12q0 -27 33 -27h118l-28 -132h-146q-72 0 -112 33t-40 94z" />
    <glyph glyph-name="u" unicode="u" horiz-adv-x="604" 
d="M31 124q0 26 8 63l67 314h175l-63 -294q-4 -17 -4 -32q0 -56 54 -56q74 0 103 131l54 251h173l-106 -501h-151q12 51 65 112h-73q-66 -128 -169 -128q-59 0 -96 36.5t-37 103.5z" />
    <glyph glyph-name="v" unicode="v" horiz-adv-x="587" 
d="M133 0l-78 501h175l19 -168q3 -31 3 -59q0 -73 -24 -182h60q14 76 30 129q15 49 46 111l89 169h181l-282 -501h-219z" />
    <glyph glyph-name="w" unicode="w" horiz-adv-x="862" 
d="M96 0l-34 501h164l1 -114q-3 -73 -12 -130q-7 -48 -29 -159h59q18 87 33 141q17 56 40 113l65 149h192l3 -148q0 -52 -8 -110q-8 -56 -27 -145h59q26 118 38 159q16 60 51 141l45 103h171l-247 -501h-204l-4 123q0 95 38 290h-62q-17 -85 -40 -173q-17 -67 -40 -116
l-55 -124h-197z" />
    <glyph glyph-name="x" unicode="x" horiz-adv-x="582" 
d="M-57 0l251 268l-132 233h188l10 -23q14 -39 14 -82q0 -37 -12 -91h60q10 91 72 159l32 37h199l-236 -249l147 -252h-193l-21 53q-12 33 -12 74q0 34 11 84h-60q-9 -48 -24.5 -83.5t-49.5 -75.5l-44 -52h-200z" />
    <glyph glyph-name="y" unicode="y" horiz-adv-x="584" 
d="M450 501h183l-318 -562q-47 -82 -83.5 -107t-120.5 -27h-163l29 132h129q22 0 35.5 10.5t27.5 37.5l16 29l-143 487h181l33 -157q7 -29 7 -67q0 -51 -20 -151h59q28 146 70 227z" />
    <glyph glyph-name="z" unicode="z" horiz-adv-x="515" 
d="M-19 0l40 187l319 213l-34 49q-88 -76 -167 -76h-69l27 128h428l-35 -161l-351 -234l36 -48q94 74 191 74h92l-29 -132h-448z" />
    <glyph glyph-name="braceleft" unicode="{" horiz-adv-x="383" 
d="M53 -12q0 26 6 53l26 120q4 17 4 31q0 26 -16 37.5t-51 11.5l26 123q44 0 64.5 13.5t30.5 55.5l36 172q18 83 59.5 116.5t129.5 33.5h99l-25 -118h-43q-33 0 -49.5 -14t-24.5 -50l-28 -132q-13 -64 -50.5 -86t-112.5 -22l-13 -58q119 0 119 -89q0 -13 -5 -41l-25 -115
q-3 -14 -3 -23q0 -21 12 -30t39 -9h42l-25 -118h-74q-71 0 -109.5 37t-38.5 101z" />
    <glyph glyph-name="bar" unicode="|" horiz-adv-x="290" 
d="M-5 -96l191 896h151l-190 -896h-152z" />
    <glyph glyph-name="braceright" unicode="}" horiz-adv-x="384" 
d="M352 616q0 -24 -6 -53l-26 -119q-4 -17 -4 -31q0 -27 16 -38t51 -11l-26 -123q-43 0 -64 -14t-30 -55l-37 -173q-18 -82 -59.5 -115.5t-129.5 -33.5h-99l25 117h43q33 0 49.5 14t24.5 50l28 133q13 63 50 84.5t113 23.5l13 58q-118 -1 -118 88q0 18 4 41l25 116
q3 13 3 23q0 39 -51 39h-42l25 117h74q72 0 110 -37t38 -101z" />
    <glyph glyph-name="asciitilde" unicode="~" horiz-adv-x="645" 
d="M346 276l-39 22q-32 20 -62 20q-54 0 -86 -59l-106 75q27 62 74.5 96t107.5 34q52 0 111 -32l37 -21q32 -18 59 -18q54 0 86 61l106 -77q-26 -62 -74 -95.5t-108 -33.5q-57 0 -106 28z" />
    <glyph glyph-name="uni00A0" unicode="&#xa0;" horiz-adv-x="217" 
 />
    <glyph glyph-name="exclamdown" unicode="&#xa1;" horiz-adv-x="306" 
d="M323 600l-37 -177h-193l38 177h192zM217 341l-10 -282l-34 -160h-188l34 160l108 282h90z" />
    <glyph glyph-name="cent" unicode="&#xa2;" horiz-adv-x="613" 
d="M189 -115l23 106q-82 20 -127 77.5t-45 143.5q-2 120 81 211t201 95l23 106h98l-24 -115q71 -18 115.5 -61.5t54.5 -104.5l-152 -35q-11 49 -44 69l-27 -127q-19 -91 -74 -132l31 -41q66 40 94 123l149 -48q-72 -162 -258 -169l-21 -98h-98zM241 128l25 120q19 92 75 136
l-31 40q-55 -30 -83.5 -84t-28.5 -117q0 -68 43 -95z" />
    <glyph glyph-name="sterling" unicode="&#xa3;" 
d="M400 147h165l-31 -147h-536l34 154q146 50 155 135h-126l22 103h72q-29 61 -29 108q0 98 74 157.5t188 59.5q117 0 181 -53.5t64 -147.5l-179 -37v12q0 38 -18.5 61t-54.5 23q-39 0 -61.5 -25.5t-22.5 -67.5q0 -32 23 -90h159l-22 -103h-116q-6 -50 -51.5 -84.5
t-133.5 -65.5l31 -58q87 66 213 66z" />
    <glyph glyph-name="currency" unicode="&#xa4;" horiz-adv-x="657" 
d="M110 65l-84 106l97 80q-15 36 -15 77q0 84 54 151l-61 78l106 88l64 -81q45 22 103 22q64 0 107 -26l101 79l87 -106l-99 -81q16 -36 16 -78q0 -76 -49 -144l64 -79l-107 -89l-64 81q-54 -24 -108 -24q-64 0 -112 30zM437 365q0 34 -21.5 57.5t-56.5 23.5
q-42 0 -72 -31.5t-30 -73.5q0 -35 22 -58.5t57 -23.5q43 0 72 32t29 74z" />
    <glyph glyph-name="yen" unicode="&#xa5;" horiz-adv-x="738" 
d="M807 700l-252 -296h105l-22 -103h-166l-13 -61h166l-21 -98h-165l-29 -142h-188l29 142h-171l21 98h170l13 61h-170l21 103h110l-127 296h197l40 -115q18 -53 18 -105q0 -46 -16 -122h63q28 145 92 233l80 109h215z" />
    <glyph glyph-name="brokenbar" unicode="&#xa6;" horiz-adv-x="290" 
d="M105 423l81 377h151l-79 -377h-153zM-5 -96l80 375h153l-81 -375h-152z" />
    <glyph glyph-name="section" unicode="&#xa7;" horiz-adv-x="662" 
d="M22 -32l167 32q7 -78 85 -78q35 0 56.5 16.5t21.5 42.5q0 40 -68 64l-91 32q-87 30 -123.5 65t-36.5 89q0 55 45 91.5t131 37.5l11 51q-45 22 -65.5 50.5t-20.5 72.5q0 71 72.5 127t179.5 56q111 0 175 -49.5t70 -125.5l-166 -33q-8 75 -80 75q-34 0 -55 -17t-21 -43
q0 -41 61 -61l106 -37q81 -28 117.5 -61.5t36.5 -80.5q0 -128 -177 -138l-12 -51q87 -41 87 -124q0 -75 -68 -128t-188 -53q-116 0 -181.5 50.5t-68.5 127.5zM454 235q0 17 -12.5 29.5t-43.5 24.5l-83 33l-40 15q-67 -26 -67 -62q0 -38 56 -58l82 -31l17 -7l25 -9
q66 27 66 65z" />
    <glyph glyph-name="dieresis" unicode="&#xa8;" horiz-adv-x="491" 
d="M110 572l28 132h154l-28 -132h-154zM342 572l29 132h153l-28 -132h-154z" />
    <glyph glyph-name="copyright" unicode="&#xa9;" horiz-adv-x="907" 
d="M65 351q-2 109 53 202.5t150.5 148t205.5 52.5q109 2 205 -52.5t152 -148.5t54 -202q2 -108 -54 -203t-152 -149.5t-205 -52.5q-82 -2 -158.5 30.5t-132 87t-87.5 130.5t-31 157zM771 351q2 125 -84 213t-212 86q-126 2 -212 -86t-84 -213q-2 -124 84.5 -213.5
t211.5 -86.5q125 -3 211.5 86.5t84.5 213.5zM265 353q0 96 59.5 156t153.5 60q68 0 120.5 -36t70.5 -92l-109 -38q-24 82 -88 82q-43 0 -68 -35t-25 -97t25 -96.5t68 -34.5q70 0 90 82l110 -38q-21 -58 -74.5 -94t-119.5 -36q-97 0 -155 59.5t-58 157.5z" />
    <glyph glyph-name="ordfeminine" unicode="&#xaa;" horiz-adv-x="535" 
d="M81 464q0 105 58 176.5t136 71.5q97 0 121 -99h44q-6 27 -6 48q0 19 4 39h132l-85 -401h-119q7 37 46 87h-54q-52 -99 -138 -99q-65 0 -102 48.5t-37 128.5zM391 529q0 86 -66 86q-40 0 -67.5 -44.5t-27.5 -99.5q0 -86 64 -86q41 0 69 44.5t28 99.5z" />
    <glyph glyph-name="guillemotleft" unicode="&#xab;" horiz-adv-x="650" 
d="M400 495l-204 -261l89 -225h-159l-93 243l185 243h182zM683 495l-231 -292l78 -194h-159l-83 210l213 276h182z" />
    <glyph glyph-name="logicalnot" unicode="&#xac;" horiz-adv-x="659" 
d="M457 150v140h-388v136h526v-276h-138z" />
    <glyph glyph-name="uni00AD" unicode="&#xad;" horiz-adv-x="489" 
d="M52 245l31 147h381l-31 -147h-381z" />
    <glyph glyph-name="registered" unicode="&#xae;" horiz-adv-x="572" 
d="M92 511q0 103 69 173t178 70t178.5 -70t69.5 -173q0 -104 -69.5 -175t-178.5 -71t-178 71t-69 175zM512 511q0 76 -47 125.5t-126 49.5t-125.5 -49.5t-46.5 -125.5q0 -78 46.5 -128t125.5 -50t126 50t47 128zM248 396v227h118q34 0 55 -15t21 -39t-18 -37.5t-49 -13.5
v-25q28 -2 40.5 -10t16.5 -34l8 -53h-68l-6 54q-3 20 -10 26.5t-24 6.5h-19v-87h-65zM313 529h35q29 0 29 22t-29 22h-35v-44z" />
    <glyph glyph-name="macron" unicode="&#xaf;" horiz-adv-x="348" 
d="M92 578l23 106h323l-22 -106h-324z" />
    <glyph glyph-name="degree" unicode="&#xb0;" horiz-adv-x="463" 
d="M99 599q0 84 58 141t146 57t146 -57t58 -141q0 -85 -57.5 -141t-147.5 -56q-89 0 -146 56.5t-57 140.5zM378 601q0 34 -21.5 56t-53.5 22q-31 0 -53 -22t-22 -56q0 -37 21.5 -59t53.5 -22t53.5 22.5t21.5 58.5z" />
    <glyph glyph-name="plusminus" unicode="&#xb1;" horiz-adv-x="674" 
d="M279 252v114h-194v123h194v127h138v-127h194v-123h-194v-114h-138zM77 76v131h529v-131h-529z" />
    <glyph glyph-name="twosuperior" unicode="&#xb2;" horiz-adv-x="412" 
d="M93 394l25 117q112 46 161 80.5t49 73.5q0 37 -33 37q-40 0 -49 -66l-123 14q8 65 54 107.5t123 42.5q68 0 111.5 -33t43.5 -82q0 -61 -53 -104q-40 -32 -174 -83l-29 -11l19 -42q81 48 155 48h45l-21 -99h-304z" />
    <glyph glyph-name="threesuperior" unicode="&#xb3;" horiz-adv-x="405" 
d="M88 515l124 16q0 -49 43 -49q19 0 31 10.5t12 26.5q0 30 -36 30h-29l19 89h26q21 0 33.5 10t12.5 27q0 12 -8.5 20t-22.5 8q-35 0 -43 -45l-119 17q13 60 57 92.5t113 32.5q62 0 101.5 -26t39.5 -69q0 -41 -34.5 -65.5t-92.5 -23.5l-8 -39q51 1 81 -19.5t30 -58.5
q0 -52 -46 -83.5t-118 -31.5q-76 0 -119.5 35t-46.5 96z" />
    <glyph glyph-name="acute" unicode="&#xb4;" horiz-adv-x="332" 
d="M100 566l84 154h179l-145 -154h-118z" />
    <glyph glyph-name="mu" unicode="&#xb5;" horiz-adv-x="664" 
d="M82 -195v696h176v-303q0 -79 65 -79q39 0 59.5 32t20.5 85v265h175v-501h-161q1 46 42 112h-67q-32 -96 -111 -102q-7 -9 -24 -18v-187h-175z" />
    <glyph glyph-name="paragraph" unicode="&#xb6;" horiz-adv-x="829" 
d="M405 700h480l-29 -133h-91l-162 -761h-149l162 761h-79l-162 -761h-148l80 374h-5q-108 0 -173 62t-65 156q0 135 96.5 218.5t244.5 83.5z" />
    <glyph glyph-name="periodcentered" unicode="&#xb7;" horiz-adv-x="299" 
d="M59 281l38 177h191l-38 -177h-191z" />
    <glyph glyph-name="cedilla" unicode="&#xb8;" horiz-adv-x="375" 
d="M-18 -183l61 67q33 -29 64 -29q41 0 41 23q0 20 -30 20q-12 0 -24 -2l-25 52l124 74l61 -22l-41 -24q-23 -14 -45 -24q11 -2 16 -5q28 -6 48.5 -25t20.5 -50q0 -51 -36.5 -79t-104.5 -28q-82 0 -130 52z" />
    <glyph glyph-name="onesuperior" unicode="&#xb9;" horiz-adv-x="320" 
d="M169 394l38 176q10 56 55 121h-48q-24 -55 -45.5 -76t-63.5 -21l25 118q92 2 133 79h112l-85 -397h-121z" />
    <glyph glyph-name="ordmasculine" unicode="&#xba;" horiz-adv-x="516" 
d="M78 466q-2 99 70 173.5t182 72.5q94 0 152.5 -51.5t58.5 -135.5q0 -99 -70.5 -168.5t-183.5 -69.5q-96 0 -152.5 48.5t-56.5 130.5zM390 533q0 85 -68 85q-40 0 -66.5 -47t-26.5 -104q0 -81 67 -81q39 0 66.5 46.5t27.5 100.5z" />
    <glyph glyph-name="guillemotright" unicode="&#xbb;" horiz-adv-x="649" 
d="M280 495l83 -210l-213 -276h-182l231 292l-78 194h159zM525 495l93 -243l-185 -243h-182l204 261l-89 225h159z" />
    <glyph glyph-name="onequarter" unicode="&#xbc;" horiz-adv-x="947" 
d="M149 303l38 176q10 56 55 121h-48q-24 -55 -45.5 -76t-63.5 -21l25 118q92 2 133 79h112l-85 -397h-121zM52 0l643 700h147l-642 -700h-148zM695 0l17 82h-191l25 113l186 202h163l-47 -222h54l-20 -93h-55l-17 -82h-115zM732 175l6 26q9 42 62 87l-27 26l-146 -159
l27 -22q36 42 67 42h11z" />
    <glyph glyph-name="onehalf" unicode="&#xbd;" horiz-adv-x="918" 
d="M146 303l38 176q10 56 55 121h-48q-24 -55 -45.5 -76t-63.5 -21l25 118q92 2 133 79h112l-85 -397h-121zM50 0l643 700h147l-642 -700h-148zM527 0l25 117q112 46 161 80.5t49 73.5q0 37 -33 37q-40 0 -49 -66l-123 14q8 65 54 107.5t123 42.5q68 0 111.5 -33t43.5 -82
q0 -61 -53 -104q-40 -32 -174 -83l-29 -11l19 -42q81 48 155 48h45l-21 -99h-304z" />
    <glyph glyph-name="threequarters" unicode="&#xbe;" horiz-adv-x="1021" 
d="M66 424l124 16q0 -49 43 -49q19 0 31 10.5t12 26.5q0 30 -36 30h-29l19 89h26q21 0 33.5 10t12.5 27q0 12 -8.5 20t-22.5 8q-35 0 -43 -45l-119 17q13 60 57 92.5t113 32.5q62 0 101.5 -26t39.5 -69q0 -41 -34.5 -65.5t-92.5 -23.5l-8 -39q51 1 81 -19.5t30 -58.5
q0 -52 -46 -83.5t-118 -31.5q-76 0 -119.5 35t-46.5 96zM125 0l643 700h147l-642 -700h-148zM769 0l17 82h-191l25 113l186 202h163l-47 -222h54l-20 -93h-55l-17 -82h-115zM806 175l6 26q9 42 62 87l-27 26l-146 -159l27 -22q36 42 67 42h11z" />
    <glyph glyph-name="questiondown" unicode="&#xbf;" horiz-adv-x="589" 
d="M462 601l-37 -177h-191l37 177h191zM273 169q-47 -26 -66 -44.5t-19 -42.5q0 -29 19 -44.5t50 -15.5q41 0 65.5 28t28.5 84l178 -28q-10 -97 -82.5 -159.5t-200.5 -62.5q-118 0 -182 49.5t-64 126.5q0 63 35 101.5t116 84.5q45 23 63 43.5t24 52.5h159q-16 -74 -36 -103
t-88 -70z" />
    <glyph glyph-name="Agrave" unicode="&#xc0;" horiz-adv-x="752" 
d="M506 0l-16 146h-261l-78 -146h-203l400 700h248l101 -700h-191zM305 290h170l-10 85q-3 26 -3 52q0 83 28 177h-65q-22 -129 -71 -222zM423 764l-98 154h198l18 -154h-118z" />
    <glyph glyph-name="Aacute" unicode="&#xc1;" horiz-adv-x="752" 
d="M506 0l-16 146h-261l-78 -146h-203l400 700h248l101 -700h-191zM305 290h170l-10 85q-3 26 -3 52q0 83 28 177h-65q-22 -129 -71 -222zM418 764l92 154h197l-160 -154h-129z" />
    <glyph glyph-name="Acircumflex" unicode="&#xc2;" horiz-adv-x="752" 
d="M506 0l-16 146h-261l-78 -146h-203l400 700h248l101 -700h-191zM305 290h170l-10 85q-3 26 -3 52q0 83 28 177h-65q-22 -129 -71 -222zM248 764l156 138h216l90 -138h-151l-57 72l-92 -72h-162z" />
    <glyph glyph-name="Atilde" unicode="&#xc3;" horiz-adv-x="752" 
d="M506 0l-16 146h-261l-78 -146h-203l400 700h248l101 -700h-191zM305 290h170l-10 85q-3 26 -3 52q0 83 28 177h-65q-22 -129 -71 -222zM489 781l-25 13q-37 17 -46 17q-40 0 -51 -48h-120q9 70 51.5 109t108.5 39q50 0 99 -27l24 -13q33 -17 47 -17q39 0 51 48h119
q-9 -72 -51.5 -110t-108.5 -38q-49 0 -98 27z" />
    <glyph glyph-name="Adieresis" unicode="&#xc4;" horiz-adv-x="752" 
d="M506 0l-16 146h-261l-78 -146h-203l400 700h248l101 -700h-191zM305 290h170l-10 85q-3 26 -3 52q0 83 28 177h-65q-22 -129 -71 -222zM273 764l32 132h169l-31 -132h-170zM529 764l31 132h169l-31 -132h-169z" />
    <glyph glyph-name="Aring" unicode="&#xc5;" horiz-adv-x="752" 
d="M506 0l-16 146h-261l-78 -146h-203l400 700h248l101 -700h-191zM305 290h170l-10 85q-3 26 -3 52q0 83 28 177h-65q-22 -129 -71 -222zM350 866q0 61 44 105t112 44q59 0 97.5 -36t38.5 -93q0 -61 -43.5 -104t-111.5 -43q-61 0 -99 35t-38 92zM545 884q0 19 -12.5 31
t-31.5 12q-23 0 -39 -15.5t-16 -40.5q0 -20 13.5 -32.5t33.5 -12.5q23 0 37.5 16t14.5 42z" />
    <glyph glyph-name="AE" unicode="&#xc6;" horiz-adv-x="992" 
d="M1012 551h-325l-27 -125h244l-29 -138h-245l-28 -139h325l-32 -149h-497l32 150h-186l-97 -150h-219l489 700h626zM565 604h-75q-48 -146 -108 -241l-45 -69h123l19 80q24 115 86 230z" />
    <glyph glyph-name="Ccedilla" unicode="&#xc7;" horiz-adv-x="776" 
d="M571 263l181 -73q-95 -183 -308 -204l-18 -11q-21 -12 -47 -25q8 0 16 -5q30 -6 51 -26t21 -52q0 -52 -37.5 -81t-108.5 -29q-82 0 -134 54l63 69q33 -29 66 -29q43 0 43 23q0 9 -8.5 15t-22.5 6q-16 0 -26 -3l-25 54l66 40q-136 12 -212 92.5t-76 211.5
q-2 114 49.5 212.5t148 157.5t216.5 57q133 0 222 -66.5t109 -166.5l-193 -46q-32 128 -149 128q-62 2 -110.5 -39t-72.5 -102.5t-23 -128.5q0 -78 38 -119.5t106 -41.5q115 0 175 128z" />
    <glyph glyph-name="Egrave" unicode="&#xc8;" horiz-adv-x="654" 
d="M20 0l148 700h537l-32 -149h-354l-26 -124h274l-30 -139h-274l-29 -139h355l-32 -149h-537zM388 764l-98 154h198l18 -154h-118z" />
    <glyph glyph-name="Eacute" unicode="&#xc9;" horiz-adv-x="654" 
d="M20 0l148 700h537l-32 -149h-354l-26 -124h274l-30 -139h-274l-29 -139h355l-32 -149h-537zM383 764l92 154h197l-160 -154h-129z" />
    <glyph glyph-name="Ecircumflex" unicode="&#xca;" horiz-adv-x="668" 
d="M20 0l148 700h537l-32 -149h-354l-26 -124h274l-30 -139h-274l-29 -139h355l-32 -149h-537zM213 764l156 138h216l90 -138h-151l-57 72l-92 -72h-162z" />
    <glyph glyph-name="Edieresis" unicode="&#xcb;" horiz-adv-x="665" 
d="M20 0l148 700h537l-32 -149h-354l-26 -124h274l-30 -139h-274l-29 -139h355l-32 -149h-537zM238 764l32 132h169l-31 -132h-170zM494 764l31 132h169l-31 -132h-169z" />
    <glyph glyph-name="Igrave" unicode="&#xcc;" horiz-adv-x="369" 
d="M20 0l148 700h188l-148 -700h-188zM214 764l-98 154h198l18 -154h-118z" />
    <glyph glyph-name="Iacute" unicode="&#xcd;" horiz-adv-x="334" 
d="M20 0l148 700h188l-148 -700h-188zM209 764l92 154h197l-160 -154h-129z" />
    <glyph glyph-name="Icircumflex" unicode="&#xce;" horiz-adv-x="375" 
d="M20 0l148 700h188l-148 -700h-188zM38 764l156 138h216l90 -138h-151l-57 72l-92 -72h-162z" />
    <glyph glyph-name="Idieresis" unicode="&#xcf;" horiz-adv-x="391" 
d="M20 0l148 700h188l-148 -700h-188zM63 764l32 132h169l-31 -132h-170zM319 764l31 132h169l-31 -132h-169z" />
    <glyph glyph-name="Eth" unicode="&#xd0;" horiz-adv-x="795" 
d="M771 404q2 -168 -118 -287.5t-299 -116.5h-319l63 300h-70l25 117h70l60 283h247q157 0 249 -78.5t92 -217.5zM575 396q0 73 -41 114t-118 41h-78l-28 -134h113l-25 -117h-113l-32 -150h94q104 0 166 70.5t62 175.5z" />
    <glyph glyph-name="Ntilde" unicode="&#xd1;" horiz-adv-x="842" 
d="M20 0l148 700h247l194 -518l58 25q-41 99 -41 183q0 43 11 96l46 214h181l-149 -700h-203l-224 602l-59 -23q42 -101 42 -193q0 -52 -12 -108l-58 -278h-181zM532 781l-25 13q-37 17 -46 17q-40 0 -51 -48h-120q9 70 51.5 109t108.5 39q50 0 99 -27l24 -13q33 -17 47 -17
q39 0 51 48h119q-9 -72 -51.5 -110t-108.5 -38q-49 0 -98 27z" />
    <glyph glyph-name="Ograve" unicode="&#xd2;" horiz-adv-x="849" 
d="M56 300q-2 176 119 297.5t301 119.5q171 0 264.5 -87.5t93.5 -229.5q2 -116 -52 -212t-151 -151.5t-215 -53.5q-172 0 -266 87.5t-94 229.5zM636 401q0 76 -42.5 120.5t-120.5 44.5q-93 3 -156 -77.5t-61 -188.5q0 -76 42.5 -121t120.5 -45q95 -2 157 78.5t60 188.5z
M458 764l-98 154h198l18 -154h-118z" />
    <glyph glyph-name="Oacute" unicode="&#xd3;" horiz-adv-x="849" 
d="M56 300q-2 176 119 297.5t301 119.5q171 0 264.5 -87.5t93.5 -229.5q2 -116 -52 -212t-151 -151.5t-215 -53.5q-172 0 -266 87.5t-94 229.5zM636 401q0 76 -42.5 120.5t-120.5 44.5q-93 3 -156 -77.5t-61 -188.5q0 -76 42.5 -121t120.5 -45q95 -2 157 78.5t60 188.5z
M454 764l92 154h197l-160 -154h-129z" />
    <glyph glyph-name="Ocircumflex" unicode="&#xd4;" horiz-adv-x="849" 
d="M56 300q-2 176 119 297.5t301 119.5q171 0 264.5 -87.5t93.5 -229.5q2 -116 -52 -212t-151 -151.5t-215 -53.5q-172 0 -266 87.5t-94 229.5zM636 401q0 76 -42.5 120.5t-120.5 44.5q-93 3 -156 -77.5t-61 -188.5q0 -76 42.5 -121t120.5 -45q95 -2 157 78.5t60 188.5z
M282 764l156 138h216l90 -138h-151l-57 72l-92 -72h-162z" />
    <glyph glyph-name="Otilde" unicode="&#xd5;" horiz-adv-x="849" 
d="M56 300q-2 176 119 297.5t301 119.5q171 0 264.5 -87.5t93.5 -229.5q2 -116 -52 -212t-151 -151.5t-215 -53.5q-172 0 -266 87.5t-94 229.5zM636 401q0 76 -42.5 120.5t-120.5 44.5q-93 3 -156 -77.5t-61 -188.5q0 -76 42.5 -121t120.5 -45q95 -2 157 78.5t60 188.5z
M524 781l-25 13q-37 17 -46 17q-40 0 -51 -48h-120q9 70 51.5 109t108.5 39q50 0 99 -27l24 -13q33 -17 47 -17q39 0 51 48h119q-9 -72 -51.5 -110t-108.5 -38q-49 0 -98 27z" />
    <glyph glyph-name="Odieresis" unicode="&#xd6;" horiz-adv-x="849" 
d="M56 300q-2 176 119 297.5t301 119.5q171 0 264.5 -87.5t93.5 -229.5q2 -116 -52 -212t-151 -151.5t-215 -53.5q-172 0 -266 87.5t-94 229.5zM636 401q0 76 -42.5 120.5t-120.5 44.5q-93 3 -156 -77.5t-61 -188.5q0 -76 42.5 -121t120.5 -45q95 -2 157 78.5t60 188.5z
M307 764l32 132h169l-31 -132h-170zM563 764l31 132h169l-31 -132h-169z" />
    <glyph glyph-name="multiply" unicode="&#xd7;" horiz-adv-x="645" 
d="M176 88l-93 93l166 165l-167 166l94 93l167 -166l167 165l93 -92l-167 -165l167 -166l-94 -93l-167 165z" />
    <glyph glyph-name="Oslash" unicode="&#xd8;" horiz-adv-x="851" 
d="M122 -39l-93 99l75 68q-47 74 -47 172q-2 176 119 297.5t301 119.5q128 0 216 -52l81 73l92 -101l-75 -68q44 -74 44 -169q2 -116 -52 -212t-151 -151.5t-215 -53.5q-129 0 -215 50zM265 268l179 171q41 38 70.5 51t75.5 15l11 56q-53 15 -103 15q-102 0 -169.5 -71.5
t-70.5 -180.5q0 -34 7 -56zM634 373q1 24 -4 55l-173 -165q-44 -41 -73 -53.5t-79 -15.5l-8 -55q40 -15 105 -15q96 0 160 71t72 178z" />
    <glyph glyph-name="Ugrave" unicode="&#xd9;" horiz-adv-x="776" 
d="M65 217q0 35 9 81l86 402h187l-83 -390q-7 -31 -7 -58q0 -55 30 -83.5t87 -28.5q65 0 104 42t57 128l83 390h188l-88 -412q-33 -158 -116 -231.5t-235 -73.5q-145 0 -223.5 61t-78.5 173zM434 764l-98 154h198l18 -154h-118z" />
    <glyph glyph-name="Uacute" unicode="&#xda;" horiz-adv-x="776" 
d="M65 217q0 35 9 81l86 402h187l-83 -390q-7 -31 -7 -58q0 -55 30 -83.5t87 -28.5q65 0 104 42t57 128l83 390h188l-88 -412q-33 -158 -116 -231.5t-235 -73.5q-145 0 -223.5 61t-78.5 173zM423 764l92 154h197l-160 -154h-129z" />
    <glyph glyph-name="Ucircumflex" unicode="&#xdb;" horiz-adv-x="776" 
d="M65 217q0 35 9 81l86 402h187l-83 -390q-7 -31 -7 -58q0 -55 30 -83.5t87 -28.5q65 0 104 42t57 128l83 390h188l-88 -412q-33 -158 -116 -231.5t-235 -73.5q-145 0 -223.5 61t-78.5 173zM249 764l156 138h216l90 -138h-151l-57 72l-92 -72h-162z" />
    <glyph glyph-name="Udieresis" unicode="&#xdc;" horiz-adv-x="776" 
d="M65 217q0 35 9 81l86 402h187l-83 -390q-7 -31 -7 -58q0 -55 30 -83.5t87 -28.5q65 0 104 42t57 128l83 390h188l-88 -412q-33 -158 -116 -231.5t-235 -73.5q-145 0 -223.5 61t-78.5 173zM274 764l32 132h169l-31 -132h-170zM530 764l31 132h169l-31 -132h-169z" />
    <glyph glyph-name="Yacute" unicode="&#xdd;" horiz-adv-x="696" 
d="M201 0l59 275l-162 425h197l38 -110q19 -54 19 -110q0 -53 -17 -122h64q15 75 36 128t61 110l76 104h215l-340 -426l-58 -274h-188zM385 764l92 154h197l-160 -154h-129z" />
    <glyph glyph-name="Thorn" unicode="&#xde;" horiz-adv-x="699" 
d="M394 117h-161l-25 -117h-188l148 700h188l-24 -114h94q126 0 194.5 -57t68.5 -154q0 -113 -82.5 -185.5t-212.5 -72.5zM500 362q0 35 -25.5 55.5t-71.5 20.5h-102l-38 -177h122q49 0 82 29t33 72z" />
    <glyph glyph-name="germandbls" unicode="&#xdf;" horiz-adv-x="645" 
d="M239 0l30 139q26 -6 46 -6q53 0 85.5 25t32.5 71q0 33 -24.5 53t-65.5 20h-41l26 119h30q49 0 79.5 26t30.5 64q0 30 -20.5 49t-56.5 19q-44 0 -72 -28t-43 -94l-97 -457h-174l97 458q28 129 97 194t205 65q105 0 168 -46t63 -119q0 -72 -54 -114t-146 -44l-12 -59
q82 0 130.5 -40t48.5 -106q0 -91 -72 -146.5t-182 -55.5q-71 0 -109 13z" />
    <glyph glyph-name="agrave" unicode="&#xe0;" horiz-adv-x="596" 
d="M15 115q0 96 93.5 148.5t265.5 58.5l4 21q2 10 2 12q0 49 -67 49q-74 0 -101 -70l-165 33q18 64 87.5 107.5t182.5 43.5q108 0 166 -42.5t58 -122.5q0 -25 -6 -54l-32 -148q-1 -4 -1 -8q0 -18 19 -18h46l-27 -125h-67q-49 0 -70.5 15t-21.5 48q0 15 5 38h-55
q-52 -118 -174 -118q-61 0 -101.5 36t-40.5 96zM349 203l5 28q-164 -7 -164 -86q0 -22 13.5 -34t37.5 -12q35 0 66.5 29t41.5 75zM291 566l-89 154h180l17 -154h-108z" />
    <glyph glyph-name="aacute" unicode="&#xe1;" horiz-adv-x="596" 
d="M15 115q0 96 93.5 148.5t265.5 58.5l4 21q2 10 2 12q0 49 -67 49q-74 0 -101 -70l-165 33q18 64 87.5 107.5t182.5 43.5q108 0 166 -42.5t58 -122.5q0 -25 -6 -54l-32 -148q-1 -4 -1 -8q0 -18 19 -18h46l-27 -125h-67q-49 0 -70.5 15t-21.5 48q0 15 5 38h-55
q-52 -118 -174 -118q-61 0 -101.5 36t-40.5 96zM349 203l5 28q-164 -7 -164 -86q0 -22 13.5 -34t37.5 -12q35 0 66.5 29t41.5 75zM285 566l84 154h179l-145 -154h-118z" />
    <glyph glyph-name="acircumflex" unicode="&#xe2;" horiz-adv-x="596" 
d="M15 115q0 96 93.5 148.5t265.5 58.5l4 21q2 10 2 12q0 49 -67 49q-74 0 -101 -70l-165 33q18 64 87.5 107.5t182.5 43.5q108 0 166 -42.5t58 -122.5q0 -25 -6 -54l-32 -148q-1 -4 -1 -8q0 -18 19 -18h46l-27 -125h-67q-49 0 -70.5 15t-21.5 48q0 15 5 38h-55
q-52 -118 -174 -118q-61 0 -101.5 36t-40.5 96zM349 203l5 28q-164 -7 -164 -86q0 -22 13.5 -34t37.5 -12q35 0 66.5 29t41.5 75zM128 566l142 138h196l82 -138h-137l-52 72l-84 -72h-147z" />
    <glyph glyph-name="atilde" unicode="&#xe3;" horiz-adv-x="611" 
d="M15 115q0 96 93.5 148.5t265.5 58.5l4 21q2 10 2 12q0 49 -67 49q-74 0 -101 -70l-165 33q18 64 87.5 107.5t182.5 43.5q108 0 166 -42.5t58 -122.5q0 -25 -6 -54l-32 -148q-1 -4 -1 -8q0 -18 19 -18h46l-27 -125h-67q-49 0 -70.5 15t-21.5 48q0 15 5 38h-55
q-52 -118 -174 -118q-61 0 -101.5 36t-40.5 96zM349 203l5 28q-164 -7 -164 -86q0 -22 13.5 -34t37.5 -12q35 0 66.5 29t41.5 75zM341 583l-23 14q-31 17 -43 17q-36 0 -47 -48h-111q7 69 46.5 108t101.5 39q45 0 92 -27l22 -13q5 -5 19.5 -11t23.5 -6q36 0 48 48h111
q-10 -73 -49 -110t-100 -37q-47 0 -91 26z" />
    <glyph glyph-name="adieresis" unicode="&#xe4;" horiz-adv-x="596" 
d="M15 115q0 96 93.5 148.5t265.5 58.5l4 21q2 10 2 12q0 49 -67 49q-74 0 -101 -70l-165 33q18 64 87.5 107.5t182.5 43.5q108 0 166 -42.5t58 -122.5q0 -25 -6 -54l-32 -148q-1 -4 -1 -8q0 -18 19 -18h46l-27 -125h-67q-49 0 -70.5 15t-21.5 48q0 15 5 38h-55
q-52 -118 -174 -118q-61 0 -101.5 36t-40.5 96zM349 203l5 28q-164 -7 -164 -86q0 -22 13.5 -34t37.5 -12q35 0 66.5 29t41.5 75zM151 572l28 132h154l-28 -132h-154zM383 572l29 132h153l-28 -132h-154z" />
    <glyph glyph-name="aring" unicode="&#xe5;" horiz-adv-x="596" 
d="M15 115q0 96 93.5 148.5t265.5 58.5l4 21q2 10 2 12q0 49 -67 49q-74 0 -101 -70l-165 33q18 64 87.5 107.5t182.5 43.5q108 0 166 -42.5t58 -122.5q0 -25 -6 -54l-32 -148q-1 -4 -1 -8q0 -18 19 -18h46l-27 -125h-67q-49 0 -70.5 15t-21.5 48q0 15 5 38h-55
q-52 -118 -174 -118q-61 0 -101.5 36t-40.5 96zM349 203l5 28q-164 -7 -164 -86q0 -22 13.5 -34t37.5 -12q35 0 66.5 29t41.5 75zM222 666q0 56 40 96.5t103 40.5q56 0 91 -33.5t35 -85.5q0 -56 -40 -95.5t-102 -39.5q-55 0 -91 32.5t-36 84.5zM402 682q0 18 -11.5 29
t-29.5 11q-21 0 -35.5 -14t-14.5 -37q0 -18 12 -29.5t31 -11.5q21 0 34.5 14.5t13.5 37.5z" />
    <glyph glyph-name="ae" unicode="&#xe6;" horiz-adv-x="908" 
d="M9 113q0 93 96.5 146t260.5 59l5 26q2 8 2 12q0 22 -17.5 35t-46.5 13q-34 0 -61.5 -19.5t-39.5 -51.5l-157 33q19 62 84 107t156 45q68 0 111 -31t54 -78h52q16 46 61.5 77.5t106.5 31.5q90 0 147 -58.5t57 -151.5q0 -44 -14 -92h-348q-2 -18 -2 -30q0 -81 82 -81
q66 0 107 78l150 -54q-35 -65 -100 -105.5t-155 -40.5q-87 0 -138 38t-57 96h-52q-58 -133 -199 -133q-65 0 -105 34.5t-40 94.5zM539 313h180q1 7 1 15q0 35 -19.5 55t-53.5 20q-82 0 -108 -90zM340 196l8 33q-165 -7 -165 -91q0 -17 13.5 -27.5t36.5 -10.5q40 0 69 24.5
t38 71.5z" />
    <glyph glyph-name="ccedilla" unicode="&#xe7;" horiz-adv-x="586" 
d="M395 201l159 -49q-63 -137 -207 -163l-23 -13q-22 -14 -45 -24q10 -2 15 -5q29 -6 49.5 -25t20.5 -50q0 -51 -36.5 -79t-104.5 -28q-82 0 -130 52l61 67q33 -29 64 -29q41 0 41 23q0 20 -30 20q-12 0 -24 -2l-25 52l62 37q-100 11 -157 69.5t-57 157.5q-2 125 85 217
t214 89q101 0 168.5 -48.5t81.5 -126.5l-166 -37q-7 40 -30.5 63.5t-58.5 23.5q-55 0 -87.5 -56t-32.5 -126q0 -48 22.5 -75t62.5 -27q67 0 108 92z" />
    <glyph glyph-name="egrave" unicode="&#xe8;" horiz-adv-x="581" 
d="M26 201q-2 126 84.5 223t210.5 94q108 0 169.5 -58t61.5 -154q0 -42 -14 -92h-348q-2 -22 -2 -29q0 -80 81 -80q65 0 107 78l154 -54q-35 -66 -100.5 -106t-159.5 -40q-117 0 -180.5 57t-63.5 161zM211 314h178q1 4 1 17q0 34 -19 53t-53 19q-80 0 -107 -89zM302 566
l-89 154h180l17 -154h-108z" />
    <glyph glyph-name="eacute" unicode="&#xe9;" horiz-adv-x="581" 
d="M26 201q-2 126 84.5 223t210.5 94q108 0 169.5 -58t61.5 -154q0 -42 -14 -92h-348q-2 -22 -2 -29q0 -80 81 -80q65 0 107 78l154 -54q-35 -66 -100.5 -106t-159.5 -40q-117 0 -180.5 57t-63.5 161zM211 314h178q1 4 1 17q0 34 -19 53t-53 19q-80 0 -107 -89zM296 566
l84 154h179l-145 -154h-118z" />
    <glyph glyph-name="ecircumflex" unicode="&#xea;" horiz-adv-x="581" 
d="M26 201q-2 126 84.5 223t210.5 94q108 0 169.5 -58t61.5 -154q0 -42 -14 -92h-348q-2 -22 -2 -29q0 -80 81 -80q65 0 107 78l154 -54q-35 -66 -100.5 -106t-159.5 -40q-117 0 -180.5 57t-63.5 161zM211 314h178q1 4 1 17q0 34 -19 53t-53 19q-80 0 -107 -89zM139 566
l142 138h196l82 -138h-137l-52 72l-84 -72h-147z" />
    <glyph glyph-name="edieresis" unicode="&#xeb;" horiz-adv-x="581" 
d="M26 201q-2 126 84.5 223t210.5 94q108 0 169.5 -58t61.5 -154q0 -42 -14 -92h-348q-2 -22 -2 -29q0 -80 81 -80q65 0 107 78l154 -54q-35 -66 -100.5 -106t-159.5 -40q-117 0 -180.5 57t-63.5 161zM211 314h178q1 4 1 17q0 34 -19 53t-53 19q-80 0 -107 -89zM162 572
l28 132h154l-28 -132h-154zM394 572l29 132h153l-28 -132h-154z" />
    <glyph glyph-name="igrave" unicode="&#xec;" horiz-adv-x="292" 
d="M4 0l108 501h175l-107 -501h-176zM160 566l-89 154h180l17 -154h-108z" />
    <glyph glyph-name="iacute" unicode="&#xed;" horiz-adv-x="292" 
d="M4 0l108 501h175l-107 -501h-176zM154 566l84 154h179l-145 -154h-118z" />
    <glyph glyph-name="icircumflex" unicode="&#xee;" horiz-adv-x="292" 
d="M4 0l108 501h175l-107 -501h-176zM-3 566l142 138h196l82 -138h-137l-52 72l-84 -72h-147z" />
    <glyph glyph-name="idieresis" unicode="&#xef;" horiz-adv-x="292" 
d="M4 0l108 501h175l-107 -501h-176zM20 572l28 132h154l-28 -132h-154zM252 572l29 132h153l-28 -132h-154z" />
    <glyph glyph-name="eth" unicode="&#xf0;" horiz-adv-x="632" 
d="M652 632l-85 -47q48 -77 48 -186q2 -110 -40 -205.5t-122 -154t-180 -56.5q-112 0 -180 57t-68 164q-2 102 67 179.5t165 75.5q67 0 105.5 -34.5t48.5 -87.5h54q3 27 3 51q0 78 -30 127l-82 -45l-45 85l43 24q-29 10 -66 10q-68 0 -145 -33l28 135q73 26 147 26
q106 0 181 -57l105 59zM398 240q0 44 -26 72.5t-67 28.5q-46 0 -79 -36.5t-33 -86.5q0 -48 26 -75.5t68 -27.5q50 0 80.5 37.5t30.5 87.5z" />
    <glyph glyph-name="ntilde" unicode="&#xf1;" horiz-adv-x="608" 
d="M5 0l106 501h145q-14 -60 -60 -111h73q53 128 161 128q63 0 103.5 -40t40.5 -111q0 -33 -7 -61l-66 -306h-174l63 293q3 16 3 31q0 58 -58 58q-73 0 -101 -129l-54 -253h-175zM370 583l-23 14q-31 17 -43 17q-36 0 -47 -48h-111q7 69 46.5 108t101.5 39q45 0 92 -27
l22 -13q5 -5 19.5 -11t23.5 -6q36 0 48 48h111q-10 -73 -49 -110t-100 -37q-47 0 -91 26z" />
    <glyph glyph-name="ograve" unicode="&#xf2;" 
d="M28 213q-2 129 85.5 218t213.5 87q123 0 193 -63t70 -171q2 -130 -85 -216.5t-214 -84.5q-122 0 -192.5 63t-70.5 167zM409 288q0 104 -84 104q-50 0 -83 -56t-33 -124q0 -103 83 -103q50 0 83.5 55.5t33.5 123.5zM312 566l-89 154h180l17 -154h-108z" />
    <glyph glyph-name="oacute" unicode="&#xf3;" 
d="M28 213q-2 129 85.5 218t213.5 87q123 0 193 -63t70 -171q2 -130 -85 -216.5t-214 -84.5q-122 0 -192.5 63t-70.5 167zM409 288q0 104 -84 104q-50 0 -83 -56t-33 -124q0 -103 83 -103q50 0 83.5 55.5t33.5 123.5zM306 566l84 154h179l-145 -154h-118z" />
    <glyph glyph-name="ocircumflex" unicode="&#xf4;" 
d="M28 213q-2 129 85.5 218t213.5 87q123 0 193 -63t70 -171q2 -130 -85 -216.5t-214 -84.5q-122 0 -192.5 63t-70.5 167zM409 288q0 104 -84 104q-50 0 -83 -56t-33 -124q0 -103 83 -103q50 0 83.5 55.5t33.5 123.5zM149 566l142 138h196l82 -138h-137l-52 72l-84 -72h-147
z" />
    <glyph glyph-name="otilde" unicode="&#xf5;" 
d="M28 213q-2 129 85.5 218t213.5 87q123 0 193 -63t70 -171q2 -130 -85 -216.5t-214 -84.5q-122 0 -192.5 63t-70.5 167zM409 288q0 104 -84 104q-50 0 -83 -56t-33 -124q0 -103 83 -103q50 0 83.5 55.5t33.5 123.5zM362 583l-23 14q-31 17 -43 17q-36 0 -47 -48h-111
q7 69 46.5 108t101.5 39q45 0 92 -27l22 -13q5 -5 19.5 -11t23.5 -6q36 0 48 48h111q-10 -73 -49 -110t-100 -37q-47 0 -91 26z" />
    <glyph glyph-name="odieresis" unicode="&#xf6;" 
d="M28 213q-2 129 85.5 218t213.5 87q123 0 193 -63t70 -171q2 -130 -85 -216.5t-214 -84.5q-122 0 -192.5 63t-70.5 167zM409 288q0 104 -84 104q-50 0 -83 -56t-33 -124q0 -103 83 -103q50 0 83.5 55.5t33.5 123.5zM172 572l28 132h154l-28 -132h-154zM404 572l29 132h153
l-28 -132h-154z" />
    <glyph glyph-name="divide" unicode="&#xf7;" horiz-adv-x="621" 
d="M247 478v147h171v-147h-171zM65 288v130h533v-130h-533zM247 81v148h171v-148h-171z" />
    <glyph glyph-name="oslash" unicode="&#xf8;" horiz-adv-x="623" 
d="M122 30l-59 -48l-64 77l57 46q-26 50 -26 108q0 131 86.5 218t213.5 87q106 0 170 -45l63 52l63 -77l-60 -51q27 -51 27 -113q2 -130 -85 -216.5t-214 -84.5q-107 0 -172 47zM214 231l62 57q58 49 106 49q10 0 17 -1l12 55q-31 11 -66 11q-46 0 -80.5 -34t-46.5 -92
q-4 -23 -4 -45zM402 223q5 30 4 49l-61 -58q-57 -54 -109 -54q-7 0 -9 1l-13 -55q21 -10 58 -10q48 0 82.5 33.5t47.5 93.5z" />
    <glyph glyph-name="ugrave" unicode="&#xf9;" horiz-adv-x="604" 
d="M31 124q0 26 8 63l67 314h175l-63 -294q-4 -17 -4 -32q0 -56 54 -56q74 0 103 131l54 251h173l-106 -501h-151q12 51 65 112h-73q-66 -128 -169 -128q-59 0 -96 36.5t-37 103.5zM312 566l-89 154h180l17 -154h-108z" />
    <glyph glyph-name="uacute" unicode="&#xfa;" horiz-adv-x="604" 
d="M31 124q0 26 8 63l67 314h175l-63 -294q-4 -17 -4 -32q0 -56 54 -56q74 0 103 131l54 251h173l-106 -501h-151q12 51 65 112h-73q-66 -128 -169 -128q-59 0 -96 36.5t-37 103.5zM305 566l84 154h179l-145 -154h-118z" />
    <glyph glyph-name="ucircumflex" unicode="&#xfb;" horiz-adv-x="627" 
d="M31 124q0 26 8 63l67 314h175l-63 -294q-4 -17 -4 -32q0 -56 54 -56q74 0 103 131l54 251h173l-106 -501h-151q12 51 65 112h-73q-66 -128 -169 -128q-59 0 -96 36.5t-37 103.5zM148 566l142 138h196l82 -138h-137l-52 72l-84 -72h-147z" />
    <glyph glyph-name="udieresis" unicode="&#xfc;" horiz-adv-x="604" 
d="M31 124q0 26 8 63l67 314h175l-63 -294q-4 -17 -4 -32q0 -56 54 -56q74 0 103 131l54 251h173l-106 -501h-151q12 51 65 112h-73q-66 -128 -169 -128q-59 0 -96 36.5t-37 103.5zM172 572l28 132h154l-28 -132h-154zM404 572l29 132h153l-28 -132h-154z" />
    <glyph glyph-name="yacute" unicode="&#xfd;" horiz-adv-x="584" 
d="M450 501h183l-318 -562q-47 -82 -83.5 -107t-120.5 -27h-163l29 132h129q22 0 35.5 10.5t27.5 37.5l16 29l-143 487h181l33 -157q7 -29 7 -67q0 -51 -20 -151h59q28 146 70 227zM285 566l84 154h179l-145 -154h-118z" />
    <glyph glyph-name="thorn" unicode="&#xfe;" horiz-adv-x="637" 
d="M-36 -195l191 895h174l-20 -90q-24 -110 -110 -207h78q61 116 152 116q80 0 128.5 -61t48.5 -156q1 -131 -73 -226t-174 -93q-61 0 -95 35t-41 86h-64q17 -45 17 -91q0 -31 -8 -69l-30 -139h-174zM425 292q0 104 -84 104q-49 0 -82.5 -56.5t-33.5 -126.5q0 -107 83 -107
q50 0 83.5 57.5t33.5 128.5z" />
    <glyph glyph-name="ydieresis" unicode="&#xff;" horiz-adv-x="584" 
d="M450 501h183l-318 -562q-47 -82 -83.5 -107t-120.5 -27h-163l29 132h129q22 0 35.5 10.5t27.5 37.5l16 29l-143 487h181l33 -157q7 -29 7 -67q0 -51 -20 -151h59q28 146 70 227zM151 572l28 132h154l-28 -132h-154zM383 572l29 132h153l-28 -132h-154z" />
    <glyph glyph-name="Amacron" unicode="&#x100;" horiz-adv-x="752" 
d="M506 0l-16 146h-261l-78 -146h-203l400 700h248l101 -700h-191zM305 290h170l-10 85q-3 26 -3 52q0 83 28 177h-65q-22 -129 -71 -222zM307 771l25 105h366l-23 -105h-368z" />
    <glyph glyph-name="amacron" unicode="&#x101;" horiz-adv-x="596" 
d="M15 115q0 96 93.5 148.5t265.5 58.5l4 21q2 10 2 12q0 49 -67 49q-74 0 -101 -70l-165 33q18 64 87.5 107.5t182.5 43.5q108 0 166 -42.5t58 -122.5q0 -25 -6 -54l-32 -148q-1 -4 -1 -8q0 -18 19 -18h46l-27 -125h-67q-49 0 -70.5 15t-21.5 48q0 15 5 38h-55
q-52 -118 -174 -118q-61 0 -101.5 36t-40.5 96zM349 203l5 28q-164 -7 -164 -86q0 -22 13.5 -34t37.5 -12q35 0 66.5 29t41.5 75zM185 578l23 106h323l-22 -106h-324z" />
    <glyph glyph-name="Abreve" unicode="&#x102;" horiz-adv-x="752" 
d="M506 0l-16 146h-261l-78 -146h-203l400 700h248l101 -700h-191zM305 290h170l-10 85q-3 26 -3 52q0 83 28 177h-65q-22 -129 -71 -222zM311 889v13h120q-2 -27 16.5 -44.5t53.5 -17.5q69 0 96 62h124q-49 -156 -226 -156q-86 0 -135 40t-49 103z" />
    <glyph glyph-name="abreve" unicode="&#x103;" horiz-adv-x="596" 
d="M15 115q0 96 93.5 148.5t265.5 58.5l4 21q2 10 2 12q0 49 -67 49q-74 0 -101 -70l-165 33q18 64 87.5 107.5t182.5 43.5q108 0 166 -42.5t58 -122.5q0 -25 -6 -54l-32 -148q-1 -4 -1 -8q0 -18 19 -18h46l-27 -125h-67q-49 0 -70.5 15t-21.5 48q0 15 5 38h-55
q-52 -118 -174 -118q-61 0 -101.5 36t-40.5 96zM349 203l5 28q-164 -7 -164 -86q0 -22 13.5 -34t37.5 -12q35 0 66.5 29t41.5 75zM188 691q0 10 1 13h108q-1 -27 16 -44t48 -17q66 0 87 61h114q-46 -153 -206 -153q-79 0 -123.5 39t-44.5 101z" />
    <glyph glyph-name="Aogonek" unicode="&#x104;" horiz-adv-x="752" 
d="M602 -101q28 0 79 15l-25 -111q-44 -16 -96 -16t-82.5 23.5t-30.5 64.5q0 79 99 125h-40l-16 146h-261l-78 -146h-203l400 700h248l101 -700q-133 -31 -133 -76q0 -25 38 -25zM305 290h170l-10 85q-3 26 -3 52q0 83 28 177h-65q-22 -129 -71 -222z" />
    <glyph glyph-name="aogonek" unicode="&#x105;" horiz-adv-x="596" 
d="M407 -76q0 -25 37 -25q30 0 79 15l-24 -111q-44 -16 -96 -16t-82.5 23.5t-30.5 64.5q0 43 32 78t90 57q-31 13 -31 53q0 10 5 38h-55q-52 -118 -174 -118q-61 0 -101.5 36t-40.5 96q0 96 93.5 148.5t265.5 58.5l4 21q2 10 2 12q0 49 -67 49q-74 0 -101 -70l-165 33
q18 64 87.5 107.5t182.5 43.5q108 0 166 -42.5t58 -122.5q0 -25 -6 -54l-32 -148q-1 -4 -1 -8q0 -18 19 -18h46l-27 -125q-133 -31 -133 -76zM349 203l5 28q-164 -7 -164 -86q0 -22 13.5 -34t37.5 -12q35 0 66.5 29t41.5 75z" />
    <glyph glyph-name="Cacute" unicode="&#x106;" horiz-adv-x="776" 
d="M55 290q-2 114 49.5 212.5t148 157.5t216.5 57q133 0 222 -66.5t109 -166.5l-193 -46q-32 128 -149 128q-62 2 -110.5 -39t-72.5 -102.5t-23 -128.5q0 -78 38 -119.5t106 -41.5q115 0 175 128l181 -73q-108 -207 -358 -207q-158 0 -248.5 82t-90.5 225zM439 764l92 154
h197l-160 -154h-129z" />
    <glyph glyph-name="cacute" unicode="&#x107;" horiz-adv-x="586" 
d="M28 212q-2 125 85 217t214 89q101 0 168.5 -48.5t81.5 -126.5l-166 -37q-7 40 -30.5 63.5t-58.5 23.5q-55 0 -87.5 -56t-32.5 -126q0 -48 22.5 -75t62.5 -27q67 0 108 92l159 -49q-76 -169 -275 -169q-115 0 -183 61t-68 168zM303 566l84 154h179l-145 -154h-118z" />
    <glyph glyph-name="Ccircumflex" unicode="&#x108;" horiz-adv-x="776" 
d="M55 290q-2 114 49.5 212.5t148 157.5t216.5 57q133 0 222 -66.5t109 -166.5l-193 -46q-32 128 -149 128q-62 2 -110.5 -39t-72.5 -102.5t-23 -128.5q0 -78 38 -119.5t106 -41.5q115 0 175 128l181 -73q-108 -207 -358 -207q-158 0 -248.5 82t-90.5 225zM269 764l156 138
h216l90 -138h-151l-57 72l-92 -72h-162z" />
    <glyph glyph-name="ccircumflex" unicode="&#x109;" horiz-adv-x="586" 
d="M28 212q-2 125 85 217t214 89q101 0 168.5 -48.5t81.5 -126.5l-166 -37q-7 40 -30.5 63.5t-58.5 23.5q-55 0 -87.5 -56t-32.5 -126q0 -48 22.5 -75t62.5 -27q67 0 108 92l159 -49q-76 -169 -275 -169q-115 0 -183 61t-68 168zM147 566l142 138h196l82 -138h-137l-52 72
l-84 -72h-147z" />
    <glyph glyph-name="Cdotaccent" unicode="&#x10a;" horiz-adv-x="776" 
d="M55 290q-2 114 49.5 212.5t148 157.5t216.5 57q133 0 222 -66.5t109 -166.5l-193 -46q-32 128 -149 128q-62 2 -110.5 -39t-72.5 -102.5t-23 -128.5q0 -78 38 -119.5t106 -41.5q115 0 175 128l181 -73q-108 -207 -358 -207q-158 0 -248.5 82t-90.5 225zM423 761l31 147
h166l-31 -147h-166z" />
    <glyph glyph-name="cdotaccent" unicode="&#x10b;" horiz-adv-x="586" 
d="M28 212q-2 125 85 217t214 89q101 0 168.5 -48.5t81.5 -126.5l-166 -37q-7 40 -30.5 63.5t-58.5 23.5q-55 0 -87.5 -56t-32.5 -126q0 -48 22.5 -75t62.5 -27q67 0 108 92l159 -49q-76 -169 -275 -169q-115 0 -183 61t-68 168zM279 563l31 147h166l-31 -147h-166z" />
    <glyph glyph-name="Ccaron" unicode="&#x10c;" horiz-adv-x="776" 
d="M55 290q-2 114 49.5 212.5t148 157.5t216.5 57q133 0 222 -66.5t109 -166.5l-193 -46q-32 128 -149 128q-62 2 -110.5 -39t-72.5 -102.5t-23 -128.5q0 -78 38 -119.5t106 -41.5q115 0 175 128l181 -73q-108 -207 -358 -207q-158 0 -248.5 82t-90.5 225zM772 892
l-155 -138h-216l-90 138h150l58 -73l92 73h161z" />
    <glyph glyph-name="ccaron" unicode="&#x10d;" horiz-adv-x="586" 
d="M28 212q-2 125 85 217t214 89q101 0 168.5 -48.5t81.5 -126.5l-166 -37q-7 40 -30.5 63.5t-58.5 23.5q-55 0 -87.5 -56t-32.5 -126q0 -48 22.5 -75t62.5 -27q67 0 108 92l159 -49q-76 -169 -275 -169q-115 0 -183 61t-68 168zM267 566l-81 138h136l51 -76l84 76h148
l-140 -138h-198z" />
    <glyph glyph-name="Dcaron" unicode="&#x10e;" horiz-adv-x="769" 
d="M20 0l148 700h248q156 0 248 -78.5t92 -217.5q3 -167 -117.5 -287t-298.5 -117h-320zM238 150h95q103 0 165 70.5t62 175.5q0 74 -41 114.5t-118 40.5h-77zM708 892l-155 -138h-216l-90 138h150l58 -73l92 73h161z" />
    <glyph glyph-name="dcaron" unicode="&#x10f;" horiz-adv-x="756" 
d="M29 200q-2 131 68.5 226t162.5 93q59 0 98 -34t55 -89h65q-20 35 -20 81q0 33 11 83l30 140h174l-150 -700h-157q20 54 64 98h-75q-38 -60 -75 -87.5t-88 -27.5q-73 0 -118 60.5t-45 156.5zM411 290q0 106 -83 106q-49 0 -83 -57.5t-34 -128.5q0 -105 82 -105
q50 0 84 57.5t34 127.5zM662 405l128 147h-88l32 149h164l-34 -153l-121 -143h-81z" />
    <glyph glyph-name="Dcroat" unicode="&#x110;" horiz-adv-x="795" 
d="M771 404q2 -168 -118 -287.5t-299 -116.5h-319l63 300h-70l25 117h70l60 283h247q157 0 249 -78.5t92 -217.5zM575 396q0 73 -41 114t-118 41h-78l-28 -134h113l-25 -117h-113l-32 -150h94q104 0 166 70.5t62 175.5z" />
    <glyph glyph-name="dcroat" unicode="&#x111;" horiz-adv-x="636" 
d="M732 629l-19 -91h-74l-116 -538h-157q20 54 64 98h-75q-38 -60 -75 -87.5t-88 -27.5q-73 0 -118 60.5t-45 156.5q-2 131 68.5 226t162.5 93q59 0 98 -34t55 -89h65q-20 35 -20 82q0 26 6 60h-139l19 91h140l15 71h174l-15 -71h74zM411 290q0 106 -83 106q-49 0 -83 -57.5
t-34 -128.5q0 -105 82 -105q50 0 84 57.5t34 127.5z" />
    <glyph glyph-name="Emacron" unicode="&#x112;" horiz-adv-x="654" 
d="M20 0l148 700h537l-32 -149h-354l-26 -124h274l-30 -139h-274l-29 -139h355l-32 -149h-537zM272 771l25 105h366l-23 -105h-368z" />
    <glyph glyph-name="emacron" unicode="&#x113;" horiz-adv-x="581" 
d="M26 201q-2 126 84.5 223t210.5 94q108 0 169.5 -58t61.5 -154q0 -42 -14 -92h-348q-2 -22 -2 -29q0 -80 81 -80q65 0 107 78l154 -54q-35 -66 -100.5 -106t-159.5 -40q-117 0 -180.5 57t-63.5 161zM211 314h178q1 4 1 17q0 34 -19 53t-53 19q-80 0 -107 -89zM195 578
l23 106h323l-22 -106h-324z" />
    <glyph glyph-name="Ebreve" unicode="&#x114;" horiz-adv-x="654" 
d="M20 0l148 700h537l-32 -149h-354l-26 -124h274l-30 -139h-274l-29 -139h355l-32 -149h-537zM276 889v13h120q-2 -27 16.5 -44.5t53.5 -17.5q69 0 96 62h124q-50 -156 -226 -156q-86 0 -135 40t-49 103z" />
    <glyph glyph-name="ebreve" unicode="&#x115;" horiz-adv-x="581" 
d="M26 201q-2 126 84.5 223t210.5 94q108 0 169.5 -58t61.5 -154q0 -42 -14 -92h-348q-2 -22 -2 -29q0 -80 81 -80q65 0 107 78l154 -54q-35 -66 -100.5 -106t-159.5 -40q-117 0 -180.5 57t-63.5 161zM211 314h178q1 4 1 17q0 34 -19 53t-53 19q-80 0 -107 -89zM199 691
q0 10 1 13h108q-1 -27 16 -44t48 -17q66 0 87 61h114q-47 -153 -206 -153q-79 0 -123.5 39t-44.5 101z" />
    <glyph glyph-name="Edotaccent" unicode="&#x116;" horiz-adv-x="654" 
d="M20 0l148 700h537l-32 -149h-354l-26 -124h274l-30 -139h-274l-29 -139h355l-32 -149h-537zM366 761l31 147h166l-31 -147h-166z" />
    <glyph glyph-name="edotaccent" unicode="&#x117;" horiz-adv-x="581" 
d="M26 201q-2 126 84.5 223t210.5 94q108 0 169.5 -58t61.5 -154q0 -42 -14 -92h-348q-2 -22 -2 -29q0 -80 81 -80q65 0 107 78l154 -54q-35 -66 -100.5 -106t-159.5 -40q-117 0 -180.5 57t-63.5 161zM211 314h178q1 4 1 17q0 34 -19 53t-53 19q-80 0 -107 -89zM272 563
l31 147h166l-31 -147h-166z" />
    <glyph glyph-name="Eogonek" unicode="&#x118;" horiz-adv-x="654" 
d="M673 551h-354l-26 -124h274l-30 -139h-274l-29 -139h355l-32 -149q-133 -31 -133 -76q0 -25 37 -25q29 0 80 15l-25 -111q-44 -16 -96 -16t-82.5 23.5t-30.5 64.5q0 80 99 125h-386l148 700h537z" />
    <glyph glyph-name="eogonek" unicode="&#x119;" horiz-adv-x="581" 
d="M321 518q108 0 169.5 -58t61.5 -154q0 -42 -14 -92h-348q-2 -22 -2 -29q0 -80 81 -80q65 0 107 78l154 -54q-63 -111 -189 -140q-99 -22 -99 -65q0 -25 38 -25q28 0 79 15l-25 -111q-44 -16 -96 -16t-82.5 23.5t-30.5 64.5q0 65 78 114q-177 34 -177 212q-2 126 84.5 223
t210.5 94zM211 314h178q1 4 1 17q0 34 -19 53t-53 19q-80 0 -107 -89z" />
    <glyph glyph-name="Ecaron" unicode="&#x11a;" horiz-adv-x="654" 
d="M20 0l148 700h537l-32 -149h-354l-26 -124h274l-30 -139h-274l-29 -139h355l-32 -149h-537zM716 892l-155 -138h-216l-90 138h150l58 -73l92 73h161z" />
    <glyph glyph-name="ecaron" unicode="&#x11b;" horiz-adv-x="581" 
d="M26 201q-2 126 84.5 223t210.5 94q108 0 169.5 -58t61.5 -154q0 -42 -14 -92h-348q-2 -22 -2 -29q0 -80 81 -80q65 0 107 78l154 -54q-35 -66 -100.5 -106t-159.5 -40q-117 0 -180.5 57t-63.5 161zM211 314h178q1 4 1 17q0 34 -19 53t-53 19q-80 0 -107 -89zM260 566
l-81 138h136l51 -76l84 76h148l-140 -138h-198z" />
    <glyph glyph-name="Gcircumflex" unicode="&#x11c;" horiz-adv-x="802" 
d="M54 281q-1 86 28 165.5t82 140.5t132.5 96.5t172.5 33.5q138 0 224.5 -64.5t106.5 -153.5l-194 -54q-36 117 -148 117q-94 2 -152.5 -82.5t-56.5 -190.5q0 -82 39.5 -124t110.5 -42q58 0 103 32t61 76h-189l29 140h374l-78 -371h-154q17 65 76 138h-74q-21 -40 -44 -70
q-28 -36 -75 -60.5t-108 -24.5q-114 0 -190 79.5t-76 218.5zM275 764l156 138h216l90 -138h-151l-57 72l-92 -72h-162z" />
    <glyph glyph-name="gcircumflex" unicode="&#x11d;" horiz-adv-x="640" 
d="M-49 -114q0 78 91 99l12 53q-54 14 -54 56q0 37 29.5 63t83.5 36l11 52q-42 28 -42 86q0 79 62.5 133t160.5 54q85 0 132 -33.5t60 -84.5h52q22 101 97 101h34l-27 -129h-64q-39 0 -51 -39l-12 -34q-50 -144 -226 -144q-72 0 -126 24q-39 -13 -39 -37q0 -26 47 -26h182
q87 0 135 -39.5t48 -100.5q0 -82 -57 -126.5t-169 -44.5h-247q-59 0 -91 23t-32 58zM388 349q0 31 -17 49t-48 18q-34 0 -59 -28.5t-25 -69.5q0 -67 64 -67q33 0 59 29.5t26 68.5zM139 -80h183q59 0 59 45q0 35 -48 35h-219q-26 -20 -26 -44q0 -36 51 -36zM144 566l142 138
h196l82 -138h-137l-52 72l-84 -72h-147z" />
    <glyph glyph-name="Gbreve" unicode="&#x11e;" horiz-adv-x="802" 
d="M54 281q-1 86 28 165.5t82 140.5t132.5 96.5t172.5 33.5q138 0 224.5 -64.5t106.5 -153.5l-194 -54q-36 117 -148 117q-94 2 -152.5 -82.5t-56.5 -190.5q0 -82 39.5 -124t110.5 -42q58 0 103 32t61 76h-189l29 140h374l-78 -371h-154q17 65 76 138h-74q-21 -40 -44 -70
q-28 -36 -75 -60.5t-108 -24.5q-114 0 -190 79.5t-76 218.5zM332 889v13h120q-2 -27 16.5 -44.5t53.5 -17.5q69 0 96 62h124q-50 -156 -226 -156q-86 0 -135 40t-49 103z" />
    <glyph glyph-name="gbreve" unicode="&#x11f;" horiz-adv-x="640" 
d="M-49 -114q0 78 91 99l12 53q-54 14 -54 56q0 37 29.5 63t83.5 36l11 52q-42 28 -42 86q0 79 62.5 133t160.5 54q85 0 132 -33.5t60 -84.5h52q22 101 97 101h34l-27 -129h-64q-39 0 -51 -39l-12 -34q-50 -144 -226 -144q-72 0 -126 24q-39 -13 -39 -37q0 -26 47 -26h182
q87 0 135 -39.5t48 -100.5q0 -82 -57 -126.5t-169 -44.5h-247q-59 0 -91 23t-32 58zM388 349q0 31 -17 49t-48 18q-34 0 -59 -28.5t-25 -69.5q0 -67 64 -67q33 0 59 29.5t26 68.5zM139 -80h183q59 0 59 45q0 35 -48 35h-219q-26 -20 -26 -44q0 -36 51 -36zM203 691
q0 10 1 13h108q-1 -27 16 -44t48 -17q66 0 87 61h114q-47 -153 -206 -153q-79 0 -123.5 39t-44.5 101z" />
    <glyph glyph-name="Gdotaccent" unicode="&#x120;" horiz-adv-x="802" 
d="M54 281q-1 86 28 165.5t82 140.5t132.5 96.5t172.5 33.5q138 0 224.5 -64.5t106.5 -153.5l-194 -54q-36 117 -148 117q-94 2 -152.5 -82.5t-56.5 -190.5q0 -82 39.5 -124t110.5 -42q58 0 103 32t61 76h-189l29 140h374l-78 -371h-154q17 65 76 138h-74q-21 -40 -44 -70
q-28 -36 -75 -60.5t-108 -24.5q-114 0 -190 79.5t-76 218.5zM429 761l31 147h166l-31 -147h-166z" />
    <glyph glyph-name="gdotaccent" unicode="&#x121;" horiz-adv-x="640" 
d="M-49 -114q0 78 91 99l12 53q-54 14 -54 56q0 37 29.5 63t83.5 36l11 52q-42 28 -42 86q0 79 62.5 133t160.5 54q85 0 132 -33.5t60 -84.5h52q22 101 97 101h34l-27 -129h-64q-39 0 -51 -39l-12 -34q-50 -144 -226 -144q-72 0 -126 24q-39 -13 -39 -37q0 -26 47 -26h182
q87 0 135 -39.5t48 -100.5q0 -82 -57 -126.5t-169 -44.5h-247q-59 0 -91 23t-32 58zM388 349q0 31 -17 49t-48 18q-34 0 -59 -28.5t-25 -69.5q0 -67 64 -67q33 0 59 29.5t26 68.5zM139 -80h183q59 0 59 45q0 35 -48 35h-219q-26 -20 -26 -44q0 -36 51 -36zM277 563l31 147
h166l-31 -147h-166z" />
    <glyph glyph-name="uni0122" unicode="&#x122;" horiz-adv-x="802" 
d="M54 281q-1 86 28 165.5t82 140.5t132.5 96.5t172.5 33.5q138 0 224.5 -64.5t106.5 -153.5l-194 -54q-36 117 -148 117q-94 2 -152.5 -82.5t-56.5 -190.5q0 -82 39.5 -124t110.5 -42q58 0 103 32t61 76h-189l29 140h374l-78 -371h-154q17 65 76 138h-74q-21 -40 -44 -70
q-28 -36 -75 -60.5t-108 -24.5q-114 0 -190 79.5t-76 218.5zM210 -353l128 147h-88l32 149h164l-34 -153l-121 -143h-81z" />
    <glyph glyph-name="uni0123" unicode="&#x123;" horiz-adv-x="640" 
d="M-49 -114q0 78 91 99l12 53q-54 14 -54 56q0 37 29.5 63t83.5 36l11 52q-42 28 -42 86q0 79 62.5 133t160.5 54q85 0 132 -33.5t60 -84.5h52q22 101 97 101h34l-27 -129h-64q-39 0 -51 -39l-12 -34q-50 -144 -226 -144q-72 0 -126 24q-39 -13 -39 -37q0 -26 47 -26h182
q87 0 135 -39.5t48 -100.5q0 -82 -57 -126.5t-169 -44.5h-247q-59 0 -91 23t-32 58zM388 349q0 31 -17 49t-48 18q-34 0 -59 -28.5t-25 -69.5q0 -67 64 -67q33 0 59 29.5t26 68.5zM139 -80h183q59 0 59 45q0 35 -48 35h-219q-26 -20 -26 -44q0 -36 51 -36zM512 858
l-128 -148h88l-32 -148h-164l34 153l122 143h80z" />
    <glyph glyph-name="Hcircumflex" unicode="&#x124;" horiz-adv-x="774" 
d="M20 0l148 700h188l-56 -265h252l57 265h188l-149 -700h-188l60 284h-252l-60 -284h-188zM261 764l156 138h216l90 -138h-151l-57 72l-92 -72h-162z" />
    <glyph glyph-name="hcircumflex" unicode="&#x125;" horiz-adv-x="608" 
d="M5 0l149 700h172l-20 -94q-26 -122 -112 -216h75q59 128 161 128q66 0 104.5 -41.5t38.5 -111.5q0 -29 -6 -59l-66 -306h-174l63 293q3 15 3 30q0 59 -58 59q-73 0 -101 -129l-54 -253h-175zM194 764l142 138h196l82 -138h-137l-52 72l-84 -72h-147z" />
    <glyph glyph-name="Hbar" unicode="&#x126;" horiz-adv-x="840" 
d="M870 617l-23 -107h-72l-108 -510h-188l59 284h-251l-60 -284h-188l108 510h-74l23 107h73l18 83h188l-18 -83h252l18 83h188l-17 -83h72zM570 435l16 75h-251l-16 -75h251z" />
    <glyph glyph-name="hbar" unicode="&#x127;" horiz-adv-x="633" 
d="M573 365q0 -29 -6 -59l-66 -306h-174l63 293q3 15 3 30q0 59 -58 59q-73 0 -101 -129l-54 -253h-175l114 538h-75l19 91h76l15 71h172l-15 -71h140l-19 -91h-147q-31 -80 -91 -148h75q59 128 161 128q66 0 104.5 -41.5t38.5 -111.5z" />
    <glyph glyph-name="Itilde" unicode="&#x128;" horiz-adv-x="356" 
d="M20 0l148 700h188l-148 -700h-188zM279 781l-25 13q-37 17 -46 17q-40 0 -51 -48h-120q9 70 51.5 109t108.5 39q50 0 99 -27l24 -13q33 -17 47 -17q39 0 51 48h119q-9 -72 -51.5 -110t-108.5 -38q-49 0 -98 27z" />
    <glyph glyph-name="itilde" unicode="&#x129;" horiz-adv-x="316" 
d="M4 0l108 501h175l-107 -501h-176zM210 583l-23 14q-31 17 -43 17q-36 0 -47 -48h-111q7 69 46.5 108t101.5 39q45 0 92 -27l22 -13q5 -5 19.5 -11t23.5 -6q36 0 48 48h111q-10 -73 -49 -110t-100 -37q-47 0 -91 26z" />
    <glyph glyph-name="Imacron" unicode="&#x12a;" horiz-adv-x="387" 
d="M20 0l148 700h188l-148 -700h-188zM91 771l25 105h366l-23 -105h-368z" />
    <glyph glyph-name="imacron" unicode="&#x12b;" horiz-adv-x="343" 
d="M4 0l108 501h175l-107 -501h-176zM53 578l23 106h323l-22 -106h-324z" />
    <glyph glyph-name="Ibreve" unicode="&#x12c;" horiz-adv-x="371" 
d="M20 0l148 700h188l-148 -700h-188zM102 889v13h120q-2 -27 16.5 -44.5t53.5 -17.5q69 0 96 62h124q-50 -156 -226 -156q-86 0 -135 40t-49 103z" />
    <glyph glyph-name="ibreve" unicode="&#x12d;" horiz-adv-x="292" 
d="M4 0l108 501h175l-107 -501h-176zM57 691q0 10 1 13h108q-1 -27 16 -44t48 -17q66 0 87 61h114q-47 -153 -206 -153q-79 0 -123.5 39t-44.5 101z" />
    <glyph glyph-name="Iogonek" unicode="&#x12e;" horiz-adv-x="312" 
d="M75 -76q0 -25 37 -25q30 0 79 15l-24 -111q-44 -16 -96 -16t-82.5 23.5t-30.5 64.5q0 80 99 125h-37l148 700h188l-148 -700q-133 -31 -133 -76z" />
    <glyph glyph-name="iogonek" unicode="&#x12f;" horiz-adv-x="292" 
d="M154 710h178l-31 -147h-178zM112 501h175l-107 -501h1q-134 -31 -134 -76q0 -25 38 -25q28 0 79 15l-24 -111q-47 -16 -97 -16q-52 0 -82 23.5t-30 64.5q0 80 98 125h-24z" />
    <glyph glyph-name="Idotaccent" unicode="&#x130;" horiz-adv-x="376" 
d="M182 760l31 148h184l-31 -148h-184zM20 0l148 700h188l-148 -700h-188z" />
    <glyph glyph-name="dotlessi" unicode="&#x131;" horiz-adv-x="292" 
d="M4 0l108 501h175l-107 -501h-176z" />
    <glyph glyph-name="IJ" unicode="&#x132;" horiz-adv-x="931" 
d="M20 0l148 700h188l-148 -700h-188zM341 194q0 27 6 60l183 36q-9 -49 -9 -80q0 -80 62 -80q37 0 59 27.5t35 86.5l97 456h185l-95 -446q-29 -140 -91.5 -205.5t-190.5 -65.5q-115 0 -178 56t-63 155z" />
    <glyph glyph-name="ij" unicode="&#x133;" horiz-adv-x="583" 
d="M120 563l31 148h181l-31 -148h-181zM4 0l108 501h175l-107 -501h-176zM417 564l32 146h178l-31 -146h-179zM158 -195l28 129h63q41 0 48 39l112 528h170l-118 -552q-15 -73 -53.5 -108.5t-108.5 -35.5h-141z" />
    <glyph glyph-name="Jcircumflex" unicode="&#x134;" horiz-adv-x="593" 
d="M3 194q0 27 6 60l183 36q-9 -50 -9 -80q0 -80 62 -80q37 0 59 27.5t35 86.5l97 456h185l-95 -446q-29 -140 -91.5 -205.5t-190.5 -65.5q-115 0 -178 56t-63 155zM303 764l156 138h216l90 -138h-151l-57 72l-92 -72h-162z" />
    <glyph glyph-name="jcircumflex" unicode="&#x135;" horiz-adv-x="296" 
d="M-133 -195l27 129h67q39 0 46 41l113 526h171l-117 -545q-16 -75 -54 -113t-108 -38h-145zM2 566l142 138h196l82 -138h-137l-52 72l-84 -72h-147z" />
    <glyph glyph-name="uni0136" unicode="&#x136;" horiz-adv-x="751" 
d="M833 700l-343 -301l229 -399h-217l-156 290l-100 -87l-43 -203h-183l148 700h185l-18 -80q-12 -56 -43 -99.5t-84 -89.5l43 -47l329 316h253zM191 -353l128 147h-88l32 149h164l-34 -153l-121 -143h-81z" />
    <glyph glyph-name="uni0137" unicode="&#x137;" horiz-adv-x="643" 
d="M684 501l-254 -205l181 -296h-199l-115 199l-94 -75l-27 -124h-171l149 700h171l-40 -191q-18 -73 -48 -111.5t-85 -78.5l38 -48l272 230h222zM132 -353l128 147h-88l32 149h164l-34 -153l-121 -143h-81z" />
    <glyph glyph-name="Lacute" unicode="&#x139;" horiz-adv-x="627" 
d="M20 0l148 700h188l-116 -547h354l-32 -153h-542zM208 764l92 154h197l-160 -154h-129z" />
    <glyph glyph-name="lacute" unicode="&#x13a;" horiz-adv-x="289" 
d="M5 0l149 700h173l-150 -700h-172zM195 764l84 154h179l-145 -154h-118z" />
    <glyph glyph-name="uni013B" unicode="&#x13b;" horiz-adv-x="627" 
d="M20 0l148 700h188l-116 -547h354l-32 -153h-542zM130 -353l128 147h-88l32 149h164l-34 -153l-121 -143h-81z" />
    <glyph glyph-name="uni013C" unicode="&#x13c;" horiz-adv-x="280" 
d="M5 0l149 700h173l-150 -700h-172zM-72 -353l128 147h-88l32 149h164l-34 -153l-121 -143h-81z" />
    <glyph glyph-name="Lcaron" unicode="&#x13d;" horiz-adv-x="636" 
d="M359 375l141 163h-97l35 163h181l-38 -169l-133 -157h-89zM20 0l148 700h188l-116 -547h354l-32 -153h-542z" />
    <glyph glyph-name="lcaron" unicode="&#x13e;" horiz-adv-x="417" 
d="M5 0l149 700h173l-150 -700h-172zM321 402l128 147h-88l32 149h164l-34 -153l-121 -143h-81z" />
    <glyph glyph-name="Ldot" unicode="&#x13f;" horiz-adv-x="637" 
d="M20 0l148 700h188l-116 -547h354l-32 -153h-542zM382 303l38 177h191l-38 -177h-191z" />
    <glyph glyph-name="ldot" unicode="&#x140;" horiz-adv-x="496" 
d="M5 0l149 700h173l-150 -700h-172zM301 279l38 177h191l-38 -177h-191z" />
    <glyph glyph-name="Lslash" unicode="&#x141;" horiz-adv-x="650" 
d="M291 153h354l-33 -153h-541l49 234l-100 -44l30 143l100 43l69 324h188l-50 -234l218 94l-30 -141l-217 -95z" />
    <glyph glyph-name="lslash" unicode="&#x142;" horiz-adv-x="391" 
d="M431 542l-30 -140l-97 -53l-75 -349h-172l52 243l-91 -50l29 142l92 50l68 315h172l-45 -210z" />
    <glyph glyph-name="Nacute" unicode="&#x143;" horiz-adv-x="842" 
d="M20 0l148 700h247l194 -518l58 25q-41 99 -41 183q0 43 11 96l46 214h181l-149 -700h-203l-224 602l-59 -23q42 -101 42 -193q0 -52 -12 -108l-58 -278h-181zM443 764l92 154h197l-160 -154h-129z" />
    <glyph glyph-name="nacute" unicode="&#x144;" horiz-adv-x="608" 
d="M5 0l106 501h145q-14 -60 -60 -111h73q53 128 161 128q63 0 103.5 -40t40.5 -111q0 -33 -7 -61l-66 -306h-174l63 293q3 16 3 31q0 58 -58 58q-73 0 -101 -129l-54 -253h-175zM314 566l84 154h179l-145 -154h-118z" />
    <glyph glyph-name="uni0145" unicode="&#x145;" horiz-adv-x="842" 
d="M20 0l148 700h247l194 -518l58 25q-41 99 -41 183q0 43 11 96l46 214h181l-149 -700h-203l-224 602l-59 -23q42 -101 42 -193q0 -52 -12 -108l-58 -278h-181zM206 -353l128 147h-88l32 149h164l-34 -153l-121 -143h-81z" />
    <glyph glyph-name="uni0146" unicode="&#x146;" horiz-adv-x="608" 
d="M5 0l106 501h145q-14 -60 -60 -111h73q53 128 161 128q63 0 103.5 -40t40.5 -111q0 -33 -7 -61l-66 -306h-174l63 293q3 16 3 31q0 58 -58 58q-73 0 -101 -129l-54 -253h-175zM93 -353l128 147h-88l32 149h164l-34 -153l-121 -143h-81z" />
    <glyph glyph-name="Ncaron" unicode="&#x147;" horiz-adv-x="842" 
d="M20 0l148 700h247l194 -518l58 25q-41 99 -41 183q0 43 11 96l46 214h181l-149 -700h-203l-224 602l-59 -23q42 -101 42 -193q0 -52 -12 -108l-58 -278h-181zM794 892l-155 -138h-216l-90 138h150l58 -73l92 73h161z" />
    <glyph glyph-name="ncaron" unicode="&#x148;" horiz-adv-x="608" 
d="M5 0l106 501h145q-14 -60 -60 -111h73q53 128 161 128q63 0 103.5 -40t40.5 -111q0 -33 -7 -61l-66 -306h-174l63 293q3 16 3 31q0 58 -58 58q-73 0 -101 -129l-54 -253h-175zM278 566l-81 138h136l51 -76l84 76h148l-140 -138h-198z" />
    <glyph glyph-name="Eng" unicode="&#x14a;" horiz-adv-x="842" 
d="M366 -195l31 142h72q55 0 66 56l8 44l-245 518l-14 33l-57 -24q43 -117 43 -199q0 -53 -13 -109l-56 -266h-181l149 700h240l202 -428l17 -38l57 26q-47 114 -47 184q0 42 10 92l35 164h181l-152 -715q-19 -97 -68.5 -138.5t-158.5 -41.5h-119z" />
    <glyph glyph-name="eng" unicode="&#x14b;" horiz-adv-x="608" 
d="M184 -195l27 131h60q42 0 52 45l67 312q3 17 3 30q0 59 -58 59q-73 0 -101 -129l-54 -253h-175l106 501h145q-12 -59 -61 -111h72q56 128 163 128q63 0 103.5 -40t40.5 -111q0 -33 -7 -61l-75 -351q-19 -83 -57.5 -116.5t-125.5 -33.5h-125z" />
    <glyph glyph-name="Omacron" unicode="&#x14c;" horiz-adv-x="849" 
d="M56 300q-2 176 119 297.5t301 119.5q171 0 264.5 -87.5t93.5 -229.5q2 -116 -52 -212t-151 -151.5t-215 -53.5q-172 0 -266 87.5t-94 229.5zM636 401q0 76 -42.5 120.5t-120.5 44.5q-93 3 -156 -77.5t-61 -188.5q0 -76 42.5 -121t120.5 -45q95 -2 157 78.5t60 188.5z
M341 771l25 105h366l-23 -105h-368z" />
    <glyph glyph-name="omacron" unicode="&#x14d;" 
d="M28 213q-2 129 85.5 218t213.5 87q123 0 193 -63t70 -171q2 -130 -85 -216.5t-214 -84.5q-122 0 -192.5 63t-70.5 167zM409 288q0 104 -84 104q-50 0 -83 -56t-33 -124q0 -103 83 -103q50 0 83.5 55.5t33.5 123.5zM205 578l23 106h323l-22 -106h-324z" />
    <glyph glyph-name="Obreve" unicode="&#x14e;" horiz-adv-x="849" 
d="M56 300q-2 176 119 297.5t301 119.5q171 0 264.5 -87.5t93.5 -229.5q2 -116 -52 -212t-151 -151.5t-215 -53.5q-172 0 -266 87.5t-94 229.5zM636 401q0 76 -42.5 120.5t-120.5 44.5q-93 3 -156 -77.5t-61 -188.5q0 -76 42.5 -121t120.5 -45q95 -2 157 78.5t60 188.5z
M346 889v13h120q-2 -27 16.5 -44.5t53.5 -17.5q69 0 96 62h124q-50 -156 -226 -156q-86 0 -135 40t-49 103z" />
    <glyph glyph-name="obreve" unicode="&#x14f;" 
d="M28 213q-2 129 85.5 218t213.5 87q123 0 193 -63t70 -171q2 -130 -85 -216.5t-214 -84.5q-122 0 -192.5 63t-70.5 167zM409 288q0 104 -84 104q-50 0 -83 -56t-33 -124q0 -103 83 -103q50 0 83.5 55.5t33.5 123.5zM208 691q0 10 1 13h108q-1 -27 16 -44t48 -17
q66 0 87 61h114q-46 -153 -206 -153q-79 0 -123.5 39t-44.5 101z" />
    <glyph glyph-name="Ohungarumlaut" unicode="&#x150;" horiz-adv-x="849" 
d="M56 300q-2 176 119 297.5t301 119.5q171 0 264.5 -87.5t93.5 -229.5q2 -116 -52 -212t-151 -151.5t-215 -53.5q-172 0 -266 87.5t-94 229.5zM636 401q0 76 -42.5 120.5t-120.5 44.5q-93 3 -156 -77.5t-61 -188.5q0 -76 42.5 -121t120.5 -45q95 -2 157 78.5t60 188.5z
M332 764l90 154h199l-160 -154h-129zM559 764l92 154h197l-159 -154h-130z" />
    <glyph glyph-name="ohungarumlaut" unicode="&#x151;" 
d="M28 213q-2 129 85.5 218t213.5 87q123 0 193 -63t70 -171q2 -130 -85 -216.5t-214 -84.5q-122 0 -192.5 63t-70.5 167zM409 288q0 104 -84 104q-50 0 -83 -56t-33 -124q0 -103 83 -103q50 0 83.5 55.5t33.5 123.5zM195 566l83 154h180l-145 -154h-118zM402 566l83 154
h180l-145 -154h-118z" />
    <glyph glyph-name="OE" unicode="&#x152;" horiz-adv-x="1170" 
d="M53 283q-2 114 47 215.5t134 161t182 57.5q102 0 154 -50q51 -49 66 -117h57q-7 31 -7 71q0 34 8 79h527l-33 -150h-349l-26 -119h270l-31 -140h-269l-30 -142h351l-32 -149h-513q10 50 64 129h-70q-35 -62 -87 -104t-140 -42q-125 0 -199 85.5t-74 214.5zM634 401
q0 74 -43.5 119.5t-119.5 45.5q-96 0 -157 -78t-61 -188q0 -75 43.5 -120.5t120.5 -45.5q94 0 155.5 79t61.5 188z" />
    <glyph glyph-name="oe" unicode="&#x153;" horiz-adv-x="975" 
d="M29 211q-2 128 79.5 218.5t195.5 88.5q76 0 125 -36.5t66 -88.5h51q24 53 72.5 89t118.5 36q97 0 152.5 -57.5t55.5 -150.5q0 -46 -13 -94h-349q-2 -22 -2 -29q0 -82 81 -82q67 0 108 78l153 -54q-35 -66 -97 -106t-148 -40q-75 0 -124 34.5t-62 88.5h-52
q-55 -123 -196 -123q-94 0 -154.5 63.5t-60.5 164.5zM604 313h180q1 7 1 16q0 35 -19.5 54.5t-53.5 19.5q-82 0 -108 -90zM409 288q0 104 -83 104q-50 0 -84 -55.5t-34 -125.5q0 -102 84 -102q49 0 83 55t34 124z" />
    <glyph glyph-name="Racute" unicode="&#x154;" horiz-adv-x="744" 
d="M20 0l148 700h333q111 0 173 -44t62 -125q0 -98 -77 -139q-77 -39 -187 -38l-14 -61q105 -2 141 -27t49 -110l20 -156h-197l-13 162q-5 56 -23 76t-70 20h-105l-55 -258h-185zM288 394h137q55 0 85 25t30 65q0 69 -90 69h-128zM382 764l92 154h197l-160 -154h-129z" />
    <glyph glyph-name="racute" unicode="&#x155;" horiz-adv-x="452" 
d="M5 0l107 501h160q-18 -76 -72 -153h72q32 89 71 128t101 39q24 0 48 -4l-37 -175q-31 6 -66 6q-73 0 -113.5 -40.5t-56.5 -121.5l-39 -180h-175zM244 566l84 154h179l-145 -154h-118z" />
    <glyph glyph-name="uni0156" unicode="&#x156;" horiz-adv-x="744" 
d="M20 0l148 700h333q111 0 173 -44t62 -125q0 -98 -77 -139q-77 -39 -187 -38l-14 -61q105 -2 141 -27t49 -110l20 -156h-197l-13 162q-5 56 -23 76t-70 20h-105l-55 -258h-185zM288 394h137q55 0 85 25t30 65q0 69 -90 69h-128zM164 -353l128 147h-88l32 149h164l-34 -153
l-121 -143h-81z" />
    <glyph glyph-name="uni0157" unicode="&#x157;" horiz-adv-x="452" 
d="M5 0l107 501h160q-18 -76 -72 -153h72q32 89 71 128t101 39q24 0 48 -4l-37 -175q-31 6 -66 6q-73 0 -113.5 -40.5t-56.5 -121.5l-39 -180h-175zM-68 -353l128 147h-88l32 149h164l-34 -153l-121 -143h-81z" />
    <glyph glyph-name="Rcaron" unicode="&#x158;" horiz-adv-x="744" 
d="M20 0l148 700h333q111 0 173 -44t62 -125q0 -98 -77 -139q-77 -39 -187 -38l-14 -61q105 -2 141 -27t49 -110l20 -156h-197l-13 162q-5 56 -23 76t-70 20h-105l-55 -258h-185zM288 394h137q55 0 85 25t30 65q0 69 -90 69h-128zM726 892l-155 -138h-216l-90 138h150
l58 -73l92 73h161z" />
    <glyph glyph-name="rcaron" unicode="&#x159;" horiz-adv-x="452" 
d="M5 0l107 501h160q-18 -76 -72 -153h72q32 89 71 128t101 39q24 0 48 -4l-37 -175q-31 6 -66 6q-73 0 -113.5 -40.5t-56.5 -121.5l-39 -180h-175zM208 566l-81 138h136l51 -76l84 76h148l-140 -138h-198z" />
    <glyph glyph-name="Sacute" unicode="&#x15a;" horiz-adv-x="704" 
d="M15 198l192 43q6 -51 45 -84t98 -33q53 0 83.5 20.5t30.5 54.5q0 27 -20 43t-63 26l-72 17q-111 22 -161 69t-50 133q0 102 84 166t219 64q134 0 214 -55.5t96 -144.5l-192 -39q-12 46 -44.5 72.5t-81.5 26.5q-47 0 -74 -20t-27 -51q0 -27 19 -43t61 -25l79 -19
q100 -21 156 -71.5t57 -129.5q0 -110 -85.5 -172.5t-227.5 -62.5q-150 0 -236 58.5t-100 156.5zM382 764l92 154h197l-160 -154h-129z" />
    <glyph glyph-name="sacute" unicode="&#x15b;" horiz-adv-x="541" 
d="M-4 134l165 33q16 -73 89 -73q32 0 51 13.5t19 35.5q0 31 -49 44l-61 15q-151 36 -151 141q0 79 63 127t168 48q100 0 159 -37.5t73 -92.5l-157 -39q-19 62 -81 62q-29 0 -45.5 -12.5t-16.5 -31.5q0 -15 13.5 -24.5t46.5 -17.5l51 -12q164 -41 164 -153
q0 -82 -70.5 -129.5t-178.5 -47.5q-111 0 -177 41t-75 110zM273 566l84 154h179l-145 -154h-118z" />
    <glyph glyph-name="Scircumflex" unicode="&#x15c;" horiz-adv-x="704" 
d="M15 198l192 43q6 -51 45 -84t98 -33q53 0 83.5 20.5t30.5 54.5q0 27 -20 43t-63 26l-72 17q-111 22 -161 69t-50 133q0 102 84 166t219 64q134 0 214 -55.5t96 -144.5l-192 -39q-12 46 -44.5 72.5t-81.5 26.5q-47 0 -74 -20t-27 -51q0 -27 19 -43t61 -25l79 -19
q100 -21 156 -71.5t57 -129.5q0 -110 -85.5 -172.5t-227.5 -62.5q-150 0 -236 58.5t-100 156.5zM211 764l156 138h216l90 -138h-151l-57 72l-92 -72h-162z" />
    <glyph glyph-name="scircumflex" unicode="&#x15d;" horiz-adv-x="541" 
d="M-4 134l165 33q16 -73 89 -73q32 0 51 13.5t19 35.5q0 31 -49 44l-61 15q-151 36 -151 141q0 79 63 127t168 48q100 0 159 -37.5t73 -92.5l-157 -39q-19 62 -81 62q-29 0 -45.5 -12.5t-16.5 -31.5q0 -15 13.5 -24.5t46.5 -17.5l51 -12q164 -41 164 -153
q0 -82 -70.5 -129.5t-178.5 -47.5q-111 0 -177 41t-75 110zM116 566l142 138h196l82 -138h-137l-52 72l-84 -72h-147z" />
    <glyph glyph-name="Scedilla" unicode="&#x15e;" horiz-adv-x="704" 
d="M664 218q0 -104 -75 -165t-203 -69l-16 -9l-47 -25q8 0 16 -5q30 -6 51 -26t21 -52q0 -52 -38 -81t-108 -29q-82 0 -134 54l63 69q33 -29 66 -29q43 0 43 23q0 9 -9 15t-23 6q-15 0 -25 -3l-25 54l67 40q-121 13 -191 68.5t-82 143.5l192 43q6 -51 45 -84t98 -33
q53 0 83.5 20.5t30.5 54.5q0 27 -20 43t-63 26l-72 17q-111 22 -161 69t-50 133q0 102 84 166t219 64q134 0 214 -55.5t96 -144.5l-192 -39q-12 46 -44.5 72.5t-81.5 26.5q-47 0 -74 -20t-27 -51q0 -27 19 -43t61 -25l79 -19q100 -21 156 -71.5t57 -129.5z" />
    <glyph glyph-name="scedilla" unicode="&#x15f;" horiz-adv-x="541" 
d="M497 160q0 -73 -57 -118.5t-149 -56.5l-17 -9q-22 -14 -45 -24q11 -2 16 -5q29 -6 49 -25t20 -50q0 -51 -36.5 -79t-104.5 -28q-82 0 -130 52l61 67q33 -29 64 -29q41 0 41 23q0 20 -30 20q-10 0 -24 -2l-25 52l64 38q-87 10 -138.5 49t-59.5 99l165 33q16 -73 89 -73
q32 0 51 13.5t19 35.5q0 31 -49 44l-61 15q-151 36 -151 141q0 79 63 127t168 48q100 0 159 -37.5t73 -92.5l-157 -39q-19 62 -81 62q-29 0 -45.5 -12.5t-16.5 -31.5q0 -15 13.5 -24.5t46.5 -17.5l51 -12q164 -41 164 -153z" />
    <glyph glyph-name="Scaron" unicode="&#x160;" horiz-adv-x="704" 
d="M15 198l192 43q6 -51 45 -84t98 -33q53 0 83.5 20.5t30.5 54.5q0 27 -20 43t-63 26l-72 17q-111 22 -161 69t-50 133q0 102 84 166t219 64q134 0 214 -55.5t96 -144.5l-192 -39q-12 46 -44.5 72.5t-81.5 26.5q-47 0 -74 -20t-27 -51q0 -27 19 -43t61 -25l79 -19
q100 -21 156 -71.5t57 -129.5q0 -110 -85.5 -172.5t-227.5 -62.5q-150 0 -236 58.5t-100 156.5zM717 892l-155 -138h-216l-90 138h150l58 -73l92 73h161z" />
    <glyph glyph-name="scaron" unicode="&#x161;" horiz-adv-x="554" 
d="M-4 134l165 33q16 -73 89 -73q32 0 51 13.5t19 35.5q0 31 -49 44l-61 15q-151 36 -151 141q0 79 63 127t168 48q100 0 159 -37.5t73 -92.5l-157 -39q-19 62 -81 62q-29 0 -45.5 -12.5t-16.5 -31.5q0 -15 13.5 -24.5t46.5 -17.5l51 -12q164 -41 164 -153
q0 -82 -70.5 -129.5t-178.5 -47.5q-111 0 -177 41t-75 110zM237 566l-81 138h136l51 -76l84 76h148l-140 -138h-198z" />
    <glyph glyph-name="uni0162" unicode="&#x162;" horiz-adv-x="661" 
d="M107 700h638l-31 -144h-224l-118 -556l-41 -24l-45 -24q10 -2 15 -5q29 -6 49.5 -25t20.5 -50q0 -51 -37 -79t-105 -28q-80 0 -130 52l62 67q29 -29 64 -29q40 0 40 23q0 20 -30 20q-10 0 -24 -2l-24 52l86 52h-89l117 556h-224z" />
    <glyph glyph-name="uni0163" unicode="&#x163;" horiz-adv-x="451" 
d="M308 379l-45 -208q-2 -10 -2 -12q0 -27 33 -27h118l-28 -132h-87l-41 -24q-22 -14 -45 -24q11 -2 16 -5q28 -6 48.5 -25t20.5 -50q0 -51 -36.5 -79t-104.5 -28q-82 0 -130 52l61 67q33 -29 64 -29q41 0 41 23q0 20 -30 20q-12 0 -24 -2l-25 52l91 54q-117 17 -117 125
q0 25 6 49l44 203h-100l26 122h100l33 155h172l-34 -155h119l-26 -122h-118z" />
    <glyph glyph-name="Tcaron" unicode="&#x164;" horiz-adv-x="661" 
d="M184 0l117 556h-224l30 144h638l-31 -144h-224l-118 -556h-188zM705 892l-155 -138h-216l-90 138h150l58 -73l92 73h161z" />
    <glyph glyph-name="tcaron" unicode="&#x165;" horiz-adv-x="451" 
d="M86 127q0 25 6 49l44 203h-100l26 122h100l33 155h172l-34 -155h119l-26 -122h-118l-45 -208q-2 -10 -2 -12q0 -27 33 -27h118l-28 -132h-146q-72 0 -112 33t-40 94zM393 542l128 147h-88l32 149h164l-34 -153l-121 -143h-81z" />
    <glyph glyph-name="Tbar" unicode="&#x166;" horiz-adv-x="672" 
d="M718 556h-224l-27 -126h130l-26 -120h-129l-66 -310h-188l65 310h-129l25 120h130l27 126h-224l30 144h637z" />
    <glyph glyph-name="tbar" unicode="&#x167;" horiz-adv-x="459" 
d="M434 379h-119l-10 -45h120l-23 -106h-120l-12 -57q-1 -5 -1 -12q0 -27 32 -27h118l-28 -132h-145q-73 0 -112.5 33t-39.5 94q0 22 5 49l11 52h-98l23 106h99l10 45h-101l26 122h100l33 155h172l-33 -155h118z" />
    <glyph glyph-name="Utilde" unicode="&#x168;" horiz-adv-x="776" 
d="M65 217q0 35 9 81l86 402h187l-83 -390q-7 -31 -7 -58q0 -55 30 -83.5t87 -28.5q65 0 104 42t57 128l83 390h188l-88 -412q-33 -158 -116 -231.5t-235 -73.5q-145 0 -223.5 61t-78.5 173zM497 781l-25 13q-37 17 -46 17q-40 0 -51 -48h-120q9 70 51.5 109t108.5 39
q50 0 99 -27l24 -13q33 -17 47 -17q39 0 51 48h119q-9 -72 -51.5 -110t-108.5 -38q-49 0 -98 27z" />
    <glyph glyph-name="utilde" unicode="&#x169;" horiz-adv-x="625" 
d="M31 124q0 26 8 63l67 314h175l-63 -294q-4 -17 -4 -32q0 -56 54 -56q74 0 103 131l54 251h173l-106 -501h-151q12 51 65 112h-73q-66 -128 -169 -128q-59 0 -96 36.5t-37 103.5zM362 583l-23 14q-31 17 -43 17q-36 0 -47 -48h-111q7 69 46.5 108t101.5 39q45 0 92 -27
l22 -13q5 -5 19.5 -11t23.5 -6q36 0 48 48h111q-10 -73 -49 -110t-100 -37q-47 0 -91 26z" />
    <glyph glyph-name="Umacron" unicode="&#x16a;" horiz-adv-x="776" 
d="M65 217q0 35 9 81l86 402h187l-83 -390q-7 -31 -7 -58q0 -55 30 -83.5t87 -28.5q65 0 104 42t57 128l83 390h188l-88 -412q-33 -158 -116 -231.5t-235 -73.5q-145 0 -223.5 61t-78.5 173zM308 771l25 105h366l-23 -105h-368z" />
    <glyph glyph-name="umacron" unicode="&#x16b;" horiz-adv-x="604" 
d="M31 124q0 26 8 63l67 314h175l-63 -294q-4 -17 -4 -32q0 -56 54 -56q74 0 103 131l54 251h173l-106 -501h-151q12 51 65 112h-73q-66 -128 -169 -128q-59 0 -96 36.5t-37 103.5zM205 578l23 106h323l-22 -106h-324z" />
    <glyph glyph-name="Ubreve" unicode="&#x16c;" horiz-adv-x="776" 
d="M65 217q0 35 9 81l86 402h187l-83 -390q-7 -31 -7 -58q0 -55 30 -83.5t87 -28.5q65 0 104 42t57 128l83 390h188l-88 -412q-33 -158 -116 -231.5t-235 -73.5q-145 0 -223.5 61t-78.5 173zM312 889v13h120q-2 -27 16.5 -44.5t53.5 -17.5q69 0 96 62h124
q-49 -156 -226 -156q-86 0 -135 40t-49 103z" />
    <glyph glyph-name="ubreve" unicode="&#x16d;" horiz-adv-x="604" 
d="M31 124q0 26 8 63l67 314h175l-63 -294q-4 -17 -4 -32q0 -56 54 -56q74 0 103 131l54 251h173l-106 -501h-151q12 51 65 112h-73q-66 -128 -169 -128q-59 0 -96 36.5t-37 103.5zM208 691q0 10 1 13h108q-1 -27 16 -44t48 -17q66 0 87 61h114q-46 -153 -206 -153
q-79 0 -123.5 39t-44.5 101z" />
    <glyph glyph-name="Uring" unicode="&#x16e;" horiz-adv-x="776" 
d="M65 217q0 35 9 81l86 402h187l-83 -390q-7 -31 -7 -58q0 -55 30 -83.5t87 -28.5q65 0 104 42t57 128l83 390h188l-88 -412q-33 -158 -116 -231.5t-235 -73.5q-145 0 -223.5 61t-78.5 173zM351 866q0 61 44 105t112 44q59 0 97.5 -36t38.5 -93q0 -61 -43.5 -104
t-111.5 -43q-61 0 -99 35t-38 92zM546 884q0 19 -12.5 31t-31.5 12q-24 0 -39.5 -15.5t-15.5 -40.5q0 -20 13.5 -32.5t33.5 -12.5q23 0 37.5 16t14.5 42z" />
    <glyph glyph-name="uring" unicode="&#x16f;" horiz-adv-x="604" 
d="M31 124q0 26 8 63l67 314h175l-63 -294q-4 -17 -4 -32q0 -56 54 -56q74 0 103 131l54 251h173l-106 -501h-151q12 51 65 112h-73q-66 -128 -169 -128q-59 0 -96 36.5t-37 103.5zM242 666q0 56 40 96.5t103 40.5q56 0 91 -33.5t35 -85.5q0 -56 -40 -95.5t-102 -39.5
q-55 0 -91 32.5t-36 84.5zM422 682q0 18 -11.5 29t-29.5 11q-21 0 -35.5 -14t-14.5 -37q0 -18 12 -29.5t31 -11.5q21 0 34.5 14.5t13.5 37.5z" />
    <glyph glyph-name="Uhungarumlaut" unicode="&#x170;" horiz-adv-x="776" 
d="M65 217q0 35 9 81l86 402h187l-83 -390q-7 -31 -7 -58q0 -55 30 -83.5t87 -28.5q65 0 104 42t57 128l83 390h188l-88 -412q-33 -158 -116 -231.5t-235 -73.5q-145 0 -223.5 61t-78.5 173zM301 764l90 154h199l-160 -154h-129zM528 764l92 154h197l-159 -154h-130z" />
    <glyph glyph-name="uhungarumlaut" unicode="&#x171;" horiz-adv-x="604" 
d="M31 124q0 26 8 63l67 314h175l-63 -294q-4 -17 -4 -32q0 -56 54 -56q74 0 103 131l54 251h173l-106 -501h-151q12 51 65 112h-73q-66 -128 -169 -128q-59 0 -96 36.5t-37 103.5zM194 566l83 154h180l-145 -154h-118zM401 566l83 154h180l-145 -154h-118z" />
    <glyph glyph-name="Uogonek" unicode="&#x172;" horiz-adv-x="776" 
d="M234 -125q0 66 73 112q-119 13 -180.5 71.5t-61.5 157.5q0 38 9 82l86 402h187l-83 -390q-7 -31 -7 -58q0 -55 30 -83.5t87 -28.5q65 0 104 42t57 128l83 390h188l-88 -412q-27 -133 -89 -203.5t-168 -91.5q-110 -27 -110 -69q0 -25 38 -25q28 0 79 15l-25 -111
q-44 -16 -96 -16t-82.5 23.5t-30.5 64.5z" />
    <glyph glyph-name="uogonek" unicode="&#x173;" horiz-adv-x="604" 
d="M358 -76q0 -25 38 -25q28 0 79 15l-24 -111q-47 -16 -97 -16q-52 0 -82 23.5t-30 64.5q0 82 99 125q11 49 65 112h-73q-66 -128 -169 -128q-59 0 -96 36.5t-37 103.5q0 26 8 63l67 314h175l-63 -294q-4 -17 -4 -32q0 -56 54 -56q74 0 103 131l54 251h173l-106 -501
q-134 -31 -134 -76z" />
    <glyph glyph-name="Wcircumflex" unicode="&#x174;" horiz-adv-x="1074" 
d="M139 0l-32 700h191l1 -204q-1 -120 -53 -349h65q30 157 69 249l135 304h225l5 -304q0 -108 -35 -249h66q41 223 91 345l88 208h200l-322 -700h-224l-11 278q-2 69 9 132q13 82 29 153h-66q-31 -170 -83 -285l-129 -278h-219zM402 764l156 138h216l90 -138h-151l-57 72
l-92 -72h-162z" />
    <glyph glyph-name="wcircumflex" unicode="&#x175;" horiz-adv-x="862" 
d="M96 0l-34 501h164l1 -114q-3 -73 -12 -130q-7 -48 -29 -159h59q18 87 33 141q17 56 40 113l65 149h192l3 -148q0 -52 -8 -110q-8 -56 -27 -145h59q26 118 38 159q16 60 51 141l45 103h171l-247 -501h-204l-4 123q0 95 38 290h-62q-17 -85 -40 -173q-17 -67 -40 -116
l-55 -124h-197zM276 566l142 138h196l82 -138h-137l-52 72l-84 -72h-147z" />
    <glyph glyph-name="Ycircumflex" unicode="&#x176;" horiz-adv-x="696" 
d="M201 0l59 275l-162 425h197l38 -110q19 -54 19 -110q0 -53 -17 -122h64q15 75 36 128t61 110l76 104h215l-340 -426l-58 -274h-188zM214 764l156 138h216l90 -138h-151l-57 72l-92 -72h-162z" />
    <glyph glyph-name="ycircumflex" unicode="&#x177;" horiz-adv-x="584" 
d="M450 501h183l-318 -562q-47 -82 -83.5 -107t-120.5 -27h-163l29 132h129q22 0 35.5 10.5t27.5 37.5l16 29l-143 487h181l33 -157q7 -29 7 -67q0 -51 -20 -151h59q28 146 70 227zM128 566l142 138h196l82 -138h-137l-52 72l-84 -72h-147z" />
    <glyph glyph-name="Ydieresis" unicode="&#x178;" horiz-adv-x="696" 
d="M201 0l59 275l-162 425h197l38 -110q19 -54 19 -110q0 -53 -17 -122h64q15 75 36 128t61 110l76 104h215l-340 -426l-58 -274h-188zM239 764l32 132h169l-31 -132h-170zM495 764l31 132h169l-31 -132h-169z" />
    <glyph glyph-name="Zacute" unicode="&#x179;" horiz-adv-x="664" 
d="M-13 0l42 198l491 391l-39 52q-94 -90 -206 -90h-162l32 149h561l-43 -194l-493 -394l43 -49q92 92 217 92h180l-33 -155h-590zM359 764l92 154h197l-160 -154h-129z" />
    <glyph glyph-name="zacute" unicode="&#x17a;" horiz-adv-x="515" 
d="M-19 0l40 187l319 213l-34 49q-88 -76 -167 -76h-69l27 128h428l-35 -161l-351 -234l36 -48q94 74 191 74h92l-29 -132h-448zM256 566l84 154h179l-145 -154h-118z" />
    <glyph glyph-name="Zdotaccent" unicode="&#x17b;" horiz-adv-x="664" 
d="M-13 0l42 198l491 391l-39 52q-94 -90 -206 -90h-162l32 149h561l-43 -194l-493 -394l43 -49q92 92 217 92h180l-33 -155h-590zM343 761l31 147h166l-31 -147h-166z" />
    <glyph glyph-name="zdotaccent" unicode="&#x17c;" horiz-adv-x="515" 
d="M-19 0l40 187l319 213l-34 49q-88 -76 -167 -76h-69l27 128h428l-35 -161l-351 -234l36 -48q94 74 191 74h92l-29 -132h-448zM232 563l31 147h166l-31 -147h-166z" />
    <glyph glyph-name="Zcaron" unicode="&#x17d;" horiz-adv-x="664" 
d="M-13 0l42 198l491 391l-39 52q-94 -90 -206 -90h-162l32 149h561l-43 -194l-493 -394l43 -49q92 92 217 92h180l-33 -155h-590zM689 892l-155 -138h-216l-90 138h150l58 -73l92 73h161z" />
    <glyph glyph-name="zcaron" unicode="&#x17e;" horiz-adv-x="515" 
d="M-19 0l40 187l319 213l-34 49q-88 -76 -167 -76h-69l27 128h428l-35 -161l-351 -234l36 -48q94 74 191 74h92l-29 -132h-448zM220 566l-81 138h136l51 -76l84 76h148l-140 -138h-198z" />
    <glyph glyph-name="florin" unicode="&#x192;" horiz-adv-x="478" 
d="M-144 -200l28 128q28 -5 42 -5q81 0 110 88l50 143q23 65 55.5 106t85.5 74l-36 51q-40 -29 -58.5 -38t-44.5 -9h-41l22 104h118l32 92q61 183 245 183q49 0 92 -13l-28 -129q-25 4 -48 4q-79 0 -101 -64l-26 -73h127l-22 -101h-140l-119 -339q-39 -111 -101.5 -161
t-165.5 -50q-39 0 -76 9z" />
    <glyph glyph-name="uni01E2" unicode="&#x1e2;" horiz-adv-x="992" 
d="M1012 551h-325l-27 -125h244l-29 -138h-245l-28 -139h325l-32 -149h-497l32 150h-186l-97 -150h-219l489 700h626zM565 604h-75q-48 -146 -108 -241l-45 -69h123l19 80q24 115 86 230zM546 771l25 105h366l-23 -105h-368z" />
    <glyph glyph-name="uni01E3" unicode="&#x1e3;" horiz-adv-x="908" 
d="M9 113q0 93 96.5 146t260.5 59l5 26q2 8 2 12q0 22 -17.5 35t-46.5 13q-34 0 -61.5 -19.5t-39.5 -51.5l-157 33q19 62 84 107t156 45q68 0 111 -31t54 -78h52q16 46 61.5 77.5t106.5 31.5q90 0 147 -58.5t57 -151.5q0 -44 -14 -92h-348q-2 -18 -2 -30q0 -81 82 -81
q66 0 107 78l150 -54q-35 -65 -100 -105.5t-155 -40.5q-87 0 -138 38t-57 96h-52q-58 -133 -199 -133q-65 0 -105 34.5t-40 94.5zM539 313h180q1 7 1 15q0 35 -19.5 55t-53.5 20q-82 0 -108 -90zM340 196l8 33q-165 -7 -165 -91q0 -17 13.5 -27.5t36.5 -10.5q40 0 69 24.5
t38 71.5zM344 578l23 106h323l-22 -106h-324z" />
    <glyph glyph-name="Aringacute" unicode="&#x1fa;" horiz-adv-x="752" 
d="M506 0l-16 146h-261l-78 -146h-203l400 700h248l101 -700h-191zM305 290h170l-10 85q-3 26 -3 52q0 83 28 177h-65q-22 -129 -71 -222zM473 1021l82 123h176l-142 -123h-116zM371 855q0 56 40.5 96.5t103.5 40.5q56 0 90.5 -33t34.5 -86q0 -57 -39.5 -96t-102.5 -39
q-55 0 -91 32.5t-36 84.5zM552 871q0 17 -12 28.5t-30 11.5q-21 0 -35 -14.5t-14 -37.5q0 -18 12 -29.5t30 -11.5q21 0 35 14.5t14 38.5z" />
    <glyph glyph-name="aringacute" unicode="&#x1fb;" horiz-adv-x="596" 
d="M15 115q0 96 93.5 148.5t265.5 58.5l4 21q2 10 2 12q0 49 -67 49q-74 0 -101 -70l-165 33q18 64 87.5 107.5t182.5 43.5q108 0 166 -42.5t58 -122.5q0 -25 -6 -54l-32 -148q-1 -4 -1 -8q0 -18 19 -18h46l-27 -125h-67q-49 0 -70.5 15t-21.5 48q0 15 5 38h-55
q-52 -118 -174 -118q-61 0 -101.5 36t-40.5 96zM349 203l5 28q-164 -7 -164 -86q0 -22 13.5 -34t37.5 -12q35 0 66.5 29t41.5 75zM323 832l82 123h176l-142 -123h-116zM221 666q0 56 40.5 96.5t103.5 40.5q56 0 90.5 -33t34.5 -86q0 -57 -39.5 -96t-102.5 -39
q-55 0 -91 32.5t-36 84.5zM402 682q0 17 -12 28.5t-30 11.5q-21 0 -35 -14.5t-14 -37.5q0 -18 12 -29.5t30 -11.5q21 0 35 14.5t14 38.5z" />
    <glyph glyph-name="AEacute" unicode="&#x1fc;" horiz-adv-x="992" 
d="M1012 551h-325l-27 -125h244l-29 -138h-245l-28 -139h325l-32 -149h-497l32 150h-186l-97 -150h-219l489 700h626zM565 604h-75q-48 -146 -108 -241l-45 -69h123l19 80q24 115 86 230zM658 764l92 154h197l-160 -154h-129z" />
    <glyph glyph-name="aeacute" unicode="&#x1fd;" horiz-adv-x="908" 
d="M9 113q0 93 96.5 146t260.5 59l5 26q2 8 2 12q0 22 -17.5 35t-46.5 13q-34 0 -61.5 -19.5t-39.5 -51.5l-157 33q19 62 84 107t156 45q68 0 111 -31t54 -78h52q16 46 61.5 77.5t106.5 31.5q90 0 147 -58.5t57 -151.5q0 -44 -14 -92h-348q-2 -18 -2 -30q0 -81 82 -81
q66 0 107 78l150 -54q-35 -65 -100 -105.5t-155 -40.5q-87 0 -138 38t-57 96h-52q-58 -133 -199 -133q-65 0 -105 34.5t-40 94.5zM539 313h180q1 7 1 15q0 35 -19.5 55t-53.5 20q-82 0 -108 -90zM340 196l8 33q-165 -7 -165 -91q0 -17 13.5 -27.5t36.5 -10.5q40 0 69 24.5
t38 71.5zM444 566l84 154h179l-145 -154h-118z" />
    <glyph glyph-name="Oslashacute" unicode="&#x1fe;" horiz-adv-x="851" 
d="M122 -39l-93 99l75 68q-47 74 -47 172q-2 176 119 297.5t301 119.5q128 0 216 -52l81 73l92 -101l-75 -68q44 -74 44 -169q2 -116 -52 -212t-151 -151.5t-215 -53.5q-129 0 -215 50zM265 268l179 171q41 38 70.5 51t75.5 15l11 56q-53 15 -103 15q-102 0 -169.5 -71.5
t-70.5 -180.5q0 -34 7 -56zM634 373q1 24 -4 55l-173 -165q-44 -41 -73 -53.5t-79 -15.5l-8 -55q40 -15 105 -15q96 0 160 71t72 178zM465 764l92 154h197l-160 -154h-129z" />
    <glyph glyph-name="oslashacute" unicode="&#x1ff;" horiz-adv-x="623" 
d="M122 30l-59 -48l-64 77l57 46q-26 50 -26 108q0 131 86.5 218t213.5 87q106 0 170 -45l63 52l63 -77l-60 -51q27 -51 27 -113q2 -130 -85 -216.5t-214 -84.5q-107 0 -172 47zM214 231l62 57q58 49 106 49q10 0 17 -1l12 55q-31 11 -66 11q-46 0 -80.5 -34t-46.5 -92
q-4 -23 -4 -45zM402 223q5 30 4 49l-61 -58q-57 -54 -109 -54q-7 0 -9 1l-13 -55q21 -10 58 -10q48 0 82.5 33.5t47.5 93.5zM311 566l84 154h179l-145 -154h-118z" />
    <glyph glyph-name="uni0218" unicode="&#x218;" horiz-adv-x="704" 
d="M15 198l192 43q6 -51 45 -84t98 -33q53 0 83.5 20.5t30.5 54.5q0 27 -20 43t-63 26l-72 17q-111 22 -161 69t-50 133q0 102 84 166t219 64q134 0 214 -55.5t96 -144.5l-192 -39q-12 46 -44.5 72.5t-81.5 26.5q-47 0 -74 -20t-27 -51q0 -27 19 -43t61 -25l79 -19
q100 -21 156 -71.5t57 -129.5q0 -110 -85.5 -172.5t-227.5 -62.5q-150 0 -236 58.5t-100 156.5zM164 -353l128 147h-88l32 149h164l-34 -153l-121 -143h-81z" />
    <glyph glyph-name="uni0219" unicode="&#x219;" horiz-adv-x="541" 
d="M-4 134l165 33q16 -73 89 -73q32 0 51 13.5t19 35.5q0 31 -49 44l-61 15q-151 36 -151 141q0 79 63 127t168 48q100 0 159 -37.5t73 -92.5l-157 -39q-19 62 -81 62q-29 0 -45.5 -12.5t-16.5 -31.5q0 -15 13.5 -24.5t46.5 -17.5l51 -12q164 -41 164 -153
q0 -82 -70.5 -129.5t-178.5 -47.5q-111 0 -177 41t-75 110zM59 -353l128 147h-88l32 149h164l-34 -153l-121 -143h-81z" />
    <glyph glyph-name="uni021A" unicode="&#x21a;" horiz-adv-x="661" 
d="M184 0l117 556h-224l30 144h638l-31 -144h-224l-118 -556h-188zM113 -353l128 147h-88l32 149h164l-34 -153l-121 -143h-81z" />
    <glyph glyph-name="uni021B" unicode="&#x21b;" horiz-adv-x="451" 
d="M86 127q0 25 6 49l44 203h-100l26 122h100l33 155h172l-34 -155h119l-26 -122h-118l-45 -208q-2 -10 -2 -12q0 -27 33 -27h118l-28 -132h-146q-72 0 -112 33t-40 94zM41 -353l128 147h-88l32 149h164l-34 -153l-121 -143h-81z" />
    <glyph glyph-name="uni0226" unicode="&#x226;" horiz-adv-x="752" 
d="M506 0l-16 146h-261l-78 -146h-203l400 700h248l101 -700h-191zM305 290h170l-10 85q-3 26 -3 52q0 83 28 177h-65q-22 -129 -71 -222zM402 761l31 147h166l-31 -147h-166z" />
    <glyph glyph-name="uni0227" unicode="&#x227;" horiz-adv-x="596" 
d="M15 115q0 96 93.5 148.5t265.5 58.5l4 21q2 10 2 12q0 49 -67 49q-74 0 -101 -70l-165 33q18 64 87.5 107.5t182.5 43.5q108 0 166 -42.5t58 -122.5q0 -25 -6 -54l-32 -148q-1 -4 -1 -8q0 -18 19 -18h46l-27 -125h-67q-49 0 -70.5 15t-21.5 48q0 15 5 38h-55
q-52 -118 -174 -118q-61 0 -101.5 36t-40.5 96zM349 203l5 28q-164 -7 -164 -86q0 -22 13.5 -34t37.5 -12q35 0 66.5 29t41.5 75zM261 563l31 147h166l-31 -147h-166z" />
    <glyph glyph-name="uni0232" unicode="&#x232;" horiz-adv-x="696" 
d="M201 0l59 275l-162 425h197l38 -110q19 -54 19 -110q0 -53 -17 -122h64q15 75 36 128t61 110l76 104h215l-340 -426l-58 -274h-188zM273 771l25 105h366l-23 -105h-368z" />
    <glyph glyph-name="uni0233" unicode="&#x233;" horiz-adv-x="584" 
d="M450 501h183l-318 -562q-47 -82 -83.5 -107t-120.5 -27h-163l29 132h129q22 0 35.5 10.5t27.5 37.5l16 29l-143 487h181l33 -157q7 -29 7 -67q0 -51 -20 -151h59q28 146 70 227zM184 578l23 106h323l-22 -106h-324z" />
    <glyph glyph-name="uni0237" unicode="&#x237;" horiz-adv-x="296" 
d="M-133 -195l27 129h67q39 0 46 41l113 526h171l-117 -545q-16 -75 -54 -113t-108 -38h-145z" />
    <glyph glyph-name="circumflex" unicode="&#x2c6;" horiz-adv-x="722" 
d="M119 566l142 138h196l82 -138h-137l-52 72l-84 -72h-147z" />
    <glyph glyph-name="caron" unicode="&#x2c7;" horiz-adv-x="722" 
d="M227 566l-81 138h136l51 -76l84 76h148l-140 -138h-198z" />
    <glyph glyph-name="breve" unicode="&#x2d8;" horiz-adv-x="471" 
d="M117 691q0 10 1 13h108q-1 -27 16 -44t48 -17q66 0 87 61h114q-46 -153 -206 -153q-79 0 -123.5 39t-44.5 101z" />
    <glyph glyph-name="dotaccent" unicode="&#x2d9;" horiz-adv-x="312" 
d="M119 563l31 147h166l-31 -147h-166z" />
    <glyph glyph-name="ring" unicode="&#x2da;" horiz-adv-x="354" 
d="M136 664q0 56 40 96.5t103 40.5q56 0 91 -33.5t35 -85.5q0 -56 -40 -95.5t-102 -39.5q-55 0 -91 32.5t-36 84.5zM316 680q0 18 -11.5 29t-29.5 11q-21 0 -35.5 -14t-14.5 -37q0 -18 12 -29.5t31 -11.5q21 0 34.5 14.5t13.5 37.5z" />
    <glyph glyph-name="ogonek" unicode="&#x2db;" horiz-adv-x="319" 
d="M39 -125q0 52 48 93.5t131 57.5l71 -26q-133 -31 -133 -76q0 -25 37 -25q28 0 79 15l-24 -111q-47 -16 -96 -16q-53 0 -83 23.5t-30 64.5z" />
    <glyph glyph-name="tilde" unicode="&#x2dc;" horiz-adv-x="527" 
d="M324 583l-23 14q-31 17 -43 17q-36 0 -47 -48h-111q7 69 46.5 108t101.5 39q45 0 92 -27l22 -13q5 -5 19.5 -11t23.5 -6q36 0 48 48h111q-10 -73 -49 -110t-100 -37q-47 0 -91 26z" />
    <glyph glyph-name="hungarumlaut" unicode="&#x2dd;" horiz-adv-x="522" 
d="M95 566l83 154h180l-145 -154h-118zM302 566l83 154h180l-145 -154h-118z" />
    <glyph glyph-name="gravecomb" unicode="&#x300;" horiz-adv-x="0" 
d="M-77 566l-89 154h180l17 -154h-108z" />
    <glyph glyph-name="acutecomb" unicode="&#x301;" horiz-adv-x="0" 
d="M-174 566l84 154h179l-145 -154h-118z" />
    <glyph glyph-name="uni0302" unicode="&#x302;" horiz-adv-x="0" 
d="M-394 566l142 138h196l82 -138h-137l-52 72l-84 -72h-147z" />
    <glyph glyph-name="tildecomb" unicode="&#x303;" horiz-adv-x="0" 
d="M-180 583l-23 14q-31 17 -43 17q-36 0 -47 -48h-111q7 69 46.5 108t101.5 39q45 0 92 -27l22 -13q5 -5 19.5 -11t23.5 -6q36 0 48 48h111q-10 -73 -49 -110t-100 -37q-47 0 -91 26z" />
    <glyph glyph-name="uni0304" unicode="&#x304;" horiz-adv-x="0" 
d="M-280 578l23 106h323l-22 -106h-324z" />
    <glyph glyph-name="uni0306" unicode="&#x306;" horiz-adv-x="0" 
d="M-294 691q0 10 1 13h108q-1 -27 16 -44t48 -17q66 0 87 61h114q-46 -153 -206 -153q-79 0 -123.5 39t-44.5 101z" />
    <glyph glyph-name="uni0307" unicode="&#x307;" horiz-adv-x="0" 
d="M-148 563l31 147h166l-31 -147h-166z" />
    <glyph glyph-name="uni0308" unicode="&#x308;" horiz-adv-x="0" 
d="M-371 572l28 132h154l-28 -132h-154zM-139 572l29 132h153l-28 -132h-154z" />
    <glyph glyph-name="uni030A" unicode="&#x30a;" horiz-adv-x="0" 
d="M-201 666q0 56 40 96.5t103 40.5q56 0 91 -33.5t35 -85.5q0 -56 -40 -95.5t-102 -39.5q-55 0 -91 32.5t-36 84.5zM-21 682q0 18 -11.5 29t-29.5 11q-21 0 -35.5 -14t-14.5 -37q0 -18 12 -29.5t31 -11.5q21 0 34.5 14.5t13.5 37.5z" />
    <glyph glyph-name="uni030B" unicode="&#x30b;" horiz-adv-x="0" 
d="M-389 566l83 154h180l-145 -154h-118zM-182 566l83 154h180l-145 -154h-118z" />
    <glyph glyph-name="uni030C" unicode="&#x30c;" horiz-adv-x="0" 
d="M-293 566l-81 138h136l51 -76l84 76h148l-140 -138h-198z" />
    <glyph glyph-name="uni0312" unicode="&#x312;" horiz-adv-x="0" 
d="M122 858l-128 -148h88l-32 -148h-164l34 153l122 143h80z" />
    <glyph glyph-name="dotbelowcomb" unicode="&#x323;" horiz-adv-x="0" 
d="M-263 -205l31 147h166l-31 -147h-166z" />
    <glyph glyph-name="uni0326" unicode="&#x326;" horiz-adv-x="0" 
d="M-289 -353l128 147h-88l32 149h164l-34 -153l-121 -143h-81z" />
    <glyph glyph-name="uni0327" unicode="&#x327;" horiz-adv-x="0" 
d="M-349 -183l61 67q33 -29 64 -29q41 0 41 23q0 20 -30 20q-12 0 -24 -2l-25 52l124 74l61 -22l-41 -24q-22 -14 -45 -24q11 -2 16 -5q28 -6 48.5 -25t20.5 -50q0 -51 -36.5 -79t-104.5 -28q-82 0 -130 52z" />
    <glyph glyph-name="uni0328" unicode="&#x328;" horiz-adv-x="0" 
d="M-264 -125q0 52 48 93.5t131 57.5l71 -26q-133 -31 -133 -76q0 -25 37 -25q28 0 79 15l-24 -111q-47 -16 -96 -16q-53 0 -83 23.5t-30 64.5z" />
    <glyph glyph-name="uni0394" unicode="&#x394;" horiz-adv-x="758" 
d="M600 700l103 -700h-755l400 700h252zM232 150h262l-25 225q-3 27 -3 54q0 79 25 175h-64q-24 -130 -72 -222z" />
    <glyph glyph-name="uni03A9" unicode="&#x3a9;" horiz-adv-x="860" 
d="M-9 0l31 147h35q76 0 166 -60l27 58q-179 68 -179 216q-3 141 117.5 250t291.5 106q166 0 255.5 -81t89.5 -197q0 -103 -70 -178t-196 -117l28 -58q91 61 163 61h27l-31 -147h-342l31 145q86 20 136.5 95.5t50.5 164.5q0 76 -41.5 118.5t-114.5 42.5q-91 2 -150 -80
t-58 -183q0 -126 101 -158l-31 -145h-337z" />
    <glyph glyph-name="uni03BC" unicode="&#x3bc;" horiz-adv-x="607" 
d="M-38 -195l149 696h175l-63 -294q-4 -17 -4 -32q0 -27 14 -41.5t39 -14.5q76 0 104 131l54 251h173l-106 -501h-153q14 55 66 112h-70q-46 -98 -127 -104q-17 -10 -36 -15l-39 -188h-176z" />
    <glyph glyph-name="pi" unicode="&#x3c0;" horiz-adv-x="695" 
d="M59 0l78 367h-95l27 134h640l-28 -134h-97l-42 -193v-11q0 -29 35 -29h54l-29 -134h-87q-69 0 -106.5 31.5t-37.5 91.5q0 19 5 47l42 197h-113l-78 -367h-168z" />
    <glyph glyph-name="Wgrave" unicode="&#x1e80;" horiz-adv-x="1074" 
d="M139 0l-32 700h191l1 -204q-1 -120 -53 -349h65q30 157 69 249l135 304h225l5 -304q0 -108 -35 -249h66q41 223 91 345l88 208h200l-322 -700h-224l-11 278q-2 69 9 132q13 82 29 153h-66q-31 -170 -83 -285l-129 -278h-219zM574 764l-98 154h198l18 -154h-118z" />
    <glyph glyph-name="wgrave" unicode="&#x1e81;" horiz-adv-x="862" 
d="M96 0l-34 501h164l1 -114q-3 -73 -12 -130q-7 -48 -29 -159h59q18 87 33 141q17 56 40 113l65 149h192l3 -148q0 -52 -8 -110q-8 -56 -27 -145h59q26 118 38 159q16 60 51 141l45 103h171l-247 -501h-204l-4 123q0 95 38 290h-62q-17 -85 -40 -173q-17 -67 -40 -116
l-55 -124h-197zM439 566l-89 154h180l17 -154h-108z" />
    <glyph glyph-name="Wacute" unicode="&#x1e82;" horiz-adv-x="1074" 
d="M139 0l-32 700h191l1 -204q-1 -120 -53 -349h65q30 157 69 249l135 304h225l5 -304q0 -108 -35 -249h66q41 223 91 345l88 208h200l-322 -700h-224l-11 278q-2 69 9 132q13 82 29 153h-66q-31 -170 -83 -285l-129 -278h-219zM573 764l92 154h197l-160 -154h-129z" />
    <glyph glyph-name="wacute" unicode="&#x1e83;" horiz-adv-x="862" 
d="M96 0l-34 501h164l1 -114q-3 -73 -12 -130q-7 -48 -29 -159h59q18 87 33 141q17 56 40 113l65 149h192l3 -148q0 -52 -8 -110q-8 -56 -27 -145h59q26 118 38 159q16 60 51 141l45 103h171l-247 -501h-204l-4 123q0 95 38 290h-62q-17 -85 -40 -173q-17 -67 -40 -116
l-55 -124h-197zM432 566l84 154h179l-145 -154h-118z" />
    <glyph glyph-name="Wdieresis" unicode="&#x1e84;" horiz-adv-x="1074" 
d="M139 0l-32 700h191l1 -204q-1 -120 -53 -349h65q30 157 69 249l135 304h225l5 -304q0 -108 -35 -249h66q41 223 91 345l88 208h200l-322 -700h-224l-11 278q-2 69 9 132q13 82 29 153h-66q-31 -170 -83 -285l-129 -278h-219zM427 764l32 132h169l-31 -132h-170zM683 764
l31 132h169l-31 -132h-169z" />
    <glyph glyph-name="wdieresis" unicode="&#x1e85;" horiz-adv-x="862" 
d="M96 0l-34 501h164l1 -114q-3 -73 -12 -130q-7 -48 -29 -159h59q18 87 33 141q17 56 40 113l65 149h192l3 -148q0 -52 -8 -110q-8 -56 -27 -145h59q26 118 38 159q16 60 51 141l45 103h171l-247 -501h-204l-4 123q0 95 38 290h-62q-17 -85 -40 -173q-17 -67 -40 -116
l-55 -124h-197zM299 572l28 132h154l-28 -132h-154zM531 572l29 132h153l-28 -132h-154z" />
    <glyph glyph-name="uni1E9E" unicode="&#x1e9e;" horiz-adv-x="747" 
d="M274 16l33 153q54 -26 102 -26t77.5 21t29.5 57q0 30 -23.5 47.5t-66.5 17.5h-79l28 138h61q45 0 70.5 20t25.5 53q0 59 -86 59h-125l-118 -556h-183l148 700h323q104 0 164.5 -40.5t60.5 -110.5q0 -76 -54.5 -114.5t-151.5 -39.5l-12 -60q91 1 147 -40t56 -107
q0 -95 -76 -150t-200 -55q-93 0 -151 33z" />
    <glyph glyph-name="uni1EA0" unicode="&#x1ea0;" horiz-adv-x="752" 
d="M506 0l-16 146h-261l-78 -146h-203l400 700h248l101 -700h-191zM305 290h170l-10 85q-3 26 -3 52q0 83 28 177h-65q-22 -129 -71 -222zM205 -205l31 147h166l-31 -147h-166z" />
    <glyph glyph-name="uni1EA1" unicode="&#x1ea1;" horiz-adv-x="596" 
d="M15 115q0 96 93.5 148.5t265.5 58.5l4 21q2 10 2 12q0 49 -67 49q-74 0 -101 -70l-165 33q18 64 87.5 107.5t182.5 43.5q108 0 166 -42.5t58 -122.5q0 -25 -6 -54l-32 -148q-1 -4 -1 -8q0 -18 19 -18h46l-27 -125h-67q-49 0 -70.5 15t-21.5 48q0 15 5 38h-55
q-52 -118 -174 -118q-61 0 -101.5 36t-40.5 96zM349 203l5 28q-164 -7 -164 -86q0 -22 13.5 -34t37.5 -12q35 0 66.5 29t41.5 75zM127 -205l31 147h166l-31 -147h-166z" />
    <glyph glyph-name="uni1EB8" unicode="&#x1eb8;" horiz-adv-x="654" 
d="M20 0l148 700h537l-32 -149h-354l-26 -124h274l-30 -139h-274l-29 -139h355l-32 -149h-537zM166 -205l31 147h166l-31 -147h-166z" />
    <glyph glyph-name="uni1EB9" unicode="&#x1eb9;" horiz-adv-x="581" 
d="M26 201q-2 126 84.5 223t210.5 94q108 0 169.5 -58t61.5 -154q0 -42 -14 -92h-348q-2 -22 -2 -29q0 -80 81 -80q65 0 107 78l154 -54q-35 -66 -100.5 -106t-159.5 -40q-117 0 -180.5 57t-63.5 161zM211 314h178q1 4 1 17q0 34 -19 53t-53 19q-80 0 -107 -89zM132 -205
l31 147h166l-31 -147h-166z" />
    <glyph glyph-name="uni1ECA" unicode="&#x1eca;" horiz-adv-x="334" 
d="M20 0l148 700h188l-148 -700h-188zM-11 -205l31 147h166l-31 -147h-166z" />
    <glyph glyph-name="uni1ECB" unicode="&#x1ecb;" horiz-adv-x="290" 
d="M122 564l30 146h179l-30 -146h-179zM5 0l106 501h173l-105 -501h-174zM-41 -206l30 146h179l-30 -146h-179z" />
    <glyph glyph-name="uni1ECC" unicode="&#x1ecc;" horiz-adv-x="849" 
d="M56 300q-2 176 119 297.5t301 119.5q171 0 264.5 -87.5t93.5 -229.5q2 -116 -52 -212t-151 -151.5t-215 -53.5q-172 0 -266 87.5t-94 229.5zM636 401q0 76 -42.5 120.5t-120.5 44.5q-93 3 -156 -77.5t-61 -188.5q0 -76 42.5 -121t120.5 -45q95 -2 157 78.5t60 188.5z
M251 -205l31 147h166l-31 -147h-166z" />
    <glyph glyph-name="uni1ECD" unicode="&#x1ecd;" 
d="M28 213q-2 129 85.5 218t213.5 87q123 0 193 -63t70 -171q2 -130 -85 -216.5t-214 -84.5q-122 0 -192.5 63t-70.5 167zM409 288q0 104 -84 104q-50 0 -83 -56t-33 -124q0 -103 83 -103q50 0 83.5 55.5t33.5 123.5zM149 -205l31 147h166l-31 -147h-166z" />
    <glyph glyph-name="uni1EE4" unicode="&#x1ee4;" horiz-adv-x="776" 
d="M65 217q0 35 9 81l86 402h187l-83 -390q-7 -31 -7 -58q0 -55 30 -83.5t87 -28.5q65 0 104 42t57 128l83 390h188l-88 -412q-33 -158 -116 -231.5t-235 -73.5q-145 0 -223.5 61t-78.5 173zM210 -205l31 147h166l-31 -147h-166z" />
    <glyph glyph-name="uni1EE5" unicode="&#x1ee5;" horiz-adv-x="604" 
d="M31 124q0 26 8 63l67 314h175l-63 -294q-4 -17 -4 -32q0 -56 54 -56q74 0 103 131l54 251h173l-106 -501h-151q12 51 65 112h-73q-66 -128 -169 -128q-59 0 -96 36.5t-37 103.5zM124 -205l31 147h166l-31 -147h-166z" />
    <glyph glyph-name="Ygrave" unicode="&#x1ef2;" horiz-adv-x="696" 
d="M201 0l59 275l-162 425h197l38 -110q19 -54 19 -110q0 -53 -17 -122h64q15 75 36 128t61 110l76 104h215l-340 -426l-58 -274h-188zM389 764l-98 154h198l18 -154h-118z" />
    <glyph glyph-name="ygrave" unicode="&#x1ef3;" horiz-adv-x="584" 
d="M450 501h183l-318 -562q-47 -82 -83.5 -107t-120.5 -27h-163l29 132h129q22 0 35.5 10.5t27.5 37.5l16 29l-143 487h181l33 -157q7 -29 7 -67q0 -51 -20 -151h59q28 146 70 227zM291 566l-89 154h180l17 -154h-108z" />
    <glyph glyph-name="uni2002" unicode="&#x2002;" horiz-adv-x="500" 
 />
    <glyph glyph-name="uni2003" unicode="&#x2003;" horiz-adv-x="1000" 
 />
    <glyph glyph-name="uni2009" unicode="&#x2009;" horiz-adv-x="125" 
 />
    <glyph glyph-name="endash" unicode="&#x2013;" horiz-adv-x="656" 
d="M54 254l29 133h548l-28 -133h-549z" />
    <glyph glyph-name="emdash" unicode="&#x2014;" horiz-adv-x="893" 
d="M55 256l28 131h783l-28 -131h-783z" />
    <glyph glyph-name="quoteleft" unicode="&#x2018;" horiz-adv-x="280" 
d="M330 701l-141 -167h97l-36 -168h-181l38 174l134 161h89z" />
    <glyph glyph-name="quoteright" unicode="&#x2019;" horiz-adv-x="273" 
d="M71 365l141 167h-98l36 168h181l-37 -173l-135 -162h-88z" />
    <glyph glyph-name="quotesinglbase" unicode="&#x201a;" horiz-adv-x="288" 
d="M-37 -167l141 167h-98l36 168h181l-37 -173l-135 -162h-88z" />
    <glyph glyph-name="quotedblleft" unicode="&#x201c;" horiz-adv-x="516" 
d="M330 701l-141 -167h97l-36 -168h-181l38 174l134 161h89zM565 701l-140 -167h97l-36 -168h-181l38 174l134 161h88z" />
    <glyph glyph-name="quotedblright" unicode="&#x201d;" horiz-adv-x="509" 
d="M71 365l141 167h-98l36 168h181l-37 -173l-135 -162h-88zM307 365l141 167h-98l36 168h181l-37 -173l-135 -162h-88z" />
    <glyph glyph-name="quotedblbase" unicode="&#x201e;" horiz-adv-x="523" 
d="M-37 -167l141 167h-98l36 168h181l-37 -173l-135 -162h-88zM199 -167l141 167h-98l36 168h181l-37 -173l-135 -162h-88z" />
    <glyph glyph-name="dagger" unicode="&#x2020;" horiz-adv-x="656" 
d="M279 -96v462h-201v147h201v187h172v-187h201v-147h-201v-462h-172z" />
    <glyph glyph-name="daggerdbl" unicode="&#x2021;" horiz-adv-x="719" 
d="M284 -96v183h-201v148h201v131h-201v147h201v187h172v-187h201v-147h-201v-131h201v-148h-201v-183h-172z" />
    <glyph glyph-name="bullet" unicode="&#x2022;" horiz-adv-x="573" 
d="M84 347q-2 89 65.5 156.5t157.5 65.5q92 0 157.5 -65.5t65.5 -156.5q2 -88 -66 -156t-157 -66q-89 -2 -157 66t-66 156z" />
    <glyph glyph-name="ellipsis" unicode="&#x2026;" horiz-adv-x="874" 
d="M5 0l38 177h191l-38 -177h-191zM294 0l38 177h191l-38 -177h-191zM582 0l38 177h191l-38 -177h-191z" />
    <glyph glyph-name="perthousand" unicode="&#x2030;" horiz-adv-x="1192" 
d="M82 464q0 102 56.5 173.5t138.5 71.5q78 0 122.5 -45.5t44.5 -125.5q0 -103 -56.5 -174t-139.5 -71q-80 0 -123 45t-43 126zM751 700h147l-642 -700h-148zM211 461q0 -68 36 -68q26 0 46.5 44t20.5 104q0 70 -37 70q-26 0 -46.5 -46t-19.5 -104zM1153 235
q0 -103 -56.5 -173.5t-139.5 -70.5q-76 0 -119 41q-50 -41 -112 -41q-79 0 -122.5 45t-43.5 126q0 101 57 173t138 72q75 0 120 -43q49 43 111 43q78 0 122.5 -46t44.5 -126zM793 238q0 70 -38 70q-25 0 -45.5 -46t-20.5 -104q0 -68 37 -68q26 0 46.5 44.5t20.5 103.5z
M1023 238q0 70 -37 70q-26 0 -46.5 -46t-19.5 -104q0 -68 36 -68q26 0 46.5 44.5t20.5 103.5z" />
    <glyph glyph-name="guilsinglleft" unicode="&#x2039;" horiz-adv-x="382" 
d="M411 495l-216 -261l88 -225h-159l-91 244l196 242h182z" />
    <glyph glyph-name="guilsinglright" unicode="&#x203a;" horiz-adv-x="381" 
d="M259 495l91 -244l-196 -242h-182l215 261l-87 225h159z" />
    <glyph glyph-name="fraction" unicode="&#x2044;" horiz-adv-x="200" 
d="M-276 0l643 700h147l-642 -700h-148z" />
    <glyph glyph-name="uni2070" unicode="&#x2070;" horiz-adv-x="439" 
d="M111 555q-2 100 56.5 173.5t138.5 71.5q77 0 122.5 -46t45.5 -125q0 -103 -57 -174t-140 -71q-79 0 -122.5 45t-43.5 126zM344 632q0 70 -38 70q-25 0 -45.5 -46t-20.5 -104q0 -68 36 -68q27 0 47.5 44t20.5 104z" />
    <glyph glyph-name="uni2074" unicode="&#x2074;" horiz-adv-x="435" 
d="M259 394l17 82h-191l25 113l186 202h163l-47 -222h54l-20 -93h-55l-17 -82h-115zM296 569l6 26q9 42 62 87l-27 26l-146 -159l27 -22q36 42 67 42h11z" />
    <glyph glyph-name="uni2075" unicode="&#x2075;" horiz-adv-x="402" 
d="M87 507l120 21q1 -21 13 -33.5t30 -12.5q21 0 34.5 14.5t13.5 37.5q0 17 -10 27.5t-26 10.5q-25 0 -42 -28l-108 20l77 227h271l-21 -99h-178l-4 -13q-15 -44 -58 -81h53q26 53 76 53q42 0 68 -29t26 -79q0 -71 -47.5 -115t-124.5 -44q-74 0 -116 34.5t-47 88.5z" />
    <glyph glyph-name="uni2076" unicode="&#x2076;" horiz-adv-x="419" 
d="M110 549q0 113 63.5 182t166.5 69q68 0 120 -26l-22 -103q-49 28 -109 28q-111 0 -129 -107h41q8 31 31 49t55 18q43 0 78 -32.5t35 -84.5q0 -69 -48 -113.5t-122 -44.5q-73 0 -116.5 44.5t-43.5 120.5zM315 536q0 18 -10.5 29t-26.5 11q-21 0 -34 -15t-13 -40
q0 -17 10 -28t27 -11q20 0 33.5 15.5t13.5 38.5z" />
    <glyph glyph-name="uni2077" unicode="&#x2077;" horiz-adv-x="367" 
d="M332 693l24 12l-24 38q-67 -51 -145 -51h-63l21 99h305l-24 -116q-74 -37 -124 -112t-63 -169h-130q10 96 67 173t156 126z" />
    <glyph glyph-name="uni2078" unicode="&#x2078;" horiz-adv-x="411" 
d="M95 489q0 43 33 67t94 24l9 42q-43 1 -68.5 18.5t-25.5 47.5q0 47 48 79.5t118 32.5q65 0 105.5 -26.5t40.5 -67.5q0 -39 -30.5 -61t-80.5 -23l-9 -42q44 -2 70 -22.5t26 -53.5q0 -51 -49.5 -85.5t-125.5 -34.5q-71 0 -113 29.5t-42 75.5zM331 676q0 31 -35 31
q-18 0 -29.5 -11.5t-11.5 -29.5q0 -31 35 -31q18 0 29.5 11.5t11.5 29.5zM303 524q0 34 -39 34q-20 0 -32.5 -12.5t-12.5 -32.5q0 -32 38 -32q20 0 33 12t13 31z" />
    <glyph glyph-name="uni2079" unicode="&#x2079;" horiz-adv-x="416" 
d="M99 410l23 102q54 -26 107 -26q61 0 95 30q30 30 36 76h-41q-21 -64 -87 -64q-44 0 -75.5 31.5t-31.5 84.5q0 70 45.5 113t118.5 43q77 0 119 -48q43 -46 43 -120q0 -112 -61.5 -180t-163.5 -68q-68 0 -127 26zM328 664q0 17 -10 28t-26 11q-19 0 -31.5 -15t-12.5 -38
q0 -17 9.5 -28t24.5 -11q20 0 33 15t13 38z" />
    <glyph glyph-name="uni20A9" unicode="&#x20a9;" horiz-adv-x="1191" 
d="M1189 400h-137l-27 -59h113l-19 -91h-135l-113 -250h-210l-8 250h-123l-114 -250h-200l-8 250h-131l19 91h109l-2 59h-141l20 92h118l-8 208h183l-5 -208h122l91 208h208l1 -208h122l86 208h187l-94 -208h116zM611 492h68l14 71l4 16h-66q-9 -48 -20 -87zM356 341h78
q10 33 20 59h-90q-2 -19 -8 -59zM664 400h-79q-2 -9 -19 -59h91q0 2 7 59zM864 341l17 59h-89q-1 -24 -6 -59h78zM409 250h-68l-22 -113h65q14 71 25 113zM841 250h-68q-7 -43 -22 -113h66q8 39 24 113z" />
    <glyph glyph-name="Euro" unicode="&#x20ac;" horiz-adv-x="744" 
d="M111 218h-80l19 96h62q0 24 10 61h-59l21 97h66q43 112 126 178.5t191 66.5q115 0 189.5 -59t87.5 -171l-173 -38q-4 60 -35.5 94t-84.5 34q-48 0 -94.5 -30.5t-82.5 -84.5l38 -34q40 44 90 44h53l-20 -97h-143q-9 -28 -14 -61h143l-20 -96h-52q-47 0 -75 42l-45 -29
q14 -48 54.5 -79t91.5 -31q108 0 162 146l169 -58q-41 -108 -123.5 -167t-195.5 -59q-116 0 -188.5 61.5t-87.5 173.5z" />
    <glyph glyph-name="uni20B9" unicode="&#x20b9;" horiz-adv-x="611" 
d="M256 0l-5 157q-2 58 -21.5 78.5t-75.5 20.5h-107l29 138h145q53 0 83.5 25t30.5 67q0 79 -90 79h-132l28 135h531l-25 -119h-70q-78 0 -139 45l-35 -52q37 -15 57 -46t21 -71h139l-23 -109h-118h-196l-12 -56q84 0 124 -29t44 -97l14 -166h-197z" />
    <glyph glyph-name="uni20BA" unicode="&#x20ba;" horiz-adv-x="720" 
d="M97 0l11 56q16 69 95 142l-48 41q-42 -63 -88 -86l-31 -13l27 129l100 45l14 62l-101 -45l28 129l100 46l41 194h182l-2 -9q-11 -56 -76 -116l51 -39q47 77 98 100l120 54l-27 -128l-214 -95l-12 -63l213 95l-28 -129l-213 -95l-24 -115h24q60 0 114 40t91 113l146 -103
q-54 -104 -145.5 -157t-237.5 -53h-208z" />
    <glyph glyph-name="uni20BD" unicode="&#x20bd;" horiz-adv-x="687" 
d="M428 278h-132l-10 -53h209l-24 -113h-209l-23 -112h-176l23 112h-70l25 113h69l12 53h-71l26 123h70l64 299h248q116 0 179.5 -53t63.5 -142q0 -105 -76 -166t-198 -61zM355 559l-33 -158h92q47 0 76 25.5t29 64.5q0 30 -23 49t-59 19h-82z" />
    <glyph glyph-name="uni20BF" unicode="&#x20bf;" horiz-adv-x="709" 
d="M663 192q0 -87 -74.5 -138t-192.5 -54l-23 -104h-106l22 104h-48l-23 -104h-106l22 104h-111l149 700h111l21 95h106l-20 -95h48l20 95h107l-22 -101q70 -13 110 -50.5t40 -93.5q0 -82 -59 -120q-57 -36 -154 -38l-12 -60q195 -5 195 -140zM426 557h-102l-29 -133h118
q45 0 71 20t26 54q0 59 -84 59zM478 227q0 33 -25 49.5t-69 16.5h-116l-32 -149h131q52 0 81.5 22t29.5 61z" />
    <glyph glyph-name="uni2113" unicode="&#x2113;" horiz-adv-x="563" 
d="M75 132q0 25 4 42l4 18q-21 -1 -68 -1l23 112q34 2 68 6l46 216q20 94 78.5 143t146.5 49q96 0 152 -49t56 -131q0 -109 -92.5 -194t-242.5 -125l-10 -46q-2 -14 -2 -19q0 -36 33 -36q23 0 43.5 20.5t33.5 56.5l162 -52q-19 -61 -81 -110t-161 -49q-91 0 -142 39t-51 110
zM422 517l1 10q0 30 -13.5 47t-35.5 17q-46 0 -58 -59l-11 -54q-9 -45 -28.5 -74.5t-61.5 -61.5l30 -45q79 41 127.5 100t49.5 120z" />
    <glyph glyph-name="uni2116" unicode="&#x2116;" horiz-adv-x="1322" 
d="M881 465q0 100 71 173.5t182 73.5q95 0 152.5 -51t57.5 -135q0 -99 -70.5 -169t-184.5 -70q-96 0 -152 48.5t-56 129.5zM31 0l148 700h247l194 -518l58 25q-41 99 -41 183q0 43 11 96l45 214h182l-149 -700h-204l-224 602l-58 -23q41 -102 41 -193q0 -50 -11 -108
l-59 -278h-180zM1193 535q0 83 -67 83q-40 0 -66 -46.5t-28 -104.5q0 -81 67 -81q41 0 67.5 46.5t26.5 102.5z" />
    <glyph glyph-name="uni2117" unicode="&#x2117;" horiz-adv-x="907" 
d="M65 351q-2 109 53 202.5t150.5 148t205.5 52.5q109 2 205 -52.5t152 -148.5t54 -202q2 -108 -54 -203t-152 -149.5t-205 -52.5q-82 -2 -158.5 30.5t-132 87t-87.5 130.5t-31 157zM771 351q2 125 -84 213t-212 86q-126 2 -212 -86t-84 -213q-2 -124 84.5 -213.5
t211.5 -86.5q125 -3 211.5 86.5t84.5 213.5zM340 148v414h191q61 0 100.5 -35t39.5 -90t-38.5 -91t-102.5 -36h-85v-162h-105zM445 384h56q60 0 60 51t-61 51h-55v-102z" />
    <glyph glyph-name="trademark" unicode="&#x2122;" horiz-adv-x="967" 
d="M157 321l62 291h-114l19 88h335l-19 -88h-114l-62 -291h-107zM425 321l80 379h167l10 -124q2 -24 2 -36q0 -63 -17 -150h38q21 112 57 189l59 121h171l-80 -379h-104l21 96q14 66 79 185q2 3 10 19l-36 20l-6 -10l-154 -310h-105l-27 310l-1 9l-42 -5q11 -84 11 -135
q0 -42 -8 -79l-21 -100h-104z" />
    <glyph glyph-name="Omega" unicode="&#x2126;" horiz-adv-x="917" 
d="M80 0v147h25q88 0 183 -68l32 57q-234 89 -234 264q-2 126 101 222.5t273 94.5q87 1 160 -26t119 -72.5t71 -102t24 -116.5q0 -176 -233 -264l32 -57q95 68 183 68h25v-147h-342v145q138 33 138 209q0 97 -47 154.5t-130 57.5q-81 0 -127.5 -57.5t-46.5 -154.5
q0 -176 136 -209v-145h-342z" />
    <glyph glyph-name="onethird" unicode="&#x2153;" horiz-adv-x="914" 
d="M147 303l38 176q10 56 55 121h-48q-24 -55 -45.5 -76t-63.5 -21l25 118q92 2 133 79h112l-85 -397h-121zM50 0l643 700h147l-642 -700h-148zM523 121l124 16q0 -49 43 -49q19 0 31 10.5t12 26.5q0 30 -36 30h-29l19 89h26q21 0 33.5 10t12.5 27q0 12 -8.5 20t-22.5 8
q-35 0 -43 -45l-119 17q13 60 57 92.5t113 32.5q62 0 101.5 -26t39.5 -69q0 -41 -34.5 -65.5t-92.5 -23.5l-8 -39q51 1 81 -19.5t30 -58.5q0 -52 -46 -83.5t-118 -31.5q-76 0 -119.5 35t-46.5 96z" />
    <glyph glyph-name="twothirds" unicode="&#x2154;" horiz-adv-x="1005" 
d="M70 303l25 117q112 46 161 80.5t49 73.5q0 37 -33 37q-40 0 -49 -66l-123 14q8 65 54 107.5t123 42.5q68 0 111.5 -33t43.5 -82q0 -61 -53 -104q-40 -32 -174 -83l-29 -11l19 -42q81 48 155 48h45l-21 -99h-304zM141 0l643 700h147l-642 -700h-148zM613 121l124 16
q0 -49 43 -49q19 0 31 10.5t12 26.5q0 30 -36 30h-29l19 89h26q21 0 33.5 10t12.5 27q0 12 -8.5 20t-22.5 8q-35 0 -43 -45l-119 17q13 60 57 92.5t113 32.5q62 0 101.5 -26t39.5 -69q0 -41 -34.5 -65.5t-92.5 -23.5l-8 -39q51 1 81 -19.5t30 -58.5q0 -52 -46 -83.5
t-118 -31.5q-76 0 -119.5 35t-46.5 96z" />
    <glyph glyph-name="uni2155" unicode="&#x2155;" horiz-adv-x="917" 
d="M146 303l38 176q10 56 55 121h-48q-24 -55 -45.5 -76t-63.5 -21l25 118q92 2 133 79h112l-85 -397h-121zM50 0l643 700h147l-642 -700h-148zM523 113l120 21q1 -21 13 -33.5t30 -12.5q21 0 34.5 14.5t13.5 37.5q0 17 -10 27.5t-26 10.5q-25 0 -42 -28l-108 20l77 227h271
l-21 -99h-178l-4 -13q-15 -44 -58 -81h53q26 53 76 53q42 0 68 -29t26 -79q0 -71 -47.5 -115t-124.5 -44q-74 0 -116 34.5t-47 88.5z" />
    <glyph glyph-name="uni2156" unicode="&#x2156;" horiz-adv-x="1005" 
d="M67 303l25 117q112 46 161 80.5t49 73.5q0 37 -33 37q-40 0 -49 -66l-123 14q8 65 54 107.5t123 42.5q68 0 111.5 -33t43.5 -82q0 -61 -53 -104q-40 -32 -174 -83l-29 -11l19 -42q81 48 155 48h45l-21 -99h-304zM139 0l643 700h147l-642 -700h-148zM612 113l120 21
q1 -21 13 -33.5t30 -12.5q21 0 34.5 14.5t13.5 37.5q0 17 -10 27.5t-26 10.5q-25 0 -42 -28l-108 20l77 227h271l-21 -99h-178l-4 -13q-15 -44 -58 -81h53q27 53 76 53q42 0 68 -29t26 -79q0 -71 -47.5 -115t-124.5 -44q-74 0 -116 34.5t-47 88.5z" />
    <glyph glyph-name="uni2157" unicode="&#x2157;" horiz-adv-x="994" 
d="M65 424l124 16q0 -49 43 -49q19 0 31 10.5t12 26.5q0 30 -36 30h-29l19 89h26q21 0 33.5 10t12.5 27q0 12 -8.5 20t-22.5 8q-35 0 -43 -45l-119 17q13 60 57 92.5t113 32.5q62 0 101.5 -26t39.5 -69q0 -41 -34.5 -65.5t-92.5 -23.5l-8 -39q51 1 81 -19.5t30 -58.5
q0 -52 -46 -83.5t-118 -31.5q-76 0 -119.5 35t-46.5 96zM125 0l643 700h147l-642 -700h-148zM599 113l120 21q1 -21 13 -33.5t30 -12.5q21 0 34.5 14.5t13.5 37.5q0 17 -10 27.5t-26 10.5q-25 0 -42 -28l-108 20l77 227h271l-21 -99h-178l-4 -13q-15 -44 -58 -81h53
q26 53 76 53q42 0 68 -29t26 -79q0 -71 -47.5 -115t-124.5 -44q-74 0 -116 34.5t-47 88.5z" />
    <glyph glyph-name="uni2158" unicode="&#x2158;" horiz-adv-x="1027" 
d="M234 303l17 82h-191l25 113l186 202h163l-47 -222h54l-20 -93h-55l-17 -82h-115zM271 478l6 26q9 42 62 87l-27 26l-146 -159l27 -22q36 42 67 42h11zM156 0l643 700h147l-642 -700h-148zM630 113l120 21q1 -21 13 -33.5t30 -12.5q21 0 34.5 14.5t13.5 37.5
q0 17 -10 27.5t-26 10.5q-25 0 -42 -28l-108 20l77 227h271l-21 -99h-178l-4 -13q-15 -44 -58 -81h53q27 53 76 53q42 0 68 -29t26 -79q0 -71 -47.5 -115t-124.5 -44q-74 0 -116 34.5t-47 88.5z" />
    <glyph glyph-name="uni2159" unicode="&#x2159;" horiz-adv-x="931" 
d="M147 303l38 176q10 56 55 121h-48q-24 -55 -45.5 -76t-63.5 -21l25 118q92 2 133 79h112l-85 -397h-121zM50 0l643 700h147l-642 -700h-148zM546 155q0 113 63.5 182t166.5 69q68 0 120 -26l-22 -103q-49 28 -109 28q-111 0 -129 -107h41q8 31 31 49t55 18q43 0 78 -32.5
t35 -84.5q0 -69 -48 -113.5t-122 -44.5q-73 0 -116.5 44.5t-43.5 120.5zM751 142q0 18 -10.5 29t-26.5 11q-21 0 -34 -15t-13 -40q0 -17 10 -28t27 -11q20 0 33.5 15.5t13.5 38.5z" />
    <glyph glyph-name="uni215A" unicode="&#x215a;" horiz-adv-x="1001" 
d="M62 416l120 21q1 -21 13 -33.5t30 -12.5q21 0 34.5 14.5t13.5 37.5q0 17 -10 27.5t-26 10.5q-25 0 -42 -28l-108 20l77 227h271l-21 -99h-178l-4 -13q-15 -44 -58 -81h53q27 53 76 53q42 0 68 -29t26 -79q0 -71 -47.5 -115t-124.5 -44q-74 0 -116 34.5t-47 88.5zM121 0
l643 700h147l-642 -700h-148zM617 155q0 113 63.5 182t166.5 69q68 0 120 -26l-22 -103q-49 28 -109 28q-111 0 -129 -107h41q8 31 31 49t55 18q43 0 78 -32.5t35 -84.5q0 -69 -48 -113.5t-122 -44.5q-73 0 -116.5 44.5t-43.5 120.5zM822 142q0 18 -10.5 29t-26.5 11
q-21 0 -34 -15t-13 -40q0 -17 10 -28t27 -11q20 0 33.5 15.5t13.5 38.5z" />
    <glyph glyph-name="oneeighth" unicode="&#x215b;" horiz-adv-x="922" 
d="M147 303l38 176q10 56 55 121h-48q-24 -55 -45.5 -76t-63.5 -21l25 118q92 2 133 79h112l-85 -397h-121zM50 0l643 700h147l-642 -700h-148zM533 95q0 43 33 67t94 24l9 42q-43 1 -68.5 18.5t-25.5 47.5q0 47 48 79.5t118 32.5q65 0 105.5 -26.5t40.5 -67.5
q0 -39 -30.5 -61t-80.5 -23l-9 -42q44 -2 70 -22.5t26 -53.5q0 -51 -49.5 -85.5t-125.5 -34.5q-71 0 -113 29.5t-42 75.5zM769 282q0 31 -35 31q-18 0 -29.5 -11.5t-11.5 -29.5q0 -31 35 -31q18 0 29.5 11.5t11.5 29.5zM741 130q0 34 -39 34q-20 0 -32.5 -12.5t-12.5 -32.5
q0 -32 38 -32q20 0 33 12t13 31z" />
    <glyph glyph-name="threeeighths" unicode="&#x215c;" horiz-adv-x="997" 
d="M65 424l124 16q0 -49 43 -49q19 0 31 10.5t12 26.5q0 30 -36 30h-29l19 89h26q21 0 33.5 10t12.5 27q0 12 -8.5 20t-22.5 8q-35 0 -43 -45l-119 17q13 60 57 92.5t113 32.5q62 0 101.5 -26t39.5 -69q0 -41 -34.5 -65.5t-92.5 -23.5l-8 -39q51 1 81 -19.5t30 -58.5
q0 -52 -46 -83.5t-118 -31.5q-76 0 -119.5 35t-46.5 96zM125 0l643 700h147l-642 -700h-148zM607 95q0 43 33 67t94 24l9 42q-43 1 -68.5 18.5t-25.5 47.5q0 47 48 79.5t118 32.5q65 0 105.5 -26.5t40.5 -67.5q0 -39 -30.5 -61t-80.5 -23l-9 -42q44 -2 70 -22.5t26 -53.5
q0 -51 -49.5 -85.5t-125.5 -34.5q-71 0 -113 29.5t-42 75.5zM843 282q0 31 -35 31q-18 0 -29.5 -11.5t-11.5 -29.5q0 -31 35 -31q18 0 29.5 11.5t11.5 29.5zM815 130q0 34 -39 34q-20 0 -32.5 -12.5t-12.5 -32.5q0 -32 38 -32q20 0 33 12t13 31z" />
    <glyph glyph-name="fiveeighths" unicode="&#x215d;" horiz-adv-x="994" 
d="M62 416l120 21q1 -21 13 -33.5t30 -12.5q21 0 34.5 14.5t13.5 37.5q0 17 -10 27.5t-26 10.5q-25 0 -42 -28l-108 20l77 227h271l-21 -99h-178l-4 -13q-15 -44 -58 -81h53q27 53 76 53q42 0 68 -29t26 -79q0 -71 -47.5 -115t-124.5 -44q-74 0 -116 34.5t-47 88.5zM121 0
l643 700h147l-642 -700h-148zM603 95q0 43 33 67t94 24l9 42q-43 1 -68.5 18.5t-25.5 47.5q0 47 48 79.5t118 32.5q65 0 105.5 -26.5t40.5 -67.5q0 -39 -30.5 -61t-80.5 -23l-9 -42q44 -2 70 -22.5t26 -53.5q0 -51 -49.5 -85.5t-125.5 -34.5q-71 0 -113 29.5t-42 75.5z
M839 282q0 31 -35 31q-18 0 -29.5 -11.5t-11.5 -29.5q0 -31 35 -31q18 0 29.5 11.5t11.5 29.5zM811 130q0 34 -39 34q-20 0 -32.5 -12.5t-12.5 -32.5q0 -32 38 -32q20 0 33 12t13 31z" />
    <glyph glyph-name="seveneighths" unicode="&#x215e;" horiz-adv-x="912" 
d="M313 602l24 12l-24 38q-67 -51 -145 -51h-63l21 99h305l-24 -116q-74 -37 -124 -112t-63 -169h-130q10 96 67 173t156 126zM39 0l643 700h147l-642 -700h-148zM522 95q0 43 33 67t94 24l9 42q-43 1 -68.5 18.5t-25.5 47.5q0 47 48 79.5t118 32.5q65 0 105.5 -26.5
t40.5 -67.5q0 -39 -30.5 -61t-80.5 -23l-9 -42q44 -2 70 -22.5t26 -53.5q0 -51 -49.5 -85.5t-125.5 -34.5q-71 0 -113 29.5t-42 75.5zM758 282q0 31 -35 31q-18 0 -29.5 -11.5t-11.5 -29.5q0 -31 35 -31q18 0 29.5 11.5t11.5 29.5zM730 130q0 34 -39 34q-20 0 -32.5 -12.5
t-12.5 -32.5q0 -32 38 -32q20 0 33 12t13 31z" />
    <glyph glyph-name="uni215F" unicode="&#x215f;" horiz-adv-x="433" 
d="M134 303l38 176q10 56 55 121h-48q-24 -55 -45.5 -76t-63.5 -21l25 118q92 2 133 79h112l-85 -397h-121zM38 0l643 700h147l-642 -700h-148z" />
    <glyph glyph-name="arrowleft" unicode="&#x2190;" horiz-adv-x="851" 
d="M825 264h-530v-63q13 1 33 1q99 0 165 -63l33 -33l-118 -118l-364 362l364 362l118 -119l-33 -32q-63 -63 -169 -63h-29v-62h530v-172z" />
    <glyph glyph-name="arrowup" unicode="&#x2191;" horiz-adv-x="766" 
d="M331 0v529h-62q1 -13 1 -32q0 -98 -63 -165l-33 -34l-119 119l362 364l362 -364l-118 -119l-33 34q-63 66 -63 168v29h-62v-529h-172z" />
    <glyph glyph-name="arrowright" unicode="&#x2192;" horiz-adv-x="852" 
d="M69 436h529v63q-13 -1 -32 -1q-99 0 -165 63l-34 32l119 119l364 -362l-364 -362l-119 118l34 33q66 63 168 63h29v62h-529v172z" />
    <glyph glyph-name="arrowdown" unicode="&#x2193;" horiz-adv-x="765" 
d="M476 700v-529h63q-1 13 -1 32q0 99 63 165l32 34l119 -119l-362 -364l-362 364l118 119l33 -34q63 -66 63 -168v-29h62v529h172z" />
    <glyph glyph-name="uni2196" unicode="&#x2196;" horiz-adv-x="774" 
d="M745 209l-122 -122l-374 374l-45 -44q47 -43 70 -81.5t26 -101.5l1 -46h-170v512h514v-169l-47 1q-44 0 -79 15q-52 23 -104 80l-44 -44z" />
    <glyph glyph-name="uni2197" unicode="&#x2197;" horiz-adv-x="695" 
d="M159 87l-122 122l374 374l-44 44q-31 -32 -49.5 -47.5t-54 -30.5t-80.5 -17l-46 -1v169h512v-513h-169l1 46q2 63 25.5 102.5t70.5 81.5l-44 44z" />
    <glyph glyph-name="uni2198" unicode="&#x2198;" horiz-adv-x="774" 
d="M72 491l122 122l374 -374l44 44q-46 43 -69 81.5t-26 101.5l-1 47h169v-513h-513v169l46 -1q34 -1 60.5 -7.5t50 -23t36 -28t37.5 -36.5l44 44z" />
    <glyph glyph-name="uni2199" unicode="&#x2199;" horiz-adv-x="695" 
d="M578 613l122 -122l-374 -374l44 -44q43 46 81.5 69t101.5 26l47 1v-169h-513v513h169l-1 -46q-1 -34 -7.5 -60.5t-23 -50t-28 -36t-36.5 -37.5l44 -44z" />
    <glyph glyph-name="uni21A4" unicode="&#x21a4;" horiz-adv-x="929" 
d="M667 662h173v-623h-173v224h-371v-62q15 1 34 1q98 0 164 -63l33 -33l-118 -118l-364 362l364 361l118 -118l-33 -32q-66 -63 -166 -63q-19 0 -32 1v-63h371v226z" />
    <glyph glyph-name="uni21A5" unicode="&#x21a5;" horiz-adv-x="813" 
d="M506 543v-370h226v-173h-623v173h224v370h-62q1 -14 1 -33q0 -98 -63 -164l-32 -33l-118 118l361 363l362 -363l-119 -118l-32 33q-63 66 -63 166q0 18 1 31h-63z" />
    <glyph glyph-name="uni21A6" unicode="&#x21a6;" horiz-adv-x="928" 
d="M562 712l363 -362l-363 -361l-119 118l34 32q67 64 166 64q18 0 31 -1v62h-370v-225h-173v623h173v-225h370v63q-14 -1 -33 -1q-101 0 -164 63l-34 32z" />
    <glyph glyph-name="uni21A7" unicode="&#x21a7;" horiz-adv-x="814" 
d="M680 388l118 -119l-362 -363l-361 363l118 119l32 -34q64 -67 64 -166q0 -18 -1 -31h62v370h-225v173h623v-173h-225v-370h62q-1 14 -1 33q0 98 63 164z" />
    <glyph glyph-name="uni21B0" unicode="&#x21b0;" horiz-adv-x="917" 
d="M826 371h10v-371h-172v264h-367v-63q13 1 32 1q99 0 165 -63l34 -33l-119 -118l-364 362l364 362l119 -119l-34 -32q-63 -63 -168 -63h-29v-62h529v-65z" />
    <glyph glyph-name="uni21B1" unicode="&#x21b1;" horiz-adv-x="864" 
d="M499 712l363 -362l-363 -362l-119 118l34 33q66 63 168 63h29v62h-364v-264h-173v370h8v66h529v63q-13 -1 -32 -1q-99 0 -165 63l-34 32z" />
    <glyph glyph-name="uni21B2" unicode="&#x21b2;" horiz-adv-x="865" 
d="M833 700v-369h-8v-67h-530v-62q13 1 33 1q98 0 165 -63l33 -33l-118 -119l-364 362l364 362l118 -118l-33 -33q-66 -63 -169 -63q-23 0 -29 1v-62h365v263h173z" />
    <glyph glyph-name="uni21B3" unicode="&#x21b3;" horiz-adv-x="917" 
d="M550 712l364 -361l-364 -363l-119 119l34 33q66 63 168 63q23 0 29 -1v62h-529v65h-10v371h172v-263h367v62q-13 -1 -32 -1q-99 0 -165 63l-34 33z" />
    <glyph glyph-name="partialdiff" unicode="&#x2202;" horiz-adv-x="664" 
d="M62 230q0 106 62 167t145 61q68 0 112.5 -33t63.5 -89h58q-4 107 -71 168t-170 61q-74 0 -153 -33v156q73 29 175 29q154 0 252.5 -101.5t98.5 -281.5q1 -148 -78.5 -250t-223.5 -101q-117 0 -194 67.5t-77 179.5zM440 232q0 46 -29 74.5t-72 28.5q-41 0 -70.5 -27.5
t-29.5 -73.5t29.5 -75t71.5 -29q44 0 72 28.5t28 73.5z" />
    <glyph glyph-name="Delta" unicode="&#x2206;" horiz-adv-x="830" 
d="M509 700l253 -700h-759l253 700h253zM249 150h262l-79 244q-19 61 -19 182v28h-63v-16q0 -127 -21 -194z" />
    <glyph glyph-name="product" unicode="&#x220f;" horiz-adv-x="917" 
d="M901 700v-151h-105v-645h-184v645h-209v-645h-183v645h-105v151h786z" />
    <glyph glyph-name="summation" unicode="&#x2211;" horiz-adv-x="813" 
d="M120 -96v159l240 238l-243 252v147h592v-151l-152 1q-51 1 -92.5 16t-61.5 30.5t-46 41.5l-45 -45l282 -291l-256 -251l-42 -39l46 -45q25 25 46.5 41t63 31t92.5 16h176v-151h-600z" />
    <glyph glyph-name="minus" unicode="&#x2212;" horiz-adv-x="659" 
d="M85 285v136h526v-136h-526z" />
    <glyph glyph-name="uni2215" unicode="&#x2215;" horiz-adv-x="396" 
d="M-89 -96l456 896h161l-457 -896h-160z" />
    <glyph glyph-name="radical" unicode="&#x221a;" horiz-adv-x="695" 
d="M258 -96l-135 371h-92v149h208l61 -187q18 -54 26 -113q7 -49 7 -127h60v19q0 134 27 220l157 464h185l-300 -796h-204z" />
    <glyph glyph-name="infinity" unicode="&#x221e;" horiz-adv-x="882" 
d="M63 351q0 83 56 142.5t141 59.5q64 0 114 -37.5t64 -105.5h50q14 70 62 106.5t114 36.5q85 0 141.5 -59.5t56.5 -142.5t-56.5 -143t-141.5 -60q-67 0 -114.5 37t-62.5 106h-50q-14 -67 -64 -105t-113 -38q-85 0 -141 60t-56 143zM387 353q-30 44 -53.5 61.5t-50.5 17.5
q-31 0 -53.5 -22.5t-22.5 -58.5q0 -37 22.5 -59t53.5 -22q26 0 46.5 15.5t57.5 67.5zM717 351q0 36 -22.5 58.5t-53.5 22.5q-50 0 -104 -79q37 -52 57.5 -67.5t46.5 -15.5q31 0 53.5 22t22.5 59z" />
    <glyph glyph-name="integral" unicode="&#x222b;" horiz-adv-x="368" 
d="M7 -194v153h40q50 0 50 57v507q0 81 46.5 129t133.5 48h84v-154h-40q-23 0 -36.5 -14.5t-13.5 -41.5v-508q0 -79 -46.5 -127.5t-133.5 -48.5h-84z" />
    <glyph glyph-name="approxequal" unicode="&#x2248;" horiz-adv-x="671" 
d="M365 384l-39 22q-32 20 -62 20q-54 0 -86 -59l-106 75q27 62 74.5 96t107.5 34q52 0 111 -32l37 -21q32 -18 59 -18q54 0 86 61l106 -77q-26 -62 -74 -95.5t-108 -33.5q-57 0 -106 28zM365 144l-39 22q-32 20 -62 20q-54 0 -86 -59l-106 75q27 62 74.5 96t107.5 34
q52 0 111 -32l37 -21q32 -18 59 -18q54 0 86 61l106 -77q-26 -62 -74 -95.5t-108 -33.5q-57 0 -106 28z" />
    <glyph glyph-name="notequal" unicode="&#x2260;" horiz-adv-x="690" 
d="M137 85l46 80h-87v133h163l26 44q20 34 78 80l-38 45q-59 -66 -143 -66h-86v134h300l47 83h134l-48 -83h96v-134h-173l-25 -43q-17 -33 -78 -81l39 -45q58 66 138 66h99v-133h-309l-45 -80h-134z" />
    <glyph glyph-name="lessequal" unicode="&#x2264;" horiz-adv-x="687" 
d="M620 229l-529 100v207l529 108v-137l-136 -23q-97 -16 -296 -18v-56q74 0 162 -5q93 -5 134 -11l136 -22v-143zM91 76v131h529v-131h-529z" />
    <glyph glyph-name="greaterequal" unicode="&#x2265;" horiz-adv-x="709" 
d="M114 228v137l136 23q97 16 296 18v56q-91 0 -163 4q-70 4 -133 13l-136 21v144l529 -101v-207zM114 76v131h529v-131h-529z" />
    <glyph glyph-name="angleleft" unicode="&#x2329;" horiz-adv-x="382" 
d="M463 671l-282 -390l116 -387l-146 -54l-132 462l323 463z" />
    <glyph glyph-name="angleright" unicode="&#x232a;" horiz-adv-x="380" 
d="M252 765l132 -462l-322 -463l-122 94l283 390l-117 387z" />
    <glyph glyph-name="uni2460" unicode="&#x2460;" horiz-adv-x="896" 
d="M55 318q-2 117 54.5 217.5t157 160t219.5 57.5q169 2 284 -105t113 -268q2 -116 -54.5 -216.5t-157 -160t-219.5 -57.5q-173 -2 -286 104t-111 268zM769 376q0 121 -78 197t-202 76q-133 3 -227.5 -95t-92.5 -231q0 -121 78 -197t202 -76q132 -3 227 96t93 230zM393 152
l38 177q13 58 55 120h-48q-23 -54 -44.5 -75t-64.5 -21l25 117q92 2 133 79h112l-85 -397h-121z" />
    <glyph glyph-name="uni2461" unicode="&#x2461;" horiz-adv-x="896" 
d="M55 318q-2 117 54.5 217.5t157 160t219.5 57.5q169 2 284 -105t113 -268q2 -116 -54.5 -216.5t-157 -160t-219.5 -57.5q-173 -2 -286 104t-111 268zM769 376q0 121 -78 197t-202 76q-133 3 -227.5 -95t-92.5 -231q0 -121 78 -197t202 -76q132 -3 227 96t93 230zM283 152
l25 118q112 45 161.5 79.5t49.5 73.5q0 37 -34 37q-39 0 -48 -66l-124 14q10 65 55.5 108t122.5 43q69 0 111.5 -33t42.5 -83q0 -61 -52 -104q-38 -30 -174 -83l-29 -11l19 -42q81 48 154 48h46l-22 -99h-304z" />
    <glyph glyph-name="uni2462" unicode="&#x2462;" horiz-adv-x="896" 
d="M55 318q-2 117 54.5 217.5t157 160t219.5 57.5q169 2 284 -105t113 -268q2 -116 -54.5 -216.5t-157 -160t-219.5 -57.5q-173 -2 -286 104t-111 268zM769 376q0 121 -78 197t-202 76q-133 3 -227.5 -95t-92.5 -231q0 -121 78 -197t202 -76q132 -3 227 96t93 230zM277 273
l123 16q0 -49 43 -49q19 0 31.5 10.5t12.5 26.5q0 14 -10.5 22.5t-25.5 8.5h-29l19 88h25q21 0 34 10t13 28q0 12 -8.5 19.5t-22.5 7.5q-17 0 -28.5 -12t-14.5 -33l-120 18q13 60 57.5 92.5t113.5 32.5q62 0 101 -26.5t39 -69.5q0 -41 -34.5 -65t-91.5 -24l-8 -39
q50 1 80.5 -19.5t30.5 -58.5q0 -52 -46 -83t-118 -31q-77 0 -120.5 34.5t-45.5 95.5z" />
    <glyph glyph-name="uni2463" unicode="&#x2463;" horiz-adv-x="896" 
d="M55 318q-2 117 54.5 217.5t157 160t219.5 57.5q169 2 284 -105t113 -268q2 -116 -54.5 -216.5t-157 -160t-219.5 -57.5q-173 -2 -286 104t-111 268zM769 376q0 121 -78 197t-202 76q-133 3 -227.5 -95t-92.5 -231q0 -121 78 -197t202 -76q132 -3 227 96t93 230zM424 152
l17 82h-191l25 113l186 202h163l-47 -222h54l-20 -93h-55l-17 -82h-115zM461 327l6 26q9 42 62 87l-27 26l-146 -159l27 -22q34 42 67 42h11z" />
    <glyph glyph-name="uni2464" unicode="&#x2464;" horiz-adv-x="896" 
d="M55 318q-2 117 54.5 217.5t157 160t219.5 57.5q169 2 284 -105t113 -268q2 -116 -54.5 -216.5t-157 -160t-219.5 -57.5q-173 -2 -286 104t-111 268zM769 376q0 121 -78 197t-202 76q-133 3 -227.5 -95t-92.5 -231q0 -121 78 -197t202 -76q132 -3 227 96t93 230zM274 265
l120 21q2 -21 13.5 -33.5t29.5 -12.5q21 0 34.5 14.5t13.5 37.5q0 18 -10 28t-26 10q-25 0 -42 -28l-108 20l77 227h271l-21 -99h-178l-4 -13q-15 -44 -58 -81h53q27 53 76 53q42 0 68 -29t26 -79q0 -72 -47 -115t-125 -43q-74 0 -116 34.5t-47 87.5z" />
    <glyph glyph-name="uni2465" unicode="&#x2465;" horiz-adv-x="896" 
d="M55 318q-2 117 54.5 217.5t157 160t219.5 57.5q169 2 284 -105t113 -268q2 -116 -54.5 -216.5t-157 -160t-219.5 -57.5q-173 -2 -286 104t-111 268zM769 376q0 121 -78 197t-202 76q-133 3 -227.5 -95t-92.5 -231q0 -121 78 -197t202 -76q132 -3 227 96t93 230zM279 308
q0 112 63.5 181.5t166.5 69.5q66 0 120 -27l-22 -103q-49 28 -109 28q-111 0 -129 -106h41q8 30 31 48t55 18q43 0 78 -32.5t35 -84.5q0 -69 -48 -113t-122 -44t-117 44.5t-43 120.5zM484 294q0 18 -10.5 29t-26.5 11q-21 0 -34 -15t-13 -40q0 -17 10 -28t27 -11
q20 0 33.5 15.5t13.5 38.5z" />
    <glyph glyph-name="uni2466" unicode="&#x2466;" horiz-adv-x="896" 
d="M55 318q-2 117 54.5 217.5t157 160t219.5 57.5q169 2 284 -105t113 -268q2 -116 -54.5 -216.5t-157 -160t-219.5 -57.5q-173 -2 -286 104t-111 268zM769 376q0 121 -78 197t-202 76q-133 3 -227.5 -95t-92.5 -231q0 -121 78 -197t202 -76q132 -3 227 96t93 230zM548 451
l24 12l-23 38q-72 -51 -145 -51h-63l21 99h305l-24 -115q-75 -38 -125 -113t-62 -169h-130q9 96 66.5 173t155.5 126z" />
    <glyph glyph-name="uni2467" unicode="&#x2467;" horiz-adv-x="896" 
d="M55 318q-2 117 54.5 217.5t157 160t219.5 57.5q169 2 284 -105t113 -268q2 -116 -54.5 -216.5t-157 -160t-219.5 -57.5q-173 -2 -286 104t-111 268zM769 376q0 121 -78 197t-202 76q-133 3 -227.5 -95t-92.5 -231q0 -121 78 -197t202 -76q132 -3 227 96t93 230zM287 248
q0 42 33 66t94 24l9 42q-43 1 -68.5 18.5t-25.5 47.5q0 48 48 80.5t118 32.5q64 0 105 -27t41 -68q0 -39 -30.5 -61t-80.5 -23l-9 -42q44 -2 70 -22.5t26 -53.5q0 -51 -49 -85t-126 -34q-71 0 -113 28.5t-42 76.5zM522 435q0 30 -34 30q-18 0 -29.5 -11.5t-11.5 -29.5
q0 -30 34 -30q19 0 30 11.5t11 29.5zM495 282q0 34 -39 34q-20 0 -32.5 -12t-12.5 -33q0 -32 38 -32q20 0 33 12t13 31z" />
    <glyph glyph-name="uni2468" unicode="&#x2468;" horiz-adv-x="896" 
d="M55 318q-2 117 54.5 217.5t157 160t219.5 57.5q169 2 284 -105t113 -268q2 -116 -54.5 -216.5t-157 -160t-219.5 -57.5q-173 -2 -286 104t-111 268zM769 376q0 121 -78 197t-202 76q-133 3 -227.5 -95t-92.5 -231q0 -121 78 -197t202 -76q132 -3 227 96t93 230zM299 168
l22 103q51 -27 108 -27q63 0 94 30q31 28 37 77h-41q-21 -65 -87 -65q-44 0 -75.5 31.5t-31.5 84.5q0 69 45.5 113t118.5 44q76 0 119 -49q42 -46 42 -120q0 -112 -60.5 -179.5t-164.5 -67.5q-70 0 -126 25zM528 422q0 17 -10.5 28t-25.5 11q-19 0 -32 -15t-13 -38
q0 -17 9.5 -28t25.5 -11q20 0 33 15t13 38z" />
    <glyph glyph-name="uni24EA" unicode="&#x24ea;" horiz-adv-x="896" 
d="M55 318q-2 117 54.5 217.5t157 160t219.5 57.5q169 2 284 -105t113 -268q2 -116 -54.5 -216.5t-157 -160t-219.5 -57.5q-173 -2 -286 104t-111 268zM769 376q0 121 -78 197t-202 76q-133 3 -227.5 -95t-92.5 -231q0 -121 78 -197t202 -76q132 -3 227 96t93 230zM282 313
q0 102 57 174t139 72q77 0 122 -46.5t45 -125.5q0 -103 -56.5 -173.5t-140.5 -70.5q-79 0 -122.5 44.5t-43.5 125.5zM515 390q0 70 -37 70q-26 0 -46.5 -46t-19.5 -104q0 -68 36 -68q26 0 46.5 44.5t20.5 103.5z" />
    <glyph glyph-name="uni24FF" unicode="&#x24ff;" horiz-adv-x="884" 
d="M882 396q2 -114 -58.5 -219.5t-165.5 -169.5t-223 -61q-173 0 -278.5 99t-105.5 258q-2 114 58.5 219.5t165.5 169.5t223 61q171 1 278.5 -99.5t105.5 -257.5zM279 313q0 -81 43.5 -125.5t122.5 -44.5q84 0 140.5 70.5t56.5 173.5q0 80 -45 126t-122 46q-82 0 -139 -72
t-57 -174zM512 390q0 -59 -20.5 -103.5t-46.5 -44.5q-36 0 -36 68q-1 58 19.5 104t46.5 46q37 0 37 -70z" />
    <glyph glyph-name="lozenge" unicode="&#x25ca;" horiz-adv-x="676" 
d="M259 0l-209 350l207 350h197l214 -350l-211 -350h-198zM480 348l-65 112q-29 47 -29 124v20h-62v-31q0 -70 -27 -118l-63 -104l66 -111q27 -49 27 -117q0 -21 -1 -27h63v28q0 73 28 118z" />
    <glyph glyph-name="uni274C" unicode="&#x274c;" horiz-adv-x="805" 
d="M162 -16l-104 104l261 263l-258 262l107 106l257 -261l260 261l105 -102l-261 -264l258 -263l-107 -106l-258 263z" />
    <glyph glyph-name="uni2776" unicode="&#x2776;" horiz-adv-x="891" 
d="M882 396q2 -114 -58.5 -219.5t-165.5 -169.5t-223 -61q-173 0 -278.5 99t-105.5 258q-2 114 58.5 219.5t165.5 169.5t223 61q171 1 278.5 -99.5t105.5 -257.5zM428 329l-37 -177h121l85 397h-113q-39 -77 -132 -79l-25 -117q42 0 64 21.5t45 74.5h48q-43 -61 -56 -120z
" />
    <glyph glyph-name="uni2777" unicode="&#x2777;" horiz-adv-x="891" 
d="M882 396q2 -114 -58.5 -219.5t-165.5 -169.5t-223 -61q-173 0 -278.5 99t-105.5 258q-2 114 58.5 219.5t165.5 169.5t223 61q171 1 278.5 -99.5t105.5 -257.5zM306 270l-25 -118h304l21 99h-45q-74 0 -155 -48l-19 42l30 11q135 52 173 83q53 43 53 104q0 49 -43.5 82.5
t-111.5 33.5q-76 0 -122.5 -43t-54.5 -108l123 -14q9 66 49 66q33 0 33 -37q0 -39 -50 -74t-160 -79z" />
    <glyph glyph-name="uni2778" unicode="&#x2778;" horiz-adv-x="891" 
d="M882 396q2 -114 -58.5 -219.5t-165.5 -169.5t-223 -61q-173 0 -278.5 99t-105.5 258q-2 114 58.5 219.5t165.5 169.5t223 61q171 1 278.5 -99.5t105.5 -257.5zM274 273q2 -61 45.5 -95.5t120.5 -34.5q73 0 118.5 31t45.5 83q0 38 -30.5 58.5t-80.5 19.5l8 39
q57 0 91.5 24t34.5 65q0 43 -39 69.5t-101 26.5q-69 0 -113.5 -32.5t-57.5 -92.5l120 -18q3 21 14.5 33t28.5 12q14 0 22.5 -7.5t8.5 -19.5q0 -18 -13 -28t-34 -10h-25l-19 -88h29q15 0 25.5 -8.5t10.5 -22.5q0 -16 -12.5 -26.5t-31.5 -10.5q-43 0 -43 49z" />
    <glyph glyph-name="uni2779" unicode="&#x2779;" horiz-adv-x="884" 
d="M882 396q2 -114 -58.5 -219.5t-165.5 -169.5t-223 -61q-173 0 -278.5 99t-105.5 258q-2 114 58.5 219.5t165.5 169.5t223 61q171 1 278.5 -99.5t105.5 -257.5zM438 234l-17 -82h115l17 82h56l20 93h-55l48 222h-164l-185 -202l-25 -113h190zM464 353l-6 -26h-10
q-34 0 -67 -42l-27 22l146 159l26 -26q-51 -45 -62 -87z" />
    <glyph glyph-name="uni277A" unicode="&#x277a;" horiz-adv-x="884" 
d="M882 396q2 -114 -58.5 -219.5t-165.5 -169.5t-223 -61q-173 0 -278.5 99t-105.5 258q-2 114 58.5 219.5t165.5 169.5t223 61q171 1 278.5 -99.5t105.5 -257.5zM272 265q3 -53 46 -87.5t117 -34.5q76 0 124 43.5t48 114.5q0 50 -26 79t-69 29q-48 0 -75 -53h-54
q43 37 58 81l5 13h178l21 99h-271l-77 -227l108 -20q17 28 41 28q37 0 37 -38q0 -23 -13.5 -37.5t-34.5 -14.5q-18 0 -30 12.5t-13 33.5z" />
    <glyph glyph-name="uni277B" unicode="&#x277b;" horiz-adv-x="884" 
d="M882 396q2 -114 -58.5 -219.5t-165.5 -169.5t-223 -61q-173 0 -278.5 99t-105.5 258q-2 114 58.5 219.5t165.5 169.5t223 61q171 1 278.5 -99.5t105.5 -257.5zM276 308q0 -77 43 -121t118 -44q74 0 121.5 44t47.5 113q0 52 -35 84.5t-78 32.5q-32 0 -54.5 -18t-31.5 -48
h-41q18 106 129 106q60 0 109 -28l22 103q-52 27 -120 27q-103 0 -166.5 -69.5t-63.5 -181.5zM481 294q0 -23 -13.5 -38.5t-33.5 -15.5q-17 0 -27 11t-10 28q0 25 13 40t34 15q16 0 26.5 -11t10.5 -29z" />
    <glyph glyph-name="uni277C" unicode="&#x277c;" horiz-adv-x="891" 
d="M882 396q2 -114 -58.5 -219.5t-165.5 -169.5t-223 -61q-173 0 -278.5 99t-105.5 258q-2 114 58.5 219.5t165.5 169.5t223 61q171 1 278.5 -99.5t105.5 -257.5zM545 451q-98 -49 -155 -126t-67 -173h130q13 94 63 169q49 75 124 113l24 115h-305l-21 -99h63q73 0 145 51
l24 -38z" />
    <glyph glyph-name="uni277D" unicode="&#x277d;" horiz-adv-x="884" 
d="M882 396q2 -114 -58.5 -219.5t-165.5 -169.5t-223 -61q-173 0 -278.5 99t-105.5 258q-2 114 58.5 219.5t165.5 169.5t223 61q171 1 278.5 -99.5t105.5 -257.5zM285 248q0 -48 41.5 -76.5t113.5 -28.5q76 0 125.5 34t49.5 85q0 33 -26 53.5t-71 22.5l9 42q51 1 81.5 23
t30.5 61q0 41 -41 68t-105 27q-70 0 -118 -32.5t-48 -80.5q0 -30 25 -47.5t68 -18.5l-9 -42q-61 0 -93.5 -24t-32.5 -66zM520 435q0 -18 -11.5 -29.5t-29.5 -11.5q-35 0 -35 30q0 18 11.5 29.5t29.5 11.5q35 0 35 -30zM492 282q0 -19 -12.5 -31t-33.5 -12q-37 0 -37 32
q0 21 12.5 33t32.5 12q38 0 38 -34z" />
    <glyph glyph-name="uni277E" unicode="&#x277e;" horiz-adv-x="891" 
d="M882 396q2 -114 -58.5 -219.5t-165.5 -169.5t-223 -61q-173 0 -278.5 99t-105.5 258q-2 114 58.5 219.5t165.5 169.5t223 61q171 1 278.5 -99.5t105.5 -257.5zM297 168q56 -25 127 -25q103 0 164 67.5t61 179.5q0 74 -43 120q-43 49 -119 49q-72 0 -117.5 -44t-45.5 -113
q0 -53 31.5 -84.5t74.5 -31.5q64 0 88 65h40q-5 -49 -36 -77q-34 -30 -95 -30q-56 0 -107 27zM526 422q0 -23 -13 -38t-33 -15q-15 0 -24.5 11t-9.5 28q0 23 12.5 38t31.5 15q16 0 26 -11t10 -28z" />
    <glyph glyph-name="uni300A" unicode="&#x300a;" horiz-adv-x="684" 
d="M463 671l-282 -389l116 -388l-146 -54l-132 463l323 462zM780 671l-316 -423l111 -354l-147 -54l-127 428l358 497z" />
    <glyph glyph-name="uni300B" unicode="&#x300b;" horiz-adv-x="683" 
d="M278 765l127 -428l-358 -497l-121 94l316 423l-111 354zM555 765l132 -463l-323 -462l-121 94l282 389l-116 388z" />
    <glyph glyph-name="uni300C" unicode="&#x300c;" horiz-adv-x="399" 
d="M78 302l95 453h320l-29 -132h-163l-68 -321h-155z" />
    <glyph glyph-name="uni300D" unicode="&#x300d;" horiz-adv-x="384" 
d="M340 303l-95 -453h-320l29 131h163l68 322h155z" />
    <glyph glyph-name="uni300E" unicode="&#x300e;" horiz-adv-x="576" 
d="M53 173l123 582h474l-62 -294h-163l-60 -288h-312zM200 288h78l59 275h150l16 77h-229z" />
    <glyph glyph-name="uni300F" unicode="&#x300f;" horiz-adv-x="567" 
d="M542 430l-123 -581h-474l62 294h163l60 287h312zM395 315h-78l-59 -274h-150l-16 -77h229z" />
    <glyph glyph-name="uni3010" unicode="&#x3010;" horiz-adv-x="400" 
d="M-16 -150l193 905h343q-229 -207 -281 -451q-14 -70 -14 -131q0 -171 103 -323h-344z" />
    <glyph glyph-name="uni3011" unicode="&#x3011;" horiz-adv-x="399" 
d="M438 755l-193 -905h-343q229 207 281 451q14 70 14 131q0 166 -103 323h344z" />
    <glyph glyph-name="uni3014" unicode="&#x3014;" horiz-adv-x="368" 
d="M246 479l-78 -375l127 -179l-121 -85l-167 227l99 473l254 225l94 -107z" />
    <glyph glyph-name="uni3015" unicode="&#x3015;" horiz-adv-x="369" 
d="M217 765l167 -228l-99 -472l-254 -226l-94 108l208 179l78 374l-127 179z" />
    <glyph glyph-name="uniE000" unicode="&#xe000;" horiz-adv-x="771" 
d="M330 0v281h-267v140h267v282h154v-282h268v-140h-268v-281h-154z" />
    <glyph glyph-name="uniE001" unicode="&#xe001;" horiz-adv-x="823" 
d="M84 281v140h690v-140h-690z" />
    <glyph glyph-name="uniE002" unicode="&#xe002;" horiz-adv-x="878" 
d="M199 -16l-104 104l261 263l-258 262l107 106l257 -261l260 261l105 -102l-261 -264l258 -263l-107 -106l-258 263z" />
    <glyph glyph-name="uniE003" unicode="&#xe003;" horiz-adv-x="907" 
d="M415 -15l-322 410l120 98l208 -264l386 503l115 -92z" />
    <glyph glyph-name="uniE004" unicode="&#xe004;" horiz-adv-x="977" 
d="M123 529v138h773v-138h-773zM123 281v135h773v-135h-773zM123 30v137h773v-137h-773z" />
    <glyph glyph-name="uniE005" unicode="&#xe005;" horiz-adv-x="907" 
d="M124 0v692h699v-692h-699zM264 129h418v434h-418v-434z" />
    <glyph glyph-name="uniE006" unicode="&#xe006;" horiz-adv-x="907" 
d="M486 158l-185 270l100 73l29 -43q23 -32 29 -68q7 -32 7 -96h57q0 66 7.5 100t35.5 70l195 255l100 -77zM131 0v692h448v-129h-307v-434h418v196h141v-325h-700z" />
    <glyph glyph-name="uniE007" unicode="&#xe007;" horiz-adv-x="907" 
d="M124 0v692h699v-692h-699zM264 129h418v434h-418v-434zM386 258v177h176v-177h-176z" />
    <glyph glyph-name="uniE008" unicode="&#xe008;" horiz-adv-x="838" 
d="M417 169l-329 327l117 115l26 -28q39 -42 39 -143l-1 -27h63v474h169v-474h63l-1 29q0 99 40 142l26 27l116 -115zM65 0v169h701v-169h-701z" />
    <glyph glyph-name="uniE009" unicode="&#xe009;" horiz-adv-x="838" 
d="M424 251l-329 328l117 115l26 -27q38 -43 38 -140v-32h63v475h169v-475h63v29q0 101 39 143l26 27l116 -115zM72 0v169h700v-169h-700z" />
    <glyph glyph-name="uniF8FF" unicode="&#xf8ff;" horiz-adv-x="897" 
d="M766 -80l-45 2q-6 77 -29 120l-51 -9q17 -93 16 -150l-23 -5q-114 36 -114 133q0 25 6 54q10 34 32 94l6 17l-56 14q-32 -83 -62 -122q-60 46 -60 153v13q2 48 2 52q0 32 -6 52q-8 23 -24.5 38t-52.5 37q-33 19 -53 42t-36 62l109 48l-22 35q-25 2 -53 8q-46 9 -76.5 37
t-30.5 60q0 5 2 15q7 30 25 46.5t43 16.5q11 0 20 -3q31 -8 53.5 -32t46.5 -81l55 28q-35 54 -44 72q-11 24 -11 41q0 6 3 16q8 38 54 38q12 0 25 -3q62 -13 62 -70q0 -8 -2 -22q-16 -58 -58 -110l25 -41l53 23q46 -36 82 -94q59 -94 78 -180q125 -135 125 -326
q0 -54 -14 -119z" />
    <glyph glyph-name="Ccedilla.ss04" horiz-adv-x="776" 
d="M571 263l181 -73q-101 -193 -328 -206l-1 -1q-23 -17 -86 -31l10 -36q21 10 48 10q31 0 52.5 -18.5t21.5 -49.5q0 -46 -39 -73.5t-103 -27.5q-94 0 -141 54l65 67q26 -32 65 -32q42 0 42 26q0 10 -7.5 16.5t-21.5 6.5q-16 0 -27 -4l-25 48l57 48q-132 15 -205.5 94.5
t-73.5 208.5q-2 114 49.5 212.5t148 157.5t216.5 57q133 0 222 -66.5t109 -166.5l-193 -46q-32 128 -149 128q-62 2 -110.5 -39t-72.5 -102.5t-23 -128.5q0 -78 38 -119.5t106 -41.5q115 0 175 128z" />
    <glyph glyph-name="G.ss03" horiz-adv-x="797" 
d="M55 291q-2 112 48 209t147 158t220 59q137 0 223.5 -63.5t107.5 -154.5l-194 -54q-36 117 -149 117q-93 2 -151.5 -80.5t-56.5 -183.5q0 -84 41.5 -127.5t110.5 -43.5q56 0 97.5 27.5t57.5 76.5h-182l29 140h371q-3 -173 -103 -280.5t-277 -107.5q-159 0 -249.5 79.5
t-90.5 228.5z" />
    <glyph glyph-name="Gbreve.ss03" horiz-adv-x="797" 
d="M55 291q-2 112 48 209t147 158t220 59q137 0 223.5 -63.5t107.5 -154.5l-194 -54q-36 117 -149 117q-93 2 -151.5 -80.5t-56.5 -183.5q0 -84 41.5 -127.5t110.5 -43.5q56 0 97.5 27.5t57.5 76.5h-182l29 140h371q-3 -173 -103 -280.5t-277 -107.5q-159 0 -249.5 79.5
t-90.5 228.5zM333 889v13h120q-2 -27 16.5 -44.5t53.5 -17.5q69 0 96 62h124q-49 -156 -226 -156q-86 0 -135 40t-49 103z" />
    <glyph glyph-name="Gcircumflex.ss03" horiz-adv-x="797" 
d="M55 291q-2 112 48 209t147 158t220 59q137 0 223.5 -63.5t107.5 -154.5l-194 -54q-36 117 -149 117q-93 2 -151.5 -80.5t-56.5 -183.5q0 -84 41.5 -127.5t110.5 -43.5q56 0 97.5 27.5t57.5 76.5h-182l29 140h371q-3 -173 -103 -280.5t-277 -107.5q-159 0 -249.5 79.5
t-90.5 228.5zM270 764l156 138h216l90 -138h-151l-57 72l-92 -72h-162z" />
    <glyph glyph-name="uni0122.ss03" horiz-adv-x="797" 
d="M55 291q-2 112 48 209t147 158t220 59q137 0 223.5 -63.5t107.5 -154.5l-194 -54q-36 117 -149 117q-93 2 -151.5 -80.5t-56.5 -183.5q0 -84 41.5 -127.5t110.5 -43.5q56 0 97.5 27.5t57.5 76.5h-182l29 140h371q-3 -173 -103 -280.5t-277 -107.5q-159 0 -249.5 79.5
t-90.5 228.5zM218 -353l128 147h-88l32 149h164l-34 -153l-121 -143h-81z" />
    <glyph glyph-name="Gdotaccent.ss03" horiz-adv-x="797" 
d="M55 291q-2 112 48 209t147 158t220 59q137 0 223.5 -63.5t107.5 -154.5l-194 -54q-36 117 -149 117q-93 2 -151.5 -80.5t-56.5 -183.5q0 -84 41.5 -127.5t110.5 -43.5q56 0 97.5 27.5t57.5 76.5h-182l29 140h371q-3 -173 -103 -280.5t-277 -107.5q-159 0 -249.5 79.5
t-90.5 228.5zM424 761l31 147h166l-31 -147h-166z" />
    <glyph glyph-name="Scedilla.ss04" horiz-adv-x="704" 
d="M664 218q0 -107 -80 -168.5t-216 -66.5h-1q-23 -17 -86 -31l10 -36q21 10 47 10q32 0 53.5 -18.5t21.5 -49.5q0 -46 -39 -73.5t-103 -27.5q-92 0 -142 54l66 67q26 -32 65 -32q42 0 42 26q0 10 -7.5 16.5t-21.5 6.5q-16 0 -27 -4l-25 48l58 48q-117 14 -184.5 69.5
t-79.5 141.5l192 43q6 -51 45 -84t98 -33q53 0 83.5 20.5t30.5 54.5q0 27 -20 43t-63 26l-72 17q-111 22 -161 69t-50 133q0 102 84 166t219 64q134 0 214 -55.5t96 -144.5l-192 -39q-12 46 -44.5 72.5t-81.5 26.5q-47 0 -74 -20t-27 -51q0 -27 19 -43t61 -25l79 -19
q100 -21 156 -71.5t57 -129.5z" />
    <glyph glyph-name="uni0162.ss04" horiz-adv-x="661" 
d="M107 700h638l-31 -144h-224l-118 -556l-41 -19q-23 -12 -89 -27l11 -35q21 10 46 10q31 0 51.5 -18.5t20.5 -48.5q0 -44 -38 -70.5t-100 -26.5q-90 0 -136 52l63 65q28 -31 63 -31q40 0 40 25q0 22 -28 22q-15 0 -26 -4l-23 47l70 59h-72l117 556h-224z" />
    <glyph glyph-name="a.salt" horiz-adv-x="635" 
d="M29 200q-1 133 68.5 227t165.5 92q60 0 97.5 -34t51.5 -84h61q-18 38 -18 80q0 16 1 20h175l-107 -501h-155q12 50 57 101h-70q-62 -118 -164 -118q-72 0 -117.5 60.5t-45.5 156.5zM411 287q0 106 -84 106q-49 0 -82.5 -55t-33.5 -124q0 -105 83 -105q49 0 83 55t34 123z
" />
    <glyph glyph-name="aacute.salt" horiz-adv-x="635" 
d="M29 200q-1 133 68.5 227t165.5 92q60 0 97.5 -34t51.5 -84h61q-18 38 -18 80q0 16 1 20h175l-107 -501h-155q12 50 57 101h-70q-62 -118 -164 -118q-72 0 -117.5 60.5t-45.5 156.5zM411 287q0 106 -84 106q-49 0 -82.5 -55t-33.5 -124q0 -105 83 -105q49 0 83 55t34 123z
M317 566l84 154h179l-145 -154h-118z" />
    <glyph glyph-name="abreve.salt" horiz-adv-x="635" 
d="M29 200q-1 133 68.5 227t165.5 92q60 0 97.5 -34t51.5 -84h61q-18 38 -18 80q0 16 1 20h175l-107 -501h-155q12 50 57 101h-70q-62 -118 -164 -118q-72 0 -117.5 60.5t-45.5 156.5zM411 287q0 106 -84 106q-49 0 -82.5 -55t-33.5 -124q0 -105 83 -105q49 0 83 55t34 123z
M220 691q0 10 1 13h108q-1 -27 16 -44t48 -17q66 0 87 61h114q-46 -153 -206 -153q-79 0 -123.5 39t-44.5 101z" />
    <glyph glyph-name="acircumflex.salt" horiz-adv-x="635" 
d="M29 200q-1 133 68.5 227t165.5 92q60 0 97.5 -34t51.5 -84h61q-18 38 -18 80q0 16 1 20h175l-107 -501h-155q12 50 57 101h-70q-62 -118 -164 -118q-72 0 -117.5 60.5t-45.5 156.5zM411 287q0 106 -84 106q-49 0 -82.5 -55t-33.5 -124q0 -105 83 -105q49 0 83 55t34 123z
M160 566l142 138h196l82 -138h-137l-52 72l-84 -72h-147z" />
    <glyph glyph-name="adieresis.salt" horiz-adv-x="635" 
d="M29 200q-1 133 68.5 227t165.5 92q60 0 97.5 -34t51.5 -84h61q-18 38 -18 80q0 16 1 20h175l-107 -501h-155q12 50 57 101h-70q-62 -118 -164 -118q-72 0 -117.5 60.5t-45.5 156.5zM411 287q0 106 -84 106q-49 0 -82.5 -55t-33.5 -124q0 -105 83 -105q49 0 83 55t34 123z
M184 572l28 132h154l-28 -132h-154zM416 572l29 132h153l-28 -132h-154z" />
    <glyph glyph-name="uni0227.salt" horiz-adv-x="635" 
d="M29 200q-1 133 68.5 227t165.5 92q60 0 97.5 -34t51.5 -84h61q-18 38 -18 80q0 16 1 20h175l-107 -501h-155q12 50 57 101h-70q-62 -118 -164 -118q-72 0 -117.5 60.5t-45.5 156.5zM411 287q0 106 -84 106q-49 0 -82.5 -55t-33.5 -124q0 -105 83 -105q49 0 83 55t34 123z
M293 563l31 147h166l-31 -147h-166z" />
    <glyph glyph-name="uni1EA1.salt" horiz-adv-x="635" 
d="M29 200q-1 133 68.5 227t165.5 92q60 0 97.5 -34t51.5 -84h61q-18 38 -18 80q0 16 1 20h175l-107 -501h-155q12 50 57 101h-70q-62 -118 -164 -118q-72 0 -117.5 60.5t-45.5 156.5zM411 287q0 106 -84 106q-49 0 -82.5 -55t-33.5 -124q0 -105 83 -105q49 0 83 55t34 123z
M147 -205l31 147h166l-31 -147h-166z" />
    <glyph glyph-name="agrave.salt" horiz-adv-x="635" 
d="M29 200q-1 133 68.5 227t165.5 92q60 0 97.5 -34t51.5 -84h61q-18 38 -18 80q0 16 1 20h175l-107 -501h-155q12 50 57 101h-70q-62 -118 -164 -118q-72 0 -117.5 60.5t-45.5 156.5zM411 287q0 106 -84 106q-49 0 -82.5 -55t-33.5 -124q0 -105 83 -105q49 0 83 55t34 123z
M323 566l-89 154h180l17 -154h-108z" />
    <glyph glyph-name="amacron.salt" horiz-adv-x="635" 
d="M29 200q-1 133 68.5 227t165.5 92q60 0 97.5 -34t51.5 -84h61q-18 38 -18 80q0 16 1 20h175l-107 -501h-155q12 50 57 101h-70q-62 -118 -164 -118q-72 0 -117.5 60.5t-45.5 156.5zM411 287q0 106 -84 106q-49 0 -82.5 -55t-33.5 -124q0 -105 83 -105q49 0 83 55t34 123z
M217 578l23 106h323l-22 -106h-324z" />
    <glyph glyph-name="aogonek.salt" horiz-adv-x="635" 
d="M456 501h175l-107 -501h-1q-133 -31 -133 -76q0 -25 37 -25q29 0 79 15l-24 -111q-44 -16 -96 -16q-53 0 -83 23.5t-30 64.5q0 80 99 125h-3q12 50 57 101h-70q-62 -118 -164 -118q-72 0 -117.5 60.5t-45.5 156.5q-1 133 68.5 227t165.5 92q60 0 97.5 -34t51.5 -84h61
q-18 38 -18 80q0 16 1 20zM411 287q0 106 -84 106q-49 0 -82.5 -55t-33.5 -124q0 -105 83 -105q49 0 83 55t34 123z" />
    <glyph glyph-name="aring.salt" horiz-adv-x="635" 
d="M29 200q-1 133 68.5 227t165.5 92q60 0 97.5 -34t51.5 -84h61q-18 38 -18 80q0 16 1 20h175l-107 -501h-155q12 50 57 101h-70q-62 -118 -164 -118q-72 0 -117.5 60.5t-45.5 156.5zM411 287q0 106 -84 106q-49 0 -82.5 -55t-33.5 -124q0 -105 83 -105q49 0 83 55t34 123z
M254 666q0 56 40 96.5t103 40.5q56 0 91 -33.5t35 -85.5q0 -56 -40 -95.5t-102 -39.5q-55 0 -91 32.5t-36 84.5zM434 682q0 18 -11.5 29t-29.5 11q-21 0 -35.5 -14t-14.5 -37q0 -18 12 -29.5t31 -11.5q21 0 34.5 14.5t13.5 37.5z" />
    <glyph glyph-name="aringacute.salt" horiz-adv-x="635" 
d="M29 200q-1 133 68.5 227t165.5 92q60 0 97.5 -34t51.5 -84h61q-18 38 -18 80q0 16 1 20h175l-107 -501h-155q12 50 57 101h-70q-62 -118 -164 -118q-72 0 -117.5 60.5t-45.5 156.5zM411 287q0 106 -84 106q-49 0 -82.5 -55t-33.5 -124q0 -105 83 -105q49 0 83 55t34 123z
M365 825l82 123h176l-142 -123h-116zM263 659q0 56 40.5 96.5t103.5 40.5q56 0 90.5 -33t34.5 -86q0 -57 -39.5 -96t-102.5 -39q-55 0 -91 32.5t-36 84.5zM444 675q0 17 -12 28.5t-30 11.5q-21 0 -35 -14.5t-14 -37.5q0 -18 12 -29.5t30 -11.5q21 0 35 14.5t14 38.5z" />
    <glyph glyph-name="atilde.salt" horiz-adv-x="635" 
d="M29 200q-1 133 68.5 227t165.5 92q60 0 97.5 -34t51.5 -84h61q-18 38 -18 80q0 16 1 20h175l-107 -501h-155q12 50 57 101h-70q-62 -118 -164 -118q-72 0 -117.5 60.5t-45.5 156.5zM411 287q0 106 -84 106q-49 0 -82.5 -55t-33.5 -124q0 -105 83 -105q49 0 83 55t34 123z
M374 583l-23 14q-31 17 -43 17q-36 0 -47 -48h-111q7 69 46.5 108t101.5 39q45 0 92 -27l22 -13q5 -5 19.5 -11t23.5 -6q36 0 48 48h111q-10 -73 -49 -110t-100 -37q-47 0 -91 26z" />
    <glyph glyph-name="ccedilla.ss04" horiz-adv-x="586" 
d="M395 201l159 -49q-67 -148 -230 -166l-2 -2q-25 -19 -84 -30l10 -35q21 10 46 10q31 0 51.5 -18.5t20.5 -48.5q0 -44 -37.5 -70.5t-100.5 -26.5q-90 0 -136 52l63 65q28 -31 63 -31q40 0 40 25q0 22 -28 22q-16 0 -25 -4l-25 47l54 45q-96 12 -151 70.5t-55 155.5
q-2 125 85 217t214 89q101 0 168.5 -48.5t81.5 -126.5l-166 -37q-7 40 -30.5 63.5t-58.5 23.5q-55 0 -87.5 -56t-32.5 -126q0 -48 22.5 -75t62.5 -27q67 0 108 92z" />
    <glyph glyph-name="g.ss02" horiz-adv-x="643" 
d="M-33 -42l176 29q7 -79 96 -79q95 0 119 86q15 47 26 66q15 25 38 48h-73q-54 -99 -149 -99q-71 0 -120 58t-49 146q-2 119 69.5 214t168.5 92q64 0 104.5 -35.5t49.5 -84.5h61q-19 41 -19 84q0 11 1 18h173l-96 -450q-31 -148 -101.5 -205.5t-213.5 -57.5q-135 0 -196 48
q-60 47 -65 122zM420 300q0 45 -21 69t-60 24q-57 0 -87.5 -49.5t-30.5 -120.5q0 -94 80 -94q55 0 87 51.5t32 119.5z" />
    <glyph glyph-name="gbreve.ss02" horiz-adv-x="643" 
d="M-33 -42l176 29q7 -79 96 -79q95 0 119 86q15 47 26 66q15 25 38 48h-73q-54 -99 -149 -99q-71 0 -120 58t-49 146q-2 119 69.5 214t168.5 92q64 0 104.5 -35.5t49.5 -84.5h61q-19 41 -19 84q0 11 1 18h173l-96 -450q-31 -148 -101.5 -205.5t-213.5 -57.5q-135 0 -196 48
q-60 47 -65 122zM420 300q0 45 -21 69t-60 24q-57 0 -87.5 -49.5t-30.5 -120.5q0 -94 80 -94q55 0 87 51.5t32 119.5zM224 691q0 10 1 13h108q-1 -27 16 -44t48 -17q66 0 87 61h114q-46 -153 -206 -153q-79 0 -123.5 39t-44.5 101z" />
    <glyph glyph-name="gcircumflex.ss02" horiz-adv-x="643" 
d="M-33 -42l176 29q7 -79 96 -79q95 0 119 86q15 47 26 66q15 25 38 48h-73q-54 -99 -149 -99q-71 0 -120 58t-49 146q-2 119 69.5 214t168.5 92q64 0 104.5 -35.5t49.5 -84.5h61q-19 41 -19 84q0 11 1 18h173l-96 -450q-31 -148 -101.5 -205.5t-213.5 -57.5q-135 0 -196 48
q-60 47 -65 122zM420 300q0 45 -21 69t-60 24q-57 0 -87.5 -49.5t-30.5 -120.5q0 -94 80 -94q55 0 87 51.5t32 119.5zM164 566l142 138h196l82 -138h-137l-52 72l-84 -72h-147z" />
    <glyph glyph-name="uni0123.ss02" horiz-adv-x="643" 
d="M-33 -42l176 29q7 -79 96 -79q95 0 119 86q15 47 26 66q15 25 38 48h-73q-54 -99 -149 -99q-71 0 -120 58t-49 146q-2 119 69.5 214t168.5 92q64 0 104.5 -35.5t49.5 -84.5h61q-19 41 -19 84q0 11 1 18h173l-96 -450q-31 -148 -101.5 -205.5t-213.5 -57.5q-135 0 -196 48
q-60 47 -65 122zM420 300q0 45 -21 69t-60 24q-57 0 -87.5 -49.5t-30.5 -120.5q0 -94 80 -94q55 0 87 51.5t32 119.5zM532 858l-128 -148h88l-32 -148h-164l34 153l122 143h80z" />
    <glyph glyph-name="gdotaccent.ss02" horiz-adv-x="643" 
d="M-33 -42l176 29q7 -79 96 -79q95 0 119 86q15 47 26 66q15 25 38 48h-73q-54 -99 -149 -99q-71 0 -120 58t-49 146q-2 119 69.5 214t168.5 92q64 0 104.5 -35.5t49.5 -84.5h61q-19 41 -19 84q0 11 1 18h173l-96 -450q-31 -148 -101.5 -205.5t-213.5 -57.5q-135 0 -196 48
q-60 47 -65 122zM420 300q0 45 -21 69t-60 24q-57 0 -87.5 -49.5t-30.5 -120.5q0 -94 80 -94q55 0 87 51.5t32 119.5zM297 563l31 147h166l-31 -147h-166z" />
    <glyph glyph-name="i.locl" horiz-adv-x="292" 
d="M120 563l31 148h181l-31 -148h-181zM4 0l108 501h175l-107 -501h-176z" />
    <glyph glyph-name="scedilla.ss04" horiz-adv-x="541" 
d="M497 160q0 -77 -62.5 -123.5t-162.5 -52.5q-25 -19 -84 -30l10 -35q21 10 46 10q31 0 51.5 -18.5t20.5 -48.5q0 -44 -37.5 -70.5t-100.5 -26.5q-90 0 -136 52l63 65q28 -31 63 -31q40 0 40 25q0 9 -7.5 15.5t-19.5 6.5q-15 0 -26 -4l-25 47l56 46q-83 11 -132.5 50
t-57.5 97l165 33q16 -73 89 -73q32 0 51 13.5t19 35.5q0 31 -49 44l-61 15q-151 36 -151 141q0 79 63 127t168 48q100 0 159 -37.5t73 -92.5l-157 -39q-19 62 -81 62q-29 0 -45.5 -12.5t-16.5 -31.5q0 -15 13.5 -24.5t46.5 -17.5l51 -12q164 -41 164 -153z" />
    <glyph glyph-name="uni0163.ss04" horiz-adv-x="451" 
d="M308 379l-45 -208q-2 -10 -2 -12q0 -27 33 -27h118l-28 -132h-109l-21 -16q-25 -19 -84 -30l10 -35q21 10 46 10q31 0 51.5 -18.5t20.5 -48.5q0 -44 -37.5 -70.5t-100.5 -26.5q-90 0 -136 52l63 65q28 -31 63 -31q40 0 40 25q0 9 -7.5 15.5t-19.5 6.5q-17 0 -26 -4
l-25 47l77 63q-103 24 -103 123q0 25 6 49l44 203h-100l26 122h100l33 155h172l-34 -155h119l-26 -122h-118z" />
    <glyph glyph-name="zero.onum" horiz-adv-x="676" 
d="M35 218q-2 124 88.5 213t230.5 87q125 0 205 -67t80 -176q2 -123 -86.5 -207.5t-232.5 -84.5q-126 0 -205.5 64t-79.5 171zM458 276q0 57 -28.5 87t-78.5 30q-58 0 -96.5 -52t-38.5 -120q0 -56 28.5 -85t78.5 -29q63 0 99 50.5t36 118.5z" />
    <glyph glyph-name="one.onum" horiz-adv-x="457" 
d="M165 0l38 176q20 91 76 170h-70q-33 -79 -78 -121.5t-114 -42.5l39 180q154 11 234 139h156l-107 -501h-174z" />
    <glyph glyph-name="two.onum" horiz-adv-x="566" 
d="M13 0l34 160q121 34 177 56q144 53 144 120q0 26 -17 40t-44 14q-37 0 -58 -24t-28 -61l-165 28q11 78 80 131.5t178 53.5q103 0 163.5 -41.5t60.5 -108.5q0 -76 -67 -125q-45 -34 -112 -58q-71 -26 -187 -60l25 -58q113 62 234 62h67l-28 -129h-457z" />
    <glyph glyph-name="three.onum" horiz-adv-x="603" 
d="M-28 3l169 25q-2 -50 22.5 -77t71.5 -27t76.5 26.5t29.5 69.5q0 32 -23.5 51t-64.5 19l-70 1l27 132h78q44 0 75 23.5t31 66.5q0 29 -22 49t-56 20q-81 0 -104 -99l-165 34q19 88 91.5 145t185.5 57q102 0 168.5 -47.5t66.5 -121.5q0 -76 -58 -119.5t-156 -45.5l-13 -60
q86 1 134.5 -35t48.5 -98q0 -91 -77 -147.5t-201 -56.5q-123 0 -194.5 57t-70.5 158z" />
    <glyph glyph-name="four.onum" horiz-adv-x="665" 
d="M283 -195l41 195h-353l32 149l326 352h263l-78 -373h102l-28 -128h-102l-42 -195h-161zM309 128h42l14 63q12 56 30.5 87.5t57.5 72.5l-45 40l-4 -4l-243 -266l-7 -8l43 -39q33 33 50.5 42.5t61.5 11.5z" />
    <glyph glyph-name="five.onum" horiz-adv-x="595" 
d="M-29 -11l162 37q4 -44 29 -71t66 -27q51 0 83 33.5t32 82.5q0 42 -25.5 66t-61.5 24q-54 0 -90 -51l-162 30l135 388h443l-31 -142h-320l-29 -80q-26 -70 -77 -116h77q18 39 53 63.5t81 24.5q78 0 131 -53.5t53 -143.5q0 -119 -81 -192.5t-204 -73.5q-117 0 -188 57.5
t-76 143.5z" />
    <glyph glyph-name="six.onum" horiz-adv-x="637" 
d="M54 258q-1 93 24.5 175t74.5 146t127.5 101t175.5 36q102 0 185 -29l-32 -143q-75 31 -156 31q-101 0 -172 -60.5t-97 -176.5h58q40 119 162 119q80 0 139 -55.5t59 -145.5q0 -122 -80.5 -197.5t-208.5 -75.5q-126 0 -192.5 74.5t-66.5 200.5zM432 240q0 41 -28 68
t-67 27q-52 0 -84 -35t-32 -87q0 -41 27 -66.5t69 -25.5q50 0 82.5 34.5t32.5 84.5z" />
    <glyph glyph-name="seven.onum" horiz-adv-x="545" 
d="M428 360l21 12l-32 53q-98 -64 -203 -64h-176l29 140h513l-38 -178q-137 -80 -231.5 -219.5t-119.5 -299.5h-177q32 200 131.5 327.5t282.5 228.5z" />
    <glyph glyph-name="eight.onum" horiz-adv-x="624" 
d="M28 162q0 81 59.5 124t163.5 44l12 59q-159 15 -159 127q0 86 79 143t196 57q108 0 173.5 -46.5t65.5 -123.5q0 -71 -55 -113.5t-152 -45.5l-12 -60q83 -4 128.5 -40.5t45.5 -97.5q0 -88 -81 -147t-207 -59q-119 0 -188 50t-69 129zM461 513q0 35 -24.5 55.5t-67.5 20.5
q-47 0 -78.5 -28t-31.5 -68q0 -35 25 -54.5t67 -19.5q47 0 78.5 27.5t31.5 66.5zM407 215q0 36 -26 57.5t-71 21.5q-52 0 -84 -28.5t-32 -71.5q0 -36 26 -57t71 -21q51 0 83.5 29t32.5 70z" />
    <glyph glyph-name="nine.onum" horiz-adv-x="644" 
d="M-6 -178l32 144q82 -36 155 -36q101 0 165.5 55t82.5 153h-57q-43 -96 -151 -96q-76 0 -127.5 56.5t-51.5 145.5q-2 119 76.5 197.5t195.5 76.5q123 0 195.5 -80.5t72.5 -208.5q2 -192 -103 -317t-300 -124q-112 0 -185 34zM417 287q0 41 -27 66.5t-69 25.5
q-51 0 -83.5 -35t-32.5 -85q0 -41 27.5 -68t67.5 -27q52 0 84.5 35.5t32.5 87.5z" />
    <glyph glyph-name="zero.tnum" 
d="M36 268q0 112 40 214q41 104 116 169q75 66 173 66q121 0 191.5 -76.5t70.5 -214.5q2 -111 -39 -213t-118.5 -167t-171.5 -63q-122 0 -192 73.5t-70 211.5zM447 429q0 140 -87 140q-42 3 -77 -48t-52 -119.5t-16 -130.5q0 -140 86 -140q44 -3 79 48t51.5 119.5
t15.5 130.5z" />
    <glyph glyph-name="one.tnum" 
d="M422 148h140l-31 -148h-517l31 148h206l47 222q21 95 74 169h-66q-41 -83 -86 -124t-107 -44l39 183q158 13 231 146h157z" />
    <glyph glyph-name="two.tnum" 
d="M6 0l38 183q208 85 303.5 156t95.5 148q1 39 -21 61t-59 22q-45 0 -72.5 -37t-34.5 -97l-173 29q13 104 87 178t201 74q116 0 183.5 -57.5t67.5 -147.5q0 -140 -152 -241q-54 -36 -239 -110l-62 -24l27 -60q108 70 222 70h132l-31 -147h-513z" />
    <glyph glyph-name="three.tnum" 
d="M21 206l172 23q0 -48 24.5 -74.5t69.5 -26.5t74 26.5t29 68.5q0 28 -22 46.5t-58 18.5h-75l29 131h70q45 0 73.5 23.5t28.5 64.5q0 29 -20 46.5t-52 17.5q-37 0 -62 -23t-34 -67l-169 35q20 91 92 146t188 55q100 0 164.5 -47t64.5 -120q0 -81 -55 -123t-147 -42h-19
l-12 -59q90 4 139.5 -33.5t49.5 -99.5q0 -90 -79.5 -150t-199.5 -60q-124 0 -193 57t-71 166z" />
    <glyph glyph-name="four.tnum" 
d="M289 0l33 152h-320l34 159l318 389h236l-88 -410h92l-30 -138h-92l-33 -152h-150zM351 290l16 74q9 51 29 88t58 79l-40 40l-5 -5l-228 -282l-8 -10l41 -37q25 30 44 41.5t55 11.5h38z" />
    <glyph glyph-name="five.tnum" 
d="M24 181l169 34q4 -40 26.5 -63.5t63.5 -23.5q50 0 80 34t30 82q0 40 -24 62.5t-60 22.5q-54 0 -89 -50l-153 29l133 392h438l-32 -148h-309l-24 -64q-35 -90 -93 -135h78q47 90 135 90q77 0 126.5 -52t49.5 -141q0 -121 -81 -194t-204 -73q-119 0 -185.5 55.5
t-74.5 142.5z" />
    <glyph glyph-name="six.tnum" 
d="M50 268q-2 195 107 323t288 126q111 0 183 -37l-32 -152q-72 37 -162 37q-101 0 -169 -57.5t-81 -165.5h56q13 58 53 89t103 31q83 0 138.5 -55.5t55.5 -148.5q0 -122 -78.5 -198.5t-199.5 -76.5q-126 0 -194 78t-68 207zM415 248q0 40 -25 64.5t-61 24.5q-49 0 -79 -35
t-30 -85q0 -39 24 -63.5t62 -24.5q46 0 77.5 35.5t31.5 83.5z" />
    <glyph glyph-name="seven.tnum" 
d="M511 553l21 10l-29 57q-101 -68 -216 -68h-168l32 148h512l-40 -191q-141 -75 -230 -211.5t-114 -297.5h-189q20 183 139 330.5t282 222.5z" />
    <glyph glyph-name="eight.tnum" 
d="M28 160q0 83 62 127t155 46l12 59q-73 3 -113 34.5t-40 91.5q0 83 75.5 140.5t196.5 57.5q113 0 177 -48.5t64 -121.5q0 -147 -202 -159l-13 -59q78 -3 124 -38.5t46 -97.5q0 -88 -81.5 -148.5t-212.5 -60.5q-115 0 -182.5 51t-67.5 126zM452 508q0 33 -23 52.5t-62 19.5
q-43 0 -71.5 -26.5t-28.5 -64.5q0 -34 23.5 -53t64.5 -19q42 0 69.5 26.5t27.5 64.5zM399 224q0 35 -24.5 56t-66.5 21q-46 0 -76.5 -28.5t-30.5 -69.5q0 -36 24.5 -56.5t65.5 -20.5q46 0 77 28.5t31 69.5z" />
    <glyph glyph-name="nine.tnum" 
d="M25 25l33 153q73 -42 173 -42q128 0 195 99q33 49 39 115h-55q-17 -51 -58 -79.5t-97 -28.5q-75 0 -129 56t-54 149q0 119 77 194.5t198 75.5q129 0 199 -81q68 -77 68 -209q0 -195 -107 -320.5t-286 -123.5q-118 0 -196 42zM440 485q0 37 -25 61.5t-61 24.5
q-46 0 -77 -34t-31 -81q0 -40 24.5 -64.5t61.5 -24.5q47 0 77.5 34.5t30.5 83.5z" />
    <glyph glyph-name="zero.subs" horiz-adv-x="439" 
d="M4 53q-2 100 56.5 173.5t138.5 71.5q77 0 122.5 -46t45.5 -125q0 -103 -57 -174t-140 -71q-79 0 -122.5 45t-43.5 126zM237 130q0 70 -38 70q-25 0 -45.5 -46t-20.5 -104q0 -68 36 -68q27 0 47.5 44t20.5 104z" />
    <glyph glyph-name="one.subs" horiz-adv-x="321" 
d="M62 -108l38 176q10 56 55 121h-48q-24 -55 -45.5 -76t-63.5 -21l25 118q92 2 133 79h112l-85 -397h-121z" />
    <glyph glyph-name="two.subs" horiz-adv-x="412" 
d="M-14 -108l25 117q112 46 161 80.5t49 73.5q0 37 -33 37q-40 0 -49 -66l-123 14q8 65 54 107.5t123 42.5q68 0 111.5 -33t43.5 -82q0 -61 -53 -104q-40 -32 -174 -83l-29 -11l19 -42q81 48 155 48h45l-21 -99h-304z" />
    <glyph glyph-name="three.subs" horiz-adv-x="399" 
d="M-19 13l124 16q0 -49 43 -49q19 0 31 10.5t12 26.5q0 30 -36 30h-29l19 89h26q21 0 33.5 10t12.5 27q0 12 -8.5 20t-22.5 8q-35 0 -43 -45l-119 17q13 60 57 92.5t113 32.5q62 0 101.5 -26t39.5 -69q0 -41 -34.5 -65.5t-92.5 -23.5l-8 -39q51 1 81 -19.5t30 -58.5
q0 -52 -46 -83.5t-118 -31.5q-76 0 -119.5 35t-46.5 96z" />
    <glyph glyph-name="four.subs" horiz-adv-x="435" 
d="M-4 13l124 16q0 -49 43 -49q19 0 31 10.5t12 26.5q0 30 -36 30h-29l19 89h26q21 0 33.5 10t12.5 27q0 12 -8.5 20t-22.5 8q-35 0 -43 -45l-119 17q13 60 57 92.5t113 32.5q62 0 101.5 -26t39.5 -69q0 -41 -34.5 -65.5t-92.5 -23.5l-8 -39q51 1 81 -19.5t30 -58.5
q0 -52 -46 -83.5t-118 -31.5q-76 0 -119.5 35t-46.5 96z" />
    <glyph glyph-name="five.subs" horiz-adv-x="396" 
d="M-19 5l120 21q1 -21 13 -33.5t30 -12.5q21 0 34.5 14.5t13.5 37.5q0 17 -10 27.5t-26 10.5q-25 0 -42 -28l-108 20l77 227h271l-21 -99h-178l-4 -13q-15 -44 -58 -81h53q26 53 76 53q42 0 68 -29t26 -79q0 -71 -47.5 -115t-124.5 -44q-74 0 -116 34.5t-47 88.5z" />
    <glyph glyph-name="six.subs" horiz-adv-x="419" 
d="M4 47q0 113 63.5 182t166.5 69q68 0 120 -26l-22 -103q-49 28 -109 28q-111 0 -129 -107h41q8 31 31 49t55 18q43 0 78 -32.5t35 -84.5q0 -69 -48 -113.5t-122 -44.5q-73 0 -116.5 44.5t-43.5 120.5zM209 34q0 18 -10.5 29t-26.5 11q-21 0 -34 -15t-13 -40q0 -17 10 -28
t27 -11q20 0 33.5 15.5t13.5 38.5z" />
    <glyph glyph-name="seven.subs" horiz-adv-x="367" 
d="M226 191l24 12l-24 38q-67 -51 -145 -51h-63l21 99h305l-24 -116q-74 -37 -124 -112t-63 -169h-130q10 96 67 173t156 126z" />
    <glyph glyph-name="eight.subs" horiz-adv-x="410" 
d="M-12 -13q0 43 33 67t94 24l9 42q-43 1 -68.5 18.5t-25.5 47.5q0 47 48 79.5t118 32.5q65 0 105.5 -26.5t40.5 -67.5q0 -39 -30.5 -61t-80.5 -23l-9 -42q44 -2 70 -22.5t26 -53.5q0 -51 -49.5 -85.5t-125.5 -34.5q-71 0 -113 29.5t-42 75.5zM224 174q0 31 -35 31
q-18 0 -29.5 -11.5t-11.5 -29.5q0 -31 35 -31q18 0 29.5 11.5t11.5 29.5zM196 22q0 34 -39 34q-20 0 -32.5 -12.5t-12.5 -32.5q0 -32 38 -32q20 0 33 12t13 31z" />
    <glyph glyph-name="nine.subs" horiz-adv-x="416" 
d="M-8 -92l23 102q54 -26 107 -26q60 0 95 30q30 30 36 76h-41q-21 -64 -87 -64q-44 0 -75.5 31.5t-31.5 84.5q0 70 45.5 113t118.5 43q77 0 119 -48q43 -46 43 -120q0 -112 -61.5 -180t-163.5 -68q-69 0 -127 26zM221 162q0 17 -10 28t-26 11q-19 0 -31.5 -15t-12.5 -38
q0 -17 9.5 -28t24.5 -11q20 0 33 15t13 38z" />
    <glyph glyph-name="zero.dnom" horiz-adv-x="436" 
d="M27 161q-2 100 56.5 173.5t138.5 71.5q77 0 122.5 -46t45.5 -125q0 -103 -57 -174t-140 -71q-79 0 -122.5 45t-43.5 126zM260 238q0 70 -38 70q-25 0 -45.5 -46t-20.5 -104q0 -68 36 -68q27 0 47.5 44t20.5 104z" />
    <glyph glyph-name="one.dnom" horiz-adv-x="320" 
d="M86 0l38 176q10 56 55 121h-48q-24 -55 -45.5 -76t-63.5 -21l25 118q92 2 133 79h112l-85 -397h-121z" />
    <glyph glyph-name="two.dnom" horiz-adv-x="408" 
d="M9 0l25 117q112 46 161 80.5t49 73.5q0 37 -33 37q-40 0 -49 -66l-123 14q8 65 54 107.5t123 42.5q68 0 111.5 -33t43.5 -82q0 -61 -53 -104q-40 -32 -174 -83l-29 -11l19 -42q81 48 155 48h45l-21 -99h-304z" />
    <glyph glyph-name="three.dnom" horiz-adv-x="399" 
d="M4 121l124 16q0 -49 43 -49q19 0 31 10.5t12 26.5q0 30 -36 30h-29l19 89h26q21 0 33.5 10t12.5 27q0 12 -8.5 20t-22.5 8q-35 0 -43 -45l-119 17q13 60 57 92.5t113 32.5q62 0 101.5 -26t39.5 -69q0 -41 -34.5 -65.5t-92.5 -23.5l-8 -39q51 1 81 -19.5t30 -58.5
q0 -52 -46 -83.5t-118 -31.5q-76 0 -119.5 35t-46.5 96z" />
    <glyph glyph-name="four.dnom" horiz-adv-x="433" 
d="M174 0l17 82h-191l25 113l186 202h163l-47 -222h54l-20 -93h-55l-17 -82h-115zM211 175l6 26q9 42 62 87l-27 26l-146 -159l27 -22q36 42 67 42h11z" />
    <glyph glyph-name="five.dnom" horiz-adv-x="396" 
d="M3 113l120 21q1 -21 13 -33.5t30 -12.5q21 0 34.5 14.5t13.5 37.5q0 17 -10 27.5t-26 10.5q-25 0 -42 -28l-108 20l77 227h271l-21 -99h-178l-4 -13q-15 -44 -58 -81h53q26 53 76 53q42 0 68 -29t26 -79q0 -71 -47.5 -115t-124.5 -44q-74 0 -116 34.5t-47 88.5z" />
    <glyph glyph-name="six.dnom" horiz-adv-x="417" 
d="M27 155q0 113 63.5 182t166.5 69q68 0 120 -26l-22 -103q-49 28 -109 28q-111 0 -129 -107h41q8 31 31 49t55 18q43 0 78 -32.5t35 -84.5q0 -69 -48 -113.5t-122 -44.5q-73 0 -116.5 44.5t-43.5 120.5zM232 142q0 18 -10.5 29t-26.5 11q-21 0 -34 -15t-13 -40
q0 -17 10 -28t27 -11q20 0 33.5 15.5t13.5 38.5z" />
    <glyph glyph-name="seven.dnom" horiz-adv-x="367" 
d="M249 299l24 12l-24 38q-67 -51 -145 -51h-63l21 99h305l-24 -116q-74 -37 -124 -112t-63 -169h-130q10 96 67 173t156 126z" />
    <glyph glyph-name="eight.dnom" horiz-adv-x="410" 
d="M12 95q0 43 33 67t94 24l9 42q-43 1 -68.5 18.5t-25.5 47.5q0 47 48 79.5t118 32.5q65 0 105.5 -26.5t40.5 -67.5q0 -39 -30.5 -61t-80.5 -23l-9 -42q44 -2 70 -22.5t26 -53.5q0 -51 -49.5 -85.5t-125.5 -34.5q-71 0 -113 29.5t-42 75.5zM248 282q0 31 -35 31
q-18 0 -29.5 -11.5t-11.5 -29.5q0 -31 35 -31q18 0 29.5 11.5t11.5 29.5zM220 130q0 34 -39 34q-20 0 -32.5 -12.5t-12.5 -32.5q0 -32 38 -32q20 0 33 12t13 31z" />
    <glyph glyph-name="nine.dnom" horiz-adv-x="416" 
d="M16 16l23 102q54 -26 107 -26q60 0 95 30q30 30 36 76h-41q-21 -64 -87 -64q-44 0 -75.5 31.5t-31.5 84.5q0 70 45.5 113t118.5 43q77 0 119 -48q43 -46 43 -120q0 -112 -61.5 -180t-163.5 -68q-68 0 -127 26zM245 270q0 17 -10 28t-26 11q-19 0 -31.5 -15t-12.5 -38
q0 -17 9.5 -28t24.5 -11q20 0 33 15t13 38z" />
    <glyph glyph-name="zero.numr" horiz-adv-x="439" 
d="M91 464q-2 100 56.5 173.5t138.5 71.5q77 0 122.5 -46t45.5 -125q0 -103 -57 -174t-140 -71q-79 0 -122.5 45t-43.5 126zM324 541q0 70 -38 70q-25 0 -45.5 -46t-20.5 -104q0 -68 36 -68q27 0 47.5 44t20.5 104z" />
    <glyph glyph-name="one.numr" horiz-adv-x="320" 
d="M150 303l38 176q10 56 55 121h-48q-24 -55 -45.5 -76t-63.5 -21l25 118q92 2 133 79h112l-85 -397h-121z" />
    <glyph glyph-name="two.numr" horiz-adv-x="412" 
d="M73 303l25 117q112 46 161 80.5t49 73.5q0 37 -33 37q-40 0 -49 -66l-123 14q8 65 54 107.5t123 42.5q68 0 111.5 -33t43.5 -82q0 -61 -53 -104q-40 -32 -174 -83l-29 -11l19 -42q81 48 155 48h45l-21 -99h-304z" />
    <glyph glyph-name="three.numr" horiz-adv-x="405" 
d="M68 424l124 16q0 -49 43 -49q19 0 31 10.5t12 26.5q0 30 -36 30h-29l19 89h26q21 0 33.5 10t12.5 27q0 12 -8.5 20t-22.5 8q-35 0 -43 -45l-119 17q13 60 57 92.5t113 32.5q62 0 101.5 -26t39.5 -69q0 -41 -34.5 -65.5t-92.5 -23.5l-8 -39q51 1 81 -19.5t30 -58.5
q0 -52 -46 -83.5t-118 -31.5q-76 0 -119.5 35t-46.5 96z" />
    <glyph glyph-name="four.numr" horiz-adv-x="435" 
d="M239 303l17 82h-191l25 113l186 202h163l-47 -222h54l-20 -93h-55l-17 -82h-115zM276 478l6 26q9 42 62 87l-27 26l-146 -159l27 -22q36 42 67 42h11z" />
    <glyph glyph-name="five.numr" horiz-adv-x="402" 
d="M67 416l120 21q1 -21 13 -33.5t30 -12.5q21 0 34.5 14.5t13.5 37.5q0 17 -10 27.5t-26 10.5q-25 0 -42 -28l-108 20l77 227h271l-21 -99h-178l-4 -13q-15 -44 -58 -81h53q26 53 76 53q42 0 68 -29t26 -79q0 -71 -47.5 -115t-124.5 -44q-74 0 -116 34.5t-47 88.5z" />
    <glyph glyph-name="six.numr" horiz-adv-x="419" 
d="M91 458q0 113 63.5 182t166.5 69q68 0 120 -26l-22 -103q-49 28 -109 28q-111 0 -129 -107h41q8 31 31 49t55 18q43 0 78 -32.5t35 -84.5q0 -69 -48 -113.5t-122 -44.5q-73 0 -116.5 44.5t-43.5 120.5zM296 445q0 18 -10.5 29t-26.5 11q-21 0 -34 -15t-13 -40
q0 -17 10 -28t27 -11q20 0 33.5 15.5t13.5 38.5z" />
    <glyph glyph-name="seven.numr" horiz-adv-x="367" 
d="M313 602l24 12l-24 38q-67 -51 -145 -51h-63l21 99h305l-24 -116q-74 -37 -124 -112t-63 -169h-130q10 96 67 173t156 126z" />
    <glyph glyph-name="eight.numr" horiz-adv-x="411" 
d="M76 398q0 43 33 67t94 24l9 42q-43 1 -68.5 18.5t-25.5 47.5q0 47 48 79.5t118 32.5q65 0 105.5 -26.5t40.5 -67.5q0 -39 -30.5 -61t-80.5 -23l-9 -42q44 -2 70 -22.5t26 -53.5q0 -51 -49.5 -85.5t-125.5 -34.5q-71 0 -113 29.5t-42 75.5zM312 585q0 31 -35 31
q-18 0 -29.5 -11.5t-11.5 -29.5q0 -31 35 -31q18 0 29.5 11.5t11.5 29.5zM284 433q0 34 -39 34q-20 0 -32.5 -12.5t-12.5 -32.5q0 -32 38 -32q20 0 33 12t13 31z" />
    <glyph glyph-name="nine.numr" horiz-adv-x="416" 
d="M80 319l23 102q54 -26 107 -26q60 0 95 30q30 30 36 76h-41q-21 -64 -87 -64q-44 0 -75.5 31.5t-31.5 84.5q0 70 45.5 113t118.5 43q77 0 119 -48q43 -46 43 -120q0 -112 -61.5 -180t-163.5 -68q-69 0 -127 26zM309 573q0 17 -10 28t-26 11q-19 0 -31.5 -15t-12.5 -38
q0 -17 9.5 -28t24.5 -11q20 0 33 15t13 38z" />
    <glyph glyph-name="comma.ss04" horiz-adv-x="299" 
d="M-39 -175l81 95q39 45 90 70l-25 44q-45 -34 -77 -34h-23l37 177h191l-39 -183l-141 -169h-94z" />
    <glyph glyph-name="semicolon.ss04" horiz-adv-x="309" 
d="M-39 -175l81 95q39 45 90 70l-25 44q-45 -34 -77 -34h-23l37 177h191l-39 -183l-141 -169h-94zM78 334l38 177h191l-38 -177h-191z" />
    <glyph glyph-name="exclamdown.case" horiz-adv-x="319" 
d="M351 700l-37 -177h-193l38 177h192zM245 441l-10 -282l-34 -160h-188l34 160l108 282h90z" />
    <glyph glyph-name="questiondown.case" horiz-adv-x="586" 
d="M482 700l-37 -177h-191l37 177h191zM293 268q-47 -26 -66 -44.5t-19 -42.5q0 -29 19 -44.5t50 -15.5q41 0 65.5 28t28.5 84l178 -28q-10 -97 -82.5 -159.5t-200.5 -62.5q-118 0 -182 49.5t-64 126.5q0 63 35 101.5t116 84.5q45 23 63 43.5t24 52.5h159q-16 -74 -36 -103
t-88 -70z" />
    <glyph glyph-name="period.tnum" 
d="M147 0l46 212h221l-45 -212h-222z" />
    <glyph glyph-name="comma.tnum" 
d="M96 -210l172 210h-119l44 212h221l-46 -219l-164 -203h-108z" />
    <glyph glyph-name="colon.tnum" 
d="M229 384l45 212h221l-45 -212h-221zM147 0l46 212h221l-45 -212h-222z" />
    <glyph glyph-name="semicolon.tnum" 
d="M230 384l45 212h221l-45 -212h-221zM95 -210l173 210h-119l45 212h221l-47 -219l-165 -203h-108z" />
    <glyph glyph-name="semicolon.tnum_ss04" 
d="M233 384l45 212h220l-44 -212h-221zM98 -210l95 114q26 32 47 49t57 35l-29 53q-49 -41 -89 -41h-27l45 212h221l-46 -219l-166 -203h-108z" />
    <glyph glyph-name="numbersign.tnum" 
d="M2 0l15 38q25 59 132 140l-39 48q-43 -41 -62.5 -54.5t-37.5 -13.5h-10l28 131h93l50 123h-83l30 139h111l61 149h140l-13 -30q-26 -65 -129 -140l39 -48q48 45 67 57t50 12h14l61 149h140l-12 -31q-23 -60 -131 -139l39 -48q43 41 63 55t37 14h8l-29 -139h-93l-51 -123
h83l-28 -131h-108l-65 -158h-142l16 38q23 63 129 140l-39 48q-49 -45 -67 -56.5t-49 -11.5h-12l-66 -158h-140zM261 289h89l50 123h-88z" />
    <glyph glyph-name="parenleft.case" horiz-adv-x="371" 
d="M47 197q0 156 49 299q50 145 143 234q94 89 221 85l-30 -145q-70 -3 -124 -77q-54 -76 -82 -182q-29 -110 -29 -211q0 -150 99 -166l-30 -144q-217 29 -217 307z" />
    <glyph glyph-name="parenright.case" horiz-adv-x="371" 
d="M367 508q0 -152 -50 -299q-50 -146 -143 -233q-94 -89 -221 -85l31 145q69 3 123 76q55 74 83 182q29 110 29 212q0 72 -25 115t-75 50l30 145q218 -30 218 -308z" />
    <glyph glyph-name="braceleft.case" horiz-adv-x="392" 
d="M67 38q0 26 6 53l26 120q4 17 4 31q0 26 -16 37.5t-51 11.5l26 123q44 0 64.5 13.5t30.5 55.5l36 172q18 83 59.5 116.5t129.5 33.5h99l-25 -118h-43q-33 0 -49.5 -14t-24.5 -50l-28 -132q-13 -64 -50.5 -86t-112.5 -22l-13 -58q119 0 119 -89q0 -13 -5 -41l-25 -115
q-3 -14 -3 -23q0 -21 12 -30t39 -9h42l-25 -118h-74q-71 0 -109.5 37t-38.5 101z" />
    <glyph glyph-name="braceright.case" horiz-adv-x="392" 
d="M368 667q0 -25 -6 -53l-26 -119q-4 -17 -4 -32q0 -26 16 -37t50 -11l-25 -123q-44 0 -64.5 -14t-30.5 -55l-36 -173q-18 -82 -60 -116t-129 -34h-99l25 118h43q33 0 49.5 14t24.5 50l28 132q13 64 50 85.5t113 23.5l13 57q-119 0 -119 89q0 13 5 41l25 115q3 13 3 23
q0 40 -51 40h-42l25 117h74q71 0 109.5 -37t38.5 -101z" />
    <glyph glyph-name="bracketleft.case" horiz-adv-x="382" 
d="M1 -100l192 905h280l-27 -125h-123l-140 -655h124l-27 -125h-279z" />
    <glyph glyph-name="bracketright.case" horiz-adv-x="382" 
d="M424 805l-192 -905h-279l26 125h124l139 656h-124l27 124h279z" />
    <glyph glyph-name="angleleft.case" horiz-adv-x="394" 
d="M478 721l-282 -390l116 -387l-146 -54l-132 462l323 463z" />
    <glyph glyph-name="angleright.case" horiz-adv-x="393" 
d="M271 816l132 -462l-323 -463l-121 94l282 390l-116 388z" />
    <glyph glyph-name="uni3010.case" horiz-adv-x="409" 
d="M1 -100l193 905h343q-229 -207 -281 -451q-14 -70 -14 -131q0 -171 103 -323h-344z" />
    <glyph glyph-name="uni3011.case" horiz-adv-x="408" 
d="M451 805l-192 -905h-343q117 108 185.5 218t94.5 233q14 70 14 131q0 172 -103 323h344z" />
    <glyph glyph-name="uni300C.case" horiz-adv-x="401" 
d="M87 352l95 453h320l-29 -132h-163l-68 -321h-155z" />
    <glyph glyph-name="uni300D.case" horiz-adv-x="397" 
d="M356 354l-95 -453h-320l29 132h163l68 321h155z" />
    <glyph glyph-name="uni300A.case" horiz-adv-x="692" 
d="M478 721l-282 -389l116 -388l-146 -54l-132 463l323 462zM795 721l-316 -423l111 -354l-147 -54l-127 428l358 497z" />
    <glyph glyph-name="uni300B.case" horiz-adv-x="691" 
d="M292 816l127 -427l-358 -498l-121 94l316 424l-111 354zM569 816l132 -462l-323 -463l-121 94l283 390l-117 388z" />
    <glyph glyph-name="uni3014.case" horiz-adv-x="375" 
d="M260 529l-78 -375l127 -179l-121 -85l-167 227l99 473l254 225l94 -107z" />
    <glyph glyph-name="uni3015.case" horiz-adv-x="376" 
d="M231 815l167 -227l-99 -472l-254 -226l-93 108l207 179l78 374l-127 179z" />
    <glyph glyph-name="uni300E.case" horiz-adv-x="586" 
d="M69 223l123 582h474l-62 -294h-163l-60 -288h-312zM216 338h78l59 275h150l16 77h-229z" />
    <glyph glyph-name="uni300F.case" horiz-adv-x="577" 
d="M557 481l-123 -581h-475l63 294h163l60 287h312zM410 367h-78l-59 -275h-150l-17 -77h229z" />
    <glyph glyph-name="hyphen.case" horiz-adv-x="499" 
d="M68 298l31 147h381l-31 -147h-381z" />
    <glyph glyph-name="uni00AD.case" horiz-adv-x="499" 
d="M68 298l31 147h381l-31 -147h-381z" />
    <glyph glyph-name="endash.case" horiz-adv-x="668" 
d="M70 304l29 133h548l-28 -133h-549z" />
    <glyph glyph-name="emdash.case" horiz-adv-x="902" 
d="M70 306l28 131h783l-28 -131h-783z" />
    <glyph glyph-name="quotesinglbase.ss04" horiz-adv-x="287" 
d="M-38 -167l78 91q21 26 39 40t46 27l-24 41q-43 -32 -74 -32h-22l36 168h182l-37 -173l-135 -162h-89z" />
    <glyph glyph-name="quotedblbase.ss04" horiz-adv-x="522" 
d="M-38 -167l78 91q21 26 39 40t46 27l-24 41q-43 -32 -74 -32h-22l36 168h182l-37 -173l-135 -162h-89zM198 -167l78 91q21 26 39 40t46 27l-24 41q-43 -32 -74 -32h-22l36 168h182l-37 -173l-135 -162h-89z" />
    <glyph glyph-name="quotedblleft.ss04" horiz-adv-x="516" 
d="M330 701l-77 -91q-35 -41 -85 -67l24 -41q41 32 73 32h22l-36 -168h-181l37 174l135 161h88zM566 701l-77 -91q-35 -41 -85 -67l24 -41q41 32 73 32h22l-36 -168h-181l37 174l135 161h88z" />
    <glyph glyph-name="quotedblright.ss04" horiz-adv-x="509" 
d="M70 365l78 91q21 26 39 40t46 27l-24 41q-43 -32 -74 -32h-22l36 168h182l-37 -173l-135 -162h-89zM306 365l78 91q21 26 39 40t46 27l-24 41q-43 -32 -74 -32h-22l36 168h182l-37 -173l-135 -162h-89z" />
    <glyph glyph-name="quoteleft.ss04" horiz-adv-x="280" 
d="M330 701l-77 -91q-35 -41 -85 -67l24 -41q41 32 73 32h22l-36 -168h-181l37 174l135 161h88z" />
    <glyph glyph-name="quoteright.ss04" horiz-adv-x="273" 
d="M70 365l78 91q21 26 39 40t46 27l-24 41q-43 -32 -74 -32h-22l36 168h182l-37 -173l-135 -162h-89z" />
    <glyph glyph-name="guillemotleft.case" horiz-adv-x="661" 
d="M420 582l-204 -261l89 -225h-159l-93 243l185 243h182zM703 582l-231 -292l78 -194h-159l-83 210l213 276h182z" />
    <glyph glyph-name="guillemotright.case" horiz-adv-x="660" 
d="M307 582l83 -210l-213 -276h-182l231 292l-79 194h160zM552 582l93 -243l-185 -243h-182l203 261l-88 225h159z" />
    <glyph glyph-name="guilsinglleft.case" horiz-adv-x="396" 
d="M431 582l-216 -261l88 -225h-159l-91 244l196 242h182z" />
    <glyph glyph-name="guilsinglright.case" horiz-adv-x="395" 
d="M289 582l91 -244l-196 -242h-182l215 261l-87 225h159z" />
    <glyph glyph-name="space.tnum" 
 />
    <glyph glyph-name="_525" horiz-adv-x="613" 
d="M407 201l159 -49q-73 -161 -260 -169l-21 -98h-95l23 107q-82 18 -127.5 75.5t-45.5 144.5q-2 121 80 211t204 94l23 107h94l-24 -115q71 -16 116.5 -60.5t55.5 -105.5l-166 -37q-7 40 -30.5 63.5t-58.5 23.5q-55 0 -87.5 -56t-32.5 -126q0 -48 22.5 -75t62.5 -27
q70 0 108 92z" />
    <glyph glyph-name="_528" horiz-adv-x="652" 
d="M198 -92l20 90q-88 20 -139 73t-60 130l174 43q6 -50 41.5 -83.5t89.5 -33.5q48 0 76.5 20.5t28.5 54.5q0 51 -75 69l-66 17q-101 23 -146 69.5t-45 133.5q0 103 76.5 165t200.5 64l17 79h105l-21 -91q77 -20 124 -69.5t57 -117.5l-175 -40q-10 47 -40 73.5t-75 26.5
q-42 0 -67.5 -20.5t-25.5 -50.5q0 -28 17 -43.5t56 -25.5l72 -19q193 -44 193 -200q0 -111 -77 -173t-214 -62l-17 -79h-105z" />
    <glyph glyph-name="_536" horiz-adv-x="1191" 
d="M1189 400h-137l-27 -59h113l-19 -91h-135l-113 -250h-210l-8 255q1 87 12 159q10 68 32 165h-66q-33 -166 -98 -324l-117 -255h-200l-8 250h-131l19 91h109l-2 59h-141l20 92h118l-8 208h183l-5 -214q-3 -124 -51 -349h65q35 179 82 296l117 267h208l2 -267
q-2 -121 -42 -296h66q45 227 95 349l88 214h187l-94 -208h116z" />
    <glyph glyph-name="uni20BF.tnum" 
d="M433 392l-13 -60q188 -5 188 -138q0 -87 -73 -139.5t-187 -54.5l-23 -104h-103l23 104h-47l-23 -104h-103l23 104h-107l150 700h107l21 95h103l-21 -95h47l21 95h102l-22 -101q67 -13 105.5 -50.5t38.5 -91.5q0 -85 -58 -122q-55 -36 -149 -38zM462 499q0 58 -80 58h-99
l-29 -133h114q45 0 69.5 20t24.5 55zM339 293h-112l-32 -149h126q51 0 79.5 22.5t28.5 61.5q0 32 -24.5 48.5t-65.5 16.5z" />
    <glyph glyph-name="cent.tnum" 
d="M197 -115l22 106q-79 20 -122.5 77.5t-43.5 143.5q-2 120 78 211t194 95l23 106h94l-23 -115q68 -18 111 -61.5t53 -104.5l-147 -35q-9 48 -42 69l-26 -127q-20 -93 -72 -132l31 -41q62 39 90 123l145 -48q-70 -162 -250 -169l-20 -98h-95zM247 128l24 120q23 97 73 136
l-31 40q-52 -30 -79.5 -84t-27.5 -117q0 -69 41 -95z" />
    <glyph glyph-name="currency.tnum" 
d="M97 75l-82 104l95 78q-14 36 -14 76q0 83 52 148l-59 77l104 86l62 -79q48 21 101 21q62 0 106 -25l100 78l85 -104l-97 -80q15 -37 15 -78q0 -74 -48 -141l63 -77l-105 -88l-63 80q-54 -24 -106 -24q-62 0 -110 30zM419 369q0 34 -21 57t-56 23q-42 0 -71 -31.5
t-29 -72.5q0 -33 21.5 -56.5t56.5 -23.5q41 0 70 31.5t29 72.5z" />
    <glyph glyph-name="dollar.tnum" 
d="M184 -92l20 91q-84 20 -132 72.5t-55 129.5l159 42q2 -32 18 -59t41 -39l32 146l-17 5q-82 26 -119 68t-37 124q0 104 73.5 167t192.5 65l18 79h101l-21 -91q74 -20 119 -69t54 -116l-154 -39q-12 63 -49 83l-32 -143l19 -6q167 -50 167 -194q0 -112 -74 -174.5
t-206 -62.5l-17 -79h-101zM302 451l7 28q13 70 67 105l-27 45q-45 -18 -70 -48t-25 -64q0 -51 48 -66zM417 196q0 48 -54 68l-6 -26q-17 -75 -67 -109l28 -45q46 18 72.5 47.5t26.5 64.5z" />
    <glyph glyph-name="Euro.tnum" 
d="M94 218h-71l21 96h50q4 34 10 61h-47l20 97h51q36 110 109 177.5t169 67.5q95 0 157 -59.5t71 -170.5l-148 -36q-11 126 -103 126q-80 0 -143 -111l38 -31q33 37 75 37h40l-20 -97h-124q-8 -28 -10 -61h120l-20 -96h-38q-40 0 -62 33l-40 -27q12 -48 42 -75.5t70 -27.5
q94 0 140 142l142 -54q-36 -106 -107 -166t-162 -60q-98 0 -159.5 61.5t-70.5 173.5z" />
    <glyph glyph-name="uni20BA.tnum" 
d="M58 0l12 56q14 67 92 142l-46 41q-43 -64 -85 -86l-30 -13l28 129l96 45l14 62l-97 -45l29 129l95 46l42 194h174l-2 -9q-11 -54 -74 -116l48 -39q46 77 95 100l115 54l-26 -128l-206 -95l-13 -63l204 95l-27 -129l-205 -95l-24 -115h23q57 0 109 40t88 113l139 -103
q-54 -104 -142 -157t-227 -53h-199z" />
    <glyph glyph-name="uni20BD.tnum" 
d="M640 510q0 -107 -70.5 -169.5t-182.5 -62.5h-118l-12 -53h189l-24 -113h-189l-23 -112h-159l24 112h-64l25 113h63l11 53h-64l27 123h64l64 299h224q103 0 159 -51t56 -139zM401 559h-73l-34 -158h83q43 0 70 26t27 66q0 29 -20 47.5t-53 18.5z" />
    <glyph glyph-name="uni20B9.tnum" 
d="M261 0l-5 157q-2 58 -21.5 78.5t-75.5 20.5h-107l29 138h145q53 0 83.5 25t30.5 67q0 79 -90 79h-132l28 135h531l-25 -119h-70q-78 0 -139 45l-35 -52q37 -15 57 -46t21 -71h139l-23 -109h-118h-196l-12 -56q84 0 124 -29t44 -97l14 -166h-197z" />
    <glyph glyph-name="sterling.tnum" 
d="M397 147h160l-32 -147h-518l35 154q141 49 150 135h-122l22 103h71q-28 59 -28 106q0 99 72.5 159t183.5 60q112 0 173.5 -53.5t61.5 -147.5l-174 -37v14q0 37 -17.5 59.5t-51.5 22.5q-38 0 -60 -25.5t-22 -67.5q0 -39 21 -90h153l-21 -103h-112q-8 -50 -52 -84.5
t-128 -65.5l29 -58q85 66 206 66z" />
    <glyph glyph-name="uni20A9.tnum" 
d="M649 700l-64 -214h58l-21 -101h-67l-20 -66h72l-21 -101h-81l-65 -218h-152l13 71l9 53l35 189h-49l-45 -187l-13 -56l-17 -70h-153l30 218h-77l21 101h70l9 66h-65l21 101h57l30 214h124l-15 -82q-14 -82 -101 -413l-12 -45h51l57 208l22 80l16 58h112l-10 -68
q-13 -96 -46 -278h53l26 148q35 204 62 316l19 76h127z" />
    <glyph glyph-name="yen.tnum" 
d="M736 700l-243 -296h102l-21 -103h-161l-12 -61h160l-20 -98h-159l-28 -142h-182l28 142h-166l20 98h165l12 61h-164l21 103h106l-123 296h190l39 -115q17 -51 17 -104q0 -38 -15 -123h61q25 143 89 233l77 109h207z" />
    <glyph glyph-name="_579" 
d="M167 88l-92 93l163 165l-164 166l93 93l164 -166l164 165l91 -92l-164 -165l164 -166l-92 -93l-164 165z" />
    <glyph glyph-name="plus.tnum" 
d="M263 91v196h-193v134h193v196h139v-196h193v-134h-193v-196h-139z" />
    <glyph glyph-name="minus.tnum" 
d="M88 286v134h482v-134h-482z" />
    <glyph glyph-name="multiply.tnum" 
d="M167 93l-91 92l163 162l-164 163l92 92l165 -164l163 162l91 -90l-163 -162l163 -163l-92 -92l-163 163z" />
    <glyph glyph-name="divide.tnum" 
d="M253 478v147h160v-147h-160zM83 288v130h498v-130h-498zM253 81v148h160v-148h-160z" />
    <glyph glyph-name="equal.tnum" 
d="M87 401v134h476v-134h-476zM87 165v133h476v-133h-476z" />
    <glyph glyph-name="notequal.tnum" 
d="M124 85l41 80h-79v133h148l23 44q20 37 71 80l-36 45q-51 -66 -127 -66h-79v134h270l43 83h121l-43 -83h86v-134h-156l-22 -43q-9 -20 -23.5 -36t-47.5 -45l36 -45q52 66 124 66h89v-133h-278l-41 -80h-120z" />
    <glyph glyph-name="greater.tnum" 
d="M108 73v150l152 52q119 38 238 42v57q-111 1 -236 43l-154 51v153l481 -165v-218z" />
    <glyph glyph-name="less.tnum" 
d="M554 621v-150l-153 -52q-121 -39 -237 -43v-56q114 -4 236 -43l154 -51v-153l-482 165v218z" />
    <glyph glyph-name="greaterequal.tnum" 
d="M96 228v137l123 23q89 17 266 18v56q-169 0 -266 17l-123 21v144l476 -101v-207zM96 76v131h476v-131h-476z" />
    <glyph glyph-name="lessequal.tnum" 
d="M560 229l-477 100v207l477 108v-137l-122 -23q-88 -16 -267 -18v-56q153 0 267 -16l122 -22v-143zM83 76v131h477v-131h-477z" />
    <glyph glyph-name="plusminus.tnum" 
d="M259 252v114h-174v123h174v127h125v-127h174v-123h-174v-114h-125zM78 76v131h476v-131h-476z" />
    <glyph glyph-name="approxequal.tnum" 
d="M332 382l-38 21q-32 20 -58 20q-51 0 -81 -58l-101 74q25 61 70 94t103 33q52 0 105 -31l35 -21q32 -18 56 -18q50 0 82 61l100 -77q-24 -60 -69.5 -93t-103.5 -33q-54 0 -100 28zM332 146l-38 21q-32 20 -58 20q-51 0 -81 -58l-101 74q25 61 70 94t103 33q50 0 105 -31
l35 -22q33 -17 56 -17q50 0 82 60l100 -75q-24 -60 -70 -94t-103 -34q-51 0 -100 29z" />
    <glyph glyph-name="logicalnot.tnum" 
d="M423 150v140h-348v136h473v-276h-125z" />
    <glyph glyph-name="percent.tnum" 
d="M58 528q0 76 44 132.5t115 56.5q65 0 99 -36t34 -103q0 -77 -43.5 -133t-113.5 -56q-65 0 -100 35.5t-35 103.5zM16 0l525 700h105l-524 -700h-106zM254 583q0 53 -38 53q-31 0 -46.5 -34.5t-15.5 -80.5q0 -52 38 -52q29 0 45.5 35t16.5 79zM311 122q0 76 44 133t115 57
q64 0 98.5 -36.5t34.5 -102.5q0 -77 -43.5 -133.5t-113.5 -56.5q-64 0 -99.5 35.5t-35.5 103.5zM507 177q0 54 -38 54q-31 0 -46.5 -35t-15.5 -80q0 -53 38 -53q29 0 45.5 35t16.5 79z" />
    <glyph glyph-name="perthousand.tnum" 
d="M67 505q-2 79 42 146.5t105 65.5q51 0 77.5 -30t26.5 -85q0 -80 -44 -146.5t-105 -66.5q-102 0 -102 116zM493 700h86l-533 -700h-87zM154 500q0 -30 22 -30q21 -2 37 47.5t16 88.5q0 30 -21 30q-23 2 -38.5 -46.5t-15.5 -89.5zM595 197q0 -86 -37.5 -150t-98.5 -64
q-48 0 -69 38q-35 -38 -75 -38q-86 0 -86 114q0 84 35.5 149t93.5 65q47 0 72 -37q31 37 70 37q46 0 70.5 -31t24.5 -83zM379 203q0 27 -18 27q-20 3 -34.5 -47.5t-13.5 -91.5q0 -27 19 -27q18 -3 33 49t14 90zM511 203q0 27 -19 27t-34 -48t-15 -90q0 -28 19 -28
q19 -3 34 48t15 91z" />
    <glyph glyph-name="at.case" horiz-adv-x="963" 
d="M51 294q-1 93 35.5 179.5t101 152t157.5 104.5t198 37q121 1 219 -40t156.5 -123.5t56.5 -192.5q2 -117 -76.5 -203.5t-193.5 -84.5q-51 0 -77.5 23.5t-26.5 64.5v13h-42q-18 -46 -52 -73.5t-78 -27.5q-60 0 -95 49t-35 127q-1 93 51 169.5t128 74.5q96 0 111 -101h48
q-9 28 -9 55q0 17 3 34h116l-52 -250q-2 -10 -2 -16q0 -28 32 -28q49 0 80 53t31 119q0 112 -82 175t-214 63q-159 0 -252.5 -101t-93.5 -252q0 -126 85.5 -198t222.5 -72q142 0 263 64l49 -108q-133 -76 -311 -76q-196 -2 -325 102.5t-127 287.5zM582 373q0 71 -59 71
q-37 0 -60 -42.5t-23 -92.5q0 -73 54 -73q37 0 62.5 44t25.5 93z" />
    <glyph glyph-name="registered.case" horiz-adv-x="907" 
d="M65 351q-2 109 53 202.5t150.5 148t205.5 52.5q109 2 205 -52.5t152 -148.5t54 -202q2 -108 -54 -203t-152 -149.5t-205 -52.5q-82 -2 -158.5 30.5t-132 87t-87.5 130.5t-31 157zM771 351q2 125 -84 213t-212 86q-126 2 -212 -86t-84 -213q-2 -124 84.5 -213.5
t211.5 -86.5q125 -3 211.5 86.5t84.5 213.5zM312 148v414h211q58 0 95.5 -27.5t37.5 -72.5q0 -84 -115 -95v-38q47 0 69 -20t29 -66l15 -95h-110l-11 92q-6 41 -22 58t-50 17h-45v-167h-104zM416 389h70q61 0 61 49q0 48 -62 48h-69v-97z" />
    <glyph glyph-name="section.tnum" 
d="M34 -32l150 32q8 -78 75 -78q32 0 51 16.5t19 42.5q0 40 -60 64l-82 32q-77 30 -110 65.5t-33 88.5q0 55 40.5 91.5t116.5 37.5l10 51q-76 42 -76 123q0 71 64 127t161 56q99 0 156 -49.5t62 -125.5l-148 -33q-8 75 -72 75q-30 0 -48.5 -17t-18.5 -43q0 -41 54 -61
l94 -37q73 -28 106 -61.5t33 -80.5q0 -128 -159 -138l-10 -51q77 -40 77 -124q0 -75 -60.5 -128t-167.5 -53q-105 0 -163 50t-61 128zM420 235q0 17 -11.5 29.5t-38.5 24.5l-74 33l-35 15q-60 -25 -60 -62q0 -38 49 -58l73 -31l19 -8l19 -8q59 27 59 65z" />
    <glyph glyph-name="degree.tnum" 
d="M177 599q0 84 58 141t146 57t146 -57t58 -141q0 -85 -57.5 -141t-147.5 -56q-89 0 -146 56.5t-57 140.5zM456 601q0 34 -21.5 56t-53.5 22q-31 0 -53 -22t-22 -56q0 -37 21.5 -59t53.5 -22t53.5 22.5t21.5 58.5z" />
    <glyph glyph-name="_645" horiz-adv-x="0" 
d="M-183 405l128 147h-88l32 149h164l-34 -153l-121 -143h-81z" />
    <glyph glyph-name="_650" horiz-adv-x="277" 
d="M192 832l82 123h176l-142 -123h-116zM90 666q0 56 40.5 96.5t103.5 40.5q56 0 90.5 -33t34.5 -86q0 -57 -39.5 -96t-102.5 -39q-55 0 -91 32.5t-36 84.5zM271 682q0 17 -12 28.5t-30 11.5q-21 0 -35 -14.5t-14 -37.5q0 -18 12 -29.5t30 -11.5q21 0 35 14.5t14 38.5z" />
    <glyph glyph-name="uni0327.ss04" horiz-adv-x="0" 
d="M-350 -183l63 65q28 -31 63 -31q40 0 40 25q0 9 -7.5 15.5t-19.5 6.5q-17 0 -26 -4l-25 47l97 80l69 -19l-24 -18q-25 -19 -84 -30l10 -35q21 10 46 10q31 0 51.5 -18.5t20.5 -48.5q0 -44 -37.5 -70.5t-100.5 -26.5q-90 0 -136 52z" />
    <glyph glyph-name="cedilla.ss04" horiz-adv-x="375" 
d="M-18 -183l61 67q33 -29 64 -29q41 0 41 23q0 20 -30 20q-12 0 -24 -2l-25 52l124 74l61 -22l-41 -24q-23 -14 -45 -24q11 -2 16 -5q28 -6 48.5 -25t20.5 -50q0 -51 -36.5 -79t-104.5 -28q-82 0 -130 52z" />
    <glyph glyph-name="_673" horiz-adv-x="0" 
d="M-345 566l32 132h169l-31 -132h-170zM-89 566l31 132h169l-31 -132h-169z" />
    <glyph glyph-name="_674" horiz-adv-x="0" 
d="M-115 563l31 147h166l-31 -147h-166z" />
    <glyph glyph-name="_675" horiz-adv-x="0" 
d="M-75 566l-98 154h198l18 -154h-118z" />
    <glyph glyph-name="_676" horiz-adv-x="0" 
d="M-168 566l92 154h197l-160 -154h-129z" />
    <glyph glyph-name="_677" horiz-adv-x="0" 
d="M-402 566l90 154h199l-160 -154h-129zM-175 566l92 154h197l-159 -154h-130z" />
    <glyph glyph-name="_678" horiz-adv-x="0" 
d="M-412 566l156 138h216l90 -138h-151l-57 72l-92 -72h-162z" />
    <glyph glyph-name="_679" horiz-adv-x="0" 
d="M43 704l-155 -138h-216l-90 138h150l58 -73l92 73h161z" />
    <glyph glyph-name="_680" horiz-adv-x="0" 
d="M-334 691v13h120q-2 -27 16.5 -44.5t53.5 -17.5q69 0 96 62h124q-50 -156 -226 -156q-86 0 -135 40t-49 103z" />
    <glyph glyph-name="_681" horiz-adv-x="0" 
d="M-179 668q0 61 44 105t112 44q59 0 97.5 -36t38.5 -93q0 -61 -43.5 -104t-111.5 -43q-61 0 -99 35t-38 92zM16 686q0 19 -12.5 31t-31.5 12q-24 0 -39.5 -15.5t-15.5 -40.5q0 -20 13.5 -32.5t33.5 -12.5q23 0 37.5 16t14.5 42z" />
    <glyph glyph-name="_682" horiz-adv-x="276" 
d="M165 823l82 123h176l-142 -123h-116zM63 657q0 56 40.5 96.5t103.5 40.5q56 0 90.5 -33t34.5 -86q0 -57 -39.5 -96t-102.5 -39q-55 0 -91 32.5t-36 84.5zM244 673q0 17 -12 28.5t-30 11.5q-21 0 -35 -14.5t-14 -37.5q0 -18 12 -29.5t30 -11.5q21 0 35 14.5t14 38.5z" />
    <glyph glyph-name="_683" horiz-adv-x="0" 
d="M-148 583l-25 13q-37 17 -46 17q-40 0 -51 -48h-120q9 70 51.5 109t108.5 39q50 0 99 -27l24 -13q33 -17 47 -17q39 0 51 48h119q-9 -72 -51.5 -110t-108.5 -38q-49 0 -98 27z" />
    <glyph glyph-name="_684" horiz-adv-x="0" 
d="M-287 573l25 105h366l-23 -105h-368z" />
    <glyph glyph-name="_685" horiz-adv-x="0" 
d="M-264 -205l31 147h166l-31 -147h-166z" />
    <glyph glyph-name="NULL" horiz-adv-x="0" 
 />
    </font>
</defs>
</svg>
