<?xml version="1.0" standalone="no"?>
<!DOCTYPE svg PUBLIC "-//W3C//DTD SVG 1.1//EN" "http://www.w3.org/Graphics/SVG/1.1/DTD/svg11.dtd" >
<svg xmlns="http://www.w3.org/2000/svg" xmlns:xlink="http://www.w3.org/1999/xlink" version="1.1">
<metadata>
Created by FontForge 20170731 at Tue Mar 12 05:31:05 2019
 By Aleksey,,,
Copyright 2019 Dinamo (Johannes Breyer, Fabian Harb) &#38; Erkin Karamemet. All rights reserved.
</metadata>
<defs>
<font id="WhyteInktrap-Italic" horiz-adv-x="620" >
  <font-face 
    font-family="Whyte Inktrap"
    font-weight="400"
    font-style="italic"
    font-stretch="normal"
    units-per-em="1000"
    panose-1="2 11 0 4 5 1 1 2 1 3"
    ascent="800"
    descent="-200"
    x-height="496"
    cap-height="700"
    bbox="-403 -313 1264 1130"
    underline-thickness="24"
    underline-position="-97"
    slope="-12"
    unicode-range="U+000D-FB02"
  />
<missing-glyph horiz-adv-x="696" 
d="M49 0l149 701h493l-149 -701h-493zM148 79h329l116 543h-330z" />
    <glyph glyph-name="fi" unicode="fi" horiz-adv-x="608" 
d="M581 496l-106 -496h-95l89 418h-214l-89 -418h-95l91 418h-107l17 78h106l15 73q18 78 46.5 104.5t99.5 26.5h121l-17 -81h-96q-26 0 -40 -11.5t-19 -37.5l-16 -74h309zM527 700h99l-23 -112h-100z" />
    <glyph glyph-name="fl" unicode="fl" horiz-adv-x="625" 
d="M640 700l-149 -700h-95l132 619h-181q-26 0 -40 -11.5t-19 -37.5l-16 -74h125l-16 -78h-126l-89 -418h-95l91 418h-107l17 78h106l15 73q18 78 46.5 104.5t99.5 26.5h301z" />
    <glyph glyph-name="f_f" unicode="ff" horiz-adv-x="683" 
d="M610 570l-15 -74h125l-16 -78h-126l-89 -418h-95l90 418h-229l-89 -418h-95l91 418h-107l17 78h106l15 73q18 78 46.5 104.5t99.5 26.5h121l-17 -81h-96q-26 0 -40 -11.5t-19 -37.5l-16 -74h228l16 73q17 77 46 104t100 27h121l-17 -81h-97q-48 0 -59 -49z" />
    <glyph glyph-name="f_f_i" unicode="ffi" horiz-adv-x="931" 
d="M903 496l-106 -496h-94l89 418h-214l-89 -418h-95l90 418h-229l-89 -418h-95l91 418h-107l17 78h106l15 73q18 78 46.5 104.5t99.5 26.5h121l-17 -81h-96q-26 0 -40 -11.5t-19 -37.5l-16 -74h228l16 73q17 77 46 104t100 27h121l-17 -81h-97q-48 0 -59 -49l-15 -74h308z
M850 700h98l-23 -112h-99z" />
    <glyph glyph-name="f_f_l" unicode="ffl" horiz-adv-x="947" 
d="M962 700l-149 -700h-95l132 619h-181q-48 0 -59 -49l-15 -74h125l-16 -78h-126l-89 -418h-95l90 418h-229l-89 -418h-95l91 418h-107l17 78h106l15 73q18 78 46.5 104.5t99.5 26.5h121l-17 -81h-96q-26 0 -40 -11.5t-19 -37.5l-16 -74h228l16 73q17 77 46 104t100 27h300
z" />
    <glyph glyph-name=".notdef" horiz-adv-x="696" 
d="M49 0l149 701h493l-149 -701h-493zM148 79h329l116 543h-330z" />
    <glyph glyph-name=".null" horiz-adv-x="0" 
 />
    <glyph glyph-name="nonmarkingreturn" horiz-adv-x="333" 
 />
    <glyph glyph-name="CR" unicode="&#xd;" horiz-adv-x="259" 
 />
    <glyph glyph-name="space" unicode=" " horiz-adv-x="259" 
 />
    <glyph glyph-name="exclam" unicode="!" horiz-adv-x="272" 
d="M110 223l29 269l44 208h100l-45 -211l-88 -266h-40zM20 0l27 130h127l-28 -130h-126z" />
    <glyph glyph-name="quotedbl" unicode="&#x22;" horiz-adv-x="395" 
d="M123 424l11 189l19 87h97l-18 -87l-61 -189h-48zM301 424l11 189l19 87h97l-18 -87l-61 -189h-48z" />
    <glyph glyph-name="numbersign" unicode="#" horiz-adv-x="721" 
d="M68 0l37 87q12 32 30.5 52.5t56.5 43.5l-22 36q-37 -28 -91 -28h-53l18 81h139l67 159h-122l18 84h139l78 185h88l-34 -82q-14 -32 -32 -53t-55 -43l21 -35q37 28 96 28h81l78 185h88l-33 -82q-13 -32 -31.5 -53t-55.5 -43l21 -35q37 28 93 28h52l-18 -84h-139l-68 -159
h123l-17 -81h-140l-81 -191h-88l38 87q15 34 31 53.5t56 42.5l-21 36q-38 -28 -96 -28h-82l-81 -191h-89zM271 272h155l68 159h-155z" />
    <glyph glyph-name="dollar" unicode="$" horiz-adv-x="594" 
d="M177 -105l22 101q-71 19 -116 68t-53 116l99 34q14 -96 90 -126l49 230l-21 8q-67 24 -102.5 61.5t-35.5 107.5q0 97 68.5 157.5t176.5 60.5l20 90h79l-22 -99q65 -17 104 -59t52 -97l-98 -34q-17 72 -78 97l-48 -219l27 -10q63 -23 107 -67q46 -43 46 -113
q0 -100 -70 -158t-197 -58l-20 -91h-79zM290 417l19 90q9 42 22 67.5t41 49.5l-17 32q-147 -31 -147 -151q0 -67 82 -88zM437 198q0 70 -95 96l-22 -107q-13 -68 -61 -112l18 -33q73 15 116.5 56t43.5 100z" />
    <glyph glyph-name="percent" unicode="%" horiz-adv-x="932" 
d="M116 0l639 700h106l-638 -700h-107zM548 160q0 106 55 178t136 72q68 0 108.5 -45.5t40.5 -122.5q0 -106 -54 -176.5t-136 -70.5q-70 0 -110 44t-40 121zM804 243q0 46 -18 72t-49 26q-42 0 -73 -55t-31 -126q0 -96 67 -96q41 0 72.5 54.5t31.5 124.5zM88 458
q0 106 55 178t136 72q68 0 108.5 -45.5t40.5 -122.5q0 -106 -54 -176.5t-136 -70.5q-70 0 -110 44t-40 121zM344 541q0 46 -18 72t-49 26q-42 0 -73 -55t-31 -126q0 -96 67 -96q41 0 72.5 54.5t31.5 124.5z" />
    <glyph glyph-name="ampersand" unicode="&#x26;" horiz-adv-x="657" 
d="M32 173q0 120 158 206q-22 60 -22 116q0 90 51.5 154.5t135.5 64.5q76 0 120 -39.5t44 -105.5q0 -73 -69.5 -132t-180.5 -65l-9 -41q50 -15 85 -60q40 -53 94 -98q40 56 75 159l85 -39q-40 -108 -88 -171q44 -31 104 -57l-35 -78q-71 29 -130 70q-87 -71 -196 -71
q-102 0 -162 49.5t-60 137.5zM268 417l38 19q63 32 93.5 62.5t30.5 70.5q0 31 -20.5 50.5t-55.5 19.5q-47 0 -72.5 -40.5t-25.5 -104.5q0 -40 12 -77zM404 98l7 38q-71 4 -121 66q-32 39 -69 103q-92 -53 -92 -130q0 -48 35.5 -78t85.5 -30q93 0 154 31z" />
    <glyph glyph-name="quotesingle" unicode="'" horiz-adv-x="219" 
d="M123 424l11 189l19 87h97l-18 -87l-61 -189h-48z" />
    <glyph glyph-name="parenleft" unicode="(" horiz-adv-x="327" 
d="M47 159q0 133 48 275t131 237q85 95 184 94l-18 -85q-72 -11 -131 -98t-93 -207q-34 -117 -34 -217q0 -105 22.5 -160.5t73.5 -70.5l-18 -87q-165 36 -165 319z" />
    <glyph glyph-name="parenright" unicode=")" horiz-adv-x="326" 
d="M303 446q0 -134 -48 -276q-47 -141 -132 -236q-83 -95 -183 -94l18 85q72 11 131 98q58 87 93 206q34 118 34 218q0 105 -22.5 160.5t-73.5 70.5l18 87q165 -36 165 -319z" />
    <glyph glyph-name="asterisk" unicode="*" horiz-adv-x="532" 
d="M231 381l-72 49l28 32q46 59 100 84l-20 39q-51 -31 -118 -31h-39l18 86l147 -7l-54 137l83 33l15 -43q12 -34 12 -65q0 -17 -3 -36h42q7 56 52 114l25 34l72 -51l-102 -123l154 7l-17 -86h-39q-73 0 -118 28l-21 -39q36 -24 66 -91l16 -36l-86 -34l-46 131z" />
    <glyph glyph-name="plus" unicode="+" horiz-adv-x="621" 
d="M288 85v222h-222v91h222v222h90v-222h222v-91h-222v-222h-90z" />
    <glyph glyph-name="comma" unicode="," horiz-adv-x="272" 
d="M-14 -140l105 140h-62l28 130h126l-30 -136l-101 -134h-66z" />
    <glyph glyph-name="hyphen" unicode="-" horiz-adv-x="423" 
d="M71 262l20 97h286l-20 -97h-286z" />
    <glyph glyph-name="period" unicode="." horiz-adv-x="263" 
d="M22 0l28 130h126l-28 -130h-126z" />
    <glyph glyph-name="slash" unicode="/" horiz-adv-x="443" 
d="M-36 -104l460 909h98l-459 -909h-99z" />
    <glyph glyph-name="zero" unicode="0" horiz-adv-x="681" 
d="M74 272q-2 112 38.5 213.5t117 166t169.5 62.5q115 0 183 -79t68 -212q2 -113 -38 -213.5t-116 -163t-171 -60.5q-120 0 -185.5 76.5t-65.5 209.5zM546 424q0 90 -38.5 145.5t-111.5 55.5q-62 2 -114 -52.5t-79 -136.5t-26 -165q0 -92 38.5 -144t112.5 -52
q63 -2 114.5 51.5t78 134t25.5 163.5z" />
    <glyph glyph-name="one" unicode="1" horiz-adv-x="415" 
d="M161 0l97 457q16 78 48 123h-48q-32 -63 -81.5 -100.5t-108.5 -39.5l23 106q63 8 126.5 49.5t110.5 104.5h80l-149 -700h-98z" />
    <glyph glyph-name="two" unicode="2" horiz-adv-x="591" 
d="M12 0l26 118q154 77 243 133q196 124 196 249q0 59 -34.5 92t-90.5 33q-59 0 -97.5 -43t-44.5 -115l-104 23q14 103 79.5 163.5t171.5 60.5q103 0 164 -58.5t61 -145.5q0 -142 -137 -246q-90 -73 -327 -178l25 -42q66 48 156 48h205l-20 -92h-472z" />
    <glyph glyph-name="three" unicode="3" horiz-adv-x="584" 
d="M36 202l103 15q-2 -67 32 -105.5t99 -38.5q62 0 102.5 40t40.5 95q0 50 -32 77.5t-87 27.5h-49l18 85h49q71 0 112 36.5t41 94.5q0 45 -31 71.5t-78 26.5q-55 0 -92 -33.5t-46 -91.5l-102 24q17 85 81 136.5t166 51.5q90 0 147 -47t57 -119q0 -81 -56.5 -127t-132.5 -46
l-8 -41q63 -5 104.5 -42.5t41.5 -96.5q0 -84 -68.5 -146.5t-176.5 -62.5q-114 0 -175.5 57t-59.5 159z" />
    <glyph glyph-name="four" unicode="4" horiz-adv-x="601" 
d="M316 0l40 189h-337l21 100l361 411h162l-91 -426h101l-18 -85h-101l-40 -189h-98zM374 274l39 185q17 81 73 141l-34 30l-9 -10l-296 -341l-10 -12l32 -31q34 27 52 32q19 6 56 6h97z" />
    <glyph glyph-name="five" unicode="5" horiz-adv-x="593" 
d="M36 165l102 22q4 -52 42 -83t93 -31q74 0 117.5 47t43.5 118q0 55 -34 87.5t-91 32.5q-76 0 -137 -74l-102 26l132 390h405l-19 -92h-326l-40 -121q-30 -87 -79 -136h57q18 34 56.5 62t89.5 28q78 0 134.5 -54t56.5 -143q0 -115 -74 -186.5t-193 -71.5q-101 0 -163 50
t-71 129z" />
    <glyph glyph-name="six" unicode="6" horiz-adv-x="625" 
d="M72 265q-1 122 45 224t136.5 164.5t208.5 60.5q96 0 163 -27l-20 -96q-74 28 -150 28q-117 0 -201 -77.5t-103 -217.5h44q13 52 61 91t116 39q90 0 146.5 -57.5t56.5 -142.5q0 -113 -74 -190.5t-187 -77.5q-115 0 -178.5 72t-63.5 207zM470 242q0 59 -35 93t-95 34
q-65 0 -112 -50.5t-47 -117.5q0 -58 36.5 -93t92.5 -35q67 0 113.5 51t46.5 118z" />
    <glyph glyph-name="seven" unicode="7" horiz-adv-x="515" 
d="M485 608l15 11l-23 36q-64 -47 -157 -47h-221l20 92h470l-25 -120q-172 -108 -254.5 -247t-104.5 -333h-112q46 401 392 608z" />
    <glyph glyph-name="eight" unicode="8" horiz-adv-x="610" 
d="M45 171q0 79 59 125.5t147 49.5l11 43q-60 12 -94.5 45t-34.5 88q0 83 69 137.5t175 54.5q95 0 155 -49t60 -124q0 -72 -52.5 -114t-127.5 -47l-10 -43q60 -9 100 -47.5t40 -94.5q0 -88 -71.5 -148.5t-193.5 -60.5q-110 0 -171 52t-61 133zM491 528q0 46 -33.5 73
t-85.5 27q-59 0 -99 -35.5t-40 -86.5q0 -98 119 -98q67 0 103 34.5t36 85.5zM438 206q0 52 -36 80.5t-99 28.5q-72 0 -113 -37.5t-41 -94.5q0 -51 37.5 -81t96.5 -30q68 0 111.5 38.5t43.5 95.5z" />
    <glyph glyph-name="nine" unicode="9" horiz-adv-x="619" 
d="M42 16l21 96q63 -29 147 -29q108 0 174 60q97 76 119 218h-42q-48 -104 -164 -104q-90 0 -144.5 57t-54.5 144q0 110 69 183t180 73q103 0 169 -67q73 -75 73 -223q1 -123 -42.5 -222t-130 -158t-203.5 -58q-111 0 -171 30zM479 496q0 59 -37 95t-90 36q-66 0 -107.5 -47
t-41.5 -110q0 -59 34.5 -94t90.5 -35q69 0 110 43.5t41 111.5z" />
    <glyph glyph-name="colon" unicode=":" horiz-adv-x="265" 
d="M95 367l28 130h126l-28 -130h-126zM16 0l28 130h126l-28 -130h-126z" />
    <glyph glyph-name="semicolon" unicode=";" horiz-adv-x="282" 
d="M106 367l28 130h126l-28 -130h-126zM-14 -140l105 140h-62l28 130h126l-30 -136l-101 -134h-66z" />
    <glyph glyph-name="less" unicode="&#x3c;" horiz-adv-x="676" 
d="M605 630v-103l-304 -117q-93 -33 -169 -38v-40q67 -1 169 -39l304 -117v-106l-534 209v141z" />
    <glyph glyph-name="equal" unicode="=" horiz-adv-x="734" 
d="M115 414v91h535v-91h-535zM115 195v91h535v-91h-535z" />
    <glyph glyph-name="greater" unicode="&#x3e;" horiz-adv-x="676" 
d="M115 70v103l304 117q95 33 169 38v40q-67 1 -169 39l-304 116v107l534 -209v-142z" />
    <glyph glyph-name="question" unicode="?" horiz-adv-x="494" 
d="M301 402q61 38 86 66t27 71q0 41 -25.5 64.5t-70.5 23.5q-55 0 -89 -37.5t-42 -108.5l-96 20q7 98 71 155t163 57q84 0 137.5 -48t53.5 -116q0 -49 -21 -86q-19 -34 -49 -60.5t-92 -68.5q-46 -31 -60 -49.5t-23 -61.5h-96q19 78 38 105.5t88 73.5zM119 0l28 130h126
l-27 -130h-127z" />
    <glyph glyph-name="at" unicode="@" horiz-adv-x="897" 
d="M55 236q-2 203 130 342t326 136q173 0 275 -96t102 -243q2 -121 -70 -210.5t-165 -87.5q-89 0 -89 73v13h-32q-41 -86 -123 -86q-69 0 -108 49t-39 127q-2 92 60.5 174t144.5 79q85 0 110 -84h34q-6 32 -6 50q0 10 3 22h81l-65 -299l-2 -14q0 -33 40 -33q54 -2 97 70.5
t41 156.5q0 113 -76.5 187t-213.5 74q-155 3 -261.5 -111.5t-103.5 -280.5q0 -136 85 -209.5t216 -73.5q145 0 253 66l30 -72q-106 -72 -283 -72q-173 0 -282 95.5t-109 257.5zM575 332q0 105 -93 105q-53 2 -92.5 -58.5t-38.5 -123.5q0 -107 76 -107q65 0 106.5 56.5
t41.5 127.5z" />
    <glyph glyph-name="A" unicode="A" horiz-adv-x="693" 
d="M513 0l-25 185h-304l-104 -185h-116l411 700h140l106 -700h-108zM236 276h240l-26 193q-7 43 -7 84q0 32 5 77h-40q-9 -40 -25 -81q-14 -36 -40 -82z" />
    <glyph glyph-name="B" unicode="B" horiz-adv-x="708" 
d="M49 0l149 700h280q88 0 142.5 -42.5t54.5 -111.5t-44 -110.5t-126 -50.5l-8 -40q70 -4 110.5 -40t40.5 -98q0 -87 -71.5 -147t-183.5 -60h-344zM236 408h189q66 0 106 32t40 84q0 84 -113 84h-179zM169 92h219q70 0 112.5 35.5t42.5 92.5q0 47 -32.5 72.5t-90.5 25.5
h-203z" />
    <glyph glyph-name="C" unicode="C" horiz-adv-x="737" 
d="M70 287q-1 110 47 208.5t137 159.5t196 59q119 0 194.5 -60.5t100.5 -149.5l-106 -30q-18 57 -63 104q-43 46 -131 46q-79 2 -142 -47.5t-95.5 -126.5t-31.5 -163q0 -98 54 -154t148 -56q154 0 227 161l98 -46q-45 -95 -127.5 -150.5t-200.5 -55.5q-146 0 -225.5 82
t-79.5 219z" />
    <glyph glyph-name="D" unicode="D" horiz-adv-x="739" 
d="M50 0l148 700h199q141 0 228 -79.5t87 -208.5q2 -177 -111 -296t-294 -116h-257zM170 92h122q153 0 234.5 86.5t81.5 227.5q0 96 -57.5 149t-167.5 53h-104z" />
    <glyph glyph-name="E" unicode="E" horiz-adv-x="641" 
d="M49 0l149 700h490l-20 -92h-389l-43 -200h288l-19 -91h-289l-47 -225h390l-20 -92h-490z" />
    <glyph glyph-name="F" unicode="F" horiz-adv-x="635" 
d="M49 0l149 700h504l-19 -92h-404l-48 -222h318l-19 -92h-318l-63 -294h-100z" />
    <glyph glyph-name="G" unicode="G" horiz-adv-x="773" 
d="M70 288q-2 107 45.5 205t138.5 160.5t202 60.5q119 0 197.5 -59.5t102.5 -152.5l-107 -32q-21 68 -73 110t-129 42q-78 2 -141.5 -46.5t-97 -124.5t-32.5 -161q0 -102 55.5 -157.5t145.5 -55.5q89 0 154.5 55.5t78.5 120.5h-237l19 92h342l-73 -345h-94q8 33 27 73
q21 43 39 67h-49q-28 -57 -86 -106q-57 -48 -147 -48q-125 0 -203 79.5t-78 222.5z" />
    <glyph glyph-name="H" unicode="H" horiz-adv-x="766" 
d="M49 0l149 700h100l-61 -292h361l63 292h100l-149 -700h-100l67 316h-363l-67 -316h-100z" />
    <glyph glyph-name="I" unicode="I" horiz-adv-x="302" 
d="M49 0l149 700h100l-149 -700h-100z" />
    <glyph glyph-name="J" unicode="J" horiz-adv-x="508" 
d="M5 153q0 29 6 57l103 17q-7 -35 -7 -63q0 -89 79 -89q50 0 77.5 35t47.5 121l99 469h101l-105 -494q-24 -114 -76 -167t-142 -53q-84 0 -133.5 44.5t-49.5 122.5z" />
    <glyph glyph-name="K" unicode="K" horiz-adv-x="698" 
d="M749 700l-348 -296l263 -404h-121l-217 340l-127 -109l-50 -231h-100l149 700h100l-35 -168q-20 -92 -82 -146l28 -33l393 347h147z" />
    <glyph glyph-name="L" unicode="L" horiz-adv-x="586" 
d="M49 0l149 700h100l-128 -606h373l-21 -94h-473z" />
    <glyph glyph-name="M" unicode="M" horiz-adv-x="944" 
d="M49 0l149 700h157l71 -394q9 -50 9 -90q0 -48 -12 -102h44q11 52 16.5 73t17.5 50t32 63l240 400h167l-148 -700h-101l77 362q27 123 107 244l-39 24l-379 -630h-70l-116 629l-42 -8q11 -75 11 -127q0 -65 -13 -127l-78 -367h-100z" />
    <glyph glyph-name="N" unicode="N" horiz-adv-x="808" 
d="M49 0l149 700h147l243 -580l40 16q-16 50 -16 93t12 99l79 372h100l-149 -700h-119l-259 617l-40 -16q12 -37 12 -87q0 -47 -14 -114l-85 -400h-100z" />
    <glyph glyph-name="O" unicode="O" horiz-adv-x="806" 
d="M72 308q-2 105 48.5 199.5t140.5 151.5t195 55q142 0 232 -87t90 -234q2 -108 -48 -202.5t-139.5 -150.5t-195.5 -54q-145 0 -234 85.5t-89 236.5zM674 394q0 104 -58 166.5t-161 62.5q-78 2 -143.5 -43.5t-100.5 -119.5t-34 -157q0 -102 57.5 -164t160.5 -62
q117 -2 199 95t80 222z" />
    <glyph glyph-name="P" unicode="P" horiz-adv-x="652" 
d="M49 0l149 700h237q113 0 174 -53t61 -143q0 -102 -74.5 -166.5t-193.5 -64.5h-194l-59 -273h-100zM226 360h173q76 0 121.5 40t45.5 103q0 48 -35.5 76.5t-98.5 28.5h-153z" />
    <glyph glyph-name="Q" unicode="Q" horiz-adv-x="822" 
d="M72 307q-2 106 49 200.5t141 151.5t195 55q142 0 231.5 -86.5t89.5 -234.5q0 -166 -109 -288q36 -29 114 -29l-19 -90q-71 0 -102 22.5t-42 69.5h-38q-71 -92 -200 -92q-136 0 -223 86t-87 235zM544 129l-31 47q-33 49 -64.5 69.5t-76.5 20.5q-12 0 -21 -1l21 95
q14 2 24 2q75 0 121 -56q37 -41 59 -132h40q57 104 57 220q0 104 -57.5 166.5t-160.5 62.5q-78 2 -143.5 -43.5t-100.5 -119.5t-34 -157q0 -102 57.5 -164t160.5 -62q86 0 149 52z" />
    <glyph glyph-name="R" unicode="R" horiz-adv-x="696" 
d="M49 0l149 700h259q98 0 155.5 -49t57.5 -127q0 -95 -62 -134q-62 -38 -144 -41l-8 -40q63 -1 93 -32t38 -102l22 -175h-107l-15 167q-6 67 -31.5 94.5t-92.5 27.5h-152l-62 -289h-100zM230 379h174q72 0 117 35.5t45 95.5q0 46 -31.5 72t-82.5 26h-173z" />
    <glyph glyph-name="S" unicode="S" horiz-adv-x="608" 
d="M31 188l101 34q9 -67 50.5 -107t113.5 -40q70 0 110.5 34t40.5 85q0 40 -26.5 63.5t-84.5 39.5l-80 24q-70 20 -107 61.5t-37 115.5q0 91 70 153t175 62q109 0 169 -50t77 -128l-102 -31q-11 48 -45 84q-34 37 -104 37q-60 0 -99 -34.5t-39 -82.5q0 -39 21.5 -59
t76.5 -37l85 -26q72 -22 115.5 -68t43.5 -114q0 -95 -71.5 -156.5t-194.5 -61.5q-109 0 -178.5 55.5t-80.5 146.5z" />
    <glyph glyph-name="T" unicode="T" horiz-adv-x="623" 
d="M206 0l129 608h-246l20 92h599l-20 -92h-252l-130 -608h-100z" />
    <glyph glyph-name="U" unicode="U" horiz-adv-x="724" 
d="M89 195q0 35 9 79l90 426h101l-89 -416q-9 -40 -9 -71q0 -134 138 -134q88 0 139 51t72 155l88 415h101l-93 -436q-31 -142 -103.5 -210t-203.5 -68q-112 0 -176 53.5t-64 155.5z" />
    <glyph glyph-name="V" unicode="V" horiz-adv-x="656" 
d="M201 0l-76 700h108l44 -462q2 -34 2 -57q0 -51 -9 -100h42q17 80 57 156l240 463h116l-375 -700h-149z" />
    <glyph glyph-name="W" unicode="W" horiz-adv-x="990" 
d="M150 0l-16 700h102l4 -393q1 -98 -23 -213h44q9 43 25 96q13 42 44 104l200 406h123l20 -403q2 -42 2 -66q0 -73 -12 -137h42q9 49 25 104q11 39 43 115l173 387h110l-328 -700h-130l-21 392q-1 17 -1 37q0 81 18 183h-44q-25 -122 -73 -217l-195 -395h-132z" />
    <glyph glyph-name="X" unicode="X" horiz-adv-x="652" 
d="M-42 0l332 364l-169 336h114l71 -146q31 -61 31 -109q0 -22 -4 -42h44q16 77 81 150l131 147h128l-305 -332l186 -368h-116l-85 179q-31 61 -31 113q0 21 4 38h-43q-16 -78 -81 -151l-159 -179h-129z" />
    <glyph glyph-name="Y" unicode="Y" horiz-adv-x="647" 
d="M223 0l62 293l-165 407h111l81 -209q19 -48 19 -93q0 -15 -5 -50h41q15 85 61 143l162 209h126l-330 -403l-63 -297h-100z" />
    <glyph glyph-name="Z" unicode="Z" horiz-adv-x="624" 
d="M-12 0l29 139l546 490l-27 33q-67 -54 -148 -54h-253l20 92h515l-26 -125l-557 -500l29 -33q57 50 161 50h281l-20 -92h-550z" />
    <glyph glyph-name="bracketleft" unicode="[" horiz-adv-x="335" 
d="M6 -150l193 905h218l-17 -76h-130l-161 -753h131l-16 -76h-218z" />
    <glyph glyph-name="backslash" unicode="\" horiz-adv-x="418" 
d="M224 -104l-74 909h90l73 -909h-89z" />
    <glyph glyph-name="bracketright" unicode="]" horiz-adv-x="335" 
d="M354 755l-193 -905h-219l17 76h131l160 753h-131l17 76h218z" />
    <glyph glyph-name="asciicircum" unicode="^" horiz-adv-x="534" 
d="M79 334l156 366h128l156 -366h-103l-61 153q-31 75 -36 160h-41q-5 -76 -36 -160l-60 -153h-103z" />
    <glyph glyph-name="underscore" unicode="_" horiz-adv-x="616" 
d="M-28 -149l19 86h510l-19 -86h-510z" />
    <glyph glyph-name="grave" unicode="`" horiz-adv-x="537" 
d="M242 567l-79 141h115l20 -141h-56z" />
    <glyph glyph-name="a" unicode="a" horiz-adv-x="543" 
d="M32 122q0 101 96 149q96 47 254 49l3 14q2 16 2 21q0 76 -100 76q-99 0 -139 -87l-85 37q21 53 79.5 91t144.5 38q91 0 141.5 -39.5t50.5 -111.5q0 -23 -5 -50l-42 -201q-2 -10 -2 -11q0 -16 24 -16h50l-17 -81h-44q-70 0 -70 63q0 15 3 35h-41q-23 -50 -65.5 -81
t-101.5 -31t-97.5 34.5t-38.5 101.5zM358 205l10 46q-102 0 -170.5 -30t-68.5 -91q0 -31 21.5 -49t60.5 -18q49 0 92 39.5t55 102.5z" />
    <glyph glyph-name="b" unicode="b" horiz-adv-x="582" 
d="M150 116h-50q20 -42 20 -91q0 -11 -2 -25h-89l150 700h95l-27 -125q-20 -94 -95 -177h60q56 112 157 112q75 0 124 -55.5t49 -146.5q2 -126 -72 -225.5t-178 -96.5q-114 0 -142 130zM446 300q0 64 -29.5 97t-81.5 33q-66 3 -117.5 -73t-49.5 -159q0 -132 109 -132
q73 0 121 72t48 162z" />
    <glyph glyph-name="c" unicode="c" horiz-adv-x="538" 
d="M42 204q-2 118 75 213.5t193 92.5q80 0 133 -41.5t70 -109.5l-91 -25q-12 44 -41.5 70t-75.5 26q-76 2 -122 -68t-45 -152q0 -71 35.5 -107.5t90.5 -36.5q93 0 145 112l83 -41q-70 -151 -233 -151q-98 0 -157.5 57.5t-59.5 160.5z" />
    <glyph glyph-name="d" unicode="d" horiz-adv-x="581" 
d="M41 188q-1 81 30.5 156t88 121.5t120.5 44.5q126 0 154 -132h51q-24 44 -24 93q0 32 11 85l29 144h96l-150 -700h-82q4 17 23 48q20 31 38 49h-56q-65 -111 -158 -111q-74 0 -122.5 55t-48.5 147zM415 297q0 133 -110 133q-71 2 -120.5 -72.5t-47.5 -162.5
q0 -62 30 -95.5t81 -33.5q66 -3 117.5 73t49.5 158z" />
    <glyph glyph-name="e" unicode="e" horiz-adv-x="539" 
d="M41 196q-2 75 30.5 147t94.5 120.5t137 46.5q89 0 141 -54.5t52 -142.5q0 -41 -14 -89h-347q-4 -19 -4 -39q0 -54 30.5 -87t84.5 -33q49 0 87 28.5t62 72.5l81 -41q-79 -139 -233 -139q-93 0 -147.5 54t-54.5 156zM150 299h251q2 18 2 27q0 49 -28 79t-76 30
q-49 0 -90 -37t-59 -99z" />
    <glyph glyph-name="f" unicode="f" horiz-adv-x="360" 
d="M71 0l91 418h-107l17 78h106l15 73q18 78 46.5 104.5t99.5 26.5h121l-17 -81h-96q-26 0 -40 -11.5t-19 -37.5l-16 -74h125l-16 -78h-126l-89 -418h-95z" />
    <glyph glyph-name="g" unicode="g" horiz-adv-x="582" 
d="M-33 -101q0 74 86 101l9 37q-39 19 -39 55q0 31 24.5 57t68.5 39l9 38q-33 32 -33 94q0 75 59 132.5t144 57.5q70 0 108 -30.5t48 -69.5h38q17 86 86 86h45l-16 -79h-40q-33 0 -46.5 -13t-22.5 -55l-9 -34q-19 -83 -70.5 -127t-132.5 -44q-67 0 -116 25
q-25 -9 -41.5 -24.5t-16.5 -30.5q0 -31 47 -31h190q71 0 109.5 -37t38.5 -89q0 -72 -48.5 -112t-142.5 -40h-214q-58 0 -90 28t-32 66zM402 343q0 39 -26 65.5t-71 26.5q-51 0 -85.5 -36.5t-34.5 -88.5q0 -41 26 -66.5t72 -25.5q52 0 85.5 36t33.5 89zM127 -115h184
q87 0 87 66q0 49 -67 49h-227q-53 -25 -53 -64q0 -51 76 -51z" />
    <glyph glyph-name="h" unicode="h" horiz-adv-x="582" 
d="M30 0l149 700h94l-35 -161q-15 -72 -80 -149h54q22 44 60 82q40 38 101 38q69 0 110.5 -42.5t41.5 -113.5q0 -28 -6 -57l-64 -297h-95l64 301q4 17 4 38q0 42 -22.5 65.5t-63.5 23.5q-64 0 -107.5 -58.5t-60.5 -139.5l-49 -230h-95z" />
    <glyph glyph-name="i" unicode="i" horiz-adv-x="258" 
d="M153 588l24 112h99l-24 -112h-99zM30 0l106 496h94l-105 -496h-95z" />
    <glyph glyph-name="j" unicode="j" horiz-adv-x="266" 
d="M159 588l24 112h101l-24 -112h-101zM-130 -195l17 84h78q52 0 59 48l119 559h94l-121 -569q-14 -66 -45 -94t-96 -28h-105z" />
    <glyph glyph-name="k" unicode="k" horiz-adv-x="573" 
d="M613 496l-269 -213l174 -283h-109l-136 227l-119 -95l-29 -132h-95l149 700h95l-58 -275q-14 -67 -33.5 -99t-57.5 -60l28 -36l327 266h133z" />
    <glyph glyph-name="l" unicode="l" horiz-adv-x="258" 
d="M29 0l150 700h94l-149 -700h-95z" />
    <glyph glyph-name="m" unicode="m" horiz-adv-x="886" 
d="M30 0l106 496h85q-11 -44 -57 -92h59q25 52 58 79t82 27q56 0 88.5 -32t35.5 -83h41q16 48 57 81.5t97 33.5q68 0 108 -39.5t40 -110.5q0 -32 -7 -61l-64 -299h-95l64 297q6 27 6 48q0 82 -82 82q-122 0 -162 -198l-49 -229h-95l64 297q6 29 6 50q0 80 -76 80
q-68 0 -109 -59q-40 -58 -57 -139l-49 -229h-95z" />
    <glyph glyph-name="n" unicode="n" horiz-adv-x="582" 
d="M30 0l106 496h89q-8 -33 -67 -106h54q22 44 60 82q40 38 101 38q69 0 110.5 -42t41.5 -114q0 -27 -6 -57l-64 -297h-95l64 301q4 19 4 39q0 41 -22.5 64.5t-63.5 23.5q-64 0 -107.5 -58.5t-60.5 -139.5l-49 -230h-95z" />
    <glyph glyph-name="o" unicode="o" horiz-adv-x="560" 
d="M41 195q-2 78 32.5 151t99 119.5t141.5 44.5q94 0 150 -58.5t56 -152.5q1 -80 -32.5 -152t-97.5 -117.5t-143 -43.5q-96 0 -151 57t-55 152zM424 299q0 62 -31.5 96t-84.5 34q-52 2 -92.5 -34t-60 -89.5t-18.5 -110.5q0 -62 31 -95t84 -33q78 0 125 70.5t47 161.5z" />
    <glyph glyph-name="p" unicode="p" horiz-adv-x="582" 
d="M-12 -195l148 691h81q-17 -50 -64 -98h59q26 50 67 81t90 31q75 0 124 -55.5t49 -146.5q2 -126 -72 -225.5t-178 -96.5q-62 0 -97 36t-45 94h-53q25 -49 25 -105q0 -30 -7 -57l-32 -149h-95zM446 300q0 64 -29.5 97t-81.5 33q-66 3 -117.5 -73t-49.5 -159
q0 -132 110 -132q71 0 119.5 72t48.5 162z" />
    <glyph glyph-name="q" unicode="q" horiz-adv-x="582" 
d="M312 -195l25 122q22 98 94 170h-61q-31 -55 -68.5 -83t-92.5 -28q-73 0 -120.5 55t-47.5 147q-2 125 70 225t170 97q125 0 153 -132h51q-25 46 -25 100q0 14 1 18h91l-146 -691h-94zM415 297q0 133 -110 133q-71 2 -120.5 -72.5t-47.5 -162.5q0 -62 30 -95.5t81 -33.5
q66 -3 117.5 73t49.5 158z" />
    <glyph glyph-name="r" unicode="r" horiz-adv-x="402" 
d="M30 0l106 496h84q-14 -65 -74 -138h57q67 145 174 145q37 0 61 -6l-21 -100q-32 7 -61 7q-71 0 -119.5 -54t-69.5 -147l-42 -203h-95z" />
    <glyph glyph-name="s" unicode="s" horiz-adv-x="489" 
d="M12 132l89 21q5 -42 35 -66t83 -24q52 0 82 20.5t30 55.5q0 25 -17 40t-59 27l-52 15q-67 19 -97 48t-30 84q0 67 55.5 112t138.5 45q86 0 135.5 -38t55.5 -97l-87 -22q-4 36 -30 60t-74 24q-49 0 -75.5 -22t-26.5 -51q0 -23 14 -34.5t57 -25.5l51 -14q67 -20 102.5 -53
t35.5 -87q0 -76 -57.5 -120t-151.5 -44q-85 0 -144.5 39t-62.5 107z" />
    <glyph glyph-name="t" unicode="t" horiz-adv-x="402" 
d="M99 104q0 21 4 36l60 278h-113l17 78h112l33 155h95l-33 -155h133l-17 -78h-132l-62 -288q-2 -14 -2 -16q0 -33 44 -33h114l-18 -81h-110q-61 0 -93 27.5t-32 76.5z" />
    <glyph glyph-name="u" unicode="u" horiz-adv-x="576" 
d="M58 141q0 28 6 58l64 297h95l-64 -301q-5 -22 -5 -38q0 -42 22.5 -66t61.5 -24q68 0 108 60q42 62 58 139l49 230h95l-106 -496h-80q14 56 68 116h-56q-31 -58 -70 -93.5t-101 -36.5q-65 0 -105 41.5t-40 113.5z" />
    <glyph glyph-name="v" unicode="v" horiz-adv-x="497" 
d="M140 0l-64 496h94l27 -255q4 -29 4 -63q0 -48 -12 -110h44q17 89 56 164l136 264h100l-269 -496h-116z" />
    <glyph glyph-name="w" unicode="w" horiz-adv-x="824" 
d="M131 0l-56 496h93l20 -231q2 -32 2 -51q0 -59 -12 -131h43q20 94 64 177l120 236h110l20 -235q2 -30 2 -49q0 -56 -12 -129h43q6 34 22 82q14 41 45 102l119 229h103l-270 -496h-109l-22 230q-2 36 -2 59q0 59 13 130h-43q-18 -96 -66 -188l-120 -231h-107z" />
    <glyph glyph-name="x" unicode="x" horiz-adv-x="489" 
d="M-35 0l226 254l-110 242h99l32 -76q22 -48 22 -94q0 -16 -3 -33h41q12 61 65 125l65 78h115l-217 -244l121 -252h-103l-39 88q-21 45 -21 90q0 16 3 34h-41q-16 -66 -67 -124l-74 -88h-114z" />
    <glyph glyph-name="y" unicode="y" horiz-adv-x="508" 
d="M433 496h105l-316 -573q-43 -72 -75 -95t-96 -23h-110l18 84h93q28 0 45.5 10t31.5 36l42 75l-110 486h101l48 -246q6 -32 6 -69q0 -41 -8 -81h47q12 84 47 150z" />
    <glyph glyph-name="z" unicode="z" horiz-adv-x="486" 
d="M-11 0l21 98l356 329l-31 35q-49 -47 -106 -47h-142l17 81h388l-18 -85l-367 -339l30 -32q44 41 115 41h164l-17 -81h-410z" />
    <glyph glyph-name="braceleft" unicode="{" horiz-adv-x="338" 
d="M66 -34q0 23 6 50l26 122q9 40 9 62q0 31 -18.5 45t-62.5 14l18 85q61 0 85.5 25.5t37.5 94.5l32 147q16 77 52 110.5t121 33.5h45l-17 -76h-37q-33 0 -51.5 -17.5t-26.5 -57.5l-31 -142q-17 -83 -49.5 -112t-96.5 -31l-9 -38q91 0 91 -90q0 -23 -6 -58l-28 -132
q-4 -17 -4 -31q0 -44 49 -44h39l-16 -76h-42q-56 0 -86 30.5t-30 85.5z" />
    <glyph glyph-name="bar" unicode="|" horiz-adv-x="268" 
d="M16 -104l193 909h87l-193 -909h-87z" />
    <glyph glyph-name="braceright" unicode="}" horiz-adv-x="338" 
d="M296 639q0 -23 -6 -50l-26 -122q-9 -41 -9 -62q0 -31 18.5 -45t62.5 -14l-18 -85q-61 0 -85 -25t-39 -95l-31 -147q-16 -77 -52.5 -110.5t-120.5 -33.5h-45l16 76h38q33 0 51.5 17.5t26.5 56.5l30 143q19 84 51 112.5t96 30.5l9 38q-92 0 -92 90q0 26 7 58l28 132
q4 17 4 31q0 44 -49 44h-39l16 76h42q56 0 86 -30.5t30 -85.5z" />
    <glyph glyph-name="asciitilde" unicode="~" horiz-adv-x="643" 
d="M346 302l-32 14q-52 24 -83 24q-48 0 -95 -50l-54 69q31 37 73 57.5t81 20.5q40 0 101 -27l32 -14q55 -24 84 -24q47 0 95 50l54 -70q-31 -37 -73 -57.5t-81 -20.5q-38 0 -102 28z" />
    <glyph glyph-name="uni00A0" unicode="&#xa0;" horiz-adv-x="259" 
 />
    <glyph glyph-name="exclamdown" unicode="&#xa1;" horiz-adv-x="270" 
d="M267 563l-28 -130h-127l29 130h126zM176 340l-29 -269l-44 -208h-100l45 211l88 266h40z" />
    <glyph glyph-name="cent" unicode="&#xa2;" horiz-adv-x="559" 
d="M172 -119l24 114q-70 19 -109 73t-39 135q-1 73 31.5 143t93 116.5t133.5 47.5l22 106h73l-25 -113q57 -14 95.5 -51t49.5 -88l-93 -28q-14 67 -69 85l-46 -215q-13 -59 -25 -87.5t-40 -55.5l23 -31q104 37 150 141l80 -41q-75 -146 -235 -146l-22 -105h-72zM214 78
l43 204q12 57 26 89.5t40 55.5l-23 30q-73 -28 -114 -98.5t-41 -155.5q0 -95 69 -125z" />
    <glyph glyph-name="sterling" unicode="&#xa3;" horiz-adv-x="598" 
d="M306 92h224l-20 -92h-498l19 89q69 16 114 59.5t45 104.5q0 31 -7 55h-103l16 78h60q-21 60 -21 114q0 97 67.5 155t171.5 58q94 0 156.5 -50.5t62.5 -141.5l-99 -24q-4 64 -37.5 96.5t-89.5 32.5q-59 0 -93.5 -35.5t-34.5 -93.5q0 -46 21 -111h176l-17 -78h-137
q4 -20 4 -39q0 -67 -35.5 -106t-105.5 -68l22 -41q59 38 139 38z" />
    <glyph glyph-name="currency" unicode="&#xa4;" horiz-adv-x="649" 
d="M107 82l-54 64l94 81q-22 43 -22 96q0 86 58 162l-69 82l63 55l72 -81q59 34 126 34q58 0 115 -36l96 82l54 -63l-96 -83q25 -44 25 -97q0 -84 -57 -154l71 -81l-64 -58l-72 84q-64 -41 -127 -41q-66 0 -118 38zM479 379q0 49 -30 79t-78 30q-64 0 -110 -49.5t-46 -114.5
q0 -49 30.5 -78.5t78.5 -29.5q63 0 109 49.5t46 113.5z" />
    <glyph glyph-name="yen" unicode="&#xa5;" horiz-adv-x="664" 
d="M724 700l-264 -306h135l-16 -77h-180l-17 -79h180l-17 -77h-179l-34 -161h-101l35 161h-188l17 77h187l17 79h-188l17 77h139l-139 306h109l78 -181q25 -57 25 -113q0 -9 -2 -37h42q21 96 69 154l147 177h128z" />
    <glyph glyph-name="brokenbar" unicode="&#xa6;" horiz-adv-x="268" 
d="M125 409l84 396h87l-84 -396h-87zM16 -104l85 396h87l-85 -396h-87z" />
    <glyph glyph-name="section" unicode="&#xa7;" horiz-adv-x="597" 
d="M29 -39l97 23q1 -48 29 -76t80 -28t84 29.5t32 71.5q0 27 -17 44t-55 30l-108 38q-133 46 -133 144q0 57 41.5 94t121.5 45l9 41q-66 38 -66 109q0 77 63.5 132.5t156.5 55.5q96 0 151 -46t55 -123l-97 -23q-1 48 -29 75.5t-80 27.5q-51 0 -83 -29t-32 -71q0 -27 16 -44
t52 -29l110 -39q135 -48 135 -141q0 -58 -43 -95.5t-126 -48.5l-10 -41q73 -41 73 -111q0 -77 -63.5 -131t-157.5 -54q-96 0 -150 46.5t-56 123.5zM455 247q0 48 -66 71l-80 27q-6 2 -34 14l-13 6q-118 -42 -118 -104q0 -49 65 -73l74 -26l46 -17q66 20 96 44t30 58z" />
    <glyph glyph-name="dieresis" unicode="&#xa8;" horiz-adv-x="563" 
d="M132 587l22 103h101l-22 -103h-101zM327 587l22 103h100l-22 -103h-100z" />
    <glyph glyph-name="copyright" unicode="&#xa9;" horiz-adv-x="890" 
d="M79 359q-2 102 51 192.5t144 143.5t196 51q78 1 150.5 -30t125 -83.5t83.5 -124.5t30 -149q2 -103 -50.5 -192.5t-143.5 -142t-195 -50.5q-160 -3 -277 112.5t-114 272.5zM785 359q2 129 -91.5 224.5t-223.5 92.5q-132 3 -225 -92t-91 -225q-2 -129 91 -223.5t225 -92.5
q130 -2 223.5 92.5t91.5 223.5zM276 367q0 90 56.5 147t143.5 57q63 0 108 -31.5t62 -88.5l-67 -17q-29 78 -108 78q-53 0 -86.5 -42t-33.5 -111q0 -68 32.5 -107t87.5 -39q41 0 71.5 25.5t41.5 67.5l69 -21q-15 -61 -64.5 -98.5t-116.5 -37.5q-91 0 -143.5 58.5
t-52.5 159.5z" />
    <glyph glyph-name="ordfeminine" unicode="&#xaa;" horiz-adv-x="507" 
d="M97 462q0 100 57.5 174t139.5 74q95 0 120 -90h33q-5 32 -5 44q0 19 4 36h82l-85 -401h-74q6 32 35 73h-40q-25 -43 -54.5 -63t-71.5 -20q-59 0 -100 45.5t-41 127.5zM409 536q0 48 -24.5 76t-65.5 28q-58 0 -95.5 -54t-37.5 -122q0 -48 24 -76.5t64 -28.5q57 0 96 54.5
t39 122.5z" />
    <glyph glyph-name="guillemotleft" unicode="&#xab;" horiz-adv-x="540" 
d="M332 470l-188 -227l82 -207h-94l-86 217l179 217h107zM555 470l-208 -253l72 -181h-93l-76 192l198 242h107z" />
    <glyph glyph-name="logicalnot" unicode="&#xac;" horiz-adv-x="694" 
d="M523 158v151h-440v90h531v-241h-91z" />
    <glyph glyph-name="uni00AD" unicode="&#xad;" horiz-adv-x="423" 
d="M71 262l20 97h286l-20 -97h-286z" />
    <glyph glyph-name="registered" unicode="&#xae;" horiz-adv-x="578" 
d="M102 508q0 99 69 168.5t170 69.5t171.5 -69.5t70.5 -168.5q0 -100 -70.5 -170t-171.5 -70q-98 -2 -169.5 70t-69.5 170zM522 508q0 78 -51.5 130.5t-129.5 52.5q-76 0 -127 -52.5t-51 -130.5q0 -80 50.5 -133t127.5 -53q79 0 130 53t51 133zM254 393v228h115q34 0 55 -15
t21 -41q0 -24 -18.5 -38t-51.5 -15v-20q51 -2 58 -46l8 -53h-59l-7 52q-3 24 -11 32t-31 8h-25v-92h-54zM308 525h43q38 0 38 29q0 27 -38 27h-43v-56z" />
    <glyph glyph-name="macron" unicode="&#xaf;" horiz-adv-x="346" 
d="M29 591l15 72h304l-16 -72h-303z" />
    <glyph glyph-name="degree" unicode="&#xb0;" horiz-adv-x="433" 
d="M117 605q0 71 49 119.5t123 48.5q73 0 122 -48.5t49 -119.5q0 -72 -49 -119.5t-123 -47.5t-122.5 48t-48.5 119zM375 606q0 41 -24 66t-62 25t-62 -25.5t-24 -65.5q0 -42 24 -68.5t62 -26.5t62 26t24 69z" />
    <glyph glyph-name="plusminus" unicode="&#xb1;" horiz-adv-x="700" 
d="M317 243v139h-221v89h221v149h91v-149h222v-89h-222v-139h-91zM94 85v91h535v-91h-535z" />
    <glyph glyph-name="twosuperior" unicode="&#xb2;" horiz-adv-x="378" 
d="M97 392l18 87q123 66 170 105t50 89q0 27 -14 42t-40 15q-28 0 -44.5 -24t-17.5 -63l-85 17q6 65 46.5 102t105.5 37q59 0 96.5 -33.5t37.5 -86.5q0 -69 -58 -119q-34 -31 -142 -81q-2 -1 -16 -7t-22 -10l17 -31q53 32 111 32h71l-15 -71h-269z" />
    <glyph glyph-name="threesuperior" unicode="&#xb3;" horiz-adv-x="375" 
d="M96 519l86 11q-1 -2 -1 -11q0 -67 57 -67q28 0 45.5 17.5t17.5 44.5q0 47 -54 47h-35l14 67h34q31 0 50 16t19 44q0 19 -12.5 31t-32.5 12q-52 0 -63 -68l-83 17q9 55 49 87t101 32q55 0 89.5 -27.5t34.5 -69.5q0 -41 -28 -65.5t-77 -24.5l-6 -31q38 -2 61 -24t23 -53
q0 -52 -42 -86t-107 -34q-68 0 -105.5 36.5t-34.5 98.5z" />
    <glyph glyph-name="acute" unicode="&#xb4;" horiz-adv-x="350" 
d="M127 567l79 141h128l-141 -141h-66z" />
    <glyph glyph-name="mu" unicode="&#xb5;" horiz-adv-x="610" 
d="M90 -195v691h94v-303q0 -126 102 -126q56 0 85 35q45 54 45 178v216h94v-496h-91q1 45 46 116h-51q-47 -130 -161 -130q-40 0 -69 13v-194h-94z" />
    <glyph glyph-name="paragraph" unicode="&#xb6;" horiz-adv-x="664" 
d="M367 700h342l-16 -76h-76l-174 -819h-87l174 819h-96l-173 -819h-89l100 466q-84 5 -137 57.5t-53 131.5q0 108 79.5 174t205.5 66z" />
    <glyph glyph-name="periodcentered" unicode="&#xb7;" horiz-adv-x="265" 
d="M75 281l28 130h126l-28 -130h-126z" />
    <glyph glyph-name="cedilla" unicode="&#xb8;" horiz-adv-x="357" 
d="M24 -170l41 48q29 -32 68 -32q51 0 51 32q0 28 -42 28q-20 0 -33 -5l-23 41l89 76l47 -18l-33 -26l-30 -24q3 1 11 1q34 0 59.5 -21.5t25.5 -53.5q0 -43 -32.5 -67.5t-89.5 -24.5q-72 0 -109 46z" />
    <glyph glyph-name="onesuperior" unicode="&#xb9;" horiz-adv-x="285" 
d="M164 392l49 225q11 52 35 88h-35q-37 -70 -100 -74l16 76q73 2 133 84h68l-85 -399h-81z" />
    <glyph glyph-name="ordmasculine" unicode="&#xba;" horiz-adv-x="484" 
d="M96 467q-2 92 60 168.5t157 74.5q78 0 128.5 -51t50.5 -132q0 -98 -59.5 -168t-158.5 -70q-81 0 -129.5 48.5t-48.5 129.5zM399 534q0 50 -24.5 78t-64.5 28q-54 0 -88 -55t-34 -124q0 -50 23.5 -76t65.5 -26q57 0 89.5 51t32.5 124z" />
    <glyph glyph-name="guillemotright" unicode="&#xbb;" horiz-adv-x="541" 
d="M219 470l76 -192l-198 -242h-107l208 252l-73 182h94zM412 470l87 -218l-179 -216h-107l187 227l-82 207h94z" />
    <glyph glyph-name="onequarter" unicode="&#xbc;" horiz-adv-x="845" 
d="M150 301l49 225q11 52 35 88h-35q-37 -70 -100 -74l16 76q73 2 133 84h68l-85 -399h-81zM30 0l639 700h106l-638 -700h-107zM627 0l21 103h-183l15 71l200 225h110l-49 -230h54l-14 -66h-55l-22 -103h-77zM664 169l10 50q9 45 58 91l-23 22l-157 -175l22 -20q32 32 75 32
h15z" />
    <glyph glyph-name="onehalf" unicode="&#xbd;" horiz-adv-x="826" 
d="M149 301l49 225q11 52 35 88h-35q-37 -70 -100 -74l16 76q73 2 133 84h68l-85 -399h-81zM29 0l639 700h106l-638 -700h-107zM465 0l18 87q123 66 170 105t50 89q0 27 -14 42t-40 15q-28 0 -44.5 -24t-17.5 -63l-85 17q6 65 46.5 102t105.5 37q59 0 96.5 -33.5t37.5 -86.5
q0 -69 -58 -119q-34 -31 -142 -81q-2 -1 -16 -7t-22 -10l17 -31q53 32 111 32h71l-15 -71h-269z" />
    <glyph glyph-name="threequarters" unicode="&#xbe;" horiz-adv-x="931" 
d="M77 428l86 11q-1 -2 -1 -11q0 -67 57 -67q28 0 45.5 17.5t17.5 44.5q0 47 -54 47h-35l14 67h34q31 0 50 16t19 44q0 19 -12.5 31t-32.5 12q-52 0 -63 -68l-83 17q9 55 49 87t101 32q55 0 89.5 -27.5t34.5 -69.5q0 -41 -28 -65.5t-77 -24.5l-6 -31q38 -2 61 -24t23 -53
q0 -52 -42 -86t-107 -34q-68 0 -105.5 36.5t-34.5 98.5zM116 0l639 700h106l-638 -700h-107zM713 0l21 103h-183l15 71l200 225h110l-49 -230h54l-14 -66h-55l-22 -103h-77zM750 169l10 50q9 45 58 91l-23 22l-157 -175l22 -20q32 32 75 32h15z" />
    <glyph glyph-name="questiondown" unicode="&#xbf;" horiz-adv-x="496" 
d="M393 563l-29 -130h-125l27 130h127zM210 161q-60 -38 -84.5 -66t-27.5 -71q0 -41 25 -64.5t70 -23.5q115 0 132 146l95 -20q-6 -97 -70.5 -154.5t-162.5 -57.5q-85 0 -138 48t-53 116q0 48 20 85q20 34 50 61t92 69q47 32 61 50.5t21 60.5h97q-19 -78 -38.5 -105.5
t-88.5 -73.5z" />
    <glyph glyph-name="Agrave" unicode="&#xc0;" horiz-adv-x="693" 
d="M513 0l-25 185h-304l-104 -185h-116l411 700h140l106 -700h-108zM236 276h240l-26 193q-7 43 -7 84q0 32 5 77h-40q-9 -40 -25 -81q-14 -36 -40 -82zM432 770l-87 142h127l21 -142h-61z" />
    <glyph glyph-name="Aacute" unicode="&#xc1;" horiz-adv-x="693" 
d="M513 0l-25 185h-304l-104 -185h-116l411 700h140l106 -700h-108zM236 276h240l-26 193q-7 43 -7 84q0 32 5 77h-40q-9 -40 -25 -81q-14 -36 -40 -82zM422 770l87 142h141l-155 -142h-73z" />
    <glyph glyph-name="Acircumflex" unicode="&#xc2;" horiz-adv-x="693" 
d="M513 0l-25 185h-304l-104 -185h-116l411 700h140l106 -700h-108zM236 276h240l-26 193q-7 43 -7 84q0 32 5 77h-40q-9 -40 -25 -81q-14 -36 -40 -82zM264 770l147 123h146l88 -123h-98l-71 73l-107 -73h-105z" />
    <glyph glyph-name="Atilde" unicode="&#xc3;" horiz-adv-x="693" 
d="M513 0l-25 185h-304l-104 -185h-116l411 700h140l106 -700h-108zM236 276h240l-26 193q-7 43 -7 84q0 32 5 77h-40q-9 -40 -25 -81q-14 -36 -40 -82zM470 787l-27 18q-29 17 -46 17q-42 0 -55 -52h-85q29 124 137 124q43 0 82 -24l28 -18q29 -17 43 -17q38 0 55 46h86
q-28 -121 -135 -121q-39 0 -83 27z" />
    <glyph glyph-name="Adieresis" unicode="&#xc4;" horiz-adv-x="693" 
d="M513 0l-25 185h-304l-104 -185h-116l411 700h140l106 -700h-108zM236 276h240l-26 193q-7 43 -7 84q0 32 5 77h-40q-9 -40 -25 -81q-14 -36 -40 -82zM297 770l24 103h110l-24 -103h-110zM511 770l24 103h110l-24 -103h-110z" />
    <glyph glyph-name="Aring" unicode="&#xc5;" horiz-adv-x="693" 
d="M513 0l-25 185h-304l-104 -185h-116l411 700h140l106 -700h-108zM236 276h240l-26 193q-7 43 -7 84q0 32 5 77h-40q-9 -40 -25 -81q-14 -36 -40 -82zM352 865q0 57 38 94.5t97 37.5q49 0 81.5 -31.5t32.5 -76.5q0 -58 -38.5 -95t-95.5 -37q-50 0 -82.5 31t-32.5 77z
M534 883q0 24 -15 39t-38 15q-26 0 -44.5 -19t-18.5 -47q0 -25 14 -39t39 -14q26 0 44.5 19t18.5 46z" />
    <glyph glyph-name="AE" unicode="&#xc6;" horiz-adv-x="920" 
d="M947 608h-320l-42 -193h236l-19 -91h-236l-49 -232h320l-19 -92h-421l41 191h-230l-144 -191h-128l544 700h486zM554 630h-52q-40 -102 -105 -186l-121 -162h181l40 188q20 91 57 160z" />
    <glyph glyph-name="Ccedilla" unicode="&#xc7;" horiz-adv-x="737" 
d="M605 238l98 -46q-92 -190 -297 -205l-17 -13l-29 -24q3 1 10 1q35 0 60.5 -21.5t25.5 -53.5q0 -43 -32.5 -67.5t-90.5 -24.5q-70 0 -109 46l42 48q27 -32 67 -32q52 0 52 32q0 28 -43 28q-20 0 -33 -5l-22 41l52 45q-129 10 -199 91t-70 209q-1 110 47 208.5t137 159.5
t196 59q119 0 194.5 -60.5t100.5 -149.5l-106 -30q-18 57 -63 104q-43 46 -131 46q-79 2 -142 -47.5t-95.5 -126.5t-31.5 -163q0 -98 54 -154t148 -56q154 0 227 161z" />
    <glyph glyph-name="Egrave" unicode="&#xc8;" horiz-adv-x="641" 
d="M49 0l149 700h490l-20 -92h-389l-43 -200h288l-19 -91h-289l-47 -225h390l-20 -92h-490zM430 770l-87 142h127l21 -142h-61z" />
    <glyph glyph-name="Eacute" unicode="&#xc9;" horiz-adv-x="641" 
d="M49 0l149 700h490l-20 -92h-389l-43 -200h288l-19 -91h-289l-47 -225h390l-20 -92h-490zM420 770l87 142h141l-155 -142h-73z" />
    <glyph glyph-name="Ecircumflex" unicode="&#xca;" horiz-adv-x="645" 
d="M49 0l149 700h490l-20 -92h-389l-43 -200h288l-19 -91h-289l-47 -225h390l-20 -92h-490zM263 770l147 123h146l88 -123h-98l-71 73l-107 -73h-105z" />
    <glyph glyph-name="Edieresis" unicode="&#xcb;" horiz-adv-x="644" 
d="M49 0l149 700h490l-20 -92h-389l-43 -200h288l-19 -91h-289l-47 -225h390l-20 -92h-490zM295 770l24 103h110l-24 -103h-110zM509 770l24 103h110l-24 -103h-110z" />
    <glyph glyph-name="Igrave" unicode="&#xcc;" horiz-adv-x="311" 
d="M49 0l149 700h100l-149 -700h-100zM234 770l-87 142h127l21 -142h-61z" />
    <glyph glyph-name="Iacute" unicode="&#xcd;" horiz-adv-x="302" 
d="M49 0l149 700h100l-149 -700h-100zM224 770l87 142h141l-155 -142h-73z" />
    <glyph glyph-name="Icircumflex" unicode="&#xce;" horiz-adv-x="312" 
d="M49 0l149 700h100l-149 -700h-100zM67 770l147 123h146l88 -123h-98l-71 73l-107 -73h-105z" />
    <glyph glyph-name="Idieresis" unicode="&#xcf;" horiz-adv-x="316" 
d="M49 0l149 700h100l-149 -700h-100zM99 770l24 103h110l-24 -103h-110zM313 770l24 103h110l-24 -103h-110z" />
    <glyph glyph-name="Eth" unicode="&#xd0;" horiz-adv-x="747" 
d="M717 412q2 -177 -110.5 -296t-294.5 -116h-257l69 325h-77l17 81h77l62 294h199q141 0 228 -79.5t87 -208.5zM613 406q0 96 -57.5 149t-166.5 53h-105l-42 -202h149l-17 -81h-149l-50 -233h123q152 0 233.5 86.5t81.5 227.5z" />
    <glyph glyph-name="Ntilde" unicode="&#xd1;" horiz-adv-x="808" 
d="M49 0l149 700h147l243 -580l40 16q-16 50 -16 93t12 99l79 372h100l-149 -700h-119l-259 617l-40 -16q12 -37 12 -87q0 -47 -14 -114l-85 -400h-100zM522 787l-27 18q-29 17 -46 17q-42 0 -55 -52h-85q29 124 137 124q43 0 82 -24l28 -18q29 -17 43 -17q38 0 55 46h86
q-28 -121 -135 -121q-39 0 -83 27z" />
    <glyph glyph-name="Ograve" unicode="&#xd2;" horiz-adv-x="806" 
d="M72 308q-2 105 48.5 199.5t140.5 151.5t195 55q142 0 232 -87t90 -234q2 -108 -48 -202.5t-139.5 -150.5t-195.5 -54q-145 0 -234 85.5t-89 236.5zM674 394q0 104 -58 166.5t-161 62.5q-78 2 -143.5 -43.5t-100.5 -119.5t-34 -157q0 -102 57.5 -164t160.5 -62
q117 -2 199 95t80 222zM474 770l-87 142h127l21 -142h-61z" />
    <glyph glyph-name="Oacute" unicode="&#xd3;" horiz-adv-x="806" 
d="M72 308q-2 105 48.5 199.5t140.5 151.5t195 55q142 0 232 -87t90 -234q2 -108 -48 -202.5t-139.5 -150.5t-195.5 -54q-145 0 -234 85.5t-89 236.5zM674 394q0 104 -58 166.5t-161 62.5q-78 2 -143.5 -43.5t-100.5 -119.5t-34 -157q0 -102 57.5 -164t160.5 -62
q117 -2 199 95t80 222zM464 770l87 142h141l-155 -142h-73z" />
    <glyph glyph-name="Ocircumflex" unicode="&#xd4;" horiz-adv-x="806" 
d="M72 308q-2 105 48.5 199.5t140.5 151.5t195 55q142 0 232 -87t90 -234q2 -108 -48 -202.5t-139.5 -150.5t-195.5 -54q-145 0 -234 85.5t-89 236.5zM674 394q0 104 -58 166.5t-161 62.5q-78 2 -143.5 -43.5t-100.5 -119.5t-34 -157q0 -102 57.5 -164t160.5 -62
q117 -2 199 95t80 222zM306 770l147 123h146l88 -123h-98l-71 73l-107 -73h-105z" />
    <glyph glyph-name="Otilde" unicode="&#xd5;" horiz-adv-x="806" 
d="M72 308q-2 105 48.5 199.5t140.5 151.5t195 55q142 0 232 -87t90 -234q2 -108 -48 -202.5t-139.5 -150.5t-195.5 -54q-145 0 -234 85.5t-89 236.5zM674 394q0 104 -58 166.5t-161 62.5q-78 2 -143.5 -43.5t-100.5 -119.5t-34 -157q0 -102 57.5 -164t160.5 -62
q117 -2 199 95t80 222zM512 787l-27 18q-29 17 -46 17q-42 0 -55 -52h-85q29 124 137 124q43 0 82 -24l28 -18q29 -17 43 -17q38 0 55 46h86q-28 -121 -135 -121q-39 0 -83 27z" />
    <glyph glyph-name="Odieresis" unicode="&#xd6;" horiz-adv-x="806" 
d="M72 308q-2 105 48.5 199.5t140.5 151.5t195 55q142 0 232 -87t90 -234q2 -108 -48 -202.5t-139.5 -150.5t-195.5 -54q-145 0 -234 85.5t-89 236.5zM674 394q0 104 -58 166.5t-161 62.5q-78 2 -143.5 -43.5t-100.5 -119.5t-34 -157q0 -102 57.5 -164t160.5 -62
q117 -2 199 95t80 222zM339 770l24 103h110l-24 -103h-110zM553 770l24 103h110l-24 -103h-110z" />
    <glyph glyph-name="multiply" unicode="&#xd7;" horiz-adv-x="629" 
d="M157 109l-61 61l179 180l-180 179l63 63l180 -179l179 178l61 -61l-178 -178l179 -181l-63 -63l-180 180z" />
    <glyph glyph-name="Oslash" unicode="&#xd8;" horiz-adv-x="808" 
d="M98 -23l-64 63l86 83q-47 79 -47 185q-2 105 48.5 199.5t140.5 151.5t195 55q122 0 205 -64l77 77l65 -64l-79 -78q54 -81 54 -192q2 -108 -48 -202.5t-139.5 -150.5t-195.5 -54q-133 0 -216 70zM197 198l303 295q31 29 56 42t57 17l9 43q-60 28 -164 28
q-119 3 -201 -94.5t-80 -225.5q0 -56 20 -105zM675 394q0 63 -26 118l-314 -304q-55 -53 -113 -60l-9 -43q49 -28 176 -28q81 -2 148.5 43t103 118.5t34.5 155.5z" />
    <glyph glyph-name="Ugrave" unicode="&#xd9;" horiz-adv-x="724" 
d="M89 195q0 35 9 79l90 426h101l-89 -416q-9 -40 -9 -71q0 -134 138 -134q88 0 139 51t72 155l88 415h101l-93 -436q-31 -142 -103.5 -210t-203.5 -68q-112 0 -176 53.5t-64 155.5zM441 770l-87 142h127l21 -142h-61z" />
    <glyph glyph-name="Uacute" unicode="&#xda;" horiz-adv-x="724" 
d="M89 195q0 35 9 79l90 426h101l-89 -416q-9 -40 -9 -71q0 -134 138 -134q88 0 139 51t72 155l88 415h101l-93 -436q-31 -142 -103.5 -210t-203.5 -68q-112 0 -176 53.5t-64 155.5zM429 770l87 142h141l-155 -142h-73z" />
    <glyph glyph-name="Ucircumflex" unicode="&#xdb;" horiz-adv-x="724" 
d="M89 195q0 35 9 79l90 426h101l-89 -416q-9 -40 -9 -71q0 -134 138 -134q88 0 139 51t72 155l88 415h101l-93 -436q-31 -142 -103.5 -210t-203.5 -68q-112 0 -176 53.5t-64 155.5zM272 770l147 123h146l88 -123h-98l-71 73l-107 -73h-105z" />
    <glyph glyph-name="Udieresis" unicode="&#xdc;" horiz-adv-x="724" 
d="M89 195q0 35 9 79l90 426h101l-89 -416q-9 -40 -9 -71q0 -134 138 -134q88 0 139 51t72 155l88 415h101l-93 -436q-31 -142 -103.5 -210t-203.5 -68q-112 0 -176 53.5t-64 155.5zM304 770l24 103h110l-24 -103h-110zM518 770l24 103h110l-24 -103h-110z" />
    <glyph glyph-name="Yacute" unicode="&#xdd;" horiz-adv-x="647" 
d="M223 0l62 293l-165 407h111l81 -209q19 -48 19 -93q0 -15 -5 -50h41q15 85 61 143l162 209h126l-330 -403l-63 -297h-100zM392 770l87 142h141l-155 -142h-73z" />
    <glyph glyph-name="Thorn" unicode="&#xde;" horiz-adv-x="663" 
d="M644 377q0 -101 -76 -166t-195 -65h-192l-32 -146h-100l149 700h100l-27 -127h134q113 0 176 -54t63 -142zM539 376q0 48 -35.5 76.5t-98.5 28.5h-153l-53 -248h174q76 0 121 40t45 103z" />
    <glyph glyph-name="germandbls" unicode="&#xdf;" horiz-adv-x="602" 
d="M204 4l19 83q27 -8 65 -8q73 0 118.5 40.5t45.5 102.5q0 50 -32.5 78t-86.5 28h-47l16 79h34q64 0 105.5 36t41.5 90q0 46 -30 73.5t-81 27.5q-55 0 -91 -35t-49 -98l-107 -501h-95l107 502q46 212 242 212q90 0 145.5 -46.5t55.5 -119.5q0 -66 -46 -109t-120 -49l-8 -46
q66 -3 104 -37t38 -98q0 -93 -73.5 -154.5t-182.5 -61.5q-53 0 -88 11z" />
    <glyph glyph-name="agrave" unicode="&#xe0;" horiz-adv-x="543" 
d="M32 122q0 101 96 149q96 47 254 49l3 14q2 16 2 21q0 76 -100 76q-99 0 -139 -87l-85 37q21 53 79.5 91t144.5 38q91 0 141.5 -39.5t50.5 -111.5q0 -23 -5 -50l-42 -201q-2 -10 -2 -11q0 -16 24 -16h50l-17 -81h-44q-70 0 -70 63q0 15 3 35h-41q-23 -50 -65.5 -81
t-101.5 -31t-97.5 34.5t-38.5 101.5zM358 205l10 46q-102 0 -170.5 -30t-68.5 -91q0 -31 21.5 -49t60.5 -18q49 0 92 39.5t55 102.5zM287 567l-79 141h115l20 -141h-56z" />
    <glyph glyph-name="aacute" unicode="&#xe1;" horiz-adv-x="543" 
d="M32 122q0 101 96 149q96 47 254 49l3 14q2 16 2 21q0 76 -100 76q-99 0 -139 -87l-85 37q21 53 79.5 91t144.5 38q91 0 141.5 -39.5t50.5 -111.5q0 -23 -5 -50l-42 -201q-2 -10 -2 -11q0 -16 24 -16h50l-17 -81h-44q-70 0 -70 63q0 15 3 35h-41q-23 -50 -65.5 -81
t-101.5 -31t-97.5 34.5t-38.5 101.5zM358 205l10 46q-102 0 -170.5 -30t-68.5 -91q0 -31 21.5 -49t60.5 -18q49 0 92 39.5t55 102.5zM280 567l79 141h128l-141 -141h-66z" />
    <glyph glyph-name="acircumflex" unicode="&#xe2;" horiz-adv-x="543" 
d="M32 122q0 101 96 149q96 47 254 49l3 14q2 16 2 21q0 76 -100 76q-99 0 -139 -87l-85 37q21 53 79.5 91t144.5 38q91 0 141.5 -39.5t50.5 -111.5q0 -23 -5 -50l-42 -201q-2 -10 -2 -11q0 -16 24 -16h50l-17 -81h-44q-70 0 -70 63q0 15 3 35h-41q-23 -50 -65.5 -81
t-101.5 -31t-97.5 34.5t-38.5 101.5zM358 205l10 46q-102 0 -170.5 -30t-68.5 -91q0 -31 21.5 -49t60.5 -18q49 0 92 39.5t55 102.5zM137 567l133 123h133l80 -123h-89l-64 73l-97 -73h-96z" />
    <glyph glyph-name="atilde" unicode="&#xe3;" horiz-adv-x="546" 
d="M32 122q0 101 96 149q96 47 254 49l3 14q2 16 2 21q0 76 -100 76q-99 0 -139 -87l-85 37q21 53 79.5 91t144.5 38q91 0 141.5 -39.5t50.5 -111.5q0 -23 -5 -50l-42 -201q-2 -10 -2 -11q0 -16 24 -16h50l-17 -81h-44q-70 0 -70 63q0 15 3 35h-41q-23 -50 -65.5 -81
t-101.5 -31t-97.5 34.5t-38.5 101.5zM358 205l10 46q-102 0 -170.5 -30t-68.5 -91q0 -31 21.5 -49t60.5 -18q49 0 92 39.5t55 102.5zM315 596l-26 18q-25 17 -41 17q-39 0 -50 -51h-77q24 123 124 123q37 0 74 -24l26 -17q25 -18 39 -18q34 0 50 46h78q-24 -121 -123 -121
q-37 0 -74 27z" />
    <glyph glyph-name="adieresis" unicode="&#xe4;" horiz-adv-x="543" 
d="M32 122q0 101 96 149q96 47 254 49l3 14q2 16 2 21q0 76 -100 76q-99 0 -139 -87l-85 37q21 53 79.5 91t144.5 38q91 0 141.5 -39.5t50.5 -111.5q0 -23 -5 -50l-42 -201q-2 -10 -2 -11q0 -16 24 -16h50l-17 -81h-44q-70 0 -70 63q0 15 3 35h-41q-23 -50 -65.5 -81
t-101.5 -31t-97.5 34.5t-38.5 101.5zM358 205l10 46q-102 0 -170.5 -30t-68.5 -91q0 -31 21.5 -49t60.5 -18q49 0 92 39.5t55 102.5zM169 587l22 103h101l-22 -103h-101zM364 587l22 103h100l-22 -103h-100z" />
    <glyph glyph-name="aring" unicode="&#xe5;" horiz-adv-x="543" 
d="M32 122q0 101 96 149q96 47 254 49l3 14q2 16 2 21q0 76 -100 76q-99 0 -139 -87l-85 37q21 53 79.5 91t144.5 38q91 0 141.5 -39.5t50.5 -111.5q0 -23 -5 -50l-42 -201q-2 -10 -2 -11q0 -16 24 -16h50l-17 -81h-44q-70 0 -70 63q0 15 3 35h-41q-23 -50 -65.5 -81
t-101.5 -31t-97.5 34.5t-38.5 101.5zM358 205l10 46q-102 0 -170.5 -30t-68.5 -91q0 -31 21.5 -49t60.5 -18q49 0 92 39.5t55 102.5zM205 652q0 55 36.5 91t92.5 36q46 0 77.5 -31t31.5 -73q0 -54 -37.5 -89.5t-90.5 -35.5q-47 0 -78.5 30t-31.5 72zM379 669q0 24 -14 38
t-36 14q-26 0 -43.5 -18t-17.5 -44q0 -24 13.5 -37.5t37.5 -13.5t42 18t18 43z" />
    <glyph glyph-name="ae" unicode="&#xe6;" horiz-adv-x="861" 
d="M30 122q0 98 96 146.5t255 50.5l5 19q3 12 3 22q0 33 -26.5 52t-76.5 19t-85 -25t-52 -62l-86 37q21 53 80 91t143 38q68 0 108.5 -27.5t50.5 -71.5h38q14 38 53 68.5t96 30.5q85 0 135.5 -55t50.5 -141q0 -42 -14 -90h-348q-4 -19 -4 -38q0 -54 30.5 -87.5t83.5 -33.5
q95 0 150 101l81 -41q-79 -139 -232 -139q-68 0 -114.5 32t-57.5 82h-39q-20 -41 -58 -78q-39 -36 -117 -36q-64 0 -106.5 35t-42.5 101zM471 296h252q2 18 2 29q0 51 -28 80.5t-76 29.5q-49 0 -90.5 -37.5t-59.5 -101.5zM358 204l11 48q-105 -2 -171 -29q-69 -29 -69 -96
q0 -28 22 -46t60 -18q52 0 92.5 36t54.5 105z" />
    <glyph glyph-name="ccedilla" unicode="&#xe7;" horiz-adv-x="538" 
d="M408 178l83 -41q-65 -138 -208 -150l-17 -13l-29 -24q3 1 10 1q35 0 60.5 -21.5t25.5 -53.5q0 -43 -32.5 -67.5t-90.5 -24.5q-70 0 -109 46l42 48q27 -32 67 -32q52 0 52 32q0 28 -43 28q-20 0 -33 -5l-22 41l54 47q-82 11 -129 67t-47 148q-2 75 31 145.5t96 116.5
t140 44q80 0 133 -41.5t70 -109.5l-91 -25q-12 44 -41.5 70t-75.5 26q-76 2 -122 -68t-45 -152q0 -71 36 -107.5t90 -36.5q93 0 145 112z" />
    <glyph glyph-name="egrave" unicode="&#xe8;" horiz-adv-x="539" 
d="M41 196q-2 75 30.5 147t94.5 120.5t137 46.5q89 0 141 -54.5t52 -142.5q0 -41 -14 -89h-347q-4 -19 -4 -39q0 -54 30.5 -87t84.5 -33q49 0 87 28.5t62 72.5l81 -41q-79 -139 -233 -139q-93 0 -147.5 54t-54.5 156zM150 299h251q2 18 2 27q0 49 -28 79t-76 30
q-49 0 -90 -37t-59 -99zM305 567l-79 141h115l20 -141h-56z" />
    <glyph glyph-name="eacute" unicode="&#xe9;" horiz-adv-x="539" 
d="M41 196q-2 75 30.5 147t94.5 120.5t137 46.5q89 0 141 -54.5t52 -142.5q0 -41 -14 -89h-347q-4 -19 -4 -39q0 -54 30.5 -87t84.5 -33q49 0 87 28.5t62 72.5l81 -41q-79 -139 -233 -139q-93 0 -147.5 54t-54.5 156zM150 299h251q2 18 2 27q0 49 -28 79t-76 30
q-49 0 -90 -37t-59 -99zM298 567l79 141h128l-141 -141h-66z" />
    <glyph glyph-name="ecircumflex" unicode="&#xea;" horiz-adv-x="539" 
d="M41 196q-2 75 30.5 147t94.5 120.5t137 46.5q89 0 141 -54.5t52 -142.5q0 -41 -14 -89h-347q-4 -19 -4 -39q0 -54 30.5 -87t84.5 -33q49 0 87 28.5t62 72.5l81 -41q-79 -139 -233 -139q-93 0 -147.5 54t-54.5 156zM150 299h251q2 18 2 27q0 49 -28 79t-76 30
q-49 0 -90 -37t-59 -99zM155 567l133 123h133l80 -123h-89l-64 73l-97 -73h-96z" />
    <glyph glyph-name="edieresis" unicode="&#xeb;" horiz-adv-x="539" 
d="M41 196q-2 75 30.5 147t94.5 120.5t137 46.5q89 0 141 -54.5t52 -142.5q0 -41 -14 -89h-347q-4 -19 -4 -39q0 -54 30.5 -87t84.5 -33q49 0 87 28.5t62 72.5l81 -41q-79 -139 -233 -139q-93 0 -147.5 54t-54.5 156zM150 299h251q2 18 2 27q0 49 -28 79t-76 30
q-49 0 -90 -37t-59 -99zM188 587l22 103h101l-22 -103h-101zM383 587l22 103h100l-22 -103h-100z" />
    <glyph glyph-name="igrave" unicode="&#xec;" horiz-adv-x="259" 
d="M30 0l106 496h94l-105 -496h-95zM173 567l-79 141h115l20 -141h-56z" />
    <glyph glyph-name="iacute" unicode="&#xed;" horiz-adv-x="259" 
d="M30 0l106 496h94l-105 -496h-95zM166 567l79 141h128l-141 -141h-66z" />
    <glyph glyph-name="icircumflex" unicode="&#xee;" horiz-adv-x="259" 
d="M30 0l106 496h94l-105 -496h-95zM23 567l133 123h133l80 -123h-89l-64 73l-97 -73h-96z" />
    <glyph glyph-name="idieresis" unicode="&#xef;" horiz-adv-x="259" 
d="M30 0l106 496h94l-105 -496h-95zM56 587l22 103h101l-22 -103h-101zM251 587l22 103h100l-22 -103h-100z" />
    <glyph glyph-name="eth" unicode="&#xf0;" horiz-adv-x="585" 
d="M595 667l-91 -65q44 -76 44 -189q2 -106 -33 -203.5t-106 -161.5t-161 -62q-96 0 -152.5 54t-56.5 144q-2 104 67.5 187.5t164.5 81.5q63 0 100.5 -33t47.5 -87h41q5 32 5 58q0 90 -38 155l-78 -57l-36 53l73 54q-44 37 -110 37q-54 0 -111 -18l17 83q54 16 107 16
q106 0 174 -62l93 68zM405 246q0 57 -33.5 92t-88.5 35q-64 0 -106 -55.5t-42 -132.5q0 -51 33 -84.5t81 -33.5q68 0 112 54t44 125z" />
    <glyph glyph-name="ntilde" unicode="&#xf1;" horiz-adv-x="582" 
d="M30 0l106 496h89q-8 -33 -67 -106h54q22 44 60 82q40 38 101 38q69 0 110.5 -42t41.5 -114q0 -27 -6 -57l-64 -297h-95l64 301q4 19 4 39q0 41 -22.5 64.5t-63.5 23.5q-64 0 -107.5 -58.5t-60.5 -139.5l-49 -230h-95zM363 596l-26 18q-25 17 -41 17q-39 0 -50 -51h-77
q24 123 124 123q37 0 74 -24l26 -17q26 -18 39 -18q34 0 50 46h78q-24 -121 -123 -121q-36 0 -74 27z" />
    <glyph glyph-name="ograve" unicode="&#xf2;" horiz-adv-x="560" 
d="M41 195q-2 78 32.5 151t99 119.5t141.5 44.5q94 0 150 -58.5t56 -152.5q1 -80 -32.5 -152t-97.5 -117.5t-143 -43.5q-96 0 -151 57t-55 152zM424 299q0 62 -31.5 96t-84.5 34q-52 2 -92.5 -34t-60 -89.5t-18.5 -110.5q0 -62 31 -95t84 -33q78 0 125 70.5t47 161.5z
M316 567l-79 141h115l20 -141h-56z" />
    <glyph glyph-name="oacute" unicode="&#xf3;" horiz-adv-x="560" 
d="M41 195q-2 78 32.5 151t99 119.5t141.5 44.5q94 0 150 -58.5t56 -152.5q1 -80 -32.5 -152t-97.5 -117.5t-143 -43.5q-96 0 -151 57t-55 152zM424 299q0 62 -31.5 96t-84.5 34q-52 2 -92.5 -34t-60 -89.5t-18.5 -110.5q0 -62 31 -95t84 -33q78 0 125 70.5t47 161.5z
M309 567l79 141h128l-141 -141h-66z" />
    <glyph glyph-name="ocircumflex" unicode="&#xf4;" horiz-adv-x="560" 
d="M41 195q-2 78 32.5 151t99 119.5t141.5 44.5q94 0 150 -58.5t56 -152.5q1 -80 -32.5 -152t-97.5 -117.5t-143 -43.5q-96 0 -151 57t-55 152zM424 299q0 62 -31.5 96t-84.5 34q-52 2 -92.5 -34t-60 -89.5t-18.5 -110.5q0 -62 31 -95t84 -33q78 0 125 70.5t47 161.5z
M166 567l133 123h133l80 -123h-89l-64 73l-97 -73h-96z" />
    <glyph glyph-name="otilde" unicode="&#xf5;" horiz-adv-x="560" 
d="M41 195q-2 78 32.5 151t99 119.5t141.5 44.5q94 0 150 -58.5t56 -152.5q1 -80 -32.5 -152t-97.5 -117.5t-143 -43.5q-96 0 -151 57t-55 152zM424 299q0 62 -31.5 96t-84.5 34q-52 2 -92.5 -34t-60 -89.5t-18.5 -110.5q0 -62 31 -95t84 -33q78 0 125 70.5t47 161.5z
M345 596l-26 18q-25 17 -41 17q-39 0 -50 -51h-77q24 123 124 123q37 0 74 -24l26 -17q26 -18 39 -18q34 0 50 46h78q-24 -121 -123 -121q-37 0 -74 27z" />
    <glyph glyph-name="odieresis" unicode="&#xf6;" horiz-adv-x="560" 
d="M41 195q-2 78 32.5 151t99 119.5t141.5 44.5q94 0 150 -58.5t56 -152.5q1 -80 -32.5 -152t-97.5 -117.5t-143 -43.5q-96 0 -151 57t-55 152zM424 299q0 62 -31.5 96t-84.5 34q-52 2 -92.5 -34t-60 -89.5t-18.5 -110.5q0 -62 31 -95t84 -33q78 0 125 70.5t47 161.5z
M199 587l22 103h101l-22 -103h-101zM394 587l22 103h100l-22 -103h-100z" />
    <glyph glyph-name="divide" unicode="&#xf7;" horiz-adv-x="648" 
d="M284 493v127h127v-127h-127zM80 307v91h534v-91h-534zM284 85v127h127v-127h-127z" />
    <glyph glyph-name="oslash" unicode="&#xf8;" horiz-adv-x="562" 
d="M108 32l-52 -51l-47 49l57 55q-25 46 -25 110q-2 78 33 151t99.5 119.5t140.5 44.5q85 0 140 -49l52 52l46 -47l-57 -56q26 -50 26 -111q1 -80 -33 -152t-98 -117.5t-143 -43.5q-84 0 -139 46zM141 158l173 168q31 28 48 35.5t44 6.5l8 38q-43 26 -98 26q-77 0 -128 -68
t-51 -171q0 -15 4 -35zM424 302q0 9 -1.5 21.5t-1.5 13.5l-171 -167q-47 -47 -95 -48l-8 -39q38 -19 91 -19q82 0 134 67t52 171z" />
    <glyph glyph-name="ugrave" unicode="&#xf9;" horiz-adv-x="576" 
d="M58 141q0 28 6 58l64 297h95l-64 -301q-5 -22 -5 -38q0 -42 22.5 -66t61.5 -24q68 0 108 60q42 62 58 139l49 230h95l-106 -496h-80q14 56 68 116h-56q-31 -58 -70 -93.5t-101 -36.5q-65 0 -105 41.5t-40 113.5zM323 567l-79 141h115l20 -141h-56z" />
    <glyph glyph-name="uacute" unicode="&#xfa;" horiz-adv-x="576" 
d="M58 141q0 28 6 58l64 297h95l-64 -301q-5 -22 -5 -38q0 -42 22.5 -66t61.5 -24q68 0 108 60q42 62 58 139l49 230h95l-106 -496h-80q14 56 68 116h-56q-31 -58 -70 -93.5t-101 -36.5q-65 0 -105 41.5t-40 113.5zM316 567l79 141h128l-141 -141h-66z" />
    <glyph glyph-name="ucircumflex" unicode="&#xfb;" horiz-adv-x="582" 
d="M58 141q0 28 6 58l64 297h95l-64 -301q-5 -22 -5 -38q0 -42 22.5 -66t61.5 -24q68 0 108 60q42 62 58 139l49 230h95l-106 -496h-80q14 56 68 116h-56q-31 -58 -70 -93.5t-101 -36.5q-65 0 -105 41.5t-40 113.5zM173 567l133 123h133l80 -123h-89l-64 73l-97 -73h-96z
" />
    <glyph glyph-name="udieresis" unicode="&#xfc;" horiz-adv-x="576" 
d="M58 141q0 28 6 58l64 297h95l-64 -301q-5 -22 -5 -38q0 -42 22.5 -66t61.5 -24q68 0 108 60q42 62 58 139l49 230h95l-106 -496h-80q14 56 68 116h-56q-31 -58 -70 -93.5t-101 -36.5q-65 0 -105 41.5t-40 113.5zM206 587l22 103h101l-22 -103h-101zM401 587l22 103h100
l-22 -103h-100z" />
    <glyph glyph-name="yacute" unicode="&#xfd;" horiz-adv-x="508" 
d="M433 496h105l-316 -573q-43 -72 -75 -95t-96 -23h-110l18 84h93q28 0 45.5 10t31.5 36l42 75l-110 486h101l48 -246q6 -32 6 -69q0 -41 -8 -81h47q12 84 47 150zM272 567l79 141h128l-141 -141h-66z" />
    <glyph glyph-name="thorn" unicode="&#xfe;" horiz-adv-x="582" 
d="M-12 -195l191 895h95l-27 -125q-19 -94 -95 -177h60q56 112 157 112q75 0 124 -55.5t49 -146.5q2 -126 -72 -225.5t-178 -96.5q-62 0 -97 36t-45 94h-55q27 -56 27 -106q0 -29 -7 -56l-32 -149h-95zM446 300q0 63 -30 96.5t-81 33.5q-66 3 -117.5 -73t-49.5 -158
q0 -133 110 -133q70 -3 120 72t48 162z" />
    <glyph glyph-name="ydieresis" unicode="&#xff;" horiz-adv-x="508" 
d="M433 496h105l-316 -573q-43 -72 -75 -95t-96 -23h-110l18 84h93q28 0 45.5 10t31.5 36l42 75l-110 486h101l48 -246q6 -32 6 -69q0 -41 -8 -81h47q12 84 47 150zM162 587l22 103h101l-22 -103h-101zM357 587l22 103h100l-22 -103h-100z" />
    <glyph glyph-name="Amacron" unicode="&#x100;" horiz-adv-x="693" 
d="M513 0l-25 185h-304l-104 -185h-116l411 700h140l106 -700h-108zM236 276h240l-26 193q-7 43 -7 84q0 32 5 77h-40q-9 -40 -25 -81q-14 -36 -40 -82zM302 788l16 72h334l-16 -72h-334z" />
    <glyph glyph-name="amacron" unicode="&#x101;" horiz-adv-x="543" 
d="M32 122q0 101 96 149q96 47 254 49l3 14q2 16 2 21q0 76 -100 76q-99 0 -139 -87l-85 37q21 53 79.5 91t144.5 38q91 0 141.5 -39.5t50.5 -111.5q0 -23 -5 -50l-42 -201q-2 -10 -2 -11q0 -16 24 -16h50l-17 -81h-44q-70 0 -70 63q0 15 3 35h-41q-23 -50 -65.5 -81
t-101.5 -31t-97.5 34.5t-38.5 101.5zM358 205l10 46q-102 0 -170.5 -30t-68.5 -91q0 -31 21.5 -49t60.5 -18q49 0 92 39.5t55 102.5zM168 591l15 72h304l-16 -72h-303z" />
    <glyph glyph-name="Abreve" unicode="&#x102;" horiz-adv-x="693" 
d="M513 0l-25 185h-304l-104 -185h-116l411 700h140l106 -700h-108zM236 276h240l-26 193q-7 43 -7 84q0 32 5 77h-40q-9 -40 -25 -81q-14 -36 -40 -82zM327 871q0 8 2 22h79v-8q0 -27 17 -42.5t50 -15.5q69 0 94 66h88q-15 -57 -60.5 -95.5t-122.5 -38.5q-72 0 -109.5 32
t-37.5 80z" />
    <glyph glyph-name="abreve" unicode="&#x103;" horiz-adv-x="543" 
d="M32 122q0 101 96 149q96 47 254 49l3 14q2 16 2 21q0 76 -100 76q-99 0 -139 -87l-85 37q21 53 79.5 91t144.5 38q91 0 141.5 -39.5t50.5 -111.5q0 -23 -5 -50l-42 -201q-2 -10 -2 -11q0 -16 24 -16h50l-17 -81h-44q-70 0 -70 63q0 15 3 35h-41q-23 -50 -65.5 -81
t-101.5 -31t-97.5 34.5t-38.5 101.5zM358 205l10 46q-102 0 -170.5 -30t-68.5 -91q0 -31 21.5 -49t60.5 -18q49 0 92 39.5t55 102.5zM188 667q0 9 2 23h72q-3 -30 12.5 -48t47.5 -18q64 0 86 66h80q-12 -56 -54 -95t-113 -39q-65 0 -99 32t-34 79z" />
    <glyph glyph-name="Aogonek" unicode="&#x104;" horiz-adv-x="693" 
d="M497 -95q0 -36 51 -36q18 0 46 6l-15 -74q-31 -7 -59 -7q-48 0 -75.5 22.5t-27.5 62.5q0 67 96 121l-25 185h-304l-104 -185h-116l411 700h140l106 -700h-1q-123 -44 -123 -95zM236 276h240l-26 193q-7 43 -7 84q0 32 5 77h-40q-9 -40 -25 -81q-14 -36 -40 -82z" />
    <glyph glyph-name="aogonek" unicode="&#x105;" horiz-adv-x="543" 
d="M454 81h50l-17 -81q-123 -43 -123 -95q0 -36 51 -36q17 0 45 6l-15 -74q-29 -7 -59 -7q-47 0 -75 22.5t-28 62.5q0 73 114 131q-24 15 -24 53q0 15 3 35h-41q-23 -50 -65.5 -81t-101.5 -31t-97.5 34.5t-38.5 101.5q0 101 96 149q96 47 254 49l3 14q2 16 2 21
q0 76 -100 76q-99 0 -139 -87l-85 37q21 53 79.5 91t144.5 38q91 0 141.5 -39.5t50.5 -111.5q0 -23 -5 -50l-42 -201q-2 -10 -2 -11q0 -16 24 -16zM358 205l10 46q-102 0 -170.5 -30t-68.5 -91q0 -31 21.5 -49t60.5 -18q49 0 92 39.5t55 102.5z" />
    <glyph glyph-name="Cacute" unicode="&#x106;" horiz-adv-x="737" 
d="M70 287q-1 110 47 208.5t137 159.5t196 59q119 0 194.5 -60.5t100.5 -149.5l-106 -30q-18 57 -63 104q-43 46 -131 46q-79 2 -142 -47.5t-95.5 -126.5t-31.5 -163q0 -98 54 -154t148 -56q154 0 227 161l98 -46q-45 -95 -127.5 -150.5t-200.5 -55.5q-146 0 -225.5 82
t-79.5 219zM456 770l87 142h141l-155 -142h-73z" />
    <glyph glyph-name="cacute" unicode="&#x107;" horiz-adv-x="538" 
d="M42 204q-2 118 75 213.5t193 92.5q80 0 133 -41.5t70 -109.5l-91 -25q-12 44 -41.5 70t-75.5 26q-76 2 -122 -68t-45 -152q0 -71 35.5 -107.5t90.5 -36.5q93 0 145 112l83 -41q-70 -151 -233 -151q-98 0 -157.5 57.5t-59.5 160.5zM308 567l79 141h128l-141 -141h-66z" />
    <glyph glyph-name="Ccircumflex" unicode="&#x108;" horiz-adv-x="737" 
d="M70 287q-1 110 47 208.5t137 159.5t196 59q119 0 194.5 -60.5t100.5 -149.5l-106 -30q-18 57 -63 104q-43 46 -131 46q-79 2 -142 -47.5t-95.5 -126.5t-31.5 -163q0 -98 54 -154t148 -56q154 0 227 161l98 -46q-45 -95 -127.5 -150.5t-200.5 -55.5q-146 0 -225.5 82
t-79.5 219zM298 770l147 123h146l88 -123h-98l-71 73l-107 -73h-105z" />
    <glyph glyph-name="ccircumflex" unicode="&#x109;" horiz-adv-x="538" 
d="M42 204q-2 118 75 213.5t193 92.5q80 0 133 -41.5t70 -109.5l-91 -25q-12 44 -41.5 70t-75.5 26q-76 2 -122 -68t-45 -152q0 -71 35.5 -107.5t90.5 -36.5q93 0 145 112l83 -41q-70 -151 -233 -151q-98 0 -157.5 57.5t-59.5 160.5zM165 567l133 123h133l80 -123h-89
l-64 73l-97 -73h-96z" />
    <glyph glyph-name="Cdotaccent" unicode="&#x10a;" horiz-adv-x="737" 
d="M70 287q-1 110 47 208.5t137 159.5t196 59q119 0 194.5 -60.5t100.5 -149.5l-106 -30q-18 57 -63 104q-43 46 -131 46q-79 2 -142 -47.5t-95.5 -126.5t-31.5 -163q0 -98 54 -154t148 -56q154 0 227 161l98 -46q-45 -95 -127.5 -150.5t-200.5 -55.5q-146 0 -225.5 82
t-79.5 219zM447 770l24 112h98l-24 -112h-98z" />
    <glyph glyph-name="cdotaccent" unicode="&#x10b;" horiz-adv-x="538" 
d="M42 204q-2 118 75 213.5t193 92.5q80 0 133 -41.5t70 -109.5l-91 -25q-12 44 -41.5 70t-75.5 26q-76 2 -122 -68t-45 -152q0 -71 35.5 -107.5t90.5 -36.5q93 0 145 112l83 -41q-70 -151 -233 -151q-98 0 -157.5 57.5t-59.5 160.5zM297 588l24 112h98l-24 -112h-98z" />
    <glyph glyph-name="Ccaron" unicode="&#x10c;" horiz-adv-x="737" 
d="M70 287q-1 110 47 208.5t137 159.5t196 59q119 0 194.5 -60.5t100.5 -149.5l-106 -30q-18 57 -63 104q-43 46 -131 46q-79 2 -142 -47.5t-95.5 -126.5t-31.5 -163q0 -98 54 -154t148 -56q154 0 227 161l98 -46q-45 -95 -127.5 -150.5t-200.5 -55.5q-146 0 -225.5 82
t-79.5 219zM704 891l-147 -123h-146l-88 123h98l71 -73l107 73h105z" />
    <glyph glyph-name="ccaron" unicode="&#x10d;" horiz-adv-x="538" 
d="M42 204q-2 118 75 213.5t193 92.5q80 0 133 -41.5t70 -109.5l-91 -25q-12 44 -41.5 70t-75.5 26q-76 2 -122 -68t-45 -152q0 -71 35.5 -107.5t90.5 -36.5q93 0 145 112l83 -41q-70 -151 -233 -151q-98 0 -157.5 57.5t-59.5 160.5zM279 567l-80 123h87l65 -74l97 74h97
l-133 -123h-133z" />
    <glyph glyph-name="Dcaron" unicode="&#x10e;" horiz-adv-x="739" 
d="M50 0l148 700h199q141 0 228 -79.5t87 -208.5q2 -177 -111 -296t-294 -116h-257zM170 92h122q153 0 234.5 86.5t81.5 227.5q0 96 -57.5 149t-167.5 53h-104zM646 891l-147 -123h-146l-88 123h98l71 -73l107 73h105z" />
    <glyph glyph-name="dcaron" unicode="&#x10f;" horiz-adv-x="622" 
d="M41 188q-1 81 30.5 156t88 121.5t120.5 44.5q126 0 154 -132h51q-24 44 -24 93q0 32 11 85l29 144h96l-150 -700h-82q4 17 23 48q20 31 38 49h-56q-65 -111 -158 -111q-74 0 -122.5 55t-48.5 147zM415 297q0 133 -110 133q-71 2 -120.5 -72.5t-47.5 -162.5
q0 -62 30 -95.5t81 -33.5q66 -3 117.5 73t49.5 158zM593 472l92 118h-54l24 111h109l-25 -116l-88 -113h-58z" />
    <glyph glyph-name="Dcroat" unicode="&#x110;" horiz-adv-x="747" 
d="M717 412q2 -177 -110.5 -296t-294.5 -116h-257l69 325h-77l17 81h77l62 294h199q141 0 228 -79.5t87 -208.5zM613 406q0 96 -57.5 149t-166.5 53h-105l-42 -202h149l-17 -81h-149l-50 -233h123q152 0 233.5 86.5t81.5 227.5z" />
    <glyph glyph-name="dcroat" unicode="&#x111;" horiz-adv-x="581" 
d="M659 625l-14 -67h-79l-119 -558h-82q4 17 23 48q20 31 38 49h-56q-65 -111 -158 -111q-74 0 -122.5 55t-48.5 147q-1 81 30.5 156t88 121.5t120.5 44.5q126 0 154 -132h51q-24 44 -24 93q0 32 11 85v2h-166l13 67h167l15 75h96l-16 -75h78zM415 297q0 133 -110 133
q-71 2 -120.5 -72.5t-47.5 -162.5q0 -62 30 -95.5t81 -33.5q66 -3 117.5 73t49.5 158z" />
    <glyph glyph-name="Emacron" unicode="&#x112;" horiz-adv-x="641" 
d="M49 0l149 700h490l-20 -92h-389l-43 -200h288l-19 -91h-289l-47 -225h390l-20 -92h-490zM293 788l16 72h334l-16 -72h-334z" />
    <glyph glyph-name="emacron" unicode="&#x113;" horiz-adv-x="539" 
d="M41 196q-2 75 30.5 147t94.5 120.5t137 46.5q89 0 141 -54.5t52 -142.5q0 -41 -14 -89h-347q-4 -19 -4 -39q0 -54 30.5 -87t84.5 -33q49 0 87 28.5t62 72.5l81 -41q-79 -139 -233 -139q-93 0 -147.5 54t-54.5 156zM150 299h251q2 18 2 27q0 49 -28 79t-76 30
q-49 0 -90 -37t-59 -99zM186 591l15 72h304l-16 -72h-303z" />
    <glyph glyph-name="Ebreve" unicode="&#x114;" horiz-adv-x="641" 
d="M49 0l149 700h490l-20 -92h-389l-43 -200h288l-19 -91h-289l-47 -225h390l-20 -92h-490zM326 871q0 8 2 22h79v-8q0 -27 17 -42.5t50 -15.5q69 0 94 66h88q-15 -57 -60.5 -95.5t-122.5 -38.5q-72 0 -109.5 32t-37.5 80z" />
    <glyph glyph-name="ebreve" unicode="&#x115;" horiz-adv-x="539" 
d="M41 196q-2 75 30.5 147t94.5 120.5t137 46.5q89 0 141 -54.5t52 -142.5q0 -41 -14 -89h-347q-4 -19 -4 -39q0 -54 30.5 -87t84.5 -33q49 0 87 28.5t62 72.5l81 -41q-79 -139 -233 -139q-93 0 -147.5 54t-54.5 156zM150 299h251q2 18 2 27q0 49 -28 79t-76 30
q-49 0 -90 -37t-59 -99zM207 667q0 9 2 23h72q-3 -30 12.5 -48t47.5 -18q64 0 86 66h80q-12 -56 -54.5 -95t-112.5 -39q-65 0 -99 32t-34 79z" />
    <glyph glyph-name="Edotaccent" unicode="&#x116;" horiz-adv-x="641" 
d="M49 0l149 700h490l-20 -92h-389l-43 -200h288l-19 -91h-289l-47 -225h390l-20 -92h-490zM412 770l24 112h98l-24 -112h-98z" />
    <glyph glyph-name="edotaccent" unicode="&#x117;" horiz-adv-x="539" 
d="M41 196q-2 75 30.5 147t94.5 120.5t137 46.5q89 0 141 -54.5t52 -142.5q0 -41 -14 -89h-347q-4 -19 -4 -39q0 -54 30.5 -87t84.5 -33q49 0 87 28.5t62 72.5l81 -41q-79 -139 -233 -139q-93 0 -147.5 54t-54.5 156zM150 299h251q2 18 2 27q0 49 -28 79t-76 30
q-49 0 -90 -37t-59 -99zM287 588l24 112h98l-24 -112h-98z" />
    <glyph glyph-name="Eogonek" unicode="&#x118;" horiz-adv-x="641" 
d="M668 608h-389l-43 -200h288l-19 -91h-289l-47 -225h390l-20 -92q-123 -44 -123 -95q0 -36 51 -36q17 0 46 6l-15 -74q-31 -7 -60 -7q-47 0 -75 22.5t-28 62.5q0 67 96 121h-382l149 700h490z" />
    <glyph glyph-name="eogonek" unicode="&#x119;" horiz-adv-x="539" 
d="M303 510q89 0 141 -54.5t52 -142.5q0 -41 -14 -89h-347q-4 -19 -4 -39q0 -54 30.5 -87t84.5 -33q49 0 87 28.5t62 72.5l81 -41q-55 -99 -154 -130q-113 -39 -113 -90q0 -36 52 -36q17 0 45 6l-15 -74q-29 -7 -59 -7q-47 0 -75 22.5t-28 62.5q0 58 76 109q-78 12 -121 65
t-43 143q-2 75 30.5 147t94.5 120.5t137 46.5zM150 299h251q2 18 2 27q0 49 -28 79t-76 30q-49 0 -90 -37t-59 -99z" />
    <glyph glyph-name="Ecaron" unicode="&#x11a;" horiz-adv-x="641" 
d="M49 0l149 700h490l-20 -92h-389l-43 -200h288l-19 -91h-289l-47 -225h390l-20 -92h-490zM668 891l-147 -123h-146l-88 123h98l71 -73l107 73h105z" />
    <glyph glyph-name="ecaron" unicode="&#x11b;" horiz-adv-x="539" 
d="M41 196q-2 75 30.5 147t94.5 120.5t137 46.5q89 0 141 -54.5t52 -142.5q0 -41 -14 -89h-347q-4 -19 -4 -39q0 -54 30.5 -87t84.5 -33q49 0 87 28.5t62 72.5l81 -41q-79 -139 -233 -139q-93 0 -147.5 54t-54.5 156zM150 299h251q2 18 2 27q0 49 -28 79t-76 30
q-49 0 -90 -37t-59 -99zM269 567l-80 123h87l65 -74l97 74h97l-133 -123h-133z" />
    <glyph glyph-name="Gcircumflex" unicode="&#x11c;" horiz-adv-x="773" 
d="M70 288q-2 107 45.5 205t138.5 160.5t202 60.5q119 0 197.5 -59.5t102.5 -152.5l-107 -32q-21 68 -73 110t-129 42q-78 2 -141.5 -46.5t-97 -124.5t-32.5 -161q0 -102 55.5 -157.5t145.5 -55.5q89 0 154.5 55.5t78.5 120.5h-237l19 92h342l-73 -345h-94q8 33 27 73
q21 43 39 67h-49q-28 -57 -86 -106q-57 -48 -147 -48q-125 0 -203 79.5t-78 222.5zM298 770l147 123h146l88 -123h-98l-71 73l-107 -73h-105z" />
    <glyph glyph-name="gcircumflex" unicode="&#x11d;" horiz-adv-x="582" 
d="M-33 -101q0 74 86 101l9 37q-39 19 -39 55q0 31 24.5 57t68.5 39l9 38q-33 32 -33 94q0 75 59 132.5t144 57.5q70 0 108 -30.5t48 -69.5h38q17 86 86 86h45l-16 -79h-40q-33 0 -46.5 -13t-22.5 -55l-9 -34q-19 -83 -70.5 -127t-132.5 -44q-67 0 -116 25
q-25 -9 -41.5 -24.5t-16.5 -30.5q0 -31 47 -31h190q71 0 109.5 -37t38.5 -89q0 -72 -48.5 -112t-142.5 -40h-214q-58 0 -90 28t-32 66zM402 343q0 39 -26 65.5t-71 26.5q-51 0 -85.5 -36.5t-34.5 -88.5q0 -41 26 -66.5t72 -25.5q52 0 85.5 36t33.5 89zM127 -115h184
q87 0 87 66q0 49 -67 49h-227q-53 -25 -53 -64q0 -51 76 -51zM160 567l133 123h133l80 -123h-89l-64 73l-97 -73h-96z" />
    <glyph glyph-name="Gbreve" unicode="&#x11e;" horiz-adv-x="773" 
d="M70 288q-2 107 45.5 205t138.5 160.5t202 60.5q119 0 197.5 -59.5t102.5 -152.5l-107 -32q-21 68 -73 110t-129 42q-78 2 -141.5 -46.5t-97 -124.5t-32.5 -161q0 -102 55.5 -157.5t145.5 -55.5q89 0 154.5 55.5t78.5 120.5h-237l19 92h342l-73 -345h-94q8 33 27 73
q21 43 39 67h-49q-28 -57 -86 -106q-57 -48 -147 -48q-125 0 -203 79.5t-78 222.5zM360 871q0 8 2 22h79v-8q0 -27 17 -42.5t50 -15.5q69 0 94 66h88q-15 -57 -60.5 -95.5t-122.5 -38.5q-72 0 -109.5 32t-37.5 80z" />
    <glyph glyph-name="gbreve" unicode="&#x11f;" horiz-adv-x="582" 
d="M-33 -101q0 74 86 101l9 37q-39 19 -39 55q0 31 24.5 57t68.5 39l9 38q-33 32 -33 94q0 75 59 132.5t144 57.5q70 0 108 -30.5t48 -69.5h38q17 86 86 86h45l-16 -79h-40q-33 0 -46.5 -13t-22.5 -55l-9 -34q-19 -83 -70.5 -127t-132.5 -44q-67 0 -116 25
q-25 -9 -41.5 -24.5t-16.5 -30.5q0 -31 47 -31h190q71 0 109.5 -37t38.5 -89q0 -72 -48.5 -112t-142.5 -40h-214q-58 0 -90 28t-32 66zM402 343q0 39 -26 65.5t-71 26.5q-51 0 -85.5 -36.5t-34.5 -88.5q0 -41 26 -66.5t72 -25.5q52 0 85.5 36t33.5 89zM127 -115h184
q87 0 87 66q0 49 -67 49h-227q-53 -25 -53 -64q0 -51 76 -51zM212 667q0 9 2 23h72q-3 -30 12.5 -48t47.5 -18q64 0 86 66h80q-12 -56 -54 -95t-113 -39q-65 0 -99 32t-34 79z" />
    <glyph glyph-name="Gdotaccent" unicode="&#x120;" horiz-adv-x="773" 
d="M70 288q-2 107 45.5 205t138.5 160.5t202 60.5q119 0 197.5 -59.5t102.5 -152.5l-107 -32q-21 68 -73 110t-129 42q-78 2 -141.5 -46.5t-97 -124.5t-32.5 -161q0 -102 55.5 -157.5t145.5 -55.5q89 0 154.5 55.5t78.5 120.5h-237l19 92h342l-73 -345h-94q8 33 27 73
q21 43 39 67h-49q-28 -57 -86 -106q-57 -48 -147 -48q-125 0 -203 79.5t-78 222.5zM447 770l24 112h98l-24 -112h-98z" />
    <glyph glyph-name="gdotaccent" unicode="&#x121;" horiz-adv-x="582" 
d="M-33 -101q0 74 86 101l9 37q-39 19 -39 55q0 31 24.5 57t68.5 39l9 38q-33 32 -33 94q0 75 59 132.5t144 57.5q70 0 108 -30.5t48 -69.5h38q17 86 86 86h45l-16 -79h-40q-33 0 -46.5 -13t-22.5 -55l-9 -34q-19 -83 -70.5 -127t-132.5 -44q-67 0 -116 25
q-25 -9 -41.5 -24.5t-16.5 -30.5q0 -31 47 -31h190q71 0 109.5 -37t38.5 -89q0 -72 -48.5 -112t-142.5 -40h-214q-58 0 -90 28t-32 66zM402 343q0 39 -26 65.5t-71 26.5q-51 0 -85.5 -36.5t-34.5 -88.5q0 -41 26 -66.5t72 -25.5q52 0 85.5 36t33.5 89zM127 -115h184
q87 0 87 66q0 49 -67 49h-227q-53 -25 -53 -64q0 -51 76 -51zM292 588l24 112h98l-24 -112h-98z" />
    <glyph glyph-name="uni0122" unicode="&#x122;" horiz-adv-x="773" 
d="M70 288q-2 107 45.5 205t138.5 160.5t202 60.5q119 0 197.5 -59.5t102.5 -152.5l-107 -32q-21 68 -73 110t-129 42q-78 2 -141.5 -46.5t-97 -124.5t-32.5 -161q0 -102 55.5 -157.5t145.5 -55.5q89 0 154.5 55.5t78.5 120.5h-237l19 92h342l-73 -345h-94q8 33 27 73
q21 43 39 67h-49q-28 -57 -86 -106q-57 -48 -147 -48q-125 0 -203 79.5t-78 222.5zM231 -313l92 118h-54l24 111h109l-25 -116l-88 -113h-58z" />
    <glyph glyph-name="uni0123" unicode="&#x123;" horiz-adv-x="582" 
d="M-33 -101q0 74 86 101l9 37q-39 19 -39 55q0 31 24.5 57t68.5 39l9 38q-33 32 -33 94q0 75 59 132.5t144 57.5q70 0 108 -30.5t48 -69.5h38q17 86 86 86h45l-16 -79h-40q-33 0 -46.5 -13t-22.5 -55l-9 -34q-19 -83 -70.5 -127t-132.5 -44q-67 0 -116 25
q-25 -9 -41.5 -24.5t-16.5 -30.5q0 -31 47 -31h190q71 0 109.5 -37t38.5 -89q0 -72 -48.5 -112t-142.5 -40h-214q-58 0 -90 28t-32 66zM402 343q0 39 -26 65.5t-71 26.5q-51 0 -85.5 -36.5t-34.5 -88.5q0 -41 26 -66.5t72 -25.5q52 0 85.5 36t33.5 89zM127 -115h184
q87 0 87 66q0 49 -67 49h-227q-53 -25 -53 -64q0 -51 76 -51zM455 818l-92 -119h54l-24 -111h-109l25 116l88 114h58z" />
    <glyph glyph-name="Hcircumflex" unicode="&#x124;" horiz-adv-x="766" 
d="M49 0l149 700h100l-61 -292h361l63 292h100l-149 -700h-100l67 316h-363l-67 -316h-100zM301 770l147 123h146l88 -123h-98l-71 73l-107 -73h-105z" />
    <glyph glyph-name="hcircumflex" unicode="&#x125;" horiz-adv-x="582" 
d="M30 0l149 700h94l-35 -161q-15 -72 -80 -149h54q22 44 60 82q40 38 101 38q69 0 110.5 -42.5t41.5 -113.5q0 -28 -6 -57l-64 -297h-95l64 301q4 17 4 38q0 42 -22.5 65.5t-63.5 23.5q-64 0 -107.5 -58.5t-60.5 -139.5l-49 -230h-95zM230 771l133 123h133l80 -123h-89
l-64 73l-97 -73h-96z" />
    <glyph glyph-name="Hbar" unicode="&#x126;" horiz-adv-x="792" 
d="M834 610l-16 -77h-83l-113 -533h-101l67 316h-362l-67 -316h-101l113 533h-82l15 77h84l19 90h101l-19 -90h361l20 90h101l-20 -90h83zM607 408l27 125h-362l-26 -125h361z" />
    <glyph glyph-name="hbar" unicode="&#x127;" horiz-adv-x="588" 
d="M525 354q0 -28 -6 -57l-64 -297h-95l64 301q4 17 4 38q0 42 -22.5 65.5t-63.5 23.5q-64 0 -107.5 -58.5t-60.5 -139.5l-49 -230h-95l118 558h-75l13 67h77l16 75h94l-16 -75h169l-14 -67h-170l-4 -19q-15 -72 -80 -149h54q22 44 60 82q40 38 101 38q69 0 110.5 -42.5
t41.5 -113.5z" />
    <glyph glyph-name="Itilde" unicode="&#x128;" horiz-adv-x="308" 
d="M49 0l149 700h100l-149 -700h-100zM272 787l-27 18q-29 17 -46 17q-42 0 -55 -52h-85q29 124 137 124q43 0 82 -24l28 -18q29 -17 43 -17q38 0 55 46h86q-28 -121 -135 -121q-39 0 -83 27z" />
    <glyph glyph-name="itilde" unicode="&#x129;" horiz-adv-x="265" 
d="M30 0l106 496h94l-105 -496h-95zM201 596l-26 18q-25 17 -41 17q-39 0 -50 -51h-77q24 123 124 123q37 0 74 -24l26 -17q25 -18 39 -18q34 0 50 46h78q-24 -121 -123 -121q-37 0 -74 27z" />
    <glyph glyph-name="Imacron" unicode="&#x12a;" horiz-adv-x="315" 
d="M49 0l149 700h100l-149 -700h-100zM103 788l16 72h334l-16 -72h-334z" />
    <glyph glyph-name="imacron" unicode="&#x12b;" horiz-adv-x="271" 
d="M30 0l106 496h94l-105 -496h-95zM54 591l15 72h304l-16 -72h-303z" />
    <glyph glyph-name="Ibreve" unicode="&#x12c;" horiz-adv-x="311" 
d="M49 0l149 700h100l-149 -700h-100zM129 871q0 8 2 22h79v-8q0 -27 17 -42.5t50 -15.5q69 0 94 66h88q-15 -57 -60.5 -95.5t-122.5 -38.5q-72 0 -109.5 32t-37.5 80z" />
    <glyph glyph-name="ibreve" unicode="&#x12d;" horiz-adv-x="259" 
d="M30 0l106 496h94l-105 -496h-95zM75 667q0 9 2 23h72q-3 -30 12.5 -48t47.5 -18q64 0 86 66h80q-12 -56 -54.5 -95t-112.5 -39q-65 0 -99 32t-34 79z" />
    <glyph glyph-name="Iogonek" unicode="&#x12e;" horiz-adv-x="297" 
d="M198 700h100l-149 -700q-123 -43 -123 -95q0 -36 51 -36q17 0 46 6l-16 -74q-29 -7 -59 -7q-47 0 -75 22.5t-28 62.5q0 69 105 126z" />
    <glyph glyph-name="iogonek" unicode="&#x12f;" horiz-adv-x="260" 
d="M179 700h99l-24 -112h-99zM33 8l104 488h94l-105 -496q-123 -44 -123 -95q0 -36 51 -36q18 0 46 6l-16 -74q-29 -7 -59 -7q-47 0 -75 22.5t-28 62.5q0 72 111 129z" />
    <glyph glyph-name="Idotaccent" unicode="&#x130;" horiz-adv-x="312" 
d="M49 0l149 700h100l-149 -700h-100zM216 770l24 112h98l-24 -112h-98z" />
    <glyph glyph-name="dotlessi" unicode="&#x131;" horiz-adv-x="259" 
d="M30 0l106 496h94l-105 -496h-95z" />
    <glyph glyph-name="IJ" unicode="&#x132;" horiz-adv-x="810" 
d="M49 0l149 700h100l-149 -700h-100zM305 153q0 29 6 57l103 17q-7 -35 -7 -63q0 -89 79 -89q50 0 77.5 35t47.5 121l99 469h101l-105 -494q-24 -114 -76 -167t-142 -53q-84 0 -133.5 44.5t-49.5 122.5z" />
    <glyph glyph-name="ij" unicode="&#x133;" horiz-adv-x="524" 
d="M153 588l24 112h99l-24 -112h-99zM30 0l106 496h94l-105 -496h-95zM417 588l24 112h101l-24 -112h-101zM128 -195l17 84h78q52 0 59 48l119 559h94l-121 -569q-14 -66 -45 -94t-96 -28h-105z" />
    <glyph glyph-name="Jcircumflex" unicode="&#x134;" horiz-adv-x="506" 
d="M5 153q0 29 6 57l103 17q-7 -35 -7 -63q0 -89 79 -89q50 0 77.5 35t47.5 121l99 469h101l-105 -494q-24 -114 -76 -167t-142 -53q-84 0 -133.5 44.5t-49.5 122.5zM280 770l147 123h146l88 -123h-98l-71 73l-107 -73h-105z" />
    <glyph glyph-name="jcircumflex" unicode="&#x135;" horiz-adv-x="266" 
d="M-130 -195l17 84h78q52 0 59 48l119 559h95l-121 -569q-16 -66 -46 -94t-96 -28h-105zM28 567l133 123h133l80 -123h-89l-64 73l-97 -73h-96z" />
    <glyph glyph-name="uni0136" unicode="&#x136;" horiz-adv-x="698" 
d="M749 700l-348 -296l263 -404h-121l-217 340l-127 -109l-50 -231h-100l149 700h100l-35 -168q-20 -92 -82 -146l28 -33l393 347h147zM214 -313l92 118h-54l24 111h109l-25 -116l-88 -113h-58z" />
    <glyph glyph-name="uni0137" unicode="&#x137;" horiz-adv-x="573" 
d="M613 496l-269 -213l174 -283h-109l-136 227l-119 -95l-29 -132h-95l149 700h95l-58 -275q-14 -67 -33.5 -99t-57.5 -60l28 -36l327 266h133zM135 -313l92 118h-54l24 111h109l-25 -116l-88 -113h-58z" />
    <glyph glyph-name="Lacute" unicode="&#x139;" horiz-adv-x="586" 
d="M49 0l149 700h100l-128 -606h373l-21 -94h-473zM225 770l87 142h141l-155 -142h-73z" />
    <glyph glyph-name="lacute" unicode="&#x13a;" horiz-adv-x="258" 
d="M29 0l150 700h94l-149 -700h-95zM206 771l79 141h128l-141 -141h-66z" />
    <glyph glyph-name="uni013B" unicode="&#x13b;" horiz-adv-x="586" 
d="M49 0l149 700h100l-128 -606h373l-21 -94h-473zM151 -313l92 118h-54l24 111h109l-25 -116l-88 -113h-58z" />
    <glyph glyph-name="uni013C" unicode="&#x13c;" horiz-adv-x="256" 
d="M29 0l150 700h94l-149 -700h-95zM-56 -313l92 118h-54l24 111h109l-25 -116l-88 -113h-58z" />
    <glyph glyph-name="Lcaron" unicode="&#x13d;" horiz-adv-x="588" 
d="M342 448l101 131h-59l26 122h120l-28 -127l-96 -126h-64zM49 0l149 700h100l-128 -606h373l-21 -94h-473z" />
    <glyph glyph-name="lcaron" unicode="&#x13e;" horiz-adv-x="300" 
d="M29 0l150 700h94l-149 -700h-95zM271 471l92 118h-54l24 111h109l-25 -116l-88 -113h-58z" />
    <glyph glyph-name="Ldot" unicode="&#x13f;" horiz-adv-x="590" 
d="M49 0l149 700h100l-128 -606h373l-21 -94h-473zM377 310l28 130h126l-28 -130h-126z" />
    <glyph glyph-name="ldot" unicode="&#x140;" horiz-adv-x="392" 
d="M29 0l150 700h94l-149 -700h-95zM269 290l28 130h126l-28 -130h-126z" />
    <glyph glyph-name="Lslash" unicode="&#x141;" horiz-adv-x="610" 
d="M200 94h373l-21 -94h-473l52 247l-98 -51l21 101l99 51l75 352h100l-62 -293l245 126l-21 -101l-245 -127z" />
    <glyph glyph-name="lslash" unicode="&#x142;" horiz-adv-x="325" 
d="M352 513l-19 -95l-99 -57l-77 -361h-94l63 299l-86 -49l19 93l87 51l66 306h95l-52 -243z" />
    <glyph glyph-name="Nacute" unicode="&#x143;" horiz-adv-x="808" 
d="M49 0l149 700h147l243 -580l40 16q-16 50 -16 93t12 99l79 372h100l-149 -700h-119l-259 617l-40 -16q12 -37 12 -87q0 -47 -14 -114l-85 -400h-100zM472 770l87 142h141l-155 -142h-73z" />
    <glyph glyph-name="nacute" unicode="&#x144;" horiz-adv-x="582" 
d="M30 0l106 496h89q-8 -33 -67 -106h54q22 44 60 82q40 38 101 38q69 0 110.5 -42t41.5 -114q0 -27 -6 -57l-64 -297h-95l64 301q4 19 4 39q0 41 -22.5 64.5t-63.5 23.5q-64 0 -107.5 -58.5t-60.5 -139.5l-49 -230h-95zM328 567l79 141h128l-141 -141h-66z" />
    <glyph glyph-name="uni0145" unicode="&#x145;" horiz-adv-x="808" 
d="M49 0l149 700h147l243 -580l40 16q-16 50 -16 93t12 99l79 372h100l-149 -700h-119l-259 617l-40 -16q12 -37 12 -87q0 -47 -14 -114l-85 -400h-100zM219 -313l92 118h-54l24 111h109l-25 -116l-88 -113h-58z" />
    <glyph glyph-name="uni0146" unicode="&#x146;" horiz-adv-x="582" 
d="M30 0l106 496h89q-8 -33 -67 -106h54q22 44 60 82q40 38 101 38q69 0 110.5 -42t41.5 -114q0 -27 -6 -57l-64 -297h-95l64 301q4 19 4 39q0 41 -22.5 64.5t-63.5 23.5q-64 0 -107.5 -58.5t-60.5 -139.5l-49 -230h-95zM116 -313l92 118h-54l24 111h109l-25 -116l-88 -113
h-58z" />
    <glyph glyph-name="Ncaron" unicode="&#x147;" horiz-adv-x="808" 
d="M49 0l149 700h147l243 -580l40 16q-16 50 -16 93t12 99l79 372h100l-149 -700h-119l-259 617l-40 -16q12 -37 12 -87q0 -47 -14 -114l-85 -400h-100zM722 891l-147 -123h-146l-88 123h98l71 -73l107 73h105z" />
    <glyph glyph-name="ncaron" unicode="&#x148;" horiz-adv-x="582" 
d="M30 0l106 496h89q-8 -33 -67 -106h54q22 44 60 82q40 38 101 38q69 0 110.5 -42t41.5 -114q0 -27 -6 -57l-64 -297h-95l64 301q4 19 4 39q0 41 -22.5 64.5t-63.5 23.5q-64 0 -107.5 -58.5t-60.5 -139.5l-49 -230h-95zM299 567l-80 123h87l65 -74l97 74h97l-133 -123h-133
z" />
    <glyph glyph-name="Eng" unicode="&#x14a;" horiz-adv-x="808" 
d="M393 -195l19 90h51q33 0 54.5 18.5t28.5 51.5l7 33l-265 593l-12 26l-40 -16q12 -41 12 -87q0 -50 -14 -117l-85 -397h-100l149 700h147l242 -543l10 -20l39 17q-19 54 -19 104q0 44 10 87l76 355h100l-157 -737q-18 -84 -62 -121t-125 -37h-66z" />
    <glyph glyph-name="eng" unicode="&#x14b;" horiz-adv-x="582" 
d="M191 -195l18 84h78q49 0 60 49l77 363q4 17 4 38q0 42 -22.5 65.5t-63.5 23.5q-64 0 -107.5 -58.5t-60.5 -139.5l-49 -230h-95l106 496h89q-4 -17 -24.5 -49t-43.5 -57h55q22 44 60 82q40 38 102 38q67 0 109 -42.5t42 -113.5q0 -28 -6 -57l-80 -370q-13 -67 -48 -94.5
t-107 -27.5h-93z" />
    <glyph glyph-name="Omacron" unicode="&#x14c;" horiz-adv-x="806" 
d="M72 308q-2 105 48.5 199.5t140.5 151.5t195 55q142 0 232 -87t90 -234q2 -108 -48 -202.5t-139.5 -150.5t-195.5 -54q-145 0 -234 85.5t-89 236.5zM674 394q0 104 -58 166.5t-161 62.5q-78 2 -143.5 -43.5t-100.5 -119.5t-34 -157q0 -102 57.5 -164t160.5 -62
q117 -2 199 95t80 222zM344 788l16 72h334l-16 -72h-334z" />
    <glyph glyph-name="omacron" unicode="&#x14d;" horiz-adv-x="560" 
d="M41 195q-2 78 32.5 151t99 119.5t141.5 44.5q94 0 150 -58.5t56 -152.5q1 -80 -32.5 -152t-97.5 -117.5t-143 -43.5q-96 0 -151 57t-55 152zM424 299q0 62 -31.5 96t-84.5 34q-52 2 -92.5 -34t-60 -89.5t-18.5 -110.5q0 -62 31 -95t84 -33q78 0 125 70.5t47 161.5z
M197 591l15 72h304l-16 -72h-303z" />
    <glyph glyph-name="Obreve" unicode="&#x14e;" horiz-adv-x="806" 
d="M72 308q-2 105 48.5 199.5t140.5 151.5t195 55q142 0 232 -87t90 -234q2 -108 -48 -202.5t-139.5 -150.5t-195.5 -54q-145 0 -234 85.5t-89 236.5zM674 394q0 104 -58 166.5t-161 62.5q-78 2 -143.5 -43.5t-100.5 -119.5t-34 -157q0 -102 57.5 -164t160.5 -62
q117 -2 199 95t80 222zM369 871q0 8 2 22h79v-8q0 -27 17 -42.5t50 -15.5q69 0 94 66h88q-15 -57 -60.5 -95.5t-122.5 -38.5q-72 0 -109.5 32t-37.5 80z" />
    <glyph glyph-name="obreve" unicode="&#x14f;" horiz-adv-x="560" 
d="M41 195q-2 78 32.5 151t99 119.5t141.5 44.5q94 0 150 -58.5t56 -152.5q1 -80 -32.5 -152t-97.5 -117.5t-143 -43.5q-96 0 -151 57t-55 152zM424 299q0 62 -31.5 96t-84.5 34q-52 2 -92.5 -34t-60 -89.5t-18.5 -110.5q0 -62 31 -95t84 -33q78 0 125 70.5t47 161.5z
M218 667q0 9 2 23h72q-3 -30 12.5 -48t47.5 -18q64 0 86 66h80q-12 -56 -54 -95t-113 -39q-65 0 -99 32t-34 79z" />
    <glyph glyph-name="Ohungarumlaut" unicode="&#x150;" horiz-adv-x="806" 
d="M72 308q-2 105 48.5 199.5t140.5 151.5t195 55q142 0 232 -87t90 -234q2 -108 -48 -202.5t-139.5 -150.5t-195.5 -54q-145 0 -234 85.5t-89 236.5zM674 394q0 104 -58 166.5t-161 62.5q-78 2 -143.5 -43.5t-100.5 -119.5t-34 -157q0 -102 57.5 -164t160.5 -62
q117 -2 199 95t80 222zM374 770l87 142h140l-155 -142h-72zM553 770l87 142h140l-155 -142h-72z" />
    <glyph glyph-name="ohungarumlaut" unicode="&#x151;" horiz-adv-x="560" 
d="M41 195q-2 78 32.5 151t99 119.5t141.5 44.5q94 0 150 -58.5t56 -152.5q1 -80 -32.5 -152t-97.5 -117.5t-143 -43.5q-96 0 -151 57t-55 152zM424 299q0 62 -31.5 96t-84.5 34q-52 2 -92.5 -34t-60 -89.5t-18.5 -110.5q0 -62 31 -95t84 -33q78 0 125 70.5t47 161.5z
M224 567l80 141h127l-141 -141h-66zM387 567l79 141h128l-141 -141h-66z" />
    <glyph glyph-name="OE" unicode="&#x152;" horiz-adv-x="1216" 
d="M73 306q-2 107 47.5 202t135.5 151.5t185 54.5q114 0 166 -52q55 -52 71 -111h43q-1 5 -1 21q0 58 16 128h528l-19 -92h-428l-40 -192h308l-18 -89h-310l-49 -235h427l-20 -92h-525q11 52 53 118h-51q-84 -132 -220 -132q-127 0 -213 86.5t-86 233.5zM671 394
q0 104 -56.5 166.5t-158.5 62.5q-118 3 -199 -94.5t-79 -225.5q0 -102 58 -164t161 -62q115 -2 195.5 94.5t78.5 222.5z" />
    <glyph glyph-name="oe" unicode="&#x153;" horiz-adv-x="916" 
d="M42 201q-1 77 31 148.5t91.5 117t130.5 43.5q69 0 115 -36t59 -86h39q23 52 70 87t107 35q89 0 139 -53.5t50 -139.5q0 -45 -15 -93h-346q-4 -19 -4 -39q0 -53 30 -86.5t81 -33.5q53 0 92.5 31t59.5 71l81 -41q-81 -140 -224 -140q-142 0 -173 123h-39
q-25 -56 -72.5 -89.5t-112.5 -33.5q-84 0 -137 58.5t-53 156.5zM528 296h251q2 22 2 30q0 49 -29 79t-79 30q-48 0 -87.5 -37.5t-57.5 -101.5zM426 298q0 64 -32.5 97.5t-89.5 33.5q-72 2 -118.5 -71.5t-45.5 -156.5q0 -134 115 -134q79 0 125 69.5t46 161.5z" />
    <glyph glyph-name="Racute" unicode="&#x154;" horiz-adv-x="696" 
d="M49 0l149 700h259q98 0 155.5 -49t57.5 -127q0 -95 -62 -134q-62 -38 -144 -41l-8 -40q63 -1 93 -32t38 -102l22 -175h-107l-15 167q-6 67 -31.5 94.5t-92.5 27.5h-152l-62 -289h-100zM230 379h174q72 0 117 35.5t45 95.5q0 46 -31.5 72t-82.5 26h-173zM392 770l87 142
h141l-155 -142h-73z" />
    <glyph glyph-name="racute" unicode="&#x155;" horiz-adv-x="402" 
d="M30 0l106 496h84q-14 -65 -74 -138h57q67 145 174 145q37 0 61 -6l-21 -100q-32 7 -61 7q-71 0 -119.5 -54t-69.5 -147l-42 -203h-95zM246 567l79 141h128l-141 -141h-66z" />
    <glyph glyph-name="uni0156" unicode="&#x156;" horiz-adv-x="696" 
d="M49 0l149 700h259q98 0 155.5 -49t57.5 -127q0 -95 -62 -134q-62 -38 -144 -41l-8 -40q63 -1 93 -32t38 -102l22 -175h-107l-15 167q-6 67 -31.5 94.5t-92.5 27.5h-152l-62 -289h-100zM230 379h174q72 0 117 35.5t45 95.5q0 46 -31.5 72t-82.5 26h-173zM189 -313l92 118
h-54l24 111h109l-25 -116l-88 -113h-58z" />
    <glyph glyph-name="uni0157" unicode="&#x157;" horiz-adv-x="402" 
d="M30 0l106 496h84q-14 -65 -74 -138h57q67 145 174 145q37 0 61 -6l-21 -100q-32 7 -61 7q-71 0 -119.5 -54t-69.5 -147l-42 -203h-95zM-54 -313l92 118h-54l24 111h109l-25 -116l-88 -113h-58z" />
    <glyph glyph-name="Rcaron" unicode="&#x158;" horiz-adv-x="696" 
d="M49 0l149 700h259q98 0 155.5 -49t57.5 -127q0 -95 -62 -134q-62 -38 -144 -41l-8 -40q63 -1 93 -32t38 -102l22 -175h-107l-15 167q-6 67 -31.5 94.5t-92.5 27.5h-152l-62 -289h-100zM230 379h174q72 0 117 35.5t45 95.5q0 46 -31.5 72t-82.5 26h-173zM659 891
l-147 -123h-146l-88 123h98l71 -73l107 73h105z" />
    <glyph glyph-name="rcaron" unicode="&#x159;" horiz-adv-x="402" 
d="M30 0l106 496h84q-14 -65 -74 -138h57q67 145 174 145q37 0 61 -6l-21 -100q-32 7 -61 7q-71 0 -119.5 -54t-69.5 -147l-42 -203h-95zM217 567l-80 123h87l65 -74l97 74h97l-133 -123h-133z" />
    <glyph glyph-name="Sacute" unicode="&#x15a;" horiz-adv-x="608" 
d="M31 188l101 34q9 -67 50.5 -107t113.5 -40q70 0 110.5 34t40.5 85q0 40 -26.5 63.5t-84.5 39.5l-80 24q-70 20 -107 61.5t-37 115.5q0 91 70 153t175 62q109 0 169 -50t77 -128l-102 -31q-11 48 -45 84q-34 37 -104 37q-60 0 -99 -34.5t-39 -82.5q0 -39 21.5 -59
t76.5 -37l85 -26q72 -22 115.5 -68t43.5 -114q0 -95 -71.5 -156.5t-194.5 -61.5q-109 0 -178.5 55.5t-80.5 146.5zM368 770l87 142h141l-155 -142h-73z" />
    <glyph glyph-name="sacute" unicode="&#x15b;" horiz-adv-x="489" 
d="M12 132l89 21q5 -42 35 -66t83 -24q52 0 82 20.5t30 55.5q0 25 -17 40t-59 27l-52 15q-67 19 -97 48t-30 84q0 67 55.5 112t138.5 45q86 0 135.5 -38t55.5 -97l-87 -22q-4 36 -30 60t-74 24q-49 0 -75.5 -22t-26.5 -51q0 -23 14 -34.5t57 -25.5l51 -14q67 -20 102.5 -53
t35.5 -87q0 -76 -57.5 -120t-151.5 -44q-85 0 -144.5 39t-62.5 107zM276 567l79 141h128l-141 -141h-66z" />
    <glyph glyph-name="Scircumflex" unicode="&#x15c;" horiz-adv-x="608" 
d="M31 188l101 34q9 -67 50.5 -107t113.5 -40q70 0 110.5 34t40.5 85q0 40 -26.5 63.5t-84.5 39.5l-80 24q-70 20 -107 61.5t-37 115.5q0 91 70 153t175 62q109 0 169 -50t77 -128l-102 -31q-11 48 -45 84q-34 37 -104 37q-60 0 -99 -34.5t-39 -82.5q0 -39 21.5 -59
t76.5 -37l85 -26q72 -22 115.5 -68t43.5 -114q0 -95 -71.5 -156.5t-194.5 -61.5q-109 0 -178.5 55.5t-80.5 146.5zM211 770l147 123h146l88 -123h-98l-71 73l-107 -73h-105z" />
    <glyph glyph-name="scircumflex" unicode="&#x15d;" horiz-adv-x="489" 
d="M12 132l89 21q5 -42 35 -66t83 -24q52 0 82 20.5t30 55.5q0 25 -17 40t-59 27l-52 15q-67 19 -97 48t-30 84q0 67 55.5 112t138.5 45q86 0 135.5 -38t55.5 -97l-87 -22q-4 36 -30 60t-74 24q-49 0 -75.5 -22t-26.5 -51q0 -23 14 -34.5t57 -25.5l51 -14q67 -20 102.5 -53
t35.5 -87q0 -76 -57.5 -120t-151.5 -44q-85 0 -144.5 39t-62.5 107zM136 567l133 123h133l80 -123h-89l-64 73l-97 -73h-96z" />
    <glyph glyph-name="Scedilla" unicode="&#x15e;" horiz-adv-x="608" 
d="M556 204q0 -91 -67 -152.5t-184 -65.5l-16 -12l-29 -24q3 1 10 1q35 0 60 -21.5t25 -53.5q0 -43 -32.5 -67.5t-89.5 -24.5q-70 0 -109 46l42 48q27 -32 67 -32q52 0 52 32q0 28 -43 28q-20 0 -33 -5l-22 41l55 47q-90 12 -145 65.5t-66 133.5l101 34q9 -67 50.5 -107
t113.5 -40q70 0 110.5 34t40.5 85q0 40 -26.5 63.5t-84.5 39.5l-80 24q-70 20 -107 61.5t-37 115.5q0 91 70 153t175 62q109 0 169 -50t77 -128l-102 -31q-11 48 -45 84q-34 37 -104 37q-60 0 -99 -34.5t-39 -82.5q0 -39 21.5 -59t76.5 -37l85 -26q72 -22 115.5 -68
t43.5 -114z" />
    <glyph glyph-name="scedilla" unicode="&#x15f;" horiz-adv-x="489" 
d="M428 150q0 -72 -53 -115.5t-140 -48.5l-15 -12l-30 -24q3 1 11 1q34 0 59.5 -21.5t25.5 -53.5q0 -43 -32.5 -67.5t-89.5 -24.5q-72 0 -109 46l41 48q29 -32 68 -32q51 0 51 32q0 28 -42 28q-20 0 -33 -5l-23 41l55 47q-70 10 -113.5 47.5t-46.5 95.5l89 21q5 -42 35 -66
t83 -24q52 0 82 20.5t30 55.5q0 25 -17 40t-59 27l-52 15q-67 19 -97 48t-30 84q0 67 55.5 112t138.5 45q86 0 135.5 -38t55.5 -97l-87 -22q-4 36 -30 60t-74 24q-49 0 -75.5 -22t-26.5 -51q0 -23 14 -34.5t57 -25.5l51 -14q67 -20 102.5 -53t35.5 -87z" />
    <glyph glyph-name="Scaron" unicode="&#x160;" horiz-adv-x="608" 
d="M31 188l101 34q9 -67 50.5 -107t113.5 -40q70 0 110.5 34t40.5 85q0 40 -26.5 63.5t-84.5 39.5l-80 24q-70 20 -107 61.5t-37 115.5q0 91 70 153t175 62q109 0 169 -50t77 -128l-102 -31q-11 48 -45 84q-34 37 -104 37q-60 0 -99 -34.5t-39 -82.5q0 -39 21.5 -59
t76.5 -37l85 -26q72 -22 115.5 -68t43.5 -114q0 -95 -71.5 -156.5t-194.5 -61.5q-109 0 -178.5 55.5t-80.5 146.5zM617 891l-147 -123h-146l-88 123h98l71 -73l107 73h105z" />
    <glyph glyph-name="scaron" unicode="&#x161;" horiz-adv-x="493" 
d="M12 132l89 21q5 -42 35 -66t83 -24q52 0 82 20.5t30 55.5q0 25 -17 40t-59 27l-52 15q-67 19 -97 48t-30 84q0 67 55.5 112t138.5 45q86 0 135.5 -38t55.5 -97l-87 -22q-4 36 -30 60t-74 24q-49 0 -75.5 -22t-26.5 -51q0 -23 14 -34.5t57 -25.5l51 -14q67 -20 102.5 -53
t35.5 -87q0 -76 -57.5 -120t-151.5 -44q-85 0 -144.5 39t-62.5 107zM251 567l-80 123h87l65 -74l97 74h97l-133 -123h-133z" />
    <glyph glyph-name="uni0162" unicode="&#x162;" horiz-adv-x="623" 
d="M109 700h599l-20 -92h-252l-130 -608l-33 -26l-29 -24q3 1 10 1q34 0 59.5 -21.5t25.5 -53.5q0 -43 -32.5 -67.5t-89.5 -24.5q-70 0 -109 46l41 48q29 -32 68 -32q52 0 52 32q0 28 -43 28q-19 0 -34 -5l-22 41l68 58h-32l129 608h-246z" />
    <glyph glyph-name="uni0163" unicode="&#x163;" horiz-adv-x="402" 
d="M258 418l-62 -288q-2 -14 -2 -16q0 -33 44 -33h114l-18 -81h-83l-33 -26l-30 -24q3 1 11 1q34 0 59.5 -21.5t25.5 -53.5q0 -43 -32.5 -67.5t-89.5 -24.5q-72 0 -109 46l41 48q29 -32 68 -32q51 0 51 32q0 28 -42 28q-20 0 -33 -5l-23 41l72 61q-88 16 -88 101q0 21 4 36
l60 278h-113l17 78h112l33 155h95l-33 -155h133l-17 -78h-132z" />
    <glyph glyph-name="Tcaron" unicode="&#x164;" horiz-adv-x="623" 
d="M206 0l129 608h-246l20 92h599l-20 -92h-252l-130 -608h-100zM629 891l-147 -123h-146l-88 123h98l71 -73l107 73h105z" />
    <glyph glyph-name="tcaron" unicode="&#x165;" horiz-adv-x="402" 
d="M99 104q0 21 4 36l60 278h-113l17 78h112l33 155h95l-33 -155h133l-17 -78h-132l-62 -288q-2 -14 -2 -16q0 -33 44 -33h114l-18 -81h-110q-61 0 -93 27.5t-32 76.5zM361 539l92 118h-54l24 111h109l-25 -116l-88 -113h-58z" />
    <glyph glyph-name="Tbar" unicode="&#x166;" horiz-adv-x="641" 
d="M697 608h-253l-40 -184h157l-18 -80h-155l-74 -344h-100l73 344h-157l17 80h157l39 184h-245l19 92h599z" />
    <glyph glyph-name="tbar" unicode="&#x167;" horiz-adv-x="412" 
d="M398 418h-131l-19 -85h132l-15 -75h-133l-27 -128q-2 -14 -2 -16q0 -33 44 -33h113l-17 -81h-110q-61 0 -93.5 27.5t-32.5 76.5q0 21 4 36l26 118h-112l16 75h112l19 85h-113l17 78h112l33 155h95l-33 -155h133z" />
    <glyph glyph-name="Utilde" unicode="&#x168;" horiz-adv-x="724" 
d="M89 195q0 35 9 79l90 426h101l-89 -416q-9 -40 -9 -71q0 -134 138 -134q88 0 139 51t72 155l88 415h101l-93 -436q-31 -142 -103.5 -210t-203.5 -68q-112 0 -176 53.5t-64 155.5zM479 787l-27 18q-29 17 -46 17q-42 0 -55 -52h-85q29 124 137 124q43 0 82 -24l28 -18
q29 -17 43 -17q38 0 55 46h86q-28 -121 -135 -121q-40 0 -83 27z" />
    <glyph glyph-name="utilde" unicode="&#x169;" horiz-adv-x="582" 
d="M58 141q0 28 6 58l64 297h95l-64 -301q-5 -22 -5 -38q0 -42 22.5 -66t61.5 -24q68 0 108 60q42 62 58 139l49 230h95l-106 -496h-80q14 56 68 116h-56q-31 -58 -70 -93.5t-101 -36.5q-65 0 -105 41.5t-40 113.5zM351 596l-26 18q-25 17 -41 17q-39 0 -50 -51h-77
q24 123 124 123q37 0 74 -24l26 -17q26 -18 39 -18q34 0 50 46h78q-24 -121 -123 -121q-36 0 -74 27z" />
    <glyph glyph-name="Umacron" unicode="&#x16a;" horiz-adv-x="724" 
d="M89 195q0 35 9 79l90 426h101l-89 -416q-9 -40 -9 -71q0 -134 138 -134q88 0 139 51t72 155l88 415h101l-93 -436q-31 -142 -103.5 -210t-203.5 -68q-112 0 -176 53.5t-64 155.5zM309 788l16 72h334l-16 -72h-334z" />
    <glyph glyph-name="umacron" unicode="&#x16b;" horiz-adv-x="576" 
d="M58 141q0 28 6 58l64 297h95l-64 -301q-5 -22 -5 -38q0 -42 22.5 -66t61.5 -24q68 0 108 60q42 62 58 139l49 230h95l-106 -496h-80q14 56 68 116h-56q-31 -58 -70 -93.5t-101 -36.5q-65 0 -105 41.5t-40 113.5zM204 591l15 72h304l-16 -72h-303z" />
    <glyph glyph-name="Ubreve" unicode="&#x16c;" horiz-adv-x="724" 
d="M89 195q0 35 9 79l90 426h101l-89 -416q-9 -40 -9 -71q0 -134 138 -134q88 0 139 51t72 155l88 415h101l-93 -436q-31 -142 -103.5 -210t-203.5 -68q-112 0 -176 53.5t-64 155.5zM334 871q0 8 2 22h79v-8q0 -27 17 -42.5t50 -15.5q69 0 94 66h88q-15 -57 -60.5 -95.5
t-122.5 -38.5q-72 0 -109.5 32t-37.5 80z" />
    <glyph glyph-name="ubreve" unicode="&#x16d;" horiz-adv-x="576" 
d="M58 141q0 28 6 58l64 297h95l-64 -301q-5 -22 -5 -38q0 -42 22.5 -66t61.5 -24q68 0 108 60q42 62 58 139l49 230h95l-106 -496h-80q14 56 68 116h-56q-31 -58 -70 -93.5t-101 -36.5q-65 0 -105 41.5t-40 113.5zM225 667q0 9 2 23h72q-3 -30 12.5 -48t47.5 -18
q64 0 86 66h80q-12 -56 -54.5 -95t-112.5 -39q-65 0 -99 32t-34 79z" />
    <glyph glyph-name="Uring" unicode="&#x16e;" horiz-adv-x="724" 
d="M89 195q0 35 9 79l90 426h101l-89 -416q-9 -40 -9 -71q0 -134 138 -134q88 0 139 51t72 155l88 415h101l-93 -436q-31 -142 -103.5 -210t-203.5 -68q-112 0 -176 53.5t-64 155.5zM359 865q0 57 38 94.5t97 37.5q49 0 81.5 -31.5t32.5 -76.5q0 -58 -38.5 -95t-95.5 -37
q-50 0 -82.5 31t-32.5 77zM541 883q0 24 -15 39t-38 15q-26 0 -44.5 -19t-18.5 -47q0 -25 14 -39t39 -14q26 0 44.5 19t18.5 46z" />
    <glyph glyph-name="uring" unicode="&#x16f;" horiz-adv-x="576" 
d="M58 141q0 28 6 58l64 297h95l-64 -301q-5 -22 -5 -38q0 -42 22.5 -66t61.5 -24q68 0 108 60q42 62 58 139l49 230h95l-106 -496h-80q14 56 68 116h-56q-31 -58 -70 -93.5t-101 -36.5q-65 0 -105 41.5t-40 113.5zM241 652q0 55 36.5 91t92.5 36q46 0 77.5 -31t31.5 -73
q0 -54 -37.5 -89.5t-90.5 -35.5q-47 0 -78.5 30t-31.5 72zM415 669q0 24 -14 38t-36 14q-26 0 -43.5 -18t-17.5 -44q0 -24 13.5 -37.5t37.5 -13.5t42 18t18 43z" />
    <glyph glyph-name="Uhungarumlaut" unicode="&#x170;" horiz-adv-x="724" 
d="M89 195q0 35 9 79l90 426h101l-89 -416q-9 -40 -9 -71q0 -134 138 -134q88 0 139 51t72 155l88 415h101l-93 -436q-31 -142 -103.5 -210t-203.5 -68q-112 0 -176 53.5t-64 155.5zM339 770l87 142h140l-155 -142h-72zM518 770l87 142h140l-155 -142h-72z" />
    <glyph glyph-name="uhungarumlaut" unicode="&#x171;" horiz-adv-x="576" 
d="M58 141q0 28 6 58l64 297h95l-64 -301q-5 -22 -5 -38q0 -42 22.5 -66t61.5 -24q68 0 108 60q42 62 58 139l49 230h95l-106 -496h-80q14 56 68 116h-56q-31 -58 -70 -93.5t-101 -36.5q-65 0 -105 41.5t-40 113.5zM230 567l80 141h127l-141 -141h-66zM393 567l79 141h128
l-141 -141h-66z" />
    <glyph glyph-name="Uogonek" unicode="&#x172;" horiz-adv-x="724" 
d="M233 -121q0 59 73 107q-103 6 -160 60t-57 149q0 35 9 79l90 426h101l-89 -416q-9 -40 -9 -71q0 -134 138 -134q88 0 139 51t72 155l88 415h101l-93 -436q-46 -215 -194 -262q-129 -41 -129 -97q0 -36 52 -36q17 0 45 6l-15 -74q-29 -7 -60 -7q-46 0 -74 23t-28 62z" />
    <glyph glyph-name="uogonek" unicode="&#x173;" horiz-adv-x="576" 
d="M453 496h95l-106 -496q-123 -43 -123 -95q0 -36 51 -36q17 0 46 6l-16 -74q-29 -7 -59 -7q-47 0 -75 22.5t-28 62.5q0 78 130 139q18 51 62 98h-56q-31 -58 -70 -93.5t-101 -36.5q-65 0 -105 41.5t-40 113.5q0 28 6 58l64 297h95l-64 -301q-5 -22 -5 -38q0 -42 22.5 -66
t61.5 -24q68 0 108 60q42 62 58 139z" />
    <glyph glyph-name="Wcircumflex" unicode="&#x174;" horiz-adv-x="990" 
d="M150 0l-16 700h102l4 -393q1 -98 -23 -213h44q9 43 25 96q13 42 44 104l200 406h123l20 -403q2 -42 2 -66q0 -73 -12 -137h42q9 49 25 104q11 39 43 115l173 387h110l-328 -700h-130l-21 392q-1 17 -1 37q0 81 18 183h-44q-25 -122 -73 -217l-195 -395h-132zM409 770
l147 123h146l88 -123h-98l-71 73l-107 -73h-105z" />
    <glyph glyph-name="wcircumflex" unicode="&#x175;" horiz-adv-x="824" 
d="M131 0l-56 496h93l20 -231q2 -32 2 -51q0 -59 -12 -131h43q20 94 64 177l120 236h110l20 -235q2 -30 2 -49q0 -56 -12 -129h43q6 34 22 82q14 41 45 102l119 229h103l-270 -496h-109l-22 230q-2 36 -2 59q0 59 13 130h-43q-18 -96 -66 -188l-120 -231h-107zM299 567
l133 123h133l80 -123h-89l-64 73l-97 -73h-96z" />
    <glyph glyph-name="Ycircumflex" unicode="&#x176;" horiz-adv-x="647" 
d="M223 0l62 293l-165 407h111l81 -209q19 -48 19 -93q0 -15 -5 -50h41q15 85 61 143l162 209h126l-330 -403l-63 -297h-100zM234 770l147 123h146l88 -123h-98l-71 73l-107 -73h-105z" />
    <glyph glyph-name="ycircumflex" unicode="&#x177;" horiz-adv-x="508" 
d="M433 496h105l-316 -573q-43 -72 -75 -95t-96 -23h-110l18 84h93q28 0 45.5 10t31.5 36l42 75l-110 486h101l48 -246q6 -32 6 -69q0 -41 -8 -81h47q12 84 47 150zM129 567l133 123h133l80 -123h-89l-64 73l-97 -73h-96z" />
    <glyph glyph-name="Ydieresis" unicode="&#x178;" horiz-adv-x="647" 
d="M223 0l62 293l-165 407h111l81 -209q19 -48 19 -93q0 -15 -5 -50h41q15 85 61 143l162 209h126l-330 -403l-63 -297h-100zM267 770l24 103h110l-24 -103h-110zM481 770l24 103h110l-24 -103h-110z" />
    <glyph glyph-name="Zacute" unicode="&#x179;" horiz-adv-x="624" 
d="M-12 0l29 139l546 490l-27 33q-67 -54 -148 -54h-253l20 92h515l-26 -125l-557 -500l29 -33q57 50 161 50h281l-20 -92h-550zM376 770l87 142h141l-155 -142h-73z" />
    <glyph glyph-name="zacute" unicode="&#x17a;" horiz-adv-x="486" 
d="M-11 0l21 98l356 329l-31 35q-49 -47 -106 -47h-142l17 81h388l-18 -85l-367 -339l30 -32q44 41 115 41h164l-17 -81h-410zM272 567l79 141h128l-141 -141h-66z" />
    <glyph glyph-name="Zdotaccent" unicode="&#x17b;" horiz-adv-x="624" 
d="M-12 0l29 139l546 490l-27 33q-67 -54 -148 -54h-253l20 92h515l-26 -125l-557 -500l29 -33q57 50 161 50h281l-20 -92h-550zM368 770l24 112h98l-24 -112h-98z" />
    <glyph glyph-name="zdotaccent" unicode="&#x17c;" horiz-adv-x="486" 
d="M-11 0l21 98l356 329l-31 35q-49 -47 -106 -47h-142l17 81h388l-18 -85l-367 -339l30 -32q44 41 115 41h164l-17 -81h-410zM260 588l24 112h98l-24 -112h-98z" />
    <glyph glyph-name="Zcaron" unicode="&#x17d;" horiz-adv-x="624" 
d="M-12 0l29 139l546 490l-27 33q-67 -54 -148 -54h-253l20 92h515l-26 -125l-557 -500l29 -33q57 50 161 50h281l-20 -92h-550zM624 891l-147 -123h-146l-88 123h98l71 -73l107 73h105z" />
    <glyph glyph-name="zcaron" unicode="&#x17e;" horiz-adv-x="486" 
d="M-11 0l21 98l356 329l-31 35q-49 -47 -106 -47h-142l17 81h388l-18 -85l-367 -339l30 -32q44 41 115 41h164l-17 -81h-410zM243 567l-80 123h87l65 -74l97 74h97l-133 -123h-133z" />
    <glyph glyph-name="florin" unicode="&#x192;" horiz-adv-x="463" 
d="M-151 -192l18 84q32 -13 64 -13q85 0 121 100l81 209q25 67 43.5 96.5t52.5 52.5l-21 36q-39 -23 -85 -23h-55l16 77h140l47 122q34 87 79.5 126t120.5 39q31 0 71 -8l-19 -88q-28 5 -53 5q-43 0 -66 -20.5t-42 -71.5l-40 -104h125l-17 -77h-137l-147 -381
q-36 -93 -86 -134t-130 -41q-45 0 -81 14z" />
    <glyph glyph-name="uni01E2" unicode="&#x1e2;" horiz-adv-x="920" 
d="M947 608h-320l-42 -193h236l-19 -91h-236l-49 -232h320l-19 -92h-421l41 191h-230l-144 -191h-128l544 700h486zM554 630h-52q-40 -102 -105 -186l-121 -162h181l40 188q20 91 57 160zM551 788l16 72h334l-16 -72h-334z" />
    <glyph glyph-name="uni01E3" unicode="&#x1e3;" horiz-adv-x="861" 
d="M30 122q0 98 96 146.5t255 50.5l5 19q3 12 3 22q0 33 -26.5 52t-76.5 19t-85 -25t-52 -62l-86 37q21 53 80 91t143 38q68 0 108.5 -27.5t50.5 -71.5h38q14 38 53 68.5t96 30.5q85 0 135.5 -55t50.5 -141q0 -42 -14 -90h-348q-4 -19 -4 -38q0 -54 30.5 -87.5t83.5 -33.5
q95 0 150 101l81 -41q-79 -139 -232 -139q-68 0 -114.5 32t-57.5 82h-39q-20 -41 -58 -78q-39 -36 -117 -36q-64 0 -106.5 35t-42.5 101zM471 296h252q2 18 2 29q0 51 -28 80.5t-76 29.5q-49 0 -90.5 -37.5t-59.5 -101.5zM358 204l11 48q-105 -2 -171 -29q-69 -29 -69 -96
q0 -28 22 -46t60 -18q52 0 92.5 36t54.5 105zM337 591l15 72h304l-16 -72h-303z" />
    <glyph glyph-name="Aringacute" unicode="&#x1fa;" horiz-adv-x="693" 
d="M513 0l-25 185h-304l-104 -185h-116l411 700h140l106 -700h-108zM236 276h240l-26 193q-7 43 -7 84q0 32 5 77h-40q-9 -40 -25 -81q-14 -36 -40 -82zM467 993l80 137h127l-140 -137h-67zM361 846q0 55 36.5 91t91.5 36q46 0 77.5 -31t31.5 -73q0 -54 -37 -89.5t-90 -35.5
q-47 0 -78.5 30t-31.5 72zM534 863q0 24 -14 38t-36 14q-26 0 -43 -18t-17 -44q0 -24 13.5 -37.5t37.5 -13.5t41.5 18t17.5 43z" />
    <glyph glyph-name="aringacute" unicode="&#x1fb;" horiz-adv-x="543" 
d="M32 122q0 101 96 149q96 47 254 49l3 14q2 16 2 21q0 76 -100 76q-99 0 -139 -87l-85 37q21 53 79.5 91t144.5 38q91 0 141.5 -39.5t50.5 -111.5q0 -23 -5 -50l-42 -201q-2 -10 -2 -11q0 -16 24 -16h50l-17 -81h-44q-70 0 -70 63q0 15 3 35h-41q-23 -50 -65.5 -81
t-101.5 -31t-97.5 34.5t-38.5 101.5zM358 205l10 46q-102 0 -170.5 -30t-68.5 -91q0 -31 21.5 -49t60.5 -18q49 0 92 39.5t55 102.5zM311 799l80 137h127l-140 -137h-67zM205 652q0 55 36.5 91t91.5 36q46 0 77.5 -31t31.5 -73q0 -54 -37 -89.5t-90 -35.5q-47 0 -78.5 30
t-31.5 72zM378 669q0 24 -14 38t-36 14q-26 0 -43 -18t-17 -44q0 -24 13.5 -37.5t37.5 -13.5t41.5 18t17.5 43z" />
    <glyph glyph-name="AEacute" unicode="&#x1fc;" horiz-adv-x="920" 
d="M947 608h-320l-42 -193h236l-19 -91h-236l-49 -232h320l-19 -92h-421l41 191h-230l-144 -191h-128l544 700h486zM554 630h-52q-40 -102 -105 -186l-121 -162h181l40 188q20 91 57 160zM671 770l87 142h141l-155 -142h-73z" />
    <glyph glyph-name="aeacute" unicode="&#x1fd;" horiz-adv-x="861" 
d="M30 122q0 98 96 146.5t255 50.5l5 19q3 12 3 22q0 33 -26.5 52t-76.5 19t-85 -25t-52 -62l-86 37q21 53 80 91t143 38q68 0 108.5 -27.5t50.5 -71.5h38q14 38 53 68.5t96 30.5q85 0 135.5 -55t50.5 -141q0 -42 -14 -90h-348q-4 -19 -4 -38q0 -54 30.5 -87.5t83.5 -33.5
q95 0 150 101l81 -41q-79 -139 -232 -139q-68 0 -114.5 32t-57.5 82h-39q-20 -41 -58 -78q-39 -36 -117 -36q-64 0 -106.5 35t-42.5 101zM471 296h252q2 18 2 29q0 51 -28 80.5t-76 29.5q-49 0 -90.5 -37.5t-59.5 -101.5zM358 204l11 48q-105 -2 -171 -29q-69 -29 -69 -96
q0 -28 22 -46t60 -18q52 0 92.5 36t54.5 105zM453 567l79 141h128l-141 -141h-66z" />
    <glyph glyph-name="Oslashacute" unicode="&#x1fe;" horiz-adv-x="808" 
d="M98 -23l-64 63l86 83q-47 79 -47 185q-2 105 48.5 199.5t140.5 151.5t195 55q122 0 205 -64l77 77l65 -64l-79 -78q54 -81 54 -192q2 -108 -48 -202.5t-139.5 -150.5t-195.5 -54q-133 0 -216 70zM197 198l303 295q31 29 56 42t57 17l9 43q-60 28 -164 28
q-119 3 -201 -94.5t-80 -225.5q0 -56 20 -105zM675 394q0 63 -26 118l-314 -304q-55 -53 -113 -60l-9 -43q49 -28 176 -28q81 -2 148.5 43t103 118.5t34.5 155.5zM477 770l87 142h141l-155 -142h-73z" />
    <glyph glyph-name="oslashacute" unicode="&#x1ff;" horiz-adv-x="562" 
d="M108 32l-52 -51l-47 49l57 55q-25 46 -25 110q-2 78 33 151t99.5 119.5t140.5 44.5q85 0 140 -49l52 52l46 -47l-57 -56q26 -50 26 -111q1 -80 -33 -152t-98 -117.5t-143 -43.5q-84 0 -139 46zM141 158l173 168q31 28 48 35.5t44 6.5l8 38q-43 26 -98 26q-77 0 -128 -68
t-51 -171q0 -15 4 -35zM424 302q0 9 -1.5 21.5t-1.5 13.5l-171 -167q-47 -47 -95 -48l-8 -39q38 -19 91 -19q82 0 134 67t52 171zM299 567l79 141h128l-141 -141h-66z" />
    <glyph glyph-name="uni0218" unicode="&#x218;" horiz-adv-x="608" 
d="M31 188l101 34q9 -67 50.5 -107t113.5 -40q70 0 110.5 34t40.5 85q0 40 -26.5 63.5t-84.5 39.5l-80 24q-70 20 -107 61.5t-37 115.5q0 91 70 153t175 62q109 0 169 -50t77 -128l-102 -31q-11 48 -45 84q-34 37 -104 37q-60 0 -99 -34.5t-39 -82.5q0 -39 21.5 -59
t76.5 -37l85 -26q72 -22 115.5 -68t43.5 -114q0 -95 -71.5 -156.5t-194.5 -61.5q-109 0 -178.5 55.5t-80.5 146.5zM149 -313l92 118h-54l24 111h109l-25 -116l-88 -113h-58z" />
    <glyph glyph-name="uni0219" unicode="&#x219;" horiz-adv-x="489" 
d="M12 132l89 21q5 -42 35 -66t83 -24q52 0 82 20.5t30 55.5q0 25 -17 40t-59 27l-52 15q-67 19 -97 48t-30 84q0 67 55.5 112t138.5 45q86 0 135.5 -38t55.5 -97l-87 -22q-4 36 -30 60t-74 24q-49 0 -75.5 -22t-26.5 -51q0 -23 14 -34.5t57 -25.5l51 -14q67 -20 102.5 -53
t35.5 -87q0 -76 -57.5 -120t-151.5 -44q-85 0 -144.5 39t-62.5 107zM73 -313l92 118h-54l24 111h109l-25 -116l-88 -113h-58z" />
    <glyph glyph-name="uni021A" unicode="&#x21a;" horiz-adv-x="623" 
d="M206 0l129 608h-246l20 92h599l-20 -92h-252l-130 -608h-100zM123 -313l92 118h-54l24 111h109l-25 -116l-88 -113h-58z" />
    <glyph glyph-name="uni021B" unicode="&#x21b;" horiz-adv-x="402" 
d="M99 104q0 21 4 36l60 278h-113l17 78h112l33 155h95l-33 -155h133l-17 -78h-132l-62 -288q-2 -14 -2 -16q0 -33 44 -33h114l-18 -81h-110q-61 0 -93 27.5t-32 76.5zM71 -313l92 118h-54l24 111h109l-25 -116l-88 -113h-58z" />
    <glyph glyph-name="uni0226" unicode="&#x226;" horiz-adv-x="693" 
d="M513 0l-25 185h-304l-104 -185h-116l411 700h140l106 -700h-108zM236 276h240l-26 193q-7 43 -7 84q0 32 5 77h-40q-9 -40 -25 -81q-14 -36 -40 -82zM414 770l24 112h98l-24 -112h-98z" />
    <glyph glyph-name="uni0227" unicode="&#x227;" horiz-adv-x="543" 
d="M32 122q0 101 96 149q96 47 254 49l3 14q2 16 2 21q0 76 -100 76q-99 0 -139 -87l-85 37q21 53 79.5 91t144.5 38q91 0 141.5 -39.5t50.5 -111.5q0 -23 -5 -50l-42 -201q-2 -10 -2 -11q0 -16 24 -16h50l-17 -81h-44q-70 0 -70 63q0 15 3 35h-41q-23 -50 -65.5 -81
t-101.5 -31t-97.5 34.5t-38.5 101.5zM358 205l10 46q-102 0 -170.5 -30t-68.5 -91q0 -31 21.5 -49t60.5 -18q49 0 92 39.5t55 102.5zM269 588l24 112h98l-24 -112h-98z" />
    <glyph glyph-name="uni0232" unicode="&#x232;" horiz-adv-x="647" 
d="M223 0l62 293l-165 407h111l81 -209q19 -48 19 -93q0 -15 -5 -50h41q15 85 61 143l162 209h126l-330 -403l-63 -297h-100zM272 788l16 72h334l-16 -72h-334z" />
    <glyph glyph-name="uni0233" unicode="&#x233;" horiz-adv-x="508" 
d="M433 496h105l-316 -573q-43 -72 -75 -95t-96 -23h-110l18 84h93q28 0 45.5 10t31.5 36l42 75l-110 486h101l48 -246q6 -32 6 -69q0 -41 -8 -81h47q12 84 47 150zM160 591l15 72h304l-16 -72h-303z" />
    <glyph glyph-name="uni0237" unicode="&#x237;" horiz-adv-x="266" 
d="M-130 -195l17 84h78q52 0 59 48l119 559h95l-121 -569q-16 -66 -46 -94t-96 -28h-105z" />
    <glyph glyph-name="circumflex" unicode="&#x2c6;" horiz-adv-x="427" 
d="M10 567l133 123h133l80 -123h-89l-64 73l-97 -73h-96z" />
    <glyph glyph-name="caron" unicode="&#x2c7;" horiz-adv-x="427" 
d="M107 567l-80 123h87l65 -74l97 74h97l-133 -123h-133z" />
    <glyph glyph-name="breve" unicode="&#x2d8;" horiz-adv-x="370" 
d="M58 667q0 9 2 23h72q-3 -30 12.5 -48t47.5 -18q64 0 86 66h80q-12 -56 -54 -95t-113 -39q-65 0 -99 32t-34 79z" />
    <glyph glyph-name="dotaccent" unicode="&#x2d9;" horiz-adv-x="315" 
d="M90 588l24 112h98l-24 -112h-98z" />
    <glyph glyph-name="ring" unicode="&#x2da;" horiz-adv-x="353" 
d="M73 652q0 55 36.5 91t92.5 36q46 0 77.5 -31t31.5 -73q0 -54 -37.5 -89.5t-90.5 -35.5q-47 0 -78.5 30t-31.5 72zM247 669q0 24 -14 38t-36 14q-26 0 -43.5 -18t-17.5 -44q0 -24 13.5 -37.5t37.5 -13.5t42 18t18 43z" />
    <glyph glyph-name="ogonek" unicode="&#x2db;" horiz-adv-x="344" 
d="M36 -121q0 87 167 155l37 -34q-123 -43 -123 -95q0 -36 51 -36q16 0 45 6l-15 -74q-29 -7 -59 -7q-47 0 -75 22.5t-28 62.5z" />
    <glyph glyph-name="tilde" unicode="&#x2dc;" horiz-adv-x="374" 
d="M218 596l-26 18q-25 17 -41 17q-39 0 -50 -51h-77q24 123 124 123q37 0 74 -24l26 -17q25 -18 39 -18q34 0 50 46h78q-24 -121 -123 -121q-36 0 -74 27z" />
    <glyph glyph-name="hungarumlaut" unicode="&#x2dd;" horiz-adv-x="655" 
d="M138 567l80 141h127l-141 -141h-66zM301 567l79 141h128l-141 -141h-66z" />
    <glyph glyph-name="gravecomb" unicode="&#x300;" horiz-adv-x="0" 
d="M-82 567l-79 141h115l20 -141h-56z" />
    <glyph glyph-name="acutecomb" unicode="&#x301;" horiz-adv-x="0" 
d="M-193 567l79 141h128l-141 -141h-66z" />
    <glyph glyph-name="uni0302" unicode="&#x302;" horiz-adv-x="0" 
d="M-388 567l133 123h133l80 -123h-89l-64 73l-97 -73h-96z" />
    <glyph glyph-name="tildecomb" unicode="&#x303;" horiz-adv-x="0" 
d="M-192 596l-26 18q-25 17 -41 17q-39 0 -50 -51h-77q24 123 124 123q37 0 74 -24l26 -17q25 -18 39 -18q34 0 50 46h78q-24 -121 -123 -121q-37 0 -74 27z" />
    <glyph glyph-name="uni0304" unicode="&#x304;" horiz-adv-x="0" 
d="M-337 591l15 72h304l-16 -72h-303z" />
    <glyph glyph-name="uni0306" unicode="&#x306;" horiz-adv-x="0" 
d="M-315 667q0 9 2 23h72q-3 -30 12.5 -48t47.5 -18q64 0 86 66h80q-12 -56 -54.5 -95t-112.5 -39q-65 0 -99 32t-34 79z" />
    <glyph glyph-name="uni0307" unicode="&#x307;" horiz-adv-x="0" 
d="M-119 588l24 112h98l-24 -112h-98z" />
    <glyph glyph-name="uni0308" unicode="&#x308;" horiz-adv-x="0" 
d="M-332 587l22 103h101l-22 -103h-101zM-137 587l22 103h100l-22 -103h-100z" />
    <glyph glyph-name="uni030A" unicode="&#x30a;" horiz-adv-x="0" 
d="M-240 652q0 55 36.5 91t92.5 36q46 0 77.5 -31t31.5 -73q0 -54 -37.5 -89.5t-90.5 -35.5q-47 0 -78.5 30t-31.5 72zM-66 669q0 24 -14 38t-36 14q-26 0 -43.5 -18t-17.5 -44q0 -24 13.5 -37.5t37.5 -13.5t42 18t18 43z" />
    <glyph glyph-name="uni030B" unicode="&#x30b;" horiz-adv-x="0" 
d="M-373 567l80 141h127l-141 -141h-66zM-210 567l79 141h128l-141 -141h-66z" />
    <glyph glyph-name="uni030C" unicode="&#x30c;" horiz-adv-x="0" 
d="M-299 567l-80 123h87l65 -74l97 74h97l-133 -123h-133z" />
    <glyph glyph-name="uni0312" unicode="&#x312;" horiz-adv-x="0" 
d="M84 817l-92 -119h54l-24 -111h-109l25 116l88 114h58z" />
    <glyph glyph-name="dotbelowcomb" unicode="&#x323;" horiz-adv-x="0" 
d="M-209 -195l24 112h98l-24 -112h-98z" />
    <glyph glyph-name="uni0326" unicode="&#x326;" horiz-adv-x="0" 
d="M-264 -313l92 118h-54l24 111h109l-25 -116l-88 -113h-58z" />
    <glyph glyph-name="uni0327" unicode="&#x327;" horiz-adv-x="0" 
d="M-281 -170l41 48q29 -32 68 -32q51 0 51 32q0 28 -42 28q-20 0 -33 -5l-23 41l89 76l47 -18l-33 -26l-30 -24q3 1 11 1q34 0 59.5 -21.5t25.5 -53.5q0 -43 -32.5 -67.5t-89.5 -24.5q-72 0 -109 46z" />
    <glyph glyph-name="uni0328" unicode="&#x328;" horiz-adv-x="0" 
d="M-229 -121q0 87 167 155l37 -34q-123 -43 -123 -95q0 -36 51 -36q17 0 45 6l-15 -74q-29 -7 -59 -7q-47 0 -75 22.5t-28 62.5z" />
    <glyph glyph-name="uni0394" unicode="&#x394;" horiz-adv-x="693" 
d="M515 700l106 -700h-657l411 700h140zM132 92h368l-50 377q-7 43 -7 84q0 32 5 77h-40q-9 -40 -25 -81q-14 -36 -40 -82z" />
    <glyph glyph-name="uni03A9" unicode="&#x3a9;" horiz-adv-x="826" 
d="M19 0l19 92h52q65 0 136 -33l16 39q-82 31 -119 86t-37 144q-2 97 45.5 186t136 145.5t193.5 54.5q142 0 227 -79t85 -211q0 -118 -70.5 -204.5t-198.5 -125.5l16 -42q85 40 134 40h54l-19 -92h-291l24 110q104 18 174.5 108.5t70.5 196.5q0 95 -56.5 151.5t-152.5 56.5
q-115 2 -192 -92t-75 -221q0 -170 136 -200l-23 -110h-285z" />
    <glyph glyph-name="uni03BC" unicode="&#x3bc;" horiz-adv-x="583" 
d="M-12 -195l147 691h95l-64 -301q-4 -17 -4 -38q0 -42 22 -66t61 -24q67 0 108 60q42 62 58 139l49 230h95l-106 -496h-80q12 54 68 116h-56q-23 -39 -40.5 -62.5t-52.5 -45t-79 -22.5q-48 0 -83 26l-43 -207h-95z" />
    <glyph glyph-name="pi" unicode="&#x3c0;" horiz-adv-x="630" 
d="M67 0l89 415h-103l17 81h564l-18 -81h-103l-61 -286q0 -3 -0.5 -5.5t-1 -4.5t-0.5 -3.5v-2.5q0 -17 10 -24.5t33 -7.5h63l-18 -81h-68q-55 0 -85.5 25.5t-30.5 69.5q0 17 4 30l62 290h-169l-90 -415h-94z" />
    <glyph glyph-name="Wgrave" unicode="&#x1e80;" horiz-adv-x="990" 
d="M150 0l-16 700h102l4 -393q1 -98 -23 -213h44q9 43 25 96q13 42 44 104l200 406h123l20 -403q2 -42 2 -66q0 -73 -12 -137h42q9 49 25 104q11 39 43 115l173 387h110l-328 -700h-130l-21 392q-1 17 -1 37q0 81 18 183h-44q-25 -122 -73 -217l-195 -395h-132zM569 770
l-87 142h127l21 -142h-61z" />
    <glyph glyph-name="wgrave" unicode="&#x1e81;" horiz-adv-x="824" 
d="M131 0l-56 496h93l20 -231q2 -32 2 -51q0 -59 -12 -131h43q20 94 64 177l120 236h110l20 -235q2 -30 2 -49q0 -56 -12 -129h43q6 34 22 82q14 41 45 102l119 229h103l-270 -496h-109l-22 230q-2 36 -2 59q0 59 13 130h-43q-18 -96 -66 -188l-120 -231h-107zM441 567
l-79 141h115l20 -141h-56z" />
    <glyph glyph-name="Wacute" unicode="&#x1e82;" horiz-adv-x="990" 
d="M150 0l-16 700h102l4 -393q1 -98 -23 -213h44q9 43 25 96q13 42 44 104l200 406h123l20 -403q2 -42 2 -66q0 -73 -12 -137h42q9 49 25 104q11 39 43 115l173 387h110l-328 -700h-130l-21 392q-1 17 -1 37q0 81 18 183h-44q-25 -122 -73 -217l-195 -395h-132zM566 770
l87 142h141l-155 -142h-73z" />
    <glyph glyph-name="wacute" unicode="&#x1e83;" horiz-adv-x="824" 
d="M131 0l-56 496h93l20 -231q2 -32 2 -51q0 -59 -12 -131h43q20 94 64 177l120 236h110l20 -235q2 -30 2 -49q0 -56 -12 -129h43q6 34 22 82q14 41 45 102l119 229h103l-270 -496h-109l-22 230q-2 36 -2 59q0 59 13 130h-43q-18 -96 -66 -188l-120 -231h-107zM443 567
l79 141h128l-141 -141h-66z" />
    <glyph glyph-name="Wdieresis" unicode="&#x1e84;" horiz-adv-x="990" 
d="M150 0l-16 700h102l4 -393q1 -98 -23 -213h44q9 43 25 96q13 42 44 104l200 406h123l20 -403q2 -42 2 -66q0 -73 -12 -137h42q9 49 25 104q11 39 43 115l173 387h110l-328 -700h-130l-21 392q-1 17 -1 37q0 81 18 183h-44q-25 -122 -73 -217l-195 -395h-132zM441 770
l24 103h110l-24 -103h-110zM655 770l24 103h110l-24 -103h-110z" />
    <glyph glyph-name="wdieresis" unicode="&#x1e85;" horiz-adv-x="824" 
d="M131 0l-56 496h93l20 -231q2 -32 2 -51q0 -59 -12 -131h43q20 94 64 177l120 236h110l20 -235q2 -30 2 -49q0 -56 -12 -129h43q6 34 22 82q14 41 45 102l119 229h103l-270 -496h-109l-22 230q-2 36 -2 59q0 59 13 130h-43q-18 -96 -66 -188l-120 -231h-107zM333 587
l22 103h101l-22 -103h-101zM528 587l22 103h100l-22 -103h-100z" />
    <glyph glyph-name="uni1E9E" unicode="&#x1e9e;" horiz-adv-x="719" 
d="M222 23l20 94q68 -38 146 -38q75 0 119.5 37.5t44.5 93.5q0 48 -35.5 76.5t-96.5 28.5h-113l20 93h98q66 0 106 31t40 83q0 42 -29.5 64t-83.5 22h-179l-130 -608h-100l149 700h281q87 0 141.5 -42.5t54.5 -114.5q0 -68 -44 -110t-118 -47l-9 -41q70 -4 112.5 -45.5
t42.5 -102.5q0 -90 -71.5 -150.5t-197.5 -60.5q-112 0 -168 37z" />
    <glyph glyph-name="uni1EA0" unicode="&#x1ea0;" horiz-adv-x="693" 
d="M513 0l-25 185h-304l-104 -185h-116l411 700h140l106 -700h-108zM236 276h240l-26 193q-7 43 -7 84q0 32 5 77h-40q-9 -40 -25 -81q-14 -36 -40 -82zM207 -195l24 112h98l-24 -112h-98z" />
    <glyph glyph-name="uni1EA1" unicode="&#x1ea1;" horiz-adv-x="543" 
d="M32 122q0 101 96 149q96 47 254 49l3 14q2 16 2 21q0 76 -100 76q-99 0 -139 -87l-85 37q21 53 79.5 91t144.5 38q91 0 141.5 -39.5t50.5 -111.5q0 -23 -5 -50l-42 -201q-2 -10 -2 -11q0 -16 24 -16h50l-17 -81h-44q-70 0 -70 63q0 15 3 35h-41q-23 -50 -65.5 -81
t-101.5 -31t-97.5 34.5t-38.5 101.5zM358 205l10 46q-102 0 -170.5 -30t-68.5 -91q0 -31 21.5 -49t60.5 -18q49 0 92 39.5t55 102.5zM133 -195l24 112h98l-24 -112h-98z" />
    <glyph glyph-name="uni1EB8" unicode="&#x1eb8;" horiz-adv-x="641" 
d="M49 0l149 700h490l-20 -92h-389l-43 -200h288l-19 -91h-289l-47 -225h390l-20 -92h-490zM206 -195l24 112h98l-24 -112h-98z" />
    <glyph glyph-name="uni1EB9" unicode="&#x1eb9;" horiz-adv-x="539" 
d="M41 196q-2 75 30.5 147t94.5 120.5t137 46.5q89 0 141 -54.5t52 -142.5q0 -41 -14 -89h-347q-4 -19 -4 -39q0 -54 30.5 -87t84.5 -33q49 0 87 28.5t62 72.5l81 -41q-79 -139 -233 -139q-93 0 -147.5 54t-54.5 156zM150 299h251q2 18 2 27q0 49 -28 79t-76 30
q-49 0 -90 -37t-59 -99zM145 -195l24 112h98l-24 -112h-98z" />
    <glyph glyph-name="uni1ECA" unicode="&#x1eca;" horiz-adv-x="302" 
d="M49 0l149 700h100l-149 -700h-100zM9 -195l24 112h98l-24 -112h-98z" />
    <glyph glyph-name="uni1ECB" unicode="&#x1ecb;" horiz-adv-x="258" 
d="M153 588l24 112h98l-24 -112h-98zM30 0l105 496h94l-104 -496h-95zM-13 -195l24 112h98l-24 -112h-98z" />
    <glyph glyph-name="uni1ECC" unicode="&#x1ecc;" horiz-adv-x="806" 
d="M72 308q-2 105 48.5 199.5t140.5 151.5t195 55q142 0 232 -87t90 -234q2 -108 -48 -202.5t-139.5 -150.5t-195.5 -54q-145 0 -234 85.5t-89 236.5zM674 394q0 104 -58 166.5t-161 62.5q-78 2 -143.5 -43.5t-100.5 -119.5t-34 -157q0 -102 57.5 -164t160.5 -62
q117 -2 199 95t80 222zM263 -195l24 112h98l-24 -112h-98z" />
    <glyph glyph-name="uni1ECD" unicode="&#x1ecd;" horiz-adv-x="560" 
d="M41 195q-2 78 32.5 151t99 119.5t141.5 44.5q94 0 150 -58.5t56 -152.5q1 -80 -32.5 -152t-97.5 -117.5t-143 -43.5q-96 0 -151 57t-55 152zM424 299q0 62 -31.5 96t-84.5 34q-52 2 -92.5 -34t-60 -89.5t-18.5 -110.5q0 -62 31 -95t84 -33q78 0 125 70.5t47 161.5z
M144 -195l24 112h98l-24 -112h-98z" />
    <glyph glyph-name="uni1EE4" unicode="&#x1ee4;" horiz-adv-x="724" 
d="M89 195q0 35 9 79l90 426h101l-89 -416q-9 -40 -9 -71q0 -134 138 -134q88 0 139 51t72 155l88 415h101l-93 -436q-31 -142 -103.5 -210t-203.5 -68q-112 0 -176 53.5t-64 155.5zM222 -195l24 112h98l-24 -112h-98z" />
    <glyph glyph-name="uni1EE5" unicode="&#x1ee5;" horiz-adv-x="576" 
d="M58 141q0 28 6 58l64 297h95l-64 -301q-5 -22 -5 -38q0 -42 22.5 -66t61.5 -24q68 0 108 60q42 62 58 139l49 230h95l-106 -496h-80q14 56 68 116h-56q-31 -58 -70 -93.5t-101 -36.5q-65 0 -105 41.5t-40 113.5zM144 -195l24 112h98l-24 -112h-98z" />
    <glyph glyph-name="Ygrave" unicode="&#x1ef2;" horiz-adv-x="647" 
d="M223 0l62 293l-165 407h111l81 -209q19 -48 19 -93q0 -15 -5 -50h41q15 85 61 143l162 209h126l-330 -403l-63 -297h-100zM402 770l-87 142h127l21 -142h-61z" />
    <glyph glyph-name="ygrave" unicode="&#x1ef3;" horiz-adv-x="508" 
d="M433 496h105l-316 -573q-43 -72 -75 -95t-96 -23h-110l18 84h93q28 0 45.5 10t31.5 36l42 75l-110 486h101l48 -246q6 -32 6 -69q0 -41 -8 -81h47q12 84 47 150zM279 567l-79 141h115l20 -141h-56z" />
    <glyph glyph-name="uni2002" unicode="&#x2002;" horiz-adv-x="500" 
 />
    <glyph glyph-name="uni2003" unicode="&#x2003;" horiz-adv-x="1000" 
 />
    <glyph glyph-name="uni2009" unicode="&#x2009;" horiz-adv-x="125" 
 />
    <glyph glyph-name="endash" unicode="&#x2013;" horiz-adv-x="627" 
d="M76 267l19 86h482l-19 -86h-482z" />
    <glyph glyph-name="emdash" unicode="&#x2014;" horiz-adv-x="942" 
d="M77 267l18 86h796l-19 -86h-795z" />
    <glyph glyph-name="quoteleft" unicode="&#x2018;" horiz-adv-x="255" 
d="M292 700l-101 -133h59l-25 -124h-120l28 130l96 127h63z" />
    <glyph glyph-name="quoteright" unicode="&#x2019;" horiz-adv-x="248" 
d="M102 444l101 133h-59l26 124h119l-27 -129l-96 -128h-64z" />
    <glyph glyph-name="quotesinglbase" unicode="&#x201a;" horiz-adv-x="261" 
d="M-15 -133l101 133h-59l26 124h119l-27 -129l-96 -128h-64z" />
    <glyph glyph-name="quotedblleft" unicode="&#x201c;" horiz-adv-x="439" 
d="M292 700l-101 -133h59l-25 -124h-120l28 130l96 127h63zM476 700l-101 -133h60l-26 -124h-120l28 130l96 127h63z" />
    <glyph glyph-name="quotedblright" unicode="&#x201d;" horiz-adv-x="432" 
d="M102 444l101 133h-59l26 124h119l-27 -129l-96 -128h-64zM286 444l101 133h-59l26 124h119l-27 -129l-96 -128h-64z" />
    <glyph glyph-name="quotedblbase" unicode="&#x201e;" horiz-adv-x="445" 
d="M-15 -133l101 133h-59l26 124h119l-27 -129l-96 -128h-64zM169 -133l101 133h-59l26 124h119l-27 -129l-96 -128h-64z" />
    <glyph glyph-name="dagger" unicode="&#x2020;" horiz-adv-x="584" 
d="M281 -104v509h-200v92h200v203h100v-203h202v-92h-202v-509h-100z" />
    <glyph glyph-name="daggerdbl" unicode="&#x2021;" horiz-adv-x="652" 
d="M287 -104v203h-201v91h201v215h-201v92h201v203h100v-203h201v-92h-201v-215h201v-91h-201v-203h-100z" />
    <glyph glyph-name="bullet" unicode="&#x2022;" horiz-adv-x="530" 
d="M97 349q0 79 55.5 135t134.5 56q77 0 133 -56t56 -135q0 -76 -56 -132t-133 -56q-78 0 -134 56t-56 132z" />
    <glyph glyph-name="ellipsis" unicode="&#x2026;" horiz-adv-x="733" 
d="M22 0l28 130h126l-28 -130h-126zM257 0l28 130h126l-28 -130h-126zM492 0l28 130h126l-28 -130h-126z" />
    <glyph glyph-name="perthousand" unicode="&#x2030;" horiz-adv-x="1183" 
d="M88 458q0 106 55 178t136 72q68 0 108.5 -45.5t40.5 -122.5q0 -106 -54 -176.5t-136 -70.5q-70 0 -110 44t-40 121zM756 700h105l-638 -700h-106zM173 458q0 -96 67 -96q41 0 72.5 54.5t31.5 124.5q0 46 -18 72t-49 26q-41 0 -72.5 -55.5t-31.5 -125.5zM1139 242
q0 -105 -54 -176t-136 -71q-85 0 -123 61q-52 -61 -128 -61q-70 0 -110 44.5t-40 121.5q0 105 55 177t136 72q83 0 122 -64q53 64 129 64q68 0 108.5 -45.5t40.5 -122.5zM804 243q0 46 -18 72t-49 26q-41 0 -72.5 -54.5t-31.5 -126.5q0 -96 67 -96q41 0 72.5 54.5
t31.5 124.5zM1055 243q0 46 -17.5 72t-49.5 26q-41 0 -72.5 -54.5t-31.5 -126.5q0 -96 68 -96q41 0 72 54.5t31 124.5z" />
    <glyph glyph-name="guilsinglleft" unicode="&#x2039;" horiz-adv-x="327" 
d="M332 470l-188 -227l82 -207h-94l-86 217l179 217h107z" />
    <glyph glyph-name="guilsinglright" unicode="&#x203a;" horiz-adv-x="327" 
d="M198 470l86 -218l-179 -216h-106l187 227l-82 207h94z" />
    <glyph glyph-name="fraction" unicode="&#x2044;" horiz-adv-x="183" 
d="M-261 0l639 700h106l-638 -700h-107z" />
    <glyph glyph-name="uni2070" unicode="&#x2070;" horiz-adv-x="425" 
d="M116 549q0 106 55 178t136 72q68 0 108.5 -45.5t40.5 -122.5q0 -106 -54 -176.5t-136 -70.5q-70 0 -110 44t-40 121zM372 632q0 46 -18 72t-49 26q-42 0 -73 -55t-31 -126q0 -96 67 -96q41 0 72.5 54.5t31.5 124.5z" />
    <glyph glyph-name="uni2074" unicode="&#x2074;" horiz-adv-x="385" 
d="M249 392l21 103h-183l15 71l200 225h110l-49 -230h54l-14 -66h-55l-22 -103h-77zM286 561l10 50q9 45 58 91l-23 22l-157 -175l22 -20q32 32 75 32h15z" />
    <glyph glyph-name="uni2075" unicode="&#x2075;" horiz-adv-x="380" 
d="M96 499l81 18q1 -30 18 -47.5t45 -17.5q31 0 51 22t20 56q0 26 -14.5 41t-38.5 15q-42 0 -65 -42l-80 19l77 228h246l-14 -70h-178l-12 -35q-16 -55 -55 -89h42q25 53 77 53q44 0 72 -32t28 -82q0 -68 -43 -110t-112 -42q-62 0 -102 31.5t-43 83.5z" />
    <glyph glyph-name="uni2076" unicode="&#x2076;" horiz-adv-x="396" 
d="M115 546q0 111 62.5 182t161.5 71q63 0 103 -21l-15 -72q-47 21 -93 21q-60 0 -101 -32.5t-52 -98.5h30q23 62 88 62q48 0 82 -34t34 -84q0 -67 -45 -111.5t-111 -44.5q-68 0 -106 42.5t-38 119.5zM329 533q0 58 -55 58q-29 0 -50 -23.5t-21 -56.5q0 -26 14.5 -42.5
t39.5 -16.5q29 0 50.5 24t21.5 57z" />
    <glyph glyph-name="uni2077" unicode="&#x2077;" horiz-adv-x="341" 
d="M325 721l16 9l-18 28q-55 -37 -111 -37h-81l15 70h284l-16 -72q-95 -66 -140 -140.5t-55 -186.5h-90q10 107 61.5 193.5t134.5 135.5z" />
    <glyph glyph-name="uni2078" unicode="&#x2078;" horiz-adv-x="386" 
d="M101 492q0 38 32 65t81 28l8 32q-37 3 -55.5 20.5t-18.5 43.5q0 50 41.5 84t104.5 34q56 0 92.5 -28.5t36.5 -74.5q0 -35 -26 -58.5t-73 -22.5l-7 -32q36 -4 57.5 -25t21.5 -51q0 -53 -44 -88t-111 -35q-64 0 -102 30t-38 78zM340 686q0 21 -13.5 33t-36.5 12
q-26 0 -43 -16t-17 -41q0 -45 50 -45q26 0 43 16t17 41zM312 515q0 24 -15.5 38t-42.5 14q-29 0 -48.5 -18.5t-19.5 -45.5q0 -24 15 -37.5t42 -13.5q31 0 50 17.5t19 45.5z" />
    <glyph glyph-name="uni2079" unicode="&#x2079;" horiz-adv-x="392" 
d="M100 406l15 74q40 -22 90 -22q65 0 105 40q36 36 43 93h-32q-9 -27 -31.5 -43.5t-52.5 -16.5q-47 0 -77 33t-30 87q0 65 42 106.5t107 41.5q61 0 101 -40q43 -43 43 -127q0 -112 -59 -180t-157 -68q-63 0 -107 22zM335 671q0 26 -15 43t-40 17q-28 0 -46.5 -21.5
t-18.5 -53.5q0 -27 14.5 -42.5t39.5 -15.5q28 0 47 21t19 52z" />
    <glyph glyph-name="uni20A9" unicode="&#x20a9;" horiz-adv-x="1082" 
d="M1100 700l-112 -238h99l-16 -72h-117l-34 -73h105l-15 -72h-123l-115 -245h-131l-13 245h-183l-120 -245h-132l-5 245h-120l15 72h103l-1 73h-118l16 72h100l-6 238h100l3 -238h175l116 238h124l12 -238h175l107 238h111zM549 462h72q3 77 16 150h-43q-16 -76 -45 -150z
M280 390l1 -73h103l35 73h-139zM481 317h144l-4 73h-104zM817 317l33 73h-139l3 -73h103zM351 245h-72q-4 -74 -18 -151h43q20 88 47 151zM748 94l4 18q19 90 36 133h-71v-16q0 -72 -11 -135h42z" />
    <glyph glyph-name="Euro" unicode="&#x20ac;" horiz-adv-x="701" 
d="M138 235h-99l16 78h83q0 16 4 40q4 26 9 40h-78l16 78h86q42 109 121 176t178 67q115 0 172 -57t65 -145l-101 -22q-6 55 -35 96q-28 40 -102 40q-134 0 -227 -172l30 -23q17 22 41.5 31t69.5 9h107l-15 -78h-234q-15 -51 -15 -80h231l-17 -78h-100q-44 0 -64.5 9.5
t-41.5 30.5l-30 -21q18 -86 61.5 -132.5t110.5 -46.5q59 0 103.5 40t67.5 105l92 -36q-30 -87 -97.5 -142.5t-165.5 -55.5q-109 0 -172.5 67t-69.5 182z" />
    <glyph glyph-name="uni20B9" unicode="&#x20b9;" horiz-adv-x="570" 
d="M443 644l-21 -37q35 -18 54 -49h115l-16 -80h-86q-9 -60 -60.5 -92.5t-136.5 -36.5l-8 -41q73 -1 100.5 -30.5t32.5 -101.5l11 -176h-108l-7 167q-1 67 -33.5 94.5t-106.5 27.5h-109l19 90h150q64 0 106 25.5t55 73.5h-290l17 80h272q-26 62 -127 62h-132l17 80h471
l-17 -79h-55q-68 0 -107 23z" />
    <glyph glyph-name="uni20BA" unicode="&#x20ba;" horiz-adv-x="629" 
d="M102 0l29 134q13 62 57 117l-35 23q-30 -50 -63 -66l-39 -19l21 96l101 52l14 63l-103 -51l20 95l104 52l42 204h101l-12 -57q-11 -56 -53 -104l35 -23q19 29 36 45.5t53 37.5l156 80l-21 -97l-246 -126l-13 -61l247 126l-21 -98l-247 -127l-42 -203h22q42 -1 91 16.5
t98.5 63t66.5 109.5l94 -45q-30 -94 -128 -166.5t-234 -70.5h-131z" />
    <glyph glyph-name="uni20BD" unicode="&#x20bd;" horiz-adv-x="636" 
d="M379 277h-144l-15 -68h214l-18 -79h-212l-28 -130h-101l28 130h-76l17 79h76l14 68h-75l18 86h76l72 337h190q110 0 170.5 -53t60.5 -142q0 -100 -74 -164t-193 -64zM305 608l-52 -245h124q76 0 120.5 39t44.5 102q0 48 -34.5 76t-96.5 28h-106z" />
    <glyph glyph-name="uni20BF" unicode="&#x20bf;" horiz-adv-x="680" 
d="M627 207q0 -85 -69.5 -145.5t-179.5 -61.5l-23 -105h-78l23 105h-59l-22 -105h-78l23 105h-115l149 700h114l22 104h78l-23 -104h59l23 104h77l-24 -111q60 -14 95 -53.5t35 -93.5q0 -69 -44 -110.5t-125 -50.5l-9 -40q72 -4 111.5 -40t39.5 -98zM279 608l-43 -200h168
q68 0 107 31.5t39 84.5q0 84 -112 84h-159zM523 220q0 47 -33 72.5t-91 25.5h-181l-49 -226h198q71 0 113.5 35.5t42.5 92.5z" />
    <glyph glyph-name="uni2113" unicode="&#x2113;" horiz-adv-x="490" 
d="M79 111q0 22 4 39l11 50q-47 -5 -71 -5l17 81q38 2 71 8l59 273q16 71 59 114t110 43q76 0 122 -46t46 -123q0 -110 -86 -197.5t-224 -127.5l-14 -71q-3 -17 -3 -28q0 -49 49 -49q67 0 97 93l91 -44q-21 -65 -70.5 -100t-116.5 -35q-70 0 -110.5 33t-40.5 92zM404 543
q0 86 -64 86q-56 0 -74 -81l-24 -113q-10 -47 -26.5 -76t-49.5 -57l20 -31q102 47 160 119.5t58 152.5z" />
    <glyph glyph-name="uni2116" unicode="&#x2116;" horiz-adv-x="1207" 
d="M55 0l149 700h147l243 -580l40 16q-16 50 -16 93t12 99l79 372h100l-149 -700h-119l-259 617l-40 -16q12 -37 12 -87q0 -47 -14 -114l-85 -400h-100zM826 467q-2 92 60 168.5t157 74.5q78 0 128.5 -51t50.5 -132q0 -98 -59.5 -168t-158.5 -70q-81 0 -129.5 48.5
t-48.5 129.5zM1129 534q0 50 -24.5 78t-64.5 28q-54 0 -88 -55t-34 -124q0 -50 23.5 -76t65.5 -26q57 0 89.5 51t32.5 124z" />
    <glyph glyph-name="uni2117" unicode="&#x2117;" horiz-adv-x="890" 
d="M79 359q-2 102 51 192.5t144 143.5t196 51q78 1 150.5 -30t125 -83.5t83.5 -124.5t30 -149q2 -103 -50.5 -192.5t-143.5 -142t-195 -50.5q-160 -3 -277 112.5t-114 272.5zM785 359q2 129 -91.5 224.5t-223.5 92.5q-132 3 -225 -92t-91 -225q-2 -129 91 -223.5t225 -92.5
q130 -2 223.5 92.5t91.5 223.5zM346 164v403h167q57 0 100 -33t43 -93t-43 -93.5t-100 -33.5h-96v-150h-71zM417 373h77q89 0 89 67q0 65 -89 65h-77v-132z" />
    <glyph glyph-name="trademark" unicode="&#x2122;" horiz-adv-x="917" 
d="M171 323l66 309h-121l14 68h320l-14 -68h-123l-66 -309h-76zM417 323l82 377h118l21 -180q2 -26 2 -45q0 -38 -7 -81h34q12 73 41 126l96 180h124l-81 -377h-76l31 144q14 65 76 161l-33 17l-9 -16l-165 -306h-73l-38 307l-2 14l-36 -5q10 -47 10 -89t-9 -89l-30 -138
h-76z" />
    <glyph glyph-name="Omega" unicode="&#x2126;" horiz-adv-x="849" 
d="M102 0v92h46q50 0 143 -39l16 40q-214 67 -214 279q-2 144 98 244.5t244 97.5q143 3 242 -97.5t97 -244.5q0 -212 -213 -279l16 -40q94 39 143 39h46v-92h-286v110q88 15 138 84.5t50 173.5q0 108 -64.5 181.5t-169.5 73.5q-106 0 -170.5 -73.5t-64.5 -181.5
q0 -103 50 -172t136 -86v-110h-283z" />
    <glyph glyph-name="onethird" unicode="&#x2153;" horiz-adv-x="827" 
d="M149 301l49 225q11 52 35 88h-35q-37 -70 -100 -74l16 76q73 2 133 84h68l-85 -399h-81zM29 0l639 700h106l-638 -700h-107zM470 127l86 11q-1 -2 -1 -11q0 -67 57 -67q28 0 45.5 17.5t17.5 44.5q0 47 -54 47h-35l14 67h34q31 0 50 16t19 44q0 19 -12.5 31t-32.5 12
q-52 0 -63 -68l-83 17q9 55 49 87t101 32q55 0 89.5 -27.5t34.5 -69.5q0 -41 -28 -65.5t-77 -24.5l-6 -31q38 -2 61 -24t23 -53q0 -52 -42 -86t-107 -34q-68 0 -105.5 36.5t-34.5 98.5z" />
    <glyph glyph-name="twothirds" unicode="&#x2154;" horiz-adv-x="919" 
d="M77 301l18 87q123 66 170 105t50 89q0 27 -14 42t-40 15q-28 0 -44.5 -24t-17.5 -63l-85 17q6 65 46.5 102t105.5 37q59 0 96.5 -33.5t37.5 -86.5q0 -69 -58 -119q-34 -31 -142 -81q-2 -1 -16 -7t-22 -10l17 -31q53 32 111 32h71l-15 -71h-269zM123 0l639 700h106
l-638 -700h-107zM564 127l86 11q-1 -2 -1 -11q0 -67 57 -67q28 0 45.5 17.5t17.5 44.5q0 47 -54 47h-35l14 67h34q31 0 50 16t19 44q0 19 -12.5 31t-32.5 12q-52 0 -63 -68l-83 17q9 55 49 87t101 32q55 0 89.5 -27.5t34.5 -69.5q0 -41 -28 -65.5t-77 -24.5l-6 -31
q38 -2 61 -24t23 -53q0 -52 -42 -86t-107 -34q-68 0 -105.5 36.5t-34.5 98.5z" />
    <glyph glyph-name="uni2155" unicode="&#x2155;" horiz-adv-x="840" 
d="M149 301l49 225q11 52 35 88h-35q-37 -70 -100 -74l16 76q73 2 133 84h68l-85 -399h-81zM29 0l639 700h106l-638 -700h-107zM472 107l81 18q1 -30 18 -47.5t45 -17.5q31 0 51 22t20 56q0 26 -14.5 41t-38.5 15q-42 0 -65 -42l-80 19l77 228h246l-14 -70h-178l-12 -35
q-16 -55 -55 -89h42q25 53 77 53q44 0 72 -32t28 -82q0 -68 -43 -110t-112 -42q-62 0 -102 31.5t-43 83.5z" />
    <glyph glyph-name="uni2156" unicode="&#x2156;" horiz-adv-x="931" 
d="M76 301l18 87q123 66 170 105t50 89q0 27 -14 42t-40 15q-28 0 -44.5 -24t-17.5 -63l-85 17q6 65 46.5 102t105.5 37q59 0 96.5 -33.5t37.5 -86.5q0 -69 -58 -119q-34 -31 -142 -81q-2 -1 -16 -7t-22 -10l17 -31q53 32 111 32h71l-15 -71h-269zM122 0l639 700h106
l-638 -700h-107zM565 107l81 18q1 -30 18 -47.5t45 -17.5q31 0 51 22t20 56q0 26 -14.5 41t-38.5 15q-42 0 -65 -42l-80 19l77 228h246l-14 -70h-178l-12 -35q-16 -55 -55 -89h42q25 53 77 53q44 0 72 -32t28 -82q0 -68 -43 -110t-112 -42q-62 0 -102 31.5t-43 83.5z" />
    <glyph glyph-name="uni2157" unicode="&#x2157;" horiz-adv-x="935" 
d="M75 428l86 11q-1 -2 -1 -11q0 -67 57 -67q28 0 45.5 17.5t17.5 44.5q0 47 -54 47h-35l14 67h34q31 0 50 16t19 44q0 19 -12.5 31t-32.5 12q-52 0 -63 -68l-83 17q9 55 49 87t101 32q55 0 89.5 -27.5t34.5 -69.5q0 -41 -28 -65.5t-77 -24.5l-6 -31q38 -2 61 -24t23 -53
q0 -52 -42 -86t-107 -34q-68 0 -105.5 36.5t-34.5 98.5zM113 0l639 700h106l-638 -700h-107zM557 107l81 18q1 -30 18 -47.5t45 -17.5q31 0 51 22t20 56q0 26 -14.5 41t-38.5 15q-42 0 -65 -42l-80 19l77 228h246l-14 -70h-178l-12 -35q-16 -55 -55 -89h42q25 53 77 53
q44 0 72 -32t28 -82q0 -68 -43 -110t-112 -42q-62 0 -102 31.5t-43 83.5z" />
    <glyph glyph-name="uni2158" unicode="&#x2158;" horiz-adv-x="939" 
d="M230 301l21 103h-183l15 71l200 225h110l-49 -230h54l-14 -66h-55l-22 -103h-77zM267 470l10 50q9 45 58 91l-23 22l-157 -175l22 -20q32 32 75 32h15zM124 0l639 700h106l-638 -700h-107zM568 107l81 18q1 -30 18 -47.5t45 -17.5q31 0 51 22t20 56q0 26 -14.5 41
t-38.5 15q-42 0 -65 -42l-80 19l77 228h246l-14 -70h-178l-12 -35q-16 -55 -55 -89h42q25 53 77 53q44 0 72 -32t28 -82q0 -68 -43 -110t-112 -42q-62 0 -102 31.5t-43 83.5z" />
    <glyph glyph-name="uni2159" unicode="&#x2159;" horiz-adv-x="866" 
d="M149 301l49 225q11 52 35 88h-35q-37 -70 -100 -74l16 76q73 2 133 84h68l-85 -399h-81zM29 0l639 700h106l-638 -700h-107zM488 154q0 111 62.5 182t161.5 71q63 0 103 -21l-15 -72q-46 21 -93 21q-60 0 -101 -32.5t-52 -98.5h30q23 62 88 62q48 0 82 -34t34 -84
q0 -67 -45 -111.5t-111 -44.5q-68 0 -106 42.5t-38 119.5zM702 141q0 58 -55 58q-29 0 -50 -23.5t-21 -56.5q0 -26 14.5 -42.5t39.5 -16.5q29 0 50.5 24t21.5 57z" />
    <glyph glyph-name="uni215A" unicode="&#x215a;" horiz-adv-x="932" 
d="M71 408l81 18q1 -30 18 -47.5t45 -17.5q31 0 51 22t20 56q0 26 -14.5 41t-38.5 15q-42 0 -65 -42l-80 19l77 228h246l-14 -70h-178l-12 -35q-16 -55 -55 -89h42q25 53 77 53q44 0 72 -32t28 -82q0 -68 -43 -110t-112 -42q-62 0 -102 31.5t-43 83.5zM112 0l639 700h106
l-638 -700h-107zM571 154q0 111 62.5 182t161.5 71q63 0 103 -21l-15 -72q-47 21 -93 21q-60 0 -101 -32.5t-52 -98.5h30q23 62 88 62q48 0 82 -34t34 -84q0 -67 -45 -111.5t-111 -44.5q-68 0 -106 42.5t-38 119.5zM785 141q0 58 -55 58q-29 0 -50 -23.5t-21 -56.5
q0 -26 14.5 -42.5t39.5 -16.5q29 0 50.5 24t21.5 57z" />
    <glyph glyph-name="oneeighth" unicode="&#x215b;" horiz-adv-x="832" 
d="M149 301l49 225q11 52 35 88h-35q-37 -70 -100 -74l16 76q73 2 133 84h68l-85 -399h-81zM29 0l639 700h106l-638 -700h-107zM469 100q0 38 32 65t81 28l8 32q-37 3 -55.5 20.5t-18.5 43.5q0 50 41.5 84t104.5 34q56 0 92.5 -28.5t36.5 -74.5q0 -35 -26 -58.5t-73 -22.5
l-7 -32q36 -4 57.5 -25t21.5 -51q0 -53 -44 -88t-111 -35q-64 0 -102 30t-38 78zM708 294q0 21 -13.5 33t-36.5 12q-26 0 -43 -16t-17 -41q0 -45 50 -45q26 0 43 16t17 41zM680 123q0 24 -15.5 38t-42.5 14q-29 0 -48.5 -18.5t-19.5 -45.5q0 -24 15 -37.5t42 -13.5
q31 0 50 17.5t19 45.5z" />
    <glyph glyph-name="threeeighths" unicode="&#x215c;" horiz-adv-x="915" 
d="M75 428l86 11q-1 -2 -1 -11q0 -67 57 -67q28 0 45.5 17.5t17.5 44.5q0 47 -54 47h-35l14 67h34q31 0 50 16t19 44q0 19 -12.5 31t-32.5 12q-52 0 -63 -68l-83 17q9 55 49 87t101 32q55 0 89.5 -27.5t34.5 -69.5q0 -41 -28 -65.5t-77 -24.5l-6 -31q38 -2 61 -24t23 -53
q0 -52 -42 -86t-107 -34q-68 0 -105.5 36.5t-34.5 98.5zM113 0l639 700h106l-638 -700h-107zM553 100q0 38 32 65t81 28l8 32q-37 3 -55.5 20.5t-18.5 43.5q0 50 41.5 84t104.5 34q56 0 92.5 -28.5t36.5 -74.5q0 -35 -26 -58.5t-73 -22.5l-7 -32q36 -4 57.5 -25t21.5 -51
q0 -53 -44 -88t-111 -35q-64 0 -102 30t-38 78zM792 294q0 21 -13.5 33t-36.5 12q-26 0 -43 -16t-17 -41q0 -45 50 -45q26 0 43 16t17 41zM764 123q0 24 -15.5 38t-42.5 14q-29 0 -48.5 -18.5t-19.5 -45.5q0 -24 15 -37.5t42 -13.5q31 0 50 17.5t19 45.5z" />
    <glyph glyph-name="fiveeighths" unicode="&#x215d;" horiz-adv-x="914" 
d="M71 408l81 18q1 -30 18 -47.5t45 -17.5q31 0 51 22t20 56q0 26 -14.5 41t-38.5 15q-42 0 -65 -42l-80 19l77 228h246l-14 -70h-178l-12 -35q-16 -55 -55 -89h42q25 53 77 53q44 0 72 -32t28 -82q0 -68 -43 -110t-112 -42q-62 0 -102 31.5t-43 83.5zM112 0l639 700h106
l-638 -700h-107zM552 100q0 38 32 65t81 28l8 32q-37 3 -55.5 20.5t-18.5 43.5q0 50 41.5 84t104.5 34q56 0 92.5 -28.5t36.5 -74.5q0 -35 -26 -58.5t-73 -22.5l-7 -32q36 -4 57.5 -25t21.5 -51q0 -53 -44 -88t-111 -35q-64 0 -102 30t-38 78zM791 294q0 21 -13.5 33
t-36.5 12q-26 0 -43 -16t-17 -41q0 -45 50 -45q26 0 43 16t17 41zM763 123q0 24 -15.5 38t-42.5 14q-29 0 -48.5 -18.5t-19.5 -45.5q0 -24 15 -37.5t42 -13.5q31 0 50 17.5t19 45.5z" />
    <glyph glyph-name="seveneighths" unicode="&#x215e;" horiz-adv-x="825" 
d="M311 630l16 9l-18 28q-55 -37 -111 -37h-81l15 70h284l-16 -72q-95 -66 -140 -140.5t-55 -186.5h-90q10 107 61.5 193.5t134.5 135.5zM22 0l639 700h106l-638 -700h-107zM462 100q0 38 32 65t81 28l8 32q-37 3 -55.5 20.5t-18.5 43.5q0 50 41.5 84t104.5 34
q56 0 92.5 -28.5t36.5 -74.5q0 -35 -26 -58.5t-73 -22.5l-7 -32q36 -4 57.5 -25t21.5 -51q0 -53 -44 -88t-111 -35q-64 0 -102 30t-38 78zM701 294q0 21 -13.5 33t-36.5 12q-26 0 -43 -16t-17 -41q0 -45 50 -45q26 0 43 16t17 41zM673 123q0 24 -15.5 38t-42.5 14
q-29 0 -48.5 -18.5t-19.5 -45.5q0 -24 15 -37.5t42 -13.5q31 0 50 17.5t19 45.5z" />
    <glyph glyph-name="uni215F" unicode="&#x215f;" horiz-adv-x="371" 
d="M143 301l49 225q11 52 35 88h-35q-37 -70 -100 -74l16 76q73 2 133 84h68l-85 -399h-81zM22 0l639 700h106l-638 -700h-107z" />
    <glyph glyph-name="arrowleft" unicode="&#x2190;" horiz-adv-x="845" 
d="M823 303h-611v-43q41 -4 69 -14t58 -40l89 -88l-68 -67l-299 300l299 300l68 -68l-85 -83q-33 -33 -60 -43t-71 -16v-42h611v-96z" />
    <glyph glyph-name="arrowup" unicode="&#x2191;" horiz-adv-x="657" 
d="M326 0v611h-43q-4 -41 -14 -69t-40 -58l-88 -89l-67 68l300 300l300 -300l-68 -68l-84 85q-31 33 -42 60t-16 71h-42v-611h-96z" />
    <glyph glyph-name="arrowright" unicode="&#x2192;" horiz-adv-x="843" 
d="M65 397h612v42q-43 5 -70 15.5t-58 39.5l-89 88l69 67l299 -300l-299 -300l-69 67l85 84q34 33 60.5 43.5t71.5 15.5v42h-612v96z" />
    <glyph glyph-name="arrowdown" unicode="&#x2193;" horiz-adv-x="656" 
d="M375 700v-611h42q4 29 7.5 45.5t15.5 39t32 42.5l88 89l67 -68l-300 -300l-300 300l67 68l84 -85q33 -33 43 -60t16 -71h42v611h96z" />
    <glyph glyph-name="uni2196" unicode="&#x2196;" horiz-adv-x="728" 
d="M691 212l-68 -67l-414 414l-30 -30q28 -36 39 -60t13 -68v-125h-96v424h425v-96h-120q-33 1 -57.5 8.5t-37 15.5t-39.5 29l-30 -30z" />
    <glyph glyph-name="uni2197" unicode="&#x2197;" horiz-adv-x="619" 
d="M99 145l-68 67l414 414l-29 30q-49 -36 -72 -43q-24 -8 -57 -9h-125v96h424v-424h-95v119q0 46 12 73t40 61l-29 30z" />
    <glyph glyph-name="uni2198" unicode="&#x2198;" horiz-adv-x="722" 
d="M75 487l68 68l414 -414l30 29q-21 28 -28.5 40t-15 35t-8.5 54v125h96v-424h-424v95h119q32 0 57 -7.5t38.5 -16t38.5 -29.5l30 30z" />
    <glyph glyph-name="uni2199" unicode="&#x2199;" horiz-adv-x="607" 
d="M560 556l67 -68l-414 -414l30 -30q28 21 40 28.5t35 15t54 8.5h125v-96h-424v424h95v-119q-2 -47 -13.5 -73.5t-39.5 -60.5l30 -30z" />
    <glyph glyph-name="uni21A4" unicode="&#x21a4;" horiz-adv-x="905" 
d="M729 609h92v-518h-92v212h-520v-43q31 -4 46.5 -7t37.5 -14.5t44 -32.5l89 -88l-68 -67l-299 300l299 299l68 -67l-85 -83q-33 -33 -60 -43.5t-72 -15.5v-42h520v210z" />
    <glyph glyph-name="uni21A5" unicode="&#x21a5;" horiz-adv-x="714" 
d="M423 611v-520h210v-92h-518v92h212v520h-43q-4 -31 -7 -46.5t-14.5 -37.5t-32.5 -44l-88 -88l-67 67l300 300l299 -300l-67 -67l-84 84q-31 33 -42 60.5t-16 71.5h-42z" />
    <glyph glyph-name="uni21A6" unicode="&#x21a6;" horiz-adv-x="904" 
d="M591 649l300 -300l-300 -299l-68 67l85 84q33 32 60 42.5t72 15.5v42h-520v-210h-92v518h92v-212h520v43q-31 4 -46.5 7t-37.5 14.5t-44 32.5l-89 88z" />
    <glyph glyph-name="uni21A7" unicode="&#x21a7;" horiz-adv-x="716" 
d="M617 306l68 -68l-301 -300l-299 300l67 68l84 -85q32 -33 43.5 -62t14.5 -70h42v520h-210v92h518v-92h-211v-520h42q4 31 7 46.5t14.5 37.5t32.5 44z" />
    <glyph glyph-name="uni21B0" unicode="&#x21b0;" horiz-adv-x="909" 
d="M215 399h611v-399h-98v303h-513v-43q41 -4 69 -14t58 -40l89 -88l-68 -67l-300 300l300 300l68 -68l-85 -83q-33 -33 -60 -43t-71 -16v-42z" />
    <glyph glyph-name="uni21B1" unicode="&#x21b1;" horiz-adv-x="844" 
d="M532 649l300 -300l-300 -300l-68 67l85 84q33 33 60 43t71 16v42h-513v-301h-98v397h611v42q-29 4 -45.5 7.5t-39 15.5t-42.5 32l-89 88z" />
    <glyph glyph-name="uni21B2" unicode="&#x21b2;" horiz-adv-x="845" 
d="M721 700h99v-397h-612v-42q31 -4 46 -7t37.5 -14.5t44.5 -32.5l89 -88l-69 -68l-299 300l299 300l69 -67l-85 -84q-34 -33 -60.5 -43.5t-71.5 -15.5v-42h513v301z" />
    <glyph glyph-name="uni21B3" unicode="&#x21b3;" horiz-adv-x="909" 
d="M590 649l300 -299l-300 -301l-68 68l85 84q23 23 46 35.5t38.5 15.5t46.5 7v42h-611v399h99v-303h512v43q-41 4 -69 14t-58 40l-89 88z" />
    <glyph glyph-name="partialdiff" unicode="&#x2202;" horiz-adv-x="630" 
d="M74 229q0 95 61 160t151 65q122 0 163 -108h44q-1 122 -72 197.5t-181 75.5q-66 0 -126 -22v98q59 19 134 19q159 0 248 -107.5t89 -279.5q0 -161 -71.5 -251t-193.5 -90q-113 0 -179.5 69t-66.5 174zM462 220q0 66 -40.5 107.5t-101.5 41.5q-60 0 -101 -41.5t-41 -106.5
q0 -66 41 -107t101 -41q62 0 102 40.5t40 106.5z" />
    <glyph glyph-name="Delta" unicode="&#x2206;" horiz-adv-x="696" 
d="M400 700l257 -700h-658l262 700h139zM139 92h374l-132 375q-32 89 -32 163h-43q-1 -75 -32 -163z" />
    <glyph glyph-name="product" unicode="&#x220f;" horiz-adv-x="823" 
d="M782 700v-92h-92v-712h-99v712h-280v-712h-100v712h-91v92h662z" />
    <glyph glyph-name="summation" unicode="&#x2211;" horiz-adv-x="723" 
d="M118 -104v90l262 310l-257 305v99h492v-92h-206q-101 1 -149 48l-30 -29l15 -18l262 -311l-278 -329l31 -29q48 48 149 48h216v-92h-507z" />
    <glyph glyph-name="minus" unicode="&#x2212;" horiz-adv-x="701" 
d="M104 308v91h534v-91h-534z" />
    <glyph glyph-name="uni2215" unicode="&#x2215;" horiz-adv-x="359" 
d="M-78 -104l460 909h98l-459 -909h-99z" />
    <glyph glyph-name="radical" unicode="&#x221a;" horiz-adv-x="610" 
d="M258 -104l-138 408h-87v91h159l86 -275q19 -56 23 -156h42q1 89 21 156l181 580h105l-267 -804h-125z" />
    <glyph glyph-name="infinity" unicode="&#x221e;" horiz-adv-x="852" 
d="M76 353q0 77 55 132.5t129 55.5q58 0 105.5 -37.5t63.5 -107.5h39q16 71 63 108t105 37q75 0 129 -55t54 -133t-54 -132.5t-129 -54.5q-60 0 -106 36.5t-62 107.5h-39q-16 -70 -63.5 -107t-105.5 -37q-74 0 -129 55t-55 132zM393 355q-33 55 -60.5 78.5t-62.5 23.5
q-43 0 -72.5 -30.5t-29.5 -73.5t29.5 -73t72.5 -30q35 0 63.5 23.5t59.5 81.5zM728 353q0 43 -29.5 73.5t-72.5 30.5q-35 0 -62.5 -23t-61.5 -79q31 -58 59.5 -81.5t64.5 -23.5q43 0 72.5 30t29.5 73z" />
    <glyph glyph-name="integral" unicode="&#x222b;" horiz-adv-x="341" 
d="M-1 -195v88h74q23 0 36.5 15t13.5 43v618q0 60 32.5 95.5t94.5 35.5h96v-87h-75q-23 0 -36.5 -15.5t-13.5 -42.5v-619q0 -60 -32.5 -95.5t-94.5 -35.5h-95z" />
    <glyph glyph-name="approxequal" unicode="&#x2248;" horiz-adv-x="657" 
d="M351 400l-32 14q-52 24 -83 24q-48 0 -95 -50l-54 69q31 37 73 57.5t81 20.5q40 0 101 -27l32 -14q55 -24 84 -24q47 0 95 50l54 -70q-31 -37 -73 -57.5t-81 -20.5q-38 0 -102 28zM351 179l-32 14q-52 24 -83 24q-48 0 -95 -50l-54 69q31 37 73 57.5t81 20.5
q40 0 101 -27l32 -14q55 -24 84 -24q47 0 95 50l54 -70q-31 -37 -73 -57.5t-81 -20.5q-38 0 -102 28z" />
    <glyph glyph-name="notequal" unicode="&#x2260;" horiz-adv-x="734" 
d="M168 85l67 110h-122v91h176l34 54q22 37 75 70l-23 35q-49 -31 -105 -31h-157v91h310l70 115h99l-70 -115h126v-91h-181l-32 -54q-25 -39 -76 -71l23 -36q49 33 104 33h162v-91h-314l-66 -110h-100z" />
    <glyph glyph-name="lessequal" unicode="&#x2264;" horiz-adv-x="698" 
d="M627 204l-535 136v149l535 137v-96l-300 -72q-74 -16 -173 -21v-40q86 -1 173 -22l300 -70v-101zM92 85v91h535v-91h-535z" />
    <glyph glyph-name="greaterequal" unicode="&#x2265;" horiz-adv-x="720" 
d="M117 204v96l300 72q74 16 173 21v40q-84 1 -173 22l-300 71v100l534 -136v-149zM117 85v91h534v-91h-534z" />
    <glyph glyph-name="angleleft" unicode="&#x2329;" horiz-adv-x="336" 
d="M417 715l-292 -423l113 -426l-84 -26l-122 463l316 462z" />
    <glyph glyph-name="angleright" unicode="&#x232a;" horiz-adv-x="338" 
d="M208 765l122 -463l-316 -462l-69 50l292 423l-113 426z" />
    <glyph glyph-name="uni2460" unicode="&#x2460;" horiz-adv-x="864" 
d="M71 331q-2 159 116.5 284.5t285.5 121.5q154 2 262 -99t106 -251q2 -103 -50.5 -197.5t-147 -152.5t-205.5 -56q-156 -2 -262.5 98t-104.5 252zM767 386q0 124 -82 203t-211 79q-135 3 -233.5 -100t-95.5 -236q0 -123 82 -202t211 -79q134 -3 233 100t96 235zM392 161
l49 224q11 52 35 88h-35q-37 -70 -100 -74l16 77q74 2 133 84h68l-85 -399h-81z" />
    <glyph glyph-name="uni2461" unicode="&#x2461;" horiz-adv-x="864" 
d="M71 331q-2 159 116.5 284.5t285.5 121.5q154 2 262 -99t106 -251q2 -103 -50.5 -197.5t-147 -152.5t-205.5 -56q-156 -2 -262.5 98t-104.5 252zM767 386q0 124 -82 203t-211 79q-135 3 -233.5 -100t-95.5 -236q0 -123 82 -202t211 -79q134 -3 233 100t96 235zM292 161
l18 86q122 64 169.5 104t50.5 90q0 27 -14 42t-39 15q-28 0 -45 -23.5t-18 -62.5l-85 17q6 64 46.5 101t105.5 37q59 0 97 -33.5t38 -86.5q0 -66 -58 -119q-39 -33 -143 -80l-38 -18l17 -30q54 31 111 31h71l-15 -70h-269z" />
    <glyph glyph-name="uni2462" unicode="&#x2462;" horiz-adv-x="864" 
d="M71 331q-2 159 116.5 284.5t285.5 121.5q154 2 262 -99t106 -251q2 -103 -50.5 -197.5t-147 -152.5t-205.5 -56q-156 -2 -262.5 98t-104.5 252zM767 386q0 124 -82 203t-211 79q-135 3 -233.5 -100t-95.5 -236q0 -123 82 -202t211 -79q134 -3 233 100t96 235zM290 287
l85 12v-12q0 -66 57 -66q27 0 45 17.5t18 43.5q0 48 -55 48h-34l14 66h34q31 0 50 16t19 45q0 19 -12.5 30.5t-32.5 11.5q-26 0 -42.5 -18t-20.5 -50l-83 17q9 55 49 87t100 32q56 0 90.5 -27t34.5 -69q0 -40 -28 -65t-77 -26l-6 -30q38 -2 61 -24t23 -54q0 -51 -42 -85.5
t-107 -34.5q-68 0 -105.5 36.5t-34.5 98.5z" />
    <glyph glyph-name="uni2463" unicode="&#x2463;" horiz-adv-x="864" 
d="M71 331q-2 159 116.5 284.5t285.5 121.5q154 2 262 -99t106 -251q2 -103 -50.5 -197.5t-147 -152.5t-205.5 -56q-156 -2 -262.5 98t-104.5 252zM767 386q0 124 -82 203t-211 79q-135 3 -233.5 -100t-95.5 -236q0 -123 82 -202t211 -79q134 -3 233 100t96 235zM428 161
l22 102h-184l15 71l200 226h110l-49 -230h54l-14 -67h-55l-22 -102h-77zM465 330l10 49q9 45 58 91l-23 22l-156 -174l21 -21q31 33 75 33h15z" />
    <glyph glyph-name="uni2464" unicode="&#x2464;" horiz-adv-x="864" 
d="M71 331q-2 159 116.5 284.5t285.5 121.5q154 2 262 -99t106 -251q2 -103 -50.5 -197.5t-147 -152.5t-205.5 -56q-156 -2 -262.5 98t-104.5 252zM767 386q0 124 -82 203t-211 79q-135 3 -233.5 -100t-95.5 -236q0 -123 82 -202t211 -79q134 -3 233 100t96 235zM286 268
l82 17q1 -29 17.5 -46.5t44.5 -17.5q31 0 51.5 22t20.5 55q0 26 -15 41t-39 15q-40 0 -65 -42l-80 20l77 228h246l-14 -71h-177l-12 -35q-16 -53 -56 -88h42q28 52 77 52q45 0 72.5 -31.5t27.5 -81.5q0 -69 -42.5 -111t-112.5 -42q-61 0 -100.5 31.5t-44.5 84.5z" />
    <glyph glyph-name="uni2465" unicode="&#x2465;" horiz-adv-x="864" 
d="M71 331q-2 159 116.5 284.5t285.5 121.5q154 2 262 -99t106 -251q2 -103 -50.5 -197.5t-147 -152.5t-205.5 -56q-156 -2 -262.5 98t-104.5 252zM767 386q0 124 -82 203t-211 79q-135 3 -233.5 -100t-95.5 -236q0 -123 82 -202t211 -79q134 -3 233 100t96 235zM281 314
q0 112 62 182.5t162 70.5q66 0 103 -21l-15 -71q-48 20 -93 20q-60 0 -101 -32t-52 -98h30q11 29 34.5 45t53.5 16q49 0 82.5 -33.5t33.5 -84.5q0 -66 -45 -111t-111 -45q-68 0 -106 43t-38 119zM495 302q0 27 -14.5 42.5t-40.5 15.5q-29 0 -50 -24t-21 -57q0 -26 14.5 -42
t39.5 -16q29 0 50.5 24t21.5 57z" />
    <glyph glyph-name="uni2466" unicode="&#x2466;" horiz-adv-x="864" 
d="M71 331q-2 159 116.5 284.5t285.5 121.5q154 2 262 -99t106 -251q2 -103 -50.5 -197.5t-147 -152.5t-205.5 -56q-156 -2 -262.5 98t-104.5 252zM767 386q0 124 -82 203t-211 79q-135 3 -233.5 -100t-95.5 -236q0 -123 82 -202t211 -79q134 -3 233 100t96 235zM536 489
l15 9l-17 29q-58 -38 -112 -38h-80l14 71h284l-15 -73q-95 -66 -139.5 -140t-56.5 -186h-90q10 106 61.5 192.5t135.5 135.5z" />
    <glyph glyph-name="uni2467" unicode="&#x2467;" horiz-adv-x="864" 
d="M71 331q-2 159 116.5 284.5t285.5 121.5q154 2 262 -99t106 -251q2 -103 -50.5 -197.5t-147 -152.5t-205.5 -56q-156 -2 -262.5 98t-104.5 252zM767 386q0 124 -82 203t-211 79q-135 3 -233.5 -100t-95.5 -236q0 -123 82 -202t211 -79q134 -3 233 100t96 235zM293 261
q0 38 32.5 65t81.5 27l7 33q-37 2 -55.5 20t-18.5 44q0 50 41.5 83.5t104.5 33.5q56 0 92.5 -29t36.5 -73q0 -35 -26 -58.5t-72 -23.5l-8 -31q36 -5 57.5 -26t21.5 -51q0 -52 -43.5 -87.5t-111.5 -35.5q-63 0 -101.5 30.5t-38.5 78.5zM532 455q0 21 -13.5 33t-36.5 12
q-25 0 -42 -16t-17 -41q0 -46 49 -46q27 0 43.5 16.5t16.5 41.5zM504 284q0 24 -15.5 37.5t-41.5 13.5q-30 0 -49.5 -18t-19.5 -46q0 -23 15 -36.5t43 -13.5q30 0 49 17.5t19 45.5z" />
    <glyph glyph-name="uni2468" unicode="&#x2468;" horiz-adv-x="864" 
d="M71 331q-2 159 116.5 284.5t285.5 121.5q154 2 262 -99t106 -251q2 -103 -50.5 -197.5t-147 -152.5t-205.5 -56q-156 -2 -262.5 98t-104.5 252zM767 386q0 124 -82 203t-211 79q-135 3 -233.5 -100t-95.5 -236q0 -123 82 -202t211 -79q134 -3 233 100t96 235zM296 171
l15 74q41 -22 90 -22q65 0 105 40q36 36 43 92h-32q-9 -26 -31.5 -42.5t-51.5 -16.5q-48 0 -78 33t-30 87q0 64 42 106t107 42q63 0 101 -40q44 -46 44 -127q0 -112 -59.5 -180t-157.5 -68q-63 0 -107 22zM532 436q0 26 -15.5 43t-40.5 17q-27 0 -45.5 -21.5t-18.5 -53.5
q0 -27 14 -42.5t39 -15.5q28 0 47.5 21t19.5 52z" />
    <glyph glyph-name="uni24EA" unicode="&#x24ea;" horiz-adv-x="864" 
d="M71 331q-2 159 116.5 284.5t285.5 121.5q154 2 262 -99t106 -251q2 -103 -50.5 -197.5t-147 -152.5t-205.5 -56q-156 -2 -262.5 98t-104.5 252zM767 386q0 124 -82 203t-211 79q-135 3 -233.5 -100t-95.5 -236q0 -123 82 -202t211 -79q134 -3 233 100t96 235zM285 318
q0 105 54.5 177t135.5 72q68 0 108.5 -45.5t40.5 -122.5q0 -105 -54.5 -176t-135.5 -71q-70 0 -109.5 44.5t-39.5 121.5zM540 400q0 46 -18 72t-49 26q-41 0 -72.5 -54.5t-31.5 -126.5q0 -95 68 -95q40 0 71.5 53.5t31.5 124.5z" />
    <glyph glyph-name="uni24FF" unicode="&#x24ff;" horiz-adv-x="858" 
d="M841 398q2 -102 -54 -199.5t-154.5 -159t-208.5 -58.5q-157 0 -256.5 93t-99.5 246q-2 102 54 199.5t154.5 159t208.5 58.5q157 0 256.5 -93t99.5 -246zM283 318q0 -77 40 -121.5t110 -44.5q81 0 135.5 71t54.5 176q0 77 -40.5 122.5t-108.5 45.5q-81 0 -136 -72
t-55 -177zM539 400q0 -71 -31.5 -124.5t-72.5 -53.5q-67 0 -67 95q0 72 31 126.5t73 54.5q31 0 49 -26t18 -72z" />
    <glyph glyph-name="lozenge" unicode="&#x25ca;" horiz-adv-x="649" 
d="M271 -1l-215 347l219 354h146l215 -349l-218 -352h-147zM521 350l-114 188q-38 60 -38 108h-45q0 -49 -38 -108l-117 -188l115 -185q41 -67 41 -112h44q0 50 38 109z" />
    <glyph glyph-name="uni274C" unicode="&#x274c;" horiz-adv-x="832" 
d="M143 -14l-64 64l293 299l-294 298l67 68l295 -298l294 298l65 -64l-295 -299l294 -299l-68 -67l-294 298z" />
    <glyph glyph-name="uni2776" unicode="&#x2776;" horiz-adv-x="860" 
d="M841 398q2 -102 -54 -199.5t-154.5 -159t-208.5 -58.5q-157 0 -256.5 93t-99.5 246q-2 102 54 199.5t154.5 159t208.5 58.5q157 0 256.5 -93t99.5 -246zM439 385l-48 -224h81l85 399h-69q-27 -39 -62.5 -61t-69.5 -23l-16 -77q63 4 100 74h35q-26 -38 -36 -88z" />
    <glyph glyph-name="uni2777" unicode="&#x2777;" horiz-adv-x="860" 
d="M841 398q2 -102 -54 -199.5t-154.5 -159t-208.5 -58.5q-157 0 -256.5 93t-99.5 246q-2 102 54 199.5t154.5 159t208.5 58.5q157 0 256.5 -93t99.5 -246zM309 247l-18 -86h269l15 70h-71q-57 0 -111 -31l-17 30l38 18q104 47 142 80q58 52 58 119q0 53 -37.5 86.5
t-97.5 33.5q-64 0 -105 -37t-46 -101l85 -17q1 39 17.5 62.5t44.5 23.5q25 0 39.5 -15t14.5 -42q-3 -50 -50.5 -90t-169.5 -104z" />
    <glyph glyph-name="uni2778" unicode="&#x2778;" horiz-adv-x="860" 
d="M841 398q2 -102 -54 -199.5t-154.5 -159t-208.5 -58.5q-157 0 -256.5 93t-99.5 246q-2 102 54 199.5t154.5 159t208.5 58.5q157 0 256.5 -93t99.5 -246zM289 287q-3 -62 34.5 -98.5t105.5 -36.5q63 0 105.5 34.5t42.5 85.5q0 32 -23 54t-61 24l7 30q49 1 76.5 25.5
t27.5 65.5q0 42 -34.5 69t-89.5 27q-60 0 -100.5 -32t-48.5 -87l83 -17q8 68 63 68q20 0 32 -11.5t12 -30.5q0 -29 -18.5 -45t-49.5 -16h-35l-14 -66h35q55 0 55 -48q0 -26 -18 -43.5t-45 -17.5q-57 0 -57 66v12z" />
    <glyph glyph-name="uni2779" unicode="&#x2779;" horiz-adv-x="858" 
d="M841 398q2 -102 -54 -199.5t-154.5 -159t-208.5 -58.5q-157 0 -256.5 93t-99.5 246q-2 102 54 199.5t154.5 159t208.5 58.5q157 0 256.5 -93t99.5 -246zM448 263l-21 -102h77l21 102h56l14 67h-54l48 230h-109l-200 -226l-15 -71h183zM474 379l-11 -49h-14q-44 0 -75 -33
l-22 21l156 174l24 -22q-49 -46 -58 -91z" />
    <glyph glyph-name="uni277A" unicode="&#x277a;" horiz-adv-x="858" 
d="M841 398q2 -102 -54 -199.5t-154.5 -159t-208.5 -58.5q-157 0 -256.5 93t-99.5 246q-2 102 54 199.5t154.5 159t208.5 58.5q157 0 256.5 -93t99.5 -246zM285 268q3 -52 43 -84t102 -32q69 0 112 42.5t43 110.5q0 50 -28 81.5t-72 31.5q-52 0 -77 -52h-42q38 34 55 88
l12 35h178l14 71h-246l-77 -228l80 -20q23 42 65 42q24 0 38.5 -15t14.5 -41q0 -33 -20 -55t-51 -22q-28 0 -45 17.5t-18 46.5z" />
    <glyph glyph-name="uni277B" unicode="&#x277b;" horiz-adv-x="858" 
d="M841 398q2 -102 -54 -199.5t-154.5 -159t-208.5 -58.5q-157 0 -256.5 93t-99.5 246q-2 102 54 199.5t154.5 159t208.5 58.5q157 0 256.5 -93t99.5 -246zM279 314q0 -76 38 -119t107 -43q66 0 110.5 45t44.5 111q0 51 -33 84.5t-82 33.5q-65 0 -88 -61h-31q11 66 52.5 98
t101.5 32q44 0 93 -20l15 71q-37 21 -103 21q-99 0 -162 -70.5t-63 -182.5zM494 302q0 -33 -21.5 -57t-51.5 -24q-25 0 -39.5 16t-14.5 42q0 33 21.5 57t49.5 24q27 0 41.5 -15.5t14.5 -42.5z" />
    <glyph glyph-name="uni277C" unicode="&#x277c;" horiz-adv-x="860" 
d="M841 398q2 -102 -54 -199.5t-154.5 -159t-208.5 -58.5q-157 0 -256.5 93t-99.5 246q-2 102 54 199.5t154.5 159t208.5 58.5q157 0 256.5 -93t99.5 -246zM534 489q-83 -49 -134.5 -135.5t-61.5 -192.5h90q10 112 55 185.5t140 140.5l16 73h-284l-15 -71h81q55 0 111 38
l18 -29z" />
    <glyph glyph-name="uni277D" unicode="&#x277d;" horiz-adv-x="858" 
d="M841 398q2 -102 -54 -199.5t-154.5 -159t-208.5 -58.5q-157 0 -256.5 93t-99.5 246q-2 102 54 199.5t154.5 159t208.5 58.5q157 0 256.5 -93t99.5 -246zM292 261q0 -49 38 -79t102 -30q67 0 111 35.5t44 87.5q0 30 -21.5 51t-57.5 26l7 31q47 0 73 23.5t26 58.5
q0 44 -36.5 73t-92.5 29q-64 0 -105 -33.5t-41 -83.5q0 -26 18.5 -44t55.5 -20l-8 -33q-48 0 -80.5 -27t-32.5 -65zM531 455q0 -25 -17 -41.5t-43 -16.5q-50 0 -50 46q0 25 17 41t43 16q23 0 36.5 -12t13.5 -33zM502 284q0 -28 -18.5 -45.5t-49.5 -17.5q-27 0 -42 13.5
t-15 36.5q0 28 19.5 46t48.5 18q27 0 42 -13.5t15 -37.5z" />
    <glyph glyph-name="uni277E" unicode="&#x277e;" horiz-adv-x="860" 
d="M841 398q2 -102 -54 -199.5t-154.5 -159t-208.5 -58.5q-157 0 -256.5 93t-99.5 246q-2 102 54 199.5t154.5 159t208.5 58.5q157 0 256.5 -93t99.5 -246zM295 171q44 -22 107 -22q98 0 157.5 68t59.5 180q0 81 -44 127q-38 40 -101 40q-65 0 -107 -42t-42 -106
q0 -54 30 -87t78 -33q29 0 51.5 16.5t31.5 42.5h32q-7 -56 -43 -92q-40 -40 -105 -40q-49 0 -90 22zM531 436q0 -31 -19.5 -52t-47.5 -21q-25 0 -39 15.5t-14 42.5q0 32 18.5 53.5t45.5 21.5q25 0 40.5 -17t15.5 -43z" />
    <glyph glyph-name="uni300A" unicode="&#x300a;" horiz-adv-x="559" 
d="M417 715l-292 -423l113 -430l-84 -26l-122 466l316 463zM648 715l-311 -451l106 -402l-83 -26l-116 438l336 491z" />
    <glyph glyph-name="uni300B" unicode="&#x300b;" horiz-adv-x="559" 
d="M223 768l115 -438l-335 -491l-68 50l311 451l-107 402zM428 768l122 -466l-315 -463l-69 50l292 424l-113 429z" />
    <glyph glyph-name="uni300C" unicode="&#x300c;" horiz-adv-x="361" 
d="M100 312l94 443h259l-18 -78h-170l-78 -365h-87z" />
    <glyph glyph-name="uni300D" unicode="&#x300d;" horiz-adv-x="340" 
d="M280 293l-94 -443h-258l17 78h170l78 365h87z" />
    <glyph glyph-name="uni300E" unicode="&#x300e;" horiz-adv-x="495" 
d="M84 219l114 536h368l-45 -210h-161l-70 -326h-206zM176 294h60l68 317h158l14 69h-218z" />
    <glyph glyph-name="uni300F" unicode="&#x300f;" horiz-adv-x="482" 
d="M432 385l-114 -536h-368l45 210h161l70 326h206zM340 310h-60l-68 -317h-158l-13 -69h217z" />
    <glyph glyph-name="uni3010" unicode="&#x3010;" horiz-adv-x="358" 
d="M6 -150l192 905h268q-229 -211 -280 -454q-16 -70 -16 -134q0 -159 104 -317h-268z" />
    <glyph glyph-name="uni3011" unicode="&#x3011;" horiz-adv-x="359" 
d="M377 755l-192 -905h-268q118 109 186 219t95 235q15 70 15 134q0 161 -104 317h268z" />
    <glyph glyph-name="uni3014" unicode="&#x3014;" horiz-adv-x="315" 
d="M211 538l-102 -486l116 -168l-72 -48l-135 198l115 545l205 186l56 -63z" />
    <glyph glyph-name="uni3015" unicode="&#x3015;" horiz-adv-x="314" 
d="M185 766l135 -199l-115 -545l-205 -186l-56 64l182 164l103 486l-116 167z" />
    <glyph glyph-name="uniE000" unicode="&#xe000;" horiz-adv-x="772" 
d="M360 0v305h-297v90h297v306h97v-306h296v-90h-296v-305h-97z" />
    <glyph glyph-name="uniE001" unicode="&#xe001;" horiz-adv-x="857" 
d="M102 305v90h690v-90h-690z" />
    <glyph glyph-name="uniE002" unicode="&#xe002;" horiz-adv-x="898" 
d="M177 -14l-64 64l293 299l-294 298l67 68l295 -298l294 298l65 -64l-295 -299l294 -299l-68 -67l-294 298z" />
    <glyph glyph-name="uniE003" unicode="&#xe003;" horiz-adv-x="926" 
d="M427 -15l-323 414l77 61l249 -319l429 563l75 -60z" />
    <glyph glyph-name="uniE004" unicode="&#xe004;" horiz-adv-x="1026" 
d="M149 583v91h774v-91h-774zM149 307v91h774v-91h-774zM149 30v91h774v-91h-774z" />
    <glyph glyph-name="uniE005" unicode="&#xe005;" horiz-adv-x="926" 
d="M135 0v699h700v-699h-700zM232 86h507v527h-507v-527z" />
    <glyph glyph-name="uniE006" unicode="&#xe006;" horiz-adv-x="926" 
d="M496 159l-180 290l77 49l58 -96q18 -28 24 -54t8 -74h42q1 44 9 69q7 26 31 59l226 312l73 -54zM145 0v699h452v-86h-356v-527h507v242h96v-328h-699z" />
    <glyph glyph-name="uniE007" unicode="&#xe007;" horiz-adv-x="926" 
d="M135 0v699h700v-699h-700zM232 86h507v527h-507v-527zM422 285v130h127v-130h-127z" />
    <glyph glyph-name="uniE008" unicode="&#xe008;" horiz-adv-x="791" 
d="M370 96h348v-96h-700v96h350l-272 270l66 68l67 -67q19 -19 29.5 -40.5t13 -35.5t6.5 -47h43v531h95v-531h43q4 44 13.5 70.5t40.5 56.5l62 63l67 -68z" />
    <glyph glyph-name="uniE009" unicode="&#xe009;" horiz-adv-x="791" 
d="M373 192l-273 271l67 67l66 -67q27 -27 36 -52t14 -70h42v531h95v-531h43q5 45 14 69t40 57l62 63l67 -67zM22 0v96h701v-96h-701z" />
    <glyph glyph-name="uniF8FF" unicode="&#xf8ff;" horiz-adv-x="798" 
d="M693 34q0 -43 -8 -83l-37 2q-7 38 -28 90l-31 -8q14 -61 14 -108l-19 -7q-96 21 -92 113q2 40 30 113l-40 9q-19 -62 -48 -95q-28 20 -48.5 86t-20.5 111q0 112 -7 128q-7 18 -22.5 32.5t-48.5 33.5q-25 14 -38.5 31.5t-32.5 53.5l80 37l-22 33q-35 0 -59 10
q-31 10 -50 30.5t-19 45.5q0 23 15.5 38t37.5 15q31 0 54 -20.5t45 -63.5l35 18q-42 66 -42 95q0 16 12 26t32 10q61 0 61 -58q0 -50 -39 -101l24 -39l50 23q52 -39 91.5 -123.5t54.5 -153.5q114 -171 116 -324z" />
    <glyph glyph-name="Ccedilla.ss04" horiz-adv-x="737" 
d="M605 238l98 -46q-90 -189 -295 -205l-14 -10q-25 -19 -59 -27l8 -27q28 11 47 11q28 0 47 -16.5t19 -43.5q0 -42 -33.5 -66t-88.5 -24q-74 0 -110 46l42 48q26 -34 66 -34q21 0 33 9.5t12 22.5q0 12 -11 21t-29 9q-16 0 -28 -5l-22 41l52 45q-129 10 -199 91t-70 209
q-1 110 47 208.5t137 159.5t196 59q119 0 194.5 -60.5t100.5 -149.5l-106 -30q-18 57 -63 104q-43 46 -131 46q-79 2 -142 -47.5t-95.5 -126.5t-31.5 -163q0 -98 54 -154t148 -56q154 0 227 161z" />
    <glyph glyph-name="G.ss03" horiz-adv-x="769" 
d="M71 294q-1 79 26.5 155.5t76 135.5t121 95t154.5 34q123 0 202.5 -59.5t105.5 -152.5l-108 -32q-19 67 -73.5 109.5t-134.5 42.5q-115 2 -190.5 -97t-73.5 -229q0 -103 58.5 -160.5t148.5 -57.5t147.5 46.5t76.5 128.5h-235l20 92h341q-9 -159 -101 -259t-250 -100
q-142 0 -227 81t-85 227z" />
    <glyph glyph-name="Gbreve.ss03" horiz-adv-x="769" 
d="M71 294q-1 79 26.5 155.5t76 135.5t121 95t154.5 34q123 0 202.5 -59.5t105.5 -152.5l-108 -32q-19 67 -73.5 109.5t-134.5 42.5q-115 2 -190.5 -97t-73.5 -229q0 -103 58.5 -160.5t148.5 -57.5t147.5 46.5t76.5 128.5h-235l20 92h341q-9 -159 -101 -259t-250 -100
q-142 0 -227 81t-85 227zM367 871q0 8 2 22h79v-8q0 -27 17 -42.5t50 -15.5q69 0 94 66h88q-15 -57 -60.5 -95.5t-122.5 -38.5q-72 0 -109.5 32t-37.5 80z" />
    <glyph glyph-name="Gcircumflex.ss03" horiz-adv-x="769" 
d="M71 294q-1 79 26.5 155.5t76 135.5t121 95t154.5 34q123 0 202.5 -59.5t105.5 -152.5l-108 -32q-19 67 -73.5 109.5t-134.5 42.5q-115 2 -190.5 -97t-73.5 -229q0 -103 58.5 -160.5t148.5 -57.5t147.5 46.5t76.5 128.5h-235l20 92h341q-9 -159 -101 -259t-250 -100
q-142 0 -227 81t-85 227zM305 770l147 123h146l88 -123h-98l-71 73l-107 -73h-105z" />
    <glyph glyph-name="uni0122.ss03" horiz-adv-x="769" 
d="M71 294q-1 79 26.5 155.5t76 135.5t121 95t154.5 34q123 0 202.5 -59.5t105.5 -152.5l-108 -32q-19 67 -73.5 109.5t-134.5 42.5q-115 2 -190.5 -97t-73.5 -229q0 -103 58.5 -160.5t148.5 -57.5t147.5 46.5t76.5 128.5h-235l20 92h341q-9 -159 -101 -259t-250 -100
q-142 0 -227 81t-85 227zM234 -313l92 118h-54l24 111h109l-25 -116l-88 -113h-58z" />
    <glyph glyph-name="Gdotaccent.ss03" horiz-adv-x="769" 
d="M71 294q-1 79 26.5 155.5t76 135.5t121 95t154.5 34q123 0 202.5 -59.5t105.5 -152.5l-108 -32q-19 67 -73.5 109.5t-134.5 42.5q-115 2 -190.5 -97t-73.5 -229q0 -103 58.5 -160.5t148.5 -57.5t147.5 46.5t76.5 128.5h-235l20 92h341q-9 -159 -101 -259t-250 -100
q-142 0 -227 81t-85 227zM454 770l24 112h98l-24 -112h-98z" />
    <glyph glyph-name="Scedilla.ss04" horiz-adv-x="608" 
d="M556 204q0 -91 -67 -152.5t-183 -65.5l-13 -9q-26 -20 -58 -27l8 -27q28 11 47 11q28 0 46.5 -16.5t18.5 -43.5q0 -42 -33 -66t-88 -24q-74 0 -110 46l42 48q26 -34 66 -34q20 0 32.5 9.5t12.5 22.5q0 12 -11 21t-29 9q-16 0 -28 -5l-22 41l55 47q-90 12 -145 65.5
t-66 133.5l101 34q9 -67 50.5 -107t113.5 -40q70 0 110.5 34t40.5 85q0 40 -26.5 63.5t-84.5 39.5l-80 24q-70 20 -107 61.5t-37 115.5q0 91 70 153t175 62q109 0 169 -50t77 -128l-102 -31q-11 48 -45 84q-34 37 -104 37q-60 0 -99 -34.5t-39 -82.5q0 -39 21.5 -59
t76.5 -37l85 -26q72 -22 115.5 -68t43.5 -114z" />
    <glyph glyph-name="uni0162.ss04" horiz-adv-x="623" 
d="M109 700h599l-20 -92h-252l-130 -608l-32 -25q-13 -12 -57 -29l8 -22q20 10 46 10q28 0 47 -17t19 -43q0 -42 -33 -66t-88 -24q-75 0 -111 46l42 48q30 -34 66 -34q21 0 33.5 9.5t12.5 22.5q0 12 -11 21t-29 9q-16 0 -29 -5l-23 41l68 58h-29l129 608h-246z" />
    <glyph glyph-name="a.salt" horiz-adv-x="581" 
d="M40 188q-2 126 70 225.5t171 96.5q123 0 152 -131h51q-27 47 -27 103q0 11 1 14h94l-105 -496h-82q11 44 63 99h-60q-57 -113 -157 -113q-74 0 -122.5 55t-48.5 147zM414 297q0 132 -110 132q-71 3 -120.5 -71.5t-47.5 -162.5q0 -62 30 -95t81 -33q66 -3 117.5 72.5
t49.5 157.5z" />
    <glyph glyph-name="aacute.salt" horiz-adv-x="581" 
d="M40 188q-2 126 70 225.5t171 96.5q123 0 152 -131h51q-27 47 -27 103q0 11 1 14h94l-105 -496h-82q11 44 63 99h-60q-57 -113 -157 -113q-74 0 -122.5 55t-48.5 147zM414 297q0 132 -110 132q-71 3 -120.5 -71.5t-47.5 -162.5q0 -62 30 -95t81 -33q66 -3 117.5 72.5
t49.5 157.5zM315 567l79 141h128l-141 -141h-66z" />
    <glyph glyph-name="abreve.salt" horiz-adv-x="581" 
d="M40 188q-2 126 70 225.5t171 96.5q123 0 152 -131h51q-27 47 -27 103q0 11 1 14h94l-105 -496h-82q11 44 63 99h-60q-57 -113 -157 -113q-74 0 -122.5 55t-48.5 147zM414 297q0 132 -110 132q-71 3 -120.5 -71.5t-47.5 -162.5q0 -62 30 -95t81 -33q66 -3 117.5 72.5
t49.5 157.5zM224 667q0 9 2 23h72q-3 -30 12.5 -48t47.5 -18q64 0 86 66h80q-12 -56 -54 -95t-113 -39q-65 0 -99 32t-34 79z" />
    <glyph glyph-name="acircumflex.salt" horiz-adv-x="581" 
d="M40 188q-2 126 70 225.5t171 96.5q123 0 152 -131h51q-27 47 -27 103q0 11 1 14h94l-105 -496h-82q11 44 63 99h-60q-57 -113 -157 -113q-74 0 -122.5 55t-48.5 147zM414 297q0 132 -110 132q-71 3 -120.5 -71.5t-47.5 -162.5q0 -62 30 -95t81 -33q66 -3 117.5 72.5
t49.5 157.5zM173 567l133 123h133l80 -123h-89l-64 73l-97 -73h-96z" />
    <glyph glyph-name="adieresis.salt" horiz-adv-x="581" 
d="M40 188q-2 126 70 225.5t171 96.5q123 0 152 -131h51q-27 47 -27 103q0 11 1 14h94l-105 -496h-82q11 44 63 99h-60q-57 -113 -157 -113q-74 0 -122.5 55t-48.5 147zM414 297q0 132 -110 132q-71 3 -120.5 -71.5t-47.5 -162.5q0 -62 30 -95t81 -33q66 -3 117.5 72.5
t49.5 157.5zM205 587l22 103h101l-22 -103h-101zM400 587l22 103h100l-22 -103h-100z" />
    <glyph glyph-name="uni0227.salt" horiz-adv-x="581" 
d="M40 188q-2 126 70 225.5t171 96.5q123 0 152 -131h51q-27 47 -27 103q0 11 1 14h94l-105 -496h-82q11 44 63 99h-60q-57 -113 -157 -113q-74 0 -122.5 55t-48.5 147zM414 297q0 132 -110 132q-71 3 -120.5 -71.5t-47.5 -162.5q0 -62 30 -95t81 -33q66 -3 117.5 72.5
t49.5 157.5zM304 588l24 112h98l-24 -112h-98z" />
    <glyph glyph-name="uni1EA1.salt" horiz-adv-x="581" 
d="M40 188q-2 126 70 225.5t171 96.5q123 0 152 -131h51q-27 47 -27 103q0 11 1 14h94l-105 -496h-82q11 44 63 99h-60q-57 -113 -157 -113q-74 0 -122.5 55t-48.5 147zM414 297q0 132 -110 132q-71 3 -120.5 -71.5t-47.5 -162.5q0 -62 30 -95t81 -33q66 -3 117.5 72.5
t49.5 157.5zM145 -195l24 112h98l-24 -112h-98z" />
    <glyph glyph-name="agrave.salt" horiz-adv-x="581" 
d="M40 188q-2 126 70 225.5t171 96.5q123 0 152 -131h51q-27 47 -27 103q0 11 1 14h94l-105 -496h-82q11 44 63 99h-60q-57 -113 -157 -113q-74 0 -122.5 55t-48.5 147zM414 297q0 132 -110 132q-71 3 -120.5 -71.5t-47.5 -162.5q0 -62 30 -95t81 -33q66 -3 117.5 72.5
t49.5 157.5zM322 567l-79 141h115l20 -141h-56z" />
    <glyph glyph-name="amacron.salt" horiz-adv-x="581" 
d="M40 188q-2 126 70 225.5t171 96.5q123 0 152 -131h51q-27 47 -27 103q0 11 1 14h94l-105 -496h-82q11 44 63 99h-60q-57 -113 -157 -113q-74 0 -122.5 55t-48.5 147zM414 297q0 132 -110 132q-71 3 -120.5 -71.5t-47.5 -162.5q0 -62 30 -95t81 -33q66 -3 117.5 72.5
t49.5 157.5zM204 591l15 72h304l-16 -72h-303z" />
    <glyph glyph-name="aogonek.salt" horiz-adv-x="581" 
d="M324 -95q0 -36 51 -36q17 0 45 6l-15 -74q-29 -7 -59 -7q-47 0 -75 22.5t-28 62.5q0 77 127 138q15 37 58 82h-60q-57 -113 -157 -113q-74 0 -122.5 55t-48.5 147q-2 126 70 225.5t171 96.5q123 0 152 -131h51q-27 47 -27 103q0 11 1 14h94l-105 -496q-123 -43 -123 -95z
M414 297q0 132 -110 132q-71 3 -120.5 -71.5t-47.5 -162.5q0 -62 30 -95t81 -33q66 -3 117.5 72.5t49.5 157.5z" />
    <glyph glyph-name="aring.salt" horiz-adv-x="581" 
d="M40 188q-2 126 70 225.5t171 96.5q123 0 152 -131h51q-27 47 -27 103q0 11 1 14h94l-105 -496h-82q11 44 63 99h-60q-57 -113 -157 -113q-74 0 -122.5 55t-48.5 147zM414 297q0 132 -110 132q-71 3 -120.5 -71.5t-47.5 -162.5q0 -62 30 -95t81 -33q66 -3 117.5 72.5
t49.5 157.5zM241 652q0 55 36.5 91t92.5 36q46 0 77.5 -31t31.5 -73q0 -54 -37.5 -89.5t-90.5 -35.5q-47 0 -78.5 30t-31.5 72zM415 669q0 24 -14 38t-36 14q-26 0 -43.5 -18t-17.5 -44q0 -24 13.5 -37.5t37.5 -13.5t42 18t18 43z" />
    <glyph glyph-name="aringacute.salt" horiz-adv-x="581" 
d="M40 188q-2 126 70 225.5t171 96.5q123 0 152 -131h51q-27 47 -27 103q0 11 1 14h94l-105 -496h-82q11 44 63 99h-60q-57 -113 -157 -113q-74 0 -122.5 55t-48.5 147zM414 297q0 132 -110 132q-71 3 -120.5 -71.5t-47.5 -162.5q0 -62 30 -95t81 -33q66 -3 117.5 72.5
t49.5 157.5zM363 798l80 137h127l-140 -137h-67zM257 651q0 55 36.5 91t91.5 36q46 0 77.5 -31t31.5 -73q0 -54 -37 -89.5t-90 -35.5q-47 0 -78.5 30t-31.5 72zM430 668q0 24 -14 38t-36 14q-26 0 -43 -18t-17 -44q0 -24 13.5 -37.5t37.5 -13.5t41.5 18t17.5 43z" />
    <glyph glyph-name="atilde.salt" horiz-adv-x="581" 
d="M40 188q-2 126 70 225.5t171 96.5q123 0 152 -131h51q-27 47 -27 103q0 11 1 14h94l-105 -496h-82q11 44 63 99h-60q-57 -113 -157 -113q-74 0 -122.5 55t-48.5 147zM414 297q0 132 -110 132q-71 3 -120.5 -71.5t-47.5 -162.5q0 -62 30 -95t81 -33q66 -3 117.5 72.5
t49.5 157.5zM351 596l-26 18q-25 17 -41 17q-39 0 -50 -51h-77q24 123 124 123q37 0 74 -24l26 -17q26 -18 39 -18q34 0 50 46h78q-24 -121 -123 -121q-36 0 -74 27z" />
    <glyph glyph-name="ccedilla.ss04" horiz-adv-x="538" 
d="M408 178l83 -41q-65 -139 -207 -150l-13 -10q-25 -19 -59 -27l8 -27q28 11 47 11q28 0 47 -16.5t19 -43.5q0 -42 -33.5 -66t-88.5 -24q-74 0 -110 46l42 48q26 -34 66 -34q20 0 32.5 9.5t12.5 22.5q0 12 -11 21t-29 9q-16 0 -28 -5l-22 41l54 47q-82 11 -129 67t-47 148
q-2 75 31 145.5t96 116.5t140 44q80 0 133 -41.5t70 -109.5l-91 -25q-12 44 -41.5 70t-75.5 26q-76 2 -122 -68t-45 -152q0 -71 36 -107.5t90 -36.5q93 0 145 112z" />
    <glyph glyph-name="g.ss02" horiz-adv-x="587" 
d="M-28 -52l91 29q17 -105 134 -105q67 0 104 23t54 81q24 69 77 121h-57q-23 -37 -63 -62.5t-93 -25.5q-74 0 -124.5 52.5t-50.5 139.5q-2 121 68 216t173 93q75 0 110 -41t44 -91h48q-21 44 -21 97q0 11 2 21h90l-103 -484q-25 -114 -85 -167t-172 -53q-98 0 -156.5 40
t-69.5 116zM423 295q0 64 -32.5 99.5t-89.5 35.5q-72 0 -115 -66.5t-43 -155.5q0 -122 112 -122q76 0 122 59.5t46 149.5z" />
    <glyph glyph-name="gbreve.ss02" horiz-adv-x="587" 
d="M-28 -52l91 29q17 -105 134 -105q67 0 104 23t54 81q24 69 77 121h-57q-23 -37 -63 -62.5t-93 -25.5q-74 0 -124.5 52.5t-50.5 139.5q-2 121 68 216t173 93q75 0 110 -41t44 -91h48q-21 44 -21 97q0 11 2 21h90l-103 -484q-25 -114 -85 -167t-172 -53q-98 0 -156.5 40
t-69.5 116zM423 295q0 64 -32.5 99.5t-89.5 35.5q-72 0 -115 -66.5t-43 -155.5q0 -122 112 -122q76 0 122 59.5t46 149.5zM221 667q0 9 2 23h72q-3 -30 12.5 -48t47.5 -18q64 0 86 66h80q-12 -56 -54.5 -95t-112.5 -39q-65 0 -99 32t-34 79z" />
    <glyph glyph-name="gcircumflex.ss02" horiz-adv-x="587" 
d="M-28 -52l91 29q17 -105 134 -105q67 0 104 23t54 81q24 69 77 121h-57q-23 -37 -63 -62.5t-93 -25.5q-74 0 -124.5 52.5t-50.5 139.5q-2 121 68 216t173 93q75 0 110 -41t44 -91h48q-21 44 -21 97q0 11 2 21h90l-103 -484q-25 -114 -85 -167t-172 -53q-98 0 -156.5 40
t-69.5 116zM423 295q0 64 -32.5 99.5t-89.5 35.5q-72 0 -115 -66.5t-43 -155.5q0 -122 112 -122q76 0 122 59.5t46 149.5zM169 567l133 123h133l80 -123h-89l-64 73l-97 -73h-96z" />
    <glyph glyph-name="uni0123.ss02" horiz-adv-x="587" 
d="M-28 -52l91 29q17 -105 134 -105q67 0 104 23t54 81q24 69 77 121h-57q-23 -37 -63 -62.5t-93 -25.5q-74 0 -124.5 52.5t-50.5 139.5q-2 121 68 216t173 93q75 0 110 -41t44 -91h48q-21 44 -21 97q0 11 2 21h90l-103 -484q-25 -114 -85 -167t-172 -53q-98 0 -156.5 40
t-69.5 116zM423 295q0 64 -32.5 99.5t-89.5 35.5q-72 0 -115 -66.5t-43 -155.5q0 -122 112 -122q76 0 122 59.5t46 149.5zM464 818l-92 -119h54l-24 -111h-109l25 116l88 114h58z" />
    <glyph glyph-name="gdotaccent.ss02" horiz-adv-x="587" 
d="M-28 -52l91 29q17 -105 134 -105q67 0 104 23t54 81q24 69 77 121h-57q-23 -37 -63 -62.5t-93 -25.5q-74 0 -124.5 52.5t-50.5 139.5q-2 121 68 216t173 93q75 0 110 -41t44 -91h48q-21 44 -21 97q0 11 2 21h90l-103 -484q-25 -114 -85 -167t-172 -53q-98 0 -156.5 40
t-69.5 116zM423 295q0 64 -32.5 99.5t-89.5 35.5q-72 0 -115 -66.5t-43 -155.5q0 -122 112 -122q76 0 122 59.5t46 149.5zM300 588l24 112h98l-24 -112h-98z" />
    <glyph glyph-name="i.locl" horiz-adv-x="259" 
d="M153 588l24 112h99l-24 -112h-99zM30 0l106 496h94l-105 -496h-95z" />
    <glyph glyph-name="scedilla.ss04" horiz-adv-x="489" 
d="M428 150q0 -72 -52 -115.5t-139 -48.5l-13 -9q-25 -19 -58 -27l8 -27q28 11 47 11q28 0 46.5 -16.5t18.5 -43.5q0 -42 -33 -66t-88 -24q-76 0 -110 46l41 48q30 -34 67 -34q20 0 32.5 9.5t12.5 22.5q0 12 -11 21t-29 9q-16 0 -28 -5l-23 41l55 47q-70 10 -113.5 47.5
t-46.5 95.5l89 21q5 -42 35 -66t83 -24q52 0 82 20.5t30 55.5q0 25 -17 40t-59 27l-52 15q-67 19 -97 48t-30 84q0 67 55.5 112t138.5 45q86 0 135.5 -38t55.5 -97l-87 -22q-4 36 -30 60t-74 24q-49 0 -75.5 -22t-26.5 -51q0 -23 14 -34.5t57 -25.5l51 -14q67 -20 102.5 -53
t35.5 -87z" />
    <glyph glyph-name="uni0163.ss04" horiz-adv-x="402" 
d="M258 418l-62 -288q-2 -14 -2 -16q0 -33 44 -33h114l-18 -81h-81l-31 -23q-25 -19 -58 -27l8 -27q28 11 47 11q28 0 46.5 -16.5t18.5 -43.5q0 -42 -33 -66t-88 -24q-76 0 -110 46l41 48q30 -34 67 -34q20 0 32.5 9.5t12.5 22.5q0 12 -11 21t-29 9q-16 0 -28 -5l-23 41
l72 61q-88 16 -88 101q0 21 4 36l60 278h-113l17 78h112l33 155h95l-33 -155h133l-17 -78h-132z" />
    <glyph glyph-name="zero.onum" horiz-adv-x="639" 
d="M49 218q-2 117 84.5 205.5t209.5 86.5q111 0 179 -65.5t68 -167.5q2 -119 -82.5 -206.5t-209.5 -84.5q-110 0 -179.5 65.5t-69.5 166.5zM492 270q0 73 -41 116t-113 43q-82 0 -136 -60t-54 -143q0 -73 41.5 -116t114.5 -43q82 0 135 60t53 143z" />
    <glyph glyph-name="one.onum" horiz-adv-x="392" 
d="M164 0l54 253q15 74 42 115h-46q-30 -57 -76 -90.5t-102 -36.5l22 101q57 7 121 50q62 42 108 104h73l-105 -496h-91z" />
    <glyph glyph-name="two.onum" horiz-adv-x="513" 
d="M31 0l26 113q170 58 243 108t76 121q0 39 -27 63t-67 24q-91 0 -108 -102l-93 21q9 73 63.5 117.5t137.5 44.5q88 0 139.5 -46t51.5 -113q0 -93 -87 -157q-71 -52 -244 -111l19 -41q67 39 155 39h108l-17 -81h-376z" />
    <glyph glyph-name="three.onum" horiz-adv-x="555" 
d="M-15 -13v17l97 11q-1 -9 -1 -18q0 -56 35 -90.5t95 -34.5q63 0 103 39.5t40 95.5q0 51 -32 79t-87 28h-42l18 84h53q67 0 105.5 36.5t38.5 94.5q0 45 -31 72.5t-78 27.5q-52 0 -90 -36t-46 -90l-98 16q15 82 80 136.5t156 54.5q93 0 147.5 -47.5t54.5 -122.5
q0 -78 -51 -120t-126 -45l-9 -42q59 -8 97 -43.5t38 -91.5q0 -85 -67 -146t-173 -61q-108 0 -167.5 52t-59.5 144z" />
    <glyph glyph-name="four.onum" horiz-adv-x="588" 
d="M274 -195l41 195h-334l18 83l372 413h143l-88 -415h101l-17 -81h-102l-42 -195h-92zM244 81h89l34 161q12 54 25.5 80.5t43.5 62.5l7 8l-35 29l-3 -3l-300 -338l-9 -11l32 -29q23 17 32 22t30 11t54 7z" />
    <glyph glyph-name="five.onum" horiz-adv-x="559" 
d="M-16 -40l98 23q3 -49 39 -80t87 -31q74 0 120 49.5t46 121.5q0 53 -35 85.5t-90 32.5q-74 0 -132 -75l-99 26l132 384h386l-19 -90h-313l-43 -129q-15 -45 -30.5 -70t-41.5 -50h57q19 36 55.5 60t82.5 24q77 0 132 -52t55 -142q0 -109 -72 -182.5t-188 -73.5
q-96 0 -157 47.5t-70 121.5z" />
    <glyph glyph-name="six.onum" horiz-adv-x="607" 
d="M65 248q-1 89 27.5 174t79.5 150.5t126.5 104.5t162.5 37q97 0 151 -23l-20 -90q-58 24 -132 24q-112 0 -199 -74.5t-117 -216.5h44q16 51 60.5 84.5t109.5 33.5q93 0 148.5 -56t55.5 -142q2 -109 -79.5 -189.5t-191.5 -78.5q-113 0 -169.5 64t-56.5 198zM466 245
q0 60 -35 93.5t-98 33.5q-69 0 -119.5 -55t-50.5 -126q0 -58 35.5 -91t93.5 -33q72 0 123 54t51 124z" />
    <glyph glyph-name="seven.onum" horiz-adv-x="510" 
d="M422 411l15 10l-26 36q-65 -45 -145 -45h-213l18 84h470l-20 -98q-181 -128 -267.5 -267.5t-112.5 -325.5h-100q27 193 119.5 338t261.5 268z" />
    <glyph glyph-name="eight.onum" horiz-adv-x="589" 
d="M42 167q0 85 55 130t153 48l8 44q-61 9 -96 41.5t-35 83.5q0 87 67 143.5t170 56.5q90 0 149 -48t59 -124q0 -73 -50 -114t-135 -47l-9 -43q68 -10 106.5 -47t38.5 -95q0 -89 -70.5 -149.5t-181.5 -60.5q-109 0 -169 50.5t-60 130.5zM477 528q0 48 -33 76.5t-85 28.5
q-59 0 -98 -37t-39 -90q0 -47 32 -72t85 -25q62 0 100 34t38 85zM423 206q0 52 -35 80t-96 28q-66 0 -107.5 -38t-41.5 -93q0 -54 35.5 -85t93.5 -31q68 0 109.5 40t41.5 99z" />
    <glyph glyph-name="nine.onum" horiz-adv-x="615" 
d="M8 -186l20 90q59 -24 131 -24q113 0 197 71t106 196h-43q-16 -40 -57.5 -72t-106.5 -32q-91 0 -145.5 56t-54.5 142q-2 109 78.5 190t189.5 79q106 0 167 -68t61 -197q2 -205 -105.5 -330.5t-287.5 -123.5q-96 0 -150 23zM455 305q0 58 -36.5 91t-92.5 33q-73 0 -124 -54
t-51 -125q0 -59 36 -92.5t97 -33.5q69 0 120 54.5t51 126.5z" />
    <glyph glyph-name="zero.tnum" 
d="M44 272q-2 112 38.5 213.5t117 166t169.5 62.5q115 0 183 -79t68 -212q2 -113 -38 -213.5t-116 -163t-171 -60.5q-120 0 -185.5 76.5t-65.5 209.5zM516 424q0 90 -38.5 145.5t-111.5 55.5q-62 2 -114 -52.5t-79 -136.5t-26 -165q0 -92 38.5 -144t112.5 -52
q63 -2 114.5 51.5t78 134t25.5 163.5z" />
    <glyph glyph-name="one.tnum" 
d="M367 92h164l-20 -92h-465l19 92h204l78 365q17 78 48 123h-49q-32 -63 -81 -100.5t-109 -39.5l23 106q63 8 126.5 49.5t111.5 104.5h80z" />
    <glyph glyph-name="two.tnum" 
d="M27 0l26 118q154 77 243 133q196 124 196 249q0 59 -34.5 92t-90.5 33q-59 0 -97.5 -43t-44.5 -115l-104 23q14 103 79.5 163.5t171.5 60.5q103 0 164 -58.5t61 -145.5q0 -142 -137 -246q-90 -73 -327 -178l25 -42q66 48 156 48h205l-20 -92h-472z" />
    <glyph glyph-name="three.tnum" 
d="M53 202l103 15q-2 -67 32 -105.5t99 -38.5q62 0 102.5 40t40.5 95q0 50 -32 77.5t-87 27.5h-49l18 85h49q71 0 112 36.5t41 94.5q0 45 -31 71.5t-78 26.5q-55 0 -92 -33.5t-46 -91.5l-102 24q17 85 81 136.5t166 51.5q90 0 147 -47t57 -119q0 -81 -56.5 -127t-132.5 -46
l-8 -41q63 -5 104.5 -42.5t41.5 -96.5q0 -84 -68.5 -146.5t-176.5 -62.5q-114 0 -175.5 57t-59.5 159z" />
    <glyph glyph-name="four.tnum" 
d="M323 0l40 189h-332l21 100l357 411h159l-90 -426h100l-18 -85h-101l-40 -189h-96zM381 274l39 185q16 78 73 141l-34 30l-8 -10l-294 -341l-10 -12l32 -31q33 27 50 32q20 6 57 6h95z" />
    <glyph glyph-name="five.tnum" 
d="M50 165l102 22q4 -52 42 -83t93 -31q74 0 117.5 47t43.5 118q0 55 -34 87.5t-91 32.5q-76 0 -137 -74l-102 26l132 390h405l-19 -92h-326l-40 -121q-30 -87 -79 -136h57q18 34 56.5 62t89.5 28q78 0 134.5 -54t56.5 -143q0 -115 -74 -186.5t-193 -71.5q-101 0 -163 50
t-71 129z" />
    <glyph glyph-name="six.tnum" 
d="M69 265q-1 122 45 224t136.5 164.5t208.5 60.5q96 0 163 -27l-20 -96q-74 28 -150 28q-117 0 -201 -77.5t-103 -217.5h44q13 52 61 91t116 39q90 0 146.5 -57.5t56.5 -142.5q0 -113 -74 -190.5t-187 -77.5q-115 0 -178.5 72t-63.5 207zM467 242q0 59 -35 93t-95 34
q-65 0 -112 -50.5t-47 -117.5q0 -58 36.5 -93t92.5 -35q67 0 113.5 51t46.5 118z" />
    <glyph glyph-name="seven.tnum" 
d="M539 608l15 11l-23 36q-64 -47 -157 -47h-221l20 92h470l-25 -120q-172 -108 -254.5 -247t-104.5 -333h-112q46 401 392 608z" />
    <glyph glyph-name="eight.tnum" 
d="M49 171q0 79 59 125.5t147 49.5l11 43q-60 12 -94.5 45t-34.5 88q0 83 69 137.5t175 54.5q95 0 155 -49t60 -124q0 -72 -52.5 -114t-127.5 -47l-10 -43q60 -9 100 -47.5t40 -94.5q0 -88 -71.5 -148.5t-193.5 -60.5q-110 0 -171 52t-61 133zM495 528q0 46 -33.5 73
t-85.5 27q-59 0 -99 -35.5t-40 -86.5q0 -98 119 -98q67 0 103 34.5t36 85.5zM442 206q0 52 -36 80.5t-99 28.5q-72 0 -113 -37.5t-41 -94.5q0 -51 37.5 -81t96.5 -30q68 0 111.5 38.5t43.5 95.5z" />
    <glyph glyph-name="nine.tnum" 
d="M42 16l21 96q63 -29 147 -29q108 0 174 60q97 76 119 218h-42q-48 -104 -164 -104q-90 0 -144.5 57t-54.5 144q0 110 69 183t180 73q103 0 169 -67q73 -75 73 -223q1 -123 -42.5 -222t-130 -158t-203.5 -58q-111 0 -171 30zM479 496q0 59 -37 95t-90 36q-66 0 -107.5 -47
t-41.5 -110q0 -59 34.5 -94t90.5 -35q69 0 110 43.5t41 111.5z" />
    <glyph glyph-name="zero.subs" horiz-adv-x="425" 
d="M9 49q0 106 55 178t136 72q68 0 108.5 -45.5t40.5 -122.5q0 -106 -54 -176.5t-136 -70.5q-70 0 -110 44t-40 121zM265 132q0 46 -18 72t-49 26q-42 0 -73 -55t-31 -126q0 -96 67 -96q41 0 72.5 54.5t31.5 124.5z" />
    <glyph glyph-name="one.subs" horiz-adv-x="285" 
d="M57 -108l49 225q11 52 35 88h-35q-37 -70 -100 -74l16 76q73 2 133 84h68l-85 -399h-81z" />
    <glyph glyph-name="two.subs" horiz-adv-x="378" 
d="M-10 -108l18 87q123 66 170 105t50 89q0 27 -14 42t-40 15q-28 0 -44.5 -24t-17.5 -63l-85 17q6 65 46.5 102t105.5 37q59 0 96.5 -33.5t37.5 -86.5q0 -69 -58 -119q-34 -31 -142 -81q-2 -1 -16 -7t-22 -10l17 -31q53 32 111 32h71l-15 -71h-269z" />
    <glyph glyph-name="three.subs" horiz-adv-x="373" 
d="M-11 19l86 11q-1 -2 -1 -11q0 -67 57 -67q28 0 45.5 17.5t17.5 44.5q0 47 -54 47h-35l14 67h34q31 0 50 16t19 44q0 19 -12.5 31t-32.5 12q-52 0 -63 -68l-83 17q9 55 49 87t101 32q55 0 89.5 -27.5t34.5 -69.5q0 -41 -28 -65.5t-77 -24.5l-6 -31q38 -2 61 -24t23 -53
q0 -52 -42 -86t-107 -34q-68 0 -105.5 36.5t-34.5 98.5z" />
    <glyph glyph-name="four.subs" horiz-adv-x="385" 
d="M-5 19l86 11q-1 -2 -1 -11q0 -67 57 -67q28 0 45.5 17.5t17.5 44.5q0 47 -54 47h-35l14 67h34q31 0 50 16t19 44q0 19 -12.5 31t-32.5 12q-52 0 -63 -68l-83 17q9 55 49 87t101 32q55 0 89.5 -27.5t34.5 -69.5q0 -41 -28 -65.5t-77 -24.5l-6 -31q38 -2 61 -24t23 -53
q0 -52 -42 -86t-107 -34q-68 0 -105.5 36.5t-34.5 98.5z" />
    <glyph glyph-name="five.subs" horiz-adv-x="379" 
d="M-10 -1l81 18q1 -30 18 -47.5t45 -17.5q31 0 51 22t20 56q0 26 -14.5 41t-38.5 15q-42 0 -65 -42l-80 19l77 228h246l-14 -70h-178l-12 -35q-16 -55 -55 -89h42q25 53 77 53q44 0 72 -32t28 -82q0 -68 -43 -110t-112 -42q-62 0 -102 31.5t-43 83.5z" />
    <glyph glyph-name="six.subs" horiz-adv-x="396" 
d="M9 46q0 111 62.5 182t161.5 71q63 0 103 -21l-15 -72q-47 21 -93 21q-60 0 -101 -32.5t-52 -98.5h30q23 62 88 62q48 0 82 -34t34 -84q0 -67 -45 -111.5t-111 -44.5q-68 0 -106 42.5t-38 119.5zM223 33q0 58 -55 58q-29 0 -50 -23.5t-21 -56.5q0 -26 14.5 -42.5
t39.5 -16.5q29 0 50.5 24t21.5 57z" />
    <glyph glyph-name="seven.subs" horiz-adv-x="341" 
d="M218 221l16 9l-18 28q-55 -37 -111 -37h-81l15 70h284l-16 -72q-95 -66 -140 -140.5t-55 -186.5h-90q10 107 61.5 193.5t134.5 135.5z" />
    <glyph glyph-name="eight.subs" horiz-adv-x="386" 
d="M-6 -8q0 38 32 65t81 28l8 32q-37 3 -55.5 20.5t-18.5 43.5q0 50 41.5 84t104.5 34q56 0 92.5 -28.5t36.5 -74.5q0 -35 -26 -58.5t-73 -22.5l-7 -32q36 -4 57.5 -25t21.5 -51q0 -53 -44 -88t-111 -35q-64 0 -102 30t-38 78zM233 186q0 21 -13.5 33t-36.5 12
q-26 0 -43 -16t-17 -41q0 -45 50 -45q26 0 43 16t17 41zM205 15q0 24 -15.5 38t-42.5 14q-29 0 -48.5 -18.5t-19.5 -45.5q0 -24 15 -37.5t42 -13.5q31 0 50 17.5t19 45.5z" />
    <glyph glyph-name="nine.subs" horiz-adv-x="392" 
d="M-7 -94l15 74q40 -22 90 -22q65 0 105 40q36 36 43 93h-32q-9 -27 -31.5 -43.5t-52.5 -16.5q-47 0 -77 33t-30 87q0 65 42 106.5t107 41.5q61 0 101 -40q43 -43 43 -127q0 -112 -59 -180t-157 -68q-63 0 -107 22zM228 171q0 26 -15 43t-40 17q-28 0 -46.5 -21.5
t-18.5 -53.5q0 -27 14.5 -42.5t39.5 -15.5q28 0 47 21t19 52z" />
    <glyph glyph-name="zero.dnom" horiz-adv-x="424" 
d="M33 157q0 106 55 178t136 72q68 0 108.5 -45.5t40.5 -122.5q0 -106 -54 -176.5t-136 -70.5q-70 0 -110 44t-40 121zM289 240q0 46 -18 72t-49 26q-42 0 -73 -55t-31 -126q0 -96 67 -96q41 0 72.5 54.5t31.5 124.5z" />
    <glyph glyph-name="one.dnom" horiz-adv-x="285" 
d="M80 0l49 225q11 52 35 88h-35q-37 -70 -100 -74l16 76q73 2 133 84h68l-85 -399h-81z" />
    <glyph glyph-name="two.dnom" horiz-adv-x="377" 
d="M13 0l18 87q123 66 170 105t50 89q0 27 -14 42t-40 15q-28 0 -44.5 -24t-17.5 -63l-85 17q6 65 46.5 102t105.5 37q59 0 96.5 -33.5t37.5 -86.5q0 -69 -58 -119q-34 -31 -142 -81q-2 -1 -16 -7t-22 -10l17 -31q53 32 111 32h71l-15 -71h-269z" />
    <glyph glyph-name="three.dnom" horiz-adv-x="373" 
d="M13 127l86 11q-1 -2 -1 -11q0 -67 57 -67q28 0 45.5 17.5t17.5 44.5q0 47 -54 47h-35l14 67h34q31 0 50 16t19 44q0 19 -12.5 31t-32.5 12q-52 0 -63 -68l-83 17q9 55 49 87t101 32q55 0 89.5 -27.5t34.5 -69.5q0 -41 -28 -65.5t-77 -24.5l-6 -31q38 -2 61 -24t23 -53
q0 -52 -42 -86t-107 -34q-68 0 -105.5 36.5t-34.5 98.5z" />
    <glyph glyph-name="four.dnom" horiz-adv-x="385" 
d="M166 0l21 103h-183l15 71l200 225h110l-49 -230h54l-14 -66h-55l-22 -103h-77zM203 169l10 50q9 45 58 91l-23 22l-157 -175l22 -20q32 32 75 32h15z" />
    <glyph glyph-name="five.dnom" horiz-adv-x="379" 
d="M13 107l81 18q1 -30 18 -47.5t45 -17.5q31 0 51 22t20 56q0 26 -14.5 41t-38.5 15q-42 0 -65 -42l-80 19l77 228h246l-14 -70h-178l-12 -35q-16 -55 -55 -89h42q25 53 77 53q44 0 72 -32t28 -82q0 -68 -43 -110t-112 -42q-62 0 -102 31.5t-43 83.5z" />
    <glyph glyph-name="six.dnom" horiz-adv-x="395" 
d="M32 154q0 111 62.5 182t161.5 71q63 0 103 -21l-15 -72q-46 21 -93 21q-60 0 -101 -32.5t-52 -98.5h30q23 62 88 62q48 0 82 -34t34 -84q0 -67 -45 -111.5t-111 -44.5q-68 0 -106 42.5t-38 119.5zM246 141q0 58 -55 58q-29 0 -50 -23.5t-21 -56.5q0 -26 14.5 -42.5
t39.5 -16.5q29 0 50.5 24t21.5 57z" />
    <glyph glyph-name="seven.dnom" horiz-adv-x="341" 
d="M241 329l16 9l-18 28q-55 -37 -111 -37h-81l15 70h284l-16 -72q-95 -66 -140 -140.5t-55 -186.5h-90q10 107 61.5 193.5t134.5 135.5z" />
    <glyph glyph-name="eight.dnom" horiz-adv-x="386" 
d="M17 100q0 38 32 65t81 28l8 32q-37 3 -55.5 20.5t-18.5 43.5q0 50 41.5 84t104.5 34q56 0 92.5 -28.5t36.5 -74.5q0 -35 -26 -58.5t-73 -22.5l-7 -32q36 -4 57.5 -25t21.5 -51q0 -53 -44 -88t-111 -35q-64 0 -102 30t-38 78zM256 294q0 21 -13.5 33t-36.5 12
q-26 0 -43 -16t-17 -41q0 -45 50 -45q26 0 43 16t17 41zM228 123q0 24 -15.5 38t-42.5 14q-29 0 -48.5 -18.5t-19.5 -45.5q0 -24 15 -37.5t42 -13.5q31 0 50 17.5t19 45.5z" />
    <glyph glyph-name="nine.dnom" horiz-adv-x="392" 
d="M16 14l15 74q40 -22 90 -22q65 0 105 40q36 36 43 93h-32q-9 -27 -31.5 -43.5t-52.5 -16.5q-47 0 -77 33t-30 87q0 65 42 106.5t107 41.5q61 0 101 -40q43 -43 43 -127q0 -112 -59 -180t-157 -68q-63 0 -107 22zM251 279q0 26 -15 43t-40 17q-28 0 -46.5 -21.5
t-18.5 -53.5q0 -27 14.5 -42.5t39.5 -15.5q28 0 47 21t19 52z" />
    <glyph glyph-name="zero.numr" horiz-adv-x="425" 
d="M97 458q0 106 55 178t136 72q68 0 108.5 -45.5t40.5 -122.5q0 -106 -54 -176.5t-136 -70.5q-70 0 -110 44t-40 121zM353 541q0 46 -18 72t-49 26q-42 0 -73 -55t-31 -126q0 -96 67 -96q41 0 72.5 54.5t31.5 124.5z" />
    <glyph glyph-name="one.numr" horiz-adv-x="285" 
d="M145 301l49 225q11 52 35 88h-35q-37 -70 -100 -74l16 76q73 2 133 84h68l-85 -399h-81z" />
    <glyph glyph-name="two.numr" horiz-adv-x="378" 
d="M77 301l18 87q123 66 170 105t50 89q0 27 -14 42t-40 15q-28 0 -44.5 -24t-17.5 -63l-85 17q6 65 46.5 102t105.5 37q59 0 96.5 -33.5t37.5 -86.5q0 -69 -58 -119q-34 -31 -142 -81q-2 -1 -16 -7t-22 -10l17 -31q53 32 111 32h71l-15 -71h-269z" />
    <glyph glyph-name="three.numr" horiz-adv-x="375" 
d="M77 428l86 11q-1 -2 -1 -11q0 -67 57 -67q28 0 45.5 17.5t17.5 44.5q0 47 -54 47h-35l14 67h34q31 0 50 16t19 44q0 19 -12.5 31t-32.5 12q-52 0 -63 -68l-83 17q9 55 49 87t101 32q55 0 89.5 -27.5t34.5 -69.5q0 -41 -28 -65.5t-77 -24.5l-6 -31q38 -2 61 -24t23 -53
q0 -52 -42 -86t-107 -34q-68 0 -105.5 36.5t-34.5 98.5z" />
    <glyph glyph-name="four.numr" horiz-adv-x="385" 
d="M230 301l21 103h-183l15 71l200 225h110l-49 -230h54l-14 -66h-55l-22 -103h-77zM267 470l10 50q9 45 58 91l-23 22l-157 -175l22 -20q32 32 75 32h15z" />
    <glyph glyph-name="five.numr" horiz-adv-x="380" 
d="M77 408l81 18q1 -30 18 -47.5t45 -17.5q31 0 51 22t20 56q0 26 -14.5 41t-38.5 15q-42 0 -65 -42l-80 19l77 228h246l-14 -70h-178l-12 -35q-16 -55 -55 -89h42q25 53 77 53q44 0 72 -32t28 -82q0 -68 -43 -110t-112 -42q-62 0 -102 31.5t-43 83.5z" />
    <glyph glyph-name="six.numr" horiz-adv-x="396" 
d="M96 455q0 111 62.5 182t161.5 71q63 0 103 -21l-15 -72q-46 21 -93 21q-60 0 -101 -32.5t-52 -98.5h30q23 62 88 62q48 0 82 -34t34 -84q0 -67 -45 -111.5t-111 -44.5q-68 0 -106 42.5t-38 119.5zM310 442q0 58 -55 58q-29 0 -50 -23.5t-21 -56.5q0 -26 14.5 -42.5
t39.5 -16.5q29 0 50.5 24t21.5 57z" />
    <glyph glyph-name="seven.numr" horiz-adv-x="341" 
d="M305 630l16 9l-18 28q-55 -37 -111 -37h-81l15 70h284l-16 -72q-95 -66 -140 -140.5t-55 -186.5h-90q10 107 61.5 193.5t134.5 135.5z" />
    <glyph glyph-name="eight.numr" horiz-adv-x="386" 
d="M81 401q0 38 32 65t81 28l8 32q-37 3 -55.5 20.5t-18.5 43.5q0 50 41.5 84t104.5 34q56 0 92.5 -28.5t36.5 -74.5q0 -35 -26 -58.5t-73 -22.5l-7 -32q36 -4 57.5 -25t21.5 -51q0 -53 -44 -88t-111 -35q-64 0 -102 30t-38 78zM320 595q0 21 -13.5 33t-36.5 12
q-26 0 -43 -16t-17 -41q0 -45 50 -45q26 0 43 16t17 41zM292 424q0 24 -15.5 38t-42.5 14q-29 0 -48.5 -18.5t-19.5 -45.5q0 -24 15 -37.5t42 -13.5q31 0 50 17.5t19 45.5z" />
    <glyph glyph-name="nine.numr" horiz-adv-x="392" 
d="M80 315l15 74q40 -22 90 -22q65 0 105 40q36 36 43 93h-32q-9 -27 -31.5 -43.5t-52.5 -16.5q-47 0 -77 33t-30 87q0 65 42 106.5t107 41.5q61 0 101 -40q43 -43 43 -127q0 -112 -59 -180t-157 -68q-63 0 -107 22zM315 580q0 26 -15 43t-40 17q-28 0 -46.5 -21.5
t-18.5 -53.5q0 -27 14.5 -42.5t39.5 -15.5q28 0 47 21t19 52z" />
    <glyph glyph-name="comma.ss04" horiz-adv-x="272" 
d="M-15 -140l63 83q25 33 69 47l-17 33q-31 -23 -57 -23h-14l28 130h126l-31 -137l-100 -133h-67z" />
    <glyph glyph-name="semicolon.ss04" horiz-adv-x="283" 
d="M-14 -140l63 83q25 33 69 47l-17 33q-31 -23 -57 -23h-14l28 130h126l-31 -137l-100 -133h-67zM106 366l28 130h126l-28 -130h-126z" />
    <glyph glyph-name="exclamdown.case" horiz-adv-x="295" 
d="M309 700l-28 -130h-127l29 130h126zM218 477l-29 -269l-44 -208h-100l45 211l88 266h40z" />
    <glyph glyph-name="questiondown.case" horiz-adv-x="494" 
d="M420 700l-29 -130h-125l27 130h127zM237 298q-60 -38 -84.5 -66t-27.5 -71q0 -41 25 -64.5t70 -23.5q115 0 132 146l95 -20q-6 -97 -70.5 -154.5t-162.5 -57.5q-85 0 -138 48t-53 116q0 48 20 85q20 34 50 61t92 69q47 32 61 50.5t21 60.5h97q-19 -78 -38.5 -105.5
t-88.5 -73.5z" />
    <glyph glyph-name="period.tnum" 
d="M184 0l33 156h151l-33 -156h-151z" />
    <glyph glyph-name="comma.tnum" 
d="M133 -167l127 167h-74l32 156h152l-36 -163l-121 -160h-80z" />
    <glyph glyph-name="colon.tnum" 
d="M264 384l33 157h151l-33 -157h-151zM183 0l33 156h151l-33 -156h-151z" />
    <glyph glyph-name="semicolon.tnum" 
d="M267 384l34 157h151l-34 -157h-151zM134 -167l126 167h-74l33 156h151l-35 -163l-122 -160h-79z" />
    <glyph glyph-name="semicolon.tnum_ss04" 
d="M269 385l33 157h151l-34 -157h-150zM134 -167l76 99q27 39 82 56l-20 39q-36 -27 -68 -27h-17l33 156h151l-37 -165l-120 -158h-80z" />
    <glyph glyph-name="numbersign.tnum" 
d="M30 0l36 86q13 32 32 53.5t57 43.5l-21 36q-48 -28 -99 -28h-23l17 81h116l67 159h-119l17 84h137l78 185h95l-35 -81q-15 -34 -31.5 -54t-55.5 -43l21 -36q48 29 102 29h37l79 185h95l-35 -81q-14 -33 -32 -54t-55 -43l21 -36q50 29 99 29h23l-18 -84h-116l-67 -159h120
l-18 -81h-136l-81 -191h-95l36 87q11 24 18.5 36t24.5 28t45 32l-22 36q-48 -28 -102 -28h-37l-80 -191h-95zM240 272h116l68 159h-117z" />
    <glyph glyph-name="parenleft.case" horiz-adv-x="332" 
d="M61 209q0 133 48 275t131 237q85 95 184 94l-18 -85q-72 -11 -131 -98t-93 -207q-34 -117 -34 -217q0 -105 22.5 -160.5t73.5 -70.5l-18 -87q-165 36 -165 319z" />
    <glyph glyph-name="parenright.case" horiz-adv-x="332" 
d="M316 497q0 -133 -48 -276q-47 -141 -132 -236q-83 -95 -183 -95l19 86q72 11 130 97q60 87 93 206q34 118 34 218q0 105 -22.5 160.5t-73.5 71.5l18 86q165 -36 165 -318z" />
    <glyph glyph-name="braceleft.case" horiz-adv-x="352" 
d="M87 16q0 23 6 50l26 122q9 40 9 62q0 31 -18.5 45t-62.5 14l18 85q61 0 85.5 25.5t37.5 94.5l32 147q16 77 52 110.5t121 33.5h45l-17 -76h-37q-33 0 -51.5 -17.5t-26.5 -57.5l-31 -142q-17 -83 -49.5 -112t-96.5 -31l-9 -38q91 0 91 -90q0 -24 -6 -58l-28 -132
q-4 -17 -4 -31q0 -44 49 -44h39l-16 -76h-42q-56 0 -86 30.5t-30 85.5z" />
    <glyph glyph-name="braceright.case" horiz-adv-x="352" 
d="M311 688q0 -24 -6 -49l-27 -122q-8 -43 -8 -63q0 -31 18.5 -45t62.5 -14l-18 -84q-62 -2 -85 -26t-39 -95l-31 -147q-17 -76 -53.5 -110t-119.5 -34h-45l16 76h38q61 0 78 75l30 142q19 85 50.5 113t96.5 30l8 38q-91 1 -91 90q0 26 7 58l28 132q4 17 4 31q0 45 -50 45
h-38l16 75h42q56 0 86 -30.5t30 -85.5z" />
    <glyph glyph-name="bracketleft.case" horiz-adv-x="350" 
d="M28 -100l193 905h218l-17 -76h-130l-161 -753h131l-16 -76h-218z" />
    <glyph glyph-name="bracketright.case" horiz-adv-x="350" 
d="M368 805l-193 -905h-218l16 77h131l160 752h-131l17 76h218z" />
    <glyph glyph-name="angleleft.case" horiz-adv-x="347" 
d="M434 765l-292 -423l113 -426l-84 -26l-122 463l316 462z" />
    <glyph glyph-name="angleright.case" horiz-adv-x="347" 
d="M222 815l122 -462l-316 -463l-69 50l292 423l-113 426z" />
    <glyph glyph-name="uni3010.case" horiz-adv-x="374" 
d="M28 -100l192 905h268q-229 -211 -280 -454q-16 -70 -16 -134q0 -159 104 -317h-268z" />
    <glyph glyph-name="uni3011.case" horiz-adv-x="374" 
d="M391 805l-193 -905h-267q230 216 280 454q15 72 15 134q0 162 -103 317h268z" />
    <glyph glyph-name="uni300C.case" horiz-adv-x="354" 
d="M102 362l94 443h259l-18 -78h-170l-78 -365h-87z" />
    <glyph glyph-name="uni300D.case" horiz-adv-x="359" 
d="M300 345l-94 -444h-258l17 78h170l78 366h87z" />
    <glyph glyph-name="uni300A.case" horiz-adv-x="569" 
d="M434 765l-292 -423l113 -430l-84 -26l-122 466l316 463zM665 765l-311 -451l106 -402l-83 -26l-116 438l336 491z" />
    <glyph glyph-name="uni300B.case" horiz-adv-x="567" 
d="M236 816l116 -439l-336 -490l-68 50l311 451l-107 402zM441 816l122 -466l-315 -463l-69 50l292 423l-113 430z" />
    <glyph glyph-name="uni3014.case" horiz-adv-x="322" 
d="M226 588l-102 -486l116 -168l-72 -48l-135 198l115 545l205 186l56 -63z" />
    <glyph glyph-name="uni3015.case" horiz-adv-x="322" 
d="M199 816l135 -198l-115 -545l-205 -186l-56 63l183 164l102 486l-116 168z" />
    <glyph glyph-name="uni300E.case" horiz-adv-x="491" 
d="M87 269l114 536h368l-45 -210h-161l-70 -326h-206zM179 344h60l68 317h158l14 69h-218z" />
    <glyph glyph-name="uni300F.case" horiz-adv-x="501" 
d="M448 437l-114 -536h-368l45 209h161l70 327h206zM356 362h-60l-67 -317h-159l-13 -69h217z" />
    <glyph glyph-name="hyphen.case" horiz-adv-x="435" 
d="M87 311l20 97h286l-20 -97h-286z" />
    <glyph glyph-name="uni00AD.case" horiz-adv-x="435" 
d="M87 311l20 97h286l-20 -97h-286z" />
    <glyph glyph-name="endash.case" horiz-adv-x="636" 
d="M90 317l19 86h482l-19 -86h-482z" />
    <glyph glyph-name="emdash.case" horiz-adv-x="950" 
d="M91 317l18 86h796l-19 -86h-795z" />
    <glyph glyph-name="quotesinglbase.ss04" horiz-adv-x="262" 
d="M-15 -133l60 79q22 31 65 45l-16 31q-28 -22 -54 -22h-13l26 124h119l-28 -131l-95 -126h-64z" />
    <glyph glyph-name="quotedblbase.ss04" horiz-adv-x="446" 
d="M-15 -133l60 79q22 31 65 45l-16 31q-28 -22 -54 -22h-13l26 124h119l-28 -131l-95 -126h-64zM169 -133l60 79q22 31 65 45l-16 31q-28 -22 -54 -22h-13l26 124h119l-28 -131l-95 -126h-64z" />
    <glyph glyph-name="quotedblleft.ss04" horiz-adv-x="439" 
d="M292 700l-60 -78q-22 -33 -65 -45l16 -32q27 22 54 22h13l-25 -124h-120l29 131l95 126h63zM477 700l-60 -78q-24 -33 -66 -45l16 -32q27 22 54 22h14l-26 -124h-120l29 131l95 126h64z" />
    <glyph glyph-name="quotedblright.ss04" horiz-adv-x="432" 
d="M102 444l60 79q22 31 65 45l-16 31q-27 -22 -54 -22h-13l26 124h119l-28 -131l-95 -126h-64zM286 444l60 79q22 31 65 45l-16 31q-27 -22 -54 -22h-13l26 124h119l-28 -131l-95 -126h-64z" />
    <glyph glyph-name="quoteleft.ss04" horiz-adv-x="255" 
d="M292 700l-60 -78q-22 -33 -65 -45l16 -32q27 22 54 22h13l-25 -124h-120l29 131l95 126h63z" />
    <glyph glyph-name="quoteright.ss04" horiz-adv-x="248" 
d="M102 444l60 79q22 31 65 45l-16 31q-27 -22 -54 -22h-13l26 124h119l-28 -131l-95 -126h-64z" />
    <glyph glyph-name="guillemotleft.case" horiz-adv-x="564" 
d="M360 568l-188 -227l82 -207h-94l-86 217l179 217h107zM583 568l-208 -253l72 -181h-93l-76 192l198 242h107z" />
    <glyph glyph-name="guillemotright.case" horiz-adv-x="565" 
d="M256 568l76 -192l-198 -242h-107l208 253l-72 181h93zM449 568l87 -217l-179 -217h-107l188 227l-83 207h94z" />
    <glyph glyph-name="guilsinglleft.case" horiz-adv-x="352" 
d="M360 568l-188 -227l82 -207h-94l-86 217l179 217h107z" />
    <glyph glyph-name="guilsinglright.case" horiz-adv-x="352" 
d="M236 568l86 -217l-178 -217h-107l187 227l-82 207h94z" />
    <glyph glyph-name="space.tnum" 
 />
    <glyph glyph-name="uni20BF.tnum" 
d="M597 207q0 -85 -69.5 -145.5t-179.5 -61.5l-23 -105h-78l23 105h-59l-22 -105h-78l23 105h-115l149 700h114l22 104h78l-23 -104h59l23 104h77l-24 -111q60 -14 95 -53.5t35 -93.5q0 -69 -44 -110.5t-125 -50.5l-9 -40q72 -4 111.5 -40t39.5 -98zM249 608l-43 -200h168
q68 0 107 31.5t39 84.5q0 84 -112 84h-159zM493 220q0 47 -33 72.5t-91 25.5h-181l-49 -226h198q71 0 113.5 35.5t42.5 92.5z" />
    <glyph glyph-name="cent.tnum" 
d="M202 -119l24 114q-70 19 -109 73t-39 135q-1 73 31.5 143t93 116.5t133.5 47.5l22 106h73l-25 -113q57 -14 95.5 -51t49.5 -88l-93 -28q-14 67 -69 85l-46 -215q-13 -59 -25 -87.5t-40 -55.5l23 -31q104 37 150 141l80 -41q-75 -146 -235 -146l-22 -105h-72zM244 78
l43 204q12 57 26 89.5t40 55.5l-23 30q-73 -28 -114 -98.5t-41 -155.5q0 -95 69 -125z" />
    <glyph glyph-name="currency.tnum" 
d="M92 82l-54 64l94 81q-22 43 -22 96q0 86 58 162l-69 82l63 55l72 -81q59 34 126 34q58 0 115 -36l96 82l54 -63l-96 -83q25 -44 25 -97q0 -84 -57 -154l71 -81l-64 -58l-72 84q-64 -41 -127 -41q-66 0 -118 38zM464 379q0 49 -30 79t-78 30q-64 0 -110 -49.5t-46 -114.5
q0 -49 30.5 -78.5t78.5 -29.5q63 0 109 49.5t46 113.5z" />
    <glyph glyph-name="dollar.tnum" 
d="M190 -105l22 101q-71 19 -116 68t-53 116l99 34q14 -96 90 -126l49 230l-21 8q-67 24 -102.5 61.5t-35.5 107.5q0 97 68.5 157.5t176.5 60.5l20 90h79l-22 -99q65 -17 104 -59t52 -97l-98 -34q-17 72 -78 97l-48 -219l27 -10q63 -23 107 -67q46 -43 46 -113
q0 -100 -70 -158t-197 -58l-20 -91h-79zM303 417l19 90q9 42 22 67.5t41 49.5l-17 32q-147 -31 -147 -151q0 -67 82 -88zM450 198q0 70 -95 96l-22 -107q-13 -68 -61 -112l18 -33q73 15 116.5 56t43.5 100z" />
    <glyph glyph-name="Euro.tnum" 
d="M116 235h-90l16 78h76q1 23 13 80h-71l17 78h77q40 109 114.5 176t164.5 67q99 0 151 -58.5t59 -145.5l-96 -19q-4 52 -32 93q-27 42 -90 42q-111 0 -203 -163l29 -22q35 30 91 30h103l-15 -78h-216q-13 -37 -13 -80h211l-16 -78h-109q-33 0 -48.5 6.5t-30.5 22.5
l-29 -18q14 -83 53.5 -127t99.5 -44q99 0 159 142l82 -33q-29 -87 -91.5 -142.5t-154.5 -55.5q-97 0 -151.5 66.5t-59.5 182.5z" />
    <glyph glyph-name="uni20BA.tnum" 
d="M98 0l29 134q13 62 57 117l-35 23q-30 -50 -63 -66l-39 -19l21 96l101 52l14 63l-103 -51l20 95l104 52l42 204h101l-12 -57q-11 -56 -53 -104l35 -23q19 29 36 45.5t53 37.5l156 80l-21 -97l-246 -126l-13 -61l247 126l-21 -98l-247 -127l-42 -203h22q42 -1 91 16.5
t98.5 63t66.5 109.5l94 -45q-30 -94 -128 -166.5t-234 -70.5h-131z" />
    <glyph glyph-name="uni20BD.tnum" 
d="M370 277h-142l-15 -68h211l-18 -79h-210l-28 -130h-99l28 130h-75l17 79h75l14 68h-74l18 86h75l72 337h187q108 0 168 -53t60 -142q0 -100 -73.5 -164t-190.5 -64zM298 608l-52 -245h122q76 0 120 39.5t44 102.5q0 47 -34.5 75t-94.5 28h-105z" />
    <glyph glyph-name="uni20B9.tnum" 
d="M467 644l-21 -37q35 -18 54 -49h115l-16 -80h-86q-9 -60 -60.5 -92.5t-136.5 -36.5l-8 -41q73 -1 100.5 -30.5t32.5 -101.5l11 -176h-108l-7 167q-1 67 -33.5 94.5t-106.5 27.5h-109l19 90h150q64 0 106 25.5t55 73.5h-290l17 80h272q-26 62 -127 62h-132l17 80h471
l-17 -79h-55q-68 0 -107 23z" />
    <glyph glyph-name="sterling.tnum" 
d="M317 92h224l-20 -92h-498l19 89q69 16 114 59.5t45 104.5q0 31 -7 55h-103l16 78h60q-21 60 -21 114q0 97 67.5 155t171.5 58q94 0 156.5 -50.5t62.5 -141.5l-99 -24q-4 64 -37.5 96.5t-89.5 32.5q-59 0 -93.5 -35.5t-34.5 -93.5q0 -46 21 -111h176l-17 -78h-137
q4 -20 4 -39q0 -67 -35.5 -106t-105.5 -68l22 -41q59 38 139 38z" />
    <glyph glyph-name="uni20A9.tnum" 
d="M656 700l-79 -239h69l-16 -73h-77l-25 -75h87l-16 -73h-96l-79 -240h-129l29 178l31 192h-40q-25 -103 -49 -195l-50 -175h-132l25 240h-90l15 73h83l8 75h-75l16 73h66l25 239h96l-27 -203q-15 -107 -71 -388h41l16 59l34 121l59 208h116l-21 -177q-10 -81 -33 -208h41
q49 244 89 380l63 208h96z" />
    <glyph glyph-name="yen.tnum" 
d="M702 700l-264 -306h135l-16 -77h-180l-17 -79h180l-17 -77h-179l-34 -161h-101l35 161h-188l17 77h187l17 79h-188l17 77h139l-139 306h109l78 -181q25 -57 25 -113q0 -9 -2 -37h42q21 96 69 154l147 177h128z" />
    <glyph glyph-name="_576" 
d="M152 109l-61 61l179 180l-180 179l63 63l180 -179l179 178l61 -61l-178 -178l179 -181l-63 -63l-180 180z" />
    <glyph glyph-name="plus.tnum" 
d="M288 85v222h-222v91h222v222h90v-222h222v-91h-222v-222h-90z" />
    <glyph glyph-name="minus.tnum" 
d="M90 308v91h480v-91h-480z" />
    <glyph glyph-name="multiply.tnum" 
d="M152 109l-61 61l179 180l-180 179l63 63l180 -179l179 178l61 -61l-178 -178l179 -181l-63 -63l-180 180z" />
    <glyph glyph-name="divide.tnum" 
d="M276 493v127h115v-127h-115zM93 307v91h480v-91h-480zM276 85v127h115v-127h-115z" />
    <glyph glyph-name="equal.tnum" 
d="M84 414v91h482v-91h-482zM84 195v91h482v-91h-482z" />
    <glyph glyph-name="notequal.tnum" 
d="M132 85l60 110h-109v91h158l30 54q23 38 68 70l-21 35q-43 -31 -94 -31h-141v91h278l63 115h90l-63 -115h113v-91h-163l-28 -54q-24 -40 -69 -71l21 -36q44 33 93 33h146v-91h-282l-60 -110h-90z" />
    <glyph glyph-name="greater.tnum" 
d="M113 70v103l274 117q85 33 153 38v40q-61 1 -153 39l-274 116v107l481 -209v-142z" />
    <glyph glyph-name="less.tnum" 
d="M551 630v-103l-274 -117q-84 -33 -152 -38v-40q60 -1 152 -39l274 -117v-106l-481 209v141z" />
    <glyph glyph-name="greaterequal.tnum" 
d="M93 204v96l271 72q65 16 155 21v40q-76 1 -155 22l-271 71v100l482 -136v-149zM93 85v91h482v-91h-482z" />
    <glyph glyph-name="lessequal.tnum" 
d="M562 204l-482 136v149l482 137v-96l-271 -72q-65 -16 -155 -21v-40q77 -1 155 -22l271 -70v-101zM80 85v91h482v-91h-482z" />
    <glyph glyph-name="plusminus.tnum" 
d="M281 243v139h-199v89h199v149h82v-149h200v-89h-200v-139h-82zM80 85v91h482v-91h-482z" />
    <glyph glyph-name="approxequal.tnum" 
d="M331 400l-32 14q-52 24 -83 24q-48 0 -95 -50l-54 69q31 37 73 57.5t81 20.5q40 0 101 -27l32 -14q55 -24 84 -24q47 0 95 50l54 -70q-31 -37 -73 -57.5t-81 -20.5q-38 0 -102 28zM331 179l-32 14q-52 24 -83 24q-48 0 -95 -50l-54 69q31 37 73 57.5t81 20.5
q40 0 101 -27l32 -14q55 -24 84 -24q47 0 95 50l54 -70q-31 -37 -73 -57.5t-81 -20.5q-38 0 -102 28z" />
    <glyph glyph-name="logicalnot.tnum" 
d="M468 158v151h-396v90h478v-241h-82z" />
    <glyph glyph-name="percent.tnum" 
d="M72 514q0 79 44.5 139.5t110.5 60.5q58 0 88.5 -35.5t30.5 -97.5q0 -81 -42 -139t-108 -58q-59 0 -91.5 34.5t-32.5 95.5zM38 0l510 700h81l-510 -700h-81zM269 589q0 59 -45 59q-34 0 -54 -45t-20 -97q0 -56 45 -56q34 0 54 43.5t20 95.5zM317 116q0 79 44 139.5
t110 60.5q59 0 89.5 -35.5t30.5 -97.5q0 -81 -42 -139t-108 -58q-59 0 -91.5 34.5t-32.5 95.5zM513 191q0 59 -44 59q-35 0 -54.5 -44.5t-19.5 -97.5q0 -56 45 -56q34 0 53.5 44t19.5 95z" />
    <glyph glyph-name="perthousand.tnum" 
d="M59 494q0 90 39 155t105 65q92 0 92 -109q0 -86 -39.5 -153.5t-102.5 -67.5q-94 0 -94 110zM479 700h75l-511 -700h-77zM132 488q0 -38 26 -38q18 -2 33.5 26.5t24 66t7.5 66.5q0 39 -27 39q-27 2 -45.5 -53.5t-18.5 -106.5zM605 207q0 -89 -36 -155t-99 -66
q-50 0 -74 38q-32 -38 -75 -38q-92 0 -92 111q0 88 36 154t99 66q49 0 74 -39q32 38 74 38q45 0 69 -28t24 -81zM391 212q0 38 -27 38q-26 3 -45 -53.5t-18 -105.5q0 -38 27 -38q25 -3 44 53.5t19 105.5zM533 212q0 38 -26 38q-26 2 -45 -54t-19 -105q0 -39 27 -39
q27 -3 45.5 53t17.5 107z" />
    <glyph glyph-name="at.case" horiz-adv-x="903" 
d="M69 286q-2 203 130 342t326 136q173 0 275 -96t102 -243q2 -121 -70 -210.5t-165 -87.5q-89 0 -89 73v13h-32q-41 -86 -123 -86q-69 0 -108 49t-39 127q-2 92 60.5 174t144.5 79q85 0 110 -84h34q-6 32 -6 50q0 10 3 22h81l-65 -299l-2 -14q0 -33 40 -33q54 -2 97 70.5
t41 156.5q0 113 -76.5 187t-213.5 74q-155 3 -261.5 -111.5t-103.5 -280.5q0 -136 85 -209.5t216 -73.5q145 0 253 66l30 -72q-106 -72 -283 -72q-173 0 -282 95.5t-109 257.5zM589 382q0 105 -93 105q-53 2 -92.5 -58.5t-38.5 -123.5q0 -107 76 -107q65 0 106.5 56.5
t41.5 127.5z" />
    <glyph glyph-name="registered.case" horiz-adv-x="890" 
d="M79 359q-2 102 51 192.5t144 143.5t196 51q78 1 150.5 -30t125 -83.5t83.5 -124.5t30 -149q2 -103 -50.5 -192.5t-143.5 -142t-195 -50.5q-160 -3 -277 112.5t-114 272.5zM785 359q2 129 -91.5 224.5t-223.5 92.5q-132 3 -225 -92t-91 -225q-2 -129 91 -223.5t225 -92.5
q130 -2 223.5 92.5t91.5 223.5zM321 164v403h175q60 0 98.5 -28t38.5 -76q0 -42 -29.5 -65t-78.5 -26v-33q40 -1 60 -19.5t30 -64.5l20 -91h-77l-17 92q-7 45 -26.5 60t-59.5 15h-64v-167h-70zM391 390h92q78 0 78 59q0 57 -79 57h-91v-116z" />
    <glyph glyph-name="section.tnum" 
d="M57 -39l91 23q1 -48 27 -76t75 -28t79.5 29.5t30.5 71.5q0 27 -16 44t-52 30l-101 38q-126 47 -126 144q0 57 39.5 94t113.5 45l9 41q-62 38 -62 109q0 77 60 132.5t148 55.5q91 0 142 -45.5t51 -123.5l-91 -23q-1 48 -27.5 75.5t-75.5 27.5q-48 0 -78.5 -29t-30.5 -71
q0 -27 15.5 -44t49.5 -29l103 -39q127 -48 127 -141q0 -121 -159 -144l-9 -41q69 -40 69 -111q0 -77 -60 -131t-149 -54q-90 0 -140.5 46.5t-52.5 123.5zM458 247q0 48 -62 71l-76 27l-32 15l-12 5q-111 -43 -111 -104q0 -50 62 -73l68 -26q9 -3 44 -17q63 20 91 44t28 58z
" />
    <glyph glyph-name="degree.tnum" 
d="M211 605q0 71 49 119.5t123 48.5q73 0 122 -48.5t49 -119.5q0 -72 -49 -119.5t-123 -47.5t-122.5 48t-48.5 119zM469 606q0 41 -24 66t-62 25t-62 -25.5t-24 -65.5q0 -42 24 -68.5t62 -26.5t62 26t24 69z" />
    <glyph glyph-name="_642" horiz-adv-x="0" 
d="M-95 472l92 118h-54l24 111h109l-25 -116l-88 -113h-58z" />
    <glyph glyph-name="_647" horiz-adv-x="277" 
d="M136 799l80 137h127l-140 -137h-67zM30 652q0 55 36.5 91t91.5 36q46 0 77.5 -31t31.5 -73q0 -54 -37 -89.5t-90 -35.5q-47 0 -78.5 30t-31.5 72zM203 669q0 24 -14 38t-36 14q-26 0 -43 -18t-17 -44q0 -24 13.5 -37.5t37.5 -13.5t41.5 18t17.5 43z" />
    <glyph glyph-name="uni0327.ss04" horiz-adv-x="0" 
d="M-281 -170l41 48q30 -34 67 -34q20 0 32.5 9.5t12.5 22.5q0 12 -11 21t-29 9q-16 0 -28 -5l-23 41l89 76l49 -18l-31 -23q-25 -19 -58 -27l8 -27q28 11 47 11q28 0 46.5 -16.5t18.5 -43.5q0 -42 -33 -66t-88 -24q-76 0 -110 46z" />
    <glyph glyph-name="cedilla.ss04" horiz-adv-x="357" 
d="M24 -170l41 48q29 -32 68 -32q51 0 51 32q0 28 -42 28q-20 0 -33 -5l-23 41l89 76l47 -18l-33 -26l-30 -24q3 1 11 1q34 0 59.5 -21.5t25.5 -53.5q0 -43 -32.5 -67.5t-89.5 -24.5q-72 0 -109 46z" />
    <glyph glyph-name="_670" horiz-adv-x="0" 
d="M-333 566l24 103h110l-24 -103h-110zM-119 566l24 103h110l-24 -103h-110z" />
    <glyph glyph-name="_671" horiz-adv-x="0" 
d="M-107 566l24 112h98l-24 -112h-98z" />
    <glyph glyph-name="_672" horiz-adv-x="0" 
d="M-72 566l-87 142h127l21 -142h-61z" />
    <glyph glyph-name="_673" horiz-adv-x="0" 
d="M-104 566l87 142h141l-155 -142h-73z" />
    <glyph glyph-name="_674" horiz-adv-x="0" 
d="M-370 566l87 142h140l-155 -142h-72zM-191 566l87 142h140l-155 -142h-72z" />
    <glyph glyph-name="_675" horiz-adv-x="0" 
d="M-403 566l147 123h146l88 -123h-98l-71 73l-107 -73h-105z" />
    <glyph glyph-name="_676" horiz-adv-x="0" 
d="M-21 689l-147 -123h-146l-88 123h98l71 -73l107 73h105z" />
    <glyph glyph-name="_677" horiz-adv-x="0" 
d="M-319 667q0 8 2 22h79v-8q0 -27 17 -42.5t50 -15.5q69 0 94 66h88q-15 -57 -60.5 -95.5t-122.5 -38.5q-72 0 -109.5 32t-37.5 80z" />
    <glyph glyph-name="_678" horiz-adv-x="0" 
d="M-168 661q0 57 38 94.5t97 37.5q49 0 81.5 -31.5t32.5 -76.5q0 -58 -38.5 -95t-95.5 -37q-50 0 -82.5 31t-32.5 77zM14 679q0 24 -15 39t-38 15q-26 0 -44.5 -19t-18.5 -47q0 -25 14 -39t39 -14q26 0 44.5 19t18.5 46z" />
    <glyph glyph-name="_679" horiz-adv-x="277" 
d="M147 789l80 137h127l-140 -137h-67zM41 642q0 55 36.5 91t91.5 36q46 0 77.5 -31t31.5 -73q0 -54 -37 -89.5t-90 -35.5q-47 0 -78.5 30t-31.5 72zM214 659q0 24 -14 38t-36 14q-26 0 -43 -18t-17 -44q0 -24 13.5 -37.5t37.5 -13.5t41.5 18t17.5 43z" />
    <glyph glyph-name="_680" horiz-adv-x="0" 
d="M-181 583l-27 18q-29 17 -46 17q-42 0 -55 -52h-85q29 124 137 124q43 0 82 -24l28 -18q29 -17 43 -17q38 0 55 46h86q-28 -121 -135 -121q-40 0 -83 27z" />
    </font>
</defs>
</svg>
