<?xml version="1.0" standalone="no"?>
<!DOCTYPE svg PUBLIC "-//W3C//DTD SVG 1.1//EN" "http://www.w3.org/Graphics/SVG/1.1/DTD/svg11.dtd" >
<svg xmlns="http://www.w3.org/2000/svg" xmlns:xlink="http://www.w3.org/1999/xlink" version="1.1">
<metadata>
Created by FontForge 20170731 at Tue Mar 12 05:30:59 2019
 By Aleksey,,,
Copyright 2019 Dinamo (Johannes Breyer, Fabian Harb) &#38; Erkin Karamemet. All rights reserved.
</metadata>
<defs>
<font id="WhyteInktrap-Bold" horiz-adv-x="620" >
  <font-face 
    font-family="Whyte Inktrap"
    font-weight="700"
    font-stretch="normal"
    units-per-em="1000"
    panose-1="2 11 0 4 5 1 1 2 1 3"
    ascent="800"
    descent="-200"
    x-height="500"
    cap-height="700"
    bbox="-456 -335 1243 1136"
    underline-thickness="24"
    underline-position="-97"
    unicode-range="U+000D-FB02"
  />
<missing-glyph horiz-adv-x="706" 
d="M87 0v705h532v-705h-532zM207 100h292v505h-292v-505z" />
    <glyph glyph-name="fi" unicode="fi" horiz-adv-x="660" 
d="M446 702h151v-134h-151v134zM593 500v-500h-142v392h-195v-392h-142v392h-97v108h97v69q0 60 33 95.5t92 35.5h154v-113h-93q-23 0 -33.5 -10.5t-10.5 -33.5v-43h337z" />
    <glyph glyph-name="fl" unicode="fl" horiz-adv-x="662" 
d="M593 700v-700h-142v587h-151q-23 0 -33.5 -10.5t-10.5 -33.5v-43h116v-108h-116v-392h-142v392h-97v108h97v69q0 60 33 95.5t92 35.5h354z" />
    <glyph glyph-name="f_f" unicode="ff" horiz-adv-x="724" 
d="M593 543v-43h116v-108h-116v-392h-142v392h-195v-392h-142v392h-97v108h97v69q0 60 33 95.5t92 35.5h154v-113h-93q-23 0 -33.5 -10.5t-10.5 -33.5v-43h195v69q0 60 33 95.5t92 35.5h154v-113h-93q-23 0 -33.5 -10.5t-10.5 -33.5z" />
    <glyph glyph-name="f_f_i" unicode="ffi" horiz-adv-x="993" 
d="M779 702h151v-134h-151v134zM926 500v-500h-142v392h-191v-392h-142v392h-195v-392h-142v392h-97v108h97v69q0 60 33 95.5t92 35.5h154v-113h-93q-23 0 -33.5 -10.5t-10.5 -33.5v-43h195v69q0 60 33 95.5t92 35.5h154v-113h-93q-23 0 -33.5 -10.5t-10.5 -33.5v-43h333z
" />
    <glyph glyph-name="f_f_l" unicode="ffl" horiz-adv-x="999" 
d="M930 700v-700h-142v587h-151q-23 0 -33.5 -10.5t-10.5 -33.5v-43h116v-108h-116v-392h-142v392h-195v-392h-142v392h-97v108h97v69q0 60 33 95.5t92 35.5h154v-113h-93q-23 0 -33.5 -10.5t-10.5 -33.5v-43h195v69q0 60 33 95.5t92 35.5h354z" />
    <glyph glyph-name=".notdef" horiz-adv-x="706" 
d="M87 0v705h532v-705h-532zM207 100h292v505h-292v-505z" />
    <glyph glyph-name=".null" horiz-adv-x="0" 
 />
    <glyph glyph-name="nonmarkingreturn" horiz-adv-x="333" 
 />
    <glyph glyph-name="CR" unicode="&#xd;" horiz-adv-x="235" 
 />
    <glyph glyph-name="space" unicode=" " horiz-adv-x="235" 
 />
    <glyph glyph-name="exclam" unicode="!" horiz-adv-x="291" 
d="M113 251l-47 290v159h158v-159l-46 -290h-65zM62 0v157h166v-157h-166z" />
    <glyph glyph-name="quotedbl" unicode="&#x22;" horiz-adv-x="438" 
d="M89 374l-40 197v129h145v-129l-40 -197h-65zM284 374l-40 197v129h145v-129l-40 -197h-65z" />
    <glyph glyph-name="numbersign" unicode="#" horiz-adv-x="754" 
d="M115 0l9 49q7 42 22 73t50 67l-40 36q-23 -35 -43 -45.5t-54 -10.5h-26v114h142l28 133h-120v125h146l34 159h122l-8 -39q-7 -42 -22 -73t-50 -67l40 -36q24 34 48.5 45t69.5 11h18l34 159h120l-7 -39q-7 -42 -22 -73t-50 -67l40 -36q24 34 44 45t53 11h26v-125h-142
l-28 -133h120v-114h-144l-36 -169h-122l11 49q11 45 24.5 74.5t47.5 65.5l-40 36q-23 -34 -48 -45t-70 -11h-19l-36 -169h-122zM297 283h130l28 133h-130z" />
    <glyph glyph-name="dollar" unicode="$" horiz-adv-x="628" 
d="M274 -99v86q-99 11 -159.5 68.5t-81.5 142.5l126 48q9 -50 39 -88t76 -50v186l-21 4q-93 18 -140.5 68t-47.5 141q0 80 56 138.5t153 68.5v85h91v-86q84 -12 138.5 -61t75.5 -121l-120 -48q-26 85 -94 107v-172l26 -6q195 -46 195 -211q0 -86 -57 -145.5t-164 -69.5v-85
h-91zM274 435v35q0 89 45 126l-23 37q-93 -35 -93 -118q0 -63 71 -80zM447 192q0 33 -21.5 55.5t-60.5 30.5v-35q0 -27 -2 -44.5t-12.5 -41.5t-30.5 -40l23 -37q104 35 104 112z" />
    <glyph glyph-name="percent" unicode="%" horiz-adv-x="891" 
d="M130 0l511 700h123l-510 -700h-124zM514 200q0 96 46.5 153.5t125.5 57.5t126 -57.5t47 -153.5q0 -95 -47 -152t-126 -57t-125.5 57t-46.5 152zM743 200q0 119 -57 119q-26 0 -41 -31t-15 -88q0 -117 56 -117q57 0 57 117zM33 498q0 96 46.5 153.5t125.5 57.5t126 -57.5
t47 -153.5q0 -95 -47 -152t-126 -57t-125.5 57t-46.5 152zM262 498q0 119 -57 119q-26 0 -41 -31t-15 -88q0 -117 56 -117q57 0 57 117z" />
    <glyph glyph-name="ampersand" unicode="&#x26;" horiz-adv-x="709" 
d="M35 189q0 62 31.5 107.5t99.5 86.5q-33 78 -33 147q0 85 55 135.5t145 50.5q86 0 138 -45t52 -107q0 -78 -62.5 -130.5t-176.5 -49.5v-48q20 -2 45 -18.5t77 -59.5q42 -35 65 -50q40 60 58 143l124 -47q-28 -94 -69 -160q68 -32 121 -47l-41 -111q-79 18 -163 62
q-82 -64 -199 -64q-129 0 -198 54t-69 151zM272 440l27 13q56 27 76 49.5t20 51.5q0 25 -16.5 41t-45.5 16q-33 0 -55 -23t-22 -58q0 -43 16 -90zM411 116v44q-51 3 -80.5 15.5t-60.5 47.5q-33 37 -52 63q-44 -34 -44 -80q0 -47 34 -77.5t95 -30.5q65 0 108 18z" />
    <glyph glyph-name="quotesingle" unicode="'" horiz-adv-x="243" 
d="M89 374l-40 197v129h145v-129l-40 -197h-65z" />
    <glyph glyph-name="parenleft" unicode="(" horiz-adv-x="344" 
d="M40 302q0 88 15.5 166.5t47 145t87 107.5t127.5 44v-122q-85 -16 -116 -109q-31 -92 -31 -232q0 -139 31 -232t116 -109v-121q-72 7 -127 48t-87 106.5t-47.5 143t-15.5 164.5z" />
    <glyph glyph-name="parenright" unicode=")" horiz-adv-x="344" 
d="M304 303q0 -88 -15.5 -166.5t-47 -145t-87 -107.5t-127.5 -44v122q85 16 116 109q31 92 31 232q0 139 -31 231q-31 94 -116 110v121q72 -7 127 -48t87 -106.5t47.5 -143t15.5 -164.5z" />
    <glyph glyph-name="asterisk" unicode="*" horiz-adv-x="566" 
d="M215 363l-109 62l25 35q36 48 99 76l-25 47q-66 -43 -121 -43h-43v116l146 -10l-79 112l107 62l19 -34q22 -40 22 -104v-24h53q-1 14 -1 29q0 57 18 94l19 39l110 -61l-81 -113l150 10v-118h-48q-53 0 -120 44l-25 -47q39 -19 60.5 -34t38.5 -40l26 -37l-112 -58l-63 123
z" />
    <glyph glyph-name="plus" unicode="+" horiz-adv-x="598" 
d="M239 88v205h-205v120h205v205h120v-205h205v-120h-205v-205h-120z" />
    <glyph glyph-name="comma" unicode="," horiz-adv-x="290" 
d="M60 -165l96 165h-93v158h165v-158l-97 -165h-71z" />
    <glyph glyph-name="hyphen" unicode="-" horiz-adv-x="476" 
d="M60 253v130h356v-130h-356z" />
    <glyph glyph-name="period" unicode="." horiz-adv-x="283" 
d="M59 0v158h165v-158h-165z" />
    <glyph glyph-name="slash" unicode="/" horiz-adv-x="451" 
d="M23 -100l269 905h136l-269 -905h-136z" />
    <glyph glyph-name="zero" unicode="0" horiz-adv-x="672" 
d="M46 349q0 170 80 268.5t210 98.5q129 0 209.5 -98.5t80.5 -268.5q0 -171 -80 -268t-210 -97t-210 97t-80 268zM471 349q0 122 -36 181.5t-99 59.5t-99 -59.5t-36 -181.5t36 -180.5t99 -58.5q135 0 135 239z" />
    <glyph glyph-name="one" unicode="1" horiz-adv-x="442" 
d="M213 0v430q0 69 26 121h-56q-25 -71 -62 -107.5t-95 -38.5v151q152 11 206 144h123v-700h-142z" />
    <glyph glyph-name="two" unicode="2" horiz-adv-x="612" 
d="M51 0v154q153 89 227 143.5t99.5 94t28.5 91.5q0 48 -29 77.5t-74 29.5q-107 0 -112 -147l-145 23q0 102 70.5 177t191.5 73q117 0 184 -60.5t67 -159.5q0 -96 -58 -166q-31 -37 -74 -68q-50 -34 -104 -63q-37 -20 -159 -80l29 -51q40 29 82.5 43.5t111.5 14.5h175v-126
h-511z" />
    <glyph glyph-name="three" unicode="3" horiz-adv-x="606" 
d="M29 200l149 31q7 -60 38 -91.5t84 -31.5q51 0 80.5 25t29.5 70q0 40 -28.5 65.5t-78.5 25.5h-68v119h65q42 0 70 25t28 66q0 39 -28 63.5t-70 24.5q-44 0 -71 -29t-30 -79l-145 23q9 92 74 150.5t172 58.5q108 0 175 -52t67 -128q0 -69 -45 -106.5t-128 -42.5v-51
q90 -6 140 -49t50 -109q0 -90 -69.5 -142t-189.5 -52q-116 0 -186 56.5t-85 159.5z" />
    <glyph glyph-name="four" unicode="4" horiz-adv-x="641" 
d="M363 0v167h-339v125l274 408h205v-414h105v-119h-105v-167h-140zM363 286v72q0 117 51 200l-46 29l-5 -7l-208 -306l42 -32q17 16 27 24q27 20 84 20h55z" />
    <glyph glyph-name="five" unicode="5" horiz-adv-x="599" 
d="M38 169l132 45q14 -48 45.5 -77t79.5 -29q51 0 82.5 31t31.5 85q0 52 -32 84.5t-82 32.5q-73 0 -105 -60l-138 29l59 390h421v-126h-319l-11 -69q-10 -62 -23 -89.5t-44 -63.5h66q24 47 59 69t90 22q85 0 146 -60t61 -163q0 -107 -69 -171.5t-187 -64.5
q-104 0 -174.5 50.5t-88.5 134.5z" />
    <glyph glyph-name="six" unicode="6" horiz-adv-x="629" 
d="M45 323q0 183 92.5 288t250.5 105q88 0 158 -26v-138q-72 31 -148 31q-104 0 -170 -63t-75 -186h49q15 61 58 94t111 33q91 0 155.5 -63t64.5 -164q0 -112 -72.5 -181t-187.5 -69q-131 -2 -209.5 96.5t-76.5 242.5zM444 230q0 54 -33.5 88t-84.5 34q-57 0 -87.5 -32.5
t-30.5 -89.5q0 -54 33.5 -88t84.5 -34t84.5 34t33.5 88z" />
    <glyph glyph-name="seven" unicode="7" horiz-adv-x="544" 
d="M422 574l10 7l-31 46q-65 -53 -161 -53h-219v126h502v-160q-122 -87 -187 -230.5t-65 -309.5h-154q0 97 26 188t71 162.5t97 127t111 96.5z" />
    <glyph glyph-name="eight" unicode="8" horiz-adv-x="623" 
d="M46 177q0 76 55 113t137 43v51q-173 13 -173 149q0 75 65 129t181 54q115 0 182 -54t67 -129q0 -137 -172 -149v-51q88 -6 138.5 -44.5t50.5 -111.5q0 -86 -73.5 -139.5t-192.5 -53.5t-192 53.5t-73 139.5zM419 507q0 39 -30 64.5t-77 25.5t-77.5 -25.5t-30.5 -64.5
q0 -44 29.5 -69.5t78.5 -25.5q47 0 77 26t30 69zM426 206q0 44 -32 70.5t-84 26.5t-83.5 -26.5t-31.5 -70.5q0 -45 31 -71.5t84 -26.5q54 0 85 26.5t31 71.5z" />
    <glyph glyph-name="nine" unicode="9" horiz-adv-x="624" 
d="M75 11v141q79 -32 162 -32q51 0 94.5 22.5t71.5 62.5q51 67 51 149h-49q-18 -49 -60 -78t-100 -29q-86 0 -145.5 60.5t-59.5 158.5q0 112 71 181t183 69q111 0 194 -80q90 -81 90 -258q0 -188 -90.5 -291t-249.5 -103q-95 0 -163 27zM413 475q0 52 -32 84.5t-81 32.5
q-48 0 -80.5 -32.5t-32.5 -84.5t32.5 -84.5t80.5 -32.5q49 0 81 32.5t32 84.5z" />
    <glyph glyph-name="colon" unicode=":" horiz-adv-x="283" 
d="M59 352v158h165v-158h-165zM59 0v158h165v-158h-165z" />
    <glyph glyph-name="semicolon" unicode=";" horiz-adv-x="286" 
d="M61 352v158h165v-158h-165zM58 -165l96 165h-93v158h165v-158l-97 -165h-71z" />
    <glyph glyph-name="less" unicode="&#x3c;" horiz-adv-x="637" 
d="M573 625v-129l-207 -68q-72 -24 -129 -37q-50 -11 -115 -16v-48q65 -5 115 -16q57 -13 129 -37l207 -68v-132l-535 180v191z" />
    <glyph glyph-name="equal" unicode="=" horiz-adv-x="661" 
d="M63 410v120h535v-120h-535zM63 170v120h535v-120h-535z" />
    <glyph glyph-name="greater" unicode="&#x3e;" horiz-adv-x="637" 
d="M64 74v129l207 68q74 24 130 37q49 11 114 16v48q-65 5 -114 16q-56 13 -130 37l-207 68v132l535 -180v-191z" />
    <glyph glyph-name="question" unicode="?" horiz-adv-x="541" 
d="M289 422q33 26 48.5 47t15.5 49q0 36 -23.5 57t-62.5 21q-91 0 -97 -126l-140 22q5 104 67.5 163.5t173.5 59.5t171 -53.5t60 -131.5q-2 -64 -28.5 -100.5t-87.5 -80.5q-60 -44 -60 -98h-131q3 68 21 98.5t73 72.5zM179 0v157h165v-157h-165z" />
    <glyph glyph-name="at" unicode="@" horiz-adv-x="937" 
d="M36 293q-2 126 61.5 225t165 149.5t219.5 48.5q184 2 311.5 -104t124.5 -273q0 -115 -62.5 -188.5t-144.5 -73.5q-108 0 -116 104h-36q-35 -104 -134 -104q-67 0 -110.5 65t-43.5 157q0 85 43.5 144t110.5 59q58 0 86.5 -27t48.5 -75h44q-23 43 -23 91h95v-277
q0 -14 9 -23t24 -9q33 0 56 41t23 115q0 124 -83.5 196.5t-222.5 72.5q-138 0 -227 -82.5t-89 -230.5q0 -153 85 -233.5t238 -80.5q143 0 256 55l49 -101q-126 -63 -305 -63q-203 -2 -328.5 111.5t-124.5 310.5zM554 301q0 48 -21 77.5t-59 29.5q-37 0 -57.5 -29.5
t-20.5 -79.5q0 -53 20.5 -85t57.5 -32q38 0 59 33t21 86z" />
    <glyph glyph-name="A" unicode="A" horiz-adv-x="740" 
d="M566 0l-56 164h-284l-58 -164h-163l267 700h197l265 -700h-168zM270 290h197l-52 152q-18 50 -19 173h-54q-2 -78 -5 -105q-3 -34 -14 -69z" />
    <glyph glyph-name="B" unicode="B" horiz-adv-x="719" 
d="M84 0v700h345q109 0 167 -44.5t58 -114.5q0 -67 -50 -105.5t-130 -41.5v-52q91 -2 147 -41.5t56 -116.5q0 -84 -69 -134t-188 -50h-336zM236 423h160q106 0 106 76q0 40 -26.5 57.5t-79.5 17.5h-160v-151zM236 126h162q122 0 122 87q0 88 -122 88h-162v-175z" />
    <glyph glyph-name="C" unicode="C" horiz-adv-x="755" 
d="M41 351q-2 154 102.5 260.5t261.5 104.5q121 0 207.5 -59.5t115.5 -156.5l-137 -53q-50 143 -188 143q-95 0 -149 -63t-54 -176q0 -114 53.5 -177t149.5 -63q140 0 192 144l134 -54q-39 -105 -121.5 -161t-204.5 -56q-162 0 -262 103t-100 264z" />
    <glyph glyph-name="D" unicode="D" horiz-adv-x="760" 
d="M84 0v700h264q155 2 263.5 -94t106.5 -251q2 -159 -106.5 -258t-263.5 -97h-264zM236 126h105q220 0 220 226q0 103 -55 162.5t-159 59.5h-111v-448z" />
    <glyph glyph-name="E" unicode="E" horiz-adv-x="660" 
d="M84 0v700h529v-126h-377v-152h285v-124h-285v-172h377v-126h-529z" />
    <glyph glyph-name="F" unicode="F" horiz-adv-x="646" 
d="M84 0v700h538v-126h-386v-182h309v-126h-309v-266h-152z" />
    <glyph glyph-name="G" unicode="G" horiz-adv-x="796" 
d="M42 347q-3 154 106.5 263t264.5 106q131 0 215.5 -59t114.5 -155l-143 -53q-47 141 -187 141q-95 0 -154 -65.5t-59 -177.5q0 -108 59.5 -173t149.5 -65q79 0 126 37t55 88h-226v126h375v-360h-137q0 69 47 143h-62q-27 -68 -74 -112q-50 -47 -143 -47q-135 -2 -232.5 99
t-95.5 264z" />
    <glyph glyph-name="H" unicode="H" horiz-adv-x="772" 
d="M84 0v700h152v-277h300v277h152v-700h-152v297h-300v-297h-152z" />
    <glyph glyph-name="I" unicode="I" horiz-adv-x="320" 
d="M84 0v700h152v-700h-152z" />
    <glyph glyph-name="J" unicode="J" horiz-adv-x="565" 
d="M11 236l154 39q-1 -85 19.5 -125t70.5 -40q44 0 62 31.5t18 100.5v458h152v-439q0 -141 -56 -209t-171 -68q-114 0 -180 67.5t-69 184.5z" />
    <glyph glyph-name="K" unicode="K" horiz-adv-x="718" 
d="M539 0l-218 312l-85 -88v-224h-152v700h152v-108q0 -45 -10 -80t-21 -53t-30 -39l38 -37l279 317h204l-271 -280l305 -420h-191z" />
    <glyph glyph-name="L" unicode="L" horiz-adv-x="623" 
d="M84 0v700h152v-571h377v-129h-529z" />
    <glyph glyph-name="M" unicode="M" horiz-adv-x="995" 
d="M84 0v700h249l115 -341q23 -72 25 -230h54q2 157 27 230l117 341h240v-700h-152v278q0 148 73 319l-56 22l-212 -619h-135l-209 619l-56 -22q72 -169 72 -319v-278h-152z" />
    <glyph glyph-name="N" unicode="N" horiz-adv-x="845" 
d="M84 0v700h234l311 -520l45 31q-41 69 -52.5 106.5t-12.5 118.5v264h152v-700h-183l-363 608l-46 -29q37 -69 52 -118t15 -127v-334h-152z" />
    <glyph glyph-name="O" unicode="O" horiz-adv-x="832" 
d="M42 348q0 160 102.5 264t271.5 104t271.5 -104t102.5 -264q2 -159 -101 -262t-273 -102q-170 -1 -273 102t-101 262zM631 349q0 107 -58 174t-156 67q-100 0 -158 -67t-58 -174q0 -106 58 -172.5t158 -66.5q98 0 156 66.5t58 172.5z" />
    <glyph glyph-name="P" unicode="P" horiz-adv-x="675" 
d="M84 0v700h314q113 0 183 -61.5t70 -164.5t-70 -165.5t-182 -62.5h-163v-246h-152zM236 372h135q55 0 88.5 27.5t33.5 74.5q0 45 -34 72.5t-88 27.5h-135v-202z" />
    <glyph glyph-name="Q" unicode="Q" horiz-adv-x="846" 
d="M42 348q0 160 102.5 264t271.5 104t271.5 -104t102.5 -264q0 -126 -63 -218q39 -21 103 -21v-125q-76 0 -116 28t-57 89h-45q-20 -45 -78.5 -81t-135.5 -36q-163 -2 -260.5 101t-95.5 263zM535 143l-23 27q-39 45 -76.5 64t-95.5 18v122q22 3 45 3q75 0 124 -42
q51 -45 53 -124h49q20 63 20 138q0 107 -58 174t-156 67q-100 0 -158 -67t-58 -174q0 -106 58 -172.5t158 -66.5q67 0 118 33z" />
    <glyph glyph-name="R" unicode="R" horiz-adv-x="726" 
d="M84 0v700h346q111 0 175 -50t64 -134q0 -69 -34 -104q-30 -33 -71.5 -45t-110.5 -15v-52q98 -3 141 -29t58 -103l29 -168h-162l-21 155q-9 61 -39 86t-96 25h-127v-266h-152zM236 389h165q51 0 80.5 24t29.5 69q0 44 -29.5 68t-80.5 24h-165v-185z" />
    <glyph glyph-name="S" unicode="S" horiz-adv-x="685" 
d="M28 200l143 48q13 -61 58 -102t119 -41q68 0 102.5 24t34.5 66q0 69 -114 86l-87 12q-221 31 -221 210q0 91 74.5 152t202.5 61q122 0 196 -51.5t100 -135.5l-140 -49q-37 115 -156 115q-59 0 -89 -24t-30 -62q0 -62 90 -75l87 -12q117 -16 181 -71t64 -146
q0 -97 -76 -159t-219 -62q-134 0 -216 60t-104 156z" />
    <glyph glyph-name="T" unicode="T" horiz-adv-x="652" 
d="M250 0v574h-240v126h632v-126h-240v-574h-152z" />
    <glyph glyph-name="U" unicode="U" horiz-adv-x="780" 
d="M76 273v427h152v-403q0 -90 41 -136.5t121 -46.5q162 0 162 183v403h152v-427q0 -133 -87 -211t-227 -78q-143 0 -228.5 78t-85.5 211z" />
    <glyph glyph-name="V" unicode="V" horiz-adv-x="723" 
d="M254 0l-242 700h169l118 -379q34 -113 35 -212h54q1 100 37 212l118 379h167l-241 -700h-215z" />
    <glyph glyph-name="W" unicode="W" horiz-adv-x="1058" 
d="M207 0l-189 700h166l60 -277q14 -67 19 -132q4 -55 4 -151h55q0 140 22 222l89 338h198l89 -338q12 -46 17 -100q3 -36 5 -122h55q0 97 4 152q5 66 19 131l61 277h161l-192 -700h-170l-93 352q-18 71 -22 110q-4 41 -4 109h-55q0 -56 -5 -108q-4 -42 -23 -111l-97 -352
h-174z" />
    <glyph glyph-name="X" unicode="X" horiz-adv-x="717" 
d="M-7 0l274 376l-247 324h195l63 -85q32 -44 42.5 -88t10.5 -115h54q3 68 15 98.5t54 93.5l67 96h171l-236 -327l269 -373h-195l-87 132q-30 44 -41.5 87.5t-10.5 103.5h-54q-3 -58 -17.5 -94t-60.5 -99l-92 -130h-174z" />
    <glyph glyph-name="Y" unicode="Y" horiz-adv-x="676" 
d="M263 0v285l-254 415h176l79 -136q22 -37 33 -71q16 -44 17 -138h54q2 71 11 112t41 99l73 134h171l-249 -415v-285h-152z" />
    <glyph glyph-name="Z" unicode="Z" horiz-adv-x="666" 
d="M44 0v177l446 427l-38 41q-22 -21 -40 -33.5t-53 -24.5t-77 -13h-231v126h561v-172l-448 -429l39 -44q68 74 169 74h258v-129h-586z" />
    <glyph glyph-name="bracketleft" unicode="[" horiz-adv-x="363" 
d="M80 -150v905h256v-110h-126v-685h126v-110h-256z" />
    <glyph glyph-name="backslash" unicode="\" horiz-adv-x="454" 
d="M292 -100l-269 905h139l269 -905h-139z" />
    <glyph glyph-name="bracketright" unicode="]" horiz-adv-x="363" 
d="M283 755v-905h-256v110h126v685h-126v110h256z" />
    <glyph glyph-name="asciicircum" unicode="^" horiz-adv-x="569" 
d="M32 330l184 370h138l183 -370h-149l-45 100q-30 66 -35 186h-48q-5 -117 -37 -185l-46 -101h-145z" />
    <glyph glyph-name="underscore" unicode="_" horiz-adv-x="650" 
d="M45 -169v114h560v-114h-560z" />
    <glyph glyph-name="grave" unicode="`" horiz-adv-x="352" 
d="M184 566l-110 154h156l50 -154h-96z" />
    <glyph glyph-name="a" unicode="a" horiz-adv-x="574" 
d="M40 128q1 49 24 85t66.5 58t97 34.5t126.5 19.5v19q0 69 -82 69q-91 0 -110 -79l-128 28q6 63 70.5 108t166.5 45q108 0 165.5 -49t57.5 -145v-183q0 -20 5 -25t25 -5h44v-108h-59q-64 0 -85.5 22.5t-23.5 81.5h-47q-38 -120 -153 -120q-69 0 -114.5 40t-45.5 104z
M354 205v32q-86 -11 -128 -31t-42 -64q0 -54 65 -54q45 0 75 30t30 87z" />
    <glyph glyph-name="b" unicode="b" horiz-adv-x="627" 
d="M215 102h-60q43 -64 43 -102h-129v700h142v-98q-1 -79 -14 -120t-41 -85h60q49 118 168 118q91 0 148.5 -73.5t57.5 -191.5t-57.5 -192t-148.5 -74q-70 2 -105 31.5t-64 86.5zM441 250q0 158 -117 158q-56 0 -87.5 -40.5t-31.5 -117.5q0 -76 32 -117t87 -41
q117 0 117 158z" />
    <glyph glyph-name="c" unicode="c" horiz-adv-x="570" 
d="M35 251q0 117 77 190.5t192 73.5q86 0 149 -41t89 -109l-131 -49q-31 87 -112 87q-53 0 -87 -40t-34 -112t34.5 -113t87.5 -41q82 0 116 95l134 -48q-29 -73 -95 -116.5t-152 -43.5q-117 0 -192.5 74t-75.5 193z" />
    <glyph glyph-name="d" unicode="d" horiz-adv-x="627" 
d="M37 250q0 118 57.5 191.5t148.5 73.5q116 0 166 -118h60q-18 30 -27.5 50t-17.5 60t-8 95v98h142v-700h-129q0 40 43 102h-60q-27 -57 -63.5 -86.5t-105.5 -31.5q-91 0 -148.5 74t-57.5 192zM422 250q0 77 -31.5 117.5t-87.5 40.5q-117 0 -117 -158t117 -158q55 0 87 41
t32 117z" />
    <glyph glyph-name="e" unicode="e" horiz-adv-x="570" 
d="M36 251q0 115 72 189.5t181 74.5q113 0 178 -74t65 -191q0 -23 -1 -34h-353q3 -61 33 -92.5t79 -31.5q78 0 116 87l127 -49q-26 -60 -84 -104q-57 -42 -159 -42q-115 0 -184.5 72.5t-69.5 194.5zM183 316h208q-11 97 -102 97q-43 0 -71 -25t-35 -72z" />
    <glyph glyph-name="f" unicode="f" horiz-adv-x="387" 
d="M114 0v392h-97v108h97v69q0 60 33 95.5t92 35.5h154v-113h-93q-23 0 -33.5 -10.5t-10.5 -33.5v-43h116v-108h-116v-392h-142z" />
    <glyph glyph-name="g" unicode="g" horiz-adv-x="615" 
d="M26 -101q0 27 19.5 49t49.5 31v46q-57 15 -57 67q0 67 82 94v45q-57 42 -57 104q0 78 59.5 129t148.5 51q67 0 116 -27t67 -78h43q6 52 23.5 71t55.5 19h26v-108h-55q-24 0 -32.5 -10t-12.5 -48l-1 -9q-9 -80 -68.5 -127t-147.5 -47q-64 0 -104 17q-38 -11 -38 -35
q0 -15 10.5 -18.5t39.5 -3.5h215q77 0 125.5 -44t48.5 -107q0 -73 -48.5 -114t-125.5 -41h-257q-63 0 -94 25.5t-31 68.5zM372 329q0 39 -24.5 64.5t-63.5 25.5t-63.5 -25.5t-24.5 -64.5q0 -38 24 -61.5t64 -23.5t64 23.5t24 61.5zM185 -92h195q62 0 62 47q0 45 -62 45h-219
q-26 -16 -26 -45q0 -22 14 -34.5t36 -12.5z" />
    <glyph glyph-name="h" unicode="h" horiz-adv-x="597" 
d="M69 0v700h142v-106q0 -120 -63 -209h62q20 60 59 95t94 35q81 0 125.5 -49.5t44.5 -134.5v-331h-142v304q0 94 -80 94q-45 0 -67 -27q-33 -40 -33 -134v-237h-142z" />
    <glyph glyph-name="i" unicode="i" horiz-adv-x="277" 
d="M63 568v134h151v-134h-151zM68 0v500h142v-500h-142z" />
    <glyph glyph-name="j" unicode="j" horiz-adv-x="286" 
d="M72 569v131h148v-131h-148zM-37 -195v113h70q24 0 34 10.5t10 33.5v538h140v-564q0 -61 -33.5 -96t-92.5 -35h-128z" />
    <glyph glyph-name="k" unicode="k" horiz-adv-x="606" 
d="M440 0l-156 208l-73 -71v-137h-142v700h142v-221q0 -69 -16.5 -105t-55.5 -69l38 -41l235 236h174l-204 -198l237 -302h-179z" />
    <glyph glyph-name="l" unicode="l" horiz-adv-x="280" 
d="M69 0v700h142v-700h-142z" />
    <glyph glyph-name="m" unicode="m" horiz-adv-x="897" 
d="M69 0v500h122q0 -49 -40 -104h63q13 56 47 87.5t87 31.5q49 0 85.5 -31t46.5 -88h47q18 57 56 88t87 31q72 0 117.5 -49.5t45.5 -140.5v-325h-142v304q0 94 -78 94q-30 -1 -50 -13t-28.5 -34.5t-11 -43.5t-2.5 -52v-255h-140v304q0 94 -78 94q-30 -1 -50 -13t-28.5 -34.5
t-11 -43.5t-2.5 -52v-255h-142z" />
    <glyph glyph-name="n" unicode="n" horiz-adv-x="597" 
d="M69 0v500h128q-1 -45 -49 -115h62q20 60 59 95t94 35q81 0 125.5 -49.5t44.5 -134.5v-331h-142v304q0 94 -80 94q-45 0 -67 -27q-33 -40 -33 -134v-237h-142z" />
    <glyph glyph-name="o" unicode="o" horiz-adv-x="596" 
d="M35 250q0 118 74 191.5t189 73.5q116 0 189.5 -73.5t73.5 -191.5q0 -120 -73 -193t-190 -73q-113 0 -188 75.5t-75 190.5zM413 248q0 74 -30.5 114.5t-84.5 40.5t-84.5 -40.5t-30.5 -114.5t30.5 -112.5t84.5 -38.5t84.5 38.5t30.5 112.5z" />
    <glyph glyph-name="p" unicode="p" horiz-adv-x="627" 
d="M69 -195v695h129q0 -40 -42 -102h60q30 58 64.5 87t103.5 31q91 0 148.5 -74t57.5 -192t-57.5 -191.5t-148.5 -73.5q-116 0 -166 118h-60q19 -31 28 -50.5t17 -59.5t8 -95v-93h-142zM441 250q0 158 -117 158q-55 0 -87 -41t-32 -117q0 -77 31.5 -117.5t87.5 -40.5
q117 0 117 158z" />
    <glyph glyph-name="q" unicode="q" horiz-adv-x="627" 
d="M416 -195v93q1 79 13.5 119.5t39.5 85.5h-60q-24 -57 -63 -88t-103 -31q-91 0 -148.5 74t-57.5 192t57.5 192t148.5 74q69 -2 105.5 -31.5t63.5 -86.5h60q-43 62 -43 102h129v-695h-142zM422 250q0 76 -32 117t-87 41q-117 0 -117 -158q0 -159 117 -159q56 0 87.5 41
t31.5 118z" />
    <glyph glyph-name="r" unicode="r" horiz-adv-x="430" 
d="M69 0v500h128q0 -80 -43 -152h60q19 85 56 123.5t113 38.5q25 0 30 -1v-146q-29 3 -55 3q-80 0 -113.5 -38t-33.5 -136v-192h-142z" />
    <glyph glyph-name="s" unicode="s" horiz-adv-x="525" 
d="M27 129l129 41q6 -27 29 -56q22 -28 85 -28q35 0 55.5 14t20.5 36q0 21 -14 33.5t-48 19.5l-71 14q-87 17 -126.5 51t-39.5 103q0 72 58 115t157 43q82 0 136.5 -34t74.5 -81l-117 -53q-26 70 -101 70q-34 0 -52.5 -13t-18.5 -35q0 -21 14.5 -31.5t54.5 -17.5l69 -13
q172 -33 172 -156q0 -76 -62 -120.5t-170 -44.5q-89 0 -154.5 39t-80.5 104z" />
    <glyph glyph-name="t" unicode="t" horiz-adv-x="436" 
d="M120 131v261h-105v108h105v157h142v-157h130v-108h-130v-235q0 -23 10.5 -33.5t33.5 -10.5h108v-113h-167q-59 0 -93 36t-34 95z" />
    <glyph glyph-name="u" unicode="u" horiz-adv-x="591" 
d="M63 163v337h142v-304q0 -94 75 -94q50 0 75 40t25 111v247h142v-500h-132q1 47 48 115h-61q-21 -60 -61.5 -95.5t-96.5 -35.5q-71 0 -113.5 48.5t-42.5 130.5z" />
    <glyph glyph-name="v" unicode="v" horiz-adv-x="565" 
d="M200 0l-192 500h149l69 -205q21 -63 25 -99q7 -45 8 -110h53q1 74 6 115q6 39 23 94l66 205h145l-182 -500h-170z" />
    <glyph glyph-name="w" unicode="w" horiz-adv-x="862" 
d="M171 0l-160 500h146l37 -148q13 -49 18 -86q7 -38 8 -70q2 -27 4 -101h53q2 98 5 132q4 45 18 98l46 175h169l46 -174q13 -52 18 -101q6 -59 7 -130h52l3 102q6 78 31 172l34 131h145l-160 -500h-171l-42 161q-16 63 -20 108q-3 36 -5 130q-1 3 -1 15h-55
q0 -17 -0.5 -51.5t-1.5 -47.5q-2 -76 -22 -152l-43 -163h-159z" />
    <glyph glyph-name="x" unicode="x" horiz-adv-x="556" 
d="M5 0l191 260l-183 240h172l29 -41q36 -51 34 -157h53q0 82 54 157l30 41h155l-183 -242l197 -258h-174l-38 55q-38 53 -36 157h-53q0 -73 -55 -153l-40 -59h-153z" />
    <glyph glyph-name="y" unicode="y" horiz-adv-x="560" 
d="M400 500h148l-209 -580q-23 -61 -58 -88t-99 -27h-149v113h130q27 0 40 11t25 45l9 26l-242 500h154l83 -192q32 -70 33 -186h53q2 83 4 112q5 38 19 83z" />
    <glyph glyph-name="z" unicode="z" horiz-adv-x="499" 
d="M39 0v140l281 271l-36 38q-31 -31 -60 -46.5t-77 -15.5h-96v113h402v-122l-299 -289l36 -37q69 61 145 61h131v-113h-427z" />
    <glyph glyph-name="braceleft" unicode="{" horiz-adv-x="372" 
d="M116 -6v163q0 51 -20.5 69.5t-67.5 18.5v114q48 0 68 15.5t20 63.5v173q0 77 33 110.5t114 33.5h81v-106h-35q-34 0 -48.5 -14t-14.5 -50v-146q0 -60 -29.5 -84t-100.5 -27v-49q72 -5 101 -29t29 -84v-145q0 -36 14.5 -50.5t48.5 -14.5h35v-106h-81q-81 0 -114 33.5
t-33 110.5z" />
    <glyph glyph-name="bar" unicode="|" horiz-adv-x="290" 
d="M80 -100v905h130v-905h-130z" />
    <glyph glyph-name="braceright" unicode="}" horiz-adv-x="372" 
d="M256 611v-163q0 -51 20.5 -69.5t67.5 -18.5v-114q-48 0 -68 -15.5t-20 -63.5v-173q0 -77 -32.5 -110.5t-114.5 -33.5h-81v106h35q34 0 48.5 14t14.5 50v146q0 60 29.5 84t100.5 27v49q-72 5 -101 29t-29 84v145q0 36 -14.5 50.5t-48.5 14.5h-35v106h81q82 0 114.5 -33.5
t32.5 -110.5z" />
    <glyph glyph-name="asciitilde" unicode="~" horiz-adv-x="635" 
d="M308 290l-43 24q-27 15 -53 15q-49 0 -85 -55l-84 72q27 51 73 79.5t101 28.5q54 0 109 -29l40 -22q35 -18 59 -18q45 0 85 58l84 -75q-27 -51 -73.5 -79.5t-101.5 -28.5t-111 30z" />
    <glyph glyph-name="uni00A0" unicode="&#xa0;" horiz-adv-x="235" 
 />
    <glyph glyph-name="exclamdown" unicode="&#xa1;" horiz-adv-x="290" 
d="M228 589v-157h-166v157h166zM177 338l47 -290v-159h-158v159l46 290h65z" />
    <glyph glyph-name="cent" unicode="&#xa2;" horiz-adv-x="585" 
d="M259 -119v107q-97 15 -158 86.5t-61 175.5t60.5 174t158.5 87v118h85v-116q73 -9 126 -48.5t77 -100.5l-131 -49q-24 64 -72 81v-163q0 -54 -6 -78t-32 -48l32 -32q59 31 83 117l134 -48q-26 -66 -81.5 -107.5t-129.5 -50.5v-105h-85zM259 106v154q0 52 7.5 82t30.5 52
l-32 33q-82 -58 -82 -173q0 -114 76 -148z" />
    <glyph glyph-name="sterling" unicode="&#xa3;" horiz-adv-x="590" 
d="M370 126h181v-126h-498v131q48 17 86 42q40 27 40 73q0 27 -10 48h-114v89h55q-38 58 -38 117q0 98 70 157t169 59q85 0 152.5 -52t81.5 -146l-144 -35q-6 54 -32 81.5t-64 27.5q-40 0 -64.5 -24t-24.5 -66q0 -46 47 -119h148v-89h-110q1 -10 1 -23q-2 -57 -33.5 -87.5
t-113.5 -68.5l27 -50q77 61 188 61z" />
    <glyph glyph-name="currency" unicode="&#xa4;" horiz-adv-x="654" 
d="M143 72l-97 97l77 76q-28 48 -28 107q0 58 27 108l-76 77l97 96l79 -79q50 25 106 25q59 0 104 -25l79 79l97 -96l-76 -77q28 -48 28 -108q0 -56 -28 -108l76 -75l-97 -97l-78 79q-49 -25 -105 -25q-57 0 -106 25zM430 352q0 45 -28.5 76t-73.5 31t-74 -31.5t-29 -75.5
t29 -75t74 -31t73.5 31t28.5 75z" />
    <glyph glyph-name="yen" unicode="&#xa5;" horiz-adv-x="710" 
d="M682 700l-193 -300h119v-89h-175v-71h175v-89h-175v-151h-152v151h-177v89h177v71h-177v89h119l-196 300h175l80 -136q31 -55 39.5 -94t10.5 -115h54q2 56 4 79q8 66 45 133l76 133h171z" />
    <glyph glyph-name="brokenbar" unicode="&#xa6;" horiz-adv-x="290" 
d="M80 425v380h130v-380h-130zM80 -100v380h130v-380h-130z" />
    <glyph glyph-name="section" unicode="&#xa7;" horiz-adv-x="659" 
d="M84 -33l141 37q19 -87 106 -87q41 0 64 19t23 46q0 50 -66 69l-174 54q-76 24 -110 54t-34 77q0 52 38.5 86t112.5 42v50q-92 36 -92 122q0 74 65.5 127t168.5 53q104 0 166 -48t76 -125l-141 -37q-23 86 -103 86q-37 0 -59.5 -20.5t-22.5 -47.5q0 -25 13 -40t53 -28
l174 -54q72 -23 108 -54t36 -77q0 -50 -38 -82t-113 -39v-50q92 -40 92 -130q0 -78 -64.5 -128t-174.5 -50q-105 0 -168.5 48.5t-76.5 126.5zM473 228q0 43 -58 62l-116 38l-42 13q-69 -25 -69 -62q0 -43 58 -62l116 -38q25 -9 42 -13q69 25 69 62z" />
    <glyph glyph-name="dieresis" unicode="&#xa8;" horiz-adv-x="492" 
d="M98 575v120h132v-120h-132zM318 575v120h132v-120h-132z" />
    <glyph glyph-name="copyright" unicode="&#xa9;" horiz-adv-x="875" 
d="M40 356q-3 161 116 279t281 115q162 3 282 -115t117 -279q2 -105 -52.5 -197.5t-147.5 -146t-199 -51.5q-106 -2 -198.5 51.5t-146.5 145.5t-52 198zM738 356q2 123 -87 213.5t-213 87.5q-125 3 -214 -87.5t-86 -213.5q-3 -123 86 -213t214 -88q124 -2 213 88t87 213z
M230 357q0 96 58 156.5t151 60.5q67 0 119.5 -37t70.5 -94l-97 -34q-24 90 -99 90q-46 0 -75 -38.5t-29 -103.5t28.5 -102.5t75.5 -37.5q79 0 100 88l96 -35q-20 -57 -72 -93t-118 -36q-96 0 -152.5 58.5t-56.5 157.5z" />
    <glyph glyph-name="ordfeminine" unicode="&#xaa;" horiz-adv-x="514" 
d="M38 500q0 92 46 151t119 59q92 0 130 -102h43q-3 8 -6 15t-5 12.5t-3.5 11t-2.5 8.5t-2 8t-1.5 7t-0.5 7v6.5v8v8.5h94v-401h-94q0 44 21 92h-43q-38 -102 -130 -102q-73 0 -119 59.5t-46 151.5zM329 500q0 60 -22 91.5t-61 31.5q-40 0 -62 -31.5t-22 -91.5
q0 -61 22 -92.5t62 -31.5q83 0 83 124z" />
    <glyph glyph-name="guillemotleft" unicode="&#xab;" horiz-adv-x="596" 
d="M323 490l-145 -238l144 -239h-150l-141 239l142 238h150zM568 490l-145 -238l144 -239h-150l-141 240l142 237h150z" />
    <glyph glyph-name="logicalnot" unicode="&#xac;" horiz-adv-x="652" 
d="M464 154v144h-410v120h530v-264h-120z" />
    <glyph glyph-name="uni00AD" unicode="&#xad;" horiz-adv-x="476" 
d="M60 253v130h356v-130h-356z" />
    <glyph glyph-name="registered" unicode="&#xae;" horiz-adv-x="563" 
d="M37 508q0 102 69 172t175 70t175.5 -70t69.5 -172q0 -103 -70 -173.5t-175 -70.5q-106 0 -175 70.5t-69 173.5zM457 508q0 78 -48.5 128t-127.5 50t-126.5 -50t-47.5 -128q0 -79 47.5 -130t126.5 -51t127.5 51t48.5 130zM191 393v228h121q31 0 52 -15t21 -39
q0 -25 -18 -39t-49 -14v-22q28 -2 39.5 -10.5t15.5 -35.5l8 -53h-64l-6 51q-3 22 -11 29.5t-26 7.5h-22v-88h-61zM252 526h38q34 0 34 25q0 24 -34 24h-38v-49z" />
    <glyph glyph-name="macron" unicode="&#xaf;" horiz-adv-x="330" 
d="M23 579v96h316v-96h-316z" />
    <glyph glyph-name="degree" unicode="&#xb0;" horiz-adv-x="445" 
d="M32 604q0 79 54 133t136 54q81 0 135.5 -54t54.5 -133q0 -81 -53.5 -133.5t-137.5 -52.5q-83 0 -136 53t-53 133zM297 605q0 35 -21 57t-54 22q-32 0 -54 -22.5t-22 -56.5q0 -36 21.5 -59t54.5 -23t54 22.5t21 59.5z" />
    <glyph glyph-name="plusminus" unicode="&#xb1;" horiz-adv-x="664" 
d="M277 254v123h-205v110h205v131h120v-131h205v-110h-205v-123h-120zM60 88v120h535v-120h-535z" />
    <glyph glyph-name="twosuperior" unicode="&#xb2;" horiz-adv-x="400" 
d="M47 389v101q116 65 153.5 99t37.5 73q0 21 -11 33.5t-30 12.5q-49 0 -47 -76l-108 11q0 69 44.5 113t114.5 44q68 0 110.5 -35t42.5 -89q0 -59 -43 -102q-23 -24 -63 -46q-36 -19 -115 -55l21 -40q45 30 65 38t61 10h74v-92h-307z" />
    <glyph glyph-name="threesuperior" unicode="&#xb3;" horiz-adv-x="396" 
d="M33 508l109 22q8 -59 55 -59q45 0 45 39q0 38 -52 38h-26v88h26q45 0 45 37q0 16 -10 26t-27 10q-19 0 -30 -15t-11 -42l-110 15q3 59 45 96t106 37q69 0 108 -27.5t39 -71.5q0 -79 -109 -84v-41q118 -5 118 -89q0 -47 -42.5 -77t-113.5 -30q-70 0 -114.5 34.5
t-50.5 93.5z" />
    <glyph glyph-name="acute" unicode="&#xb4;" horiz-adv-x="352" 
d="M81 566l50 154h155l-110 -154h-95z" />
    <glyph glyph-name="mu" unicode="&#xb5;" horiz-adv-x="619" 
d="M80 -195v695h142v-304q0 -94 75 -94q50 0 75 40.5t25 110.5v247h142v-500h-132q1 47 48 115h-61q-19 -60 -60.5 -95.5t-97.5 -35.5h-14v-179h-142z" />
    <glyph glyph-name="paragraph" unicode="&#xb6;" horiz-adv-x="762" 
d="M301 700h419v-109h-87v-785h-130v785h-80v-785h-130v412h-24q-104 0 -172.5 68t-68.5 169q0 114 76.5 179.5t196.5 65.5z" />
    <glyph glyph-name="periodcentered" unicode="&#xb7;" horiz-adv-x="283" 
d="M59 281v158h165v-158h-165z" />
    <glyph glyph-name="cedilla" unicode="&#xb8;" horiz-adv-x="397" 
d="M302 -139q0 -40 -33.5 -68t-99.5 -28q-37 0 -71.5 15.5t-53.5 36.5l49 65q35 -34 75 -34q38 0 38 22t-35 22q-15 0 -27 -3l-37 48l65 63h90l-31 -27l-12 -10l-14 -13h3q36 0 65 -23t29 -66z" />
    <glyph glyph-name="onesuperior" unicode="&#xb9;" horiz-adv-x="308" 
d="M134 389v196q0 52 28 108h-46q-11 -45 -30 -64t-53 -21v105q89 -2 116 78h94v-402h-109z" />
    <glyph glyph-name="ordmasculine" unicode="&#xba;" horiz-adv-x="489" 
d="M36 501q0 94 55.5 151.5t153.5 57.5q97 0 152.5 -57.5t55.5 -151.5q0 -92 -56.5 -152t-151.5 -60q-97 0 -153 59.5t-56 152.5zM329 501q0 61 -22.5 93t-61.5 32q-40 0 -62.5 -32t-22.5 -93q0 -60 23 -94t62 -34q38 0 61 34t23 94z" />
    <glyph glyph-name="guillemotright" unicode="&#xbb;" horiz-adv-x="594" 
d="M179 490l141 -240l-142 -237h-150l145 238l-144 239h150zM424 490l141 -239l-142 -238h-150l145 238l-144 239h150z" />
    <glyph glyph-name="onequarter" unicode="&#xbc;" horiz-adv-x="911" 
d="M132 298v196q0 52 28 108h-46q-11 -45 -30 -64t-53 -21v105q89 -2 116 78h94v-402h-109zM103 0l511 700h123l-510 -700h-124zM722 0v90h-188v96l156 216h134v-224h56v-88h-56v-90h-102zM722 178v26q0 41 51 92l-32 26l-123 -169l31 -21q16 26 29 36t31 10h13z" />
    <glyph glyph-name="onehalf" unicode="&#xbd;" horiz-adv-x="894" 
d="M132 298v196q0 52 28 108h-46q-11 -45 -30 -64t-53 -21v105q89 -2 116 78h94v-402h-109zM103 0l511 700h123l-510 -700h-124zM547 0v101q116 65 153.5 99t37.5 73q0 21 -11 33.5t-30 12.5q-49 0 -47 -76l-108 11q0 69 44.5 113t114.5 44q68 0 110.5 -35t42.5 -89
q0 -59 -43 -102q-23 -24 -63 -46q-36 -19 -115 -55l21 -40q45 30 65 38t61 10h74v-92h-307z" />
    <glyph glyph-name="threequarters" unicode="&#xbe;" horiz-adv-x="999" 
d="M32 417l109 22q8 -59 55 -59q45 0 45 39q0 38 -52 38h-26v88h26q45 0 45 37q0 16 -10 26t-27 10q-19 0 -30 -15t-11 -42l-110 15q3 59 45 96t106 37q69 0 108 -27.5t39 -71.5q0 -79 -109 -84v-41q118 -5 118 -89q0 -47 -42.5 -77t-113.5 -30q-70 0 -114.5 34.5
t-50.5 93.5zM191 0l511 700h123l-510 -700h-124zM810 0v90h-188v96l156 216h134v-224h56v-88h-56v-90h-102zM810 178v26q0 41 51 92l-32 26l-123 -169l31 -21q16 26 29 36t31 10h13z" />
    <glyph glyph-name="questiondown" unicode="&#xbf;" horiz-adv-x="541" 
d="M363 590v-157h-165v157h165zM253 168q-33 -26 -48.5 -47t-15.5 -49q0 -36 23.5 -57t62.5 -21q91 0 97 126l140 -22q-5 -104 -67.5 -163.5t-173.5 -59.5t-171 53.5t-60 131.5q2 63 28 99t88 82q60 44 60 98h131q-3 -69 -21.5 -100.5t-72.5 -70.5z" />
    <glyph glyph-name="Agrave" unicode="&#xc0;" horiz-adv-x="740" 
d="M566 0l-56 164h-284l-58 -164h-163l267 700h197l265 -700h-168zM270 290h197l-52 152q-18 50 -19 173h-54q-2 -78 -5 -105q-3 -34 -14 -69zM321 766l-121 154h172l55 -154h-106z" />
    <glyph glyph-name="Aacute" unicode="&#xc1;" horiz-adv-x="740" 
d="M566 0l-56 164h-284l-58 -164h-163l267 700h197l265 -700h-168zM270 290h197l-52 152q-18 50 -19 173h-54q-2 -78 -5 -105q-3 -34 -14 -69zM319 766l55 154h171l-122 -154h-104z" />
    <glyph glyph-name="Acircumflex" unicode="&#xc2;" horiz-adv-x="740" 
d="M566 0l-56 164h-284l-58 -164h-163l267 700h197l265 -700h-168zM270 290h197l-52 152q-18 50 -19 173h-54q-2 -78 -5 -105q-3 -34 -14 -69zM154 766l121 129h189l121 -129h-134l-81 71l-82 -71h-134z" />
    <glyph glyph-name="Atilde" unicode="&#xc3;" horiz-adv-x="740" 
d="M566 0l-56 164h-284l-58 -164h-163l267 700h197l265 -700h-168zM270 290h197l-52 152q-18 50 -19 173h-54q-2 -78 -5 -105q-3 -34 -14 -69zM370 782l-28 15q-36 18 -53 18q-42 0 -42 -49h-113q0 66 39.5 102.5t106.5 36.5q41 0 95 -26l27 -15q34 -18 54 -18q40 0 42 49
h108q0 -139 -141 -139q-45 0 -95 26z" />
    <glyph glyph-name="Adieresis" unicode="&#xc4;" horiz-adv-x="740" 
d="M566 0l-56 164h-284l-58 -164h-163l267 700h197l265 -700h-168zM270 290h197l-52 152q-18 50 -19 173h-54q-2 -78 -5 -105q-3 -34 -14 -69zM178 766v120h145v-120h-145zM420 766v120h145v-120h-145z" />
    <glyph glyph-name="Aring" unicode="&#xc5;" horiz-adv-x="740" 
d="M566 0l-56 164h-284l-58 -164h-163l267 700h197l265 -700h-168zM270 290h197l-52 152q-18 50 -19 173h-54q-2 -78 -5 -105q-3 -34 -14 -69zM237 867q0 55 40 92t93 37q54 0 93.5 -37t39.5 -92q0 -54 -39.5 -90.5t-93.5 -36.5t-93.5 36.5t-39.5 90.5zM420 867
q0 23 -14.5 37.5t-35.5 14.5t-35.5 -14.5t-14.5 -37.5q0 -22 14.5 -36.5t35.5 -14.5t35.5 14.5t14.5 36.5z" />
    <glyph glyph-name="AE" unicode="&#xc6;" horiz-adv-x="960" 
d="M913 574h-335v-152h241v-124h-241v-172h335v-126h-486v165h-198l-77 -165h-174l362 700h573v-126zM457 615h-60q-22 -135 -65 -230l-44 -94h139v136q0 86 30 188z" />
    <glyph glyph-name="Ccedilla" unicode="&#xc7;" horiz-adv-x="755" 
d="M470 -11l-18 -16l-12 -10l-14 -13h3q36 0 65 -23t29 -66q0 -41 -33 -68.5t-100 -27.5q-37 0 -71.5 15.5t-53.5 36.5l49 65q35 -34 75 -34q38 0 38 22t-35 22q-15 0 -27 -3l-37 48l49 47q-151 9 -243.5 111.5t-92.5 255.5q-2 154 102.5 260.5t261.5 104.5
q121 0 207.5 -59.5t115.5 -156.5l-137 -53q-50 143 -188 143q-95 0 -149 -63t-54 -176q0 -114 53.5 -177t149.5 -63q140 0 192 144l134 -54q-69 -184 -259 -212z" />
    <glyph glyph-name="Egrave" unicode="&#xc8;" horiz-adv-x="660" 
d="M84 0v700h529v-126h-377v-152h285v-124h-285v-172h377v-126h-529zM299 766l-121 154h172l55 -154h-106z" />
    <glyph glyph-name="Eacute" unicode="&#xc9;" horiz-adv-x="660" 
d="M84 0v700h529v-126h-377v-152h285v-124h-285v-172h377v-126h-529zM297 766l55 154h171l-122 -154h-104z" />
    <glyph glyph-name="Ecircumflex" unicode="&#xca;" horiz-adv-x="660" 
d="M84 0v700h529v-126h-377v-152h285v-124h-285v-172h377v-126h-529zM132 766l121 129h189l121 -129h-134l-81 71l-82 -71h-134z" />
    <glyph glyph-name="Edieresis" unicode="&#xcb;" horiz-adv-x="660" 
d="M84 0v700h529v-126h-377v-152h285v-124h-285v-172h377v-126h-529zM156 766v120h145v-120h-145zM398 766v120h145v-120h-145z" />
    <glyph glyph-name="Igrave" unicode="&#xcc;" horiz-adv-x="320" 
d="M84 0v700h152v-700h-152zM111 766l-121 154h172l55 -154h-106z" />
    <glyph glyph-name="Iacute" unicode="&#xcd;" horiz-adv-x="320" 
d="M84 0v700h152v-700h-152zM109 766l55 154h171l-122 -154h-104z" />
    <glyph glyph-name="Icircumflex" unicode="&#xce;" horiz-adv-x="320" 
d="M84 0v700h152v-700h-152zM-56 766l121 129h189l121 -129h-134l-81 71l-82 -71h-134z" />
    <glyph glyph-name="Idieresis" unicode="&#xcf;" horiz-adv-x="320" 
d="M84 0v700h152v-700h-152zM-32 766v120h145v-120h-145zM210 766v120h145v-120h-145z" />
    <glyph glyph-name="Eth" unicode="&#xd0;" horiz-adv-x="773" 
d="M731 355q2 -159 -106.5 -258t-263.5 -97h-264v311h-77v104h77v285h264q155 2 263.5 -94t106.5 -251zM574 352q0 103 -54.5 162.5t-159.5 59.5h-111v-159h127v-104h-127v-185h105q220 0 220 226z" />
    <glyph glyph-name="Ntilde" unicode="&#xd1;" horiz-adv-x="845" 
d="M84 0v700h234l311 -520l45 31q-41 69 -52.5 106.5t-12.5 118.5v264h152v-700h-183l-363 608l-46 -29q37 -69 52 -118t15 -127v-334h-152zM422 782l-28 15q-36 18 -53 18q-42 0 -42 -49h-113q0 66 39.5 102.5t106.5 36.5q41 0 95 -26l27 -15q34 -18 54 -18q40 0 42 49h108
q0 -139 -141 -139q-45 0 -95 26z" />
    <glyph glyph-name="Ograve" unicode="&#xd2;" horiz-adv-x="832" 
d="M42 348q0 160 102.5 264t271.5 104t271.5 -104t102.5 -264q2 -159 -101 -262t-273 -102q-170 -1 -273 102t-101 262zM631 349q0 107 -58 174t-156 67q-100 0 -158 -67t-58 -174q0 -106 58 -172.5t158 -66.5q98 0 156 66.5t58 172.5zM366 766l-121 154h172l55 -154h-106z
" />
    <glyph glyph-name="Oacute" unicode="&#xd3;" horiz-adv-x="832" 
d="M42 348q0 160 102.5 264t271.5 104t271.5 -104t102.5 -264q2 -159 -101 -262t-273 -102q-170 -1 -273 102t-101 262zM631 349q0 107 -58 174t-156 67q-100 0 -158 -67t-58 -174q0 -106 58 -172.5t158 -66.5q98 0 156 66.5t58 172.5zM364 766l55 154h171l-122 -154h-104z
" />
    <glyph glyph-name="Ocircumflex" unicode="&#xd4;" horiz-adv-x="832" 
d="M42 348q0 160 102.5 264t271.5 104t271.5 -104t102.5 -264q2 -159 -101 -262t-273 -102q-170 -1 -273 102t-101 262zM631 349q0 107 -58 174t-156 67q-100 0 -158 -67t-58 -174q0 -106 58 -172.5t158 -66.5q98 0 156 66.5t58 172.5zM199 766l121 129h189l121 -129h-134
l-81 71l-82 -71h-134z" />
    <glyph glyph-name="Otilde" unicode="&#xd5;" horiz-adv-x="832" 
d="M42 348q0 160 102.5 264t271.5 104t271.5 -104t102.5 -264q2 -159 -101 -262t-273 -102q-170 -1 -273 102t-101 262zM631 349q0 107 -58 174t-156 67q-100 0 -158 -67t-58 -174q0 -106 58 -172.5t158 -66.5q98 0 156 66.5t58 172.5zM415 782l-28 15q-36 18 -53 18
q-42 0 -42 -49h-113q0 66 39.5 102.5t106.5 36.5q41 0 95 -26l27 -15q34 -18 54 -18q40 0 42 49h108q0 -139 -141 -139q-45 0 -95 26z" />
    <glyph glyph-name="Odieresis" unicode="&#xd6;" horiz-adv-x="832" 
d="M42 348q0 160 102.5 264t271.5 104t271.5 -104t102.5 -264q2 -159 -101 -262t-273 -102q-170 -1 -273 102t-101 262zM631 349q0 107 -58 174t-156 67q-100 0 -158 -67t-58 -174q0 -106 58 -172.5t158 -66.5q98 0 156 66.5t58 172.5zM223 766v120h145v-120h-145zM465 766
v120h145v-120h-145z" />
    <glyph glyph-name="multiply" unicode="&#xd7;" horiz-adv-x="593" 
d="M126 98l-80 80l170 170l-171 171l81 81l171 -171l170 170l80 -80l-170 -170l170 -170l-81 -81l-170 170z" />
    <glyph glyph-name="Oslash" unicode="&#xd8;" horiz-adv-x="832" 
d="M174 -67l-102 77l63 81q-93 101 -93 256q0 160 102.5 264t271.5 104q101 0 176 -37l67 86l102 -79l-64 -82q93 -104 93 -256q2 -159 -101 -263t-273 -102q-98 0 -176 35zM232 214l177 230q32 41 60.5 58.5t66.5 19.5v51q-48 16 -110 16q-107 0 -166 -65.5t-59 -170.5
q0 -82 31 -139zM631 345q0 79 -30 135l-176 -226q-55 -70 -129 -72v-55q42 -18 110 -18q107 0 166 65t59 171z" />
    <glyph glyph-name="Ugrave" unicode="&#xd9;" horiz-adv-x="780" 
d="M76 273v427h152v-403q0 -90 41 -136.5t121 -46.5q162 0 162 183v403h152v-427q0 -133 -87 -211t-227 -78q-143 0 -228.5 78t-85.5 211zM340 766l-121 154h172l55 -154h-106z" />
    <glyph glyph-name="Uacute" unicode="&#xda;" horiz-adv-x="780" 
d="M76 273v427h152v-403q0 -90 41 -136.5t121 -46.5q162 0 162 183v403h152v-427q0 -133 -87 -211t-227 -78q-143 0 -228.5 78t-85.5 211zM338 766l55 154h171l-122 -154h-104z" />
    <glyph glyph-name="Ucircumflex" unicode="&#xdb;" horiz-adv-x="780" 
d="M76 273v427h152v-403q0 -90 41 -136.5t121 -46.5q162 0 162 183v403h152v-427q0 -133 -87 -211t-227 -78q-143 0 -228.5 78t-85.5 211zM173 766l121 129h189l121 -129h-134l-81 71l-82 -71h-134z" />
    <glyph glyph-name="Udieresis" unicode="&#xdc;" horiz-adv-x="780" 
d="M76 273v427h152v-403q0 -90 41 -136.5t121 -46.5q162 0 162 183v403h152v-427q0 -133 -87 -211t-227 -78q-143 0 -228.5 78t-85.5 211zM197 766v120h145v-120h-145zM439 766v120h145v-120h-145z" />
    <glyph glyph-name="Yacute" unicode="&#xdd;" horiz-adv-x="676" 
d="M263 0v285l-254 415h176l79 -136q22 -37 33 -71q16 -44 17 -138h54q2 71 11 112t41 99l73 134h171l-249 -415v-285h-152zM287 766l55 154h171l-122 -154h-104z" />
    <glyph glyph-name="Thorn" unicode="&#xde;" horiz-adv-x="687" 
d="M651 355q0 -103 -70 -165.5t-182 -62.5h-163v-127h-152v700h152v-119h162q113 0 183 -61.5t70 -164.5zM493 355q0 45 -34 72.5t-88 27.5h-135v-202h135q55 0 88.5 27.5t33.5 74.5z" />
    <glyph glyph-name="germandbls" unicode="&#xdf;" horiz-adv-x="637" 
d="M279 -3v118q40 -8 63 -8q53 0 83 28t30 74q0 48 -35 76t-94 28h-47v103h37q51 0 81 25.5t30 68.5q0 39 -30.5 65.5t-72.5 26.5q-56 0 -85 -31t-29 -106v-465h-141v471q0 119 65 182t195 63q110 0 174 -48.5t64 -120.5q0 -64 -45 -103t-114 -45v-49q87 -3 141 -44.5
t54 -113.5q0 -91 -64 -147t-173 -56q-37 0 -87 8z" />
    <glyph glyph-name="agrave" unicode="&#xe0;" horiz-adv-x="574" 
d="M40 128q1 49 24 85t66.5 58t97 34.5t126.5 19.5v19q0 69 -82 69q-91 0 -110 -79l-128 28q6 63 70.5 108t166.5 45q108 0 165.5 -49t57.5 -145v-183q0 -20 5 -25t25 -5h44v-108h-59q-64 0 -85.5 22.5t-23.5 81.5h-47q-38 -120 -153 -120q-69 0 -114.5 40t-45.5 104z
M354 205v32q-86 -11 -128 -31t-42 -64q0 -54 65 -54q45 0 75 30t30 87zM225 566l-110 154h156l50 -154h-96z" />
    <glyph glyph-name="aacute" unicode="&#xe1;" horiz-adv-x="574" 
d="M40 128q1 49 24 85t66.5 58t97 34.5t126.5 19.5v19q0 69 -82 69q-91 0 -110 -79l-128 28q6 63 70.5 108t166.5 45q108 0 165.5 -49t57.5 -145v-183q0 -20 5 -25t25 -5h44v-108h-59q-64 0 -85.5 22.5t-23.5 81.5h-47q-38 -120 -153 -120q-69 0 -114.5 40t-45.5 104z
M354 205v32q-86 -11 -128 -31t-42 -64q0 -54 65 -54q45 0 75 30t30 87zM228 566l50 154h155l-110 -154h-95z" />
    <glyph glyph-name="acircumflex" unicode="&#xe2;" horiz-adv-x="574" 
d="M40 128q1 49 24 85t66.5 58t97 34.5t126.5 19.5v19q0 69 -82 69q-91 0 -110 -79l-128 28q6 63 70.5 108t166.5 45q108 0 165.5 -49t57.5 -145v-183q0 -20 5 -25t25 -5h44v-108h-59q-64 0 -85.5 22.5t-23.5 81.5h-47q-38 -120 -153 -120q-69 0 -114.5 40t-45.5 104z
M354 205v32q-86 -11 -128 -31t-42 -64q0 -54 65 -54q45 0 75 30t30 87zM77 566l110 129h172l110 -129h-122l-74 71l-74 -71h-122z" />
    <glyph glyph-name="atilde" unicode="&#xe3;" horiz-adv-x="574" 
d="M40 128q1 49 24 85t66.5 58t97 34.5t126.5 19.5v19q0 69 -82 69q-91 0 -110 -79l-128 28q6 63 70.5 108t166.5 45q108 0 165.5 -49t57.5 -145v-183q0 -20 5 -25t25 -5h44v-108h-59q-64 0 -85.5 22.5t-23.5 81.5h-47q-38 -120 -153 -120q-69 0 -114.5 40t-45.5 104z
M354 205v32q-86 -11 -128 -31t-42 -64q0 -54 65 -54q45 0 75 30t30 87zM273 582l-25 15q-34 18 -49 18q-36 0 -38 -49h-102q0 66 35.5 102.5t96.5 36.5q39 0 86 -26l25 -15q30 -18 49 -18q36 0 38 49h98q0 -139 -128 -139q-41 0 -86 26z" />
    <glyph glyph-name="adieresis" unicode="&#xe4;" horiz-adv-x="574" 
d="M40 128q1 49 24 85t66.5 58t97 34.5t126.5 19.5v19q0 69 -82 69q-91 0 -110 -79l-128 28q6 63 70.5 108t166.5 45q108 0 165.5 -49t57.5 -145v-183q0 -20 5 -25t25 -5h44v-108h-59q-64 0 -85.5 22.5t-23.5 81.5h-47q-38 -120 -153 -120q-69 0 -114.5 40t-45.5 104z
M354 205v32q-86 -11 -128 -31t-42 -64q0 -54 65 -54q45 0 75 30t30 87zM97 575v120h132v-120h-132zM317 575v120h132v-120h-132z" />
    <glyph glyph-name="aring" unicode="&#xe5;" horiz-adv-x="574" 
d="M40 128q1 49 24 85t66.5 58t97 34.5t126.5 19.5v19q0 69 -82 69q-91 0 -110 -79l-128 28q6 63 70.5 108t166.5 45q108 0 165.5 -49t57.5 -145v-183q0 -20 5 -25t25 -5h44v-108h-59q-64 0 -85.5 22.5t-23.5 81.5h-47q-38 -120 -153 -120q-69 0 -114.5 40t-45.5 104z
M354 205v32q-86 -11 -128 -31t-42 -64q0 -54 65 -54q45 0 75 30t30 87zM147 672q0 52 38 87.5t89 35.5q52 0 89 -35.5t37 -87.5t-37 -86.5t-89 -34.5q-51 0 -89 35t-38 86zM321 672q0 21 -13.5 35t-33.5 14q-21 0 -34.5 -13.5t-13.5 -35.5t13.5 -35.5t34.5 -13.5
q20 0 33.5 13.5t13.5 35.5z" />
    <glyph glyph-name="ae" unicode="&#xe6;" horiz-adv-x="867" 
d="M37 133q0 90 79.5 132.5t234.5 57.5v20q0 70 -85 70q-38 0 -63.5 -21t-34.5 -58l-127 28q6 61 64.5 107t141.5 46q138 0 174 -99h48q12 43 48 71.5t95 28.5q97 0 157.5 -75.5t60.5 -186.5q0 -16 -2 -38h-353q3 -61 33 -92.5t79 -31.5q78 0 116 87l127 -49
q-26 -59 -83 -104q-55 -42 -153 -42q-150 0 -188 127h-48q-31 -127 -167 -127q-68 0 -111 40t-43 109zM480 314h208q-4 48 -30.5 73.5t-71.5 25.5q-89 0 -106 -99zM351 205v32q-88 -11 -130 -31t-42 -64q0 -25 17 -39.5t49 -14.5q46 0 76 30t30 87z" />
    <glyph glyph-name="ccedilla" unicode="&#xe7;" horiz-adv-x="570" 
d="M367 -9l-20 -18l-12 -10l-14 -13h3q36 0 65 -23t29 -66q0 -41 -33 -68.5t-100 -27.5q-37 0 -71.5 15.5t-53.5 36.5l49 65q35 -34 75 -34q38 0 38 22t-35 22q-15 0 -27 -3l-37 48l50 48q-105 11 -171.5 83.5t-66.5 182.5q0 117 77 190.5t192 73.5q86 0 149 -41t89 -109
l-131 -49q-31 87 -112 87q-53 0 -87 -40t-34 -112t34.5 -113t87.5 -41q82 0 116 95l134 -48q-24 -60 -71.5 -100t-111.5 -53z" />
    <glyph glyph-name="egrave" unicode="&#xe8;" horiz-adv-x="570" 
d="M36 251q0 115 72 189.5t181 74.5q113 0 178 -74t65 -191q0 -23 -1 -34h-353q3 -61 33 -92.5t79 -31.5q78 0 116 87l127 -49q-26 -60 -84 -104q-57 -42 -159 -42q-115 0 -184.5 72.5t-69.5 194.5zM183 316h208q-11 97 -102 97q-43 0 -71 -25t-35 -72zM242 566l-110 154
h156l50 -154h-96z" />
    <glyph glyph-name="eacute" unicode="&#xe9;" horiz-adv-x="570" 
d="M36 251q0 115 72 189.5t181 74.5q113 0 178 -74t65 -191q0 -23 -1 -34h-353q3 -61 33 -92.5t79 -31.5q78 0 116 87l127 -49q-26 -60 -84 -104q-57 -42 -159 -42q-115 0 -184.5 72.5t-69.5 194.5zM183 316h208q-11 97 -102 97q-43 0 -71 -25t-35 -72zM245 566l50 154h155
l-110 -154h-95z" />
    <glyph glyph-name="ecircumflex" unicode="&#xea;" horiz-adv-x="570" 
d="M36 251q0 115 72 189.5t181 74.5q113 0 178 -74t65 -191q0 -23 -1 -34h-353q3 -61 33 -92.5t79 -31.5q78 0 116 87l127 -49q-26 -60 -84 -104q-57 -42 -159 -42q-115 0 -184.5 72.5t-69.5 194.5zM183 316h208q-11 97 -102 97q-43 0 -71 -25t-35 -72zM94 566l110 129h172
l110 -129h-122l-74 71l-74 -71h-122z" />
    <glyph glyph-name="edieresis" unicode="&#xeb;" horiz-adv-x="570" 
d="M36 251q0 115 72 189.5t181 74.5q113 0 178 -74t65 -191q0 -23 -1 -34h-353q3 -61 33 -92.5t79 -31.5q78 0 116 87l127 -49q-26 -60 -84 -104q-57 -42 -159 -42q-115 0 -184.5 72.5t-69.5 194.5zM183 316h208q-11 97 -102 97q-43 0 -71 -25t-35 -72zM114 575v120h132
v-120h-132zM334 575v120h132v-120h-132z" />
    <glyph glyph-name="igrave" unicode="&#xec;" horiz-adv-x="280" 
d="M69 0v500h142v-500h-142zM91 566l-110 154h156l50 -154h-96z" />
    <glyph glyph-name="iacute" unicode="&#xed;" horiz-adv-x="280" 
d="M69 0v500h142v-500h-142zM94 566l50 154h155l-110 -154h-95z" />
    <glyph glyph-name="icircumflex" unicode="&#xee;" horiz-adv-x="280" 
d="M69 0v500h142v-500h-142zM-57 566l110 129h172l110 -129h-122l-74 71l-74 -71h-122z" />
    <glyph glyph-name="idieresis" unicode="&#xef;" horiz-adv-x="280" 
d="M69 0v500h142v-500h-142zM-37 575v120h132v-120h-132zM183 575v120h132v-120h-132z" />
    <glyph glyph-name="eth" unicode="&#xf0;" horiz-adv-x="623" 
d="M582 328q2 -148 -76 -247t-210 -97q-115 0 -187.5 68t-72.5 179q0 98 64 161t150 63q70 0 115 -34t61 -92h47q-7 125 -82 203l-84 -60l-51 69l60 43q-46 20 -95 20q-77 0 -140 -29v115q66 26 159 26q101 0 184 -56l77 54l51 -68l-64 -45q94 -113 94 -273zM419 222
q0 57 -31.5 91t-86.5 34q-49 0 -83.5 -35.5t-34.5 -89.5q0 -57 33.5 -91t84.5 -34t84.5 34t33.5 91z" />
    <glyph glyph-name="ntilde" unicode="&#xf1;" horiz-adv-x="597" 
d="M69 0v500h128q-1 -45 -49 -115h62q20 60 59 95t94 35q81 0 125.5 -49.5t44.5 -134.5v-331h-142v304q0 94 -80 94q-45 0 -67 -27q-33 -40 -33 -134v-237h-142zM303 582l-25 15q-35 18 -49 18q-36 0 -38 -49h-102q0 66 35.5 102.5t96.5 36.5q39 0 86 -26l25 -15
q30 -18 49 -18q36 0 38 49h98q0 -139 -128 -139q-41 0 -86 26z" />
    <glyph glyph-name="ograve" unicode="&#xf2;" horiz-adv-x="596" 
d="M35 250q0 118 74 191.5t189 73.5q116 0 189.5 -73.5t73.5 -191.5q0 -120 -73 -193t-190 -73q-113 0 -188 75.5t-75 190.5zM413 248q0 74 -30.5 114.5t-84.5 40.5t-84.5 -40.5t-30.5 -114.5t30.5 -112.5t84.5 -38.5t84.5 38.5t30.5 112.5zM250 566l-110 154h156l50 -154
h-96z" />
    <glyph glyph-name="oacute" unicode="&#xf3;" horiz-adv-x="596" 
d="M35 250q0 118 74 191.5t189 73.5q116 0 189.5 -73.5t73.5 -191.5q0 -120 -73 -193t-190 -73q-113 0 -188 75.5t-75 190.5zM413 248q0 74 -30.5 114.5t-84.5 40.5t-84.5 -40.5t-30.5 -114.5t30.5 -112.5t84.5 -38.5t84.5 38.5t30.5 112.5zM253 566l50 154h155l-110 -154
h-95z" />
    <glyph glyph-name="ocircumflex" unicode="&#xf4;" horiz-adv-x="596" 
d="M35 250q0 118 74 191.5t189 73.5q116 0 189.5 -73.5t73.5 -191.5q0 -120 -73 -193t-190 -73q-113 0 -188 75.5t-75 190.5zM413 248q0 74 -30.5 114.5t-84.5 40.5t-84.5 -40.5t-30.5 -114.5t30.5 -112.5t84.5 -38.5t84.5 38.5t30.5 112.5zM102 566l110 129h172l110 -129
h-122l-74 71l-74 -71h-122z" />
    <glyph glyph-name="otilde" unicode="&#xf5;" horiz-adv-x="596" 
d="M35 250q0 118 74 191.5t189 73.5q116 0 189.5 -73.5t73.5 -191.5q0 -120 -73 -193t-190 -73q-113 0 -188 75.5t-75 190.5zM413 248q0 74 -30.5 114.5t-84.5 40.5t-84.5 -40.5t-30.5 -114.5t30.5 -112.5t84.5 -38.5t84.5 38.5t30.5 112.5zM298 582l-25 15q-35 18 -49 18
q-36 0 -38 -49h-102q0 66 35.5 102.5t96.5 36.5q39 0 86 -26l25 -15q30 -18 49 -18q36 0 38 49h98q0 -139 -128 -139q-40 0 -86 26z" />
    <glyph glyph-name="odieresis" unicode="&#xf6;" horiz-adv-x="596" 
d="M35 250q0 118 74 191.5t189 73.5q116 0 189.5 -73.5t73.5 -191.5q0 -120 -73 -193t-190 -73q-113 0 -188 75.5t-75 190.5zM413 248q0 74 -30.5 114.5t-84.5 40.5t-84.5 -40.5t-30.5 -114.5t30.5 -112.5t84.5 -38.5t84.5 38.5t30.5 112.5zM122 575v120h132v-120h-132z
M342 575v120h132v-120h-132z" />
    <glyph glyph-name="divide" unicode="&#xf7;" horiz-adv-x="612" 
d="M224 480v138h165v-138h-165zM41 293v120h530v-120h-530zM224 88v138h165v-138h-165z" />
    <glyph glyph-name="oslash" unicode="&#xf8;" horiz-adv-x="598" 
d="M160 21l-42 -50l-69 55l44 52q-57 69 -57 172q0 118 74 191.5t189 73.5q79 0 137 -34l44 52l68 -56l-44 -52q58 -71 58 -175q0 -120 -73.5 -193t-189.5 -73q-78 0 -139 37zM190 192l72 86q33 39 59 53.5t61 12.5v47q-36 16 -78 16q-55 0 -87.5 -41t-32.5 -117
q0 -31 6 -57zM414 247q0 40 -7 64l-72 -86q-57 -69 -107 -69q-7 0 -13 1v-47q26 -17 72 -17q61 0 94 39t33 115z" />
    <glyph glyph-name="ugrave" unicode="&#xf9;" horiz-adv-x="591" 
d="M63 163v337h142v-304q0 -94 75 -94q50 0 75 40t25 111v247h142v-500h-132q1 47 48 115h-61q-21 -60 -61.5 -95.5t-96.5 -35.5q-71 0 -113.5 48.5t-42.5 130.5zM245 566l-110 154h156l50 -154h-96z" />
    <glyph glyph-name="uacute" unicode="&#xfa;" horiz-adv-x="591" 
d="M63 163v337h142v-304q0 -94 75 -94q50 0 75 40t25 111v247h142v-500h-132q1 47 48 115h-61q-21 -60 -61.5 -95.5t-96.5 -35.5q-71 0 -113.5 48.5t-42.5 130.5zM248 566l50 154h155l-110 -154h-95z" />
    <glyph glyph-name="ucircumflex" unicode="&#xfb;" horiz-adv-x="591" 
d="M63 163v337h142v-304q0 -94 75 -94q50 0 75 40t25 111v247h142v-500h-132q1 47 48 115h-61q-21 -60 -61.5 -95.5t-96.5 -35.5q-71 0 -113.5 48.5t-42.5 130.5zM97 566l110 129h172l110 -129h-122l-74 71l-74 -71h-122z" />
    <glyph glyph-name="udieresis" unicode="&#xfc;" horiz-adv-x="591" 
d="M63 163v337h142v-304q0 -94 75 -94q50 0 75 40t25 111v247h142v-500h-132q1 47 48 115h-61q-21 -60 -61.5 -95.5t-96.5 -35.5q-71 0 -113.5 48.5t-42.5 130.5zM117 575v120h132v-120h-132zM337 575v120h132v-120h-132z" />
    <glyph glyph-name="yacute" unicode="&#xfd;" horiz-adv-x="560" 
d="M400 500h148l-209 -580q-23 -61 -58 -88t-99 -27h-149v113h130q27 0 40 11t25 45l9 26l-242 500h154l83 -192q32 -70 33 -186h53q2 83 4 112q5 38 19 83zM229 566l50 154h155l-110 -154h-95z" />
    <glyph glyph-name="thorn" unicode="&#xfe;" horiz-adv-x="627" 
d="M69 -195v895h142v-98q-1 -79 -14 -120t-41 -85h60q49 118 168 118q91 0 148.5 -73.5t57.5 -191.5t-57.5 -191.5t-148.5 -73.5q-116 0 -166 118h-60q19 -31 28 -50.5t17 -59.5t8 -95v-93h-142zM441 250q0 158 -117 158q-56 0 -87.5 -40.5t-31.5 -117.5t31.5 -117.5
t87.5 -40.5q117 0 117 158z" />
    <glyph glyph-name="ydieresis" unicode="&#xff;" horiz-adv-x="560" 
d="M400 500h148l-209 -580q-23 -61 -58 -88t-99 -27h-149v113h130q27 0 40 11t25 45l9 26l-242 500h154l83 -192q32 -70 33 -186h53q2 83 4 112q5 38 19 83zM98 575v120h132v-120h-132zM318 575v120h132v-120h-132z" />
    <glyph glyph-name="Amacron" unicode="&#x100;" horiz-adv-x="740" 
d="M566 0l-56 164h-284l-58 -164h-163l267 700h197l265 -700h-168zM270 290h197l-52 152q-18 50 -19 173h-54q-2 -78 -5 -105q-3 -34 -14 -69zM197 776v96h347v-96h-347z" />
    <glyph glyph-name="amacron" unicode="&#x101;" horiz-adv-x="574" 
d="M40 128q1 49 24 85t66.5 58t97 34.5t126.5 19.5v19q0 69 -82 69q-91 0 -110 -79l-128 28q6 63 70.5 108t166.5 45q108 0 165.5 -49t57.5 -145v-183q0 -20 5 -25t25 -5h44v-108h-59q-64 0 -85.5 22.5t-23.5 81.5h-47q-38 -120 -153 -120q-69 0 -114.5 40t-45.5 104z
M354 205v32q-86 -11 -128 -31t-42 -64q0 -54 65 -54q45 0 75 30t30 87zM115 579v96h316v-96h-316z" />
    <glyph glyph-name="Abreve" unicode="&#x102;" horiz-adv-x="740" 
d="M566 0l-56 164h-284l-58 -164h-163l267 700h197l265 -700h-168zM270 290h197l-52 152q-18 50 -19 173h-54q-2 -78 -5 -105q-3 -34 -14 -69zM181 895h108q4 -22 25 -40.5t57 -18.5t57.5 18.5t23.5 40.5h109q-3 -63 -50 -103.5t-140 -40.5t-140 40.5t-50 103.5z" />
    <glyph glyph-name="abreve" unicode="&#x103;" horiz-adv-x="574" 
d="M40 128q1 49 24 85t66.5 58t97 34.5t126.5 19.5v19q0 69 -82 69q-91 0 -110 -79l-128 28q6 63 70.5 108t166.5 45q108 0 165.5 -49t57.5 -145v-183q0 -20 5 -25t25 -5h44v-108h-59q-64 0 -85.5 22.5t-23.5 81.5h-47q-38 -120 -153 -120q-69 0 -114.5 40t-45.5 104z
M354 205v32q-86 -11 -128 -31t-42 -64q0 -54 65 -54q45 0 75 30t30 87zM100 695h98q2 -22 22 -40.5t52 -18.5q33 0 52.5 18.5t21.5 40.5h99q-2 -63 -44.5 -103.5t-128.5 -40.5q-85 0 -127.5 40.5t-44.5 103.5z" />
    <glyph glyph-name="Aogonek" unicode="&#x104;" horiz-adv-x="740" 
d="M670 -114q28 0 64 10v-91q-45 -15 -84 -15q-64 0 -100.5 26t-36.5 74q0 67 93 110h-40l-56 164h-284l-58 -164h-163l267 700h197l265 -700q-121 -32 -121 -80q0 -34 57 -34zM270 290h197l-52 152q-18 50 -19 173h-54q-2 -78 -5 -105q-3 -34 -14 -69z" />
    <glyph glyph-name="aogonek" unicode="&#x105;" horiz-adv-x="574" 
d="M447 -80q0 -34 57 -34q28 0 64 10v-91q-45 -15 -84 -15q-64 0 -100.5 26t-36.5 74q0 70 106 116q-29 9 -40.5 31.5t-12.5 66.5h-47q-38 -120 -153 -120q-69 0 -114.5 40t-45.5 104q1 49 24 85t66.5 58t97 34.5t126.5 19.5v19q0 69 -82 69q-91 0 -110 -79l-128 28
q6 63 70.5 108t166.5 45q108 0 165.5 -49t57.5 -145v-183q0 -20 5 -25t25 -5h44v-108q-121 -32 -121 -80zM354 205v32q-86 -11 -128 -31t-42 -64q0 -54 65 -54q45 0 75 30t30 87z" />
    <glyph glyph-name="Cacute" unicode="&#x106;" horiz-adv-x="755" 
d="M41 351q-2 154 102.5 260.5t261.5 104.5q121 0 207.5 -59.5t115.5 -156.5l-137 -53q-50 143 -188 143q-95 0 -149 -63t-54 -176q0 -114 53.5 -177t149.5 -63q140 0 192 144l134 -54q-39 -105 -121.5 -161t-204.5 -56q-162 0 -262 103t-100 264zM362 766l55 154h171
l-122 -154h-104z" />
    <glyph glyph-name="cacute" unicode="&#x107;" horiz-adv-x="570" 
d="M35 251q0 117 77 190.5t192 73.5q86 0 149 -41t89 -109l-131 -49q-31 87 -112 87q-53 0 -87 -40t-34 -112t34.5 -113t87.5 -41q82 0 116 95l134 -48q-29 -73 -95 -116.5t-152 -43.5q-117 0 -192.5 74t-75.5 193zM256 566l50 154h155l-110 -154h-95z" />
    <glyph glyph-name="Ccircumflex" unicode="&#x108;" horiz-adv-x="755" 
d="M41 351q-2 154 102.5 260.5t261.5 104.5q121 0 207.5 -59.5t115.5 -156.5l-137 -53q-50 143 -188 143q-95 0 -149 -63t-54 -176q0 -114 53.5 -177t149.5 -63q140 0 192 144l134 -54q-39 -105 -121.5 -161t-204.5 -56q-162 0 -262 103t-100 264zM197 766l121 129h189
l121 -129h-134l-81 71l-82 -71h-134z" />
    <glyph glyph-name="ccircumflex" unicode="&#x109;" horiz-adv-x="570" 
d="M35 251q0 117 77 190.5t192 73.5q86 0 149 -41t89 -109l-131 -49q-31 87 -112 87q-53 0 -87 -40t-34 -112t34.5 -113t87.5 -41q82 0 116 95l134 -48q-29 -73 -95 -116.5t-152 -43.5q-117 0 -192.5 74t-75.5 193zM105 566l110 129h172l110 -129h-122l-74 71l-74 -71h-122z
" />
    <glyph glyph-name="Cdotaccent" unicode="&#x10a;" horiz-adv-x="755" 
d="M41 351q-2 154 102.5 260.5t261.5 104.5q121 0 207.5 -59.5t115.5 -156.5l-137 -53q-50 143 -188 143q-95 0 -149 -63t-54 -176q0 -114 53.5 -177t149.5 -63q140 0 192 144l134 -54q-39 -105 -121.5 -161t-204.5 -56q-162 0 -262 103t-100 264zM338 766v134h151v-134
h-151z" />
    <glyph glyph-name="cdotaccent" unicode="&#x10b;" horiz-adv-x="570" 
d="M35 251q0 117 77 190.5t192 73.5q86 0 149 -41t89 -109l-131 -49q-31 87 -112 87q-53 0 -87 -40t-34 -112t34.5 -113t87.5 -41q82 0 116 95l134 -48q-29 -73 -95 -116.5t-152 -43.5q-117 0 -192.5 74t-75.5 193zM225 566v134h151v-134h-151z" />
    <glyph glyph-name="Ccaron" unicode="&#x10c;" horiz-adv-x="755" 
d="M41 351q-2 154 102.5 260.5t261.5 104.5q121 0 207.5 -59.5t115.5 -156.5l-137 -53q-50 143 -188 143q-95 0 -149 -63t-54 -176q0 -114 53.5 -177t149.5 -63q140 0 192 144l134 -54q-39 -105 -121.5 -161t-204.5 -56q-162 0 -262 103t-100 264zM628 880l-121 -129h-189
l-121 129h134l81 -71l82 71h134z" />
    <glyph glyph-name="ccaron" unicode="&#x10d;" horiz-adv-x="570" 
d="M35 251q0 117 77 190.5t192 73.5q86 0 149 -41t89 -109l-131 -49q-31 87 -112 87q-53 0 -87 -40t-34 -112t34.5 -113t87.5 -41q82 0 116 95l134 -48q-29 -73 -95 -116.5t-152 -43.5q-117 0 -192.5 74t-75.5 193zM215 566l-110 129h122l74 -71l74 71h122l-110 -129h-172z
" />
    <glyph glyph-name="Dcaron" unicode="&#x10e;" horiz-adv-x="760" 
d="M84 0v700h264q155 2 263.5 -94t106.5 -251q2 -159 -106.5 -258t-263.5 -97h-264zM236 126h105q220 0 220 226q0 103 -55 162.5t-159 59.5h-111v-448zM538 880l-121 -129h-189l-121 129h134l81 -71l82 71h134z" />
    <glyph glyph-name="dcaron" unicode="&#x10f;" horiz-adv-x="717" 
d="M37 250q0 118 57.5 191.5t148.5 73.5q116 0 166 -118h60q-18 30 -27.5 50t-17.5 60t-8 95v98h142v-700h-129q0 40 43 102h-60q-27 -57 -63.5 -86.5t-105.5 -31.5q-91 0 -148.5 74t-57.5 192zM422 250q0 77 -31.5 117.5t-87.5 40.5q-117 0 -117 -158t117 -158q55 0 87 41
t32 117zM627 426l81 140h-79v134h140v-134l-82 -140h-60z" />
    <glyph glyph-name="Dcroat" unicode="&#x110;" horiz-adv-x="773" 
d="M731 355q2 -159 -106.5 -258t-263.5 -97h-264v311h-77v104h77v285h264q155 2 263.5 -94t106.5 -251zM574 352q0 103 -54.5 162.5t-159.5 59.5h-111v-159h127v-104h-127v-185h105q220 0 220 226z" />
    <glyph glyph-name="dcroat" unicode="&#x111;" horiz-adv-x="627" 
d="M644 625v-84h-86v-541h-129q0 40 43 102h-60q-27 -57 -63.5 -86.5t-105.5 -31.5q-91 0 -148.5 74t-57.5 192t57.5 191.5t148.5 73.5q116 0 166 -118h60q-42 63 -50 144h-152v84h149v75h142v-75h86zM422 250q0 77 -31.5 117.5t-87.5 40.5q-117 0 -117 -158t117 -158
q55 0 87 41t32 117z" />
    <glyph glyph-name="Emacron" unicode="&#x112;" horiz-adv-x="660" 
d="M84 0v700h529v-126h-377v-152h285v-124h-285v-172h377v-126h-529zM175 776v96h347v-96h-347z" />
    <glyph glyph-name="emacron" unicode="&#x113;" horiz-adv-x="570" 
d="M36 251q0 115 72 189.5t181 74.5q113 0 178 -74t65 -191q0 -23 -1 -34h-353q3 -61 33 -92.5t79 -31.5q78 0 116 87l127 -49q-26 -60 -84 -104q-57 -42 -159 -42q-115 0 -184.5 72.5t-69.5 194.5zM183 316h208q-11 97 -102 97q-43 0 -71 -25t-35 -72zM132 579v96h316v-96
h-316z" />
    <glyph glyph-name="Ebreve" unicode="&#x114;" horiz-adv-x="660" 
d="M84 0v700h529v-126h-377v-152h285v-124h-285v-172h377v-126h-529zM159 895h108q4 -22 25 -40.5t57 -18.5t57.5 18.5t23.5 40.5h109q-3 -63 -50 -103.5t-140 -40.5t-140 40.5t-50 103.5z" />
    <glyph glyph-name="ebreve" unicode="&#x115;" horiz-adv-x="570" 
d="M36 251q0 115 72 189.5t181 74.5q113 0 178 -74t65 -191q0 -23 -1 -34h-353q3 -61 33 -92.5t79 -31.5q78 0 116 87l127 -49q-26 -60 -84 -104q-57 -42 -159 -42q-115 0 -184.5 72.5t-69.5 194.5zM183 316h208q-11 97 -102 97q-43 0 -71 -25t-35 -72zM117 695h98
q2 -22 22 -40.5t52 -18.5q33 0 52.5 18.5t21.5 40.5h99q-2 -63 -44.5 -103.5t-128.5 -40.5q-85 0 -127.5 40.5t-44.5 103.5z" />
    <glyph glyph-name="Edotaccent" unicode="&#x116;" horiz-adv-x="660" 
d="M84 0v700h529v-126h-377v-152h285v-124h-285v-172h377v-126h-529zM273 766v134h151v-134h-151z" />
    <glyph glyph-name="edotaccent" unicode="&#x117;" horiz-adv-x="570" 
d="M36 251q0 115 72 189.5t181 74.5q113 0 178 -74t65 -191q0 -23 -1 -34h-353q3 -61 33 -92.5t79 -31.5q78 0 116 87l127 -49q-26 -60 -84 -104q-57 -42 -159 -42q-115 0 -184.5 72.5t-69.5 194.5zM183 316h208q-11 97 -102 97q-43 0 -71 -25t-35 -72zM214 566v134h151
v-134h-151z" />
    <glyph glyph-name="Eogonek" unicode="&#x118;" horiz-adv-x="660" 
d="M613 574h-377v-152h285v-124h-285v-172h377v-126q-121 -32 -121 -80q0 -34 57 -34q28 0 64 10v-91q-45 -15 -84 -15q-64 0 -100.5 26t-36.5 74q0 67 93 110h-401v700h529v-126z" />
    <glyph glyph-name="eogonek" unicode="&#x119;" horiz-adv-x="570" 
d="M289 515q113 0 178 -74t65 -191q0 -23 -1 -34h-353q3 -61 33 -92.5t79 -31.5q78 0 116 87l127 -49q-41 -101 -154 -135q-105 -28 -105 -73q0 -36 57 -36q28 0 64 10v-91q-45 -15 -84 -15q-64 0 -100.5 26t-36.5 74q0 59 69 97q-101 16 -154 86.5t-53 177.5
q0 115 72 189.5t181 74.5zM183 316h208q-11 97 -102 97q-43 0 -71 -25t-35 -72z" />
    <glyph glyph-name="Ecaron" unicode="&#x11a;" horiz-adv-x="660" 
d="M84 0v700h529v-126h-377v-152h285v-124h-285v-172h377v-126h-529zM563 880l-121 -129h-189l-121 129h134l81 -71l82 71h134z" />
    <glyph glyph-name="ecaron" unicode="&#x11b;" horiz-adv-x="570" 
d="M36 251q0 115 72 189.5t181 74.5q113 0 178 -74t65 -191q0 -23 -1 -34h-353q3 -61 33 -92.5t79 -31.5q78 0 116 87l127 -49q-26 -60 -84 -104q-57 -42 -159 -42q-115 0 -184.5 72.5t-69.5 194.5zM183 316h208q-11 97 -102 97q-43 0 -71 -25t-35 -72zM204 566l-110 129
h122l74 -71l74 71h122l-110 -129h-172z" />
    <glyph glyph-name="Gcircumflex" unicode="&#x11c;" horiz-adv-x="796" 
d="M42 347q-3 154 106.5 263t264.5 106q131 0 215.5 -59t114.5 -155l-143 -53q-47 141 -187 141q-95 0 -154 -65.5t-59 -177.5q0 -108 59.5 -173t149.5 -65q79 0 126 37t55 88h-226v126h375v-360h-137q0 69 47 143h-62q-27 -68 -74 -112q-50 -47 -143 -47q-135 -2 -232.5 99
t-95.5 264zM196 766l121 129h189l121 -129h-134l-81 71l-82 -71h-134z" />
    <glyph glyph-name="gcircumflex" unicode="&#x11d;" horiz-adv-x="615" 
d="M26 -101q0 27 19.5 49t49.5 31v46q-57 15 -57 67q0 67 82 94v45q-57 42 -57 104q0 78 59.5 129t148.5 51q67 0 116 -27t67 -78h43q6 52 23.5 71t55.5 19h26v-108h-55q-24 0 -32.5 -10t-12.5 -48l-1 -9q-9 -80 -68.5 -127t-147.5 -47q-64 0 -104 17q-38 -11 -38 -35
q0 -15 10.5 -18.5t39.5 -3.5h215q77 0 125.5 -44t48.5 -107q0 -73 -48.5 -114t-125.5 -41h-257q-63 0 -94 25.5t-31 68.5zM372 329q0 39 -24.5 64.5t-63.5 25.5t-63.5 -25.5t-24.5 -64.5q0 -38 24 -61.5t64 -23.5t64 23.5t24 61.5zM185 -92h195q62 0 62 47q0 45 -62 45h-219
q-26 -16 -26 -45q0 -22 14 -34.5t36 -12.5zM90 566l110 129h172l110 -129h-122l-74 71l-74 -71h-122z" />
    <glyph glyph-name="Gbreve" unicode="&#x11e;" horiz-adv-x="796" 
d="M42 347q-3 154 106.5 263t264.5 106q131 0 215.5 -59t114.5 -155l-143 -53q-47 141 -187 141q-95 0 -154 -65.5t-59 -177.5q0 -108 59.5 -173t149.5 -65q79 0 126 37t55 88h-226v126h375v-360h-137q0 69 47 143h-62q-27 -68 -74 -112q-50 -47 -143 -47q-135 -2 -232.5 99
t-95.5 264zM223 895h108q4 -22 25 -40.5t57 -18.5t57.5 18.5t23.5 40.5h109q-3 -63 -50 -103.5t-140 -40.5t-140 40.5t-50 103.5z" />
    <glyph glyph-name="gbreve" unicode="&#x11f;" horiz-adv-x="615" 
d="M26 -101q0 27 19.5 49t49.5 31v46q-57 15 -57 67q0 67 82 94v45q-57 42 -57 104q0 78 59.5 129t148.5 51q67 0 116 -27t67 -78h43q6 52 23.5 71t55.5 19h26v-108h-55q-24 0 -32.5 -10t-12.5 -48l-1 -9q-9 -80 -68.5 -127t-147.5 -47q-64 0 -104 17q-38 -11 -38 -35
q0 -15 10.5 -18.5t39.5 -3.5h215q77 0 125.5 -44t48.5 -107q0 -73 -48.5 -114t-125.5 -41h-257q-63 0 -94 25.5t-31 68.5zM372 329q0 39 -24.5 64.5t-63.5 25.5t-63.5 -25.5t-24.5 -64.5q0 -38 24 -61.5t64 -23.5t64 23.5t24 61.5zM185 -92h195q62 0 62 47q0 45 -62 45h-219
q-26 -16 -26 -45q0 -22 14 -34.5t36 -12.5zM113 695h98q2 -22 22 -40.5t52 -18.5q33 0 52.5 18.5t21.5 40.5h99q-2 -63 -44.5 -103.5t-128.5 -40.5q-85 0 -127.5 40.5t-44.5 103.5z" />
    <glyph glyph-name="Gdotaccent" unicode="&#x120;" horiz-adv-x="796" 
d="M42 347q-3 154 106.5 263t264.5 106q131 0 215.5 -59t114.5 -155l-143 -53q-47 141 -187 141q-95 0 -154 -65.5t-59 -177.5q0 -108 59.5 -173t149.5 -65q79 0 126 37t55 88h-226v126h375v-360h-137q0 69 47 143h-62q-27 -68 -74 -112q-50 -47 -143 -47q-135 -2 -232.5 99
t-95.5 264zM337 766v134h151v-134h-151z" />
    <glyph glyph-name="gdotaccent" unicode="&#x121;" horiz-adv-x="615" 
d="M26 -101q0 27 19.5 49t49.5 31v46q-57 15 -57 67q0 67 82 94v45q-57 42 -57 104q0 78 59.5 129t148.5 51q67 0 116 -27t67 -78h43q6 52 23.5 71t55.5 19h26v-108h-55q-24 0 -32.5 -10t-12.5 -48l-1 -9q-9 -80 -68.5 -127t-147.5 -47q-64 0 -104 17q-38 -11 -38 -35
q0 -15 10.5 -18.5t39.5 -3.5h215q77 0 125.5 -44t48.5 -107q0 -73 -48.5 -114t-125.5 -41h-257q-63 0 -94 25.5t-31 68.5zM372 329q0 39 -24.5 64.5t-63.5 25.5t-63.5 -25.5t-24.5 -64.5q0 -38 24 -61.5t64 -23.5t64 23.5t24 61.5zM185 -92h195q62 0 62 47q0 45 -62 45h-219
q-26 -16 -26 -45q0 -22 14 -34.5t36 -12.5zM210 566v134h151v-134h-151z" />
    <glyph glyph-name="uni0122" unicode="&#x122;" horiz-adv-x="796" 
d="M42 347q-3 154 106.5 263t264.5 106q131 0 215.5 -59t114.5 -155l-143 -53q-47 141 -187 141q-95 0 -154 -65.5t-59 -177.5q0 -108 59.5 -173t149.5 -65q79 0 126 37t55 88h-226v126h375v-360h-137q0 69 47 143h-62q-27 -68 -74 -112q-50 -47 -143 -47q-135 -2 -232.5 99
t-95.5 264zM342 -335l81 140h-79v134h140v-134l-82 -140h-60z" />
    <glyph glyph-name="uni0123" unicode="&#x123;" horiz-adv-x="615" 
d="M26 -101q0 27 19.5 49t49.5 31v46q-57 15 -57 67q0 67 82 94v45q-57 42 -57 104q0 78 59.5 129t148.5 51q67 0 116 -27t67 -78h43q6 52 23.5 71t55.5 19h26v-108h-55q-24 0 -32.5 -10t-12.5 -48l-1 -9q-9 -80 -68.5 -127t-147.5 -47q-64 0 -104 17q-38 -11 -38 -35
q0 -15 10.5 -18.5t39.5 -3.5h215q77 0 125.5 -44t48.5 -107q0 -73 -48.5 -114t-125.5 -41h-257q-63 0 -94 25.5t-31 68.5zM372 329q0 39 -24.5 64.5t-63.5 25.5t-63.5 -25.5t-24.5 -64.5q0 -38 24 -61.5t64 -23.5t64 23.5t24 61.5zM185 -92h195q62 0 62 47q0 45 -62 45h-219
q-26 -16 -26 -45q0 -22 14 -34.5t36 -12.5zM355 840l-81 -140h79v-135h-140v135l82 140h60z" />
    <glyph glyph-name="Hcircumflex" unicode="&#x124;" horiz-adv-x="772" 
d="M84 0v700h152v-277h300v277h152v-700h-152v297h-300v-297h-152zM172 766l121 129h189l121 -129h-134l-81 71l-82 -71h-134z" />
    <glyph glyph-name="hcircumflex" unicode="&#x125;" horiz-adv-x="597" 
d="M69 0v700h142v-106q0 -120 -63 -209h62q20 60 59 95t94 35q81 0 125.5 -49.5t44.5 -134.5v-331h-142v304q0 94 -80 94q-45 0 -67 -27q-33 -40 -33 -134v-237h-142zM113 766l110 129h172l110 -129h-122l-74 71l-74 -71h-122z" />
    <glyph glyph-name="Hbar" unicode="&#x126;" horiz-adv-x="808" 
d="M786 610v-100h-82v-510h-152v297h-300v-297h-152v510h-77v100h77v90h152v-90h300v90h152v-90h82zM552 423v87h-300v-87h300z" />
    <glyph glyph-name="hbar" unicode="&#x127;" horiz-adv-x="597" 
d="M533 331v-331h-142v304q0 94 -80 94q-45 0 -67 -27q-33 -40 -33 -134v-237h-142v541h-74v84h74v75h142v-75h161v-84h-164q-10 -85 -60 -156h62q20 60 59 95t94 35q81 0 125.5 -49.5t44.5 -134.5z" />
    <glyph glyph-name="Itilde" unicode="&#x128;" horiz-adv-x="320" 
d="M84 0v700h152v-700h-152zM160 782l-28 15q-36 18 -53 18q-42 0 -42 -49h-113q0 66 39.5 102.5t106.5 36.5q41 0 95 -26l27 -15q34 -18 54 -18q40 0 42 49h108q0 -139 -141 -139q-45 0 -95 26z" />
    <glyph glyph-name="itilde" unicode="&#x129;" horiz-adv-x="280" 
d="M69 0v500h142v-500h-142zM139 582l-25 15q-34 18 -49 18q-36 0 -38 -49h-102q0 66 35.5 102.5t96.5 36.5q39 0 86 -26l25 -15q30 -18 49 -18q36 0 38 49h98q0 -139 -128 -139q-41 0 -86 26z" />
    <glyph glyph-name="Imacron" unicode="&#x12a;" horiz-adv-x="320" 
d="M84 0v700h152v-700h-152zM-13 776v96h347v-96h-347z" />
    <glyph glyph-name="imacron" unicode="&#x12b;" horiz-adv-x="280" 
d="M69 0v500h142v-500h-142zM-19 579v96h316v-96h-316z" />
    <glyph glyph-name="Ibreve" unicode="&#x12c;" horiz-adv-x="320" 
d="M84 0v700h152v-700h-152zM-29 895h108q4 -22 25 -40.5t57 -18.5t57.5 18.5t23.5 40.5h109q-3 -63 -50 -103.5t-140 -40.5t-140 40.5t-50 103.5z" />
    <glyph glyph-name="ibreve" unicode="&#x12d;" horiz-adv-x="280" 
d="M69 0v500h142v-500h-142zM-34 695h98q2 -22 22 -40.5t52 -18.5q33 0 52.5 18.5t21.5 40.5h99q-2 -63 -44.5 -103.5t-128.5 -40.5q-85 0 -127.5 40.5t-44.5 103.5z" />
    <glyph glyph-name="Iogonek" unicode="&#x12e;" horiz-adv-x="321" 
d="M116 -80q0 -34 57 -34q28 0 64 10v-91q-45 -15 -84 -15q-64 0 -100.5 26t-36.5 74q0 67 93 110h-24v700h152v-700q-121 -32 -121 -80z" />
    <glyph glyph-name="iogonek" unicode="&#x12f;" horiz-adv-x="282" 
d="M65 700h151v-134h-151v134zM71 0v500h142v-500q-121 -32 -121 -80q0 -34 57 -34q28 0 64 10v-91q-45 -15 -84 -15q-64 0 -100.5 26t-36.5 74q0 67 93 110h-14z" />
    <glyph glyph-name="Idotaccent" unicode="&#x130;" horiz-adv-x="320" 
d="M84 0v700h152v-700h-152zM85 766v134h151v-134h-151z" />
    <glyph glyph-name="dotlessi" unicode="&#x131;" horiz-adv-x="280" 
d="M69 0v500h142v-500h-142z" />
    <glyph glyph-name="IJ" unicode="&#x132;" horiz-adv-x="885" 
d="M84 0v700h152v-700h-152zM331 236l154 39q-1 -85 19.5 -125t70.5 -40q44 0 62 31.5t18 100.5v458h152v-439q0 -141 -56 -209t-171 -68q-114 0 -180 67.5t-69 184.5z" />
    <glyph glyph-name="ij" unicode="&#x133;" horiz-adv-x="563" 
d="M63 568v134h151v-134h-151zM68 0v500h142v-500h-142zM349 569v131h148v-131h-148zM240 -195v113h70q24 0 34 10.5t10 33.5v538h140v-564q0 -61 -33.5 -96t-92.5 -35h-128z" />
    <glyph glyph-name="Jcircumflex" unicode="&#x134;" horiz-adv-x="565" 
d="M11 236l154 39q-1 -85 19.5 -125t70.5 -40q44 0 62 31.5t18 100.5v458h152v-439q0 -141 -56 -209t-171 -68q-114 0 -180 67.5t-69 184.5zM191 766l121 129h189l121 -129h-134l-81 71l-82 -71h-134z" />
    <glyph glyph-name="jcircumflex" unicode="&#x135;" horiz-adv-x="288" 
d="M-40 -195v113h72q24 0 34.5 10.5t10.5 33.5v538h142v-564q0 -61 -34 -96t-94 -35h-131zM-49 566l110 129h172l110 -129h-122l-74 71l-74 -71h-122z" />
    <glyph glyph-name="uni0136" unicode="&#x136;" horiz-adv-x="718" 
d="M539 0l-218 312l-85 -88v-224h-152v700h152v-108q0 -45 -10 -80t-21 -53t-30 -39l38 -37l279 317h204l-271 -280l305 -420h-191zM317 -335l81 140h-79v134h140v-134l-82 -140h-60z" />
    <glyph glyph-name="uni0137" unicode="&#x137;" horiz-adv-x="606" 
d="M440 0l-156 208l-73 -71v-137h-142v700h142v-221q0 -69 -16.5 -105t-55.5 -69l38 -41l235 236h174l-204 -198l237 -302h-179zM255 -335l81 140h-79v134h140v-134l-82 -140h-60z" />
    <glyph glyph-name="Lacute" unicode="&#x139;" horiz-adv-x="623" 
d="M84 0v700h152v-571h377v-129h-529zM106 766l55 154h171l-122 -154h-104z" />
    <glyph glyph-name="lacute" unicode="&#x13a;" horiz-adv-x="280" 
d="M69 0v700h142v-700h-142zM95 766l50 154h155l-110 -154h-95z" />
    <glyph glyph-name="uni013B" unicode="&#x13b;" horiz-adv-x="623" 
d="M84 0v700h152v-571h377v-129h-529zM275 -335l81 140h-79v134h140v-134l-82 -140h-60z" />
    <glyph glyph-name="uni013C" unicode="&#x13c;" horiz-adv-x="280" 
d="M69 0v700h142v-700h-142zM67 -335l81 140h-79v134h140v-134l-82 -140h-60z" />
    <glyph glyph-name="Lcaron" unicode="&#x13d;" horiz-adv-x="624" 
d="M332 399l89 154h-87v148h155v-148l-91 -154h-66zM84 0v700h152v-571h377v-129h-529z" />
    <glyph glyph-name="lcaron" unicode="&#x13e;" horiz-adv-x="370" 
d="M69 0v700h142v-700h-142zM280 426l81 140h-79v134h140v-134l-82 -140h-60z" />
    <glyph glyph-name="Ldot" unicode="&#x13f;" horiz-adv-x="626" 
d="M84 0v700h152v-571h377v-129h-529zM369 306v158h165v-158h-165z" />
    <glyph glyph-name="ldot" unicode="&#x140;" horiz-adv-x="467" 
d="M69 0v700h142v-700h-142zM291 284v158h165v-158h-165z" />
    <glyph glyph-name="Lslash" unicode="&#x141;" horiz-adv-x="674" 
d="M287 129h377v-129h-529v247l-99 -50v119l99 50v334h152v-258l199 100v-118l-199 -100v-195z" />
    <glyph glyph-name="lslash" unicode="&#x142;" horiz-adv-x="377" 
d="M357 526v-114l-93 -55v-357h-142v273l-89 -52v114l89 52v313h142v-229z" />
    <glyph glyph-name="Nacute" unicode="&#x143;" horiz-adv-x="845" 
d="M84 0v700h234l311 -520l45 31q-41 69 -52.5 106.5t-12.5 118.5v264h152v-700h-183l-363 608l-46 -29q37 -69 52 -118t15 -127v-334h-152zM371 766l55 154h171l-122 -154h-104z" />
    <glyph glyph-name="nacute" unicode="&#x144;" horiz-adv-x="597" 
d="M69 0v500h128q-1 -45 -49 -115h62q20 60 59 95t94 35q81 0 125.5 -49.5t44.5 -134.5v-331h-142v304q0 94 -80 94q-45 0 -67 -27q-33 -40 -33 -134v-237h-142zM258 566l50 154h155l-110 -154h-95z" />
    <glyph glyph-name="uni0145" unicode="&#x145;" horiz-adv-x="845" 
d="M84 0v700h234l311 -520l45 31q-41 69 -52.5 106.5t-12.5 118.5v264h152v-700h-183l-363 608l-46 -29q37 -69 52 -118t15 -127v-334h-152zM352 -335l81 140h-79v134h140v-134l-82 -140h-60z" />
    <glyph glyph-name="uni0146" unicode="&#x146;" horiz-adv-x="597" 
d="M69 0v500h128q-1 -45 -49 -115h62q20 60 59 95t94 35q81 0 125.5 -49.5t44.5 -134.5v-331h-142v304q0 94 -80 94q-45 0 -67 -27q-33 -40 -33 -134v-237h-142zM230 -335l81 140h-79v134h140v-134l-82 -140h-60z" />
    <glyph glyph-name="Ncaron" unicode="&#x147;" horiz-adv-x="845" 
d="M84 0v700h234l311 -520l45 31q-41 69 -52.5 106.5t-12.5 118.5v264h152v-700h-183l-363 608l-46 -29q37 -69 52 -118t15 -127v-334h-152zM637 880l-121 -129h-189l-121 129h134l81 -71l82 71h134z" />
    <glyph glyph-name="ncaron" unicode="&#x148;" horiz-adv-x="597" 
d="M69 0v500h128q-1 -45 -49 -115h62q20 60 59 95t94 35q81 0 125.5 -49.5t44.5 -134.5v-331h-142v304q0 94 -80 94q-45 0 -67 -27q-33 -40 -33 -134v-237h-142zM217 566l-110 129h122l74 -71l74 71h122l-110 -129h-172z" />
    <glyph glyph-name="Eng" unicode="&#x14a;" horiz-adv-x="845" 
d="M488 -195v124h56q65 0 65 67v21l-374 560l-20 31l-46 -29q37 -69 52 -118t15 -127v-335h-152v701h233l313 -470l45 31q-43 71 -54 106.5t-12 115.5v217h152v-712q0 -82 -49.5 -132.5t-133.5 -50.5h-90z" />
    <glyph glyph-name="eng" unicode="&#x14b;" horiz-adv-x="597" 
d="M274 -195v115h72q45 0 45 45v339q0 94 -80 94q-45 0 -67 -27q-33 -40 -33 -134v-237h-142v500h128q-1 -45 -49 -115h62q20 60 59 95t94 35q83 0 126 -50.5t43 -143.5l1 -382q0 -61 -34 -97.5t-94 -36.5h-131z" />
    <glyph glyph-name="Omacron" unicode="&#x14c;" horiz-adv-x="832" 
d="M42 348q0 160 102.5 264t271.5 104t271.5 -104t102.5 -264q2 -159 -101 -262t-273 -102q-170 -1 -273 102t-101 262zM631 349q0 107 -58 174t-156 67q-100 0 -158 -67t-58 -174q0 -106 58 -172.5t158 -66.5q98 0 156 66.5t58 172.5zM242 776v96h347v-96h-347z" />
    <glyph glyph-name="omacron" unicode="&#x14d;" horiz-adv-x="596" 
d="M35 250q0 118 74 191.5t189 73.5q116 0 189.5 -73.5t73.5 -191.5q0 -120 -73 -193t-190 -73q-113 0 -188 75.5t-75 190.5zM413 248q0 74 -30.5 114.5t-84.5 40.5t-84.5 -40.5t-30.5 -114.5t30.5 -112.5t84.5 -38.5t84.5 38.5t30.5 112.5zM140 579v96h316v-96h-316z" />
    <glyph glyph-name="Obreve" unicode="&#x14e;" horiz-adv-x="832" 
d="M42 348q0 160 102.5 264t271.5 104t271.5 -104t102.5 -264q2 -159 -101 -262t-273 -102q-170 -1 -273 102t-101 262zM631 349q0 107 -58 174t-156 67q-100 0 -158 -67t-58 -174q0 -106 58 -172.5t158 -66.5q98 0 156 66.5t58 172.5zM226 895h108q4 -22 25 -40.5t57 -18.5
t57.5 18.5t23.5 40.5h109q-3 -63 -50 -103.5t-140 -40.5t-140 40.5t-50 103.5z" />
    <glyph glyph-name="obreve" unicode="&#x14f;" horiz-adv-x="596" 
d="M35 250q0 118 74 191.5t189 73.5q116 0 189.5 -73.5t73.5 -191.5q0 -120 -73 -193t-190 -73q-113 0 -188 75.5t-75 190.5zM413 248q0 74 -30.5 114.5t-84.5 40.5t-84.5 -40.5t-30.5 -114.5t30.5 -112.5t84.5 -38.5t84.5 38.5t30.5 112.5zM125 695h98q2 -22 22 -40.5
t52 -18.5q33 0 52.5 18.5t21.5 40.5h99q-2 -63 -44.5 -103.5t-128.5 -40.5q-85 0 -127.5 40.5t-44.5 103.5z" />
    <glyph glyph-name="Ohungarumlaut" unicode="&#x150;" horiz-adv-x="832" 
d="M42 348q0 160 102.5 264t271.5 104t271.5 -104t102.5 -264q2 -159 -101 -262t-273 -102q-170 -1 -273 102t-101 262zM631 349q0 107 -58 174t-156 67q-100 0 -158 -67t-58 -174q0 -106 58 -172.5t158 -66.5q98 0 156 66.5t58 172.5zM257 766l55 154h171l-122 -154h-104z
M464 766l55 154h171l-122 -154h-104z" />
    <glyph glyph-name="ohungarumlaut" unicode="&#x151;" horiz-adv-x="596" 
d="M35 250q0 118 74 191.5t189 73.5q116 0 189.5 -73.5t73.5 -191.5q0 -120 -73 -193t-190 -73q-113 0 -188 75.5t-75 190.5zM413 248q0 74 -30.5 114.5t-84.5 40.5t-84.5 -40.5t-30.5 -114.5t30.5 -112.5t84.5 -38.5t84.5 38.5t30.5 112.5zM156 566l50 154h155l-110 -154
h-95zM344 566l50 154h155l-110 -154h-95z" />
    <glyph glyph-name="OE" unicode="&#x152;" horiz-adv-x="1190" 
d="M43 349q-1 79 27 149t73.5 117t103.5 74t116 26q101 0 150 -45q51 -46 70 -95h48q-15 65 -15 125h527v-126h-375v-147h281v-123h-281v-178h375v-126h-527q0 59 15 124h-48q-18 -46 -70 -95q-49 -45 -147 -45q-60 -1 -118.5 25.5t-104.5 73.5t-74 117t-26 149zM623 348
q0 112 -55.5 177t-155.5 65t-155.5 -65t-55.5 -177t55 -175t156 -63t156 63t55 175z" />
    <glyph glyph-name="oe" unicode="&#x153;" horiz-adv-x="940" 
d="M36 249q0 118 65.5 192t165.5 74q76 0 120.5 -32t70.5 -93h46q15 52 58.5 88.5t108.5 36.5q106 0 168.5 -72.5t62.5 -189.5q0 -24 -1 -37h-353q3 -61 32.5 -92.5t78.5 -31.5q43 0 70 21.5t47 65.5l127 -49q-27 -64 -79 -105t-146 -41q-72 0 -118 34.5t-62 88.5h-46
q-28 -61 -71 -92t-114 -31q-99 0 -165 74.5t-66 190.5zM553 314h208q-11 99 -102 99q-43 0 -70.5 -25.5t-35.5 -73.5zM414 248q0 74 -30.5 114.5t-84.5 40.5t-84.5 -40.5t-30.5 -114.5t30.5 -112.5t84.5 -38.5t84.5 38.5t30.5 112.5z" />
    <glyph glyph-name="Racute" unicode="&#x154;" horiz-adv-x="726" 
d="M84 0v700h346q111 0 175 -50t64 -134q0 -69 -34 -104q-30 -33 -71.5 -45t-110.5 -15v-52q98 -3 141 -29t58 -103l29 -168h-162l-21 155q-9 61 -39 86t-96 25h-127v-266h-152zM236 389h165q51 0 80.5 24t29.5 69q0 44 -29.5 68t-80.5 24h-165v-185zM299 766l55 154h171
l-122 -154h-104z" />
    <glyph glyph-name="racute" unicode="&#x155;" horiz-adv-x="430" 
d="M69 0v500h128q0 -80 -43 -152h60q19 85 56 123.5t113 38.5q25 0 30 -1v-146q-29 3 -55 3q-80 0 -113.5 -38t-33.5 -136v-192h-142zM205 566l50 154h155l-110 -154h-95z" />
    <glyph glyph-name="uni0156" unicode="&#x156;" horiz-adv-x="726" 
d="M84 0v700h346q111 0 175 -50t64 -134q0 -69 -34 -104q-30 -33 -71.5 -45t-110.5 -15v-52q98 -3 141 -29t58 -103l29 -168h-162l-21 155q-9 61 -39 86t-96 25h-127v-266h-152zM236 389h165q51 0 80.5 24t29.5 69q0 44 -29.5 68t-80.5 24h-165v-185zM299 -335l81 140h-79
v134h140v-134l-82 -140h-60z" />
    <glyph glyph-name="uni0157" unicode="&#x157;" horiz-adv-x="430" 
d="M69 0v500h128q0 -80 -43 -152h60q19 85 56 123.5t113 38.5q25 0 30 -1v-146q-29 3 -55 3q-80 0 -113.5 -38t-33.5 -136v-192h-142zM71 -335l81 140h-79v134h140v-134l-82 -140h-60z" />
    <glyph glyph-name="Rcaron" unicode="&#x158;" horiz-adv-x="726" 
d="M84 0v700h346q111 0 175 -50t64 -134q0 -69 -34 -104q-30 -33 -71.5 -45t-110.5 -15v-52q98 -3 141 -29t58 -103l29 -168h-162l-21 155q-9 61 -39 86t-96 25h-127v-266h-152zM236 389h165q51 0 80.5 24t29.5 69q0 44 -29.5 68t-80.5 24h-165v-185zM565 880l-121 -129
h-189l-121 129h134l81 -71l82 71h134z" />
    <glyph glyph-name="rcaron" unicode="&#x159;" horiz-adv-x="430" 
d="M69 0v500h128q0 -80 -43 -152h60q19 85 56 123.5t113 38.5q25 0 30 -1v-146q-29 3 -55 3q-80 0 -113.5 -38t-33.5 -136v-192h-142zM164 566l-110 129h122l74 -71l74 71h122l-110 -129h-172z" />
    <glyph glyph-name="Sacute" unicode="&#x15a;" horiz-adv-x="685" 
d="M28 200l143 48q13 -61 58 -102t119 -41q68 0 102.5 24t34.5 66q0 69 -114 86l-87 12q-221 31 -221 210q0 91 74.5 152t202.5 61q122 0 196 -51.5t100 -135.5l-140 -49q-37 115 -156 115q-59 0 -89 -24t-30 -62q0 -62 90 -75l87 -12q117 -16 181 -71t64 -146
q0 -97 -76 -159t-219 -62q-134 0 -216 60t-104 156zM288 766l55 154h171l-122 -154h-104z" />
    <glyph glyph-name="sacute" unicode="&#x15b;" horiz-adv-x="525" 
d="M27 129l129 41q6 -27 29 -56q22 -28 85 -28q35 0 55.5 14t20.5 36q0 21 -14 33.5t-48 19.5l-71 14q-87 17 -126.5 51t-39.5 103q0 72 58 115t157 43q82 0 136.5 -34t74.5 -81l-117 -53q-26 70 -101 70q-34 0 -52.5 -13t-18.5 -35q0 -21 14.5 -31.5t54.5 -17.5l69 -13
q172 -33 172 -156q0 -76 -62 -120.5t-170 -44.5q-89 0 -154.5 39t-80.5 104zM219 566l50 154h155l-110 -154h-95z" />
    <glyph glyph-name="Scircumflex" unicode="&#x15c;" horiz-adv-x="685" 
d="M28 200l143 48q13 -61 58 -102t119 -41q68 0 102.5 24t34.5 66q0 69 -114 86l-87 12q-221 31 -221 210q0 91 74.5 152t202.5 61q122 0 196 -51.5t100 -135.5l-140 -49q-37 115 -156 115q-59 0 -89 -24t-30 -62q0 -62 90 -75l87 -12q117 -16 181 -71t64 -146
q0 -97 -76 -159t-219 -62q-134 0 -216 60t-104 156zM123 766l121 129h189l121 -129h-134l-81 71l-82 -71h-134z" />
    <glyph glyph-name="scircumflex" unicode="&#x15d;" horiz-adv-x="525" 
d="M27 129l129 41q6 -27 29 -56q22 -28 85 -28q35 0 55.5 14t20.5 36q0 21 -14 33.5t-48 19.5l-71 14q-87 17 -126.5 51t-39.5 103q0 72 58 115t157 43q82 0 136.5 -34t74.5 -81l-117 -53q-26 70 -101 70q-34 0 -52.5 -13t-18.5 -35q0 -21 14.5 -31.5t54.5 -17.5l69 -13
q172 -33 172 -156q0 -76 -62 -120.5t-170 -44.5q-89 0 -154.5 39t-80.5 104zM68 566l110 129h172l110 -129h-122l-74 71l-74 -71h-122z" />
    <glyph glyph-name="Scedilla" unicode="&#x15e;" horiz-adv-x="685" 
d="M402 -14l-15 -13l-12 -10l-14 -13h3q36 0 65 -23t29 -66q0 -41 -33 -68.5t-100 -27.5q-37 0 -71.5 15.5t-53.5 36.5l49 65q35 -34 75 -34q38 0 38 22t-35 22q-13 0 -27 -3l-37 48l50 48q-120 9 -192 67.5t-93 147.5l143 48q13 -61 58 -102t119 -41q68 0 102.5 24t34.5 66
q0 69 -114 86l-87 12q-221 31 -221 210q0 91 74.5 152t202.5 61q122 0 196 -51.5t100 -135.5l-140 -49q-37 115 -156 115q-59 0 -89 -24t-30 -62q0 -62 90 -75l87 -12q117 -16 181 -71t64 -146q0 -87 -61.5 -147t-179.5 -72z" />
    <glyph glyph-name="scedilla" unicode="&#x15f;" horiz-adv-x="525" 
d="M331 -9l-21 -18l-12 -10l-14 -13h3q36 0 65 -23t29 -66q0 -40 -33.5 -68t-99.5 -28q-37 0 -71.5 15.5t-53.5 36.5l49 65q35 -34 75 -34q38 0 38 22t-35 22q-15 0 -27 -3l-37 48l51 50q-81 6 -138 44t-72 98l129 41q6 -27 29 -56q22 -28 85 -28q35 0 55.5 14t20.5 36
q0 21 -14 33.5t-48 19.5l-71 14q-87 17 -126.5 51t-39.5 103q0 72 58 115t157 43q82 0 136.5 -34t74.5 -81l-117 -53q-26 70 -101 70q-34 0 -52.5 -13t-18.5 -35q0 -21 14.5 -31.5t54.5 -17.5l69 -13q172 -33 172 -156q0 -63 -42.5 -105t-120.5 -55z" />
    <glyph glyph-name="Scaron" unicode="&#x160;" horiz-adv-x="685" 
d="M28 200l143 48q13 -61 58 -102t119 -41q68 0 102.5 24t34.5 66q0 69 -114 86l-87 12q-221 31 -221 210q0 91 74.5 152t202.5 61q122 0 196 -51.5t100 -135.5l-140 -49q-37 115 -156 115q-59 0 -89 -24t-30 -62q0 -62 90 -75l87 -12q117 -16 181 -71t64 -146
q0 -97 -76 -159t-219 -62q-134 0 -216 60t-104 156zM554 880l-121 -129h-189l-121 129h134l81 -71l82 71h134z" />
    <glyph glyph-name="scaron" unicode="&#x161;" horiz-adv-x="525" 
d="M27 129l129 41q6 -27 29 -56q22 -28 85 -28q35 0 55.5 14t20.5 36q0 21 -14 33.5t-48 19.5l-71 14q-87 17 -126.5 51t-39.5 103q0 72 58 115t157 43q82 0 136.5 -34t74.5 -81l-117 -53q-26 70 -101 70q-34 0 -52.5 -13t-18.5 -35q0 -21 14.5 -31.5t54.5 -17.5l69 -13
q172 -33 172 -156q0 -76 -62 -120.5t-170 -44.5q-89 0 -154.5 39t-80.5 104zM178 566l-110 129h122l74 -71l74 71h122l-110 -129h-172z" />
    <glyph glyph-name="uni0162" unicode="&#x162;" horiz-adv-x="652" 
d="M402 0l-31 -27l-26 -23h3q36 0 65 -22.5t29 -66.5q0 -41 -33 -68.5t-100 -27.5q-36 0 -70.5 15.5t-54.5 36.5l49 65q38 -34 75 -34q38 0 38 22t-35 22q-15 0 -27 -3l-37 48l65 63h-62v574h-240v126h632v-126h-240v-574z" />
    <glyph glyph-name="uni0163" unicode="&#x163;" horiz-adv-x="436" 
d="M120 131v261h-105v108h105v157h142v-157h130v-108h-130v-235q0 -23 10.5 -33.5t33.5 -10.5h108v-113h-167q-59 0 -93 36t-34 95zM372 -139q0 -40 -33.5 -68t-99.5 -28q-37 0 -71.5 15.5t-53.5 36.5l49 65q35 -34 75 -34q38 0 38 22t-35 22q-15 0 -27 -3l-37 48l65 63h90
l-31 -27l-12 -10l-14 -13h3q36 0 65 -23t29 -66z" />
    <glyph glyph-name="Tcaron" unicode="&#x164;" horiz-adv-x="652" 
d="M250 0v574h-240v126h632v-126h-240v-574h-152zM540 880l-121 -129h-189l-121 129h134l81 -71l82 71h134z" />
    <glyph glyph-name="tcaron" unicode="&#x165;" horiz-adv-x="436" 
d="M120 131v261h-105v108h105v157h142v-157h130v-108h-130v-235q0 -23 10.5 -33.5t33.5 -10.5h108v-113h-167q-59 0 -93 36t-34 95zM342 541l81 140h-79v134h140v-134l-82 -140h-60z" />
    <glyph glyph-name="Tbar" unicode="&#x166;" horiz-adv-x="664" 
d="M648 574h-240v-139h140v-104h-140v-331h-152v331h-145v104h145v139h-240v126h632v-126z" />
    <glyph glyph-name="tbar" unicode="&#x167;" horiz-adv-x="446" 
d="M314 113h108v-113h-167q-59 0 -93 36t-34 95v103h-105v105h105v53h-105v108h105v157h142v-157h130v-108h-130v-53h130v-105h-130v-77q0 -23 10.5 -33.5t33.5 -10.5z" />
    <glyph glyph-name="Utilde" unicode="&#x168;" horiz-adv-x="780" 
d="M76 273v427h152v-403q0 -90 41 -136.5t121 -46.5q162 0 162 183v403h152v-427q0 -133 -87 -211t-227 -78q-143 0 -228.5 78t-85.5 211zM389 782l-28 15q-36 18 -53 18q-42 0 -42 -49h-113q0 66 39.5 102.5t106.5 36.5q41 0 95 -26l27 -15q35 -18 54 -18q40 0 42 49h108
q0 -139 -141 -139q-45 0 -95 26z" />
    <glyph glyph-name="utilde" unicode="&#x169;" horiz-adv-x="591" 
d="M63 163v337h142v-304q0 -94 75 -94q50 0 75 40t25 111v247h142v-500h-132q1 47 48 115h-61q-21 -60 -61.5 -95.5t-96.5 -35.5q-71 0 -113.5 48.5t-42.5 130.5zM293 582l-25 15q-34 18 -49 18q-36 0 -38 -49h-102q0 66 35.5 102.5t96.5 36.5q39 0 86 -26l25 -15
q30 -18 49 -18q36 0 38 49h98q0 -139 -128 -139q-41 0 -86 26z" />
    <glyph glyph-name="Umacron" unicode="&#x16a;" horiz-adv-x="780" 
d="M76 273v427h152v-403q0 -90 41 -136.5t121 -46.5q162 0 162 183v403h152v-427q0 -133 -87 -211t-227 -78q-143 0 -228.5 78t-85.5 211zM216 776v96h347v-96h-347z" />
    <glyph glyph-name="umacron" unicode="&#x16b;" horiz-adv-x="591" 
d="M63 163v337h142v-304q0 -94 75 -94q50 0 75 40t25 111v247h142v-500h-132q1 47 48 115h-61q-21 -60 -61.5 -95.5t-96.5 -35.5q-71 0 -113.5 48.5t-42.5 130.5zM135 579v96h316v-96h-316z" />
    <glyph glyph-name="Ubreve" unicode="&#x16c;" horiz-adv-x="780" 
d="M76 273v427h152v-403q0 -90 41 -136.5t121 -46.5q162 0 162 183v403h152v-427q0 -133 -87 -211t-227 -78q-143 0 -228.5 78t-85.5 211zM200 895h108q4 -22 25 -40.5t57 -18.5t57.5 18.5t23.5 40.5h109q-3 -63 -50 -103.5t-140 -40.5t-140 40.5t-50 103.5z" />
    <glyph glyph-name="ubreve" unicode="&#x16d;" horiz-adv-x="591" 
d="M63 163v337h142v-304q0 -94 75 -94q50 0 75 40t25 111v247h142v-500h-132q1 47 48 115h-61q-21 -60 -61.5 -95.5t-96.5 -35.5q-71 0 -113.5 48.5t-42.5 130.5zM120 695h98q2 -22 22 -40.5t52 -18.5q33 0 52.5 18.5t21.5 40.5h99q-2 -63 -44.5 -103.5t-128.5 -40.5
q-85 0 -127.5 40.5t-44.5 103.5z" />
    <glyph glyph-name="Uring" unicode="&#x16e;" horiz-adv-x="780" 
d="M76 273v427h152v-403q0 -90 41 -136.5t121 -46.5q162 0 162 183v403h152v-427q0 -133 -87 -211t-227 -78q-143 0 -228.5 78t-85.5 211zM256 867q0 55 40 92t93 37q54 0 93.5 -37t39.5 -92q0 -54 -39.5 -90.5t-93.5 -36.5t-93.5 36.5t-39.5 90.5zM439 867q0 23 -14.5 37.5
t-35.5 14.5t-35.5 -14.5t-14.5 -37.5q0 -22 14.5 -36.5t35.5 -14.5t35.5 14.5t14.5 36.5z" />
    <glyph glyph-name="uring" unicode="&#x16f;" horiz-adv-x="591" 
d="M63 163v337h142v-304q0 -94 75 -94q50 0 75 40t25 111v247h142v-500h-132q1 47 48 115h-61q-21 -60 -61.5 -95.5t-96.5 -35.5q-71 0 -113.5 48.5t-42.5 130.5zM167 672q0 52 38 87.5t89 35.5q52 0 89 -35.5t37 -87.5t-37 -86.5t-89 -34.5q-51 0 -89 35t-38 86zM341 672
q0 21 -13.5 35t-33.5 14q-21 0 -34.5 -13.5t-13.5 -35.5t13.5 -35.5t34.5 -13.5q20 0 33.5 13.5t13.5 35.5z" />
    <glyph glyph-name="Uhungarumlaut" unicode="&#x170;" horiz-adv-x="780" 
d="M76 273v427h152v-403q0 -90 41 -136.5t121 -46.5q162 0 162 183v403h152v-427q0 -133 -87 -211t-227 -78q-143 0 -228.5 78t-85.5 211zM231 766l55 154h171l-122 -154h-104zM438 766l55 154h171l-122 -154h-104z" />
    <glyph glyph-name="uhungarumlaut" unicode="&#x171;" horiz-adv-x="591" 
d="M63 163v337h142v-304q0 -94 75 -94q50 0 75 40t25 111v247h142v-500h-132q1 47 48 115h-61q-21 -60 -61.5 -95.5t-96.5 -35.5q-71 0 -113.5 48.5t-42.5 130.5zM151 566l50 154h155l-110 -154h-95zM339 566l50 154h155l-110 -154h-95z" />
    <glyph glyph-name="Uogonek" unicode="&#x172;" horiz-adv-x="780" 
d="M285 -114q0 32 15 54t51 46q-130 9 -202.5 87t-72.5 200v427h152v-403q0 -90 41 -136.5t121 -46.5q162 0 162 183v403h152v-427q0 -103 -53 -174.5t-145 -98.5q-69 -20 -95 -38.5t-26 -41.5q0 -34 57 -34q28 0 64 10v-91q-49 -15 -89 -15q-61 0 -96.5 26.5t-35.5 69.5z
" />
    <glyph glyph-name="uogonek" unicode="&#x173;" horiz-adv-x="591" 
d="M401 -80q0 -34 57 -34q28 0 64 10v-91q-45 -15 -84 -15q-64 0 -100.5 26t-36.5 74q0 67 93 110h-4q1 47 48 115h-61q-21 -60 -61.5 -95.5t-96.5 -35.5q-71 0 -113.5 48.5t-42.5 130.5v337h142v-304q0 -94 75 -94q50 0 75 40t25 111v247h142v-500q-121 -32 -121 -80z" />
    <glyph glyph-name="Wcircumflex" unicode="&#x174;" horiz-adv-x="1058" 
d="M207 0l-189 700h166l60 -277q14 -67 19 -132q4 -55 4 -151h55q0 140 22 222l89 338h198l89 -338q12 -46 17 -100q3 -36 5 -122h55q0 97 4 152q5 66 19 131l61 277h161l-192 -700h-170l-93 352q-18 71 -22 110q-4 41 -4 109h-55q0 -56 -5 -108q-4 -42 -23 -111l-97 -352
h-174zM315 766l121 129h189l121 -129h-134l-81 71l-82 -71h-134z" />
    <glyph glyph-name="wcircumflex" unicode="&#x175;" horiz-adv-x="862" 
d="M171 0l-160 500h146l37 -148q13 -49 18 -86q7 -38 8 -70q2 -27 4 -101h53q2 98 5 132q4 45 18 98l46 175h169l46 -174q13 -52 18 -101q6 -59 7 -130h52l3 102q6 78 31 172l34 131h145l-160 -500h-171l-42 161q-16 63 -20 108q-3 36 -5 130q-1 3 -1 15h-55
q0 -17 -0.5 -51.5t-1.5 -47.5q-2 -76 -22 -152l-43 -163h-159zM235 566l110 129h172l110 -129h-122l-74 71l-74 -71h-122z" />
    <glyph glyph-name="Ycircumflex" unicode="&#x176;" horiz-adv-x="676" 
d="M263 0v285l-254 415h176l79 -136q22 -37 33 -71q16 -44 17 -138h54q2 71 11 112t41 99l73 134h171l-249 -415v-285h-152zM122 766l121 129h189l121 -129h-134l-81 71l-82 -71h-134z" />
    <glyph glyph-name="ycircumflex" unicode="&#x177;" horiz-adv-x="560" 
d="M400 500h148l-209 -580q-23 -61 -58 -88t-99 -27h-149v113h130q27 0 40 11t25 45l9 26l-242 500h154l83 -192q32 -70 33 -186h53q2 83 4 112q5 38 19 83zM78 566l110 129h172l110 -129h-122l-74 71l-74 -71h-122z" />
    <glyph glyph-name="Ydieresis" unicode="&#x178;" horiz-adv-x="676" 
d="M263 0v285l-254 415h176l79 -136q22 -37 33 -71q16 -44 17 -138h54q2 71 11 112t41 99l73 134h171l-249 -415v-285h-152zM146 766v120h145v-120h-145zM388 766v120h145v-120h-145z" />
    <glyph glyph-name="Zacute" unicode="&#x179;" horiz-adv-x="666" 
d="M44 0v177l446 427l-38 41q-22 -21 -40 -33.5t-53 -24.5t-77 -13h-231v126h561v-172l-448 -429l39 -44q68 74 169 74h258v-129h-586zM280 766l55 154h171l-122 -154h-104z" />
    <glyph glyph-name="zacute" unicode="&#x17a;" horiz-adv-x="499" 
d="M39 0v140l281 271l-36 38q-31 -31 -60 -46.5t-77 -15.5h-96v113h402v-122l-299 -289l36 -37q69 61 145 61h131v-113h-427zM207 566l50 154h155l-110 -154h-95z" />
    <glyph glyph-name="Zdotaccent" unicode="&#x17b;" horiz-adv-x="666" 
d="M44 0v177l446 427l-38 41q-22 -21 -40 -33.5t-53 -24.5t-77 -13h-231v126h561v-172l-448 -429l39 -44q68 74 169 74h258v-129h-586zM256 766v134h151v-134h-151z" />
    <glyph glyph-name="zdotaccent" unicode="&#x17c;" horiz-adv-x="499" 
d="M39 0v140l281 271l-36 38q-31 -31 -60 -46.5t-77 -15.5h-96v113h402v-122l-299 -289l36 -37q69 61 145 61h131v-113h-427zM176 566v134h151v-134h-151z" />
    <glyph glyph-name="Zcaron" unicode="&#x17d;" horiz-adv-x="666" 
d="M44 0v177l446 427l-38 41q-22 -21 -40 -33.5t-53 -24.5t-77 -13h-231v126h561v-172l-448 -429l39 -44q68 74 169 74h258v-129h-586zM546 880l-121 -129h-189l-121 129h134l81 -71l82 71h134z" />
    <glyph glyph-name="zcaron" unicode="&#x17e;" horiz-adv-x="499" 
d="M39 0v140l281 271l-36 38q-31 -31 -60 -46.5t-77 -15.5h-96v113h402v-122l-299 -289l36 -37q69 61 145 61h131v-113h-427zM166 566l-110 129h122l74 -71l74 71h122l-110 -129h-172z" />
    <glyph glyph-name="florin" unicode="&#x192;" horiz-adv-x="469" 
d="M-55 -199v106q30 -5 47 -5q86 0 99 97l24 161q11 73 30 111t69 74l-30 43q-56 -38 -103 -38h-45v89h122l17 107q28 170 193 170q38 0 83 -9v-114q-24 3 -47 3q-42 0 -65 -15.5t-28 -51.5l-14 -90h134v-89h-148l-54 -360q-15 -97 -69 -147.5t-140 -50.5q-39 0 -75 9z" />
    <glyph glyph-name="uni01E2" unicode="&#x1e2;" horiz-adv-x="960" 
d="M913 574h-335v-152h241v-124h-241v-172h335v-126h-486v165h-198l-77 -165h-174l362 700h573v-126zM457 615h-60q-22 -135 -65 -230l-44 -94h139v136q0 86 30 188zM416 776v96h347v-96h-347z" />
    <glyph glyph-name="uni01E3" unicode="&#x1e3;" horiz-adv-x="867" 
d="M37 133q0 90 79.5 132.5t234.5 57.5v20q0 70 -85 70q-38 0 -63.5 -21t-34.5 -58l-127 28q6 61 64.5 107t141.5 46q138 0 174 -99h48q12 43 48 71.5t95 28.5q97 0 157.5 -75.5t60.5 -186.5q0 -16 -2 -38h-353q3 -61 33 -92.5t79 -31.5q78 0 116 87l127 -49
q-26 -59 -83 -104q-55 -42 -153 -42q-150 0 -188 127h-48q-31 -127 -167 -127q-68 0 -111 40t-43 109zM480 314h208q-4 48 -30.5 73.5t-71.5 25.5q-89 0 -106 -99zM351 205v32q-88 -11 -130 -31t-42 -64q0 -25 17 -39.5t49 -14.5q46 0 76 30t30 87zM272 579v96h316v-96h-316
z" />
    <glyph glyph-name="Aringacute" unicode="&#x1fa;" horiz-adv-x="740" 
d="M566 0l-56 164h-284l-58 -164h-163l267 700h197l265 -700h-168zM270 290h197l-52 152q-18 50 -19 173h-54q-2 -78 -5 -105q-3 -34 -14 -69zM322 1013l50 123h155l-110 -123h-95zM245 861q0 51 38 87t89 36q52 0 89 -35.5t37 -87.5t-37 -86.5t-89 -34.5q-51 0 -89 35
t-38 86zM419 861q0 21 -13.5 35t-33.5 14t-34 -14t-14 -35q0 -22 13.5 -35.5t34.5 -13.5q20 0 33.5 13.5t13.5 35.5z" />
    <glyph glyph-name="aringacute" unicode="&#x1fb;" horiz-adv-x="574" 
d="M40 128q1 49 24 85t66.5 58t97 34.5t126.5 19.5v19q0 69 -82 69q-91 0 -110 -79l-128 28q6 63 70.5 108t166.5 45q108 0 165.5 -49t57.5 -145v-183q0 -20 5 -25t25 -5h44v-108h-59q-64 0 -85.5 22.5t-23.5 81.5h-47q-38 -120 -153 -120q-69 0 -114.5 40t-45.5 104z
M354 205v32q-86 -11 -128 -31t-42 -64q0 -54 65 -54q45 0 75 30t30 87zM224 824l50 123h155l-110 -123h-95zM147 672q0 51 38 87t89 36q52 0 89 -35.5t37 -87.5t-37 -86.5t-89 -34.5q-51 0 -89 35t-38 86zM321 672q0 21 -13.5 35t-33.5 14t-34 -13.5t-14 -35.5t13.5 -35.5
t34.5 -13.5q20 0 33.5 13.5t13.5 35.5z" />
    <glyph glyph-name="AEacute" unicode="&#x1fc;" horiz-adv-x="960" 
d="M913 574h-335v-152h241v-124h-241v-172h335v-126h-486v165h-198l-77 -165h-174l362 700h573v-126zM457 615h-60q-22 -135 -65 -230l-44 -94h139v136q0 86 30 188zM538 766l55 154h171l-122 -154h-104z" />
    <glyph glyph-name="aeacute" unicode="&#x1fd;" horiz-adv-x="867" 
d="M37 133q0 90 79.5 132.5t234.5 57.5v20q0 70 -85 70q-38 0 -63.5 -21t-34.5 -58l-127 28q6 61 64.5 107t141.5 46q138 0 174 -99h48q12 43 48 71.5t95 28.5q97 0 157.5 -75.5t60.5 -186.5q0 -16 -2 -38h-353q3 -61 33 -92.5t79 -31.5q78 0 116 87l127 -49
q-26 -59 -83 -104q-55 -42 -153 -42q-150 0 -188 127h-48q-31 -127 -167 -127q-68 0 -111 40t-43 109zM480 314h208q-4 48 -30.5 73.5t-71.5 25.5q-89 0 -106 -99zM351 205v32q-88 -11 -130 -31t-42 -64q0 -25 17 -39.5t49 -14.5q46 0 76 30t30 87zM385 566l50 154h155
l-110 -154h-95z" />
    <glyph glyph-name="Oslashacute" unicode="&#x1fe;" horiz-adv-x="832" 
d="M174 -67l-102 77l63 81q-93 101 -93 256q0 160 102.5 264t271.5 104q101 0 176 -37l67 86l102 -79l-64 -82q93 -104 93 -256q2 -159 -101 -263t-273 -102q-98 0 -176 35zM232 214l177 230q32 41 60.5 58.5t66.5 19.5v51q-48 16 -110 16q-107 0 -166 -65.5t-59 -170.5
q0 -82 31 -139zM631 345q0 79 -30 135l-176 -226q-55 -70 -129 -72v-55q42 -18 110 -18q107 0 166 65t59 171zM364 766l55 154h171l-122 -154h-104z" />
    <glyph glyph-name="oslashacute" unicode="&#x1ff;" horiz-adv-x="598" 
d="M160 21l-42 -50l-69 55l44 52q-57 69 -57 172q0 118 74 191.5t189 73.5q79 0 137 -34l44 52l68 -56l-44 -52q58 -71 58 -175q0 -120 -73.5 -193t-189.5 -73q-78 0 -139 37zM190 192l72 86q33 39 59 53.5t61 12.5v47q-36 16 -78 16q-55 0 -87.5 -41t-32.5 -117
q0 -31 6 -57zM414 247q0 40 -7 64l-72 -86q-57 -69 -107 -69q-7 0 -13 1v-47q26 -17 72 -17q61 0 94 39t33 115zM254 566l50 154h155l-110 -154h-95z" />
    <glyph glyph-name="uni0218" unicode="&#x218;" horiz-adv-x="685" 
d="M28 200l143 48q13 -61 58 -102t119 -41q68 0 102.5 24t34.5 66q0 69 -114 86l-87 12q-221 31 -221 210q0 91 74.5 152t202.5 61q122 0 196 -51.5t100 -135.5l-140 -49q-37 115 -156 115q-59 0 -89 -24t-30 -62q0 -62 90 -75l87 -12q117 -16 181 -71t64 -146
q0 -97 -76 -159t-219 -62q-134 0 -216 60t-104 156zM269 -335l81 140h-79v134h140v-134l-82 -140h-60z" />
    <glyph glyph-name="uni0219" unicode="&#x219;" horiz-adv-x="525" 
d="M27 129l129 41q6 -27 29 -56q22 -28 85 -28q35 0 55.5 14t20.5 36q0 21 -14 33.5t-48 19.5l-71 14q-87 17 -126.5 51t-39.5 103q0 72 58 115t157 43q82 0 136.5 -34t74.5 -81l-117 -53q-26 70 -101 70q-34 0 -52.5 -13t-18.5 -35q0 -21 14.5 -31.5t54.5 -17.5l69 -13
q172 -33 172 -156q0 -76 -62 -120.5t-170 -44.5q-89 0 -154.5 39t-80.5 104zM192 -335l81 140h-79v134h140v-134l-82 -140h-60z" />
    <glyph glyph-name="uni021A" unicode="&#x21a;" horiz-adv-x="652" 
d="M250 0v574h-240v126h632v-126h-240v-574h-152zM253 -335l81 140h-79v134h140v-134l-82 -140h-60z" />
    <glyph glyph-name="uni021B" unicode="&#x21b;" horiz-adv-x="436" 
d="M120 131v261h-105v108h105v157h142v-157h130v-108h-130v-235q0 -23 10.5 -33.5t33.5 -10.5h108v-113h-167q-59 0 -93 36t-34 95zM183 -335l81 140h-79v134h140v-134l-82 -140h-60z" />
    <glyph glyph-name="uni0226" unicode="&#x226;" horiz-adv-x="740" 
d="M566 0l-56 164h-284l-58 -164h-163l267 700h197l265 -700h-168zM270 290h197l-52 152q-18 50 -19 173h-54q-2 -78 -5 -105q-3 -34 -14 -69zM295 766v134h151v-134h-151z" />
    <glyph glyph-name="uni0227" unicode="&#x227;" horiz-adv-x="574" 
d="M40 128q1 49 24 85t66.5 58t97 34.5t126.5 19.5v19q0 69 -82 69q-91 0 -110 -79l-128 28q6 63 70.5 108t166.5 45q108 0 165.5 -49t57.5 -145v-183q0 -20 5 -25t25 -5h44v-108h-59q-64 0 -85.5 22.5t-23.5 81.5h-47q-38 -120 -153 -120q-69 0 -114.5 40t-45.5 104z
M354 205v32q-86 -11 -128 -31t-42 -64q0 -54 65 -54q45 0 75 30t30 87zM197 566v134h151v-134h-151z" />
    <glyph glyph-name="uni0232" unicode="&#x232;" horiz-adv-x="676" 
d="M263 0v285l-254 415h176l79 -136q22 -37 33 -71q16 -44 17 -138h54q2 71 11 112t41 99l73 134h171l-249 -415v-285h-152zM165 776v96h347v-96h-347z" />
    <glyph glyph-name="uni0233" unicode="&#x233;" horiz-adv-x="560" 
d="M400 500h148l-209 -580q-23 -61 -58 -88t-99 -27h-149v113h130q27 0 40 11t25 45l9 26l-242 500h154l83 -192q32 -70 33 -186h53q2 83 4 112q5 38 19 83zM116 579v96h316v-96h-316z" />
    <glyph glyph-name="uni0237" unicode="&#x237;" horiz-adv-x="288" 
d="M-40 -195v113h72q24 0 34.5 10.5t10.5 33.5v538h142v-564q0 -61 -34 -96t-94 -35h-131z" />
    <glyph glyph-name="circumflex" unicode="&#x2c6;" horiz-adv-x="833" 
d="M115 566l110 129h172l110 -129h-122l-74 71l-74 -71h-122z" />
    <glyph glyph-name="caron" unicode="&#x2c7;" horiz-adv-x="833" 
d="M219 566l-110 129h122l74 -71l74 71h122l-110 -129h-172z" />
    <glyph glyph-name="breve" unicode="&#x2d8;" horiz-adv-x="477" 
d="M66 695h98q2 -22 22 -40.5t52 -18.5q33 0 52.5 18.5t21.5 40.5h99q-2 -63 -44.5 -103.5t-128.5 -40.5q-85 0 -127.5 40.5t-44.5 103.5z" />
    <glyph glyph-name="dotaccent" unicode="&#x2d9;" horiz-adv-x="328" 
d="M99 566v134h151v-134h-151z" />
    <glyph glyph-name="ring" unicode="&#x2da;" horiz-adv-x="372" 
d="M60 672q0 52 38 87.5t89 35.5q52 0 89 -35.5t37 -87.5t-37 -86.5t-89 -34.5q-51 0 -89 35t-38 86zM234 672q0 21 -13.5 35t-33.5 14q-21 0 -34.5 -13.5t-13.5 -35.5t13.5 -35.5t34.5 -13.5q20 0 33.5 13.5t13.5 35.5z" />
    <glyph glyph-name="ogonek" unicode="&#x2db;" horiz-adv-x="319" 
d="M28 -110q0 41 40 78q39 36 152 68l29 -36q-121 -32 -121 -80q0 -34 57 -34q28 0 64 10v-91q-45 -15 -84 -15q-64 0 -100.5 26t-36.5 74z" />
    <glyph glyph-name="tilde" unicode="&#x2dc;" horiz-adv-x="504" 
d="M255 582l-25 15q-34 18 -49 18q-36 0 -38 -49h-102q0 66 35.5 102.5t96.5 36.5q39 0 86 -26l25 -15q30 -18 49 -18q36 0 38 49h98q0 -139 -128 -139q-41 0 -86 26z" />
    <glyph glyph-name="hungarumlaut" unicode="&#x2dd;" horiz-adv-x="512" 
d="M79 566l50 154h155l-110 -154h-95zM267 566l50 154h155l-110 -154h-95z" />
    <glyph glyph-name="gravecomb" unicode="&#x300;" horiz-adv-x="0" 
d="M-103 566l-110 154h156l50 -154h-96z" />
    <glyph glyph-name="acutecomb" unicode="&#x301;" horiz-adv-x="0" 
d="M-186 566l50 154h155l-110 -154h-95z" />
    <glyph glyph-name="uni0302" unicode="&#x302;" horiz-adv-x="0" 
d="M-406 566l110 129h172l110 -129h-122l-74 71l-74 -71h-122z" />
    <glyph glyph-name="tildecomb" unicode="&#x303;" horiz-adv-x="0" 
d="M-218 582l-25 15q-35 18 -49 18q-36 0 -38 -49h-102q0 66 35.5 102.5t96.5 36.5q39 0 86 -26l25 -15q30 -18 49 -18q36 0 38 49h98q0 -139 -128 -139q-40 0 -86 26z" />
    <glyph glyph-name="uni0304" unicode="&#x304;" horiz-adv-x="0" 
d="M-346 579v96h316v-96h-316z" />
    <glyph glyph-name="uni0306" unicode="&#x306;" horiz-adv-x="0" 
d="M-366 695h98q2 -22 22 -40.5t52 -18.5q33 0 52.5 18.5t21.5 40.5h99q-2 -63 -44.5 -103.5t-128.5 -40.5q-85 0 -127.5 40.5t-44.5 103.5z" />
    <glyph glyph-name="uni0307" unicode="&#x307;" horiz-adv-x="0" 
d="M-161 566v134h151v-134h-151z" />
    <glyph glyph-name="uni0308" unicode="&#x308;" horiz-adv-x="0" 
d="M-382 575v120h132v-120h-132zM-162 575v120h132v-120h-132z" />
    <glyph glyph-name="uni030A" unicode="&#x30a;" horiz-adv-x="0" 
d="M-262 672q0 52 38 87.5t89 35.5q52 0 89 -35.5t37 -87.5t-37 -86.5t-89 -34.5q-51 0 -89 35t-38 86zM-88 672q0 21 -13.5 35t-33.5 14q-21 0 -34.5 -13.5t-13.5 -35.5t13.5 -35.5t34.5 -13.5q20 0 33.5 13.5t13.5 35.5z" />
    <glyph glyph-name="uni030B" unicode="&#x30b;" horiz-adv-x="0" 
d="M-381 566l50 154h155l-110 -154h-95zM-193 566l50 154h155l-110 -154h-95z" />
    <glyph glyph-name="uni030C" unicode="&#x30c;" horiz-adv-x="0" 
d="M-312 566l-110 129h122l74 -71l74 71h122l-110 -129h-172z" />
    <glyph glyph-name="uni0312" unicode="&#x312;" horiz-adv-x="0" 
d="M1 840l-81 -140h79v-135h-140v135l82 140h60z" />
    <glyph glyph-name="dotbelowcomb" unicode="&#x323;" horiz-adv-x="0" 
d="M-140 -195v134h151v-134h-151z" />
    <glyph glyph-name="uni0326" unicode="&#x326;" horiz-adv-x="0" 
d="M-146 -335l81 140h-79v134h140v-134l-82 -140h-60z" />
    <glyph glyph-name="uni0327" unicode="&#x327;" horiz-adv-x="0" 
d="M-38 -139q0 -40 -33.5 -68t-99.5 -28q-37 0 -71.5 15.5t-53.5 36.5l49 65q35 -34 75 -34q38 0 38 22t-35 22q-15 0 -27 -3l-37 48l65 63h90l-31 -27l-12 -10l-14 -13h3q36 0 65 -23t29 -66z" />
    <glyph glyph-name="uni0328" unicode="&#x328;" horiz-adv-x="0" 
d="M-265 -110q0 40 41 78q39 36 151 68l29 -36q-121 -32 -121 -80q0 -34 57 -34q28 0 64 10v-91q-45 -15 -84 -15q-64 0 -100.5 26t-36.5 74z" />
    <glyph glyph-name="uni0394" unicode="&#x394;" horiz-adv-x="739" 
d="M469 700l265 -700h-729l267 700h197zM212 126h311l-108 316q-18 50 -19 173h-54q-2 -78 -5 -105q-3 -34 -14 -69z" />
    <glyph glyph-name="uni03A9" unicode="&#x3a9;" horiz-adv-x="831" 
d="M47 0v126h27q37 0 66 -10q41 -13 94 -52l31 51q-211 87 -211 266q-2 136 99 237t260 98q159 3 260 -98t99 -237q0 -179 -211 -266l31 -51q1 0 29 20q55 42 131 42h27v-126h-325v126q75 15 117.5 74t42.5 155q0 106 -54.5 170.5t-146.5 64.5t-146.5 -64.5t-54.5 -170.5
q0 -97 42 -155.5t118 -73.5v-126h-325z" />
    <glyph glyph-name="uni03BC" unicode="&#x3bc;" horiz-adv-x="597" 
d="M69 -195v695h142v-304q0 -94 75 -94q49 0 74.5 41t25.5 110v247h142v-500h-132q0 47 48 115h-61q-46 -131 -158 -131h-14v-179h-142z" />
    <glyph glyph-name="pi" unicode="&#x3c0;" horiz-adv-x="673" 
d="M117 0v387h-100v113h614v-113h-100v-231q0 -23 11 -33t35 -10h53v-113h-91q-150 0 -150 133v254h-130v-387h-142z" />
    <glyph glyph-name="Wgrave" unicode="&#x1e80;" horiz-adv-x="1058" 
d="M207 0l-189 700h166l60 -277q14 -67 19 -132q4 -55 4 -151h55q0 140 22 222l89 338h198l89 -338q12 -46 17 -100q3 -36 5 -122h55q0 97 4 152q5 66 19 131l61 277h161l-192 -700h-170l-93 352q-18 71 -22 110q-4 41 -4 109h-55q0 -56 -5 -108q-4 -42 -23 -111l-97 -352
h-174zM482 766l-121 154h172l55 -154h-106z" />
    <glyph glyph-name="wgrave" unicode="&#x1e81;" horiz-adv-x="862" 
d="M171 0l-160 500h146l37 -148q13 -49 18 -86q7 -38 8 -70q2 -27 4 -101h53q2 98 5 132q4 45 18 98l46 175h169l46 -174q13 -52 18 -101q6 -59 7 -130h52l3 102q6 78 31 172l34 131h145l-160 -500h-171l-42 161q-16 63 -20 108q-3 36 -5 130q-1 3 -1 15h-55
q0 -17 -0.5 -51.5t-1.5 -47.5q-2 -76 -22 -152l-43 -163h-159zM383 566l-110 154h156l50 -154h-96z" />
    <glyph glyph-name="Wacute" unicode="&#x1e82;" horiz-adv-x="1058" 
d="M207 0l-189 700h166l60 -277q14 -67 19 -132q4 -55 4 -151h55q0 140 22 222l89 338h198l89 -338q12 -46 17 -100q3 -36 5 -122h55q0 97 4 152q5 66 19 131l61 277h161l-192 -700h-170l-93 352q-18 71 -22 110q-4 41 -4 109h-55q0 -56 -5 -108q-4 -42 -23 -111l-97 -352
h-174zM480 766l55 154h171l-122 -154h-104z" />
    <glyph glyph-name="wacute" unicode="&#x1e83;" horiz-adv-x="862" 
d="M171 0l-160 500h146l37 -148q13 -49 18 -86q7 -38 8 -70q2 -27 4 -101h53q2 98 5 132q4 45 18 98l46 175h169l46 -174q13 -52 18 -101q6 -59 7 -130h52l3 102q6 78 31 172l34 131h145l-160 -500h-171l-42 161q-16 63 -20 108q-3 36 -5 130q-1 3 -1 15h-55
q0 -17 -0.5 -51.5t-1.5 -47.5q-2 -76 -22 -152l-43 -163h-159zM386 566l50 154h155l-110 -154h-95z" />
    <glyph glyph-name="Wdieresis" unicode="&#x1e84;" horiz-adv-x="1058" 
d="M207 0l-189 700h166l60 -277q14 -67 19 -132q4 -55 4 -151h55q0 140 22 222l89 338h198l89 -338q12 -46 17 -100q3 -36 5 -122h55q0 97 4 152q5 66 19 131l61 277h161l-192 -700h-170l-93 352q-18 71 -22 110q-4 41 -4 109h-55q0 -56 -5 -108q-4 -42 -23 -111l-97 -352
h-174zM339 766v120h145v-120h-145zM581 766v120h145v-120h-145z" />
    <glyph glyph-name="wdieresis" unicode="&#x1e85;" horiz-adv-x="862" 
d="M171 0l-160 500h146l37 -148q13 -49 18 -86q7 -38 8 -70q2 -27 4 -101h53q2 98 5 132q4 45 18 98l46 175h169l46 -174q13 -52 18 -101q6 -59 7 -130h52l3 102q6 78 31 172l34 131h145l-160 -500h-171l-42 161q-16 63 -20 108q-3 36 -5 130q-1 3 -1 15h-55
q0 -17 -0.5 -51.5t-1.5 -47.5q-2 -76 -22 -152l-43 -163h-159zM255 575v120h132v-120h-132zM475 575v120h132v-120h-132z" />
    <glyph glyph-name="uni1E9E" unicode="&#x1e9e;" horiz-adv-x="736" 
d="M314 9v133q54 -22 101 -22q120 0 120 87q0 38 -31 60t-86 22h-77v133h54q49 0 77.5 19.5t28.5 57.5q0 75 -106 75h-159v-574h-152v700h346q109 0 167 -44.5t58 -114.5q0 -67 -50 -105.5t-130 -41.5v-52q101 3 161 -41t60 -124q0 -86 -66 -139.5t-180 -53.5q-83 0 -136 25
z" />
    <glyph glyph-name="uni1EA0" unicode="&#x1ea0;" horiz-adv-x="740" 
d="M566 0l-56 164h-284l-58 -164h-163l267 700h197l265 -700h-168zM270 290h197l-52 152q-18 50 -19 173h-54q-2 -78 -5 -105q-3 -34 -14 -69zM291 -195v134h151v-134h-151z" />
    <glyph glyph-name="uni1EA1" unicode="&#x1ea1;" horiz-adv-x="574" 
d="M40 128q1 49 24 85t66.5 58t97 34.5t126.5 19.5v19q0 69 -82 69q-91 0 -110 -79l-128 28q6 63 70.5 108t166.5 45q108 0 165.5 -49t57.5 -145v-183q0 -20 5 -25t25 -5h44v-108h-59q-64 0 -85.5 22.5t-23.5 81.5h-47q-38 -120 -153 -120q-69 0 -114.5 40t-45.5 104z
M354 205v32q-86 -11 -128 -31t-42 -64q0 -54 65 -54q45 0 75 30t30 87zM197 -195v134h151v-134h-151z" />
    <glyph glyph-name="uni1EB8" unicode="&#x1eb8;" horiz-adv-x="660" 
d="M84 0v700h529v-126h-377v-152h285v-124h-285v-172h377v-126h-529zM273 -195v134h151v-134h-151z" />
    <glyph glyph-name="uni1EB9" unicode="&#x1eb9;" horiz-adv-x="570" 
d="M36 251q0 115 72 189.5t181 74.5q113 0 178 -74t65 -191q0 -23 -1 -34h-353q3 -61 33 -92.5t79 -31.5q78 0 116 87l127 -49q-26 -60 -84 -104q-57 -42 -159 -42q-115 0 -184.5 72.5t-69.5 194.5zM183 316h208q-11 97 -102 97q-43 0 -71 -25t-35 -72zM227 -195v134h151
v-134h-151z" />
    <glyph glyph-name="uni1ECA" unicode="&#x1eca;" horiz-adv-x="320" 
d="M84 0v700h152v-700h-152zM84 -195v134h151v-134h-151z" />
    <glyph glyph-name="uni1ECB" unicode="&#x1ecb;" horiz-adv-x="277" 
d="M64 569v131h148v-131h-148zM69 0v500h139v-500h-139zM64 -195v131h148v-131h-148z" />
    <glyph glyph-name="uni1ECC" unicode="&#x1ecc;" horiz-adv-x="832" 
d="M42 348q0 160 102.5 264t271.5 104t271.5 -104t102.5 -264q2 -159 -101 -262t-273 -102q-170 -1 -273 102t-101 262zM631 349q0 107 -58 174t-156 67q-100 0 -158 -67t-58 -174q0 -106 58 -172.5t158 -66.5q98 0 156 66.5t58 172.5zM340 -195v134h151v-134h-151z" />
    <glyph glyph-name="uni1ECD" unicode="&#x1ecd;" horiz-adv-x="596" 
d="M35 250q0 118 74 191.5t189 73.5q116 0 189.5 -73.5t73.5 -191.5q0 -120 -73 -193t-190 -73q-113 0 -188 75.5t-75 190.5zM413 248q0 74 -30.5 114.5t-84.5 40.5t-84.5 -40.5t-30.5 -114.5t30.5 -112.5t84.5 -38.5t84.5 38.5t30.5 112.5zM222 -195v134h151v-134h-151z
" />
    <glyph glyph-name="uni1EE4" unicode="&#x1ee4;" horiz-adv-x="780" 
d="M76 273v427h152v-403q0 -90 41 -136.5t121 -46.5q162 0 162 183v403h152v-427q0 -133 -87 -211t-227 -78q-143 0 -228.5 78t-85.5 211zM316 -195v134h151v-134h-151z" />
    <glyph glyph-name="uni1EE5" unicode="&#x1ee5;" horiz-adv-x="591" 
d="M63 163v337h142v-304q0 -94 75 -94q50 0 75 40t25 111v247h142v-500h-132q1 47 48 115h-61q-21 -60 -61.5 -95.5t-96.5 -35.5q-71 0 -113.5 48.5t-42.5 130.5zM217 -195v134h151v-134h-151z" />
    <glyph glyph-name="Ygrave" unicode="&#x1ef2;" horiz-adv-x="676" 
d="M263 0v285l-254 415h176l79 -136q22 -37 33 -71q16 -44 17 -138h54q2 71 11 112t41 99l73 134h171l-249 -415v-285h-152zM289 766l-121 154h172l55 -154h-106z" />
    <glyph glyph-name="ygrave" unicode="&#x1ef3;" horiz-adv-x="560" 
d="M400 500h148l-209 -580q-23 -61 -58 -88t-99 -27h-149v113h130q27 0 40 11t25 45l9 26l-242 500h154l83 -192q32 -70 33 -186h53q2 83 4 112q5 38 19 83zM226 566l-110 154h156l50 -154h-96z" />
    <glyph glyph-name="uni2002" unicode="&#x2002;" horiz-adv-x="500" 
 />
    <glyph glyph-name="uni2003" unicode="&#x2003;" horiz-adv-x="1000" 
 />
    <glyph glyph-name="uni2009" unicode="&#x2009;" horiz-adv-x="125" 
 />
    <glyph glyph-name="endash" unicode="&#x2013;" horiz-adv-x="646" 
d="M61 261v114h524v-114h-524z" />
    <glyph glyph-name="emdash" unicode="&#x2014;" horiz-adv-x="896" 
d="M61 261v114h774v-114h-774z" />
    <glyph glyph-name="quoteleft" unicode="&#x2018;" horiz-adv-x="268" 
d="M212 701l-91 -157h88v-150h-157v150l93 157h67z" />
    <glyph glyph-name="quoteright" unicode="&#x2019;" horiz-adv-x="259" 
d="M58 393l91 157h-88v150h157v-150l-93 -157h-67z" />
    <glyph glyph-name="quotesinglbase" unicode="&#x201a;" horiz-adv-x="278" 
d="M58 -157l91 157h-88v150h157v-150l-93 -157h-67z" />
    <glyph glyph-name="quotedblleft" unicode="&#x201c;" horiz-adv-x="478" 
d="M212 701l-91 -157h88v-150h-157v150l93 157h67zM422 701l-91 -157h88v-150h-157v150l92 157h68z" />
    <glyph glyph-name="quotedblright" unicode="&#x201d;" horiz-adv-x="469" 
d="M58 393l91 157h-88v150h157v-150l-93 -157h-67zM268 393l91 157h-88v150h157v-150l-93 -157h-67z" />
    <glyph glyph-name="quotedblbase" unicode="&#x201e;" horiz-adv-x="488" 
d="M58 -157l91 157h-88v150h157v-150l-93 -157h-67zM268 -157l91 157h-88v150h157v-150l-93 -157h-67z" />
    <glyph glyph-name="dagger" unicode="&#x2020;" 
d="M234 -99v479h-205v126h205v194h152v-194h205v-126h-205v-479h-152z" />
    <glyph glyph-name="daggerdbl" unicode="&#x2021;" horiz-adv-x="652" 
d="M250 -99v193h-205v126h205v160h-205v126h205v194h152v-194h205v-126h-205v-160h205v-126h-205v-193h-152z" />
    <glyph glyph-name="bullet" unicode="&#x2022;" horiz-adv-x="548" 
d="M65 349q0 86 62 148t147 62q86 0 147.5 -62t61.5 -148q0 -84 -61.5 -146t-147.5 -62q-85 0 -147 62t-62 146z" />
    <glyph glyph-name="ellipsis" unicode="&#x2026;" horiz-adv-x="803" 
d="M59 0v158h165v-158h-165zM319 0v158h165v-158h-165zM579 0v158h165v-158h-165z" />
    <glyph glyph-name="perthousand" unicode="&#x2030;" horiz-adv-x="1104" 
d="M205 289q-79 0 -125.5 57t-46.5 152q0 96 46.5 153.5t125.5 57.5t126 -57.5t47 -153.5q0 -95 -47 -152t-126 -57zM641 700h123l-510 -700h-124zM205 381q57 0 57 117q0 119 -57 119q-26 0 -41 -31t-15 -88q0 -117 56 -117zM1092 200q0 -95 -47 -152t-126 -57
q-72 0 -116 47q-47 -47 -117 -47q-79 0 -125.5 57t-46.5 152q0 96 46.5 153.5t125.5 57.5q70 0 117 -47q44 47 116 47q79 0 126 -57.5t47 -153.5zM743 200q0 119 -57 119q-26 0 -41 -31t-15 -88q0 -117 56 -117q57 0 57 117zM976 200q0 119 -57 119q-26 0 -41 -31t-15 -88
q0 -117 56 -117q57 0 57 117z" />
    <glyph glyph-name="guilsinglleft" unicode="&#x2039;" horiz-adv-x="351" 
d="M323 490l-145 -238l144 -239h-150l-141 239l142 238h150z" />
    <glyph glyph-name="guilsinglright" unicode="&#x203a;" horiz-adv-x="349" 
d="M179 490l141 -239l-142 -238h-150l145 238l-144 239h150z" />
    <glyph glyph-name="fraction" unicode="&#x2044;" horiz-adv-x="200" 
d="M-219 0l511 700h123l-510 -700h-124z" />
    <glyph glyph-name="uni2070" unicode="&#x2070;" horiz-adv-x="429" 
d="M42 589q0 96 46.5 153.5t125.5 57.5t126 -57.5t47 -153.5q0 -95 -47 -152t-126 -57t-125.5 57t-46.5 152zM271 589q0 119 -57 119q-26 0 -41 -31t-15 -88q0 -117 56 -117q57 0 57 117z" />
    <glyph glyph-name="uni2074" unicode="&#x2074;" horiz-adv-x="415" 
d="M220 389v90h-188v96l156 216h134v-224h56v-88h-56v-90h-102zM220 567v26q0 41 51 92l-32 26l-123 -169l31 -21q16 26 29 36t31 10h13z" />
    <glyph glyph-name="uni2075" unicode="&#x2075;" horiz-adv-x="397" 
d="M35 496l103 28q13 -53 56 -53q22 0 36.5 14t14.5 37t-13 37t-34 14q-29 0 -46 -29l-101 21l35 226h257v-92h-174l-3 -23q-6 -44 -35 -78h47q20 54 74 54q44 0 74.5 -32.5t30.5 -89.5q0 -69 -44.5 -109.5t-115.5 -40.5q-66 0 -109 31t-53 85z" />
    <glyph glyph-name="uni2076" unicode="&#x2076;" horiz-adv-x="407" 
d="M41 572q0 106 53.5 167t148.5 61q67 0 99 -21v-101q-51 26 -103 26q-107 0 -113 -112h39q16 70 87 70q48 0 81 -33.5t33 -96.5q0 -68 -43.5 -110t-112.5 -42q-76 0 -122.5 53t-46.5 139zM255 525q0 24 -13.5 39t-34.5 15t-34.5 -15t-13.5 -39t13.5 -39t34.5 -15
t34.5 15.5t13.5 38.5z" />
    <glyph glyph-name="uni2077" unicode="&#x2077;" horiz-adv-x="366" 
d="M243 699l19 12l-22 35q-58 -47 -132 -47h-76v92h303v-104q-65 -44 -101.5 -123.5t-34.5 -174.5h-115q-2 104 40.5 183t118.5 127z" />
    <glyph glyph-name="uni2078" unicode="&#x2078;" horiz-adv-x="402" 
d="M41 490q0 39 27.5 62t78.5 26v42q-95 2 -95 78q0 47 40.5 74.5t107.5 27.5q68 0 109.5 -27.5t41.5 -74.5q0 -35 -27 -56t-71 -22v-42q48 -3 77.5 -26.5t29.5 -61.5q0 -51 -43.5 -80.5t-116.5 -29.5t-116 29.5t-43 80.5zM243 672q0 18 -11.5 28.5t-30.5 10.5t-30.5 -10.5
t-11.5 -28.5t11.5 -29t30.5 -11q20 0 31 11t11 29zM247 514q0 43 -47 43q-46 0 -46 -43t46 -43q47 0 47 43z" />
    <glyph glyph-name="uni2079" unicode="&#x2079;" horiz-adv-x="406" 
d="M61 400v103q57 -25 113 -25q50 0 79 32t30 79h-41q-18 -67 -88 -67q-45 0 -78.5 38t-33.5 93q0 63 43 105t109 42q63 0 115 -47q55 -50 55 -151q0 -105 -52.5 -163.5t-146.5 -58.5q-63 0 -104 20zM243 658q0 23 -12.5 37t-32.5 14t-32.5 -14.5t-12.5 -36.5
q0 -23 12.5 -37.5t32.5 -14.5t32.5 14.5t12.5 37.5z" />
    <glyph glyph-name="uni20A9" unicode="&#x20a9;" horiz-adv-x="1229" 
d="M1197 399h-154l-16 -59h130v-85h-153l-70 -255h-170l-64 255h-168l-67 -255h-174l-69 255h-150v85h127l-15 59h-152v85h129l-59 216h166l43 -216h152l54 216h198l52 -216h154l44 216h161l-59 -216h130v-85zM645 571h-55q-2 -49 -6 -87h66q-3 27 -5 87zM328 399l9 -59h91
l5 22l9 37h-114zM554 340h125l-3 12l-3 12l-8 35h-96l-12 -47zM903 399h-115l9 -37l5 -22h92q1 18 9 59zM414 255h-68q3 -36 5 -115h55q2 74 8 115zM885 255h-68q9 -57 9 -115h55q2 80 4 115z" />
    <glyph glyph-name="Euro" unicode="&#x20ac;" horiz-adv-x="712" 
d="M110 220h-75v90h60q-2 30 -2 35q0 4 2 34h-60v90h72q27 113 104 180t181 67q111 0 185 -57t98 -159l-140 -46q-12 64 -50 100t-99 36q-52 0 -95 -35t-71 -96l39 -28q32 38 75 38h69v-90h-162q-2 -30 -2 -34q0 -5 2 -35h162v-90h-69q-43 0 -75 38l-39 -28
q59 -119 172 -119q59 0 92.5 34.5t51.5 107.5l142 -52q-36 -111 -105.5 -164t-180.5 -53q-104 0 -179.5 63.5t-102.5 172.5z" />
    <glyph glyph-name="uni20B9" unicode="&#x20b9;" horiz-adv-x="598" 
d="M366 630l-20 -45q53 -13 83 -40h134v-100h-106q-23 -100 -185 -102v-46q80 -2 119.5 -28.5t55.5 -97.5l38 -171h-162l-30 158q-12 63 -38.5 85.5t-90.5 22.5h-114v124h152q74 0 100 55h-252v100h253q-24 55 -101 55h-152v100h513v-100h-69q-70 0 -128 30z" />
    <glyph glyph-name="uni20BA" unicode="&#x20ba;" horiz-adv-x="679" 
d="M160 0v74q0 80 46 142l-46 26q-24 -53 -65 -74l-34 -17v119l99 50v66l-99 -50v119l99 50v200h152v-56q0 -34 -38 -89l48 -23q22 61 94 96l95 48v-118l-199 -100v-67l199 100v-118l-199 -100v-143h20q59 0 109.5 48t74.5 126l137 -66q-39 -107 -131 -175t-259 -68h-103z
" />
    <glyph glyph-name="uni20BD" unicode="&#x20bd;" horiz-adv-x="663" 
d="M378 273h-111v-55h215v-104h-215v-114h-148v114h-71v104h71v55h-71v114h71v313h258q111 0 180 -60.5t69 -160.5q0 -92 -69.5 -149t-178.5 -57zM267 574v-187h89q54 0 85.5 25t31.5 67q0 44 -31.5 69.5t-85.5 25.5h-89z" />
    <glyph glyph-name="uni20BF" unicode="&#x20bf;" horiz-adv-x="692" 
d="M447 2v-106h-92v104h-48v-104h-92v104h-128v700h128v99h92v-99h48v99h92v-101q90 -7 137.5 -51t47.5 -106q0 -67 -50 -105.5t-130 -41.5v-52q91 -2 147 -41.5t56 -116.5q0 -74 -55.5 -123t-152.5 -59zM374 574h-135v-151h135q106 0 106 76q0 40 -26.5 57.5t-79.5 17.5z
M498 213q0 88 -122 88h-137v-175h137q122 0 122 87z" />
    <glyph glyph-name="uni2113" unicode="&#x2113;" horiz-adv-x="523" 
d="M99 162v34q-33 -3 -69 -3v102q36 1 69 6v232q0 84 52.5 133.5t135.5 49.5q101 0 155.5 -55.5t54.5 -146.5q0 -93 -66 -173.5t-191 -119.5v-54q0 -63 46 -63q24 0 41.5 22t23.5 59l137 -56q-16 -63 -70 -104t-135 -41q-89 0 -136.5 46.5t-47.5 131.5zM347 512q0 44 -16 67
t-44 23q-47 0 -47 -66v-69q0 -53 -11 -80.5t-46 -60.5l32 -39q132 81 132 225z" />
    <glyph glyph-name="uni2116" unicode="&#x2116;" horiz-adv-x="1273" 
d="M92 0v700h234l311 -520l45 31q-41 69 -52.5 106.5t-12.5 118.5v264h152v-700h-183l-363 608l-46 -29q37 -69 52 -118t15 -127v-334h-152zM826 501q0 94 55.5 151.5t153.5 57.5q97 0 152.5 -57.5t55.5 -151.5q0 -92 -56.5 -152t-151.5 -60q-97 0 -153 59.5t-56 152.5z
M1119 501q0 61 -22.5 93t-61.5 32q-40 0 -62.5 -32t-22.5 -93q0 -60 23 -94t62 -34q38 0 61 34t23 94z" />
    <glyph glyph-name="uni2117" unicode="&#x2117;" horiz-adv-x="875" 
d="M40 356q-3 161 116 279t281 115q162 3 282 -115t117 -279q2 -105 -52.5 -197.5t-147.5 -146t-199 -51.5q-106 -2 -198.5 51.5t-146.5 145.5t-52 198zM738 356q2 123 -87 213.5t-213 87.5q-125 3 -214 -87.5t-86 -213.5q-3 -123 86 -213t214 -88q124 -2 213 88t87 213z
M307 152v415h193q59 0 96.5 -34t37.5 -87q0 -52 -37 -88t-99 -36h-97v-170h-94zM401 390h72q64 0 64 54q0 53 -66 53h-70v-107z" />
    <glyph glyph-name="trademark" unicode="&#x2122;" horiz-adv-x="973" 
d="M152 320v300h-120v80h338v-80h-121v-300h-97zM411 320v380h159l47 -160q20 -67 22 -150h36q1 76 22 152l45 158h156v-380h-95v127q0 65 39 167l4 12l-40 15l-3 -11l-94 -310h-106l-97 310l-3 10l-40 -17q43 -93 43 -177v-126h-95z" />
    <glyph glyph-name="Omega" unicode="&#x2126;" horiz-adv-x="826" 
d="M46 0v126h27q37 0 66 -10q41 -13 94 -52l31 51q-211 87 -211 266q-2 136 99 237t260 98q159 3 260 -98t99 -237q0 -179 -211 -266l31 -51q1 0 29 20q59 42 131 42h27v-126h-325v126q75 15 117.5 74t42.5 155q0 106 -54.5 170.5t-146.5 64.5t-146.5 -64.5t-54.5 -170.5
q0 -97 42 -155.5t118 -73.5v-126h-325z" />
    <glyph glyph-name="onethird" unicode="&#x2153;" horiz-adv-x="888" 
d="M132 298v196q0 52 28 108h-46q-11 -45 -30 -64t-53 -21v105q89 -2 116 78h94v-402h-109zM103 0l511 700h123l-510 -700h-124zM531 119l109 22q8 -59 55 -59q45 0 45 39q0 38 -52 38h-26v88h26q45 0 45 37q0 16 -10 26t-27 10q-19 0 -30 -15t-11 -42l-110 15q3 59 45 96
t106 37q69 0 108 -27.5t39 -71.5q0 -79 -109 -84v-41q118 -5 118 -89q0 -47 -42.5 -77t-113.5 -30q-70 0 -114.5 34.5t-50.5 93.5z" />
    <glyph glyph-name="twothirds" unicode="&#x2154;" horiz-adv-x="974" 
d="M42 298v101q116 65 153.5 99t37.5 73q0 21 -11 33.5t-30 12.5q-49 0 -47 -76l-108 11q0 69 44.5 113t114.5 44q68 0 110.5 -35t42.5 -89q0 -59 -43 -102q-23 -24 -63 -46q-36 -19 -115 -55l21 -40q45 30 65 38t61 10h74v-92h-307zM192 0l511 700h123l-510 -700h-124z
M620 119l109 22q8 -59 55 -59q45 0 45 39q0 38 -52 38h-26v88h26q45 0 45 37q0 16 -10 26t-27 10q-19 0 -30 -15t-11 -42l-110 15q3 59 45 96t106 37q69 0 108 -27.5t39 -71.5q0 -79 -109 -84v-41q118 -5 118 -89q0 -47 -42.5 -77t-113.5 -30q-70 0 -114.5 34.5t-50.5 93.5z
" />
    <glyph glyph-name="uni2155" unicode="&#x2155;" horiz-adv-x="892" 
d="M132 298v196q0 52 28 108h-46q-11 -45 -30 -64t-53 -21v105q89 -2 116 78h94v-402h-109zM103 0l511 700h123l-510 -700h-124zM531 107l103 28q13 -53 56 -53q22 0 36.5 14t14.5 37t-13 37t-34 14q-29 0 -46 -29l-101 21l35 226h257v-92h-174l-3 -23q-6 -44 -35 -78h47
q20 54 74 54q44 0 74.5 -32.5t30.5 -89.5q0 -69 -44.5 -109.5t-115.5 -40.5q-66 0 -109 31t-53 85z" />
    <glyph glyph-name="uni2156" unicode="&#x2156;" horiz-adv-x="976" 
d="M41 298v101q116 65 153.5 99t37.5 73q0 21 -11 33.5t-30 12.5q-49 0 -47 -76l-108 11q0 69 44.5 113t114.5 44q68 0 110.5 -35t42.5 -89q0 -59 -43 -102q-23 -24 -63 -46q-36 -19 -115 -55l21 -40q45 30 65 38t61 10h74v-92h-307zM191 0l511 700h123l-510 -700h-124z
M619 107l103 28q13 -53 56 -53q22 0 36.5 14t14.5 37t-13 37t-34 14q-29 0 -46 -29l-101 21l35 226h257v-92h-174l-3 -23q-6 -44 -35 -78h47q20 54 74 54q44 0 74.5 -32.5t30.5 -89.5q0 -69 -44.5 -109.5t-115.5 -40.5q-66 0 -109 31t-53 85z" />
    <glyph glyph-name="uni2157" unicode="&#x2157;" horiz-adv-x="979" 
d="M31 417l109 22q8 -59 55 -59q45 0 45 39q0 38 -52 38h-26v88h26q45 0 45 37q0 16 -10 26t-27 10q-19 0 -30 -15t-11 -42l-110 15q3 59 45 96t106 37q69 0 108 -27.5t39 -71.5q0 -79 -109 -84v-41q118 -5 118 -89q0 -47 -42.5 -77t-113.5 -30q-70 0 -114.5 34.5
t-50.5 93.5zM190 0l511 700h123l-510 -700h-124zM618 107l103 28q13 -53 56 -53q22 0 36.5 14t14.5 37t-13 37t-34 14q-29 0 -46 -29l-101 21l35 226h257v-92h-174l-3 -23q-6 -44 -35 -78h47q20 54 74 54q44 0 74.5 -32.5t30.5 -89.5q0 -69 -44.5 -109.5t-115.5 -40.5
q-66 0 -109 31t-53 85z" />
    <glyph glyph-name="uni2158" unicode="&#x2158;" horiz-adv-x="995" 
d="M217 298v90h-188v96l156 216h134v-224h56v-88h-56v-90h-102zM217 476v26q0 41 51 92l-32 26l-123 -169l31 -21q16 26 29 36t31 10h13zM203 0l511 700h123l-510 -700h-124zM631 107l103 28q13 -53 56 -53q22 0 36.5 14t14.5 37t-13 37t-34 14q-29 0 -46 -29l-101 21
l35 226h257v-92h-174l-3 -23q-6 -44 -35 -78h47q20 54 74 54q44 0 74.5 -32.5t30.5 -89.5q0 -69 -44.5 -109.5t-115.5 -40.5q-66 0 -109 31t-53 85z" />
    <glyph glyph-name="uni2159" unicode="&#x2159;" horiz-adv-x="905" 
d="M132 298v196q0 52 28 108h-46q-11 -45 -30 -64t-53 -21v105q89 -2 116 78h94v-402h-109zM103 0l511 700h123l-510 -700h-124zM544 183q0 106 53.5 167t148.5 61q67 0 99 -21v-101q-51 26 -103 26q-107 0 -113 -112h39q16 70 87 70q48 0 81 -33.5t33 -96.5
q0 -68 -43.5 -110t-112.5 -42q-76 0 -122.5 53t-46.5 139zM758 136q0 24 -13.5 39t-34.5 15t-34.5 -15t-13.5 -39t13.5 -39t34.5 -15t34.5 15.5t13.5 38.5z" />
    <glyph glyph-name="uni215A" unicode="&#x215a;" horiz-adv-x="992" 
d="M31 405l103 28q13 -53 56 -53q22 0 36.5 14t14.5 37t-13 37t-34 14q-29 0 -46 -29l-101 21l35 226h257v-92h-174l-3 -23q-6 -44 -35 -78h47q20 54 74 54q44 0 74.5 -32.5t30.5 -89.5q0 -69 -44.5 -109.5t-115.5 -40.5q-66 0 -109 31t-53 85zM190 0l511 700h123l-510 -700
h-124zM631 183q0 106 53.5 167t148.5 61q67 0 99 -21v-101q-51 26 -103 26q-107 0 -113 -112h39q16 70 87 70q48 0 81 -33.5t33 -96.5q0 -68 -43.5 -110t-112.5 -42q-76 0 -122.5 53t-46.5 139zM845 136q0 24 -13.5 39t-34.5 15t-34.5 -15t-13.5 -39t13.5 -39t34.5 -15
t34.5 15.5t13.5 38.5z" />
    <glyph glyph-name="oneeighth" unicode="&#x215b;" horiz-adv-x="896" 
d="M132 298v196q0 52 28 108h-46q-11 -45 -30 -64t-53 -21v105q89 -2 116 78h94v-402h-109zM103 0l511 700h123l-510 -700h-124zM541 101q0 39 27.5 62t78.5 26v42q-95 2 -95 78q0 47 40.5 74.5t107.5 27.5q68 0 109.5 -27.5t41.5 -74.5q0 -35 -27 -56t-71 -22v-42
q48 -3 77.5 -26.5t29.5 -61.5q0 -51 -43.5 -80.5t-116.5 -29.5t-116 29.5t-43 80.5zM743 283q0 18 -11.5 28.5t-30.5 10.5t-30.5 -10.5t-11.5 -28.5t11.5 -29t30.5 -11q20 0 31 11t11 29zM747 125q0 43 -47 43q-46 0 -46 -43t46 -43q47 0 47 43z" />
    <glyph glyph-name="threeeighths" unicode="&#x215c;" horiz-adv-x="983" 
d="M31 417l109 22q8 -59 55 -59q45 0 45 39q0 38 -52 38h-26v88h26q45 0 45 37q0 16 -10 26t-27 10q-19 0 -30 -15t-11 -42l-110 15q3 59 45 96t106 37q69 0 108 -27.5t39 -71.5q0 -79 -109 -84v-41q118 -5 118 -89q0 -47 -42.5 -77t-113.5 -30q-70 0 -114.5 34.5
t-50.5 93.5zM190 0l511 700h123l-510 -700h-124zM628 101q0 39 27.5 62t78.5 26v42q-95 2 -95 78q0 47 40.5 74.5t107.5 27.5q68 0 109.5 -27.5t41.5 -74.5q0 -35 -27 -56t-71 -22v-42q48 -3 77.5 -26.5t29.5 -61.5q0 -51 -43.5 -80.5t-116.5 -29.5t-116 29.5t-43 80.5z
M830 283q0 18 -11.5 28.5t-30.5 10.5t-30.5 -10.5t-11.5 -28.5t11.5 -29t30.5 -11q20 0 31 11t11 29zM834 125q0 43 -47 43q-46 0 -46 -43t46 -43q47 0 47 43z" />
    <glyph glyph-name="fiveeighths" unicode="&#x215d;" horiz-adv-x="984" 
d="M31 405l103 28q13 -53 56 -53q22 0 36.5 14t14.5 37t-13 37t-34 14q-29 0 -46 -29l-101 21l35 226h257v-92h-174l-3 -23q-6 -44 -35 -78h47q20 54 74 54q44 0 74.5 -32.5t30.5 -89.5q0 -69 -44.5 -109.5t-115.5 -40.5q-66 0 -109 31t-53 85zM190 0l511 700h123l-510 -700
h-124zM628 101q0 39 27.5 62t78.5 26v42q-95 2 -95 78q0 47 40.5 74.5t107.5 27.5q68 0 109.5 -27.5t41.5 -74.5q0 -35 -27 -56t-71 -22v-42q48 -3 77.5 -26.5t29.5 -61.5q0 -51 -43.5 -80.5t-116.5 -29.5t-116 29.5t-43 80.5zM830 283q0 18 -11.5 28.5t-30.5 10.5
t-30.5 -10.5t-11.5 -28.5t11.5 -29t30.5 -11q20 0 31 11t11 29zM834 125q0 43 -47 43q-46 0 -46 -43t46 -43q47 0 47 43z" />
    <glyph glyph-name="seveneighths" unicode="&#x215e;" horiz-adv-x="894" 
d="M243 608l19 12l-22 35q-58 -47 -132 -47h-76v92h303v-104q-65 -44 -101.5 -123.5t-34.5 -174.5h-115q-2 104 40.5 183t118.5 127zM102 0l511 700h123l-510 -700h-124zM540 101q0 39 27.5 62t78.5 26v42q-95 2 -95 78q0 47 40.5 74.5t107.5 27.5q68 0 109.5 -27.5
t41.5 -74.5q0 -35 -27 -56t-71 -22v-42q48 -3 77.5 -26.5t29.5 -61.5q0 -51 -43.5 -80.5t-116.5 -29.5t-116 29.5t-43 80.5zM742 283q0 18 -11.5 28.5t-30.5 10.5t-30.5 -10.5t-11.5 -28.5t11.5 -29t30.5 -11q20 0 31 11t11 29zM746 125q0 43 -47 43q-46 0 -46 -43t46 -43
q47 0 47 43z" />
    <glyph glyph-name="uni215F" unicode="&#x215f;" horiz-adv-x="428" 
d="M123 298v196q0 52 28 108h-46q-11 -45 -30 -64t-53 -21v105q89 -2 116 78h94v-402h-109zM94 0l511 700h123l-510 -700h-124z" />
    <glyph glyph-name="arrowleft" unicode="&#x2190;" horiz-adv-x="845" 
d="M800 275h-557v-55q33 0 59 -3q71 -6 128 -63l37 -36l-105 -105l-338 336l338 336l105 -105l-37 -36q-33 -30 -68 -45.5t-58 -18t-61 -2.5v-55h557v-148z" />
    <glyph glyph-name="arrowup" unicode="&#x2191;" horiz-adv-x="714" 
d="M283 0v557h-55q0 -33 -3 -59q-6 -68 -63 -128l-36 -37l-105 105l336 338l336 -338l-105 -105l-36 37q-31 31 -46 66q-20 49 -20 121h-55v-557h-148z" />
    <glyph glyph-name="arrowright" unicode="&#x2192;" horiz-adv-x="845" 
d="M45 423h557v55q-25 0 -59 2q-69 8 -128 64l-37 36l105 105l338 -336l-338 -336l-105 105l37 36q31 32 66 45q49 21 121 21v55h-557v148z" />
    <glyph glyph-name="arrowdown" unicode="&#x2193;" horiz-adv-x="714" 
d="M431 700v-557h55q0 25 2 59q8 69 64 128l36 37l105 -105l-336 -338l-336 338l105 105l36 -37q32 -32 45 -66q21 -49 21 -121h55v557h148z" />
    <glyph glyph-name="uni2196" unicode="&#x2196;" horiz-adv-x="700" 
d="M674 205l-105 -105l-394 394l-39 -39q26 -26 40 -44t29 -54t17 -81l1 -51h-150v476h476v-150l-51 1q-45 2 -79 15q-50 21 -100 71l-39 -39z" />
    <glyph glyph-name="uni2197" unicode="&#x2197;" horiz-adv-x="700" 
d="M132 99l-105 105l394 394l-39 39q-26 -26 -44 -40t-54 -29t-81 -17l-51 -1v150h476v-476h-150l1 51q2 45 15 79q21 50 71 100l-39 39z" />
    <glyph glyph-name="uni2198" unicode="&#x2198;" horiz-adv-x="700" 
d="M26 495l105 105l394 -394l39 39q-26 26 -40 44t-29 54t-17 81l-1 51h150v-476h-476v150l51 -1q46 -2 79 -16q48 -19 100 -70l39 39z" />
    <glyph glyph-name="uni2199" unicode="&#x2199;" horiz-adv-x="700" 
d="M568 601l105 -105l-394 -394l39 -39q26 26 44 40t54 29t81 17l51 1v-150h-476v476h150l-1 -51q-2 -46 -16 -79q-19 -48 -70 -100l39 -39z" />
    <glyph glyph-name="uni21A4" unicode="&#x21a4;" horiz-adv-x="902" 
d="M647 642h154v-584h-154v217h-404v-55q33 0 59 -3q71 -6 129 -63l36 -35l-105 -105l-337 336l337 335l105 -105l-36 -35q-33 -30 -68.5 -45.5t-59 -18t-60.5 -2.5v-55h404v218z" />
    <glyph glyph-name="uni21A5" unicode="&#x21a5;" horiz-adv-x="728" 
d="M436 558v-404h218v-154h-584v154h217v404h-55q0 -34 -3 -60q-7 -71 -63 -128l-35 -36l-105 105l336 337l335 -337l-105 -105l-35 36q-30 33 -45.5 68.5t-18 59t-2.5 60.5h-55z" />
    <glyph glyph-name="uni21A6" unicode="&#x21a6;" horiz-adv-x="900" 
d="M540 686l337 -336l-337 -335l-105 105l36 35q33 30 68.5 45.5t59 18t60.5 2.5v55h-404v-218h-154v584h154v-217h404v55q-26 0 -60 2q-73 9 -128 64l-36 35z" />
    <glyph glyph-name="uni21A7" unicode="&#x21a7;" horiz-adv-x="728" 
d="M597 366l105 -105l-336 -337l-335 337l105 105l35 -35q30 -34 45.5 -69.5t18 -58.5t2.5 -60h55v403h-218v154h584v-154h-217v-403h55q0 25 2 59q8 72 64 129z" />
    <glyph glyph-name="uni21B0" unicode="&#x21b0;" horiz-adv-x="865" 
d="M243 424h557v-424h-154v276h-403v-55q33 0 59 -3q71 -6 128 -63l37 -36l-105 -105l-338 336l338 336l105 -105l-37 -36q-33 -30 -68 -45.5t-58 -18t-61 -2.5v-55z" />
    <glyph glyph-name="uni21B1" unicode="&#x21b1;" horiz-adv-x="863" 
d="M503 686l338 -336l-338 -336l-105 105l37 36q31 31 66 45q49 21 121 21v55h-403v-276h-154v424h557v55q-25 0 -59 2q-69 8 -128 64l-37 36z" />
    <glyph glyph-name="uni21B2" unicode="&#x21b2;" horiz-adv-x="863" 
d="M644 700h154v-424h-557v-55q33 0 59 -3q71 -6 128 -63l37 -36l-105 -105l-338 336l338 336l105 -105l-37 -36q-33 -30 -68 -45.5t-58 -18t-61 -2.5v-55h403v276z" />
    <glyph glyph-name="uni21B3" unicode="&#x21b3;" horiz-adv-x="865" 
d="M503 686l338 -336l-338 -336l-105 105l38 36q32 31 66 45q49 21 121 21v55h-558v424h154v-276h404v55q-26 0 -60 2q-71 8 -127 64l-38 36z" />
    <glyph glyph-name="partialdiff" unicode="&#x2202;" horiz-adv-x="627" 
d="M37 233q0 102 62 165.5t146 63.5q134 0 176 -125h50q-4 115 -74 180.5t-175 65.5q-69 0 -140 -31v138q66 26 159 26q156 0 249 -103.5t93 -279.5q2 -150 -76 -250t-210 -99q-115 0 -187.5 69t-72.5 180zM420 227q0 54 -34.5 89t-84.5 35q-49 0 -83 -33.5t-34 -86.5
q0 -56 34.5 -89.5t84.5 -33.5t83.5 33.5t33.5 85.5z" />
    <glyph glyph-name="Delta" unicode="&#x2206;" horiz-adv-x="776" 
d="M487 700l265 -700h-729l267 700h197zM230 126h311l-108 316q-18 50 -19 173h-54q-2 -76 -4 -105q-3 -36 -15 -69z" />
    <glyph glyph-name="product" unicode="&#x220f;" horiz-adv-x="802" 
d="M768 700v-126h-100v-673h-152v673h-230v-673h-152v673h-100v126h734z" />
    <glyph glyph-name="summation" unicode="&#x2211;" horiz-adv-x="639" 
d="M44 -99v132l251 266l-256 272v129h555v-126l-184 1q-41 0 -76 11q-43 16 -90 58l-42 -39l24 -26l263 -278l-254 -269l-33 -35l42 -39q21 20 39 33q53 36 127 36h194v-126h-560z" />
    <glyph glyph-name="minus" unicode="&#x2212;" horiz-adv-x="658" 
d="M64 293v120h530v-120h-530z" />
    <glyph glyph-name="uni2215" unicode="&#x2215;" horiz-adv-x="377" 
d="M-14 -100l269 905h136l-269 -905h-136z" />
    <glyph glyph-name="radical" unicode="&#x221a;" horiz-adv-x="684" 
d="M239 -99l-145 385h-81v126h183l72 -216q21 -64 25 -98q7 -44 8 -111h53v11q2 81 5.5 113t20.5 85l164 504h152l-287 -799h-170z" />
    <glyph glyph-name="infinity" unicode="&#x221e;" horiz-adv-x="866" 
d="M44 353q0 81 56 138.5t137 57.5q61 0 111 -37t64 -103h44q14 68 63 104t111 36q80 0 136 -57.5t56 -138.5t-56 -138.5t-136 -57.5q-63 0 -112 36t-63 103h-44q-14 -66 -64.5 -102.5t-109.5 -36.5q-81 0 -137 57.5t-56 138.5zM370 355q-32 49 -58 69t-57 20q-36 0 -61 -26
t-25 -65t25 -65t61 -26q30 0 53.5 18.5t61.5 74.5zM697 353q0 39 -25 65t-61 26q-30 0 -55 -19.5t-60 -69.5q36 -55 60.5 -74t54.5 -19q36 0 61 26t25 65z" />
    <glyph glyph-name="integral" unicode="&#x222b;" horiz-adv-x="386" 
d="M27 -194v126h45q23 0 36.5 15.5t13.5 42.5v549q0 71 41.5 116t125.5 45h70v-126h-45q-23 0 -36.5 -15.5t-13.5 -42.5v-549q0 -70 -41.5 -115.5t-125.5 -45.5h-70z" />
    <glyph glyph-name="approxequal" unicode="&#x2248;" horiz-adv-x="649" 
d="M314 390l-43 24q-27 15 -53 15q-49 0 -85 -55l-84 72q27 51 73 79.5t101 28.5q54 0 109 -29l40 -22q35 -18 59 -18q45 0 85 58l84 -75q-27 -51 -73.5 -79.5t-101.5 -28.5t-111 30zM314 170l-43 24q-27 15 -53 15q-49 0 -85 -55l-84 72q27 51 73 79.5t101 28.5
q54 0 109 -29l40 -22q35 -18 59 -18q45 0 85 58l84 -75q-27 -51 -73.5 -79.5t-101.5 -28.5t-111 30z" />
    <glyph glyph-name="notequal" unicode="&#x2260;" horiz-adv-x="661" 
d="M108 88l48 82h-93v120h163l36 60q16 27 71 75l-33 39q-54 -54 -137 -54h-100v120h304l51 88h125l-52 -88h107v-120h-177l-35 -60q-16 -27 -71 -75l34 -39q52 54 130 54h119v-120h-317l-48 -82h-125z" />
    <glyph glyph-name="lessequal" unicode="&#x2264;" horiz-adv-x="675" 
d="M602 237l-535 100v191l535 103v-119l-186 -32q-78 -13 -264 -18v-48q173 -3 264 -19l186 -31v-127zM67 88v120h535v-120h-535z" />
    <glyph glyph-name="greaterequal" unicode="&#x2265;" horiz-adv-x="674" 
d="M73 236v119l186 32q78 13 264 18v48q-173 5 -264 19l-186 31v127l535 -100v-191zM73 88v120h535v-120h-535z" />
    <glyph glyph-name="angleleft" unicode="&#x2329;" horiz-adv-x="372" 
d="M153 307l204 -403l-118 -64l-229 462l230 463l116 -65z" />
    <glyph glyph-name="angleright" unicode="&#x232a;" horiz-adv-x="374" 
d="M133 765l229 -462l-230 -463l-116 65l203 393l-204 403z" />
    <glyph glyph-name="uni2460" unicode="&#x2460;" horiz-adv-x="868" 
d="M36 356q-3 161 116 279t281 115q162 3 282 -115t117 -279q2 -105 -52.5 -197.5t-147.5 -146t-199 -51.5q-106 -2 -198.5 51.5t-146.5 145.5t-52 198zM734 356q2 124 -86 214t-214 87q-125 3 -214 -87.5t-86 -213.5q-3 -123 86 -213t214 -88q126 -2 214 88t86 213z
M403 155v196q0 52 28 108h-46q-11 -46 -30 -65t-53 -20v105q89 -2 116 78h94v-402h-109z" />
    <glyph glyph-name="uni2461" unicode="&#x2461;" horiz-adv-x="868" 
d="M36 356q-3 161 116 279t281 115q162 3 282 -115t117 -279q2 -105 -52.5 -197.5t-147.5 -146t-199 -51.5q-106 -2 -198.5 51.5t-146.5 145.5t-52 198zM734 356q2 124 -86 214t-214 87q-125 3 -214 -87.5t-86 -213.5q-3 -123 86 -213t214 -88q126 -2 214 88t86 213z
M283 155v101q117 67 152.5 99t38.5 73q0 21 -11 33.5t-30 12.5q-49 0 -47 -76l-108 11q0 69 44.5 113t114.5 44q68 0 110.5 -35t42.5 -89q0 -59 -43 -102q-23 -24 -63 -46q-36 -19 -115 -55l21 -40q42 29 63.5 37.5t62.5 10.5h74v-92h-307z" />
    <glyph glyph-name="uni2462" unicode="&#x2462;" horiz-adv-x="868" 
d="M36 356q-3 161 116 279t281 115q162 3 282 -115t117 -279q2 -105 -52.5 -197.5t-147.5 -146t-199 -51.5q-106 -2 -198.5 51.5t-146.5 145.5t-52 198zM734 356q2 124 -86 214t-214 87q-125 3 -214 -87.5t-86 -213.5q-3 -123 86 -213t214 -88q126 -2 214 88t86 213z
M268 274l109 22q8 -59 55 -59q45 0 45 39q0 38 -52 38h-26v88h26q45 0 45 37q0 16 -10 26t-27 10q-19 0 -30 -15t-11 -42l-110 15q3 59 45 96t106 37q68 0 107.5 -27.5t39.5 -71.5q0 -79 -109 -84v-41q56 -2 87 -25t31 -64q0 -47 -42.5 -77t-113.5 -30t-115 34.5t-50 93.5z
" />
    <glyph glyph-name="uni2463" unicode="&#x2463;" horiz-adv-x="868" 
d="M36 356q-3 161 116 279t281 115q162 3 282 -115t117 -279q2 -105 -52.5 -197.5t-147.5 -146t-199 -51.5q-106 -2 -198.5 51.5t-146.5 145.5t-52 198zM734 356q2 124 -86 214t-214 87q-125 3 -214 -87.5t-86 -213.5q-3 -123 86 -213t214 -88q126 -2 214 88t86 213z
M437 155v90h-188v96l156 216h134v-224h56v-88h-56v-90h-102zM437 333v26q0 41 51 92l-32 26l-123 -169l31 -21q15 25 28.5 35.5t31.5 10.5h13z" />
    <glyph glyph-name="uni2464" unicode="&#x2464;" horiz-adv-x="868" 
d="M36 356q-3 161 116 279t281 115q162 3 282 -115t117 -279q2 -105 -52.5 -197.5t-147.5 -146t-199 -51.5q-106 -2 -198.5 51.5t-146.5 145.5t-52 198zM734 356q2 124 -86 214t-214 87q-125 3 -214 -87.5t-86 -213.5q-3 -123 86 -213t214 -88q126 -2 214 88t86 213z
M263 262l103 28q13 -53 56 -53q22 0 36.5 14t14.5 37t-13 37t-34 14q-29 0 -46 -29l-101 21l35 226h257v-92h-174l-3 -23q-6 -46 -35 -78h47q20 54 74 54q43 0 74 -33t31 -89q0 -69 -44.5 -109.5t-115.5 -40.5q-66 0 -109 31t-53 85z" />
    <glyph glyph-name="uni2465" unicode="&#x2465;" horiz-adv-x="868" 
d="M36 356q-3 161 116 279t281 115q162 3 282 -115t117 -279q2 -105 -52.5 -197.5t-147.5 -146t-199 -51.5q-106 -2 -198.5 51.5t-146.5 145.5t-52 198zM734 356q2 124 -86 214t-214 87q-125 3 -214 -87.5t-86 -213.5q-3 -123 86 -213t214 -88q126 -2 214 88t86 213z
M253 338q0 106 53.5 167t148.5 61q67 0 99 -21v-101q-53 26 -103 26q-107 0 -113 -112h39q16 70 87 70q48 0 81 -33.5t33 -96.5q0 -68 -43.5 -110t-112.5 -42q-76 0 -122.5 53t-46.5 139zM467 291q0 24 -13.5 39t-34.5 15t-34.5 -15t-13.5 -39t13.5 -39t34.5 -15t34.5 15.5
t13.5 38.5z" />
    <glyph glyph-name="uni2466" unicode="&#x2466;" horiz-adv-x="868" 
d="M36 356q-3 161 116 279t281 115q162 3 282 -115t117 -279q2 -105 -52.5 -197.5t-147.5 -146t-199 -51.5q-106 -2 -198.5 51.5t-146.5 145.5t-52 198zM734 356q2 124 -86 214t-214 87q-125 3 -214 -87.5t-86 -213.5q-3 -123 86 -213t214 -88q126 -2 214 88t86 213z
M501 465l19 12l-22 35q-58 -47 -132 -47h-76v92h303v-104q-66 -43 -102 -122.5t-34 -175.5h-115q-4 204 159 310z" />
    <glyph glyph-name="uni2467" unicode="&#x2467;" horiz-adv-x="868" 
d="M36 356q-3 161 116 279t281 115q162 3 282 -115t117 -279q2 -105 -52.5 -197.5t-147.5 -146t-199 -51.5q-106 -2 -198.5 51.5t-146.5 145.5t-52 198zM734 356q2 124 -86 214t-214 87q-125 3 -214 -87.5t-86 -213.5q-3 -123 86 -213t214 -88q126 -2 214 88t86 213z
M274 256q0 39 27.5 62t78.5 26v42q-95 2 -95 78q0 47 40.5 74.5t107.5 27.5t109 -27.5t42 -74.5q0 -35 -27 -56t-71 -22v-42q48 -3 77.5 -27t29.5 -61q0 -51 -43.5 -80.5t-116.5 -29.5t-116 29.5t-43 80.5zM476 438q0 18 -11.5 28.5t-30.5 10.5t-30.5 -10.5t-11.5 -28.5
q0 -19 11.5 -29.5t30.5 -10.5q42 0 42 40zM480 280q0 43 -47 43q-46 0 -46 -43t46 -43q47 0 47 43z" />
    <glyph glyph-name="uni2468" unicode="&#x2468;" horiz-adv-x="868" 
d="M36 356q-3 161 116 279t281 115q162 3 282 -115t117 -279q2 -105 -52.5 -197.5t-147.5 -146t-199 -51.5q-106 -2 -198.5 51.5t-146.5 145.5t-52 198zM734 356q2 124 -86 214t-214 87q-125 3 -214 -87.5t-86 -213.5q-3 -123 86 -213t214 -88q126 -2 214 88t86 213z
M299 166v103q57 -25 113 -25q50 0 79 32t30 79h-41q-9 -32 -32.5 -49.5t-55.5 -17.5q-46 0 -79 38t-33 93q0 64 42 105.5t110 41.5q63 0 115 -47q55 -50 55 -151q0 -105 -52.5 -163.5t-146.5 -58.5q-63 0 -104 20zM481 424q0 23 -12.5 37t-32.5 14t-32.5 -14.5t-12.5 -36.5
q0 -23 12.5 -37.5t32.5 -14.5t32.5 14.5t12.5 37.5z" />
    <glyph glyph-name="uni24EA" unicode="&#x24ea;" horiz-adv-x="868" 
d="M36 356q-3 161 116 279t281 115q162 3 282 -115t117 -279q2 -105 -52.5 -197.5t-147.5 -146t-199 -51.5q-106 -2 -198.5 51.5t-146.5 145.5t-52 198zM734 356q2 124 -86 214t-214 87q-125 3 -214 -87.5t-86 -213.5q-3 -123 86 -213t214 -88q126 -2 214 88t86 213z
M261 355q0 96 47 153.5t125 57.5q79 0 126 -58t47 -153t-47 -152t-126 -57t-125.5 57t-46.5 152zM490 355q0 119 -57 119q-26 0 -41 -31t-15 -88q0 -117 56 -117q57 0 57 117z" />
    <glyph glyph-name="uni24FF" unicode="&#x24ff;" horiz-adv-x="868" 
d="M832 356q2 -105 -52.5 -197.5t-147.5 -146t-199 -51.5q-106 -2 -198.5 51.5t-146.5 145.5t-52 198q-3 161 116 279t281 115q162 3 282 -115t117 -279zM261 355q0 -95 46.5 -152t125.5 -57t126 57t47 152t-47 153t-126 58q-78 0 -125 -57.5t-47 -153.5zM490 355
q0 -117 -57 -117q-56 0 -56 117q0 57 15 88t41 31q57 0 57 -119z" />
    <glyph glyph-name="lozenge" unicode="&#x25ca;" horiz-adv-x="658" 
d="M241 0l-210 350l210 350h176l210 -350l-210 -350h-176zM465 347l-83 141q-28 47 -28 126h-53q0 -50 -4 -75t-23 -55l-81 -132l84 -140q28 -47 28 -126h53q0 52 3.5 73t21.5 55z" />
    <glyph glyph-name="uni274C" unicode="&#x274c;" horiz-adv-x="767" 
d="M108 -16l-89 89l275 279l-270 277l92 92l269 -277l273 277l91 -86l-276 -281l271 -279l-93 -91l-270 278z" />
    <glyph glyph-name="uni2776" unicode="&#x2776;" horiz-adv-x="868" 
d="M832 356q2 -105 -52.5 -197.5t-147.5 -146t-199 -51.5q-106 -2 -198.5 51.5t-146.5 145.5t-52 198q-3 161 116 279t281 115q162 3 282 -115t117 -279zM403 351v-196h109v402h-94q-27 -80 -116 -78v-105q34 1 53 20t30 65h46q-28 -56 -28 -108z" />
    <glyph glyph-name="uni2777" unicode="&#x2777;" horiz-adv-x="868" 
d="M832 356q2 -105 -52.5 -197.5t-147.5 -146t-199 -51.5q-106 -2 -198.5 51.5t-146.5 145.5t-52 198q-3 161 116 279t281 115q162 3 282 -115t117 -279zM283 256v-101h307v92h-74q-41 -2 -62.5 -10.5t-63.5 -37.5l-21 40q79 36 115 55q40 22 63 46q43 43 43 102
q0 54 -42.5 89t-110.5 35q-70 0 -114.5 -44t-44.5 -113l108 -11q-2 76 47 76q19 0 30 -12.5t11 -33.5q-3 -41 -38.5 -73t-152.5 -99z" />
    <glyph glyph-name="uni2778" unicode="&#x2778;" horiz-adv-x="868" 
d="M832 356q2 -105 -52.5 -197.5t-147.5 -146t-199 -51.5q-106 -2 -198.5 51.5t-146.5 145.5t-52 198q-3 161 116 279t281 115q162 3 282 -115t117 -279zM268 274q6 -59 50 -93.5t115 -34.5t113.5 30t42.5 77q0 41 -31 64t-87 25v41q109 5 109 84q0 44 -39.5 71.5
t-107.5 27.5q-64 0 -106 -37t-45 -96l110 -15q0 27 11 42t30 15q17 0 27 -10t10 -26q0 -37 -45 -37h-26v-88h26q52 0 52 -38q0 -39 -45 -39q-47 0 -55 59z" />
    <glyph glyph-name="uni2779" unicode="&#x2779;" horiz-adv-x="868" 
d="M832 356q2 -105 -52.5 -197.5t-147.5 -146t-199 -51.5q-106 -2 -198.5 51.5t-146.5 145.5t-52 198q-3 161 116 279t281 115q162 3 282 -115t117 -279zM437 245v-90h102v90h56v88h-56v224h-134l-156 -216v-96h188zM437 359v-26h-13q-18 0 -31.5 -10.5t-28.5 -35.5l-31 21
l123 169l32 -26q-51 -51 -51 -92z" />
    <glyph glyph-name="uni277A" unicode="&#x277a;" horiz-adv-x="868" 
d="M832 356q2 -105 -52.5 -197.5t-147.5 -146t-199 -51.5q-106 -2 -198.5 51.5t-146.5 145.5t-52 198q-3 161 116 279t281 115q162 3 282 -115t117 -279zM263 262q10 -54 53 -85t109 -31q71 0 115.5 40.5t44.5 109.5q0 56 -31 89t-74 33q-54 0 -74 -54h-47q29 32 35 78l3 23
h174v92h-257l-35 -226l101 -21q17 29 46 29q21 0 34 -14t13 -37t-14.5 -37t-36.5 -14q-43 0 -56 53z" />
    <glyph glyph-name="uni277B" unicode="&#x277b;" horiz-adv-x="868" 
d="M832 356q2 -105 -52.5 -197.5t-147.5 -146t-199 -51.5q-106 -2 -198.5 51.5t-146.5 145.5t-52 198q-3 161 116 279t281 115q162 3 282 -115t117 -279zM253 338q0 -86 46.5 -139t122.5 -53q69 0 112.5 42t43.5 110q0 63 -33 96.5t-81 33.5q-71 0 -87 -70h-39
q6 112 113 112q50 0 103 -26v101q-32 21 -99 21q-95 0 -148.5 -61t-53.5 -167zM467 291q0 -23 -13.5 -38.5t-34.5 -15.5t-34.5 15t-13.5 39t13.5 39t34.5 15t34.5 -15t13.5 -39z" />
    <glyph glyph-name="uni277C" unicode="&#x277c;" horiz-adv-x="868" 
d="M832 356q2 -105 -52.5 -197.5t-147.5 -146t-199 -51.5q-106 -2 -198.5 51.5t-146.5 145.5t-52 198q-3 161 116 279t281 115q162 3 282 -115t117 -279zM501 465q-163 -106 -159 -310h115q-2 96 34 175.5t102 122.5v104h-303v-92h76q74 0 132 47l22 -35z" />
    <glyph glyph-name="uni277D" unicode="&#x277d;" horiz-adv-x="868" 
d="M832 356q2 -105 -52.5 -197.5t-147.5 -146t-199 -51.5q-106 -2 -198.5 51.5t-146.5 145.5t-52 198q-3 161 116 279t281 115q162 3 282 -115t117 -279zM274 256q0 -51 43 -80.5t116 -29.5t116.5 29.5t43.5 80.5q0 37 -29.5 61t-77.5 27v42q44 1 71 22t27 56q0 47 -42 74.5
t-109 27.5t-107.5 -27.5t-40.5 -74.5q0 -76 95 -78v-42q-51 -3 -78.5 -26t-27.5 -62zM476 438q0 -40 -42 -40q-19 0 -30.5 10.5t-11.5 29.5q0 18 11.5 28.5t30.5 10.5t30.5 -10.5t11.5 -28.5zM480 280q0 -43 -47 -43q-46 0 -46 43t46 43q47 0 47 -43z" />
    <glyph glyph-name="uni277E" unicode="&#x277e;" horiz-adv-x="868" 
d="M832 356q2 -105 -52.5 -197.5t-147.5 -146t-199 -51.5q-106 -2 -198.5 51.5t-146.5 145.5t-52 198q-3 161 116 279t281 115q162 3 282 -115t117 -279zM310 166q41 -20 104 -20q94 0 146.5 58.5t52.5 163.5q0 101 -55 151q-52 47 -115 47q-66 0 -109 -42t-43 -105
q0 -55 33.5 -93t78.5 -38q70 0 88 67h41q-1 -47 -30 -79t-79 -32q-56 0 -113 25v-103zM492 424q0 -23 -12.5 -37.5t-32.5 -14.5t-32.5 14.5t-12.5 37.5q0 22 12.5 36.5t32.5 14.5t32.5 -14t12.5 -37z" />
    <glyph glyph-name="uni300A" unicode="&#x300a;" horiz-adv-x="632" 
d="M356 700l-203 -393l204 -403l-118 -64l-229 463l230 462zM413 307l204 -403l-118 -64l-229 463l230 462l116 -65z" />
    <glyph glyph-name="uni300B" unicode="&#x300b;" horiz-adv-x="633" 
d="M132 766l229 -463l-230 -462l-116 65l203 393l-204 403zM392 766l229 -463l-230 -462l-116 65l203 393l-204 403z" />
    <glyph glyph-name="uni300C" unicode="&#x300c;" horiz-adv-x="390" 
d="M78 304v451h298v-110h-168v-341h-130z" />
    <glyph glyph-name="uni300D" unicode="&#x300d;" horiz-adv-x="370" 
d="M308 300v-451h-298v110h168v341h130z" />
    <glyph glyph-name="uni300E" unicode="&#x300e;" horiz-adv-x="558" 
d="M79 194v561h446v-260h-169v-301h-277zM189 294h67v296h159v65h-226v-361z" />
    <glyph glyph-name="uni300F" unicode="&#x300f;" horiz-adv-x="549" 
d="M477 410v-561h-446v260h169v301h277zM367 310h-67v-296h-159v-65h226v361z" />
    <glyph glyph-name="uni3010" unicode="&#x3010;" horiz-adv-x="389" 
d="M80 -150v905h317q-97 -110 -142 -219t-45 -232q0 -243 187 -454h-317z" />
    <glyph glyph-name="uni3011" unicode="&#x3011;" horiz-adv-x="389" 
d="M309 755v-905h-317q97 110 142 219t45 232q0 243 -187 454h317z" />
    <glyph glyph-name="uni3014" unicode="&#x3014;" horiz-adv-x="349" 
d="M183 101l156 -175l-96 -86l-190 211v504l191 210l93 -87l-154 -165v-412z" />
    <glyph glyph-name="uni3015" unicode="&#x3015;" horiz-adv-x="349" 
d="M106 764l190 -211v-504l-191 -210l-93 87l154 165v412l-156 175z" />
    <glyph glyph-name="uniE000" unicode="&#xe000;" horiz-adv-x="752" 
d="M311 0v292h-280v120h280v293h130v-293h280v-120h-280v-292h-130z" />
    <glyph glyph-name="uniE001" unicode="&#xe001;" horiz-adv-x="816" 
d="M63 292v120h690v-120h-690z" />
    <glyph glyph-name="uniE002" unicode="&#xe002;" horiz-adv-x="792" 
d="M120 -16l-89 89l275 279l-270 277l92 92l269 -277l273 277l91 -86l-276 -281l271 -279l-93 -91l-270 278z" />
    <glyph glyph-name="uniE003" unicode="&#xe003;" horiz-adv-x="874" 
d="M347 -15l-322 413l102 83l225 -288l404 530l98 -79z" />
    <glyph glyph-name="uniE004" unicode="&#xe004;" horiz-adv-x="962" 
d="M94 546v124h774v-124h-774zM94 288v124h774v-124h-774zM94 30v124h774v-124h-774z" />
    <glyph glyph-name="uniE005" unicode="&#xe005;" horiz-adv-x="874" 
d="M87 0v695h700v-695h-700zM217 119h440v457h-440v-457z" />
    <glyph glyph-name="uniE006" unicode="&#xe006;" horiz-adv-x="874" 
d="M438 158l-179 288l99 64l30 -47q22 -35 27.5 -65.5t7.5 -96.5h52q2 64 9 95t34 66l186 250l95 -72zM87 0v695h453v-119h-323v-457h440v207h130v-326h-700z" />
    <glyph glyph-name="uniE007" unicode="&#xe007;" horiz-adv-x="874" 
d="M87 0v695h700v-695h-700zM217 119h440v457h-440v-457zM355 269v158h165v-158h-165z" />
    <glyph glyph-name="uniE008" unicode="&#xe008;" horiz-adv-x="758" 
d="M381 153l-299 298l101 100l32 -35q38 -43 38 -156h56v507h144v-507h56q0 116 38 156l32 35l101 -100zM29 0v153h700v-153h-700z" />
    <glyph glyph-name="uniE009" unicode="&#xe009;" horiz-adv-x="758" 
d="M381 232l-299 298l101 100l32 -35q38 -43 38 -156h56v507h144v-507h56q0 116 38 156l32 35l101 -100zM29 0v153h700v-153h-700z" />
    <glyph glyph-name="uniF8FF" unicode="&#xf8ff;" horiz-adv-x="842" 
d="M702 95l-41 -18q32 -68 43 -120l-20 -13q-133 0 -133 146q0 34 9 99h-50q-10 -80 -31 -121q-34 17 -59 62.5t-32 87.5q-13 91 -30 114q-14 21 -33.5 32t-63.5 26q-36 12 -53.5 26.5t-48.5 53.5l89 67l-30 29q-22 -6 -45 -6q-52 0 -87.5 21t-35.5 55q0 33 17.5 52t49.5 19
q53 0 113 -76l40 33q-43 43 -58 64t-15 42q0 45 61 45q33 0 50.5 -18.5t17.5 -52.5q0 -61 -23 -108l32 -33l45 33q53 -25 95 -70q76 -77 114 -158q150 -129 189 -292q14 -58 14 -112l-42 -6q-21 63 -48 97z" />
    <glyph glyph-name="Ccedilla.ss04" horiz-adv-x="755" 
d="M470 -11l-18 -16q-12 -11 -54 -31l14 -31q20 12 47 12q29 0 46.5 -16.5t17.5 -47.5q0 -39 -33.5 -66.5t-99.5 -27.5q-37 0 -71.5 15.5t-53.5 36.5l49 64q37 -40 75 -40t38 26q0 10 -10 17.5t-25 7.5q-18 0 -27 -4l-37 49l49 47q-151 9 -243.5 111.5t-92.5 255.5
q-2 154 102.5 260.5t261.5 104.5q121 0 207.5 -59.5t115.5 -156.5l-137 -53q-50 143 -188 143q-95 0 -149 -63t-54 -176q0 -114 53.5 -177t149.5 -63q140 0 192 144l134 -54q-69 -184 -259 -212z" />
    <glyph glyph-name="G.ss03" horiz-adv-x="781" 
d="M42 347q-3 154 105.5 263t262.5 106q131 0 215.5 -59t114.5 -155l-143 -53q-50 141 -187 141q-94 0 -152 -65.5t-58 -177.5q0 -104 57 -170.5t149 -66.5q68 0 110.5 33t52.5 91h-199v126h362q1 -13 1 -38q2 -143 -84.5 -241t-243.5 -97q-161 0 -262 98.5t-101 264.5z" />
    <glyph glyph-name="Gbreve.ss03" horiz-adv-x="781" 
d="M42 347q-3 154 105.5 263t262.5 106q131 0 215.5 -59t114.5 -155l-143 -53q-50 141 -187 141q-94 0 -152 -65.5t-58 -177.5q0 -104 57 -170.5t149 -66.5q68 0 110.5 33t52.5 91h-199v126h362q1 -13 1 -38q2 -143 -84.5 -241t-243.5 -97q-161 0 -262 98.5t-101 264.5z
M220 895h108q4 -22 25 -40.5t57 -18.5t57.5 18.5t23.5 40.5h109q-3 -63 -50 -103.5t-140 -40.5t-140 40.5t-50 103.5z" />
    <glyph glyph-name="Gcircumflex.ss03" horiz-adv-x="781" 
d="M42 347q-3 154 105.5 263t262.5 106q131 0 215.5 -59t114.5 -155l-143 -53q-50 141 -187 141q-94 0 -152 -65.5t-58 -177.5q0 -104 57 -170.5t149 -66.5q68 0 110.5 33t52.5 91h-199v126h362q1 -13 1 -38q2 -143 -84.5 -241t-243.5 -97q-161 0 -262 98.5t-101 264.5z
M193 766l121 129h189l121 -129h-134l-81 71l-82 -71h-134z" />
    <glyph glyph-name="uni0122.ss03" horiz-adv-x="781" 
d="M42 347q-3 154 105.5 263t262.5 106q131 0 215.5 -59t114.5 -155l-143 -53q-50 141 -187 141q-94 0 -152 -65.5t-58 -177.5q0 -104 57 -170.5t149 -66.5q68 0 110.5 33t52.5 91h-199v126h362q1 -13 1 -38q2 -143 -84.5 -241t-243.5 -97q-161 0 -262 98.5t-101 264.5z
M342 -335l81 140h-79v134h140v-134l-82 -140h-60z" />
    <glyph glyph-name="Gdotaccent.ss03" horiz-adv-x="781" 
d="M42 347q-3 154 105.5 263t262.5 106q131 0 215.5 -59t114.5 -155l-143 -53q-50 141 -187 141q-94 0 -152 -65.5t-58 -177.5q0 -104 57 -170.5t149 -66.5q68 0 110.5 33t52.5 91h-199v126h362q1 -13 1 -38q2 -143 -84.5 -241t-243.5 -97q-161 0 -262 98.5t-101 264.5z
M334 766v134h151v-134h-151z" />
    <glyph glyph-name="Scedilla.ss04" horiz-adv-x="685" 
d="M402 -14l-15 -13q-12 -11 -54 -31l14 -31q19 12 47 12q29 0 46.5 -16.5t17.5 -47.5q0 -39 -33.5 -66.5t-99.5 -27.5q-37 0 -71.5 15.5t-53.5 36.5l49 64q37 -40 75 -40t38 26q0 10 -10 17.5t-25 7.5q-18 0 -27 -4l-37 49l50 48q-120 9 -192 67.5t-93 147.5l143 48
q13 -61 58 -102t119 -41q68 0 102.5 24t34.5 66q0 69 -114 86l-87 12q-221 31 -221 210q0 91 74.5 152t202.5 61q122 0 196 -51.5t100 -135.5l-140 -49q-37 115 -156 115q-59 0 -89 -24t-30 -62q0 -62 90 -75l87 -12q117 -16 181 -71t64 -146q0 -87 -61.5 -147t-179.5 -72z
" />
    <glyph glyph-name="uni0162.ss04" horiz-adv-x="652" 
d="M402 0l-31 -27q-12 -11 -54 -31l14 -31q24 12 47 12q64 0 64 -64q0 -39 -33.5 -66.5t-99.5 -27.5q-36 0 -70.5 15.5t-54.5 36.5l49 64q38 -40 75 -40q38 0 38 26q0 10 -10 17.5t-25 7.5q-18 0 -27 -4l-37 49l65 63h-62v574h-240v126h632v-126h-240v-574z" />
    <glyph glyph-name="a.salt" horiz-adv-x="627" 
d="M37 250q0 118 57.5 192t148.5 74q69 -2 105.5 -31.5t63.5 -86.5h60q-43 62 -43 102h129v-500h-129q0 40 43 102h-60q-27 -57 -63.5 -86.5t-105.5 -31.5q-91 0 -148.5 74t-57.5 192zM422 250q0 76 -32 117t-87 41q-117 0 -117 -158t117 -158q55 0 87 41t32 117z" />
    <glyph glyph-name="aacute.salt" horiz-adv-x="627" 
d="M37 250q0 118 57.5 192t148.5 74q69 -2 105.5 -31.5t63.5 -86.5h60q-43 62 -43 102h129v-500h-129q0 40 43 102h-60q-27 -57 -63.5 -86.5t-105.5 -31.5q-91 0 -148.5 74t-57.5 192zM422 250q0 76 -32 117t-87 41q-117 0 -117 -158t117 -158q55 0 87 41t32 117zM252 566
l50 154h155l-110 -154h-95z" />
    <glyph glyph-name="abreve.salt" horiz-adv-x="627" 
d="M37 250q0 118 57.5 192t148.5 74q69 -2 105.5 -31.5t63.5 -86.5h60q-43 62 -43 102h129v-500h-129q0 40 43 102h-60q-27 -57 -63.5 -86.5t-105.5 -31.5q-91 0 -148.5 74t-57.5 192zM422 250q0 76 -32 117t-87 41q-117 0 -117 -158t117 -158q55 0 87 41t32 117zM124 695
h98q2 -22 22 -40.5t52 -18.5q33 0 52.5 18.5t21.5 40.5h99q-2 -63 -44.5 -103.5t-128.5 -40.5q-85 0 -127.5 40.5t-44.5 103.5z" />
    <glyph glyph-name="acircumflex.salt" horiz-adv-x="627" 
d="M37 250q0 118 57.5 192t148.5 74q69 -2 105.5 -31.5t63.5 -86.5h60q-43 62 -43 102h129v-500h-129q0 40 43 102h-60q-27 -57 -63.5 -86.5t-105.5 -31.5q-91 0 -148.5 74t-57.5 192zM422 250q0 76 -32 117t-87 41q-117 0 -117 -158t117 -158q55 0 87 41t32 117zM101 566
l110 129h172l110 -129h-122l-74 71l-74 -71h-122z" />
    <glyph glyph-name="adieresis.salt" horiz-adv-x="627" 
d="M37 250q0 118 57.5 192t148.5 74q69 -2 105.5 -31.5t63.5 -86.5h60q-43 62 -43 102h129v-500h-129q0 40 43 102h-60q-27 -57 -63.5 -86.5t-105.5 -31.5q-91 0 -148.5 74t-57.5 192zM422 250q0 76 -32 117t-87 41q-117 0 -117 -158t117 -158q55 0 87 41t32 117zM121 575
v120h132v-120h-132zM341 575v120h132v-120h-132z" />
    <glyph glyph-name="uni0227.salt" horiz-adv-x="627" 
d="M37 250q0 118 57.5 192t148.5 74q69 -2 105.5 -31.5t63.5 -86.5h60q-43 62 -43 102h129v-500h-129q0 40 43 102h-60q-27 -57 -63.5 -86.5t-105.5 -31.5q-91 0 -148.5 74t-57.5 192zM422 250q0 76 -32 117t-87 41q-117 0 -117 -158t117 -158q55 0 87 41t32 117zM221 566
v134h151v-134h-151z" />
    <glyph glyph-name="uni1EA1.salt" horiz-adv-x="627" 
d="M37 250q0 118 57.5 192t148.5 74q69 -2 105.5 -31.5t63.5 -86.5h60q-43 62 -43 102h129v-500h-129q0 40 43 102h-60q-27 -57 -63.5 -86.5t-105.5 -31.5q-91 0 -148.5 74t-57.5 192zM422 250q0 76 -32 117t-87 41q-117 0 -117 -158t117 -158q55 0 87 41t32 117zM216 -195
v134h151v-134h-151z" />
    <glyph glyph-name="agrave.salt" horiz-adv-x="627" 
d="M37 250q0 118 57.5 192t148.5 74q69 -2 105.5 -31.5t63.5 -86.5h60q-43 62 -43 102h129v-500h-129q0 40 43 102h-60q-27 -57 -63.5 -86.5t-105.5 -31.5q-91 0 -148.5 74t-57.5 192zM422 250q0 76 -32 117t-87 41q-117 0 -117 -158t117 -158q55 0 87 41t32 117zM249 566
l-110 154h156l50 -154h-96z" />
    <glyph glyph-name="amacron.salt" horiz-adv-x="627" 
d="M37 250q0 118 57.5 192t148.5 74q69 -2 105.5 -31.5t63.5 -86.5h60q-43 62 -43 102h129v-500h-129q0 40 43 102h-60q-27 -57 -63.5 -86.5t-105.5 -31.5q-91 0 -148.5 74t-57.5 192zM422 250q0 76 -32 117t-87 41q-117 0 -117 -158t117 -158q55 0 87 41t32 117zM139 579
v96h316v-96h-316z" />
    <glyph glyph-name="aogonek.salt" horiz-adv-x="627" 
d="M437 -80q0 -34 57 -34q28 0 64 10v-91q-45 -15 -84 -15q-64 0 -100.5 26t-36.5 74q0 67 93 110h-1q0 40 43 102h-60q-27 -57 -63.5 -86.5t-105.5 -31.5q-91 0 -148.5 74t-57.5 192t57.5 192t148.5 74q69 -2 105.5 -31.5t63.5 -86.5h60q-43 62 -43 102h129v-500
q-121 -32 -121 -80zM422 250q0 76 -32 117t-87 41q-117 0 -117 -158t117 -158q55 0 87 41t32 117z" />
    <glyph glyph-name="aring.salt" horiz-adv-x="627" 
d="M37 250q0 118 57.5 192t148.5 74q69 -2 105.5 -31.5t63.5 -86.5h60q-43 62 -43 102h129v-500h-129q0 40 43 102h-60q-27 -57 -63.5 -86.5t-105.5 -31.5q-91 0 -148.5 74t-57.5 192zM422 250q0 76 -32 117t-87 41q-117 0 -117 -158t117 -158q55 0 87 41t32 117zM171 672
q0 52 38 87.5t89 35.5q52 0 89 -35.5t37 -87.5t-37 -86.5t-89 -34.5q-51 0 -89 35t-38 86zM345 672q0 21 -13.5 35t-33.5 14q-21 0 -34.5 -13.5t-13.5 -35.5t13.5 -35.5t34.5 -13.5q20 0 33.5 13.5t13.5 35.5z" />
    <glyph glyph-name="aringacute.salt" horiz-adv-x="627" 
d="M37 250q0 118 57.5 192t148.5 74q69 -2 105.5 -31.5t63.5 -86.5h60q-43 62 -43 102h129v-500h-129q0 40 43 102h-60q-27 -57 -63.5 -86.5t-105.5 -31.5q-91 0 -148.5 74t-57.5 192zM422 250q0 76 -32 117t-87 41q-117 0 -117 -158t117 -158q55 0 87 41t32 117zM251 814
l50 123h155l-110 -123h-95zM174 662q0 51 38 87t89 36q52 0 89 -35.5t37 -87.5t-37 -86.5t-89 -34.5q-51 0 -89 35t-38 86zM348 662q0 21 -13.5 35t-33.5 14q-21 0 -34.5 -13.5t-13.5 -35.5t13.5 -35.5t34.5 -13.5q20 0 33.5 13.5t13.5 35.5z" />
    <glyph glyph-name="atilde.salt" horiz-adv-x="627" 
d="M37 250q0 118 57.5 192t148.5 74q69 -2 105.5 -31.5t63.5 -86.5h60q-43 62 -43 102h129v-500h-129q0 40 43 102h-60q-27 -57 -63.5 -86.5t-105.5 -31.5q-91 0 -148.5 74t-57.5 192zM422 250q0 76 -32 117t-87 41q-117 0 -117 -158t117 -158q55 0 87 41t32 117zM297 582
l-25 15q-34 18 -49 18q-36 0 -38 -49h-102q0 66 35.5 102.5t96.5 36.5q39 0 86 -26l25 -15q30 -18 49 -18q36 0 38 49h98q0 -139 -128 -139q-41 0 -86 26z" />
    <glyph glyph-name="ccedilla.ss04" horiz-adv-x="570" 
d="M367 -9l-20 -18q-12 -11 -54 -31l14 -31q19 12 47 12q29 0 46.5 -16.5t17.5 -47.5q0 -39 -33.5 -66.5t-99.5 -27.5q-37 0 -71.5 15.5t-53.5 36.5l49 64q37 -40 75 -40t38 26q0 10 -10 17.5t-25 7.5q-18 0 -27 -4l-37 49l50 48q-105 11 -171.5 83.5t-66.5 182.5
q0 117 77 190.5t192 73.5q86 0 149 -41t89 -109l-131 -49q-31 87 -112 87q-53 0 -87 -40t-34 -112t34.5 -113t87.5 -41q82 0 116 95l134 -48q-24 -60 -71.5 -100t-111.5 -53z" />
    <glyph glyph-name="g.ss02" horiz-adv-x="627" 
d="M24 -61l134 44q33 -91 132 -91q62 0 94.5 30t34.5 82q1 64 44 115h-60q-29 -55 -61.5 -82.5t-96.5 -29.5q-91 0 -149.5 71t-58.5 182q0 113 57.5 184.5t148.5 71.5q69 -2 105.5 -31.5t63.5 -86.5h60q-43 62 -43 102h129v-463q0 -124 -69.5 -186t-200.5 -62
q-223 0 -264 150zM422 260q0 70 -32 109t-86 39q-56 0 -87 -37t-31 -111t31 -111t87 -37q54 0 86 39t32 109z" />
    <glyph glyph-name="gbreve.ss02" horiz-adv-x="627" 
d="M24 -61l134 44q33 -91 132 -91q62 0 94.5 30t34.5 82q1 64 44 115h-60q-29 -55 -61.5 -82.5t-96.5 -29.5q-91 0 -149.5 71t-58.5 182q0 113 57.5 184.5t148.5 71.5q69 -2 105.5 -31.5t63.5 -86.5h60q-43 62 -43 102h129v-463q0 -124 -69.5 -186t-200.5 -62
q-223 0 -264 150zM422 260q0 70 -32 109t-86 39q-56 0 -87 -37t-31 -111t31 -111t87 -37q54 0 86 39t32 109zM141 695h98q2 -22 22 -40.5t52 -18.5q33 0 52.5 18.5t21.5 40.5h99q-2 -63 -44.5 -103.5t-128.5 -40.5q-85 0 -127.5 40.5t-44.5 103.5z" />
    <glyph glyph-name="gcircumflex.ss02" horiz-adv-x="627" 
d="M24 -61l134 44q33 -91 132 -91q62 0 94.5 30t34.5 82q1 64 44 115h-60q-29 -55 -61.5 -82.5t-96.5 -29.5q-91 0 -149.5 71t-58.5 182q0 113 57.5 184.5t148.5 71.5q69 -2 105.5 -31.5t63.5 -86.5h60q-43 62 -43 102h129v-463q0 -124 -69.5 -186t-200.5 -62
q-223 0 -264 150zM422 260q0 70 -32 109t-86 39q-56 0 -87 -37t-31 -111t31 -111t87 -37q54 0 86 39t32 109zM118 566l110 129h172l110 -129h-122l-74 71l-74 -71h-122z" />
    <glyph glyph-name="uni0123.ss02" horiz-adv-x="627" 
d="M24 -61l134 44q33 -91 132 -91q62 0 94.5 30t34.5 82q1 64 44 115h-60q-29 -55 -61.5 -82.5t-96.5 -29.5q-91 0 -149.5 71t-58.5 182q0 113 57.5 184.5t148.5 71.5q69 -2 105.5 -31.5t63.5 -86.5h60q-43 62 -43 102h129v-463q0 -124 -69.5 -186t-200.5 -62
q-223 0 -264 150zM422 260q0 70 -32 109t-86 39q-56 0 -87 -37t-31 -111t31 -111t87 -37q54 0 86 39t32 109zM383 840l-81 -140h79v-135h-140v135l82 140h60z" />
    <glyph glyph-name="gdotaccent.ss02" horiz-adv-x="627" 
d="M24 -61l134 44q33 -91 132 -91q62 0 94.5 30t34.5 82q1 64 44 115h-60q-29 -55 -61.5 -82.5t-96.5 -29.5q-91 0 -149.5 71t-58.5 182q0 113 57.5 184.5t148.5 71.5q69 -2 105.5 -31.5t63.5 -86.5h60q-43 62 -43 102h129v-463q0 -124 -69.5 -186t-200.5 -62
q-223 0 -264 150zM422 260q0 70 -32 109t-86 39q-56 0 -87 -37t-31 -111t31 -111t87 -37q54 0 86 39t32 109zM238 566v134h151v-134h-151z" />
    <glyph glyph-name="i.locl" horiz-adv-x="277" 
d="M63 568v134h151v-134h-151zM68 0v500h142v-500h-142z" />
    <glyph glyph-name="scedilla.ss04" horiz-adv-x="525" 
d="M331 -9l-21 -18q-12 -11 -54 -31l14 -31q20 12 47 12q29 0 46.5 -16.5t17.5 -47.5q0 -38 -33.5 -66t-99.5 -28q-37 0 -71.5 15.5t-53.5 36.5l49 64q37 -40 75 -40t38 26q0 10 -10 17.5t-25 7.5q-18 0 -27 -4l-37 49l51 50q-81 6 -138 44t-72 98l129 41q6 -27 29 -56
q22 -28 85 -28q35 0 55.5 14t20.5 36q0 21 -14 33.5t-48 19.5l-71 14q-87 17 -126.5 51t-39.5 103q0 72 58 115t157 43q82 0 136.5 -34t74.5 -81l-117 -53q-26 70 -101 70q-34 0 -52.5 -13t-18.5 -35q0 -21 14.5 -31.5t54.5 -17.5l69 -13q172 -33 172 -156q0 -63 -42.5 -105
t-120.5 -55z" />
    <glyph glyph-name="uni0163.ss04" horiz-adv-x="436" 
d="M120 131v261h-105v108h105v157h142v-157h130v-108h-130v-235q0 -23 10.5 -33.5t33.5 -10.5h108v-113h-167q-59 0 -93 36t-34 95zM114 -183l49 64q37 -40 75 -40t38 26q0 10 -10 17.5t-25 7.5q-18 0 -27 -4l-37 49l65 63h90l-31 -27q-12 -11 -54 -31l14 -31q19 12 47 12
q29 0 46.5 -16.5t17.5 -47.5q0 -38 -33.5 -66t-99.5 -28q-37 0 -71.5 15.5t-53.5 36.5z" />
    <glyph glyph-name="zero.onum" horiz-adv-x="656" 
d="M40 250q-2 110 85 188.5t203 76.5q117 2 204 -76.5t84 -188.5q3 -110 -84.5 -189t-203.5 -77q-116 -2 -203 77t-85 189zM469 250q0 71 -41 113t-100 42q-58 0 -99.5 -42t-41.5 -113q0 -73 41 -114t100 -41t100 41t41 114z" />
    <glyph glyph-name="one.onum" horiz-adv-x="421" 
d="M204 0v230q0 68 27 121h-56q-17 -64 -54 -102t-87 -40v149q136 13 189 142h123v-500h-142z" />
    <glyph glyph-name="two.onum" horiz-adv-x="547" 
d="M51 -1v136q181 70 238.5 109.5t59.5 87.5q0 34 -20.5 52.5t-55.5 18.5q-42 0 -62.5 -30t-20.5 -78l-145 20q0 87 64.5 143.5t167.5 56.5q102 0 160 -46.5t58 -114.5q0 -86 -81 -139q-30 -20 -88 -46q-65 -28 -162 -65l29 -50q39 29 81.5 42.5t112.5 13.5h111v-111h-447z
" />
    <glyph glyph-name="three.onum" horiz-adv-x="593" 
d="M24 7l151 26q5 -62 35.5 -96t83.5 -34q51 0 81.5 25.5t30.5 70.5t-30 72.5t-81 27.5h-65v117h54q47 0 78 25.5t31 69.5q0 41 -28 66t-70 25q-48 0 -78 -30t-33 -83l-138 23q11 88 77.5 146t172.5 58q107 0 172.5 -50.5t65.5 -127.5q0 -69 -46.5 -108t-126.5 -43v-51
q92 -1 141.5 -45.5t49.5 -114.5q0 -81 -70 -134t-185 -53q-114 0 -186 60t-87 158z" />
    <glyph glyph-name="four.onum" horiz-adv-x="637" 
d="M368 -195v195h-342v107l287 393h193v-389h105v-111h-105v-195h-138zM313 111h55v72q2 68 12 99t39 78l-46 29l-5 -7l-195 -271l-8 -12l42 -31q38 49 106 43z" />
    <glyph glyph-name="five.onum" horiz-adv-x="578" 
d="M33 -29l129 50q8 -49 40 -82.5t82 -33.5q53 0 84 31t31 90q0 52 -32.5 85.5t-82.5 33.5q-62 0 -105 -52l-140 29l59 378h417v-118h-315l-18 -114q-8 -50 -44 -98h62q38 85 137 85q88 0 148 -60.5t60 -163.5q0 -109 -70.5 -175.5t-184.5 -66.5q-105 0 -171.5 49.5
t-85.5 132.5z" />
    <glyph glyph-name="six.onum" horiz-adv-x="614" 
d="M44 309q0 187 90 297t242 110q93 0 159 -26v-123q-77 30 -144 30q-101 0 -167.5 -67t-75.5 -196h49q38 127 161 127q90 0 155.5 -64t65.5 -165q0 -110 -72.5 -179t-186.5 -69q-127 -2 -202.5 92.5t-73.5 232.5zM434 227q0 51 -35 85.5t-84 34.5q-50 0 -84 -34t-34 -86
q0 -58 33.5 -94t84.5 -36t85 36t34 94z" />
    <glyph glyph-name="seven.onum" horiz-adv-x="538" 
d="M412 382l10 7l-31 46q-28 -19 -46 -28t-54 -17t-85 -8h-190v118h502v-152q-121 -85 -186.5 -231.5t-65.5 -311.5h-142q-1 190 83.5 343.5t204.5 233.5z" />
    <glyph glyph-name="eight.onum" horiz-adv-x="604" 
d="M43 177q0 76 55 113t138 43v51q-173 13 -173 149q0 75 63.5 129t174.5 54t175.5 -54t64.5 -129q0 -137 -172 -149v-51q89 -6 140.5 -44.5t51.5 -111.5q0 -86 -72 -139.5t-188 -53.5q-115 0 -186.5 53.5t-71.5 139.5zM409 510q0 39 -30 65.5t-77 26.5q-48 0 -77.5 -26
t-29.5 -66q0 -45 29.5 -71t77.5 -26t77.5 26.5t29.5 70.5zM416 201q0 46 -30.5 74.5t-83.5 28.5t-83.5 -28.5t-30.5 -74.5q0 -48 30 -75.5t84 -27.5q53 0 83.5 27.5t30.5 75.5z" />
    <glyph glyph-name="nine.onum" horiz-adv-x="623" 
d="M88 -185v124q70 -29 140 -29q103 0 166.5 66t68.5 168h-49q-18 -48 -59 -76t-94 -28q-88 0 -153 63t-65 166q0 107 74 176.5t186 69.5q131 0 205.5 -92.5t74.5 -235.5q0 -186 -91 -292t-245 -106q-93 0 -159 26zM426 273q0 58 -33.5 94t-84.5 36t-85 -36t-34 -94
q0 -50 35 -84t84 -34q51 0 84.5 33.5t33.5 84.5z" />
    <glyph glyph-name="zero.tnum" 
d="M20 349q0 170 80 268.5t210 98.5q129 0 209.5 -98.5t80.5 -268.5q0 -171 -80 -268t-210 -97t-210 97t-80 268zM445 349q0 122 -36 181.5t-99 59.5t-99 -59.5t-36 -181.5t36 -180.5t99 -58.5q135 0 135 239z" />
    <glyph glyph-name="one.tnum" 
d="M428 127h146v-127h-500v127h212v303q0 69 26 121h-56q-25 -72 -62 -108t-95 -38v151q152 11 206 144h123v-573z" />
    <glyph glyph-name="two.tnum" 
d="M55 0v154q153 89 227 143.5t99.5 94t28.5 91.5q0 48 -29 77.5t-74 29.5q-107 0 -112 -147l-145 23q0 102 70.5 177t191.5 73q117 0 184 -60.5t67 -159.5q0 -96 -58 -166q-31 -37 -74 -68q-50 -34 -104 -63q-37 -20 -159 -80l29 -51q40 29 82.5 43.5t111.5 14.5h175v-126
h-511z" />
    <glyph glyph-name="three.tnum" 
d="M36 200l149 31q7 -60 38 -91.5t84 -31.5q51 0 80.5 25t29.5 70q0 40 -28.5 65.5t-78.5 25.5h-68v119h65q42 0 70 25t28 66q0 39 -28 63.5t-70 24.5q-44 0 -71 -29t-30 -79l-145 23q9 92 74 150.5t172 58.5q108 0 175 -52t67 -128q0 -69 -45 -106.5t-128 -42.5v-51
q90 -6 140 -49t50 -109q0 -90 -69.5 -142t-189.5 -52q-116 0 -186 56.5t-85 159.5z" />
    <glyph glyph-name="four.tnum" 
d="M347 0v167h-312v125l252 408h189v-414h96v-119h-96v-167h-129zM347 286v72q0 116 47 200l-42 29l-5 -7l-184 -294l-7 -12l38 -32q26 26 42 34t61 10h50z" />
    <glyph glyph-name="five.tnum" 
d="M48 169l132 45q14 -48 45.5 -77t79.5 -29q51 0 82.5 31t31.5 85q0 52 -32 84.5t-82 32.5q-73 0 -105 -60l-138 29l59 390h421v-126h-319l-11 -69q-10 -62 -23 -89.5t-44 -63.5h66q24 47 59 69t90 22q85 0 146 -60t61 -163q0 -107 -69 -171.5t-187 -64.5
q-104 0 -174.5 50.5t-88.5 134.5z" />
    <glyph glyph-name="six.tnum" 
d="M40 323q0 183 92.5 288t250.5 105q88 0 158 -26v-138q-72 31 -148 31q-104 0 -170 -63t-75 -186h49q15 61 58 94t111 33q91 0 155.5 -63t64.5 -164q0 -112 -72.5 -181t-187.5 -69q-131 -2 -209.5 96.5t-76.5 242.5zM439 230q0 54 -33.5 88t-84.5 34q-57 0 -87.5 -32.5
t-30.5 -89.5q0 -54 33.5 -88t84.5 -34t84.5 34t33.5 88z" />
    <glyph glyph-name="seven.tnum" 
d="M462 574l10 7l-31 46q-65 -53 -161 -53h-219v126h502v-160q-122 -87 -187 -230.5t-65 -309.5h-154q0 97 26 188t71 162.5t97 127t111 96.5z" />
    <glyph glyph-name="eight.tnum" 
d="M44 177q0 76 55 113t137 43v51q-173 13 -173 149q0 75 65 129t181 54q115 0 182 -54t67 -129q0 -137 -172 -149v-51q88 -6 138.5 -44.5t50.5 -111.5q0 -86 -73.5 -139.5t-192.5 -53.5t-192 53.5t-73 139.5zM417 507q0 39 -30 64.5t-77 25.5t-77.5 -25.5t-30.5 -64.5
q0 -44 29.5 -69.5t78.5 -25.5q47 0 77 26t30 69zM424 206q0 44 -32 70.5t-84 26.5t-83.5 -26.5t-31.5 -70.5q0 -45 31 -71.5t84 -26.5q54 0 85 26.5t31 71.5z" />
    <glyph glyph-name="nine.tnum" 
d="M73 11v141q79 -32 162 -32q51 0 94.5 22.5t71.5 62.5q51 67 51 149h-49q-18 -49 -60 -78t-100 -29q-86 0 -145.5 60.5t-59.5 158.5q0 112 71 181t183 69q111 0 194 -80q90 -81 90 -258q0 -188 -90.5 -291t-249.5 -103q-95 0 -163 27zM411 475q0 52 -32 84.5t-81 32.5
q-48 0 -80.5 -32.5t-32.5 -84.5t32.5 -84.5t80.5 -32.5q49 0 81 32.5t32 84.5z" />
    <glyph glyph-name="zero.subs" horiz-adv-x="429" 
d="M42 92q0 96 46.5 153.5t125.5 57.5t126 -57.5t47 -153.5q0 -95 -47 -152t-126 -57t-125.5 57t-46.5 152zM271 92q0 119 -57 119q-26 0 -41 -31t-15 -88q0 -117 56 -117q57 0 57 117z" />
    <glyph glyph-name="one.subs" horiz-adv-x="308" 
d="M134 -108v196q0 52 28 108h-46q-11 -45 -30 -64t-53 -21v105q89 -2 116 78h94v-402h-109z" />
    <glyph glyph-name="two.subs" horiz-adv-x="400" 
d="M46 -108v101q116 65 153.5 99t37.5 73q0 21 -11 33.5t-30 12.5q-49 0 -47 -76l-108 11q0 69 44.5 113t114.5 44q68 0 110.5 -35t42.5 -89q0 -59 -43 -102q-23 -24 -63 -46q-36 -19 -115 -55l21 -40q28 19 35.5 23.5t24.5 12.5t30.5 9.5t35.5 2.5h74v-92h-307z" />
    <glyph glyph-name="three.subs" horiz-adv-x="396" 
d="M33 11l109 22q8 -59 55 -59q45 0 45 39q0 38 -52 38h-26v88h26q45 0 45 37q0 16 -10 26t-27 10q-19 0 -30 -15t-11 -42l-110 15q3 59 45 96t106 37q69 0 108 -27.5t39 -71.5q0 -79 -109 -84v-41q118 -5 118 -89q0 -47 -42.5 -77t-113.5 -30q-70 0 -114.5 34.5t-50.5 93.5
z" />
    <glyph glyph-name="four.subs" horiz-adv-x="415" 
d="M42 11l109 22q8 -59 55 -59q45 0 45 39q0 38 -52 38h-26v88h26q45 0 45 37q0 16 -10 26t-27 10q-19 0 -30 -15t-11 -42l-110 15q3 59 45 96t106 37q69 0 108 -27.5t39 -71.5q0 -79 -109 -84v-41q118 -5 118 -89q0 -47 -42.5 -77t-113.5 -30q-70 0 -114.5 34.5t-50.5 93.5
z" />
    <glyph glyph-name="five.subs" horiz-adv-x="397" 
d="M35 -1l103 28q13 -53 56 -53q22 0 36.5 14t14.5 37t-13 37t-34 14q-29 0 -46 -29l-101 21l35 226h257v-92h-174l-3 -23q-6 -44 -35 -78h47q20 54 74 54q44 0 74.5 -32.5t30.5 -89.5q0 -69 -44.5 -109.5t-115.5 -40.5q-66 0 -109 31t-53 85z" />
    <glyph glyph-name="six.subs" horiz-adv-x="407" 
d="M41 75q0 106 53.5 167t148.5 61q67 0 99 -21v-101q-51 26 -103 26q-107 0 -113 -112h39q16 70 87 70q48 0 81 -33.5t33 -96.5q0 -68 -43.5 -110t-112.5 -42q-76 0 -122.5 53t-46.5 139zM255 28q0 24 -13.5 39t-34.5 15t-34.5 -15t-13.5 -39t13.5 -39t34.5 -15t34.5 15.5
t13.5 38.5z" />
    <glyph glyph-name="seven.subs" horiz-adv-x="366" 
d="M243 202l19 12l-22 35q-58 -47 -132 -47h-76v92h303v-104q-65 -44 -101.5 -123.5t-34.5 -174.5h-115q-2 104 40.5 183t118.5 127z" />
    <glyph glyph-name="eight.subs" horiz-adv-x="402" 
d="M41 -7q0 39 27.5 62t78.5 26v42q-95 2 -95 78q0 47 40.5 74.5t107.5 27.5q68 0 109.5 -27.5t41.5 -74.5q0 -35 -27 -56t-71 -22v-42q48 -3 77.5 -26.5t29.5 -61.5q0 -51 -43.5 -80.5t-116.5 -29.5t-116 29.5t-43 80.5zM243 175q0 18 -11.5 28.5t-30.5 10.5t-30.5 -10.5
t-11.5 -28.5t11.5 -29t30.5 -11q20 0 31 11t11 29zM247 17q0 43 -47 43q-46 0 -46 -43t46 -43q47 0 47 43z" />
    <glyph glyph-name="nine.subs" horiz-adv-x="406" 
d="M61 -97v103q57 -25 113 -25q50 0 79 32t30 79h-41q-18 -67 -88 -67q-45 0 -78.5 38t-33.5 93q0 63 43 105t109 42q63 0 115 -47q55 -50 55 -151q0 -105 -52.5 -163.5t-146.5 -58.5q-63 0 -104 20zM243 161q0 23 -12.5 37t-32.5 14t-32.5 -14.5t-12.5 -36.5
q0 -23 12.5 -37.5t32.5 -14.5t32.5 14.5t12.5 37.5z" />
    <glyph glyph-name="zero.dnom" horiz-adv-x="429" 
d="M42 200q0 96 46.5 153.5t125.5 57.5t126 -57.5t47 -153.5q0 -95 -47 -152t-126 -57t-125.5 57t-46.5 152zM271 200q0 119 -57 119q-26 0 -41 -31t-15 -88q0 -117 56 -117q57 0 57 117z" />
    <glyph glyph-name="one.dnom" horiz-adv-x="308" 
d="M134 0v196q0 52 28 108h-46q-11 -45 -30 -64t-53 -21v105q89 -2 116 78h94v-402h-109z" />
    <glyph glyph-name="two.dnom" horiz-adv-x="400" 
d="M47 0v101q116 65 153.5 99t37.5 73q0 21 -11 33.5t-30 12.5q-49 0 -47 -76l-108 11q0 69 44.5 113t114.5 44q68 0 110.5 -35t42.5 -89q0 -59 -43 -102q-23 -24 -63 -46q-36 -19 -115 -55l21 -40q45 30 65 38t61 10h74v-92h-307z" />
    <glyph glyph-name="three.dnom" horiz-adv-x="396" 
d="M33 119l109 22q8 -59 55 -59q45 0 45 39q0 38 -52 38h-26v88h26q45 0 45 37q0 16 -10 26t-27 10q-19 0 -30 -15t-11 -42l-110 15q3 59 45 96t106 37q69 0 108 -27.5t39 -71.5q0 -79 -109 -84v-41q118 -5 118 -89q0 -47 -42.5 -77t-113.5 -30q-70 0 -114.5 34.5
t-50.5 93.5z" />
    <glyph glyph-name="four.dnom" horiz-adv-x="415" 
d="M219 0v90h-188v96l156 216h134v-224h56v-88h-56v-90h-102zM219 178v26q0 41 51 92l-32 26l-123 -169l31 -21q16 26 29 36t31 10h13z" />
    <glyph glyph-name="five.dnom" horiz-adv-x="397" 
d="M35 107l103 28q13 -53 56 -53q22 0 36.5 14t14.5 37t-13 37t-34 14q-29 0 -46 -29l-101 21l35 226h257v-92h-174l-3 -23q-6 -44 -35 -78h47q20 54 74 54q44 0 74.5 -32.5t30.5 -89.5q0 -69 -44.5 -109.5t-115.5 -40.5q-66 0 -109 31t-53 85z" />
    <glyph glyph-name="six.dnom" horiz-adv-x="407" 
d="M41 183q0 106 53.5 167t148.5 61q67 0 99 -21v-101q-51 26 -103 26q-107 0 -113 -112h39q16 70 87 70q48 0 81 -33.5t33 -96.5q0 -68 -43.5 -110t-112.5 -42q-76 0 -122.5 53t-46.5 139zM255 136q0 24 -13.5 39t-34.5 15t-34.5 -15t-13.5 -39t13.5 -39t34.5 -15
t34.5 15.5t13.5 38.5z" />
    <glyph glyph-name="seven.dnom" horiz-adv-x="366" 
d="M243 310l19 12l-22 35q-58 -47 -132 -47h-76v92h303v-104q-65 -44 -101.5 -123.5t-34.5 -174.5h-115q-2 104 40.5 183t118.5 127z" />
    <glyph glyph-name="eight.dnom" horiz-adv-x="402" 
d="M41 101q0 39 27.5 62t78.5 26v42q-95 2 -95 78q0 47 40.5 74.5t107.5 27.5q68 0 109.5 -27.5t41.5 -74.5q0 -35 -27 -56t-71 -22v-42q48 -3 77.5 -26.5t29.5 -61.5q0 -51 -43.5 -80.5t-116.5 -29.5t-116 29.5t-43 80.5zM243 283q0 18 -11.5 28.5t-30.5 10.5t-30.5 -10.5
t-11.5 -28.5t11.5 -29t30.5 -11q20 0 31 11t11 29zM247 125q0 43 -47 43q-46 0 -46 -43t46 -43q47 0 47 43z" />
    <glyph glyph-name="nine.dnom" horiz-adv-x="406" 
d="M61 11v103q57 -25 113 -25q50 0 79 32t30 79h-41q-18 -67 -88 -67q-45 0 -78.5 38t-33.5 93q0 63 43 105t109 42q63 0 115 -47q55 -50 55 -151q0 -105 -52.5 -163.5t-146.5 -58.5q-63 0 -104 20zM243 269q0 23 -12.5 37t-32.5 14t-32.5 -14.5t-12.5 -36.5
q0 -23 12.5 -37.5t32.5 -14.5t32.5 14.5t12.5 37.5z" />
    <glyph glyph-name="zero.numr" horiz-adv-x="429" 
d="M42 498q0 96 46.5 153.5t125.5 57.5t126 -57.5t47 -153.5q0 -95 -47 -152t-126 -57t-125.5 57t-46.5 152zM271 498q0 119 -57 119q-26 0 -41 -31t-15 -88q0 -117 56 -117q57 0 57 117z" />
    <glyph glyph-name="one.numr" horiz-adv-x="308" 
d="M134 298v196q0 52 28 108h-46q-11 -45 -30 -64t-53 -21v105q89 -2 116 78h94v-402h-109z" />
    <glyph glyph-name="two.numr" horiz-adv-x="400" 
d="M47 298v101q116 65 153.5 99t37.5 73q0 21 -11 33.5t-30 12.5q-49 0 -47 -76l-108 11q0 69 44.5 113t114.5 44q68 0 110.5 -35t42.5 -89q0 -59 -43 -102q-23 -24 -63 -46q-36 -19 -115 -55l21 -40q45 30 65 38t61 10h74v-92h-307z" />
    <glyph glyph-name="three.numr" horiz-adv-x="396" 
d="M33 417l109 22q8 -59 55 -59q45 0 45 39q0 38 -52 38h-26v88h26q45 0 45 37q0 16 -10 26t-27 10q-19 0 -30 -15t-11 -42l-110 15q3 59 45 96t106 37q69 0 108 -27.5t39 -71.5q0 -79 -109 -84v-41q118 -5 118 -89q0 -47 -42.5 -77t-113.5 -30q-70 0 -114.5 34.5
t-50.5 93.5z" />
    <glyph glyph-name="four.numr" horiz-adv-x="415" 
d="M220 298v90h-188v96l156 216h134v-224h56v-88h-56v-90h-102zM220 476v26q0 41 51 92l-32 26l-123 -169l31 -21q16 26 29 36t31 10h13z" />
    <glyph glyph-name="five.numr" horiz-adv-x="397" 
d="M35 405l103 28q13 -53 56 -53q22 0 36.5 14t14.5 37t-13 37t-34 14q-29 0 -46 -29l-101 21l35 226h257v-92h-174l-3 -23q-6 -44 -35 -78h47q20 54 74 54q44 0 74.5 -32.5t30.5 -89.5q0 -69 -44.5 -109.5t-115.5 -40.5q-66 0 -109 31t-53 85z" />
    <glyph glyph-name="six.numr" horiz-adv-x="407" 
d="M41 481q0 106 53.5 167t148.5 61q67 0 99 -21v-101q-51 26 -103 26q-107 0 -113 -112h39q16 70 87 70q48 0 81 -33.5t33 -96.5q0 -68 -43.5 -110t-112.5 -42q-76 0 -122.5 53t-46.5 139zM255 434q0 24 -13.5 39t-34.5 15t-34.5 -15t-13.5 -39t13.5 -39t34.5 -15
t34.5 15.5t13.5 38.5z" />
    <glyph glyph-name="seven.numr" horiz-adv-x="366" 
d="M243 608l19 12l-22 35q-58 -47 -132 -47h-76v92h303v-104q-65 -44 -101.5 -123.5t-34.5 -174.5h-115q-2 104 40.5 183t118.5 127z" />
    <glyph glyph-name="eight.numr" horiz-adv-x="402" 
d="M41 399q0 39 27.5 62t78.5 26v42q-95 2 -95 78q0 47 40.5 74.5t107.5 27.5q68 0 109.5 -27.5t41.5 -74.5q0 -35 -27 -56t-71 -22v-42q48 -3 77.5 -26.5t29.5 -61.5q0 -51 -43.5 -80.5t-116.5 -29.5t-116 29.5t-43 80.5zM243 581q0 18 -11.5 28.5t-30.5 10.5t-30.5 -10.5
t-11.5 -28.5t11.5 -29t30.5 -11q20 0 31 11t11 29zM247 423q0 43 -47 43q-46 0 -46 -43t46 -43q47 0 47 43z" />
    <glyph glyph-name="nine.numr" horiz-adv-x="406" 
d="M61 309v103q57 -25 113 -25q50 0 79 32t30 79h-41q-18 -67 -88 -67q-45 0 -78.5 38t-33.5 93q0 63 43 105t109 42q63 0 115 -47q55 -50 55 -151q0 -105 -52.5 -163.5t-146.5 -58.5q-63 0 -104 20zM243 567q0 23 -12.5 37t-32.5 14t-32.5 -14.5t-12.5 -36.5
q0 -23 12.5 -37.5t32.5 -14.5t32.5 14.5t12.5 37.5z" />
    <glyph glyph-name="comma.ss04" horiz-adv-x="290" 
d="M60 -165l55 94q24 42 61 62l-23 35q-31 -26 -66 -26h-24v158h165v-158l-97 -165h-71z" />
    <glyph glyph-name="semicolon.ss04" horiz-adv-x="286" 
d="M58 -165l55 94q24 42 61 62l-23 35q-31 -26 -66 -26h-24v158h165v-158l-97 -165h-71zM60 352v158h165v-158h-165z" />
    <glyph glyph-name="exclamdown.case" horiz-adv-x="307" 
d="M237 700v-157h-166v157h166zM186 449l47 -290v-159h-158v159l46 290h65z" />
    <glyph glyph-name="questiondown.case" horiz-adv-x="541" 
d="M362 700v-157h-165v157h165zM252 278q-33 -26 -48.5 -47t-15.5 -49q0 -36 23.5 -57t62.5 -21q91 0 97 126l140 -22q-5 -104 -67.5 -163.5t-173.5 -59.5t-171 53.5t-60 131.5q2 63 28 99t88 82q60 44 60 98h131q-3 -69 -21.5 -100.5t-72.5 -70.5z" />
    <glyph glyph-name="period.tnum" 
d="M211 0v190h198v-190h-198z" />
    <glyph glyph-name="comma.tnum" 
d="M208 -198l115 198h-111v190h198v-190l-117 -198h-85z" />
    <glyph glyph-name="colon.tnum" 
d="M211 381v190h198v-190h-198zM211 0v190h198v-190h-198z" />
    <glyph glyph-name="semicolon.tnum" 
d="M212 381v190h198v-190h-198zM208 -198l115 198h-111v190h198v-190l-117 -198h-85z" />
    <glyph glyph-name="semicolon.tnum_ss04" 
d="M217 381v190h198v-190h-198zM213 -198l66 113q17 30 33 45.5t40 28.5l-27 42q-38 -31 -79 -31h-29v190h198v-190l-117 -198h-85z" />
    <glyph glyph-name="numbersign.tnum" 
d="M65 0l10 49q7 39 24 69.5t57 66.5l-39 36q-29 -33 -45.5 -42.5t-37.5 -9.5h-12v114h103l28 133h-101v125h127l34 159h122l-9 -39q-11 -74 -81 -136l39 -36q32 36 49 44t54 8h14l34 159h121l-7 -39q-7 -39 -24 -69.5t-57 -66.5l39 -36q29 33 45.5 42.5t37.5 9.5h8v-125
h-102l-28 -133h100v-114h-124l-36 -169h-122l10 49q11 74 81 136l-39 36q-32 -36 -49 -44t-54 -8h-12l-36 -169h-122zM247 283h99l28 133h-99z" />
    <glyph glyph-name="parenleft.case" horiz-adv-x="351" 
d="M44 352q0 88 15.5 166.5t47 145t87 107.5t127.5 44v-122q-85 -16 -116 -109q-31 -92 -31 -232q0 -139 31 -232t116 -109v-121q-72 7 -127 48t-87 106t-47.5 142.5t-15.5 165.5z" />
    <glyph glyph-name="parenright.case" horiz-adv-x="352" 
d="M308 354q0 -89 -15.5 -168t-47.5 -145.5t-87 -107t-127 -43.5v122q85 16 116 109q31 92 31 233q0 139 -31 231q-31 93 -116 109v121q100 -9 161 -78q116 -127 116 -383z" />
    <glyph glyph-name="braceleft.case" horiz-adv-x="379" 
d="M119 44v163q0 51 -20.5 69.5t-67.5 18.5v114q48 0 68 15.5t20 63.5v173q0 77 33 110.5t114 33.5h81v-106h-35q-34 0 -48.5 -14t-14.5 -50v-146q0 -60 -29.5 -84t-100.5 -27v-49q72 -5 101 -29t29 -84v-145q0 -36 14.5 -50.5t48.5 -14.5h35v-106h-81q-81 0 -114 33.5
t-33 110.5z" />
    <glyph glyph-name="braceright.case" horiz-adv-x="379" 
d="M260 661v-163q0 -51 20.5 -69.5t67.5 -18.5v-114q-49 0 -68.5 -15t-19.5 -64v-173q0 -76 -33 -110t-114 -34h-81v106h35q34 0 48.5 14.5t14.5 49.5v146q0 60 29.5 84t100.5 27v49q-72 5 -101 29t-29 84v145q0 36 -14.5 50.5t-48.5 14.5h-35v106h81q81 0 114 -33.5
t33 -110.5z" />
    <glyph glyph-name="bracketleft.case" horiz-adv-x="373" 
d="M87 -100v905h256v-110h-126v-685h126v-110h-256z" />
    <glyph glyph-name="bracketright.case" horiz-adv-x="373" 
d="M286 805v-905h-256v110h126v685h-126v110h256z" />
    <glyph glyph-name="angleleft.case" horiz-adv-x="383" 
d="M162 357l204 -403l-118 -64l-229 462l230 463l116 -65z" />
    <glyph glyph-name="angleright.case" horiz-adv-x="384" 
d="M136 815l229 -461l-230 -464l-116 65l203 394l-204 402z" />
    <glyph glyph-name="uni3010.case" horiz-adv-x="399" 
d="M87 -100v905h317q-97 -110 -142 -219t-45 -232q0 -243 187 -454h-317z" />
    <glyph glyph-name="uni3011.case" horiz-adv-x="399" 
d="M312 805v-905h-317q97 110 142 219t45 232q0 124 -45 234t-142 220h317z" />
    <glyph glyph-name="uni300C.case" horiz-adv-x="389" 
d="M74 354v451h298v-110h-168v-341h-130z" />
    <glyph glyph-name="uni300D.case" horiz-adv-x="384" 
d="M314 351v-451h-298v110h168v341h130z" />
    <glyph glyph-name="uni300A.case" horiz-adv-x="643" 
d="M365 750l-203 -393l204 -403l-118 -64l-229 463l230 462zM422 357l204 -403l-118 -64l-229 463l230 462l116 -65z" />
    <glyph glyph-name="uni300B.case" horiz-adv-x="644" 
d="M136 816l229 -463l-230 -462l-116 65l203 393l-204 403zM396 816l229 -463l-230 -462l-116 65l203 393l-204 403z" />
    <glyph glyph-name="uni3014.case" horiz-adv-x="358" 
d="M187 151l156 -175l-96 -86l-190 211v504l191 210l93 -87l-154 -165v-412z" />
    <glyph glyph-name="uni3015.case" horiz-adv-x="357" 
d="M110 815l190 -211v-504l-191 -210l-93 87l154 165v412l-156 175z" />
    <glyph glyph-name="uni300E.case" horiz-adv-x="567" 
d="M86 244v561h446v-260h-169v-301h-277zM196 344h67v296h159v65h-226v-361z" />
    <glyph glyph-name="uni300F.case" horiz-adv-x="561" 
d="M481 460v-561h-446v260h169v301h277zM371 360h-67v-296h-159v-64h226v360z" />
    <glyph glyph-name="hyphen.case" horiz-adv-x="484" 
d="M64 304v130h356v-130h-356z" />
    <glyph glyph-name="uni00AD.case" horiz-adv-x="484" 
d="M64 304v130h356v-130h-356z" />
    <glyph glyph-name="endash.case" horiz-adv-x="656" 
d="M66 311v114h524v-114h-524z" />
    <glyph glyph-name="emdash.case" horiz-adv-x="906" 
d="M66 312v114h774v-114h-774z" />
    <glyph glyph-name="quotesinglbase.ss04" horiz-adv-x="278" 
d="M58 -157l52 90q24 39 58 59l-22 32q-30 -24 -63 -24h-22v150h157v-150l-93 -157h-67z" />
    <glyph glyph-name="quotedblbase.ss04" horiz-adv-x="488" 
d="M58 -157l52 90q24 39 58 59l-22 32q-30 -24 -63 -24h-22v150h157v-150l-93 -157h-67zM268 -157l52 90q24 39 58 59l-22 32q-30 -24 -63 -24h-22v150h157v-150l-93 -157h-67z" />
    <glyph glyph-name="quotedblleft.ss04" horiz-adv-x="478" 
d="M212 701l-52 -90q-25 -41 -58 -59l22 -32q30 24 63 24h22v-150h-157v150l93 157h67zM422 701l-52 -90q-25 -41 -58 -59l22 -32q30 24 62 24h23v-150h-157v150l92 157h68z" />
    <glyph glyph-name="quotedblright.ss04" horiz-adv-x="469" 
d="M58 393l52 90q24 39 58 59l-22 32q-30 -24 -63 -24h-22v150h157v-150l-93 -157h-67zM268 393l52 90q24 39 58 59l-22 32q-30 -24 -63 -24h-22v150h157v-150l-93 -157h-67z" />
    <glyph glyph-name="quoteleft.ss04" horiz-adv-x="268" 
d="M212 701l-52 -90q-25 -41 -58 -59l22 -32q30 24 63 24h22v-150h-157v150l93 157h67z" />
    <glyph glyph-name="quoteright.ss04" horiz-adv-x="259" 
d="M58 393l52 90q24 39 58 59l-22 32q-30 -24 -63 -24h-22v150h157v-150l-93 -157h-67z" />
    <glyph glyph-name="guillemotleft.case" horiz-adv-x="622" 
d="M327 580l-145 -238l144 -239h-150l-141 239l142 238h150zM572 580l-145 -238l144 -239h-150l-141 240l142 237h150z" />
    <glyph glyph-name="guillemotright.case" horiz-adv-x="622" 
d="M201 580l141 -240l-142 -237h-150l145 238l-144 239h150zM446 580l141 -239l-142 -238h-150l145 238l-144 239h150z" />
    <glyph glyph-name="guilsinglleft.case" horiz-adv-x="377" 
d="M327 580l-145 -238l144 -239h-150l-141 239l142 238h150z" />
    <glyph glyph-name="guilsinglright.case" horiz-adv-x="377" 
d="M201 580l141 -239l-142 -238h-150l145 238l-144 239h150z" />
    <glyph glyph-name="space.tnum" 
 />
    <glyph glyph-name="uni20BF.tnum" 
d="M411 2v-106h-92v104h-48v-104h-92v104h-128v700h128v99h92v-99h48v99h92v-101q90 -7 137.5 -51t47.5 -106q0 -67 -50 -105.5t-130 -41.5v-52q91 -2 147 -41.5t56 -116.5q0 -74 -55.5 -123t-152.5 -59zM338 574h-135v-151h135q106 0 106 76q0 40 -26.5 57.5t-79.5 17.5z
M462 213q0 88 -122 88h-137v-175h137q122 0 122 87z" />
    <glyph glyph-name="cent.tnum" 
d="M276 -119v107q-97 15 -158 86.5t-61 175.5t60.5 174t158.5 87v118h85v-116q73 -9 126 -48.5t77 -100.5l-131 -49q-24 64 -72 81v-163q0 -54 -6 -78t-32 -48l32 -32q59 31 83 117l134 -48q-26 -66 -81.5 -107.5t-129.5 -50.5v-105h-85zM276 106v154q0 52 7.5 82t30.5 52
l-32 33q-82 -58 -82 -173q0 -114 76 -148z" />
    <glyph glyph-name="currency.tnum" 
d="M126 72l-97 97l77 76q-28 48 -28 107q0 58 27 108l-76 77l97 96l79 -79q50 25 106 25q59 0 104 -25l79 79l97 -96l-76 -77q28 -48 28 -108q0 -56 -28 -108l76 -75l-97 -97l-78 79q-49 -25 -105 -25q-57 0 -106 25zM413 352q0 45 -28.5 76t-73.5 31t-74 -31.5t-29 -75.5
t29 -75t74 -31t73.5 31t28.5 75z" />
    <glyph glyph-name="dollar.tnum" 
d="M270 -99v86q-99 11 -159.5 68.5t-81.5 142.5l126 48q9 -50 39 -88t76 -50v186l-21 4q-93 18 -140.5 68t-47.5 141q0 80 56 138.5t153 68.5v85h91v-86q84 -12 138.5 -61t75.5 -121l-120 -48q-26 85 -94 107v-172l26 -6q195 -46 195 -211q0 -86 -57 -145.5t-164 -69.5v-85
h-91zM270 435v35q0 89 45 126l-23 37q-93 -35 -93 -118q0 -63 71 -80zM443 192q0 33 -21.5 55.5t-60.5 30.5v-35q0 -27 -2 -44.5t-12.5 -41.5t-30.5 -40l23 -37q104 35 104 112z" />
    <glyph glyph-name="Euro.tnum" 
d="M100 220h-65v90h52q-1 4 -1 35q0 30 1 34h-52v90h62q23 114 89 180.5t159 66.5q97 0 161.5 -56t84.5 -160l-132 -30q-10 54 -40 87t-75 33q-85 0 -136 -122l37 -26q27 27 67 27h43v-90h-130q-1 -11 -1 -34q0 -24 1 -35h130v-90h-43q-40 0 -67 27l-37 -26
q50 -110 136 -110q46 0 72.5 32.5t42.5 98.5l135 -41q-32 -111 -92.5 -164t-156.5 -53q-91 0 -157.5 64t-87.5 172z" />
    <glyph glyph-name="uni20BA.tnum" 
d="M141 0v74q0 79 44 142l-44 26q-23 -54 -62 -74l-32 -17v119l94 50v66l-94 -50v119l94 50v200h144v-56q0 -37 -36 -89l45 -23q22 61 90 96l91 48v-118l-190 -100v-67l190 100v-118l-190 -100v-143h19q56 0 104 48.5t71 125.5l130 -66q-37 -108 -124 -175q-88 -68 -246 -68
h-98z" />
    <glyph glyph-name="uni20BD.tnum" 
d="M354 273h-104v-55h204v-104h-204v-114h-141v114h-68v104h68v55h-68v114h68v313h245q105 0 170.5 -60.5t65.5 -160.5q0 -92 -66 -149t-170 -57zM250 574v-187h84q51 0 81 25t30 67q0 44 -30 69.5t-81 25.5h-84z" />
    <glyph glyph-name="uni20B9.tnum" 
d="M377 630l-20 -45q53 -13 83 -40h134v-100h-106q-23 -100 -185 -102v-46q80 -2 119.5 -28.5t55.5 -97.5l38 -171h-162l-30 158q-12 63 -38.5 85.5t-90.5 22.5h-114v124h152q74 0 100 55h-252v100h253q-24 55 -101 55h-152v100h513v-100h-69q-70 0 -128 30z" />
    <glyph glyph-name="sterling.tnum" 
d="M385 126h181v-126h-498v131q48 17 86 42q40 27 40 73q0 27 -10 48h-114v89h55q-38 58 -38 117q0 98 70 157t169 59q85 0 152.5 -52t81.5 -146l-144 -35q-6 54 -32 81.5t-64 27.5q-40 0 -64.5 -24t-24.5 -66q0 -46 47 -119h148v-89h-110q1 -10 1 -23q-2 -57 -33.5 -87.5
t-113.5 -68.5l27 -50q77 61 188 61z" />
    <glyph glyph-name="uni20A9.tnum" 
d="M593 386h-72l-7 -69h79v-90h-88l-22 -227h-148v78v212h-52v-212v-78h-153l-20 227h-83v90h76l-6 69h-70v90h62l-19 224h115v-101v-446h50q0 76 3 136l8 140l5 77h118l5 -77q6 -103 7 -137q2 -44 4 -139h50v446v101h117l-22 -224h63v-90z" />
    <glyph glyph-name="yen.tnum" 
d="M637 700l-193 -300h119v-89h-175v-71h175v-89h-175v-151h-152v151h-177v89h177v71h-177v89h119l-196 300h175l80 -136q31 -55 39.5 -94t10.5 -115h54q2 56 4 79q8 66 45 133l76 133h171z" />
    <glyph glyph-name="_576" 
d="M139 98l-80 80l170 170l-171 171l81 81l171 -171l170 170l80 -80l-170 -170l170 -170l-81 -81l-170 170z" />
    <glyph glyph-name="plus.tnum" 
d="M250 88v205h-205v120h205v205h120v-205h205v-120h-205v-205h-120z" />
    <glyph glyph-name="minus.tnum" 
d="M72 293v120h477v-120h-477z" />
    <glyph glyph-name="multiply.tnum" 
d="M139 98l-80 80l170 170l-171 171l81 81l171 -171l170 170l80 -80l-170 -170l170 -170l-81 -81l-170 170z" />
    <glyph glyph-name="divide.tnum" 
d="M236 480v138h148v-138h-148zM71 293v120h477v-120h-477zM236 88v138h148v-138h-148z" />
    <glyph glyph-name="equal.tnum" 
d="M69 410v120h482v-120h-482zM69 170v120h482v-120h-482z" />
    <glyph glyph-name="notequal.tnum" 
d="M109 88l43 82h-84v120h147l33 60q15 27 64 75l-30 39q-47 -54 -123 -54h-91v120h274l46 88h112l-46 -88h96v-120h-159l-32 -60q-15 -27 -64 -75l31 -39q46 54 117 54h107v-120h-285l-44 -82h-112z" />
    <glyph glyph-name="greater.tnum" 
d="M82 74v129l186 68q63 23 116 37q45 11 104 16v48q-59 5 -104 16q-53 14 -116 37l-186 68v132l481 -180v-191z" />
    <glyph glyph-name="less.tnum" 
d="M538 625v-129l-186 -68q-66 -24 -117 -37q-43 -11 -103 -16v-48q60 -5 103 -16q51 -13 117 -37l186 -68v-132l-482 180v191z" />
    <glyph glyph-name="greaterequal.tnum" 
d="M73 236v119l167 32q70 13 238 18v48q-156 5 -238 19l-167 31v127l481 -100v-191zM73 88v120h481v-120h-481z" />
    <glyph glyph-name="lessequal.tnum" 
d="M548 237l-482 100v191l482 103v-119l-168 -32q-69 -13 -237 -18v-48q154 -3 237 -19l168 -31v-127zM66 88v120h482v-120h-482z" />
    <glyph glyph-name="plusminus.tnum" 
d="M260 254v123h-184v110h184v131h109v-131h184v-110h-184v-123h-109zM65 88v120h482v-120h-482z" />
    <glyph glyph-name="approxequal.tnum" 
d="M299 390l-43 24q-27 15 -53 15q-49 0 -85 -55l-84 72q27 51 73 79.5t101 28.5q54 0 109 -29l40 -22q35 -18 59 -18q45 0 85 58l84 -75q-27 -51 -73.5 -79.5t-101.5 -28.5q-56 0 -111 30zM299 170l-43 24q-27 15 -53 15q-49 0 -85 -55l-84 72q27 51 73 79.5t101 28.5
q54 0 109 -29l40 -22q35 -18 59 -18q45 0 85 58l84 -75q-27 -51 -73.5 -79.5t-101.5 -28.5q-56 0 -111 30z" />
    <glyph glyph-name="logicalnot.tnum" 
d="M434 154v144h-369v120h477v-264h-108z" />
    <glyph glyph-name="percent.tnum" 
d="M7 553q0 74 38.5 118.5t105.5 44.5q66 0 103.5 -45t37.5 -118q0 -75 -37.5 -120.5t-103.5 -45.5t-105 45.5t-39 120.5zM72 0l379 700h97l-378 -700h-98zM201 553q0 88 -50 88q-24 0 -38.5 -23t-14.5 -65q0 -91 52 -91q51 0 51 91zM329 150q0 74 38.5 118.5t105.5 44.5
q66 0 103.5 -45.5t37.5 -117.5q0 -76 -37.5 -121t-103.5 -45q-65 0 -104.5 45.5t-39.5 120.5zM523 150q0 88 -50 88q-24 0 -38.5 -23.5t-14.5 -64.5q0 -91 52 -91q51 0 51 91z" />
    <glyph glyph-name="perthousand.tnum" 
d="M3 553q0 75 31 119t88 44q56 0 86 -44t30 -119q0 -77 -30 -121.5t-86 -44.5t-87.5 45t-31.5 121zM403 700h77l-388 -700h-78zM89 553q0 -49 7 -70t25 -21t24.5 21t6.5 70q0 47 -6.5 67.5t-23.5 20.5q-33 0 -33 -88zM617 150q0 -77 -27.5 -121.5t-78.5 -44.5q-45 0 -73 37
q-27 -37 -71 -37q-49 0 -79 45.5t-30 120.5q0 74 28.5 118.5t80.5 44.5q46 0 71 -31q25 31 73 31q51 0 78.5 -44.5t27.5 -118.5zM401 150q0 48 -6.5 68t-23.5 20q-32 0 -32 -88q0 -49 6.5 -70t24.5 -21t24.5 20t6.5 71zM536 150q0 47 -6.5 67.5t-23.5 20.5q-33 0 -33 -88
q0 -49 7 -70t25 -21t24.5 20.5t6.5 70.5z" />
    <glyph glyph-name="at.case" horiz-adv-x="945" 
d="M40 343q-2 126 61.5 225t165 149.5t219.5 48.5q184 2 311.5 -104t124.5 -273q0 -115 -62.5 -188.5t-144.5 -73.5q-108 0 -116 104h-36q-35 -104 -134 -104q-67 0 -110.5 65t-43.5 157q0 85 43.5 144t110.5 59q58 0 86.5 -27t48.5 -75h44q-23 43 -23 91h95v-277
q0 -14 9 -23t24 -9q34 0 56.5 41t22.5 115q0 124 -83.5 196.5t-222.5 72.5q-138 0 -227 -82.5t-89 -230.5q0 -153 85 -233.5t238 -80.5q143 0 256 55l49 -101q-126 -63 -305 -63q-203 -2 -328.5 111.5t-124.5 310.5zM558 351q0 48 -21 77.5t-59 29.5q-37 0 -57.5 -29.5
t-20.5 -79.5q0 -53 20.5 -85t57.5 -32q38 0 59 33t21 86z" />
    <glyph glyph-name="registered.case" horiz-adv-x="875" 
d="M40 356q-3 161 116 279t281 115q162 3 282 -115t117 -279q2 -105 -52.5 -197.5t-147.5 -146t-199 -51.5q-106 -2 -198.5 51.5t-146.5 145.5t-52 198zM738 356q2 123 -87 213.5t-213 87.5q-125 3 -214 -87.5t-86 -213.5q-3 -123 86 -213t214 -88q124 -2 213 88t87 213z
M275 152v415h210q58 0 96.5 -29t38.5 -73q0 -87 -117 -100v-33q42 0 64 -21t29 -66l15 -93h-98l-13 92q-6 42 -24 60t-56 18h-51v-170h-94zM369 390h89q66 0 66 54t-68 54h-87v-108z" />
    <glyph glyph-name="section.tnum" 
d="M89 -33l127 37q16 -87 95 -87q37 0 57.5 18.5t20.5 46.5q0 50 -59 69l-156 54q-69 24 -99.5 54t-30.5 77q0 52 34.5 86t101.5 42v50q-83 36 -83 122q0 74 58.5 127t152.5 53q93 0 148.5 -48t68.5 -125l-127 -37q-20 86 -92 86q-34 0 -54 -20.5t-20 -47.5
q0 -26 12.5 -41.5t47.5 -26.5l156 -54q65 -23 97.5 -54t32.5 -77q0 -50 -34.5 -82t-101.5 -39v-50q82 -40 82 -130q0 -78 -58 -128t-156 -50q-96 0 -152 48t-69 127zM439 228q0 42 -52 62l-105 38l-38 13q-61 -25 -61 -62q0 -43 52 -62l104 -38q19 -8 37 -13q63 25 63 62z
" />
    <glyph glyph-name="degree.tnum" 
d="M120 604q0 79 54 133t136 54q81 0 135.5 -54t54.5 -133q0 -81 -53.5 -133.5t-137.5 -52.5q-83 0 -136 53t-53 133zM385 605q0 35 -21 57t-54 22q-32 0 -54 -22.5t-22 -56.5q0 -36 21.5 -59t54.5 -23t54 22.5t21 59.5z" />
    <glyph glyph-name="_642" horiz-adv-x="0" 
d="M-121 426l81 140h-79v134h140v-134l-82 -140h-60z" />
    <glyph glyph-name="_647" horiz-adv-x="277" 
d="M122 824l50 123h155l-110 -123h-95zM45 672q0 51 38 87t89 36q52 0 89 -35.5t37 -87.5t-37 -86.5t-89 -34.5q-51 0 -89 35t-38 86zM219 672q0 21 -13.5 35t-33.5 14t-34 -13.5t-14 -35.5t13.5 -35.5t34.5 -13.5q20 0 33.5 13.5t13.5 35.5z" />
    <glyph glyph-name="uni0327.ss04" horiz-adv-x="0" 
d="M-296 -183l49 64q37 -40 75 -40t38 26q0 10 -10 17.5t-25 7.5q-18 0 -27 -4l-37 49l65 63h90l-31 -27q-12 -11 -54 -31l14 -31q19 12 47 12q29 0 46.5 -16.5t17.5 -47.5q0 -38 -33.5 -66t-99.5 -28q-37 0 -71.5 15.5t-53.5 36.5z" />
    <glyph glyph-name="cedilla.ss04" horiz-adv-x="397" 
d="M302 -139q0 -40 -33.5 -68t-99.5 -28q-37 0 -71.5 15.5t-53.5 36.5l49 65q35 -34 75 -34q38 0 38 22t-35 22q-15 0 -27 -3l-37 48l65 63h90l-31 -27l-12 -10l-14 -13h3q36 0 65 -23t29 -66z" />
    <glyph glyph-name="_670" horiz-adv-x="0" 
d="M-336 566v120h145v-120h-145zM-94 566v120h145v-120h-145z" />
    <glyph glyph-name="_671" horiz-adv-x="0" 
d="M-126 566v134h151v-134h-151z" />
    <glyph glyph-name="_672" horiz-adv-x="0" 
d="M-107 566l-121 154h172l55 -154h-106z" />
    <glyph glyph-name="_673" horiz-adv-x="0" 
d="M-184 566l55 154h171l-122 -154h-104z" />
    <glyph glyph-name="_674" horiz-adv-x="0" 
d="M-377 566l55 154h171l-122 -154h-104zM-170 566l55 154h171l-122 -154h-104z" />
    <glyph glyph-name="_675" horiz-adv-x="0" 
d="M-426 566l121 129h189l121 -129h-134l-81 71l-82 -71h-134z" />
    <glyph glyph-name="_676" horiz-adv-x="0" 
d="M-25 695l-121 -129h-189l-121 129h134l81 -71l82 71h134z" />
    <glyph glyph-name="_677" horiz-adv-x="0" 
d="M-384 695h108q4 -22 25 -40.5t57 -18.5t57.5 18.5t23.5 40.5h109q-3 -63 -50 -103.5t-140 -40.5t-140 40.5t-50 103.5z" />
    <glyph glyph-name="_678" horiz-adv-x="0" 
d="M-271 667q0 55 40 92t93 37q54 0 93.5 -37t39.5 -92q0 -54 -39.5 -90.5t-93.5 -36.5t-93.5 36.5t-39.5 90.5zM-88 667q0 23 -14.5 37.5t-35.5 14.5t-35.5 -14.5t-14.5 -37.5q0 -22 14.5 -36.5t35.5 -14.5t35.5 14.5t14.5 36.5z" />
    <glyph glyph-name="_679" horiz-adv-x="277" 
d="M112 813l50 123h155l-110 -123h-95zM35 661q0 51 38 87t89 36q52 0 89 -35.5t37 -87.5t-37 -86.5t-89 -34.5q-51 0 -89 35t-38 86zM209 661q0 21 -13.5 35t-33.5 14t-34 -14t-14 -35q0 -22 13.5 -35.5t34.5 -13.5q20 0 33.5 13.5t13.5 35.5z" />
    <glyph glyph-name="_680" horiz-adv-x="0" 
d="M-220 582l-28 15q-36 18 -53 18q-42 0 -42 -49h-113q0 66 39.5 102.5t106.5 36.5q41 0 95 -26l27 -15q34 -18 54 -18q40 0 42 49h108q0 -139 -141 -139q-45 0 -95 26z" />
    <glyph glyph-name="_681" horiz-adv-x="0" 
d="M-361 576v96h347v-96h-347z" />
    <glyph glyph-name="_682" horiz-adv-x="0" 
d="M-144 -195v134h151v-134h-151z" />
    <glyph glyph-name="NULL" horiz-adv-x="0" 
 />
    </font>
</defs>
</svg>
