<?xml version="1.0" standalone="no"?>
<!DOCTYPE svg PUBLIC "-//W3C//DTD SVG 1.1//EN" "http://www.w3.org/Graphics/SVG/1.1/DTD/svg11.dtd" >
<svg xmlns="http://www.w3.org/2000/svg" xmlns:xlink="http://www.w3.org/1999/xlink" version="1.1">
<metadata>
Created by FontForge 20170731 at Tue Mar 12 05:31:11 2019
 By Aleksey,,,
Copyright 2019 Dinamo (Johannes Breyer, Fabian Harb) &#38; Erkin Karamemet. All rights reserved.
</metadata>
<defs>
<font id="WhyteInktrap-Thin" horiz-adv-x="620" >
  <font-face 
    font-family="Whyte Inktrap Thin"
    font-weight="250"
    font-stretch="normal"
    units-per-em="1000"
    panose-1="2 11 0 4 5 1 1 2 1 3"
    ascent="800"
    descent="-200"
    x-height="490"
    cap-height="700"
    bbox="-377 -269 1091 1097"
    underline-thickness="24"
    underline-position="-97"
    unicode-range="U+000D-FB02"
  />
<missing-glyph horiz-adv-x="698" 
d="M120 0v700h458v-700h-458zM150 28h398v644h-398v-644z" />
    <glyph glyph-name="fi" unicode="fi" horiz-adv-x="558" 
d="M458 0h-30v463h-246v-463h-29v463h-133v27h133v80q0 130 140 130h55v-28h-61q-105 0 -105 -105v-77h275zM458 700v-88h-30v88h30z" />
    <glyph glyph-name="fl" unicode="fl" horiz-adv-x="552" 
d="M452 700v-700h-29v672h-136q-105 0 -105 -105v-77h150v-27h-150v-463h-29v463h-133v27h133v80q0 122 123 130h176z" />
    <glyph glyph-name="f_f" unicode="ff" horiz-adv-x="665" 
d="M496 567v-77h150v-27h-150v-463h-29v463h-285v-463h-29v463h-133v27h133v80q0 130 140 130h55v-28h-61q-105 0 -105 -105v-77h285v80q0 130 140 130h55v-28h-61q-105 0 -105 -105z" />
    <glyph glyph-name="f_f_i" unicode="ffi" horiz-adv-x="922" 
d="M822 0h-30v463h-296v-463h-29v463h-285v-463h-29v463h-133v27h133v80q0 130 140 130h55v-28h-61q-105 0 -105 -105v-77h285v80q0 130 140 130h55v-28h-61q-105 0 -105 -105v-77h325zM821 700v-88h-29v88h29z" />
    <glyph glyph-name="f_f_l" unicode="ffl" horiz-adv-x="911" 
d="M811 700v-700h-29v672h-181q-105 0 -105 -105v-77h150v-27h-150v-463h-29v463h-285v-463h-29v463h-133v27h133v80q0 130 140 130h55v-28h-61q-105 0 -105 -105v-77h285v80q0 130 140 130h204z" />
    <glyph glyph-name=".notdef" horiz-adv-x="698" 
d="M120 0v700h458v-700h-458zM150 28h398v644h-398v-644z" />
    <glyph glyph-name=".null" horiz-adv-x="0" 
 />
    <glyph glyph-name="nonmarkingreturn" horiz-adv-x="333" 
 />
    <glyph glyph-name="CR" unicode="&#xd;" horiz-adv-x="291" 
 />
    <glyph glyph-name="space" unicode=" " horiz-adv-x="291" 
 />
    <glyph glyph-name="exclam" unicode="!" horiz-adv-x="256" 
d="M119 183l-6 357v160h30v-160l-5 -357h-19zM103 0v84h50v-84h-50z" />
    <glyph glyph-name="quotedbl" unicode="&#x22;" horiz-adv-x="350" 
d="M87 500l-4 149v51h28v-51l-4 -149h-20zM243 500l-4 149v51h28v-51l-4 -149h-20z" />
    <glyph glyph-name="numbersign" unicode="#" horiz-adv-x="675" 
d="M138 0l31 153q10 47 28 71l-16 20q-20 -15 -61 -15h-77v28h148l41 198h-139v28h145l45 217h29l-30 -141q-7 -33 -11.5 -45t-16.5 -26l16 -20q20 15 61 15h138l45 217h29l-29 -141q-7 -33 -11.5 -45t-16.5 -26l16 -20q20 15 61 15h69v-28h-140l-41 -198h131v-28h-137
l-47 -229h-29l32 153q10 49 28 71l-16 20q-20 -15 -61 -15h-138l-47 -229h-29zM220 257h202l41 198h-202z" />
    <glyph glyph-name="dollar" unicode="$" horiz-adv-x="571" 
d="M266 -111v99q-83 5 -141.5 47t-82.5 118l29 15q16 -66 70 -105.5t125 -44.5v338l-38 13q-77 26 -118 63.5t-41 105.5q0 78 55 123.5t142 50.5v93h28v-93q89 -4 144 -47.5t67 -94.5l-27 -15q-12 46 -59 85.5t-125 43.5v-305l61 -20q164 -53 164 -185q0 -83 -60 -133
t-165 -53v-99h-28zM266 388v177q0 90 15 117l-13 16q-79 -13 -124.5 -52.5t-45.5 -105.5q0 -58 38 -91t130 -61zM488 173q0 69 -42 106.5t-152 68.5v-213q0 -90 -15 -117l13 -16q78 5 137 51t59 120z" />
    <glyph glyph-name="percent" unicode="%" horiz-adv-x="808" 
d="M142 0l493 700h34l-492 -700h-35zM451 199q0 88 43 142.5t111 54.5t109.5 -54.5t41.5 -142.5q0 -93 -41.5 -149t-109.5 -56q-70 0 -112 56t-42 149zM726 199q0 77 -33 123.5t-88 46.5q-57 0 -91 -46.5t-34 -123.5q0 -80 34.5 -129t90.5 -49q55 0 88 49t33 129zM51 509
q0 88 43 142.5t111 54.5t109.5 -54.5t41.5 -142.5q0 -93 -41.5 -149t-109.5 -56q-70 0 -112 56t-42 149zM326 509q0 77 -33 123.5t-88 46.5q-57 0 -91 -46.5t-34 -123.5q0 -80 34.5 -129t90.5 -49q55 0 88 49t33 129z" />
    <glyph glyph-name="ampersand" unicode="&#x26;" horiz-adv-x="641" 
d="M59 165q0 60 31 106t109 98q-53 95 -53 183q0 74 43 117t105 43q61 0 101.5 -36.5t40.5 -95.5q0 -131 -208 -210v-26q21 -14 76 -75q9 -12 31 -36q57 -61 127 -117q58 82 78 203l27 -14q-19 -114 -81 -206q64 -49 135 -85l-16 -26q-66 35 -136 88q-79 -88 -212 -88
q-94 0 -146 49.5t-52 127.5zM223 384l34 19q82 46 116 88.5t34 88.5q0 42 -30 73.5t-83 31.5t-86.5 -36.5t-33.5 -96.5q0 -80 49 -168zM454 80v22q-76 39 -170 145q-41 46 -72 97q-72 -47 -98 -87.5t-26 -89.5q0 -72 49 -112t122 -40q106 0 195 65z" />
    <glyph glyph-name="quotesingle" unicode="'" horiz-adv-x="194" 
d="M87 500l-4 149v51h28v-51l-4 -149h-20z" />
    <glyph glyph-name="parenleft" unicode="(" horiz-adv-x="299" 
d="M67 306q0 187 49 299.5t155 159.5v-35q-175 -69 -175 -424q0 -182 45.5 -291t129.5 -140v-35q-204 78 -204 466z" />
    <glyph glyph-name="parenright" unicode=")" horiz-adv-x="299" 
d="M232 299q0 -187 -49 -299.5t-155 -159.5v35q84 34 129.5 140.5t45.5 283.5q0 182 -45.5 291t-129.5 140v35q204 -78 204 -466z" />
    <glyph glyph-name="asterisk" unicode="*" horiz-adv-x="484" 
d="M165 434l-26 16l28 48q39 66 66 89l-10 19q-41 -13 -105 -13h-62v29l162 -3l-85 144l26 15l20 -38q49 -90 52 -121h20q0 29 58 132l15 27l25 -15l-84 -145l162 3v-29h-62q-61 0 -106 14l-10 -19q33 -30 67 -89l28 -47l-26 -16l-77 141z" />
    <glyph glyph-name="plus" unicode="+" horiz-adv-x="611" 
d="M292 80v259h-249v28h249v259l28 -1v-258h248v-28h-248v-259h-28z" />
    <glyph glyph-name="comma" unicode="," horiz-adv-x="229" 
d="M64 -107l54 107h-26v84h50v-84l-51 -107h-27z" />
    <glyph glyph-name="hyphen" unicode="-" horiz-adv-x="366" 
d="M83 291v33h200v-33h-200z" />
    <glyph glyph-name="period" unicode="." horiz-adv-x="216" 
d="M83 0v84h50v-84h-50z" />
    <glyph glyph-name="slash" unicode="/" horiz-adv-x="388" 
d="M41 -111l277 922h30l-277 -922h-30z" />
    <glyph glyph-name="zero" unicode="0" horiz-adv-x="687" 
d="M72 358q0 164 78.5 259t195.5 95q116 0 192 -95t76 -259q0 -174 -75 -272t-193 -98q-120 0 -197 98.5t-77 271.5zM582 358q0 143 -63 234.5t-173 91.5q-112 0 -177 -91.5t-65 -234.5q0 -148 64.5 -245t177.5 -97q110 0 173 96.5t63 245.5z" />
    <glyph glyph-name="one" unicode="1" horiz-adv-x="382" 
d="M230 0v531q0 60 16 102h-26q-55 -113 -185 -156v33q138 54 212 190h13v-700h-30z" />
    <glyph glyph-name="two" unicode="2" horiz-adv-x="548" 
d="M66 0v41q66 38 149 104q85 67 155 161t70 194q0 89 -49.5 136.5t-126.5 47.5q-70 0 -120.5 -48.5t-49.5 -146.5l-30 5q0 104 57 161t143 57q93 0 150 -58t57 -151q0 -92 -55 -180q-100 -158 -320 -287l14 -24q32 16 84 16h292v-28h-420z" />
    <glyph glyph-name="three" unicode="3" horiz-adv-x="571" 
d="M62 194l30 9q-3 -84 51.5 -135.5t141.5 -51.5q79 0 131 47t52 118q0 77 -53.5 123.5t-138.5 46.5h-61v31h61q70 0 119.5 42.5t49.5 110.5q0 66 -46.5 107.5t-119.5 41.5q-74 0 -120 -46t-45 -120l-30 11q0 78 56 130.5t139 52.5q90 0 144.5 -51.5t54.5 -125.5
q0 -58 -37.5 -101t-90.5 -54v-24q62 -8 106 -56t44 -119q0 -81 -55 -137t-160 -56q-102 0 -162.5 55t-60.5 151z" />
    <glyph glyph-name="four" unicode="4" horiz-adv-x="555" 
d="M365 0v209h-331v38l304 453h57v-464h121v-27h-121v-209h-30zM365 236v348q0 50 15 87l-21 12l-300 -447l18 -16q23 16 76 16h212z" />
    <glyph glyph-name="five" unicode="5" horiz-adv-x="574" 
d="M64 155l31 15q9 -76 60.5 -115t130.5 -39q83 0 137 54.5t54 145.5q0 93 -51.5 145t-139.5 52q-105 0 -165 -97l-42 7l51 377h356v-28h-333l-22 -176q-12 -103 -35 -152h28q49 97 163 97q106 0 164.5 -63.5t58.5 -161.5q0 -101 -63.5 -164.5t-160.5 -63.5q-96 0 -152.5 47
t-69.5 120z" />
    <glyph glyph-name="six" unicode="6" horiz-adv-x="592" 
d="M73 329q0 172 78 277t216 105q68 0 128 -23v-33q-65 27 -128 27q-139 0 -206 -106.5t-69 -284.5h26q11 60 63.5 105.5t128.5 45.5q102 0 161.5 -66.5t59.5 -158.5t-60.5 -160.5t-160.5 -68.5q-105 0 -171 81t-66 260zM499 216q0 90 -54.5 144t-134.5 54
q-77 0 -133.5 -56.5t-56.5 -141.5q0 -87 56.5 -143.5t133.5 -56.5q80 0 134.5 54.5t54.5 145.5z" />
    <glyph glyph-name="seven" unicode="7" horiz-adv-x="494" 
d="M436 660l10 8l-14 21q-21 -12 -39.5 -14.5t-80.5 -2.5h-283v28h447v-25q-126 -111 -191 -220q-65 -110 -86 -217q-20 -109 -20 -238h-34q0 451 291 660z" />
    <glyph glyph-name="eight" unicode="8" horiz-adv-x="598" 
d="M72 181q0 70 44.5 118t109.5 57v23q-57 12 -95 51.5t-38 106.5q0 76 56.5 125.5t149.5 49.5t149.5 -49.5t56.5 -125.5q0 -65 -38 -106t-90 -52v-23q65 -13 107.5 -59.5t42.5 -115.5q0 -81 -58 -137t-170 -56q-113 0 -170 55.5t-57 137.5zM472 537q0 67 -48 107t-125 40
q-75 0 -124 -40.5t-49 -106.5q0 -71 48.5 -113t124.5 -42t124.5 42t48.5 113zM494 180q0 75 -54.5 123t-140.5 48q-85 0 -139.5 -48t-54.5 -123q0 -74 52.5 -119t141.5 -45q88 0 141.5 45t53.5 119z" />
    <glyph glyph-name="nine" unicode="9" horiz-adv-x="604" 
d="M102 30v32q67 -45 155 -45q143 0 209 149q42 92 42 223h-26q-21 -68 -76 -103t-118 -35q-109 0 -167.5 65t-58.5 161q0 98 59 166.5t167 68.5q87 0 154 -57q88 -77 88 -276q0 -185 -76.5 -288t-196.5 -103q-94 0 -155 42zM485 482q0 90 -56.5 146t-140.5 56
q-86 0 -141 -54t-55 -148q0 -96 54.5 -149.5t141.5 -53.5q85 0 141 56t56 147z" />
    <glyph glyph-name="colon" unicode=":" horiz-adv-x="216" 
d="M83 377v84h50v-84h-50zM83 0v84h50v-84h-50z" />
    <glyph glyph-name="semicolon" unicode=";" horiz-adv-x="256" 
d="M108 377v84h50v-84h-50zM82 -107l54 107h-26v84h50v-84l-51 -107h-27z" />
    <glyph glyph-name="less" unicode="&#x3c;" horiz-adv-x="654" 
d="M576 621v-33l-441 -199q-53 -23 -77 -23v-26q33 0 77 -21l441 -201v-33l-538 250v40z" />
    <glyph glyph-name="equal" unicode="=" horiz-adv-x="714" 
d="M87 436v28h540v-28h-540zM87 244v28h540v-28h-540z" />
    <glyph glyph-name="greater" unicode="&#x3e;" horiz-adv-x="654" 
d="M78 85v33l441 199q50 23 77 23v26q-30 0 -77 21l-441 201v33l538 -250v-40z" />
    <glyph glyph-name="question" unicode="?" horiz-adv-x="444" 
d="M252 358q72 67 94 102.5t22 85.5q0 60 -40.5 98.5t-105.5 38.5q-68 0 -107.5 -45.5t-39.5 -123.5v-17l-30 5l-1 14q0 85 50 140t128 55q77 0 127 -47t50 -118q0 -56 -25.5 -97.5t-100.5 -109.5q-39 -36 -51 -64t-13 -92h-30q2 65 16 100t57 75zM170 0v84h50v-84h-50z" />
    <glyph glyph-name="at" unicode="@" horiz-adv-x="906" 
d="M62 293q-2 188 112.5 302t286.5 112q174 2 288 -106t112 -267q1 -107 -55.5 -176t-124.5 -67q-77 0 -77 74l2 22h-22q-16 -44 -50.5 -70t-85.5 -26q-75 0 -122 53.5t-47 152.5q0 96 48 151t121 55q107 0 140 -96h24q-16 44 -16 83h29v-311q0 -61 58 -61q56 0 103 60.5
t47 155.5q2 147 -104.5 247t-267.5 98q-162 0 -266.5 -104.5t-104.5 -281.5q0 -182 105.5 -284t275.5 -102q75 0 145.5 22.5t118.5 62.5l17 -25q-51 -42 -126 -65t-155 -23q-183 0 -296 110t-113 304zM598 297q0 85 -40 132t-108 47q-62 0 -101.5 -47.5t-39.5 -131.5
t39.5 -131.5t101.5 -47.5q58 0 103 49.5t45 129.5z" />
    <glyph glyph-name="A" unicode="A" horiz-adv-x="647" 
d="M576 0l-86 231h-333l-86 -231h-34l266 700h40l268 -700h-35zM167 259h312l-126 336q-17 45 -17 85h-26q-2 -42 -18 -85z" />
    <glyph glyph-name="B" unicode="B" horiz-adv-x="688" 
d="M120 0v700h271q90 0 142 -47.5t52 -127.5q0 -61 -32.5 -97t-77.5 -48v-24q57 -5 100 -50.5t43 -115.5q0 -83 -54 -136.5t-141 -53.5h-303zM150 378h227q85 0 130.5 41t45.5 106q0 64 -44.5 105.5t-124.5 41.5h-234v-294zM150 28h268q76 0 122 47t46 115q0 69 -46.5 114.5
t-127.5 45.5h-262v-322z" />
    <glyph glyph-name="C" unicode="C" horiz-adv-x="727" 
d="M68 364q0 157 85.5 252.5t233.5 95.5q63 1 116.5 -19.5t87 -52.5t54 -64t28.5 -62l-30 -12q-19 69 -86 125.5t-170 56.5q-135 0 -211 -86.5t-76 -233.5q0 -151 77.5 -249.5t209.5 -98.5q195 0 262 193l30 -12q-32 -88 -100 -148q-68 -61 -192 -61q-147 0 -233 106
t-86 270z" />
    <glyph glyph-name="D" unicode="D" horiz-adv-x="713" 
d="M120 0v700h179q161 0 253.5 -93.5t92.5 -255.5t-89.5 -256.5t-255.5 -94.5h-180zM150 28h140q157 0 240 85t83 238q0 152 -83.5 236.5t-240.5 84.5h-139v-644z" />
    <glyph glyph-name="E" unicode="E" horiz-adv-x="628" 
d="M120 0v700h458v-28h-428v-292h328v-28h-328v-324h428v-28h-458z" />
    <glyph glyph-name="F" unicode="F" horiz-adv-x="621" 
d="M120 0v700h480v-28h-450v-299h346v-28h-346v-345h-30z" />
    <glyph glyph-name="G" unicode="G" horiz-adv-x="783" 
d="M67 358q0 156 92.5 255t242.5 99q69 1 126 -20t92 -54.5t55.5 -67.5t29.5 -67l-28 -11q-19 74 -89 133t-186 59q-138 0 -220.5 -89t-82.5 -236q0 -151 80.5 -247t216.5 -96q119 0 194.5 77t81.5 203h-274v28h304v-324h-30q0 65 2 105q3 32 13 67h-27q-30 -83 -90 -134
q-61 -50 -174 -50q-151 0 -240 103.5t-89 266.5z" />
    <glyph glyph-name="H" unicode="H" horiz-adv-x="770" 
d="M120 0v700h30v-320h470v320h30v-700h-30v352h-470v-352h-30z" />
    <glyph glyph-name="I" unicode="I" horiz-adv-x="270" 
d="M120 0v700h30v-700h-30z" />
    <glyph glyph-name="J" unicode="J" horiz-adv-x="469" 
d="M38 168q0 14 2 38l30 12q-3 -24 -3 -44q0 -77 37 -117.5t92 -40.5q131 0 131 173v511h30v-523q0 -88 -40 -138.5t-120 -50.5q-72 0 -115.5 47t-43.5 133z" />
    <glyph glyph-name="K" unicode="K" horiz-adv-x="650" 
d="M603 0l-313 381l-140 -148v-233h-30v700h30v-291q0 -89 -19 -124l16 -13l402 428h41l-280 -296l334 -404h-41z" />
    <glyph glyph-name="L" unicode="L" horiz-adv-x="552" 
d="M120 0v700h30v-672h386v-28h-416z" />
    <glyph glyph-name="M" unicode="M" horiz-adv-x="893" 
d="M120 0v700h60l227 -557q27 -64 27 -109h27q0 43 27 110l226 556h59v-700h-30v548q0 46 3 69t13 44l-26 11l-274 -672h-25l-274 674l-26 -11q10 -21 13 -44t3 -69v-550h-30z" />
    <glyph glyph-name="N" unicode="N" horiz-adv-x="770" 
d="M120 0v700h54l440 -676l22 14q-16 38 -16 113v549h30v-700h-55l-438 673l-23 -14q10 -21 13 -44t3 -69v-546h-30z" />
    <glyph glyph-name="O" unicode="O" horiz-adv-x="796" 
d="M66 352q-2 155 95.5 258.5t236.5 101.5q139 2 236.5 -101.5t95.5 -258.5q2 -154 -96 -260t-236 -104q-139 -2 -236.5 103.5t-95.5 260.5zM698 352q2 138 -86.5 236t-213.5 96q-125 2 -213.5 -95.5t-86.5 -236.5q-2 -140 86 -239.5t214 -96.5q125 -3 213.5 97.5
t86.5 238.5z" />
    <glyph glyph-name="P" unicode="P" horiz-adv-x="623" 
d="M120 0v700h247q102 0 158 -55t56 -140q0 -86 -56.5 -141t-160.5 -55h-214v-309h-30zM150 337h209q93 0 141.5 48t48.5 120t-48 119.5t-142 47.5h-209v-335z" />
    <glyph glyph-name="Q" unicode="Q" horiz-adv-x="808" 
d="M66 352q-2 155 95.5 258.5t236.5 101.5q139 2 236.5 -101.5t95.5 -258.5q0 -154 -94 -259q29 -46 58.5 -60.5t91.5 -14.5v-30q-71 0 -106.5 21t-53.5 73h-25q-73 -94 -203 -94q-139 -2 -236.5 103.5t-95.5 260.5zM596 98l-62 100q-25 39 -55 58.5t-75 19.5q-11 0 -20 -1
v29q9 1 21 1q91 0 145 -82q34 -56 55 -116h22q32 49 51.5 115t19.5 130q2 138 -86.5 236t-213.5 96q-125 2 -213.5 -95.5t-86.5 -236.5q-2 -140 86 -239.5t214 -96.5q114 0 198 82z" />
    <glyph glyph-name="R" unicode="R" horiz-adv-x="662" 
d="M120 0v700h249q89 0 147.5 -52t58.5 -137q0 -61 -36.5 -107t-92.5 -58v-24q44 -4 70 -34.5t39 -88.5l48 -199h-33l-46 195q-16 66 -52 95.5t-113 29.5h-209v-320h-30zM150 347h215q79 0 128.5 45t49.5 119q0 72 -50 116.5t-127 44.5h-216v-325z" />
    <glyph glyph-name="S" unicode="S" horiz-adv-x="598" 
d="M52 153l30 15q21 -68 81 -109.5t134 -41.5q92 0 149 43t57 113q0 116 -153 162l-108 32q-160 48 -160 171q0 81 60.5 127.5t151.5 46.5q95 0 151.5 -43.5t76.5 -98.5l-27 -15q-20 51 -69 90t-132 39q-78 0 -130 -39.5t-52 -104.5q0 -54 37.5 -89t120.5 -60l97 -29
q168 -50 168 -188q0 -85 -63.5 -135.5t-174.5 -50.5q-183 0 -245 165z" />
    <glyph glyph-name="T" unicode="T" horiz-adv-x="608" 
d="M280 0v672h-264v28h576v-28h-282v-672h-30z" />
    <glyph glyph-name="U" unicode="U" horiz-adv-x="666" 
d="M110 254v446h30v-438q0 -244 195 -244q191 0 191 244v438h30v-446q0 -130 -56 -198t-165 -68q-110 0 -167.5 68.5t-57.5 197.5z" />
    <glyph glyph-name="V" unicode="V" horiz-adv-x="612" 
d="M283 0l-231 700h32l174 -530q35 -105 35 -150h26q0 41 32 140l179 540h31l-232 -700h-46z" />
    <glyph glyph-name="W" unicode="W" horiz-adv-x="938" 
d="M232 0l-175 700h32l126 -514q14 -57 22 -98q6 -32 6 -68h26q0 36 6 69q10 45 26 96l152 515h32l151 -514q15 -51 26 -99q6 -28 8 -67h26q0 34 5 71q4 28 20 95l130 514h31l-176 -700h-45l-157 529q-14 50 -18 76q-4 25 -4 65h-26q0 -32 -5 -64q-5 -28 -18 -77l-155 -529
h-46z" />
    <glyph glyph-name="X" unicode="X" horiz-adv-x="589" 
d="M29 0l247 360l-233 340h36l166 -243q32 -48 36 -83h25q1 24 40 83l166 243h35l-235 -341l248 -359h-38l-179 262q-37 55 -37 84h-25q-5 -39 -36 -84l-180 -262h-36z" />
    <glyph glyph-name="Y" unicode="Y" horiz-adv-x="634" 
d="M302 0v311l-247 389h36l178 -284q37 -61 37 -88h25q0 29 37 90l175 282h36l-247 -390v-310h-30z" />
    <glyph glyph-name="Z" unicode="Z" horiz-adv-x="565" 
d="M33 0v36l452 635l-17 19q-21 -13 -39.5 -15.5t-78.5 -2.5h-286v28h456v-31l-455 -640l17 -19q20 12 40 15t78 3h334v-28h-501z" />
    <glyph glyph-name="bracketleft" unicode="[" horiz-adv-x="318" 
d="M115 -150v905h173v-28h-143v-849h143v-28h-173z" />
    <glyph glyph-name="backslash" unicode="\" horiz-adv-x="388" 
d="M317 -111l-277 922h30l277 -922h-30z" />
    <glyph glyph-name="bracketright" unicode="]" horiz-adv-x="318" 
d="M203 755v-905h-173v28h143v849h-143v28h173z" />
    <glyph glyph-name="asciicircum" unicode="^" horiz-adv-x="453" 
d="M61 337l150 363h28l154 -363h-32l-100 239q0 2 -1.5 4.5t-1.5 4.5q-21 58 -21 90h-26q0 -45 -22 -102l-95 -236h-33z" />
    <glyph glyph-name="underscore" unicode="_" horiz-adv-x="540" 
d="M47 -104v29h446v-29h-446z" />
    <glyph glyph-name="grave" unicode="`" horiz-adv-x="124" 
d="M100 566l-100 114h45l79 -114h-24z" />
    <glyph glyph-name="a" unicode="a" horiz-adv-x="529" 
d="M63 114q0 90 93.5 142.5t237.5 57.5v35q0 55 -36.5 90t-106.5 35q-130 0 -166 -101l-28 12q14 46 64 81.5t130 35.5q89 0 130.5 -44.5t41.5 -114.5v-253q0 -30 14.5 -46t38.5 -16h41v-28h-37q-43 0 -61.5 23.5t-16.5 81.5h-21q-49 -117 -171 -117q-67 0 -107 33.5
t-40 92.5zM394 227v61q-134 -6 -217 -51t-83 -123q0 -44 32 -71t86 -27q74 0 128 54.5t54 156.5z" />
    <glyph glyph-name="b" unicode="b" horiz-adv-x="568" 
d="M139 114h-24q9 -42 10 -54q3 -20 3 -60h-28v700h29v-224q0 -24 -2 -48q-1 -14 -11 -52h23q16 53 59.5 89.5t104.5 36.5q85 0 144 -67t59 -190t-59 -190t-144 -67q-62 0 -105 36t-59 90zM475 245q0 108 -50 168.5t-124 60.5q-77 0 -125.5 -59t-48.5 -170t48.5 -170
t125.5 -59q74 0 124 59.5t50 169.5z" />
    <glyph glyph-name="c" unicode="c" horiz-adv-x="513" 
d="M61 246q0 110 58 183t151 73q74 0 125 -39.5t66 -95.5l-30 -9q-14 51 -56.5 83.5t-104.5 32.5q-75 0 -126.5 -61t-51.5 -167q0 -107 50.5 -168.5t129.5 -61.5q67 0 109 40.5t54 94.5l30 -9q-17 -68 -68.5 -111t-124.5 -43q-94 0 -152.5 70.5t-58.5 187.5z" />
    <glyph glyph-name="d" unicode="d" horiz-adv-x="568" 
d="M62 245q0 122 59 189.5t144 67.5q61 0 104.5 -36.5t59.5 -89.5h23q-10 46 -11 52q-2 24 -2 48v224h29v-700h-28q0 34 2 60q2 12 11 54h-24q-16 -54 -59 -90t-105 -36q-85 0 -144 67.5t-59 189.5zM441 245q0 111 -49 170t-125 59q-74 0 -124 -60t-50 -169
q0 -110 49.5 -169.5t124.5 -59.5q76 0 125 59t49 170z" />
    <glyph glyph-name="e" unicode="e" horiz-adv-x="525" 
d="M62 260q0 111 59 176.5t144 65.5q89 0 145 -62.5t56 -163.5q0 -13 -1 -24h-372q0 -121 48.5 -178.5t125.5 -57.5q62 0 106.5 34.5t60.5 83.5l28 -13q-17 -52 -69 -92.5t-126 -40.5q-96 0 -150.5 69t-54.5 203zM92 279h345q0 93 -50 144t-122 51q-77 0 -123.5 -55.5
t-49.5 -139.5z" />
    <glyph glyph-name="f" unicode="f" horiz-adv-x="351" 
d="M153 0v463h-133v27h133v80q0 130 140 130h55v-28h-61q-105 0 -105 -105v-77h150v-27h-150v-463h-29z" />
    <glyph glyph-name="g" unicode="g" horiz-adv-x="561" 
d="M41 -103q0 67 72 98v23q-48 12 -48 54q0 62 81 96v22q-65 53 -65 136q0 75 50 125.5t131 50.5q53 0 92.5 -26.5t57.5 -75.5h23q-2 44 17.5 67t56.5 23h36v-28h-28q-15 0 -25.5 -2.5t-22.5 -11t-18 -27.5t-6 -48v-43q0 -83 -52 -133.5t-133 -50.5q-52 0 -91 21
q-33 -15 -53.5 -40t-20.5 -51q0 -49 64 -49h228q61 0 99.5 -30t38.5 -81q0 -55 -35 -83t-92 -28h-239q-118 0 -118 92zM415 324q0 64 -44 107t-109 43q-68 0 -110 -42.5t-42 -107.5q0 -66 40.5 -108.5t109.5 -42.5q68 0 111.5 42.5t43.5 108.5zM170 -168h223q101 0 101 84
q0 41 -30.5 62.5t-85.5 21.5h-236q-25 -12 -48.5 -41t-23.5 -58q0 -34 22.5 -51.5t77.5 -17.5z" />
    <glyph glyph-name="h" unicode="h" horiz-adv-x="577" 
d="M100 0v700h28v-210q0 -73 -16 -124h24q16 56 54 96q37 40 114 40q91 0 136 -56t45 -146v-300h-30v292q0 87 -40 134.5t-113 47.5q-48 1 -83.5 -20.5t-54 -57t-27 -71.5t-8.5 -73v-252h-29z" />
    <glyph glyph-name="i" unicode="i" horiz-adv-x="230" 
d="M100 612v88h29v-88h-29zM100 0v490h29l1 -490h-30z" />
    <glyph glyph-name="j" unicode="j" horiz-adv-x="237" 
d="M106 612v88h31v-88h-31zM-36 -195v28h52q92 0 92 108v549h29v-553q0 -64 -31.5 -98t-86.5 -34h-55z" />
    <glyph glyph-name="k" unicode="k" horiz-adv-x="538" 
d="M487 0l-239 273l-119 -102v-171h-29v700h29v-381q0 -62 -17 -99l15 -15l327 285h44l-228 -198l256 -292h-39z" />
    <glyph glyph-name="l" unicode="l" horiz-adv-x="229" 
d="M100 0v700h29v-700h-29z" />
    <glyph glyph-name="m" unicode="m" horiz-adv-x="903" 
d="M100 0v490h29q0 -55 -15 -97h25q9 40 46.5 74.5t106.5 34.5q62 0 104 -35.5t51 -92.5h24q9 51 48.5 89.5t110.5 38.5q85 0 133 -50.5t48 -133.5v-318h-29v310q0 79 -42 121.5t-110 42.5q-100 0 -131 -66q-30 -64 -30 -143v-265h-29v305q0 82 -41 125.5t-107 43.5
q-74 0 -110 -38q-33 -35 -43 -79t-10 -117v-240h-29z" />
    <glyph glyph-name="n" unicode="n" horiz-adv-x="577" 
d="M100 0v490h28q0 -73 -16 -124h24q16 56 54 96q37 40 114 40q91 0 136 -56t45 -146v-300h-30v292q0 87 -40 134.5t-113 47.5q-48 1 -83.5 -20.5t-54 -57t-27 -71.5t-8.5 -73v-252h-29z" />
    <glyph glyph-name="o" unicode="o" horiz-adv-x="568" 
d="M60 244q0 120 67 189t157 69t157 -69t67 -189q0 -121 -66.5 -188.5t-157.5 -67.5t-157.5 67.5t-66.5 188.5zM477 244q0 105 -57 167.5t-136 62.5t-136 -62.5t-57 -167.5q0 -106 57 -167t136 -61t136 61t57 167z" />
    <glyph glyph-name="p" unicode="p" horiz-adv-x="568" 
d="M100 -195v685h28q0 -40 -3 -60q-1 -12 -10 -54h24q16 53 59.5 89.5t104.5 36.5q85 0 144 -67t59 -190t-59 -190t-144 -67q-62 0 -105 36t-59 90h-23q10 -38 11 -52q2 -24 2 -48v-209h-29zM475 245q0 110 -50 169.5t-124 59.5q-77 0 -125.5 -59t-48.5 -170t48.5 -170
t125.5 -59q74 0 124 59.5t50 169.5z" />
    <glyph glyph-name="q" unicode="q" horiz-adv-x="568" 
d="M439 -195v209q0 24 2 48q1 6 11 52h-23q-16 -54 -59 -90t-105 -36q-85 0 -144 67.5t-59 189.5t59 189.5t144 67.5q61 0 104.5 -36.5t59.5 -89.5h24q-9 42 -11 54q-2 26 -2 60h28v-685h-29zM441 245q0 111 -49 170t-125 59q-75 0 -124.5 -59.5t-49.5 -169.5t49.5 -169.5
t124.5 -59.5q76 0 125 59t49 170z" />
    <glyph glyph-name="r" unicode="r" horiz-adv-x="385" 
d="M100 0v490h28q0 -65 -13 -128h23q12 60 50 97t101 37q46 0 76 -10v-29q-41 9 -77 9q-80 0 -120 -69.5t-40 -172.5v-224h-28z" />
    <glyph glyph-name="s" unicode="s" horiz-adv-x="473" 
d="M51 127l29 10q5 -48 48.5 -84.5t109.5 -36.5q72 0 110.5 29t38.5 74q0 41 -29.5 69.5t-81.5 41.5l-74 19q-63 17 -96.5 45t-33.5 80q0 55 46 91.5t118 36.5q67 0 110.5 -32.5t56.5 -80.5l-28 -12q-7 37 -44 67t-95 30q-63 0 -98.5 -28t-35.5 -67q0 -75 94 -97l75 -19
q147 -37 147 -144q0 -58 -45 -94.5t-135 -36.5q-84 0 -131.5 40t-55.5 99z" />
    <glyph glyph-name="t" unicode="t" horiz-adv-x="361" 
d="M149 130v333h-132v27h132v141h29v-141h149v-27h-149v-330q0 -105 105 -105h61v-28h-55q-140 0 -140 130z" />
    <glyph glyph-name="u" unicode="u" horiz-adv-x="566" 
d="M92 184v306h29v-296q0 -89 38.5 -133.5t108.5 -44.5q77 0 123 59.5t46 164.5v250h29v-490h-29q0 59 16 123h-23q-14 -50 -49 -92q-36 -43 -112 -43q-88 0 -132.5 51t-44.5 145z" />
    <glyph glyph-name="v" unicode="v" horiz-adv-x="520" 
d="M242 0l-202 490h32l139 -336q23 -51 30 -78q8 -28 11 -55h22q3 33 10 55q8 26 27 75l133 339h31l-192 -490h-41z" />
    <glyph glyph-name="w" unicode="w" horiz-adv-x="799" 
d="M213 0l-170 490h31l112 -325q35 -98 36 -145h23q5 57 34 145l104 325h34l103 -325q33 -108 34 -145h24q4 56 34 146l113 324h31l-170 -490h-42l-104 328q-15 47 -22 76q-4 25 -6 56h-24q-2 -35 -7 -58q-6 -28 -21 -74l-106 -328h-41z" />
    <glyph glyph-name="x" unicode="x" horiz-adv-x="456" 
d="M30 0l180 255l-163 235h35l97 -140q28 -41 37 -82h22q5 37 36 81l100 141h36l-165 -234l180 -256h-37l-110 158q-35 48 -40 86h-22q-7 -41 -37 -85l-113 -159h-36z" />
    <glyph glyph-name="y" unicode="y" horiz-adv-x="498" 
d="M422 490h32l-210 -570q-23 -64 -52.5 -89.5t-91.5 -25.5h-54v28h54q45 0 71.5 19.5t46.5 74.5l35 95l-214 468h32l149 -325q8 -15 22 -52t13 -59h24q1 45 25 111z" />
    <glyph glyph-name="z" unicode="z" horiz-adv-x="467" 
d="M46 0v37l334 424l-15 16q-13 -10 -26 -12.5t-52 -2.5h-237v28h364v-33l-337 -427l16 -17q14 10 26.5 12.5t55.5 2.5h253l1 -28h-383z" />
    <glyph glyph-name="braceleft" unicode="{" horiz-adv-x="306" 
d="M136 -45v148l1 49q-1 75 -22 104.5t-94 31.5v29q73 2 94 31.5t22 104.5l-1 49v148q0 105 92 105h44v-28h-43q-63 0 -63 -76v-164l1 -45q0 -55 -16.5 -86.5t-65.5 -41.5v-24q49 -10 65.5 -41t16.5 -86l-1 -45v-164q0 -76 63 -76h43v-28h-44q-92 0 -92 105z" />
    <glyph glyph-name="bar" unicode="|" horiz-adv-x="259" 
d="M115 -111v922h29v-922h-29z" />
    <glyph glyph-name="braceright" unicode="}" horiz-adv-x="306" 
d="M170 650v-148l-1 -49q1 -75 22 -104.5t94 -31.5v-29q-73 -2 -94 -31.5t-22 -104.5l1 -49v-148q0 -105 -92 -105h-44v28h43q63 0 63 76v164v45q0 56 16.5 87t64.5 41v24q-49 10 -65 40.5t-16 86.5v45v164q0 76 -63 76h-43v28h44q92 0 92 -105z" />
    <glyph glyph-name="asciitilde" unicode="~" horiz-adv-x="648" 
d="M334 367l-30 13q-57 25 -89 25q-52 0 -104 -57l-21 22q57 64 128 64q37 0 100 -27l30 -13q54 -25 89 -25q53 0 104 57l21 -21q-58 -65 -128 -65q-37 0 -100 27z" />
    <glyph glyph-name="uni00A0" unicode="&#xa0;" horiz-adv-x="291" 
 />
    <glyph glyph-name="exclamdown" unicode="&#xa1;" horiz-adv-x="241" 
d="M146 528v-84h-50v84h50zM130 345l6 -357v-160h-30v160l5 357h19z" />
    <glyph glyph-name="cent" unicode="&#xa2;" horiz-adv-x="510" 
d="M252 -120v109q-85 6 -136.5 75.5t-51.5 180.5q0 106 52 178t136 78v103h28v-102q69 -3 112.5 -41.5t58.5 -93.5l-28 -9q-31 110 -143 116v-342q0 -88 -15 -115l12 -15q60 10 99.5 52.5t52.5 96.5l31 -9q-44 -147 -180 -154v-108h-28zM252 17v338q0 90 15 117l-12 15
q-70 -13 -115 -77t-45 -165q0 -102 43 -162t114 -66z" />
    <glyph glyph-name="sterling" unicode="&#xa3;" horiz-adv-x="570" 
d="M262 28h249v-28h-443v30q45 14 92 49q48 37 48 110q0 69 -45 139h-93v28h75q-31 44 -44 75.5t-14 76.5q0 92 61.5 147t144.5 55q89 0 149.5 -49t69.5 -138l-28 -15q-9 87 -59.5 130.5t-131.5 43.5q-71 0 -123.5 -47.5t-52.5 -125.5q0 -29 8 -54.5t17 -40.5t31 -48l7 -10
h209v-28h-192q40 -66 40 -135q0 -107 -112 -153l12 -27q49 15 125 15z" />
    <glyph glyph-name="currency" unicode="&#xa4;" horiz-adv-x="640" 
d="M100 111l-18 19l80 81q-45 55 -45 141t45 141l-80 81l18 19l81 -79q57 52 139 52q81 0 139 -52l81 79l18 -19l-80 -81q45 -55 45 -141q0 -84 -45 -141l80 -81l-18 -19l-81 79q-57 -52 -139 -52t-139 52zM493 352q0 87 -49 137t-124 50t-124 -50t-49 -137t49 -137t124 -50
t124 50t49 137z" />
    <glyph glyph-name="yen" unicode="&#xa5;" horiz-adv-x="600" 
d="M568 700l-229 -361h139v-28h-157v-1v-121h157v-28h-157v-161h-30v161h-168v28h168v122h-168v28h149l-238 361h36l186 -284q38 -57 39 -88h25q0 32 36 90l176 282h36z" />
    <glyph glyph-name="brokenbar" unicode="&#xa6;" horiz-adv-x="259" 
d="M115 390v421h29v-421h-29zM115 -111v423h29v-423h-29z" />
    <glyph glyph-name="section" unicode="&#xa7;" horiz-adv-x="576" 
d="M97 -82l27 12q29 -111 162 -111q64 0 108 37.5t44 95.5q0 100 -123 135l-123 36q-147 43 -147 165q0 55 35.5 94t97.5 52v23q-68 35 -68 106q0 66 49 107.5t126 41.5q86 0 131 -39q46 -37 63 -84l-28 -13q-14 41 -53 77q-38 35 -113 35q-65 0 -106.5 -35t-41.5 -88
q0 -50 27 -77t97 -48l123 -36q147 -44 147 -165q0 -55 -38.5 -95.5t-101.5 -52.5v-23q34 -18 54.5 -48.5t20.5 -67.5q0 -72 -52 -114.5t-128 -42.5q-80 0 -126.5 34t-62.5 89zM502 239q0 104 -132 141l-133 38q-6 1 -25 8q-62 -8 -100 -44.5t-38 -91.5q0 -106 132 -143
l133 -38q4 -1 24 -8q59 6 99 46t40 92z" />
    <glyph glyph-name="dieresis" unicode="&#xa8;" horiz-adv-x="659" 
d="M188 605v70h40v-70h-40zM354 605v70h40v-70h-40z" />
    <glyph glyph-name="copyright" unicode="&#xa9;" horiz-adv-x="888" 
d="M64 348q-1 103 49 192.5t139 143t194 51.5q158 3 269.5 -113t108.5 -274q3 -159 -108 -272.5t-270 -110.5q-160 -3 -272 110.5t-110 272.5zM792 348q2 149 -98.5 255.5t-248.5 103.5q-148 2 -249.5 -104.5t-99.5 -254.5q-2 -149 99.5 -253.5t249.5 -101.5
q148 -3 248.5 101.5t98.5 253.5zM270 352q0 92 48 151t128 59q61 0 107 -36t57 -87l-27 -11q-15 48 -51.5 77.5t-84.5 29.5q-65 0 -106 -47.5t-41 -135.5q0 -87 40.5 -135t108.5 -48q54 0 88.5 33.5t48.5 83.5l29 -8q-43 -136 -167 -136q-82 0 -130 56.5t-48 153.5z" />
    <glyph glyph-name="ordfeminine" unicode="&#xaa;" horiz-adv-x="506" 
d="M66 501q0 103 48.5 156t124.5 53q107 0 140 -98h19q-2 6 -2 12q-9 40 -9 76h28v-401h-28q0 36 9 76q0 6 2 12h-19q-35 -98 -140 -98q-75 0 -124 54.5t-49 157.5zM389 500q0 90 -39 137t-109 47q-67 0 -105.5 -47.5t-38.5 -136.5t38.5 -136.5t105.5 -47.5q69 0 108.5 47.5
t39.5 136.5z" />
    <glyph glyph-name="guillemotleft" unicode="&#xab;" horiz-adv-x="453" 
d="M183 441h35l-125 -189l125 -190h-36l-124 190zM385 441l-125 -189l125 -190h-36l-124 190l125 189h35z" />
    <glyph glyph-name="logicalnot" unicode="&#xac;" horiz-adv-x="711" 
d="M588 188v161h-501v28h531v-189h-30z" />
    <glyph glyph-name="uni00AD" unicode="&#xad;" horiz-adv-x="366" 
d="M83 291v33h200v-33h-200z" />
    <glyph glyph-name="registered" unicode="&#xae;" horiz-adv-x="602" 
d="M64 501q0 101 67.5 167.5t168.5 66.5q102 0 170 -66.5t68 -167.5t-69 -168t-169 -67t-168 67t-68 168zM508 501q0 91 -59 148.5t-149 57.5t-148 -57.5t-58 -148.5q0 -92 58 -149.5t148 -57.5t149 58t59 149zM223 391v229h96q31 0 51 -15.5t20 -41.5q0 -43 -49 -50v-17
q32 0 39 -34l16 -71h-31l-13 64q-7 39 -46 39h-55v-103h-28zM251 520h66q18 0 30.5 10.5t12.5 26.5t-12.5 26t-30.5 10h-66v-73z" />
    <glyph glyph-name="macron" unicode="&#xaf;" horiz-adv-x="367" 
d="M21 599v27h294v-27h-294z" />
    <glyph glyph-name="degree" unicode="&#xb0;" horiz-adv-x="410" 
d="M61 610q0 60 42 102.5t102 42.5q61 0 102.5 -42.5t41.5 -102.5q0 -62 -41 -102.5t-104 -40.5q-60 0 -101.5 41.5t-41.5 101.5zM319 611q0 53 -31 84.5t-83 31.5q-50 0 -82 -32t-32 -84t32 -84.5t82 -32.5q52 0 83 32t31 85z" />
    <glyph glyph-name="plusminus" unicode="&#xb1;" horiz-adv-x="731" 
d="M351 223v187h-258v28h258v188l30 -1v-187h257v-28h-257v-187h-30zM95 83v29h541v-29h-541z" />
    <glyph glyph-name="twosuperior" unicode="&#xb2;" horiz-adv-x="344" 
d="M54 401v26q101 73 150 128t52 122q0 43 -24 68t-65 25q-35 0 -60.5 -21t-25.5 -67q0 -13 1 -21l-29 8v15q0 50 32 81.5t82 31.5q53 0 85.5 -32.5t32.5 -85.5q0 -52 -31 -101q-48 -77 -174 -149l9 -16q30 15 76 15h128v-27h-239z" />
    <glyph glyph-name="threesuperior" unicode="&#xb3;" horiz-adv-x="353" 
d="M50 516l28 9v-10q0 -42 26.5 -67.5t71.5 -25.5q41 0 67 23t26 60q0 38 -27 62t-71 24h-39v28h39q37 0 61.5 22t24.5 55t-23.5 53.5t-60.5 20.5q-38 0 -61 -23t-23 -61l1 -8l-28 10q-1 47 30.5 78t80.5 31t81 -28.5t32 -72.5q0 -31 -21.5 -53.5t-49.5 -27.5v-18
q33 -3 58 -29t25 -63q0 -49 -33.5 -79.5t-88.5 -30.5q-59 0 -93 32.5t-33 88.5z" />
    <glyph glyph-name="acute" unicode="&#xb4;" horiz-adv-x="346" 
d="M193 566l79 114h45l-99 -114h-25z" />
    <glyph glyph-name="mu" unicode="&#xb5;" horiz-adv-x="594" 
d="M111 -195v685h29v-306q0 -82 40.5 -125.5t110.5 -43.5q75 0 118.5 60t43.5 165v250h29v-490h-29q0 59 16 123h-23q-14 -51 -46 -93q-33 -43 -109 -43q-105 0 -151 76v-258h-29z" />
    <glyph glyph-name="paragraph" unicode="&#xb6;" horiz-adv-x="537" 
d="M251 700h224v-28h-68v-868h-28v868h-125v-868h-29v540h-12q-66 -2 -122.5 52t-55.5 123q0 83 63 132t153 49z" />
    <glyph glyph-name="periodcentered" unicode="&#xb7;" horiz-adv-x="216" 
d="M83 281v84h50v-84h-50z" />
    <glyph glyph-name="cedilla" unicode="&#xb8;" horiz-adv-x="303" 
d="M34 -150l19 21q30 -36 75 -36q63 0 63 48q0 20 -17 32t-41 12q-22 0 -44 -8l-16 20l62 71l23 -10l-23 -24l-28 -30q13 3 30 3q38 0 61 -17t23 -50q0 -34 -25 -54t-66 -20q-57 0 -96 42z" />
    <glyph glyph-name="onesuperior" unicode="&#xb9;" horiz-adv-x="253" 
d="M141 401v257q0 46 17 91h-18q-32 -72 -104 -91v29q78 27 117 104h16v-390h-28z" />
    <glyph glyph-name="ordmasculine" unicode="&#xba;" horiz-adv-x="480" 
d="M66 501q0 103 48.5 156t125.5 53t125.5 -53t48.5 -156q0 -104 -48.5 -158t-125.5 -54t-125.5 54t-48.5 158zM383 500q0 89 -38 136.5t-105 47.5t-105 -47.5t-38 -136.5t38 -136.5t105 -47.5t105 47.5t38 136.5z" />
    <glyph glyph-name="guillemotright" unicode="&#xbb;" horiz-adv-x="454" 
d="M68 441h36l124 -190l-125 -189h-35l125 188zM271 441l124 -190l-125 -189h-35l125 188l-125 191h36z" />
    <glyph glyph-name="onequarter" unicode="&#xbc;" horiz-adv-x="747" 
d="M150 310v257q0 46 17 91h-18q-32 -72 -104 -91v29q78 27 117 104h16v-390h-28zM73 0l493 700h34l-492 -700h-35zM616 0v113h-179v38l158 239h49v-251h65v-26h-65v-113h-28zM616 139v161q0 37 13 56l-17 10l-151 -227l15 -13q16 13 43 13h97z" />
    <glyph glyph-name="onehalf" unicode="&#xbd;" horiz-adv-x="730" 
d="M150 310v257q0 46 17 91h-18q-32 -72 -104 -91v29q78 27 117 104h16v-390h-28zM73 0l493 700h34l-492 -700h-35zM453 0v26q101 73 150 128t52 122q0 43 -24 68t-65 25q-35 0 -60.5 -21t-25.5 -67q0 -13 1 -21l-29 8v15q0 50 32 81.5t82 31.5q53 0 85.5 -32.5t32.5 -85.5
q0 -52 -31 -101q-48 -77 -174 -149l9 -16q30 15 76 15h128v-27h-239z" />
    <glyph glyph-name="threequarters" unicode="&#xbe;" horiz-adv-x="848" 
d="M52 425l28 9v-10q0 -42 26.5 -67.5t71.5 -25.5q41 0 67 23t26 60q0 38 -27 62t-71 24h-39v28h39q37 0 61.5 22t24.5 55t-23.5 53.5t-60.5 20.5q-38 0 -61 -23t-23 -61l1 -8l-28 10q-1 47 30.5 78t80.5 31t81 -28.5t32 -72.5q0 -31 -21.5 -53.5t-49.5 -27.5v-18
q33 -3 58 -29t25 -63q0 -49 -33.5 -79.5t-88.5 -30.5q-59 0 -93 32.5t-33 88.5zM174 0l493 700h34l-492 -700h-35zM717 0v113h-179v38l158 239h49v-251h65v-26h-65v-113h-28zM717 139v161q0 37 13 56l-17 10l-151 -227l15 -13q16 13 43 13h97z" />
    <glyph glyph-name="questiondown" unicode="&#xbf;" horiz-adv-x="439" 
d="M272 527v-84h-50v84h50zM190 169q-72 -68 -94 -103.5t-22 -84.5q0 -61 40.5 -99t105.5 -38q68 0 107.5 45.5t39.5 123.5v17l30 -5v-14q0 -85 -49.5 -140t-127.5 -55t-127.5 46.5t-49.5 118.5q0 56 25.5 97.5t100.5 109.5q39 36 50 63t14 93h30q-2 -65 -16 -100t-57 -75z
" />
    <glyph glyph-name="Agrave" unicode="&#xc0;" horiz-adv-x="647" 
d="M576 0l-86 231h-333l-86 -231h-34l266 700h40l268 -700h-35zM167 259h312l-126 336q-17 45 -17 85h-26q-2 -42 -18 -85zM310 786l-110 114h49l87 -114h-26z" />
    <glyph glyph-name="Aacute" unicode="&#xc1;" horiz-adv-x="647" 
d="M576 0l-86 231h-333l-86 -231h-34l266 700h40l268 -700h-35zM167 259h312l-126 336q-17 45 -17 85h-26q-2 -42 -18 -85zM307 786l87 114h50l-110 -114h-27z" />
    <glyph glyph-name="Acircumflex" unicode="&#xc2;" horiz-adv-x="647" 
d="M576 0l-86 231h-333l-86 -231h-34l266 700h40l268 -700h-35zM167 259h312l-126 336q-17 45 -17 85h-26q-2 -42 -18 -85zM186 786l111 114h53l112 -114h-32l-106 92l-107 -92h-31z" />
    <glyph glyph-name="Atilde" unicode="&#xc3;" horiz-adv-x="647" 
d="M576 0l-86 231h-333l-86 -231h-34l266 700h40l268 -700h-35zM167 259h312l-126 336q-17 45 -17 85h-26q-2 -42 -18 -85zM331 812l-33 22q-4 4 -15 10q-19 14 -44 14q-50 0 -47 -63h-31q-2 43 20 66t61 23q34 0 71 -26l32 -22l15 -11q20 -13 45 -13q51 0 49 63h31
q0 -89 -81 -89q-35 0 -73 26z" />
    <glyph glyph-name="Adieresis" unicode="&#xc4;" horiz-adv-x="647" 
d="M576 0l-86 231h-333l-86 -231h-34l266 700h40l268 -700h-35zM167 259h312l-126 336q-17 45 -17 85h-26q-2 -42 -18 -85zM206 786v70h44v-70h-44zM389 786v70h43v-70h-43z" />
    <glyph glyph-name="Aring" unicode="&#xc5;" horiz-adv-x="647" 
d="M576 0l-86 231h-333l-86 -231h-34l266 700h40l268 -700h-35zM167 259h312l-126 336q-17 45 -17 85h-26q-2 -42 -18 -85zM227 868q0 40 27 67.5t69 27.5t69 -27.5t27 -67.5t-27 -68t-69 -28t-69 28t-27 68zM390 868q0 28 -19 49.5t-48 21.5t-48 -21.5t-19 -49.5t19 -50
t48 -22t48 22t19 50z" />
    <glyph glyph-name="AE" unicode="&#xc6;" horiz-adv-x="927" 
d="M876 672h-380v-292h281v-28h-281v-324h380v-28h-410v227h-287l-146 -227h-36l452 700h427v-28zM476 680h-26q0 -29 -35 -84l-219 -341h270v344q0 52 10 81z" />
    <glyph glyph-name="Ccedilla" unicode="&#xc7;" horiz-adv-x="727" 
d="M388 -24l-28 -30q14 3 30 3q38 0 61 -17t23 -50q0 -34 -25 -54t-66 -20q-57 0 -96 42l19 21q30 -36 75 -36q63 0 63 48q0 20 -17 32t-41 12q-20 0 -44 -8l-16 20l43 49q-141 7 -221 112t-80 264q0 157 85.5 252.5t233.5 95.5q63 1 116.5 -19.5t87 -52.5t54 -64t28.5 -62
l-30 -12q-19 69 -86 125.5t-170 56.5q-135 0 -211 -86.5t-76 -233.5q0 -151 77.5 -249.5t209.5 -98.5q195 0 262 193l30 -12q-31 -84 -96 -145t-184 -64z" />
    <glyph glyph-name="Egrave" unicode="&#xc8;" horiz-adv-x="628" 
d="M120 0v700h458v-28h-428v-292h328v-28h-328v-324h428v-28h-458zM336 786l-110 114h49l87 -114h-26z" />
    <glyph glyph-name="Eacute" unicode="&#xc9;" horiz-adv-x="628" 
d="M120 0v700h458v-28h-428v-292h328v-28h-328v-324h428v-28h-458zM333 786l87 114h50l-110 -114h-27z" />
    <glyph glyph-name="Ecircumflex" unicode="&#xca;" horiz-adv-x="628" 
d="M120 0v700h458v-28h-428v-292h328v-28h-328v-324h428v-28h-458zM212 786l111 114h53l112 -114h-32l-106 92l-107 -92h-31z" />
    <glyph glyph-name="Edieresis" unicode="&#xcb;" horiz-adv-x="628" 
d="M120 0v700h458v-28h-428v-292h328v-28h-328v-324h428v-28h-458zM232 786v70h44v-70h-44zM415 786v70h43v-70h-43z" />
    <glyph glyph-name="Igrave" unicode="&#xcc;" horiz-adv-x="270" 
d="M120 0v700h30v-700h-30zM122 786l-110 114h49l87 -114h-26z" />
    <glyph glyph-name="Iacute" unicode="&#xcd;" horiz-adv-x="270" 
d="M120 0v700h30v-700h-30zM119 786l87 114h50l-110 -114h-27z" />
    <glyph glyph-name="Icircumflex" unicode="&#xce;" horiz-adv-x="270" 
d="M120 0v700h30v-700h-30zM-2 786l111 114h53l112 -114h-32l-106 92l-107 -92h-31z" />
    <glyph glyph-name="Idieresis" unicode="&#xcf;" horiz-adv-x="270" 
d="M120 0v700h30v-700h-30zM18 786v70h44v-70h-44zM201 786v70h43v-70h-43z" />
    <glyph glyph-name="Eth" unicode="&#xd0;" horiz-adv-x="717" 
d="M649 351q0 -162 -89.5 -256.5t-255.5 -94.5h-180v338h-79v28h79v334h179q161 0 253.5 -93.5t92.5 -255.5zM617 351q0 152 -83.5 236.5t-240.5 84.5h-139v-306h188v-28h-188v-310h140q156 0 239.5 85t83.5 238z" />
    <glyph glyph-name="Ntilde" unicode="&#xd1;" horiz-adv-x="770" 
d="M120 0v700h54l440 -676l22 14q-16 38 -16 113v549h30v-700h-55l-438 673l-23 -14q10 -21 13 -44t3 -69v-546h-30zM391 812l-33 22q-4 4 -15 10q-19 14 -44 14q-50 0 -47 -63h-31q-2 43 20 66t61 23q34 0 71 -26l32 -22l15 -11q20 -13 45 -13q51 0 49 63h31q0 -89 -81 -89
q-35 0 -73 26z" />
    <glyph glyph-name="Ograve" unicode="&#xd2;" horiz-adv-x="796" 
d="M66 352q-2 155 95.5 258.5t236.5 101.5q139 2 236.5 -101.5t95.5 -258.5q2 -154 -96 -260t-236 -104q-139 -2 -236.5 103.5t-95.5 260.5zM698 352q2 138 -86.5 236t-213.5 96q-125 2 -213.5 -95.5t-86.5 -236.5q-2 -140 86 -239.5t214 -96.5q125 -3 213.5 97.5
t86.5 238.5zM387 786l-110 114h49l87 -114h-26z" />
    <glyph glyph-name="Oacute" unicode="&#xd3;" horiz-adv-x="796" 
d="M66 352q-2 155 95.5 258.5t236.5 101.5q139 2 236.5 -101.5t95.5 -258.5q2 -154 -96 -260t-236 -104q-139 -2 -236.5 103.5t-95.5 260.5zM698 352q2 138 -86.5 236t-213.5 96q-125 2 -213.5 -95.5t-86.5 -236.5q-2 -140 86 -239.5t214 -96.5q125 -3 213.5 97.5
t86.5 238.5zM384 786l87 114h50l-110 -114h-27z" />
    <glyph glyph-name="Ocircumflex" unicode="&#xd4;" horiz-adv-x="796" 
d="M66 352q-2 155 95.5 258.5t236.5 101.5q139 2 236.5 -101.5t95.5 -258.5q2 -154 -96 -260t-236 -104q-139 -2 -236.5 103.5t-95.5 260.5zM698 352q2 138 -86.5 236t-213.5 96q-125 2 -213.5 -95.5t-86.5 -236.5q-2 -140 86 -239.5t214 -96.5q125 -3 213.5 97.5
t86.5 238.5zM263 786l111 114h53l112 -114h-32l-106 92l-107 -92h-31z" />
    <glyph glyph-name="Otilde" unicode="&#xd5;" horiz-adv-x="796" 
d="M66 352q-2 155 95.5 258.5t236.5 101.5q139 2 236.5 -101.5t95.5 -258.5q2 -154 -96 -260t-236 -104q-139 -2 -236.5 103.5t-95.5 260.5zM698 352q2 138 -86.5 236t-213.5 96q-125 2 -213.5 -95.5t-86.5 -236.5q-2 -140 86 -239.5t214 -96.5q125 -3 213.5 97.5
t86.5 238.5zM408 812l-33 22q-4 4 -15 10q-19 14 -44 14q-50 0 -47 -63h-31q-2 43 20 66t61 23q34 0 71 -26l32 -22l15 -11q20 -13 45 -13q51 0 49 63h31q0 -89 -81 -89q-35 0 -73 26z" />
    <glyph glyph-name="Odieresis" unicode="&#xd6;" horiz-adv-x="796" 
d="M66 352q-2 155 95.5 258.5t236.5 101.5q139 2 236.5 -101.5t95.5 -258.5q2 -154 -96 -260t-236 -104q-139 -2 -236.5 103.5t-95.5 260.5zM698 352q2 138 -86.5 236t-213.5 96q-125 2 -213.5 -95.5t-86.5 -236.5q-2 -140 86 -239.5t214 -96.5q125 -3 213.5 97.5
t86.5 238.5zM283 786v70h44v-70h-44zM466 786v70h43v-70h-43z" />
    <glyph glyph-name="multiply" unicode="&#xd7;" horiz-adv-x="612" 
d="M103 141l-20 21l202 202l-202 201l20 21l203 -202l203 202l20 -21l-202 -201l202 -202l-20 -21l-203 202z" />
    <glyph glyph-name="Oslash" unicode="&#xd8;" horiz-adv-x="796" 
d="M136 -18l-23 19l60 78q-107 105 -107 273q-2 155 95.5 258.5t236.5 101.5q117 0 205 -71l65 85l22 -19l-66 -86q106 -101 106 -269q2 -154 -96 -260t-236 -104q-113 0 -203 71zM192 104l341 445q35 44 59 53v24q-83 58 -194 58q-125 2 -213.5 -95.5t-86.5 -236.5
q0 -152 94 -248zM698 352q0 148 -93 244l-340 -445q-31 -41 -59 -53v-24q83 -58 192 -58q125 -3 213.5 97.5t86.5 238.5z" />
    <glyph glyph-name="Ugrave" unicode="&#xd9;" horiz-adv-x="666" 
d="M110 254v446h30v-438q0 -244 195 -244q191 0 191 244v438h30v-446q0 -130 -56 -198t-165 -68q-110 0 -167.5 68.5t-57.5 197.5zM320 786l-110 114h49l87 -114h-26z" />
    <glyph glyph-name="Uacute" unicode="&#xda;" horiz-adv-x="666" 
d="M110 254v446h30v-438q0 -244 195 -244q191 0 191 244v438h30v-446q0 -130 -56 -198t-165 -68q-110 0 -167.5 68.5t-57.5 197.5zM317 786l87 114h50l-110 -114h-27z" />
    <glyph glyph-name="Ucircumflex" unicode="&#xdb;" horiz-adv-x="666" 
d="M110 254v446h30v-438q0 -244 195 -244q191 0 191 244v438h30v-446q0 -130 -56 -198t-165 -68q-110 0 -167.5 68.5t-57.5 197.5zM196 786l111 114h53l112 -114h-32l-106 92l-107 -92h-31z" />
    <glyph glyph-name="Udieresis" unicode="&#xdc;" horiz-adv-x="666" 
d="M110 254v446h30v-438q0 -244 195 -244q191 0 191 244v438h30v-446q0 -130 -56 -198t-165 -68q-110 0 -167.5 68.5t-57.5 197.5zM216 786v70h44v-70h-44zM399 786v70h43v-70h-43z" />
    <glyph glyph-name="Yacute" unicode="&#xdd;" horiz-adv-x="634" 
d="M302 0v311l-247 389h36l178 -284q37 -61 37 -88h25q0 29 37 90l175 282h36l-247 -390v-310h-30zM314 786l87 114h50l-110 -114h-27z" />
    <glyph glyph-name="Thorn" unicode="&#xde;" horiz-adv-x="633" 
d="M573 367q0 -86 -55 -141t-158 -55h-210v-171h-30v700h30v-138h213q100 0 155 -55t55 -140zM541 367q0 73 -46.5 120t-139.5 47h-205v-335h205q91 0 138.5 48.5t47.5 119.5z" />
    <glyph glyph-name="germandbls" unicode="&#xdf;" horiz-adv-x="570" 
d="M218 1v30q47 -14 89 -14q74 0 124.5 46.5t50.5 123.5q0 80 -59.5 126.5t-145.5 46.5h-21v31h22q61 0 106.5 42.5t45.5 111.5q0 64 -41 101.5t-103 37.5q-76 0 -116 -47t-40 -130v-507h-30v508q0 95 52 149.5t131 54.5q80 0 129 -49.5t49 -118.5q0 -54 -31.5 -95.5
t-89.5 -58.5v-24q75 -9 124 -57.5t49 -121.5q0 -92 -57.5 -145.5t-148.5 -53.5q-44 0 -89 13z" />
    <glyph glyph-name="agrave" unicode="&#xe0;" horiz-adv-x="529" 
d="M63 114q0 90 93.5 142.5t237.5 57.5v35q0 55 -36.5 90t-106.5 35q-130 0 -166 -101l-28 12q14 46 64 81.5t130 35.5q89 0 130.5 -44.5t41.5 -114.5v-253q0 -30 14.5 -46t38.5 -16h41v-28h-37q-43 0 -61.5 23.5t-16.5 81.5h-21q-49 -117 -171 -117q-67 0 -107 33.5
t-40 92.5zM394 227v61q-134 -6 -217 -51t-83 -123q0 -44 32 -71t86 -27q74 0 128 54.5t54 156.5zM234 566l-100 114h45l79 -114h-24z" />
    <glyph glyph-name="aacute" unicode="&#xe1;" horiz-adv-x="529" 
d="M63 114q0 90 93.5 142.5t237.5 57.5v35q0 55 -36.5 90t-106.5 35q-130 0 -166 -101l-28 12q14 46 64 81.5t130 35.5q89 0 130.5 -44.5t41.5 -114.5v-253q0 -30 14.5 -46t38.5 -16h41v-28h-37q-43 0 -61.5 23.5t-16.5 81.5h-21q-49 -117 -171 -117q-67 0 -107 33.5
t-40 92.5zM394 227v61q-134 -6 -217 -51t-83 -123q0 -44 32 -71t86 -27q74 0 128 54.5t54 156.5zM235 566l79 114h45l-99 -114h-25z" />
    <glyph glyph-name="acircumflex" unicode="&#xe2;" horiz-adv-x="529" 
d="M63 114q0 90 93.5 142.5t237.5 57.5v35q0 55 -36.5 90t-106.5 35q-130 0 -166 -101l-28 12q14 46 64 81.5t130 35.5q89 0 130.5 -44.5t41.5 -114.5v-253q0 -30 14.5 -46t38.5 -16h41v-28h-37q-43 0 -61.5 23.5t-16.5 81.5h-21q-49 -117 -171 -117q-67 0 -107 33.5
t-40 92.5zM394 227v61q-134 -6 -217 -51t-83 -123q0 -44 32 -71t86 -27q74 0 128 54.5t54 156.5zM121 566l102 114h47l102 -114h-29l-96 92l-97 -92h-29z" />
    <glyph glyph-name="atilde" unicode="&#xe3;" horiz-adv-x="529" 
d="M63 114q0 90 93.5 142.5t237.5 57.5v35q0 55 -36.5 90t-106.5 35q-130 0 -166 -101l-28 12q14 46 64 81.5t130 35.5q89 0 130.5 -44.5t41.5 -114.5v-253q0 -30 14.5 -46t38.5 -16h41v-28h-37q-43 0 -61.5 23.5t-16.5 81.5h-21q-49 -117 -171 -117q-67 0 -107 33.5
t-40 92.5zM394 227v61q-134 -6 -217 -51t-83 -123q0 -44 32 -71t86 -27q74 0 128 54.5t54 156.5zM255 601l-29 22l-14 10q-17 14 -40 14q-44 0 -43 -63h-28q-2 43 17.5 66t55.5 23q30 0 65 -26l29 -22q22 -16 30.5 -20t24.5 -4q45 0 44 63h28q1 -43 -18.5 -66t-54.5 -23
q-32 0 -67 26z" />
    <glyph glyph-name="adieresis" unicode="&#xe4;" horiz-adv-x="529" 
d="M63 114q0 90 93.5 142.5t237.5 57.5v35q0 55 -36.5 90t-106.5 35q-130 0 -166 -101l-28 12q14 46 64 81.5t130 35.5q89 0 130.5 -44.5t41.5 -114.5v-253q0 -30 14.5 -46t38.5 -16h41v-28h-37q-43 0 -61.5 23.5t-16.5 81.5h-21q-49 -117 -171 -117q-67 0 -107 33.5
t-40 92.5zM394 227v61q-134 -6 -217 -51t-83 -123q0 -44 32 -71t86 -27q74 0 128 54.5t54 156.5zM144 605v70h40v-70h-40zM310 605v70h40v-70h-40z" />
    <glyph glyph-name="aring" unicode="&#xe5;" horiz-adv-x="529" 
d="M63 114q0 90 93.5 142.5t237.5 57.5v35q0 55 -36.5 90t-106.5 35q-130 0 -166 -101l-28 12q14 46 64 81.5t130 35.5q89 0 130.5 -44.5t41.5 -114.5v-253q0 -30 14.5 -46t38.5 -16h41v-28h-37q-43 0 -61.5 23.5t-16.5 81.5h-21q-49 -117 -171 -117q-67 0 -107 33.5
t-40 92.5zM394 227v61q-134 -6 -217 -51t-83 -123q0 -44 32 -71t86 -27q74 0 128 54.5t54 156.5zM156 635q0 38 26 64.5t66 26.5t65.5 -26.5t25.5 -64.5t-25.5 -65t-65.5 -27t-66 27t-26 65zM311 635q0 27 -17.5 47t-45.5 20t-46 -20t-18 -47t18 -47.5t46 -20.5t45.5 20
t17.5 48z" />
    <glyph glyph-name="ae" unicode="&#xe6;" horiz-adv-x="860" 
d="M63 116q0 87 95 141t238 57v23q0 65 -36 101t-107 36q-123 0 -169 -101l-26 11q22 48 66 82q46 36 129 36q71 0 110 -36.5t45 -95.5h21q20 63 64.5 97.5t103.5 34.5q90 0 146.5 -62t56.5 -164q0 -13 -1 -24h-373q0 -121 49 -178.5t124 -57.5q62 0 107.5 34t64.5 82
l29 -13q-22 -53 -73.5 -92t-122.5 -39q-73 0 -119.5 42.5t-62.5 122.5h-21q-17 -76 -62.5 -120.5t-119.5 -44.5q-73 0 -114.5 35t-41.5 93zM426 279h345q0 93 -50.5 144t-123.5 51q-77 0 -122.5 -55.5t-48.5 -139.5zM396 234v54q-131 -3 -216.5 -50.5t-85.5 -121.5
q0 -45 32.5 -72.5t92.5 -27.5q73 0 125 54.5t52 163.5z" />
    <glyph glyph-name="ccedilla" unicode="&#xe7;" horiz-adv-x="513" 
d="M269 -24l-28 -30q13 3 30 3q38 0 61 -17t23 -50q0 -34 -25 -54t-66 -20q-57 0 -96 42l19 21q30 -36 75 -36q63 0 63 48q0 20 -17 32t-41 12q-22 0 -44 -8l-16 20l43 50q-85 8 -137 77.5t-52 179.5t58 183t151 73q74 0 125 -39.5t66 -95.5l-30 -9q-14 51 -56.5 83.5
t-104.5 32.5q-75 0 -126.5 -61t-51.5 -167q0 -107 50.5 -168.5t129.5 -61.5q67 0 109 40.5t54 94.5l30 -9q-17 -66 -65.5 -108.5t-119.5 -45.5z" />
    <glyph glyph-name="egrave" unicode="&#xe8;" horiz-adv-x="525" 
d="M62 260q0 111 59 176.5t144 65.5q89 0 145 -62.5t56 -163.5q0 -13 -1 -24h-372q0 -121 48.5 -178.5t125.5 -57.5q62 0 106.5 34.5t60.5 83.5l28 -13q-17 -52 -69 -92.5t-126 -40.5q-96 0 -150.5 69t-54.5 203zM92 279h345q0 93 -50 144t-122 51q-77 0 -123.5 -55.5
t-49.5 -139.5zM252 566l-100 114h45l79 -114h-24z" />
    <glyph glyph-name="eacute" unicode="&#xe9;" horiz-adv-x="525" 
d="M62 260q0 111 59 176.5t144 65.5q89 0 145 -62.5t56 -163.5q0 -13 -1 -24h-372q0 -121 48.5 -178.5t125.5 -57.5q62 0 106.5 34.5t60.5 83.5l28 -13q-17 -52 -69 -92.5t-126 -40.5q-96 0 -150.5 69t-54.5 203zM92 279h345q0 93 -50 144t-122 51q-77 0 -123.5 -55.5
t-49.5 -139.5zM253 566l79 114h45l-99 -114h-25z" />
    <glyph glyph-name="ecircumflex" unicode="&#xea;" horiz-adv-x="525" 
d="M62 260q0 111 59 176.5t144 65.5q89 0 145 -62.5t56 -163.5q0 -13 -1 -24h-372q0 -121 48.5 -178.5t125.5 -57.5q62 0 106.5 34.5t60.5 83.5l28 -13q-17 -52 -69 -92.5t-126 -40.5q-96 0 -150.5 69t-54.5 203zM92 279h345q0 93 -50 144t-122 51q-77 0 -123.5 -55.5
t-49.5 -139.5zM139 566l102 114h47l102 -114h-29l-96 92l-97 -92h-29z" />
    <glyph glyph-name="edieresis" unicode="&#xeb;" horiz-adv-x="525" 
d="M62 260q0 111 59 176.5t144 65.5q89 0 145 -62.5t56 -163.5q0 -13 -1 -24h-372q0 -121 48.5 -178.5t125.5 -57.5q62 0 106.5 34.5t60.5 83.5l28 -13q-17 -52 -69 -92.5t-126 -40.5q-96 0 -150.5 69t-54.5 203zM92 279h345q0 93 -50 144t-122 51q-77 0 -123.5 -55.5
t-49.5 -139.5zM162 605v70h40v-70h-40zM328 605v70h40v-70h-40z" />
    <glyph glyph-name="igrave" unicode="&#xec;" horiz-adv-x="238" 
d="M100 0v490h29l1 -490h-30zM102 566l-100 114h45l79 -114h-24z" />
    <glyph glyph-name="iacute" unicode="&#xed;" horiz-adv-x="227" 
d="M100 0v490h29l1 -490h-30zM103 566l79 114h45l-99 -114h-25z" />
    <glyph glyph-name="icircumflex" unicode="&#xee;" horiz-adv-x="230" 
d="M100 0v490h29l1 -490h-30zM-11 566l102 114h47l102 -114h-29l-96 92l-97 -92h-29z" />
    <glyph glyph-name="idieresis" unicode="&#xef;" horiz-adv-x="230" 
d="M100 0v490h29l1 -490h-30zM12 605v70h40v-70h-40zM178 605v70h40v-70h-40z" />
    <glyph glyph-name="eth" unicode="&#xf0;" horiz-adv-x="536" 
d="M457 317q0 -177 -57 -254q-56 -75 -145 -75q-101 0 -146.5 64t-45.5 162q0 94 46 159.5t144 65.5q60 0 103 -37.5t60 -113.5h22q-6 222 -92 323l-91 -90l-18 19l91 90q-59 55 -148 55q-65 0 -102 -26v31q41 22 104 22q99 0 166 -62l62 62l18 -19l-62 -62q91 -103 91 -314
zM413 213q0 91 -44 144.5t-116 53.5q-78 0 -119.5 -51t-41.5 -146q0 -91 42.5 -144.5t118.5 -53.5q75 0 117.5 53.5t42.5 143.5z" />
    <glyph glyph-name="ntilde" unicode="&#xf1;" horiz-adv-x="577" 
d="M100 0v490h28q0 -73 -16 -124h24q16 56 54 96q37 40 114 40q91 0 136 -56t45 -146v-300h-30v292q0 87 -40 134.5t-113 47.5q-48 1 -83.5 -20.5t-54 -57t-27 -71.5t-8.5 -73v-252h-29zM295 601l-29 22l-14 10q-17 14 -40 14q-44 0 -43 -63h-28q-2 43 17.5 66t55.5 23
q30 0 65 -26l29 -22q22 -16 30.5 -20t24.5 -4q45 0 44 63h28q1 -43 -18.5 -66t-54.5 -23q-32 0 -67 26z" />
    <glyph glyph-name="ograve" unicode="&#xf2;" horiz-adv-x="568" 
d="M60 244q0 120 67 189t157 69t157 -69t67 -189q0 -121 -66.5 -188.5t-157.5 -67.5t-157.5 67.5t-66.5 188.5zM477 244q0 105 -57 167.5t-136 62.5t-136 -62.5t-57 -167.5q0 -106 57 -167t136 -61t136 61t57 167zM270 566l-100 114h45l79 -114h-24z" />
    <glyph glyph-name="oacute" unicode="&#xf3;" horiz-adv-x="568" 
d="M60 244q0 120 67 189t157 69t157 -69t67 -189q0 -121 -66.5 -188.5t-157.5 -67.5t-157.5 67.5t-66.5 188.5zM477 244q0 105 -57 167.5t-136 62.5t-136 -62.5t-57 -167.5q0 -106 57 -167t136 -61t136 61t57 167zM271 566l79 114h45l-99 -114h-25z" />
    <glyph glyph-name="ocircumflex" unicode="&#xf4;" horiz-adv-x="568" 
d="M60 244q0 120 67 189t157 69t157 -69t67 -189q0 -121 -66.5 -188.5t-157.5 -67.5t-157.5 67.5t-66.5 188.5zM477 244q0 105 -57 167.5t-136 62.5t-136 -62.5t-57 -167.5q0 -106 57 -167t136 -61t136 61t57 167zM157 566l102 114h47l102 -114h-29l-96 92l-97 -92h-29z" />
    <glyph glyph-name="otilde" unicode="&#xf5;" horiz-adv-x="568" 
d="M60 244q0 120 67 189t157 69t157 -69t67 -189q0 -121 -66.5 -188.5t-157.5 -67.5t-157.5 67.5t-66.5 188.5zM477 244q0 105 -57 167.5t-136 62.5t-136 -62.5t-57 -167.5q0 -106 57 -167t136 -61t136 61t57 167zM291 601l-29 22l-14 10q-18 14 -40 14q-44 0 -43 -63h-28
q-2 43 17.5 66t55.5 23q30 0 65 -26l29 -22q22 -16 30.5 -20t24.5 -4q45 0 44 63h28q1 -43 -18.5 -66t-54.5 -23q-32 0 -67 26z" />
    <glyph glyph-name="odieresis" unicode="&#xf6;" horiz-adv-x="568" 
d="M60 244q0 120 67 189t157 69t157 -69t67 -189q0 -121 -66.5 -188.5t-157.5 -67.5t-157.5 67.5t-66.5 188.5zM477 244q0 105 -57 167.5t-136 62.5t-136 -62.5t-57 -167.5q0 -106 57 -167t136 -61t136 61t57 167zM180 605v70h40v-70h-40zM346 605v70h40v-70h-40z" />
    <glyph glyph-name="divide" unicode="&#xf7;" horiz-adv-x="731" 
d="M337 512v93h57v-93h-57zM93 340v28h545v-28h-545zM337 103v93h57v-93h-57z" />
    <glyph glyph-name="oslash" unicode="&#xf8;" horiz-adv-x="571" 
d="M151 35l-42 -56l-21 18l42 57q-68 70 -68 190t67 189t157 69q81 0 140 -52l33 44l22 -17l-35 -47q64 -70 64 -186q0 -121 -66.5 -188.5t-156.5 -67.5q-77 0 -136 47zM149 78l216 289q28 37 53 48v21q-50 38 -132 38q-80 0 -136.5 -62t-56.5 -168q0 -102 56 -166zM479 244
q0 97 -51 162l-211 -283q-30 -42 -58 -55v-21q47 -31 121 -31q85 0 142 60.5t57 167.5z" />
    <glyph glyph-name="ugrave" unicode="&#xf9;" horiz-adv-x="566" 
d="M92 184v306h29v-296q0 -89 38.5 -133.5t108.5 -44.5q77 0 123 59.5t46 164.5v250h29v-490h-29q0 59 16 123h-23q-14 -50 -49 -92q-36 -43 -112 -43q-88 0 -132.5 51t-44.5 145zM266 566l-100 114h45l79 -114h-24z" />
    <glyph glyph-name="uacute" unicode="&#xfa;" horiz-adv-x="566" 
d="M92 184v306h29v-296q0 -89 38.5 -133.5t108.5 -44.5q77 0 123 59.5t46 164.5v250h29v-490h-29q0 59 16 123h-23q-14 -50 -49 -92q-36 -43 -112 -43q-88 0 -132.5 51t-44.5 145zM267 566l79 114h45l-99 -114h-25z" />
    <glyph glyph-name="ucircumflex" unicode="&#xfb;" horiz-adv-x="566" 
d="M92 184v306h29v-296q0 -89 38.5 -133.5t108.5 -44.5q77 0 123 59.5t46 164.5v250h29v-490h-29q0 59 16 123h-23q-14 -50 -49 -92q-36 -43 -112 -43q-88 0 -132.5 51t-44.5 145zM153 566l102 114h47l102 -114h-29l-96 92l-97 -92h-29z" />
    <glyph glyph-name="udieresis" unicode="&#xfc;" horiz-adv-x="566" 
d="M92 184v306h29v-296q0 -89 38.5 -133.5t108.5 -44.5q77 0 123 59.5t46 164.5v250h29v-490h-29q0 59 16 123h-23q-14 -50 -49 -92q-36 -43 -112 -43q-88 0 -132.5 51t-44.5 145zM176 605v70h40v-70h-40zM342 605v70h40v-70h-40z" />
    <glyph glyph-name="yacute" unicode="&#xfd;" horiz-adv-x="498" 
d="M422 490h32l-210 -570q-23 -64 -52.5 -89.5t-91.5 -25.5h-54v28h54q45 0 71.5 19.5t46.5 74.5l35 95l-214 468h32l149 -325q8 -15 22 -52t13 -59h24q1 45 25 111zM235 566l79 114h45l-99 -114h-25z" />
    <glyph glyph-name="thorn" unicode="&#xfe;" horiz-adv-x="568" 
d="M100 -195v895h29v-224q0 -24 -2 -48q-1 -14 -11 -52h23q16 53 59.5 89.5t104.5 36.5q85 0 144 -67t59 -190t-59 -190t-144 -67q-62 0 -105 36t-59 90h-23q10 -38 11 -52q2 -24 2 -48v-209h-29zM475 245q0 108 -50 168.5t-124 60.5q-77 0 -125.5 -59t-48.5 -170t48.5 -170
t125.5 -59q74 0 124 59.5t50 169.5z" />
    <glyph glyph-name="ydieresis" unicode="&#xff;" horiz-adv-x="498" 
d="M422 490h32l-210 -570q-23 -64 -52.5 -89.5t-91.5 -25.5h-54v28h54q45 0 71.5 19.5t46.5 74.5l35 95l-214 468h32l149 -325q8 -15 22 -52t13 -59h24q1 45 25 111zM144 605v70h40v-70h-40zM310 605v70h40v-70h-40z" />
    <glyph glyph-name="Amacron" unicode="&#x100;" horiz-adv-x="647" 
d="M576 0l-86 231h-333l-86 -231h-34l266 700h40l268 -700h-35zM167 259h312l-126 336q-17 45 -17 85h-26q-2 -42 -18 -85zM161 816v27h323v-27h-323z" />
    <glyph glyph-name="amacron" unicode="&#x101;" horiz-adv-x="529" 
d="M63 114q0 90 93.5 142.5t237.5 57.5v35q0 55 -36.5 90t-106.5 35q-130 0 -166 -101l-28 12q14 46 64 81.5t130 35.5q89 0 130.5 -44.5t41.5 -114.5v-253q0 -30 14.5 -46t38.5 -16h41v-28h-37q-43 0 -61.5 23.5t-16.5 81.5h-21q-49 -117 -171 -117q-67 0 -107 33.5
t-40 92.5zM394 227v61q-134 -6 -217 -51t-83 -123q0 -44 32 -71t86 -27q74 0 128 54.5t54 156.5zM100 599v27h294v-27h-294z" />
    <glyph glyph-name="Abreve" unicode="&#x102;" horiz-adv-x="647" 
d="M576 0l-86 231h-333l-86 -231h-34l266 700h40l268 -700h-35zM167 259h312l-126 336q-17 45 -17 85h-26q-2 -42 -18 -85zM191 898h27q5 -44 33 -66.5t71 -22.5q42 0 69.5 22.5t33.5 66.5h27q-4 -54 -38.5 -85.5t-91.5 -31.5q-59 0 -93 31.5t-38 85.5z" />
    <glyph glyph-name="abreve" unicode="&#x103;" horiz-adv-x="529" 
d="M63 114q0 90 93.5 142.5t237.5 57.5v35q0 55 -36.5 90t-106.5 35q-130 0 -166 -101l-28 12q14 46 64 81.5t130 35.5q89 0 130.5 -44.5t41.5 -114.5v-253q0 -30 14.5 -46t38.5 -16h41v-28h-37q-43 0 -61.5 23.5t-16.5 81.5h-21q-49 -117 -171 -117q-67 0 -107 33.5
t-40 92.5zM394 227v61q-134 -6 -217 -51t-83 -123q0 -44 32 -71t86 -27q74 0 128 54.5t54 156.5zM128 680h25q5 -44 30 -66.5t64 -22.5t64 22.5t30 66.5h25q-4 -54 -35 -85.5t-84 -31.5t-84 31.5t-35 85.5z" />
    <glyph glyph-name="Aogonek" unicode="&#x104;" horiz-adv-x="647" 
d="M612 -152v-27q-17 -11 -44 -11q-36 0 -57 20.5t-21 53.5q0 32 21.5 64.5t62.5 55.5l-84 227h-333l-86 -231h-34l266 700h40l268 -700q-93 -48 -93 -112q0 -22 13.5 -36t37.5 -14q16 0 43 10zM167 259h312l-126 336q-17 45 -17 85h-26q-2 -42 -18 -85z" />
    <glyph glyph-name="aogonek" unicode="&#x105;" horiz-adv-x="529" 
d="M518 -152v-27q-17 -11 -44 -11q-36 0 -57 20.5t-21 53.5q0 30 20 61.5t57 54.5q-39 2 -56 26t-15 79h-21q-49 -117 -171 -117q-67 0 -107 33.5t-40 92.5q0 90 93.5 142.5t237.5 57.5v35q0 55 -36.5 90t-106.5 35q-130 0 -166 -101l-28 12q14 46 64 81.5t130 35.5
q89 0 130.5 -44.5t41.5 -114.5v-253q0 -30 14.5 -46t38.5 -16h41v-28q-93 -47 -93 -112q0 -22 13.5 -36t37.5 -14q16 0 43 10zM394 227v61q-134 -6 -217 -51t-83 -123q0 -44 32 -71t86 -27q74 0 128 54.5t54 156.5z" />
    <glyph glyph-name="Cacute" unicode="&#x106;" horiz-adv-x="727" 
d="M68 364q0 157 85.5 252.5t233.5 95.5q63 1 116.5 -19.5t87 -52.5t54 -64t28.5 -62l-30 -12q-19 69 -86 125.5t-170 56.5q-135 0 -211 -86.5t-76 -233.5q0 -151 77.5 -249.5t209.5 -98.5q195 0 262 193l30 -12q-32 -88 -100 -148q-68 -61 -192 -61q-147 0 -233 106
t-86 270zM372 786l87 114h50l-110 -114h-27z" />
    <glyph glyph-name="cacute" unicode="&#x107;" horiz-adv-x="513" 
d="M61 246q0 110 58 183t151 73q74 0 125 -39.5t66 -95.5l-30 -9q-14 51 -56.5 83.5t-104.5 32.5q-75 0 -126.5 -61t-51.5 -167q0 -107 50.5 -168.5t129.5 -61.5q67 0 109 40.5t54 94.5l30 -9q-17 -68 -68.5 -111t-124.5 -43q-94 0 -152.5 70.5t-58.5 187.5zM258 566l79 114
h45l-99 -114h-25z" />
    <glyph glyph-name="Ccircumflex" unicode="&#x108;" horiz-adv-x="727" 
d="M68 364q0 157 85.5 252.5t233.5 95.5q63 1 116.5 -19.5t87 -52.5t54 -64t28.5 -62l-30 -12q-19 69 -86 125.5t-170 56.5q-135 0 -211 -86.5t-76 -233.5q0 -151 77.5 -249.5t209.5 -98.5q195 0 262 193l30 -12q-32 -88 -100 -148q-68 -61 -192 -61q-147 0 -233 106
t-86 270zM251 786l111 114h53l112 -114h-32l-106 92l-107 -92h-31z" />
    <glyph glyph-name="ccircumflex" unicode="&#x109;" horiz-adv-x="513" 
d="M61 246q0 110 58 183t151 73q74 0 125 -39.5t66 -95.5l-30 -9q-14 51 -56.5 83.5t-104.5 32.5q-75 0 -126.5 -61t-51.5 -167q0 -107 50.5 -168.5t129.5 -61.5q67 0 109 40.5t54 94.5l30 -9q-17 -68 -68.5 -111t-124.5 -43q-94 0 -152.5 70.5t-58.5 187.5zM144 566
l102 114h47l102 -114h-29l-96 92l-97 -92h-29z" />
    <glyph glyph-name="Cdotaccent" unicode="&#x10a;" horiz-adv-x="727" 
d="M68 364q0 157 85.5 252.5t233.5 95.5q63 1 116.5 -19.5t87 -52.5t54 -64t28.5 -62l-30 -12q-19 69 -86 125.5t-170 56.5q-135 0 -211 -86.5t-76 -233.5q0 -151 77.5 -249.5t209.5 -98.5q195 0 262 193l30 -12q-32 -88 -100 -148q-68 -61 -192 -61q-147 0 -233 106
t-86 270zM373 786v88h30v-88h-30z" />
    <glyph glyph-name="cdotaccent" unicode="&#x10b;" horiz-adv-x="513" 
d="M61 246q0 110 58 183t151 73q74 0 125 -39.5t66 -95.5l-30 -9q-14 51 -56.5 83.5t-104.5 32.5q-75 0 -126.5 -61t-51.5 -167q0 -107 50.5 -168.5t129.5 -61.5q67 0 109 40.5t54 94.5l30 -9q-17 -68 -68.5 -111t-124.5 -43q-94 0 -152.5 70.5t-58.5 187.5zM255 612v88h30
v-88h-30z" />
    <glyph glyph-name="Ccaron" unicode="&#x10c;" horiz-adv-x="727" 
d="M68 364q0 157 85.5 252.5t233.5 95.5q63 1 116.5 -19.5t87 -52.5t54 -64t28.5 -62l-30 -12q-19 69 -86 125.5t-170 56.5q-135 0 -211 -86.5t-76 -233.5q0 -151 77.5 -249.5t209.5 -98.5q195 0 262 193l30 -12q-32 -88 -100 -148q-68 -61 -192 -61q-147 0 -233 106
t-86 270zM526 900l-111 -114h-53l-112 114h32l106 -92l107 92h31z" />
    <glyph glyph-name="ccaron" unicode="&#x10d;" horiz-adv-x="513" 
d="M61 246q0 110 58 183t151 73q74 0 125 -39.5t66 -95.5l-30 -9q-14 51 -56.5 83.5t-104.5 32.5q-75 0 -126.5 -61t-51.5 -167q0 -107 50.5 -168.5t129.5 -61.5q67 0 109 40.5t54 94.5l30 -9q-17 -68 -68.5 -111t-124.5 -43q-94 0 -152.5 70.5t-58.5 187.5zM246 566
l-102 114h29l97 -92l96 92h29l-102 -114h-47z" />
    <glyph glyph-name="Dcaron" unicode="&#x10e;" horiz-adv-x="713" 
d="M120 0v700h179q161 0 253.5 -93.5t92.5 -255.5t-89.5 -256.5t-255.5 -94.5h-180zM150 28h140q157 0 240 85t83 238q0 152 -83.5 236.5t-240.5 84.5h-139v-644zM448 900l-111 -114h-53l-112 114h32l106 -92l107 92h31z" />
    <glyph glyph-name="dcaron" unicode="&#x10f;" horiz-adv-x="566" 
d="M62 245q0 122 59 189.5t144 67.5q61 0 104.5 -36.5t59.5 -89.5h23q-10 46 -11 52q-2 24 -2 48v224h29v-700h-28q0 34 2 60q2 12 11 54h-24q-16 -54 -59 -90t-105 -36q-85 0 -144 67.5t-59 189.5zM441 245q0 111 -49 170t-125 59q-74 0 -124 -60t-50 -169
q0 -110 49.5 -169.5t124.5 -59.5q76 0 125 59t49 170zM536 538l46 91h-23v71h43v-71l-44 -91h-22z" />
    <glyph glyph-name="Dcroat" unicode="&#x110;" horiz-adv-x="717" 
d="M649 351q0 -162 -89.5 -256.5t-255.5 -94.5h-180v338h-79v28h79v334h179q161 0 253.5 -93.5t92.5 -255.5zM617 351q0 152 -83.5 236.5t-240.5 84.5h-139v-306h188v-28h-188v-310h140q156 0 239.5 85t83.5 238z" />
    <glyph glyph-name="dcroat" unicode="&#x111;" horiz-adv-x="554" 
d="M559 613v-23h-91v-590h-28q0 34 2 60q2 12 11 54h-24q-16 -54 -59 -90t-105 -36q-85 0 -144 67.5t-59 189.5t59 189.5t144 67.5q61 0 104.5 -36.5t59.5 -89.5h23q-10 46 -11 52q-2 24 -2 48v114h-190v23h190v87h29v-87h91zM441 245q0 111 -49 170t-125 59q-74 0 -124 -60
t-50 -169q0 -110 49.5 -169.5t124.5 -59.5q76 0 125 59t49 170z" />
    <glyph glyph-name="Emacron" unicode="&#x112;" horiz-adv-x="628" 
d="M120 0v700h458v-28h-428v-292h328v-28h-328v-324h428v-28h-458zM187 816v27h323v-27h-323z" />
    <glyph glyph-name="emacron" unicode="&#x113;" horiz-adv-x="525" 
d="M62 260q0 111 59 176.5t144 65.5q89 0 145 -62.5t56 -163.5q0 -13 -1 -24h-372q0 -121 48.5 -178.5t125.5 -57.5q62 0 106.5 34.5t60.5 83.5l28 -13q-17 -52 -69 -92.5t-126 -40.5q-96 0 -150.5 69t-54.5 203zM92 279h345q0 93 -50 144t-122 51q-77 0 -123.5 -55.5
t-49.5 -139.5zM118 599v27h294v-27h-294z" />
    <glyph glyph-name="Ebreve" unicode="&#x114;" horiz-adv-x="628" 
d="M120 0v700h458v-28h-428v-292h328v-28h-328v-324h428v-28h-458zM217 898h27q5 -44 33 -66.5t71 -22.5q42 0 69.5 22.5t33.5 66.5h27q-4 -54 -38.5 -85.5t-91.5 -31.5q-59 0 -93 31.5t-38 85.5z" />
    <glyph glyph-name="ebreve" unicode="&#x115;" horiz-adv-x="525" 
d="M62 260q0 111 59 176.5t144 65.5q89 0 145 -62.5t56 -163.5q0 -13 -1 -24h-372q0 -121 48.5 -178.5t125.5 -57.5q62 0 106.5 34.5t60.5 83.5l28 -13q-17 -52 -69 -92.5t-126 -40.5q-96 0 -150.5 69t-54.5 203zM92 279h345q0 93 -50 144t-122 51q-77 0 -123.5 -55.5
t-49.5 -139.5zM146 680h25q5 -44 30 -66.5t64 -22.5t64 22.5t30 66.5h25q-4 -54 -35 -85.5t-84 -31.5t-84 31.5t-35 85.5z" />
    <glyph glyph-name="Edotaccent" unicode="&#x116;" horiz-adv-x="628" 
d="M120 0v700h458v-28h-428v-292h328v-28h-328v-324h428v-28h-458zM334 786v88h30v-88h-30z" />
    <glyph glyph-name="edotaccent" unicode="&#x117;" horiz-adv-x="525" 
d="M62 260q0 111 59 176.5t144 65.5q89 0 145 -62.5t56 -163.5q0 -13 -1 -24h-372q0 -121 48.5 -178.5t125.5 -57.5q62 0 106.5 34.5t60.5 83.5l28 -13q-17 -52 -69 -92.5t-126 -40.5q-96 0 -150.5 69t-54.5 203zM92 279h345q0 93 -50 144t-122 51q-77 0 -123.5 -55.5
t-49.5 -139.5zM250 612v88h30v-88h-30z" />
    <glyph glyph-name="Eogonek" unicode="&#x118;" horiz-adv-x="628" 
d="M579 -152v-27q-17 -11 -44 -11q-36 0 -57 20.5t-21 53.5q0 30 20 61.5t57 54.5h-414v700h458v-28h-428v-292h328v-28h-328v-324h428v-28q-93 -47 -93 -112q0 -22 13.5 -36t37.5 -14q16 0 43 10z" />
    <glyph glyph-name="eogonek" unicode="&#x119;" horiz-adv-x="525" 
d="M265 502q89 0 145 -62.5t56 -163.5q0 -13 -1 -24h-372q0 -121 48.5 -178.5t125.5 -57.5q64 0 107.5 35t59.5 83l28 -13q-11 -36 -42 -68.5t-71 -50.5q-103 -46 -103 -114q0 -50 47 -50q23 0 47 10v-27q-14 -11 -48 -11q-35 0 -54.5 20.5t-19.5 53.5q0 57 62 104
q-104 -4 -161 67t-57 205q0 111 59 176.5t144 65.5zM92 279h345q0 93 -50 144t-122 51q-77 0 -123.5 -55.5t-49.5 -139.5z" />
    <glyph glyph-name="Ecaron" unicode="&#x11a;" horiz-adv-x="628" 
d="M120 0v700h458v-28h-428v-292h328v-28h-328v-324h428v-28h-458zM487 900l-111 -114h-53l-112 114h32l106 -92l107 92h31z" />
    <glyph glyph-name="ecaron" unicode="&#x11b;" horiz-adv-x="525" 
d="M62 260q0 111 59 176.5t144 65.5q89 0 145 -62.5t56 -163.5q0 -13 -1 -24h-372q0 -121 48.5 -178.5t125.5 -57.5q62 0 106.5 34.5t60.5 83.5l28 -13q-17 -52 -69 -92.5t-126 -40.5q-96 0 -150.5 69t-54.5 203zM92 279h345q0 93 -50 144t-122 51q-77 0 -123.5 -55.5
t-49.5 -139.5zM241 566l-102 114h29l97 -92l96 92h29l-102 -114h-47z" />
    <glyph glyph-name="Gcircumflex" unicode="&#x11c;" horiz-adv-x="783" 
d="M67 358q0 156 92.5 255t242.5 99q69 1 126 -20t92 -54.5t55.5 -67.5t29.5 -67l-28 -11q-19 74 -89 133t-186 59q-138 0 -220.5 -89t-82.5 -236q0 -151 80.5 -247t216.5 -96q119 0 194.5 77t81.5 203h-274v28h304v-324h-30q0 65 2 105q3 32 13 67h-27q-30 -83 -90 -134
q-61 -50 -174 -50q-151 0 -240 103.5t-89 266.5zM262 786l111 114h53l112 -114h-32l-106 92l-107 -92h-31z" />
    <glyph glyph-name="gcircumflex" unicode="&#x11d;" horiz-adv-x="574" 
d="M41 -103q0 67 72 98v23q-48 12 -48 54q0 62 81 96v22q-65 53 -65 136q0 75 50 125.5t131 50.5q53 0 92.5 -26.5t57.5 -75.5h23q-2 44 17.5 67t56.5 23h36v-28h-28q-15 0 -25.5 -2.5t-22.5 -11t-18 -27.5t-6 -48v-43q0 -83 -52 -133.5t-133 -50.5q-52 0 -91 21
q-33 -15 -53.5 -40t-20.5 -51q0 -49 64 -49h228q61 0 99.5 -30t38.5 -81q0 -55 -35 -83t-92 -28h-239q-118 0 -118 92zM415 324q0 64 -44 107t-109 43q-68 0 -110 -42.5t-42 -107.5q0 -66 40.5 -108.5t109.5 -42.5q68 0 111.5 42.5t43.5 108.5zM170 -168h223q101 0 101 84
q0 41 -30.5 62.5t-85.5 21.5h-236q-25 -12 -48.5 -41t-23.5 -58q0 -34 22.5 -51.5t77.5 -17.5zM159 566l102 114h47l102 -114h-29l-96 92l-97 -92h-29z" />
    <glyph glyph-name="Gbreve" unicode="&#x11e;" horiz-adv-x="783" 
d="M67 358q0 156 92.5 255t242.5 99q69 1 126 -20t92 -54.5t55.5 -67.5t29.5 -67l-28 -11q-19 74 -89 133t-186 59q-138 0 -220.5 -89t-82.5 -236q0 -151 80.5 -247t216.5 -96q119 0 194.5 77t81.5 203h-274v28h304v-324h-30q0 65 2 105q3 32 13 67h-27q-30 -83 -90 -134
q-61 -50 -174 -50q-151 0 -240 103.5t-89 266.5zM267 898h27q5 -44 33 -66.5t71 -22.5q42 0 69.5 22.5t33.5 66.5h27q-4 -54 -38.5 -85.5t-91.5 -31.5q-59 0 -93 31.5t-38 85.5z" />
    <glyph glyph-name="gbreve" unicode="&#x11f;" horiz-adv-x="574" 
d="M41 -103q0 67 72 98v23q-48 12 -48 54q0 62 81 96v22q-65 53 -65 136q0 75 50 125.5t131 50.5q53 0 92.5 -26.5t57.5 -75.5h23q-2 44 17.5 67t56.5 23h36v-28h-28q-15 0 -25.5 -2.5t-22.5 -11t-18 -27.5t-6 -48v-43q0 -83 -52 -133.5t-133 -50.5q-52 0 -91 21
q-33 -15 -53.5 -40t-20.5 -51q0 -49 64 -49h228q61 0 99.5 -30t38.5 -81q0 -55 -35 -83t-92 -28h-239q-118 0 -118 92zM415 324q0 64 -44 107t-109 43q-68 0 -110 -42.5t-42 -107.5q0 -66 40.5 -108.5t109.5 -42.5q68 0 111.5 42.5t43.5 108.5zM170 -168h223q101 0 101 84
q0 41 -30.5 62.5t-85.5 21.5h-236q-25 -12 -48.5 -41t-23.5 -58q0 -34 22.5 -51.5t77.5 -17.5zM166 680h25q5 -44 30 -66.5t64 -22.5t64 22.5t30 66.5h25q-4 -54 -35 -85.5t-84 -31.5t-84 31.5t-35 85.5z" />
    <glyph glyph-name="Gdotaccent" unicode="&#x120;" horiz-adv-x="783" 
d="M67 358q0 156 92.5 255t242.5 99q69 1 126 -20t92 -54.5t55.5 -67.5t29.5 -67l-28 -11q-19 74 -89 133t-186 59q-138 0 -220.5 -89t-82.5 -236q0 -151 80.5 -247t216.5 -96q119 0 194.5 77t81.5 203h-274v28h304v-324h-30q0 65 2 105q3 32 13 67h-27q-30 -83 -90 -134
q-61 -50 -174 -50q-151 0 -240 103.5t-89 266.5zM384 786v88h30v-88h-30z" />
    <glyph glyph-name="gdotaccent" unicode="&#x121;" horiz-adv-x="574" 
d="M41 -103q0 67 72 98v23q-48 12 -48 54q0 62 81 96v22q-65 53 -65 136q0 75 50 125.5t131 50.5q53 0 92.5 -26.5t57.5 -75.5h23q-2 44 17.5 67t56.5 23h36v-28h-28q-15 0 -25.5 -2.5t-22.5 -11t-18 -27.5t-6 -48v-43q0 -83 -52 -133.5t-133 -50.5q-52 0 -91 21
q-33 -15 -53.5 -40t-20.5 -51q0 -49 64 -49h228q61 0 99.5 -30t38.5 -81q0 -55 -35 -83t-92 -28h-239q-118 0 -118 92zM415 324q0 64 -44 107t-109 43q-68 0 -110 -42.5t-42 -107.5q0 -66 40.5 -108.5t109.5 -42.5q68 0 111.5 42.5t43.5 108.5zM170 -168h223q101 0 101 84
q0 41 -30.5 62.5t-85.5 21.5h-236q-25 -12 -48.5 -41t-23.5 -58q0 -34 22.5 -51.5t77.5 -17.5zM270 612v88h30v-88h-30z" />
    <glyph glyph-name="uni0122" unicode="&#x122;" horiz-adv-x="783" 
d="M67 358q0 156 92.5 255t242.5 99q69 1 126 -20t92 -54.5t55.5 -67.5t29.5 -67l-28 -11q-19 74 -89 133t-186 59q-138 0 -220.5 -89t-82.5 -236q0 -151 80.5 -247t216.5 -96q119 0 194.5 77t81.5 203h-274v28h304v-324h-30q0 65 2 105q3 32 13 67h-27q-30 -83 -90 -134
q-61 -50 -174 -50q-151 0 -240 103.5t-89 266.5zM375 -269l46 91h-23v71h43v-71l-44 -91h-22z" />
    <glyph glyph-name="uni0123" unicode="&#x123;" horiz-adv-x="574" 
d="M41 -103q0 67 72 98v23q-48 12 -48 54q0 62 81 96v22q-65 53 -65 136q0 75 50 125.5t131 50.5q53 0 92.5 -26.5t57.5 -75.5h23q-2 44 17.5 67t56.5 23h36v-28h-28q-15 0 -25.5 -2.5t-22.5 -11t-18 -27.5t-6 -48v-43q0 -83 -52 -133.5t-133 -50.5q-52 0 -91 21
q-33 -15 -53.5 -40t-20.5 -51q0 -49 64 -49h228q61 0 99.5 -30t38.5 -81q0 -55 -35 -83t-92 -28h-239q-118 0 -118 92zM415 324q0 64 -44 107t-109 43q-68 0 -110 -42.5t-42 -107.5q0 -66 40.5 -108.5t109.5 -42.5q68 0 111.5 42.5t43.5 108.5zM170 -168h223q101 0 101 84
q0 41 -30.5 62.5t-85.5 21.5h-236q-25 -12 -48.5 -41t-23.5 -58q0 -34 22.5 -51.5t77.5 -17.5zM329 773l-47 -91h23v-71h-43v71l44 91h23z" />
    <glyph glyph-name="Hcircumflex" unicode="&#x124;" horiz-adv-x="770" 
d="M120 0v700h30v-320h470v320h30v-700h-30v352h-470v-352h-30zM244 786l111 114h53l112 -114h-32l-106 92l-107 -92h-31z" />
    <glyph glyph-name="hcircumflex" unicode="&#x125;" horiz-adv-x="577" 
d="M100 0v700h28v-210q0 -73 -16 -124h24q16 56 54 96q37 40 114 40q91 0 136 -56t45 -146v-300h-30v292q0 87 -40 134.5t-113 47.5q-48 1 -83.5 -20.5t-54 -57t-27 -71.5t-8.5 -73v-252h-29zM172 776l102 114h47l102 -114h-29l-96 92l-97 -92h-29z" />
    <glyph glyph-name="Hbar" unicode="&#x126;" horiz-adv-x="771" 
d="M724 589l-1 -27h-72v-562h-30v352h-470v-352h-30v562h-80v27h80v111h30v-111h470v111h30v-111h73zM621 380v182h-470v-182h470z" />
    <glyph glyph-name="hbar" unicode="&#x127;" horiz-adv-x="585" 
d="M485 300v-300h-30v292q0 87 -40 134.5t-113 47.5q-48 1 -83.5 -20.5t-54 -57t-27 -71.5t-8.5 -73v-252h-29v590h-80v23h80v87h28v-87h202v-23h-202v-100q0 -73 -16 -124h24q16 56 54 96q37 40 114 40q91 0 136 -56t45 -146z" />
    <glyph glyph-name="Itilde" unicode="&#x128;" horiz-adv-x="270" 
d="M120 0v700h30v-700h-30zM143 812l-33 22q-4 4 -15 10q-19 14 -44 14q-50 0 -47 -63h-31q-2 43 20 66t61 23q34 0 71 -26l32 -22l15 -11q20 -13 45 -13q51 0 49 63h31q0 -89 -81 -89q-35 0 -73 26z" />
    <glyph glyph-name="itilde" unicode="&#x129;" horiz-adv-x="230" 
d="M100 0v490h29l1 -490h-30zM123 601l-29 22l-14 10q-18 14 -40 14q-44 0 -43 -63h-28q-2 43 17.5 66t55.5 23q30 0 65 -26l29 -22q22 -16 30.5 -20t24.5 -4q45 0 44 63h28q1 -43 -18.5 -66t-54.5 -23q-32 0 -67 26z" />
    <glyph glyph-name="Imacron" unicode="&#x12a;" horiz-adv-x="270" 
d="M120 0v700h30v-700h-30zM-27 816v27h323v-27h-323z" />
    <glyph glyph-name="imacron" unicode="&#x12b;" horiz-adv-x="230" 
d="M100 0v490h29l1 -490h-30zM-32 599v27h294v-27h-294z" />
    <glyph glyph-name="Ibreve" unicode="&#x12c;" horiz-adv-x="270" 
d="M120 0v700h30v-700h-30zM3 898h27q5 -44 33 -66.5t71 -22.5q42 0 69.5 22.5t33.5 66.5h27q-4 -54 -38.5 -85.5t-91.5 -31.5q-59 0 -93 31.5t-38 85.5z" />
    <glyph glyph-name="ibreve" unicode="&#x12d;" horiz-adv-x="230" 
d="M100 0v490h29l1 -490h-30zM-4 680h25q5 -44 30 -66.5t64 -22.5t64 22.5t30 66.5h25q-4 -54 -35 -85.5t-84 -31.5t-84 31.5t-35 85.5z" />
    <glyph glyph-name="Iogonek" unicode="&#x12e;" horiz-adv-x="271" 
d="M152 -152v-27q-14 -11 -44 -11q-36 0 -57 20.5t-21 53.5q0 34 23.5 67.5t67.5 56.5v692h30v-700q-93 -48 -93 -112q0 -22 13.5 -36t37.5 -14q16 0 43 10z" />
    <glyph glyph-name="iogonek" unicode="&#x12f;" horiz-adv-x="238" 
d="M131 700v-88h-30v88h30zM132 -152v-27q-14 -11 -44 -11q-36 0 -57 20.5t-21 53.5q0 34 23.5 67.5t67.5 56.5v482h29l1 -490q-93 -48 -93 -112q0 -22 13.5 -36t37.5 -14q16 0 43 10z" />
    <glyph glyph-name="Idotaccent" unicode="&#x130;" horiz-adv-x="270" 
d="M120 0v700h30v-700h-30zM120 786v88h30v-88h-30z" />
    <glyph glyph-name="dotlessi" unicode="&#x131;" horiz-adv-x="230" 
d="M100 0v490h29l1 -490h-30z" />
    <glyph glyph-name="IJ" unicode="&#x132;" horiz-adv-x="731" 
d="M120 0v700h30v-700h-30zM300 168q0 14 2 38l30 12q-3 -24 -3 -44q0 -77 37 -117.5t92 -40.5q131 0 131 173v511h30v-523q0 -88 -40 -138.5t-120 -50.5q-72 0 -115.5 47t-43.5 133z" />
    <glyph glyph-name="ij" unicode="&#x133;" horiz-adv-x="467" 
d="M100 612v88h29v-88h-29zM100 0v490h29l1 -490h-30zM336 612v88h31v-88h-31zM194 -195v28h52q92 0 92 108v549h29v-553q0 -64 -31.5 -98t-86.5 -34h-55z" />
    <glyph glyph-name="Jcircumflex" unicode="&#x134;" horiz-adv-x="469" 
d="M38 168q0 14 2 38l30 12q-3 -24 -3 -44q0 -77 37 -117.5t92 -40.5q131 0 131 173v511h30v-523q0 -88 -40 -138.5t-120 -50.5q-72 0 -115.5 47t-43.5 133zM209 786l111 114h53l112 -114h-32l-106 92l-107 -92h-31z" />
    <glyph glyph-name="jcircumflex" unicode="&#x135;" horiz-adv-x="221" 
d="M-36 -195v28h52q92 0 92 108v549h29v-553q0 -64 -31.5 -98t-86.5 -34h-55zM-3 566l102 114h47l102 -114h-29l-96 92l-97 -92h-29z" />
    <glyph glyph-name="uni0136" unicode="&#x136;" horiz-adv-x="650" 
d="M603 0l-313 381l-140 -148v-233h-30v700h30v-291q0 -89 -19 -124l16 -13l402 428h41l-280 -296l334 -404h-41zM332 -269l46 91h-23v71h43v-71l-44 -91h-22z" />
    <glyph glyph-name="uni0137" unicode="&#x137;" horiz-adv-x="538" 
d="M487 0l-239 273l-119 -102v-171h-29v700h29v-381q0 -62 -17 -99l15 -15l327 285h44l-228 -198l256 -292h-39zM263 -269l46 91h-23v71h43v-71l-44 -91h-22z" />
    <glyph glyph-name="Lacute" unicode="&#x139;" horiz-adv-x="552" 
d="M120 0v700h30v-672h386v-28h-416zM122 786l87 114h50l-110 -114h-27z" />
    <glyph glyph-name="lacute" unicode="&#x13a;" horiz-adv-x="227" 
d="M100 0v700h29v-700h-29zM102 776l79 114h45l-99 -114h-25z" />
    <glyph glyph-name="uni013B" unicode="&#x13b;" horiz-adv-x="552" 
d="M120 0v700h30v-672h386v-28h-416zM279 -269l46 91h-23v71h43v-71l-44 -91h-22z" />
    <glyph glyph-name="uni013C" unicode="&#x13c;" horiz-adv-x="229" 
d="M100 0v700h29v-700h-29zM70 -269l46 91h-23v71h43v-71l-44 -91h-22z" />
    <glyph glyph-name="Lcaron" unicode="&#x13d;" horiz-adv-x="552" 
d="M317 522l51 100h-25v79h47v-79l-48 -100h-25zM120 0v700h30v-672h386v-28h-416z" />
    <glyph glyph-name="lcaron" unicode="&#x13e;" horiz-adv-x="233" 
d="M100 0v700h29v-700h-29zM196 538l46 91h-23v71h43v-71l-44 -91h-22z" />
    <glyph glyph-name="Ldot" unicode="&#x13f;" horiz-adv-x="553" 
d="M120 0v700h30v-672h386v-28h-416zM373 316v84h50v-84h-50z" />
    <glyph glyph-name="ldot" unicode="&#x140;" horiz-adv-x="339" 
d="M100 0v700h29v-700h-29zM253 291v84h50v-84h-50z" />
    <glyph glyph-name="Lslash" unicode="&#x141;" horiz-adv-x="562" 
d="M160 28h386v-28h-416v261l-78 -53v34l78 53v405h30v-385l251 171v-35l-251 -170v-253z" />
    <glyph glyph-name="lslash" unicode="&#x142;" horiz-adv-x="264" 
d="M221 471v-37l-77 -64v-370h-29v345l-66 -56v37l66 56v318h29v-293z" />
    <glyph glyph-name="Nacute" unicode="&#x143;" horiz-adv-x="770" 
d="M120 0v700h54l440 -676l22 14q-16 38 -16 113v549h30v-700h-55l-438 673l-23 -14q10 -21 13 -44t3 -69v-546h-30zM367 786l87 114h50l-110 -114h-27z" />
    <glyph glyph-name="nacute" unicode="&#x144;" horiz-adv-x="577" 
d="M100 0v490h28q0 -73 -16 -124h24q16 56 54 96q37 40 114 40q91 0 136 -56t45 -146v-300h-30v292q0 87 -40 134.5t-113 47.5q-48 1 -83.5 -20.5t-54 -57t-27 -71.5t-8.5 -73v-252h-29zM275 566l79 114h45l-99 -114h-25z" />
    <glyph glyph-name="uni0145" unicode="&#x145;" horiz-adv-x="770" 
d="M120 0v700h54l440 -676l22 14q-16 38 -16 113v549h30v-700h-55l-438 673l-23 -14q10 -21 13 -44t3 -69v-546h-30zM339 -269l46 91h-23v71h43v-71l-44 -91h-22z" />
    <glyph glyph-name="uni0146" unicode="&#x146;" horiz-adv-x="577" 
d="M100 0v490h28q0 -73 -16 -124h24q16 56 54 96q37 40 114 40q91 0 136 -56t45 -146v-300h-30v292q0 87 -40 134.5t-113 47.5q-48 1 -83.5 -20.5t-54 -57t-27 -71.5t-8.5 -73v-252h-29zM247 -269l46 91h-23v71h43v-71l-44 -91h-22z" />
    <glyph glyph-name="Ncaron" unicode="&#x147;" horiz-adv-x="770" 
d="M120 0v700h54l440 -676l22 14q-16 38 -16 113v549h30v-700h-55l-438 673l-23 -14q10 -21 13 -44t3 -69v-546h-30zM521 900l-111 -114h-53l-112 114h32l106 -92l107 92h31z" />
    <glyph glyph-name="ncaron" unicode="&#x148;" horiz-adv-x="577" 
d="M100 0v490h28q0 -73 -16 -124h24q16 56 54 96q37 40 114 40q91 0 136 -56t45 -146v-300h-30v292q0 87 -40 134.5t-113 47.5q-48 1 -83.5 -20.5t-54 -57t-27 -71.5t-8.5 -73v-252h-29zM263 566l-102 114h29l97 -92l96 92h29l-102 -114h-47z" />
    <glyph glyph-name="Eng" unicode="&#x14a;" horiz-adv-x="770" 
d="M497 -196v28h24q45 0 72 28.5t27 77.5v60l-463 675l-23 -14q10 -21 13 -44t3 -69v-546h-30v700h54l440 -641l22 14q-16 38 -16 113v514h30v-753q0 -74 -37.5 -108.5t-93.5 -34.5h-22z" />
    <glyph glyph-name="eng" unicode="&#x14b;" horiz-adv-x="577" 
d="M313 -195v28h80q62 0 62 71v388q0 87 -40 134.5t-113 47.5q-48 1 -83.5 -20.5t-54 -57t-27 -71.5t-8.5 -73v-252h-29v490h28q0 -73 -16 -124h24q16 56 54 96q37 40 114 40q91 0 136 -56t45 -146v-388q0 -58 -24 -82.5t-78 -24.5h-70z" />
    <glyph glyph-name="Omacron" unicode="&#x14c;" horiz-adv-x="796" 
d="M66 352q-2 155 95.5 258.5t236.5 101.5q139 2 236.5 -101.5t95.5 -258.5q2 -154 -96 -260t-236 -104q-139 -2 -236.5 103.5t-95.5 260.5zM698 352q2 138 -86.5 236t-213.5 96q-125 2 -213.5 -95.5t-86.5 -236.5q-2 -140 86 -239.5t214 -96.5q125 -3 213.5 97.5
t86.5 238.5zM238 816v27h323v-27h-323z" />
    <glyph glyph-name="omacron" unicode="&#x14d;" horiz-adv-x="568" 
d="M60 244q0 120 67 189t157 69t157 -69t67 -189q0 -121 -66.5 -188.5t-157.5 -67.5t-157.5 67.5t-66.5 188.5zM477 244q0 105 -57 167.5t-136 62.5t-136 -62.5t-57 -167.5q0 -106 57 -167t136 -61t136 61t57 167zM136 599v27h294v-27h-294z" />
    <glyph glyph-name="Obreve" unicode="&#x14e;" horiz-adv-x="796" 
d="M66 352q-2 155 95.5 258.5t236.5 101.5q139 2 236.5 -101.5t95.5 -258.5q2 -154 -96 -260t-236 -104q-139 -2 -236.5 103.5t-95.5 260.5zM698 352q2 138 -86.5 236t-213.5 96q-125 2 -213.5 -95.5t-86.5 -236.5q-2 -140 86 -239.5t214 -96.5q125 -3 213.5 97.5
t86.5 238.5zM268 898h27q5 -44 33 -66.5t71 -22.5q42 0 69.5 22.5t33.5 66.5h27q-4 -54 -38.5 -85.5t-91.5 -31.5q-59 0 -93 31.5t-38 85.5z" />
    <glyph glyph-name="obreve" unicode="&#x14f;" horiz-adv-x="568" 
d="M60 244q0 120 67 189t157 69t157 -69t67 -189q0 -121 -66.5 -188.5t-157.5 -67.5t-157.5 67.5t-66.5 188.5zM477 244q0 105 -57 167.5t-136 62.5t-136 -62.5t-57 -167.5q0 -106 57 -167t136 -61t136 61t57 167zM164 680h25q5 -44 30 -66.5t64 -22.5t64 22.5t30 66.5h25
q-4 -54 -35 -85.5t-84 -31.5t-84 31.5t-35 85.5z" />
    <glyph glyph-name="Ohungarumlaut" unicode="&#x150;" horiz-adv-x="796" 
d="M66 352q-2 155 95.5 258.5t236.5 101.5q139 2 236.5 -101.5t95.5 -258.5q2 -154 -96 -260t-236 -104q-139 -2 -236.5 103.5t-95.5 260.5zM698 352q2 138 -86.5 236t-213.5 96q-125 2 -213.5 -95.5t-86.5 -236.5q-2 -140 86 -239.5t214 -96.5q125 -3 213.5 97.5
t86.5 238.5zM317 786l88 114h49l-110 -114h-27zM454 786l87 114h49l-110 -114h-26z" />
    <glyph glyph-name="ohungarumlaut" unicode="&#x151;" horiz-adv-x="568" 
d="M60 244q0 120 67 189t157 69t157 -69t67 -189q0 -121 -66.5 -188.5t-157.5 -67.5t-157.5 67.5t-66.5 188.5zM477 244q0 105 -57 167.5t-136 62.5t-136 -62.5t-57 -167.5q0 -106 57 -167t136 -61t136 61t57 167zM212 566l79 114h45l-100 -114h-24zM336 566l79 114h45
l-100 -114h-24z" />
    <glyph glyph-name="OE" unicode="&#x152;" horiz-adv-x="1142" 
d="M68 352q-2 159 87.5 260.5t229.5 99.5q105 0 177 -56t98 -154h27q-11 47 -14 76q-2 46 -2 122h420v-28h-390v-292h292v-28h-292v-324h390v-28h-420q0 77 2 121q3 30 14 77h-27q-26 -97 -98.5 -153.5t-176.5 -56.5q-141 0 -229 102t-88 262zM669 352q2 142 -78 238
t-206 94q-129 0 -207 -93.5t-78 -238.5q0 -146 78.5 -241t206.5 -95q127 0 205.5 95.5t78.5 240.5z" />
    <glyph glyph-name="oe" unicode="&#x153;" horiz-adv-x="939" 
d="M60 244q0 121 67 189.5t156 68.5q145 0 192 -154h26q17 74 63 114t112 40q89 0 146 -63t57 -164q0 -12 -1 -23h-372q0 -121 49 -178.5t123 -57.5q61 0 107 34.5t64 82.5l29 -13q-22 -52 -75 -92t-125 -40q-140 0 -175 158h-26q-21 -77 -72.5 -117.5t-121.5 -40.5
q-87 -2 -156 67.5t-67 188.5zM475 244q0 108 -54.5 169t-133.5 61q-81 0 -138.5 -61.5t-57.5 -168.5q0 -106 57.5 -167t138.5 -61q79 0 133.5 61t54.5 167zM505 279h345q0 93 -51 144t-123 51q-77 0 -122.5 -55.5t-48.5 -139.5z" />
    <glyph glyph-name="Racute" unicode="&#x154;" horiz-adv-x="662" 
d="M120 0v700h249q89 0 147.5 -52t58.5 -137q0 -61 -36.5 -107t-92.5 -58v-24q44 -4 70 -34.5t39 -88.5l48 -199h-33l-46 195q-16 66 -52 95.5t-113 29.5h-209v-320h-30zM150 347h215q79 0 128.5 45t49.5 119q0 72 -50 116.5t-127 44.5h-216v-325zM297 786l87 114h50
l-110 -114h-27z" />
    <glyph glyph-name="racute" unicode="&#x155;" horiz-adv-x="385" 
d="M100 0v490h28q0 -65 -13 -128h23q12 60 50 97t101 37q46 0 76 -10v-29q-41 9 -77 9q-80 0 -120 -69.5t-40 -172.5v-224h-28zM203 566l79 114h45l-99 -114h-25z" />
    <glyph glyph-name="uni0156" unicode="&#x156;" horiz-adv-x="662" 
d="M120 0v700h249q89 0 147.5 -52t58.5 -137q0 -61 -36.5 -107t-92.5 -58v-24q44 -4 70 -34.5t39 -88.5l48 -199h-33l-46 195q-16 66 -52 95.5t-113 29.5h-209v-320h-30zM150 347h215q79 0 128.5 45t49.5 119q0 72 -50 116.5t-127 44.5h-216v-325zM296 -269l46 91h-23v71h43
v-71l-44 -91h-22z" />
    <glyph glyph-name="uni0157" unicode="&#x157;" horiz-adv-x="385" 
d="M100 0v490h28q0 -65 -13 -128h23q12 60 50 97t101 37q46 0 76 -10v-29q-41 9 -77 9q-80 0 -120 -69.5t-40 -172.5v-224h-28zM70 -269l46 91h-23v71h43v-71l-44 -91h-22z" />
    <glyph glyph-name="Rcaron" unicode="&#x158;" horiz-adv-x="662" 
d="M120 0v700h249q89 0 147.5 -52t58.5 -137q0 -61 -36.5 -107t-92.5 -58v-24q44 -4 70 -34.5t39 -88.5l48 -199h-33l-46 195q-16 66 -52 95.5t-113 29.5h-209v-320h-30zM150 347h215q79 0 128.5 45t49.5 119q0 72 -50 116.5t-127 44.5h-216v-325zM451 900l-111 -114h-53
l-112 114h32l106 -92l107 92h31z" />
    <glyph glyph-name="rcaron" unicode="&#x159;" horiz-adv-x="385" 
d="M100 0v490h28q0 -65 -13 -128h23q12 60 50 97t101 37q46 0 76 -10v-29q-41 9 -77 9q-80 0 -120 -69.5t-40 -172.5v-224h-28zM191 566l-102 114h29l97 -92l96 92h29l-102 -114h-47z" />
    <glyph glyph-name="Sacute" unicode="&#x15a;" horiz-adv-x="598" 
d="M52 153l30 15q21 -68 81 -109.5t134 -41.5q92 0 149 43t57 113q0 116 -153 162l-108 32q-160 48 -160 171q0 81 60.5 127.5t151.5 46.5q95 0 151.5 -43.5t76.5 -98.5l-27 -15q-20 51 -69 90t-132 39q-78 0 -130 -39.5t-52 -104.5q0 -54 37.5 -89t120.5 -60l97 -29
q168 -50 168 -188q0 -85 -63.5 -135.5t-174.5 -50.5q-183 0 -245 165zM280 786l87 114h50l-110 -114h-27z" />
    <glyph glyph-name="sacute" unicode="&#x15b;" horiz-adv-x="473" 
d="M51 127l29 10q5 -48 48.5 -84.5t109.5 -36.5q72 0 110.5 29t38.5 74q0 41 -29.5 69.5t-81.5 41.5l-74 19q-63 17 -96.5 45t-33.5 80q0 55 46 91.5t118 36.5q67 0 110.5 -32.5t56.5 -80.5l-28 -12q-7 37 -44 67t-95 30q-63 0 -98.5 -28t-35.5 -67q0 -75 94 -97l75 -19
q147 -37 147 -144q0 -58 -45 -94.5t-135 -36.5q-84 0 -131.5 40t-55.5 99zM226 566l79 114h45l-99 -114h-25z" />
    <glyph glyph-name="Scircumflex" unicode="&#x15c;" horiz-adv-x="598" 
d="M52 153l30 15q21 -68 81 -109.5t134 -41.5q92 0 149 43t57 113q0 116 -153 162l-108 32q-160 48 -160 171q0 81 60.5 127.5t151.5 46.5q95 0 151.5 -43.5t76.5 -98.5l-27 -15q-20 51 -69 90t-132 39q-78 0 -130 -39.5t-52 -104.5q0 -54 37.5 -89t120.5 -60l97 -29
q168 -50 168 -188q0 -85 -63.5 -135.5t-174.5 -50.5q-183 0 -245 165zM159 786l111 114h53l112 -114h-32l-106 92l-107 -92h-31z" />
    <glyph glyph-name="scircumflex" unicode="&#x15d;" horiz-adv-x="473" 
d="M51 127l29 10q5 -48 48.5 -84.5t109.5 -36.5q72 0 110.5 29t38.5 74q0 41 -29.5 69.5t-81.5 41.5l-74 19q-63 17 -96.5 45t-33.5 80q0 55 46 91.5t118 36.5q67 0 110.5 -32.5t56.5 -80.5l-28 -12q-7 37 -44 67t-95 30q-63 0 -98.5 -28t-35.5 -67q0 -75 94 -97l75 -19
q147 -37 147 -144q0 -58 -45 -94.5t-135 -36.5q-84 0 -131.5 40t-55.5 99zM112 566l102 114h47l102 -114h-29l-96 92l-97 -92h-29z" />
    <glyph glyph-name="Scedilla" unicode="&#x15e;" horiz-adv-x="598" 
d="M308 -24l-28 -30q14 3 30 3q38 0 61 -17t23 -50q0 -34 -25 -54t-66 -20q-57 0 -96 42l19 21q30 -36 75 -36q63 0 63 48q0 20 -17 32t-41 12q-20 0 -44 -8l-16 20l43 49q-175 5 -237 165l30 15q21 -68 81 -109.5t134 -41.5q92 0 149 43t57 113q0 116 -153 162l-108 32
q-160 48 -160 171q0 81 60.5 127.5t151.5 46.5q95 0 151.5 -43.5t76.5 -98.5l-27 -15q-20 51 -69 90t-132 39q-78 0 -130 -39.5t-52 -104.5q0 -54 37.5 -89t120.5 -60l97 -29q168 -50 168 -188q0 -80 -57 -130t-158 -56z" />
    <glyph glyph-name="scedilla" unicode="&#x15f;" horiz-adv-x="473" 
d="M235 -24l-28 -30q13 3 30 3q38 0 61 -17t23 -50q0 -34 -25 -54t-66 -20q-57 0 -96 42l19 21q32 -36 75 -36q63 0 63 48q0 20 -17 32t-41 12q-20 0 -44 -8l-16 20l44 49q-74 6 -116 45t-50 94l29 10q5 -48 48.5 -84.5t109.5 -36.5q72 0 110.5 29t38.5 74q0 41 -29.5 69.5
t-81.5 41.5l-74 19q-63 17 -96.5 45t-33.5 80q0 55 46 91.5t118 36.5q67 0 110.5 -32.5t56.5 -80.5l-28 -12q-7 37 -44 67t-95 30q-63 0 -98.5 -28t-35.5 -67q0 -75 94 -97l75 -19q147 -37 147 -144q0 -57 -42.5 -93.5t-128.5 -37.5z" />
    <glyph glyph-name="Scaron" unicode="&#x160;" horiz-adv-x="598" 
d="M52 153l30 15q21 -68 81 -109.5t134 -41.5q92 0 149 43t57 113q0 116 -153 162l-108 32q-160 48 -160 171q0 81 60.5 127.5t151.5 46.5q95 0 151.5 -43.5t76.5 -98.5l-27 -15q-20 51 -69 90t-132 39q-78 0 -130 -39.5t-52 -104.5q0 -54 37.5 -89t120.5 -60l97 -29
q168 -50 168 -188q0 -85 -63.5 -135.5t-174.5 -50.5q-183 0 -245 165zM434 900l-111 -114h-53l-112 114h32l106 -92l107 92h31z" />
    <glyph glyph-name="scaron" unicode="&#x161;" horiz-adv-x="473" 
d="M51 127l29 10q5 -48 48.5 -84.5t109.5 -36.5q72 0 110.5 29t38.5 74q0 41 -29.5 69.5t-81.5 41.5l-74 19q-63 17 -96.5 45t-33.5 80q0 55 46 91.5t118 36.5q67 0 110.5 -32.5t56.5 -80.5l-28 -12q-7 37 -44 67t-95 30q-63 0 -98.5 -28t-35.5 -67q0 -75 94 -97l75 -19
q147 -37 147 -144q0 -58 -45 -94.5t-135 -36.5q-84 0 -131.5 40t-55.5 99zM214 566l-102 114h29l97 -92l96 92h29l-102 -114h-47z" />
    <glyph glyph-name="uni0162" unicode="&#x162;" horiz-adv-x="608" 
d="M287 -24l-28 -30q13 3 30 3q38 0 61 -17t23 -50q0 -34 -24.5 -54t-66.5 -20q-57 0 -96 42l19 21q30 -36 75 -36q63 0 63 48q0 20 -17 32t-41 12q-20 0 -44 -8l-16 20l55 62v671h-264v28h576v-28h-282v-672z" />
    <glyph glyph-name="uni0163" unicode="&#x163;" horiz-adv-x="361" 
d="M344 0h-55q-14 0 -32 2l4 -2l-23 -24l-28 -30q14 3 30 3q38 0 61 -17t23 -50q0 -34 -25 -54t-66 -20q-57 0 -96 42l19 21q30 -36 75 -36q63 0 63 48q0 20 -17 32t-41 12q-20 0 -44 -8l-16 20l59 67q-86 23 -86 124v333h-132v27h132v141h29v-141h149v-27h-149v-330
q0 -105 105 -105h61v-28z" />
    <glyph glyph-name="Tcaron" unicode="&#x164;" horiz-adv-x="608" 
d="M280 0v672h-264v28h576v-28h-282v-672h-30zM433 900l-111 -114h-53l-112 114h32l106 -92l107 92h31z" />
    <glyph glyph-name="tcaron" unicode="&#x165;" horiz-adv-x="361" 
d="M149 130v333h-132v27h132v141h29v-141h149v-27h-149v-330q0 -105 105 -105h61v-28h-55q-140 0 -140 130zM263 538l46 91h-23v71h43v-71l-44 -91h-22z" />
    <glyph glyph-name="Tbar" unicode="&#x166;" horiz-adv-x="626" 
d="M602 672h-282v-275h178v-26h-178v-371h-30v371h-174v26h174v275h-264v28h576v-28z" />
    <glyph glyph-name="tbar" unicode="&#x167;" horiz-adv-x="388" 
d="M301 28h61v-28h-55q-140 0 -140 130v152h-132v25h132v156h-132v27h132v141h29v-141h149v-27h-149v-156h149v-25h-149v-149q0 -105 105 -105z" />
    <glyph glyph-name="Utilde" unicode="&#x168;" horiz-adv-x="666" 
d="M110 254v446h30v-438q0 -244 195 -244q191 0 191 244v438h30v-446q0 -130 -56 -198t-165 -68q-110 0 -167.5 68.5t-57.5 197.5zM341 812l-33 22q-4 4 -15 10q-19 14 -44 14q-50 0 -47 -63h-31q-2 43 20 66t61 23q34 0 71 -26l32 -22l15 -11q20 -13 45 -13q51 0 49 63h31
q0 -89 -81 -89q-35 0 -73 26z" />
    <glyph glyph-name="utilde" unicode="&#x169;" horiz-adv-x="566" 
d="M92 184v306h29v-296q0 -89 38.5 -133.5t108.5 -44.5q77 0 123 59.5t46 164.5v250h29v-490h-29q0 59 16 123h-23q-14 -50 -49 -92q-36 -43 -112 -43q-88 0 -132.5 51t-44.5 145zM287 601l-29 22l-14 10q-17 14 -40 14q-44 0 -43 -63h-28q-2 43 17.5 66t55.5 23
q30 0 65 -26l29 -22q22 -16 30.5 -20t24.5 -4q45 0 44 63h28q1 -43 -18.5 -66t-54.5 -23q-32 0 -67 26z" />
    <glyph glyph-name="Umacron" unicode="&#x16a;" horiz-adv-x="666" 
d="M110 254v446h30v-438q0 -244 195 -244q191 0 191 244v438h30v-446q0 -130 -56 -198t-165 -68q-110 0 -167.5 68.5t-57.5 197.5zM171 816v27h323v-27h-323z" />
    <glyph glyph-name="umacron" unicode="&#x16b;" horiz-adv-x="566" 
d="M92 184v306h29v-296q0 -89 38.5 -133.5t108.5 -44.5q77 0 123 59.5t46 164.5v250h29v-490h-29q0 59 16 123h-23q-14 -50 -49 -92q-36 -43 -112 -43q-88 0 -132.5 51t-44.5 145zM132 599v27h294v-27h-294z" />
    <glyph glyph-name="Ubreve" unicode="&#x16c;" horiz-adv-x="666" 
d="M110 254v446h30v-438q0 -244 195 -244q191 0 191 244v438h30v-446q0 -130 -56 -198t-165 -68q-110 0 -167.5 68.5t-57.5 197.5zM201 898h27q5 -44 33 -66.5t71 -22.5q42 0 69.5 22.5t33.5 66.5h27q-4 -54 -38.5 -85.5t-91.5 -31.5q-59 0 -93 31.5t-38 85.5z" />
    <glyph glyph-name="ubreve" unicode="&#x16d;" horiz-adv-x="566" 
d="M92 184v306h29v-296q0 -89 38.5 -133.5t108.5 -44.5q77 0 123 59.5t46 164.5v250h29v-490h-29q0 59 16 123h-23q-14 -50 -49 -92q-36 -43 -112 -43q-88 0 -132.5 51t-44.5 145zM160 680h25q5 -44 30 -66.5t64 -22.5t64 22.5t30 66.5h25q-4 -54 -35 -85.5t-84 -31.5
t-84 31.5t-35 85.5z" />
    <glyph glyph-name="Uring" unicode="&#x16e;" horiz-adv-x="666" 
d="M110 254v446h30v-438q0 -244 195 -244q191 0 191 244v438h30v-446q0 -130 -56 -198t-165 -68q-110 0 -167.5 68.5t-57.5 197.5zM237 868q0 40 27 67.5t69 27.5t69 -27.5t27 -67.5t-27 -68t-69 -28t-69 28t-27 68zM400 868q0 28 -19 49.5t-48 21.5t-48 -21.5t-19 -49.5
t19 -50t48 -22t48 22t19 50z" />
    <glyph glyph-name="uring" unicode="&#x16f;" horiz-adv-x="566" 
d="M92 184v306h29v-296q0 -89 38.5 -133.5t108.5 -44.5q77 0 123 59.5t46 164.5v250h29v-490h-29q0 59 16 123h-23q-14 -50 -49 -92q-36 -43 -112 -43q-88 0 -132.5 51t-44.5 145zM188 635q0 38 26 64.5t66 26.5t65.5 -26.5t25.5 -64.5t-25.5 -65t-65.5 -27t-66 27t-26 65z
M343 635q0 27 -17.5 47t-45.5 20t-46 -20t-18 -47t18 -47.5t46 -20.5t45.5 20t17.5 48z" />
    <glyph glyph-name="Uhungarumlaut" unicode="&#x170;" horiz-adv-x="666" 
d="M110 254v446h30v-438q0 -244 195 -244q191 0 191 244v438h30v-446q0 -130 -56 -198t-165 -68q-110 0 -167.5 68.5t-57.5 197.5zM250 786l88 114h49l-110 -114h-27zM387 786l87 114h49l-110 -114h-26z" />
    <glyph glyph-name="uhungarumlaut" unicode="&#x171;" horiz-adv-x="566" 
d="M92 184v306h29v-296q0 -89 38.5 -133.5t108.5 -44.5q77 0 123 59.5t46 164.5v250h29v-490h-29q0 59 16 123h-23q-14 -50 -49 -92q-36 -43 -112 -43q-88 0 -132.5 51t-44.5 145zM208 566l79 114h45l-100 -114h-24zM332 566l79 114h45l-100 -114h-24z" />
    <glyph glyph-name="Uogonek" unicode="&#x172;" horiz-adv-x="666" 
d="M295 -116q0 60 64 105q-11 -1 -25 -1q-108 0 -166 68.5t-58 197.5v446h30v-438q0 -244 195 -244q191 0 191 244v438h30v-446q0 -192 -128 -251q-105 -47 -105 -115q0 -50 47 -50q20 0 47 10v-27q-17 -11 -48 -11q-35 0 -54.5 20.5t-19.5 53.5z" />
    <glyph glyph-name="uogonek" unicode="&#x173;" horiz-adv-x="566" 
d="M467 -152v-27q-17 -11 -44 -11q-36 0 -57 20.5t-21 53.5q0 34 24 68t68 57q2 56 16 114h-23q-14 -50 -49 -92q-36 -43 -112 -43q-88 0 -132.5 51t-44.5 145v306h29v-296q0 -89 38.5 -133.5t108.5 -44.5q77 0 123 59.5t46 164.5v250h29v-490q-93 -47 -93 -112
q0 -22 13.5 -36t37.5 -14q16 0 43 10z" />
    <glyph glyph-name="Wcircumflex" unicode="&#x174;" horiz-adv-x="938" 
d="M232 0l-175 700h32l126 -514q14 -57 22 -98q6 -32 6 -68h26q0 36 6 69q10 45 26 96l152 515h32l151 -514q15 -51 26 -99q6 -28 8 -67h26q0 34 5 71q4 28 20 95l130 514h31l-176 -700h-45l-157 529q-14 50 -18 76q-4 25 -4 65h-26q0 -32 -5 -64q-5 -28 -18 -77l-155 -529
h-46zM331 786l111 114h53l112 -114h-32l-106 92l-107 -92h-31z" />
    <glyph glyph-name="wcircumflex" unicode="&#x175;" horiz-adv-x="799" 
d="M213 0l-170 490h31l112 -325q35 -98 36 -145h23q5 57 34 145l104 325h34l103 -325q33 -108 34 -145h24q4 56 34 146l113 324h31l-170 -490h-42l-104 328q-15 47 -22 76q-4 25 -6 56h-24q-2 -35 -7 -58q-6 -28 -21 -74l-106 -328h-41zM275 566l102 114h47l102 -114h-29
l-96 92l-97 -92h-29z" />
    <glyph glyph-name="Ycircumflex" unicode="&#x176;" horiz-adv-x="634" 
d="M302 0v311l-247 389h36l178 -284q37 -61 37 -88h25q0 29 37 90l175 282h36l-247 -390v-310h-30zM193 786l111 114h53l112 -114h-32l-106 92l-107 -92h-31z" />
    <glyph glyph-name="ycircumflex" unicode="&#x177;" horiz-adv-x="498" 
d="M422 490h32l-210 -570q-23 -64 -52.5 -89.5t-91.5 -25.5h-54v28h54q45 0 71.5 19.5t46.5 74.5l35 95l-214 468h32l149 -325q8 -15 22 -52t13 -59h24q1 45 25 111zM121 566l102 114h47l102 -114h-29l-96 92l-97 -92h-29z" />
    <glyph glyph-name="Ydieresis" unicode="&#x178;" horiz-adv-x="634" 
d="M302 0v311l-247 389h36l178 -284q37 -61 37 -88h25q0 29 37 90l175 282h36l-247 -390v-310h-30zM213 786v70h44v-70h-44zM396 786v70h43v-70h-43z" />
    <glyph glyph-name="Zacute" unicode="&#x179;" horiz-adv-x="565" 
d="M33 0v36l452 635l-17 19q-21 -13 -39.5 -15.5t-78.5 -2.5h-286v28h456v-31l-455 -640l17 -19q20 12 40 15t78 3h334v-28h-501zM276 786l87 114h50l-110 -114h-27z" />
    <glyph glyph-name="zacute" unicode="&#x17a;" horiz-adv-x="467" 
d="M46 0v37l334 424l-15 16q-13 -10 -26 -12.5t-52 -2.5h-237v28h364v-33l-337 -427l16 -17q14 10 26.5 12.5t55.5 2.5h253l1 -28h-383zM220 566l79 114h45l-99 -114h-25z" />
    <glyph glyph-name="Zdotaccent" unicode="&#x17b;" horiz-adv-x="565" 
d="M33 0v36l452 635l-17 19q-21 -13 -39.5 -15.5t-78.5 -2.5h-286v28h456v-31l-455 -640l17 -19q20 12 40 15t78 3h334v-28h-501zM277 786v88h30v-88h-30z" />
    <glyph glyph-name="zdotaccent" unicode="&#x17c;" horiz-adv-x="467" 
d="M46 0v37l334 424l-15 16q-13 -10 -26 -12.5t-52 -2.5h-237v28h364v-33l-337 -427l16 -17q14 10 26.5 12.5t55.5 2.5h253l1 -28h-383zM217 612v88h30v-88h-30z" />
    <glyph glyph-name="Zcaron" unicode="&#x17d;" horiz-adv-x="565" 
d="M33 0v36l452 635l-17 19q-21 -13 -39.5 -15.5t-78.5 -2.5h-286v28h456v-31l-455 -640l17 -19q20 12 40 15t78 3h334v-28h-501zM430 900l-111 -114h-53l-112 114h32l106 -92l107 92h31z" />
    <glyph glyph-name="zcaron" unicode="&#x17e;" horiz-adv-x="467" 
d="M46 0v37l334 424l-15 16q-13 -10 -26 -12.5t-52 -2.5h-237v28h364v-33l-337 -427l16 -17q14 10 26.5 12.5t55.5 2.5h253l1 -28h-383zM208 566l-102 114h29l97 -92l96 92h29l-102 -114h-47z" />
    <glyph glyph-name="florin" unicode="&#x192;" horiz-adv-x="458" 
d="M-59 -190v30q37 -19 86 -19q39 0 67.5 28t37.5 85l48 298q8 50 16 92q7 25 19 47l-14 16q-41 -14 -87 -14h-49v27h141l27 174q20 138 135 138q34 0 68 -8v-28q-35 8 -68 8q-47 0 -73 -32t-36 -99l-24 -153h141v-27h-145l-69 -437q-23 -143 -135 -143q-54 0 -86 17z" />
    <glyph glyph-name="uni01E2" unicode="&#x1e2;" horiz-adv-x="927" 
d="M876 672h-380v-292h281v-28h-281v-324h380v-28h-410v227h-287l-146 -227h-36l452 700h427v-28zM476 680h-26q0 -29 -35 -84l-219 -341h270v344q0 52 10 81zM468 816v27h323v-27h-323z" />
    <glyph glyph-name="uni01E3" unicode="&#x1e3;" horiz-adv-x="860" 
d="M63 116q0 87 95 141t238 57v23q0 65 -36 101t-107 36q-123 0 -169 -101l-26 11q22 48 66 82q46 36 129 36q71 0 110 -36.5t45 -95.5h21q20 63 64.5 97.5t103.5 34.5q90 0 146.5 -62t56.5 -164q0 -13 -1 -24h-373q0 -121 49 -178.5t124 -57.5q62 0 107.5 34t64.5 82
l29 -13q-22 -53 -73.5 -92t-122.5 -39q-73 0 -119.5 42.5t-62.5 122.5h-21q-17 -76 -62.5 -120.5t-119.5 -44.5q-73 0 -114.5 35t-41.5 93zM426 279h345q0 93 -50.5 144t-123.5 51q-77 0 -122.5 -55.5t-48.5 -139.5zM396 234v54q-131 -3 -216.5 -50.5t-85.5 -121.5
q0 -45 32.5 -72.5t92.5 -27.5q73 0 125 54.5t52 163.5zM282 599v27h294v-27h-294z" />
    <glyph glyph-name="Aringacute" unicode="&#x1fa;" horiz-adv-x="647" 
d="M576 0l-86 231h-333l-86 -231h-34l266 700h40l268 -700h-35zM167 259h312l-126 336q-17 45 -17 85h-26q-2 -42 -18 -85zM315 961l79 136h45l-99 -136h-25zM231 842q0 38 26 64.5t66 26.5t65.5 -26.5t25.5 -64.5t-25.5 -65t-65.5 -27t-66 27t-26 65zM386 842
q0 27 -17.5 47t-45.5 20t-46 -20t-18 -47t18 -47.5t46 -20.5t45.5 20t17.5 48z" />
    <glyph glyph-name="aringacute" unicode="&#x1fb;" horiz-adv-x="529" 
d="M63 114q0 90 93.5 142.5t237.5 57.5v35q0 55 -36.5 90t-106.5 35q-130 0 -166 -101l-28 12q14 46 64 81.5t130 35.5q89 0 130.5 -44.5t41.5 -114.5v-253q0 -30 14.5 -46t38.5 -16h41v-28h-37q-43 0 -61.5 23.5t-16.5 81.5h-21q-49 -117 -171 -117q-67 0 -107 33.5
t-40 92.5zM394 227v61q-134 -6 -217 -51t-83 -123q0 -44 32 -71t86 -27q74 0 128 54.5t54 156.5zM240 754l79 136h45l-99 -136h-25zM156 635q0 38 26 64.5t66 26.5t65.5 -26.5t25.5 -64.5t-25.5 -65t-65.5 -27t-66 27t-26 65zM311 635q0 27 -17.5 47t-45.5 20t-46 -20
t-18 -47t18 -47.5t46 -20.5t45.5 20t17.5 48z" />
    <glyph glyph-name="AEacute" unicode="&#x1fc;" horiz-adv-x="927" 
d="M876 672h-380v-292h281v-28h-281v-324h380v-28h-410v227h-287l-146 -227h-36l452 700h427v-28zM476 680h-26q0 -29 -35 -84l-219 -341h270v344q0 52 10 81zM614 786l87 114h50l-110 -114h-27z" />
    <glyph glyph-name="aeacute" unicode="&#x1fd;" horiz-adv-x="860" 
d="M63 116q0 87 95 141t238 57v23q0 65 -36 101t-107 36q-123 0 -169 -101l-26 11q22 48 66 82q46 36 129 36q71 0 110 -36.5t45 -95.5h21q20 63 64.5 97.5t103.5 34.5q90 0 146.5 -62t56.5 -164q0 -13 -1 -24h-373q0 -121 49 -178.5t124 -57.5q62 0 107.5 34t64.5 82
l29 -13q-22 -53 -73.5 -92t-122.5 -39q-73 0 -119.5 42.5t-62.5 122.5h-21q-17 -76 -62.5 -120.5t-119.5 -44.5q-73 0 -114.5 35t-41.5 93zM426 279h345q0 93 -50.5 144t-123.5 51q-77 0 -122.5 -55.5t-48.5 -139.5zM396 234v54q-131 -3 -216.5 -50.5t-85.5 -121.5
q0 -45 32.5 -72.5t92.5 -27.5q73 0 125 54.5t52 163.5zM417 566l79 114h45l-99 -114h-25z" />
    <glyph glyph-name="Oslashacute" unicode="&#x1fe;" horiz-adv-x="797" 
d="M136 -18l-23 19l60 78q-107 105 -107 273q-2 155 95.5 258.5t236.5 101.5q117 0 205 -71l65 85l22 -19l-66 -86q106 -101 106 -269q2 -154 -96 -260t-236 -104q-113 0 -203 71zM192 104l341 445q35 44 59 53v24q-83 58 -194 58q-125 2 -213.5 -95.5t-86.5 -236.5
q0 -152 94 -248zM698 352q0 148 -93 244l-340 -445q-31 -41 -59 -53v-24q83 -58 192 -58q125 -3 213.5 97.5t86.5 238.5zM384 786l87 114h50l-110 -114h-27z" />
    <glyph glyph-name="oslashacute" unicode="&#x1ff;" horiz-adv-x="571" 
d="M151 35l-42 -56l-21 18l42 57q-68 70 -68 190t67 189t157 69q81 0 140 -52l33 44l22 -17l-35 -47q64 -70 64 -186q0 -121 -66.5 -188.5t-156.5 -67.5q-77 0 -136 47zM149 78l216 289q28 37 53 48v21q-50 38 -132 38q-80 0 -136.5 -62t-56.5 -168q0 -102 56 -166zM479 244
q0 97 -51 162l-211 -283q-30 -42 -58 -55v-21q47 -31 121 -31q85 0 142 60.5t57 167.5zM291 566l79 114h45l-99 -114h-25z" />
    <glyph glyph-name="uni0218" unicode="&#x218;" horiz-adv-x="598" 
d="M52 153l30 15q21 -68 81 -109.5t134 -41.5q92 0 149 43t57 113q0 116 -153 162l-108 32q-160 48 -160 171q0 81 60.5 127.5t151.5 46.5q95 0 151.5 -43.5t76.5 -98.5l-27 -15q-20 51 -69 90t-132 39q-78 0 -130 -39.5t-52 -104.5q0 -54 37.5 -89t120.5 -60l97 -29
q168 -50 168 -188q0 -85 -63.5 -135.5t-174.5 -50.5q-183 0 -245 165zM271 -269l46 91h-23v71h43v-71l-44 -91h-22z" />
    <glyph glyph-name="uni0219" unicode="&#x219;" horiz-adv-x="473" 
d="M51 127l29 10q5 -48 48.5 -84.5t109.5 -36.5q72 0 110.5 29t38.5 74q0 41 -29.5 69.5t-81.5 41.5l-74 19q-63 17 -96.5 45t-33.5 80q0 55 46 91.5t118 36.5q67 0 110.5 -32.5t56.5 -80.5l-28 -12q-7 37 -44 67t-95 30q-63 0 -98.5 -28t-35.5 -67q0 -75 94 -97l75 -19
q147 -37 147 -144q0 -58 -45 -94.5t-135 -36.5q-84 0 -131.5 40t-55.5 99zM198 -269l46 91h-23v71h43v-71l-44 -91h-22z" />
    <glyph glyph-name="uni021A" unicode="&#x21a;" horiz-adv-x="608" 
d="M280 0v672h-264v28h576v-28h-282v-672h-30zM250 -269l46 91h-23v71h43v-71l-44 -91h-22z" />
    <glyph glyph-name="uni021B" unicode="&#x21b;" horiz-adv-x="361" 
d="M149 130v333h-132v27h132v141h29v-141h149v-27h-149v-330q0 -105 105 -105h61v-28h-55q-140 0 -140 130zM201 -269l46 91h-23v71h43v-71l-44 -91h-22z" />
    <glyph glyph-name="uni0226" unicode="&#x226;" horiz-adv-x="647" 
d="M576 0l-86 231h-333l-86 -231h-34l266 700h40l268 -700h-35zM167 259h312l-126 336q-17 45 -17 85h-26q-2 -42 -18 -85zM308 786v88h30v-88h-30z" />
    <glyph glyph-name="uni0227" unicode="&#x227;" horiz-adv-x="529" 
d="M63 114q0 90 93.5 142.5t237.5 57.5v35q0 55 -36.5 90t-106.5 35q-130 0 -166 -101l-28 12q14 46 64 81.5t130 35.5q89 0 130.5 -44.5t41.5 -114.5v-253q0 -30 14.5 -46t38.5 -16h41v-28h-37q-43 0 -61.5 23.5t-16.5 81.5h-21q-49 -117 -171 -117q-67 0 -107 33.5
t-40 92.5zM394 227v61q-134 -6 -217 -51t-83 -123q0 -44 32 -71t86 -27q74 0 128 54.5t54 156.5zM232 612v88h30v-88h-30z" />
    <glyph glyph-name="uni0232" unicode="&#x232;" horiz-adv-x="634" 
d="M302 0v311l-247 389h36l178 -284q37 -61 37 -88h25q0 29 37 90l175 282h36l-247 -390v-310h-30zM168 816v27h323v-27h-323z" />
    <glyph glyph-name="uni0233" unicode="&#x233;" horiz-adv-x="498" 
d="M422 490h32l-210 -570q-23 -64 -52.5 -89.5t-91.5 -25.5h-54v28h54q45 0 71.5 19.5t46.5 74.5l35 95l-214 468h32l149 -325q8 -15 22 -52t13 -59h24q1 45 25 111zM100 599v27h294v-27h-294z" />
    <glyph glyph-name="uni0237" unicode="&#x237;" horiz-adv-x="237" 
d="M-36 -195v28h52q92 0 92 108v549h29v-553q0 -64 -31.5 -98t-86.5 -34h-55z" />
    <glyph glyph-name="circumflex" unicode="&#x2c6;" horiz-adv-x="255" 
d="M2 566l102 114h47l102 -114h-29l-96 92l-97 -92h-29z" />
    <glyph glyph-name="caron" unicode="&#x2c7;" horiz-adv-x="255" 
d="M104 566l-102 114h29l97 -92l96 92h29l-102 -114h-47z" />
    <glyph glyph-name="breve" unicode="&#x2d8;" horiz-adv-x="225" 
d="M-12 680h25q5 -44 30 -66.5t64 -22.5t64 22.5t30 66.5h25q-4 -54 -35 -85.5t-84 -31.5t-84 31.5t-35 85.5z" />
    <glyph glyph-name="dotaccent" unicode="&#x2d9;" horiz-adv-x="298" 
d="M134 612v88h30v-88h-30z" />
    <glyph glyph-name="ring" unicode="&#x2da;" horiz-adv-x="327" 
d="M73 635q0 38 26 64.5t66 26.5t65.5 -26.5t25.5 -64.5t-25.5 -65t-65.5 -27t-66 27t-26 65zM228 635q0 27 -17.5 47t-45.5 20t-46 -20t-18 -47t18 -47.5t46 -20.5t45.5 20t17.5 48z" />
    <glyph glyph-name="ogonek" unicode="&#x2db;" horiz-adv-x="378" 
d="M63 -116q0 34 25.5 69t71.5 58l24 -11q-93 -48 -93 -112q0 -22 14 -36t37 -14q16 0 43 10v-27q-14 -11 -44 -11q-36 0 -57 20.5t-21 53.5z" />
    <glyph glyph-name="tilde" unicode="&#x2dc;" horiz-adv-x="199" 
d="M132 601l-29 22l-14 10q-17 14 -40 14q-45 0 -43 -63h-28q-2 43 17.5 66t55.5 23q30 0 65 -26l29 -22q22 -16 30.5 -20t24.5 -4q46 0 44 63h28q1 -43 -18.5 -66t-54.5 -23q-32 0 -67 26z" />
    <glyph glyph-name="hungarumlaut" unicode="&#x2dd;" horiz-adv-x="248" 
d="M0 566l79 114h45l-100 -114h-24zM124 566l79 114h45l-100 -114h-24z" />
    <glyph glyph-name="gravecomb" unicode="&#x300;" horiz-adv-x="0" 
d="M-70 566l-100 114h45l79 -114h-24z" />
    <glyph glyph-name="acutecomb" unicode="&#x301;" horiz-adv-x="0" 
d="M-200 566l79 114h45l-99 -114h-25z" />
    <glyph glyph-name="uni0302" unicode="&#x302;" horiz-adv-x="0" 
d="M-361 566l102 114h47l102 -114h-29l-96 92l-97 -92h-29z" />
    <glyph glyph-name="tildecomb" unicode="&#x303;" horiz-adv-x="0" 
d="M-191 601l-29 22q-1 1 -7.5 6t-10 7t-11.5 6.5t-12.5 4.5h-12.5q-44 0 -43 -63h-28q-2 43 17.5 66t55.5 23q30 0 65 -26l29 -22q22 -16 30.5 -20t24.5 -4q45 0 44 63h28q1 -43 -18.5 -66t-54.5 -23q-32 0 -67 26z" />
    <glyph glyph-name="uni0304" unicode="&#x304;" horiz-adv-x="0" 
d="M-342 599v27h294v-27h-294z" />
    <glyph glyph-name="uni0306" unicode="&#x306;" horiz-adv-x="0" 
d="M-306 680h25q5 -44 30 -66.5t64 -22.5t64 22.5t30 66.5h25q-4 -54 -35 -85.5t-84 -31.5t-84 31.5t-35 85.5z" />
    <glyph glyph-name="uni0307" unicode="&#x307;" horiz-adv-x="0" 
d="M-65 612v88h30v-88h-30z" />
    <glyph glyph-name="uni0308" unicode="&#x308;" horiz-adv-x="0" 
d="M-255 605v70h40v-70h-40zM-89 605v70h40v-70h-40z" />
    <glyph glyph-name="uni030A" unicode="&#x30a;" horiz-adv-x="0" 
d="M-229 635q0 38 26 64.5t66 26.5t65.5 -26.5t25.5 -64.5t-25.5 -65t-65.5 -27t-66 27t-26 65zM-74 635q0 27 -17.5 47t-45.5 20t-46 -20t-18 -47t18 -47.5t46 -20.5t45.5 20t17.5 48z" />
    <glyph glyph-name="uni030B" unicode="&#x30b;" horiz-adv-x="0" 
d="M-355 566l79 114h45l-100 -114h-24zM-231 566l79 114h45l-100 -114h-24z" />
    <glyph glyph-name="uni030C" unicode="&#x30c;" horiz-adv-x="0" 
d="M-275 566l-102 114h29l97 -92l96 92h29l-102 -114h-47z" />
    <glyph glyph-name="uni0312" unicode="&#x312;" horiz-adv-x="0" 
d="M-23 773l-47 -91h23v-71h-43v71l44 91h23z" />
    <glyph glyph-name="dotbelowcomb" unicode="&#x323;" horiz-adv-x="0" 
d="M-78 -195v88h30v-88h-30z" />
    <glyph glyph-name="uni0326" unicode="&#x326;" horiz-adv-x="0" 
d="M-125 -269l46 91h-23v71h43v-71l-44 -91h-22z" />
    <glyph glyph-name="uni0327" unicode="&#x327;" horiz-adv-x="0" 
d="M-227 -150l19 21q30 -36 75 -36q63 0 63 48q0 20 -17 32t-41 12q-22 0 -44 -8l-16 20l62 71l23 -10l-23 -24l-28 -30q14 3 30 3q38 0 61 -17t23 -50q0 -34 -25 -54t-66 -20q-57 0 -96 42z" />
    <glyph glyph-name="uni0328" unicode="&#x328;" horiz-adv-x="0" 
d="M-163 -116q0 34 25.5 69t71.5 58l24 -11q-93 -48 -93 -112q0 -22 14 -36t37 -14q16 0 43 10v-27q-14 -11 -44 -11q-36 0 -57 20.5t-21 53.5z" />
    <glyph glyph-name="uni0394" unicode="&#x394;" horiz-adv-x="644" 
d="M341 700l266 -700h-569l263 700h40zM82 28h480l-211 566q-17 46 -17 86h-26q-2 -40 -18 -87z" />
    <glyph glyph-name="uni03A9" unicode="&#x3a9;" horiz-adv-x="782" 
d="M104 0v28h64q61 0 94 -15l8 25q-97 34 -147.5 114.5t-50.5 199.5q-2 158 88.5 260t230.5 100q140 2 230.5 -100t88.5 -260q0 -119 -50.5 -199.5t-147.5 -114.5l8 -25q33 15 94 15h64v-28h-236v28q109 22 172.5 109.5t63.5 214.5q0 143 -79.5 237.5t-207.5 94.5
t-207.5 -94.5t-79.5 -237.5q0 -127 63.5 -214.5t172.5 -109.5v-28h-236z" />
    <glyph glyph-name="uni03BC" unicode="&#x3bc;" horiz-adv-x="571" 
d="M100 -195v685h29v-306q0 -82 40 -125.5t111 -43.5q74 0 118 60t44 165v250h29v-490h-29q0 55 16 123h-23q-36 -136 -155 -136q-105 0 -151 76v-258h-29z" />
    <glyph glyph-name="pi" unicode="&#x3c0;" horiz-adv-x="609" 
d="M144 0v462h-123v28h540v-28h-127v-372q0 -31 13.5 -46.5t45.5 -15.5h68v-28h-69q-88 0 -88 81v381h-230v-462h-30z" />
    <glyph glyph-name="Wgrave" unicode="&#x1e80;" horiz-adv-x="938" 
d="M232 0l-175 700h32l126 -514q14 -57 22 -98q6 -32 6 -68h26q0 36 6 69q10 45 26 96l152 515h32l151 -514q15 -51 26 -99q6 -28 8 -67h26q0 34 5 71q4 28 20 95l130 514h31l-176 -700h-45l-157 529q-14 50 -18 76q-4 25 -4 65h-26q0 -32 -5 -64q-5 -28 -18 -77l-155 -529
h-46zM455 786l-110 114h49l87 -114h-26z" />
    <glyph glyph-name="wgrave" unicode="&#x1e81;" horiz-adv-x="799" 
d="M213 0l-170 490h31l112 -325q35 -98 36 -145h23q5 57 34 145l104 325h34l103 -325q33 -108 34 -145h24q4 56 34 146l113 324h31l-170 -490h-42l-104 328q-15 47 -22 76q-4 25 -6 56h-24q-2 -35 -7 -58q-6 -28 -21 -74l-106 -328h-41zM388 566l-100 114h45l79 -114h-24z
" />
    <glyph glyph-name="Wacute" unicode="&#x1e82;" horiz-adv-x="938" 
d="M232 0l-175 700h32l126 -514q14 -57 22 -98q6 -32 6 -68h26q0 36 6 69q10 45 26 96l152 515h32l151 -514q15 -51 26 -99q6 -28 8 -67h26q0 34 5 71q4 28 20 95l130 514h31l-176 -700h-45l-157 529q-14 50 -18 76q-4 25 -4 65h-26q0 -32 -5 -64q-5 -28 -18 -77l-155 -529
h-46zM452 786l87 114h50l-110 -114h-27z" />
    <glyph glyph-name="wacute" unicode="&#x1e83;" horiz-adv-x="799" 
d="M213 0l-170 490h31l112 -325q35 -98 36 -145h23q5 57 34 145l104 325h34l103 -325q33 -108 34 -145h24q4 56 34 146l113 324h31l-170 -490h-42l-104 328q-15 47 -22 76q-4 25 -6 56h-24q-2 -35 -7 -58q-6 -28 -21 -74l-106 -328h-41zM389 566l79 114h45l-99 -114h-25z
" />
    <glyph glyph-name="Wdieresis" unicode="&#x1e84;" horiz-adv-x="938" 
d="M232 0l-175 700h32l126 -514q14 -57 22 -98q6 -32 6 -68h26q0 36 6 69q10 45 26 96l152 515h32l151 -514q15 -51 26 -99q6 -28 8 -67h26q0 34 5 71q4 28 20 95l130 514h31l-176 -700h-45l-157 529q-14 50 -18 76q-4 25 -4 65h-26q0 -32 -5 -64q-5 -28 -18 -77l-155 -529
h-46zM351 786v70h44v-70h-44zM534 786v70h43v-70h-43z" />
    <glyph glyph-name="wdieresis" unicode="&#x1e85;" horiz-adv-x="799" 
d="M213 0l-170 490h31l112 -325q35 -98 36 -145h23q5 57 34 145l104 325h34l103 -325q33 -108 34 -145h24q4 56 34 146l113 324h31l-170 -490h-42l-104 328q-15 47 -22 76q-4 25 -6 56h-24q-2 -35 -7 -58q-6 -28 -21 -74l-106 -328h-41zM298 605v70h40v-70h-40zM464 605v70
h40v-70h-40z" />
    <glyph glyph-name="uni1E9E" unicode="&#x1e9e;" horiz-adv-x="687" 
d="M217 40v37q68 -61 168 -61q93 0 147 44t54 124q0 72 -53 119t-150 47h-95v27h89q79 0 128.5 42t49.5 106t-45.5 105.5t-125.5 41.5h-234v-672h-30v700h270q87 0 142 -47t55 -124q0 -59 -33.5 -97t-78.5 -52v-24q60 -11 101.5 -57t41.5 -115q0 -89 -60.5 -143t-172.5 -54
q-106 0 -168 53z" />
    <glyph glyph-name="uni1EA0" unicode="&#x1ea0;" horiz-adv-x="647" 
d="M576 0l-86 231h-333l-86 -231h-34l266 700h40l268 -700h-35zM167 259h312l-126 336q-17 45 -17 85h-26q-2 -42 -18 -85zM309 -195v88h30v-88h-30z" />
    <glyph glyph-name="uni1EA1" unicode="&#x1ea1;" horiz-adv-x="529" 
d="M63 114q0 90 93.5 142.5t237.5 57.5v35q0 55 -36.5 90t-106.5 35q-130 0 -166 -101l-28 12q14 46 64 81.5t130 35.5q89 0 130.5 -44.5t41.5 -114.5v-253q0 -30 14.5 -46t38.5 -16h41v-28h-37q-43 0 -61.5 23.5t-16.5 81.5h-21q-49 -117 -171 -117q-67 0 -107 33.5
t-40 92.5zM394 227v61q-134 -6 -217 -51t-83 -123q0 -44 32 -71t86 -27q74 0 128 54.5t54 156.5zM241 -195v88h30v-88h-30z" />
    <glyph glyph-name="uni1EB8" unicode="&#x1eb8;" horiz-adv-x="628" 
d="M120 0v700h458v-28h-428v-292h328v-28h-328v-324h428v-28h-458zM335 -195v88h30v-88h-30z" />
    <glyph glyph-name="uni1EB9" unicode="&#x1eb9;" horiz-adv-x="525" 
d="M62 260q0 111 59 176.5t144 65.5q89 0 145 -62.5t56 -163.5q0 -13 -1 -24h-372q0 -121 48.5 -178.5t125.5 -57.5q62 0 106.5 34.5t60.5 83.5l28 -13q-17 -52 -69 -92.5t-126 -40.5q-96 0 -150.5 69t-54.5 203zM92 279h345q0 93 -50 144t-122 51q-77 0 -123.5 -55.5
t-49.5 -139.5zM245 -195v88h30v-88h-30z" />
    <glyph glyph-name="uni1ECA" unicode="&#x1eca;" horiz-adv-x="270" 
d="M120 0v700h30v-700h-30zM120 -195v88h30v-88h-30z" />
    <glyph glyph-name="uni1ECB" unicode="&#x1ecb;" horiz-adv-x="230" 
d="M99 612v88h31v-88h-31zM100 0v490h30v-490h-30zM99 -195v88h31v-88h-31z" />
    <glyph glyph-name="uni1ECC" unicode="&#x1ecc;" horiz-adv-x="796" 
d="M66 352q-2 155 95.5 258.5t236.5 101.5q139 2 236.5 -101.5t95.5 -258.5q2 -154 -96 -260t-236 -104q-139 -2 -236.5 103.5t-95.5 260.5zM698 352q2 138 -86.5 236t-213.5 96q-125 2 -213.5 -95.5t-86.5 -236.5q-2 -140 86 -239.5t214 -96.5q125 -3 213.5 97.5
t86.5 238.5zM389 -195v88h30v-88h-30z" />
    <glyph glyph-name="uni1ECD" unicode="&#x1ecd;" horiz-adv-x="568" 
d="M60 244q0 120 67 189t157 69t157 -69t67 -189q0 -121 -66.5 -188.5t-157.5 -67.5t-157.5 67.5t-66.5 188.5zM477 244q0 105 -57 167.5t-136 62.5t-136 -62.5t-57 -167.5q0 -106 57 -167t136 -61t136 61t57 167zM268 -195v88h30v-88h-30z" />
    <glyph glyph-name="uni1EE4" unicode="&#x1ee4;" horiz-adv-x="666" 
d="M110 254v446h30v-438q0 -244 195 -244q191 0 191 244v438h30v-446q0 -130 -56 -198t-165 -68q-110 0 -167.5 68.5t-57.5 197.5zM323 -195v88h30v-88h-30z" />
    <glyph glyph-name="uni1EE5" unicode="&#x1ee5;" horiz-adv-x="566" 
d="M92 184v306h29v-296q0 -89 38.5 -133.5t108.5 -44.5q77 0 123 59.5t46 164.5v250h29v-490h-29q0 59 16 123h-23q-14 -50 -49 -92q-36 -43 -112 -43q-88 0 -132.5 51t-44.5 145zM255 -195v88h30v-88h-30z" />
    <glyph glyph-name="Ygrave" unicode="&#x1ef2;" horiz-adv-x="634" 
d="M302 0v311l-247 389h36l178 -284q37 -61 37 -88h25q0 29 37 90l175 282h36l-247 -390v-310h-30zM317 786l-110 114h49l87 -114h-26z" />
    <glyph glyph-name="ygrave" unicode="&#x1ef3;" horiz-adv-x="498" 
d="M422 490h32l-210 -570q-23 -64 -52.5 -89.5t-91.5 -25.5h-54v28h54q45 0 71.5 19.5t46.5 74.5l35 95l-214 468h32l149 -325q8 -15 22 -52t13 -59h24q1 45 25 111zM234 566l-100 114h45l79 -114h-24z" />
    <glyph glyph-name="uni2002" unicode="&#x2002;" horiz-adv-x="500" 
 />
    <glyph glyph-name="uni2003" unicode="&#x2003;" horiz-adv-x="1000" 
 />
    <glyph glyph-name="uni2009" unicode="&#x2009;" horiz-adv-x="125" 
 />
    <glyph glyph-name="endash" unicode="&#x2013;" horiz-adv-x="587" 
d="M79 291v29h429v-29h-429z" />
    <glyph glyph-name="emdash" unicode="&#x2014;" horiz-adv-x="993" 
d="M79 291v29h835v-29h-835z" />
    <glyph glyph-name="quoteleft" unicode="&#x2018;" horiz-adv-x="217" 
d="M154 701l-52 -102h25v-79h-47v79l48 102h26z" />
    <glyph glyph-name="quoteright" unicode="&#x2019;" horiz-adv-x="215" 
d="M73 519l52 102h-25v80h48v-80l-49 -102h-26z" />
    <glyph glyph-name="quotesinglbase" unicode="&#x201a;" horiz-adv-x="232" 
d="M67 -102l52 102h-25v80h48v-80l-49 -102h-26z" />
    <glyph glyph-name="quotedblleft" unicode="&#x201c;" horiz-adv-x="356" 
d="M153 701l-51 -102h24v-79h-47v79l48 102h26zM292 701l-51 -102h25v-79h-48v79l49 102h25z" />
    <glyph glyph-name="quotedblright" unicode="&#x201d;" horiz-adv-x="354" 
d="M73 519l52 102h-25v80h48v-80l-49 -102h-26zM212 519l52 102h-25v80h48v-80l-49 -102h-26z" />
    <glyph glyph-name="quotedblbase" unicode="&#x201e;" horiz-adv-x="371" 
d="M67 -102l52 102h-25v80h48v-80l-49 -102h-26zM206 -102l52 102h-25v80h48v-80l-49 -102h-26z" />
    <glyph glyph-name="dagger" unicode="&#x2020;" horiz-adv-x="494" 
d="M232 -111v550h-197v28h197v233h30v-233h197v-28h-197v-550h-30z" />
    <glyph glyph-name="daggerdbl" unicode="&#x2021;" horiz-adv-x="546" 
d="M258 -111v233h-197v28h197v289h-197v28h197v233h30v-233h197v-28h-197v-289h197v-28h-197v-233h-30z" />
    <glyph glyph-name="bullet" unicode="&#x2022;" horiz-adv-x="506" 
d="M88 351q0 69 48.5 117.5t116.5 48.5q67 0 116 -48.5t49 -117.5q0 -65 -49 -113t-116 -48t-116 48t-49 113z" />
    <glyph glyph-name="ellipsis" unicode="&#x2026;" horiz-adv-x="716" 
d="M83 0v84h50v-84h-50zM333 0v84h50v-84h-50zM583 0v84h50v-84h-50z" />
    <glyph glyph-name="perthousand" unicode="&#x2030;" horiz-adv-x="1083" 
d="M205 304q-70 0 -112 56t-42 149q0 88 43 142.5t111 54.5t109.5 -54.5t41.5 -142.5q0 -93 -41.5 -149t-109.5 -56zM635 700h34l-492 -700h-35zM205 331q55 0 88 49t33 129q0 77 -33 123.5t-88 46.5q-57 0 -91 -46.5t-34 -123.5q0 -80 34.5 -129t90.5 -49zM1033 199
q0 -93 -41.5 -149t-109.5 -56q-49 0 -85.5 29t-54.5 81q-17 -52 -53 -81t-84 -29q-70 0 -112 56t-42 149q0 88 43 142.5t111 54.5q48 0 84 -28t53 -79q18 51 54.5 79t85.5 28q68 0 109.5 -54.5t41.5 -142.5zM726 199q0 77 -33 123.5t-88 46.5q-57 0 -91 -46.5t-34 -123.5
q0 -80 34.5 -129t90.5 -49q55 0 88 49t33 129zM1003 199q0 77 -33 123.5t-88 46.5q-57 0 -91 -46.5t-34 -123.5q0 -80 34.5 -129t90.5 -49q55 0 88 49t33 129z" />
    <glyph glyph-name="guilsinglleft" unicode="&#x2039;" horiz-adv-x="286" 
d="M218 441l-125 -190l125 -189h-36l-124 189l125 190h35z" />
    <glyph glyph-name="guilsinglright" unicode="&#x203a;" horiz-adv-x="287" 
d="M104 441l124 -189l-125 -190h-35l125 189l-125 190h36z" />
    <glyph glyph-name="fraction" unicode="&#x2044;" horiz-adv-x="180" 
d="M-175 0l493 700h34l-492 -700h-35z" />
    <glyph glyph-name="uni2070" unicode="&#x2070;" horiz-adv-x="415" 
d="M55 600q0 88 43 142.5t111 54.5t109.5 -54.5t41.5 -142.5q0 -93 -41.5 -149t-109.5 -56q-70 0 -112 56t-42 149zM330 600q0 77 -33 123.5t-88 46.5q-57 0 -91 -46.5t-34 -123.5q0 -80 34.5 -129t90.5 -49q55 0 88 49t33 129z" />
    <glyph glyph-name="uni2074" unicode="&#x2074;" horiz-adv-x="347" 
d="M215 401v113h-179v38l158 239h49v-251h65v-26h-65v-113h-28zM215 540v161q0 37 13 56l-17 10l-151 -227l15 -13q16 13 43 13h97z" />
    <glyph glyph-name="uni2075" unicode="&#x2075;" horiz-adv-x="356" 
d="M50 494l29 14q5 -86 98 -86q44 0 70.5 28t26.5 74q0 47 -25.5 73.5t-71.5 26.5q-59 0 -87 -54l-32 6l29 215h204v-27h-181l-12 -86q-7 -48 -26 -85h21q30 58 91 58q51 0 85.5 -35.5t34.5 -91.5t-36 -92.5t-91 -36.5q-53 0 -86.5 26t-40.5 73z" />
    <glyph glyph-name="uni2076" unicode="&#x2076;" horiz-adv-x="366" 
d="M56 585q0 97 45 154.5t120 57.5q38 0 75 -14v-31q-42 17 -73 17q-72 0 -110 -55.5t-40 -149.5h18q7 35 35.5 61.5t69.5 26.5q52 0 85.5 -36t33.5 -92t-35 -92.5t-90 -36.5q-65 0 -99.5 49t-34.5 141zM286 524q0 46 -26.5 73.5t-69.5 27.5q-39 0 -67.5 -29.5t-28.5 -71.5
q0 -43 28.5 -72.5t67.5 -29.5q43 0 69.5 28t26.5 74z" />
    <glyph glyph-name="uni2077" unicode="&#x2077;" horiz-adv-x="321" 
d="M259 760l5 4l-11 16q-25 -16 -65 -16h-152v27h253v-21q-98 -87 -129.5 -169.5t-30.5 -199.5h-31q0 113 36.5 200.5t124.5 158.5z" />
    <glyph glyph-name="uni2078" unicode="&#x2078;" horiz-adv-x="363" 
d="M55 502q0 38 24.5 63.5t62.5 31.5v17q-30 3 -52.5 26t-22.5 60q0 41 32.5 69t82.5 28q51 0 82.5 -28t31.5 -69q0 -36 -22 -58.5t-48 -27.5v-17q37 -7 59.5 -32t22.5 -63q0 -44 -33 -75.5t-93 -31.5t-93.5 31.5t-33.5 75.5zM266 697q0 33 -23 53t-62 20q-38 0 -61 -20
t-23 -53q0 -35 23 -56.5t61 -21.5q39 0 62 21.5t23 56.5zM278 504q0 39 -26.5 63t-70.5 24q-43 0 -69.5 -24t-26.5 -63q0 -38 26 -60t70 -22q45 0 71 22t26 60z" />
    <glyph glyph-name="uni2079" unicode="&#x2079;" horiz-adv-x="371" 
d="M72 420v31q41 -29 90 -29q93 0 126 119q9 36 10 76h-18q-13 -39 -42.5 -59.5t-59.5 -20.5q-57 0 -92.5 35.5t-35.5 92.5q0 59 35.5 95.5t92.5 36.5q53 0 88 -32q49 -44 49 -153q0 -100 -41.5 -158.5t-111.5 -58.5q-55 0 -90 25zM279 667q0 45 -28.5 74t-72.5 29
q-45 0 -72 -27.5t-27 -75.5t26.5 -75.5t72.5 -27.5q44 0 72.5 29t28.5 74z" />
    <glyph glyph-name="uni20A9" unicode="&#x20a9;" horiz-adv-x="969" 
d="M917 403h-98l-30 -122h98v-28h-105l-63 -253h-45l-74 253h-232l-73 -253h-46l-62 253h-105v28h98l-31 122h-97v28h91l-67 269h32l65 -269h217l78 269h32l79 -269h216l67 269h31l-67 -269h91v-28zM448 529l-28 -98h128l-29 98q-14 50 -18 76q-4 25 -4 65h-26q0 -31 -5 -63
q-4 -29 -18 -78zM180 403l30 -122h136l35 122h-201zM376 281h216l-36 122h-144zM757 281l31 122h-201l35 -122h135zM318 185l19 68h-120l16 -67q16 -70 20 -97q5 -29 7 -69h26q0 35 6 68q10 44 26 97zM734 186l16 67h-120l20 -67q15 -53 25 -98q8 -35 8 -68h26q0 34 5 71
q4 28 20 95z" />
    <glyph glyph-name="Euro" unicode="&#x20ac;" horiz-adv-x="688" 
d="M134 273h-86v27h83q-3 24 -3 61q0 24 2 62h-82v27h86q18 125 83.5 193.5t171.5 68.5q54 0 98 -19.5t70.5 -51.5t42 -63t23.5 -64l-27 -11q-8 32 -23 62t-39 58t-61.5 44.5t-83.5 16.5q-94 0 -154 -60.5t-84 -172.5l18 -16q42 15 108 15h142v-27h-258q-2 -26 -2 -56
q0 -23 2 -67h258v-27h-142q-66 0 -108 15l-18 -16q24 -123 84 -189.5t154 -66.5q85 0 134.5 49.5t75.5 142.5l29 -11q-27 -89 -81 -149q-53 -60 -158 -60q-107 0 -171.5 76.5t-83.5 208.5z" />
    <glyph glyph-name="uni20B9" unicode="&#x20b9;" horiz-adv-x="578" 
d="M330 689l-9 -25q47 -17 74.5 -54.5t30.5 -86.5h95v-28h-95q-5 -57 -39 -96t-89 -53v-23q54 -7 79 -35.5t46 -92.5l62 -195h-32l-66 211q-31 109 -152 109h-166v28h162q69 0 113.5 40t50.5 107h-326v28h326q-4 67 -50.5 108t-113.5 41h-162v28h452v-28h-93q-53 0 -98 17z
" />
    <glyph glyph-name="uni20BA" unicode="&#x20ba;" horiz-adv-x="544" 
d="M157 0v203q0 59 18 94l-22 14q-17 -27 -63 -51l-33 -18v31l100 55v94l-100 -54v32l100 54v246h30v-138q0 -61 -18 -94l22 -14q22 32 63 51l145 78v-31l-212 -114v-94l212 116v-32l-212 -115v-284h10q43 0 100 21q59 21 111 82q54 61 72 172l27 -11q-20 -130 -105 -211.5
t-221 -81.5h-24z" />
    <glyph glyph-name="uni20BD" unicode="&#x20bd;" horiz-adv-x="588" 
d="M326 309h-162v-111h165v-28h-165v-170h-30v170h-80v28h80v111h-80v28h80v363h195q101 0 157.5 -55t56.5 -140q0 -86 -57 -141t-160 -55zM164 672v-335h159q92 0 140 48t48 120t-47 119.5t-141 47.5h-159z" />
    <glyph glyph-name="uni20BF" unicode="&#x20bf;" horiz-adv-x="632" 
d="M573 188q0 -82 -53.5 -135t-139.5 -53h-5v-106h-28v106h-94v-106h-28v106h-105v700h105v105h28v-105h94v105h28v-106q77 -7 121.5 -53.5t44.5 -117.5q0 -61 -31 -98t-80 -50v-24q57 -5 100 -50.5t43 -117.5zM150 672v-294h192q80 0 123.5 41t43.5 106q0 64 -43.5 105.5
t-123.5 41.5h-192zM541 190q0 68 -44.5 114t-120.5 46h-226v-322h225q76 0 121 46.5t45 115.5z" />
    <glyph glyph-name="uni2113" unicode="&#x2113;" horiz-adv-x="426" 
d="M114 101v134q-46 -8 -76 -11v28q41 3 76 13v295q0 63 29 107.5t92 44.5t101.5 -50t38.5 -126q0 -93 -59.5 -175.5t-171.5 -117.5v-145q0 -38 26 -60t57 -22q82 0 120 110l26 -13q-18 -68 -58.5 -96.5t-84.5 -28.5q-41 0 -79 23q-37 22 -37 90zM344 537q0 61 -30.5 104
t-78.5 43q-91 0 -91 -138v-165q0 -45 -3 -65.5t-14 -40.5l15 -14q100 45 151 119t51 157z" />
    <glyph glyph-name="uni2116" unicode="&#x2116;" horiz-adv-x="1136" 
d="M120 0v700h54l440 -676l22 14q-16 38 -16 113v549h30v-700h-55l-438 673l-23 -14q10 -21 13 -44t3 -69v-546h-30zM741 501q0 103 48.5 156t125.5 53t125.5 -53t48.5 -156q0 -104 -48.5 -158t-125.5 -54t-125.5 54t-48.5 158zM1058 500q0 89 -38 136.5t-105 47.5
t-105 -47.5t-38 -136.5t38 -136.5t105 -47.5t105 47.5t38 136.5z" />
    <glyph glyph-name="uni2117" unicode="&#x2117;" horiz-adv-x="888" 
d="M64 348q-1 103 49 192.5t139 143t194 51.5q158 3 269.5 -113t108.5 -274q3 -159 -108 -272.5t-270 -110.5q-160 -3 -272 110.5t-110 272.5zM792 348q2 149 -98.5 255.5t-248.5 103.5q-148 2 -249.5 -104.5t-99.5 -254.5q-2 -149 99.5 -253.5t249.5 -101.5
q148 -3 248.5 101.5t98.5 253.5zM333 152v398h134q73 0 114 -34t41 -99t-40.5 -98.5t-112.5 -33.5h-108v-133h-28zM361 313h96q135 0 135 104q0 106 -135 106h-96v-210z" />
    <glyph glyph-name="trademark" unicode="&#x2122;" horiz-adv-x="814" 
d="M164 323v349h-127v28h285v-28h-128v-349h-30zM394 323v377h48l77 -224l3 -10q14 -40 20 -65q6 -23 7 -50h20q2 40 5 54q4 19 21 72l71 223h51v-377h-29v220q0 69 19 121l-19 7l-10 -30l-103 -318h-32l-110 319l-10 29l-19 -7q19 -52 19 -121v-220h-29z" />
    <glyph glyph-name="Omega" unicode="&#x2126;" horiz-adv-x="776" 
d="M101 0v28h64q61 0 94 -15l8 25q-97 34 -147.5 114.5t-50.5 199.5q-2 159 87.5 260.5t231.5 99.5q140 2 230.5 -100t88.5 -260q0 -119 -51 -199.5t-147 -114.5l8 -25q33 15 94 15h64v-28h-236v28q109 22 172.5 109.5t63.5 214.5q0 143 -79.5 237.5t-207.5 94.5
t-207.5 -94.5t-79.5 -237.5q0 -127 63.5 -214.5t172.5 -109.5v-28h-236z" />
    <glyph glyph-name="onethird" unicode="&#x2153;" horiz-adv-x="754" 
d="M151 310v257q0 46 17 91h-18q-32 -72 -104 -91v29q78 27 117 104h16v-390h-28zM74 0l493 700h34l-492 -700h-35zM452 115l28 9v-10q0 -42 26.5 -67.5t71.5 -25.5q41 0 67 23t26 60q0 38 -27 62t-71 24h-39v28h39q37 0 61.5 22t24.5 55t-23.5 53.5t-60.5 20.5
q-38 0 -61 -23t-23 -61l1 -8l-28 10q-1 47 30.5 78t80.5 31t81 -28.5t32 -72.5q0 -31 -21.5 -53.5t-49.5 -27.5v-18q33 -3 58 -29t25 -63q0 -49 -33.5 -79.5t-88.5 -30.5q-59 0 -93 32.5t-33 88.5z" />
    <glyph glyph-name="twothirds" unicode="&#x2154;" horiz-adv-x="849" 
d="M62 310v26q101 73 150 128t52 122q0 43 -24 68t-65 25q-35 0 -60.5 -21t-25.5 -67q0 -13 1 -21l-29 8v15q0 50 32 81.5t82 31.5q53 0 85.5 -32.5t32.5 -85.5q0 -52 -31 -101q-48 -77 -174 -149l9 -16q30 15 76 15h128v-27h-239zM169 0l493 700h34l-492 -700h-35zM547 115
l28 9v-10q0 -42 26.5 -67.5t71.5 -25.5q41 0 67 23t26 60q0 38 -27 62t-71 24h-39v28h39q37 0 61.5 22t24.5 55t-23.5 53.5t-60.5 20.5q-38 0 -61 -23t-23 -61l1 -8l-28 10q-1 47 30.5 78t80.5 31t81 -28.5t32 -72.5q0 -31 -21.5 -53.5t-49.5 -27.5v-18q33 -3 58 -29t25 -63
q0 -49 -33.5 -79.5t-88.5 -30.5q-59 0 -93 32.5t-33 88.5z" />
    <glyph glyph-name="uni2155" unicode="&#x2155;" horiz-adv-x="776" 
d="M151 310v257q0 46 17 91h-18q-32 -72 -104 -91v29q78 27 117 104h16v-390h-28zM74 0l493 700h34l-492 -700h-35zM464 93l29 14q5 -86 98 -86q44 0 70.5 28t26.5 74q0 47 -25.5 73.5t-71.5 26.5q-59 0 -87 -54l-32 6l29 215h204v-27h-181l-12 -86q-7 -48 -26 -85h21
q30 58 91 58q51 0 85.5 -35.5t34.5 -91.5t-36 -92.5t-91 -36.5q-53 0 -86.5 26t-40.5 73z" />
    <glyph glyph-name="uni2156" unicode="&#x2156;" horiz-adv-x="871" 
d="M62 310v26q101 73 150 128t52 122q0 43 -24 68t-65 25q-35 0 -60.5 -21t-25.5 -67q0 -13 1 -21l-29 8v15q0 50 32 81.5t82 31.5q53 0 85.5 -32.5t32.5 -85.5q0 -52 -31 -101q-48 -77 -174 -149l9 -16q30 15 76 15h128v-27h-239zM169 0l493 700h34l-492 -700h-35zM559 93
l29 14q5 -86 98 -86q44 0 70.5 28t26.5 74q0 47 -25.5 73.5t-71.5 26.5q-58 0 -87 -54l-32 6l29 215h204v-27h-181l-12 -86q-7 -48 -26 -85h21q30 58 91 58q51 0 85.5 -35.5t34.5 -91.5t-36 -92.5t-91 -36.5q-53 0 -86.5 26t-40.5 73z" />
    <glyph glyph-name="uni2157" unicode="&#x2157;" horiz-adv-x="875" 
d="M51 425l28 9v-10q0 -42 26.5 -67.5t71.5 -25.5q41 0 67 23t26 60q0 38 -27 62t-71 24h-39v28h39q37 0 61.5 22t24.5 55t-23.5 53.5t-60.5 20.5q-38 0 -61 -23t-23 -61l1 -8l-28 10q-1 47 30.5 78t80.5 31t81 -28.5t32 -72.5q0 -31 -21.5 -53.5t-49.5 -27.5v-18
q33 -3 58 -29t25 -63q0 -49 -33.5 -79.5t-88.5 -30.5q-59 0 -93 32.5t-33 88.5zM173 0l493 700h34l-492 -700h-35zM563 93l29 14q5 -86 98 -86q44 0 70.5 28t26.5 74q0 47 -25.5 73.5t-71.5 26.5q-58 0 -87 -54l-32 6l29 215h204v-27h-181l-12 -86q-7 -48 -26 -85h21
q30 58 91 58q51 0 85.5 -35.5t34.5 -91.5t-36 -92.5t-91 -36.5q-53 0 -86.5 26t-40.5 73z" />
    <glyph glyph-name="uni2158" unicode="&#x2158;" horiz-adv-x="856" 
d="M215 310v113h-179v38l158 239h49v-251h65v-26h-65v-113h-28zM215 449v161q0 37 13 56l-17 10l-151 -227l15 -13q16 13 43 13h97zM152 0l493 700h34l-492 -700h-35zM542 93l29 14q5 -86 98 -86q44 0 70.5 28t26.5 74q0 47 -25.5 73.5t-71.5 26.5q-59 0 -87 -54l-32 6
l29 215h204v-27h-181l-12 -86q-7 -48 -26 -85h21q30 58 91 58q51 0 85.5 -35.5t34.5 -91.5t-36 -92.5t-91 -36.5q-53 0 -86.5 26t-40.5 73z" />
    <glyph glyph-name="uni2159" unicode="&#x2159;" horiz-adv-x="780" 
d="M151 310v257q0 46 17 91h-18q-32 -72 -104 -91v29q78 27 117 104h16v-390h-28zM74 0l493 700h34l-492 -700h-35zM467 184q0 97 45 154.5t120 57.5q38 0 75 -14v-31q-42 17 -73 17q-72 0 -110 -55.5t-40 -149.5h18q7 35 35.5 61.5t69.5 26.5q52 0 85.5 -36t33.5 -92
t-35 -92.5t-90 -36.5q-65 0 -99.5 49t-34.5 141zM697 123q0 46 -26.5 73.5t-69.5 27.5q-39 0 -67.5 -29.5t-28.5 -71.5q0 -43 28.5 -72.5t67.5 -29.5q43 0 69.5 28t26.5 74z" />
    <glyph glyph-name="uni215A" unicode="&#x215a;" horiz-adv-x="877" 
d="M50 403l29 14q5 -86 98 -86q44 0 70.5 28t26.5 74q0 47 -25.5 73.5t-71.5 26.5q-59 0 -87 -54l-32 6l29 215h204v-27h-181l-12 -86q-7 -48 -26 -85h21q30 58 91 58q51 0 85.5 -35.5t34.5 -91.5t-36 -92.5t-91 -36.5q-53 0 -86.5 26t-40.5 73zM171 0l493 700h34l-492 -700
h-35zM564 184q0 97 45 154.5t120 57.5q38 0 75 -14v-31q-42 17 -73 17q-72 0 -110 -55.5t-40 -149.5h18q7 35 35.5 61.5t69.5 26.5q52 0 85.5 -36t33.5 -92t-35 -92.5t-90 -36.5q-65 0 -99.5 49t-34.5 141zM794 123q0 46 -26.5 73.5t-69.5 27.5q-39 0 -67.5 -29.5
t-28.5 -71.5q0 -43 28.5 -72.5t67.5 -29.5q43 0 69.5 28t26.5 74z" />
    <glyph glyph-name="oneeighth" unicode="&#x215b;" horiz-adv-x="770" 
d="M151 310v257q0 46 17 91h-18q-32 -72 -104 -91v29q78 27 117 104h16v-390h-28zM74 0l493 700h34l-492 -700h-35zM464 101q0 38 24.5 63.5t62.5 31.5v17q-30 3 -52.5 26t-22.5 60q0 41 32.5 69t82.5 28q51 0 82.5 -28t31.5 -69q0 -36 -22 -58.5t-48 -27.5v-17
q37 -7 59.5 -32t22.5 -63q0 -44 -33 -75.5t-93 -31.5t-93.5 31.5t-33.5 75.5zM675 296q0 33 -23 53t-62 20q-38 0 -61 -20t-23 -53q0 -35 23 -56.5t61 -21.5q39 0 62 21.5t23 56.5zM687 103q0 39 -26.5 63t-70.5 24q-43 0 -69.5 -24t-26.5 -63q0 -38 26 -60t70 -22
q45 0 71 22t26 60z" />
    <glyph glyph-name="threeeighths" unicode="&#x215c;" horiz-adv-x="869" 
d="M51 425l28 9v-10q0 -42 26.5 -67.5t71.5 -25.5q41 0 67 23t26 60q0 38 -27 62t-71 24h-39v28h39q37 0 61.5 22t24.5 55t-23.5 53.5t-60.5 20.5q-38 0 -61 -23t-23 -61l1 -8l-28 10q-1 47 30.5 78t80.5 31t81 -28.5t32 -72.5q0 -31 -21.5 -53.5t-49.5 -27.5v-18
q33 -3 58 -29t25 -63q0 -49 -33.5 -79.5t-88.5 -30.5q-59 0 -93 32.5t-33 88.5zM173 0l493 700h34l-492 -700h-35zM563 101q0 38 24.5 63.5t62.5 31.5v17q-30 3 -52.5 26t-22.5 60q0 41 32.5 69t82.5 28q51 0 82.5 -28t31.5 -69q0 -36 -22 -58.5t-48 -27.5v-17
q37 -7 59.5 -32t22.5 -63q0 -44 -33 -75.5t-93 -31.5t-93.5 31.5t-33.5 75.5zM774 296q0 33 -23 53t-62 20q-38 0 -61 -20t-23 -53q0 -35 23 -56.5t61 -21.5q39 0 62 21.5t23 56.5zM786 103q0 39 -26.5 63t-70.5 24q-43 0 -69.5 -24t-26.5 -63q0 -38 26 -60t70 -22
q45 0 71 22t26 60z" />
    <glyph glyph-name="fiveeighths" unicode="&#x215d;" horiz-adv-x="867" 
d="M50 403l29 14q5 -86 98 -86q44 0 70.5 28t26.5 74q0 47 -25.5 73.5t-71.5 26.5q-59 0 -87 -54l-32 6l29 215h204v-27h-181l-12 -86q-7 -48 -26 -85h21q30 58 91 58q51 0 85.5 -35.5t34.5 -91.5t-36 -92.5t-91 -36.5q-53 0 -86.5 26t-40.5 73zM171 0l493 700h34l-492 -700
h-35zM561 101q0 38 24.5 63.5t62.5 31.5v17q-30 3 -52.5 26t-22.5 60q0 41 32.5 69t82.5 28q51 0 82.5 -28t31.5 -69q0 -36 -22 -58.5t-48 -27.5v-17q37 -7 59.5 -32t22.5 -63q0 -44 -33 -75.5t-93 -31.5t-93.5 31.5t-33.5 75.5zM772 296q0 33 -23 53t-62 20q-38 0 -61 -20
t-23 -53q0 -35 23 -56.5t61 -21.5q39 0 62 21.5t23 56.5zM784 103q0 39 -26.5 63t-70.5 24q-43 0 -69.5 -24t-26.5 -63q0 -38 26 -60t70 -22q45 0 71 22t26 60z" />
    <glyph glyph-name="seveneighths" unicode="&#x215e;" horiz-adv-x="777" 
d="M263 669l5 4l-11 16q-25 -16 -65 -16h-152v27h253v-21q-98 -87 -129.5 -169.5t-30.5 -199.5h-31q0 113 36.5 200.5t124.5 158.5zM81 0l493 700h34l-492 -700h-35zM471 101q0 38 24.5 63.5t62.5 31.5v17q-30 3 -52.5 26t-22.5 60q0 41 32.5 69t82.5 28q51 0 82.5 -28
t31.5 -69q0 -36 -22 -58.5t-48 -27.5v-17q37 -7 59.5 -32t22.5 -63q0 -44 -33 -75.5t-93 -31.5t-93.5 31.5t-33.5 75.5zM682 296q0 33 -23 53t-62 20q-38 0 -61 -20t-23 -53q0 -35 23 -56.5t61 -21.5q39 0 62 21.5t23 56.5zM694 103q0 39 -26.5 63t-70.5 24q-43 0 -69.5 -24
t-26.5 -63q0 -38 26 -60t70 -22q45 0 71 22t26 60z" />
    <glyph glyph-name="uni215F" unicode="&#x215f;" horiz-adv-x="300" 
d="M150 310v257q0 46 17 91h-18q-32 -72 -104 -91v29q78 27 117 104h16v-390h-28zM73 0l493 700h34l-492 -700h-35z" />
    <glyph glyph-name="arrowleft" unicode="&#x2190;" horiz-adv-x="845" 
d="M798 335h-701v-21q28 -8 70 -50l8 -8l141 -140l-21 -21l-249 255l249 255l21 -21l-141 -140l-8 -8q-42 -42 -70 -50v-21h701v-30z" />
    <glyph glyph-name="arrowup" unicode="&#x2191;" horiz-adv-x="572" 
d="M271 0v701h-21q-8 -28 -50 -70l-8 -8l-140 -141l-21 21l255 249l255 -249l-21 -21l-140 141l-8 7q-42 44 -50 71h-21v-701h-30z" />
    <glyph glyph-name="arrowright" unicode="&#x2192;" horiz-adv-x="846" 
d="M47 365h701v21q-29 9 -70 50l-8 8l-141 140l21 21l249 -255l-249 -255l-21 21l141 140l7 8q42 42 71 50v21h-701v30z" />
    <glyph glyph-name="arrowdown" unicode="&#x2193;" horiz-adv-x="572" 
d="M301 700v-701h21q8 28 50 70l8 8l140 141l21 -21l-255 -249l-255 249l21 21l140 -141l8 -7q42 -44 50 -71h21v701h30z" />
    <glyph glyph-name="uni2196" unicode="&#x2196;" horiz-adv-x="632" 
d="M595 205l-21 -21l-467 468l-15 -15q17 -31 17 -96v-199h-28v358h357v-28h-199q-69 0 -96 16l-15 -15z" />
    <glyph glyph-name="uni2197" unicode="&#x2197;" horiz-adv-x="635" 
d="M58 186l-21 21l468 467l-15 15q-31 -17 -96 -17h-199v28h358v-357h-28v199q0 69 16 96l-15 15z" />
    <glyph glyph-name="uni2198" unicode="&#x2198;" horiz-adv-x="627" 
d="M28 495l21 21l467 -468l15 15q-17 31 -17 96v199h28v-358h-357v28h199q67 0 96 -16l15 15z" />
    <glyph glyph-name="uni2199" unicode="&#x2199;" horiz-adv-x="630" 
d="M580 514l21 -21l-468 -467l15 -15q31 17 96 17h199v-28h-358v357h28v-199q0 -67 -16 -96l15 -15z" />
    <glyph glyph-name="uni21A4" unicode="&#x21a4;" horiz-adv-x="920" 
d="M771 566h28v-431h-28v200h-673v-21q28 -8 69 -49l9 -9l141 -140l-21 -21l-249 255l249 255l21 -21l-141 -140l-8 -8q-41 -41 -70 -50v-21h673v201z" />
    <glyph glyph-name="uni21A5" unicode="&#x21a5;" horiz-adv-x="584" 
d="M328 701h-21v-673h201v-28h-431v28h200v673h-21q-10 -31 -49 -70l-9 -8l-140 -141l-21 21l255 249l255 -249l-21 -21l-140 141l-8 7q-42 42 -50 71z" />
    <glyph glyph-name="uni21A6" unicode="&#x21a6;" horiz-adv-x="920" 
d="M624 605l249 -255l-249 -255l-21 21l141 140l7 8q42 42 71 50v21h-673v-201h-28v431h28v-200h673v21q-29 9 -70 50l-8 8l-141 140z" />
    <glyph glyph-name="uni21A7" unicode="&#x21a7;" horiz-adv-x="584" 
d="M526 218l21 -21l-255 -249l-255 249l21 21l140 -141l8 -7q41 -41 50 -70h21v672h-201v28h431v-28h-200v-672h21q8 28 49 69l9 8z" />
    <glyph glyph-name="uni21B0" unicode="&#x21b0;" horiz-adv-x="864" 
d="M85 365h701v-365h-28v335h-673v-21q28 -8 70 -50l8 -8l141 -140l-21 -21l-249 255l249 255l21 -21l-141 -140l-7 -8q-44 -42 -71 -50v-21z" />
    <glyph glyph-name="uni21B1" unicode="&#x21b1;" horiz-adv-x="864" 
d="M581 605l249 -255l-249 -255l-21 21l141 140l7 8q42 42 71 50v21h-673v-335h-28v365h701v21q-29 9 -70 50l-8 8l-141 140z" />
    <glyph glyph-name="uni21B2" unicode="&#x21b2;" horiz-adv-x="865" 
d="M758 700h28v-365h-702v-21q19 -5 33 -15.5t37 -34.5l9 -8l141 -140l-21 -21l-249 255l249 255l21 -21l-141 -140l-8 -8q-43 -43 -71 -50v-21h674v335z" />
    <glyph glyph-name="uni21B3" unicode="&#x21b3;" horiz-adv-x="865" 
d="M582 605l249 -255l-249 -255l-21 21l141 140l7 8q42 42 71 50v21h-701v365h28v-335h673v21q-29 9 -70 50l-8 8l-141 140z" />
    <glyph glyph-name="partialdiff" unicode="&#x2202;" horiz-adv-x="583" 
d="M58 220q0 95 57 158.5t163 63.5q76 0 127 -45.5t63 -105.5h26q-2 177 -77 285t-223 108q-48 0 -99 -13v29q36 12 103 12q118 0 189 -60q71 -61 98 -147q28 -84 28 -176q0 -185 -66 -263q-65 -78 -169 -78q-106 0 -163 67.5t-57 164.5zM466 216q0 88 -54 143t-134 55
q-82 0 -134.5 -52.5t-52.5 -145.5t52.5 -146.5t134.5 -53.5q80 0 134 56t54 144z" />
    <glyph glyph-name="Delta" unicode="&#x2206;" horiz-adv-x="633" 
d="M335 700l266 -700h-569l263 700h40zM76 28h480l-213 570q-15 37 -15 82h-26q-1 -43 -17 -86z" />
    <glyph glyph-name="product" unicode="&#x220f;" horiz-adv-x="650" 
d="M611 700v-29h-102v-782h-30v782h-309v-782h-30v782h-101v29h572z" />
    <glyph glyph-name="summation" unicode="&#x2211;" horiz-adv-x="512" 
d="M41 -112v36l283 370l-283 370v36h431v-27h-269h-22q-47 0 -60.5 2t-32.5 14l-17 -19l12 -15l277 -361l-271 -354l-17 -22l17 -19q21 13 34.5 14.5t80.5 1.5h268v-27h-431z" />
    <glyph glyph-name="minus" unicode="&#x2212;" horiz-adv-x="699" 
d="M87 338v28h525v-28h-525z" />
    <glyph glyph-name="uni2215" unicode="&#x2215;" horiz-adv-x="321" 
d="M8 -111l277 922h30l-277 -922h-30z" />
    <glyph glyph-name="radical" unicode="&#x221a;" horiz-adv-x="615" 
d="M291 -111l-165 462h-108v28h129l103 -288l12 -32q33 -88 39 -149h22q6 64 36 148l11 31l205 611h31l-274 -811h-41z" />
    <glyph glyph-name="infinity" unicode="&#x221e;" horiz-adv-x="860" 
d="M69 356q0 75 48.5 126t119.5 51q60 0 104.5 -34t77.5 -124h22q31 87 76 122.5t106 35.5q70 0 119 -51t49 -126t-49 -126t-119 -51q-60 0 -105.5 34.5t-76.5 123.5h-22q-32 -89 -77 -123.5t-105 -34.5q-71 0 -119.5 51t-48.5 126zM413 356q-42 79 -79 114t-93 35
q-64 0 -103.5 -44t-39.5 -105t39.5 -105t103.5 -44q56 0 93 35t79 114zM762 356q0 61 -39.5 105t-103.5 44q-56 0 -93 -35t-79 -114q42 -79 79 -114t93 -35q64 0 103.5 44t39.5 105z" />
    <glyph glyph-name="integral" unicode="&#x222b;" horiz-adv-x="364" 
d="M0 -196v28h90q76 0 76 80v671q0 53 27 85t84 32h85v-28h-100q-29 0 -47.5 -24t-18.5 -64v-663q0 -53 -27 -85t-84 -32h-85z" />
    <glyph glyph-name="approxequal" unicode="&#x2248;" horiz-adv-x="648" 
d="M334 461l-30 13q-57 25 -89 25q-52 0 -104 -57l-21 22q57 64 128 64q37 0 100 -27l30 -13q54 -25 89 -25q53 0 104 57l21 -21q-58 -65 -128 -65q-37 0 -100 27zM334 241l-30 13q-57 25 -89 25q-52 0 -104 -57l-21 22q57 64 128 64q37 0 100 -27l30 -13q54 -25 89 -25
q53 0 104 57l21 -21q-58 -65 -128 -65q-37 0 -100 27z" />
    <glyph glyph-name="notequal" unicode="&#x2260;" horiz-adv-x="714" 
d="M170 73l107 171h-190v28h208l55 88q31 48 67 71l-13 22q-28 -17 -61 -17h-256v28h329l95 152h34l-95 -152h177v-28h-194l-55 -88q-31 -48 -67 -71l13 -22q28 17 61 17h242v-28h-314l-107 -171h-36z" />
    <glyph glyph-name="lessequal" unicode="&#x2264;" horiz-adv-x="711" 
d="M620 165l-539 209v34l539 213v-32l-417 -162q-54 -21 -102 -21v-26q41 0 99 -23l420 -160v-32zM81 83v29h539v-29h-539z" />
    <glyph glyph-name="greaterequal" unicode="&#x2265;" horiz-adv-x="711" 
d="M91 165v32l420 160q52 23 99 23v26q-48 0 -102 21l-417 162v32l539 -213v-34zM91 83v29h539v-29h-539z" />
    <glyph glyph-name="angleleft" unicode="&#x2329;" horiz-adv-x="311" 
d="M281 753l-213 -449l211 -452l-27 -12l-215 463l216 462z" />
    <glyph glyph-name="angleright" unicode="&#x232a;" horiz-adv-x="310" 
d="M59 765l215 -463l-216 -462l-28 12l213 449l-211 452z" />
    <glyph glyph-name="uni2460" unicode="&#x2460;" horiz-adv-x="894" 
d="M61 348q-1 104 50 195.5t142 145.5t196 52q105 2 195 -52t140.5 -145.5t48.5 -195.5q2 -160 -110.5 -276t-273.5 -113q-161 -3 -275.5 113t-112.5 276zM803 348q2 150 -102 259t-253 106q-149 3 -254 -106t-103 -259q-2 -149 102.5 -256t254.5 -105q150 -2 253.5 104.5
t101.5 256.5zM451 155v257q0 44 17 91h-18q-32 -72 -104 -91v29q78 27 117 104h16v-390h-28z" />
    <glyph glyph-name="uni2461" unicode="&#x2461;" horiz-adv-x="894" 
d="M61 348q-1 104 50 195.5t142 145.5t196 52q105 2 195 -52t140.5 -145.5t48.5 -195.5q2 -160 -110.5 -276t-273.5 -113q-161 -3 -275.5 113t-112.5 276zM803 348q2 150 -102 259t-253 106q-149 3 -254 -106t-103 -259q-2 -149 102.5 -256t254.5 -105q150 -2 253.5 104.5
t101.5 256.5zM330 155v26q64 46 102 79q100 86 100 171q0 43 -24 68t-65 25q-35 0 -61 -21.5t-26 -66.5q0 -7 2 -21l-29 8v15q0 50 31.5 81.5t82.5 31.5q53 0 85.5 -32.5t32.5 -85.5q0 -52 -31 -101q-53 -80 -174 -149l9 -16l7 3q6 3 14 5.5t23 5t32 1.5h128v-27h-239z" />
    <glyph glyph-name="uni2462" unicode="&#x2462;" horiz-adv-x="894" 
d="M61 348q-1 104 50 195.5t142 145.5t196 52q105 2 195 -52t140.5 -145.5t48.5 -195.5q2 -160 -110.5 -276t-273.5 -113q-161 -3 -275.5 113t-112.5 276zM803 348q2 150 -102 259t-253 106q-149 3 -254 -106t-103 -259q-2 -149 102.5 -256t254.5 -105q150 -2 253.5 104.5
t101.5 256.5zM317 270l28 9v-10q0 -42 26.5 -67.5t71.5 -25.5q41 0 67 23t26 60q0 38 -27 62t-71 24h-39v28h39q37 0 61.5 22t24.5 55t-23 53.5t-61 20.5t-61 -23t-23 -61l1 -8l-28 10q-2 46 30 77.5t81 31.5t81 -28.5t32 -72.5q0 -31 -21.5 -53.5t-49.5 -27.5v-18
q34 -3 58.5 -29t24.5 -63q0 -50 -33.5 -80t-88.5 -30q-59 0 -93 32.5t-33 88.5z" />
    <glyph glyph-name="uni2463" unicode="&#x2463;" horiz-adv-x="894" 
d="M61 348q-1 104 50 195.5t142 145.5t196 52q105 2 195 -52t140.5 -145.5t48.5 -195.5q2 -160 -110.5 -276t-273.5 -113q-161 -3 -275.5 113t-112.5 276zM803 348q2 150 -102 259t-253 106q-149 3 -254 -106t-103 -259q-2 -149 102.5 -256t254.5 -105q150 -2 253.5 104.5
t101.5 256.5zM475 155v113h-179v38l158 239h49v-251h65v-26h-65v-113h-28zM475 294v161q0 37 13 56l-17 10l-151 -227l15 -13q13 13 43 13h97z" />
    <glyph glyph-name="uni2464" unicode="&#x2464;" horiz-adv-x="894" 
d="M61 348q-1 104 50 195.5t142 145.5t196 52q105 2 195 -52t140.5 -145.5t48.5 -195.5q2 -160 -110.5 -276t-273.5 -113q-161 -3 -275.5 113t-112.5 276zM803 348q2 150 -102 259t-253 106q-149 3 -254 -106t-103 -259q-2 -149 102.5 -256t254.5 -105q150 -2 253.5 104.5
t101.5 256.5zM320 248l29 14q5 -86 98 -86q44 0 70.5 28t26.5 74q0 47 -25.5 73.5t-71.5 26.5q-59 0 -87 -54l-32 6l29 215h204v-27h-181l-12 -86q-7 -50 -26 -85h21q30 58 91 58q50 0 85 -36t35 -91q0 -57 -35.5 -93t-91.5 -36q-53 0 -86.5 26t-40.5 73z" />
    <glyph glyph-name="uni2465" unicode="&#x2465;" horiz-adv-x="894" 
d="M61 348q-1 104 50 195.5t142 145.5t196 52q105 2 195 -52t140.5 -145.5t48.5 -195.5q2 -160 -110.5 -276t-273.5 -113q-161 -3 -275.5 113t-112.5 276zM803 348q2 150 -102 259t-253 106q-149 3 -254 -106t-103 -259q-2 -149 102.5 -256t254.5 -105q150 -2 253.5 104.5
t101.5 256.5zM305 339q0 97 45 154.5t120 57.5q38 0 75 -14v-31q-42 17 -73 17q-72 0 -110 -56t-40 -149h18q7 34 35.5 61t69.5 27q52 0 85.5 -36.5t33.5 -91.5q0 -56 -35 -92.5t-90 -36.5q-65 0 -99.5 49t-34.5 141zM535 278q0 46 -26.5 73.5t-69.5 27.5q-39 0 -67.5 -29.5
t-28.5 -71.5q0 -43 28.5 -72.5t67.5 -29.5q43 0 69.5 28t26.5 74z" />
    <glyph glyph-name="uni2466" unicode="&#x2466;" horiz-adv-x="894" 
d="M61 348q-1 104 50 195.5t142 145.5t196 52q105 2 195 -52t140.5 -145.5t48.5 -195.5q2 -160 -110.5 -276t-273.5 -113q-161 -3 -275.5 113t-112.5 276zM803 348q2 150 -102 259t-253 106q-149 3 -254 -106t-103 -259q-2 -149 102.5 -256t254.5 -105q150 -2 253.5 104.5
t101.5 256.5zM557 514l5 4l-11 16q-25 -16 -65 -16h-152v27h253v-21q-71 -61 -104 -121q-58 -98 -56 -248h-31q0 113 36.5 200.5t124.5 158.5z" />
    <glyph glyph-name="uni2467" unicode="&#x2467;" horiz-adv-x="894" 
d="M61 348q-1 104 50 195.5t142 145.5t196 52q105 2 195 -52t140.5 -145.5t48.5 -195.5q2 -160 -110.5 -276t-273.5 -113q-161 -3 -275.5 113t-112.5 276zM803 348q2 150 -102 259t-253 106q-149 3 -254 -106t-103 -259q-2 -149 102.5 -256t254.5 -105q150 -2 253.5 104.5
t101.5 256.5zM321 256q0 38 24.5 63.5t62.5 31.5v17q-30 3 -52.5 26t-22.5 60q0 40 32.5 68.5t82.5 28.5q51 0 82.5 -28t31.5 -69q0 -36 -21.5 -58.5t-48.5 -27.5v-17q38 -9 60 -33t22 -62q0 -44 -33 -75.5t-93 -31.5q-59 0 -93 32t-34 75zM532 451q0 33 -23 53t-62 20
q-38 0 -61 -20t-23 -53q0 -35 23 -56.5t61 -21.5q39 0 62 21.5t23 56.5zM544 258q0 39 -26.5 63t-70.5 24q-43 0 -69.5 -24t-26.5 -63q0 -38 26 -60t70 -22q45 0 71 22t26 60z" />
    <glyph glyph-name="uni2468" unicode="&#x2468;" horiz-adv-x="894" 
d="M61 348q-1 104 50 195.5t142 145.5t196 52q105 2 195 -52t140.5 -145.5t48.5 -195.5q2 -160 -110.5 -276t-273.5 -113q-161 -3 -275.5 113t-112.5 276zM803 348q2 150 -102 259t-253 106q-149 3 -254 -106t-103 -259q-2 -149 102.5 -256t254.5 -105q150 -2 253.5 104.5
t101.5 256.5zM347 174v31q39 -29 90 -29q93 0 126 119q9 36 10 76h-18q-12 -39 -42 -59.5t-60 -20.5q-59 0 -93.5 34.5t-34.5 93.5t35.5 95.5t92.5 36.5q53 0 88 -32q49 -44 49 -153q0 -100 -41.5 -158.5t-111.5 -58.5q-55 0 -90 25zM554 421q0 45 -28.5 74t-72.5 29
q-45 0 -72 -28t-27 -75q0 -48 26.5 -75.5t72.5 -27.5q44 0 72.5 29t28.5 74z" />
    <glyph glyph-name="uni24EA" unicode="&#x24ea;" horiz-adv-x="894" 
d="M61 348q-1 104 50 195.5t142 145.5t196 52q105 2 195 -52t140.5 -145.5t48.5 -195.5q2 -160 -110.5 -276t-273.5 -113q-161 -3 -275.5 113t-112.5 276zM803 348q2 150 -102 259t-253 106q-149 3 -254 -106t-103 -259q-2 -149 102.5 -256t254.5 -105q150 -2 253.5 104.5
t101.5 256.5zM294 354q0 87 43 142t111 55t109.5 -54.5t41.5 -142.5q0 -93 -41.5 -149t-109.5 -56q-70 0 -112 56t-42 149zM569 354q0 77 -33 123.5t-88 46.5q-57 0 -91 -46.5t-34 -123.5q0 -81 34.5 -129.5t90.5 -48.5q55 0 88 48.5t33 129.5z" />
    <glyph glyph-name="uni24FF" unicode="&#x24ff;" horiz-adv-x="894" 
d="M833 348q2 -160 -110.5 -276t-273.5 -113q-161 -3 -275.5 113t-112.5 276q-1 104 50 195.5t142 145.5t196 52q105 2 195 -52t140.5 -145.5t48.5 -195.5zM294 354q0 -93 42 -149t112 -56q68 0 109.5 56t41.5 149q0 88 -41.5 142.5t-109.5 54.5t-111 -55t-43 -142zM569 354
q0 -81 -33 -129.5t-88 -48.5q-56 0 -90.5 48.5t-34.5 129.5q0 77 34 123.5t91 46.5q55 0 88 -46.5t33 -123.5z" />
    <glyph glyph-name="lozenge" unicode="&#x25ca;" horiz-adv-x="578" 
d="M275 0l-229 351l229 349h28l229 -353l-229 -347h-28zM496 347l-147 230q-45 68 -48 99h-22q-5 -27 -39 -81l-12 -18l-146 -226l147 -231q6 -11 14 -21q34 -53 37 -78h22q5 32 48 99z" />
    <glyph glyph-name="uni274C" unicode="&#x274c;" horiz-adv-x="765" 
d="M54 -12l-20 20l329 342l-329 342l20 20l329 -342l329 342l19 -20l-329 -342l329 -342l-19 -20l-329 342z" />
    <glyph glyph-name="uni2776" unicode="&#x2776;" horiz-adv-x="894" 
d="M833 348q2 -160 -110.5 -276t-273.5 -113q-161 -3 -275.5 113t-112.5 276q-1 104 50 195.5t142 145.5t196 52q105 2 195 -52t140.5 -145.5t48.5 -195.5zM451 412v-257h28v390h-16q-39 -77 -117 -104v-29q72 19 104 91h18q-17 -47 -17 -91z" />
    <glyph glyph-name="uni2777" unicode="&#x2777;" horiz-adv-x="894" 
d="M833 348q2 -160 -110.5 -276t-273.5 -113q-161 -3 -275.5 113t-112.5 276q-1 104 50 195.5t142 145.5t196 52q105 2 195 -52t140.5 -145.5t48.5 -195.5zM330 181v-26h239v27h-128q-17 1 -32 -1.5t-23 -5t-14 -5.5l-7 -3l-9 16q121 69 174 149q31 49 31 101
q0 53 -32.5 85.5t-85.5 32.5q-51 0 -82.5 -31.5t-31.5 -81.5v-15l29 -8q-2 14 -2 21q0 45 26 66.5t61 21.5q41 0 65 -25t24 -68q0 -85 -100 -171q-38 -33 -102 -79z" />
    <glyph glyph-name="uni2778" unicode="&#x2778;" horiz-adv-x="894" 
d="M833 348q2 -160 -110.5 -276t-273.5 -113q-161 -3 -275.5 113t-112.5 276q-1 104 50 195.5t142 145.5t196 52q105 2 195 -52t140.5 -145.5t48.5 -195.5zM317 270q-1 -56 33 -88.5t93 -32.5q55 0 88.5 30t33.5 80q0 37 -24.5 63t-58.5 29v18q28 5 49.5 27.5t21.5 53.5
q0 44 -32 72.5t-81 28.5t-81 -31.5t-30 -77.5l28 -10l-1 8q0 38 23 61t61 23t61 -20.5t23 -53.5t-24.5 -55t-61.5 -22h-39v-28h39q44 0 71 -24t27 -62q0 -37 -26 -60t-67 -23q-45 0 -71.5 25.5t-26.5 67.5v10z" />
    <glyph glyph-name="uni2779" unicode="&#x2779;" horiz-adv-x="894" 
d="M833 348q2 -160 -110.5 -276t-273.5 -113q-161 -3 -275.5 113t-112.5 276q-1 104 50 195.5t142 145.5t196 52q105 2 195 -52t140.5 -145.5t48.5 -195.5zM475 268v-113h28v113h65v26h-65v251h-49l-158 -239v-38h179zM475 455v-161h-97q-30 0 -43 -13l-15 13l151 227
l17 -10q-13 -19 -13 -56z" />
    <glyph glyph-name="uni277A" unicode="&#x277a;" horiz-adv-x="894" 
d="M833 348q2 -160 -110.5 -276t-273.5 -113q-161 -3 -275.5 113t-112.5 276q-1 104 50 195.5t142 145.5t196 52q105 2 195 -52t140.5 -145.5t48.5 -195.5zM320 248q7 -47 40.5 -73t86.5 -26q56 0 91.5 36t35.5 93q0 55 -35 91t-85 36q-61 0 -91 -58h-21q19 35 26 85l12 86
h181v27h-204l-29 -215l32 -6q28 54 87 54q46 0 71.5 -26.5t25.5 -73.5q0 -46 -26.5 -74t-70.5 -28q-93 0 -98 86z" />
    <glyph glyph-name="uni277B" unicode="&#x277b;" horiz-adv-x="894" 
d="M833 348q2 -160 -110.5 -276t-273.5 -113q-161 -3 -275.5 113t-112.5 276q-1 104 50 195.5t142 145.5t196 52q105 2 195 -52t140.5 -145.5t48.5 -195.5zM305 339q0 -92 34.5 -141t99.5 -49q55 0 90 36.5t35 92.5q0 55 -33.5 91.5t-85.5 36.5q-41 0 -69.5 -27t-35.5 -61
h-18q2 93 40 149t110 56q31 0 73 -17v31q-37 14 -75 14q-75 0 -120 -57.5t-45 -154.5zM535 278q0 -46 -26.5 -74t-69.5 -28q-39 0 -67.5 29.5t-28.5 72.5q0 42 28.5 71.5t67.5 29.5q43 0 69.5 -27.5t26.5 -73.5z" />
    <glyph glyph-name="uni277C" unicode="&#x277c;" horiz-adv-x="894" 
d="M833 348q2 -160 -110.5 -276t-273.5 -113q-161 -3 -275.5 113t-112.5 276q-1 104 50 195.5t142 145.5t196 52q105 2 195 -52t140.5 -145.5t48.5 -195.5zM557 514q-88 -71 -124.5 -158.5t-36.5 -200.5h31q-2 150 56 248q33 60 104 121v21h-253v-27h152q40 0 65 16l11 -16z
" />
    <glyph glyph-name="uni277D" unicode="&#x277d;" horiz-adv-x="894" 
d="M833 348q2 -160 -110.5 -276t-273.5 -113q-161 -3 -275.5 113t-112.5 276q-1 104 50 195.5t142 145.5t196 52q105 2 195 -52t140.5 -145.5t48.5 -195.5zM321 256q0 -43 34 -75t93 -32q60 0 93 31.5t33 75.5q0 38 -22 62t-60 33v17q27 5 48.5 27.5t21.5 58.5
q0 41 -31.5 69t-82.5 28q-50 0 -82.5 -28.5t-32.5 -68.5q0 -37 22.5 -60t52.5 -26v-17q-38 -6 -62.5 -31.5t-24.5 -63.5zM532 451q0 -35 -23 -56.5t-62 -21.5q-38 0 -61 21.5t-23 56.5q0 33 23 53t61 20q39 0 62 -20t23 -53zM544 258q0 -38 -26 -60t-71 -22q-44 0 -70 22
t-26 60q0 39 26.5 63t69.5 24q44 0 70.5 -24t26.5 -63z" />
    <glyph glyph-name="uni277E" unicode="&#x277e;" horiz-adv-x="894" 
d="M833 348q2 -160 -110.5 -276t-273.5 -113q-161 -3 -275.5 113t-112.5 276q-1 104 50 195.5t142 145.5t196 52q105 2 195 -52t140.5 -145.5t48.5 -195.5zM347 174q35 -25 90 -25q70 0 111.5 58.5t41.5 158.5q0 109 -49 153q-35 32 -88 32q-57 0 -92.5 -36.5t-35.5 -95.5
t34.5 -93.5t93.5 -34.5q30 0 60 20.5t42 59.5h18q-1 -40 -10 -76q-33 -119 -126 -119q-51 0 -90 29v-31zM554 421q0 -45 -28.5 -74t-72.5 -29q-46 0 -72.5 27.5t-26.5 75.5q0 47 27 75t72 28q44 0 72.5 -29t28.5 -74z" />
    <glyph glyph-name="uni300A" unicode="&#x300a;" horiz-adv-x="469" 
d="M281 753l-213 -450l211 -451l-27 -12l-215 462l216 463zM439 753l-213 -450l211 -451l-27 -12l-215 462l216 463z" />
    <glyph glyph-name="uni300B" unicode="&#x300b;" horiz-adv-x="468" 
d="M59 765l215 -462l-216 -463l-28 12l213 450l-211 451zM217 765l215 -462l-216 -463l-28 12l213 450l-211 451z" />
    <glyph glyph-name="uni300C" unicode="&#x300c;" horiz-adv-x="319" 
d="M90 319v436h211v-28h-181v-408h-30z" />
    <glyph glyph-name="uni300D" unicode="&#x300d;" horiz-adv-x="204" 
d="M117 286v-436h-211v28h181v408h30z" />
    <glyph glyph-name="uni300E" unicode="&#x300e;" horiz-adv-x="403" 
d="M90 250v505h273v-123h-157v-382h-116zM120 278h56v382h157v67h-213v-449z" />
    <glyph glyph-name="uni300F" unicode="&#x300f;" horiz-adv-x="403" 
d="M310 355v-505h-273v123h157v382h116zM280 327h-56v-382h-157v-67h213v449z" />
    <glyph glyph-name="uni3010" unicode="&#x3010;" horiz-adv-x="343" 
d="M115 -150v905h210q-94 -111 -138 -220t-44 -235t41.5 -229.5t140.5 -220.5h-210z" />
    <glyph glyph-name="uni3011" unicode="&#x3011;" horiz-adv-x="342" 
d="M227 756v-905h-210q94 111 138 220t44 235t-41.5 229.5t-140.5 220.5h210z" />
    <glyph glyph-name="uni3014" unicode="&#x3014;" horiz-adv-x="268" 
d="M111 601v-598l129 -141l-21 -22l-138 155v614l138 156l22 -21z" />
    <glyph glyph-name="uni3015" unicode="&#x3015;" horiz-adv-x="269" 
d="M50 765l138 -155v-614l-138 -156l-22 21l130 143v598l-129 141z" />
    <glyph glyph-name="uniE000" unicode="&#xe000;" horiz-adv-x="774" 
d="M373 0v336h-336v28h336v336h28v-336h336v-28h-336v-336h-28z" />
    <glyph glyph-name="uniE001" unicode="&#xe001;" horiz-adv-x="874" 
d="M87 336v28h700v-28h-700z" />
    <glyph glyph-name="uniE002" unicode="&#xe002;" horiz-adv-x="773" 
d="M58 -12l-20 20l329 342l-329 342l20 20l329 -342l329 342l19 -20l-329 -342l329 -342l-19 -20l-329 342z" />
    <glyph glyph-name="uniE003" unicode="&#xe003;" horiz-adv-x="940" 
d="M382 -15l-302 430l23 20l280 -402l464 649l24 -18z" />
    <glyph glyph-name="uniE004" unicode="&#xe004;" horiz-adv-x="960" 
d="M93 633v30h774v-30h-774zM93 341v28h774v-28h-774zM93 47v30h774v-30h-774z" />
    <glyph glyph-name="uniE005" unicode="&#xe005;" horiz-adv-x="940" 
d="M120 0v700h700v-700h-700zM151 28h638v644h-638v-644z" />
    <glyph glyph-name="uniE006" unicode="&#xe006;" horiz-adv-x="940" 
d="M472 160l-180 292l25 17l81 -132q59 -95 64 -142h21q6 47 71 142l252 380l24 -17zM120 0v700h461v-28h-430v-644h638v296h31v-324h-700z" />
    <glyph glyph-name="uniE007" unicode="&#xe007;" horiz-adv-x="940" 
d="M120 0v700h700v-700h-700zM151 28h638v644h-638v-644zM445 308v84h50v-84h-50z" />
    <glyph glyph-name="uniE008" unicode="&#xe008;" horiz-adv-x="762" 
d="M377 29l-237 226l22 22l122 -122l10 -10q38 -35 48 -66h21v605h30v-605h21q8 29 58 77l124 121l20 -22zM31 0v29h700v-29h-700z" />
    <glyph glyph-name="uniE009" unicode="&#xe009;" horiz-adv-x="762" 
d="M377 158l-237 226l22 22l122 -122l11 -11q38 -36 47 -65h21v605h30v-605h21q9 31 58 77l124 121l20 -22zM31 0v29h700v-29h-700z" />
    <glyph glyph-name="uniF8FF" unicode="&#xf8ff;" horiz-adv-x="766" 
d="M623 97l-24 -10q23 -43 37 -91l-12 -9q-33 6 -52 31.5t-32 73.5l-6 44q-4 42 -9 56l-26 -5q8 -46 8 -66q0 -24 -8 -40q-37 34 -53.5 64t-40.5 99q-4 10 -7.5 21.5t-6 18t-3.5 9.5q-39 104 -62 132q-23 31 -75 56q-32 17 -47 28q-30 21 -59 62l51 42l-26 27q-17 -4 -31 -4
q-65 0 -65 41q0 13 10 22t28 9q28 0 50 -34l19 16q-31 27 -31 43q0 13 9.5 21.5t24.5 8.5q39 0 39 -52q0 -24 -17 -44l24 -25l38 32q104 -39 195 -249q65 -40 117.5 -110t81.5 -157q22 -76 27 -138l-28 -4q-7 24 -19 46q-17 32 -19 35z" />
    <glyph glyph-name="Ccedilla.ss04" horiz-adv-x="727" 
d="M399 -12l-11 -12q-18 -16 -39 -24l13 -18q27 11 46 11q30 0 48 -17t18 -46q0 -34 -25 -54t-66 -20q-57 0 -96 42l19 21q30 -36 75 -36q63 0 63 48q0 20 -17 32t-41 12q-20 0 -44 -8l-16 20l43 49q-141 7 -221 112t-80 264q0 157 85.5 252.5t233.5 95.5q63 1 116.5 -19.5
t87 -52.5t54 -64t28.5 -62l-30 -12q-19 69 -86 125.5t-170 56.5q-135 0 -211 -86.5t-76 -233.5q0 -151 77.5 -249.5t209.5 -98.5q195 0 262 193l30 -12q-31 -84 -96 -145t-184 -64z" />
    <glyph glyph-name="G.ss03" horiz-adv-x="769" 
d="M67 358q0 156 92.5 255t242.5 99q69 1 126 -20t92 -54.5t55.5 -67.5t29.5 -67l-28 -11q-19 74 -89 133t-186 59q-138 0 -220.5 -89t-82.5 -236q0 -153 78 -248t219 -95q125 0 198.5 76.5t75.5 203.5h-272v28h302q1 -5 1 -22q0 -143 -83.5 -228.5t-221.5 -85.5
q-156 0 -242.5 102t-86.5 268z" />
    <glyph glyph-name="Gbreve.ss03" horiz-adv-x="769" 
d="M67 358q0 156 92.5 255t242.5 99q69 1 126 -20t92 -54.5t55.5 -67.5t29.5 -67l-28 -11q-19 74 -89 133t-186 59q-138 0 -220.5 -89t-82.5 -236q0 -153 78 -248t219 -95q125 0 198.5 76.5t75.5 203.5h-272v28h302q1 -5 1 -22q0 -143 -83.5 -228.5t-221.5 -85.5
q-156 0 -242.5 102t-86.5 268zM268 898h27q5 -44 33 -66.5t71 -22.5q42 0 69.5 22.5t33.5 66.5h27q-4 -54 -38.5 -85.5t-91.5 -31.5q-59 0 -93 31.5t-38 85.5z" />
    <glyph glyph-name="Gcircumflex.ss03" horiz-adv-x="769" 
d="M67 358q0 156 92.5 255t242.5 99q69 1 126 -20t92 -54.5t55.5 -67.5t29.5 -67l-28 -11q-19 74 -89 133t-186 59q-138 0 -220.5 -89t-82.5 -236q0 -153 78 -248t219 -95q125 0 198.5 76.5t75.5 203.5h-272v28h302q1 -5 1 -22q0 -143 -83.5 -228.5t-221.5 -85.5
q-156 0 -242.5 102t-86.5 268zM263 786l111 114h53l112 -114h-32l-106 92l-107 -92h-31z" />
    <glyph glyph-name="uni0122.ss03" horiz-adv-x="769" 
d="M67 358q0 156 92.5 255t242.5 99q69 1 126 -20t92 -54.5t55.5 -67.5t29.5 -67l-28 -11q-19 74 -89 133t-186 59q-138 0 -220.5 -89t-82.5 -236q0 -153 78 -248t219 -95q125 0 198.5 76.5t75.5 203.5h-272v28h302q1 -5 1 -22q0 -143 -83.5 -228.5t-221.5 -85.5
q-156 0 -242.5 102t-86.5 268zM375 -269l46 91h-23v71h43v-71l-44 -91h-22z" />
    <glyph glyph-name="Gdotaccent.ss03" horiz-adv-x="769" 
d="M67 358q0 156 92.5 255t242.5 99q69 1 126 -20t92 -54.5t55.5 -67.5t29.5 -67l-28 -11q-19 74 -89 133t-186 59q-138 0 -220.5 -89t-82.5 -236q0 -153 78 -248t219 -95q125 0 198.5 76.5t75.5 203.5h-272v28h302q1 -5 1 -22q0 -143 -83.5 -228.5t-221.5 -85.5
q-156 0 -242.5 102t-86.5 268zM385 786v88h30v-88h-30z" />
    <glyph glyph-name="Scedilla.ss04" horiz-adv-x="598" 
d="M320 -12l-12 -12q-18 -16 -39 -24l13 -18q27 11 46 11q28 0 47 -17t19 -46q0 -34 -25 -54t-66 -20q-57 0 -96 42l19 21q30 -36 75 -36q63 0 63 48q0 20 -17 32t-41 12q-20 0 -44 -8l-16 20l43 49q-175 5 -237 165l30 15q21 -68 81 -109.5t134 -41.5q92 0 149 43t57 113
q0 116 -153 162l-108 32q-160 48 -160 171q0 81 60.5 127.5t151.5 46.5q95 0 151.5 -43.5t76.5 -98.5l-27 -15q-20 51 -69 90t-132 39q-78 0 -130 -39.5t-52 -104.5q0 -54 37.5 -89t120.5 -60l97 -29q168 -50 168 -188q0 -80 -57 -130t-158 -56z" />
    <glyph glyph-name="uni0162.ss04" horiz-adv-x="608" 
d="M310 0l-23 -24q-18 -16 -39 -24l13 -18q27 11 46 11q28 0 47 -17t19 -46q0 -34 -24.5 -54t-66.5 -20q-57 0 -96 42l19 21q30 -36 75 -36q63 0 63 48q0 20 -17 32t-41 12q-20 0 -44 -8l-16 20l55 62v671h-264v28h576v-28h-282v-672z" />
    <glyph glyph-name="a.salt" horiz-adv-x="568" 
d="M62 245q0 126 59 191.5t144 65.5q67 0 109 -33.5t57 -88.5h18q-8 32 -9 50q-1 13 -1 60h29v-490h-28q0 52 1 65q2 21 9 49h-18q-13 -53 -57.5 -89.5t-109.5 -36.5q-84 0 -143.5 66t-59.5 191zM441 245q0 111 -49.5 170t-126.5 59q-74 0 -123 -60t-49 -169
q0 -111 48.5 -170t123.5 -59q77 0 126.5 59t49.5 170z" />
    <glyph glyph-name="aacute.salt" horiz-adv-x="568" 
d="M62 245q0 126 59 191.5t144 65.5q67 0 109 -33.5t57 -88.5h18q-8 32 -9 50q-1 13 -1 60h29v-490h-28q0 52 1 65q2 21 9 49h-18q-13 -53 -57.5 -89.5t-109.5 -36.5q-84 0 -143.5 66t-59.5 191zM441 245q0 111 -49.5 170t-126.5 59q-74 0 -123 -60t-49 -169
q0 -111 48.5 -170t123.5 -59q77 0 126.5 59t49.5 170zM263 566l79 114h45l-99 -114h-25z" />
    <glyph glyph-name="abreve.salt" horiz-adv-x="568" 
d="M62 245q0 126 59 191.5t144 65.5q67 0 109 -33.5t57 -88.5h18q-8 32 -9 50q-1 13 -1 60h29v-490h-28q0 52 1 65q2 21 9 49h-18q-13 -53 -57.5 -89.5t-109.5 -36.5q-84 0 -143.5 66t-59.5 191zM441 245q0 111 -49.5 170t-126.5 59q-74 0 -123 -60t-49 -169
q0 -111 48.5 -170t123.5 -59q77 0 126.5 59t49.5 170zM156 680h25q5 -44 30 -66.5t64 -22.5t64 22.5t30 66.5h25q-4 -54 -35 -85.5t-84 -31.5t-84 31.5t-35 85.5z" />
    <glyph glyph-name="acircumflex.salt" horiz-adv-x="568" 
d="M62 245q0 126 59 191.5t144 65.5q67 0 109 -33.5t57 -88.5h18q-8 32 -9 50q-1 13 -1 60h29v-490h-28q0 52 1 65q2 21 9 49h-18q-13 -53 -57.5 -89.5t-109.5 -36.5q-84 0 -143.5 66t-59.5 191zM441 245q0 111 -49.5 170t-126.5 59q-74 0 -123 -60t-49 -169
q0 -111 48.5 -170t123.5 -59q77 0 126.5 59t49.5 170zM149 566l102 114h47l102 -114h-29l-96 92l-97 -92h-29z" />
    <glyph glyph-name="adieresis.salt" horiz-adv-x="568" 
d="M62 245q0 126 59 191.5t144 65.5q67 0 109 -33.5t57 -88.5h18q-8 32 -9 50q-1 13 -1 60h29v-490h-28q0 52 1 65q2 21 9 49h-18q-13 -53 -57.5 -89.5t-109.5 -36.5q-84 0 -143.5 66t-59.5 191zM441 245q0 111 -49.5 170t-126.5 59q-74 0 -123 -60t-49 -169
q0 -111 48.5 -170t123.5 -59q77 0 126.5 59t49.5 170zM172 605v70h40v-70h-40zM338 605v70h40v-70h-40z" />
    <glyph glyph-name="uni0227.salt" horiz-adv-x="568" 
d="M62 245q0 126 59 191.5t144 65.5q67 0 109 -33.5t57 -88.5h18q-8 32 -9 50q-1 13 -1 60h29v-490h-28q0 52 1 65q2 21 9 49h-18q-13 -53 -57.5 -89.5t-109.5 -36.5q-84 0 -143.5 66t-59.5 191zM441 245q0 111 -49.5 170t-126.5 59q-74 0 -123 -60t-49 -169
q0 -111 48.5 -170t123.5 -59q77 0 126.5 59t49.5 170zM260 612v88h30v-88h-30z" />
    <glyph glyph-name="uni1EA1.salt" horiz-adv-x="568" 
d="M62 245q0 126 59 191.5t144 65.5q67 0 109 -33.5t57 -88.5h18q-8 32 -9 50q-1 13 -1 60h29v-490h-28q0 52 1 65q2 21 9 49h-18q-13 -53 -57.5 -89.5t-109.5 -36.5q-84 0 -143.5 66t-59.5 191zM441 245q0 111 -49.5 170t-126.5 59q-74 0 -123 -60t-49 -169
q0 -111 48.5 -170t123.5 -59q77 0 126.5 59t49.5 170zM266 -195v88h30v-88h-30z" />
    <glyph glyph-name="agrave.salt" horiz-adv-x="568" 
d="M62 245q0 126 59 191.5t144 65.5q67 0 109 -33.5t57 -88.5h18q-8 32 -9 50q-1 13 -1 60h29v-490h-28q0 52 1 65q2 21 9 49h-18q-13 -53 -57.5 -89.5t-109.5 -36.5q-84 0 -143.5 66t-59.5 191zM441 245q0 111 -49.5 170t-126.5 59q-74 0 -123 -60t-49 -169
q0 -111 48.5 -170t123.5 -59q77 0 126.5 59t49.5 170zM262 566l-100 114h45l79 -114h-24z" />
    <glyph glyph-name="amacron.salt" horiz-adv-x="568" 
d="M62 245q0 126 59 191.5t144 65.5q67 0 109 -33.5t57 -88.5h18q-8 32 -9 50q-1 13 -1 60h29v-490h-28q0 52 1 65q2 21 9 49h-18q-13 -53 -57.5 -89.5t-109.5 -36.5q-84 0 -143.5 66t-59.5 191zM441 245q0 111 -49.5 170t-126.5 59q-74 0 -123 -60t-49 -169
q0 -111 48.5 -170t123.5 -59q77 0 126.5 59t49.5 170zM128 599v27h294v-27h-294z" />
    <glyph glyph-name="aogonek.salt" horiz-adv-x="568" 
d="M469 -152v-27q-17 -11 -44 -11q-36 0 -57 20.5t-21 53.5q0 34 24.5 68t68.5 57q0 32 2 58q1 14 8 47h-18q-13 -53 -57.5 -89.5t-109.5 -36.5q-84 0 -143.5 66t-59.5 191q0 126 59 191.5t144 65.5q67 0 109 -33.5t57 -88.5h18q-8 32 -9 50q-1 13 -1 60h29v-490
q-93 -47 -93 -112q0 -22 13.5 -36t37.5 -14q16 0 43 10zM441 245q0 111 -49.5 170t-126.5 59q-74 0 -123 -60t-49 -169q0 -111 48.5 -170t123.5 -59q77 0 126.5 59t49.5 170z" />
    <glyph glyph-name="aring.salt" horiz-adv-x="568" 
d="M62 245q0 126 59 191.5t144 65.5q67 0 109 -33.5t57 -88.5h18q-8 32 -9 50q-1 13 -1 60h29v-490h-28q0 52 1 65q2 21 9 49h-18q-13 -53 -57.5 -89.5t-109.5 -36.5q-84 0 -143.5 66t-59.5 191zM441 245q0 111 -49.5 170t-126.5 59q-74 0 -123 -60t-49 -169
q0 -111 48.5 -170t123.5 -59q77 0 126.5 59t49.5 170zM184 635q0 38 26 64.5t66 26.5t65.5 -26.5t25.5 -64.5t-25.5 -65t-65.5 -27t-66 27t-26 65zM339 635q0 27 -17.5 47t-45.5 20t-46 -20t-18 -47t18 -47.5t46 -20.5t45.5 20t17.5 48z" />
    <glyph glyph-name="aringacute.salt" horiz-adv-x="568" 
d="M62 245q0 126 59 191.5t144 65.5q67 0 109 -33.5t57 -88.5h18q-8 32 -9 50q-1 13 -1 60h29v-490h-28q0 52 1 65q2 21 9 49h-18q-13 -53 -57.5 -89.5t-109.5 -36.5q-84 0 -143.5 66t-59.5 191zM441 245q0 111 -49.5 170t-126.5 59q-74 0 -123 -60t-49 -169
q0 -111 48.5 -170t123.5 -59q77 0 126.5 59t49.5 170zM271 754l79 136h45l-99 -136h-25zM187 635q0 38 26 64.5t66 26.5t65.5 -26.5t25.5 -64.5t-25.5 -65t-65.5 -27t-66 27t-26 65zM342 635q0 27 -17.5 47t-45.5 20t-46 -20t-18 -47t18 -47.5t46 -20.5t45.5 20t17.5 48z
" />
    <glyph glyph-name="atilde.salt" horiz-adv-x="568" 
d="M62 245q0 126 59 191.5t144 65.5q67 0 109 -33.5t57 -88.5h18q-8 32 -9 50q-1 13 -1 60h29v-490h-28q0 52 1 65q2 21 9 49h-18q-13 -53 -57.5 -89.5t-109.5 -36.5q-84 0 -143.5 66t-59.5 191zM441 245q0 111 -49.5 170t-126.5 59q-74 0 -123 -60t-49 -169
q0 -111 48.5 -170t123.5 -59q77 0 126.5 59t49.5 170zM283 601l-29 22l-14 10q-18 14 -40 14q-44 0 -43 -63h-28q-2 43 17.5 66t55.5 23q30 0 65 -26l29 -22q22 -16 30.5 -20t24.5 -4q45 0 44 63h28q1 -43 -18.5 -66t-54.5 -23q-32 0 -67 26z" />
    <glyph glyph-name="ccedilla.ss04" horiz-adv-x="513" 
d="M280 -12l-11 -12q-18 -16 -39 -24l13 -18q27 11 46 11q28 0 47 -17t19 -46q0 -34 -25 -54t-66 -20q-57 0 -96 42l19 21q30 -36 75 -36q63 0 63 48q0 20 -17 32t-41 12q-22 0 -44 -8l-16 20l43 50q-85 8 -137 77.5t-52 179.5t58 183t151 73q74 0 125 -39.5t66 -95.5
l-30 -9q-14 51 -56.5 83.5t-104.5 32.5q-75 0 -126.5 -61t-51.5 -167q0 -107 50.5 -168.5t129.5 -61.5q67 0 109 40.5t54 94.5l30 -9q-17 -66 -65.5 -108.5t-119.5 -45.5z" />
    <glyph glyph-name="g.ss02" horiz-adv-x="568" 
d="M55 -56l30 10q5 -53 51 -93t119 -40q90 0 137 50.5t47 148.5v19q0 56 13 95h-20q-16 -54 -60 -90t-107 -36q-84 0 -143.5 63.5t-59.5 183.5t59 183.5t144 63.5q63 0 107.5 -35.5t58.5 -86.5h18q-8 33 -9 52q-1 13 -1 58h29v-489q0 -89 -53 -148.5t-160 -59.5
q-88 0 -139 44t-61 107zM441 255q0 104 -50 161.5t-126 57.5q-78 0 -125 -56.5t-47 -162.5q0 -107 46.5 -163t125.5 -56q76 0 126 57t50 162z" />
    <glyph glyph-name="gbreve.ss02" horiz-adv-x="568" 
d="M55 -56l30 10q5 -53 51 -93t119 -40q90 0 137 50.5t47 148.5v19q0 56 13 95h-20q-16 -54 -60 -90t-107 -36q-84 0 -143.5 63.5t-59.5 183.5t59 183.5t144 63.5q63 0 107.5 -35.5t58.5 -86.5h18q-8 33 -9 52q-1 13 -1 58h29v-489q0 -89 -53 -148.5t-160 -59.5
q-88 0 -139 44t-61 107zM441 255q0 104 -50 161.5t-126 57.5q-78 0 -125 -56.5t-47 -162.5q0 -107 46.5 -163t125.5 -56q76 0 126 57t50 162zM156 680h25q5 -44 30 -66.5t64 -22.5t64 22.5t30 66.5h25q-4 -54 -35 -85.5t-84 -31.5t-84 31.5t-35 85.5z" />
    <glyph glyph-name="gcircumflex.ss02" horiz-adv-x="568" 
d="M55 -56l30 10q5 -53 51 -93t119 -40q90 0 137 50.5t47 148.5v19q0 56 13 95h-20q-16 -54 -60 -90t-107 -36q-84 0 -143.5 63.5t-59.5 183.5t59 183.5t144 63.5q63 0 107.5 -35.5t58.5 -86.5h18q-8 33 -9 52q-1 13 -1 58h29v-489q0 -89 -53 -148.5t-160 -59.5
q-88 0 -139 44t-61 107zM441 255q0 104 -50 161.5t-126 57.5q-78 0 -125 -56.5t-47 -162.5q0 -107 46.5 -163t125.5 -56q76 0 126 57t50 162zM149 566l102 114h47l102 -114h-29l-96 92l-97 -92h-29z" />
    <glyph glyph-name="uni0123.ss02" horiz-adv-x="568" 
d="M55 -56l30 10q5 -53 51 -93t119 -40q90 0 137 50.5t47 148.5v19q0 56 13 95h-20q-16 -54 -60 -90t-107 -36q-84 0 -143.5 63.5t-59.5 183.5t59 183.5t144 63.5q63 0 107.5 -35.5t58.5 -86.5h18q-8 33 -9 52q-1 13 -1 58h29v-489q0 -89 -53 -148.5t-160 -59.5
q-88 0 -139 44t-61 107zM441 255q0 104 -50 161.5t-126 57.5q-78 0 -125 -56.5t-47 -162.5q0 -107 46.5 -163t125.5 -56q76 0 126 57t50 162zM318 773l-47 -91h23v-71h-43v71l44 91h23z" />
    <glyph glyph-name="gdotaccent.ss02" horiz-adv-x="568" 
d="M55 -56l30 10q5 -53 51 -93t119 -40q90 0 137 50.5t47 148.5v19q0 56 13 95h-20q-16 -54 -60 -90t-107 -36q-84 0 -143.5 63.5t-59.5 183.5t59 183.5t144 63.5q63 0 107.5 -35.5t58.5 -86.5h18q-8 33 -9 52q-1 13 -1 58h29v-489q0 -89 -53 -148.5t-160 -59.5
q-88 0 -139 44t-61 107zM441 255q0 104 -50 161.5t-126 57.5q-78 0 -125 -56.5t-47 -162.5q0 -107 46.5 -163t125.5 -56q76 0 126 57t50 162zM260 612v88h30v-88h-30z" />
    <glyph glyph-name="i.locl" horiz-adv-x="238" 
d="M100 612v88h29v-88h-29zM100 0v490h29l1 -490h-30z" />
    <glyph glyph-name="scedilla.ss04" horiz-adv-x="473" 
d="M247 -12l-12 -12q-15 -15 -39 -24l13 -18q27 11 46 11q30 0 48 -17t18 -46q0 -34 -25 -54t-66 -20q-57 0 -96 42l19 21q32 -36 75 -36q63 0 63 48q0 20 -17 32t-41 12q-20 0 -44 -8l-16 20l44 49q-74 6 -116 45t-50 94l29 10q5 -48 48.5 -84.5t109.5 -36.5q72 0 110.5 29
t38.5 74q0 41 -29.5 69.5t-81.5 41.5l-74 19q-63 17 -96.5 45t-33.5 80q0 55 46 91.5t118 36.5q67 0 110.5 -32.5t56.5 -80.5l-28 -12q-7 37 -44 67t-95 30q-63 0 -98.5 -28t-35.5 -67q0 -75 94 -97l75 -19q147 -37 147 -144q0 -57 -42.5 -93.5t-128.5 -37.5z" />
    <glyph glyph-name="uni0163.ss04" horiz-adv-x="361" 
d="M344 0h-55q-14 0 -32 2l4 -2l-23 -24q-18 -16 -39 -24l13 -18q27 11 46 11q30 0 48 -17t18 -46q0 -34 -25 -54t-66 -20q-57 0 -96 42l19 21q30 -36 75 -36q63 0 63 48q0 20 -17 32t-41 12q-20 0 -44 -8l-16 20l59 67q-86 23 -86 124v333h-132v27h132v141h29v-141h149v-27
h-149v-330q0 -105 105 -105h61v-28z" />
    <glyph glyph-name="zero.onum" horiz-adv-x="611" 
d="M66 241q0 113 67 182.5t174 69.5q106 0 172 -69t66 -183q0 -113 -66 -183t-172 -70t-173.5 70t-67.5 183zM515 241q0 100 -55 162t-153 62q-97 0 -154 -63t-57 -161q0 -97 57 -161t154 -64t152.5 63.5t55.5 161.5z" />
    <glyph glyph-name="one.onum" horiz-adv-x="338" 
d="M200 0v318q0 60 16 102h-26q-41 -96 -145 -138v32q49 20 95.5 68.5t70.5 107.5h19v-490h-30z" />
    <glyph glyph-name="two.onum" horiz-adv-x="488" 
d="M72 0v34q98 51 163 93q146 92 146 210q0 63 -39.5 100t-102.5 37q-54 0 -95 -28q-42 -27 -48 -97l-29 4q6 68 54 108.5t118 40.5q77 0 125.5 -46.5t48.5 -115.5q0 -96 -84 -175q-67 -62 -211 -128l11 -25q32 16 84 16h213v-28h-354z" />
    <glyph glyph-name="three.onum" horiz-adv-x="533" 
d="M53 -4l29 8v-11q0 -75 50.5 -124t128.5 -49q81 0 130 47t49 121q0 71 -50.5 116.5t-128.5 45.5h-33v28h33q69 0 114 42.5t45 108.5q0 65 -44.5 105.5t-114.5 40.5q-67 0 -111.5 -37t-47.5 -97l-29 8q8 70 58 111.5t130 41.5q85 0 136.5 -47.5t51.5 -126.5
q0 -57 -35.5 -98.5t-87.5 -52.5v-24q61 -9 102.5 -54t41.5 -112q0 -83 -54.5 -138.5t-154.5 -55.5q-98 0 -153.5 54t-54.5 149z" />
    <glyph glyph-name="four.onum" horiz-adv-x="531" 
d="M361 -195v195h-322v33l298 457h54v-462h102v-28h-102v-195h-30zM166 28h195v339q0 47 15 85l-21 12l-283 -436l18 -16q23 16 76 16z" />
    <glyph glyph-name="five.onum" horiz-adv-x="529" 
d="M60 -56l30 11q10 -64 60.5 -99t112.5 -35q83 0 132.5 53.5t49.5 131.5q0 83 -49 133.5t-130 50.5q-55 0 -98.5 -33.5t-64.5 -83.5l-37 6l48 411h334v-28h-310l-21 -189q-8 -66 -13 -91q-4 -31 -18 -61h28q47 97 162 97q89 0 144.5 -60t55.5 -150q0 -93 -59.5 -154
t-147.5 -61q-89 0 -141.5 42.5t-67.5 108.5z" />
    <glyph glyph-name="six.onum" horiz-adv-x="590" 
d="M69 327q0 72 18 139t55 123.5t101 90t146 32.5q71 0 108 -17v-29q-59 18 -109 18q-147 0 -221 -109.5t-76 -288.5h26q11 60 63.5 105.5t128.5 45.5q99 0 161.5 -63.5t62.5 -160.5q0 -100 -63 -162.5t-161 -62.5q-109 0 -175 76q-65 77 -65 263zM502 212q0 86 -54.5 141.5
t-137.5 55.5q-84 0 -138.5 -56.5t-54.5 -145.5q0 -86 54.5 -138.5t138.5 -52.5t138 53.5t54 142.5z" />
    <glyph glyph-name="seven.onum" horiz-adv-x="500" 
d="M164 -135q0 97 19 189q20 104 82 207.5t168 188.5l10 8l-14 21q-21 -12 -40 -14.5t-80 -2.5h-286v28h452v-22q-118 -102 -180 -209q-63 -109 -82 -203t-19 -197q0 -31 1 -54h-30q-1 23 -1 60z" />
    <glyph glyph-name="eight.onum" horiz-adv-x="568" 
d="M68 181q0 70 42 118t104 57v23q-55 12 -89.5 52t-34.5 106q0 76 52.5 125.5t141.5 49.5t141.5 -49.5t52.5 -125.5q0 -65 -35.5 -105.5t-84.5 -52.5v-23q60 -11 101 -58.5t41 -116.5q0 -81 -55.5 -137t-160.5 -56t-160.5 56t-55.5 137zM448 534q0 68 -46 109t-118 41
q-71 0 -117.5 -41.5t-46.5 -108.5q0 -68 46.5 -111t117.5 -43q72 0 118 43t46 111zM469 186q0 72 -52 119.5t-133 47.5t-133 -47.5t-52 -119.5q0 -74 52 -122t133 -48t133 48t52 122z" />
    <glyph glyph-name="nine.onum" horiz-adv-x="610" 
d="M108 -192v28q51 -15 133 -15q140 0 211 103.5t69 269.5h-26q-20 -76 -75 -111.5t-122 -35.5q-102 0 -166.5 64t-64.5 164q0 101 65 164t166 63q109 0 178 -75q69 -73 69 -253q0 -78 -17 -144.5t-52 -121t-95.5 -85.5t-140.5 -30q-39 0 -75 4q-39 3 -57 11zM496 281
q0 87 -56 139.5t-143 52.5t-142.5 -53t-55.5 -144q0 -87 56.5 -143.5t141.5 -56.5q86 0 142.5 57.5t56.5 147.5z" />
    <glyph glyph-name="zero.tnum" 
d="M39 358q0 164 78.5 259t195.5 95q116 0 192 -95t76 -259q0 -174 -75 -272t-193 -98q-120 0 -197 98.5t-77 271.5zM549 358q0 143 -63 234.5t-173 91.5q-112 0 -177 -91.5t-65 -234.5q0 -148 64.5 -245t177.5 -97q110 0 173 96.5t63 245.5z" />
    <glyph glyph-name="one.tnum" 
d="M365 28h177v-28h-425v28h218v503q0 60 16 102h-26q-55 -113 -185 -156v33q138 54 212 190h13v-672z" />
    <glyph glyph-name="two.tnum" 
d="M102 0v41q66 38 149 104q85 67 155 161t70 194q0 89 -49.5 136.5t-126.5 47.5q-70 0 -120.5 -48.5t-49.5 -146.5l-30 5q0 104 57 161t143 57q93 0 150 -58t57 -151q0 -92 -55 -180q-100 -158 -320 -287l14 -24q32 16 84 16h292v-28h-420z" />
    <glyph glyph-name="three.tnum" 
d="M86 194l30 9q-3 -84 51.5 -135.5t141.5 -51.5q79 0 131 47t52 118q0 77 -53.5 123.5t-138.5 46.5h-61v31h61q70 0 119.5 42.5t49.5 110.5q0 66 -46.5 107.5t-119.5 41.5q-74 0 -120 -46t-45 -120l-30 11q0 78 56 130.5t139 52.5q90 0 144.5 -51.5t54.5 -125.5
q0 -58 -37.5 -101t-90.5 -54v-24q62 -8 106 -56t44 -119q0 -81 -55 -137t-160 -56q-102 0 -162.5 55t-60.5 151z" />
    <glyph glyph-name="four.tnum" 
d="M397 0v209h-331v38l304 453h57v-464h121v-27h-121v-209h-30zM397 236v348q0 50 15 87l-21 12l-300 -447l18 -16q23 16 76 16h212z" />
    <glyph glyph-name="five.tnum" 
d="M87 155l31 15q9 -76 60.5 -115t130.5 -39q83 0 137 54.5t54 145.5q0 93 -51.5 145t-139.5 52q-105 0 -165 -97l-42 7l51 377h356v-28h-333l-22 -176q-12 -103 -35 -152h28q49 97 163 97q106 0 164.5 -63.5t58.5 -161.5q0 -101 -63.5 -164.5t-160.5 -63.5q-96 0 -152.5 47
t-69.5 120z" />
    <glyph glyph-name="six.tnum" 
d="M87 329q0 172 78 277t216 105q68 0 128 -23v-33q-65 27 -128 27q-139 0 -206 -106.5t-69 -284.5h26q11 60 63.5 105.5t128.5 45.5q102 0 161.5 -66.5t59.5 -158.5t-60.5 -160.5t-160.5 -68.5q-105 0 -171 81t-66 260zM513 216q0 90 -54.5 144t-134.5 54
q-77 0 -133.5 -56.5t-56.5 -141.5q0 -87 56.5 -143.5t133.5 -56.5q80 0 134.5 54.5t54.5 145.5z" />
    <glyph glyph-name="seven.tnum" 
d="M504 660l10 8l-14 21q-21 -12 -39.5 -14.5t-80.5 -2.5h-283v28h447v-25q-126 -111 -191 -220q-65 -110 -86 -217q-20 -109 -20 -238h-34q0 451 291 660z" />
    <glyph glyph-name="eight.tnum" 
d="M83 181q0 70 44.5 118t109.5 57v23q-57 12 -95 51.5t-38 106.5q0 76 56.5 125.5t149.5 49.5t149.5 -49.5t56.5 -125.5q0 -65 -38 -106t-90 -52v-23q65 -13 107.5 -59.5t42.5 -115.5q0 -81 -58 -137t-170 -56q-113 0 -170 55.5t-57 137.5zM483 537q0 67 -48 107t-125 40
q-75 0 -124 -40.5t-49 -106.5q0 -71 48.5 -113t124.5 -42t124.5 42t48.5 113zM505 180q0 75 -54.5 123t-140.5 48q-85 0 -139.5 -48t-54.5 -123q0 -74 52.5 -119t141.5 -45q88 0 141.5 45t53.5 119z" />
    <glyph glyph-name="nine.tnum" 
d="M110 30v32q67 -45 155 -45q143 0 209 149q42 92 42 223h-26q-21 -68 -76 -103t-118 -35q-109 0 -167.5 65t-58.5 161q0 98 59 166.5t167 68.5q87 0 154 -57q88 -77 88 -276q0 -185 -76.5 -288t-196.5 -103q-94 0 -155 42zM493 482q0 90 -56.5 146t-140.5 56
q-86 0 -141 -54t-55 -148q0 -96 54.5 -149.5t141.5 -53.5q85 0 141 56t56 147z" />
    <glyph glyph-name="zero.subs" horiz-adv-x="415" 
d="M55 91q0 88 43 142.5t111 54.5t109.5 -54.5t41.5 -142.5q0 -93 -41.5 -149t-109.5 -56q-70 0 -112 56t-42 149zM330 91q0 77 -33 123.5t-88 46.5q-57 0 -91 -46.5t-34 -123.5q0 -80 34.5 -129t90.5 -49q55 0 88 49t33 129z" />
    <glyph glyph-name="one.subs" horiz-adv-x="253" 
d="M141 -108v257q0 46 17 91h-18q-32 -72 -104 -91v29q78 27 117 104h16v-390h-28z" />
    <glyph glyph-name="two.subs" horiz-adv-x="344" 
d="M54 -108v26q101 73 150 128t52 122q0 43 -24 68t-65 25q-35 0 -60.5 -21t-25.5 -67q0 -13 1 -21l-29 8v15q0 50 32 81.5t82 31.5q53 0 85.5 -32.5t32.5 -85.5q0 -52 -31 -101q-48 -77 -174 -149l9 -16q30 15 76 15h128v-27h-239z" />
    <glyph glyph-name="three.subs" horiz-adv-x="353" 
d="M50 7l28 9v-10q0 -42 26.5 -67.5t71.5 -25.5q41 0 67 23t26 60q0 38 -27 62t-71 24h-39v28h39q37 0 61.5 22t24.5 55t-23.5 53.5t-60.5 20.5q-38 0 -61 -23t-23 -61l1 -8l-28 10q-1 47 30.5 78t80.5 31t81 -28.5t32 -72.5q0 -31 -21.5 -53.5t-49.5 -27.5v-18
q33 -3 58 -29t25 -63q0 -49 -33.5 -79.5t-88.5 -30.5q-59 0 -93 32.5t-33 88.5z" />
    <glyph glyph-name="four.subs" horiz-adv-x="347" 
d="M47 7l28 9v-10q0 -42 26.5 -67.5t71.5 -25.5q41 0 67 23t26 60q0 38 -27 62t-71 24h-39v28h39q37 0 61.5 22t24.5 55t-23.5 53.5t-60.5 20.5q-38 0 -61 -23t-23 -61l1 -8l-28 10q-1 47 30.5 78t80.5 31t81 -28.5t32 -72.5q0 -31 -21.5 -53.5t-49.5 -27.5v-18
q33 -3 58 -29t25 -63q0 -49 -33.5 -79.5t-88.5 -30.5q-59 0 -93 32.5t-33 88.5z" />
    <glyph glyph-name="five.subs" horiz-adv-x="356" 
d="M50 -15l29 14q5 -86 98 -86q44 0 70.5 28t26.5 74q0 47 -25.5 73.5t-71.5 26.5q-59 0 -87 -54l-32 6l29 215h204v-27h-181l-12 -86q-7 -48 -26 -85h21q30 58 91 58q51 0 85.5 -35.5t34.5 -91.5t-36 -92.5t-91 -36.5q-53 0 -86.5 26t-40.5 73z" />
    <glyph glyph-name="six.subs" horiz-adv-x="366" 
d="M56 76q0 97 45 154.5t120 57.5q38 0 75 -14v-31q-42 17 -73 17q-72 0 -110 -55.5t-40 -149.5h18q7 35 35.5 61.5t69.5 26.5q52 0 85.5 -36t33.5 -92t-35 -92.5t-90 -36.5q-65 0 -99.5 49t-34.5 141zM286 15q0 46 -26.5 73.5t-69.5 27.5q-39 0 -67.5 -29.5t-28.5 -71.5
q0 -43 28.5 -72.5t67.5 -29.5q43 0 69.5 28t26.5 74z" />
    <glyph glyph-name="seven.subs" horiz-adv-x="321" 
d="M260 251l5 4l-11 16q-25 -16 -65 -16h-152v27h253v-21q-98 -87 -129.5 -169.5t-30.5 -199.5h-31q0 113 36.5 200.5t124.5 158.5z" />
    <glyph glyph-name="eight.subs" horiz-adv-x="363" 
d="M55 -7q0 38 24.5 63.5t62.5 31.5v17q-30 3 -52.5 26t-22.5 60q0 41 32.5 69t82.5 28q51 0 82.5 -28t31.5 -69q0 -36 -22 -58.5t-48 -27.5v-17q37 -7 59.5 -32t22.5 -63q0 -44 -33 -75.5t-93 -31.5t-93.5 31.5t-33.5 75.5zM266 188q0 33 -23 53t-62 20q-38 0 -61 -20
t-23 -53q0 -35 23 -56.5t61 -21.5q39 0 62 21.5t23 56.5zM278 -5q0 39 -26.5 63t-70.5 24q-43 0 -69.5 -24t-26.5 -63q0 -38 26 -60t70 -22q45 0 71 22t26 60z" />
    <glyph glyph-name="nine.subs" horiz-adv-x="371" 
d="M72 -89v31q41 -29 90 -29q93 0 126 119q9 36 10 76h-18q-13 -39 -42.5 -59.5t-59.5 -20.5q-57 0 -92.5 35.5t-35.5 92.5q0 59 35.5 95.5t92.5 36.5q53 0 88 -32q49 -44 49 -153q0 -100 -41.5 -158.5t-111.5 -58.5q-55 0 -90 25zM279 158q0 45 -28.5 74t-72.5 29
q-45 0 -72 -27.5t-27 -75.5t26.5 -75.5t72.5 -27.5q44 0 72.5 29t28.5 74z" />
    <glyph glyph-name="zero.dnom" horiz-adv-x="415" 
d="M55 199q0 88 43 142.5t111 54.5t109.5 -54.5t41.5 -142.5q0 -93 -41.5 -149t-109.5 -56q-70 0 -112 56t-42 149zM330 199q0 77 -33 123.5t-88 46.5q-57 0 -91 -46.5t-34 -123.5q0 -80 34.5 -129t90.5 -49q55 0 88 49t33 129z" />
    <glyph glyph-name="one.dnom" horiz-adv-x="253" 
d="M141 0v257q0 46 17 91h-18q-32 -72 -104 -91v29q78 27 117 104h16v-390h-28z" />
    <glyph glyph-name="two.dnom" horiz-adv-x="344" 
d="M55 0v26q101 73 150 128t52 122q0 43 -24 68t-65 25q-35 0 -60.5 -21t-25.5 -67q0 -13 1 -21l-29 8v15q0 50 32 81.5t82 31.5q53 0 85.5 -32.5t32.5 -85.5q0 -52 -31 -101q-48 -77 -174 -149l9 -16q30 15 76 15h128v-27h-239z" />
    <glyph glyph-name="three.dnom" horiz-adv-x="353" 
d="M50 115l28 9v-10q0 -42 26.5 -67.5t71.5 -25.5q41 0 67 23t26 60q0 38 -27 62t-71 24h-39v28h39q37 0 61.5 22t24.5 55t-23.5 53.5t-60.5 20.5q-38 0 -61 -23t-23 -61l1 -8l-28 10q-1 47 30.5 78t80.5 31t81 -28.5t32 -72.5q0 -31 -21.5 -53.5t-49.5 -27.5v-18
q33 -3 58 -29t25 -63q0 -49 -33.5 -79.5t-88.5 -30.5q-59 0 -93 32.5t-33 88.5z" />
    <glyph glyph-name="four.dnom" horiz-adv-x="347" 
d="M215 0v113h-179v38l158 239h49v-251h65v-26h-65v-113h-28zM215 139v161q0 37 13 56l-17 10l-151 -227l15 -13q16 13 43 13h97z" />
    <glyph glyph-name="five.dnom" horiz-adv-x="356" 
d="M51 93l29 14q5 -86 98 -86q44 0 70.5 28t26.5 74q0 47 -25.5 73.5t-71.5 26.5q-58 0 -87 -54l-32 6l29 215h204v-27h-181l-12 -86q-7 -48 -26 -85h21q30 58 91 58q51 0 85.5 -35.5t34.5 -91.5t-36 -92.5t-91 -36.5q-53 0 -86.5 26t-40.5 73z" />
    <glyph glyph-name="six.dnom" horiz-adv-x="366" 
d="M56 184q0 97 45 154.5t120 57.5q38 0 75 -14v-31q-42 17 -73 17q-72 0 -110 -55.5t-40 -149.5h18q7 35 35.5 61.5t69.5 26.5q52 0 85.5 -36t33.5 -92t-35 -92.5t-90 -36.5q-65 0 -99.5 49t-34.5 141zM286 123q0 46 -26.5 73.5t-69.5 27.5q-39 0 -67.5 -29.5t-28.5 -71.5
q0 -43 28.5 -72.5t67.5 -29.5q43 0 69.5 28t26.5 74z" />
    <glyph glyph-name="seven.dnom" horiz-adv-x="321" 
d="M259 359l5 4l-11 16q-25 -16 -65 -16h-152v27h253v-21q-98 -87 -129.5 -169.5t-30.5 -199.5h-31q0 113 36.5 200.5t124.5 158.5z" />
    <glyph glyph-name="eight.dnom" horiz-adv-x="363" 
d="M55 101q0 38 24.5 63.5t62.5 31.5v17q-30 3 -52.5 26t-22.5 60q0 41 32.5 69t82.5 28q51 0 82.5 -28t31.5 -69q0 -36 -22 -58.5t-48 -27.5v-17q37 -7 59.5 -32t22.5 -63q0 -44 -33 -75.5t-93 -31.5t-93.5 31.5t-33.5 75.5zM266 296q0 33 -23 53t-62 20q-38 0 -61 -20
t-23 -53q0 -35 23 -56.5t61 -21.5q39 0 62 21.5t23 56.5zM278 103q0 39 -26.5 63t-70.5 24q-43 0 -69.5 -24t-26.5 -63q0 -38 26 -60t70 -22q45 0 71 22t26 60z" />
    <glyph glyph-name="nine.dnom" horiz-adv-x="371" 
d="M72 19v31q41 -29 90 -29q93 0 126 119q9 36 10 76h-18q-13 -39 -42.5 -59.5t-59.5 -20.5q-57 0 -92.5 35.5t-35.5 92.5q0 59 35.5 95.5t92.5 36.5q53 0 88 -32q49 -44 49 -153q0 -100 -41.5 -158.5t-111.5 -58.5q-55 0 -90 25zM279 266q0 45 -28.5 74t-72.5 29
q-45 0 -72 -27.5t-27 -75.5t26.5 -75.5t72.5 -27.5q44 0 72.5 29t28.5 74z" />
    <glyph glyph-name="zero.numr" horiz-adv-x="415" 
d="M55 509q0 88 43 142.5t111 54.5t109.5 -54.5t41.5 -142.5q0 -93 -41.5 -149t-109.5 -56q-70 0 -112 56t-42 149zM330 509q0 77 -33 123.5t-88 46.5q-57 0 -91 -46.5t-34 -123.5q0 -80 34.5 -129t90.5 -49q55 0 88 49t33 129z" />
    <glyph glyph-name="one.numr" horiz-adv-x="253" 
d="M141 310v257q0 46 17 91h-18q-32 -72 -104 -91v29q78 27 117 104h16v-390h-28z" />
    <glyph glyph-name="two.numr" horiz-adv-x="344" 
d="M54 310v26q101 73 150 128t52 122q0 43 -24 68t-65 25q-35 0 -60.5 -21t-25.5 -67q0 -13 1 -21l-29 8v15q0 50 32 81.5t82 31.5q53 0 85.5 -32.5t32.5 -85.5q0 -52 -31 -101q-48 -77 -174 -149l9 -16q30 15 76 15h128v-27h-239z" />
    <glyph glyph-name="three.numr" horiz-adv-x="353" 
d="M50 425l28 9v-10q0 -42 26.5 -67.5t71.5 -25.5q41 0 67 23t26 60q0 38 -27 62t-71 24h-39v28h39q37 0 61.5 22t24.5 55t-23.5 53.5t-60.5 20.5q-38 0 -61 -23t-23 -61l1 -8l-28 10q-1 47 30.5 78t80.5 31t81 -28.5t32 -72.5q0 -31 -21.5 -53.5t-49.5 -27.5v-18
q33 -3 58 -29t25 -63q0 -49 -33.5 -79.5t-88.5 -30.5q-59 0 -93 32.5t-33 88.5z" />
    <glyph glyph-name="four.numr" horiz-adv-x="347" 
d="M215 310v113h-179v38l158 239h49v-251h65v-26h-65v-113h-28zM215 449v161q0 37 13 56l-17 10l-151 -227l15 -13q16 13 43 13h97z" />
    <glyph glyph-name="five.numr" horiz-adv-x="356" 
d="M50 403l29 14q5 -86 98 -86q44 0 70.5 28t26.5 74q0 47 -25.5 73.5t-71.5 26.5q-59 0 -87 -54l-32 6l29 215h204v-27h-181l-12 -86q-7 -48 -26 -85h21q30 58 91 58q51 0 85.5 -35.5t34.5 -91.5t-36 -92.5t-91 -36.5q-53 0 -86.5 26t-40.5 73z" />
    <glyph glyph-name="six.numr" horiz-adv-x="366" 
d="M56 494q0 97 45 154.5t120 57.5q38 0 75 -14v-31q-42 17 -73 17q-72 0 -110 -55.5t-40 -149.5h18q7 35 35.5 61.5t69.5 26.5q52 0 85.5 -36t33.5 -92t-35 -92.5t-90 -36.5q-65 0 -99.5 49t-34.5 141zM286 433q0 46 -26.5 73.5t-69.5 27.5q-39 0 -67.5 -29.5t-28.5 -71.5
q0 -43 28.5 -72.5t67.5 -29.5q43 0 69.5 28t26.5 74z" />
    <glyph glyph-name="seven.numr" horiz-adv-x="321" 
d="M259 669l5 4l-11 16q-25 -16 -65 -16h-152v27h253v-21q-98 -87 -129.5 -169.5t-30.5 -199.5h-31q0 113 36.5 200.5t124.5 158.5z" />
    <glyph glyph-name="eight.numr" horiz-adv-x="363" 
d="M55 411q0 38 24.5 63.5t62.5 31.5v17q-30 3 -52.5 26t-22.5 60q0 41 32.5 69t82.5 28q51 0 82.5 -28t31.5 -69q0 -36 -22 -58.5t-48 -27.5v-17q37 -7 59.5 -32t22.5 -63q0 -44 -33 -75.5t-93 -31.5t-93.5 31.5t-33.5 75.5zM266 606q0 33 -23 53t-62 20q-38 0 -61 -20
t-23 -53q0 -35 23 -56.5t61 -21.5q39 0 62 21.5t23 56.5zM278 413q0 39 -26.5 63t-70.5 24q-43 0 -69.5 -24t-26.5 -63q0 -38 26 -60t70 -22q45 0 71 22t26 60z" />
    <glyph glyph-name="nine.numr" horiz-adv-x="371" 
d="M72 329v31q41 -29 90 -29q93 0 126 119q9 36 10 76h-18q-13 -39 -42.5 -59.5t-59.5 -20.5q-57 0 -92.5 35.5t-35.5 92.5q0 59 35.5 95.5t92.5 36.5q53 0 88 -32q49 -44 49 -153q0 -100 -41.5 -158.5t-111.5 -58.5q-55 0 -90 25zM279 576q0 45 -28.5 74t-72.5 29
q-45 0 -72 -27.5t-27 -75.5t26.5 -75.5t72.5 -27.5q44 0 72.5 29t28.5 74z" />
    <glyph glyph-name="comma.ss04" horiz-adv-x="229" 
d="M64 -107l29 57q17 33 38 45l-10 17q-14 -12 -26 -12h-3v84h50v-84l-51 -107h-27z" />
    <glyph glyph-name="semicolon.ss04" horiz-adv-x="255" 
d="M81 -107l29 57q17 33 38 45l-10 17q-14 -12 -26 -12h-3v84h50v-84l-51 -107h-27zM109 377v84h50v-84h-50z" />
    <glyph glyph-name="exclamdown.case" horiz-adv-x="267" 
d="M159 700v-84h-50v84h50zM143 517l6 -357v-160h-30v160l5 357h19z" />
    <glyph glyph-name="questiondown.case" horiz-adv-x="444" 
d="M274 700v-84h-50v84h50zM192 342q-72 -68 -94 -103.5t-22 -84.5q0 -61 40.5 -99t105.5 -38q68 0 107.5 45.5t39.5 123.5v17l30 -5v-14q0 -85 -49.5 -140t-127.5 -55t-127.5 46.5t-49.5 118.5q0 56 25.5 97.5t100.5 109.5q39 36 50 63t14 93h30q-2 -65 -16 -100t-57 -75z
" />
    <glyph glyph-name="period.tnum" 
d="M280 0v101h59v-101h-59z" />
    <glyph glyph-name="comma.tnum" 
d="M249 -128l64 128h-31v101h60v-101l-61 -128h-32z" />
    <glyph glyph-name="colon.tnum" 
d="M280 389v101h59v-101h-59zM280 0v101h59v-101h-59z" />
    <glyph glyph-name="semicolon.tnum" 
d="M287 389v101h59v-101h-59zM253 -128l65 128h-31v101h60v-101l-61 -128h-33z" />
    <glyph glyph-name="semicolon.tnum_ss04" 
d="M287 389v101h59v-101h-59zM253 -128l35 68q22 41 46 54l-12 21q-17 -15 -31 -15h-4v101h60v-101l-61 -128h-33z" />
    <glyph glyph-name="numbersign.tnum" 
d="M116 0l32 153q10 47 28 71l-16 20q-24 -15 -61 -15h-47v28h118l41 198h-129v28h135l45 217h30l-30 -141q-10 -49 -29 -71l17 -20q24 15 61 15h117l45 217h30l-30 -141q-7 -33 -11.5 -45t-16.5 -26l16 -20q24 15 61 15h49v-28h-120l-41 -198h121v-28h-127l-47 -229h-30
l32 153q10 49 28 71l-16 20q-24 -15 -61 -15h-117l-47 -229h-30zM200 257h180l41 198h-180z" />
    <glyph glyph-name="parenleft.case" horiz-adv-x="304" 
d="M71 356q0 187 49 299.5t155 159.5v-35q-175 -69 -175 -424q0 -182 45.5 -291t129.5 -140v-35q-204 78 -204 466z" />
    <glyph glyph-name="parenright.case" horiz-adv-x="304" 
d="M233 349q0 -187 -48.5 -300t-155.5 -159v35q175 69 175 424q0 182 -45.5 291t-129.5 140v35q106 -40 155 -156t49 -310z" />
    <glyph glyph-name="braceleft.case" horiz-adv-x="312" 
d="M140 5v148l1 49q-1 75 -22 104.5t-94 31.5v29q73 2 94 31.5t22 104.5l-1 49v148q0 105 92 105h44v-28h-43q-63 0 -63 -76v-164l1 -45q0 -55 -16.5 -86.5t-65.5 -41.5v-24q49 -10 65.5 -41t16.5 -86l-1 -45v-164q0 -76 63 -76h43v-28h-44q-92 0 -92 105z" />
    <glyph glyph-name="braceright.case" horiz-adv-x="312" 
d="M172 700v-148l-1 -49q0 -73 22 -104.5t94 -31.5v-29q-72 0 -94 -31t-22 -104l1 -50v-148q0 -105 -92 -105h-44v28h43q63 0 63 76v164v45q0 57 16 87.5t65 40.5v24q-49 10 -65 40.5t-16 87.5v44v164q0 76 -63 76h-43v28h44q92 0 92 -105z" />
    <glyph glyph-name="bracketleft.case" horiz-adv-x="324" 
d="M120 -100v905h173v-28h-143v-849h143v-28h-173z" />
    <glyph glyph-name="bracketright.case" horiz-adv-x="325" 
d="M205 804v-905h-173v28h143v849h-143v28h173z" />
    <glyph glyph-name="angleleft.case" horiz-adv-x="320" 
d="M287 803l-213 -449l211 -452l-27 -12l-215 463l216 462z" />
    <glyph glyph-name="angleright.case" horiz-adv-x="320" 
d="M62 815l215 -463l-216 -462l-28 12l213 449l-211 452z" />
    <glyph glyph-name="uni3010.case" horiz-adv-x="350" 
d="M120 -100v905h210q-94 -111 -138 -220t-44 -235t41.5 -229.5t140.5 -220.5h-210z" />
    <glyph glyph-name="uni3011.case" horiz-adv-x="350" 
d="M230 805v-905h-210q94 111 138 220t44 235t-41.5 230.5t-140.5 219.5h210z" />
    <glyph glyph-name="uni300C.case" horiz-adv-x="324" 
d="M95 369v436h211v-28h-181v-408h-30z" />
    <glyph glyph-name="uni300D.case" horiz-adv-x="326" 
d="M231 336v-436h-210v28h180v408h30z" />
    <glyph glyph-name="uni300A.case" horiz-adv-x="478" 
d="M287 803l-213 -450l211 -451l-27 -12l-215 462l216 463zM445 803l-213 -450l211 -451l-27 -12l-215 462l216 463z" />
    <glyph glyph-name="uni300B.case" horiz-adv-x="478" 
d="M62 815l215 -461l-216 -464l-28 12l213 451l-211 450zM220 815l215 -461l-216 -464l-28 12l213 450l-211 451z" />
    <glyph glyph-name="uni3014.case" horiz-adv-x="277" 
d="M116 651v-598l129 -141l-21 -22l-138 155v614l138 156l22 -21z" />
    <glyph glyph-name="uni3015.case" horiz-adv-x="276" 
d="M53 816l138 -155v-614l-138 -156l-22 21l130 144v597l-129 141z" />
    <glyph glyph-name="uni300E.case" horiz-adv-x="408" 
d="M95 300v505h273v-123h-157v-382h-116zM125 328h56v382h157v67h-213v-449z" />
    <glyph glyph-name="uni300F.case" horiz-adv-x="424" 
d="M313 406v-505h-272v123h156v382h116zM283 378h-55v-382h-158v-67h213v449z" />
    <glyph glyph-name="hyphen.case" horiz-adv-x="372" 
d="M86 339v33h200v-33h-200z" />
    <glyph glyph-name="uni00AD.case" horiz-adv-x="372" 
d="M86 339v33h200v-33h-200z" />
    <glyph glyph-name="endash.case" horiz-adv-x="583" 
d="M77 341v29h429v-29h-429z" />
    <glyph glyph-name="emdash.case" horiz-adv-x="989" 
d="M77 341v29h835v-29h-835z" />
    <glyph glyph-name="quotesinglbase.ss04" horiz-adv-x="232" 
d="M67 -102l28 55q18 34 36 42l-9 17q-14 -12 -25 -12h-3v80h48v-80l-49 -102h-26z" />
    <glyph glyph-name="quotedblbase.ss04" horiz-adv-x="381" 
d="M67 -102l28 55q18 34 36 42l-9 17q-14 -12 -25 -12h-3v80h48v-80l-49 -102h-26zM216 -102l28 55q18 34 36 42l-9 17q-13 -12 -25 -12h-3v80h48v-80l-49 -102h-26z" />
    <glyph glyph-name="quotedblleft.ss04" horiz-adv-x="366" 
d="M154 701l-28 -55q-19 -35 -36 -42l9 -17q13 12 25 12h3v-79h-47v79l48 102h26zM303 701l-28 -55q-19 -35 -36 -42l9 -17q14 12 25 12h3v-79h-47v79l48 102h26z" />
    <glyph glyph-name="quotedblright.ss04" horiz-adv-x="364" 
d="M73 519l28 55q18 34 36 42l-9 17q-13 -12 -25 -12h-3v80h48v-80l-49 -102h-26zM222 519l28 55q18 34 36 42l-9 17q-14 -12 -25 -12h-3v80h48v-80l-49 -102h-26z" />
    <glyph glyph-name="quoteleft.ss04" horiz-adv-x="217" 
d="M154 701l-28 -55q-19 -35 -36 -42l9 -17q13 12 25 12h3v-79h-47v79l48 102h26z" />
    <glyph glyph-name="quoteright.ss04" horiz-adv-x="215" 
d="M73 519l28 55q18 34 36 42l-9 17q-13 -12 -25 -12h-3v80h48v-80l-49 -102h-26z" />
    <glyph glyph-name="guillemotleft.case" horiz-adv-x="468" 
d="M190 521h35l-125 -189l125 -190h-36l-124 190zM392 521l-125 -189l125 -190h-36l-124 190l125 189h35z" />
    <glyph glyph-name="guillemotright.case" horiz-adv-x="468" 
d="M76 521h36l124 -190l-125 -189h-35l125 189zM279 521l124 -190l-125 -189h-35l125 189l-125 190h36z" />
    <glyph glyph-name="guilsinglleft.case" horiz-adv-x="301" 
d="M225 521l-125 -190l125 -189h-36l-124 189l125 190h35z" />
    <glyph glyph-name="guilsinglright.case" horiz-adv-x="301" 
d="M112 521l124 -189l-125 -190h-35l125 190l-125 189h36z" />
    <glyph glyph-name="space.tnum" 
 />
    <glyph glyph-name="uni20BF.tnum" 
d="M567 188q0 -82 -53.5 -135t-139.5 -53h-5v-106h-28v106h-94v-106h-28v106h-105v700h105v105h28v-105h94v105h28v-106q77 -7 121.5 -53.5t44.5 -117.5q0 -61 -31 -98t-80 -50v-24q57 -5 100 -50.5t43 -117.5zM144 672v-294h192q80 0 123.5 41t43.5 106q0 64 -43.5 105.5
t-123.5 41.5h-192zM535 190q0 68 -44.5 114t-120.5 46h-226v-322h225q76 0 121 46.5t45 115.5z" />
    <glyph glyph-name="cent.tnum" 
d="M307 -120v109q-85 6 -136.5 75.5t-51.5 180.5q0 106 52 178t136 78v103h28v-102q69 -3 112.5 -41.5t58.5 -93.5l-28 -9q-31 110 -143 116v-342q0 -88 -15 -115l12 -15q60 10 99.5 52.5t52.5 96.5l31 -9q-44 -147 -180 -154v-108h-28zM307 17v338q0 90 15 117l-12 15
q-70 -13 -115 -77t-45 -165q0 -102 43 -162t114 -66z" />
    <glyph glyph-name="currency.tnum" 
d="M90 111l-18 19l80 81q-45 55 -45 141t45 141l-80 81l18 19l81 -79q57 52 139 52q81 0 139 -52l81 79l18 -19l-80 -81q45 -55 45 -141q0 -84 -45 -141l80 -81l-18 -19l-81 79q-57 -52 -139 -52t-139 52zM483 352q0 87 -49 137t-124 50t-124 -50t-49 -137t49 -137t124 -50
t124 50t49 137z" />
    <glyph glyph-name="dollar.tnum" 
d="M291 -111v99q-83 5 -141.5 47t-82.5 118l29 15q16 -66 70 -105.5t125 -44.5v338l-38 13q-77 26 -118 63.5t-41 105.5q0 78 55 123.5t142 50.5v93h28v-93q89 -4 144 -47.5t67 -94.5l-27 -15q-12 46 -59 85.5t-125 43.5v-305l61 -20q164 -53 164 -185q0 -83 -60 -133
t-165 -53v-99h-28zM291 388v177q0 90 15 117l-13 16q-79 -13 -124.5 -52.5t-45.5 -105.5q0 -58 38 -91t130 -61zM513 173q0 69 -42 106.5t-152 68.5v-213q0 -90 -15 -117l13 -16q78 5 137 51t59 120z" />
    <glyph glyph-name="Euro.tnum" 
d="M111 273h-81v27h78q-3 24 -3 61q0 24 2 62h-77v27h81q18 122 82 192t166 70q51 0 92 -19.5t66 -51.5t39.5 -62.5t21.5 -63.5l-26 -11q-16 72 -63.5 126t-129.5 54q-182 0 -231 -233l18 -16q42 15 108 15h128v-27h-244q-3 -24 -3 -57q0 -38 3 -66h244v-27h-128
q-66 0 -108 15l-18 -16q48 -256 219 -256q82 0 129 49.5t73 143.5l28 -11q-27 -89 -79 -150q-52 -60 -151 -60t-158 75t-78 210z" />
    <glyph glyph-name="uni20BA.tnum" 
d="M195 0v203q0 59 18 94l-22 14q-17 -27 -63 -51l-33 -18v31l100 55v94l-100 -54v32l100 54v246h30v-138q0 -61 -18 -94l22 -14q22 32 63 51l145 78v-31l-212 -114v-94l212 116v-32l-212 -115v-284h10q43 0 100 21q59 21 111 82q54 61 72 172l27 -11q-20 -130 -105 -211.5
t-221 -81.5h-24z" />
    <glyph glyph-name="uni20BD.tnum" 
d="M342 309h-162v-111h165v-28h-165v-170h-30v170h-80v28h80v111h-80v28h80v363h195q101 0 157.5 -55t56.5 -140q0 -86 -57 -141t-160 -55zM180 672v-335h159q92 0 140 48t48 120t-47 119.5t-141 47.5h-159z" />
    <glyph glyph-name="uni20B9.tnum" 
d="M351 689l-9 -25q47 -17 74.5 -54.5t30.5 -86.5h95v-28h-95q-5 -57 -39 -96t-89 -53v-23q54 -7 79 -35.5t46 -92.5l62 -195h-32l-66 211q-31 109 -152 109h-166v28h162q69 0 113.5 40t50.5 107h-326v28h326q-4 67 -50.5 108t-113.5 41h-162v28h452v-28h-93q-53 0 -98 17z
" />
    <glyph glyph-name="sterling.tnum" 
d="M287 28h249v-28h-443v30q45 14 92 49q48 37 48 110q0 69 -45 139h-93v28h75q-31 44 -44 75.5t-14 76.5q0 92 61.5 147t144.5 55q89 0 149.5 -49t69.5 -138l-28 -15q-9 87 -59.5 130.5t-131.5 43.5q-71 0 -123.5 -47.5t-52.5 -125.5q0 -29 8 -54.5t17 -40.5t31 -48l7 -10
h209v-28h-192q40 -66 40 -135q0 -107 -112 -153l12 -27q49 15 125 15z" />
    <glyph glyph-name="uni20A9.tnum" 
d="M596 393h-116l-13 -122h110v-28h-113l-26 -243h-40l-52 232q-23 100 -23 188h-26q0 -93 -22 -188l-51 -232h-41l-26 243h-113v28h110l-12 122h-118v28h115l-30 279h30l45 -445q9 -97 9 -180v-55h26q2 95 32 232l42 198h35l43 -198q30 -137 32 -232h26v60q0 80 9 175
l44 445h31l-30 -279h113v-28z" />
    <glyph glyph-name="yen.tnum" 
d="M578 700l-229 -361h139v-28h-157v-1v-121h157v-28h-157v-161h-30v161h-168v28h168v122h-168v28h149l-238 361h36l186 -284q38 -57 39 -88h25q0 32 36 90l176 282h36z" />
    <glyph glyph-name="_576" 
d="M107 141l-20 21l202 202l-202 201l20 21l203 -202l203 202l20 -21l-202 -201l202 -202l-20 -21l-203 202z" />
    <glyph glyph-name="plus.tnum" 
d="M296 80v259h-249v28h249v259l28 -1v-258h248v-28h-248v-259h-28z" />
    <glyph glyph-name="minus.tnum" 
d="M73 338v28h473v-28h-473z" />
    <glyph glyph-name="multiply.tnum" 
d="M107 141l-20 21l202 202l-202 201l20 21l203 -202l203 202l20 -21l-202 -201l202 -202l-20 -21l-203 202z" />
    <glyph glyph-name="divide.tnum" 
d="M284 512v93h51v-93h-51zM64 340v28h491v-28h-491zM284 103v93h51v-93h-51z" />
    <glyph glyph-name="equal.tnum" 
d="M67 436v28h486v-28h-486zM67 244v28h486v-28h-486z" />
    <glyph glyph-name="notequal.tnum" 
d="M142 73l96 171h-171v28h187l50 88q29 50 60 71l-12 22q-25 -17 -55 -17h-230v28h296l86 152h30l-85 -152h159v-28h-175l-49 -88q-29 -50 -60 -71l12 -22q25 17 54 17h218v-28h-282l-97 -171h-32z" />
    <glyph glyph-name="greater.tnum" 
d="M88 85v33l397 199q47 23 70 23v26q-27 0 -70 21l-397 201v33l485 -250v-40z" />
    <glyph glyph-name="less.tnum" 
d="M532 621v-33l-397 -199q-45 -23 -69 -23v-26q29 0 69 -21l397 -201v-33l-484 250v40z" />
    <glyph glyph-name="greaterequal.tnum" 
d="M72 165v32l378 160q47 23 89 23v26q-41 0 -92 21l-375 162v32l485 -213v-34zM72 83v29h485v-29h-485z" />
    <glyph glyph-name="lessequal.tnum" 
d="M548 165l-485 209v34l485 213v-32l-375 -162q-48 -21 -92 -21v-26q37 0 89 -23l378 -160v-32zM63 83v29h485v-29h-485z" />
    <glyph glyph-name="plusminus.tnum" 
d="M297 223v187h-233v28h233v188l27 -1v-187h231v-28h-231v-187h-27zM67 83v29h487v-29h-487z" />
    <glyph glyph-name="approxequal.tnum" 
d="M320 461l-30 13q-57 25 -89 25q-52 0 -104 -57l-21 22q57 64 128 64q37 0 100 -27l30 -13q54 -25 89 -25q53 0 104 57l21 -21q-58 -65 -128 -65q-37 0 -100 27zM320 241l-30 13q-57 25 -89 25q-52 0 -104 -57l-21 22q57 64 128 64q37 0 100 -27l30 -13q54 -25 89 -25
q53 0 104 57l21 -21q-58 -65 -128 -65q-37 0 -100 27z" />
    <glyph glyph-name="logicalnot.tnum" 
d="M520 188v161h-452v28h478v-189h-26z" />
    <glyph glyph-name="percent.tnum" 
d="M51 548q0 76 35.5 120.5t89.5 44.5q53 0 88 -44.5t35 -120.5q0 -81 -33.5 -125t-89.5 -44t-90.5 44.5t-34.5 124.5zM131 0l324 700h31l-324 -700h-31zM269 548q0 60 -25 98.5t-68 38.5t-69 -38.5t-26 -98.5q0 -64 25.5 -103.5t69.5 -39.5q43 0 68 39t25 104zM319 158
q0 76 36 120.5t89 44.5t88 -44.5t35 -120.5q0 -80 -33.5 -124.5t-89.5 -44.5t-90.5 44.5t-34.5 124.5zM537 158q0 61 -25 99t-68 38q-45 0 -70 -38.5t-25 -98.5q0 -63 25 -103t70 -40q43 0 68 40t25 103z" />
    <glyph glyph-name="perthousand.tnum" 
d="M19 548q0 78 26 121.5t69 43.5t68 -43.5t25 -121.5q0 -169 -93 -169q-45 0 -70 44t-25 125zM377 700h31l-324 -700h-31zM49 548q0 -143 65 -143q63 0 63 143q0 137 -63 137q-65 0 -65 -137zM602 158q0 -169 -93 -169q-57 0 -81 67q-22 -67 -79 -67q-45 0 -70 44t-25 125
q0 78 26 121.5t69 43.5q56 0 79 -68q25 68 81 68q43 0 68 -43t25 -122zM412 158q0 137 -63 137q-65 0 -65 -137q0 -143 65 -143q63 0 63 143zM572 158q0 137 -63 137q-65 0 -65 -137q0 -143 65 -143q63 0 63 143z" />
    <glyph glyph-name="at.case" horiz-adv-x="912" 
d="M65 343q-2 188 112.5 302t286.5 112q174 2 288 -106t112 -267q1 -107 -55.5 -176t-124.5 -67q-77 0 -77 74v3.5t0.5 5t1 6.5t0.5 7h-22q-16 -44 -50.5 -70t-85.5 -26q-75 0 -122 53.5t-47 152.5q0 96 48 151t121 55q107 0 140 -96h24q-16 44 -16 83h29v-311q0 -61 58 -61
q56 0 103 60.5t47 155.5q2 147 -104.5 247t-267.5 98q-162 0 -266.5 -104.5t-104.5 -281.5q0 -182 105.5 -284t275.5 -102q75 0 145.5 22.5t118.5 62.5l17 -25q-51 -42 -126 -65t-155 -23q-183 0 -296 110t-113 304zM601 347q0 85 -40 132t-108 47q-62 0 -101.5 -47.5
t-39.5 -131.5t39.5 -131.5t101.5 -47.5q58 0 103 49.5t45 129.5z" />
    <glyph glyph-name="registered.case" horiz-adv-x="888" 
d="M64 348q-1 103 49 192.5t139 143t194 51.5q158 3 269.5 -113t108.5 -274q3 -159 -108 -272.5t-270 -110.5q-160 -3 -272 110.5t-110 272.5zM792 348q2 149 -98.5 255.5t-248.5 103.5q-148 2 -249.5 -104.5t-99.5 -254.5q-2 -149 99.5 -253.5t249.5 -101.5
q148 -3 248.5 101.5t98.5 253.5zM327 152v398h145q58 0 93.5 -27.5t35.5 -78.5q0 -43 -28 -66.5t-63 -27.5v-21q27 -1 43 -18.5t28 -57.5l31 -100h-33l-33 111q-20 68 -104 68h-87v-180h-28zM355 357h114q102 0 102 83q0 82 -102 82h-114v-165z" />
    <glyph glyph-name="section.tnum" 
d="M120 -82l27 12q29 -111 162 -111q64 0 107.5 37.5t43.5 95.5q0 100 -123 135l-123 36q-146 44 -146 165q0 55 35.5 94t97.5 52v23q-68 35 -68 106q0 67 48.5 108t126.5 41q86 0 131 -39q46 -38 62 -84l-27 -13q-16 42 -54 77t-112 35q-67 0 -107.5 -34.5t-40.5 -88.5
q0 -50 26.5 -77t97.5 -48l122 -36q147 -43 147 -165q0 -54 -38.5 -95t-100.5 -53v-23q74 -40 74 -116q0 -72 -51.5 -114.5t-127.5 -42.5q-154 0 -189 123zM524 239q0 104 -131 141l-134 38q-6 1 -25 8q-61 -8 -99 -44.5t-38 -91.5t33 -89.5t99 -53.5l132 -38q7 -1 24 -8
q60 6 99.5 46t39.5 92z" />
    <glyph glyph-name="degree.tnum" 
d="M166 610q0 60 42 102.5t102 42.5q61 0 102.5 -42.5t41.5 -102.5q0 -62 -41 -102.5t-104 -40.5q-60 0 -101.5 41.5t-41.5 101.5zM424 611q0 53 -31 84.5t-83 31.5q-50 0 -82 -32t-32 -84t32 -84.5t82 -32.5q52 0 83 32t31 85z" />
    <glyph glyph-name="_642" horiz-adv-x="0" 
d="M-89 538l46 91h-23v71h43v-71l-44 -91h-22z" />
    <glyph glyph-name="_647" horiz-adv-x="277" 
d="M89 754l79 136h45l-99 -136h-25zM5 635q0 38 26 64.5t66 26.5t65.5 -26.5t25.5 -64.5t-25.5 -65t-65.5 -27t-66 27t-26 65zM160 635q0 27 -17.5 47t-45.5 20t-46 -20t-18 -47t18 -47.5t46 -20.5t45.5 20t17.5 48z" />
    <glyph glyph-name="uni0327.ss04" horiz-adv-x="0" 
d="M-227 -150l19 21q30 -36 75 -36q63 0 63 48q0 20 -17 32t-41 12q-22 0 -44 -8l-16 20l62 71l23 -10l-23 -24q-18 -16 -39 -24l13 -18q27 11 46 11q28 0 47 -17t19 -46q0 -34 -25 -54t-66 -20q-57 0 -96 42z" />
    <glyph glyph-name="cedilla.ss04" horiz-adv-x="303" 
d="M34 -150l19 21q30 -36 75 -36q63 0 63 48q0 20 -17 32t-41 12q-22 0 -44 -8l-16 20l62 71l23 -10l-23 -24l-28 -30q13 3 30 3q38 0 61 -17t23 -50q0 -34 -25 -54t-66 -20q-57 0 -96 42z" />
    <glyph glyph-name="_670" horiz-adv-x="0" 
d="M-330 576v70h44v-70h-44zM-147 576v70h43v-70h-43z" />
    <glyph glyph-name="_671" horiz-adv-x="0" 
d="M-99 576v88h30v-88h-30z" />
    <glyph glyph-name="_672" horiz-adv-x="0" 
d="M-58 576l-110 114h49l87 -114h-26z" />
    <glyph glyph-name="_673" horiz-adv-x="0" 
d="M-203 576l87 114h50l-110 -114h-27z" />
    <glyph glyph-name="_674" horiz-adv-x="0" 
d="M-369 576l88 114h49l-110 -114h-27zM-232 576l87 114h49l-110 -114h-26z" />
    <glyph glyph-name="_675" horiz-adv-x="0" 
d="M-376 576l111 114h53l112 -114h-32l-106 92l-107 -92h-31z" />
    <glyph glyph-name="_676" horiz-adv-x="0" 
d="M-57 690l-111 -114h-53l-112 114h32l106 -92l107 92h31z" />
    <glyph glyph-name="_677" horiz-adv-x="0" 
d="M-321 688h27q5 -44 33 -66.5t71 -22.5q42 0 69.5 22.5t33.5 66.5h27q-4 -54 -38.5 -85.5t-91.5 -31.5q-59 0 -93 31.5t-38 85.5z" />
    <glyph glyph-name="_678" horiz-adv-x="0" 
d="M-234 658q0 40 27 67.5t69 27.5t69 -27.5t27 -67.5t-27 -68t-69 -28t-69 28t-27 68zM-71 658q0 28 -19 49.5t-48 21.5t-48 -21.5t-19 -49.5t19 -50t48 -22q30 0 48.5 22t18.5 50z" />
    <glyph glyph-name="_679" horiz-adv-x="277" 
d="M93 751l79 136h45l-99 -136h-25zM9 632q0 38 26 64.5t66 26.5t65.5 -26.5t25.5 -64.5t-25.5 -65t-65.5 -27t-66 27t-26 65zM164 632q0 27 -17.5 47t-45.5 20t-46 -20t-18 -47t18 -47.5t46 -20.5t45.5 20t17.5 48z" />
    <glyph glyph-name="_680" horiz-adv-x="0" 
d="M-188 602l-33 22q-3 3 -14 10q-20 14 -45 14q-50 0 -47 -63h-31q-2 43 20 66t61 23q34 0 71 -26l32 -22l15 -11q20 -13 45 -13q51 0 49 63h31q0 -89 -81 -89q-35 0 -73 26z" />
    <glyph glyph-name="_681" horiz-adv-x="0" 
d="M-360 606v27h323v-27h-323z" />
    <glyph glyph-name="_682" horiz-adv-x="0" 
d="M-85 -195v88h30v-88h-30z" />
    <glyph glyph-name="NULL" horiz-adv-x="0" 
 />
    </font>
</defs>
</svg>
