<?xml version="1.0" standalone="no"?>
<!DOCTYPE svg PUBLIC "-//W3C//DTD SVG 1.1//EN" "http://www.w3.org/Graphics/SVG/1.1/DTD/svg11.dtd" >
<svg xmlns="http://www.w3.org/2000/svg" xmlns:xlink="http://www.w3.org/1999/xlink" version="1.1">
<metadata>
Created by FontForge 20170731 at Tue Mar 12 05:31:08 2019
 By Aleksey,,,
Copyright 2019 Dinamo (Johannes Breyer, Fabian Harb) &#38; Erkin Karamemet. All rights reserved.
</metadata>
<defs>
<font id="WhyteInktrap-MediumItalic" horiz-adv-x="620" >
  <font-face 
    font-family="Whyte Inktrap Medium"
    font-weight="500"
    font-style="italic"
    font-stretch="normal"
    units-per-em="1000"
    panose-1="2 11 0 4 5 1 1 2 1 3"
    ascent="800"
    descent="-200"
    x-height="498"
    cap-height="700"
    bbox="-382 -326 1271 1133"
    underline-thickness="24"
    underline-position="-97"
    slope="-12"
    unicode-range="U+000D-FB02"
  />
<missing-glyph horiz-adv-x="699" 
d="M41 0l149 703h512l-149 -703h-512zM163 91h306l111 521h-307z" />
    <glyph glyph-name="fi" unicode="fi" horiz-adv-x="636" 
d="M534 701h128l-26 -125h-129zM617 498l-106 -498h-121l86 403h-204l-86 -403h-122l87 403h-100l20 95h100l16 71q14 69 46 100t98 31h144l-21 -99h-94q-46 0 -56 -47l-12 -56h325z" />
    <glyph glyph-name="fl" unicode="fl" horiz-adv-x="645" 
d="M667 700l-150 -700h-121l128 601h-164q-46 0 -56 -47l-12 -56h120l-20 -95h-120l-86 -403h-122l87 403h-100l20 95h100l16 71q14 69 46 100t98 31h336z" />
    <glyph glyph-name="f_f" unicode="ff" horiz-adv-x="705" 
d="M634 554l-11 -56h119l-19 -95h-120l-86 -403h-122l87 403h-210l-86 -403h-122l87 403h-100l20 95h100l16 71q14 69 46 100t98 31h144l-21 -99h-94q-46 0 -56 -47l-12 -56h209l16 71q16 69 47.5 100t96.5 31h145l-22 -99h-94q-46 0 -56 -47z" />
    <glyph glyph-name="f_f_i" unicode="ffi" horiz-adv-x="966" 
d="M864 701h128l-26 -125h-129zM947 498l-106 -498h-121l86 403h-203l-86 -403h-122l87 403h-210l-86 -403h-122l87 403h-100l20 95h100l16 71q14 69 46 100t98 31h144l-21 -99h-94q-46 0 -56 -47l-12 -56h209l16 71q16 69 47.5 100t96.5 31h145l-22 -99h-94q-46 0 -56 -47
l-11 -56h324z" />
    <glyph glyph-name="f_f_l" unicode="ffl" horiz-adv-x="975" 
d="M997 700l-150 -700h-121l128 601h-164q-46 0 -56 -47l-11 -56h119l-19 -95h-120l-86 -403h-122l87 403h-210l-86 -403h-122l87 403h-100l20 95h100l16 71q14 69 46 100t98 31h144l-21 -99h-94q-46 0 -56 -47l-12 -56h209l16 71q16 69 47.5 100t96.5 31h336z" />
    <glyph glyph-name=".notdef" horiz-adv-x="699" 
d="M41 0l149 703h512l-149 -703h-512zM163 91h306l111 521h-307z" />
    <glyph glyph-name=".null" horiz-adv-x="0" 
 />
    <glyph glyph-name="nonmarkingreturn" horiz-adv-x="333" 
 />
    <glyph glyph-name="CR" unicode="&#xd;" horiz-adv-x="246" 
 />
    <glyph glyph-name="space" unicode=" " horiz-adv-x="246" 
 />
    <glyph glyph-name="exclam" unicode="!" horiz-adv-x="284" 
d="M113 239l21 282l38 179h132l-38 -181l-99 -280h-54zM15 0l31 146h148l-31 -146h-148z" />
    <glyph glyph-name="quotedbl" unicode="&#x22;" horiz-adv-x="412" 
d="M119 396l4 193l23 111h125l-24 -111l-71 -193h-57zM307 396l4 193l23 111h125l-24 -111l-71 -193h-57z" />
    <glyph glyph-name="numbersign" unicode="#" horiz-adv-x="744" 
d="M66 0l27 65q12 34 33.5 61t63.5 58l-29 39q-47 -45 -96 -45h-43l21 100h141l61 144h-121l23 108h143l72 170h108l-24 -57q-15 -35 -36 -61.5t-61 -57.5l29 -38q25 26 49 35t61 9h51l71 170h107l-23 -57q-25 -65 -97 -119l29 -38q26 26 47 35t50 9h42l-23 -108h-141
l-61 -144h122l-21 -100h-143l-75 -178h-108l28 65q28 67 97 119l-29 39q-27 -27 -50.5 -36t-59.5 -9h-51l-76 -178h-108zM292 278h142l59 144h-140z" />
    <glyph glyph-name="dollar" unicode="$" horiz-adv-x="611" 
d="M184 -102l22 99q-76 20 -122.5 71.5t-55.5 121.5l119 39q12 -86 83 -121l42 197l-21 8q-75 30 -108.5 66.5t-35.5 116.5q0 98 69.5 158.5t184.5 60.5l20 86h85l-22 -98q67 -18 110 -63t56 -105l-119 -41q-19 71 -72 97l-41 -188l23 -7q161 -61 161 -188
q0 -105 -71.5 -164t-202.5 -59l-18 -87h-86zM300 430l12 58q15 82 68 122l-22 36q-127 -39 -127 -138q0 -61 69 -78zM432 196q0 62 -79 82l-14 -65q-15 -78 -67 -120l21 -36q65 17 102 54t37 85z" />
    <glyph glyph-name="percent" unicode="%" horiz-adv-x="937" 
d="M108 0l644 700h122l-643 -700h-123zM549 163q0 103 55 175t134 72q73 0 115 -46t42 -125q0 -103 -54.5 -174.5t-135.5 -71.5q-74 0 -115 45t-41 125zM793 239q0 89 -55 89q-34 0 -61 -50.5t-27 -114.5q0 -88 55 -88q35 0 61.5 49.5t26.5 114.5zM87 461q0 103 55 175
t134 72q73 0 115 -46t42 -125q0 -103 -54.5 -174.5t-135.5 -71.5q-74 0 -115 45t-41 125zM331 537q0 89 -55 89q-34 0 -61 -50.5t-27 -114.5q0 -88 55 -88q35 0 61.5 49.5t26.5 114.5z" />
    <glyph glyph-name="ampersand" unicode="&#x26;" horiz-adv-x="690" 
d="M27 175q0 126 162 209q-16 49 -16 102q0 96 55 162.5t147 66.5q83 0 130 -41t47 -106q0 -80 -71.5 -139t-187.5 -58l-9 -44q47 -11 100 -68q30 -34 69 -67q43 53 73 152l102 -51q-32 -94 -81 -161q49 -28 107 -49l-37 -97q-71 21 -148 67q-95 -68 -207 -68
q-111 0 -173 51.5t-62 138.5zM289 426l34 16q118 55 118 121q0 25 -18.5 42.5t-48.5 17.5q-44 0 -68 -38.5t-24 -101.5q0 -32 7 -57zM396 112l9 40q-70 1 -126 65q-24 27 -52 76q-78 -43 -78 -111q0 -45 31.5 -71t84.5 -26q79 0 131 27z" />
    <glyph glyph-name="quotesingle" unicode="'" horiz-adv-x="233" 
d="M119 396l4 193l23 111h125l-24 -111l-71 -193h-57z" />
    <glyph glyph-name="parenleft" unicode="(" horiz-adv-x="340" 
d="M42 146q0 144 47 291q48 145 135 238t199 90l-25 -110q-70 -6 -127 -89q-57 -85 -88 -199q-31 -115 -31 -221q0 -173 97 -195l-23 -111q-184 36 -184 306z" />
    <glyph glyph-name="parenright" unicode=")" horiz-adv-x="339" 
d="M320 459q0 -144 -47 -291q-46 -144 -134 -238q-87 -93 -199 -90l24 110q72 6 127 88q56 81 88 200t32 220q0 174 -97 196l23 111q183 -36 183 -306z" />
    <glyph glyph-name="asterisk" unicode="*" horiz-adv-x="549" 
d="M237 371l-81 61l29 35q41 50 100 75l-22 43q-65 -40 -124 -40h-37l23 103l144 -7l-57 128l101 44l15 -43q9 -28 9 -56q0 -22 -6 -54h47q7 67 45 121l24 33l84 -63l-96 -110l152 7l-21 -103h-39q-68 0 -122 36l-23 -42q27 -16 43.5 -34t31.5 -52l18 -38l-104 -42l-44 127z
" />
    <glyph glyph-name="plus" unicode="+" horiz-adv-x="619" 
d="M278 87v212h-212v108h212v212h108v-212h212v-108h-212v-212h-108z" />
    <glyph glyph-name="comma" unicode="," horiz-adv-x="281" 
d="M-24 -154l122 154h-77l32 146h147l-33 -154l-117 -146h-74z" />
    <glyph glyph-name="hyphen" unicode="-" horiz-adv-x="452" 
d="M64 257l25 116h325l-25 -116h-325z" />
    <glyph glyph-name="period" unicode="." horiz-adv-x="275" 
d="M17 0l31 146h148l-31 -146h-148z" />
    <glyph glyph-name="slash" unicode="/" horiz-adv-x="458" 
d="M-41 -102l459 907h124l-459 -907h-124z" />
    <glyph glyph-name="zero" unicode="0" horiz-adv-x="678" 
d="M68 277q-1 109 39 210t115.5 166t167.5 62q121 0 192 -79t71 -217q2 -109 -38 -209t-116 -163.5t-168 -61.5q-124 0 -193.5 77t-69.5 215zM521 418q0 90 -33.5 138.5t-96.5 48.5q-55 2 -101 -51t-69 -128t-22 -147q0 -90 33.5 -137t96.5 -47q56 -3 102 49t68.5 126.5
t21.5 147.5z" />
    <glyph glyph-name="one" unicode="1" horiz-adv-x="427" 
d="M159 0l94 441q17 78 50 122h-53q-75 -140 -188 -143l28 132q70 7 131.5 45t103.5 103h104l-148 -700h-122z" />
    <glyph glyph-name="two" unicode="2" horiz-adv-x="608" 
d="M8 0l31 139q157 77 238 125q192 115 192 232q0 51 -29.5 79.5t-80.5 28.5q-55 0 -90.5 -42t-41.5 -108l-128 27q13 102 82.5 168t183.5 66q110 0 174.5 -58t64.5 -146q0 -145 -159 -255q-89 -61 -301 -152l26 -49q76 56 179 56h175l-24 -111h-492z" />
    <glyph glyph-name="three" unicode="3" horiz-adv-x="596" 
d="M28 207l127 16q-1 -61 30 -95.5t90 -34.5q56 0 93 35t37 86q0 40 -28 64t-75 24h-62l22 105h57q60 0 97 31.5t37 82.5q0 38 -27 62t-68 24q-48 0 -81 -30.5t-42 -84.5l-125 30q19 87 84.5 140t173.5 53q94 0 154 -47t60 -118q0 -86 -58.5 -130t-142.5 -42l-9 -46
q72 0 117 -39t45 -98q0 -86 -73.5 -148t-186.5 -62q-114 0 -179.5 57t-66.5 165z" />
    <glyph glyph-name="four" unicode="4" horiz-adv-x="632" 
d="M321 0l37 177h-345l24 114l360 409h193l-88 -419h102l-22 -104h-103l-38 -177h-120zM381 281l27 130q11 52 30.5 88t55.5 75l-38 34l-8 -9l-274 -315l-11 -13l38 -33q24 24 44 33.5t63 9.5h73z" />
    <glyph glyph-name="five" unicode="5" horiz-adv-x="596" 
d="M28 172l124 28q4 -48 36 -77.5t83 -29.5q66 0 105 42.5t39 104.5q0 49 -31 79t-80 30q-69 0 -119 -63l-119 28l137 386h412l-24 -112h-317l-35 -98q-34 -93 -89 -137h67q51 89 139 89q82 0 135 -54.5t53 -144.5q0 -115 -77 -186.5t-197 -71.5q-106 0 -169.5 51t-72.5 136
z" />
    <glyph glyph-name="six" unicode="6" horiz-adv-x="633" 
d="M67 269q-2 193 106 321t282 125q102 0 178 -33l-26 -117q-68 33 -160 33q-110 0 -190.5 -69t-94.5 -196h46q15 58 60 91.5t113 33.5q94 0 151 -58t57 -145q0 -118 -76 -194t-191 -76q-120 0 -187.5 77t-67.5 207zM457 244q0 54 -32 84.5t-83 30.5q-61 0 -101.5 -45
t-40.5 -106q0 -51 32.5 -83t81.5 -32q62 0 102.5 45t40.5 106z" />
    <glyph glyph-name="seven" unicode="7" horiz-adv-x="529" 
d="M480 589l12 7l-25 45q-75 -53 -173 -53h-201l24 112h487l-31 -143q-156 -91 -246 -234t-112 -323h-135q17 193 130 348t270 241z" />
    <glyph glyph-name="eight" unicode="8" horiz-adv-x="619" 
d="M40 166q0 83 62 127.5t150 46.5l11 48q-140 18 -140 133q0 80 70 137t184 57q104 0 166 -50t62 -123q0 -79 -55 -118q-56 -39 -137 -43l-10 -48q66 -6 110.5 -43t44.5 -97q0 -86 -75 -147t-204 -61q-112 0 -175.5 52t-63.5 129zM481 520q0 41 -30 65t-78 24
q-55 0 -91 -31.5t-36 -77.5q0 -44 29 -67t82 -23q57 0 90.5 31.5t33.5 78.5zM425 211q0 46 -32 72t-86 26q-61 0 -99.5 -34.5t-38.5 -84.5q0 -45 32.5 -71.5t86.5 -26.5q60 0 98.5 34.5t38.5 84.5z" />
    <glyph glyph-name="nine" unicode="9" horiz-adv-x="628" 
d="M41 19l25 119q66 -34 165 -34q122 0 192 93q56 61 73 160h-46q-20 -49 -61.5 -78t-101.5 -29q-86 0 -141.5 58.5t-55.5 144.5q0 115 73.5 188.5t185.5 73.5q116 0 186 -75q69 -75 69 -214q2 -193 -102.5 -318t-276.5 -123q-112 0 -184 34zM470 494q0 50 -32 81.5
t-79 31.5q-59 0 -96.5 -43t-37.5 -101q0 -51 31 -81.5t78 -30.5q62 0 99 41t37 102z" />
    <glyph glyph-name="colon" unicode=":" horiz-adv-x="276" 
d="M88 358l31 146h148l-31 -146h-148zM10 0l31 146h148l-31 -146h-148z" />
    <glyph glyph-name="semicolon" unicode=";" horiz-adv-x="293" 
d="M99 358l31 146h148l-31 -146h-148zM-23 -154l122 154h-77l32 146h147l-33 -154l-117 -146h-74z" />
    <glyph glyph-name="less" unicode="&#x3c;" horiz-adv-x="677" 
d="M607 627v-118l-249 -89q-122 -41 -212 -46v-45q86 -5 212 -47l249 -89v-121l-535 193v170z" />
    <glyph glyph-name="equal" unicode="=" horiz-adv-x="720" 
d="M107 412v108h535v-108h-535zM107 181v107h535v-107h-535z" />
    <glyph glyph-name="greater" unicode="&#x3e;" horiz-adv-x="677" 
d="M113 72v118l249 89q121 40 212 47v44q-91 7 -212 47l-249 89v121l535 -192v-170z" />
    <glyph glyph-name="question" unicode="?" horiz-adv-x="521" 
d="M314 416q54 33 75 55.5t23 59.5q0 37 -23.5 58t-63.5 21q-51 0 -81.5 -34.5t-35.5 -101.5l-121 23q8 98 73.5 158t171.5 60q95 0 151.5 -49.5t56.5 -120.5q-3 -68 -37 -108.5t-120 -93.5q-37 -24 -53 -46.5t-22 -57.5h-116q17 76 36.5 104t85.5 73zM132 0l31 146h148
l-31 -146h-148z" />
    <glyph glyph-name="at" unicode="@" horiz-adv-x="924" 
d="M49 242q-2 127 59 237t170.5 174t240.5 62q179 0 289.5 -94.5t110.5 -253.5q2 -114 -72 -203.5t-177 -86.5q-92 0 -92 79q0 9 1 16h-35q-41 -95 -127 -95q-66 0 -104.5 50t-38.5 127q-2 93 54.5 173t134.5 77q52 0 77 -25t35 -70h40q-8 30 -8 52q0 15 4 31h99l-60 -281
q-1 -5 -1 -14q0 -29 35 -29q52 0 87.5 62.5t35.5 136.5q0 115 -79.5 184t-210.5 69q-155 2 -256 -108.5t-99 -266.5q0 -129 86 -201t219 -72q142 0 254 61l38 -89q-117 -68 -290 -68q-182 -2 -302 97.5t-118 268.5zM570 330q0 90 -79 90q-45 0 -75.5 -51t-30.5 -109
q0 -92 67 -92q50 0 84 51t34 111z" />
    <glyph glyph-name="A" unicode="A" horiz-adv-x="717" 
d="M515 0l-23 173h-291l-96 -173h-147l412 700h172l110 -700h-137zM263 284h215l-20 152q-6 42 -6 73q0 49 12 113h-48q-22 -99 -66 -180z" />
    <glyph glyph-name="B" unicode="B" horiz-adv-x="720" 
d="M39 0l149 700h288q99 0 158 -41t59 -113q0 -75 -50.5 -114t-139.5 -45l-10 -48q82 -3 127 -38t45 -102q0 -87 -74.5 -143t-189.5 -56h-362zM257 417h174q60 0 93.5 26t33.5 71q0 74 -106 74h-159zM192 111h198q65 0 103.5 30.5t38.5 79.5q0 43 -31.5 65t-87.5 22h-179z
" />
    <glyph glyph-name="C" unicode="C" horiz-adv-x="751" 
d="M65 291q-2 110 48 207.5t142.5 158t205.5 58.5q121 0 202 -63t104 -154l-130 -35q-18 59 -61 99q-42 42 -122 42q-75 2 -134.5 -44.5t-89.5 -118t-29 -150.5q0 -93 49.5 -143.5t135.5 -50.5q139 0 210 145l121 -57q-108 -200 -335 -200q-149 0 -233 82t-84 224z" />
    <glyph glyph-name="D" unicode="D" horiz-adv-x="753" 
d="M40 0l148 700h214q149 0 238.5 -79.5t89.5 -215.5q2 -169 -114 -288.5t-295 -116.5h-281zM193 111h119q133 0 208.5 82t75.5 209q0 90 -51 138t-149 48h-102z" />
    <glyph glyph-name="E" unicode="E" horiz-adv-x="649" 
d="M39 0l149 700h509l-24 -112h-380l-36 -172h285l-24 -110h-285l-41 -195h381l-24 -111h-510z" />
    <glyph glyph-name="F" unicode="F" horiz-adv-x="642" 
d="M39 0l149 700h520l-23 -112h-392l-42 -198h311l-23 -112h-311l-60 -278h-129z" />
    <glyph glyph-name="G" unicode="G" horiz-adv-x="785" 
d="M64 288q-2 108 46 206t141 160.5t208 60.5q123 0 205.5 -61t106.5 -154l-135 -39q-20 64 -66.5 101.5t-117.5 37.5q-111 2 -182.5 -91.5t-69.5 -214.5q0 -97 50.5 -148t136.5 -51q78 0 135 45.5t74 101.5h-228l23 112h359l-75 -354h-112q17 70 71 139h-59
q-31 -61 -86 -108q-52 -46 -144 -46q-120 0 -200.5 80.5t-80.5 222.5z" />
    <glyph glyph-name="H" unicode="H" horiz-adv-x="767" 
d="M39 0l149 700h129l-60 -283h325l61 283h128l-148 -700h-129l64 305h-325l-64 -305h-130z" />
    <glyph glyph-name="I" unicode="I" horiz-adv-x="312" 
d="M39 0l149 700h129l-149 -700h-129z" />
    <glyph glyph-name="J" unicode="J" horiz-adv-x="538" 
d="M4 171q0 24 5 54l130 23q-6 -40 -6 -63q0 -46 17.5 -68t57.5 -22q45 0 71.5 33.5t41.5 108.5l98 463h130l-100 -473q-26 -126 -82 -184t-159 -58q-93 0 -148.5 50t-55.5 136z" />
    <glyph glyph-name="K" unicode="K" horiz-adv-x="711" 
d="M779 700l-347 -297l241 -403h-152l-188 319l-118 -101l-47 -218h-129l149 700h130l-28 -131q-21 -94 -95 -162l33 -37l364 330h187z" />
    <glyph glyph-name="L" unicode="L" horiz-adv-x="606" 
d="M39 0l149 700h129l-124 -586h373l-24 -114h-503z" />
    <glyph glyph-name="M" unicode="M" horiz-adv-x="970" 
d="M39 0l149 700h204l51 -342q6 -45 6 -87q0 -68 -18 -148h53q12 72 27 120t44 98l207 359h213l-149 -700h-129l65 307q30 142 128 288l-46 29l-359 -624h-106l-94 623l-53 -8q18 -98 18 -167q0 -68 -13 -126l-68 -322h-130z" />
    <glyph glyph-name="N" unicode="N" horiz-adv-x="827" 
d="M39 0l149 700h186l225 -552l46 21q-22 56 -22 115q0 44 11 96l68 320h130l-149 -700h-152l-247 611l-47 -19q21 -60 21 -121q0 -48 -10 -98l-79 -373h-130z" />
    <glyph glyph-name="O" unicode="O" horiz-adv-x="825" 
d="M66 303q-3 169 115.5 292t284.5 120q156 0 246 -87t90 -231q2 -172 -114 -293.5t-284 -118.5q-156 0 -247 87t-91 231zM667 399q0 92 -53.5 148.5t-148.5 56.5q-73 2 -134.5 -41t-95.5 -113.5t-33 -149.5q0 -92 54 -148t148 -56q112 -2 188.5 90t74.5 213z" />
    <glyph glyph-name="P" unicode="P" horiz-adv-x="667" 
d="M39 0l149 700h243q126 0 191 -55.5t65 -147.5q0 -107 -79 -173.5t-203 -66.5h-182l-55 -257h-129zM246 367h156q66 0 107.5 35t41.5 92q0 42 -32.5 68t-88.5 26h-137z" />
    <glyph glyph-name="Q" unicode="Q" horiz-adv-x="842" 
d="M66 302q-2 111 51 207t146.5 152t202.5 54q156 0 246 -87t90 -231q0 -157 -103 -276q37 -28 109 -28l-23 -108q-66 0 -98.5 25t-44.5 81h-41q-70 -106 -217 -106q-143 0 -230.5 88t-87.5 229zM540 140l-29 38q-38 49 -68 65t-81 16h-15l25 109q16 3 29 3q66 0 117 -46
q42 -37 57 -130h45q47 94 47 204q0 92 -53.5 148.5t-148.5 56.5q-73 2 -134.5 -41t-95.5 -113.5t-33 -149.5q0 -92 54 -148t148 -56q75 0 136 44z" />
    <glyph glyph-name="R" unicode="R" horiz-adv-x="715" 
d="M39 0l149 700h283q105 0 166 -46t61 -129q0 -98 -69 -137q-70 -38 -164 -38l-10 -49q79 -2 112.5 -29t42.5 -102l21 -170h-138l-14 160q-5 66 -27.5 90.5t-87.5 24.5h-136l-59 -275h-130zM250 385h166q68 0 107.5 31.5t39.5 84.5q0 42 -29.5 64.5t-80.5 22.5h-160z" />
    <glyph glyph-name="S" unicode="S" horiz-adv-x="646" 
d="M25 194l127 38q8 -59 52 -99.5t115 -40.5q64 0 101 28.5t37 72.5q0 35 -23.5 55.5t-78.5 35.5l-78 22q-84 24 -126.5 66t-42.5 125q0 94 74 156t193 62q118 0 185.5 -52.5t85.5 -136.5l-126 -36q-14 53 -51 85t-98 32q-57 0 -92 -28t-35 -69q0 -33 20 -52.5t66 -32.5
l88 -26q179 -49 180 -191q0 -101 -76.5 -162t-205.5 -61q-126 0 -201.5 58t-89.5 151z" />
    <glyph glyph-name="T" unicode="T" horiz-adv-x="639" 
d="M201 0l125 588h-242l24 112h615l-24 -112h-244l-125 -588h-129z" />
    <glyph glyph-name="U" unicode="U" horiz-adv-x="753" 
d="M82 207q0 33 8 78l89 415h130l-88 -408q-7 -29 -7 -61q0 -63 36 -97.5t104 -34.5q82 0 128.5 48t67.5 145l87 408h129l-91 -428q-32 -148 -108 -217.5t-213 -69.5q-129 0 -200.5 57t-71.5 165z" />
    <glyph glyph-name="V" unicode="V" horiz-adv-x="692" 
d="M200 0l-85 700h139l40 -414q4 -33 4 -73q0 -63 -13 -116h50q24 101 70 189l215 414h148l-381 -700h-187z" />
    <glyph glyph-name="W" unicode="W" horiz-adv-x="1027" 
d="M151 0l-28 700h132l3 -326q0 -106 -31 -253h51q25 123 68 212l177 367h168l17 -366q1 -19 1 -40q0 -85 -20 -173h50q15 77 30 132q18 59 46 123l143 324h143l-334 -700h-155l-20 369q-1 18 -1 39q0 78 21 180h-51q-26 -118 -74 -218l-179 -370h-157z" />
    <glyph glyph-name="X" unicode="X" horiz-adv-x="692" 
d="M-44 0l337 369l-186 331h146l66 -121q33 -62 33 -111q0 -28 -7 -60h49q14 59 31 90.5t62 84.5l105 117h159l-306 -333l207 -367h-149l-80 150q-34 64 -34 121q0 23 6 55h-49q-15 -57 -31.5 -88.5t-64.5 -87.5l-135 -150h-159z" />
    <glyph glyph-name="Y" unicode="Y" horiz-adv-x="662" 
d="M215 0l61 289l-164 411h142l62 -167q20 -55 20 -104q0 -26 -8 -77h49q13 61 27 96.5t51 85.5l126 166h157l-332 -410l-62 -290h-129z" />
    <glyph glyph-name="Z" unicode="Z" horiz-adv-x="645" 
d="M-10 0l33 158l523 455l-32 40q-71 -65 -164 -65h-224l24 112h538l-33 -151l-528 -459l35 -40q63 63 171 63h249l-25 -113h-567z" />
    <glyph glyph-name="bracketleft" unicode="[" horiz-adv-x="350" 
d="M0 -150l192 905h239l-20 -96h-127l-152 -713h127l-21 -96h-238z" />
    <glyph glyph-name="backslash" unicode="\" horiz-adv-x="433" 
d="M219 -102l-73 907h112l74 -907h-113z" />
    <glyph glyph-name="bracketright" unicode="]" horiz-adv-x="350" 
d="M373 755l-192 -905h-239l20 96h127l152 713h-127l21 96h238z" />
    <glyph glyph-name="asciicircum" unicode="^" horiz-adv-x="562" 
d="M71 332l172 368h134l171 -368h-129l-52 122q-30 74 -35 175h-45q-5 -103 -37 -174l-52 -123h-127z" />
    <glyph glyph-name="underscore" unicode="_" horiz-adv-x="634" 
d="M-37 -161l22 102h539l-22 -102h-539z" />
    <glyph glyph-name="grave" unicode="`" horiz-adv-x="430" 
d="M252 566l-83 149h138l17 -149h-72z" />
    <glyph glyph-name="a" unicode="a" horiz-adv-x="560" 
d="M25 118q0 100 96 150q98 50 257 54l4 20q2 10 2 15q0 63 -88 63q-91 0 -127 -81l-111 37q20 58 81 97.5t158 39.5t150 -40t53 -115q0 -25 -6 -52l-39 -185q-1 -3 -1 -9q0 -16 20 -16h52l-21 -96h-44q-44 0 -64 15t-20 48q0 17 4 36h-47q-47 -114 -169 -114q-60 0 -100 34
t-40 99zM354 205l7 36q-210 -7 -210 -106q0 -27 18.5 -42.5t50.5 -15.5q44 0 83 35.5t51 92.5z" />
    <glyph glyph-name="b" unicode="b" horiz-adv-x="605" 
d="M176 111h-52q17 -36 17 -78q0 -18 -4 -33h-116l150 700h121l-22 -101q-24 -110 -106 -199h65q61 113 159 113q79 0 129.5 -59t50.5 -152q2 -130 -74 -224.5t-178 -92.5q-60 0 -92 33t-48 93zM444 292q0 125 -105 125q-62 0 -106 -65t-44 -144q0 -127 105 -127
q63 -2 107.5 65.5t42.5 145.5z" />
    <glyph glyph-name="c" unicode="c" horiz-adv-x="556" 
d="M38 210q-2 119 78.5 212t199.5 91q86 0 146 -43.5t77 -112.5l-116 -33q-10 42 -39.5 66.5t-71.5 24.5q-69 0 -110.5 -62t-41.5 -140q0 -62 31 -95.5t83 -33.5q86 0 133 102l107 -51q-78 -150 -248 -150q-103 0 -165.5 60.5t-62.5 164.5z" />
    <glyph glyph-name="d" unicode="d" horiz-adv-x="606" 
d="M38 197q-2 128 70 224t164 93q123 0 159 -128h56q-22 35 -22 85q0 31 11 86l30 143h122l-149 -700h-107q7 21 26 49t40 48h-63q-39 -57 -76.5 -84.5t-89.5 -27.5q-75 0 -123 59t-48 153zM418 290q0 127 -106 127q-63 0 -106.5 -65.5t-43.5 -145.5q0 -61 27.5 -93
t78.5 -32q62 0 106 66t44 143z" />
    <glyph glyph-name="e" unicode="e" horiz-adv-x="553" 
d="M36 198q-2 76 32.5 149t99 120.5t140.5 45.5q97 0 152.5 -56t55.5 -146q0 -44 -14 -92h-349q-3 -17 -3 -33q0 -49 27.5 -77t77.5 -28q84 0 135 92l102 -48q-76 -140 -237 -140q-106 0 -162.5 54.5t-56.5 158.5zM171 309h229q1 9 1 18q0 44 -25 69.5t-69 25.5
q-45 0 -82 -30t-54 -83z" />
    <glyph glyph-name="f" unicode="f" horiz-adv-x="374" 
d="M64 0l87 403h-100l20 95h100l16 71q14 69 46 100t98 31h144l-21 -99h-94q-46 0 -56 -47l-12 -56h120l-20 -95h-120l-86 -403h-122z" />
    <glyph glyph-name="g" unicode="g" horiz-adv-x="601" 
d="M-38 -106q0 73 84 99l9 44q-40 18 -40 57q0 34 26 60t73 38l10 43q-36 34 -36 89q0 76 60 132.5t149 56.5q71 0 113.5 -29.5t56.5 -75.5h44q21 90 93 90h36l-20 -98h-47q-29 0 -40.5 -9.5t-20.5 -42.5l-12 -39q-45 -161 -209 -161q-69 0 -122 24q-23 -6 -37 -19t-14 -27
q0 -27 46 -27h178q82 0 125 -38.5t43 -96.5q0 -76 -53.5 -117.5t-159.5 -41.5h-213q-58 0 -90 26.5t-32 62.5zM396 345q0 36 -23 58t-62 22q-44 0 -75.5 -32.5t-31.5 -78.5q0 -37 22 -58.5t63 -21.5q44 0 75.5 32t31.5 79zM127 -102h185q77 0 77 58q0 44 -61 44h-225
q-40 -25 -40 -57q0 -45 64 -45z" />
    <glyph glyph-name="h" unicode="h" horiz-adv-x="588" 
d="M22 0l149 700h122l-27 -125q-21 -94 -100 -185h62q58 123 162 123q68 0 108 -43t40 -113q0 -30 -7 -57l-64 -300h-121l63 297q4 15 4 36q0 37 -19.5 57.5t-56.5 20.5q-59 0 -94 -53q-33 -50 -50 -126l-49 -232h-122z" />
    <glyph glyph-name="i" unicode="i" horiz-adv-x="269" 
d="M140 576l27 125h127l-26 -125h-128zM22 0l106 498h121l-105 -498h-122z" />
    <glyph glyph-name="j" unicode="j" horiz-adv-x="276" 
d="M148 577l26 123h127l-26 -123h-127zM-131 -195l22 101h73q46 0 56 46l115 546h120l-121 -566q-14 -66 -45 -96.5t-95 -30.5h-125z" />
    <glyph glyph-name="k" unicode="k" horiz-adv-x="598" 
d="M634 498l-260 -208l180 -290h-141l-131 216l-111 -89l-27 -127h-122l149 700h121l-49 -240q-15 -67 -39 -102.5t-67 -67.5l32 -40l301 248h164z" />
    <glyph glyph-name="l" unicode="l" horiz-adv-x="270" 
d="M21 0l150 700h121l-149 -700h-122z" />
    <glyph glyph-name="m" unicode="m" horiz-adv-x="889" 
d="M22 0l106 498h102q-10 -46 -57 -96h64q25 56 58 83.5t82 27.5q50 0 82.5 -31.5t33.5 -85.5h46q21 53 60.5 85t90.5 32q67 0 108 -40.5t41 -111.5q0 -32 -7 -60l-64 -301h-121l63 295q5 28 5 44q0 72 -69 72q-61 0 -94 -54q-32 -54 -48 -129l-48 -228h-121l63 295
q6 25 6 44q0 72 -68 72q-59 0 -93 -55q-33 -51 -50 -128l-50 -228h-121z" />
    <glyph glyph-name="n" unicode="n" horiz-adv-x="588" 
d="M22 0l106 498h102q-11 -49 -63 -108h61q24 54 65.5 88.5t96.5 34.5q67 0 107.5 -41.5t40.5 -112.5q0 -28 -7 -59l-64 -300h-121l63 297q5 22 5 37q0 37 -20 57t-57 20q-59 0 -94 -53q-33 -50 -50 -126l-49 -232h-122z" />
    <glyph glyph-name="o" unicode="o" horiz-adv-x="582" 
d="M37 206q-2 123 80 216t197 91q106 0 168.5 -60.5t62.5 -162.5q2 -125 -79.5 -216t-198.5 -89q-106 0 -168 61t-62 160zM420 290q0 60 -28 92t-80 32q-66 0 -108.5 -64t-42.5 -144q0 -122 108 -122q66 0 108.5 63t42.5 143z" />
    <glyph glyph-name="p" unicode="p" horiz-adv-x="606" 
d="M-20 -195l148 693h106q-24 -57 -69 -98h64q65 113 160 113q79 0 129.5 -59t50.5 -152q1 -130 -75 -224.5t-177 -92.5q-63 0 -98 36.5t-42 89.5h-56q20 -43 20 -95q0 -31 -8 -65l-31 -146h-122zM445 292q0 125 -105 125q-63 0 -107 -65.5t-44 -143.5q0 -127 105 -127
q65 0 108 65.5t43 145.5z" />
    <glyph glyph-name="q" unicode="q" horiz-adv-x="605" 
d="M315 -195l24 109q23 106 107 183h-70q-68 -112 -168 -112q-74 0 -122 59t-48 153q-2 129 70 224.5t165 92.5q64 0 103.5 -35t54.5 -93h59q-24 46 -24 96v16h117l-146 -693h-122zM418 290q0 127 -106 127q-63 0 -106.5 -65.5t-43.5 -145.5q0 -61 27.5 -93t78.5 -32
q62 0 106 66t44 143z" />
    <glyph glyph-name="r" unicode="r" horiz-adv-x="417" 
d="M22 0l106 498h111q-13 -62 -72 -143h61q32 78 73 115.5t102 37.5q28 0 51 -4l-27 -130q-37 5 -60 5q-144 0 -183 -188l-40 -191h-122z" />
    <glyph glyph-name="s" unicode="s" horiz-adv-x="506" 
d="M5 128l114 33q6 -38 34.5 -62t75.5 -24q43 0 68 18t25 47q0 21 -14.5 34t-47.5 23l-56 15q-68 18 -101 50t-33 85q0 73 57 119.5t148 46.5q87 0 140 -36.5t66 -90.5l-107 -36q-7 34 -32.5 54.5t-65.5 20.5q-41 0 -63 -17.5t-22 -42.5q0 -19 14 -30t51 -22l48 -14
q148 -40 148 -144q0 -77 -63 -123.5t-160 -46.5q-92 0 -154.5 39t-69.5 104z" />
    <glyph glyph-name="t" unicode="t" horiz-adv-x="421" 
d="M94 115q0 14 5 36l55 252h-109l21 95h107l34 156h122l-34 -156h130l-21 -95h-130l-55 -257q0 -2 -0.5 -5t-1 -5t-0.5 -3.5v-2.5q0 -30 40 -30h118l-21 -100h-130q-60 0 -95 31t-35 84z" />
    <glyph glyph-name="u" unicode="u" horiz-adv-x="583" 
d="M50 136q0 33 7 62l65 300h121l-63 -296q-5 -23 -5 -39q0 -76 72 -76q59 0 93 54q34 55 51 129l49 228h122l-106 -498h-104q6 25 26.5 58.5t42.5 56.5h-61q-68 -130 -171 -130q-62 0 -100.5 40t-38.5 111z" />
    <glyph glyph-name="v" unicode="v" horiz-adv-x="536" 
d="M144 0l-77 498h123l26 -226q5 -45 5 -72q0 -42 -14 -121h49q10 56 24 97q15 45 41 93l120 229h130l-280 -498h-147z" />
    <glyph glyph-name="w" unicode="w" horiz-adv-x="842" 
d="M123 0l-54 498h120l11 -183q1 -22 1 -46q0 -64 -19 -179h48q17 75 28 109q13 41 41 99l98 200h143l14 -200q1 -8 1 -36q0 -60 -20 -172h48q18 74 31 114q16 44 51 121l85 173h130l-267 -498h-143l-14 190q-1 15 -1 42q0 40 5 82q4 38 18 102h-50q-18 -79 -31 -119
q-12 -41 -43 -105l-94 -192h-137z" />
    <glyph glyph-name="x" unicode="x" horiz-adv-x="520" 
d="M-42 0l237 258l-122 240h130l20 -46q21 -43 21 -97q0 -24 -5 -57h48q5 39 21.5 71.5t52.5 71.5l50 57h143l-227 -244l132 -254h-131l-33 69q-17 39 -17 83q0 31 7 60h-48q-15 -70 -75 -141l-62 -71h-142z" />
    <glyph glyph-name="y" unicode="y" horiz-adv-x="540" 
d="M442 498h135l-324 -576q-37 -69 -72.5 -93t-103.5 -24h-134l22 101h110q27 0 44 11.5t33 40.5l26 48l-123 492h129l44 -215q7 -31 7 -70t-11 -100h51q9 51 22 95q9 33 34 81z" />
    <glyph glyph-name="z" unicode="z" horiz-adv-x="497" 
d="M-13 0l30 139l345 279l-32 40q-66 -59 -135 -59h-112l21 99h399l-24 -117l-366 -296l32 -37q63 52 142 52h145l-22 -100h-423z" />
    <glyph glyph-name="braceleft" unicode="{" horiz-adv-x="356" 
d="M63 -24q0 20 5 45l28 128q6 25 6 45q0 31 -18 44t-58 13l21 102q53 0 77 19.5t36 76.5l34 161q16 78 54.5 111.5t121.5 33.5h66l-20 -93h-36q-33 0 -51.5 -16t-26.5 -53l-32 -153q-16 -68 -48.5 -91t-98.5 -25l-11 -45q101 -1 101 -86q0 -21 -6 -48l-28 -132
q-3 -15 -3 -28q0 -23 12 -32.5t39 -9.5h36l-19 -93h-48q-65 0 -99 34t-34 92z" />
    <glyph glyph-name="bar" unicode="|" horiz-adv-x="280" 
d="M10 -102l193 907h111l-192 -907h-112z" />
    <glyph glyph-name="braceright" unicode="}" horiz-adv-x="357" 
d="M316 629q0 -25 -4 -45l-28 -128q-6 -26 -6 -45q0 -31 17.5 -44t58.5 -13l-21 -102q-54 0 -77.5 -19.5t-35.5 -76.5l-34 -161q-16 -78 -54.5 -111.5t-121.5 -33.5h-66l20 93h36q33 0 51.5 16t26.5 53l32 153q16 68 48.5 91t98.5 25l11 45q-101 1 -101 86q0 22 6 48l28 132
q3 15 3 28q0 23 -12 32.5t-39 9.5h-36l19 93h48q64 0 98 -33.5t34 -92.5z" />
    <glyph glyph-name="asciitilde" unicode="~" horiz-adv-x="637" 
d="M335 295l-38 20q-37 18 -66 18q-50 0 -89 -52l-72 71q30 45 74 70t92 25q51 0 106 -29l36 -18q43 -21 70 -21q44 0 89 55l71 -73q-29 -45 -73 -70t-93 -25q-48 0 -107 29z" />
    <glyph glyph-name="uni00A0" unicode="&#xa0;" horiz-adv-x="246" 
 />
    <glyph glyph-name="exclamdown" unicode="&#xa1;" horiz-adv-x="282" 
d="M286 578l-31 -145h-149l32 145h148zM188 339l-21 -281l-39 -180h-131l38 181l99 280h54z" />
    <glyph glyph-name="cent" unicode="&#xa2;" horiz-adv-x="581" 
d="M181 -119l24 113q-75 18 -117 75t-42 141q-2 116 77 208.5t191 94.5l24 111h79l-25 -119q61 -15 103 -54t53 -92l-115 -34q-15 59 -60 78l-41 -188q-12 -53 -26 -83t-39 -53l26 -34q88 43 125 139l106 -51q-78 -145 -242 -148l-22 -104h-79zM227 97l37 176q19 103 67 143
l-27 33q-66 -32 -100.5 -97t-34.5 -141q0 -83 58 -114z" />
    <glyph glyph-name="sterling" unicode="&#xa3;" horiz-adv-x="594" 
d="M332 111h197l-24 -111h-498l26 116q65 20 109.5 61t44.5 97q0 12 -2 26h-112l18 84h64q-26 63 -26 115q0 96 71 156t175 60q102 0 162 -51.5t61 -143.5l-127 -31q0 55 -26.5 86t-76.5 31q-52 0 -81.5 -32.5t-29.5 -85.5q0 -47 22 -104h161l-18 -84h-120q1 -3 1 -16
q-2 -68 -41 -105t-125 -71l25 -45q67 48 170 48z" />
    <glyph glyph-name="currency" unicode="&#xa4;" horiz-adv-x="651" 
d="M106 76l-67 83l99 83q-18 39 -18 86q0 87 54 156l-64 80l84 70l68 -83q52 26 109 26q67 0 112 -31l103 83l68 -83l-101 -84q21 -44 21 -90q0 -76 -52 -146l66 -80l-84 -71l-67 83q-53 -31 -113 -31q-68 0 -117 36zM461 373q0 43 -26 70.5t-70 27.5q-55 0 -94.5 -42
t-39.5 -97q0 -43 27.5 -71t71.5 -28q54 0 92.5 42.5t38.5 97.5z" />
    <glyph glyph-name="yen" unicode="&#xa5;" horiz-adv-x="688" 
d="M751 700l-258 -303h123l-18 -84h-174l-15 -74h174l-18 -84h-174l-33 -155h-129l33 155h-183l18 84h183l15 74h-183l18 84h130l-135 303h139l63 -159q23 -59 23 -111q0 -26 -6 -69h49q12 61 27 99t49 84l122 156h160z" />
    <glyph glyph-name="brokenbar" unicode="&#xa6;" horiz-adv-x="280" 
d="M121 418l82 387h111l-82 -387h-111zM10 -102l83 387h111l-82 -387h-112z" />
    <glyph glyph-name="section" unicode="&#xa7;" horiz-adv-x="625" 
d="M30 -39l122 31q4 -43 30 -67t71 -24t73 23.5t28 58.5q0 25 -16.5 41.5t-54.5 29.5l-102 35q-77 26 -110 61t-33 85q0 55 42 91.5t123 42.5l9 44q-72 40 -72 115q0 73 68 130t167 57q102 0 160 -47t61 -124l-122 -29q-3 43 -29 67t-71 24t-73.5 -24.5t-28.5 -58.5
q0 -48 65 -70l108 -38q75 -26 109.5 -59.5t34.5 -80.5q0 -119 -167 -139l-10 -44q74 -42 74 -117t-64.5 -129t-170.5 -54q-102 0 -159 46.5t-62 122.5zM456 241q0 42 -66 66l-77 26q-26 10 -32 13l-11 4q-100 -31 -100 -81q0 -48 66 -70l74 -26q20 -6 44 -16q102 31 102 84z
" />
    <glyph glyph-name="dieresis" unicode="&#xa8;" horiz-adv-x="522" 
d="M151 580l24 113h119l-25 -113h-118zM360 580l25 113h118l-24 -113h-119z" />
    <glyph glyph-name="copyright" unicode="&#xa9;" horiz-adv-x="890" 
d="M74 357q-2 105 51.5 196t145.5 144t197 51q105 2 197.5 -51t146 -144t51.5 -196q2 -104 -51.5 -195.5t-146 -144.5t-197.5 -51q-161 -3 -279 114.5t-115 276.5zM775 357q2 126 -88.5 218.5t-217.5 89.5q-127 3 -218 -89.5t-89 -218.5q-2 -126 88.5 -217.5t218.5 -89.5
q127 -2 217.5 89.5t88.5 217.5zM267 361q0 93 57 152.5t148 59.5q65 0 114.5 -35t67.5 -91l-85 -28q-25 85 -103 85q-49 0 -80 -39.5t-31 -106.5q0 -65 30.5 -104t80.5 -39q41 0 68.5 24t37.5 66l85 -29q-18 -59 -69.5 -95t-117.5 -36q-95 0 -149 58t-54 158z" />
    <glyph glyph-name="ordfeminine" unicode="&#xaa;" horiz-adv-x="516" 
d="M92 463q0 106 58 176.5t137 70.5q99 0 123 -97h37q-6 27 -6 46q0 16 6 41h95l-85 -401h-83q4 35 42 84h-44q-51 -94 -135 -94q-65 0 -105 47.5t-40 126.5zM403 530q0 48 -22.5 74t-62.5 26q-52 0 -86.5 -49.5t-34.5 -112.5q0 -47 22 -73t62 -26q51 0 86.5 50t35.5 111z
" />
    <glyph glyph-name="guillemotleft" unicode="&#xab;" horiz-adv-x="583" 
d="M363 481l-199 -242l84 -217h-120l-88 230l186 229h137zM608 481l-222 -271l72 -188h-119l-77 201l210 258h136z" />
    <glyph glyph-name="logicalnot" unicode="&#xac;" horiz-adv-x="681" 
d="M500 156v147h-423v107h530v-254h-107z" />
    <glyph glyph-name="uni00AD" unicode="&#xad;" horiz-adv-x="452" 
d="M64 257l25 116h325l-25 -116h-325z" />
    <glyph glyph-name="registered" unicode="&#xae;" horiz-adv-x="575" 
d="M98 508q-2 100 68.5 171t173.5 69q104 0 173.5 -69.5t69.5 -170.5q0 -102 -69.5 -172t-173.5 -70q-103 0 -172.5 70t-69.5 172zM518 508q0 77 -49.5 128.5t-128.5 51.5q-78 0 -127 -51.5t-49 -128.5q0 -79 49 -131t127 -52q79 0 128.5 51.5t49.5 131.5zM251 393v228h119
q31 0 52.5 -15.5t21.5 -39.5t-18.5 -38t-50.5 -15v-21q28 -1 40.5 -10.5t16.5 -35.5l8 -53h-62l-6 51q-4 24 -11.5 31.5t-27.5 7.5h-24v-90h-58zM309 526h40q36 0 36 26t-36 26h-40v-52z" />
    <glyph glyph-name="macron" unicode="&#xaf;" horiz-adv-x="337" 
d="M66 584l19 85h308l-18 -85h-309z" />
    <glyph glyph-name="degree" unicode="&#xb0;" horiz-adv-x="442" 
d="M111 604q0 76 52 128t130 52q79 0 131 -52t52 -128t-52 -127t-132 -51q-78 0 -129.5 52t-51.5 126zM373 605q0 38 -22 61t-58 23q-34 0 -57 -23.5t-23 -60.5q0 -38 23 -62.5t57 -24.5q36 0 58 24t22 63z" />
    <glyph glyph-name="plusminus" unicode="&#xb1;" horiz-adv-x="689" 
d="M304 250v129h-212v101h212v139h108v-139h212v-101h-212v-129h-108zM84 87v107h535v-107h-535z" />
    <glyph glyph-name="twosuperior" unicode="&#xb2;" horiz-adv-x="393" 
d="M96 390l21 100q122 62 166.5 97.5t48.5 81.5q0 48 -44 48q-24 0 -39.5 -20.5t-18.5 -56.5l-100 15q8 66 51 105t111 39q63 0 103.5 -33t40.5 -85q0 -63 -51 -110q-28 -25 -71 -46q-42 -21 -123 -57l19 -36q40 24 63.5 32.5t62.5 8.5h59l-18 -83h-281z" />
    <glyph glyph-name="threesuperior" unicode="&#xb3;" horiz-adv-x="388" 
d="M93 517l101 12q-2 -31 11.5 -48.5t40.5 -17.5q24 0 39 14t15 37q0 18 -12.5 29t-32.5 11h-30l17 79h26q27 0 43.5 13t16.5 36q0 16 -11 26t-28 10q-22 0 -36 -16t-18 -43l-98 17q10 58 51.5 90.5t105.5 32.5q59 0 95 -26.5t36 -69.5q0 -40 -31 -64.5t-82 -26.5l-8 -34
q42 -1 68.5 -22.5t26.5 -56.5q0 -50 -44 -83.5t-111 -33.5q-71 0 -112 36.5t-39 98.5z" />
    <glyph glyph-name="acute" unicode="&#xb4;" horiz-adv-x="351" 
d="M143 566l83 149h141l-138 -149h-86z" />
    <glyph glyph-name="mu" unicode="&#xb5;" horiz-adv-x="624" 
d="M87 -195v693h122v-303q0 -108 86 -108q64 0 88 51q25 51 25 126v234h122v-498h-115q2 50 47 115h-57q-20 -60 -60.5 -95t-98.5 -35q-19 0 -37 5v-185h-122z" />
    <glyph glyph-name="paragraph" unicode="&#xb6;" horiz-adv-x="721" 
d="M380 700h391l-21 -95h-82l-169 -799h-112l170 799h-86l-170 -799h-111l93 435q-94 3 -150.5 59t-56.5 140q0 118 85 189t219 71z" />
    <glyph glyph-name="periodcentered" unicode="&#xb7;" horiz-adv-x="277" 
d="M71 281l31 146h148l-31 -146h-148z" />
    <glyph glyph-name="cedilla" unicode="&#xb8;" horiz-adv-x="380" 
d="M-19 -181l47 57q32 -29 68 -29q46 0 46 27q0 10 -9.5 17t-26.5 7q-18 0 -28 -3l-25 44l93 77l61 -16l-36 -28l-30 -23l5 1q31 0 57.5 -21t26.5 -56q0 -46 -34.5 -73t-97.5 -27q-73 0 -117 46z" />
    <glyph glyph-name="onesuperior" unicode="&#xb9;" horiz-adv-x="297" 
d="M164 390l45 208q11 53 44 100h-41q-20 -45 -41.5 -63t-60.5 -18l20 94q83 2 131 80h84l-86 -401h-95z" />
    <glyph glyph-name="ordmasculine" unicode="&#xba;" horiz-adv-x="495" 
d="M90 467q-2 93 64 169.5t167 73.5q82 0 135 -51t53 -133q0 -97 -63.5 -167t-169.5 -70q-86 0 -136 48.5t-50 129.5zM398 533q0 47 -22 73t-62 26q-49 0 -81.5 -52.5t-32.5 -115.5q0 -47 22 -72t62 -25q51 0 82.5 50.5t31.5 115.5z" />
    <glyph glyph-name="guillemotright" unicode="&#xbb;" horiz-adv-x="583" 
d="M246 481l77 -200l-210 -259h-136l222 272l-73 187h120zM457 481l88 -230l-186 -229h-137l199 243l-84 216h120z" />
    <glyph glyph-name="onequarter" unicode="&#xbc;" horiz-adv-x="887" 
d="M148 299l45 208q11 53 44 100h-41q-20 -45 -41.5 -63t-60.5 -18l20 94q83 2 131 80h84l-86 -401h-95zM33 0l644 700h122l-643 -700h-123zM654 0l20 96h-186l19 84l201 221h125l-49 -226h56l-17 -79h-56l-20 -96h-93zM692 175l8 35q11 49 65 92l-25 24l-157 -171l24 -21
q35 41 72 41h13z" />
    <glyph glyph-name="onehalf" unicode="&#xbd;" horiz-adv-x="863" 
d="M146 299l45 208q11 53 44 100h-41q-20 -45 -41.5 -63t-60.5 -18l20 94q83 2 131 80h84l-86 -401h-95zM30 0l644 700h122l-643 -700h-123zM490 0l21 100q122 62 166.5 97.5t48.5 81.5q0 48 -44 48q-24 0 -39.5 -20.5t-18.5 -56.5l-100 15q8 66 51 105t111 39
q63 0 103.5 -33t40.5 -85q0 -63 -51 -110q-28 -25 -71 -46q-42 -21 -123 -57l19 -36q40 24 63.5 32.5t62.5 8.5h59l-18 -83h-281z" />
    <glyph glyph-name="threequarters" unicode="&#xbe;" horiz-adv-x="970" 
d="M73 426l101 12q-2 -31 11.5 -48.5t40.5 -17.5q24 0 39 14t15 37q0 18 -12.5 29t-32.5 11h-30l17 79h26q27 0 43.5 13t16.5 36q0 16 -11 26t-28 10q-22 0 -36 -16t-18 -43l-98 17q10 58 51.5 90.5t105.5 32.5q59 0 95 -26.5t36 -69.5q0 -40 -31 -64.5t-82 -26.5l-8 -34
q42 -1 68.5 -22.5t26.5 -56.5q0 -50 -44 -83.5t-111 -33.5q-71 0 -112 36.5t-39 98.5zM116 0l644 700h122l-643 -700h-123zM737 0l20 96h-186l19 84l201 221h125l-49 -226h56l-17 -79h-56l-20 -96h-93zM775 175l8 35q11 49 65 92l-25 24l-157 -171l24 -21q35 41 72 41h13z
" />
    <glyph glyph-name="questiondown" unicode="&#xbf;" horiz-adv-x="524" 
d="M409 579l-31 -146h-148l32 146h147zM227 163q-54 -35 -74.5 -57t-22.5 -59q0 -36 23.5 -57t62.5 -21q51 0 81.5 34.5t36.5 101.5l120 -23q-8 -98 -73.5 -158t-171.5 -60q-95 0 -151.5 48.5t-56.5 121.5q3 68 37 108.5t121 93.5q36 23 52 45.5t22 58.5h116
q-18 -77 -37 -106t-85 -71z" />
    <glyph glyph-name="Agrave" unicode="&#xc0;" horiz-adv-x="717" 
d="M515 0l-23 173h-291l-96 -173h-147l412 700h172l110 -700h-137zM263 284h215l-20 152q-6 42 -6 73q0 49 12 113h-48q-22 -99 -66 -180zM431 768l-92 148h152l19 -148h-79z" />
    <glyph glyph-name="Aacute" unicode="&#xc1;" horiz-adv-x="717" 
d="M515 0l-23 173h-291l-96 -173h-147l412 700h172l110 -700h-137zM263 284h215l-20 152q-6 42 -6 73q0 49 12 113h-48q-22 -99 -66 -180zM422 768l91 148h156l-152 -148h-95z" />
    <glyph glyph-name="Acircumflex" unicode="&#xc2;" horiz-adv-x="717" 
d="M515 0l-23 173h-291l-96 -173h-147l412 700h172l110 -700h-137zM263 284h215l-20 152q-6 42 -6 73q0 49 12 113h-48q-22 -99 -66 -180zM259 768l150 126h170l88 -126h-115l-65 72l-103 -72h-125z" />
    <glyph glyph-name="Atilde" unicode="&#xc3;" horiz-adv-x="717" 
d="M515 0l-23 173h-291l-96 -173h-147l412 700h172l110 -700h-137zM263 284h215l-20 152q-6 42 -6 73q0 49 12 113h-48q-22 -99 -66 -180zM476 785l-28 15q-31 17 -47 17q-41 0 -53 -49h-101q10 63 49.5 97.5t99.5 34.5q44 0 91 -26l25 -14q1 0 20 -9t27 -9q37 0 54 47h101
q-11 -65 -50 -98t-98 -33q-46 0 -90 27z" />
    <glyph glyph-name="Adieresis" unicode="&#xc4;" horiz-adv-x="717" 
d="M515 0l-23 173h-291l-96 -173h-147l412 700h172l110 -700h-137zM263 284h215l-20 152q-6 42 -6 73q0 49 12 113h-48q-22 -99 -66 -180zM290 768l26 113h130l-27 -113h-129zM520 768l26 113h131l-27 -113h-130z" />
    <glyph glyph-name="Aring" unicode="&#xc5;" horiz-adv-x="717" 
d="M515 0l-23 173h-291l-96 -173h-147l412 700h172l110 -700h-137zM263 284h215l-20 152q-6 42 -6 73q0 49 12 113h-48q-22 -99 -66 -180zM354 862q0 57 39 95.5t99 38.5q52 0 86 -32.5t34 -83.5q0 -57 -39 -94.5t-99 -37.5q-51 0 -85.5 31.5t-34.5 82.5zM536 878
q0 21 -14.5 35t-34.5 14q-24 0 -41 -17.5t-17 -42.5q0 -23 14 -36.5t37 -13.5q24 0 40 17t16 44z" />
    <glyph glyph-name="AE" unicode="&#xc6;" horiz-adv-x="948" 
d="M971 588h-326l-37 -169h238l-24 -110h-237l-42 -198h328l-24 -111h-457l38 176h-210l-125 -176h-160l523 700h539zM555 622h-60q-44 -116 -112 -212l-87 -123h155l30 137q25 107 74 198z" />
    <glyph glyph-name="Ccedilla" unicode="&#xc7;" horiz-adv-x="751" 
d="M596 242l121 -57q-100 -182 -297 -199l-19 -14l-29 -23l4 1q32 0 58 -20.5t26 -56.5q0 -46 -34 -73t-97 -27q-75 0 -117 46l47 57q32 -29 68 -29q46 0 46 27q0 10 -9.5 17t-26.5 7t-28 -3l-25 44l57 47q-131 12 -203.5 92.5t-72.5 212.5q-2 110 48 207.5t142.5 158
t205.5 58.5q121 0 202 -63t104 -154l-130 -35q-18 59 -61 99q-42 42 -122 42q-75 2 -134.5 -44.5t-89.5 -118t-29 -150.5q0 -93 49.5 -143.5t135.5 -50.5q139 0 210 145z" />
    <glyph glyph-name="Egrave" unicode="&#xc8;" horiz-adv-x="649" 
d="M39 0l149 700h509l-24 -112h-380l-36 -172h285l-24 -110h-285l-41 -195h381l-24 -111h-510zM418 768l-92 148h152l19 -148h-79z" />
    <glyph glyph-name="Eacute" unicode="&#xc9;" horiz-adv-x="649" 
d="M39 0l149 700h509l-24 -112h-380l-36 -172h285l-24 -110h-285l-41 -195h381l-24 -111h-510zM409 768l91 148h156l-152 -148h-95z" />
    <glyph glyph-name="Ecircumflex" unicode="&#xca;" horiz-adv-x="663" 
d="M39 0l149 700h509l-24 -112h-380l-36 -172h285l-24 -110h-285l-41 -195h381l-24 -111h-510zM247 768l150 126h170l88 -126h-115l-65 72l-103 -72h-125z" />
    <glyph glyph-name="Edieresis" unicode="&#xcb;" horiz-adv-x="661" 
d="M39 0l149 700h509l-24 -112h-380l-36 -172h285l-24 -110h-285l-41 -195h381l-24 -111h-510zM277 768l26 113h130l-27 -113h-129zM507 768l26 113h131l-27 -113h-130z" />
    <glyph glyph-name="Igrave" unicode="&#xcc;" horiz-adv-x="347" 
d="M39 0l149 700h129l-149 -700h-129zM227 768l-92 148h152l19 -148h-79z" />
    <glyph glyph-name="Iacute" unicode="&#xcd;" horiz-adv-x="312" 
d="M39 0l149 700h129l-149 -700h-129zM218 768l91 148h156l-152 -148h-95z" />
    <glyph glyph-name="Icircumflex" unicode="&#xce;" horiz-adv-x="352" 
d="M39 0l149 700h129l-149 -700h-129zM56 768l150 126h170l88 -126h-115l-65 72l-103 -72h-125z" />
    <glyph glyph-name="Idieresis" unicode="&#xcf;" horiz-adv-x="367" 
d="M39 0l149 700h129l-149 -700h-129zM86 768l26 113h130l-27 -113h-129zM316 768l26 113h131l-27 -113h-130z" />
    <glyph glyph-name="Eth" unicode="&#xd0;" horiz-adv-x="773" 
d="M740 405q3 -168 -114 -288t-295 -117h-282l67 317h-76l20 94h76l61 289h214q150 0 239.5 -79.5t89.5 -215.5zM605 402q0 90 -51.5 138t-147.5 48h-103l-37 -177h135l-20 -94h-135l-44 -206h119q135 0 209.5 81.5t74.5 209.5z" />
    <glyph glyph-name="Ntilde" unicode="&#xd1;" horiz-adv-x="827" 
d="M39 0l149 700h186l225 -552l46 21q-22 56 -22 115q0 44 11 96l68 320h130l-149 -700h-152l-247 611l-47 -19q21 -60 21 -121q0 -48 -10 -98l-79 -373h-130zM529 785l-28 15q-31 17 -47 17q-41 0 -53 -49h-101q10 63 49.5 97.5t99.5 34.5q44 0 91 -26l25 -14q1 0 20 -9
t27 -9q37 0 54 47h101q-11 -65 -50 -98t-98 -33q-47 0 -90 27z" />
    <glyph glyph-name="Ograve" unicode="&#xd2;" horiz-adv-x="825" 
d="M66 303q-3 169 115.5 292t284.5 120q156 0 246 -87t90 -231q2 -172 -114 -293.5t-284 -118.5q-156 0 -247 87t-91 231zM667 399q0 92 -53.5 148.5t-148.5 56.5q-73 2 -134.5 -41t-95.5 -113.5t-33 -149.5q0 -92 54 -148t148 -56q112 -2 188.5 90t74.5 213zM473 768
l-92 148h152l19 -148h-79z" />
    <glyph glyph-name="Oacute" unicode="&#xd3;" horiz-adv-x="825" 
d="M66 303q-3 169 115.5 292t284.5 120q156 0 246 -87t90 -231q2 -172 -114 -293.5t-284 -118.5q-156 0 -247 87t-91 231zM667 399q0 92 -53.5 148.5t-148.5 56.5q-73 2 -134.5 -41t-95.5 -113.5t-33 -149.5q0 -92 54 -148t148 -56q112 -2 188.5 90t74.5 213zM464 768
l91 148h156l-152 -148h-95z" />
    <glyph glyph-name="Ocircumflex" unicode="&#xd4;" horiz-adv-x="825" 
d="M66 303q-3 169 115.5 292t284.5 120q156 0 246 -87t90 -231q2 -172 -114 -293.5t-284 -118.5q-156 0 -247 87t-91 231zM667 399q0 92 -53.5 148.5t-148.5 56.5q-73 2 -134.5 -41t-95.5 -113.5t-33 -149.5q0 -92 54 -148t148 -56q112 -2 188.5 90t74.5 213zM301 768
l150 126h170l88 -126h-115l-65 72l-103 -72h-125z" />
    <glyph glyph-name="Otilde" unicode="&#xd5;" horiz-adv-x="825" 
d="M66 303q-3 169 115.5 292t284.5 120q156 0 246 -87t90 -231q2 -172 -114 -293.5t-284 -118.5q-156 0 -247 87t-91 231zM667 399q0 92 -53.5 148.5t-148.5 56.5q-73 2 -134.5 -41t-95.5 -113.5t-33 -149.5q0 -92 54 -148t148 -56q112 -2 188.5 90t74.5 213zM518 785
l-28 15q-31 17 -47 17q-41 0 -53 -49h-101q10 63 49.5 97.5t99.5 34.5q44 0 91 -26l25 -14q1 0 20 -9t27 -9q37 0 54 47h101q-11 -65 -50 -98t-98 -33q-46 0 -90 27z" />
    <glyph glyph-name="Odieresis" unicode="&#xd6;" horiz-adv-x="825" 
d="M66 303q-3 169 115.5 292t284.5 120q156 0 246 -87t90 -231q2 -172 -114 -293.5t-284 -118.5q-156 0 -247 87t-91 231zM667 399q0 92 -53.5 148.5t-148.5 56.5q-73 2 -134.5 -41t-95.5 -113.5t-33 -149.5q0 -92 54 -148t148 -56q112 -2 188.5 90t74.5 213zM332 768
l26 113h130l-27 -113h-129zM562 768l26 113h131l-27 -113h-130z" />
    <glyph glyph-name="multiply" unicode="&#xd7;" horiz-adv-x="633" 
d="M164 103l-72 72l174 174l-175 174l74 74l174 -175l174 174l72 -73l-173 -173l173 -174l-73 -74l-174 174z" />
    <glyph glyph-name="Oslash" unicode="&#xd8;" horiz-adv-x="827" 
d="M122 -37l-80 78l77 76q-53 79 -53 186q-3 169 115.5 292t285.5 120q119 0 201 -54l76 75l80 -78l-74 -74q53 -80 53 -187q2 -172 -114 -293.5t-284 -118.5q-121 0 -205 55zM218 214l253 250q36 38 64 53.5t67 20.5l6 45q-56 21 -134 21q-117 3 -195 -89.5t-76 -214.5
q0 -47 15 -86zM668 399q0 45 -17 87l-254 -250q-37 -38 -66 -54q-26 -14 -66 -19l-6 -46q52 -21 143 -21q114 -2 191 89.5t75 213.5z" />
    <glyph glyph-name="Ugrave" unicode="&#xd9;" horiz-adv-x="753" 
d="M82 207q0 33 8 78l89 415h130l-88 -408q-7 -29 -7 -61q0 -63 36 -97.5t104 -34.5q82 0 128.5 48t67.5 145l87 408h129l-91 -428q-32 -148 -108 -217.5t-213 -69.5q-129 0 -200.5 57t-71.5 165zM445 768l-92 148h152l19 -148h-79z" />
    <glyph glyph-name="Uacute" unicode="&#xda;" horiz-adv-x="753" 
d="M82 207q0 33 8 78l89 415h130l-88 -408q-7 -29 -7 -61q0 -63 36 -97.5t104 -34.5q82 0 128.5 48t67.5 145l87 408h129l-91 -428q-32 -148 -108 -217.5t-213 -69.5q-129 0 -200.5 57t-71.5 165zM430 768l91 148h156l-152 -148h-95z" />
    <glyph glyph-name="Ucircumflex" unicode="&#xdb;" horiz-adv-x="753" 
d="M82 207q0 33 8 78l89 415h130l-88 -408q-7 -29 -7 -61q0 -63 36 -97.5t104 -34.5q82 0 128.5 48t67.5 145l87 408h129l-91 -428q-32 -148 -108 -217.5t-213 -69.5q-129 0 -200.5 57t-71.5 165zM267 768l150 126h170l88 -126h-115l-65 72l-103 -72h-125z" />
    <glyph glyph-name="Udieresis" unicode="&#xdc;" horiz-adv-x="753" 
d="M82 207q0 33 8 78l89 415h130l-88 -408q-7 -29 -7 -61q0 -63 36 -97.5t104 -34.5q82 0 128.5 48t67.5 145l87 408h129l-91 -428q-32 -148 -108 -217.5t-213 -69.5q-129 0 -200.5 57t-71.5 165zM297 768l26 113h130l-27 -113h-129zM527 768l26 113h131l-27 -113h-130z" />
    <glyph glyph-name="Yacute" unicode="&#xdd;" horiz-adv-x="662" 
d="M215 0l61 289l-164 411h142l62 -167q20 -55 20 -104q0 -26 -8 -77h49q13 61 27 96.5t51 85.5l126 166h157l-332 -410l-62 -290h-129zM387 768l91 148h156l-152 -148h-95z" />
    <glyph glyph-name="Thorn" unicode="&#xde;" horiz-adv-x="677" 
d="M377 134h-181l-28 -134h-129l149 700h129l-26 -123h112q127 0 192 -56t65 -148q0 -107 -79 -173t-204 -66zM524 370q0 42 -32.5 68.5t-88.5 26.5h-136l-47 -221h157q65 0 106 35t41 91z" />
    <glyph glyph-name="germandbls" unicode="&#xdf;" horiz-adv-x="621" 
d="M217 2l22 102q26 -6 56 -6q68 0 110.5 34t42.5 94q0 43 -30.5 68t-81.5 25h-47l20 93h36q60 0 98 33t38 82q0 40 -27 64.5t-72 24.5q-106 0 -135 -136l-103 -480h-122l103 484q25 116 89 173.5t179 57.5q93 0 152 -45t59 -120q0 -67 -50.5 -111.5t-133.5 -47.5l-9 -49
q73 -2 116.5 -38t43.5 -102q0 -92 -75 -151.5t-185 -59.5q-63 0 -94 11z" />
    <glyph glyph-name="agrave" unicode="&#xe0;" horiz-adv-x="560" 
d="M25 118q0 100 96 150q98 50 257 54l4 20q2 10 2 15q0 63 -88 63q-91 0 -127 -81l-111 37q20 58 81 97.5t158 39.5t150 -40t53 -115q0 -25 -6 -52l-39 -185q-1 -3 -1 -9q0 -16 20 -16h52l-21 -96h-44q-44 0 -64 15t-20 48q0 17 4 36h-47q-47 -114 -169 -114q-60 0 -100 34
t-40 99zM354 205l7 36q-210 -7 -210 -106q0 -27 18.5 -42.5t50.5 -15.5q44 0 83 35.5t51 92.5zM289 566l-83 149h138l17 -149h-72z" />
    <glyph glyph-name="aacute" unicode="&#xe1;" horiz-adv-x="560" 
d="M25 118q0 100 96 150q98 50 257 54l4 20q2 10 2 15q0 63 -88 63q-91 0 -127 -81l-111 37q20 58 81 97.5t158 39.5t150 -40t53 -115q0 -25 -6 -52l-39 -185q-1 -3 -1 -9q0 -16 20 -16h52l-21 -96h-44q-44 0 -64 15t-20 48q0 17 4 36h-47q-47 -114 -169 -114q-60 0 -100 34
t-40 99zM354 205l7 36q-210 -7 -210 -106q0 -27 18.5 -42.5t50.5 -15.5q44 0 83 35.5t51 92.5zM281 566l83 149h141l-138 -149h-86z" />
    <glyph glyph-name="acircumflex" unicode="&#xe2;" horiz-adv-x="560" 
d="M25 118q0 100 96 150q98 50 257 54l4 20q2 10 2 15q0 63 -88 63q-91 0 -127 -81l-111 37q20 58 81 97.5t158 39.5t150 -40t53 -115q0 -25 -6 -52l-39 -185q-1 -3 -1 -9q0 -16 20 -16h52l-21 -96h-44q-44 0 -64 15t-20 48q0 17 4 36h-47q-47 -114 -169 -114q-60 0 -100 34
t-40 99zM354 205l7 36q-210 -7 -210 -106q0 -27 18.5 -42.5t50.5 -15.5q44 0 83 35.5t51 92.5zM133 566l136 127h154l81 -127h-105l-60 72l-93 -72h-113z" />
    <glyph glyph-name="atilde" unicode="&#xe3;" horiz-adv-x="575" 
d="M25 118q0 100 96 150q98 50 257 54l4 20q2 10 2 15q0 63 -88 63q-91 0 -127 -81l-111 37q20 58 81 97.5t158 39.5t150 -40t53 -115q0 -25 -6 -52l-39 -185q-1 -3 -1 -9q0 -16 20 -16h52l-21 -96h-44q-44 0 -64 15t-20 48q0 17 4 36h-47q-47 -114 -169 -114q-60 0 -100 34
t-40 99zM354 205l7 36q-210 -7 -210 -106q0 -27 18.5 -42.5t50.5 -15.5q44 0 83 35.5t51 92.5zM323 588l-24 16q-31 17 -43 17q-38 0 -49 -49h-92q10 63 45.5 97.5t89.5 34.5q42 0 83 -26l24 -14q31 -21 42 -18q35 0 49 47h92q-19 -131 -135 -131q-41 0 -82 26z" />
    <glyph glyph-name="adieresis" unicode="&#xe4;" horiz-adv-x="560" 
d="M25 118q0 100 96 150q98 50 257 54l4 20q2 10 2 15q0 63 -88 63q-91 0 -127 -81l-111 37q20 58 81 97.5t158 39.5t150 -40t53 -115q0 -25 -6 -52l-39 -185q-1 -3 -1 -9q0 -16 20 -16h52l-21 -96h-44q-44 0 -64 15t-20 48q0 17 4 36h-47q-47 -114 -169 -114q-60 0 -100 34
t-40 99zM354 205l7 36q-210 -7 -210 -106q0 -27 18.5 -42.5t50.5 -15.5q44 0 83 35.5t51 92.5zM162 580l24 113h119l-25 -113h-118zM371 580l25 113h118l-24 -113h-119z" />
    <glyph glyph-name="aring" unicode="&#xe5;" horiz-adv-x="560" 
d="M25 118q0 100 96 150q98 50 257 54l4 20q2 10 2 15q0 63 -88 63q-91 0 -127 -81l-111 37q20 58 81 97.5t158 39.5t150 -40t53 -115q0 -25 -6 -52l-39 -185q-1 -3 -1 -9q0 -16 20 -16h52l-21 -96h-44q-44 0 -64 15t-20 48q0 17 4 36h-47q-47 -114 -169 -114q-60 0 -100 34
t-40 99zM354 205l7 36q-210 -7 -210 -106q0 -27 18.5 -42.5t50.5 -15.5q44 0 83 35.5t51 92.5zM213 659q0 55 37 91.5t95 36.5q48 0 81 -31.5t33 -79.5q0 -55 -37 -90t-94 -35q-49 0 -82 29.5t-33 78.5zM387 674q0 21 -13.5 34t-33.5 13q-23 0 -39 -16.5t-16 -40.5
q0 -22 13 -34.5t35 -12.5q23 0 38.5 16t15.5 41z" />
    <glyph glyph-name="ae" unicode="&#xe6;" horiz-adv-x="875" 
d="M21 117q0 66 48.5 111.5t126 66.5t178.5 23l5 26q2 10 2 16q0 28 -22.5 44t-62.5 16q-44 0 -77.5 -24t-46.5 -57l-111 37q17 54 80 95.5t147 41.5q66 0 108 -28.5t53 -71.5h43q13 40 55 70t99 30q86 0 138.5 -56.5t52.5 -145.5q0 -41 -14 -92h-350q-3 -17 -3 -33
q0 -50 27.5 -77.5t79.5 -27.5q82 0 133 92l103 -48q-79 -140 -240 -140q-72 0 -118.5 33t-55.5 88h-44q-56 -121 -186 -121q-65 0 -106.5 35.5t-41.5 96.5zM492 307h229q1 8 1 18q0 45 -25 71t-69 26q-46 0 -82.5 -30.5t-53.5 -84.5zM349 199l9 40q-89 -1 -151 -27
q-60 -24 -60 -83q0 -23 19 -37.5t51 -14.5q48 0 83 31.5t49 90.5z" />
    <glyph glyph-name="ccedilla" unicode="&#xe7;" horiz-adv-x="556" 
d="M407 186l107 -51q-67 -129 -203 -147l-20 -16l-30 -23l5 1q31 0 57.5 -21t26.5 -56q0 -46 -34.5 -73t-97.5 -27q-73 0 -117 46l47 57q32 -29 68 -29q46 0 46 27q0 10 -9.5 17t-26.5 7q-18 0 -28 -3l-25 44l58 48q-89 9 -141.5 68t-52.5 155q-2 119 79 212t199 91
q87 0 146 -43t78 -113l-116 -33q-10 42 -39.5 66.5t-71.5 24.5q-70 0 -111 -61.5t-41 -140.5q0 -62 30.5 -95.5t82.5 -33.5q84 0 134 102z" />
    <glyph glyph-name="egrave" unicode="&#xe8;" horiz-adv-x="553" 
d="M36 198q-2 76 32.5 149t99 120.5t140.5 45.5q97 0 152.5 -56t55.5 -146q0 -44 -14 -92h-349q-3 -17 -3 -33q0 -49 27.5 -77t77.5 -28q84 0 135 92l102 -48q-76 -140 -237 -140q-106 0 -162.5 54.5t-56.5 158.5zM171 309h229q1 9 1 18q0 44 -25 69.5t-69 25.5
q-45 0 -82 -30t-54 -83zM306 566l-83 149h138l17 -149h-72z" />
    <glyph glyph-name="eacute" unicode="&#xe9;" horiz-adv-x="553" 
d="M36 198q-2 76 32.5 149t99 120.5t140.5 45.5q97 0 152.5 -56t55.5 -146q0 -44 -14 -92h-349q-3 -17 -3 -33q0 -49 27.5 -77t77.5 -28q84 0 135 92l102 -48q-76 -140 -237 -140q-106 0 -162.5 54.5t-56.5 158.5zM171 309h229q1 9 1 18q0 44 -25 69.5t-69 25.5
q-45 0 -82 -30t-54 -83zM298 566l83 149h141l-138 -149h-86z" />
    <glyph glyph-name="ecircumflex" unicode="&#xea;" horiz-adv-x="553" 
d="M36 198q-2 76 32.5 149t99 120.5t140.5 45.5q97 0 152.5 -56t55.5 -146q0 -44 -14 -92h-349q-3 -17 -3 -33q0 -49 27.5 -77t77.5 -28q84 0 135 92l102 -48q-76 -140 -237 -140q-106 0 -162.5 54.5t-56.5 158.5zM171 309h229q1 9 1 18q0 44 -25 69.5t-69 25.5
q-45 0 -82 -30t-54 -83zM150 566l136 127h154l81 -127h-105l-60 72l-93 -72h-113z" />
    <glyph glyph-name="edieresis" unicode="&#xeb;" horiz-adv-x="553" 
d="M36 198q-2 76 32.5 149t99 120.5t140.5 45.5q97 0 152.5 -56t55.5 -146q0 -44 -14 -92h-349q-3 -17 -3 -33q0 -49 27.5 -77t77.5 -28q84 0 135 92l102 -48q-76 -140 -237 -140q-106 0 -162.5 54.5t-56.5 158.5zM171 309h229q1 9 1 18q0 44 -25 69.5t-69 25.5
q-45 0 -82 -30t-54 -83zM179 580l24 113h119l-25 -113h-118zM388 580l25 113h118l-24 -113h-119z" />
    <glyph glyph-name="igrave" unicode="&#xec;" horiz-adv-x="271" 
d="M22 0l106 498h121l-105 -498h-122zM168 566l-83 149h138l17 -149h-72z" />
    <glyph glyph-name="iacute" unicode="&#xed;" horiz-adv-x="271" 
d="M22 0l106 498h121l-105 -498h-122zM161 566l83 149h141l-138 -149h-86z" />
    <glyph glyph-name="icircumflex" unicode="&#xee;" horiz-adv-x="271" 
d="M22 0l106 498h121l-105 -498h-122zM13 566l136 127h154l81 -127h-105l-60 72l-93 -72h-113z" />
    <glyph glyph-name="idieresis" unicode="&#xef;" horiz-adv-x="271" 
d="M22 0l106 498h121l-105 -498h-122zM42 580l24 113h119l-25 -113h-118zM251 580l25 113h118l-24 -113h-119z" />
    <glyph glyph-name="eth" unicode="&#xf0;" horiz-adv-x="605" 
d="M619 654l-90 -60q47 -76 48 -183q1 -109 -36.5 -206.5t-112 -159.5t-168.5 -60q-105 0 -165 55.5t-60 152.5q-2 102 68 183t166 79q63 0 101.5 -33.5t47.5 -89.5h44q5 33 5 60q0 82 -33 140l-80 -53l-41 63l70 46q-43 31 -106 31q-58 0 -117 -22l20 99q60 19 121 19
q106 0 178 -63l98 65zM405 240q0 52 -31.5 85t-81.5 33q-56 0 -95.5 -46t-39.5 -111q0 -54 31 -85.5t79 -31.5q60 0 99 46.5t39 109.5z" />
    <glyph glyph-name="ntilde" unicode="&#xf1;" horiz-adv-x="588" 
d="M22 0l106 498h102q-11 -49 -63 -108h61q24 54 65.5 88.5t96.5 34.5q67 0 107.5 -41.5t40.5 -112.5q0 -28 -7 -59l-64 -300h-121l63 297q5 22 5 37q0 37 -20 57t-57 20q-59 0 -94 -53q-33 -50 -50 -126l-49 -232h-122zM363 588l-24 16q-31 17 -43 17q-38 0 -49 -49h-92
q10 63 45.5 97.5t89.5 34.5q42 0 83 -26l24 -14q31 -21 42 -18q35 0 49 47h92q-19 -131 -135 -131q-41 0 -82 26z" />
    <glyph glyph-name="ograve" unicode="&#xf2;" horiz-adv-x="582" 
d="M37 206q-2 123 80 216t197 91q106 0 168.5 -60.5t62.5 -162.5q2 -125 -79.5 -216t-198.5 -89q-106 0 -168 61t-62 160zM420 290q0 60 -28 92t-80 32q-66 0 -108.5 -64t-42.5 -144q0 -122 108 -122q66 0 108.5 63t42.5 143zM314 566l-83 149h138l17 -149h-72z" />
    <glyph glyph-name="oacute" unicode="&#xf3;" horiz-adv-x="582" 
d="M37 206q-2 123 80 216t197 91q106 0 168.5 -60.5t62.5 -162.5q2 -125 -79.5 -216t-198.5 -89q-106 0 -168 61t-62 160zM420 290q0 60 -28 92t-80 32q-66 0 -108.5 -64t-42.5 -144q0 -122 108 -122q66 0 108.5 63t42.5 143zM306 566l83 149h141l-138 -149h-86z" />
    <glyph glyph-name="ocircumflex" unicode="&#xf4;" horiz-adv-x="582" 
d="M37 206q-2 123 80 216t197 91q106 0 168.5 -60.5t62.5 -162.5q2 -125 -79.5 -216t-198.5 -89q-106 0 -168 61t-62 160zM420 290q0 60 -28 92t-80 32q-66 0 -108.5 -64t-42.5 -144q0 -122 108 -122q66 0 108.5 63t42.5 143zM158 566l136 127h154l81 -127h-105l-60 72
l-93 -72h-113z" />
    <glyph glyph-name="otilde" unicode="&#xf5;" horiz-adv-x="582" 
d="M37 206q-2 123 80 216t197 91q106 0 168.5 -60.5t62.5 -162.5q2 -125 -79.5 -216t-198.5 -89q-106 0 -168 61t-62 160zM420 290q0 60 -28 92t-80 32q-66 0 -108.5 -64t-42.5 -144q0 -122 108 -122q66 0 108.5 63t42.5 143zM348 588l-24 16q-31 17 -43 17q-38 0 -49 -49
h-92q10 63 45.5 97.5t89.5 34.5q42 0 83 -26l24 -14q31 -21 42 -18q35 0 49 47h92q-19 -131 -135 -131q-41 0 -82 26z" />
    <glyph glyph-name="odieresis" unicode="&#xf6;" horiz-adv-x="582" 
d="M37 206q-2 123 80 216t197 91q106 0 168.5 -60.5t62.5 -162.5q2 -125 -79.5 -216t-198.5 -89q-106 0 -168 61t-62 160zM420 290q0 60 -28 92t-80 32q-66 0 -108.5 -64t-42.5 -144q0 -122 108 -122q66 0 108.5 63t42.5 143zM187 580l24 113h119l-25 -113h-118zM396 580
l25 113h118l-24 -113h-119z" />
    <glyph glyph-name="divide" unicode="&#xf7;" horiz-adv-x="634" 
d="M266 485v134h149v-134h-149zM74 299v108h531v-108h-531zM266 87v133h149v-133h-149z" />
    <glyph glyph-name="oslash" unicode="&#xf8;" horiz-adv-x="583" 
d="M120 29l-51 -49l-56 57l53 51q-28 52 -28 118q-3 123 80 216t197 91q90 0 148 -44l54 51l54 -57l-54 -52q29 -56 29 -121q2 -125 -79.5 -216t-198.5 -89q-89 0 -148 44zM163 181l122 117q36 34 61 46.5t55 11.5l10 42q-37 19 -87 19q-61 0 -106.5 -50t-52.5 -132
q-3 -17 -3 -33zM418 261q3 17 3 33t-1 24l-120 -117q-61 -61 -117 -61l-10 -42q33 -16 83 -16q64 0 109.5 49t52.5 130z" />
    <glyph glyph-name="ugrave" unicode="&#xf9;" horiz-adv-x="583" 
d="M50 136q0 33 7 62l65 300h121l-63 -296q-5 -23 -5 -39q0 -76 72 -76q59 0 93 54q34 55 51 129l49 228h122l-106 -498h-104q6 25 26.5 58.5t42.5 56.5h-61q-68 -130 -171 -130q-62 0 -100.5 40t-38.5 111zM318 566l-83 149h138l17 -149h-72z" />
    <glyph glyph-name="uacute" unicode="&#xfa;" horiz-adv-x="583" 
d="M50 136q0 33 7 62l65 300h121l-63 -296q-5 -23 -5 -39q0 -76 72 -76q59 0 93 54q34 55 51 129l49 228h122l-106 -498h-104q6 25 26.5 58.5t42.5 56.5h-61q-68 -130 -171 -130q-62 0 -100.5 40t-38.5 111zM310 566l83 149h141l-138 -149h-86z" />
    <glyph glyph-name="ucircumflex" unicode="&#xfb;" horiz-adv-x="606" 
d="M50 136q0 33 7 62l65 300h121l-63 -296q-5 -23 -5 -39q0 -76 72 -76q59 0 93 54q34 55 51 129l49 228h122l-106 -498h-104q6 25 26.5 58.5t42.5 56.5h-61q-68 -130 -171 -130q-62 0 -100.5 40t-38.5 111zM162 566l136 127h154l81 -127h-105l-60 72l-93 -72h-113z" />
    <glyph glyph-name="udieresis" unicode="&#xfc;" horiz-adv-x="583" 
d="M50 136q0 33 7 62l65 300h121l-63 -296q-5 -23 -5 -39q0 -76 72 -76q59 0 93 54q34 55 51 129l49 228h122l-106 -498h-104q6 25 26.5 58.5t42.5 56.5h-61q-68 -130 -171 -130q-62 0 -100.5 40t-38.5 111zM191 580l24 113h119l-25 -113h-118zM400 580l25 113h118l-24 -113
h-119z" />
    <glyph glyph-name="yacute" unicode="&#xfd;" horiz-adv-x="540" 
d="M442 498h135l-324 -576q-37 -69 -72.5 -93t-103.5 -24h-134l22 101h110q27 0 44 11.5t33 40.5l26 48l-123 492h129l44 -215q7 -31 7 -70t-11 -100h51q9 51 22 95q9 33 34 81zM278 566l83 149h141l-138 -149h-86z" />
    <glyph glyph-name="thorn" unicode="&#xfe;" horiz-adv-x="607" 
d="M-20 -195l192 895h120l-21 -101q-25 -110 -107 -199h66q62 114 159 114q79 0 129.5 -59.5t50.5 -152.5q1 -130 -75 -224.5t-177 -92.5q-63 0 -98 36.5t-42 89.5h-57q21 -48 21 -98q0 -27 -8 -62l-31 -146h-122zM445 292q0 61 -27.5 93.5t-77.5 32.5q-61 2 -106.5 -65.5
t-44.5 -142.5q0 -63 27 -96t78 -33q64 0 107.5 65.5t43.5 145.5z" />
    <glyph glyph-name="ydieresis" unicode="&#xff;" horiz-adv-x="540" 
d="M442 498h135l-324 -576q-37 -69 -72.5 -93t-103.5 -24h-134l22 101h110q27 0 44 11.5t33 40.5l26 48l-123 492h129l44 -215q7 -31 7 -70t-11 -100h51q9 51 22 95q9 33 34 81zM159 580l24 113h119l-25 -113h-118zM368 580l25 113h118l-24 -113h-119z" />
    <glyph glyph-name="Amacron" unicode="&#x100;" horiz-adv-x="717" 
d="M515 0l-23 173h-291l-96 -173h-147l412 700h172l110 -700h-137zM263 284h215l-20 152q-6 42 -6 73q0 49 12 113h-48q-22 -99 -66 -180zM310 782l20 85h339l-19 -85h-340z" />
    <glyph glyph-name="amacron" unicode="&#x101;" horiz-adv-x="560" 
d="M25 118q0 100 96 150q98 50 257 54l4 20q2 10 2 15q0 63 -88 63q-91 0 -127 -81l-111 37q20 58 81 97.5t158 39.5t150 -40t53 -115q0 -25 -6 -52l-39 -185q-1 -3 -1 -9q0 -16 20 -16h52l-21 -96h-44q-44 0 -64 15t-20 48q0 17 4 36h-47q-47 -114 -169 -114q-60 0 -100 34
t-40 99zM354 205l7 36q-210 -7 -210 -106q0 -27 18.5 -42.5t50.5 -15.5q44 0 83 35.5t51 92.5zM173 584l19 85h308l-18 -85h-309z" />
    <glyph glyph-name="Abreve" unicode="&#x102;" horiz-adv-x="717" 
d="M515 0l-23 173h-291l-96 -173h-147l412 700h172l110 -700h-137zM263 284h215l-20 152q-6 42 -6 73q0 49 12 113h-48q-22 -99 -66 -180zM321 877q0 12 1 17h94v-6q0 -25 17.5 -40.5t50.5 -15.5q70 0 93 62h101q-17 -58 -63 -98q-46 -41 -135 -41q-74 0 -116.5 35t-42.5 87
z" />
    <glyph glyph-name="abreve" unicode="&#x103;" horiz-adv-x="560" 
d="M25 118q0 100 96 150q98 50 257 54l4 20q2 10 2 15q0 63 -88 63q-91 0 -127 -81l-111 37q20 58 81 97.5t158 39.5t150 -40t53 -115q0 -25 -6 -52l-39 -185q-1 -3 -1 -9q0 -16 20 -16h52l-21 -96h-44q-44 0 -64 15t-20 48q0 17 4 36h-47q-47 -114 -169 -114q-60 0 -100 34
t-40 99zM354 205l7 36q-210 -7 -210 -106q0 -27 18.5 -42.5t50.5 -15.5q44 0 83 35.5t51 92.5zM189 675q0 14 1 18h86q-3 -27 13.5 -44.5t48.5 -17.5q63 0 84 62h92q-15 -57 -57 -99q-41 -41 -123 -41q-68 0 -106.5 35t-38.5 87z" />
    <glyph glyph-name="Aogonek" unicode="&#x104;" horiz-adv-x="717" 
d="M571 -120q21 0 59 9l-19 -89q-33 -8 -74 -8q-50 0 -78 23t-28 62q0 75 100 123h-16l-23 173h-291l-96 -173h-147l412 700h172l110 -700q-127 -35 -127 -88q0 -32 46 -32zM263 284h215l-20 152q-6 42 -6 73q0 49 12 113h-48q-22 -99 -66 -180z" />
    <glyph glyph-name="aogonek" unicode="&#x105;" horiz-adv-x="560" 
d="M379 -88q0 -32 46 -32q21 0 58 9l-19 -89q-32 -8 -74 -8q-50 0 -78 23t-28 62q0 82 122 132q-29 16 -29 54q0 17 4 36h-47q-47 -114 -169 -114q-60 0 -100 34t-40 99q0 100 96 150q98 50 257 54l4 20q2 10 2 15q0 63 -88 63q-91 0 -127 -81l-111 37q20 58 81 97.5
t158 39.5t150 -40t53 -115q0 -25 -6 -52l-39 -185q-1 -3 -1 -9q0 -16 20 -16h52l-21 -96q-126 -34 -126 -88zM354 205l7 36q-210 -7 -210 -106q0 -27 18.5 -42.5t50.5 -15.5q44 0 83 35.5t51 92.5z" />
    <glyph glyph-name="Cacute" unicode="&#x106;" horiz-adv-x="751" 
d="M65 291q-2 110 48 207.5t142.5 158t205.5 58.5q121 0 202 -63t104 -154l-130 -35q-18 59 -61 99q-42 42 -122 42q-75 2 -134.5 -44.5t-89.5 -118t-29 -150.5q0 -93 49.5 -143.5t135.5 -50.5q139 0 210 145l121 -57q-108 -200 -335 -200q-149 0 -233 82t-84 224zM452 768
l91 148h156l-152 -148h-95z" />
    <glyph glyph-name="cacute" unicode="&#x107;" horiz-adv-x="556" 
d="M38 210q-2 119 78.5 212t199.5 91q86 0 146 -43.5t77 -112.5l-116 -33q-10 42 -39.5 66.5t-71.5 24.5q-69 0 -110.5 -62t-41.5 -140q0 -62 31 -95.5t83 -33.5q86 0 133 102l107 -51q-78 -150 -248 -150q-103 0 -165.5 60.5t-62.5 164.5zM306 566l83 149h141l-138 -149
h-86z" />
    <glyph glyph-name="Ccircumflex" unicode="&#x108;" horiz-adv-x="751" 
d="M65 291q-2 110 48 207.5t142.5 158t205.5 58.5q121 0 202 -63t104 -154l-130 -35q-18 59 -61 99q-42 42 -122 42q-75 2 -134.5 -44.5t-89.5 -118t-29 -150.5q0 -93 49.5 -143.5t135.5 -50.5q139 0 210 145l121 -57q-108 -200 -335 -200q-149 0 -233 82t-84 224zM289 768
l150 126h170l88 -126h-115l-65 72l-103 -72h-125z" />
    <glyph glyph-name="ccircumflex" unicode="&#x109;" horiz-adv-x="556" 
d="M38 210q-2 119 78.5 212t199.5 91q86 0 146 -43.5t77 -112.5l-116 -33q-10 42 -39.5 66.5t-71.5 24.5q-69 0 -110.5 -62t-41.5 -140q0 -62 31 -95.5t83 -33.5q86 0 133 102l107 -51q-78 -150 -248 -150q-103 0 -165.5 60.5t-62.5 164.5zM158 566l136 127h154l81 -127
h-105l-60 72l-93 -72h-113z" />
    <glyph glyph-name="Cdotaccent" unicode="&#x10a;" horiz-adv-x="751" 
d="M65 291q-2 110 48 207.5t142.5 158t205.5 58.5q121 0 202 -63t104 -154l-130 -35q-18 59 -61 99q-42 42 -122 42q-75 2 -134.5 -44.5t-89.5 -118t-29 -150.5q0 -93 49.5 -143.5t135.5 -50.5q139 0 210 145l121 -57q-108 -200 -335 -200q-149 0 -233 82t-84 224zM436 768
l27 125h128l-27 -125h-128z" />
    <glyph glyph-name="cdotaccent" unicode="&#x10b;" horiz-adv-x="556" 
d="M38 210q-2 119 78.5 212t199.5 91q86 0 146 -43.5t77 -112.5l-116 -33q-10 42 -39.5 66.5t-71.5 24.5q-69 0 -110.5 -62t-41.5 -140q0 -62 31 -95.5t83 -33.5q86 0 133 102l107 -51q-78 -150 -248 -150q-103 0 -165.5 60.5t-62.5 164.5zM286 575l27 125h128l-27 -125
h-128z" />
    <glyph glyph-name="Ccaron" unicode="&#x10c;" horiz-adv-x="751" 
d="M65 291q-2 110 48 207.5t142.5 158t205.5 58.5q121 0 202 -63t104 -154l-130 -35q-18 59 -61 99q-42 42 -122 42q-75 2 -134.5 -44.5t-89.5 -118t-29 -150.5q0 -93 49.5 -143.5t135.5 -50.5q139 0 210 145l121 -57q-108 -200 -335 -200q-149 0 -233 82t-84 224zM733 884
l-149 -126h-170l-88 126h114l66 -71l102 71h125z" />
    <glyph glyph-name="ccaron" unicode="&#x10d;" horiz-adv-x="556" 
d="M38 210q-2 119 78.5 212t199.5 91q86 0 146 -43.5t77 -112.5l-116 -33q-10 42 -39.5 66.5t-71.5 24.5q-69 0 -110.5 -62t-41.5 -140q0 -62 31 -95.5t83 -33.5q86 0 133 102l107 -51q-78 -150 -248 -150q-103 0 -165.5 60.5t-62.5 164.5zM276 566l-80 127h103l60 -72
l92 72h115l-135 -127h-155z" />
    <glyph glyph-name="Dcaron" unicode="&#x10e;" horiz-adv-x="753" 
d="M40 0l148 700h214q149 0 238.5 -79.5t89.5 -215.5q2 -169 -114 -288.5t-295 -116.5h-281zM193 111h119q133 0 208.5 82t75.5 209q0 90 -51 138t-149 48h-102zM668 884l-149 -126h-170l-88 126h114l66 -71l102 71h125z" />
    <glyph glyph-name="dcaron" unicode="&#x10f;" horiz-adv-x="677" 
d="M38 197q-2 128 70 224t164 93q123 0 159 -128h56q-22 35 -22 85q0 31 11 86l30 143h122l-149 -700h-107q7 21 26 49t40 48h-63q-39 -57 -76.5 -84.5t-89.5 -27.5q-75 0 -123 59t-48 153zM418 290q0 127 -106 127q-63 0 -106.5 -65.5t-43.5 -145.5q0 -61 27.5 -93
t78.5 -32q62 0 106 66t44 143zM625 445l107 131h-67l28 125h128l-29 -132l-102 -124h-65z" />
    <glyph glyph-name="Dcroat" unicode="&#x110;" horiz-adv-x="773" 
d="M740 405q3 -168 -114 -288t-295 -117h-282l67 317h-76l20 94h76l61 289h214q150 0 239.5 -79.5t89.5 -215.5zM605 402q0 90 -51.5 138t-147.5 48h-103l-37 -177h135l-20 -94h-135l-44 -206h119q135 0 209.5 81.5t74.5 209.5z" />
    <glyph glyph-name="dcroat" unicode="&#x111;" horiz-adv-x="606" 
d="M691 626l-16 -78h-80l-116 -548h-107q7 21 26 49t40 48h-63q-39 -57 -76.5 -84.5t-89.5 -27.5q-75 0 -123 59t-48 153q-2 128 70 224t164 93q123 0 159 -128h56q-22 35 -22 85q0 33 9 77h-158l17 78h157l16 74h122l-16 -74h79zM418 290q0 127 -106 127
q-63 0 -106.5 -65.5t-43.5 -145.5q0 -61 27.5 -93t78.5 -32q62 0 106 66t44 143z" />
    <glyph glyph-name="Emacron" unicode="&#x112;" horiz-adv-x="649" 
d="M39 0l149 700h509l-24 -112h-380l-36 -172h285l-24 -110h-285l-41 -195h381l-24 -111h-510zM294 782l20 85h339l-19 -85h-340z" />
    <glyph glyph-name="emacron" unicode="&#x113;" horiz-adv-x="553" 
d="M36 198q-2 76 32.5 149t99 120.5t140.5 45.5q97 0 152.5 -56t55.5 -146q0 -44 -14 -92h-349q-3 -17 -3 -33q0 -49 27.5 -77t77.5 -28q84 0 135 92l102 -48q-76 -140 -237 -140q-106 0 -162.5 54.5t-56.5 158.5zM171 309h229q1 9 1 18q0 44 -25 69.5t-69 25.5
q-45 0 -82 -30t-54 -83zM190 584l19 85h308l-18 -85h-309z" />
    <glyph glyph-name="Ebreve" unicode="&#x114;" horiz-adv-x="649" 
d="M39 0l149 700h509l-24 -112h-380l-36 -172h285l-24 -110h-285l-41 -195h381l-24 -111h-510zM308 877q0 12 1 17h94v-6q0 -25 17.5 -40.5t50.5 -15.5q70 0 93 62h101q-17 -58 -63 -98q-46 -41 -135 -41q-74 0 -116.5 35t-42.5 87z" />
    <glyph glyph-name="ebreve" unicode="&#x115;" horiz-adv-x="553" 
d="M36 198q-2 76 32.5 149t99 120.5t140.5 45.5q97 0 152.5 -56t55.5 -146q0 -44 -14 -92h-349q-3 -17 -3 -33q0 -49 27.5 -77t77.5 -28q84 0 135 92l102 -48q-76 -140 -237 -140q-106 0 -162.5 54.5t-56.5 158.5zM171 309h229q1 9 1 18q0 44 -25 69.5t-69 25.5
q-45 0 -82 -30t-54 -83zM206 675q0 14 1 18h86q-3 -27 13.5 -44.5t48.5 -17.5q63 0 84 62h92q-15 -57 -57 -99q-41 -41 -123 -41q-68 0 -106.5 35t-38.5 87z" />
    <glyph glyph-name="Edotaccent" unicode="&#x116;" horiz-adv-x="649" 
d="M39 0l149 700h509l-24 -112h-380l-36 -172h285l-24 -110h-285l-41 -195h381l-24 -111h-510zM393 768l27 125h128l-27 -125h-128z" />
    <glyph glyph-name="edotaccent" unicode="&#x117;" horiz-adv-x="553" 
d="M36 198q-2 76 32.5 149t99 120.5t140.5 45.5q97 0 152.5 -56t55.5 -146q0 -44 -14 -92h-349q-3 -17 -3 -33q0 -49 27.5 -77t77.5 -28q84 0 135 92l102 -48q-76 -140 -237 -140q-106 0 -162.5 54.5t-56.5 158.5zM171 309h229q1 9 1 18q0 44 -25 69.5t-69 25.5
q-45 0 -82 -30t-54 -83zM277 575l27 125h128l-27 -125h-128z" />
    <glyph glyph-name="Eogonek" unicode="&#x118;" horiz-adv-x="649" 
d="M673 588h-380l-36 -172h285l-24 -110h-285l-41 -195h381l-24 -111q-127 -35 -127 -88q0 -32 46 -32q22 0 59 9l-19 -89q-33 -8 -74 -8q-50 0 -78 23t-28 62q0 75 100 123h-389l149 700h509z" />
    <glyph glyph-name="eogonek" unicode="&#x119;" horiz-adv-x="553" 
d="M308 513q97 0 152.5 -56t55.5 -146q0 -44 -14 -92h-349q-3 -17 -3 -33q0 -49 27.5 -77t77.5 -28q84 0 135 92l102 -48q-60 -107 -167 -133q-53 -14 -78.5 -35.5t-25.5 -44.5q0 -32 46 -32q21 0 58 9l-19 -89q-32 -8 -74 -8q-50 0 -78 23t-28 62q0 59 79 111
q-169 30 -169 210q-2 76 32.5 149t99 120.5t140.5 45.5zM171 309h229q1 9 1 18q0 44 -25 69.5t-69 25.5q-45 0 -82 -30t-54 -83z" />
    <glyph glyph-name="Ecaron" unicode="&#x11a;" horiz-adv-x="649" 
d="M39 0l149 700h509l-24 -112h-380l-36 -172h285l-24 -110h-285l-41 -195h381l-24 -111h-510zM691 884l-149 -126h-170l-88 126h114l66 -71l102 71h125z" />
    <glyph glyph-name="ecaron" unicode="&#x11b;" horiz-adv-x="553" 
d="M36 198q-2 76 32.5 149t99 120.5t140.5 45.5q97 0 152.5 -56t55.5 -146q0 -44 -14 -92h-349q-3 -17 -3 -33q0 -49 27.5 -77t77.5 -28q84 0 135 92l102 -48q-76 -140 -237 -140q-106 0 -162.5 54.5t-56.5 158.5zM171 309h229q1 9 1 18q0 44 -25 69.5t-69 25.5
q-45 0 -82 -30t-54 -83zM268 566l-80 127h103l60 -72l92 72h115l-135 -127h-155z" />
    <glyph glyph-name="Gcircumflex" unicode="&#x11c;" horiz-adv-x="785" 
d="M64 288q-2 108 46 206t141 160.5t208 60.5q123 0 205.5 -61t106.5 -154l-135 -39q-20 64 -66.5 101.5t-117.5 37.5q-111 2 -182.5 -91.5t-69.5 -214.5q0 -97 50.5 -148t136.5 -51q78 0 135 45.5t74 101.5h-228l23 112h359l-75 -354h-112q17 70 71 139h-59
q-31 -61 -86 -108q-52 -46 -144 -46q-120 0 -200.5 80.5t-80.5 222.5zM292 768l150 126h170l88 -126h-115l-65 72l-103 -72h-125z" />
    <glyph glyph-name="gcircumflex" unicode="&#x11d;" horiz-adv-x="601" 
d="M-38 -106q0 73 84 99l9 44q-40 18 -40 57q0 34 26 60t73 38l10 43q-36 34 -36 89q0 76 60 132.5t149 56.5q71 0 113.5 -29.5t56.5 -75.5h44q21 90 93 90h36l-20 -98h-47q-29 0 -40.5 -9.5t-20.5 -42.5l-12 -39q-45 -161 -209 -161q-69 0 -122 24q-23 -6 -37 -19t-14 -27
q0 -27 46 -27h178q82 0 125 -38.5t43 -96.5q0 -76 -53.5 -117.5t-159.5 -41.5h-213q-58 0 -90 26.5t-32 62.5zM396 345q0 36 -23 58t-62 22q-44 0 -75.5 -32.5t-31.5 -78.5q0 -37 22 -58.5t63 -21.5q44 0 75.5 32t31.5 79zM127 -102h185q77 0 77 58q0 44 -61 44h-225
q-40 -25 -40 -57q0 -45 64 -45zM154 566l136 127h154l81 -127h-105l-60 72l-93 -72h-113z" />
    <glyph glyph-name="Gbreve" unicode="&#x11e;" horiz-adv-x="785" 
d="M64 288q-2 108 46 206t141 160.5t208 60.5q123 0 205.5 -61t106.5 -154l-135 -39q-20 64 -66.5 101.5t-117.5 37.5q-111 2 -182.5 -91.5t-69.5 -214.5q0 -97 50.5 -148t136.5 -51q78 0 135 45.5t74 101.5h-228l23 112h359l-75 -354h-112q17 70 71 139h-59
q-31 -61 -86 -108q-52 -46 -144 -46q-120 0 -200.5 80.5t-80.5 222.5zM350 877q0 12 1 17h94v-6q0 -25 17.5 -40.5t50.5 -15.5q70 0 93 62h101q-17 -58 -63 -98q-46 -41 -135 -41q-74 0 -116.5 35t-42.5 87z" />
    <glyph glyph-name="gbreve" unicode="&#x11f;" horiz-adv-x="601" 
d="M-38 -106q0 73 84 99l9 44q-40 18 -40 57q0 34 26 60t73 38l10 43q-36 34 -36 89q0 76 60 132.5t149 56.5q71 0 113.5 -29.5t56.5 -75.5h44q21 90 93 90h36l-20 -98h-47q-29 0 -40.5 -9.5t-20.5 -42.5l-12 -39q-45 -161 -209 -161q-69 0 -122 24q-23 -6 -37 -19t-14 -27
q0 -27 46 -27h178q82 0 125 -38.5t43 -96.5q0 -76 -53.5 -117.5t-159.5 -41.5h-213q-58 0 -90 26.5t-32 62.5zM396 345q0 36 -23 58t-62 22q-44 0 -75.5 -32.5t-31.5 -78.5q0 -37 22 -58.5t63 -21.5q44 0 75.5 32t31.5 79zM127 -102h185q77 0 77 58q0 44 -61 44h-225
q-40 -25 -40 -57q0 -45 64 -45zM209 675q0 14 1 18h86q-3 -27 13.5 -44.5t48.5 -17.5q63 0 84 62h92q-15 -57 -57 -99q-41 -41 -123 -41q-68 0 -106.5 35t-38.5 87z" />
    <glyph glyph-name="Gdotaccent" unicode="&#x120;" horiz-adv-x="785" 
d="M64 288q-2 108 46 206t141 160.5t208 60.5q123 0 205.5 -61t106.5 -154l-135 -39q-20 64 -66.5 101.5t-117.5 37.5q-111 2 -182.5 -91.5t-69.5 -214.5q0 -97 50.5 -148t136.5 -51q78 0 135 45.5t74 101.5h-228l23 112h359l-75 -354h-112q17 70 71 139h-59
q-31 -61 -86 -108q-52 -46 -144 -46q-120 0 -200.5 80.5t-80.5 222.5zM438 768l27 125h128l-27 -125h-128z" />
    <glyph glyph-name="gdotaccent" unicode="&#x121;" horiz-adv-x="601" 
d="M-38 -106q0 73 84 99l9 44q-40 18 -40 57q0 34 26 60t73 38l10 43q-36 34 -36 89q0 76 60 132.5t149 56.5q71 0 113.5 -29.5t56.5 -75.5h44q21 90 93 90h36l-20 -98h-47q-29 0 -40.5 -9.5t-20.5 -42.5l-12 -39q-45 -161 -209 -161q-69 0 -122 24q-23 -6 -37 -19t-14 -27
q0 -27 46 -27h178q82 0 125 -38.5t43 -96.5q0 -76 -53.5 -117.5t-159.5 -41.5h-213q-58 0 -90 26.5t-32 62.5zM396 345q0 36 -23 58t-62 22q-44 0 -75.5 -32.5t-31.5 -78.5q0 -37 22 -58.5t63 -21.5q44 0 75.5 32t31.5 79zM127 -102h185q77 0 77 58q0 44 -61 44h-225
q-40 -25 -40 -57q0 -45 64 -45zM281 575l27 125h128l-27 -125h-128z" />
    <glyph glyph-name="uni0122" unicode="&#x122;" horiz-adv-x="785" 
d="M64 288q-2 108 46 206t141 160.5t208 60.5q123 0 205.5 -61t106.5 -154l-135 -39q-20 64 -66.5 101.5t-117.5 37.5q-111 2 -182.5 -91.5t-69.5 -214.5q0 -97 50.5 -148t136.5 -51q78 0 135 45.5t74 101.5h-228l23 112h359l-75 -354h-112q17 70 71 139h-59
q-31 -61 -86 -108q-52 -46 -144 -46q-120 0 -200.5 80.5t-80.5 222.5zM215 -326l107 131h-67l28 125h128l-29 -132l-102 -124h-65z" />
    <glyph glyph-name="uni0123" unicode="&#x123;" horiz-adv-x="601" 
d="M-38 -106q0 73 84 99l9 44q-40 18 -40 57q0 34 26 60t73 38l10 43q-36 34 -36 89q0 76 60 132.5t149 56.5q71 0 113.5 -29.5t56.5 -75.5h44q21 90 93 90h36l-20 -98h-47q-29 0 -40.5 -9.5t-20.5 -42.5l-12 -39q-45 -161 -209 -161q-69 0 -122 24q-23 -6 -37 -19t-14 -27
q0 -27 46 -27h178q82 0 125 -38.5t43 -96.5q0 -76 -53.5 -117.5t-159.5 -41.5h-213q-58 0 -90 26.5t-32 62.5zM396 345q0 36 -23 58t-62 22q-44 0 -75.5 -32.5t-31.5 -78.5q0 -37 22 -58.5t63 -21.5q44 0 75.5 32t31.5 79zM127 -102h185q77 0 77 58q0 44 -61 44h-225
q-40 -25 -40 -57q0 -45 64 -45zM477 831l-107 -132h67l-28 -124h-128l29 131l102 125h65z" />
    <glyph glyph-name="Hcircumflex" unicode="&#x124;" horiz-adv-x="767" 
d="M39 0l149 700h129l-60 -283h325l61 283h128l-148 -700h-129l64 305h-325l-64 -305h-130zM285 768l150 126h170l88 -126h-115l-65 72l-103 -72h-125z" />
    <glyph glyph-name="hcircumflex" unicode="&#x125;" horiz-adv-x="588" 
d="M22 0l149 700h122l-27 -125q-21 -94 -100 -185h62q58 123 162 123q68 0 108 -43t40 -113q0 -30 -7 -57l-64 -300h-121l63 297q4 15 4 36q0 37 -19.5 57.5t-56.5 20.5q-59 0 -94 -53q-33 -50 -50 -126l-49 -232h-122zM211 768l136 127h154l81 -127h-105l-60 72l-93 -72
h-113z" />
    <glyph glyph-name="Hbar" unicode="&#x126;" horiz-adv-x="823" 
d="M846 610l-19 -90h-80l-111 -520h-129l64 305h-324l-64 -305h-130l111 520h-81l19 90h81l19 90h129l-19 -90h325l19 90h129l-19 -90h80zM595 417l23 103h-325l-22 -103h324z" />
    <glyph glyph-name="hbar" unicode="&#x127;" horiz-adv-x="612" 
d="M538 357q0 -30 -7 -57l-64 -300h-121l63 297q4 15 4 36q0 37 -19.5 57.5t-56.5 20.5q-59 0 -94 -53q-33 -50 -50 -126l-49 -232h-122l117 548h-77l17 78h77l15 74h122l-16 -74h161l-17 -78h-163q-26 -84 -92 -158h62q58 123 162 123q68 0 108 -43t40 -113z" />
    <glyph glyph-name="Itilde" unicode="&#x128;" horiz-adv-x="334" 
d="M39 0l149 700h129l-149 -700h-129zM273 785l-28 15q-31 17 -47 17q-41 0 -53 -49h-101q10 63 49.5 97.5t99.5 34.5q44 0 91 -26l25 -14q1 0 20 -9t27 -9q37 0 54 47h101q-11 -65 -50 -98t-98 -33q-47 0 -90 27z" />
    <glyph glyph-name="itilde" unicode="&#x129;" horiz-adv-x="294" 
d="M22 0l106 498h121l-105 -498h-122zM202 588l-24 16q-31 17 -43 17q-38 0 -49 -49h-92q10 63 45.5 97.5t89.5 34.5q42 0 83 -26l24 -14q31 -21 42 -18q35 0 49 47h92q-19 -131 -135 -131q-41 0 -82 26z" />
    <glyph glyph-name="Imacron" unicode="&#x12a;" horiz-adv-x="363" 
d="M39 0l149 700h129l-149 -700h-129zM101 782l20 85h339l-19 -85h-340z" />
    <glyph glyph-name="imacron" unicode="&#x12b;" horiz-adv-x="321" 
d="M22 0l106 498h121l-105 -498h-122zM53 584l19 85h308l-18 -85h-309z" />
    <glyph glyph-name="Ibreve" unicode="&#x12c;" horiz-adv-x="348" 
d="M39 0l149 700h129l-149 -700h-129zM117 877q0 12 1 17h94v-6q0 -25 17.5 -40.5t50.5 -15.5q70 0 93 62h101q-17 -58 -63 -98q-46 -41 -135 -41q-74 0 -116.5 35t-42.5 87z" />
    <glyph glyph-name="ibreve" unicode="&#x12d;" horiz-adv-x="271" 
d="M22 0l106 498h121l-105 -498h-122zM68 675q0 14 1 18h86q-3 -27 13.5 -44.5t48.5 -17.5q63 0 84 62h92q-15 -57 -57 -99q-41 -41 -123 -41q-68 0 -106.5 35t-38.5 87z" />
    <glyph glyph-name="Iogonek" unicode="&#x12e;" horiz-adv-x="291" 
d="M42 -88q0 -32 45 -32q21 0 59 9l-19 -89q-33 -8 -74 -8q-50 0 -78 23t-28 62q0 74 100 123h-8l149 700h129l-149 -700q-126 -34 -126 -88z" />
    <glyph glyph-name="iogonek" unicode="&#x12f;" horiz-adv-x="271" 
d="M168 700h128l-26 -125h-129zM23 0l106 498h121l-105 -498h-1q-126 -34 -126 -88q0 -32 45 -32q21 0 59 9l-19 -89q-32 -8 -74 -8q-50 0 -78 23t-28 62q0 74 100 123z" />
    <glyph glyph-name="Idotaccent" unicode="&#x130;" horiz-adv-x="354" 
d="M39 0l149 700h129l-149 -700h-129zM202 768l27 125h128l-27 -125h-128z" />
    <glyph glyph-name="dotlessi" unicode="&#x131;" horiz-adv-x="271" 
d="M22 0l106 498h121l-105 -498h-122z" />
    <glyph glyph-name="IJ" unicode="&#x132;" horiz-adv-x="849" 
d="M39 0l149 700h129l-149 -700h-129zM315 171q0 24 5 54l130 23q-6 -40 -6 -63q0 -46 17.5 -68t57.5 -22q45 0 71.5 33.5t41.5 108.5l98 463h130l-100 -473q-26 -126 -82 -184t-159 -58q-93 0 -148.5 50t-55.5 136z" />
    <glyph glyph-name="ij" unicode="&#x133;" horiz-adv-x="545" 
d="M140 576l27 125h127l-26 -125h-128zM22 0l106 498h121l-105 -498h-122zM417 577l26 123h127l-26 -123h-127zM138 -195l22 101h73q46 0 56 46l115 546h120l-121 -566q-14 -66 -45 -96.5t-95 -30.5h-125z" />
    <glyph glyph-name="Jcircumflex" unicode="&#x134;" horiz-adv-x="537" 
d="M4 171q0 24 5 54l130 23q-6 -40 -6 -63q0 -46 17.5 -68t57.5 -22q45 0 71.5 33.5t41.5 108.5l98 463h130l-100 -473q-26 -126 -82 -184t-159 -58q-93 0 -148.5 50t-55.5 136zM288 768l150 126h170l88 -126h-115l-65 72l-103 -72h-125z" />
    <glyph glyph-name="jcircumflex" unicode="&#x135;" horiz-adv-x="278" 
d="M-132 -195l21 101h74q47 0 57 46l116 546h121l-121 -566q-14 -65 -46 -96t-96 -31h-126zM19 566l136 127h154l81 -127h-105l-60 72l-93 -72h-113z" />
    <glyph glyph-name="uni0136" unicode="&#x136;" horiz-adv-x="711" 
d="M779 700l-347 -297l241 -403h-152l-188 319l-118 -101l-47 -218h-129l149 700h130l-28 -131q-21 -94 -95 -162l33 -37l364 330h187zM201 -326l107 131h-67l28 125h128l-29 -132l-102 -124h-65z" />
    <glyph glyph-name="uni0137" unicode="&#x137;" horiz-adv-x="598" 
d="M634 498l-260 -208l180 -290h-141l-131 216l-111 -89l-27 -127h-122l149 700h121l-49 -240q-15 -67 -39 -102.5t-67 -67.5l32 -40l301 248h164zM134 -326l107 131h-67l28 125h128l-29 -132l-102 -124h-65z" />
    <glyph glyph-name="Lacute" unicode="&#x139;" horiz-adv-x="606" 
d="M39 0l149 700h129l-124 -586h373l-24 -114h-503zM218 768l91 148h156l-152 -148h-95z" />
    <glyph glyph-name="lacute" unicode="&#x13a;" horiz-adv-x="270" 
d="M21 0l150 700h121l-149 -700h-122zM203 768l83 149h141l-138 -149h-86z" />
    <glyph glyph-name="uni013B" unicode="&#x13b;" horiz-adv-x="606" 
d="M39 0l149 700h129l-124 -586h373l-24 -114h-503zM143 -326l107 131h-67l28 125h128l-29 -132l-102 -124h-65z" />
    <glyph glyph-name="uni013C" unicode="&#x13c;" horiz-adv-x="262" 
d="M21 0l150 700h121l-149 -700h-122zM-64 -326l107 131h-67l28 125h128l-29 -132l-102 -124h-65z" />
    <glyph glyph-name="Lcaron" unicode="&#x13d;" horiz-adv-x="608" 
d="M344 420l117 144h-73l30 137h141l-32 -144l-112 -137h-71zM39 0l149 700h129l-124 -586h373l-24 -114h-503z" />
    <glyph glyph-name="lcaron" unicode="&#x13e;" horiz-adv-x="349" 
d="M21 0l150 700h121l-149 -700h-122zM294 442l107 131h-67l28 125h128l-29 -132l-102 -124h-65z" />
    <glyph glyph-name="Ldot" unicode="&#x13f;" horiz-adv-x="609" 
d="M39 0l149 700h129l-124 -586h373l-24 -114h-503zM378 308l31 146h148l-31 -146h-148z" />
    <glyph glyph-name="ldot" unicode="&#x140;" horiz-adv-x="432" 
d="M21 0l150 700h121l-149 -700h-122zM283 286l31 146h148l-31 -146h-148z" />
    <glyph glyph-name="Lslash" unicode="&#x141;" horiz-adv-x="621" 
d="M234 114h373l-24 -114h-503l52 244l-104 -50l25 118l104 50l72 338h129l-57 -268l230 110l-25 -117l-230 -111z" />
    <glyph glyph-name="lslash" unicode="&#x142;" horiz-adv-x="355" 
d="M388 523l-24 -111l-102 -56l-76 -356h-121l60 281l-93 -51l23 112l94 51l66 307h120l-49 -232z" />
    <glyph glyph-name="Nacute" unicode="&#x143;" horiz-adv-x="827" 
d="M39 0l149 700h186l225 -552l46 21q-22 56 -22 115q0 44 11 96l68 320h130l-149 -700h-152l-247 611l-47 -19q21 -60 21 -121q0 -48 -10 -98l-79 -373h-130zM467 768l91 148h156l-152 -148h-95z" />
    <glyph glyph-name="nacute" unicode="&#x144;" horiz-adv-x="588" 
d="M22 0l106 498h102q-11 -49 -63 -108h61q24 54 65.5 88.5t96.5 34.5q67 0 107.5 -41.5t40.5 -112.5q0 -28 -7 -59l-64 -300h-121l63 297q5 22 5 37q0 37 -20 57t-57 20q-59 0 -94 -53q-33 -50 -50 -126l-49 -232h-122zM321 566l83 149h141l-138 -149h-86z" />
    <glyph glyph-name="uni0145" unicode="&#x145;" horiz-adv-x="827" 
d="M39 0l149 700h186l225 -552l46 21q-22 56 -22 115q0 44 11 96l68 320h130l-149 -700h-152l-247 611l-47 -19q21 -60 21 -121q0 -48 -10 -98l-79 -373h-130zM216 -326l107 131h-67l28 125h128l-29 -132l-102 -124h-65z" />
    <glyph glyph-name="uni0146" unicode="&#x146;" horiz-adv-x="588" 
d="M22 0l106 498h102q-11 -49 -63 -108h61q24 54 65.5 88.5t96.5 34.5q67 0 107.5 -41.5t40.5 -112.5q0 -28 -7 -59l-64 -300h-121l63 297q5 22 5 37q0 37 -20 57t-57 20q-59 0 -94 -53q-33 -50 -50 -126l-49 -232h-122zM104 -326l107 131h-67l28 125h128l-29 -132
l-102 -124h-65z" />
    <glyph glyph-name="Ncaron" unicode="&#x147;" horiz-adv-x="827" 
d="M39 0l149 700h186l225 -552l46 21q-22 56 -22 115q0 44 11 96l68 320h130l-149 -700h-152l-247 611l-47 -19q21 -60 21 -121q0 -48 -10 -98l-79 -373h-130zM755 884l-149 -126h-170l-88 126h114l66 -71l102 71h125z" />
    <glyph glyph-name="ncaron" unicode="&#x148;" horiz-adv-x="588" 
d="M22 0l106 498h102q-11 -49 -63 -108h61q24 54 65.5 88.5t96.5 34.5q67 0 107.5 -41.5t40.5 -112.5q0 -28 -7 -59l-64 -300h-121l63 297q5 22 5 37q0 37 -20 57t-57 20q-59 0 -94 -53q-33 -50 -50 -126l-49 -232h-122zM291 566l-80 127h103l60 -72l92 72h115l-135 -127
h-155z" />
    <glyph glyph-name="Eng" unicode="&#x14a;" horiz-adv-x="827" 
d="M391 -195l24 110h53q31 0 52.5 17.5t28.5 50.5l9 42l-264 558l-12 29l-46 -19q21 -69 21 -127q0 -46 -12 -105l-77 -361h-129l149 700h184l227 -482l12 -28l46 22q-26 69 -26 120q0 40 12 93l58 275h130l-154 -721q-20 -96 -65 -135t-141 -39h-80z" />
    <glyph glyph-name="eng" unicode="&#x14b;" horiz-adv-x="588" 
d="M184 -195l22 102h73q47 0 57 47l73 343q4 19 4 36q0 78 -76 78q-59 0 -94 -53q-33 -50 -50 -126l-49 -232h-122l106 498h103q-12 -51 -65 -108h61q24 54 65.5 88.5t97.5 34.5q66 0 107 -41.5t41 -112.5q0 -28 -7 -59l-78 -366q-15 -72 -51.5 -100.5t-115.5 -28.5h-102z
" />
    <glyph glyph-name="Omacron" unicode="&#x14c;" horiz-adv-x="825" 
d="M66 303q-3 169 115.5 292t284.5 120q156 0 246 -87t90 -231q2 -172 -114 -293.5t-284 -118.5q-156 0 -247 87t-91 231zM667 399q0 92 -53.5 148.5t-148.5 56.5q-73 2 -134.5 -41t-95.5 -113.5t-33 -149.5q0 -92 54 -148t148 -56q112 -2 188.5 90t74.5 213zM352 782l20 85
h339l-19 -85h-340z" />
    <glyph glyph-name="omacron" unicode="&#x14d;" horiz-adv-x="582" 
d="M37 206q-2 123 80 216t197 91q106 0 168.5 -60.5t62.5 -162.5q2 -125 -79.5 -216t-198.5 -89q-106 0 -168 61t-62 160zM420 290q0 60 -28 92t-80 32q-66 0 -108.5 -64t-42.5 -144q0 -122 108 -122q66 0 108.5 63t42.5 143zM199 584l19 85h308l-18 -85h-309z" />
    <glyph glyph-name="Obreve" unicode="&#x14e;" horiz-adv-x="825" 
d="M66 303q-3 169 115.5 292t284.5 120q156 0 246 -87t90 -231q2 -172 -114 -293.5t-284 -118.5q-156 0 -247 87t-91 231zM667 399q0 92 -53.5 148.5t-148.5 56.5q-73 2 -134.5 -41t-95.5 -113.5t-33 -149.5q0 -92 54 -148t148 -56q112 -2 188.5 90t74.5 213zM363 877
q0 12 1 17h94v-6q0 -25 17.5 -40.5t50.5 -15.5q70 0 93 62h101q-17 -58 -63 -98q-46 -41 -135 -41q-74 0 -116.5 35t-42.5 87z" />
    <glyph glyph-name="obreve" unicode="&#x14f;" horiz-adv-x="582" 
d="M37 206q-2 123 80 216t197 91q106 0 168.5 -60.5t62.5 -162.5q2 -125 -79.5 -216t-198.5 -89q-106 0 -168 61t-62 160zM420 290q0 60 -28 92t-80 32q-66 0 -108.5 -64t-42.5 -144q0 -122 108 -122q66 0 108.5 63t42.5 143zM213 675q0 14 1 18h86q-3 -27 13.5 -44.5
t48.5 -17.5q63 0 84 62h92q-15 -57 -57 -99q-41 -41 -123 -41q-68 0 -106.5 35t-38.5 87z" />
    <glyph glyph-name="Ohungarumlaut" unicode="&#x150;" horiz-adv-x="825" 
d="M66 303q-3 169 115.5 292t284.5 120q156 0 246 -87t90 -231q2 -172 -114 -293.5t-284 -118.5q-156 0 -247 87t-91 231zM667 399q0 92 -53.5 148.5t-148.5 56.5q-73 2 -134.5 -41t-95.5 -113.5t-33 -149.5q0 -92 54 -148t148 -56q112 -2 188.5 90t74.5 213zM362 768
l90 148h158l-153 -148h-95zM556 768l90 148h157l-152 -148h-95z" />
    <glyph glyph-name="ohungarumlaut" unicode="&#x151;" horiz-adv-x="582" 
d="M37 206q-2 123 80 216t197 91q106 0 168.5 -60.5t62.5 -162.5q2 -125 -79.5 -216t-198.5 -89q-106 0 -168 61t-62 160zM420 290q0 60 -28 92t-80 32q-66 0 -108.5 -64t-42.5 -144q0 -122 108 -122q66 0 108.5 63t42.5 143zM213 566l82 149h143l-138 -149h-87zM389 566
l82 149h142l-137 -149h-87z" />
    <glyph glyph-name="OE" unicode="&#x152;" horiz-adv-x="1202" 
d="M66 301q-3 167 110.5 292t263.5 122q57 0 100.5 -15t68.5 -41.5t39 -51.5t21 -54h45q-2 22 -2 32q0 47 14 115h524l-25 -112h-393l-36 -166h291l-23 -109h-292l-42 -202h395l-24 -111h-522q8 42 53 116h-54q-35 -55 -85 -93t-131 -38q-129 0 -212.5 88t-83.5 228z
M666 399q0 91 -53.5 148t-146.5 57q-73 2 -134.5 -41t-95.5 -113.5t-33 -149.5q0 -91 53.5 -147.5t148.5 -56.5q110 -2 186.5 90t74.5 213z" />
    <glyph glyph-name="oe" unicode="&#x153;" horiz-adv-x="937" 
d="M38 208q-2 121 76.5 214.5t185.5 90.5q72 0 118.5 -37t60.5 -87h42q25 56 73 90t111 34q90 0 142.5 -56t52.5 -144q0 -43 -14 -94h-349q-3 -17 -3 -32q0 -50 27 -78t78 -28q43 0 78 26t57 67l102 -48q-79 -141 -233 -141q-73 0 -118 32t-60 91h-43q-25 -57 -73 -90
t-112 -33q-89 0 -144 61t-55 162zM556 307h228q1 4 1 19q0 45 -25 70.5t-71 25.5q-45 0 -81 -31t-52 -84zM421 290q0 61 -28.5 92.5t-81.5 31.5q-65 0 -107 -64t-42 -142q0 -124 108 -124q66 0 108.5 63t42.5 143z" />
    <glyph glyph-name="Racute" unicode="&#x154;" horiz-adv-x="715" 
d="M39 0l149 700h283q105 0 166 -46t61 -129q0 -98 -69 -137q-70 -38 -164 -38l-10 -49q79 -2 112.5 -29t42.5 -102l21 -170h-138l-14 160q-5 66 -27.5 90.5t-87.5 24.5h-136l-59 -275h-130zM250 385h166q68 0 107.5 31.5t39.5 84.5q0 42 -29.5 64.5t-80.5 22.5h-160z
M390 768l91 148h156l-152 -148h-95z" />
    <glyph glyph-name="racute" unicode="&#x155;" horiz-adv-x="417" 
d="M22 0l106 498h111q-13 -62 -72 -143h61q32 78 73 115.5t102 37.5q28 0 51 -4l-27 -130q-37 5 -60 5q-144 0 -183 -188l-40 -191h-122zM248 566l83 149h141l-138 -149h-86z" />
    <glyph glyph-name="uni0156" unicode="&#x156;" horiz-adv-x="715" 
d="M39 0l149 700h283q105 0 166 -46t61 -129q0 -98 -69 -137q-70 -38 -164 -38l-10 -49q79 -2 112.5 -29t42.5 -102l21 -170h-138l-14 160q-5 66 -27.5 90.5t-87.5 24.5h-136l-59 -275h-130zM250 385h166q68 0 107.5 31.5t39.5 84.5q0 42 -29.5 64.5t-80.5 22.5h-160z
M180 -326l107 131h-67l28 125h128l-29 -132l-102 -124h-65z" />
    <glyph glyph-name="uni0157" unicode="&#x157;" horiz-adv-x="417" 
d="M22 0l106 498h111q-13 -62 -72 -143h61q32 78 73 115.5t102 37.5q28 0 51 -4l-27 -130q-37 5 -60 5q-144 0 -183 -188l-40 -191h-122zM-61 -326l107 131h-67l28 125h128l-29 -132l-102 -124h-65z" />
    <glyph glyph-name="Rcaron" unicode="&#x158;" horiz-adv-x="715" 
d="M39 0l149 700h283q105 0 166 -46t61 -129q0 -98 -69 -137q-70 -38 -164 -38l-10 -49q79 -2 112.5 -29t42.5 -102l21 -170h-138l-14 160q-5 66 -27.5 90.5t-87.5 24.5h-136l-59 -275h-130zM250 385h166q68 0 107.5 31.5t39.5 84.5q0 42 -29.5 64.5t-80.5 22.5h-160z
M687 884l-149 -126h-170l-88 126h114l66 -71l102 71h125z" />
    <glyph glyph-name="rcaron" unicode="&#x159;" horiz-adv-x="417" 
d="M22 0l106 498h111q-13 -62 -72 -143h61q32 78 73 115.5t102 37.5q28 0 51 -4l-27 -130q-37 5 -60 5q-144 0 -183 -188l-40 -191h-122zM218 566l-80 127h103l60 -72l92 72h115l-135 -127h-155z" />
    <glyph glyph-name="Sacute" unicode="&#x15a;" horiz-adv-x="646" 
d="M25 194l127 38q8 -59 52 -99.5t115 -40.5q64 0 101 28.5t37 72.5q0 35 -23.5 55.5t-78.5 35.5l-78 22q-84 24 -126.5 66t-42.5 125q0 94 74 156t193 62q118 0 185.5 -52.5t85.5 -136.5l-126 -36q-14 53 -51 85t-98 32q-57 0 -92 -28t-35 -69q0 -33 20 -52.5t66 -32.5
l88 -26q179 -49 180 -191q0 -101 -76.5 -162t-205.5 -61q-126 0 -201.5 58t-89.5 151zM375 768l91 148h156l-152 -148h-95z" />
    <glyph glyph-name="sacute" unicode="&#x15b;" horiz-adv-x="506" 
d="M5 128l114 33q6 -38 34.5 -62t75.5 -24q43 0 68 18t25 47q0 21 -14.5 34t-47.5 23l-56 15q-68 18 -101 50t-33 85q0 73 57 119.5t148 46.5q87 0 140 -36.5t66 -90.5l-107 -36q-7 34 -32.5 54.5t-65.5 20.5q-41 0 -63 -17.5t-22 -42.5q0 -19 14 -30t51 -22l48 -14
q148 -40 148 -144q0 -77 -63 -123.5t-160 -46.5q-92 0 -154.5 39t-69.5 104zM275 566l83 149h141l-138 -149h-86z" />
    <glyph glyph-name="Scircumflex" unicode="&#x15c;" horiz-adv-x="646" 
d="M25 194l127 38q8 -59 52 -99.5t115 -40.5q64 0 101 28.5t37 72.5q0 35 -23.5 55.5t-78.5 35.5l-78 22q-84 24 -126.5 66t-42.5 125q0 94 74 156t193 62q118 0 185.5 -52.5t85.5 -136.5l-126 -36q-14 53 -51 85t-98 32q-57 0 -92 -28t-35 -69q0 -33 20 -52.5t66 -32.5
l88 -26q179 -49 180 -191q0 -101 -76.5 -162t-205.5 -61q-126 0 -201.5 58t-89.5 151zM212 768l150 126h170l88 -126h-115l-65 72l-103 -72h-125z" />
    <glyph glyph-name="scircumflex" unicode="&#x15d;" horiz-adv-x="506" 
d="M5 128l114 33q6 -38 34.5 -62t75.5 -24q43 0 68 18t25 47q0 21 -14.5 34t-47.5 23l-56 15q-68 18 -101 50t-33 85q0 73 57 119.5t148 46.5q87 0 140 -36.5t66 -90.5l-107 -36q-7 34 -32.5 54.5t-65.5 20.5q-41 0 -63 -17.5t-22 -42.5q0 -19 14 -30t51 -22l48 -14
q148 -40 148 -144q0 -77 -63 -123.5t-160 -46.5q-92 0 -154.5 39t-69.5 104zM129 566l136 127h154l81 -127h-105l-60 72l-93 -72h-113z" />
    <glyph glyph-name="Scedilla" unicode="&#x15e;" horiz-adv-x="646" 
d="M598 208q0 -97 -71 -158t-192 -65l-17 -13l-29 -23l4 1q32 0 58 -20.5t26 -56.5q0 -46 -34 -73t-97 -27q-75 0 -117 46l47 57q32 -29 68 -29q46 0 46 27q0 10 -9.5 17t-26.5 7q-18 0 -28 -3l-25 44l59 49q-102 13 -162.5 69t-72.5 137l127 38q8 -59 52 -99.5t115 -40.5
q64 0 101 28.5t37 72.5q0 35 -23.5 55.5t-78.5 35.5l-78 22q-84 24 -126.5 66t-42.5 125q0 94 74 156t193 62q118 0 185.5 -52.5t85.5 -136.5l-126 -36q-14 53 -51 85t-98 32q-57 0 -92 -28t-35 -69q0 -33 20 -52.5t66 -32.5l88 -26q179 -49 180 -191z" />
    <glyph glyph-name="scedilla" unicode="&#x15f;" horiz-adv-x="506" 
d="M452 155q0 -73 -56 -118.5t-144 -51.5l-18 -13l-29 -23l4 1q32 0 58 -20.5t26 -56.5q0 -46 -34 -73t-97 -27q-73 0 -117 46l47 57q32 -29 68 -29q46 0 46 27q0 10 -9.5 17t-26.5 7q-18 0 -28 -3l-25 44l60 49q-73 11 -119 48.5t-53 91.5l114 33q6 -38 34.5 -62t75.5 -24
q43 0 68 18t25 47q0 21 -14.5 34t-47.5 23l-56 15q-68 18 -101 50t-33 85q0 73 57 119.5t148 46.5q87 0 140 -36.5t66 -90.5l-107 -36q-7 34 -32.5 54.5t-65.5 20.5q-41 0 -63 -17.5t-22 -42.5q0 -19 14 -30t51 -22l48 -14q148 -40 148 -144z" />
    <glyph glyph-name="Scaron" unicode="&#x160;" horiz-adv-x="646" 
d="M25 194l127 38q8 -59 52 -99.5t115 -40.5q64 0 101 28.5t37 72.5q0 35 -23.5 55.5t-78.5 35.5l-78 22q-84 24 -126.5 66t-42.5 125q0 94 74 156t193 62q118 0 185.5 -52.5t85.5 -136.5l-126 -36q-14 53 -51 85t-98 32q-57 0 -92 -28t-35 -69q0 -33 20 -52.5t66 -32.5
l88 -26q179 -49 180 -191q0 -101 -76.5 -162t-205.5 -61q-126 0 -201.5 58t-89.5 151zM659 884l-149 -126h-170l-88 126h114l66 -71l102 71h125z" />
    <glyph glyph-name="scaron" unicode="&#x161;" horiz-adv-x="518" 
d="M5 128l114 33q6 -38 34.5 -62t75.5 -24q43 0 68 18t25 47q0 21 -14.5 34t-47.5 23l-56 15q-68 18 -101 50t-33 85q0 73 57 119.5t148 46.5q87 0 140 -36.5t66 -90.5l-107 -36q-7 34 -32.5 54.5t-65.5 20.5q-41 0 -63 -17.5t-22 -42.5q0 -19 14 -30t51 -22l48 -14
q148 -40 148 -144q0 -77 -63 -123.5t-160 -46.5q-92 0 -154.5 39t-69.5 104zM248 566l-80 127h103l60 -72l92 72h115l-135 -127h-155z" />
    <glyph glyph-name="uni0162" unicode="&#x162;" horiz-adv-x="639" 
d="M108 700h615l-24 -112h-244l-125 -588l-37 -28l-11 -9l-18 -14l5 1q31 0 57.5 -21t26.5 -56q0 -46 -34.5 -73t-97.5 -27q-73 0 -117 46l47 57q32 -29 68 -29q46 0 46 27q0 10 -9.5 17t-26.5 7q-19 0 -29 -3l-24 44l74 61h-49l125 588h-242z" />
    <glyph glyph-name="uni0163" unicode="&#x163;" horiz-adv-x="421" 
d="M274 403l-55 -257q0 -2 -0.5 -5t-1 -5t-0.5 -3.5v-2.5q0 -30 40 -30h118l-21 -100h-91l-36 -28l-30 -23l5 1q32 0 58 -20.5t26 -56.5q0 -46 -34 -73t-97 -27q-75 0 -117 46l46 57q32 -29 68 -29q47 0 47 27q0 10 -9.5 17t-26.5 7q-19 0 -29 -3l-24 44l78 64
q-45 9 -69 38.5t-24 73.5q0 21 4 36l55 252h-109l21 95h107l34 156h122l-34 -156h130l-21 -95h-130z" />
    <glyph glyph-name="Tcaron" unicode="&#x164;" horiz-adv-x="639" 
d="M201 0l125 588h-242l24 112h615l-24 -112h-244l-125 -588h-129zM662 884l-149 -126h-170l-88 126h114l66 -71l102 71h125z" />
    <glyph glyph-name="tcaron" unicode="&#x165;" horiz-adv-x="421" 
d="M94 115q0 14 5 36l55 252h-109l21 95h107l34 156h122l-34 -156h130l-21 -95h-130l-55 -257q0 -2 -0.5 -5t-1 -5t-0.5 -3.5v-2.5q0 -30 40 -30h118l-21 -100h-130q-60 0 -95 31t-35 84zM374 540l107 131h-67l28 125h128l-29 -132l-102 -124h-65z" />
    <glyph glyph-name="Tbar" unicode="&#x166;" horiz-adv-x="653" 
d="M706 588h-245l-34 -158h148l-20 -94h-148l-71 -336h-129l71 336h-148l20 94h148l34 158h-241l24 112h614z" />
    <glyph glyph-name="tbar" unicode="&#x167;" horiz-adv-x="431" 
d="M412 403h-130l-14 -66h130l-20 -93h-130l-21 -98q0 -2 -0.5 -5t-1 -5t-0.5 -3.5v-2.5q0 -30 40 -30h118l-21 -100h-130q-60 0 -95 31t-35 84q0 19 4 36l20 93h-106l20 93h107l15 66h-109l21 95h107l34 156h121l-33 -156h130z" />
    <glyph glyph-name="Utilde" unicode="&#x168;" horiz-adv-x="753" 
d="M82 207q0 33 8 78l89 415h130l-88 -408q-7 -29 -7 -61q0 -63 36 -97.5t104 -34.5q82 0 128.5 48t67.5 145l87 408h129l-91 -428q-32 -148 -108 -217.5t-213 -69.5q-129 0 -200.5 57t-71.5 165zM491 785l-28 15q-31 17 -47 17q-41 0 -53 -49h-101q10 63 49.5 97.5
t99.5 34.5q44 0 91 -26l25 -14q1 0 20 -9t27 -9q37 0 54 47h101q-11 -65 -50 -98t-98 -33q-47 0 -90 27z" />
    <glyph glyph-name="utilde" unicode="&#x169;" horiz-adv-x="604" 
d="M50 136q0 33 7 62l65 300h121l-63 -296q-5 -23 -5 -39q0 -76 72 -76q59 0 93 54q34 55 51 129l49 228h122l-106 -498h-104q6 25 26.5 58.5t42.5 56.5h-61q-68 -130 -171 -130q-62 0 -100.5 40t-38.5 111zM352 588l-24 16q-31 17 -43 17q-38 0 -49 -49h-92
q10 63 45.5 97.5t89.5 34.5q42 0 83 -26l24 -14q31 -21 42 -18q35 0 49 47h92q-19 -131 -135 -131q-41 0 -82 26z" />
    <glyph glyph-name="Umacron" unicode="&#x16a;" horiz-adv-x="753" 
d="M82 207q0 33 8 78l89 415h130l-88 -408q-7 -29 -7 -61q0 -63 36 -97.5t104 -34.5q82 0 128.5 48t67.5 145l87 408h129l-91 -428q-32 -148 -108 -217.5t-213 -69.5q-129 0 -200.5 57t-71.5 165zM318 782l20 85h339l-19 -85h-340z" />
    <glyph glyph-name="umacron" unicode="&#x16b;" horiz-adv-x="583" 
d="M50 136q0 33 7 62l65 300h121l-63 -296q-5 -23 -5 -39q0 -76 72 -76q59 0 93 54q34 55 51 129l49 228h122l-106 -498h-104q6 25 26.5 58.5t42.5 56.5h-61q-68 -130 -171 -130q-62 0 -100.5 40t-38.5 111zM202 584l19 85h308l-18 -85h-309z" />
    <glyph glyph-name="Ubreve" unicode="&#x16c;" horiz-adv-x="753" 
d="M82 207q0 33 8 78l89 415h130l-88 -408q-7 -29 -7 -61q0 -63 36 -97.5t104 -34.5q82 0 128.5 48t67.5 145l87 408h129l-91 -428q-32 -148 -108 -217.5t-213 -69.5q-129 0 -200.5 57t-71.5 165zM329 877q0 12 1 17h94v-6q0 -25 17.5 -40.5t50.5 -15.5q70 0 93 62h101
q-17 -58 -63 -98q-46 -41 -135 -41q-74 0 -116.5 35t-42.5 87z" />
    <glyph glyph-name="ubreve" unicode="&#x16d;" horiz-adv-x="583" 
d="M50 136q0 33 7 62l65 300h121l-63 -296q-5 -23 -5 -39q0 -76 72 -76q59 0 93 54q34 55 51 129l49 228h122l-106 -498h-104q6 25 26.5 58.5t42.5 56.5h-61q-68 -130 -171 -130q-62 0 -100.5 40t-38.5 111zM217 675q0 14 1 18h86q-3 -27 13.5 -44.5t48.5 -17.5q63 0 84 62
h92q-15 -57 -57 -99q-41 -41 -123 -41q-68 0 -106.5 35t-38.5 87z" />
    <glyph glyph-name="Uring" unicode="&#x16e;" horiz-adv-x="753" 
d="M82 207q0 33 8 78l89 415h130l-88 -408q-7 -29 -7 -61q0 -63 36 -97.5t104 -34.5q82 0 128.5 48t67.5 145l87 408h129l-91 -428q-32 -148 -108 -217.5t-213 -69.5q-129 0 -200.5 57t-71.5 165zM361 862q0 57 39 95.5t99 38.5q52 0 86 -32.5t34 -83.5q0 -57 -39 -94.5
t-99 -37.5q-51 0 -85.5 31.5t-34.5 82.5zM543 878q0 21 -14.5 35t-34.5 14q-24 0 -41 -17.5t-17 -42.5q0 -23 14 -36.5t37 -13.5q24 0 40 17t16 44z" />
    <glyph glyph-name="uring" unicode="&#x16f;" horiz-adv-x="583" 
d="M50 136q0 33 7 62l65 300h121l-63 -296q-5 -23 -5 -39q0 -76 72 -76q59 0 93 54q34 55 51 129l49 228h122l-106 -498h-104q6 25 26.5 58.5t42.5 56.5h-61q-68 -130 -171 -130q-62 0 -100.5 40t-38.5 111zM242 659q0 55 37 91.5t95 36.5q48 0 81 -31.5t33 -79.5
q0 -55 -37 -90t-94 -35q-49 0 -82 29.5t-33 78.5zM416 674q0 21 -13.5 34t-33.5 13q-23 0 -39 -16.5t-16 -40.5q0 -22 13 -34.5t35 -12.5q23 0 38.5 16t15.5 41z" />
    <glyph glyph-name="Uhungarumlaut" unicode="&#x170;" horiz-adv-x="753" 
d="M82 207q0 33 8 78l89 415h130l-88 -408q-7 -29 -7 -61q0 -63 36 -97.5t104 -34.5q82 0 128.5 48t67.5 145l87 408h129l-91 -428q-32 -148 -108 -217.5t-213 -69.5q-129 0 -200.5 57t-71.5 165zM328 768l90 148h158l-153 -148h-95zM522 768l90 148h157l-152 -148h-95z" />
    <glyph glyph-name="uhungarumlaut" unicode="&#x171;" horiz-adv-x="583" 
d="M50 136q0 33 7 62l65 300h121l-63 -296q-5 -23 -5 -39q0 -76 72 -76q59 0 93 54q34 55 51 129l49 228h122l-106 -498h-104q6 25 26.5 58.5t42.5 56.5h-61q-68 -130 -171 -130q-62 0 -100.5 40t-38.5 111zM217 566l82 149h143l-138 -149h-87zM393 566l82 149h142
l-137 -149h-87z" />
    <glyph glyph-name="Uogonek" unicode="&#x172;" horiz-adv-x="753" 
d="M247 -123q0 63 73 109q-115 8 -176.5 64.5t-61.5 155.5q0 33 8 79l89 415h130l-88 -408q-7 -29 -7 -61q0 -63 36 -97.5t104 -34.5q82 0 128.5 48t67.5 145l87 408h129l-91 -428q-48 -227 -211 -272q-123 -36 -123 -88q0 -32 46 -32q21 0 59 9l-19 -89q-33 -8 -74 -8
q-50 0 -78 23t-28 62z" />
    <glyph glyph-name="uogonek" unicode="&#x173;" horiz-adv-x="583" 
d="M440 498h122l-106 -498h-1q-126 -34 -126 -88q0 -32 46 -32q21 0 58 9l-19 -89q-32 -8 -74 -8q-50 0 -78 23t-28 62q0 82 120 132q20 55 67 106h-61q-68 -130 -171 -130q-62 0 -100.5 40t-38.5 111q0 33 7 62l65 300h121l-63 -296q-5 -23 -5 -39q0 -76 72 -76q59 0 93 54
q34 55 51 129z" />
    <glyph glyph-name="Wcircumflex" unicode="&#x174;" horiz-adv-x="1027" 
d="M151 0l-28 700h132l3 -326q0 -106 -31 -253h51q25 123 68 212l177 367h168l17 -366q1 -19 1 -40q0 -85 -20 -173h50q15 77 30 132q18 59 46 123l143 324h143l-334 -700h-155l-20 369q-1 18 -1 39q0 78 21 180h-51q-26 -118 -74 -218l-179 -370h-157zM410 768l150 126h170
l88 -126h-115l-65 72l-103 -72h-125z" />
    <glyph glyph-name="wcircumflex" unicode="&#x175;" horiz-adv-x="842" 
d="M123 0l-54 498h120l11 -183q1 -22 1 -46q0 -64 -19 -179h48q17 75 28 109q13 41 41 99l98 200h143l14 -200q1 -8 1 -36q0 -60 -20 -172h48q18 74 31 114q16 44 51 121l85 173h130l-267 -498h-143l-14 190q-1 15 -1 42q0 40 5 82q4 38 18 102h-50q-18 -79 -31 -119
q-12 -41 -43 -105l-94 -192h-137zM292 566l136 127h154l81 -127h-105l-60 72l-93 -72h-113z" />
    <glyph glyph-name="Ycircumflex" unicode="&#x176;" horiz-adv-x="662" 
d="M215 0l61 289l-164 411h142l62 -167q20 -55 20 -104q0 -26 -8 -77h49q13 61 27 96.5t51 85.5l126 166h157l-332 -410l-62 -290h-129zM225 768l150 126h170l88 -126h-115l-65 72l-103 -72h-125z" />
    <glyph glyph-name="ycircumflex" unicode="&#x177;" horiz-adv-x="540" 
d="M442 498h135l-324 -576q-37 -69 -72.5 -93t-103.5 -24h-134l22 101h110q27 0 44 11.5t33 40.5l26 48l-123 492h129l44 -215q7 -31 7 -70t-11 -100h51q9 51 22 95q9 33 34 81zM130 566l136 127h154l81 -127h-105l-60 72l-93 -72h-113z" />
    <glyph glyph-name="Ydieresis" unicode="&#x178;" horiz-adv-x="662" 
d="M215 0l61 289l-164 411h142l62 -167q20 -55 20 -104q0 -26 -8 -77h49q13 61 27 96.5t51 85.5l126 166h157l-332 -410l-62 -290h-129zM255 768l26 113h130l-27 -113h-129zM485 768l26 113h131l-27 -113h-130z" />
    <glyph glyph-name="Zacute" unicode="&#x179;" horiz-adv-x="645" 
d="M-10 0l33 158l523 455l-32 40q-71 -65 -164 -65h-224l24 112h538l-33 -151l-528 -459l35 -40q63 63 171 63h249l-25 -113h-567zM372 768l91 148h156l-152 -148h-95z" />
    <glyph glyph-name="zacute" unicode="&#x17a;" horiz-adv-x="497" 
d="M-13 0l30 139l345 279l-32 40q-66 -59 -135 -59h-112l21 99h399l-24 -117l-366 -296l32 -37q63 52 142 52h145l-22 -100h-423zM267 566l83 149h141l-138 -149h-86z" />
    <glyph glyph-name="Zdotaccent" unicode="&#x17b;" horiz-adv-x="645" 
d="M-10 0l33 158l523 455l-32 40q-71 -65 -164 -65h-224l24 112h538l-33 -151l-528 -459l35 -40q63 63 171 63h249l-25 -113h-567zM356 768l27 125h128l-27 -125h-128z" />
    <glyph glyph-name="zdotaccent" unicode="&#x17c;" horiz-adv-x="497" 
d="M-13 0l30 139l345 279l-32 40q-66 -59 -135 -59h-112l21 99h399l-24 -117l-366 -296l32 -37q63 52 142 52h145l-22 -100h-423zM247 575l27 125h128l-27 -125h-128z" />
    <glyph glyph-name="Zcaron" unicode="&#x17d;" horiz-adv-x="645" 
d="M-10 0l33 158l523 455l-32 40q-71 -65 -164 -65h-224l24 112h538l-33 -151l-528 -459l35 -40q63 63 171 63h249l-25 -113h-567zM652 884l-149 -126h-170l-88 126h114l66 -71l102 71h125z" />
    <glyph glyph-name="zcaron" unicode="&#x17e;" horiz-adv-x="497" 
d="M-13 0l30 139l345 279l-32 40q-66 -59 -135 -59h-112l21 99h399l-24 -117l-366 -296l32 -37q63 52 142 52h145l-22 -100h-423zM237 566l-80 127h103l60 -72l92 72h115l-135 -127h-155z" />
    <glyph glyph-name="florin" unicode="&#x192;" horiz-adv-x="468" 
d="M-147 -196l21 98q29 -8 53 -8q85 0 119 97l68 181q29 73 50.5 105.5t69.5 64.5l-26 40q-51 -32 -95 -32h-49l18 84h128l43 114q33 87 84 127t132 40q37 0 77 -9l-23 -102q-23 3 -48 3q-42 0 -67 -18t-40 -59l-36 -96h129l-18 -84h-142l-137 -369q-38 -100 -92 -144
t-144 -44q-39 0 -75 11z" />
    <glyph glyph-name="uni01E2" unicode="&#x1e2;" horiz-adv-x="948" 
d="M971 588h-326l-37 -169h238l-24 -110h-237l-42 -198h328l-24 -111h-457l38 176h-210l-125 -176h-160l523 700h539zM555 622h-60q-44 -116 -112 -212l-87 -123h155l30 137q25 107 74 198zM550 782l20 85h339l-19 -85h-340z" />
    <glyph glyph-name="uni01E3" unicode="&#x1e3;" horiz-adv-x="875" 
d="M21 117q0 66 48.5 111.5t126 66.5t178.5 23l5 26q2 10 2 16q0 28 -22.5 44t-62.5 16q-44 0 -77.5 -24t-46.5 -57l-111 37q17 54 80 95.5t147 41.5q66 0 108 -28.5t53 -71.5h43q13 40 55 70t99 30q86 0 138.5 -56.5t52.5 -145.5q0 -41 -14 -92h-350q-3 -17 -3 -33
q0 -50 27.5 -77.5t79.5 -27.5q82 0 133 92l103 -48q-79 -140 -240 -140q-72 0 -118.5 33t-55.5 88h-44q-56 -121 -186 -121q-65 0 -106.5 35.5t-41.5 96.5zM492 307h229q1 8 1 18q0 45 -25 71t-69 26q-46 0 -82.5 -30.5t-53.5 -84.5zM349 199l9 40q-89 -1 -151 -27
q-60 -24 -60 -83q0 -23 19 -37.5t51 -14.5q48 0 83 31.5t49 90.5zM337 584l19 85h308l-18 -85h-309z" />
    <glyph glyph-name="Aringacute" unicode="&#x1fa;" horiz-adv-x="717" 
d="M515 0l-23 173h-291l-96 -173h-147l412 700h172l110 -700h-137zM263 284h215l-20 152q-6 42 -6 73q0 49 12 113h-48q-22 -99 -66 -180zM470 1004l82 129h142l-138 -129h-86zM365 850q0 54 37.5 91t94.5 37q48 0 81 -31.5t33 -79.5q0 -55 -37 -90t-94 -35q-49 0 -82 29.5
t-33 78.5zM539 865q0 21 -13.5 34t-33.5 13q-23 0 -39 -16.5t-16 -40.5q0 -22 13 -34.5t35 -12.5q23 0 38.5 16t15.5 41z" />
    <glyph glyph-name="aringacute" unicode="&#x1fb;" horiz-adv-x="560" 
d="M25 118q0 100 96 150q98 50 257 54l4 20q2 10 2 15q0 63 -88 63q-91 0 -127 -81l-111 37q20 58 81 97.5t158 39.5t150 -40t53 -115q0 -25 -6 -52l-39 -185q-1 -3 -1 -9q0 -16 20 -16h52l-21 -96h-44q-44 0 -64 15t-20 48q0 17 4 36h-47q-47 -114 -169 -114q-60 0 -100 34
t-40 99zM354 205l7 36q-210 -7 -210 -106q0 -27 18.5 -42.5t50.5 -15.5q44 0 83 35.5t51 92.5zM318 813l82 129h142l-138 -129h-86zM213 659q0 54 37.5 91t94.5 37q48 0 81 -31.5t33 -79.5q0 -55 -37 -90t-94 -35q-49 0 -82 29.5t-33 78.5zM387 674q0 21 -13.5 34t-33.5 13
q-23 0 -39 -16.5t-16 -40.5q0 -22 13 -34.5t35 -12.5q23 0 38.5 16t15.5 41z" />
    <glyph glyph-name="AEacute" unicode="&#x1fc;" horiz-adv-x="948" 
d="M971 588h-326l-37 -169h238l-24 -110h-237l-42 -198h328l-24 -111h-457l38 176h-210l-125 -176h-160l523 700h539zM555 622h-60q-44 -116 -112 -212l-87 -123h155l30 137q25 107 74 198zM662 768l91 148h156l-152 -148h-95z" />
    <glyph glyph-name="aeacute" unicode="&#x1fd;" horiz-adv-x="875" 
d="M21 117q0 66 48.5 111.5t126 66.5t178.5 23l5 26q2 10 2 16q0 28 -22.5 44t-62.5 16q-44 0 -77.5 -24t-46.5 -57l-111 37q17 54 80 95.5t147 41.5q66 0 108 -28.5t53 -71.5h43q13 40 55 70t99 30q86 0 138.5 -56.5t52.5 -145.5q0 -41 -14 -92h-350q-3 -17 -3 -33
q0 -50 27.5 -77.5t79.5 -27.5q82 0 133 92l103 -48q-79 -140 -240 -140q-72 0 -118.5 33t-55.5 88h-44q-56 -121 -186 -121q-65 0 -106.5 35.5t-41.5 96.5zM492 307h229q1 8 1 18q0 45 -25 71t-69 26q-46 0 -82.5 -30.5t-53.5 -84.5zM349 199l9 40q-89 -1 -151 -27
q-60 -24 -60 -83q0 -23 19 -37.5t51 -14.5q48 0 83 31.5t49 90.5zM446 566l83 149h141l-138 -149h-86z" />
    <glyph glyph-name="Oslashacute" unicode="&#x1fe;" horiz-adv-x="827" 
d="M122 -37l-80 78l77 76q-53 79 -53 186q-3 169 115.5 292t285.5 120q119 0 201 -54l76 75l80 -78l-74 -74q53 -80 53 -187q2 -172 -114 -293.5t-284 -118.5q-121 0 -205 55zM218 214l253 250q36 38 64 53.5t67 20.5l6 45q-56 21 -134 21q-117 3 -195 -89.5t-76 -214.5
q0 -47 15 -86zM668 399q0 45 -17 87l-254 -250q-37 -38 -66 -54q-26 -14 -66 -19l-6 -46q52 -21 143 -21q114 -2 191 89.5t75 213.5zM475 768l91 148h156l-152 -148h-95z" />
    <glyph glyph-name="oslashacute" unicode="&#x1ff;" horiz-adv-x="583" 
d="M120 29l-51 -49l-56 57l53 51q-28 52 -28 118q-3 123 80 216t197 91q90 0 148 -44l54 51l54 -57l-54 -52q29 -56 29 -121q2 -125 -79.5 -216t-198.5 -89q-89 0 -148 44zM163 181l122 117q36 34 61 46.5t55 11.5l10 42q-37 19 -87 19q-61 0 -106.5 -50t-52.5 -132
q-3 -17 -3 -33zM418 261q3 17 3 33t-1 24l-120 -117q-61 -61 -117 -61l-10 -42q33 -16 83 -16q64 0 109.5 49t52.5 130zM308 566l83 149h141l-138 -149h-86z" />
    <glyph glyph-name="uni0218" unicode="&#x218;" horiz-adv-x="646" 
d="M25 194l127 38q8 -59 52 -99.5t115 -40.5q64 0 101 28.5t37 72.5q0 35 -23.5 55.5t-78.5 35.5l-78 22q-84 24 -126.5 66t-42.5 125q0 94 74 156t193 62q118 0 185.5 -52.5t85.5 -136.5l-126 -36q-14 53 -51 85t-98 32q-57 0 -92 -28t-35 -69q0 -33 20 -52.5t66 -32.5
l88 -26q179 -49 180 -191q0 -101 -76.5 -162t-205.5 -61q-126 0 -201.5 58t-89.5 151zM154 -326l107 131h-67l28 125h128l-29 -132l-102 -124h-65z" />
    <glyph glyph-name="uni0219" unicode="&#x219;" horiz-adv-x="506" 
d="M5 128l114 33q6 -38 34.5 -62t75.5 -24q43 0 68 18t25 47q0 21 -14.5 34t-47.5 23l-56 15q-68 18 -101 50t-33 85q0 73 57 119.5t148 46.5q87 0 140 -36.5t66 -90.5l-107 -36q-7 34 -32.5 54.5t-65.5 20.5q-41 0 -63 -17.5t-22 -42.5q0 -19 14 -30t51 -22l48 -14
q148 -40 148 -144q0 -77 -63 -123.5t-160 -46.5q-92 0 -154.5 39t-69.5 104zM62 -326l107 131h-67l28 125h128l-29 -132l-102 -124h-65z" />
    <glyph glyph-name="uni021A" unicode="&#x21a;" horiz-adv-x="639" 
d="M201 0l125 588h-242l24 112h615l-24 -112h-244l-125 -588h-129zM120 -326l107 131h-67l28 125h128l-29 -132l-102 -124h-65z" />
    <glyph glyph-name="uni021B" unicode="&#x21b;" horiz-adv-x="421" 
d="M94 115q0 14 5 36l55 252h-109l21 95h107l34 156h122l-34 -156h130l-21 -95h-130l-55 -257q0 -2 -0.5 -5t-1 -5t-0.5 -3.5v-2.5q0 -30 40 -30h118l-21 -100h-130q-60 0 -95 31t-35 84zM54 -326l107 131h-67l28 125h128l-29 -132l-102 -124h-65z" />
    <glyph glyph-name="uni0226" unicode="&#x226;" horiz-adv-x="717" 
d="M515 0l-23 173h-291l-96 -173h-147l412 700h172l110 -700h-137zM263 284h215l-20 152q-6 42 -6 73q0 49 12 113h-48q-22 -99 -66 -180zM406 768l27 125h128l-27 -125h-128z" />
    <glyph glyph-name="uni0227" unicode="&#x227;" horiz-adv-x="560" 
d="M25 118q0 100 96 150q98 50 257 54l4 20q2 10 2 15q0 63 -88 63q-91 0 -127 -81l-111 37q20 58 81 97.5t158 39.5t150 -40t53 -115q0 -25 -6 -52l-39 -185q-1 -3 -1 -9q0 -16 20 -16h52l-21 -96h-44q-44 0 -64 15t-20 48q0 17 4 36h-47q-47 -114 -169 -114q-60 0 -100 34
t-40 99zM354 205l7 36q-210 -7 -210 -106q0 -27 18.5 -42.5t50.5 -15.5q44 0 83 35.5t51 92.5zM260 575l27 125h128l-27 -125h-128z" />
    <glyph glyph-name="uni0232" unicode="&#x232;" horiz-adv-x="662" 
d="M215 0l61 289l-164 411h142l62 -167q20 -55 20 -104q0 -26 -8 -77h49q13 61 27 96.5t51 85.5l126 166h157l-332 -410l-62 -290h-129zM275 782l20 85h339l-19 -85h-340z" />
    <glyph glyph-name="uni0233" unicode="&#x233;" horiz-adv-x="540" 
d="M442 498h135l-324 -576q-37 -69 -72.5 -93t-103.5 -24h-134l22 101h110q27 0 44 11.5t33 40.5l26 48l-123 492h129l44 -215q7 -31 7 -70t-11 -100h51q9 51 22 95q9 33 34 81zM170 584l19 85h308l-18 -85h-309z" />
    <glyph glyph-name="uni0237" unicode="&#x237;" horiz-adv-x="278" 
d="M-132 -195l21 101h74q47 0 57 46l116 546h121l-121 -566q-14 -65 -46 -96t-96 -31h-126z" />
    <glyph glyph-name="circumflex" unicode="&#x2c6;" horiz-adv-x="661" 
d="M109 566l136 127h154l81 -127h-105l-60 72l-93 -72h-113z" />
    <glyph glyph-name="caron" unicode="&#x2c7;" horiz-adv-x="661" 
d="M210 566l-80 127h103l60 -72l92 72h115l-135 -127h-155z" />
    <glyph glyph-name="breve" unicode="&#x2d8;" horiz-adv-x="432" 
d="M117 675q0 14 1 18h86q-3 -27 13.5 -44.5t48.5 -17.5q63 0 84 62h92q-15 -57 -57 -99q-41 -41 -123 -41q-68 0 -106.5 35t-38.5 87z" />
    <glyph glyph-name="dotaccent" unicode="&#x2d9;" horiz-adv-x="323" 
d="M133 575l27 125h128l-27 -125h-128z" />
    <glyph glyph-name="ring" unicode="&#x2da;" horiz-adv-x="364" 
d="M118 659q0 55 37 91.5t95 36.5q48 0 81 -31.5t33 -79.5q0 -55 -37 -90t-94 -35q-49 0 -82 29.5t-33 78.5zM292 674q0 21 -13.5 34t-33.5 13q-23 0 -39 -16.5t-16 -40.5q0 -22 13 -34.5t35 -12.5q23 0 38.5 16t15.5 41z" />
    <glyph glyph-name="ogonek" unicode="&#x2db;" horiz-adv-x="330" 
d="M35 -123q0 50 46.5 89t127.5 61l47 -27q-126 -34 -126 -88q0 -32 46 -32q20 0 58 9l-19 -89q-32 -8 -74 -8q-50 0 -78 23t-28 62z" />
    <glyph glyph-name="tilde" unicode="&#x2dc;" horiz-adv-x="449" 
d="M284 588l-24 16q-31 17 -43 17q-38 0 -49 -49h-92q10 63 45.5 97.5t89.5 34.5q42 0 83 -26l24 -14q31 -21 42 -18q35 0 49 47h92q-19 -131 -135 -131q-41 0 -82 26z" />
    <glyph glyph-name="hungarumlaut" unicode="&#x2dd;" horiz-adv-x="572" 
d="M142 566l82 149h143l-138 -149h-87zM318 566l82 149h142l-137 -149h-87z" />
    <glyph glyph-name="gravecomb" unicode="&#x300;" horiz-adv-x="0" 
d="M-49 566l-83 149h138l17 -149h-72z" />
    <glyph glyph-name="acutecomb" unicode="&#x301;" horiz-adv-x="0" 
d="M-146 566l83 149h141l-138 -149h-86z" />
    <glyph glyph-name="uni0302" unicode="&#x302;" horiz-adv-x="0" 
d="M-358 566l136 127h154l81 -127h-105l-60 72l-93 -72h-113z" />
    <glyph glyph-name="tildecomb" unicode="&#x303;" horiz-adv-x="0" 
d="M-164 588l-24 16q-31 17 -43 17q-38 0 -49 -49h-92q10 63 45.5 97.5t89.5 34.5q42 0 83 -26l24 -14q31 -21 42 -18q35 0 49 47h92q-19 -131 -135 -131q-41 0 -82 26z" />
    <glyph glyph-name="uni0304" unicode="&#x304;" horiz-adv-x="0" 
d="M-300 584l19 85h308l-18 -85h-309z" />
    <glyph glyph-name="uni0306" unicode="&#x306;" horiz-adv-x="0" 
d="M-288 675q0 14 1 18h86q-3 -27 13.5 -44.5t48.5 -17.5q63 0 84 62h92q-15 -56 -56 -99q-43 -41 -124 -41q-68 0 -106.5 35t-38.5 87z" />
    <glyph glyph-name="uni0307" unicode="&#x307;" horiz-adv-x="0" 
d="M-104 575l27 125h128l-27 -125h-128z" />
    <glyph glyph-name="uni0308" unicode="&#x308;" horiz-adv-x="0" 
d="M-320 580l24 113h119l-25 -113h-118zM-111 580l25 113h118l-24 -113h-119z" />
    <glyph glyph-name="uni030A" unicode="&#x30a;" horiz-adv-x="0" 
d="M-200 659q0 55 37 91.5t95 36.5q48 0 81 -31.5t33 -79.5q0 -55 -37 -90t-94 -35q-49 0 -82 29.5t-33 78.5zM-26 674q0 21 -13.5 34t-33.5 13q-23 0 -39 -16.5t-16 -40.5q0 -22 13 -34.5t35 -12.5q23 0 38.5 16t15.5 41z" />
    <glyph glyph-name="uni030B" unicode="&#x30b;" horiz-adv-x="0" 
d="M-337 566l82 149h143l-138 -149h-87zM-161 566l82 149h142l-137 -149h-87z" />
    <glyph glyph-name="uni030C" unicode="&#x30c;" horiz-adv-x="0" 
d="M-266 566l-80 127h103l60 -72l92 72h115l-135 -127h-155z" />
    <glyph glyph-name="uni0312" unicode="&#x312;" horiz-adv-x="0" 
d="M115 831l-107 -132h67l-28 -124h-128l29 131l102 125h65z" />
    <glyph glyph-name="dotbelowcomb" unicode="&#x323;" horiz-adv-x="0" 
d="M-226 -195l27 125h128l-27 -125h-128z" />
    <glyph glyph-name="uni0326" unicode="&#x326;" horiz-adv-x="0" 
d="M-277 -326l107 131h-67l28 125h128l-29 -132l-102 -124h-65z" />
    <glyph glyph-name="uni0327" unicode="&#x327;" horiz-adv-x="0" 
d="M-339 -181l47 57q32 -29 68 -29q46 0 46 27q0 10 -9.5 17t-26.5 7q-18 0 -28 -3l-25 44l93 77l61 -16l-36 -28l-30 -23l5 1q31 0 57.5 -21t26.5 -56q0 -46 -34.5 -73t-97.5 -27q-73 0 -117 46z" />
    <glyph glyph-name="uni0328" unicode="&#x328;" horiz-adv-x="0" 
d="M-247 -123q0 50 46.5 89t127.5 61l47 -27q-126 -34 -126 -88q0 -32 46 -32q20 0 58 9l-19 -89q-32 -8 -74 -8q-50 0 -78 23t-28 62z" />
    <glyph glyph-name="uni0394" unicode="&#x394;" horiz-adv-x="717" 
d="M542 700l110 -700h-694l412 700h172zM167 111h333l-42 325q-6 42 -6 73q0 49 12 113h-48q-22 -99 -66 -180z" />
    <glyph glyph-name="uni03A9" unicode="&#x3a9;" horiz-adv-x="844" 
d="M9 0l24 111h43q68 0 141 -42l21 47q-83 31 -121 83.5t-38 136.5q-2 97 47 184.5t140 142t200 52.5q151 0 237.5 -80.5t86.5 -209.5q0 -109 -66 -189.5t-193 -122.5l23 -48q77 46 139 46h40l-23 -111h-311l26 119q99 19 162.5 105t63.5 186q0 90 -52 142t-140 52
q-71 2 -129.5 -41.5t-89 -111t-29.5 -141.5q0 -160 126 -191l-25 -119h-303z" />
    <glyph glyph-name="uni03BC" unicode="&#x3bc;" horiz-adv-x="589" 
d="M-20 -195l148 693h122l-63 -296q-5 -23 -5 -39q0 -37 18.5 -56.5t52.5 -19.5q61 0 95 54q35 57 50 129l49 228h122l-107 -498h-105q6 26 27 59q23 34 44 56h-61q-33 -63 -73 -96.5t-101 -33.5q-28 0 -50 13l-40 -193h-123z" />
    <glyph glyph-name="pi" unicode="&#x3c0;" horiz-adv-x="652" 
d="M63 0l86 399h-101l21 99h591l-21 -99h-101l-55 -254q-1 -5 -1 -15q0 -30 39 -30h58l-22 -100h-75q-58 0 -91 28t-33 76q0 16 3 32l57 263h-148l-86 -399h-121z" />
    <glyph glyph-name="Wgrave" unicode="&#x1e80;" horiz-adv-x="1027" 
d="M151 0l-28 700h132l3 -326q0 -106 -31 -253h51q25 123 68 212l177 367h168l17 -366q1 -19 1 -40q0 -85 -20 -173h50q15 77 30 132q18 59 46 123l143 324h143l-334 -700h-155l-20 369q-1 18 -1 39q0 78 21 180h-51q-26 -118 -74 -218l-179 -370h-157zM575 768l-92 148h152
l19 -148h-79z" />
    <glyph glyph-name="wgrave" unicode="&#x1e81;" horiz-adv-x="842" 
d="M123 0l-54 498h120l11 -183q1 -22 1 -46q0 -64 -19 -179h48q17 75 28 109q13 41 41 99l98 200h143l14 -200q1 -8 1 -36q0 -60 -20 -172h48q18 74 31 114q16 44 51 121l85 173h130l-267 -498h-143l-14 190q-1 15 -1 42q0 40 5 82q4 38 18 102h-50q-18 -79 -31 -119
q-12 -41 -43 -105l-94 -192h-137zM445 566l-83 149h138l17 -149h-72z" />
    <glyph glyph-name="Wacute" unicode="&#x1e82;" horiz-adv-x="1027" 
d="M151 0l-28 700h132l3 -326q0 -106 -31 -253h51q25 123 68 212l177 367h168l17 -366q1 -19 1 -40q0 -85 -20 -173h50q15 77 30 132q18 59 46 123l143 324h143l-334 -700h-155l-20 369q-1 18 -1 39q0 78 21 180h-51q-26 -118 -74 -218l-179 -370h-157zM572 768l91 148h156
l-152 -148h-95z" />
    <glyph glyph-name="wacute" unicode="&#x1e83;" horiz-adv-x="842" 
d="M123 0l-54 498h120l11 -183q1 -22 1 -46q0 -64 -19 -179h48q17 75 28 109q13 41 41 99l98 200h143l14 -200q1 -8 1 -36q0 -60 -20 -172h48q18 74 31 114q16 44 51 121l85 173h130l-267 -498h-143l-14 190q-1 15 -1 42q0 40 5 82q4 38 18 102h-50q-18 -79 -31 -119
q-12 -41 -43 -105l-94 -192h-137zM440 566l83 149h141l-138 -149h-86z" />
    <glyph glyph-name="Wdieresis" unicode="&#x1e84;" horiz-adv-x="1027" 
d="M151 0l-28 700h132l3 -326q0 -106 -31 -253h51q25 123 68 212l177 367h168l17 -366q1 -19 1 -40q0 -85 -20 -173h50q15 77 30 132q18 59 46 123l143 324h143l-334 -700h-155l-20 369q-1 18 -1 39q0 78 21 180h-51q-26 -118 -74 -218l-179 -370h-157zM440 768l26 113h130
l-27 -113h-129zM670 768l26 113h131l-27 -113h-130z" />
    <glyph glyph-name="wdieresis" unicode="&#x1e85;" horiz-adv-x="842" 
d="M123 0l-54 498h120l11 -183q1 -22 1 -46q0 -64 -19 -179h48q17 75 28 109q13 41 41 99l98 200h143l14 -200q1 -8 1 -36q0 -60 -20 -172h48q18 74 31 114q16 44 51 121l85 173h130l-267 -498h-143l-14 190q-1 15 -1 42q0 40 5 82q4 38 18 102h-50q-18 -79 -31 -119
q-12 -41 -43 -105l-94 -192h-137zM322 580l24 113h119l-25 -113h-118zM531 580l25 113h118l-24 -113h-119z" />
    <glyph glyph-name="uni1E9E" unicode="&#x1e9e;" horiz-adv-x="732" 
d="M248 21l25 118q67 -35 129 -35q63 0 101.5 30t38.5 78q0 41 -30.5 65t-85.5 24h-95l24 116h76q60 0 93.5 25.5t33.5 70.5q0 75 -106 75h-158l-125 -588h-130l149 700h289q99 0 157 -41t58 -114q0 -72 -48.5 -111.5t-131.5 -43.5l-10 -47q82 -3 128 -44.5t46 -103.5
q0 -94 -73 -152t-197 -58q-102 0 -158 36z" />
    <glyph glyph-name="uni1EA0" unicode="&#x1ea0;" horiz-adv-x="717" 
d="M515 0l-23 173h-291l-96 -173h-147l412 700h172l110 -700h-137zM263 284h215l-20 152q-6 42 -6 73q0 49 12 113h-48q-22 -99 -66 -180zM204 -195l27 125h128l-27 -125h-128z" />
    <glyph glyph-name="uni1EA1" unicode="&#x1ea1;" horiz-adv-x="560" 
d="M25 118q0 100 96 150q98 50 257 54l4 20q2 10 2 15q0 63 -88 63q-91 0 -127 -81l-111 37q20 58 81 97.5t158 39.5t150 -40t53 -115q0 -25 -6 -52l-39 -185q-1 -3 -1 -9q0 -16 20 -16h52l-21 -96h-44q-44 0 -64 15t-20 48q0 17 4 36h-47q-47 -114 -169 -114q-60 0 -100 34
t-40 99zM354 205l7 36q-210 -7 -210 -106q0 -27 18.5 -42.5t50.5 -15.5q44 0 83 35.5t51 92.5zM133 -195l27 125h128l-27 -125h-128z" />
    <glyph glyph-name="uni1EB8" unicode="&#x1eb8;" horiz-adv-x="649" 
d="M39 0l149 700h509l-24 -112h-380l-36 -172h285l-24 -110h-285l-41 -195h381l-24 -111h-510zM189 -195l27 125h128l-27 -125h-128z" />
    <glyph glyph-name="uni1EB9" unicode="&#x1eb9;" horiz-adv-x="553" 
d="M36 198q-2 76 32.5 149t99 120.5t140.5 45.5q97 0 152.5 -56t55.5 -146q0 -44 -14 -92h-349q-3 -17 -3 -33q0 -49 27.5 -77t77.5 -28q84 0 135 92l102 -48q-76 -140 -237 -140q-106 0 -162.5 54.5t-56.5 158.5zM171 309h229q1 9 1 18q0 44 -25 69.5t-69 25.5
q-45 0 -82 -30t-54 -83zM142 -195l27 125h128l-27 -125h-128z" />
    <glyph glyph-name="uni1ECA" unicode="&#x1eca;" horiz-adv-x="312" 
d="M39 0l149 700h129l-149 -700h-129zM-2 -195l27 125h128l-27 -125h-128z" />
    <glyph glyph-name="uni1ECB" unicode="&#x1ecb;" horiz-adv-x="269" 
d="M141 577l26 123h125l-25 -123h-126zM22 0l105 498h120l-105 -498h-120zM-22 -195l25 123h127l-26 -123h-126z" />
    <glyph glyph-name="uni1ECC" unicode="&#x1ecc;" horiz-adv-x="825" 
d="M66 303q-3 169 115.5 292t284.5 120q156 0 246 -87t90 -231q2 -172 -114 -293.5t-284 -118.5q-156 0 -247 87t-91 231zM667 399q0 92 -53.5 148.5t-148.5 56.5q-73 2 -134.5 -41t-95.5 -113.5t-33 -149.5q0 -92 54 -148t148 -56q112 -2 188.5 90t74.5 213zM258 -195
l27 125h128l-27 -125h-128z" />
    <glyph glyph-name="uni1ECD" unicode="&#x1ecd;" horiz-adv-x="582" 
d="M37 206q-2 123 80 216t197 91q106 0 168.5 -60.5t62.5 -162.5q2 -125 -79.5 -216t-198.5 -89q-106 0 -168 61t-62 160zM420 290q0 60 -28 92t-80 32q-66 0 -108.5 -64t-42.5 -144q0 -122 108 -122q66 0 108.5 63t42.5 143zM145 -195l27 125h128l-27 -125h-128z" />
    <glyph glyph-name="uni1EE4" unicode="&#x1ee4;" horiz-adv-x="753" 
d="M82 207q0 33 8 78l89 415h130l-88 -408q-7 -29 -7 -61q0 -63 36 -97.5t104 -34.5q82 0 128.5 48t67.5 145l87 408h129l-91 -428q-32 -148 -108 -217.5t-213 -69.5q-129 0 -200.5 57t-71.5 165zM219 -195l27 125h128l-27 -125h-128z" />
    <glyph glyph-name="uni1EE5" unicode="&#x1ee5;" horiz-adv-x="583" 
d="M50 136q0 33 7 62l65 300h121l-63 -296q-5 -23 -5 -39q0 -76 72 -76q59 0 93 54q34 55 51 129l49 228h122l-106 -498h-104q6 25 26.5 58.5t42.5 56.5h-61q-68 -130 -171 -130q-62 0 -100.5 40t-38.5 111zM133 -195l27 125h128l-27 -125h-128z" />
    <glyph glyph-name="Ygrave" unicode="&#x1ef2;" horiz-adv-x="662" 
d="M215 0l61 289l-164 411h142l62 -167q20 -55 20 -104q0 -26 -8 -77h49q13 61 27 96.5t51 85.5l126 166h157l-332 -410l-62 -290h-129zM396 768l-92 148h152l19 -148h-79z" />
    <glyph glyph-name="ygrave" unicode="&#x1ef3;" horiz-adv-x="540" 
d="M442 498h135l-324 -576q-37 -69 -72.5 -93t-103.5 -24h-134l22 101h110q27 0 44 11.5t33 40.5l26 48l-123 492h129l44 -215q7 -31 7 -70t-11 -100h51q9 51 22 95q9 33 34 81zM286 566l-83 149h138l17 -149h-72z" />
    <glyph glyph-name="uni2002" unicode="&#x2002;" horiz-adv-x="500" 
 />
    <glyph glyph-name="uni2003" unicode="&#x2003;" horiz-adv-x="1000" 
 />
    <glyph glyph-name="uni2009" unicode="&#x2009;" horiz-adv-x="125" 
 />
    <glyph glyph-name="endash" unicode="&#x2013;" horiz-adv-x="635" 
d="M68 264l22 101h503l-22 -101h-503z" />
    <glyph glyph-name="emdash" unicode="&#x2014;" horiz-adv-x="912" 
d="M69 264l21 101h779l-22 -101h-778z" />
    <glyph glyph-name="quoteleft" unicode="&#x2018;" horiz-adv-x="264" 
d="M306 700l-117 -146h73l-30 -139h-140l32 146l111 139h71z" />
    <glyph glyph-name="quoteright" unicode="&#x2019;" horiz-adv-x="257" 
d="M91 416l116 146h-72l29 139h140l-32 -146l-111 -139h-70z" />
    <glyph glyph-name="quotesinglbase" unicode="&#x201a;" horiz-adv-x="270" 
d="M-24 -146l116 146h-72l29 139h140l-32 -146l-111 -139h-70z" />
    <glyph glyph-name="quotedblleft" unicode="&#x201c;" horiz-adv-x="462" 
d="M305 700l-117 -146h73l-30 -139h-139l32 146l110 139h71zM504 700l-116 -146h72l-29 -139h-140l32 146l111 139h70z" />
    <glyph glyph-name="quotedblright" unicode="&#x201d;" horiz-adv-x="456" 
d="M91 416l116 146h-72l29 139h140l-32 -146l-111 -139h-70zM290 416l116 146h-72l29 139h140l-32 -146l-111 -139h-70z" />
    <glyph glyph-name="quotedblbase" unicode="&#x201e;" horiz-adv-x="469" 
d="M-24 -146l116 146h-72l29 139h140l-32 -146l-111 -139h-70zM175 -146l116 146h-72l29 139h140l-32 -146l-111 -139h-70z" />
    <glyph glyph-name="dagger" unicode="&#x2020;" horiz-adv-x="619" 
d="M283 -101v492h-203v111h203v198h130v-198h203v-111h-203v-492h-130z" />
    <glyph glyph-name="daggerdbl" unicode="&#x2021;" horiz-adv-x="684" 
d="M288 -101v197h-204v112h204v183h-204v111h204v198h129v-198h204v-111h-204v-183h204v-112h-204v-197h-129z" />
    <glyph glyph-name="bullet" unicode="&#x2022;" horiz-adv-x="544" 
d="M93 349q0 83 59 142.5t141 59.5q83 0 142.5 -59.5t59.5 -142.5q0 -81 -60 -140.5t-142 -59.5q-81 0 -140.5 59.5t-59.5 140.5z" />
    <glyph glyph-name="ellipsis" unicode="&#x2026;" horiz-adv-x="774" 
d="M17 0l31 146h148l-31 -146h-148zM267 0l31 146h148l-31 -146h-148zM516 0l31 146h148l-31 -146h-148z" />
    <glyph glyph-name="perthousand" unicode="&#x2030;" horiz-adv-x="1179" 
d="M86 461q0 103 55.5 175t133.5 72q73 0 115.5 -46t42.5 -125q0 -103 -55 -174.5t-135 -71.5q-75 0 -116 45t-41 125zM752 700h123l-644 -700h-122zM188 461q0 -88 55 -88q35 0 61.5 49.5t26.5 114.5q0 89 -55 89q-35 0 -61.5 -50t-26.5 -115zM1137 239q0 -102 -55 -174
t-135 -72q-81 0 -122 53q-51 -53 -119 -53q-75 0 -116 45t-41 126q0 102 55.5 174.5t133.5 72.5t122 -55q52 55 119 55q73 0 115.5 -46.5t42.5 -125.5zM793 239q0 90 -55 90q-34 0 -61 -51t-27 -114q0 -89 56 -89q34 0 60.5 49.5t26.5 114.5zM1035 239q0 43 -14.5 66.5
t-40.5 23.5q-34 0 -61 -51t-27 -114q0 -89 55 -89q35 0 61.5 49.5t26.5 114.5z" />
    <glyph glyph-name="guilsinglleft" unicode="&#x2039;" horiz-adv-x="348" 
d="M363 481l-199 -242l84 -217h-120l-88 230l186 229h137z" />
    <glyph glyph-name="guilsinglright" unicode="&#x203a;" horiz-adv-x="347" 
d="M221 481l88 -230l-186 -229h-137l200 243l-84 216h119z" />
    <glyph glyph-name="fraction" unicode="&#x2044;" horiz-adv-x="193" 
d="M-267 0l644 700h122l-643 -700h-123z" />
    <glyph glyph-name="uni2070" unicode="&#x2070;" horiz-adv-x="429" 
d="M115 552q0 103 55 175t134 72q73 0 115 -46t42 -125q0 -103 -54.5 -174.5t-135.5 -71.5q-74 0 -115 45t-41 125zM359 628q0 89 -55 89q-34 0 -61 -50.5t-27 -114.5q0 -88 55 -88q35 0 61.5 49.5t26.5 114.5z" />
    <glyph glyph-name="uni2074" unicode="&#x2074;" horiz-adv-x="407" 
d="M253 390l20 96h-186l19 84l201 221h125l-49 -226h56l-17 -79h-56l-20 -96h-93zM291 565l8 35q11 49 65 92l-25 24l-157 -171l24 -21q35 41 72 41h13z" />
    <glyph glyph-name="uni2075" unicode="&#x2075;" horiz-adv-x="388" 
d="M92 503l96 19q2 -27 16.5 -43t38.5 -16q27 0 44.5 19t17.5 48q0 23 -13 35.5t-34 12.5q-34 0 -55 -35l-90 21l81 227h252l-17 -83h-174l-8 -23q-17 -50 -58 -87h48q27 53 74 53q42 0 68.5 -31t26.5 -80q0 -72 -45 -115t-118 -43q-64 0 -105 33t-46 88z" />
    <glyph glyph-name="uni2076" unicode="&#x2076;" horiz-adv-x="408" 
d="M113 547q0 113 62 182.5t163 69.5q68 0 112 -23l-19 -88q-47 26 -104 26q-118 0 -140 -120h38q9 30 32.5 48t53.5 18q48 0 81.5 -35t33.5 -86q0 -68 -45.5 -112.5t-114.5 -44.5q-70 0 -111.5 44.5t-41.5 120.5zM324 534q0 23 -13 36.5t-34 13.5q-26 0 -44 -20t-18 -51
q0 -22 13 -36t34 -14q26 0 44 21t18 50z" />
    <glyph glyph-name="uni2077" unicode="&#x2077;" horiz-adv-x="354" 
d="M323 708l21 11l-21 32q-59 -43 -122 -43h-72l17 83h294l-19 -91q-174 -103 -194 -310h-104q6 98 60 184t140 134z" />
    <glyph glyph-name="uni2078" unicode="&#x2078;" horiz-adv-x="397" 
d="M99 490q0 40 31.5 65.5t88.5 25.5l8 38q-38 1 -60.5 19.5t-22.5 46.5q0 48 44 81t109 33q58 0 97.5 -28t39.5 -71q0 -36 -28 -59t-74 -23l-9 -38q39 -3 62.5 -24.5t23.5 -52.5q0 -51 -45.5 -86t-116.5 -35q-67 0 -107.5 30.5t-40.5 77.5zM336 681q0 38 -43 38
q-23 0 -37.5 -13.5t-14.5 -35.5q0 -40 44 -40q22 0 36.5 14.5t14.5 36.5zM308 517q0 20 -13.5 32t-36.5 12q-25 0 -41.5 -16t-16.5 -40q0 -42 49 -42q26 0 42.5 14.5t16.5 39.5z" />
    <glyph glyph-name="uni2079" unicode="&#x2079;" horiz-adv-x="403" 
d="M102 406l18 87q50 -24 100 -24q63 0 99 36q33 33 39 85h-37q-21 -64 -85 -64q-47 0 -77 33.5t-30 86.5q0 67 44 110t112 43q71 0 110 -44q42 -47 42 -123q0 -112 -60.5 -181t-159.5 -69q-65 0 -115 24zM334 669q0 21 -13 35t-33 14q-24 0 -40 -19t-16 -47q0 -22 12 -36
t32 -14q25 0 41.5 19t16.5 48z" />
    <glyph glyph-name="uni20A9" unicode="&#x20a9;" horiz-adv-x="1168" 
d="M1162 395h-136l-31 -64h117l-16 -80h-139l-119 -251h-160l-11 251h-175l-120 -251h-153l-11 251h-137l17 80h117l-2 64h-138l18 80h116l-9 225h134l-1 -225h162l107 225h166l10 -225h161l98 225h144l-108 -225h116zM680 588h-51q-12 -56 -34 -113h69q3 51 16 113z
M322 331h95l1 2l30 62h-125v-21q0 -24 -1 -43zM530 331h133l-1 38l-1 26h-100l-12 -25zM886 376l8 19h-123l2 -61v-3h94zM384 251h-68q-6 -62 -21 -130h52q17 74 37 130zM840 251h-67q-1 -60 -16 -130h51q19 90 32 130z" />
    <glyph glyph-name="Euro" unicode="&#x20ac;" horiz-adv-x="714" 
d="M127 227h-92l17 84h73q0 36 12 74h-69l18 85h76q42 110 123 177.5t182 67.5q112 0 176 -56.5t76 -153.5l-125 -29q-20 129 -130 129q-59 0 -112.5 -38.5t-95.5 -108.5l32 -27q35 39 94 39h85l-17 -85h-192q-13 -38 -15 -74h191l-18 -84h-82q-55 0 -86 37l-33 -22
q15 -65 61.5 -105.5t108.5 -40.5q56 0 98 39t64 107l118 -44q-35 -97 -107 -155t-175 -58q-111 0 -178 63.5t-78 178.5z" />
    <glyph glyph-name="uni20B9" unicode="&#x20b9;" horiz-adv-x="587" 
d="M445 636l-22 -40q37 -16 56 -46h131l-19 -91h-98q-12 -53 -64.5 -83.5t-131.5 -32.5l-9 -44q70 -1 100 -31.5t35 -95.5l10 -172h-137l-4 161q-3 65 -29 89.5t-94 24.5h-112l24 110h153q107 0 137 74h-275l19 91h258q-25 55 -112 55h-134l20 95h495l-19 -91h-63
q-66 0 -115 27z" />
    <glyph glyph-name="uni20BA" unicode="&#x20ba;" horiz-adv-x="661" 
d="M105 0l22 101q15 70 68 126l-40 30q-35 -54 -72 -72l-38 -18l23 109l107 51l13 65l-106 -51l23 109l107 51l42 199h130l-6 -30q-13 -57 -65 -112l40 -31q33 54 83 79l152 74l-23 -109l-232 -111l-14 -64l233 110l-24 -109l-232 -111l-35 -169h21q67 0 134.5 46t101.5 135
l110 -68q-40 -99 -132 -164.5t-236 -65.5h-155z" />
    <glyph glyph-name="uni20BD" unicode="&#x20bd;" horiz-adv-x="652" 
d="M388 275h-131l-13 -61h214l-20 -93h-214l-26 -121h-128l26 121h-73l20 93h73l13 61h-73l22 102h73l69 323h206q112 0 174.5 -54t62.5 -142q0 -105 -75.5 -167t-199.5 -62zM324 588l-45 -211h109q65 0 104.5 34t39.5 87q0 41 -31 65.5t-82 24.5h-95z" />
    <glyph glyph-name="uni20BF" unicode="&#x20bf;" horiz-adv-x="694" 
d="M643 199q0 -87 -73 -143t-188 -56l-23 -104h-86l23 104h-53l-22 -104h-86l22 104h-116l149 700h116l22 101h86l-22 -101h52l22 101h86l-23 -108q67 -14 104.5 -52.5t37.5 -94.5q0 -75 -50.5 -114t-139.5 -45l-10 -48q82 -3 127 -38t45 -102zM295 588l-36 -171h150
q60 0 93.5 26t33.5 71q0 74 -106 74h-135zM510 221q0 43 -31.5 65t-87.5 22h-155l-42 -197h174q65 0 103.5 30.5t38.5 79.5z" />
    <glyph glyph-name="uni2113" unicode="&#x2113;" horiz-adv-x="515" 
d="M78 121q0 17 5 42l6 33q-50 -2 -69 -2l20 95q29 1 70 6l53 248q18 81 66.5 126.5t124.5 45.5q83 0 133 -46.5t50 -125.5q0 -108 -90 -196.5t-231 -128.5l-11 -58q-3 -14 -3 -25q0 -45 42 -45q60 0 90 88l116 -51q-20 -59 -73.5 -100.5t-131.5 -41.5q-79 0 -123 35.5
t-44 100.5zM409 536q0 37 -15.5 57t-42.5 20q-52 0 -66 -71l-19 -88q-10 -50 -27.5 -77.5t-57.5 -58.5l25 -38q92 46 147.5 115t55.5 141z" />
    <glyph glyph-name="uni2116" unicode="&#x2116;" horiz-adv-x="1252" 
d="M47 0l149 700h186l225 -552l46 21q-22 56 -22 115q0 44 11 96l68 320h130l-149 -700h-152l-247 611l-47 -19q21 -60 21 -121q0 -48 -10 -98l-79 -373h-130zM852 467q-2 93 64 169.5t167 73.5q82 0 135 -51t53 -133q0 -97 -63.5 -167t-169.5 -70q-86 0 -136 48.5
t-50 129.5zM1160 533q0 47 -22 73t-62 26q-49 0 -81.5 -52.5t-32.5 -115.5q0 -47 22 -72t62 -25q51 0 82.5 50.5t31.5 115.5z" />
    <glyph glyph-name="uni2117" unicode="&#x2117;" horiz-adv-x="890" 
d="M74 357q-2 105 51.5 196t145.5 144t197 51q105 2 197.5 -51t146 -144t51.5 -196q2 -104 -51.5 -195.5t-146 -144.5t-197.5 -51q-161 -3 -279 114.5t-115 276.5zM775 357q2 126 -88.5 218.5t-217.5 89.5q-127 3 -218 -89.5t-89 -218.5q-2 -126 88.5 -217.5t218.5 -89.5
q127 -2 217.5 89.5t88.5 217.5zM341 157v410h182q58 0 98 -33.5t40 -89.5t-39.5 -90.5t-100.5 -34.5h-96v-162h-84zM425 383h74q75 0 75 59q0 58 -76 58h-73v-117z" />
    <glyph glyph-name="trademark" unicode="&#x2122;" horiz-adv-x="946" 
d="M167 321l65 304h-120l16 75h329l-16 -75h-121l-65 -304h-88zM419 321l81 379h138l17 -164q3 -28 3 -54q0 -37 -8 -90h36q12 79 46 145l84 163h145l-81 -379h-87l28 129q17 74 80 174l-35 19l-7 -13l-162 -309h-91l-34 310l-1 11l-39 -5q10 -50 10 -101q0 -43 -8 -85
l-28 -130h-87z" />
    <glyph glyph-name="Omega" unicode="&#x2126;" horiz-adv-x="874" 
d="M91 0v111h35q29 0 59 -8q37 -11 94 -43l25 46q-213 78 -213 271q-2 140 98.5 240.5t253.5 97.5q153 3 253 -97.5t98 -240.5q0 -193 -212 -271l24 -46q3 1 30 17q61 34 123 34h35v-111h-308v119q80 15 126 78t46 163q0 108 -59 176t-157 68q-97 0 -155.5 -68t-58.5 -176
q0 -100 45 -163t125 -78v-119h-307z" />
    <glyph glyph-name="onethird" unicode="&#x2153;" horiz-adv-x="861" 
d="M147 299l45 208q11 53 44 100h-41q-20 -45 -41.5 -63t-60.5 -18l20 94q83 2 131 80h84l-86 -401h-95zM31 0l644 700h122l-643 -700h-123zM489 127l101 12q-2 -31 11.5 -48.5t40.5 -17.5q24 0 39 14t15 37q0 18 -12.5 29t-32.5 11h-30l17 79h26q27 0 43.5 13t16.5 36
q0 16 -11 26t-28 10q-22 0 -36 -16t-18 -43l-98 17q10 58 51.5 90.5t105.5 32.5q59 0 95 -26.5t36 -69.5q0 -40 -31 -64.5t-82 -26.5l-8 -34q42 -1 68.5 -22.5t26.5 -56.5q0 -50 -44 -83.5t-111 -33.5q-71 0 -112 36.5t-39 98.5z" />
    <glyph glyph-name="twothirds" unicode="&#x2154;" horiz-adv-x="955" 
d="M75 299l21 100q122 62 166.5 97.5t48.5 81.5q0 48 -44 48q-24 0 -39.5 -20.5t-18.5 -56.5l-100 15q8 66 51 105t111 39q63 0 103.5 -33t40.5 -85q0 -64 -51 -110q-28 -25 -71 -46q-42 -21 -123 -57l19 -36q40 24 63.5 32.5t62.5 8.5h59l-18 -83h-281zM126 0l644 700h122
l-643 -700h-123zM584 127l101 12q-2 -31 11.5 -48.5t40.5 -17.5q24 0 39 14t15 37q0 18 -12.5 29t-32.5 11h-30l17 79h26q27 0 43.5 13t16.5 36q0 16 -11 26t-28 10q-22 0 -36 -16t-18 -43l-98 17q10 58 51.5 90.5t105.5 32.5q59 0 95 -26.5t36 -69.5q0 -40 -31 -64.5
t-82 -26.5l-8 -34q42 -1 68.5 -22.5t26.5 -56.5q0 -50 -44 -83.5t-111 -33.5q-71 0 -112 36.5t-39 98.5z" />
    <glyph glyph-name="uni2155" unicode="&#x2155;" horiz-adv-x="868" 
d="M146 299l45 208q11 53 44 100h-41q-20 -45 -41.5 -63t-60.5 -18l20 94q83 2 131 80h84l-86 -401h-95zM30 0l644 700h122l-643 -700h-123zM490 113l96 19q2 -27 16.5 -43t38.5 -16q27 0 44.5 19t17.5 48q0 23 -13 35.5t-34 12.5q-34 0 -55 -35l-90 21l81 227h252l-17 -83
h-174l-8 -23q-17 -50 -58 -87h48q27 53 74 53q42 0 68.5 -31t26.5 -80q0 -72 -45 -115t-118 -43q-64 0 -105 33t-46 88z" />
    <glyph glyph-name="uni2156" unicode="&#x2156;" horiz-adv-x="959" 
d="M73 299l21 100q122 62 166.5 97.5t48.5 81.5q0 48 -44 48q-24 0 -39.5 -20.5t-18.5 -56.5l-100 15q8 66 51 105t111 39q63 0 103.5 -33t40.5 -85q0 -64 -51 -110q-28 -25 -71 -46q-42 -21 -123 -57l19 -36q40 24 63.5 32.5t62.5 8.5h59l-18 -83h-281zM123 0l644 700h122
l-643 -700h-123zM583 113l96 19q2 -27 16.5 -43t38.5 -16q27 0 44.5 19t17.5 48q0 23 -13 35.5t-34 12.5q-34 0 -55 -35l-90 21l81 227h252l-17 -83h-174l-8 -23q-17 -50 -58 -87h48q27 53 74 53q42 0 68.5 -31t26.5 -80q0 -72 -45 -115t-118 -43q-64 0 -105 33t-46 88z" />
    <glyph glyph-name="uni2157" unicode="&#x2157;" horiz-adv-x="957" 
d="M72 426l101 12q-2 -31 11.5 -48.5t40.5 -17.5q24 0 39 14t15 37q0 18 -12.5 29t-32.5 11h-30l17 79h26q27 0 43.5 13t16.5 36q0 16 -11 26t-28 10q-22 0 -36 -16t-18 -43l-98 17q10 58 51.5 90.5t105.5 32.5q59 0 95 -26.5t36 -69.5q0 -40 -31 -64.5t-82 -26.5l-8 -34
q42 -1 68.5 -22.5t26.5 -56.5q0 -50 -44 -83.5t-111 -33.5q-71 0 -112 36.5t-39 98.5zM114 0l644 700h122l-643 -700h-123zM574 113l96 19q2 -27 16.5 -43t38.5 -16q27 0 44.5 19t17.5 48q0 23 -13 35.5t-34 12.5q-34 0 -55 -35l-90 21l81 227h252l-17 -83h-174l-8 -23
q-17 -50 -58 -87h48q27 53 74 53q42 0 68.5 -31t26.5 -80q0 -72 -45 -115t-118 -43q-64 0 -105 33t-46 88z" />
    <glyph glyph-name="uni2158" unicode="&#x2158;" horiz-adv-x="976" 
d="M233 299l20 96h-186l19 84l201 221h125l-49 -226h56l-17 -79h-56l-20 -96h-93zM271 474l8 35q11 49 65 92l-25 24l-157 -171l24 -21q35 41 72 41h13zM134 0l644 700h122l-643 -700h-123zM594 113l96 19q2 -27 16.5 -43t38.5 -16q27 0 44.5 19t17.5 48q0 23 -13 35.5
t-34 12.5q-34 0 -55 -35l-90 21l81 227h252l-17 -83h-174l-8 -23q-17 -50 -58 -87h48q27 53 74 53q42 0 68.5 -31t26.5 -80q0 -72 -45 -115t-118 -43q-64 0 -105 33t-46 88z" />
    <glyph glyph-name="uni2159" unicode="&#x2159;" horiz-adv-x="890" 
d="M147 299l45 208q11 53 44 100h-41q-20 -45 -41.5 -63t-60.5 -18l20 94q83 2 131 80h84l-86 -401h-95zM31 0l644 700h122l-643 -700h-123zM510 157q0 113 62 182.5t163 69.5q68 0 112 -23l-19 -88q-47 26 -104 26q-118 0 -140 -120h38q9 30 32.5 48t53.5 18q48 0 81.5 -35
t33.5 -86q0 -68 -45.5 -112.5t-114.5 -44.5q-70 0 -111.5 44.5t-41.5 120.5zM721 144q0 23 -13 36.5t-34 13.5q-26 0 -44 -20t-18 -51q0 -22 13 -36t34 -14q26 0 44 21t18 50z" />
    <glyph glyph-name="uni215A" unicode="&#x215a;" horiz-adv-x="965" 
d="M67 412l96 19q2 -27 16.5 -43t38.5 -16q27 0 44.5 19t17.5 48q0 23 -13 35.5t-34 12.5q-34 0 -55 -35l-90 21l81 227h252l-17 -83h-174l-8 -23q-17 -50 -58 -87h48q27 53 74 53q42 0 68.5 -31t26.5 -80q0 -72 -45 -115t-118 -43q-64 0 -105 33t-46 88zM113 0l644 700h122
l-643 -700h-123zM592 157q0 113 62 182.5t163 69.5q68 0 112 -23l-19 -88q-47 26 -104 26q-118 0 -140 -120h38q9 30 32.5 48t53.5 18q48 0 81.5 -35t33.5 -86q0 -68 -45.5 -112.5t-114.5 -44.5q-70 0 -111.5 44.5t-41.5 120.5zM803 144q0 23 -13 36.5t-34 13.5
q-26 0 -44 -20t-18 -51q0 -22 13 -36t34 -14q26 0 44 21t18 50z" />
    <glyph glyph-name="oneeighth" unicode="&#x215b;" horiz-adv-x="871" 
d="M147 299l45 208q11 53 44 100h-41q-20 -45 -41.5 -63t-60.5 -18l20 94q83 2 131 80h84l-86 -401h-95zM31 0l644 700h122l-643 -700h-123zM495 100q0 40 31.5 65.5t88.5 25.5l8 38q-38 1 -60.5 19.5t-22.5 46.5q0 48 44 81t109 33q58 0 97.5 -28t39.5 -71q0 -36 -28 -59
t-74 -23l-9 -38q39 -3 62.5 -24.5t23.5 -52.5q0 -51 -45.5 -86t-116.5 -35q-67 0 -107.5 30.5t-40.5 77.5zM732 291q0 38 -43 38q-23 0 -37.5 -13.5t-14.5 -35.5q0 -40 44 -40q22 0 36.5 14.5t14.5 36.5zM704 127q0 20 -13.5 32t-36.5 12q-25 0 -41.5 -16t-16.5 -40
q0 -42 49 -42q26 0 42.5 14.5t16.5 39.5z" />
    <glyph glyph-name="threeeighths" unicode="&#x215c;" horiz-adv-x="953" 
d="M72 426l101 12q-2 -31 11.5 -48.5t40.5 -17.5q24 0 39 14t15 37q0 18 -12.5 29t-32.5 11h-30l17 79h26q27 0 43.5 13t16.5 36q0 16 -11 26t-28 10q-22 0 -36 -16t-18 -43l-98 17q10 58 51.5 90.5t105.5 32.5q59 0 95 -26.5t36 -69.5q0 -40 -31 -64.5t-82 -26.5l-8 -34
q42 -1 68.5 -22.5t26.5 -56.5q0 -50 -44 -83.5t-111 -33.5q-71 0 -112 36.5t-39 98.5zM114 0l644 700h122l-643 -700h-123zM579 100q0 40 31.5 65.5t88.5 25.5l8 38q-38 1 -60.5 19.5t-22.5 46.5q0 48 44 81t109 33q58 0 97.5 -28t39.5 -71q0 -36 -28 -59t-74 -23l-9 -38
q39 -3 62.5 -24.5t23.5 -52.5q0 -51 -45.5 -86t-116.5 -35q-67 0 -107.5 30.5t-40.5 77.5zM816 291q0 38 -43 38q-23 0 -37.5 -13.5t-14.5 -35.5q0 -40 44 -40q22 0 36.5 14.5t14.5 36.5zM788 127q0 20 -13.5 32t-36.5 12q-25 0 -41.5 -16t-16.5 -40q0 -42 49 -42
q26 0 42.5 14.5t16.5 39.5z" />
    <glyph glyph-name="fiveeighths" unicode="&#x215d;" horiz-adv-x="952" 
d="M67 412l96 19q2 -27 16.5 -43t38.5 -16q27 0 44.5 19t17.5 48q0 23 -13 35.5t-34 12.5q-34 0 -55 -35l-90 21l81 227h252l-17 -83h-174l-8 -23q-17 -50 -58 -87h48q27 53 74 53q42 0 68.5 -31t26.5 -80q0 -72 -45 -115t-118 -43q-64 0 -105 33t-46 88zM113 0l644 700h122
l-643 -700h-123zM578 100q0 40 31.5 65.5t88.5 25.5l8 38q-38 1 -60.5 19.5t-22.5 46.5q0 48 44 81t109 33q58 0 97.5 -28t39.5 -71q0 -36 -28 -59t-74 -23l-9 -38q39 -3 62.5 -24.5t23.5 -52.5q0 -51 -45.5 -86t-116.5 -35q-67 0 -107.5 30.5t-40.5 77.5zM815 291
q0 38 -43 38q-23 0 -37.5 -13.5t-14.5 -35.5q0 -40 44 -40q22 0 36.5 14.5t14.5 36.5zM787 127q0 20 -13.5 32t-36.5 12q-25 0 -41.5 -16t-16.5 -40q0 -42 49 -42q26 0 42.5 14.5t16.5 39.5z" />
    <glyph glyph-name="seveneighths" unicode="&#x215e;" horiz-adv-x="873" 
d="M306 617l21 11l-21 32q-59 -43 -122 -43h-72l17 83h294l-19 -91q-174 -103 -194 -310h-104q6 98 60 184t140 134zM33 0l644 700h122l-643 -700h-123zM498 100q0 40 31.5 65.5t88.5 25.5l8 38q-38 1 -60.5 19.5t-22.5 46.5q0 48 44 81t109 33q58 0 97.5 -28t39.5 -71
q0 -36 -28 -59t-74 -23l-9 -38q39 -3 62.5 -24.5t23.5 -52.5q0 -51 -45.5 -86t-116.5 -35q-67 0 -107.5 30.5t-40.5 77.5zM735 291q0 38 -43 38q-23 0 -37.5 -13.5t-14.5 -35.5q0 -40 44 -40q22 0 36.5 14.5t14.5 36.5zM707 127q0 20 -13.5 32t-36.5 12q-25 0 -41.5 -16
t-16.5 -40q0 -42 49 -42q26 0 42.5 14.5t16.5 39.5z" />
    <glyph glyph-name="uni215F" unicode="&#x215f;" horiz-adv-x="393" 
d="M139 299l45 208q11 53 44 100h-41q-20 -45 -41.5 -63t-60.5 -18l20 94q83 2 131 80h84l-86 -401h-95zM23 0l644 700h122l-643 -700h-123z" />
    <glyph glyph-name="arrowleft" unicode="&#x2190;" horiz-adv-x="847" 
d="M824 287h-580v-50q37 -2 55 -4.5t48 -16t58 -40.5l59 -58l-89 -89l-322 321l322 321l89 -89l-57 -57q-41 -38 -77 -49t-86 -13v-50h580v-126z" />
    <glyph glyph-name="arrowup" unicode="&#x2191;" horiz-adv-x="692" 
d="M325 0v580h-50q-1 -36 -4 -56t-16.5 -48.5t-40.5 -57.5l-58 -59l-89 90l321 322l320 -322l-88 -90l-57 58q-38 41 -49.5 77t-13.5 86h-49v-580h-126z" />
    <glyph glyph-name="arrowright" unicode="&#x2192;" horiz-adv-x="848" 
d="M67 413h580v49q-35 1 -54.5 4t-49 17t-57.5 40l-59 59l89 88l322 -320l-322 -321l-89 89l57 56q29 27 59 41.5t50 17.5t54 4v50h-580v126z" />
    <glyph glyph-name="arrowdown" unicode="&#x2193;" horiz-adv-x="691" 
d="M410 700v-580h50q1 36 4 55.5t16.5 48.5t40.5 58l58 59l89 -90l-321 -321l-321 321l89 90l57 -57q38 -41 49 -77t13 -87h50v580h126z" />
    <glyph glyph-name="uni2196" unicode="&#x2196;" horiz-adv-x="750" 
d="M715 208l-89 -89l-402 402l-36 -35q18 -21 35 -43q36 -43 37 -114v-83h-127v454h454v-127l-79 1q-37 0 -70 11q-40 16 -90 61l-35 -36z" />
    <glyph glyph-name="uni2197" unicode="&#x2197;" horiz-adv-x="644" 
d="M115 118l-89 90l402 402l-34 35q-21 -18 -43 -35q-51 -36 -115 -36l-83 -1v127h454v-454h-127l1 80q0 38 11 69q8 19 18 35.5t17.5 26t25.5 29.5l-35 35z" />
    <glyph glyph-name="uni2198" unicode="&#x2198;" horiz-adv-x="748" 
d="M76 493l89 89l402 -403l36 35l-36 42q-35 49 -36 116v82h127v-454h-454v127l79 -1q39 0 69 -12q43 -16 91 -59l36 35z" />
    <glyph glyph-name="uni2199" unicode="&#x2199;" horiz-adv-x="639" 
d="M570 582l89 -89l-402 -403l35 -35q19 18 42 35q45 36 115 36l83 1v-127h-454v454h127l-1 -79q0 -13 -1.5 -24.5t-3 -20.5t-5.5 -19.5t-5.5 -16t-7.5 -15.5t-7.5 -13.5t-10 -13.5t-9.5 -12t-11 -13.5t-11 -12.5l35 -35z" />
    <glyph glyph-name="uni21A4" unicode="&#x21a4;" horiz-adv-x="910" 
d="M697 628h128v-556h-128v215h-453v-50q35 -1 55 -4t49 -16.5t58 -40.5l59 -57l-90 -89l-321 321l321 319l90 -88l-57 -56q-43 -39 -78.5 -50.5t-85.5 -12.5v-49h453v214z" />
    <glyph glyph-name="uni21A5" unicode="&#x21a5;" horiz-adv-x="748" 
d="M452 581v-454h215v-127h-556v127h214v454h-50q-2 -39 -4 -55q-8 -59 -57 -108l-57 -59l-89 90l321 321l320 -321l-89 -90l-56 57q-28 30 -41 57q-17 41 -22 108h-49z" />
    <glyph glyph-name="uni21A6" unicode="&#x21a6;" horiz-adv-x="909" 
d="M578 670l321 -320l-321 -320l-90 89l57 55q42 39 76.5 50t87.5 13v50h-453v-215h-128v556h128v-214h453v49q-35 1 -55 4t-49 16.5t-58 40.5l-59 58z" />
    <glyph glyph-name="uni21A7" unicode="&#x21a7;" horiz-adv-x="750" 
d="M635 341l89 -90l-321 -321l-320 321l89 90l56 -57q28 -30 41 -58q20 -42 22 -106h49v453h-214v128h556v-128h-215v-453h50q2 36 4 53q7 58 57 109z" />
    <glyph glyph-name="uni21B0" unicode="&#x21b0;" horiz-adv-x="908" 
d="M246 413h580v-413h-131v287h-449v-50q38 -2 56 -4.5t47.5 -16t58.5 -40.5l59 -58l-90 -89l-321 321l321 321l90 -89l-57 -57q-41 -38 -77 -49t-87 -13v-50z" />
    <glyph glyph-name="uni21B1" unicode="&#x21b1;" horiz-adv-x="851" 
d="M520 670l322 -320l-322 -321l-89 89l57 56q29 27 59 41.5t50 17.5t54 4v50h-449v-287h-131v413h580v49q-35 1 -54.5 4t-49 17t-57.5 40l-59 59z" />
    <glyph glyph-name="uni21B2" unicode="&#x21b2;" horiz-adv-x="851" 
d="M692 700h130v-412h-580v-50q36 -1 55.5 -4t48.5 -16.5t58 -40.5l59 -58l-89 -89l-322 321l322 320l89 -88l-57 -57q-41 -38 -77.5 -49.5t-86.5 -13.5v-49h450v286z" />
    <glyph glyph-name="uni21B3" unicode="&#x21b3;" horiz-adv-x="908" 
d="M574 671l322 -321l-322 -321l-89 89l57 57q41 38 77 49t87 13v50h-581v413h131v-287h450v50q-35 1 -55 4t-49.5 17t-57.5 40l-59 58z" />
    <glyph glyph-name="partialdiff" unicode="&#x2202;" horiz-adv-x="640" 
d="M69 231q0 100 61.5 163.5t148.5 63.5q129 0 171 -117h47q-3 117 -73.5 187t-176.5 70q-67 0 -135 -27v121q63 23 148 23q158 0 249.5 -105t91.5 -279q0 -156 -74.5 -251t-202.5 -95q-114 0 -184.5 69t-70.5 177zM455 224q0 59 -37.5 96.5t-91.5 37.5t-91 -36.5t-37 -94.5
q0 -60 37.5 -97t91.5 -37q55 0 91.5 37t36.5 94z" />
    <glyph glyph-name="Delta" unicode="&#x2206;" horiz-adv-x="759" 
d="M441 700l262 -700h-700l266 700h172zM183 111h337l-118 342q-24 68 -25 169h-49q-1 -102 -25 -170z" />
    <glyph glyph-name="product" unicode="&#x220f;" horiz-adv-x="853" 
d="M822 700v-112h-96v-689h-131v689h-250v-689h-131v689h-96v112h704z" />
    <glyph glyph-name="summation" unicode="&#x2211;" horiz-adv-x="756" 
d="M122 -101v114l256 285l-257 286v116h528v-112l-193 1q-94 1 -158 60l-37 -35l20 -22l262 -292l-257 -286l-26 -29l37 -34q66 59 159 59h204v-111h-538z" />
    <glyph glyph-name="minus" unicode="&#x2212;" horiz-adv-x="690" 
d="M99 299v108h531v-108h-531z" />
    <glyph glyph-name="uni2215" unicode="&#x2215;" horiz-adv-x="375" 
d="M-83 -102l459 907h124l-459 -907h-124z" />
    <glyph glyph-name="radical" unicode="&#x221a;" horiz-adv-x="638" 
d="M259 -101l-142 394h-84v112h173l78 -241q16 -49 21 -88q7 -41 8 -98h48q2 68 6 104q4 37 18 82l171 536h132l-278 -801h-151z" />
    <glyph glyph-name="infinity" unicode="&#x221e;" horiz-adv-x="863" 
d="M72 353q0 79 56 135.5t133 56.5q61 0 109.5 -36.5t62.5 -105.5h42q14 70 61.5 106t109.5 36q78 0 133 -56t55 -136t-55 -136t-133 -56q-62 0 -109.5 35.5t-61.5 105.5h-42q-16 -69 -64 -105t-108 -36q-77 0 -133 56.5t-56 135.5zM394 355q-33 52 -60 73t-59 21
q-39 0 -66 -27.5t-27 -68.5t27 -68.5t66 -27.5q32 0 58 20.5t61 77.5zM724 353q0 41 -27 68.5t-66 27.5q-31 0 -58 -21.5t-60 -72.5q36 -58 60.5 -78t57.5 -20q39 0 66 27.5t27 68.5z" />
    <glyph glyph-name="integral" unicode="&#x222b;" horiz-adv-x="348" 
d="M6 -194v110h57q23 0 36.5 15t13.5 42v579q0 66 37.5 107t112.5 41h81v-110h-57q-23 0 -36.5 -15t-13.5 -43v-578q0 -66 -37.5 -107t-112.5 -41h-81z" />
    <glyph glyph-name="approxequal" unicode="&#x2248;" horiz-adv-x="647" 
d="M345 394l-38 20q-37 18 -66 18q-50 0 -89 -52l-72 71q30 45 74 70t92 25q51 0 106 -29l36 -18q43 -21 70 -21q44 0 89 55l71 -73q-29 -45 -73 -70t-93 -25q-48 0 -107 29zM345 174l-38 20q-37 18 -66 18q-50 0 -89 -52l-72 71q30 45 74 70t92 25q51 0 106 -29l36 -18
q43 -21 70 -21q44 0 89 55l71 -73q-29 -45 -73 -70t-93 -25q-48 0 -107 29z" />
    <glyph glyph-name="notequal" unicode="&#x2260;" horiz-adv-x="720" 
d="M155 87l56 94h-105v107h168l36 58q18 32 72 72l-28 38q-55 -44 -124 -44h-124v108h307l59 99h113l-59 -99h115v-108h-179l-33 -58q-21 -32 -74 -73l30 -37q53 44 119 44h137v-107h-316l-55 -94h-115z" />
    <glyph glyph-name="lessequal" unicode="&#x2264;" horiz-adv-x="697" 
d="M628 223l-535 115v174l535 117v-109l-234 -49q-79 -15 -226 -20v-44q131 -3 226 -20l234 -48v-116zM93 87v107h535v-107h-535z" />
    <glyph glyph-name="greaterequal" unicode="&#x2265;" horiz-adv-x="718" 
d="M115 223v109l235 48q76 15 225 20v44q-143 5 -225 20l-235 49v115l535 -115v-173zM115 87v107h535v-107h-535z" />
    <glyph glyph-name="angleleft" unicode="&#x2329;" horiz-adv-x="356" 
d="M435 698l-287 -410l112 -410l-107 -38l-123 462l317 463z" />
    <glyph glyph-name="angleright" unicode="&#x232a;" horiz-adv-x="356" 
d="M227 765l123 -462l-318 -463l-88 67l287 410l-112 410z" />
    <glyph glyph-name="uni2460" unicode="&#x2460;" horiz-adv-x="875" 
d="M66 329q-2 106 51 202.5t149.5 155.5t211.5 57q157 2 268 -102.5t109 -258.5q2 -107 -51 -202.5t-150 -154.5t-211 -56q-161 -2 -270 101t-107 258zM768 380q0 125 -82.5 203t-209.5 78q-130 3 -227.5 -99t-94.5 -229q0 -124 82 -202t209 -78q130 -3 227.5 98.5
t95.5 228.5zM392 157l45 208q11 53 44 100h-41q-20 -45 -41.5 -63t-60.5 -18l20 94q83 2 131 80h84l-86 -401h-95z" />
    <glyph glyph-name="uni2461" unicode="&#x2461;" horiz-adv-x="875" 
d="M66 329q-2 106 51 202.5t149.5 155.5t211.5 57q157 2 268 -102.5t109 -258.5q2 -107 -51 -202.5t-150 -154.5t-211 -56q-161 -2 -270 101t-107 258zM768 380q0 125 -82.5 203t-209.5 78q-130 3 -227.5 -99t-94.5 -229q0 -124 82 -202t209 -78q130 -3 227.5 98.5
t95.5 228.5zM290 157l21 100q120 62 165 97.5t49 81.5q0 22 -12 35t-32 13q-50 0 -58 -77l-100 15q8 66 51.5 105t111.5 39q63 0 103 -33.5t40 -84.5q0 -64 -51 -110q-28 -25 -70 -46t-123 -57l19 -36q40 24 63.5 32.5t62.5 8.5h59l-18 -83h-281z" />
    <glyph glyph-name="uni2462" unicode="&#x2462;" horiz-adv-x="875" 
d="M66 329q-2 106 51 202.5t149.5 155.5t211.5 57q157 2 268 -102.5t109 -258.5q2 -107 -51 -202.5t-150 -154.5t-211 -56q-161 -2 -270 101t-107 258zM768 380q0 125 -82.5 203t-209.5 78q-130 3 -227.5 -99t-94.5 -229q0 -124 82 -202t209 -78q130 -3 227.5 98.5
t95.5 228.5zM282 284l101 12q-2 -31 11.5 -48.5t40.5 -17.5q24 0 39 14t15 37q0 18 -12.5 29t-32.5 11h-30l17 78h26q27 0 43.5 13.5t16.5 36.5q0 16 -11 26t-28 10q-22 0 -36 -16t-18 -43l-98 17q10 57 51.5 90t105.5 33q59 0 95 -26.5t36 -69.5q0 -40 -31 -65t-83 -26
l-7 -34q42 -1 68.5 -22.5t26.5 -56.5q0 -51 -43.5 -84t-111.5 -33q-71 0 -112 36.5t-39 98.5z" />
    <glyph glyph-name="uni2463" unicode="&#x2463;" horiz-adv-x="875" 
d="M66 329q-2 106 51 202.5t149.5 155.5t211.5 57q157 2 268 -102.5t109 -258.5q2 -107 -51 -202.5t-150 -154.5t-211 -56q-161 -2 -270 101t-107 258zM768 380q0 125 -82.5 203t-209.5 78q-130 3 -227.5 -99t-94.5 -229q0 -124 82 -202t209 -78q130 -3 227.5 98.5
t95.5 228.5zM425 157l20 95h-186l19 85l201 221h125l-49 -226h56l-17 -80h-56l-20 -95h-93zM463 332l8 35q11 49 65 92l-25 24l-157 -171l24 -21q35 41 72 41h13z" />
    <glyph glyph-name="uni2464" unicode="&#x2464;" horiz-adv-x="875" 
d="M66 329q-2 106 51 202.5t149.5 155.5t211.5 57q157 2 268 -102.5t109 -258.5q2 -107 -51 -202.5t-150 -154.5t-211 -56q-161 -2 -270 101t-107 258zM768 380q0 125 -82.5 203t-209.5 78q-130 3 -227.5 -99t-94.5 -229q0 -124 82 -202t209 -78q130 -3 227.5 98.5
t95.5 228.5zM280 270l96 19q1 -27 16 -43t38 -16q27 0 44.5 19t17.5 48q0 23 -12.5 35.5t-33.5 12.5q-34 0 -55 -35l-90 21l80 227h253l-18 -83h-174l-7 -23q-16 -49 -59 -87h48q31 53 74 53t69 -31t26 -80q0 -72 -45 -115t-117 -43q-65 0 -106.5 33t-44.5 88z" />
    <glyph glyph-name="uni2465" unicode="&#x2465;" horiz-adv-x="875" 
d="M66 329q-2 106 51 202.5t149.5 155.5t211.5 57q157 2 268 -102.5t109 -258.5q2 -107 -51 -202.5t-150 -154.5t-211 -56q-161 -2 -270 101t-107 258zM768 380q0 125 -82.5 203t-209.5 78q-130 3 -227.5 -99t-94.5 -229q0 -124 82 -202t209 -78q130 -3 227.5 98.5
t95.5 228.5zM279 314q0 111 62.5 181.5t161.5 70.5q69 0 112 -24l-18 -87q-46 25 -104 25q-118 0 -140 -119h37q10 30 33 48t54 18q48 0 81 -35t33 -86q0 -68 -45.5 -112.5t-113.5 -44.5q-70 0 -111.5 44.5t-41.5 120.5zM489 301q0 23 -12.5 36.5t-34.5 13.5
q-26 0 -43.5 -20t-17.5 -51q0 -22 13 -36t34 -14q25 0 43 21t18 50z" />
    <glyph glyph-name="uni2466" unicode="&#x2466;" horiz-adv-x="875" 
d="M66 329q-2 106 51 202.5t149.5 155.5t211.5 57q157 2 268 -102.5t109 -258.5q2 -107 -51 -202.5t-150 -154.5t-211 -56q-161 -2 -270 101t-107 258zM768 380q0 125 -82.5 203t-209.5 78q-130 3 -227.5 -99t-94.5 -229q0 -124 82 -202t209 -78q130 -3 227.5 98.5
t95.5 228.5zM534 475l21 11l-20 32q-59 -43 -123 -43h-72l18 83h294l-20 -91q-171 -103 -194 -310h-104q6 98 60 184t140 134z" />
    <glyph glyph-name="uni2467" unicode="&#x2467;" horiz-adv-x="875" 
d="M66 329q-2 106 51 202.5t149.5 155.5t211.5 57q157 2 268 -102.5t109 -258.5q2 -107 -51 -202.5t-150 -154.5t-211 -56q-161 -2 -270 101t-107 258zM768 380q0 125 -82.5 203t-209.5 78q-130 3 -227.5 -99t-94.5 -229q0 -124 82 -202t209 -78q130 -3 227.5 98.5
t95.5 228.5zM292 257q0 40 31.5 65.5t87.5 25.5l8 38q-38 1 -60.5 19.5t-22.5 46.5q0 48 44 81t109 33q59 0 98 -28t39 -71q0 -36 -28 -59t-74 -23l-8 -38q38 -3 61.5 -24.5t23.5 -52.5q0 -51 -45.5 -86t-116.5 -35q-67 0 -107 30.5t-40 77.5zM529 448q0 38 -44 38
q-23 0 -37.5 -14t-14.5 -35q0 -40 44 -40q23 0 37.5 14.5t14.5 36.5zM500 284q0 20 -13 32t-36 12q-26 0 -42 -16t-16 -40q0 -43 48 -43q27 0 43 15t16 40z" />
    <glyph glyph-name="uni2468" unicode="&#x2468;" horiz-adv-x="875" 
d="M66 329q-2 106 51 202.5t149.5 155.5t211.5 57q157 2 268 -102.5t109 -258.5q2 -107 -51 -202.5t-150 -154.5t-211 -56q-161 -2 -270 101t-107 258zM768 380q0 125 -82.5 203t-209.5 78q-130 3 -227.5 -99t-94.5 -229q0 -124 82 -202t209 -78q130 -3 227.5 98.5
t95.5 228.5zM298 171l19 87q47 -23 100 -23q62 0 99 35q33 33 39 85h-37q-10 -29 -32.5 -46t-52.5 -17q-47 0 -77 33t-30 87q0 66 44 109.5t111 43.5q72 0 111 -45q41 -46 41 -123q0 -113 -60 -181.5t-159 -68.5q-64 0 -116 24zM531 434q0 22 -13 36t-33 14q-24 0 -40 -19.5
t-16 -47.5q0 -22 12 -35.5t32 -13.5q25 0 41.5 19t16.5 47z" />
    <glyph glyph-name="uni24EA" unicode="&#x24ea;" horiz-adv-x="875" 
d="M66 329q-2 106 51 202.5t149.5 155.5t211.5 57q157 2 268 -102.5t109 -258.5q2 -107 -51 -202.5t-150 -154.5t-211 -56q-161 -2 -270 101t-107 258zM768 380q0 125 -82.5 203t-209.5 78q-130 3 -227.5 -99t-94.5 -229q0 -124 82 -202t209 -78q130 -3 227.5 98.5
t95.5 228.5zM284 319q0 103 55 175t134 72q73 0 115 -46t42 -125q0 -103 -54.5 -174.5t-135.5 -71.5q-74 0 -115 45t-41 125zM528 395q0 89 -55 89q-34 0 -61 -50.5t-27 -114.5q0 -88 55 -88q35 0 61.5 49.5t26.5 114.5z" />
    <glyph glyph-name="uni24FF" unicode="&#x24ff;" horiz-adv-x="863" 
d="M854 397q0 -107 -57 -206q-57 -98 -156 -160q-97 -61 -214 -61q-162 0 -263 94.5t-101 251.5q0 106 56 206q56 98 155 160q100 62 216 62q161 0 262.5 -95.5t101.5 -251.5zM281 319q0 -80 41 -125t116 -45q81 0 135 71.5t54 174.5q0 79 -42 125t-115 46q-78 0 -133.5 -72
t-55.5 -175zM526 395q0 -65 -26.5 -114.5t-61.5 -49.5q-55 0 -55 88q0 65 26.5 115t61.5 50q55 0 55 -89z" />
    <glyph glyph-name="lozenge" unicode="&#x25ca;" horiz-adv-x="655" 
d="M267 0l-213 348l214 352h164l212 -349l-214 -351h-163zM501 348l-96 161q-32 55 -32 119h-50q0 -39 -6 -64.5t-25 -56.5l-97 -156l97 -159q34 -52 34 -120h49q0 41 6 65t25 55z" />
    <glyph glyph-name="uni274C" unicode="&#x274c;" horiz-adv-x="821" 
d="M149 -15l-79 78l283 288l-280 286l81 82l280 -287l282 287l80 -77l-284 -289l281 -287l-82 -81l-281 286z" />
    <glyph glyph-name="uni2776" unicode="&#x2776;" horiz-adv-x="870" 
d="M854 397q0 -107 -57 -206q-57 -98 -156 -160q-97 -61 -214 -61q-162 0 -263 94.5t-101 251.5q0 106 56 206q56 98 155 160q100 62 216 62q161 0 262.5 -95.5t101.5 -251.5zM435 365l-45 -208h95l86 401h-84q-50 -78 -131 -80l-20 -94q39 0 59 17.5t43 63.5h41
q-33 -44 -44 -100z" />
    <glyph glyph-name="uni2777" unicode="&#x2777;" horiz-adv-x="870" 
d="M854 397q0 -107 -57 -206q-57 -98 -156 -160q-97 -61 -214 -61q-162 0 -263 94.5t-101 251.5q0 106 56 206q56 98 155 160q100 62 216 62q161 0 262.5 -95.5t101.5 -251.5zM308 257l-21 -100h281l18 83h-59q-38 0 -62 -8.5t-64 -32.5l-19 36q81 36 123 57q43 21 71 46
q50 47 50 110q0 51 -40 84.5t-103 33.5q-68 0 -111 -39t-51 -105l100 -15q3 36 18.5 56.5t39.5 20.5q20 0 32 -13t12 -35q-4 -47 -49 -82.5t-166 -96.5z" />
    <glyph glyph-name="uni2778" unicode="&#x2778;" horiz-adv-x="870" 
d="M854 397q0 -107 -57 -206q-57 -98 -156 -160q-97 -61 -214 -61q-162 0 -263 94.5t-101 251.5q0 106 56 206q56 98 155 160q100 62 216 62q161 0 262.5 -95.5t101.5 -251.5zM280 284q-2 -62 39 -98.5t112 -36.5q68 0 111.5 33t43.5 84q0 35 -26.5 56.5t-68.5 22.5l8 34
q51 2 82 26.5t31 64.5q0 43 -36 69.5t-95 26.5q-64 0 -105.5 -33t-51.5 -90l98 -17q4 27 18 43t36 16q17 0 28 -10t11 -26q0 -23 -16.5 -36.5t-43.5 -13.5h-26l-17 -78h30q20 0 32.5 -11t12.5 -29q0 -23 -15 -37t-39 -14q-27 0 -40.5 17.5t-11.5 48.5z" />
    <glyph glyph-name="uni2779" unicode="&#x2779;" horiz-adv-x="863" 
d="M854 397q0 -107 -57 -206q-57 -98 -156 -160q-97 -61 -214 -61q-162 0 -263 94.5t-101 251.5q0 106 56 206q56 98 155 160q100 62 216 62q161 0 262.5 -95.5t101.5 -251.5zM443 252l-20 -95h92l20 95h56l17 80h-55l48 226h-124l-202 -221l-18 -85h186zM468 367l-8 -35
h-12q-22 0 -37.5 -9t-35.5 -32l-23 21l156 171l25 -24q-55 -46 -65 -92z" />
    <glyph glyph-name="uni277A" unicode="&#x277a;" horiz-adv-x="863" 
d="M854 397q0 -107 -57 -206q-57 -98 -156 -160q-97 -61 -214 -61q-162 0 -263 94.5t-101 251.5q0 106 56 206q56 98 155 160q100 62 216 62q161 0 262.5 -95.5t101.5 -251.5zM277 270q5 -55 46 -88t105 -33q73 0 118 43t45 115q0 49 -26.5 80t-68.5 31q-47 0 -74 -53h-48
q41 37 58 87l8 23h174l17 83h-252l-81 -227l90 -21q21 35 55 35q21 0 34 -12.5t13 -35.5q0 -29 -17.5 -48t-44.5 -19q-24 0 -38.5 16t-15.5 43z" />
    <glyph glyph-name="uni277B" unicode="&#x277b;" horiz-adv-x="863" 
d="M854 397q0 -107 -57 -206q-57 -98 -156 -160q-97 -61 -214 -61q-162 0 -263 94.5t-101 251.5q0 106 56 206q56 98 155 160q100 62 216 62q161 0 262.5 -95.5t101.5 -251.5zM276 314q0 -76 41.5 -120.5t111.5 -44.5t115 44.5t45 112.5q0 51 -33.5 86t-81.5 35
q-30 0 -53.5 -18t-32.5 -48h-37q19 119 139 119q58 0 104 -25l19 87q-43 24 -112 24q-99 0 -162 -70.5t-63 -181.5zM487 301q0 -29 -18 -50t-44 -21q-21 0 -34 14t-13 36q0 30 18 50.5t44 20.5q21 0 34 -13.5t13 -36.5z" />
    <glyph glyph-name="uni277C" unicode="&#x277c;" horiz-adv-x="870" 
d="M854 397q0 -107 -57 -206q-57 -98 -156 -160q-97 -61 -214 -61q-162 0 -263 94.5t-101 251.5q0 106 56 206q56 98 155 160q100 62 216 62q161 0 262.5 -95.5t101.5 -251.5zM532 475q-86 -48 -140 -134t-60 -184h104q20 207 194 310l19 91h-294l-17 -83h72q63 0 122 43
l21 -32z" />
    <glyph glyph-name="uni277D" unicode="&#x277d;" horiz-adv-x="863" 
d="M854 397q0 -107 -57 -206q-57 -98 -156 -160q-97 -61 -214 -61q-162 0 -263 94.5t-101 251.5q0 106 56 206q56 98 155 160q100 62 216 62q161 0 262.5 -95.5t101.5 -251.5zM289 257q0 -47 40.5 -77.5t107.5 -30.5q71 0 116.5 35t45.5 86q0 31 -23.5 52.5t-62.5 24.5l8 38
q47 0 75 23t28 59q0 43 -39.5 71t-97.5 28q-65 0 -109 -33t-44 -81q0 -28 22.5 -46.5t60.5 -19.5l-8 -38q-57 0 -88.5 -25.5t-31.5 -65.5zM526 448q0 -22 -14.5 -36.5t-36.5 -14.5q-44 0 -44 40q0 21 14.5 35t37.5 14q43 0 43 -38zM498 284q0 -25 -16.5 -40t-43.5 -15
q-22 0 -35 11.5t-13 31.5q0 24 16.5 40t41.5 16q23 0 36.5 -12t13.5 -32z" />
    <glyph glyph-name="uni277E" unicode="&#x277e;" horiz-adv-x="870" 
d="M854 397q0 -107 -57 -206q-57 -98 -156 -160q-97 -61 -214 -61q-162 0 -263 94.5t-101 251.5q0 106 56 206q56 98 155 160q100 62 216 62q161 0 262.5 -95.5t101.5 -251.5zM298 171q52 -24 116 -24q99 0 159 68.5t60 181.5q0 78 -42 123q-39 45 -110 45
q-67 0 -111.5 -43.5t-44.5 -109.5q0 -54 30 -87t78 -33q30 0 52.5 17.5t31.5 45.5h37q-6 -53 -39 -85q-37 -35 -98 -35q-51 0 -101 23zM530 434q0 -28 -16 -47t-41 -19q-20 0 -32.5 13.5t-12.5 35.5q0 28 16 47.5t40 19.5q20 0 33 -14t13 -36z" />
    <glyph glyph-name="uni300A" unicode="&#x300a;" horiz-adv-x="602" 
d="M435 698l-287 -410l112 -412l-107 -38l-123 465l317 462zM693 698l-311 -439l107 -383l-108 -38l-118 435l342 492z" />
    <glyph glyph-name="uni300B" unicode="&#x300b;" horiz-adv-x="602" 
d="M244 766l118 -434l-341 -493l-88 68l310 439l-106 382zM473 766l123 -464l-318 -463l-88 68l287 410l-112 411z" />
    <glyph glyph-name="uni300C" unicode="&#x300c;" horiz-adv-x="377" 
d="M94 307l95 448h280l-21 -96h-168l-75 -352h-111z" />
    <glyph glyph-name="uni300D" unicode="&#x300d;" horiz-adv-x="357" 
d="M302 298l-94 -448h-280l21 96h168l74 352h111z" />
    <glyph glyph-name="uni300E" unicode="&#x300e;" horiz-adv-x="531" 
d="M75 205l117 550h411l-51 -239h-165l-66 -311h-246zM189 294h64l65 305h158l14 67h-221z" />
    <glyph glyph-name="uni300F" unicode="&#x300f;" horiz-adv-x="521" 
d="M477 399l-118 -550h-410l51 238h165l66 312h246zM362 310h-63l-65 -305h-158l-14 -67h221z" />
    <glyph glyph-name="uni3010" unicode="&#x3010;" horiz-adv-x="375" 
d="M0 -150l193 905h294q-119 -110 -187 -219t-94 -233q-15 -68 -15 -133q0 -163 104 -320h-295z" />
    <glyph glyph-name="uni3011" unicode="&#x3011;" horiz-adv-x="375" 
d="M398 755l-192 -905h-294q119 110 186.5 219t93.5 233q15 69 15 133q0 165 -103 320h294z" />
    <glyph glyph-name="uni3014" unicode="&#x3014;" horiz-adv-x="336" 
d="M225 515l-94 -441l120 -174l-93 -62l-144 206l111 521l221 200l71 -80z" />
    <glyph glyph-name="uni3015" unicode="&#x3015;" horiz-adv-x="336" 
d="M201 765l145 -206l-111 -521l-222 -200l-71 80l193 170l93 441l-120 174z" />
    <glyph glyph-name="uniE000" unicode="&#xe000;" horiz-adv-x="772" 
d="M351 0v297h-288v108h288v298h115v-298h287v-108h-287v-297h-115z" />
    <glyph glyph-name="uniE001" unicode="&#xe001;" horiz-adv-x="847" 
d="M97 297v108h690v-108h-690z" />
    <glyph glyph-name="uniE002" unicode="&#xe002;" horiz-adv-x="891" 
d="M184 -15l-79 78l283 288l-280 286l81 82l280 -287l282 287l80 -77l-284 -289l281 -287l-82 -81l-281 286z" />
    <glyph glyph-name="uniE003" unicode="&#xe003;" horiz-adv-x="918" 
d="M422 -15l-322 413l91 74l235 -301l415 544l88 -71z" />
    <glyph glyph-name="uniE004" unicode="&#xe004;" horiz-adv-x="1003" 
d="M137 562v110h774v-110h-774zM137 296v110h774v-110h-774zM137 30v110h774v-110h-774z" />
    <glyph glyph-name="uniE005" unicode="&#xe005;" horiz-adv-x="918" 
d="M130 0v697h701v-697h-701zM247 105h468v487h-468v-487z" />
    <glyph glyph-name="uniE006" unicode="&#xe006;" horiz-adv-x="918" 
d="M491 158l-179 289l89 58l42 -68q20 -32 26 -61.5t8 -85.5h47q2 54 9.5 83t32.5 64l203 276l86 -65zM140 0v697h453v-105h-338v-487h469v222h115v-327h-699z" />
    <glyph glyph-name="uniE007" unicode="&#xe007;" horiz-adv-x="918" 
d="M130 0v697h701v-697h-701zM247 105h468v487h-468v-487zM406 276v146h149v-146h-149z" />
    <glyph glyph-name="uniE008" unicode="&#xe008;" horiz-adv-x="801" 
d="M380 129h348v-129h-700v129h351l-288 286l87 86l46 -48q25 -26 33.5 -58.5t9.5 -83.5h50v517h124v-517h50q4 54 11.5 83.5t33.5 60.5l45 46l86 -86z" />
    <glyph glyph-name="uniE009" unicode="&#xe009;" horiz-adv-x="801" 
d="M384 215l-287 286l86 87l46 -49q27 -29 34 -58.5t9 -83.5h51v518h123v-518h51q1 37 3 55.5t12 43.5t29 45l45 47l86 -87zM33 0v129h700v-129h-700z" />
    <glyph glyph-name="uniF8FF" unicode="&#xf8ff;" horiz-adv-x="834" 
d="M719 -58l-40 2q-8 47 -28 99l-38 -9q13 -67 15 -118l-21 -8q-98 20 -98 116q0 12 2 30q4 31 30 103l-45 10q-13 -39 -24 -61q-9 -21 -29 -44q-29 22 -46.5 79.5t-15.5 99.5q1 24 1 52q0 52 -7 69q-9 21 -25.5 36t-53.5 37q-30 18 -44 35.5t-33 57.5l92 42l-23 35
q-26 -1 -51 6q-40 10 -65.5 32.5t-25.5 49.5q0 4 1 9q11 54 59 54q6 0 11 -1q55 -7 96 -92l41 23q-47 70 -47 99q0 44 45 44q6 0 16 -2q55 -8 55 -60q0 -7 -1 -14q-7 -53 -42 -100l24 -39l50 23q57 -41 98.5 -126t53.5 -144q119 -167 121 -325q2 -52 -8 -100z" />
    <glyph glyph-name="Ccedilla.ss04" horiz-adv-x="751" 
d="M596 242l121 -57q-96 -182 -297 -199l-11 -8q-23 -17 -71 -29l10 -30q20 10 43 10q30 0 50 -17.5t20 -46.5q0 -42 -34.5 -67t-93.5 -25q-81 0 -121 46l47 56q29 -33 67 -33q44 0 44 29q0 10 -10 18t-25 8t-26 -3l-25 45l57 47q-131 12 -203.5 92.5t-72.5 212.5
q-2 110 48 207.5t142.5 158t205.5 58.5q121 0 202 -63t104 -154l-130 -35q-18 59 -61 99q-42 42 -122 42q-75 2 -134.5 -44.5t-89.5 -118t-29 -150.5q0 -93 49.5 -143.5t135.5 -50.5q139 0 210 145z" />
    <glyph glyph-name="G.ss03" horiz-adv-x="778" 
d="M64 290q-1 80 27 157t78 137.5t125.5 96.5t162.5 34q124 0 207 -60.5t108 -154.5l-135 -39q-21 65 -68.5 102t-119.5 37q-109 2 -179.5 -91t-68.5 -212q0 -96 52.5 -148t136.5 -52q75 0 127.5 39t70.5 106h-220l23 112h357q-8 -164 -104 -266.5t-258 -102.5
q-145 0 -233.5 80t-88.5 225z" />
    <glyph glyph-name="Gbreve.ss03" horiz-adv-x="778" 
d="M64 290q-1 80 27 157t78 137.5t125.5 96.5t162.5 34q124 0 207 -60.5t108 -154.5l-135 -39q-21 65 -68.5 102t-119.5 37q-109 2 -179.5 -91t-68.5 -212q0 -96 52.5 -148t136.5 -52q75 0 127.5 39t70.5 106h-220l23 112h357q-8 -164 -104 -266.5t-258 -102.5
q-145 0 -233.5 80t-88.5 225zM351 877q0 12 1 17h94v-6q0 -25 17.5 -40.5t50.5 -15.5q70 0 93 62h101q-17 -58 -63 -98q-46 -41 -135 -41q-74 0 -116.5 35t-42.5 87z" />
    <glyph glyph-name="Gcircumflex.ss03" horiz-adv-x="778" 
d="M64 290q-1 80 27 157t78 137.5t125.5 96.5t162.5 34q124 0 207 -60.5t108 -154.5l-135 -39q-21 65 -68.5 102t-119.5 37q-109 2 -179.5 -91t-68.5 -212q0 -96 52.5 -148t136.5 -52q75 0 127.5 39t70.5 106h-220l23 112h357q-8 -164 -104 -266.5t-258 -102.5
q-145 0 -233.5 80t-88.5 225zM290 768l150 126h170l88 -126h-115l-65 72l-103 -72h-125z" />
    <glyph glyph-name="uni0122.ss03" horiz-adv-x="778" 
d="M64 290q-1 80 27 157t78 137.5t125.5 96.5t162.5 34q124 0 207 -60.5t108 -154.5l-135 -39q-21 65 -68.5 102t-119.5 37q-109 2 -179.5 -91t-68.5 -212q0 -96 52.5 -148t136.5 -52q75 0 127.5 39t70.5 106h-220l23 112h357q-8 -164 -104 -266.5t-258 -102.5
q-145 0 -233.5 80t-88.5 225zM222 -326l107 131h-67l28 125h128l-29 -132l-102 -124h-65z" />
    <glyph glyph-name="Gdotaccent.ss03" horiz-adv-x="778" 
d="M64 290q-1 80 27 157t78 137.5t125.5 96.5t162.5 34q124 0 207 -60.5t108 -154.5l-135 -39q-21 65 -68.5 102t-119.5 37q-109 2 -179.5 -91t-68.5 -212q0 -96 52.5 -148t136.5 -52q75 0 127.5 39t70.5 106h-220l23 112h357q-8 -164 -104 -266.5t-258 -102.5
q-145 0 -233.5 80t-88.5 225zM437 768l27 125h128l-27 -125h-128z" />
    <glyph glyph-name="Scedilla.ss04" horiz-adv-x="646" 
d="M598 208q0 -97 -71 -158t-191 -65l-10 -7q-23 -17 -71 -29l10 -30q20 10 43 10q30 0 50 -17.5t20 -46.5q0 -42 -34.5 -67t-93.5 -25q-81 0 -121 46l47 56q29 -33 67 -33q44 0 44 29q0 10 -10 18t-25 8q-16 0 -26 -3l-25 45l59 49q-102 13 -162.5 69t-72.5 137l127 38
q8 -59 52 -99.5t115 -40.5q64 0 101 28.5t37 72.5q0 35 -23.5 55.5t-78.5 35.5l-78 22q-84 24 -126.5 66t-42.5 125q0 94 74 156t193 62q118 0 185.5 -52.5t85.5 -136.5l-126 -36q-14 53 -51 85t-98 32q-57 0 -92 -28t-35 -69q0 -33 20 -52.5t66 -32.5l88 -26
q179 -49 180 -191z" />
    <glyph glyph-name="uni0162.ss04" horiz-adv-x="639" 
d="M108 700h615l-24 -112h-244l-125 -588l-30 -23q-12 -10 -70 -29l9 -29q19 10 43 10q30 0 50 -17.5t20 -46.5q0 -41 -34.5 -66.5t-92.5 -25.5q-81 0 -122 46l47 56q29 -33 67 -33q44 0 44 29q0 10 -9.5 18t-24.5 8q-17 0 -28 -3l-24 45l74 61h-48l125 588h-242z" />
    <glyph glyph-name="a.salt" horiz-adv-x="605" 
d="M38 197q-1 130 70.5 225t167.5 92q63 0 101.5 -34.5t52.5 -89.5h52q-21 42 -21 86q0 15 1 22h122l-105 -498h-105q12 48 62 101h-62q-62 -116 -165 -116q-75 0 -123 59t-48 153zM417 290q0 125 -105 125q-63 2 -107.5 -64.5t-42.5 -144.5q0 -122 106 -122q61 -2 106 64.5
t43 141.5z" />
    <glyph glyph-name="aacute.salt" horiz-adv-x="605" 
d="M38 197q-1 130 70.5 225t167.5 92q63 0 101.5 -34.5t52.5 -89.5h52q-21 42 -21 86q0 15 1 22h122l-105 -498h-105q12 48 62 101h-62q-62 -116 -165 -116q-75 0 -123 59t-48 153zM417 290q0 125 -105 125q-63 2 -107.5 -64.5t-42.5 -144.5q0 -122 106 -122q61 -2 106 64.5
t43 141.5zM318 566l83 149h141l-138 -149h-86z" />
    <glyph glyph-name="abreve.salt" horiz-adv-x="605" 
d="M38 197q-1 130 70.5 225t167.5 92q63 0 101.5 -34.5t52.5 -89.5h52q-21 42 -21 86q0 15 1 22h122l-105 -498h-105q12 48 62 101h-62q-62 -116 -165 -116q-75 0 -123 59t-48 153zM417 290q0 125 -105 125q-63 2 -107.5 -64.5t-42.5 -144.5q0 -122 106 -122q61 -2 106 64.5
t43 141.5zM226 675q0 14 1 18h86q-3 -27 13.5 -44.5t48.5 -17.5q63 0 84 62h92q-15 -57 -57 -99q-41 -41 -123 -41q-68 0 -106.5 35t-38.5 87z" />
    <glyph glyph-name="acircumflex.salt" horiz-adv-x="605" 
d="M38 197q-1 130 70.5 225t167.5 92q63 0 101.5 -34.5t52.5 -89.5h52q-21 42 -21 86q0 15 1 22h122l-105 -498h-105q12 48 62 101h-62q-62 -116 -165 -116q-75 0 -123 59t-48 153zM417 290q0 125 -105 125q-63 2 -107.5 -64.5t-42.5 -144.5q0 -122 106 -122q61 -2 106 64.5
t43 141.5zM170 566l136 127h154l81 -127h-105l-60 72l-93 -72h-113z" />
    <glyph glyph-name="adieresis.salt" horiz-adv-x="605" 
d="M38 197q-1 130 70.5 225t167.5 92q63 0 101.5 -34.5t52.5 -89.5h52q-21 42 -21 86q0 15 1 22h122l-105 -498h-105q12 48 62 101h-62q-62 -116 -165 -116q-75 0 -123 59t-48 153zM417 290q0 125 -105 125q-63 2 -107.5 -64.5t-42.5 -144.5q0 -122 106 -122q61 -2 106 64.5
t43 141.5zM200 580l24 113h119l-25 -113h-118zM409 580l25 113h118l-24 -113h-119z" />
    <glyph glyph-name="uni0227.salt" horiz-adv-x="605" 
d="M38 197q-1 130 70.5 225t167.5 92q63 0 101.5 -34.5t52.5 -89.5h52q-21 42 -21 86q0 15 1 22h122l-105 -498h-105q12 48 62 101h-62q-62 -116 -165 -116q-75 0 -123 59t-48 153zM417 290q0 125 -105 125q-63 2 -107.5 -64.5t-42.5 -144.5q0 -122 106 -122q61 -2 106 64.5
t43 141.5zM298 575l27 125h128l-27 -125h-128z" />
    <glyph glyph-name="uni1EA1.salt" horiz-adv-x="605" 
d="M38 197q-1 130 70.5 225t167.5 92q63 0 101.5 -34.5t52.5 -89.5h52q-21 42 -21 86q0 15 1 22h122l-105 -498h-105q12 48 62 101h-62q-62 -116 -165 -116q-75 0 -123 59t-48 153zM417 290q0 125 -105 125q-63 2 -107.5 -64.5t-42.5 -144.5q0 -122 106 -122q61 -2 106 64.5
t43 141.5zM148 -195l27 125h128l-27 -125h-128z" />
    <glyph glyph-name="agrave.salt" horiz-adv-x="605" 
d="M38 197q-1 130 70.5 225t167.5 92q63 0 101.5 -34.5t52.5 -89.5h52q-21 42 -21 86q0 15 1 22h122l-105 -498h-105q12 48 62 101h-62q-62 -116 -165 -116q-75 0 -123 59t-48 153zM417 290q0 125 -105 125q-63 2 -107.5 -64.5t-42.5 -144.5q0 -122 106 -122q61 -2 106 64.5
t43 141.5zM326 566l-83 149h138l17 -149h-72z" />
    <glyph glyph-name="amacron.salt" horiz-adv-x="605" 
d="M38 197q-1 130 70.5 225t167.5 92q63 0 101.5 -34.5t52.5 -89.5h52q-21 42 -21 86q0 15 1 22h122l-105 -498h-105q12 48 62 101h-62q-62 -116 -165 -116q-75 0 -123 59t-48 153zM417 290q0 125 -105 125q-63 2 -107.5 -64.5t-42.5 -144.5q0 -122 106 -122q61 -2 106 64.5
t43 141.5zM211 584l19 85h308l-18 -85h-309z" />
    <glyph glyph-name="aogonek.salt" horiz-adv-x="605" 
d="M462 498h122l-105 -498h-1q-127 -35 -127 -88q0 -32 46 -32q21 0 59 9l-19 -89q-33 -8 -75 -8q-49 0 -77.5 23t-28.5 62q0 81 120 132q15 46 60 92h-62q-62 -116 -165 -116q-75 0 -123 59t-48 153q-1 130 70.5 225t167.5 92q63 0 101.5 -34.5t52.5 -89.5h52
q-21 42 -21 86q0 15 1 22zM417 290q0 125 -105 125q-63 2 -107.5 -64.5t-42.5 -144.5q0 -122 106 -122q61 -2 106 64.5t43 141.5z" />
    <glyph glyph-name="aring.salt" horiz-adv-x="605" 
d="M38 197q-1 130 70.5 225t167.5 92q63 0 101.5 -34.5t52.5 -89.5h52q-21 42 -21 86q0 15 1 22h122l-105 -498h-105q12 48 62 101h-62q-62 -116 -165 -116q-75 0 -123 59t-48 153zM417 290q0 125 -105 125q-63 2 -107.5 -64.5t-42.5 -144.5q0 -122 106 -122q61 -2 106 64.5
t43 141.5zM251 659q0 55 37 91.5t95 36.5q48 0 81 -31.5t33 -79.5q0 -55 -37 -90t-94 -35q-49 0 -82 29.5t-33 78.5zM425 674q0 21 -13.5 34t-33.5 13q-23 0 -39 -16.5t-16 -40.5q0 -22 13 -34.5t35 -12.5q23 0 38.5 16t15.5 41z" />
    <glyph glyph-name="aringacute.salt" horiz-adv-x="605" 
d="M38 197q-1 130 70.5 225t167.5 92q63 0 101.5 -34.5t52.5 -89.5h52q-21 42 -21 86q0 15 1 22h122l-105 -498h-105q12 48 62 101h-62q-62 -116 -165 -116q-75 0 -123 59t-48 153zM417 290q0 125 -105 125q-63 2 -107.5 -64.5t-42.5 -144.5q0 -122 106 -122q61 -2 106 64.5
t43 141.5zM368 807l82 129h142l-138 -129h-86zM263 653q0 54 37.5 91t94.5 37q48 0 81 -31.5t33 -79.5q0 -55 -37 -90t-94 -35q-49 0 -82 29.5t-33 78.5zM437 668q0 21 -13.5 34t-33.5 13q-23 0 -39 -16.5t-16 -40.5q0 -22 13 -34.5t35 -12.5q23 0 38.5 16t15.5 41z" />
    <glyph glyph-name="atilde.salt" horiz-adv-x="605" 
d="M38 197q-1 130 70.5 225t167.5 92q63 0 101.5 -34.5t52.5 -89.5h52q-21 42 -21 86q0 15 1 22h122l-105 -498h-105q12 48 62 101h-62q-62 -116 -165 -116q-75 0 -123 59t-48 153zM417 290q0 125 -105 125q-63 2 -107.5 -64.5t-42.5 -144.5q0 -122 106 -122q61 -2 106 64.5
t43 141.5zM360 588l-24 16q-31 17 -43 17q-38 0 -49 -49h-92q10 63 45.5 97.5t89.5 34.5q42 0 83 -26l24 -14q31 -21 42 -18q35 0 49 47h92q-19 -131 -135 -131q-41 0 -82 26z" />
    <glyph glyph-name="ccedilla.ss04" horiz-adv-x="556" 
d="M407 186l107 -51q-69 -129 -202 -147l-14 -10q-23 -17 -70 -29l9 -30q20 10 43 10q30 0 50 -17.5t20 -46.5q0 -42 -34.5 -67t-92.5 -25q-82 0 -122 46l47 56q29 -33 67 -33q44 0 44 29q0 10 -9.5 18t-24.5 8q-17 0 -27 -3l-25 45l58 48q-89 9 -141.5 68t-52.5 155
q-2 119 79 212t199 91q87 0 146 -43t78 -113l-116 -33q-10 42 -39.5 66.5t-71.5 24.5q-70 0 -111 -61.5t-41 -140.5q0 -62 30.5 -95.5t82.5 -33.5q84 0 134 102z" />
    <glyph glyph-name="g.ss02" horiz-adv-x="613" 
d="M-30 -48l120 28q14 -98 124 -98q119 0 149 102q20 67 69 116h-60q-56 -92 -154 -92q-75 0 -126.5 56.5t-51.5 143.5q-2 119 69.5 214t171.5 92q73 0 111 -38q37 -37 49 -86h50q-19 40 -19 86q0 10 2 22h117l-97 -456q-29 -138 -92 -194.5t-191 -56.5q-223 0 -241 161z
M428 295q0 59 -29 90.5t-80 31.5q-70 0 -109.5 -58.5t-39.5 -142.5q0 -115 105 -115q70 0 111.5 56t41.5 138z" />
    <glyph glyph-name="gbreve.ss02" horiz-adv-x="613" 
d="M-30 -48l120 28q14 -98 124 -98q119 0 149 102q20 67 69 116h-60q-56 -92 -154 -92q-75 0 -126.5 56.5t-51.5 143.5q-2 119 69.5 214t171.5 92q73 0 111 -38q37 -37 49 -86h50q-19 40 -19 86q0 10 2 22h117l-97 -456q-29 -138 -92 -194.5t-191 -56.5q-223 0 -241 161z
M428 295q0 59 -29 90.5t-80 31.5q-70 0 -109.5 -58.5t-39.5 -142.5q0 -115 105 -115q70 0 111.5 56t41.5 138zM223 675q0 14 1 18h86q-3 -27 13.5 -44.5t48.5 -17.5q63 0 84 62h92q-15 -57 -57 -99q-41 -41 -123 -41q-68 0 -106.5 35t-38.5 87z" />
    <glyph glyph-name="gcircumflex.ss02" horiz-adv-x="613" 
d="M-30 -48l120 28q14 -98 124 -98q119 0 149 102q20 67 69 116h-60q-56 -92 -154 -92q-75 0 -126.5 56.5t-51.5 143.5q-2 119 69.5 214t171.5 92q73 0 111 -38q37 -37 49 -86h50q-19 40 -19 86q0 10 2 22h117l-97 -456q-29 -138 -92 -194.5t-191 -56.5q-223 0 -241 161z
M428 295q0 59 -29 90.5t-80 31.5q-70 0 -109.5 -58.5t-39.5 -142.5q0 -115 105 -115q70 0 111.5 56t41.5 138zM168 566l136 127h154l81 -127h-105l-60 72l-93 -72h-113z" />
    <glyph glyph-name="uni0123.ss02" horiz-adv-x="613" 
d="M-30 -48l120 28q14 -98 124 -98q119 0 149 102q20 67 69 116h-60q-56 -92 -154 -92q-75 0 -126.5 56.5t-51.5 143.5q-2 119 69.5 214t171.5 92q73 0 111 -38q37 -37 49 -86h50q-19 40 -19 86q0 10 2 22h117l-97 -456q-29 -138 -92 -194.5t-191 -56.5q-223 0 -241 161z
M428 295q0 59 -29 90.5t-80 31.5q-70 0 -109.5 -58.5t-39.5 -142.5q0 -115 105 -115q70 0 111.5 56t41.5 138zM491 831l-107 -132h67l-28 -124h-128l29 131l102 125h65z" />
    <glyph glyph-name="gdotaccent.ss02" horiz-adv-x="613" 
d="M-30 -48l120 28q14 -98 124 -98q119 0 149 102q20 67 69 116h-60q-56 -92 -154 -92q-75 0 -126.5 56.5t-51.5 143.5q-2 119 69.5 214t171.5 92q73 0 111 -38q37 -37 49 -86h50q-19 40 -19 86q0 10 2 22h117l-97 -456q-29 -138 -92 -194.5t-191 -56.5q-223 0 -241 161z
M428 295q0 59 -29 90.5t-80 31.5q-70 0 -109.5 -58.5t-39.5 -142.5q0 -115 105 -115q70 0 111.5 56t41.5 138zM295 575l27 125h128l-27 -125h-128z" />
    <glyph glyph-name="i.locl" horiz-adv-x="271" 
d="M140 576l27 125h127l-26 -125h-128zM22 0l106 498h121l-105 -498h-122z" />
    <glyph glyph-name="scedilla.ss04" horiz-adv-x="506" 
d="M452 155q0 -73 -56 -118.5t-144 -51.5l-10 -7q-23 -17 -71 -29l10 -30q20 10 43 10q30 0 50 -17.5t20 -46.5q0 -42 -34.5 -67t-92.5 -25q-82 0 -122 46l47 56q29 -33 67 -33q44 0 44 29q0 10 -10 18t-25 8q-16 0 -26 -3l-25 45l60 49q-73 11 -119 48.5t-53 91.5l114 33
q6 -38 34.5 -62t75.5 -24q43 0 68 18t25 47q0 21 -14.5 34t-47.5 23l-56 15q-68 18 -101 50t-33 85q0 73 57 119.5t148 46.5q87 0 140 -36.5t66 -90.5l-107 -36q-7 34 -32.5 54.5t-65.5 20.5q-41 0 -63 -17.5t-22 -42.5q0 -19 14 -30t51 -22l48 -14q148 -40 148 -144z" />
    <glyph glyph-name="uni0163.ss04" horiz-adv-x="421" 
d="M274 403l-55 -257q0 -2 -0.5 -5t-1 -5t-0.5 -3.5v-2.5q0 -30 40 -30h118l-21 -100h-90l-29 -22q-23 -17 -71 -29l9 -30q21 10 44 10q30 0 50 -17.5t20 -46.5q0 -42 -34.5 -67t-93.5 -25q-81 0 -121 46l46 56q31 -33 68 -33q43 0 43 29q0 10 -9.5 18t-24.5 8q-17 0 -27 -3
l-24 45l78 64q-45 9 -69 38.5t-24 73.5q0 21 4 36l55 252h-109l21 95h107l34 156h122l-34 -156h130l-21 -95h-130z" />
    <glyph glyph-name="zero.onum" horiz-adv-x="653" 
d="M44 220q-2 117 85 206.5t216 86.5q115 0 188.5 -67t73.5 -174q4 -116 -81 -202.5t-218 -84.5q-115 0 -189 65t-75 170zM481 270q0 69 -37.5 107.5t-101.5 38.5q-73 0 -122 -57.5t-49 -132.5q0 -68 38 -105.5t103 -37.5q77 0 123 55.5t46 131.5z" />
    <glyph glyph-name="one.onum" horiz-adv-x="417" 
d="M166 0l51 240q15 71 48 118h-53q-65 -134 -182 -134l28 127q67 7 128.5 45.5t103.5 101.5h100l-106 -498h-118z" />
    <glyph glyph-name="two.onum" horiz-adv-x="532" 
d="M26 0l30 132q169 60 240.5 104.5t75.5 107.5q0 32 -22.5 51.5t-56.5 19.5q-83 0 -99 -96l-121 25q11 72 70.5 120.5t151.5 48.5t147 -43.5t55 -110.5q0 -80 -74 -139q-39 -31 -101 -57.5t-174 -64.5l25 -48q73 48 179 48h97l-21 -98h-402z" />
    <glyph glyph-name="three.onum" horiz-adv-x="574" 
d="M-20 -9q0 12 1 16l123 13v-16q0 -52 31 -83t86 -31q57 0 93.5 35t36.5 87q0 43 -29 67.5t-79 24.5h-52l22 104h61q58 0 94.5 31.5t36.5 84.5q0 40 -27.5 65.5t-70.5 25.5q-50 0 -84 -33t-43 -90l-119 26q16 85 83 140.5t168 55.5q95 0 154 -48t59 -121q0 -76 -53 -119.5
t-136 -48.5l-10 -48q67 -5 108.5 -40.5t41.5 -93.5q0 -87 -70.5 -146t-183.5 -59q-112 0 -177 52.5t-65 148.5z" />
    <glyph glyph-name="four.onum" horiz-adv-x="623" 
d="M285 -195l41 195h-349l22 97l371 401h178l-85 -400h103l-21 -98h-103l-42 -195h-115zM164 53l9 8q18 14 27.5 20t29.5 11.5t47 5.5h70l23 110q9 42 21 71q17 39 63 91l-38 33l-278 -305l-10 -11z" />
    <glyph glyph-name="five.onum" horiz-adv-x="573" 
d="M-20 -26l119 32q5 -51 35.5 -83t81.5 -32q66 0 106.5 43.5t40.5 107.5q0 49 -32 79.5t-81 30.5q-64 0 -114 -63l-124 29l134 380h410l-23 -106h-316l-41 -116q-24 -66 -72 -111h64q19 36 54 59.5t80 23.5q79 0 133.5 -54t54.5 -144q0 -112 -76 -186t-195 -74
q-102 0 -166.5 50.5t-72.5 133.5z" />
    <glyph glyph-name="six.onum" horiz-adv-x="617" 
d="M62 251q-1 124 44 229t135.5 171t209.5 64q97 0 169 -25l-25 -109q-67 26 -144 26q-105 0 -188.5 -70.5t-113.5 -203.5h49q45 120 171 120q92 0 149.5 -57.5t57.5 -143.5q0 -114 -79.5 -190.5t-195.5 -76.5q-117 0 -178 68.5t-61 197.5zM453 239q0 54 -34 86t-86 32
q-64 0 -107 -47t-43 -111q0 -51 34 -83t86 -32q64 0 107 46.5t43 108.5z" />
    <glyph glyph-name="seven.onum" horiz-adv-x="524" 
d="M424 394l12 8l-29 42q-73 -49 -154 -49h-205l22 103h486l-27 -128q-161 -106 -255.5 -251t-115.5 -314h-123q27 200 121 336.5t268 252.5z" />
    <glyph glyph-name="eight.onum" horiz-adv-x="604" 
d="M38 166q0 82 56.5 126t158.5 46l10 48q-145 19 -145 130q0 84 71.5 141.5t179.5 57.5q97 0 158 -48t61 -125q0 -71 -52 -113.5t-142 -48.5l-11 -48q76 -7 118 -43.5t42 -97.5q0 -85 -73.5 -145.5t-191.5 -60.5q-112 0 -176 50.5t-64 130.5zM474 522q0 44 -31 69.5
t-80 25.5q-56 0 -93 -33.5t-37 -81.5q0 -43 30 -66.5t79 -23.5q58 0 95 31.5t37 78.5zM418 206q0 45 -32 71t-86 26q-61 0 -99.5 -34.5t-38.5 -83.5q0 -47 32 -73.5t86 -26.5q61 0 99.5 35t38.5 86z" />
    <glyph glyph-name="nine.onum" horiz-adv-x="624" 
d="M7 -187l26 110q69 -27 139 -27q108 0 183.5 65t99.5 177h-48q-53 -95 -159 -95q-86 0 -141.5 58t-55.5 142q-2 113 78.5 192.5t188.5 77.5q114 0 180 -74t66 -202q0 -201 -102.5 -324t-291.5 -123q-103 0 -163 23zM444 299q0 51 -34 83t-86 32q-64 0 -107.5 -47
t-43.5 -109q0 -54 34 -86t86 -32q64 0 107.5 47.5t43.5 111.5z" />
    <glyph glyph-name="zero.tnum" 
d="M39 277q-1 109 39 210t115.5 166t167.5 62q121 0 192 -79t71 -217q2 -109 -38 -209t-116 -163.5t-168 -61.5q-124 0 -193.5 77t-69.5 215zM492 418q0 90 -33.5 138.5t-96.5 48.5q-55 2 -101 -51t-69 -128t-22 -147q0 -90 33.5 -137t96.5 -47q56 -3 102 49t68.5 126.5
t21.5 147.5z" />
    <glyph glyph-name="one.tnum" 
d="M389 112h154l-23 -112h-490l24 112h213l69 329q17 76 51 122h-53q-75 -140 -189 -143l28 132q145 14 236 148h104z" />
    <glyph glyph-name="two.tnum" 
d="M14 0l31 139q157 77 238 125q192 115 192 232q0 51 -29.5 79.5t-80.5 28.5q-55 0 -90.5 -42t-41.5 -108l-128 27q13 102 82.5 168t183.5 66q110 0 174.5 -58t64.5 -146q0 -145 -159 -255q-89 -61 -301 -152l26 -49q76 56 179 56h175l-24 -111h-492z" />
    <glyph glyph-name="three.tnum" 
d="M40 207l127 16q-1 -61 30 -95.5t90 -34.5q56 0 93 35t37 86q0 40 -28 64t-75 24h-62l22 105h57q60 0 97 31.5t37 82.5q0 38 -27 62t-68 24q-48 0 -81 -30.5t-42 -84.5l-125 30q19 87 84.5 140t173.5 53q94 0 154 -47t60 -118q0 -86 -58.5 -130t-142.5 -42l-9 -46
q72 0 117 -39t45 -98q0 -86 -73.5 -148t-186.5 -62q-114 0 -179.5 57t-66.5 165z" />
    <glyph glyph-name="four.tnum" 
d="M312 0l37 177h-328l24 114l346 409h183l-88 -419h97l-22 -104h-98l-38 -177h-113zM371 281l27 130q11 51 30 87t53 76l-35 34l-8 -9l-263 -315l-11 -13l36 -33q22 24 42 33.5t60 9.5h69z" />
    <glyph glyph-name="five.tnum" 
d="M40 172l124 28q4 -48 36 -77.5t83 -29.5q66 0 105 42.5t39 104.5q0 49 -31 79t-80 30q-69 0 -119 -63l-119 28l137 386h412l-24 -112h-317l-35 -98q-34 -93 -89 -137h67q51 89 139 89q82 0 135 -54.5t53 -144.5q0 -115 -77 -186.5t-197 -71.5q-106 0 -169.5 51t-72.5 136
z" />
    <glyph glyph-name="six.tnum" 
d="M60 269q-2 193 106 321t282 125q102 0 178 -33l-26 -117q-68 33 -160 33q-110 0 -190.5 -69t-94.5 -196h46q15 58 60 91.5t113 33.5q94 0 151 -58t57 -145q0 -118 -76 -194t-191 -76q-120 0 -187.5 77t-67.5 207zM450 244q0 54 -32 84.5t-83 30.5q-61 0 -101.5 -45
t-40.5 -106q0 -51 32.5 -83t81.5 -32q62 0 102.5 45t40.5 106z" />
    <glyph glyph-name="seven.tnum" 
d="M527 589l12 7l-25 45q-75 -53 -173 -53h-201l24 112h487l-31 -143q-156 -91 -246 -234t-112 -323h-135q17 193 130 348t270 241z" />
    <glyph glyph-name="eight.tnum" 
d="M40 166q0 83 62 127.5t150 46.5l11 48q-140 18 -140 133q0 80 70 137t184 57q104 0 166 -50t62 -123q0 -79 -55 -118q-56 -39 -137 -43l-10 -48q66 -6 110.5 -43t44.5 -97q0 -86 -75 -147t-204 -61q-112 0 -175.5 52t-63.5 129zM481 520q0 41 -30 65t-78 24
q-55 0 -91 -31.5t-36 -77.5q0 -44 29 -67t82 -23q57 0 90.5 31.5t33.5 78.5zM425 211q0 46 -32 72t-86 26q-61 0 -99.5 -34.5t-38.5 -84.5q0 -45 32.5 -71.5t86.5 -26.5q60 0 98.5 34.5t38.5 84.5z" />
    <glyph glyph-name="nine.tnum" 
d="M37 19l25 119q66 -34 165 -34q122 0 192 93q56 61 73 160h-46q-20 -49 -61.5 -78t-101.5 -29q-86 0 -141.5 58.5t-55.5 144.5q0 115 73.5 188.5t185.5 73.5q116 0 186 -75q69 -75 69 -214q2 -193 -102.5 -318t-276.5 -123q-112 0 -184 34zM466 494q0 50 -32 81.5
t-79 31.5q-59 0 -96.5 -43t-37.5 -101q0 -51 31 -81.5t78 -30.5q62 0 99 41t37 102z" />
    <glyph glyph-name="zero.subs" horiz-adv-x="429" 
d="M8 54q0 103 55 175t134 72q73 0 115 -46t42 -125q0 -103 -54.5 -174.5t-135.5 -71.5q-74 0 -115 45t-41 125zM252 130q0 89 -55 89q-34 0 -61 -50.5t-27 -114.5q0 -88 55 -88q35 0 61.5 49.5t26.5 114.5z" />
    <glyph glyph-name="one.subs" horiz-adv-x="298" 
d="M58 -108l45 208q11 53 44 100h-41q-20 -45 -41.5 -63t-60.5 -18l20 94q83 2 131 80h84l-86 -401h-95z" />
    <glyph glyph-name="two.subs" horiz-adv-x="393" 
d="M-10 -108l21 100q122 62 166.5 97.5t48.5 81.5q0 48 -44 48q-24 0 -39.5 -20.5t-18.5 -56.5l-100 15q8 66 51 105t111 39q63 0 103.5 -33t40.5 -85q0 -63 -51 -110q-28 -25 -71 -46q-42 -21 -123 -57l19 -36q40 24 63.5 32.5t62.5 8.5h59l-18 -83h-281z" />
    <glyph glyph-name="three.subs" horiz-adv-x="382" 
d="M-14 19l101 12q-2 -31 11.5 -48.5t40.5 -17.5q24 0 39 14t15 37q0 18 -12.5 29t-32.5 11h-30l17 79h26q27 0 43.5 13t16.5 36q0 16 -11 26t-28 10q-22 0 -36 -16t-18 -43l-98 17q10 58 51.5 90.5t105.5 32.5q59 0 95 -26.5t36 -69.5q0 -40 -31 -64.5t-82 -26.5l-8 -34
q42 -1 68.5 -22.5t26.5 -56.5q0 -50 -44 -83.5t-111 -33.5q-71 0 -112 36.5t-39 98.5z" />
    <glyph glyph-name="four.subs" horiz-adv-x="407" 
d="M-4 19l101 12q-2 -31 11.5 -48.5t40.5 -17.5q24 0 39 14t15 37q0 18 -12.5 29t-32.5 11h-30l17 79h26q27 0 43.5 13t16.5 36q0 16 -11 26t-28 10q-22 0 -36 -16t-18 -43l-98 17q10 58 51.5 90.5t105.5 32.5q59 0 95 -26.5t36 -69.5q0 -40 -31 -64.5t-82 -26.5l-8 -34
q42 -1 68.5 -22.5t26.5 -56.5q0 -50 -44 -83.5t-111 -33.5q-71 0 -112 36.5t-39 98.5z" />
    <glyph glyph-name="five.subs" horiz-adv-x="382" 
d="M-14 5l96 19q2 -27 16.5 -43t38.5 -16q27 0 44.5 19t17.5 48q0 23 -13 35.5t-34 12.5q-34 0 -55 -35l-90 21l81 227h252l-17 -83h-174l-8 -23q-17 -50 -58 -87h48q27 53 74 53q42 0 68.5 -31t26.5 -80q0 -72 -45 -115t-118 -43q-64 0 -105 33t-46 88z" />
    <glyph glyph-name="six.subs" horiz-adv-x="408" 
d="M8 49q0 113 62 182.5t163 69.5q68 0 112 -23l-19 -88q-47 26 -104 26q-118 0 -140 -120h38q9 30 32.5 48t53.5 18q48 0 81.5 -35t33.5 -86q0 -68 -45.5 -112.5t-114.5 -44.5q-70 0 -111.5 44.5t-41.5 120.5zM219 36q0 23 -13 36.5t-34 13.5q-26 0 -44 -20t-18 -51
q0 -22 13 -36t34 -14q26 0 44 21t18 50z" />
    <glyph glyph-name="seven.subs" horiz-adv-x="355" 
d="M217 210l21 11l-21 32q-59 -43 -122 -43h-72l17 83h294l-19 -91q-174 -103 -194 -310h-104q6 98 60 184t140 134z" />
    <glyph glyph-name="eight.subs" horiz-adv-x="396" 
d="M-8 -8q0 40 31.5 65.5t88.5 25.5l8 38q-38 1 -60.5 19.5t-22.5 46.5q0 48 44 81t109 33q58 0 97.5 -28t39.5 -71q0 -36 -28 -59t-74 -23l-9 -38q39 -3 62.5 -24.5t23.5 -52.5q0 -51 -45.5 -86t-116.5 -35q-67 0 -107.5 30.5t-40.5 77.5zM229 183q0 38 -43 38
q-23 0 -37.5 -13.5t-14.5 -35.5q0 -40 44 -40q22 0 36.5 14.5t14.5 36.5zM201 19q0 20 -13.5 32t-36.5 12q-25 0 -41.5 -16t-16.5 -40q0 -42 49 -42q26 0 42.5 14.5t16.5 39.5z" />
    <glyph glyph-name="nine.subs" horiz-adv-x="403" 
d="M-5 -92l18 87q49 -24 100 -24q63 0 99 36q33 33 39 85h-37q-21 -64 -85 -64q-47 0 -77 33.5t-30 86.5q0 67 44 110t112 43q71 0 110 -44q42 -47 42 -123q0 -112 -60.5 -181t-159.5 -69q-66 0 -115 24zM227 171q0 21 -13 35t-33 14q-24 0 -40 -19t-16 -47q0 -22 12 -36
t32 -14q25 0 41.5 19t16.5 48z" />
    <glyph glyph-name="zero.dnom" horiz-adv-x="426" 
d="M32 162q0 103 55 175t134 72q73 0 115 -46t42 -125q0 -103 -54.5 -174.5t-135.5 -71.5q-74 0 -115 45t-41 125zM276 238q0 89 -55 89q-34 0 -61 -50.5t-27 -114.5q0 -88 55 -88q35 0 61.5 49.5t26.5 114.5z" />
    <glyph glyph-name="one.dnom" horiz-adv-x="297" 
d="M81 0l45 208q11 53 44 100h-41q-20 -45 -41.5 -63t-60.5 -18l20 94q83 2 131 80h84l-86 -401h-95z" />
    <glyph glyph-name="two.dnom" horiz-adv-x="390" 
d="M13 0l21 100q122 62 166.5 97.5t48.5 81.5q0 48 -44 48q-24 0 -39.5 -20.5t-18.5 -56.5l-100 15q8 66 51 105t111 39q63 0 103.5 -33t40.5 -85q0 -63 -51 -110q-28 -25 -71 -46q-42 -21 -123 -57l19 -36q40 24 63.5 32.5t62.5 8.5h59l-18 -83h-281z" />
    <glyph glyph-name="three.dnom" horiz-adv-x="382" 
d="M10 127l101 12q-2 -31 11.5 -48.5t40.5 -17.5q24 0 39 14t15 37q0 18 -12.5 29t-32.5 11h-30l17 79h26q27 0 43.5 13t16.5 36q0 16 -11 26t-28 10q-22 0 -36 -16t-18 -43l-98 17q10 58 51.5 90.5t105.5 32.5q59 0 95 -26.5t36 -69.5q0 -40 -31 -64.5t-82 -26.5l-8 -34
q42 -1 68.5 -22.5t26.5 -56.5q0 -50 -44 -83.5t-111 -33.5q-71 0 -112 36.5t-39 98.5z" />
    <glyph glyph-name="four.dnom" horiz-adv-x="405" 
d="M170 0l20 96h-186l19 84l201 221h125l-49 -226h56l-17 -79h-56l-20 -96h-93zM208 175l8 35q11 49 65 92l-25 24l-157 -171l24 -21q35 41 72 41h13z" />
    <glyph glyph-name="five.dnom" horiz-adv-x="382" 
d="M9 113l96 19q2 -27 16.5 -43t38.5 -16q27 0 44.5 19t17.5 48q0 23 -13 35.5t-34 12.5q-34 0 -55 -35l-90 21l81 227h252l-17 -83h-174l-8 -23q-17 -50 -58 -87h48q27 53 74 53q42 0 68.5 -31t26.5 -80q0 -72 -45 -115t-118 -43q-64 0 -105 33t-46 88z" />
    <glyph glyph-name="six.dnom" horiz-adv-x="405" 
d="M30 157q0 113 62 182.5t163 69.5q68 0 112 -23l-19 -88q-47 26 -104 26q-118 0 -140 -120h38q9 30 32.5 48t53.5 18q48 0 81.5 -35t33.5 -86q0 -68 -45.5 -112.5t-114.5 -44.5q-70 0 -111.5 44.5t-41.5 120.5zM241 144q0 23 -13 36.5t-34 13.5q-26 0 -44 -20t-18 -51
q0 -22 13 -36t34 -14q26 0 44 21t18 50z" />
    <glyph glyph-name="seven.dnom" horiz-adv-x="355" 
d="M240 318l21 11l-21 32q-59 -43 -122 -43h-72l17 83h294l-19 -91q-174 -103 -194 -310h-104q6 98 60 184t140 134z" />
    <glyph glyph-name="eight.dnom" horiz-adv-x="396" 
d="M15 100q0 40 31.5 65.5t88.5 25.5l8 38q-38 1 -60.5 19.5t-22.5 46.5q0 48 44 81t109 33q58 0 97.5 -28t39.5 -71q0 -36 -28 -59t-74 -23l-9 -38q39 -3 62.5 -24.5t23.5 -52.5q0 -51 -45.5 -86t-116.5 -35q-67 0 -107.5 30.5t-40.5 77.5zM252 291q0 38 -43 38
q-23 0 -37.5 -13.5t-14.5 -35.5q0 -40 44 -40q22 0 36.5 14.5t14.5 36.5zM224 127q0 20 -13.5 32t-36.5 12q-25 0 -41.5 -16t-16.5 -40q0 -42 49 -42q26 0 42.5 14.5t16.5 39.5z" />
    <glyph glyph-name="nine.dnom" horiz-adv-x="403" 
d="M18 16l18 87q50 -24 100 -24q63 0 99 36q33 33 39 85h-37q-21 -64 -85 -64q-47 0 -77 33.5t-30 86.5q0 67 44 110t112 43q71 0 110 -44q42 -47 42 -123q0 -112 -60.5 -181t-159.5 -69q-65 0 -115 24zM250 279q0 21 -13 35t-33 14q-24 0 -40 -19t-16 -47q0 -22 12 -36
t32 -14q25 0 41.5 19t16.5 48z" />
    <glyph glyph-name="zero.numr" horiz-adv-x="429" 
d="M95 461q0 103 55 175t134 72q73 0 115 -46t42 -125q0 -103 -54.5 -174.5t-135.5 -71.5q-74 0 -115 45t-41 125zM339 537q0 89 -55 89q-34 0 -61 -50.5t-27 -114.5q0 -88 55 -88q35 0 61.5 49.5t26.5 114.5z" />
    <glyph glyph-name="one.numr" horiz-adv-x="297" 
d="M145 299l45 208q11 53 44 100h-41q-20 -45 -41.5 -63t-60.5 -18l20 94q83 2 131 80h84l-86 -401h-95z" />
    <glyph glyph-name="two.numr" horiz-adv-x="393" 
d="M76 299l21 100q122 62 166.5 97.5t48.5 81.5q0 48 -44 48q-24 0 -39.5 -20.5t-18.5 -56.5l-100 15q8 66 51 105t111 39q63 0 103.5 -33t40.5 -85q0 -64 -51 -110q-28 -25 -71 -46q-42 -21 -123 -57l19 -36q40 24 63.5 32.5t62.5 8.5h59l-18 -83h-281z" />
    <glyph glyph-name="three.numr" horiz-adv-x="388" 
d="M73 426l101 12q-2 -31 11.5 -48.5t40.5 -17.5q24 0 39 14t15 37q0 18 -12.5 29t-32.5 11h-30l17 79h26q27 0 43.5 13t16.5 36q0 16 -11 26t-28 10q-22 0 -36 -16t-18 -43l-98 17q10 58 51.5 90.5t105.5 32.5q59 0 95 -26.5t36 -69.5q0 -40 -31 -64.5t-82 -26.5l-8 -34
q42 -1 68.5 -22.5t26.5 -56.5q0 -50 -44 -83.5t-111 -33.5q-71 0 -112 36.5t-39 98.5z" />
    <glyph glyph-name="four.numr" horiz-adv-x="407" 
d="M233 299l20 96h-186l19 84l201 221h125l-49 -226h56l-17 -79h-56l-20 -96h-93zM271 474l8 35q11 49 65 92l-25 24l-157 -171l24 -21q35 41 72 41h13z" />
    <glyph glyph-name="five.numr" horiz-adv-x="388" 
d="M72 412l96 19q2 -27 16.5 -43t38.5 -16q27 0 44.5 19t17.5 48q0 23 -13 35.5t-34 12.5q-34 0 -55 -35l-90 21l81 227h252l-17 -83h-174l-8 -23q-17 -50 -58 -87h48q27 53 74 53q42 0 68.5 -31t26.5 -80q0 -72 -45 -115t-118 -43q-64 0 -105 33t-46 88z" />
    <glyph glyph-name="six.numr" horiz-adv-x="408" 
d="M94 456q0 113 62 182.5t163 69.5q68 0 112 -23l-19 -88q-47 26 -104 26q-118 0 -140 -120h38q9 30 32.5 48t53.5 18q48 0 81.5 -35t33.5 -86q0 -68 -45.5 -112.5t-114.5 -44.5q-70 0 -111.5 44.5t-41.5 120.5zM305 443q0 23 -13 36.5t-34 13.5q-26 0 -44 -20t-18 -51
q0 -22 13 -36t34 -14q26 0 44 21t18 50z" />
    <glyph glyph-name="seven.numr" horiz-adv-x="354" 
d="M303 617l21 11l-21 32q-59 -43 -122 -43h-72l17 83h294l-19 -91q-174 -103 -194 -310h-104q6 98 60 184t140 134z" />
    <glyph glyph-name="eight.numr" horiz-adv-x="397" 
d="M79 399q0 40 31.5 65.5t88.5 25.5l8 38q-38 1 -60.5 19.5t-22.5 46.5q0 48 44 81t109 33q58 0 97.5 -28t39.5 -71q0 -36 -28 -59t-74 -23l-9 -38q39 -3 62.5 -24.5t23.5 -52.5q0 -51 -45.5 -86t-116.5 -35q-67 0 -107.5 30.5t-40.5 77.5zM316 590q0 38 -43 38
q-23 0 -37.5 -13.5t-14.5 -35.5q0 -40 44 -40q22 0 36.5 14.5t14.5 36.5zM288 426q0 20 -13.5 32t-36.5 12q-25 0 -41.5 -16t-16.5 -40q0 -42 49 -42q26 0 42.5 14.5t16.5 39.5z" />
    <glyph glyph-name="nine.numr" horiz-adv-x="403" 
d="M82 315l18 87q50 -24 100 -24q63 0 99 36q33 33 39 85h-37q-21 -64 -85 -64q-47 0 -77 33.5t-30 86.5q0 67 44 110t112 43q71 0 110 -44q42 -46 42 -123q0 -113 -60.5 -181.5t-159.5 -68.5q-65 0 -115 24zM314 578q0 21 -13 35t-33 14q-24 0 -40 -19t-16 -47
q0 -22 12 -36t32 -14q25 0 41.5 19t16.5 48z" />
    <glyph glyph-name="comma.ss04" horiz-adv-x="281" 
d="M-25 -154l74 91q24 34 68 51l-19 35q-30 -23 -58 -23h-19l32 146h147l-34 -154l-116 -146h-75z" />
    <glyph glyph-name="semicolon.ss04" horiz-adv-x="292" 
d="M-24 -154l74 91q24 34 68 51l-19 35q-30 -23 -58 -23h-19l32 146h147l-34 -154l-116 -146h-75zM97 352l31 146h148l-31 -146h-148z" />
    <glyph glyph-name="exclamdown.case" horiz-adv-x="303" 
d="M322 700l-31 -145h-149l32 145h148zM224 461l-21 -281l-39 -180h-131l38 181l99 280h54z" />
    <glyph glyph-name="questiondown.case" horiz-adv-x="521" 
d="M432 701l-31 -146h-148l32 146h147zM250 285q-54 -35 -74.5 -57t-22.5 -59q0 -36 23.5 -57t62.5 -21q51 0 81.5 34.5t36.5 101.5l120 -23q-8 -98 -73.5 -158t-171.5 -60q-95 0 -151.5 48.5t-56.5 121.5q3 68 37 108.5t121 93.5q36 23 52 45.5t22 58.5h116
q-18 -77 -37 -106t-85 -71z" />
    <glyph glyph-name="period.tnum" 
d="M170 0l38 176h176l-36 -176h-178z" />
    <glyph glyph-name="comma.tnum" 
d="M116 -185l147 185h-92l38 176h177l-41 -185l-140 -176h-89z" />
    <glyph glyph-name="colon.tnum" 
d="M250 382l38 176h177l-37 -176h-178zM169 0l38 176h177l-37 -176h-178z" />
    <glyph glyph-name="semicolon.tnum" 
d="M253 382l38 176h176l-36 -176h-178zM117 -185l147 185h-92l38 176h177l-41 -185l-140 -176h-89z" />
    <glyph glyph-name="semicolon.tnum_ss04" 
d="M255 383l37 176h177l-37 -176h-177zM119 -185l88 110q34 44 82 61l-23 42q-37 -28 -70 -28h-22l38 176h176l-40 -186l-140 -175h-89z" />
    <glyph glyph-name="numbersign.tnum" 
d="M16 0l27 64q15 37 36 63t65 57l-30 39q-34 -27 -53 -36t-40 -9h-17l21 100h109l61 144h-109l23 108h131l72 170h113l-24 -57q-17 -38 -36.5 -63t-64.5 -56l30 -39q37 30 56 37.5t51 7.5h23l72 170h114l-23 -57q-15 -36 -36.5 -62t-64.5 -57l30 -39q33 27 52.5 36t41.5 9
h14l-23 -108h-108l-61 -144h109l-22 -100h-129l-75 -178h-115l27 65q16 37 35.5 62.5t65.5 56.5l-30 39q-39 -30 -57.5 -37.5t-48.5 -7.5h-23l-75 -178h-114zM248 278h106l61 144h-107z" />
    <glyph glyph-name="parenleft.case" horiz-adv-x="346" 
d="M56 196q0 144 47 291q48 145 135 238t199 90l-25 -110q-70 -6 -127 -89q-57 -85 -88 -199q-31 -115 -31 -221q0 -173 97 -195l-23 -111q-184 36 -184 306z" />
    <glyph glyph-name="parenright.case" horiz-adv-x="347" 
d="M334 509q0 -144 -47 -291q-46 -144 -134 -238q-87 -93 -199 -90l25 110q71 6 126 88q56 81 88 200t32 221q0 172 -97 196l23 110q183 -36 183 -306z" />
    <glyph glyph-name="braceleft.case" horiz-adv-x="368" 
d="M80 26q0 20 5 45l28 128q6 25 6 45q0 31 -18 44t-58 13l21 102q53 0 77 19.5t36 76.5l34 161q16 78 54.5 111.5t121.5 33.5h66l-20 -93h-36q-33 0 -51.5 -16t-26.5 -53l-32 -153q-16 -68 -48.5 -91t-98.5 -25l-11 -45q101 -1 101 -86q0 -21 -6 -48l-28 -132
q-3 -15 -3 -28q0 -23 12 -32.5t39 -9.5h36l-19 -93h-48q-65 0 -99 34t-34 92z" />
    <glyph glyph-name="braceright.case" horiz-adv-x="367" 
d="M332 679q0 -20 -5 -45l-28 -128q-6 -27 -6 -45q0 -31 18 -44t59 -13l-22 -102q-53 0 -76.5 -19.5t-36.5 -76.5l-34 -162q-17 -77 -55 -110.5t-120 -33.5h-67l21 93h35q34 0 52 15.5t26 53.5l33 152q14 69 46.5 92t100.5 25l10 44q-100 1 -100 87q0 18 5 48l28 132
q4 13 4 27q0 23 -12 32.5t-39 9.5h-37l20 94h47q65 0 99 -34t34 -92z" />
    <glyph glyph-name="bracketleft.case" horiz-adv-x="363" 
d="M20 -100l192 905h239l-20 -96h-127l-152 -713h127l-21 -96h-238z" />
    <glyph glyph-name="bracketright.case" horiz-adv-x="362" 
d="M387 805l-192 -905h-239l21 96h127l151 713h-127l21 96h238z" />
    <glyph glyph-name="angleleft.case" horiz-adv-x="366" 
d="M450 748l-287 -410l112 -410l-107 -38l-123 462l317 463z" />
    <glyph glyph-name="angleright.case" horiz-adv-x="366" 
d="M243 816l123 -462l-317 -463l-88 67l287 410l-112 410z" />
    <glyph glyph-name="uni3010.case" horiz-adv-x="387" 
d="M20 -100l193 905h294q-119 -110 -187 -219t-94 -233q-15 -67 -15 -133q0 -163 104 -320h-295z" />
    <glyph glyph-name="uni3011.case" horiz-adv-x="386" 
d="M412 805l-193 -905h-294q119 110 187 219.5t94 233.5q15 67 15 132q0 163 -104 320h295z" />
    <glyph glyph-name="uni300C.case" horiz-adv-x="374" 
d="M98 357l95 448h280l-21 -96h-168l-75 -352h-111z" />
    <glyph glyph-name="uni300D.case" horiz-adv-x="373" 
d="M320 349l-95 -448h-280l21 96h168l75 352h111z" />
    <glyph glyph-name="uni300A.case" horiz-adv-x="610" 
d="M450 748l-287 -410l112 -412l-107 -38l-123 465l317 462zM708 748l-311 -439l107 -383l-108 -38l-118 435l342 492z" />
    <glyph glyph-name="uni300B.case" horiz-adv-x="608" 
d="M258 816l118 -435l-342 -492l-88 68l311 439l-107 382zM486 816l123 -464l-317 -463l-88 68l287 410l-112 411z" />
    <glyph glyph-name="uni3014.case" horiz-adv-x="343" 
d="M239 565l-94 -441l120 -174l-93 -62l-144 206l111 521l221 200l71 -80z" />
    <glyph glyph-name="uni3015.case" horiz-adv-x="343" 
d="M215 815l145 -205l-111 -522l-222 -199l-70 80l192 170l93 441l-119 173z" />
    <glyph glyph-name="uni300E.case" horiz-adv-x="534" 
d="M86 255l117 550h411l-51 -239h-165l-66 -311h-246zM200 344h64l65 305h158l14 67h-221z" />
    <glyph glyph-name="uni300F.case" horiz-adv-x="535" 
d="M492 450l-117 -550h-411l51 239h165l66 311h246zM377 361h-63l-65 -305h-158l-14 -67h221z" />
    <glyph glyph-name="hyphen.case" horiz-adv-x="463" 
d="M80 307l25 116h325l-25 -116h-325z" />
    <glyph glyph-name="uni00AD.case" horiz-adv-x="463" 
d="M80 307l25 116h325l-25 -116h-325z" />
    <glyph glyph-name="endash.case" horiz-adv-x="646" 
d="M84 314l22 101h503l-22 -101h-503z" />
    <glyph glyph-name="emdash.case" horiz-adv-x="921" 
d="M84 315l21 101h779l-22 -101h-778z" />
    <glyph glyph-name="quotesinglbase.ss04" horiz-adv-x="270" 
d="M-24 -146l69 86q27 33 65 49l-18 33q-29 -22 -55 -22h-17l29 139h140l-32 -147l-111 -138h-70z" />
    <glyph glyph-name="quotedblbase.ss04" horiz-adv-x="468" 
d="M-24 -146l69 86q27 33 65 49l-18 33q-29 -22 -55 -22h-17l29 139h140l-32 -147l-111 -138h-70zM175 -146l69 86q27 33 65 49l-18 33q-29 -22 -55 -22h-17l29 139h140l-32 -147l-111 -138h-70z" />
    <glyph glyph-name="quotedblleft.ss04" horiz-adv-x="462" 
d="M305 700l-70 -87q-27 -35 -65 -48l19 -34q28 23 55 23h17l-30 -139h-139l32 147l110 138h71zM504 700l-69 -87q-29 -36 -65 -48l18 -34q28 23 55 23h17l-29 -139h-140l32 147l111 138h70z" />
    <glyph glyph-name="quotedblright.ss04" horiz-adv-x="456" 
d="M91 416l69 86q27 33 65 49l-18 33q-29 -22 -55 -22h-17l29 139h140l-32 -147l-111 -138h-70zM290 416l69 86q27 33 65 49l-18 33q-29 -22 -55 -22h-17l29 139h140l-32 -147l-111 -138h-70z" />
    <glyph glyph-name="quoteleft.ss04" horiz-adv-x="264" 
d="M306 700l-70 -87q-29 -36 -65 -48l18 -34q30 23 55 23h18l-30 -139h-140l33 147l110 138h71z" />
    <glyph glyph-name="quoteright.ss04" horiz-adv-x="257" 
d="M91 416l69 86q27 33 65 49l-18 33q-29 -22 -55 -22h-17l29 139h140l-32 -147l-111 -138h-70z" />
    <glyph glyph-name="guillemotleft.case" horiz-adv-x="602" 
d="M387 575l-199 -242l84 -217h-120l-88 230l186 229h137zM632 575l-222 -271l72 -188h-119l-77 201l210 258h136z" />
    <glyph glyph-name="guillemotright.case" horiz-adv-x="602" 
d="M280 575l76 -200l-209 -259h-137l223 272l-73 187h120zM490 575l89 -230l-186 -229h-137l199 243l-84 216h119z" />
    <glyph glyph-name="guilsinglleft.case" horiz-adv-x="368" 
d="M387 575l-199 -242l84 -217h-120l-88 230l186 229h137z" />
    <glyph glyph-name="guilsinglright.case" horiz-adv-x="367" 
d="M256 575l88 -230l-186 -229h-137l200 243l-84 216h119z" />
    <glyph glyph-name="space.tnum" 
 />
    <glyph glyph-name="uni20BF.tnum" 
d="M605 199q0 -87 -73 -143t-188 -56l-23 -104h-86l23 104h-53l-22 -104h-86l22 104h-116l149 700h116l22 101h86l-22 -101h52l22 101h86l-23 -108q67 -14 104.5 -52.5t37.5 -94.5q0 -75 -50.5 -114t-139.5 -45l-10 -48q82 -3 127 -38t45 -102zM257 588l-36 -171h150
q60 0 93.5 26t33.5 71q0 74 -106 74h-135zM472 221q0 43 -31.5 65t-87.5 22h-155l-42 -197h174q65 0 103.5 30.5t38.5 79.5z" />
    <glyph glyph-name="cent.tnum" 
d="M201 -119l24 113q-75 18 -117 75t-42 141q-2 116 77 208.5t191 94.5l24 111h79l-25 -119q61 -15 103 -54t53 -92l-115 -34q-15 59 -60 78l-41 -188q-12 -53 -26 -83t-39 -53l26 -34q88 43 125 139l106 -51q-78 -145 -242 -148l-22 -104h-79zM247 97l37 176q19 103 67 143
l-27 33q-66 -32 -100.5 -97t-34.5 -141q0 -83 58 -114z" />
    <glyph glyph-name="currency.tnum" 
d="M90 76l-67 83l99 83q-18 39 -18 86q0 87 54 156l-64 80l84 70l68 -83q52 26 109 26q67 0 112 -31l103 83l68 -83l-101 -84q21 -44 21 -90q0 -76 -52 -146l66 -80l-84 -71l-67 83q-53 -31 -113 -31q-68 0 -117 36zM445 373q0 43 -26 70.5t-70 27.5q-55 0 -94.5 -42
t-39.5 -97q0 -43 27.5 -71t71.5 -28q54 0 92.5 42.5t38.5 97.5z" />
    <glyph glyph-name="dollar.tnum" 
d="M188 -102l22 99q-76 20 -122.5 71.5t-55.5 121.5l119 39q12 -86 83 -121l42 197l-21 8q-75 30 -108.5 66.5t-35.5 116.5q0 98 69.5 158.5t184.5 60.5l20 86h85l-22 -98q67 -18 110 -63t56 -105l-119 -41q-19 71 -72 97l-41 -188l23 -7q161 -61 161 -188
q0 -105 -71.5 -164t-202.5 -59l-18 -87h-86zM304 430l12 58q15 82 68 122l-22 36q-127 -39 -127 -138q0 -61 69 -78zM436 196q0 62 -79 82l-14 -65q-15 -78 -67 -120l21 -36q65 17 102 54t37 85z" />
    <glyph glyph-name="Euro.tnum" 
d="M109 227h-80l18 84h64q2 30 12 74h-60l18 85h65q35 109 109 177t166 68q95 0 150 -57t66 -153l-114 -27q-13 127 -115 127q-97 0 -178 -139l32 -25q29 29 80 29h74l-18 -85h-173q-11 -42 -11 -74h168l-18 -84h-74q-44 0 -67 27l-33 -22q15 -66 50 -101.5t86 -35.5
q98 0 151 142l103 -39q-31 -96 -97.5 -154.5t-157.5 -58.5q-96 0 -153 64t-63 178z" />
    <glyph glyph-name="uni20BA.tnum" 
d="M84 0l22 101q15 70 68 126l-40 30q-34 -54 -72 -72l-38 -18l23 109l107 51l13 65l-106 -51l23 109l107 51l42 199h130l-6 -30q-13 -57 -65 -112l40 -31q33 54 83 79l152 74l-23 -109l-232 -111l-14 -64l233 110l-24 -109l-232 -111l-35 -169h21q67 0 134.5 46t101.5 135
l110 -68q-40 -99 -132 -164.5t-236 -65.5h-155z" />
    <glyph glyph-name="uni20BD.tnum" 
d="M632 507q0 -106 -73 -169t-190 -63h-124l-13 -61h203l-20 -93h-203l-26 -121h-121l26 121h-70l21 93h69l13 61h-70l22 102h70l68 323h196q106 0 164 -53t58 -140zM402 588h-90l-45 -211h103q62 0 100 34t38 88q0 40 -29.5 64.5t-76.5 24.5z" />
    <glyph glyph-name="uni20B9.tnum" 
d="M462 636l-22 -40q37 -16 56 -46h131l-19 -91h-98q-12 -53 -64.5 -83.5t-131.5 -32.5l-9 -44q70 -1 100 -31.5t35 -95.5l10 -172h-137l-4 161q-3 65 -29 89.5t-94 24.5h-112l24 110h153q107 0 137 74h-275l19 91h258q-25 55 -112 55h-134l20 95h495l-19 -91h-63
q-66 0 -115 27z" />
    <glyph glyph-name="sterling.tnum" 
d="M345 111h197l-24 -111h-498l26 116q65 20 109.5 61t44.5 97q0 12 -2 26h-112l18 84h64q-26 63 -26 115q0 96 71 156t175 60q102 0 162 -51.5t61 -143.5l-127 -31q0 55 -26.5 86t-76.5 31q-52 0 -81.5 -32.5t-29.5 -85.5q0 -47 22 -104h161l-18 -84h-120q1 -3 1 -16
q-2 -68 -41 -105t-125 -71l25 -45q67 48 170 48z" />
    <glyph glyph-name="uni20A9.tnum" 
d="M651 700l-73 -230h65l-18 -83h-74l-23 -72h82l-17 -82h-92l-74 -233h-139l19 114q31 176 38 212h-42l-51 -213l-30 -113h-142l27 233h-86l17 82h79l8 72h-71l17 83h64l27 230h108l-22 -145q-21 -126 -85 -417h42l28 108l35 132l34 125h120l-17 -121q-18 -116 -42 -243h44
q34 168 49 233q28 118 47 187l40 141h108z" />
    <glyph glyph-name="yen.tnum" 
d="M717 700l-258 -303h123l-18 -84h-174l-15 -74h174l-18 -84h-174l-33 -155h-129l33 155h-183l18 84h183l15 74h-183l18 84h130l-135 303h139l63 -159q23 -59 23 -111q0 -26 -6 -69h49q12 61 27 99t49 84l122 156h160z" />
    <glyph glyph-name="_576" 
d="M158 103l-72 72l174 174l-175 174l74 74l174 -175l174 174l72 -73l-173 -173l173 -174l-73 -74l-174 174z" />
    <glyph glyph-name="plus.tnum" 
d="M279 87v212h-212v108h212v212h108v-212h212v-108h-212v-212h-108z" />
    <glyph glyph-name="minus.tnum" 
d="M90 299v108h479v-108h-479z" />
    <glyph glyph-name="multiply.tnum" 
d="M158 103l-72 72l174 174l-175 174l74 74l174 -175l174 174l72 -73l-173 -173l173 -174l-73 -74l-174 174z" />
    <glyph glyph-name="divide.tnum" 
d="M266 485v134h134v-134h-134zM93 299v108h479v-108h-479zM266 87v133h134v-133h-134z" />
    <glyph glyph-name="equal.tnum" 
d="M83 412v108h482v-108h-482zM83 181v107h482v-107h-482z" />
    <glyph glyph-name="notequal.tnum" 
d="M127 87l51 94h-95v107h151l32 58q17 32 66 72l-26 38q-50 -44 -112 -44h-111v108h276l53 99h102l-53 -99h103v-108h-161l-30 -58q-15 -29 -66 -73l26 -37q47 44 108 44h123v-107h-284l-50 -94h-103z" />
    <glyph glyph-name="greater.tnum" 
d="M111 72v118l224 89q111 41 191 47v44q-80 6 -191 47l-224 89v121l481 -192v-170z" />
    <glyph glyph-name="less.tnum" 
d="M552 627v-118l-223 -89q-112 -41 -191 -46v-45q85 -5 191 -47l223 -89v-121l-481 193v170z" />
    <glyph glyph-name="greaterequal.tnum" 
d="M93 223v109l211 48q69 15 203 20v44q-129 5 -203 20l-211 49v115l481 -115v-173zM93 87v107h481v-107h-481z" />
    <glyph glyph-name="lessequal.tnum" 
d="M563 223l-481 115v174l481 117v-109l-211 -49q-70 -15 -203 -20v-44q119 -3 203 -20l211 -48v-116zM82 87v107h481v-107h-481z" />
    <glyph glyph-name="plusminus.tnum" 
d="M274 250v129h-191v101h191v139h98v-139h190v-101h-190v-129h-98zM77 87v107h481v-107h-481z" />
    <glyph glyph-name="approxequal.tnum" 
d="M324 394l-38 20q-38 18 -66 18q-50 0 -89 -52l-72 71q30 45 74 70t92 25q51 0 106 -29l36 -18q43 -21 70 -21q44 0 89 55l71 -73q-29 -45 -73 -70t-93 -25q-48 0 -107 29zM324 174l-38 20q-38 18 -66 18q-50 0 -89 -52l-72 71q30 45 74 70t92 25q51 0 106 -29l36 -18
q43 -21 70 -21q44 0 89 55l71 -73q-29 -45 -73 -70t-93 -25q-48 0 -107 29z" />
    <glyph glyph-name="logicalnot.tnum" 
d="M453 156v147h-381v107h477v-254h-96z" />
    <glyph glyph-name="percent.tnum" 
d="M63 522q0 79 43.5 136t112.5 57q62 0 95 -36.5t33 -100.5q0 -78 -43 -135t-111 -57q-61 0 -95.5 36t-34.5 100zM26 0l521 700h90l-520 -700h-91zM261 585q0 59 -43 59q-33 0 -51.5 -40.5t-18.5 -91.5q0 -55 43 -55q33 0 51.5 40t18.5 88zM316 121q0 78 43.5 135.5
t112.5 57.5q60 0 94 -36.5t34 -100.5q0 -78 -43 -135t-111 -57q-61 0 -95.5 36t-34.5 100zM514 184q0 59 -43 59q-33 0 -51.5 -40.5t-18.5 -91.5q0 -55 43 -55q33 0 51.5 40t18.5 88z" />
    <glyph glyph-name="perthousand.tnum" 
d="M61 500q0 84 40.5 149.5t105.5 65.5q48 0 73.5 -29.5t25.5 -83.5q0 -82 -42 -149t-104 -67q-99 0 -99 114zM489 700h76l-525 -700h-78zM141 491q0 -34 25 -34q23 -3 41.5 52.5t17.5 100.5q0 34 -24 34q-26 0 -43 -52t-17 -101zM602 202q0 -89 -36 -153t-100 -64
q-50 0 -70 38q-35 -38 -76 -38q-91 0 -91 114q0 85 35 150.5t95 65.5q49 0 75 -40q32 39 72 39q47 0 71.5 -29.5t24.5 -82.5zM386 210q0 33 -24 33t-40 -52t-16 -101q0 -33 24 -33q22 -3 39.5 52t16.5 101zM525 210q0 33 -23 33q-23 3 -40.5 -52t-16.5 -101q0 -34 23 -34
q23 -2 40 52t17 102z" />
    <glyph glyph-name="at.case" horiz-adv-x="930" 
d="M63 292q-2 127 59 237t170.5 174t240.5 62q179 0 289.5 -94.5t110.5 -253.5q2 -114 -72 -203.5t-177 -86.5q-92 0 -92 79q0 9 1 16h-35q-41 -95 -127 -95q-66 0 -104.5 50t-38.5 127q-2 93 54.5 173t134.5 77q52 0 77 -25t35 -70h40q-8 30 -8 52q0 15 4 31h99l-60 -281
q-1 -5 -1 -14q0 -29 35 -29q52 0 87.5 62.5t35.5 136.5q0 115 -79.5 184t-210.5 69q-155 2 -256 -108.5t-99 -266.5q0 -129 86 -201t219 -72q142 0 254 61l38 -89q-117 -68 -290 -68q-182 -2 -302 97.5t-118 268.5zM584 380q0 90 -79 90q-45 0 -75.5 -51t-30.5 -109
q0 -92 67 -92q50 0 84 51t34 111z" />
    <glyph glyph-name="registered.case" horiz-adv-x="890" 
d="M74 357q-2 105 51.5 196t145.5 144t197 51q105 2 197.5 -51t146 -144t51.5 -196q2 -104 -51.5 -195.5t-146 -144.5t-197.5 -51q-161 -3 -279 114.5t-115 276.5zM775 357q2 126 -88.5 218.5t-217.5 89.5q-127 3 -218 -89.5t-89 -218.5q-2 -126 88.5 -217.5t218.5 -89.5
q127 -2 217.5 89.5t88.5 217.5zM312 157v410h195q58 0 97 -28.5t39 -74.5q0 -84 -113 -96v-33q41 -1 62 -21t30 -65l17 -92h-90l-14 93q-7 42 -25.5 59t-57.5 17h-56v-169h-84zM396 390h90q71 0 71 56q0 55 -73 55h-88v-111z" />
    <glyph glyph-name="section.tnum" 
d="M52 -39l112 31q3 -43 26.5 -67t65.5 -24q41 0 67 23.5t26 58.5q0 25 -15 41.5t-50 29.5l-94 35q-70 26 -100.5 61t-30.5 85q0 54 38.5 91t112.5 43l9 44q-67 40 -67 115q0 73 63 130t153 57q94 0 147 -47t56 -124l-112 -29q-3 43 -26.5 67t-65.5 24q-40 0 -67 -24.5
t-27 -58.5q0 -48 60 -70l99 -38q133 -51 133 -140q0 -119 -154 -139l-9 -44q68 -42 68 -117t-59 -129t-156 -54q-94 0 -147 46.5t-56 122.5zM442 241q0 42 -60 66l-71 26l-40 17q-91 -31 -91 -81q0 -48 60 -70l68 -26q28 -10 41 -16q93 31 93 84z" />
    <glyph glyph-name="degree.tnum" 
d="M200 604q0 76 52 128t130 52q79 0 131 -52t52 -128t-52 -127t-132 -51q-78 0 -129.5 52t-51.5 126zM462 605q0 38 -22 61t-58 23q-34 0 -57 -23.5t-23 -60.5q0 -38 23 -62.5t57 -24.5q36 0 58 24t22 63z" />
    <glyph glyph-name="_642" horiz-adv-x="0" 
d="M-105 445l107 131h-67l28 125h128l-29 -132l-102 -124h-65z" />
    <glyph glyph-name="_647" horiz-adv-x="277" 
d="M174 813l82 129h142l-138 -129h-86zM69 659q0 54 37.5 91t94.5 37q48 0 81 -31.5t33 -79.5q0 -55 -37 -90t-94 -35q-49 0 -82 29.5t-33 78.5zM243 674q0 21 -13.5 34t-33.5 13q-23 0 -39 -16.5t-16 -40.5q0 -22 13 -34.5t35 -12.5q23 0 38.5 16t15.5 41z" />
    <glyph glyph-name="uni0327.ss04" horiz-adv-x="0" 
d="M-339 -181l47 56q29 -33 67 -33q44 0 44 29q0 10 -9.5 18t-24.5 8q-17 0 -27 -3l-25 45l93 77l62 -16l-30 -22q-23 -17 -70 -29l9 -30q20 10 43 10q30 0 50 -17.5t20 -46.5q0 -42 -34.5 -67t-92.5 -25q-82 0 -122 46z" />
    <glyph glyph-name="cedilla.ss04" horiz-adv-x="380" 
d="M-19 -181l47 57q32 -29 68 -29q46 0 46 27q0 10 -9.5 17t-26.5 7q-18 0 -28 -3l-25 44l93 77l61 -16l-36 -28l-30 -23l5 1q31 0 57.5 -21t26.5 -56q0 -46 -34.5 -73t-97.5 -27q-73 0 -117 46z" />
    <glyph glyph-name="_670" horiz-adv-x="0" 
d="M-293 566l26 113h130l-27 -113h-129zM-63 566l26 113h131l-27 -113h-130z" />
    <glyph glyph-name="_671" horiz-adv-x="0" 
d="M-80 566l27 125h128l-27 -125h-128z" />
    <glyph glyph-name="_672" horiz-adv-x="0" 
d="M-43 566l-92 148h152l19 -148h-79z" />
    <glyph glyph-name="_673" horiz-adv-x="0" 
d="M-104 566l91 148h156l-152 -148h-95z" />
    <glyph glyph-name="_674" horiz-adv-x="0" 
d="M-332 566l90 148h158l-153 -148h-95zM-138 566l90 148h157l-152 -148h-95z" />
    <glyph glyph-name="_675" horiz-adv-x="0" 
d="M-374 566l150 126h170l88 -126h-115l-65 72l-103 -72h-125z" />
    <glyph glyph-name="_676" horiz-adv-x="0" 
d="M27 692l-149 -126h-170l-88 126h114l66 -71l102 71h125z" />
    <glyph glyph-name="_677" horiz-adv-x="0" 
d="M-296 675q0 12 1 17h94v-6q0 -25 17.5 -40.5t50.5 -15.5q70 0 93 62h101q-17 -57 -62 -98q-47 -41 -136 -41q-74 0 -116.5 35t-42.5 87z" />
    <glyph glyph-name="_678" horiz-adv-x="0" 
d="M-172 660q0 57 39 95.5t99 38.5q52 0 86 -32.5t34 -83.5q0 -57 -39 -94.5t-99 -37.5q-51 0 -85.5 31.5t-34.5 82.5zM10 676q0 21 -14.5 35t-34.5 14q-24 0 -41 -17.5t-17 -42.5q0 -23 14 -36.5t37 -13.5q24 0 40 17t16 44z" />
    <glyph glyph-name="_679" horiz-adv-x="276" 
d="M174 802l82 129h142l-138 -129h-86zM69 648q0 54 37.5 91t94.5 37q48 0 81 -31.5t33 -79.5q0 -55 -37 -90t-94 -35q-49 0 -82 29.5t-33 78.5zM243 663q0 21 -13.5 34t-33.5 13q-23 0 -39 -16.5t-16 -40.5q0 -22 13 -34.5t35 -12.5q23 0 38.5 16t15.5 41z" />
    </font>
</defs>
</svg>
