<?xml version="1.0" standalone="no"?>
<!DOCTYPE svg PUBLIC "-//W3C//DTD SVG 1.1//EN" "http://www.w3.org/Graphics/SVG/1.1/DTD/svg11.dtd" >
<svg xmlns="http://www.w3.org/2000/svg" xmlns:xlink="http://www.w3.org/1999/xlink" version="1.1">
<metadata>
Created by FontForge 20170731 at Tue Mar 12 05:31:04 2019
 By Aleksey,,,
Copyright 2019 Dinamo (Johannes Breyer, Fabian Harb) &#38; Erkin Karamemet. All rights reserved.
</metadata>
<defs>
<font id="whyte-inktrap-heavy" horiz-adv-x="620" >
  <font-face 
    font-family="Whyte Inktrap Heavy"
    font-weight="900"
    font-stretch="normal"
    units-per-em="1000"
    panose-1="2 11 0 4 5 1 1 2 1 3"
    ascent="800"
    descent="-200"
    x-height="501"
    cap-height="700"
    bbox="-485 -353 1275 1144"
    underline-thickness="24"
    underline-position="-97"
    unicode-range="U+000D-FB02"
  />
<missing-glyph horiz-adv-x="704" 
d="M74 0v703h556v-703h-556zM221 114h262v475h-262v-475z" />
    <glyph glyph-name="fi" unicode="fi" horiz-adv-x="705" 
d="M468 711h183v-148h-183v148zM648 501v-501h-176v379h-191v-379h-172v379h-93v122h93v59q0 70 36.5 108t105.5 38h167v-126h-98q-39 0 -39 -39v-40h367z" />
    <glyph glyph-name="fl" unicode="fl" horiz-adv-x="703" 
d="M645 706v-706h-174v580h-151q-39 0 -39 -39v-40h115v-122h-115v-379h-172v379h-93v122h93v59q0 70 36.5 108t105.5 38h394z" />
    <glyph glyph-name="f_f" unicode="ff" horiz-adv-x="768" 
d="M642 541v-40h115v-122h-115v-379h-172v379h-189v-379h-172v379h-93v122h93v59q0 70 36.5 108t105.5 38h167v-126h-98q-39 0 -39 -39v-40h189v59q0 70 36.5 108t105.5 38h167v-126h-98q-39 0 -39 -39z" />
    <glyph glyph-name="f_f_i" unicode="ffi" horiz-adv-x="1064" 
d="M828 711h183v-148h-183v148zM1008 501v-501h-176v379h-190v-379h-172v379h-189v-379h-172v379h-93v122h93v59q0 70 36.5 108t105.5 38h167v-126h-98q-39 0 -39 -39v-40h189v59q0 70 36.5 108t105.5 38h167v-126h-98q-39 0 -39 -39v-40h366z" />
    <glyph glyph-name="f_f_l" unicode="ffl" horiz-adv-x="1070" 
d="M1012 700h1v-700h-175v580h-157q-39 0 -39 -39v-40h115v-122h-115v-379h-172v379h-189v-379h-172v379h-93v122h93v59q0 70 36.5 108t105.5 38h167v-126h-98q-39 0 -39 -39v-40h189v59q0 70 36.5 108t105.5 38h400v-6z" />
    <glyph glyph-name=".notdef" horiz-adv-x="704" 
d="M74 0v703h556v-703h-556zM221 114h262v475h-262v-475z" />
    <glyph glyph-name=".null" horiz-adv-x="0" 
 />
    <glyph glyph-name="nonmarkingreturn" horiz-adv-x="333" 
 />
    <glyph glyph-name="CR" unicode="&#xd;" horiz-adv-x="215" 
 />
    <glyph glyph-name="space" unicode=" " horiz-adv-x="215" 
 />
    <glyph glyph-name="exclam" unicode="!" horiz-adv-x="305" 
d="M106 259l-49 282v159h190v-159l-50 -282h-91zM55 0v176h194v-176h-194z" />
    <glyph glyph-name="quotedbl" unicode="&#x22;" horiz-adv-x="483" 
d="M82 347l-40 218v135h170v-135l-40 -218h-90zM311 347l-40 218v135h170v-135l-40 -218h-90z" />
    <glyph glyph-name="numbersign" unicode="#" horiz-adv-x="779" 
d="M115 0l7 38q16 79 85 148l-43 41q-28 -39 -53 -54t-60 -15h-20v131h143l27 123h-120v139h149l32 149h139l-6 -31q-17 -80 -84 -147l43 -41q27 39 54 54.5t69 15.5h14l32 149h138l-5 -30q-13 -76 -85 -148l43 -41q27 39 52.5 54.5t60.5 15.5h20v-139h-145l-26 -123h121
v-131h-150l-33 -158h-139l8 39q18 80 85 147l-44 41q-29 -40 -54 -54.5t-68 -14.5h-16l-34 -158h-137zM314 289h122l26 123h-122z" />
    <glyph glyph-name="dollar" unicode="$" horiz-adv-x="652" 
d="M280 -92v81q-104 12 -168.5 69t-81.5 143l158 47q7 -42 31 -73t61 -40v152l-18 4q-103 17 -151.5 67.5t-48.5 145.5q0 83 58.5 142t159.5 71v82h106v-82q89 -12 146 -62t75 -125l-148 -44q-20 72 -73 91v-149l25 -6q203 -45 203 -212q0 -89 -59 -148.5t-169 -71.5v-82
h-106zM280 448v25q0 75 45 110l-27 43q-80 -32 -80 -103q0 -55 62 -75zM455 192q0 61 -70 79v-24q0 -77 -45 -110l29 -45q86 32 86 100z" />
    <glyph glyph-name="percent" unicode="%" horiz-adv-x="913" 
d="M135 0l511 700h134l-508 -700h-137zM527 197q0 95 48 152t130 57t130.5 -57t48.5 -152t-48.5 -151t-130.5 -56t-130 56t-48 151zM753 198q0 110 -48 110q-47 0 -47 -110q0 -108 47 -108q48 0 48 108zM30 500q0 95 48 152t130 57t130.5 -57t48.5 -152t-48.5 -151
t-130.5 -56t-130 56t-48 151zM256 501q0 110 -48 110q-47 0 -47 -110q0 -108 47 -108q48 0 48 108z" />
    <glyph glyph-name="ampersand" unicode="&#x26;" horiz-adv-x="732" 
d="M29 188q0 64 33 110t101 84q-37 74 -37 143q0 85 61.5 138.5t157.5 53.5q94 0 149.5 -47t55.5 -110q0 -75 -59.5 -124.5t-168.5 -49.5h-15v-56q46 0 133 -66q38 -29 51 -38q39 56 62 137l133 -54q-28 -89 -69 -153q61 -29 115 -46l-45 -125q-77 22 -165 67
q-94 -69 -217 -69q-130 0 -203 55t-73 150zM287 439l23 11q90 38 90 91q0 24 -15.5 38.5t-42.5 14.5q-31 0 -52 -21t-21 -54q0 -37 18 -80zM423 120v51q-49 0 -79 10.5t-59 39.5t-52 57q-43 -28 -43 -73q0 -46 34 -74.5t93 -28.5q67 0 106 18z" />
    <glyph glyph-name="quotesingle" unicode="'" horiz-adv-x="255" 
d="M82 347l-40 218v135h170v-135l-40 -218h-90z" />
    <glyph glyph-name="parenleft" unicode="(" horiz-adv-x="358" 
d="M34 303q0 90 16.5 169t50.5 145.5t94 106t139 41.5v-141q-86 -14 -117 -103q-30 -90 -30 -223q0 -129 31 -216q32 -89 116 -102v-140q-79 4 -139 44t-94 106t-50.5 144.5t-16.5 168.5z" />
    <glyph glyph-name="parenright" unicode=")" horiz-adv-x="358" 
d="M324 303q0 -117 -29 -222q-28 -101 -96 -169t-175 -72v141q86 14 116 103q31 90 31 223q0 129 -31 216q-32 89 -116 102v140q79 -4 138.5 -44t94 -105.5t51 -144t16.5 -168.5z" />
    <glyph glyph-name="asterisk" unicode="*" horiz-adv-x="569" 
d="M215 349l-115 65l25 34q34 49 104 78l-28 50q-67 -49 -124 -49l-41 -1v127l143 -10l-77 113l117 65l19 -34q21 -39 21 -102q0 -24 -1 -31h56q-1 14 -1 40q0 55 17 89l20 38l115 -65l-80 -113l147 10v-128l-46 1q-54 0 -121 49l-27 -50q69 -28 103 -76l25 -36l-121 -62
l-64 125z" />
    <glyph glyph-name="plus" unicode="+" horiz-adv-x="597" 
d="M228 85v200h-197v136h197v200h141v-200h197v-136h-197v-200h-141z" />
    <glyph glyph-name="comma" unicode="," horiz-adv-x="301" 
d="M53 -175l108 175h-106v177h192v-177l-107 -175h-87z" />
    <glyph glyph-name="hyphen" unicode="-" horiz-adv-x="491" 
d="M53 245v147h385v-147h-385z" />
    <glyph glyph-name="period" unicode="." horiz-adv-x="296" 
d="M52 0v177h193v-177h-193z" />
    <glyph glyph-name="slash" unicode="/" horiz-adv-x="462" 
d="M20 -96l269 896h153l-269 -896h-153z" />
    <glyph glyph-name="zero" unicode="0" horiz-adv-x="690" 
d="M40 347q0 170 84 270t220 100q138 0 222 -100t84 -270t-84 -267t-222 -97t-221 97t-83 267zM458 350q0 219 -114 219q-112 0 -112 -219t112 -219q114 0 114 219z" />
    <glyph glyph-name="one" unicode="1" horiz-adv-x="465" 
d="M214 0v371q0 100 37 168h-66q-24 -81 -60.5 -123t-101.5 -45v182q158 12 210 147h157v-700h-176z" />
    <glyph glyph-name="two" unicode="2" horiz-adv-x="628" 
d="M48 0v179q142 71 218.5 122.5t103 90t28.5 85.5q0 42 -24 67.5t-63 25.5q-96 0 -98 -136l-174 25q-1 103 71.5 181t205.5 77q120 0 192.5 -61t72.5 -161q0 -93 -65 -167q-28 -31 -71 -59q-48 -30 -91 -50l-125 -57l-49 -22l28 -58q101 65 225 65h149v-147h-534z" />
    <glyph glyph-name="three" unicode="3" horiz-adv-x="624" 
d="M22 194l179 38q14 -104 106 -104q44 0 69 21.5t25 58.5q0 36 -25.5 58t-69.5 22h-73v131h71q38 0 63 21t25 56q0 33 -24 54t-60 21q-38 0 -61 -23.5t-27 -67.5l-174 29q9 91 80.5 149.5t184.5 58.5q112 0 183 -51.5t71 -126.5q0 -72 -50.5 -110t-142.5 -40v-59
q101 -3 156 -45.5t55 -110.5q0 -89 -71.5 -140t-199.5 -51q-124 0 -198.5 54.5t-91.5 156.5z" />
    <glyph glyph-name="four" unicode="4" horiz-adv-x="666" 
d="M363 0v152h-342v147l268 401h243v-410h103v-138h-103v-152h-169zM363 290v63q0 103 53 180l-52 32l-3 -4l-189 -281l-5 -9l48 -34q22 28 44 40.5t63 12.5h41z" />
    <glyph glyph-name="five" unicode="5" horiz-adv-x="621" 
d="M31 176l163 43q26 -91 110 -91q44 0 70.5 26.5t26.5 74.5q0 47 -27.5 73.5t-69.5 26.5q-62 0 -91 -55l-163 29l57 397h449v-148h-323l-8 -55q-8 -55 -22.5 -84t-43.5 -61h73q43 91 147 91q83 0 143.5 -57.5t60.5 -161.5q0 -112 -71 -176.5t-202 -64.5q-113 0 -186.5 54
t-92.5 139z" />
    <glyph glyph-name="six" unicode="6" horiz-adv-x="644" 
d="M39 323q0 187 97 290.5t255 103.5q100 0 171 -30v-154q-78 31 -156 31q-98 0 -160 -57.5t-69 -167.5h56q13 58 54.5 90t106.5 32q87 0 151 -60t64 -165q0 -117 -77 -185t-193 -68q-96 -1 -166 48t-102.5 125.5t-31.5 166.5zM433 234q0 46 -29 74.5t-73 28.5
q-48 0 -74.5 -27.5t-26.5 -75.5q0 -47 28.5 -76t72.5 -29q43 0 72.5 29.5t29.5 75.5z" />
    <glyph glyph-name="seven" unicode="7" horiz-adv-x="555" 
d="M426 556l15 9l-33 53q-80 -66 -201 -66h-187v148h517v-186q-121 -81 -182.5 -217t-59.5 -297h-192q-1 200 98 336q98 136 225 220z" />
    <glyph glyph-name="eight" unicode="8" horiz-adv-x="642" 
d="M40 174q0 72 56 112.5t145 43.5v59q-87 5 -135 41.5t-48 104.5q0 75 72 128t191 53q121 0 192.5 -52.5t71.5 -128.5q0 -135 -182 -146v-59q93 -4 146 -43.5t53 -112.5q0 -85 -77 -138t-204 -53t-204 52.5t-77 138.5zM415 500q0 35 -26.5 57.5t-67.5 22.5t-67 -22t-26 -58
q0 -39 25 -60.5t68 -21.5t68.5 22t25.5 60zM422 214q0 39 -28 62.5t-74 23.5t-73 -23.5t-27 -62.5q0 -40 27 -63.5t73 -23.5q47 0 74.5 23.5t27.5 63.5z" />
    <glyph glyph-name="nine" unicode="9" horiz-adv-x="641" 
d="M73 12v155q81 -32 165 -32q108 0 167 81q42 58 44 134h-56q-17 -52 -58 -80t-98 -28q-83 0 -142 58.5t-59 163.5q0 116 76 184.5t190 68.5q116 0 201 -79q98 -86 98 -262q0 -189 -93.5 -291t-262.5 -102q-97 0 -172 29zM408 468q0 45 -28 73.5t-70 28.5q-41 0 -70 -29
t-29 -73t29 -72.5t70 -28.5q42 0 70 28.5t28 72.5z" />
    <glyph glyph-name="colon" unicode=":" horiz-adv-x="298" 
d="M52 341v177h193v-177h-193zM52 0v177h193v-177h-193z" />
    <glyph glyph-name="semicolon" unicode=";" horiz-adv-x="300" 
d="M54 341v177h193v-177h-193zM53 -175l108 175h-106v177h192v-177l-107 -175h-87z" />
    <glyph glyph-name="less" unicode="&#x3c;" horiz-adv-x="629" 
d="M570 621v-150l-170 -52q-134 -39 -264 -43v-56q126 -4 263 -43l171 -51v-153l-535 165v218z" />
    <glyph glyph-name="equal" unicode="=" horiz-adv-x="643" 
d="M57 401v134h529v-134h-529zM57 165v133h529v-133h-529z" />
    <glyph glyph-name="greater" unicode="&#x3e;" horiz-adv-x="628" 
d="M59 73v150l170 52q130 38 263 42v57q-122 1 -263 43l-170 51v153l535 -165v-218z" />
    <glyph glyph-name="question" unicode="?" horiz-adv-x="588" 
d="M296 428q38 25 53.5 43t15.5 44q0 28 -20 45.5t-53 17.5q-83 0 -87 -108l-179 26q3 97 73.5 158.5t198.5 61.5q125 0 190.5 -51t65.5 -129q-2 -60 -29.5 -96.5t-88.5 -77.5q-40 -25 -56 -48t-16 -55h-161q0 65 19.5 99.5t73.5 69.5zM188 0v176h193v-176h-193z" />
    <glyph glyph-name="at" unicode="@" horiz-adv-x="951" 
d="M30 285q-2 129 64 230t172 152.5t228 49.5q123 1 224.5 -45.5t161.5 -134.5t58 -198q0 -120 -65.5 -193t-151.5 -73q-55 0 -87 28.5t-37 72.5h-41q-32 -101 -130 -101q-65 0 -106.5 62t-41.5 154q0 87 41.5 145.5t107.5 58.5q95 0 129 -101h49q-22 42 -24 89h105v-258
q0 -36 33 -36q34 0 57 39.5t23 112.5q0 118 -83.5 188t-223.5 70q-141 0 -230.5 -82t-89.5 -229q0 -151 86 -231.5t242 -80.5q145 0 263 58l52 -111q-133 -67 -313 -67q-217 0 -344.5 114t-127.5 317zM557 290q0 46 -18.5 73.5t-51.5 27.5t-51.5 -27.5t-18.5 -74.5
q0 -48 18.5 -77t51.5 -29t51.5 29.5t18.5 77.5z" />
    <glyph glyph-name="A" unicode="A" horiz-adv-x="758" 
d="M552 0l-47 146h-262l-49 -146h-194l254 700h250l253 -700h-205zM290 290h169l-33 104q-18 62 -18 172v38h-63v-26q0 -120 -20 -184z" />
    <glyph glyph-name="B" unicode="B" horiz-adv-x="716" 
d="M72 0v700h355q110 0 170 -43.5t60 -113.5q0 -69 -50 -107t-141 -40v-60q102 -1 158.5 -41t56.5 -117q0 -82 -69 -130t-189 -48h-351zM256 424h133q89 0 89 67q0 66 -89 66h-133v-133zM256 144h135q47 0 73.5 19t26.5 55q0 75 -100 75h-135v-149z" />
    <glyph glyph-name="C" unicode="C" horiz-adv-x="772" 
d="M35 348q-2 157 104.5 264t270.5 105q128 0 219.5 -61t121.5 -163l-181 -62q-40 135 -163 135q-80 0 -125.5 -57.5t-45.5 -159.5q0 -100 45.5 -157t125.5 -57q121 0 166 135l179 -65q-37 -103 -126.5 -162.5t-217.5 -59.5q-168 0 -270.5 101t-102.5 264z" />
    <glyph glyph-name="D" unicode="D" horiz-adv-x="769" 
d="M72 0v700h284q166 0 271 -94t105 -252q3 -158 -105 -257t-266 -97h-289zM260 150h88q93 0 140.5 52t47.5 151q0 90 -48 144t-136 54h-92v-401z" />
    <glyph glyph-name="E" unicode="E" horiz-adv-x="658" 
d="M72 0v700h542v-149h-357v-124h276v-139h-276v-139h357v-149h-542z" />
    <glyph glyph-name="F" unicode="F" horiz-adv-x="646" 
d="M72 0v700h549v-151h-363v-156h294v-146h-294v-247h-186z" />
    <glyph glyph-name="G" unicode="G" horiz-adv-x="805" 
d="M36 346q-2 158 106.5 266t274.5 105q140 0 226 -59.5t116 -151.5l-183 -65q-44 125 -162 125q-81 0 -131 -59.5t-50 -162.5q0 -104 50 -162t130 -58q65 0 105.5 31t50.5 76h-193v140h378v-371h-168q0 63 50 141h-71q-60 -158 -215 -158q-130 -2 -223 97.5t-91 265.5z" />
    <glyph glyph-name="H" unicode="H" horiz-adv-x="778" 
d="M72 0v700h190v-265h254v265h190v-700h-190v284h-254v-284h-190z" />
    <glyph glyph-name="I" unicode="I" horiz-adv-x="334" 
d="M72 0v700h190v-700h-190z" />
    <glyph glyph-name="J" unicode="J" horiz-adv-x="597" 
d="M9 254l182 44q-1 -87 17.5 -127.5t64.5 -40.5q38 0 54.5 27t16.5 84v459h188v-427q0 -147 -60 -218.5t-190 -71.5q-132 0 -201 71.5t-72 199.5z" />
    <glyph glyph-name="K" unicode="K" horiz-adv-x="743" 
d="M530 0l-198 299l-75 -79v-220h-185v700h185v-81q0 -64 -21 -107.5t-61 -80.5l44 -44l274 313h237l-266 -279l296 -421h-230z" />
    <glyph glyph-name="L" unicode="L" horiz-adv-x="630" 
d="M72 0v700h190v-547h357v-153h-547z" />
    <glyph glyph-name="M" unicode="M" horiz-adv-x="1008" 
d="M72 0v700h296l86 -270q14 -48 18 -114q5 -73 5 -182h62q0 204 26 296l87 270h285v-700h-184v203q0 176 83 392l-64 22l-192 -617h-153l-191 616l-64 -21q82 -212 82 -392v-203h-182z" />
    <glyph glyph-name="N" unicode="N" horiz-adv-x="846" 
d="M72 0v700h265l288 -512l54 35q-48 74 -68 133.5t-20 139.5v204h183v-700h-216l-339 604l-54 -33q90 -149 90 -299v-272h-183z" />
    <glyph glyph-name="O" unicode="O" horiz-adv-x="841" 
d="M36 347q0 162 102 266t282 104q180 2 283.5 -104t101.5 -266q0 -161 -101 -262.5t-284 -101.5q-182 0 -283 101.5t-101 262.5zM605 348q0 99 -49 158.5t-135 59.5t-135.5 -60t-49.5 -158q0 -97 49 -155.5t136 -58.5q86 0 135 58.5t49 155.5z" />
    <glyph glyph-name="P" unicode="P" horiz-adv-x="687" 
d="M72 0v700h334q114 0 187.5 -64t73.5 -170q0 -107 -73.5 -171t-186.5 -64h-149v-231h-186zM258 375h114q47 0 75.5 24.5t28.5 65.5q0 40 -28.5 63.5t-75.5 23.5h-114v-177z" />
    <glyph glyph-name="Q" unicode="Q" horiz-adv-x="852" 
d="M36 347q0 162 102 266t282 104t282 -103.5t102 -259.5q0 -127 -64 -216q33 -17 94 -17v-137q-77 0 -118 28.5t-55 91.5h-50q-23 -48 -81.5 -84.5t-137.5 -36.5q-165 0 -260.5 102.5t-95.5 261.5zM514 156l-19 22q-34 38 -67 54.5t-79 14.5v135q23 3 36 3q84 0 126 -50
q42 -45 37 -118h55q21 59 21 131q0 95 -53 157.5t-149 62.5q-89 0 -140 -60t-51 -159t50.5 -158.5t139.5 -59.5q53 0 93 25z" />
    <glyph glyph-name="R" unicode="R" horiz-adv-x="739" 
d="M72 0v700h369q115 0 180.5 -49t65.5 -132q0 -68 -36 -104q-33 -33 -79 -45t-116 -15v-59q105 -2 153.5 -31t64.5 -113l31 -152h-200l-27 162q-7 52 -33 74t-79 22h-108v-258h-186zM258 394h139q44 0 70 21t26 59t-25.5 58.5t-70.5 20.5h-139v-159z" />
    <glyph glyph-name="S" unicode="S" horiz-adv-x="708" 
d="M22 199l185 48q10 -54 48.5 -88.5t101.5 -34.5q58 0 87.5 20.5t29.5 55.5q0 59 -95 73l-87 11q-119 15 -177 66.5t-58 147.5q0 95 80.5 157t215.5 62q129 0 208.5 -52.5t103.5 -139.5l-184 -47q-31 99 -132 99q-50 0 -75.5 -20t-25.5 -52q0 -56 82 -66l87 -11
q122 -15 188 -71t66 -148q0 -101 -82 -163.5t-234 -62.5q-142 0 -227.5 59t-105.5 157z" />
    <glyph glyph-name="T" unicode="T" horiz-adv-x="665" 
d="M237 0v556h-226v144h643v-144h-227v-556h-190z" />
    <glyph glyph-name="U" unicode="U" horiz-adv-x="781" 
d="M64 285v415h189v-390q0 -170 137 -170t137 170v390h189v-415q0 -145 -86.5 -223.5t-239.5 -78.5q-155 0 -240.5 78.5t-85.5 223.5z" />
    <glyph glyph-name="V" unicode="V" horiz-adv-x="762" 
d="M246 0l-242 700h212l101 -332q35 -119 35 -252h63q-1 132 35 252l102 332h205l-240 -700h-271z" />
    <glyph glyph-name="W" unicode="W" horiz-adv-x="1080" 
d="M193 0l-182 700h204l44 -204q21 -103 21 -287q0 -49 -1 -62h64v42q0 130 25 260l63 251h225l64 -250q26 -120 26 -267v-36h64l-1 63q0 187 20 282l44 208h193l-176 -700h-220l-69 278q-23 97 -23 246v39h-64v-41q0 -142 -24 -244l-72 -278h-225z" />
    <glyph glyph-name="X" unicode="X" horiz-adv-x="744" 
d="M-12 0l269 372l-243 328h231l47 -65q47 -68 47 -187q0 -25 -1 -32h64q1 69 13.5 116.5t44.5 94.5l50 73h216l-234 -330l265 -370h-233l-68 104q-49 74 -49 188v27h-63q-1 -118 -66 -216l-70 -103h-220z" />
    <glyph glyph-name="Y" unicode="Y" horiz-adv-x="697" 
d="M254 0v273l-252 427h209l62 -110q32 -58 40.5 -104.5t8.5 -127.5h62q0 74 11 127.5t41 110.5l55 104h202l-249 -427v-273h-190z" />
    <glyph glyph-name="Z" unicode="Z" horiz-adv-x="668" 
d="M40 0v189l429 403l-43 46q-81 -87 -192 -87h-186v149h568v-188l-428 -402l43 -48q85 93 204 93h200v-155h-595z" />
    <glyph glyph-name="bracketleft" unicode="[" horiz-adv-x="374" 
d="M68 -150v905h283v-125h-126v-655h126v-125h-283z" />
    <glyph glyph-name="backslash" unicode="\" horiz-adv-x="465" 
d="M290 -96l-269 896h155l269 -896h-155z" />
    <glyph glyph-name="bracketright" unicode="]" horiz-adv-x="374" 
d="M305 755v-905h-282v125h125v655h-125v125h282z" />
    <glyph glyph-name="asciicircum" unicode="^" horiz-adv-x="604" 
d="M29 329l195 371h160l192 -371h-169l-42 88q-34 71 -34 193h-57q-2 -118 -38 -192l-43 -89h-164z" />
    <glyph glyph-name="underscore" unicode="_" horiz-adv-x="647" 
d="M37 -178v126h573v-126h-573z" />
    <glyph glyph-name="grave" unicode="`" horiz-adv-x="335" 
d="M169 566l-117 154h182l50 -154h-115z" />
    <glyph glyph-name="a" unicode="a" horiz-adv-x="595" 
d="M34 130q0 170 319 194v18q0 62 -72 62q-75 0 -92 -71l-162 27q9 69 78 113.5t180 44.5q114 0 175 -51t61 -147v-165q0 -18 5 -24t23 -6h39v-125h-79q-62 0 -84 23.5t-24 80.5h-52q-35 -121 -159 -121q-69 0 -112.5 40t-43.5 107zM353 203v30q-74 -7 -111 -27t-37 -58
q0 -48 56 -48q40 0 66 27t26 76z" />
    <glyph glyph-name="b" unicode="b" horiz-adv-x="636" 
d="M247 101h-68q38 -59 38 -101h-159v700h173v-112q0 -67 -12.5 -107t-38.5 -81h68q43 118 160 118q87 0 142 -74t55 -193t-54.5 -193t-142.5 -74q-62 0 -99 29.5t-62 87.5zM423 251q0 145 -98 145q-47 0 -73 -37t-26 -108q0 -70 26.5 -107.5t72.5 -37.5q98 0 98 145z" />
    <glyph glyph-name="c" unicode="c" horiz-adv-x="583" 
d="M29 250q0 119 78 193.5t198 74.5q96 0 164 -45t91 -119l-164 -48q-23 87 -95 87q-46 0 -72.5 -36.5t-26.5 -104.5q0 -67 27.5 -105t72.5 -38q72 0 98 92l167 -41q-26 -84 -95 -130.5t-168 -46.5q-123 0 -199 73.5t-76 193.5z" />
    <glyph glyph-name="d" unicode="d" horiz-adv-x="637" 
d="M31 251q0 119 55 193t141 74q114 0 160 -118h68q-26 42 -38 83t-12 105v112h174v-700h-160q0 44 38 101h-68q-49 -117 -162 -117q-88 0 -142 74t-54 193zM410 251q0 71 -26 108t-73 37q-98 0 -98 -145t98 -145q46 0 72.5 37.5t26.5 107.5z" />
    <glyph glyph-name="e" unicode="e" horiz-adv-x="586" 
d="M30 252q0 117 75 191.5t190 74.5q122 0 190.5 -72.5t68.5 -191.5q0 -16 -2 -40h-349q4 -109 93 -109q68 0 101 78l159 -51q-67 -149 -260 -149q-124 0 -195 72t-71 197zM207 314h175q-3 42 -25.5 65.5t-60.5 23.5q-81 0 -89 -89z" />
    <glyph glyph-name="f" unicode="f" horiz-adv-x="407" 
d="M109 0v379h-93v122h93v59q0 70 36.5 108t105.5 38h167v-126h-98q-39 0 -39 -39v-40h115v-122h-115v-379h-172z" />
    <glyph glyph-name="g" unicode="g" horiz-adv-x="643" 
d="M19 -105q0 30 21.5 52.5t57.5 31.5v51q-69 12 -69 66q0 69 93 89v51q-62 35 -62 104q0 78 63.5 128t152.5 50q77 0 129 -29t70 -86h48q3 53 21.5 75.5t57.5 22.5h29v-126h-66q-21 0 -29.5 -9.5t-12.5 -40.5l-3 -12q-11 -70 -70 -114t-153 -44q-66 0 -111 20
q-30 -11 -30 -33q0 -15 11 -20.5t36 -5.5h225q83 0 133 -44t50 -109q0 -72 -50.5 -115t-131.5 -43h-284q-126 0 -126 90zM369 332q0 39 -20.5 61.5t-54.5 22.5q-33 0 -53 -22.5t-20 -61.5t19.5 -60t53.5 -21t54.5 21.5t20.5 59.5zM200 -80h192q52 0 52 41q0 39 -52 39h-218
q-21 -14 -21 -39q0 -19 12.5 -30t34.5 -11z" />
    <glyph glyph-name="h" unicode="h" horiz-adv-x="612" 
d="M58 0v700h172v-102q0 -127 -59 -212h69q19 62 57 97t94 35q78 0 123 -49t45 -136v-333h-177v303q0 79 -68 79q-80 0 -80 -124v-258h-176z" />
    <glyph glyph-name="i" unicode="i" horiz-adv-x="291" 
d="M54 563v148h182v-148h-182zM57 0v501h177v-501h-177z" />
    <glyph glyph-name="j" unicode="j" horiz-adv-x="296" 
d="M60 564v146h181v-146h-181zM-38 -195v129h67q37 0 37 41v526h172v-545q0 -70 -38 -110.5t-107 -40.5h-131z" />
    <glyph glyph-name="k" unicode="k" horiz-adv-x="636" 
d="M439 0l-144 202l-65 -62v-140h-172v700h172v-196q0 -73 -21 -113t-66 -74l41 -45l232 229h210l-206 -192l232 -309h-213z" />
    <glyph glyph-name="l" unicode="l" horiz-adv-x="290" 
d="M58 0v700h174v-700h-174z" />
    <glyph glyph-name="m" unicode="m" horiz-adv-x="914" 
d="M58 0v501h154q0 -52 -39 -104h70q27 121 131 121q49 0 84 -31.5t43 -89.5h54q17 59 55 90t91 31q70 0 115 -49.5t45 -137.5v-331h-176v303q0 79 -65 79q-75 0 -75 -112v-270h-171v303q0 79 -66 79q-75 0 -75 -112v-270h-175z" />
    <glyph glyph-name="n" unicode="n" horiz-adv-x="612" 
d="M58 0v501h159q-1 -49 -46 -115h69q19 62 57.5 97t94.5 35q78 0 122.5 -49t44.5 -136v-333h-176v303q0 79 -68 79q-49 0 -65 -37q-16 -35 -16 -87v-258h-176z" />
    <glyph glyph-name="o" unicode="o" horiz-adv-x="616" 
d="M29 250q0 121 77 194.5t201 73.5t201.5 -73.5t77.5 -194.5t-77 -194t-202 -73q-123 0 -200.5 75t-77.5 192zM402 250q0 70 -24.5 106t-69.5 36q-95 0 -95 -142q0 -141 95 -141q94 0 94 141z" />
    <glyph glyph-name="p" unicode="p" horiz-adv-x="637" 
d="M58 -195v696h160q-1 -45 -38 -100h68q25 57 62.5 87t97.5 30q89 0 143.5 -74t54.5 -194q0 -118 -55 -192t-143 -74q-112 0 -158 118h-68q26 -42 38 -83.5t12 -105.5v-108h-174zM423 251q0 145 -97 145q-47 0 -73 -37t-26 -108q0 -70 26.5 -107.5t72.5 -37.5q97 0 97 145z
" />
    <glyph glyph-name="q" unicode="q" horiz-adv-x="637" 
d="M405 -195v108q0 64 12 105.5t38 83.5h-68q-47 -119 -158 -119q-88 0 -143 74.5t-55 192.5q0 120 54.5 194.5t143.5 74.5q110 0 160 -118h68q-38 57 -38 100h160v-696h-174zM410 251q0 71 -26.5 108t-72.5 37q-98 0 -98 -145q0 -73 26 -109.5t72 -36.5t72.5 38t26.5 108z
" />
    <glyph glyph-name="r" unicode="r" horiz-adv-x="454" 
d="M58 0v501h156q0 -85 -41 -157h69q14 88 51.5 129t105.5 41q27 0 40 -3v-169q-38 5 -64 5q-75 0 -108 -36.5t-33 -122.5v-188h-176z" />
    <glyph glyph-name="s" unicode="s" horiz-adv-x="545" 
d="M20 135l160 33q2 -25 25 -49t71 -24q32 0 50 12t18 32q0 36 -59 48l-66 12q-93 17 -135 52.5t-42 104.5q0 72 61 117t168 45q98 0 155.5 -36.5t73.5 -88.5l-151 -45q-9 29 -32 46t-55 17q-29 0 -44.5 -11.5t-15.5 -30.5q0 -18 14.5 -27.5t51.5 -16.5l71 -12
q180 -32 180 -160q0 -78 -65 -123t-184 -45q-106 0 -171 42t-79 108z" />
    <glyph glyph-name="t" unicode="t" horiz-adv-x="448" 
d="M113 144v235h-101v122h101v155h173v-155h120v-122h-120v-208q0 -39 39 -39h105v-132h-176q-68 0 -104.5 37.5t-36.5 106.5z" />
    <glyph glyph-name="u" unicode="u" horiz-adv-x="607" 
d="M53 165v336h176v-302q0 -39 17 -59.5t48 -20.5q39 0 60 32t21 86v264h174v-501h-160q0 46 42 112h-67q-44 -128 -157 -128q-71 0 -112.5 47.5t-41.5 133.5z" />
    <glyph glyph-name="v" unicode="v" horiz-adv-x="589" 
d="M187 0l-185 501h184l54 -168q18 -59 24 -111q6 -53 6 -130h59q0 73 5 131q6 57 22 109l52 169h175l-176 -501h-220z" />
    <glyph glyph-name="w" unicode="w" horiz-adv-x="869" 
d="M150 0l-142 501h172l26 -114q13 -65 16 -123q3 -38 5 -149v-17h59q0 92 3 145q3 54 15 109l35 149h193l35 -148q11 -55 16 -115q5 -62 5 -140h59v33q0 91 3 143q5 54 18 124l24 103h169l-142 -501h-206l-30 123q-12 50 -17 122q-3 47 -5 168h-62q0 -204 -20 -289
l-30 -124h-199z" />
    <glyph glyph-name="x" unicode="x" horiz-adv-x="588" 
d="M-3 0l192 263l-182 238h203l22 -34q28 -47 28 -129q0 -26 -1 -33h59q0 51 9.5 85.5t34.5 73.5l26 37h191l-185 -244l200 -257h-207l-32 53q-31 53 -31 133q0 20 1 25h-59q0 -81 -49 -159l-32 -52h-188z" />
    <glyph glyph-name="y" unicode="y" horiz-adv-x="581" 
d="M404 501h172l-199 -555q-28 -76 -68.5 -108.5t-116.5 -32.5h-156v132h137q24 0 36 10.5t21 39.5l8 22l-250 492h188l67 -157q32 -73 32 -197v-21h59v30q0 125 22 197z" />
    <glyph glyph-name="z" unicode="z" horiz-adv-x="511" 
d="M34 0v154l271 247l-38 44q-34 -34 -66.5 -52.5t-81.5 -19.5h-72v128h421v-135l-292 -266l38 -44q40 37 77.5 56t96.5 20h92v-132h-446z" />
    <glyph glyph-name="braceleft" unicode="{" horiz-adv-x="383" 
d="M104 15v149q0 44 -18.5 60.5t-62.5 16.5v123q45 0 63 13.5t18 55.5v157q0 90 35.5 127.5t125.5 37.5h95v-118h-41q-34 0 -48 -14t-14 -50v-119q0 -65 -33.5 -92.5t-108.5 -28.5v-57q74 -1 108 -29.5t34 -93.5v-120q0 -38 14 -51.5t48 -13.5h41v-118h-95
q-90 0 -125.5 37.5t-35.5 127.5z" />
    <glyph glyph-name="bar" unicode="|" horiz-adv-x="291" 
d="M68 -96v896h154v-896h-154z" />
    <glyph glyph-name="braceright" unicode="}" horiz-adv-x="383" 
d="M280 590v-149q0 -44 18 -60.5t62 -16.5v-123q-45 0 -62.5 -13.5t-17.5 -55.5v-157q0 -90 -35.5 -127.5t-125.5 -37.5h-96v118h41q35 0 48.5 13.5t13.5 50.5v119q0 65 33.5 92.5t108.5 27.5v58q-74 1 -108 29.5t-34 93.5v120q0 38 -13.5 51.5t-48.5 13.5h-41v118h96
q90 0 125.5 -37.5t35.5 -127.5z" />
    <glyph glyph-name="asciitilde" unicode="~" horiz-adv-x="651" 
d="M328 276l-38 22q-33 20 -62 20q-54 0 -86 -59l-106 75q26 62 73.5 96t107.5 34q53 0 111 -32l38 -21q33 -18 59 -18q51 0 86 61l106 -77q-26 -62 -74 -95.5t-108 -33.5q-55 0 -107 28z" />
    <glyph glyph-name="uni00A0" unicode="&#xa0;" horiz-adv-x="215" 
 />
    <glyph glyph-name="exclamdown" unicode="&#xa1;" horiz-adv-x="305" 
d="M249 600v-177h-194v177h194zM198 341l49 -282v-160h-189v160l49 282h91z" />
    <glyph glyph-name="cent" unicode="&#xa2;" horiz-adv-x="601" 
d="M259 -115v102q-101 15 -161.5 86t-60.5 177q0 107 62.5 177.5t159.5 86.5v110h98v-109q80 -10 136 -54t74 -108l-150 -46q-20 58 -60 74v-127q0 -84 -44 -125l36 -37q52 33 69 108l156 -40q-22 -72 -78.5 -118t-138.5 -56v-101h-98zM259 125v119q0 89 44 129l-35 39
q-75 -54 -75 -153q0 -101 66 -134z" />
    <glyph glyph-name="sterling" unicode="&#xa3;" horiz-adv-x="621" 
d="M415 147h170v-147h-537v151q52 8 91 39.5t39 74.5q0 8 -2 24h-127v103h64q-40 56 -40 119q0 93 72.5 149.5t176.5 56.5q102 0 173 -51.5t85 -149.5l-176 -39q-5 48 -27 73t-56 25t-55 -19.5t-21 -54.5q0 -42 46 -109h156v-103h-121v-3q0 -50 -37 -85.5t-116 -66.5l31 -58
q95 71 211 71z" />
    <glyph glyph-name="currency" unicode="&#xa4;" horiz-adv-x="660" 
d="M146 64l-105 105l76 75q-28 53 -28 109q0 57 25 104l-74 74l106 105l76 -75q49 25 108 25t107 -25l77 76l106 -104l-77 -76q26 -47 26 -104q0 -55 -27 -108l78 -77l-106 -105l-80 80q-50 -24 -104 -24t-105 23zM419 352q0 39 -25 66.5t-64 27.5q-40 0 -65.5 -27.5
t-25.5 -66.5q0 -38 26 -65.5t65 -27.5t64 27.5t25 65.5z" />
    <glyph glyph-name="yen" unicode="&#xa5;" horiz-adv-x="742" 
d="M718 700l-187 -296h105v-102h-169v-62h169v-98h-169v-142h-190v142h-169v98h169v62h-169v102h104l-189 296h210l63 -110q30 -59 38.5 -105t8.5 -127h63q0 78 10.5 131.5t39.5 107.5l57 103h205z" />
    <glyph glyph-name="brokenbar" unicode="&#xa6;" horiz-adv-x="291" 
d="M68 423v377h154v-377h-154zM68 -96v375h154v-375h-154z" />
    <glyph glyph-name="section" unicode="&#xa7;" horiz-adv-x="672" 
d="M70 -24l169 32q16 -79 92 -79q36 0 56 16t20 41q0 45 -60 61l-160 48q-83 25 -119 55t-36 81q0 53 39.5 87.5t116.5 41.5v56q-99 32 -99 122q0 74 68.5 126.5t177.5 52.5q106 0 171 -48t77 -127l-165 -35q-18 77 -88 77q-31 0 -50 -16.5t-19 -41.5q0 -22 14 -36.5
t53 -25.5l159 -46q155 -44 155 -138q0 -53 -40.5 -86t-121.5 -39v-55q106 -36 106 -132q0 -79 -69.5 -128t-185.5 -49q-114 0 -180.5 49.5t-80.5 135.5zM467 230q0 41 -55 58l-115 37l-42 13q-54 -25 -54 -58q0 -38 59 -56l108 -35q18 -5 47 -15q52 25 52 56z" />
    <glyph glyph-name="dieresis" unicode="&#xa8;" horiz-adv-x="491" 
d="M70 572v132h155v-132h-155zM303 572v132h155v-132h-155z" />
    <glyph glyph-name="copyright" unicode="&#xa9;" horiz-adv-x="890" 
d="M35 351q-3 165 119 285.5t289 117.5q168 3 291.5 -117.5t120.5 -285.5q2 -108 -54 -203t-152 -149.5t-206 -52.5q-109 -2 -204 52.5t-150.5 149.5t-53.5 203zM741 351q2 125 -84 213t-212 86q-126 2 -212 -86t-84 -213q-2 -124 84.5 -213.5t211.5 -86.5
q125 -3 211.5 86.5t84.5 213.5zM235 353q0 96 59.5 156t153.5 60q68 0 120 -35.5t72 -92.5l-110 -38q-24 82 -88 82q-41 0 -67 -35t-26 -97t25 -96.5t68 -34.5q70 0 90 82l110 -38q-23 -58 -75 -94t-119 -36q-97 0 -155 59.5t-58 157.5z" />
    <glyph glyph-name="ordfeminine" unicode="&#xaa;" horiz-adv-x="522" 
d="M32 500q0 94 43.5 153t114.5 59q91 0 127 -99h48q-21 45 -21 87h121v-401h-121q0 43 21 87h-48q-35 -99 -129 -99q-69 0 -112.5 59.5t-43.5 153.5zM319 501q0 114 -70 114q-34 0 -53.5 -29.5t-19.5 -84.5q0 -56 19.5 -86.5t53.5 -30.5q33 0 51.5 30t18.5 87z" />
    <glyph glyph-name="guillemotleft" unicode="&#xab;" horiz-adv-x="636" 
d="M346 495l-149 -245l145 -241h-171l-143 243l144 243h174zM611 495l-151 -245l147 -241h-171l-144 243l146 243h173z" />
    <glyph glyph-name="logicalnot" unicode="&#xac;" horiz-adv-x="633" 
d="M434 150v140h-388v136h526v-276h-138z" />
    <glyph glyph-name="uni00AD" unicode="&#xad;" horiz-adv-x="491" 
d="M53 245v147h385v-147h-385z" />
    <glyph glyph-name="registered" unicode="&#xae;" horiz-adv-x="561" 
d="M33 511q0 103 69 173t178 70t178.5 -70t69.5 -173q0 -104 -69.5 -175t-178.5 -71q-108 0 -177.5 71t-69.5 175zM453 511q0 76 -47 125.5t-126 49.5t-125.5 -49.5t-46.5 -125.5q0 -78 46.5 -128t125.5 -50t126 50t47 128zM189 396v227h118q34 0 55 -15t21 -39t-18.5 -37.5
t-49.5 -13.5v-25q28 -2 41 -10t17 -34l8 -53h-68l-6 54q-3 20 -10 26.5t-24 6.5h-19v-87h-65zM254 529h35q29 0 29 22t-29 22h-35v-44z" />
    <glyph glyph-name="macron" unicode="&#xaf;" horiz-adv-x="339" 
d="M17 578v106h327v-106h-327z" />
    <glyph glyph-name="degree" unicode="&#xb0;" horiz-adv-x="458" 
d="M24 599q0 84 58.5 141t145.5 57q89 0 146.5 -56.5t57.5 -141.5t-57.5 -141t-146.5 -56q-90 0 -147 56.5t-57 140.5zM303 601q0 34 -21 56t-53 22q-33 0 -54.5 -22t-21.5 -56q0 -37 21.5 -59t54.5 -22t53.5 22.5t20.5 58.5z" />
    <glyph glyph-name="plusminus" unicode="&#xb1;" horiz-adv-x="643" 
d="M256 252v114h-194v123h194v127h138v-127h194v-123h-194v-114h-138zM54 76v131h529v-131h-529z" />
    <glyph glyph-name="twosuperior" unicode="&#xb2;" horiz-adv-x="406" 
d="M46 394v111q110 54 150 86.5t40 69.5q0 19 -10 30t-27 11q-43 0 -41 -70l-119 12q0 66 44.5 111t123.5 45q69 0 112 -34t43 -88q0 -58 -45 -99q-37 -33 -144 -75l-38 -16l19 -41q74 46 141 46h66v-99h-315z" />
    <glyph glyph-name="threesuperior" unicode="&#xb3;" horiz-adv-x="403" 
d="M31 508l120 24q8 -50 49 -50q18 0 29 9t11 25q0 33 -45 33h-28v89h28q19 0 30 9t11 24q0 14 -9.5 23t-24.5 9q-35 0 -37 -47l-121 16q5 57 48 92.5t110 35.5q68 0 110 -27t42 -71q0 -82 -118 -84v-41q61 0 94 -23t33 -65q0 -47 -43 -76t-117 -29t-119.5 33.5t-52.5 90.5z
" />
    <glyph glyph-name="acute" unicode="&#xb4;" horiz-adv-x="332" 
d="M57 566l50 154h182l-118 -154h-114z" />
    <glyph glyph-name="mu" unicode="&#xb5;" horiz-adv-x="632" 
d="M68 -195v696h177v-303q0 -79 64 -79q40 0 60 31.5t20 85.5v265h175v-501h-160q0 46 42 112h-68q-32 -96 -111 -102q-7 -10 -24 -18v-187h-175z" />
    <glyph glyph-name="paragraph" unicode="&#xb6;" horiz-adv-x="829" 
d="M317 700h473v-133h-91v-761h-154v761h-77v-761h-150v374h-31q-116 0 -188.5 73t-72.5 183q0 123 81 193.5t210 70.5z" />
    <glyph glyph-name="periodcentered" unicode="&#xb7;" horiz-adv-x="297" 
d="M52 281v177h193v-177h-193z" />
    <glyph glyph-name="cedilla" unicode="&#xb8;" horiz-adv-x="375" 
d="M54 -179l55 68q36 -34 71 -34q36 0 36 22t-32 22q-14 0 -27 -3l-35 45l72 71l82 -10l-28 -25l-28 -24l11 -1q37 -2 64 -24.5t27 -63.5q0 -42 -34.5 -70.5t-103.5 -28.5q-41 0 -76.5 18t-53.5 38z" />
    <glyph glyph-name="onesuperior" unicode="&#xb9;" horiz-adv-x="322" 
d="M139 394v171q0 64 31 126h-47q-12 -52 -32.5 -76t-57.5 -25v121q92 0 120 80h110v-397h-124z" />
    <glyph glyph-name="ordmasculine" unicode="&#xba;" horiz-adv-x="496" 
d="M29 501q0 95 58 153t162 58q103 0 160.5 -58t57.5 -153q0 -94 -58 -154t-160 -60q-103 0 -161.5 60t-58.5 154zM320 500q0 57 -19 87.5t-52 30.5q-34 0 -53.5 -30.5t-19.5 -87.5q0 -56 20 -87.5t53 -31.5t52 31.5t19 87.5z" />
    <glyph glyph-name="guillemotright" unicode="&#xbb;" horiz-adv-x="634" 
d="M200 495l144 -244l-146 -242h-174l151 245l-147 241h172zM465 495l143 -243l-145 -243h-173l149 245l-146 241h172z" />
    <glyph glyph-name="onequarter" unicode="&#xbc;" horiz-adv-x="928" 
d="M135 303v171q0 64 31 126h-47q-12 -52 -32.5 -76t-57.5 -25v121q92 0 120 80h110v-397h-124zM104 0l511 700h134l-508 -700h-137zM732 0v82h-191v108l146 207h157v-222h56v-93h-56v-82h-112zM732 175v26q0 39 45 87l-34 25l-113 -160l32 -21q26 43 59 43h11z" />
    <glyph glyph-name="onehalf" unicode="&#xbd;" horiz-adv-x="900" 
d="M134 303v171q0 64 31 126h-47q-12 -52 -32.5 -76t-57.5 -25v121q92 0 120 80h110v-397h-124zM104 0l511 700h134l-508 -700h-137zM548 0v111q110 54 150 86.5t40 69.5q0 19 -10 30t-27 11q-43 0 -41 -70l-119 12q0 66 44.5 111t123.5 45q69 0 112 -34t43 -88
q0 -58 -45 -99q-37 -33 -144 -75l-38 -16l19 -41q74 46 141 46h66v-99h-315z" />
    <glyph glyph-name="threequarters" unicode="&#xbe;" horiz-adv-x="1010" 
d="M29 417l120 24q8 -50 49 -50q18 0 29 9t11 25q0 33 -45 33h-28v89h28q19 0 30 9t11 24q0 14 -9.5 23t-24.5 9q-35 0 -37 -47l-121 16q5 57 48 92.5t110 35.5q68 0 110 -27t42 -71q0 -82 -118 -84v-41q61 0 94 -23t33 -65q0 -47 -43 -76t-117 -29t-119.5 33.5t-52.5 90.5z
M185 0l511 700h134l-508 -700h-137zM814 0v82h-191v108l146 207h157v-222h56v-93h-56v-82h-112zM814 175v26q0 39 45 87l-34 25l-113 -160l32 -21q26 43 59 43h11z" />
    <glyph glyph-name="questiondown" unicode="&#xbf;" horiz-adv-x="588" 
d="M400 601v-177h-192v177h192zM292 173q-38 -25 -53 -43.5t-15 -43.5q0 -29 20 -46t53 -17q82 0 86 108l180 -26q-5 -98 -75 -159t-198 -61q-124 0 -190 51t-66 128q0 59 29 97t90 78q39 25 55 48t16 55h162q0 -65 -20 -99.5t-74 -69.5z" />
    <glyph glyph-name="Agrave" unicode="&#xc0;" horiz-adv-x="758" 
d="M552 0l-47 146h-262l-49 -146h-194l254 700h250l253 -700h-205zM290 290h169l-33 104q-18 62 -18 172v38h-63v-26q0 -120 -20 -184zM321 764l-129 154h200l55 -154h-126z" />
    <glyph glyph-name="Aacute" unicode="&#xc1;" horiz-adv-x="758" 
d="M552 0l-47 146h-262l-49 -146h-194l254 700h250l253 -700h-205zM290 290h169l-33 104q-18 62 -18 172v38h-63v-26q0 -120 -20 -184zM316 764l55 154h200l-130 -154h-125z" />
    <glyph glyph-name="Acircumflex" unicode="&#xc2;" horiz-adv-x="758" 
d="M552 0l-47 146h-262l-49 -146h-194l254 700h250l253 -700h-205zM290 290h169l-33 104q-18 62 -18 172v38h-63v-26q0 -120 -20 -184zM145 764l124 138h218l123 -138h-157l-75 72l-76 -72h-157z" />
    <glyph glyph-name="Atilde" unicode="&#xc3;" horiz-adv-x="758" 
d="M552 0l-47 146h-262l-49 -146h-194l254 700h250l253 -700h-205zM290 290h169l-33 104q-18 62 -18 172v38h-63v-26q0 -120 -20 -184zM380 780l-26 14q-34 19 -52 19q-38 0 -40 -50h-120q-2 71 35.5 109.5t107.5 38.5q46 0 96 -26l26 -15q33 -17 53 -17q38 0 40 49h116
q4 -148 -138 -148q-49 0 -98 26z" />
    <glyph glyph-name="Adieresis" unicode="&#xc4;" horiz-adv-x="758" 
d="M552 0l-47 146h-262l-49 -146h-194l254 700h250l253 -700h-205zM290 290h169l-33 104q-18 62 -18 172v38h-63v-26q0 -120 -20 -184zM165 764v132h170v-132h-170zM421 764v132h171v-132h-171z" />
    <glyph glyph-name="Aring" unicode="&#xc5;" horiz-adv-x="758" 
d="M552 0l-47 146h-262l-49 -146h-194l254 700h250l253 -700h-205zM290 290h169l-33 104q-18 62 -18 172v38h-63v-26q0 -120 -20 -184zM233 874q0 60 44 101t102 41t101 -40t43 -100t-42 -98.5t-102 -38.5q-59 0 -102.5 38.5t-43.5 96.5zM427 877q0 22 -14 36t-34 14
q-22 0 -36 -14t-14 -36t14 -36.5t36 -14.5q21 0 34.5 14.5t13.5 36.5z" />
    <glyph glyph-name="AE" unicode="&#xc6;" horiz-adv-x="982" 
d="M938 551h-328v-125h246v-138h-246v-139h328v-149h-500v150h-186l-65 -150h-210l340 700h621v-149zM472 604h-70q-14 -148 -57 -243l-29 -67h122v101q0 91 34 209z" />
    <glyph glyph-name="Ccedilla" unicode="&#xc7;" horiz-adv-x="772" 
d="M470 -13l-13 -11q-15 -12 -28 -25h10q38 -2 66.5 -25.5t28.5 -66.5q0 -42 -36.5 -72t-106.5 -30q-43 0 -79 18t-56 40l58 70q38 -34 73 -34q37 0 37 23q0 22 -33 22q-16 0 -28 -4l-36 47l46 46q-154 10 -246 109t-92 254q-2 157 104.5 264t270.5 105q128 0 219.5 -61
t121.5 -163l-181 -62q-40 135 -163 135q-80 0 -125.5 -57.5t-45.5 -159.5q0 -100 45.5 -157t125.5 -57q121 0 166 135l179 -65q-33 -91 -105.5 -148t-176.5 -70z" />
    <glyph glyph-name="Egrave" unicode="&#xc8;" horiz-adv-x="658" 
d="M72 0v700h542v-149h-357v-124h276v-139h-276v-139h357v-149h-542zM287 764l-129 154h200l55 -154h-126z" />
    <glyph glyph-name="Eacute" unicode="&#xc9;" horiz-adv-x="658" 
d="M72 0v700h542v-149h-357v-124h276v-139h-276v-139h357v-149h-542zM282 764l55 154h200l-130 -154h-125z" />
    <glyph glyph-name="Ecircumflex" unicode="&#xca;" horiz-adv-x="658" 
d="M72 0v700h542v-149h-357v-124h276v-139h-276v-139h357v-149h-542zM112 764l124 138h218l123 -138h-157l-75 72l-76 -72h-157z" />
    <glyph glyph-name="Edieresis" unicode="&#xcb;" horiz-adv-x="658" 
d="M72 0v700h542v-149h-357v-124h276v-139h-276v-139h357v-149h-542zM132 764v132h170v-132h-170zM388 764v132h171v-132h-171z" />
    <glyph glyph-name="Igrave" unicode="&#xcc;" horiz-adv-x="334" 
d="M72 0v700h190v-700h-190zM109 764l-129 154h200l55 -154h-126z" />
    <glyph glyph-name="Iacute" unicode="&#xcd;" horiz-adv-x="334" 
d="M72 0v700h190v-700h-190zM105 764l55 154h200l-130 -154h-125z" />
    <glyph glyph-name="Icircumflex" unicode="&#xce;" horiz-adv-x="334" 
d="M72 0v700h190v-700h-190zM-66 764l124 138h218l123 -138h-157l-75 72l-76 -72h-157z" />
    <glyph glyph-name="Idieresis" unicode="&#xcf;" horiz-adv-x="334" 
d="M72 0v700h190v-700h-190zM-46 764v132h170v-132h-170zM210 764v132h171v-132h-171z" />
    <glyph glyph-name="Eth" unicode="&#xd0;" horiz-adv-x="784" 
d="M748 354q2 -158 -105.5 -257t-265.5 -97h-290v300h-70v117h70v283h285q162 2 270 -94t106 -252zM551 353q0 90 -48 144t-135 54h-92v-134h115v-117h-115v-150h88q93 0 140 52t47 151z" />
    <glyph glyph-name="Ntilde" unicode="&#xd1;" horiz-adv-x="846" 
d="M72 0v700h265l288 -512l54 35q-48 74 -68 133.5t-20 139.5v204h183v-700h-216l-339 604l-54 -33q90 -149 90 -299v-272h-183zM424 780l-26 14q-34 19 -52 19q-38 0 -40 -50h-120q-2 71 35.5 109.5t107.5 38.5q46 0 96 -26l26 -15q33 -17 53 -17q38 0 40 49h116
q4 -148 -138 -148q-49 0 -98 26z" />
    <glyph glyph-name="Ograve" unicode="&#xd2;" horiz-adv-x="841" 
d="M36 347q0 162 102 266t282 104q180 2 283.5 -104t101.5 -266q0 -161 -101 -262.5t-284 -101.5q-182 0 -283 101.5t-101 262.5zM605 348q0 99 -49 158.5t-135 59.5t-135.5 -60t-49.5 -158q0 -97 49 -155.5t136 -58.5q86 0 135 58.5t49 155.5zM361 764l-129 154h200
l55 -154h-126z" />
    <glyph glyph-name="Oacute" unicode="&#xd3;" horiz-adv-x="841" 
d="M36 347q0 162 102 266t282 104q180 2 283.5 -104t101.5 -266q0 -161 -101 -262.5t-284 -101.5q-182 0 -283 101.5t-101 262.5zM605 348q0 99 -49 158.5t-135 59.5t-135.5 -60t-49.5 -158q0 -97 49 -155.5t136 -58.5q86 0 135 58.5t49 155.5zM356 764l55 154h200
l-130 -154h-125z" />
    <glyph glyph-name="Ocircumflex" unicode="&#xd4;" horiz-adv-x="841" 
d="M36 347q0 162 102 266t282 104q180 2 283.5 -104t101.5 -266q0 -161 -101 -262.5t-284 -101.5q-182 0 -283 101.5t-101 262.5zM605 348q0 99 -49 158.5t-135 59.5t-135.5 -60t-49.5 -158q0 -97 49 -155.5t136 -58.5q86 0 135 58.5t49 155.5zM185 764l124 138h218
l123 -138h-157l-75 72l-76 -72h-157z" />
    <glyph glyph-name="Otilde" unicode="&#xd5;" horiz-adv-x="841" 
d="M36 347q0 162 102 266t282 104q180 2 283.5 -104t101.5 -266q0 -161 -101 -262.5t-284 -101.5q-182 0 -283 101.5t-101 262.5zM605 348q0 99 -49 158.5t-135 59.5t-135.5 -60t-49.5 -158q0 -97 49 -155.5t136 -58.5q86 0 135 58.5t49 155.5zM420 780l-26 14
q-34 19 -52 19q-38 0 -40 -50h-120q-2 71 35.5 109.5t107.5 38.5q46 0 96 -26l26 -15q33 -17 53 -17q38 0 40 49h116q4 -148 -138 -148q-49 0 -98 26z" />
    <glyph glyph-name="Odieresis" unicode="&#xd6;" horiz-adv-x="841" 
d="M36 347q0 162 102 266t282 104q180 2 283.5 -104t101.5 -266q0 -161 -101 -262.5t-284 -101.5q-182 0 -283 101.5t-101 262.5zM605 348q0 99 -49 158.5t-135 59.5t-135.5 -60t-49.5 -158q0 -97 49 -155.5t136 -58.5q86 0 135 58.5t49 155.5zM206 764v132h170v-132h-170z
M462 764v132h171v-132h-171z" />
    <glyph glyph-name="multiply" unicode="&#xd7;" horiz-adv-x="599" 
d="M132 88l-92 93l166 165l-167 166l94 93l167 -166l166 165l93 -92l-166 -165l166 -166l-94 -93l-166 165z" />
    <glyph glyph-name="Oslash" unicode="&#xd8;" horiz-adv-x="842" 
d="M152 -59l-102 89l67 76q-81 98 -81 240q-2 160 101.5 266t283.5 104q113 0 195 -42l73 82l102 -91l-67 -77q81 -98 81 -242q0 -161 -101 -262.5t-283 -101.5q-112 0 -196 41zM257 256l141 174q33 39 63 52.5t74 13.5v58q-47 15 -100 15q-96 0 -147.5 -58t-51.5 -154
q0 -56 21 -101zM605 339q0 57 -21 100l-139 -171q-56 -64 -140 -62v-60q38 -17 100 -17q96 0 148 58t52 152z" />
    <glyph glyph-name="Ugrave" unicode="&#xd9;" horiz-adv-x="781" 
d="M64 285v415h189v-390q0 -170 137 -170t137 170v390h189v-415q0 -145 -86.5 -223.5t-239.5 -78.5q-155 0 -240.5 78.5t-85.5 223.5zM331 764l-129 154h200l55 -154h-126z" />
    <glyph glyph-name="Uacute" unicode="&#xda;" horiz-adv-x="781" 
d="M64 285v415h189v-390q0 -170 137 -170t137 170v390h189v-415q0 -145 -86.5 -223.5t-239.5 -78.5q-155 0 -240.5 78.5t-85.5 223.5zM327 764l55 154h200l-130 -154h-125z" />
    <glyph glyph-name="Ucircumflex" unicode="&#xdb;" horiz-adv-x="781" 
d="M64 285v415h189v-390q0 -170 137 -170t137 170v390h189v-415q0 -145 -86.5 -223.5t-239.5 -78.5q-155 0 -240.5 78.5t-85.5 223.5zM156 764l124 138h218l123 -138h-157l-75 72l-76 -72h-157z" />
    <glyph glyph-name="Udieresis" unicode="&#xdc;" horiz-adv-x="781" 
d="M64 285v415h189v-390q0 -170 137 -170t137 170v390h189v-415q0 -145 -86.5 -223.5t-239.5 -78.5q-155 0 -240.5 78.5t-85.5 223.5zM177 764v132h170v-132h-170zM433 764v132h171v-132h-171z" />
    <glyph glyph-name="Yacute" unicode="&#xdd;" horiz-adv-x="697" 
d="M254 0v273l-252 427h209l62 -110q32 -58 40.5 -104.5t8.5 -127.5h62q0 74 11 127.5t41 110.5l55 104h202l-249 -427v-273h-190zM285 764l55 154h200l-130 -154h-125z" />
    <glyph glyph-name="Thorn" unicode="&#xde;" horiz-adv-x="699" 
d="M668 351q0 -105 -73.5 -167.5t-186.5 -62.5h-146v-121h-190v700h190v-114h145q114 0 187.5 -64t73.5 -171zM478 353q0 37 -28.5 61.5t-72.5 24.5h-115v-173h115q45 0 73 24t28 63z" />
    <glyph glyph-name="germandbls" unicode="&#xdf;" horiz-adv-x="645" 
d="M293 -2v139q29 -7 54 -7q44 0 69 23t25 62q0 40 -29 63.5t-79 23.5h-40v119h28q44 0 70 21.5t26 57.5q0 33 -25 56t-62 23q-49 0 -73.5 -28.5t-24.5 -93.5v-457h-174v458q0 124 67.5 191.5t207.5 67.5q117 0 182.5 -49.5t65.5 -121.5q0 -65 -47 -104t-121 -44v-57
q90 -2 147.5 -44t57.5 -114q0 -88 -61.5 -142t-169.5 -54q-56 0 -94 11z" />
    <glyph glyph-name="agrave" unicode="&#xe0;" horiz-adv-x="595" 
d="M34 130q0 170 319 194v18q0 62 -72 62q-75 0 -92 -71l-162 27q9 69 78 113.5t180 44.5q114 0 175 -51t61 -147v-165q0 -18 5 -24t23 -6h39v-125h-79q-62 0 -84 23.5t-24 80.5h-52q-35 -121 -159 -121q-69 0 -112.5 40t-43.5 107zM353 203v30q-74 -7 -111 -27t-37 -58
q0 -48 56 -48q40 0 66 27t26 76zM230 566l-117 154h182l50 -154h-115z" />
    <glyph glyph-name="aacute" unicode="&#xe1;" horiz-adv-x="595" 
d="M34 130q0 170 319 194v18q0 62 -72 62q-75 0 -92 -71l-162 27q9 69 78 113.5t180 44.5q114 0 175 -51t61 -147v-165q0 -18 5 -24t23 -6h39v-125h-79q-62 0 -84 23.5t-24 80.5h-52q-35 -121 -159 -121q-69 0 -112.5 40t-43.5 107zM353 203v30q-74 -7 -111 -27t-37 -58
q0 -48 56 -48q40 0 66 27t26 76zM232 566l50 154h182l-118 -154h-114z" />
    <glyph glyph-name="acircumflex" unicode="&#xe2;" horiz-adv-x="595" 
d="M34 130q0 170 319 194v18q0 62 -72 62q-75 0 -92 -71l-162 27q9 69 78 113.5t180 44.5q114 0 175 -51t61 -147v-165q0 -18 5 -24t23 -6h39v-125h-79q-62 0 -84 23.5t-24 80.5h-52q-35 -121 -159 -121q-69 0 -112.5 40t-43.5 107zM353 203v30q-74 -7 -111 -27t-37 -58
q0 -48 56 -48q40 0 66 27t26 76zM75 566l113 138h198l112 -138h-142l-69 72l-68 -72h-144z" />
    <glyph glyph-name="atilde" unicode="&#xe3;" horiz-adv-x="595" 
d="M34 130q0 170 319 194v18q0 62 -72 62q-75 0 -92 -71l-162 27q9 69 78 113.5t180 44.5q114 0 175 -51t61 -147v-165q0 -18 5 -24t23 -6h39v-125h-79q-62 0 -84 23.5t-24 80.5h-52q-35 -121 -159 -121q-69 0 -112.5 40t-43.5 107zM353 203v30q-74 -7 -111 -27t-37 -58
q0 -48 56 -48q40 0 66 27t26 76zM288 583l-24 14q-31 18 -48 18q-35 0 -37 -49h-112q-2 69 33.5 108t99.5 39q42 0 89 -26l24 -15q30 -17 49 -17q35 0 37 49h109q4 -148 -129 -148q-45 0 -91 27z" />
    <glyph glyph-name="adieresis" unicode="&#xe4;" horiz-adv-x="595" 
d="M34 130q0 170 319 194v18q0 62 -72 62q-75 0 -92 -71l-162 27q9 69 78 113.5t180 44.5q114 0 175 -51t61 -147v-165q0 -18 5 -24t23 -6h39v-125h-79q-62 0 -84 23.5t-24 80.5h-52q-35 -121 -159 -121q-69 0 -112.5 40t-43.5 107zM353 203v30q-74 -7 -111 -27t-37 -58
q0 -48 56 -48q40 0 66 27t26 76zM93 572v132h155v-132h-155zM326 572v132h155v-132h-155z" />
    <glyph glyph-name="aring" unicode="&#xe5;" horiz-adv-x="595" 
d="M34 130q0 170 319 194v18q0 62 -72 62q-75 0 -92 -71l-162 27q9 69 78 113.5t180 44.5q114 0 175 -51t61 -147v-165q0 -18 5 -24t23 -6h39v-125h-79q-62 0 -84 23.5t-24 80.5h-52q-35 -121 -159 -121q-69 0 -112.5 40t-43.5 107zM353 203v30q-74 -7 -111 -27t-37 -58
q0 -48 56 -48q40 0 66 27t26 76zM154 673q0 56 40.5 93.5t93.5 37.5q55 0 94.5 -37t39.5 -92q0 -54 -39.5 -90t-94.5 -36q-54 0 -94 35.5t-40 88.5zM333 676q0 21 -13 33.5t-32 12.5q-20 0 -32.5 -12.5t-12.5 -33.5q0 -20 12.5 -33t32.5 -13t32.5 13t12.5 33z" />
    <glyph glyph-name="ae" unicode="&#xe6;" horiz-adv-x="891" 
d="M32 133q0 168 318 189v19q0 63 -73 63q-72 0 -87 -71l-158 27q9 67 71 112.5t147 45.5q74 0 119.5 -29.5t60.5 -77.5h51q12 44 51 76t104 32q103 0 163.5 -74.5t60.5 -184.5q0 -26 -3 -44h-349q4 -111 94 -111q68 0 100 78l159 -51q-27 -65 -88 -107t-154 -42
q-83 0 -137 37.5t-70 95.5h-51q-13 -60 -55 -96.5t-114 -36.5q-71 0 -115.5 40.5t-44.5 109.5zM512 313h176q-3 43 -25.5 66.5t-61.5 23.5q-78 0 -89 -90zM350 203v30q-74 -7 -111 -27t-37 -58q0 -22 15 -35t42 -13q40 0 65.5 27t25.5 76z" />
    <glyph glyph-name="ccedilla" unicode="&#xe7;" horiz-adv-x="583" 
d="M367 -11l-13 -12l-27 -24l10 -1q37 -2 64 -24.5t27 -63.5q0 -42 -34.5 -70.5t-102.5 -28.5q-42 0 -78 17.5t-53 38.5l56 68q34 -34 70 -34q37 0 37 22t-33 22q-14 0 -27 -3l-34 45l43 44q-110 9 -176.5 81t-66.5 184q0 119 78 193.5t198 74.5q96 0 164 -45t91 -119
l-164 -48q-23 87 -95 87q-46 0 -72.5 -36.5t-26.5 -104.5q0 -67 27.5 -105t72.5 -38q72 0 98 92l167 -41q-22 -69 -73.5 -113.5t-126.5 -57.5z" />
    <glyph glyph-name="egrave" unicode="&#xe8;" horiz-adv-x="586" 
d="M30 252q0 117 75 191.5t190 74.5q122 0 190.5 -72.5t68.5 -191.5q0 -16 -2 -40h-349q4 -109 93 -109q68 0 101 78l159 -51q-67 -149 -260 -149q-124 0 -195 72t-71 197zM207 314h175q-3 42 -25.5 65.5t-60.5 23.5q-81 0 -89 -89zM239 566l-117 154h182l50 -154h-115z" />
    <glyph glyph-name="eacute" unicode="&#xe9;" horiz-adv-x="586" 
d="M30 252q0 117 75 191.5t190 74.5q122 0 190.5 -72.5t68.5 -191.5q0 -16 -2 -40h-349q4 -109 93 -109q68 0 101 78l159 -51q-67 -149 -260 -149q-124 0 -195 72t-71 197zM207 314h175q-3 42 -25.5 65.5t-60.5 23.5q-81 0 -89 -89zM240 566l50 154h182l-118 -154h-114z" />
    <glyph glyph-name="ecircumflex" unicode="&#xea;" horiz-adv-x="586" 
d="M30 252q0 117 75 191.5t190 74.5q122 0 190.5 -72.5t68.5 -191.5q0 -16 -2 -40h-349q4 -109 93 -109q68 0 101 78l159 -51q-67 -149 -260 -149q-124 0 -195 72t-71 197zM207 314h175q-3 42 -25.5 65.5t-60.5 23.5q-81 0 -89 -89zM84 566l113 138h198l112 -138h-142
l-69 72l-68 -72h-144z" />
    <glyph glyph-name="edieresis" unicode="&#xeb;" horiz-adv-x="586" 
d="M30 252q0 117 75 191.5t190 74.5q122 0 190.5 -72.5t68.5 -191.5q0 -16 -2 -40h-349q4 -109 93 -109q68 0 101 78l159 -51q-67 -149 -260 -149q-124 0 -195 72t-71 197zM207 314h175q-3 42 -25.5 65.5t-60.5 23.5q-81 0 -89 -89zM102 572v132h155v-132h-155zM335 572v132
h155v-132h-155z" />
    <glyph glyph-name="igrave" unicode="&#xec;" horiz-adv-x="292" 
d="M58 0v501h176v-501h-176zM89 566l-117 154h182l50 -154h-115z" />
    <glyph glyph-name="iacute" unicode="&#xed;" horiz-adv-x="292" 
d="M58 0v501h176v-501h-176zM90 566l50 154h182l-118 -154h-114z" />
    <glyph glyph-name="icircumflex" unicode="&#xee;" horiz-adv-x="292" 
d="M58 0v501h176v-501h-176zM-66 566l113 138h198l112 -138h-142l-69 72l-68 -72h-144z" />
    <glyph glyph-name="idieresis" unicode="&#xef;" horiz-adv-x="292" 
d="M58 0v501h176v-501h-176zM-48 572v132h155v-132h-155zM185 572v132h155v-132h-155z" />
    <glyph glyph-name="eth" unicode="&#xf0;" horiz-adv-x="632" 
d="M598 335q2 -150 -77.5 -251.5t-224.5 -100.5q-116 0 -191 67t-75 182q0 105 64.5 165.5t147.5 60.5q67 0 112 -32.5t60 -88.5h55q-6 118 -81 187l-79 -50l-53 83l33 21q-28 7 -61 7q-79 0 -155 -35v138q68 29 176 29q97 0 178 -50l93 60l55 -84l-69 -44q92 -106 92 -264z
M407 229q0 50 -27.5 80.5t-75.5 30.5q-44 0 -74 -32t-30 -79q0 -51 30 -82.5t74 -31.5t73.5 31.5t29.5 82.5z" />
    <glyph glyph-name="ntilde" unicode="&#xf1;" horiz-adv-x="612" 
d="M58 0v501h159q-1 -49 -46 -115h69q19 62 57.5 97t94.5 35q78 0 122.5 -49t44.5 -136v-333h-176v303q0 79 -68 79q-49 0 -65 -37q-16 -35 -16 -87v-258h-176zM313 583l-24 14q-32 18 -48 18q-35 0 -37 -49h-112q-2 69 33.5 108t99.5 39q42 0 89 -26l24 -15q30 -17 49 -17
q35 0 37 49h109q4 -148 -129 -148q-45 0 -91 27z" />
    <glyph glyph-name="ograve" unicode="&#xf2;" horiz-adv-x="616" 
d="M29 250q0 121 77 194.5t201 73.5t201.5 -73.5t77.5 -194.5t-77 -194t-202 -73q-123 0 -200.5 75t-77.5 192zM402 250q0 70 -24.5 106t-69.5 36q-95 0 -95 -142q0 -141 95 -141q94 0 94 141zM251 566l-117 154h182l50 -154h-115z" />
    <glyph glyph-name="oacute" unicode="&#xf3;" horiz-adv-x="616" 
d="M29 250q0 121 77 194.5t201 73.5t201.5 -73.5t77.5 -194.5t-77 -194t-202 -73q-123 0 -200.5 75t-77.5 192zM402 250q0 70 -24.5 106t-69.5 36q-95 0 -95 -142q0 -141 95 -141q94 0 94 141zM252 566l50 154h182l-118 -154h-114z" />
    <glyph glyph-name="ocircumflex" unicode="&#xf4;" horiz-adv-x="616" 
d="M29 250q0 121 77 194.5t201 73.5t201.5 -73.5t77.5 -194.5t-77 -194t-202 -73q-123 0 -200.5 75t-77.5 192zM402 250q0 70 -24.5 106t-69.5 36q-95 0 -95 -142q0 -141 95 -141q94 0 94 141zM96 566l113 138h198l112 -138h-142l-69 72l-68 -72h-144z" />
    <glyph glyph-name="otilde" unicode="&#xf5;" horiz-adv-x="616" 
d="M29 250q0 121 77 194.5t201 73.5t201.5 -73.5t77.5 -194.5t-77 -194t-202 -73q-123 0 -200.5 75t-77.5 192zM402 250q0 70 -24.5 106t-69.5 36q-95 0 -95 -142q0 -141 95 -141q94 0 94 141zM308 583l-24 14q-32 18 -48 18q-35 0 -37 -49h-112q-2 69 33.5 108t99.5 39
q42 0 89 -26l24 -15q30 -17 49 -17q35 0 37 49h109q4 -148 -129 -148q-45 0 -91 27z" />
    <glyph glyph-name="odieresis" unicode="&#xf6;" horiz-adv-x="616" 
d="M29 250q0 121 77 194.5t201 73.5t201.5 -73.5t77.5 -194.5t-77 -194t-202 -73q-123 0 -200.5 75t-77.5 192zM402 250q0 70 -24.5 106t-69.5 36q-95 0 -95 -142q0 -141 95 -141q94 0 94 141zM114 572v132h155v-132h-155zM347 572v132h155v-132h-155z" />
    <glyph glyph-name="divide" unicode="&#xf7;" horiz-adv-x="604" 
d="M217 478v147h171v-147h-171zM36 288v130h532v-130h-532zM217 81v148h171v-148h-171z" />
    <glyph glyph-name="oslash" unicode="&#xf8;" horiz-adv-x="619" 
d="M155 22l-50 -50l-72 70l47 48q-49 67 -49 160q0 121 77 194.5t201 73.5q89 0 153 -38l53 53l73 -69l-50 -50q50 -68 50 -164q0 -121 -77 -194t-202 -73q-89 0 -154 39zM219 225l53 62q41 47 90 47q5 0 23 -2v56q-28 12 -67 12q-48 0 -75.5 -35.5t-27.5 -98.5q0 -26 4 -41
zM406 232q0 27 -6 48l-54 -62q-45 -52 -91 -52q-10 0 -16 1v-56q22 -13 56 -13q54 0 82.5 34.5t28.5 99.5z" />
    <glyph glyph-name="ugrave" unicode="&#xf9;" horiz-adv-x="607" 
d="M53 165v336h176v-302q0 -39 17 -59.5t48 -20.5q39 0 60 32t21 86v264h174v-501h-160q0 46 42 112h-67q-44 -128 -157 -128q-71 0 -112.5 47.5t-41.5 133.5zM245 566l-117 154h182l50 -154h-115z" />
    <glyph glyph-name="uacute" unicode="&#xfa;" horiz-adv-x="607" 
d="M53 165v336h176v-302q0 -39 17 -59.5t48 -20.5q39 0 60 32t21 86v264h174v-501h-160q0 46 42 112h-67q-44 -128 -157 -128q-71 0 -112.5 47.5t-41.5 133.5zM246 566l50 154h182l-118 -154h-114z" />
    <glyph glyph-name="ucircumflex" unicode="&#xfb;" horiz-adv-x="607" 
d="M53 165v336h176v-302q0 -39 17 -59.5t48 -20.5q39 0 60 32t21 86v264h174v-501h-160q0 46 42 112h-67q-44 -128 -157 -128q-71 0 -112.5 47.5t-41.5 133.5zM90 566l113 138h198l112 -138h-142l-69 72l-68 -72h-144z" />
    <glyph glyph-name="udieresis" unicode="&#xfc;" horiz-adv-x="607" 
d="M53 165v336h176v-302q0 -39 17 -59.5t48 -20.5q39 0 60 32t21 86v264h174v-501h-160q0 46 42 112h-67q-44 -128 -157 -128q-71 0 -112.5 47.5t-41.5 133.5zM108 572v132h155v-132h-155zM341 572v132h155v-132h-155z" />
    <glyph glyph-name="yacute" unicode="&#xfd;" horiz-adv-x="581" 
d="M404 501h172l-199 -555q-28 -76 -68.5 -108.5t-116.5 -32.5h-156v132h137q24 0 36 10.5t21 39.5l8 22l-250 492h188l67 -157q32 -73 32 -197v-21h59v30q0 125 22 197zM231 566l50 154h182l-118 -154h-114z" />
    <glyph glyph-name="thorn" unicode="&#xfe;" horiz-adv-x="636" 
d="M58 -195v895h173v-112q0 -66 -12.5 -106.5t-38.5 -81.5h68q43 118 160 118q87 0 142 -74t55 -193t-55 -193t-142 -74q-115 0 -158 118h-69q50 -77 50 -189v-108h-173zM423 251q0 145 -98 145q-47 0 -73 -37t-26 -108t26 -108t73 -37q98 0 98 145z" />
    <glyph glyph-name="ydieresis" unicode="&#xff;" horiz-adv-x="581" 
d="M404 501h172l-199 -555q-28 -76 -68.5 -108.5t-116.5 -32.5h-156v132h137q24 0 36 10.5t21 39.5l8 22l-250 492h188l67 -157q32 -73 32 -197v-21h59v30q0 125 22 197zM93 572v132h155v-132h-155zM326 572v132h155v-132h-155z" />
    <glyph glyph-name="Amacron" unicode="&#x100;" horiz-adv-x="758" 
d="M552 0l-47 146h-262l-49 -146h-194l254 700h250l253 -700h-205zM290 290h169l-33 104q-18 62 -18 172v38h-63v-26q0 -120 -20 -184zM195 771v105h369v-105h-369z" />
    <glyph glyph-name="amacron" unicode="&#x101;" horiz-adv-x="595" 
d="M34 130q0 170 319 194v18q0 62 -72 62q-75 0 -92 -71l-162 27q9 69 78 113.5t180 44.5q114 0 175 -51t61 -147v-165q0 -18 5 -24t23 -6h39v-125h-79q-62 0 -84 23.5t-24 80.5h-52q-35 -121 -159 -121q-69 0 -112.5 40t-43.5 107zM353 203v30q-74 -7 -111 -27t-37 -58
q0 -48 56 -48q40 0 66 27t26 76zM124 578v106h327v-106h-327z" />
    <glyph glyph-name="Abreve" unicode="&#x102;" horiz-adv-x="758" 
d="M552 0l-47 146h-262l-49 -146h-194l254 700h250l253 -700h-205zM290 290h169l-33 104q-18 62 -18 172v38h-63v-26q0 -120 -20 -184zM172 902h124q2 -22 23.5 -42t60.5 -20q37 0 59 20t24 42h124q-5 -69 -56.5 -112.5t-150.5 -43.5q-101 0 -153 43.5t-55 112.5z" />
    <glyph glyph-name="abreve" unicode="&#x103;" horiz-adv-x="595" 
d="M34 130q0 170 319 194v18q0 62 -72 62q-75 0 -92 -71l-162 27q9 69 78 113.5t180 44.5q114 0 175 -51t61 -147v-165q0 -18 5 -24t23 -6h39v-125h-79q-62 0 -84 23.5t-24 80.5h-52q-35 -121 -159 -121q-69 0 -112.5 40t-43.5 107zM353 203v30q-74 -7 -111 -27t-37 -58
q0 -48 56 -48q40 0 66 27t26 76zM99 704h113q2 -21 22 -41t54 -20q35 0 54.5 19.5t21.5 41.5h112q-5 -68 -51 -110.5t-137 -42.5t-138.5 43t-50.5 110z" />
    <glyph glyph-name="Aogonek" unicode="&#x104;" horiz-adv-x="758" 
d="M682 -103q28 0 75 15v-106q-47 -19 -97 -19q-64 0 -100.5 28t-36.5 75q0 67 85 110h-56l-47 146h-262l-49 -146h-194l254 700h250l253 -700q-124 -33 -124 -73q0 -30 49 -30zM290 290h169l-33 104q-18 62 -18 172v38h-63v-26q0 -120 -20 -184z" />
    <glyph glyph-name="aogonek" unicode="&#x105;" horiz-adv-x="595" 
d="M549 125h39v-125q-124 -33 -124 -73q0 -30 49 -30q29 0 75 15v-106q-47 -19 -97 -19q-64 0 -100.5 28t-36.5 75q0 71 101 117q-29 10 -41 32.5t-13 64.5h-52q-35 -121 -159 -121q-69 0 -112.5 40t-43.5 107q0 170 319 194v18q0 62 -72 62q-75 0 -92 -71l-162 27
q9 69 78 113.5t180 44.5q114 0 175 -51t61 -147v-165q0 -18 5 -24t23 -6zM353 203v30q-74 -7 -111 -27t-37 -58q0 -48 56 -48q40 0 66 27t26 76z" />
    <glyph glyph-name="Cacute" unicode="&#x106;" horiz-adv-x="772" 
d="M35 348q-2 157 104.5 264t270.5 105q128 0 219.5 -61t121.5 -163l-181 -62q-40 135 -163 135q-80 0 -125.5 -57.5t-45.5 -159.5q0 -100 45.5 -157t125.5 -57q121 0 166 135l179 -65q-37 -103 -126.5 -162.5t-217.5 -59.5q-168 0 -270.5 101t-102.5 264zM353 764l55 154
h200l-130 -154h-125z" />
    <glyph glyph-name="cacute" unicode="&#x107;" horiz-adv-x="583" 
d="M29 250q0 119 78 193.5t198 74.5q96 0 164 -45t91 -119l-164 -48q-23 87 -95 87q-46 0 -72.5 -36.5t-26.5 -104.5q0 -67 27.5 -105t72.5 -38q72 0 98 92l167 -41q-26 -84 -95 -130.5t-168 -46.5q-123 0 -199 73.5t-76 193.5zM251 566l50 154h182l-118 -154h-114z" />
    <glyph glyph-name="Ccircumflex" unicode="&#x108;" horiz-adv-x="772" 
d="M35 348q-2 157 104.5 264t270.5 105q128 0 219.5 -61t121.5 -163l-181 -62q-40 135 -163 135q-80 0 -125.5 -57.5t-45.5 -159.5q0 -100 45.5 -157t125.5 -57q121 0 166 135l179 -65q-37 -103 -126.5 -162.5t-217.5 -59.5q-168 0 -270.5 101t-102.5 264zM182 764l124 138
h218l123 -138h-157l-75 72l-76 -72h-157z" />
    <glyph glyph-name="ccircumflex" unicode="&#x109;" horiz-adv-x="583" 
d="M29 250q0 119 78 193.5t198 74.5q96 0 164 -45t91 -119l-164 -48q-23 87 -95 87q-46 0 -72.5 -36.5t-26.5 -104.5q0 -67 27.5 -105t72.5 -38q72 0 98 92l167 -41q-26 -84 -95 -130.5t-168 -46.5q-123 0 -199 73.5t-76 193.5zM95 566l113 138h198l112 -138h-142l-69 72
l-68 -72h-144z" />
    <glyph glyph-name="Cdotaccent" unicode="&#x10a;" horiz-adv-x="772" 
d="M35 348q-2 157 104.5 264t270.5 105q128 0 219.5 -61t121.5 -163l-181 -62q-40 135 -163 135q-80 0 -125.5 -57.5t-45.5 -159.5q0 -100 45.5 -157t125.5 -57q121 0 166 135l179 -65q-37 -103 -126.5 -162.5t-217.5 -59.5q-168 0 -270.5 101t-102.5 264zM332 761v147h167
v-147h-167z" />
    <glyph glyph-name="cdotaccent" unicode="&#x10b;" horiz-adv-x="583" 
d="M29 250q0 119 78 193.5t198 74.5q96 0 164 -45t91 -119l-164 -48q-23 87 -95 87q-46 0 -72.5 -36.5t-26.5 -104.5q0 -67 27.5 -105t72.5 -38q72 0 98 92l167 -41q-26 -84 -95 -130.5t-168 -46.5q-123 0 -199 73.5t-76 193.5zM223 563v147h167v-147h-167z" />
    <glyph glyph-name="Ccaron" unicode="&#x10c;" horiz-adv-x="772" 
d="M35 348q-2 157 104.5 264t270.5 105q128 0 219.5 -61t121.5 -163l-181 -62q-40 135 -163 135q-80 0 -125.5 -57.5t-45.5 -159.5q0 -100 45.5 -157t125.5 -57q121 0 166 135l179 -65q-37 -103 -126.5 -162.5t-217.5 -59.5q-168 0 -270.5 101t-102.5 264zM648 892
l-124 -138h-218l-123 138h157l76 -73l75 73h157z" />
    <glyph glyph-name="ccaron" unicode="&#x10d;" horiz-adv-x="583" 
d="M29 250q0 119 78 193.5t198 74.5q96 0 164 -45t91 -119l-164 -48q-23 87 -95 87q-46 0 -72.5 -36.5t-26.5 -104.5q0 -67 27.5 -105t72.5 -38q72 0 98 92l167 -41q-26 -84 -95 -130.5t-168 -46.5q-123 0 -199 73.5t-76 193.5zM208 566l-112 138h143l68 -76l69 76h143
l-112 -138h-199z" />
    <glyph glyph-name="Dcaron" unicode="&#x10e;" horiz-adv-x="769" 
d="M72 0v700h284q166 0 271 -94t105 -252q3 -158 -105 -257t-266 -97h-289zM260 150h88q93 0 140.5 52t47.5 151q0 90 -48 144t-136 54h-92v-401zM562 892l-124 -138h-218l-123 138h157l76 -73l75 73h157z" />
    <glyph glyph-name="dcaron" unicode="&#x10f;" horiz-adv-x="752" 
d="M31 251q0 119 55 193t141 74q114 0 160 -118h68q-26 42 -38 83t-12 105v112h174v-700h-160q0 44 38 101h-68q-49 -117 -162 -117q-88 0 -142 74t-54 193zM410 251q0 71 -26 108t-73 37q-98 0 -98 -145t98 -145q46 0 72.5 37.5t26.5 107.5zM639 405l91 147h-89v149h161
v-149l-90 -147h-73z" />
    <glyph glyph-name="Dcroat" unicode="&#x110;" horiz-adv-x="784" 
d="M748 354q2 -158 -105.5 -257t-265.5 -97h-290v300h-70v117h70v283h285q162 2 270 -94t106 -252zM551 353q0 90 -48 144t-135 54h-92v-134h115v-117h-115v-150h88q93 0 140 52t47 151z" />
    <glyph glyph-name="dcroat" unicode="&#x111;" horiz-adv-x="637" 
d="M659 629v-91h-80v-538h-160q0 44 38 101h-68q-49 -117 -162 -117q-88 0 -142 74t-54 193t55 193t141 74q114 0 160 -118h68q-41 66 -47 138h-141v91h138v71h174v-71h80zM410 251q0 71 -26 108t-73 37q-98 0 -98 -145t98 -145q46 0 72.5 37.5t26.5 107.5z" />
    <glyph glyph-name="Emacron" unicode="&#x112;" horiz-adv-x="658" 
d="M72 0v700h542v-149h-357v-124h276v-139h-276v-139h357v-149h-542zM161 771v105h369v-105h-369z" />
    <glyph glyph-name="emacron" unicode="&#x113;" horiz-adv-x="586" 
d="M30 252q0 117 75 191.5t190 74.5q122 0 190.5 -72.5t68.5 -191.5q0 -16 -2 -40h-349q4 -109 93 -109q68 0 101 78l159 -51q-67 -149 -260 -149q-124 0 -195 72t-71 197zM207 314h175q-3 42 -25.5 65.5t-60.5 23.5q-81 0 -89 -89zM133 578v106h327v-106h-327z" />
    <glyph glyph-name="Ebreve" unicode="&#x114;" horiz-adv-x="658" 
d="M72 0v700h542v-149h-357v-124h276v-139h-276v-139h357v-149h-542zM139 902h124q2 -22 23.5 -42t60.5 -20q37 0 59 20t24 42h124q-5 -69 -56.5 -112.5t-150.5 -43.5q-101 0 -153 43.5t-55 112.5z" />
    <glyph glyph-name="ebreve" unicode="&#x115;" horiz-adv-x="586" 
d="M30 252q0 117 75 191.5t190 74.5q122 0 190.5 -72.5t68.5 -191.5q0 -16 -2 -40h-349q4 -109 93 -109q68 0 101 78l159 -51q-67 -149 -260 -149q-124 0 -195 72t-71 197zM207 314h175q-3 42 -25.5 65.5t-60.5 23.5q-81 0 -89 -89zM107 704h113q2 -21 22 -41t54 -20
q35 0 54.5 19.5t21.5 41.5h112q-5 -68 -51 -110.5t-137 -42.5t-138.5 43t-50.5 110z" />
    <glyph glyph-name="Edotaccent" unicode="&#x116;" horiz-adv-x="658" 
d="M72 0v700h542v-149h-357v-124h276v-139h-276v-139h357v-149h-542zM261 761v147h167v-147h-167z" />
    <glyph glyph-name="edotaccent" unicode="&#x117;" horiz-adv-x="586" 
d="M30 252q0 117 75 191.5t190 74.5q122 0 190.5 -72.5t68.5 -191.5q0 -16 -2 -40h-349q4 -109 93 -109q68 0 101 78l159 -51q-67 -149 -260 -149q-124 0 -195 72t-71 197zM207 314h175q-3 42 -25.5 65.5t-60.5 23.5q-81 0 -89 -89zM212 563v147h167v-147h-167z" />
    <glyph glyph-name="Eogonek" unicode="&#x118;" horiz-adv-x="658" 
d="M614 551h-357v-124h276v-139h-276v-139h357v-149q-124 -33 -124 -73q0 -30 49 -30q29 0 75 15v-106q-47 -19 -96 -19q-64 0 -101 28.5t-37 74.5q0 66 86 110h-394v700h542v-149z" />
    <glyph glyph-name="eogonek" unicode="&#x119;" horiz-adv-x="586" 
d="M295 518q122 0 190.5 -72.5t68.5 -191.5q0 -16 -2 -40h-349q4 -109 93 -109q68 0 101 78l159 -51q-47 -110 -174 -140q-99 -25 -99 -64q0 -31 49 -31q28 0 75 15v-106q-47 -19 -96 -19q-64 0 -101 28.5t-37 74.5q0 60 64 98q-100 17 -153.5 86.5t-53.5 177.5
q0 117 75 191.5t190 74.5zM207 314h175q-3 42 -25.5 65.5t-60.5 23.5q-81 0 -89 -89z" />
    <glyph glyph-name="Ecaron" unicode="&#x11a;" horiz-adv-x="658" 
d="M72 0v700h542v-149h-357v-124h276v-139h-276v-139h357v-149h-542zM577 892l-124 -138h-218l-123 138h157l76 -73l75 73h157z" />
    <glyph glyph-name="ecaron" unicode="&#x11b;" horiz-adv-x="586" 
d="M30 252q0 117 75 191.5t190 74.5q122 0 190.5 -72.5t68.5 -191.5q0 -16 -2 -40h-349q4 -109 93 -109q68 0 101 78l159 -51q-67 -149 -260 -149q-124 0 -195 72t-71 197zM207 314h175q-3 42 -25.5 65.5t-60.5 23.5q-81 0 -89 -89zM197 566l-112 138h143l68 -76l69 76h143
l-112 -138h-199z" />
    <glyph glyph-name="Gcircumflex" unicode="&#x11c;" horiz-adv-x="805" 
d="M36 346q-2 158 106.5 266t274.5 105q140 0 226 -59.5t116 -151.5l-183 -65q-44 125 -162 125q-81 0 -131 -59.5t-50 -162.5q0 -104 50 -162t130 -58q65 0 105.5 31t50.5 76h-193v140h378v-371h-168q0 63 50 141h-71q-60 -158 -215 -158q-130 -2 -223 97.5t-91 265.5z
M187 764l124 138h218l123 -138h-157l-75 72l-76 -72h-157z" />
    <glyph glyph-name="gcircumflex" unicode="&#x11d;" horiz-adv-x="643" 
d="M19 -105q0 30 21.5 52.5t57.5 31.5v51q-69 12 -69 66q0 69 93 89v51q-62 35 -62 104q0 78 63.5 128t152.5 50q77 0 129 -29t70 -86h48q3 53 21.5 75.5t57.5 22.5h29v-126h-66q-21 0 -29.5 -9.5t-12.5 -40.5l-3 -12q-11 -70 -70 -114t-153 -44q-66 0 -111 20
q-30 -11 -30 -33q0 -15 11 -20.5t36 -5.5h225q83 0 133 -44t50 -109q0 -72 -50.5 -115t-131.5 -43h-284q-126 0 -126 90zM369 332q0 39 -20.5 61.5t-54.5 22.5q-33 0 -53 -22.5t-20 -61.5t19.5 -60t53.5 -21t54.5 21.5t20.5 59.5zM200 -80h192q52 0 52 41q0 39 -52 39h-218
q-21 -14 -21 -39q0 -19 12.5 -30t34.5 -11zM84 566l113 138h198l112 -138h-142l-69 72l-68 -72h-144z" />
    <glyph glyph-name="Gbreve" unicode="&#x11e;" horiz-adv-x="805" 
d="M36 346q-2 158 106.5 266t274.5 105q140 0 226 -59.5t116 -151.5l-183 -65q-44 125 -162 125q-81 0 -131 -59.5t-50 -162.5q0 -104 50 -162t130 -58q65 0 105.5 31t50.5 76h-193v140h378v-371h-168q0 63 50 141h-71q-60 -158 -215 -158q-130 -2 -223 97.5t-91 265.5z
M214 902h124q2 -22 23.5 -42t60.5 -20q37 0 59 20t24 42h124q-5 -69 -56.5 -112.5t-150.5 -43.5q-101 0 -153 43.5t-55 112.5z" />
    <glyph glyph-name="gbreve" unicode="&#x11f;" horiz-adv-x="643" 
d="M19 -105q0 30 21.5 52.5t57.5 31.5v51q-69 12 -69 66q0 69 93 89v51q-62 35 -62 104q0 78 63.5 128t152.5 50q77 0 129 -29t70 -86h48q3 53 21.5 75.5t57.5 22.5h29v-126h-66q-21 0 -29.5 -9.5t-12.5 -40.5l-3 -12q-11 -70 -70 -114t-153 -44q-66 0 -111 20
q-30 -11 -30 -33q0 -15 11 -20.5t36 -5.5h225q83 0 133 -44t50 -109q0 -72 -50.5 -115t-131.5 -43h-284q-126 0 -126 90zM369 332q0 39 -20.5 61.5t-54.5 22.5q-33 0 -53 -22.5t-20 -61.5t19.5 -60t53.5 -21t54.5 21.5t20.5 59.5zM200 -80h192q52 0 52 41q0 39 -52 39h-218
q-21 -14 -21 -39q0 -19 12.5 -30t34.5 -11zM106 704h113q2 -21 21.5 -41t54.5 -20t54.5 19.5t21.5 41.5h112q-5 -68 -51 -110.5t-137 -42.5t-138.5 43t-50.5 110z" />
    <glyph glyph-name="Gdotaccent" unicode="&#x120;" horiz-adv-x="805" 
d="M36 346q-2 158 106.5 266t274.5 105q140 0 226 -59.5t116 -151.5l-183 -65q-44 125 -162 125q-81 0 -131 -59.5t-50 -162.5q0 -104 50 -162t130 -58q65 0 105.5 31t50.5 76h-193v140h378v-371h-168q0 63 50 141h-71q-60 -158 -215 -158q-130 -2 -223 97.5t-91 265.5z
M336 761v147h167v-147h-167z" />
    <glyph glyph-name="gdotaccent" unicode="&#x121;" horiz-adv-x="643" 
d="M19 -105q0 30 21.5 52.5t57.5 31.5v51q-69 12 -69 66q0 69 93 89v51q-62 35 -62 104q0 78 63.5 128t152.5 50q77 0 129 -29t70 -86h48q3 53 21.5 75.5t57.5 22.5h29v-126h-66q-21 0 -29.5 -9.5t-12.5 -40.5l-3 -12q-11 -70 -70 -114t-153 -44q-66 0 -111 20
q-30 -11 -30 -33q0 -15 11 -20.5t36 -5.5h225q83 0 133 -44t50 -109q0 -72 -50.5 -115t-131.5 -43h-284q-126 0 -126 90zM369 332q0 39 -20.5 61.5t-54.5 22.5q-33 0 -53 -22.5t-20 -61.5t19.5 -60t53.5 -21t54.5 21.5t20.5 59.5zM200 -80h192q52 0 52 41q0 39 -52 39h-218
q-21 -14 -21 -39q0 -19 12.5 -30t34.5 -11zM211 563v147h167v-147h-167z" />
    <glyph glyph-name="uni0122" unicode="&#x122;" horiz-adv-x="805" 
d="M36 346q-2 158 106.5 266t274.5 105q140 0 226 -59.5t116 -151.5l-183 -65q-44 125 -162 125q-81 0 -131 -59.5t-50 -162.5q0 -104 50 -162t130 -58q65 0 105.5 31t50.5 76h-193v140h378v-371h-168q0 63 50 141h-71q-60 -158 -215 -158q-130 -2 -223 97.5t-91 265.5z
M346 -353l91 147h-89v149h161v-149l-90 -147h-73z" />
    <glyph glyph-name="uni0123" unicode="&#x123;" horiz-adv-x="643" 
d="M19 -105q0 30 21.5 52.5t57.5 31.5v51q-69 12 -69 66q0 69 93 89v51q-62 35 -62 104q0 78 63.5 128t152.5 50q77 0 129 -29t70 -86h48q3 53 21.5 75.5t57.5 22.5h29v-126h-66q-21 0 -29.5 -9.5t-12.5 -40.5l-3 -12q-11 -70 -70 -114t-153 -44q-66 0 -111 20
q-30 -11 -30 -33q0 -15 11 -20.5t36 -5.5h225q83 0 133 -44t50 -109q0 -72 -50.5 -115t-131.5 -43h-284q-126 0 -126 90zM369 332q0 39 -20.5 61.5t-54.5 22.5q-33 0 -53 -22.5t-20 -61.5t19.5 -60t53.5 -21t54.5 21.5t20.5 59.5zM200 -80h192q52 0 52 41q0 39 -52 39h-218
q-21 -14 -21 -39q0 -19 12.5 -30t34.5 -11zM378 861l-91 -148h89v-148h-161v148l90 148h73z" />
    <glyph glyph-name="Hcircumflex" unicode="&#x124;" horiz-adv-x="778" 
d="M72 0v700h190v-265h254v265h190v-700h-190v284h-254v-284h-190zM159 764l124 138h218l123 -138h-157l-75 72l-76 -72h-157z" />
    <glyph glyph-name="hcircumflex" unicode="&#x125;" horiz-adv-x="612" 
d="M58 0v700h172v-102q0 -127 -59 -212h69q19 62 57 97t94 35q78 0 123 -49t45 -136v-333h-177v303q0 79 -68 79q-80 0 -80 -124v-258h-176zM105 764l113 138h198l112 -138h-142l-69 72l-68 -72h-144z" />
    <glyph glyph-name="Hbar" unicode="&#x126;" horiz-adv-x="818" 
d="M800 617v-107h-77v-510h-190v284h-255v-284h-190v510h-70v107h70v83h190v-83h255v83h190v-83h77zM533 435v75h-255v-75h255z" />
    <glyph glyph-name="hbar" unicode="&#x127;" horiz-adv-x="612" 
d="M559 333v-333h-177v303q0 79 -68 79q-80 0 -80 -124v-258h-176v538h-71v91h71v71h172v-71h149v-91h-152q-10 -85 -56 -152h69q19 62 57 97t94 35q78 0 123 -49t45 -136z" />
    <glyph glyph-name="Itilde" unicode="&#x128;" horiz-adv-x="334" 
d="M72 0v700h190v-700h-190zM168 780l-26 14q-34 19 -52 19q-38 0 -40 -50h-120q-2 71 35.5 109.5t107.5 38.5q46 0 96 -26l26 -15q33 -17 53 -17q38 0 40 49h116q4 -148 -138 -148q-49 0 -98 26z" />
    <glyph glyph-name="itilde" unicode="&#x129;" horiz-adv-x="292" 
d="M58 0v501h176v-501h-176zM146 583l-24 14q-32 18 -48 18q-35 0 -37 -49h-112q-2 69 33.5 108t99.5 39q42 0 89 -26l24 -15q30 -17 49 -17q35 0 37 49h109q4 -148 -129 -148q-45 0 -91 27z" />
    <glyph glyph-name="Imacron" unicode="&#x12a;" horiz-adv-x="334" 
d="M72 0v700h190v-700h-190zM-16 771v105h369v-105h-369z" />
    <glyph glyph-name="imacron" unicode="&#x12b;" horiz-adv-x="292" 
d="M58 0v501h176v-501h-176zM-17 578v106h327v-106h-327z" />
    <glyph glyph-name="Ibreve" unicode="&#x12c;" horiz-adv-x="334" 
d="M72 0v700h190v-700h-190zM-40 902h124q2 -22 23.5 -42t60.5 -20q37 0 59 20t24 42h124q-5 -69 -56.5 -112.5t-150.5 -43.5q-101 0 -153 43.5t-55 112.5z" />
    <glyph glyph-name="ibreve" unicode="&#x12d;" horiz-adv-x="292" 
d="M58 0v501h176v-501h-176zM-43 704h113q2 -21 22 -41t54 -20q35 0 54.5 19.5t21.5 41.5h112q-5 -68 -51 -110.5t-137 -42.5t-138.5 43t-50.5 110z" />
    <glyph glyph-name="Iogonek" unicode="&#x12e;" horiz-adv-x="334" 
d="M188 -103q28 0 75 15v-106q-47 -19 -97 -19q-64 0 -100.5 28t-36.5 75q0 67 85 110h-42v700h190v-700h1q-124 -33 -124 -73q0 -30 49 -30z" />
    <glyph glyph-name="iogonek" unicode="&#x12f;" horiz-adv-x="294" 
d="M234 710v-147h-180v147h180zM112 -73q0 -30 49 -30q29 0 75 15v-106q-47 -19 -97 -19q-64 0 -100.5 28t-36.5 75q0 67 85 110h-27v501h176v-501q-124 -33 -124 -73z" />
    <glyph glyph-name="Idotaccent" unicode="&#x130;" horiz-adv-x="334" 
d="M70 761v147h186v-147h-186zM72 0v700h190v-700h-190z" />
    <glyph glyph-name="dotlessi" unicode="&#x131;" horiz-adv-x="292" 
d="M58 0v501h176v-501h-176z" />
    <glyph glyph-name="IJ" unicode="&#x132;" horiz-adv-x="935" 
d="M72 0v700h190v-700h-190zM347 254l182 44q-1 -87 17.5 -127.5t64.5 -40.5q38 0 54.5 27t16.5 84v459h188v-427q0 -147 -60 -218.5t-190 -71.5q-132 0 -201 71.5t-72 199.5z" />
    <glyph glyph-name="ij" unicode="&#x133;" horiz-adv-x="586" 
d="M54 563v148h182v-148h-182zM57 0v501h177v-501h-177zM351 564v146h181v-146h-181zM253 -195v129h67q37 0 37 41v526h172v-545q0 -70 -38 -110.5t-107 -40.5h-131z" />
    <glyph glyph-name="Jcircumflex" unicode="&#x134;" horiz-adv-x="597" 
d="M9 254l182 44q-1 -87 17.5 -127.5t64.5 -40.5q38 0 54.5 27t16.5 84v459h188v-427q0 -147 -60 -218.5t-190 -71.5q-132 0 -201 71.5t-72 199.5zM203 764l124 138h218l123 -138h-157l-75 72l-76 -72h-157z" />
    <glyph glyph-name="jcircumflex" unicode="&#x135;" horiz-adv-x="297" 
d="M-40 -195v129h69q37 0 37 41v526h173v-545q0 -69 -38 -110t-108 -41h-133zM-60 566l113 138h198l112 -138h-142l-69 72l-68 -72h-144z" />
    <glyph glyph-name="uni0136" unicode="&#x136;" horiz-adv-x="743" 
d="M530 0l-198 299l-75 -79v-220h-185v700h185v-81q0 -64 -21 -107.5t-61 -80.5l44 -44l274 313h237l-266 -279l296 -421h-230zM312 -353l91 147h-89v149h161v-149l-90 -147h-73z" />
    <glyph glyph-name="uni0137" unicode="&#x137;" horiz-adv-x="636" 
d="M439 0l-144 202l-65 -62v-140h-172v700h172v-196q0 -73 -21 -113t-66 -74l41 -45l232 229h210l-206 -192l232 -309h-213zM253 -353l91 147h-89v149h161v-149l-90 -147h-73z" />
    <glyph glyph-name="Lacute" unicode="&#x139;" horiz-adv-x="630" 
d="M72 0v700h190v-547h357v-153h-547zM100 764l55 154h200l-130 -154h-125z" />
    <glyph glyph-name="lacute" unicode="&#x13a;" horiz-adv-x="290" 
d="M58 0v700h174v-700h-174zM90 764l50 154h182l-118 -154h-114z" />
    <glyph glyph-name="uni013B" unicode="&#x13b;" horiz-adv-x="630" 
d="M72 0v700h190v-547h357v-153h-547zM266 -353l91 147h-89v149h161v-149l-90 -147h-73z" />
    <glyph glyph-name="uni013C" unicode="&#x13c;" horiz-adv-x="290" 
d="M58 0v700h174v-700h-174zM62 -353l91 147h-89v149h161v-149l-90 -147h-73z" />
    <glyph glyph-name="Lcaron" unicode="&#x13d;" horiz-adv-x="638" 
d="M346 375l100 163h-98v163h177v-163l-99 -163h-80zM72 0v700h190v-547h357v-153h-547z" />
    <glyph glyph-name="lcaron" unicode="&#x13e;" horiz-adv-x="405" 
d="M58 0v700h174v-700h-174zM291 405l91 147h-89v149h161v-149l-90 -147h-73z" />
    <glyph glyph-name="Ldot" unicode="&#x13f;" horiz-adv-x="640" 
d="M72 0v700h190v-547h357v-153h-547zM375 303v177h193v-177h-193z" />
    <glyph glyph-name="ldot" unicode="&#x140;" horiz-adv-x="500" 
d="M58 0v700h174v-700h-174zM298 279v177h193v-177h-193z" />
    <glyph glyph-name="Lslash" unicode="&#x141;" horiz-adv-x="680" 
d="M312 153h357v-153h-547v236l-90 -43v136l90 42v329h190v-239l202 95v-134l-202 -96v-173z" />
    <glyph glyph-name="lslash" unicode="&#x142;" horiz-adv-x="392" 
d="M372 539v-135l-86 -52v-352h-175v246l-82 -50v135l82 50v319h175v-214z" />
    <glyph glyph-name="Nacute" unicode="&#x143;" horiz-adv-x="846" 
d="M72 0v700h265l288 -512l54 35q-48 74 -68 133.5t-20 139.5v204h183v-700h-216l-339 604l-54 -33q90 -149 90 -299v-272h-183zM360 764l55 154h200l-130 -154h-125z" />
    <glyph glyph-name="nacute" unicode="&#x144;" horiz-adv-x="612" 
d="M58 0v501h159q-1 -49 -46 -115h69q19 62 57.5 97t94.5 35q78 0 122.5 -49t44.5 -136v-333h-176v303q0 79 -68 79q-49 0 -65 -37q-16 -35 -16 -87v-258h-176zM257 566l50 154h182l-118 -154h-114z" />
    <glyph glyph-name="uni0145" unicode="&#x145;" horiz-adv-x="846" 
d="M72 0v700h265l288 -512l54 35q-48 74 -68 133.5t-20 139.5v204h183v-700h-216l-339 604l-54 -33q90 -149 90 -299v-272h-183zM346 -353l91 147h-89v149h161v-149l-90 -147h-73z" />
    <glyph glyph-name="uni0146" unicode="&#x146;" horiz-adv-x="612" 
d="M58 0v501h159q-1 -49 -46 -115h69q19 62 57.5 97t94.5 35q78 0 122.5 -49t44.5 -136v-333h-176v303q0 79 -68 79q-49 0 -65 -37q-16 -35 -16 -87v-258h-176zM226 -353l91 147h-89v149h161v-149l-90 -147h-73z" />
    <glyph glyph-name="Ncaron" unicode="&#x147;" horiz-adv-x="846" 
d="M72 0v700h265l288 -512l54 35q-48 74 -68 133.5t-20 139.5v204h183v-700h-216l-339 604l-54 -33q90 -149 90 -299v-272h-183zM655 892l-124 -138h-218l-123 138h157l76 -73l75 73h157z" />
    <glyph glyph-name="ncaron" unicode="&#x148;" horiz-adv-x="612" 
d="M58 0v501h159q-1 -49 -46 -115h69q19 62 57.5 97t94.5 35q78 0 122.5 -49t44.5 -136v-333h-176v303q0 79 -68 79q-49 0 -65 -37q-16 -35 -16 -87v-258h-176zM213 566l-112 138h143l68 -76l69 76h143l-112 -138h-199z" />
    <glyph glyph-name="Eng" unicode="&#x14a;" horiz-adv-x="846" 
d="M464 -195v142h72q55 0 55 57v26l-353 540l-21 33l-52 -32q53 -91 71 -146t19 -146v-279h-183v700h265l278 -421l22 -33l50 36q-40 62 -58 95q-38 71 -38 171v152h183v-710q0 -87 -48.5 -136t-140.5 -49h-121z" />
    <glyph glyph-name="eng" unicode="&#x14b;" horiz-adv-x="612" 
d="M279 -195v131h62q42 0 42 48v319q0 79 -68 79q-49 0 -65 -37q-16 -35 -16 -87v-258h-176v501h159q-1 -49 -46 -115h69q19 62 57.5 97t94.5 35q79 0 122.5 -49.5t43.5 -141.5l1 -368q0 -71 -37 -112.5t-106 -41.5h-137z" />
    <glyph glyph-name="Omacron" unicode="&#x14c;" horiz-adv-x="841" 
d="M36 347q0 162 102 266t282 104q180 2 283.5 -104t101.5 -266q0 -161 -101 -262.5t-284 -101.5q-182 0 -283 101.5t-101 262.5zM605 348q0 99 -49 158.5t-135 59.5t-135.5 -60t-49.5 -158q0 -97 49 -155.5t136 -58.5q86 0 135 58.5t49 155.5zM235 771v105h369v-105h-369z
" />
    <glyph glyph-name="omacron" unicode="&#x14d;" horiz-adv-x="616" 
d="M29 250q0 121 77 194.5t201 73.5t201.5 -73.5t77.5 -194.5t-77 -194t-202 -73q-123 0 -200.5 75t-77.5 192zM402 250q0 70 -24.5 106t-69.5 36q-95 0 -95 -142q0 -141 95 -141q94 0 94 141zM145 578v106h327v-106h-327z" />
    <glyph glyph-name="Obreve" unicode="&#x14e;" horiz-adv-x="841" 
d="M36 347q0 162 102 266t282 104q180 2 283.5 -104t101.5 -266q0 -161 -101 -262.5t-284 -101.5q-182 0 -283 101.5t-101 262.5zM605 348q0 99 -49 158.5t-135 59.5t-135.5 -60t-49.5 -158q0 -97 49 -155.5t136 -58.5q86 0 135 58.5t49 155.5zM212 902h124q2 -22 23.5 -42
t60.5 -20q37 0 59 20t24 42h124q-5 -69 -56.5 -112.5t-150.5 -43.5q-101 0 -153 43.5t-55 112.5z" />
    <glyph glyph-name="obreve" unicode="&#x14f;" horiz-adv-x="616" 
d="M29 250q0 121 77 194.5t201 73.5t201.5 -73.5t77.5 -194.5t-77 -194t-202 -73q-123 0 -200.5 75t-77.5 192zM402 250q0 70 -24.5 106t-69.5 36q-95 0 -95 -142q0 -141 95 -141q94 0 94 141zM119 704h113q2 -21 22 -41t54 -20q35 0 54.5 19.5t21.5 41.5h112
q-5 -68 -51 -110.5t-137 -42.5t-138.5 43t-50.5 110z" />
    <glyph glyph-name="Ohungarumlaut" unicode="&#x150;" horiz-adv-x="841" 
d="M36 347q0 162 102 266t282 104q180 2 283.5 -104t101.5 -266q0 -161 -101 -262.5t-284 -101.5q-182 0 -283 101.5t-101 262.5zM605 348q0 99 -49 158.5t-135 59.5t-135.5 -60t-49.5 -158q0 -97 49 -155.5t136 -58.5q86 0 135 58.5t49 155.5zM235 764l54 154h200
l-129 -154h-125zM465 764l54 154h200l-129 -154h-125z" />
    <glyph glyph-name="ohungarumlaut" unicode="&#x151;" horiz-adv-x="616" 
d="M29 250q0 121 77 194.5t201 73.5t201.5 -73.5t77.5 -194.5t-77 -194t-202 -73q-123 0 -200.5 75t-77.5 192zM402 250q0 70 -24.5 106t-69.5 36q-95 0 -95 -142q0 -141 95 -141q94 0 94 141zM141 566l50 154h181l-117 -154h-114zM350 566l50 154h181l-117 -154h-114z" />
    <glyph glyph-name="OE" unicode="&#x152;" horiz-adv-x="1178" 
d="M37 349q-2 155 88.5 262.5t216.5 104.5q95 0 151 -46t78 -106h61q-27 68 -27 136h530v-150h-355v-119h272v-140h-272v-142h355v-149h-530q0 69 27 135h-61q-22 -60 -78 -106t-149 -46q-129 -2 -219 104t-88 262zM601 347q0 101 -48 160t-135 59t-134.5 -59t-47.5 -160
q0 -102 47.5 -157.5t134.5 -55.5q89 0 136 55.5t47 157.5z" />
    <glyph glyph-name="oe" unicode="&#x153;" horiz-adv-x="958" 
d="M30 250q0 119 67.5 193.5t171.5 74.5q143 0 199 -125h52q16 50 60 87.5t114 37.5q105 0 169 -73t64 -187q0 -20 -3 -42h-349q2 -55 26.5 -83t66.5 -28q68 0 101 78l159 -51q-67 -149 -233 -149q-76 0 -123 34.5t-63 88.5h-51q-56 -123 -193 -123q-100 0 -167.5 74.5
t-67.5 192.5zM579 313h175q-2 43 -24.5 66.5t-61.5 23.5q-78 0 -89 -90zM403 250q0 142 -95 142t-95 -142q0 -141 95 -141t95 141z" />
    <glyph glyph-name="Racute" unicode="&#x154;" horiz-adv-x="739" 
d="M72 0v700h369q115 0 180.5 -49t65.5 -132q0 -68 -36 -104q-33 -33 -79 -45t-116 -15v-59q105 -2 153.5 -31t64.5 -113l31 -152h-200l-27 162q-7 52 -33 74t-79 22h-108v-258h-186zM258 394h139q44 0 70 21t26 59t-25.5 58.5t-70.5 20.5h-139v-159zM288 764l55 154h200
l-130 -154h-125z" />
    <glyph glyph-name="racute" unicode="&#x155;" horiz-adv-x="454" 
d="M58 0v501h156q0 -85 -41 -157h69q14 88 51.5 129t105.5 41q27 0 40 -3v-169q-38 5 -64 5q-75 0 -108 -36.5t-33 -122.5v-188h-176zM193 566l50 154h182l-118 -154h-114z" />
    <glyph glyph-name="uni0156" unicode="&#x156;" horiz-adv-x="739" 
d="M72 0v700h369q115 0 180.5 -49t65.5 -132q0 -68 -36 -104q-33 -33 -79 -45t-116 -15v-59q105 -2 153.5 -31t64.5 -113l31 -152h-200l-27 162q-7 52 -33 74t-79 22h-108v-258h-186zM258 394h139q44 0 70 21t26 59t-25.5 58.5t-70.5 20.5h-139v-159zM291 -353l91 147h-89
v149h161v-149l-90 -147h-73z" />
    <glyph glyph-name="uni0157" unicode="&#x157;" horiz-adv-x="454" 
d="M58 0v501h156q0 -85 -41 -157h69q14 88 51.5 129t105.5 41q27 0 40 -3v-169q-38 5 -64 5q-75 0 -108 -36.5t-33 -122.5v-188h-176zM66 -353l91 147h-89v149h161v-149l-90 -147h-73z" />
    <glyph glyph-name="Rcaron" unicode="&#x158;" horiz-adv-x="739" 
d="M72 0v700h369q115 0 180.5 -49t65.5 -132q0 -68 -36 -104q-33 -33 -79 -45t-116 -15v-59q105 -2 153.5 -31t64.5 -113l31 -152h-200l-27 162q-7 52 -33 74t-79 22h-108v-258h-186zM258 394h139q44 0 70 21t26 59t-25.5 58.5t-70.5 20.5h-139v-159zM583 892l-124 -138
h-218l-123 138h157l76 -73l75 73h157z" />
    <glyph glyph-name="rcaron" unicode="&#x159;" horiz-adv-x="454" 
d="M58 0v501h156q0 -85 -41 -157h69q14 88 51.5 129t105.5 41q27 0 40 -3v-169q-38 5 -64 5q-75 0 -108 -36.5t-33 -122.5v-188h-176zM150 566l-112 138h143l68 -76l69 76h143l-112 -138h-199z" />
    <glyph glyph-name="Sacute" unicode="&#x15a;" horiz-adv-x="708" 
d="M22 199l185 48q10 -54 48.5 -88.5t101.5 -34.5q58 0 87.5 20.5t29.5 55.5q0 59 -95 73l-87 11q-119 15 -177 66.5t-58 147.5q0 95 80.5 157t215.5 62q129 0 208.5 -52.5t103.5 -139.5l-184 -47q-31 99 -132 99q-50 0 -75.5 -20t-25.5 -52q0 -56 82 -66l87 -11
q122 -15 188 -71t66 -148q0 -101 -82 -163.5t-234 -62.5q-142 0 -227.5 59t-105.5 157zM294 764l55 154h200l-130 -154h-125z" />
    <glyph glyph-name="sacute" unicode="&#x15b;" horiz-adv-x="545" 
d="M20 135l160 33q2 -25 25 -49t71 -24q32 0 50 12t18 32q0 36 -59 48l-66 12q-93 17 -135 52.5t-42 104.5q0 72 61 117t168 45q98 0 155.5 -36.5t73.5 -88.5l-151 -45q-9 29 -32 46t-55 17q-29 0 -44.5 -11.5t-15.5 -30.5q0 -18 14.5 -27.5t51.5 -16.5l71 -12
q180 -32 180 -160q0 -78 -65 -123t-184 -45q-106 0 -171 42t-79 108zM221 566l50 154h182l-118 -154h-114z" />
    <glyph glyph-name="Scircumflex" unicode="&#x15c;" horiz-adv-x="708" 
d="M22 199l185 48q10 -54 48.5 -88.5t101.5 -34.5q58 0 87.5 20.5t29.5 55.5q0 59 -95 73l-87 11q-119 15 -177 66.5t-58 147.5q0 95 80.5 157t215.5 62q129 0 208.5 -52.5t103.5 -139.5l-184 -47q-31 99 -132 99q-50 0 -75.5 -20t-25.5 -52q0 -56 82 -66l87 -11
q122 -15 188 -71t66 -148q0 -101 -82 -163.5t-234 -62.5q-142 0 -227.5 59t-105.5 157zM123 764l124 138h218l123 -138h-157l-75 72l-76 -72h-157z" />
    <glyph glyph-name="scircumflex" unicode="&#x15d;" horiz-adv-x="545" 
d="M20 135l160 33q2 -25 25 -49t71 -24q32 0 50 12t18 32q0 36 -59 48l-66 12q-93 17 -135 52.5t-42 104.5q0 72 61 117t168 45q98 0 155.5 -36.5t73.5 -88.5l-151 -45q-9 29 -32 46t-55 17q-29 0 -44.5 -11.5t-15.5 -30.5q0 -18 14.5 -27.5t51.5 -16.5l71 -12
q180 -32 180 -160q0 -78 -65 -123t-184 -45q-106 0 -171 42t-79 108zM64 566l113 138h198l112 -138h-142l-69 72l-68 -72h-144z" />
    <glyph glyph-name="Scedilla" unicode="&#x15e;" horiz-adv-x="708" 
d="M418 -14l-11 -10q-15 -12 -29 -25h11q38 -2 66 -25.5t28 -66.5q0 -42 -36 -72t-106 -30q-43 0 -80 18t-55 40l58 70q38 -34 72 -34q38 0 38 23q0 9 -9.5 15.5t-24.5 6.5t-27 -4l-36 47l45 45q-128 7 -204.5 65.5t-95.5 149.5l185 48q10 -54 48.5 -88.5t101.5 -34.5
q58 0 87.5 20.5t29.5 55.5q0 59 -95 73l-87 11q-119 15 -177 66.5t-58 147.5q0 95 80.5 157t215.5 62q129 0 208.5 -52.5t103.5 -139.5l-184 -47q-31 99 -132 99q-50 0 -75.5 -20t-25.5 -52q0 -56 82 -66l87 -11q122 -15 188 -71t66 -148q0 -91 -65 -150.5t-188 -72.5z" />
    <glyph glyph-name="scedilla" unicode="&#x15f;" horiz-adv-x="545" 
d="M342 -10l-14 -13l-28 -24l11 -1q37 -2 64 -24.5t27 -63.5q0 -42 -34.5 -70.5t-103.5 -28.5q-41 0 -76.5 18t-53.5 38l55 68q36 -34 71 -34q36 0 36 22t-32 22q-14 0 -27 -3l-35 45l45 44q-97 6 -156 47t-71 103l160 33q2 -25 25 -49t71 -24q32 0 50 12t18 32q0 36 -59 48
l-66 12q-93 17 -135 52.5t-42 104.5q0 72 61 117t168 45q98 0 155.5 -36.5t73.5 -88.5l-151 -45q-9 29 -32 46t-55 17q-29 0 -44.5 -11.5t-15.5 -30.5q0 -18 14.5 -27.5t51.5 -16.5l71 -12q180 -32 180 -160q0 -66 -45.5 -108t-131.5 -55z" />
    <glyph glyph-name="Scaron" unicode="&#x160;" horiz-adv-x="708" 
d="M22 199l185 48q10 -54 48.5 -88.5t101.5 -34.5q58 0 87.5 20.5t29.5 55.5q0 59 -95 73l-87 11q-119 15 -177 66.5t-58 147.5q0 95 80.5 157t215.5 62q129 0 208.5 -52.5t103.5 -139.5l-184 -47q-31 99 -132 99q-50 0 -75.5 -20t-25.5 -52q0 -56 82 -66l87 -11
q122 -15 188 -71t66 -148q0 -101 -82 -163.5t-234 -62.5q-142 0 -227.5 59t-105.5 157zM588 892l-124 -138h-218l-123 138h157l76 -73l75 73h157z" />
    <glyph glyph-name="scaron" unicode="&#x161;" horiz-adv-x="545" 
d="M20 135l160 33q2 -25 25 -49t71 -24q32 0 50 12t18 32q0 36 -59 48l-66 12q-93 17 -135 52.5t-42 104.5q0 72 61 117t168 45q98 0 155.5 -36.5t73.5 -88.5l-151 -45q-9 29 -32 46t-55 17q-29 0 -44.5 -11.5t-15.5 -30.5q0 -18 14.5 -27.5t51.5 -16.5l71 -12
q180 -32 180 -160q0 -78 -65 -123t-184 -45q-106 0 -171 42t-79 108zM178 566l-112 138h143l68 -76l69 76h143l-112 -138h-199z" />
    <glyph glyph-name="uni0162" unicode="&#x162;" horiz-adv-x="665" 
d="M427 0l-34 -23l-37 -24l11 -1q37 -2 64 -24.5t27 -63.5q0 -42 -34.5 -70.5t-103.5 -28.5q-41 0 -76.5 18t-53.5 38l56 68q34 -34 70 -34q37 0 37 22q0 9 -9.5 15.5t-24.5 6.5q-12 0 -26 -3l-36 52l75 52h-95v556h-226v144h643v-144h-227v-556z" />
    <glyph glyph-name="uni0163" unicode="&#x163;" horiz-adv-x="448" 
d="M333 0l-25 -23l-28 -24l11 -1q36 -2 63.5 -24.5t27.5 -63.5q0 -42 -34.5 -70.5t-103.5 -28.5q-41 0 -76.5 18t-53.5 38l55 68q36 -34 71 -34q36 0 36 22t-32 22q-15 0 -27 -3l-35 45l60 59q-62 4 -95.5 42t-33.5 102v235h-101v122h101v155h173v-155h120v-122h-120v-208
q0 -39 39 -39h105v-132h-97z" />
    <glyph glyph-name="Tcaron" unicode="&#x164;" horiz-adv-x="665" 
d="M237 0v556h-226v144h643v-144h-227v-556h-190zM564 892l-124 -138h-218l-123 138h157l76 -73l75 73h157z" />
    <glyph glyph-name="tcaron" unicode="&#x165;" horiz-adv-x="448" 
d="M113 144v235h-101v122h101v155h173v-155h120v-122h-120v-208q0 -39 39 -39h105v-132h-176q-68 0 -104.5 37.5t-36.5 106.5zM344 542l91 147h-89v149h161v-149l-90 -147h-73z" />
    <glyph glyph-name="Tbar" unicode="&#x166;" horiz-adv-x="675" 
d="M659 556h-226v-126h128v-120h-128v-310h-190v310h-133v120h133v126h-227v144h643v-144z" />
    <glyph glyph-name="tbar" unicode="&#x167;" horiz-adv-x="458" 
d="M333 132h105v-132h-176q-68 0 -104.5 37.5t-36.5 106.5v84h-101v106h101v45h-101v122h101v155h172v-155h121v-122h-121v-45h121v-106h-121v-57q0 -39 40 -39z" />
    <glyph glyph-name="Utilde" unicode="&#x168;" horiz-adv-x="781" 
d="M64 285v415h189v-390q0 -170 137 -170t137 170v390h189v-415q0 -145 -86.5 -223.5t-239.5 -78.5q-155 0 -240.5 78.5t-85.5 223.5zM391 780l-26 14q-34 19 -52 19q-38 0 -40 -50h-120q-2 71 35.5 109.5t107.5 38.5q46 0 96 -26l26 -15q33 -17 53 -17q38 0 40 49h116
q4 -148 -138 -148q-49 0 -98 26z" />
    <glyph glyph-name="utilde" unicode="&#x169;" horiz-adv-x="607" 
d="M53 165v336h176v-302q0 -39 17 -59.5t48 -20.5q39 0 60 32t21 86v264h174v-501h-160q0 46 42 112h-67q-44 -128 -157 -128q-71 0 -112.5 47.5t-41.5 133.5zM303 583l-24 14q-31 18 -48 18q-35 0 -37 -49h-112q-2 69 33.5 108t99.5 39q42 0 89 -26l24 -15q30 -17 49 -17
q35 0 37 49h109q4 -148 -129 -148q-45 0 -91 27z" />
    <glyph glyph-name="Umacron" unicode="&#x16a;" horiz-adv-x="781" 
d="M64 285v415h189v-390q0 -170 137 -170t137 170v390h189v-415q0 -145 -86.5 -223.5t-239.5 -78.5q-155 0 -240.5 78.5t-85.5 223.5zM206 771v105h369v-105h-369z" />
    <glyph glyph-name="umacron" unicode="&#x16b;" horiz-adv-x="607" 
d="M53 165v336h176v-302q0 -39 17 -59.5t48 -20.5q39 0 60 32t21 86v264h174v-501h-160q0 46 42 112h-67q-44 -128 -157 -128q-71 0 -112.5 47.5t-41.5 133.5zM139 578v106h327v-106h-327z" />
    <glyph glyph-name="Ubreve" unicode="&#x16c;" horiz-adv-x="781" 
d="M64 285v415h189v-390q0 -170 137 -170t137 170v390h189v-415q0 -145 -86.5 -223.5t-239.5 -78.5q-155 0 -240.5 78.5t-85.5 223.5zM183 902h124q2 -22 23.5 -42t60.5 -20q37 0 59 20t24 42h124q-5 -69 -56.5 -112.5t-150.5 -43.5q-101 0 -153 43.5t-55 112.5z" />
    <glyph glyph-name="ubreve" unicode="&#x16d;" horiz-adv-x="607" 
d="M53 165v336h176v-302q0 -39 17 -59.5t48 -20.5q39 0 60 32t21 86v264h174v-501h-160q0 46 42 112h-67q-44 -128 -157 -128q-71 0 -112.5 47.5t-41.5 133.5zM113 704h113q2 -21 22 -41t54 -20q35 0 54.5 19.5t21.5 41.5h112q-5 -68 -51 -110.5t-137 -42.5t-138.5 43
t-50.5 110z" />
    <glyph glyph-name="Uring" unicode="&#x16e;" horiz-adv-x="781" 
d="M64 285v415h189v-390q0 -170 137 -170t137 170v390h189v-415q0 -145 -86.5 -223.5t-239.5 -78.5q-155 0 -240.5 78.5t-85.5 223.5zM244 874q0 60 44 101t102 41t101 -40t43 -100t-42 -98.5t-102 -38.5q-59 0 -102.5 38.5t-43.5 96.5zM438 877q0 22 -14 36t-34 14
q-22 0 -36 -14t-14 -36t14 -36.5t36 -14.5q21 0 34.5 14.5t13.5 36.5z" />
    <glyph glyph-name="uring" unicode="&#x16f;" horiz-adv-x="607" 
d="M53 165v336h176v-302q0 -39 17 -59.5t48 -20.5q39 0 60 32t21 86v264h174v-501h-160q0 46 42 112h-67q-44 -128 -157 -128q-71 0 -112.5 47.5t-41.5 133.5zM169 673q0 56 40.5 93.5t93.5 37.5q55 0 94.5 -37t39.5 -92q0 -54 -39.5 -90t-94.5 -36q-54 0 -94 35.5t-40 88.5
zM348 676q0 21 -13 33.5t-32 12.5q-20 0 -32.5 -12.5t-12.5 -33.5q0 -20 12.5 -33t32.5 -13t32.5 13t12.5 33z" />
    <glyph glyph-name="Uhungarumlaut" unicode="&#x170;" horiz-adv-x="781" 
d="M64 285v415h189v-390q0 -170 137 -170t137 170v390h189v-415q0 -145 -86.5 -223.5t-239.5 -78.5q-155 0 -240.5 78.5t-85.5 223.5zM205 764l54 154h200l-129 -154h-125zM435 764l54 154h200l-129 -154h-125z" />
    <glyph glyph-name="uhungarumlaut" unicode="&#x171;" horiz-adv-x="607" 
d="M53 165v336h176v-302q0 -39 17 -59.5t48 -20.5q39 0 60 32t21 86v264h174v-501h-160q0 46 42 112h-67q-44 -128 -157 -128q-71 0 -112.5 47.5t-41.5 133.5zM135 566l50 154h181l-117 -154h-114zM344 566l50 154h181l-117 -154h-114z" />
    <glyph glyph-name="Uogonek" unicode="&#x172;" horiz-adv-x="781" 
d="M280 -113q0 59 60 99q-134 10 -205 88.5t-71 210.5v415h189v-390q0 -170 137 -170t137 170v390h189v-415q0 -115 -54 -188t-154 -100q-119 -29 -119 -70q0 -30 49 -30q30 0 75 15v-106q-47 -19 -99 -19q-62 0 -98 28.5t-36 71.5z" />
    <glyph glyph-name="uogonek" unicode="&#x173;" horiz-adv-x="607" 
d="M475 -103q29 0 75 15v-106q-47 -19 -97 -19q-64 0 -100.5 28t-36.5 75q0 67 85 110h-12q0 46 42 112h-67q-44 -128 -157 -128q-71 0 -112.5 47.5t-41.5 133.5v336h176v-302q0 -39 17 -59.5t48 -20.5q39 0 60 32t21 86v264h174v-501h1q-124 -33 -124 -73q0 -30 49 -30z
" />
    <glyph glyph-name="Wcircumflex" unicode="&#x174;" horiz-adv-x="1080" 
d="M193 0l-182 700h204l44 -204q21 -103 21 -287q0 -49 -1 -62h64v42q0 130 25 260l63 251h225l64 -250q26 -120 26 -267v-36h64l-1 63q0 187 20 282l44 208h193l-176 -700h-220l-69 278q-23 97 -23 246v39h-64v-41q0 -142 -24 -244l-72 -278h-225zM310 764l124 138h218
l123 -138h-157l-75 72l-76 -72h-157z" />
    <glyph glyph-name="wcircumflex" unicode="&#x175;" horiz-adv-x="869" 
d="M150 0l-142 501h172l26 -114q13 -65 16 -123q3 -38 5 -149v-17h59q0 92 3 145q3 54 15 109l35 149h193l35 -148q11 -55 16 -115q5 -62 5 -140h59v33q0 91 3 143q5 54 18 124l24 103h169l-142 -501h-206l-30 123q-12 50 -17 122q-3 47 -5 168h-62q0 -204 -20 -289
l-30 -124h-199zM224 566l113 138h198l112 -138h-142l-69 72l-68 -72h-144z" />
    <glyph glyph-name="Ycircumflex" unicode="&#x176;" horiz-adv-x="697" 
d="M254 0v273l-252 427h209l62 -110q32 -58 40.5 -104.5t8.5 -127.5h62q0 74 11 127.5t41 110.5l55 104h202l-249 -427v-273h-190zM115 764l124 138h218l123 -138h-157l-75 72l-76 -72h-157z" />
    <glyph glyph-name="ycircumflex" unicode="&#x177;" horiz-adv-x="581" 
d="M404 501h172l-199 -555q-28 -76 -68.5 -108.5t-116.5 -32.5h-156v132h137q24 0 36 10.5t21 39.5l8 22l-250 492h188l67 -157q32 -73 32 -197v-21h59v30q0 125 22 197zM75 566l113 138h198l112 -138h-142l-69 72l-68 -72h-144z" />
    <glyph glyph-name="Ydieresis" unicode="&#x178;" horiz-adv-x="697" 
d="M254 0v273l-252 427h209l62 -110q32 -58 40.5 -104.5t8.5 -127.5h62q0 74 11 127.5t41 110.5l55 104h202l-249 -427v-273h-190zM135 764v132h170v-132h-170zM391 764v132h171v-132h-171z" />
    <glyph glyph-name="Zacute" unicode="&#x179;" horiz-adv-x="668" 
d="M40 0v189l429 403l-43 46q-81 -87 -192 -87h-186v149h568v-188l-428 -402l43 -48q85 93 204 93h200v-155h-595zM266 764l55 154h200l-130 -154h-125z" />
    <glyph glyph-name="zacute" unicode="&#x17a;" horiz-adv-x="511" 
d="M34 0v154l271 247l-38 44q-34 -34 -66.5 -52.5t-81.5 -19.5h-72v128h421v-135l-292 -266l38 -44q40 37 77.5 56t96.5 20h92v-132h-446zM203 566l50 154h182l-118 -154h-114z" />
    <glyph glyph-name="Zdotaccent" unicode="&#x17b;" horiz-adv-x="668" 
d="M40 0v189l429 403l-43 46q-81 -87 -192 -87h-186v149h568v-188l-428 -402l43 -48q85 93 204 93h200v-155h-595zM245 761v147h167v-147h-167z" />
    <glyph glyph-name="zdotaccent" unicode="&#x17c;" horiz-adv-x="511" 
d="M34 0v154l271 247l-38 44q-34 -34 -66.5 -52.5t-81.5 -19.5h-72v128h421v-135l-292 -266l38 -44q40 37 77.5 56t96.5 20h92v-132h-446zM175 563v147h167v-147h-167z" />
    <glyph glyph-name="Zcaron" unicode="&#x17d;" horiz-adv-x="668" 
d="M40 0v189l429 403l-43 46q-81 -87 -192 -87h-186v149h568v-188l-428 -402l43 -48q85 93 204 93h200v-155h-595zM561 892l-124 -138h-218l-123 138h157l76 -73l75 73h157z" />
    <glyph glyph-name="zcaron" unicode="&#x17e;" horiz-adv-x="511" 
d="M34 0v154l271 247l-38 44q-34 -34 -66.5 -52.5t-81.5 -19.5h-72v128h421v-135l-292 -266l38 -44q40 37 77.5 56t96.5 20h92v-132h-446zM160 566l-112 138h143l68 -76l69 76h143l-112 -138h-199z" />
    <glyph glyph-name="florin" unicode="&#x192;" horiz-adv-x="482" 
d="M-46 -200v126q28 -5 43 -5q81 0 92 90l21 146q9 66 31.5 107t66.5 72l-38 48q-32 -26 -53 -36t-46 -10h-40v104h118l14 92q24 183 207 183q50 0 95 -13v-129q-25 4 -49 4q-79 0 -89 -64l-11 -73h129v-101h-142l-48 -339q-28 -211 -223 -211q-40 0 -78 9z" />
    <glyph glyph-name="uni01E2" unicode="&#x1e2;" horiz-adv-x="982" 
d="M938 551h-328v-125h246v-138h-246v-139h328v-149h-500v150h-186l-65 -150h-210l340 700h621v-149zM472 604h-70q-14 -148 -57 -243l-29 -67h122v101q0 91 34 209zM419 771v105h369v-105h-369z" />
    <glyph glyph-name="uni01E3" unicode="&#x1e3;" horiz-adv-x="891" 
d="M32 133q0 168 318 189v19q0 63 -73 63q-72 0 -87 -71l-158 27q9 67 71 112.5t147 45.5q74 0 119.5 -29.5t60.5 -77.5h51q12 44 51 76t104 32q103 0 163.5 -74.5t60.5 -184.5q0 -26 -3 -44h-349q4 -111 94 -111q68 0 100 78l159 -51q-27 -65 -88 -107t-154 -42
q-83 0 -137 37.5t-70 95.5h-51q-13 -60 -55 -96.5t-114 -36.5q-71 0 -115.5 40.5t-44.5 109.5zM512 313h176q-3 43 -25.5 66.5t-61.5 23.5q-78 0 -89 -90zM350 203v30q-74 -7 -111 -27t-37 -58q0 -22 15 -35t42 -13q40 0 65.5 27t25.5 76zM279 578v106h327v-106h-327z" />
    <glyph glyph-name="Aringacute" unicode="&#x1fa;" horiz-adv-x="758" 
d="M552 0l-47 146h-262l-49 -146h-194l254 700h250l253 -700h-205zM290 290h169l-33 104q-18 62 -18 172v38h-63v-26q0 -120 -20 -184zM324 1021l49 123h179l-116 -123h-112zM246 862q0 56 40.5 93.5t94.5 37.5t93.5 -37t39.5 -92q0 -54 -39.5 -90t-93.5 -36t-94.5 35.5
t-40.5 88.5zM426 865q0 21 -13 33.5t-32 12.5q-20 0 -33 -12.5t-13 -33.5q0 -20 13 -33t33 -13q19 0 32 13t13 33z" />
    <glyph glyph-name="aringacute" unicode="&#x1fb;" horiz-adv-x="595" 
d="M34 130q0 170 319 194v18q0 62 -72 62q-75 0 -92 -71l-162 27q9 69 78 113.5t180 44.5q114 0 175 -51t61 -147v-165q0 -18 5 -24t23 -6h39v-125h-79q-62 0 -84 23.5t-24 80.5h-52q-35 -121 -159 -121q-69 0 -112.5 40t-43.5 107zM353 203v30q-74 -7 -111 -27t-37 -58
q0 -48 56 -48q40 0 66 27t26 76zM231 832l49 123h179l-116 -123h-112zM153 673q0 56 40.5 93.5t94.5 37.5t93.5 -37t39.5 -92q0 -54 -39.5 -90t-93.5 -36t-94.5 35.5t-40.5 88.5zM333 676q0 21 -13 33.5t-32 12.5q-20 0 -33 -12.5t-13 -33.5q0 -20 13 -33t33 -13q19 0 32 13
t13 33z" />
    <glyph glyph-name="AEacute" unicode="&#x1fc;" horiz-adv-x="982" 
d="M938 551h-328v-125h246v-138h-246v-139h328v-149h-500v150h-186l-65 -150h-210l340 700h621v-149zM472 604h-70q-14 -148 -57 -243l-29 -67h122v101q0 91 34 209zM540 764l55 154h200l-130 -154h-125z" />
    <glyph glyph-name="aeacute" unicode="&#x1fd;" horiz-adv-x="891" 
d="M32 133q0 168 318 189v19q0 63 -73 63q-72 0 -87 -71l-158 27q9 67 71 112.5t147 45.5q74 0 119.5 -29.5t60.5 -77.5h51q12 44 51 76t104 32q103 0 163.5 -74.5t60.5 -184.5q0 -26 -3 -44h-349q4 -111 94 -111q68 0 100 78l159 -51q-27 -65 -88 -107t-154 -42
q-83 0 -137 37.5t-70 95.5h-51q-13 -60 -55 -96.5t-114 -36.5q-71 0 -115.5 40.5t-44.5 109.5zM512 313h176q-3 43 -25.5 66.5t-61.5 23.5q-78 0 -89 -90zM350 203v30q-74 -7 -111 -27t-37 -58q0 -22 15 -35t42 -13q40 0 65.5 27t25.5 76zM386 566l50 154h182l-118 -154
h-114z" />
    <glyph glyph-name="Oslashacute" unicode="&#x1fe;" horiz-adv-x="842" 
d="M152 -59l-102 89l67 76q-81 98 -81 240q-2 160 101.5 266t283.5 104q113 0 195 -42l73 82l102 -91l-67 -77q81 -98 81 -242q0 -161 -101 -262.5t-283 -101.5q-112 0 -196 41zM257 256l141 174q33 39 63 52.5t74 13.5v58q-47 15 -100 15q-96 0 -147.5 -58t-51.5 -154
q0 -56 21 -101zM605 339q0 57 -21 100l-139 -171q-56 -64 -140 -62v-60q38 -17 100 -17q96 0 148 58t52 152zM358 764l55 154h200l-130 -154h-125z" />
    <glyph glyph-name="oslashacute" unicode="&#x1ff;" horiz-adv-x="619" 
d="M155 22l-50 -50l-72 70l47 48q-49 67 -49 160q0 121 77 194.5t201 73.5q89 0 153 -38l53 53l73 -69l-50 -50q50 -68 50 -164q0 -121 -77 -194t-202 -73q-89 0 -154 39zM219 225l53 62q41 47 90 47q5 0 23 -2v56q-28 12 -67 12q-48 0 -75.5 -35.5t-27.5 -98.5q0 -26 4 -41
zM406 232q0 27 -6 48l-54 -62q-45 -52 -91 -52q-10 0 -16 1v-56q22 -13 56 -13q54 0 82.5 34.5t28.5 99.5zM254 566l50 154h182l-118 -154h-114z" />
    <glyph glyph-name="uni0218" unicode="&#x218;" horiz-adv-x="708" 
d="M22 199l185 48q10 -54 48.5 -88.5t101.5 -34.5q58 0 87.5 20.5t29.5 55.5q0 59 -95 73l-87 11q-119 15 -177 66.5t-58 147.5q0 95 80.5 157t215.5 62q129 0 208.5 -52.5t103.5 -139.5l-184 -47q-31 99 -132 99q-50 0 -75.5 -20t-25.5 -52q0 -56 82 -66l87 -11
q122 -15 188 -71t66 -148q0 -101 -82 -163.5t-234 -62.5q-142 0 -227.5 59t-105.5 157zM273 -353l91 147h-89v149h161v-149l-90 -147h-73z" />
    <glyph glyph-name="uni0219" unicode="&#x219;" horiz-adv-x="545" 
d="M20 135l160 33q2 -25 25 -49t71 -24q32 0 50 12t18 32q0 36 -59 48l-66 12q-93 17 -135 52.5t-42 104.5q0 72 61 117t168 45q98 0 155.5 -36.5t73.5 -88.5l-151 -45q-9 29 -32 46t-55 17q-29 0 -44.5 -11.5t-15.5 -30.5q0 -18 14.5 -27.5t51.5 -16.5l71 -12
q180 -32 180 -160q0 -78 -65 -123t-184 -45q-106 0 -171 42t-79 108zM193 -353l91 147h-89v149h161v-149l-90 -147h-73z" />
    <glyph glyph-name="uni021A" unicode="&#x21a;" horiz-adv-x="665" 
d="M237 0v556h-226v144h643v-144h-227v-556h-190zM249 -353l91 147h-89v149h161v-149l-90 -147h-73z" />
    <glyph glyph-name="uni021B" unicode="&#x21b;" horiz-adv-x="448" 
d="M113 144v235h-101v122h101v155h173v-155h120v-122h-120v-208q0 -39 39 -39h105v-132h-176q-68 0 -104.5 37.5t-36.5 106.5zM173 -353l91 147h-89v149h161v-149l-90 -147h-73z" />
    <glyph glyph-name="uni0226" unicode="&#x226;" horiz-adv-x="758" 
d="M552 0l-47 146h-262l-49 -146h-194l254 700h250l253 -700h-205zM290 290h169l-33 104q-18 62 -18 172v38h-63v-26q0 -120 -20 -184zM295 761v147h167v-147h-167z" />
    <glyph glyph-name="uni0227" unicode="&#x227;" horiz-adv-x="595" 
d="M34 130q0 170 319 194v18q0 62 -72 62q-75 0 -92 -71l-162 27q9 69 78 113.5t180 44.5q114 0 175 -51t61 -147v-165q0 -18 5 -24t23 -6h39v-125h-79q-62 0 -84 23.5t-24 80.5h-52q-35 -121 -159 -121q-69 0 -112.5 40t-43.5 107zM353 203v30q-74 -7 -111 -27t-37 -58
q0 -48 56 -48q40 0 66 27t26 76zM203 563v147h167v-147h-167z" />
    <glyph glyph-name="uni0232" unicode="&#x232;" horiz-adv-x="697" 
d="M254 0v273l-252 427h209l62 -110q32 -58 40.5 -104.5t8.5 -127.5h62q0 74 11 127.5t41 110.5l55 104h202l-249 -427v-273h-190zM165 771v105h369v-105h-369z" />
    <glyph glyph-name="uni0233" unicode="&#x233;" horiz-adv-x="581" 
d="M404 501h172l-199 -555q-28 -76 -68.5 -108.5t-116.5 -32.5h-156v132h137q24 0 36 10.5t21 39.5l8 22l-250 492h188l67 -157q32 -73 32 -197v-21h59v30q0 125 22 197zM124 578v106h327v-106h-327z" />
    <glyph glyph-name="uni0237" unicode="&#x237;" horiz-adv-x="297" 
d="M-40 -195v129h69q37 0 37 41v526h173v-545q0 -69 -38 -110t-108 -41h-133z" />
    <glyph glyph-name="circumflex" unicode="&#x2c6;" horiz-adv-x="722" 
d="M79 566l113 138h198l112 -138h-142l-69 72l-68 -72h-144z" />
    <glyph glyph-name="caron" unicode="&#x2c7;" horiz-adv-x="722" 
d="M188 566l-112 138h143l68 -76l69 76h143l-112 -138h-199z" />
    <glyph glyph-name="breve" unicode="&#x2d8;" horiz-adv-x="471" 
d="M46 704h113q2 -21 21.5 -41t54.5 -20t54.5 19.5t21.5 41.5h112q-5 -68 -51 -110.5t-137 -42.5t-138.5 43t-50.5 110z" />
    <glyph glyph-name="dotaccent" unicode="&#x2d9;" horiz-adv-x="312" 
d="M80 563v147h167v-147h-167z" />
    <glyph glyph-name="ring" unicode="&#x2da;" horiz-adv-x="354" 
d="M43 671q0 56 40.5 93.5t93.5 37.5q55 0 94.5 -37t39.5 -92q0 -54 -39.5 -90t-94.5 -36q-54 0 -94 35.5t-40 88.5zM222 674q0 21 -13 33.5t-32 12.5q-20 0 -32.5 -12.5t-12.5 -33.5q0 -20 12.5 -33t32.5 -13t32.5 13t12.5 33z" />
    <glyph glyph-name="ogonek" unicode="&#x2db;" horiz-adv-x="319" 
d="M35 -110q0 41 38 79q36 36 141 65l55 -34q-124 -33 -124 -73q0 -30 49 -30q28 0 75 15v-106q-47 -19 -96 -19q-64 0 -101 28.5t-37 74.5z" />
    <glyph glyph-name="tilde" unicode="&#x2dc;" horiz-adv-x="527" 
d="M252 583l-24 14q-32 18 -48 18q-35 0 -37 -49h-112q-2 69 33.5 108t99.5 39q42 0 89 -26l24 -15q30 -17 49 -17q35 0 37 49h109q4 -148 -129 -148q-45 0 -91 27z" />
    <glyph glyph-name="hungarumlaut" unicode="&#x2dd;" horiz-adv-x="522" 
d="M56 566l50 154h181l-117 -154h-114zM265 566l50 154h181l-117 -154h-114z" />
    <glyph glyph-name="gravecomb" unicode="&#x300;" horiz-adv-x="0" 
d="M-123 566l-117 154h182l50 -154h-115z" />
    <glyph glyph-name="acutecomb" unicode="&#x301;" horiz-adv-x="0" 
d="M-218 566l50 154h182l-118 -154h-114z" />
    <glyph glyph-name="uni0302" unicode="&#x302;" horiz-adv-x="0" 
d="M-436 566l113 138h198l112 -138h-142l-69 72l-68 -72h-144z" />
    <glyph glyph-name="tildecomb" unicode="&#x303;" horiz-adv-x="0" 
d="M-226 583l-24 14q-32 18 -48 18q-35 0 -37 -49h-112q-2 69 33.5 108t99.5 39q42 0 89 -26l24 -15q30 -17 49 -17q35 0 37 49h109q4 -148 -129 -148q-45 0 -91 27z" />
    <glyph glyph-name="uni0304" unicode="&#x304;" horiz-adv-x="0" 
d="M-348 578v106h327v-106h-327z" />
    <glyph glyph-name="uni0306" unicode="&#x306;" horiz-adv-x="0" 
d="M-395 704h113q2 -21 22 -41t54 -20q35 0 54.5 19.5t21.5 41.5h112q-5 -68 -51 -110.5t-137 -42.5t-138.5 43t-50.5 110z" />
    <glyph glyph-name="uni0307" unicode="&#x307;" horiz-adv-x="0" 
d="M-188 563v147h167v-147h-167z" />
    <glyph glyph-name="uni0308" unicode="&#x308;" horiz-adv-x="0" 
d="M-413 572v132h155v-132h-155zM-180 572v132h155v-132h-155z" />
    <glyph glyph-name="uni030A" unicode="&#x30a;" horiz-adv-x="0" 
d="M-277 673q0 56 40.5 93.5t93.5 37.5q55 0 94.5 -37t39.5 -92q0 -54 -39.5 -90t-94.5 -36q-54 0 -94 35.5t-40 88.5zM-98 676q0 21 -13 33.5t-32 12.5q-20 0 -32.5 -12.5t-12.5 -33.5q0 -20 12.5 -33t32.5 -13t32.5 13t12.5 33z" />
    <glyph glyph-name="uni030B" unicode="&#x30b;" horiz-adv-x="0" 
d="M-431 566l50 154h181l-117 -154h-114zM-222 566l50 154h181l-117 -154h-114z" />
    <glyph glyph-name="uni030C" unicode="&#x30c;" horiz-adv-x="0" 
d="M-334 566l-112 138h143l68 -76l69 76h143l-112 -138h-199z" />
    <glyph glyph-name="uni0312" unicode="&#x312;" horiz-adv-x="0" 
d="M7 861l-91 -148h89v-148h-161v148l90 148h73z" />
    <glyph glyph-name="dotbelowcomb" unicode="&#x323;" horiz-adv-x="0" 
d="M-164 -205v147h167v-147h-167z" />
    <glyph glyph-name="uni0326" unicode="&#x326;" horiz-adv-x="0" 
d="M-171 -353l91 147h-89v149h161v-149l-90 -147h-73z" />
    <glyph glyph-name="uni0327" unicode="&#x327;" horiz-adv-x="0" 
d="M-283 -179l55 68q36 -34 71 -34q36 0 36 22t-32 22q-13 0 -27 -3l-35 45l72 71l82 -10l-28 -25l-28 -24l11 -1q37 -2 64 -24.5t27 -63.5q0 -42 -34.5 -70.5t-103.5 -28.5q-41 0 -76.5 18t-53.5 38z" />
    <glyph glyph-name="uni0328" unicode="&#x328;" horiz-adv-x="0" 
d="M-267 -110q0 41 38 79q36 36 141 65l55 -34q-124 -33 -124 -73q0 -30 49 -30q28 0 75 15v-106q-47 -19 -96 -19q-64 0 -101 28.5t-37 74.5z" />
    <glyph glyph-name="uni0394" unicode="&#x394;" horiz-adv-x="760" 
d="M507 700l253 -700h-760l254 700h253zM247 150h261l-78 244q-20 61 -20 186v24h-64v-31q0 -119 -19 -179z" />
    <glyph glyph-name="uni03A9" unicode="&#x3a9;" horiz-adv-x="849" 
d="M42 0v147h25q88 0 183 -68l32 57q-233 88 -233 264q-2 127 100.5 223t273.5 94q170 2 273 -94.5t101 -222.5q0 -175 -234 -264l32 -57q95 68 183 68h25v-147h-342v145q138 33 138 209q0 97 -47 154.5t-129 57.5q-81 0 -128 -57.5t-47 -154.5q0 -176 137 -209v-145h-343z
" />
    <glyph glyph-name="uni03BC" unicode="&#x3bc;" horiz-adv-x="612" 
d="M58 -195v696h176v-303q0 -79 65 -79q39 0 59.5 32t20.5 85v265h175v-501h-160q2 51 42 112h-67q-34 -96 -112 -102q-7 -10 -24 -18v-187h-175z" />
    <glyph glyph-name="pi" unicode="&#x3c0;" horiz-adv-x="700" 
d="M114 0v367h-97v134h644v-134h-97v-193q0 -40 42 -40h55v-134h-105q-81 0 -120.5 35.5t-39.5 114.5v217h-112v-367h-170z" />
    <glyph glyph-name="Wgrave" unicode="&#x1e80;" horiz-adv-x="1080" 
d="M193 0l-182 700h204l44 -204q21 -103 21 -287q0 -49 -1 -62h64v42q0 130 25 260l63 251h225l64 -250q26 -120 26 -267v-36h64l-1 63q0 187 20 282l44 208h193l-176 -700h-220l-69 278q-23 97 -23 246v39h-64v-41q0 -142 -24 -244l-72 -278h-225zM485 764l-129 154h200
l55 -154h-126z" />
    <glyph glyph-name="wgrave" unicode="&#x1e81;" horiz-adv-x="869" 
d="M150 0l-142 501h172l26 -114q13 -65 16 -123q3 -38 5 -149v-17h59q0 92 3 145q3 54 15 109l35 149h193l35 -148q11 -55 16 -115q5 -62 5 -140h59v33q0 91 3 143q5 54 18 124l24 103h169l-142 -501h-206l-30 123q-12 50 -17 122q-3 47 -5 168h-62q0 -204 -20 -289
l-30 -124h-199zM378 566l-117 154h182l50 -154h-115z" />
    <glyph glyph-name="Wacute" unicode="&#x1e82;" horiz-adv-x="1080" 
d="M193 0l-182 700h204l44 -204q21 -103 21 -287q0 -49 -1 -62h64v42q0 130 25 260l63 251h225l64 -250q26 -120 26 -267v-36h64l-1 63q0 187 20 282l44 208h193l-176 -700h-220l-69 278q-23 97 -23 246v39h-64v-41q0 -142 -24 -244l-72 -278h-225zM481 764l55 154h200
l-130 -154h-125z" />
    <glyph glyph-name="wacute" unicode="&#x1e83;" horiz-adv-x="869" 
d="M150 0l-142 501h172l26 -114q13 -65 16 -123q3 -38 5 -149v-17h59q0 92 3 145q3 54 15 109l35 149h193l35 -148q11 -55 16 -115q5 -62 5 -140h59v33q0 91 3 143q5 54 18 124l24 103h169l-142 -501h-206l-30 123q-12 50 -17 122q-3 47 -5 168h-62q0 -204 -20 -289
l-30 -124h-199zM380 566l50 154h182l-118 -154h-114z" />
    <glyph glyph-name="Wdieresis" unicode="&#x1e84;" horiz-adv-x="1080" 
d="M193 0l-182 700h204l44 -204q21 -103 21 -287q0 -49 -1 -62h64v42q0 130 25 260l63 251h225l64 -250q26 -120 26 -267v-36h64l-1 63q0 187 20 282l44 208h193l-176 -700h-220l-69 278q-23 97 -23 246v39h-64v-41q0 -142 -24 -244l-72 -278h-225zM330 764v132h170v-132
h-170zM586 764v132h171v-132h-171z" />
    <glyph glyph-name="wdieresis" unicode="&#x1e85;" horiz-adv-x="869" 
d="M150 0l-142 501h172l26 -114q13 -65 16 -123q3 -38 5 -149v-17h59q0 92 3 145q3 54 15 109l35 149h193l35 -148q11 -55 16 -115q5 -62 5 -140h59v33q0 91 3 143q5 54 18 124l24 103h169l-142 -501h-206l-30 123q-12 50 -17 122q-3 47 -5 168h-62q0 -204 -20 -289
l-30 -124h-199zM242 572v132h155v-132h-155zM475 572v132h155v-132h-155z" />
    <glyph glyph-name="uni1E9E" unicode="&#x1e9e;" horiz-adv-x="741" 
d="M323 8v152q51 -19 93 -19q49 0 75.5 19t26.5 55q0 33 -26.5 52t-74.5 19h-76v138h47q43 0 67.5 17t24.5 50q0 65 -92 65h-131v-556h-185v700h360q110 0 170 -43.5t60 -112.5t-49.5 -107.5t-140.5 -40.5v-59q4 1 18 1q95 0 156.5 -42t61.5 -121q0 -86 -68 -139t-181 -53
q-86 0 -136 25z" />
    <glyph glyph-name="uni1EA0" unicode="&#x1ea0;" horiz-adv-x="758" 
d="M552 0l-47 146h-262l-49 -146h-194l254 700h250l253 -700h-205zM290 290h169l-33 104q-18 62 -18 172v38h-63v-26q0 -120 -20 -184zM290 -205v147h167v-147h-167z" />
    <glyph glyph-name="uni1EA1" unicode="&#x1ea1;" horiz-adv-x="595" 
d="M34 130q0 170 319 194v18q0 62 -72 62q-75 0 -92 -71l-162 27q9 69 78 113.5t180 44.5q114 0 175 -51t61 -147v-165q0 -18 5 -24t23 -6h39v-125h-79q-62 0 -84 23.5t-24 80.5h-52q-35 -121 -159 -121q-69 0 -112.5 40t-43.5 107zM353 203v30q-74 -7 -111 -27t-37 -58
q0 -48 56 -48q40 0 66 27t26 76zM209 -205v147h167v-147h-167z" />
    <glyph glyph-name="uni1EB8" unicode="&#x1eb8;" horiz-adv-x="658" 
d="M72 0v700h542v-149h-357v-124h276v-139h-276v-139h357v-149h-542zM262 -205v147h167v-147h-167z" />
    <glyph glyph-name="uni1EB9" unicode="&#x1eb9;" horiz-adv-x="586" 
d="M30 252q0 117 75 191.5t190 74.5q122 0 190.5 -72.5t68.5 -191.5q0 -16 -2 -40h-349q4 -109 93 -109q68 0 101 78l159 -51q-67 -149 -260 -149q-124 0 -195 72t-71 197zM207 314h175q-3 42 -25.5 65.5t-60.5 23.5q-81 0 -89 -89zM223 -205v147h167v-147h-167z" />
    <glyph glyph-name="uni1ECA" unicode="&#x1eca;" horiz-adv-x="334" 
d="M72 0v700h190v-700h-190zM84 -205v147h167v-147h-167z" />
    <glyph glyph-name="uni1ECB" unicode="&#x1ecb;" horiz-adv-x="291" 
d="M54 564v146h181v-146h-181zM58 0v501h174v-501h-174zM54 -206v146h181v-146h-181z" />
    <glyph glyph-name="uni1ECC" unicode="&#x1ecc;" horiz-adv-x="841" 
d="M36 347q0 162 102 266t282 104q180 2 283.5 -104t101.5 -266q0 -161 -101 -262.5t-284 -101.5q-182 0 -283 101.5t-101 262.5zM605 348q0 99 -49 158.5t-135 59.5t-135.5 -60t-49.5 -158q0 -97 49 -155.5t136 -58.5q86 0 135 58.5t49 155.5zM334 -205v147h167v-147h-167z
" />
    <glyph glyph-name="uni1ECD" unicode="&#x1ecd;" horiz-adv-x="616" 
d="M29 250q0 121 77 194.5t201 73.5t201.5 -73.5t77.5 -194.5t-77 -194t-202 -73q-123 0 -200.5 75t-77.5 192zM402 250q0 70 -24.5 106t-69.5 36q-95 0 -95 -142q0 -141 95 -141q94 0 94 141zM224 -205v147h167v-147h-167z" />
    <glyph glyph-name="uni1EE4" unicode="&#x1ee4;" horiz-adv-x="781" 
d="M64 285v415h189v-390q0 -170 137 -170t137 170v390h189v-415q0 -145 -86.5 -223.5t-239.5 -78.5q-155 0 -240.5 78.5t-85.5 223.5zM308 -205v147h167v-147h-167z" />
    <glyph glyph-name="uni1EE5" unicode="&#x1ee5;" horiz-adv-x="607" 
d="M53 165v336h176v-302q0 -39 17 -59.5t48 -20.5q39 0 60 32t21 86v264h174v-501h-160q0 46 42 112h-67q-44 -128 -157 -128q-71 0 -112.5 47.5t-41.5 133.5zM218 -205v147h167v-147h-167z" />
    <glyph glyph-name="Ygrave" unicode="&#x1ef2;" horiz-adv-x="697" 
d="M254 0v273l-252 427h209l62 -110q32 -58 40.5 -104.5t8.5 -127.5h62q0 74 11 127.5t41 110.5l55 104h202l-249 -427v-273h-190zM290 764l-129 154h200l55 -154h-126z" />
    <glyph glyph-name="ygrave" unicode="&#x1ef3;" horiz-adv-x="581" 
d="M404 501h172l-199 -555q-28 -76 -68.5 -108.5t-116.5 -32.5h-156v132h137q24 0 36 10.5t21 39.5l8 22l-250 492h188l67 -157q32 -73 32 -197v-21h59v30q0 125 22 197zM230 566l-117 154h182l50 -154h-115z" />
    <glyph glyph-name="uni2002" unicode="&#x2002;" horiz-adv-x="500" 
 />
    <glyph glyph-name="uni2003" unicode="&#x2003;" horiz-adv-x="1000" 
 />
    <glyph glyph-name="uni2009" unicode="&#x2009;" horiz-adv-x="125" 
 />
    <glyph glyph-name="endash" unicode="&#x2013;" horiz-adv-x="661" 
d="M53 254v133h555v-133h-555z" />
    <glyph glyph-name="emdash" unicode="&#x2014;" horiz-adv-x="899" 
d="M54 256v131h791v-131h-791z" />
    <glyph glyph-name="quoteleft" unicode="&#x2018;" horiz-adv-x="278" 
d="M229 701l-103 -167h102v-168h-184v168l102 167h83z" />
    <glyph glyph-name="quoteright" unicode="&#x2019;" horiz-adv-x="271" 
d="M52 365l103 167h-102v168h183v-168l-101 -167h-83z" />
    <glyph glyph-name="quotesinglbase" unicode="&#x201a;" horiz-adv-x="289" 
d="M52 -167l103 167h-102v168h183v-168l-101 -167h-83z" />
    <glyph glyph-name="quotedblleft" unicode="&#x201c;" horiz-adv-x="514" 
d="M229 701l-103 -166h102v-168h-184v168l102 166h83zM465 701l-103 -166h101v-168h-183v168l102 166h83z" />
    <glyph glyph-name="quotedblright" unicode="&#x201d;" horiz-adv-x="506" 
d="M52 365l103 167h-102v168h183v-168l-101 -167h-83zM288 365l103 167h-102v168h183v-168l-101 -167h-83z" />
    <glyph glyph-name="quotedblbase" unicode="&#x201e;" horiz-adv-x="525" 
d="M52 -167l103 167h-102v168h183v-168l-101 -167h-83zM288 -167l103 167h-102v168h183v-168l-101 -167h-83z" />
    <glyph glyph-name="dagger" unicode="&#x2020;" horiz-adv-x="628" 
d="M228 -96v462h-201v147h201v187h171v-187h202v-147h-202v-462h-171z" />
    <glyph glyph-name="daggerdbl" unicode="&#x2021;" horiz-adv-x="661" 
d="M244 -96v183h-201v148h201v131h-201v147h201v187h172v-187h201v-147h-201v-131h201v-148h-201v-183h-172z" />
    <glyph glyph-name="bullet" unicode="&#x2022;" horiz-adv-x="565" 
d="M59 347q-2 89 65.5 156.5t157.5 65.5q92 0 157.5 -65.5t65.5 -156.5q0 -90 -65.5 -156t-157.5 -66q-89 -2 -157 66t-66 156z" />
    <glyph glyph-name="ellipsis" unicode="&#x2026;" horiz-adv-x="874" 
d="M52 0v177h193v-177h-193zM341 0v177h193v-177h-193zM629 0v177h193v-177h-193z" />
    <glyph glyph-name="perthousand" unicode="&#x2030;" horiz-adv-x="1131" 
d="M208 293q-82 0 -130.5 56t-48.5 151t48.5 152t130.5 57t130.5 -57t48.5 -152t-48.5 -151t-130.5 -56zM646 700h134l-509 -700h-136zM208 393q47 0 47 108q0 110 -47 110t-47 -110q0 -108 47 -108zM1116 197q0 -94 -48.5 -150t-130.5 -56q-69 0 -116 41q-47 -41 -116 -41
q-82 0 -130.5 55.5t-48.5 150.5t49 152.5t130 57.5q70 0 116 -43q48 43 116 43q81 0 130 -57.5t49 -152.5zM752 198q0 110 -47 110t-47 -110q0 -108 47 -108t47 108zM985 198q0 110 -48 110q-47 0 -47 -110q0 -108 47 -108q48 0 48 108z" />
    <glyph glyph-name="guilsinglleft" unicode="&#x2039;" horiz-adv-x="372" 
d="M347 495l-151 -245l147 -241h-171l-144 244l146 242h173z" />
    <glyph glyph-name="guilsinglright" unicode="&#x203a;" horiz-adv-x="371" 
d="M200 495l144 -244l-146 -242h-174l151 244l-147 242h172z" />
    <glyph glyph-name="fraction" unicode="&#x2044;" horiz-adv-x="200" 
d="M-225 0l511 700h134l-508 -700h-137z" />
    <glyph glyph-name="uni2070" unicode="&#x2070;" horiz-adv-x="437" 
d="M40 591q0 95 48 152t130 57t130.5 -57t48.5 -152t-48.5 -151t-130.5 -56t-130 56t-48 151zM266 592q0 110 -48 110q-47 0 -47 -110q0 -108 47 -108q48 0 48 108z" />
    <glyph glyph-name="uni2074" unicode="&#x2074;" horiz-adv-x="427" 
d="M223 394v82h-191v108l146 207h157v-222h56v-93h-56v-82h-112zM223 569v26q0 39 45 87l-34 25l-113 -160l32 -21q26 43 59 43h11z" />
    <glyph glyph-name="uni2075" unicode="&#x2075;" horiz-adv-x="404" 
d="M33 500l115 27q11 -45 48 -45q21 0 33.5 12t12.5 33q0 20 -12 32.5t-30 12.5q-28 0 -39 -27l-112 19l34 227h268v-99h-180l-3 -21q-4 -41 -35 -73h49q15 53 76 53q44 0 76 -32t32 -89q0 -66 -45.5 -106t-119.5 -40q-70 0 -114.5 32.5t-53.5 83.5z" />
    <glyph glyph-name="uni2076" unicode="&#x2076;" horiz-adv-x="411" 
d="M39 575q0 104 54.5 164.5t148.5 60.5q67 0 105 -21v-105q-50 27 -103 27q-50 0 -79.5 -27.5t-32.5 -80.5h39q14 67 85 67q46 0 81.5 -32.5t35.5 -93.5q0 -67 -44.5 -108.5t-115.5 -41.5q-82 0 -128 54.5t-46 136.5zM250 529q0 21 -11.5 34t-30.5 13q-18 0 -29.5 -13
t-11.5 -34t11.5 -34t29.5 -13q19 0 30.5 13.5t11.5 33.5z" />
    <glyph glyph-name="uni2077" unicode="&#x2077;" horiz-adv-x="369" 
d="M253 694l18 10l-23 37q-66 -49 -142 -49h-74v99h307v-115q-63 -39 -97.5 -113.5t-33.5 -168.5l-131 -1q-2 112 50 184q53 73 126 117z" />
    <glyph glyph-name="uni2078" unicode="&#x2078;" horiz-adv-x="411" 
d="M39 492q0 39 29.5 62.5t83.5 25.5v42q-49 1 -76 21t-27 56q0 47 42.5 74t113.5 27q70 0 113.5 -27t43.5 -74q0 -36 -28 -56t-76 -21v-42q52 -3 82.5 -26.5t30.5 -61.5q0 -49 -45.5 -78.5t-120.5 -29.5q-76 0 -121 29t-45 79zM242 672q0 16 -10 25.5t-27 9.5
q-37 0 -37 -35q0 -36 37 -36t37 36zM246 520q0 39 -41 39t-41 -39q0 -18 11 -28.5t30 -10.5t30 10.5t11 28.5z" />
    <glyph glyph-name="uni2079" unicode="&#x2079;" horiz-adv-x="412" 
d="M60 404v105q58 -23 112 -23q52 0 82 32q27 30 28 73h-40q-18 -64 -87 -64q-45 0 -80 35.5t-35 91.5q0 65 43.5 105.5t113.5 40.5q67 0 117 -44q59 -53 59 -151q0 -106 -54 -163.5t-152 -57.5q-66 0 -107 20zM242 656q0 21 -11.5 33.5t-29.5 12.5t-29 -13t-11 -33
t11 -32.5t29 -12.5t29.5 12.5t11.5 32.5z" />
    <glyph glyph-name="uni20A9" unicode="&#x20a9;" horiz-adv-x="1186" 
d="M1155 400h-140l-14 -59h115v-91h-137l-61 -250h-199l-60 250h-123l-62 -250h-204l-62 250h-132v91h109l-15 59h-141v92h118l-52 208h189l40 -208h121l48 208h207l46 -208h122l41 208h179l-50 -208h117v-92zM565 492h66q-1 38 -1 87h-64q0 -58 -1 -87zM337 400l5 -59h77
q2 21 8 59h-90zM643 341l-6 59h-77l-7 -59h90zM851 341l4 59h-90q6 -38 7 -59h79zM414 250h-68q2 -70 2 -113h64q0 45 2 113zM847 250h-68q2 -64 2 -113h64q0 35 2 113z" />
    <glyph glyph-name="Euro" unicode="&#x20ac;" horiz-adv-x="729" 
d="M105 218h-72v96h58q-1 11 -1 31q0 19 1 30h-58v97h71q29 115 107.5 180t189.5 65q114 0 191 -57t104 -167l-169 -52q-11 65 -49 100.5t-96 35.5q-47 0 -87 -31.5t-65 -85.5l45 -32q33 44 82 44h52v-97h-143q-1 -11 -1 -30q0 -20 1 -31h143v-96h-52q-49 0 -82 44l-45 -33
q53 -108 156 -108q109 0 143 143l169 -59q-66 -222 -297 -222q-111 0 -188.5 61.5t-107.5 173.5z" />
    <glyph glyph-name="uni20B9" unicode="&#x20b9;" horiz-adv-x="609" 
d="M300 0l-31 158q-12 57 -35.5 77.5t-80.5 20.5h-106v138h139q44 0 71.5 23.5t27.5 64.5q0 40 -27.5 63t-71.5 23h-139v132h530v-116h-56q-81 0 -156 46l-28 -53q39 -14 66.5 -45t37.5 -72h136v-109h-112h-210v-59h18q87 0 130 -30t61 -108l36 -154h-200z" />
    <glyph glyph-name="uni20BA" unicode="&#x20ba;" horiz-adv-x="704" 
d="M148 0v54q0 76 60 150l-51 32q-34 -64 -71 -83l-28 -13v129l90 45v62l-90 -45v129l90 46v197h184v-40q0 -39 -44 -94l53 -30q30 73 102 111l82 40v-128l-193 -95v-63l193 95v-129l-193 -95v-115h24q56 0 103 43.5t69 109.5l154 -80q-84 -233 -388 -233h-146z" />
    <glyph glyph-name="uni20BD" unicode="&#x20bd;" horiz-adv-x="690" 
d="M411 275h-121v-53h211v-113h-211v-109h-177v109h-69v113h69v53h-69v123h69v302h284q117 0 188.5 -60t71.5 -160q0 -92 -70 -148.5t-176 -56.5zM290 556v-158h84q44 0 70 21.5t26 56.5q0 36 -26 58t-70 22h-84z" />
    <glyph glyph-name="uni20BF" unicode="&#x20bf;" horiz-adv-x="702" 
d="M461 2v-106h-107v104h-49v-104h-106v104h-124v700h124v95h106v-95h49v95h107v-97q89 -9 137.5 -51.5t48.5 -103.5q0 -68 -51 -106.5t-142 -40.5v-60q101 -1 158 -41t57 -116q0 -74 -54.5 -120t-153.5 -57zM465 491q0 66 -88 66h-118v-133h118q88 0 88 67zM479 218
q0 37 -27 56.5t-73 19.5h-120v-151h120q47 0 73.5 19t26.5 56z" />
    <glyph glyph-name="uni2113" unicode="&#x2113;" horiz-adv-x="552" 
d="M94 165v27q-38 -2 -66 -2v109q47 2 66 5v212q0 97 58 149t148 52q110 0 168.5 -56t58.5 -148q0 -96 -69 -174t-199 -118v-49q0 -55 40 -55q23 0 38.5 20.5t20.5 55.5l164 -53q-17 -67 -75 -112t-154 -45q-97 0 -148 50.5t-51 131.5zM363 504q0 41 -16 64t-43 23
q-45 0 -45 -59v-54q0 -48 -11.5 -78t-44.5 -60l33 -43q127 73 127 207z" />
    <glyph glyph-name="uni2116" unicode="&#x2116;" horiz-adv-x="1302" 
d="M81 0v700h265l288 -512l54 35q-48 74 -68 133.5t-20 139.5v204h183v-700h-216l-339 604l-54 -33q90 -149 90 -299v-272h-183zM837 501q0 95 58 153t162 58q103 0 160.5 -58t57.5 -153q0 -94 -58 -154t-160 -60q-103 0 -161.5 60t-58.5 154zM1128 500q0 57 -19 87.5
t-52 30.5q-34 0 -53.5 -30.5t-19.5 -87.5q0 -56 20 -87.5t53 -31.5t52 31.5t19 87.5z" />
    <glyph glyph-name="uni2117" unicode="&#x2117;" horiz-adv-x="890" 
d="M35 351q-3 165 119 285.5t289 117.5q168 3 291.5 -117.5t120.5 -285.5q2 -108 -54 -203t-152 -149.5t-206 -52.5q-109 -2 -204 52.5t-150.5 149.5t-53.5 203zM741 351q2 125 -84 213t-212 86q-126 2 -212 -86t-84 -213q-2 -124 84.5 -213.5t211.5 -86.5
q125 -3 211.5 86.5t84.5 213.5zM310 148v414h191q61 0 101 -35t40 -90q0 -54 -39.5 -90.5t-102.5 -36.5h-85v-162h-105zM415 384h57q59 0 59 51t-61 51h-55v-102z" />
    <glyph glyph-name="trademark" unicode="&#x2122;" horiz-adv-x="973" 
d="M144 321v291h-115v88h339v-88h-116v-291h-108zM415 321v379h172l37 -129q19 -72 21 -181h36q2 109 21 183l35 127h168v-379h-104v102q0 57 36 169l11 35l-40 14l-3 -11l-91 -309h-106l-92 309l-3 10l-40 -15q1 -3 2 -6.5t2 -5.5l1 -2q42 -124 42 -189v-101h-105z" />
    <glyph glyph-name="Omega" unicode="&#x2126;" horiz-adv-x="846" 
d="M42 0v147h24q87 0 184 -68l31 57q-233 88 -233 264q-2 127 100.5 223t273.5 94q171 2 273.5 -94t100.5 -223q0 -176 -233 -264l31 -57q95 68 183 68h26v-147h-343v145q138 33 138 209q0 97 -47 154.5t-129 57.5t-128 -57t-46 -155q0 -175 136 -209v-145h-342z" />
    <glyph glyph-name="onethird" unicode="&#x2153;" horiz-adv-x="900" 
d="M134 303v171q0 64 31 126h-47q-12 -52 -32.5 -76t-57.5 -25v121q92 0 120 80h110v-397h-124zM104 0l511 700h134l-508 -700h-137zM536 114l120 24q8 -50 49 -50q18 0 29 9t11 25q0 33 -45 33h-28v89h28q19 0 30 9t11 24q0 14 -9.5 23t-24.5 9q-35 0 -37 -47l-121 16
q5 57 48 92.5t110 35.5q68 0 110 -27t42 -71q0 -82 -118 -84v-41q61 0 94 -23t33 -65q0 -47 -43 -76t-117 -29t-119.5 33.5t-52.5 90.5z" />
    <glyph glyph-name="twothirds" unicode="&#x2154;" horiz-adv-x="981" 
d="M41 303v111q110 54 150 86.5t40 69.5q0 19 -10 30t-27 11q-43 0 -41 -70l-119 12q0 66 44.5 111t123.5 45q69 0 112 -34t43 -88q0 -59 -45 -99q-37 -33 -144 -75l-38 -16l19 -41q74 46 141 46h66v-99h-315zM186 0l511 700h134l-508 -700h-137zM619 114l120 24
q8 -50 49 -50q18 0 29 9t11 25q0 33 -45 33h-28v89h28q19 0 30 9t11 24q0 14 -9.5 23t-24.5 9q-35 0 -37 -47l-121 16q5 57 48 92.5t110 35.5q68 0 110 -27t42 -71q0 -82 -118 -84v-41q61 0 94 -23t33 -65q0 -47 -43 -76t-117 -29t-119.5 33.5t-52.5 90.5z" />
    <glyph glyph-name="uni2155" unicode="&#x2155;" horiz-adv-x="906" 
d="M134 303v171q0 64 31 126h-47q-12 -52 -32.5 -76t-57.5 -25v121q92 0 120 80h110v-397h-124zM104 0l511 700h134l-508 -700h-137zM539 106l115 27q11 -45 48 -45q21 0 33.5 12t12.5 33q0 20 -12 32.5t-30 12.5q-28 0 -39 -27l-112 19l34 227h268v-99h-180l-3 -21
q-4 -41 -35 -73h49q15 53 76 53q44 0 76 -32t32 -89q0 -66 -45.5 -106t-119.5 -40q-70 0 -114.5 32.5t-53.5 83.5z" />
    <glyph glyph-name="uni2156" unicode="&#x2156;" horiz-adv-x="985" 
d="M40 303v111q110 54 150 86.5t40 69.5q0 19 -10 30t-27 11q-43 0 -41 -70l-119 12q0 66 44.5 111t123.5 45q69 0 112 -34t43 -88q0 -59 -45 -99q-37 -33 -144 -75l-38 -16l19 -41q74 46 141 46h66v-99h-315zM185 0l511 700h134l-508 -700h-137zM621 106l115 27
q11 -45 48 -45q21 0 33.5 12t12.5 33q0 20 -12 32.5t-30 12.5q-28 0 -39 -27l-112 19l34 227h268v-99h-180l-3 -21q-4 -41 -35 -73h49q15 53 76 53q44 0 76 -32t32 -89q0 -66 -45.5 -106t-119.5 -40q-70 0 -114.5 32.5t-53.5 83.5z" />
    <glyph glyph-name="uni2157" unicode="&#x2157;" horiz-adv-x="988" 
d="M28 417l120 24q8 -50 49 -50q18 0 29 9t11 25q0 33 -45 33h-28v89h28q19 0 30 9t11 24q0 14 -9.5 23t-24.5 9q-35 0 -37 -47l-121 16q5 57 48 92.5t110 35.5q68 0 110 -27t42 -71q0 -82 -118 -84v-41q61 0 94 -23t33 -65q0 -47 -43 -76t-117 -29t-119.5 33.5t-52.5 90.5z
M185 0l511 700h134l-508 -700h-137zM620 106l115 27q11 -45 48 -45q21 0 33.5 12t12.5 33q0 20 -12 32.5t-30 12.5q-28 0 -39 -27l-112 19l34 227h268v-99h-180l-3 -21q-4 -41 -35 -73h49q15 53 76 53q44 0 76 -32t32 -89q0 -66 -45.5 -106t-119.5 -40q-70 0 -114.5 32.5
t-53.5 83.5z" />
    <glyph glyph-name="uni2158" unicode="&#x2158;" horiz-adv-x="1007" 
d="M218 303v82h-191v108l146 207h157v-222h56v-93h-56v-82h-112zM218 478v26q0 39 45 87l-34 25l-113 -160l32 -21q26 43 59 43h11zM201 0l511 700h134l-508 -700h-137zM637 106l115 27q11 -45 48 -45q21 0 33.5 12t12.5 33q0 20 -12 32.5t-30 12.5q-28 0 -39 -27l-112 19
l34 227h268v-99h-180l-3 -21q-4 -41 -35 -73h49q15 53 76 53q44 0 76 -32t32 -89q0 -66 -45.5 -106t-119.5 -40q-70 0 -114.5 32.5t-53.5 83.5z" />
    <glyph glyph-name="uni2159" unicode="&#x2159;" horiz-adv-x="912" 
d="M134 303v171q0 64 31 126h-47q-12 -52 -32.5 -76t-57.5 -25v121q92 0 120 80h110v-397h-124zM104 0l511 700h134l-508 -700h-137zM546 181q0 104 54.5 164.5t148.5 60.5q67 0 105 -21v-105q-50 27 -103 27q-50 0 -79.5 -27.5t-32.5 -80.5h39q14 67 85 67q46 0 81.5 -32.5
t35.5 -93.5q0 -67 -44.5 -108.5t-115.5 -41.5q-82 0 -128 54.5t-46 136.5zM757 135q0 21 -11.5 34t-30.5 13q-18 0 -29.5 -13t-11.5 -34t11.5 -34t29.5 -13q19 0 30.5 13.5t11.5 33.5z" />
    <glyph glyph-name="uni215A" unicode="&#x215a;" horiz-adv-x="995" 
d="M28 409l115 27q11 -45 48 -45q21 0 33.5 12t12.5 33q0 20 -12 32.5t-30 12.5q-28 0 -39 -27l-112 19l34 227h268v-99h-180l-3 -21q-4 -41 -35 -73h49q15 53 76 53q44 0 76 -32t32 -89q0 -66 -45.5 -106t-119.5 -40q-70 0 -114.5 32.5t-53.5 83.5zM186 0l511 700h134
l-508 -700h-137zM629 181q0 104 54.5 164.5t148.5 60.5q67 0 105 -21v-105q-50 27 -103 27q-50 0 -79.5 -27.5t-32.5 -80.5h39q14 67 85 67q46 0 81.5 -32.5t35.5 -93.5q0 -67 -44.5 -108.5t-115.5 -41.5q-82 0 -128 54.5t-46 136.5zM840 135q0 21 -11.5 34t-30.5 13
q-18 0 -29.5 -13t-11.5 -34t11.5 -34t29.5 -13q19 0 30.5 13.5t11.5 33.5z" />
    <glyph glyph-name="oneeighth" unicode="&#x215b;" horiz-adv-x="907" 
d="M134 303v171q0 64 31 126h-47q-12 -52 -32.5 -76t-57.5 -25v121q92 0 120 80h110v-397h-124zM104 0l511 700h134l-508 -700h-137zM544 98q0 39 29.5 62.5t83.5 25.5v42q-49 1 -76 21t-27 56q0 47 42.5 74t113.5 27q70 0 113.5 -27t43.5 -74q0 -36 -28 -56t-76 -21v-42
q52 -3 82.5 -26.5t30.5 -61.5q0 -49 -45.5 -78.5t-120.5 -29.5q-76 0 -121 29t-45 79zM747 278q0 16 -10 25.5t-27 9.5q-37 0 -37 -35q0 -36 37 -36t37 36zM751 126q0 39 -41 39t-41 -39q0 -18 11 -28.5t30 -10.5t30 10.5t11 28.5z" />
    <glyph glyph-name="threeeighths" unicode="&#x215c;" horiz-adv-x="989" 
d="M28 417l120 24q8 -50 49 -50q18 0 29 9t11 25q0 33 -45 33h-28v89h28q19 0 30 9t11 24q0 14 -9.5 23t-24.5 9q-35 0 -37 -47l-121 16q5 57 48 92.5t110 35.5q68 0 110 -27t42 -71q0 -82 -118 -84v-41q61 0 94 -23t33 -65q0 -47 -43 -76t-117 -29t-119.5 33.5t-52.5 90.5z
M185 0l511 700h134l-508 -700h-137zM625 98q0 39 29.5 62.5t83.5 25.5v42q-49 1 -76 21t-27 56q0 47 42.5 74t113.5 27q70 0 113.5 -27t43.5 -74q0 -36 -28 -56t-76 -21v-42q52 -3 82.5 -26.5t30.5 -61.5q0 -49 -45.5 -78.5t-120.5 -29.5q-76 0 -121 29t-45 79zM828 278
q0 16 -10 25.5t-27 9.5q-37 0 -37 -35q0 -36 37 -36t37 36zM832 126q0 39 -41 39t-41 -39q0 -18 11 -28.5t30 -10.5t30 10.5t11 28.5z" />
    <glyph glyph-name="fiveeighths" unicode="&#x215d;" horiz-adv-x="991" 
d="M28 409l115 27q11 -45 48 -45q21 0 33.5 12t12.5 33q0 20 -12 32.5t-30 12.5q-28 0 -39 -27l-112 19l34 227h268v-99h-180l-3 -21q-4 -41 -35 -73h49q15 53 76 53q44 0 76 -32t32 -89q0 -66 -45.5 -106t-119.5 -40q-70 0 -114.5 32.5t-53.5 83.5zM186 0l511 700h134
l-508 -700h-137zM626 98q0 39 29.5 62.5t83.5 25.5v42q-49 1 -76 21t-27 56q0 47 42.5 74t113.5 27q70 0 113.5 -27t43.5 -74q0 -36 -28 -56t-76 -21v-42q52 -3 82.5 -26.5t30.5 -61.5q0 -49 -45.5 -78.5t-120.5 -29.5q-76 0 -121 29t-45 79zM829 278q0 16 -10 25.5t-27 9.5
q-37 0 -37 -35q0 -36 37 -36t37 36zM833 126q0 39 -41 39t-41 -39q0 -18 11 -28.5t30 -10.5t30 10.5t11 28.5z" />
    <glyph glyph-name="seveneighths" unicode="&#x215e;" horiz-adv-x="890" 
d="M252 603l18 10l-23 37q-66 -49 -142 -49h-74v99h307v-115q-63 -39 -97.5 -113.5t-33.5 -168.5l-131 -1q-2 112 50 184q52 74 126 117zM87 0l511 700h134l-508 -700h-137zM528 98q0 39 29.5 62.5t83.5 25.5v42q-49 1 -76 21t-27 56q0 47 42.5 74t113.5 27q70 0 113.5 -27
t43.5 -74q0 -36 -28 -56t-76 -21v-42q52 -3 82.5 -26.5t30.5 -61.5q0 -49 -45.5 -78.5t-120.5 -29.5q-76 0 -121 29t-45 79zM731 278q0 16 -10 25.5t-27 9.5q-37 0 -37 -35q0 -36 37 -36t37 36zM735 126q0 39 -41 39t-41 -39q0 -18 11 -28.5t30 -10.5t30 10.5t11 28.5z" />
    <glyph glyph-name="uni215F" unicode="&#x215f;" horiz-adv-x="437" 
d="M123 303v171q0 64 31 126h-47q-12 -52 -32.5 -76t-57.5 -25v121q92 0 120 80h110v-397h-124zM92 0l511 700h134l-508 -700h-137z" />
    <glyph glyph-name="arrowleft" unicode="&#x2190;" horiz-adv-x="844" 
d="M801 263h-529v-62q13 1 32 1q98 0 165 -63l34 -33l-119 -119l-363 362l363 362l119 -118l-34 -33q-66 -63 -168 -63q-23 0 -29 1v-62h529v-173z" />
    <glyph glyph-name="arrowup" unicode="&#x2191;" horiz-adv-x="761" 
d="M294 0v529h-62q1 -13 1 -32q0 -99 -63 -165l-33 -34l-118 119l361 364l363 -364l-119 -119l-33 34q-63 66 -63 168q0 24 1 29h-62v-529h-173z" />
    <glyph glyph-name="arrowright" unicode="&#x2192;" horiz-adv-x="844" 
d="M42 436h530v62q-13 -1 -32 -1q-99 0 -165 63l-34 33l118 118l364 -361l-364 -363l-118 119l34 33q66 63 168 63q23 0 29 -1v62h-530v173z" />
    <glyph glyph-name="arrowdown" unicode="&#x2193;" horiz-adv-x="761" 
d="M467 700v-529h62q-1 13 -1 32q0 98 63 165l33 34l119 -119l-362 -364l-362 364l118 119l33 -34q63 -66 63 -168q0 -23 -1 -29h62v529h173z" />
    <glyph glyph-name="uni2196" unicode="&#x2196;" horiz-adv-x="706" 
d="M681 210l-122 -122l-374 374l-44 -44q47 -43 69.5 -81t25.5 -103l1 -46h-169v513h513v-169h-46q-63 3 -102 26.5t-82 69.5l-44 -44z" />
    <glyph glyph-name="uni2197" unicode="&#x2197;" horiz-adv-x="706" 
d="M147 87l-122 122l374 374l-44 44q-43 -46 -81.5 -69t-101.5 -26l-46 -1v169h512v-513h-169l1 46q1 44 16 79.5t31.5 55.5t47.5 49l-44 44z" />
    <glyph glyph-name="uni2198" unicode="&#x2198;" horiz-adv-x="706" 
d="M25 490l122 122l374 -374l44 44q-46 43 -69 81.5t-26 101.5l-1 46h169v-512h-513v169l46 -1q44 -1 79.5 -16t55.5 -31.5t49 -47.5l44 44z" />
    <glyph glyph-name="uni2199" unicode="&#x2199;" horiz-adv-x="706" 
d="M558 613l122 -122l-374 -374l44 -44q41 46 80 69t104 26l46 1v-169h-513v513h169v-46q-2 -44 -17 -79.5t-31 -54.5t-48 -50l44 -44z" />
    <glyph glyph-name="uni21A4" unicode="&#x21a4;" horiz-adv-x="906" 
d="M643 662h172v-623h-172v224h-371v-62q14 1 34 1q98 0 164 -63l33 -33l-119 -118l-363 362l363 361l119 -118l-33 -32q-66 -63 -167 -63q-18 0 -31 1v-63h371v226z" />
    <glyph glyph-name="uni21A5" unicode="&#x21a5;" horiz-adv-x="773" 
d="M471 543v-370h226v-173h-623v173h224v370h-62q1 -14 1 -34q0 -97 -63 -164l-32 -32l-119 118l362 363l362 -363l-119 -118l-32 32q-63 66 -63 167q0 18 1 31h-63z" />
    <glyph glyph-name="uni21A6" unicode="&#x21a6;" horiz-adv-x="905" 
d="M522 712l363 -362l-363 -361l-119 118l33 32q67 64 167 64q18 0 31 -1v62h-370v-225h-173v623h173v-225h370v63q-14 -1 -34 -1q-100 0 -164 63l-33 32z" />
    <glyph glyph-name="uni21A7" unicode="&#x21a7;" horiz-adv-x="773" 
d="M631 388l119 -119l-362 -363l-362 363l119 119l32 -33q63 -66 63 -167q0 -18 -1 -31h63v370h-226v173h623v-173h-224v-370h62q-1 14 -1 34q0 97 63 164z" />
    <glyph glyph-name="uni21B0" unicode="&#x21b0;" horiz-adv-x="870" 
d="M801 404h9v-404h-173v264h-365v-63q13 1 32 1q99 0 165 -63l34 -33l-119 -118l-363 362l363 362l119 -119l-34 -32q-63 -63 -168 -63h-29v-62h529v-32z" />
    <glyph glyph-name="uni21B1" unicode="&#x21b1;" horiz-adv-x="868" 
d="M485 712l364 -362l-364 -362l-119 118l34 33q66 63 168 63h29v62h-364v-264h-173v370h8v66h529v63q-13 -1 -32 -1q-99 0 -165 63l-34 32z" />
    <glyph glyph-name="uni21B2" unicode="&#x21b2;" horiz-adv-x="868" 
d="M808 700v-369h-8v-67h-529v-62q13 1 32 1q98 0 165 -63l34 -33l-119 -119l-363 362l363 362l119 -118l-34 -33q-66 -63 -168 -63q-23 0 -29 1v-62h364v263h173z" />
    <glyph glyph-name="uni21B3" unicode="&#x21b3;" horiz-adv-x="870" 
d="M485 712l364 -361l-364 -363l-118 119l33 33q66 63 169 63q23 0 29 -1v62h-530v32h-8v404h173v-263h365v62q-13 -1 -33 -1q-99 0 -165 63l-33 33z" />
    <glyph glyph-name="partialdiff" unicode="&#x2202;" horiz-adv-x="643" 
d="M32 230q0 106 62.5 167t145.5 61q68 0 112 -33.5t63 -88.5h58q-4 107 -71 168t-170 61q-72 0 -152 -33v156q72 29 175 29q154 0 252 -101.5t98 -281.5q0 -96 -32 -173.5t-102 -127.5t-168 -50q-116 0 -193.5 67.5t-77.5 179.5zM411 232q0 45 -29.5 74t-71.5 29
q-43 0 -71.5 -27.5t-28.5 -73.5t29 -75t72 -29t71.5 28.5t28.5 73.5z" />
    <glyph glyph-name="Delta" unicode="&#x2206;" horiz-adv-x="801" 
d="M525 700l253 -700h-756l253 700h250zM266 150h259l-78 244q-18 62 -18 169l1 41h-64v-28q0 -122 -20 -182z" />
    <glyph glyph-name="product" unicode="&#x220f;" horiz-adv-x="847" 
d="M817 700v-151h-105v-645h-184v645h-209v-645h-183v645h-105v151h786z" />
    <glyph glyph-name="summation" unicode="&#x2211;" horiz-adv-x="674" 
d="M42 -96v159l240 238l-243 252v147h592v-151l-152 1q-51 0 -92 15q-57 22 -108 73l-46 -45l282 -291l-255 -251l-42 -39l46 -45q25 25 46.5 41t63 31t91.5 16h176v-151h-599z" />
    <glyph glyph-name="minus" unicode="&#x2212;" horiz-adv-x="641" 
d="M57 285v136h526v-136h-526z" />
    <glyph glyph-name="uni2215" unicode="&#x2215;" horiz-adv-x="385" 
d="M-19 -96l269 896h153l-269 -896h-153z" />
    <glyph glyph-name="radical" unicode="&#x221a;" horiz-adv-x="723" 
d="M237 -96l-135 371h-92v149h208l61 -187q18 -54 26 -113q8 -56 8 -127h59q0 77 5 134q4 48 22 105l157 464h185l-300 -796h-204z" />
    <glyph glyph-name="infinity" unicode="&#x221e;" horiz-adv-x="875" 
d="M38 351q0 83 56 142.5t141 59.5q64 0 114.5 -37.5t64.5 -105.5h50q14 70 62 106.5t115 36.5q84 0 140 -59.5t56 -142.5t-56 -143t-140 -60q-68 0 -115.5 37t-62.5 106h-50q-14 -67 -64.5 -105t-113.5 -38q-85 0 -141 60t-56 143zM362 353q-54 79 -103 79
q-31 0 -53.5 -22.5t-22.5 -58.5q0 -37 22.5 -59t53.5 -22q27 0 47.5 16t55.5 67zM693 351q0 36 -23 58.5t-54 22.5q-49 0 -103 -79q35 -51 55.5 -67t47.5 -16q32 0 54.5 22t22.5 59z" />
    <glyph glyph-name="integral" unicode="&#x222b;" horiz-adv-x="404" 
d="M25 -194v153h40q50 0 50 57v507q0 81 46.5 129t133.5 48h84v-154h-40q-23 0 -36.5 -14.5t-13.5 -41.5v-508q0 -79 -46 -127.5t-134 -48.5h-84z" />
    <glyph glyph-name="approxequal" unicode="&#x2248;" horiz-adv-x="665" 
d="M334 384l-38 22q-33 20 -62 20q-54 0 -86 -59l-106 75q26 62 73.5 96t107.5 34q53 0 111 -32l38 -21q33 -18 59 -18q51 0 86 61l106 -77q-26 -62 -74 -95.5t-108 -33.5q-55 0 -107 28zM334 144l-38 22q-33 20 -62 20q-54 0 -86 -59l-106 75q26 62 73.5 96t107.5 34
q53 0 111 -32l38 -21q33 -18 59 -18q51 0 86 61l106 -77q-26 -62 -74 -95.5t-108 -33.5q-55 0 -107 28z" />
    <glyph glyph-name="notequal" unicode="&#x2260;" horiz-adv-x="643" 
d="M98 85l46 80h-87v133h163l26 44q20 34 78 80l-38 45q-59 -66 -143 -66h-86v134h299l48 83h134l-48 -83h96v-134h-173l-25 -43q-17 -33 -78 -81l39 -45q59 66 138 66h99v-133h-308l-46 -80h-134z" />
    <glyph glyph-name="lessequal" unicode="&#x2264;" horiz-adv-x="652" 
d="M588 229l-529 100v207l529 108v-137l-136 -23q-98 -16 -297 -18v-56q169 0 297 -16l136 -22v-143zM59 76v131h529v-131h-529z" />
    <glyph glyph-name="greaterequal" unicode="&#x2265;" horiz-adv-x="652" 
d="M64 228v137l137 23q97 16 297 18v56q-187 0 -297 17l-137 21v144l530 -101v-207zM64 76v131h530v-131h-530z" />
    <glyph glyph-name="angleleft" unicode="&#x2329;" horiz-adv-x="381" 
d="M168 306l205 -390l-139 -76l-234 462l235 463l136 -76z" />
    <glyph glyph-name="angleright" unicode="&#x232a;" horiz-adv-x="381" 
d="M146 765l235 -462l-235 -463l-136 76l203 383l-205 390z" />
    <glyph glyph-name="uni2460" unicode="&#x2460;" horiz-adv-x="880" 
d="M30 351q-2 109 53 202.5t150 148t205 52.5q168 3 291.5 -117.5t120.5 -285.5q2 -108 -54 -203t-152 -149.5t-206 -52.5q-83 -2 -159 30.5t-131 87t-87 130.5t-31 157zM736 351q2 125 -84.5 213t-212.5 86q-126 2 -211.5 -86t-83.5 -213q-2 -124 84 -213.5t211 -86.5
q125 -3 212 86.5t85 213.5zM404 152v171q0 65 32 126h-48q-12 -52 -32.5 -75.5t-57.5 -25.5v121q92 0 120 80h110v-397h-124z" />
    <glyph glyph-name="uni2461" unicode="&#x2461;" horiz-adv-x="880" 
d="M30 351q-2 109 53 202.5t150 148t205 52.5q168 3 291.5 -117.5t120.5 -285.5q2 -108 -54 -203t-152 -149.5t-206 -52.5q-83 -2 -159 30.5t-131 87t-87 130.5t-31 157zM736 351q2 125 -84.5 213t-212.5 86q-126 2 -211.5 -86t-83.5 -213q-2 -124 84 -213.5t211 -86.5
q125 -3 212 86.5t85 213.5zM282 152v111q110 54 150 87t40 69q0 41 -36 41q-44 0 -42 -70l-119 12q0 66 45 111.5t123 45.5q69 0 112 -34.5t43 -87.5q0 -59 -44 -100q-36 -32 -144 -75q-5 -2 -18.5 -7.5t-19.5 -8.5l18 -41q71 46 141 46h66v-99h-315z" />
    <glyph glyph-name="uni2462" unicode="&#x2462;" horiz-adv-x="880" 
d="M30 351q-2 109 53 202.5t150 148t205 52.5q168 3 291.5 -117.5t120.5 -285.5q2 -108 -54 -203t-152 -149.5t-206 -52.5q-83 -2 -159 30.5t-131 87t-87 130.5t-31 157zM736 351q2 125 -84.5 213t-212.5 86q-126 2 -211.5 -86t-83.5 -213q-2 -124 84 -213.5t211 -86.5
q125 -3 212 86.5t85 213.5zM266 267l121 24q7 -51 48 -51q40 0 40 34t-44 34h-29v88h28q41 0 41 33q0 14 -9 23t-24 9q-36 0 -38 -47l-121 16q5 58 48 93.5t111 35.5t109.5 -27.5t41.5 -71.5q0 -82 -118 -84v-41q61 0 94.5 -23t33.5 -64q0 -48 -43 -76.5t-118 -28.5
q-73 0 -119 33t-53 91z" />
    <glyph glyph-name="uni2463" unicode="&#x2463;" horiz-adv-x="880" 
d="M30 351q-2 109 53 202.5t150 148t205 52.5q168 3 291.5 -117.5t120.5 -285.5q2 -108 -54 -203t-152 -149.5t-206 -52.5q-83 -2 -159 30.5t-131 87t-87 130.5t-31 157zM736 351q2 125 -84.5 213t-212.5 86q-126 2 -211.5 -86t-83.5 -213q-2 -124 84 -213.5t211 -86.5
q125 -3 212 86.5t85 213.5zM437 152v82h-191v108l146 207h157v-222h55v-93h-55v-82h-112zM437 327v26q0 40 44 87l-33 25l-114 -160l33 -21q26 43 59 43h11z" />
    <glyph glyph-name="uni2464" unicode="&#x2464;" horiz-adv-x="880" 
d="M30 351q-2 109 53 202.5t150 148t205 52.5q168 3 291.5 -117.5t120.5 -285.5q2 -108 -54 -203t-152 -149.5t-206 -52.5q-83 -2 -159 30.5t-131 87t-87 130.5t-31 157zM736 351q2 125 -84.5 213t-212.5 86q-126 2 -211.5 -86t-83.5 -213q-2 -124 84 -213.5t211 -86.5
q125 -3 212 86.5t85 213.5zM261 258l115 27q11 -45 49 -45q19 0 32 12.5t13 32.5t-11.5 32.5t-29.5 12.5q-27 0 -40 -27l-111 19l33 227h268v-99h-179l-3 -21q-4 -41 -35 -73h48q18 53 76 53q44 0 76 -32t32 -88q0 -68 -44.5 -107t-120.5 -39q-69 0 -114 32t-54 83z" />
    <glyph glyph-name="uni2465" unicode="&#x2465;" horiz-adv-x="880" 
d="M30 351q-2 109 53 202.5t150 148t205 52.5q168 3 291.5 -117.5t120.5 -285.5q2 -108 -54 -203t-152 -149.5t-206 -52.5q-83 -2 -159 30.5t-131 87t-87 130.5t-31 157zM736 351q2 125 -84.5 213t-212.5 86q-126 2 -211.5 -86t-83.5 -213q-2 -124 84 -213.5t211 -86.5
q125 -3 212 86.5t85 213.5zM255 333q0 104 54.5 165t148.5 61q58 0 105 -21v-105q-51 26 -103 26q-49 0 -79 -27.5t-33 -79.5h39q14 66 86 66q47 0 81.5 -31.5t34.5 -94.5q0 -67 -44.5 -108t-115.5 -41q-82 0 -128 54t-46 136zM467 288q0 20 -12 33t-30 13t-30 -13t-12 -33
q0 -21 11.5 -34.5t30.5 -13.5q18 0 30 13.5t12 34.5z" />
    <glyph glyph-name="uni2466" unicode="&#x2466;" horiz-adv-x="880" 
d="M30 351q-2 109 53 202.5t150 148t205 52.5q168 3 291.5 -117.5t120.5 -285.5q2 -108 -54 -203t-152 -149.5t-206 -52.5q-83 -2 -159 30.5t-131 87t-87 130.5t-31 157zM736 351q2 125 -84.5 213t-212.5 86q-126 2 -211.5 -86t-83.5 -213q-2 -124 84 -213.5t211 -86.5
q125 -3 212 86.5t85 213.5zM515 452l18 10l-23 38q-63 -50 -141 -50h-75v99h307v-114q-63 -39 -97.5 -113.5t-32.5 -169.5l-132 -1q-2 112 50 184q53 73 126 117z" />
    <glyph glyph-name="uni2467" unicode="&#x2467;" horiz-adv-x="880" 
d="M30 351q-2 109 53 202.5t150 148t205 52.5q168 3 291.5 -117.5t120.5 -285.5q2 -108 -54 -203t-152 -149.5t-206 -52.5q-83 -2 -159 30.5t-131 87t-87 130.5t-31 157zM736 351q2 125 -84.5 213t-212.5 86q-126 2 -211.5 -86t-83.5 -213q-2 -124 84 -213.5t211 -86.5
q125 -3 212 86.5t85 213.5zM273 250q0 39 29.5 62.5t83.5 25.5v42q-103 2 -103 78q0 46 43 73.5t113 27.5t113.5 -28t43.5 -73q0 -36 -28 -56.5t-76 -21.5v-42q51 -3 81.5 -26.5t30.5 -61.5q0 -49 -44.5 -78t-120.5 -29q-77 0 -121.5 28.5t-44.5 78.5zM476 430
q0 16 -10 25.5t-27 9.5q-37 0 -37 -35q0 -36 37 -36q17 0 27 10t10 26zM480 278q0 39 -42 39q-40 0 -40 -39q0 -18 11 -28.5t29 -10.5q42 0 42 39z" />
    <glyph glyph-name="uni2468" unicode="&#x2468;" horiz-adv-x="880" 
d="M30 351q-2 109 53 202.5t150 148t205 52.5q168 3 291.5 -117.5t120.5 -285.5q2 -108 -54 -203t-152 -149.5t-206 -52.5q-83 -2 -159 30.5t-131 87t-87 130.5t-31 157zM736 351q2 125 -84.5 213t-212.5 86q-126 2 -211.5 -86t-83.5 -213q-2 -124 84 -213.5t211 -86.5
q125 -3 212 86.5t85 213.5zM300 162v106q58 -24 113 -24q52 0 82 32q27 30 28 74h-41q-7 -31 -30 -48t-56 -17q-45 0 -80.5 35.5t-35.5 91.5q0 64 44.5 105.5t113.5 41.5q68 0 117 -45q58 -55 58 -151q0 -106 -53.5 -163t-152.5 -57q-66 0 -107 19zM482 415q0 20 -11 32.5
t-29 12.5t-29.5 -12.5t-11.5 -32.5t11.5 -33t29.5 -13t29 12.5t11 33.5z" />
    <glyph glyph-name="uni24EA" unicode="&#x24ea;" horiz-adv-x="880" 
d="M30 351q-2 109 53 202.5t150 148t205 52.5q168 3 291.5 -117.5t120.5 -285.5q2 -108 -54 -203t-152 -149.5t-206 -52.5q-83 -2 -159 30.5t-131 87t-87 130.5t-31 157zM736 351q2 125 -84.5 213t-212.5 86q-126 2 -211.5 -86t-83.5 -213q-2 -124 84 -213.5t211 -86.5
q125 -3 212 86.5t85 213.5zM260 349q0 95 49 152.5t129 57.5q82 0 131 -57.5t49 -152.5t-48.5 -150.5t-131.5 -55.5q-81 0 -129.5 55.5t-48.5 150.5zM486 350q0 110 -48 110q-46 0 -46 -110q0 -108 46 -108q48 0 48 108z" />
    <glyph glyph-name="uni24FF" unicode="&#x24ff;" horiz-adv-x="879" 
d="M849 351q2 -108 -54.5 -202.5t-152.5 -149.5t-204 -53q-108 -2 -203.5 53t-151.5 149.5t-54 202.5q-2 108 54 202t151.5 148.5t203.5 52.5q108 2 204 -52.5t152.5 -148.5t54.5 -202zM260 349q0 -95 48 -150.5t130 -55.5t130.5 55.5t48.5 150.5t-49 152.5t-130 57.5
t-129.5 -57.5t-48.5 -152.5zM486 350q0 -108 -48 -108q-47 0 -47 108q0 110 47 110q48 0 48 -110z" />
    <glyph glyph-name="lozenge" unicode="&#x25ca;" horiz-adv-x="674" 
d="M238 0l-210 350l207 350h198l213 -350l-211 -350h-197zM459 348l-66 112q-28 49 -28 124v20h-63l1 -29q0 -75 -28 -120l-62 -104l65 -111q27 -49 27 -120v-24h62v25q0 76 28 121z" />
    <glyph glyph-name="uni274C" unicode="&#x274c;" horiz-adv-x="757" 
d="M118 -16l-105 104l262 263l-258 262l106 106l258 -261l259 261l105 -102l-261 -264l258 -263l-107 -106l-258 263z" />
    <glyph glyph-name="uni2776" unicode="&#x2776;" horiz-adv-x="879" 
d="M849 351q2 -108 -54.5 -202.5t-152.5 -149.5t-204 -53q-108 -2 -203.5 53t-151.5 149.5t-54 202.5q-2 108 54 202t151.5 148.5t203.5 52.5q108 2 204 -52.5t152.5 -148.5t54.5 -202zM404 323v-171h123v397h-110q-28 -80 -119 -80v-121q37 2 57 25.5t32 75.5h48
q-31 -59 -31 -126z" />
    <glyph glyph-name="uni2777" unicode="&#x2777;" horiz-adv-x="879" 
d="M849 351q2 -108 -54.5 -202.5t-152.5 -149.5t-204 -53q-108 -2 -203.5 53t-151.5 149.5t-54 202.5q-2 108 54 202t151.5 148.5t203.5 52.5q108 2 204 -52.5t152.5 -148.5t54.5 -202zM282 263v-111h315v99h-66q-70 0 -141 -46l-19 41q6 3 19.5 8.5t18.5 7.5q108 43 144 75
q45 41 45 100q0 53 -43 87.5t-113 34.5q-78 0 -123 -45.5t-45 -111.5l120 -12q-2 70 41 70q17 0 27 -11t10 -30q0 -36 -40.5 -69.5t-149.5 -86.5z" />
    <glyph glyph-name="uni2778" unicode="&#x2778;" horiz-adv-x="879" 
d="M849 351q2 -108 -54.5 -202.5t-152.5 -149.5t-204 -53q-108 -2 -203.5 53t-151.5 149.5t-54 202.5q-2 108 54 202t151.5 148.5t203.5 52.5q108 2 204 -52.5t152.5 -148.5t54.5 -202zM266 267q7 -58 52.5 -91t119.5 -33t117 28.5t43 76.5q0 41 -33 64t-94 23v41
q117 2 117 84q0 44 -41.5 71.5t-109.5 27.5q-66 0 -109.5 -36t-48.5 -93l120 -16q2 47 38 47q15 0 24.5 -9t9.5 -23q0 -15 -11 -24t-30 -9h-29v-88h29q45 0 45 -34q0 -16 -11 -25t-29 -9q-42 0 -49 51z" />
    <glyph glyph-name="uni2779" unicode="&#x2779;" horiz-adv-x="879" 
d="M849 351q2 -108 -54.5 -202.5t-152.5 -149.5t-204 -53q-108 -2 -203.5 53t-151.5 149.5t-54 202.5q-2 108 54 202t151.5 148.5t203.5 52.5q108 2 204 -52.5t152.5 -148.5t54.5 -202zM437 234v-82h112v82h55v93h-55v222h-157l-146 -207v-108h191zM437 353v-26h-11
q-33 0 -59 -43l-33 21l114 160l33 -25q-44 -47 -44 -87z" />
    <glyph glyph-name="uni277A" unicode="&#x277a;" horiz-adv-x="879" 
d="M849 351q2 -108 -54.5 -202.5t-152.5 -149.5t-204 -53q-108 -2 -203.5 53t-151.5 149.5t-54 202.5q-2 108 54 202t151.5 148.5t203.5 52.5q108 2 204 -52.5t152.5 -148.5t54.5 -202zM261 258q9 -51 53.5 -83t114.5 -32q76 0 120.5 39t44.5 107q0 56 -32 88t-76 32
q-61 0 -76 -53h-49q31 32 35 73l3 21h180v99h-268l-34 -227l112 -19q13 27 39 27q18 0 30 -12.5t12 -32.5q0 -21 -12.5 -33t-33.5 -12q-37 0 -48 45z" />
    <glyph glyph-name="uni277B" unicode="&#x277b;" horiz-adv-x="879" 
d="M849 351q2 -108 -54.5 -202.5t-152.5 -149.5t-204 -53q-108 -2 -203.5 53t-151.5 149.5t-54 202.5q-2 108 54 202t151.5 148.5t203.5 52.5q108 2 204 -52.5t152.5 -148.5t54.5 -202zM255 333q0 -82 46 -136t128 -54q71 0 115 41t44 108q0 63 -34.5 94.5t-81.5 31.5
q-71 0 -85 -66h-39q3 52 32.5 79.5t78.5 27.5q53 0 104 -26v105q-49 21 -105 21q-94 0 -148.5 -61t-54.5 -165zM466 288q0 -21 -12 -34.5t-30 -13.5t-29.5 13.5t-11.5 34.5q0 20 11.5 33t29.5 13t30 -13t12 -33z" />
    <glyph glyph-name="uni277C" unicode="&#x277c;" horiz-adv-x="879" 
d="M849 351q2 -108 -54.5 -202.5t-152.5 -149.5t-204 -53q-108 -2 -203.5 53t-151.5 149.5t-54 202.5q-2 108 54 202t151.5 148.5t203.5 52.5q108 2 204 -52.5t152.5 -148.5t54.5 -202zM515 452q-73 -44 -126 -117q-53 -74 -50 -184l131 1q-1 96 33.5 170t97.5 113v114h-308
v-99h75q78 0 141 50l23 -38z" />
    <glyph glyph-name="uni277D" unicode="&#x277d;" horiz-adv-x="879" 
d="M849 351q2 -108 -54.5 -202.5t-152.5 -149.5t-204 -53q-108 -2 -203.5 53t-151.5 149.5t-54 202.5q-2 108 54 202t151.5 148.5t203.5 52.5q108 2 204 -52.5t152.5 -148.5t54.5 -202zM273 250q0 -50 44.5 -78.5t121.5 -28.5q76 0 120.5 29t44.5 78q0 38 -30.5 61.5
t-81.5 26.5v42q48 1 76 21.5t28 56.5q0 45 -43.5 73t-113.5 28t-113 -27.5t-43 -73.5q0 -76 103 -78v-42q-54 -2 -83.5 -25.5t-29.5 -62.5zM476 430q0 -16 -10 -26t-27 -10q-37 0 -37 36q0 35 37 35q17 0 27 -9.5t10 -25.5zM480 278q0 -39 -42 -39q-18 0 -29 10.5t-11 28.5
q0 39 40 39q42 0 42 -39z" />
    <glyph glyph-name="uni277E" unicode="&#x277e;" horiz-adv-x="879" 
d="M849 351q2 -108 -54.5 -202.5t-152.5 -149.5t-204 -53q-108 -2 -203.5 53t-151.5 149.5t-54 202.5q-2 108 54 202t151.5 148.5t203.5 52.5q108 2 204 -52.5t152.5 -148.5t54.5 -202zM308 162q41 -19 107 -19q99 0 152.5 57t53.5 163q0 96 -58 151q-49 45 -118 45
t-113 -41.5t-44 -105.5q0 -56 35 -91.5t80 -35.5q70 0 87 65h41q-1 -45 -29 -74q-29 -32 -81 -32q-57 0 -113 24v-106zM490 415q0 -21 -11 -33.5t-29 -12.5t-29.5 13t-11.5 33t11.5 32.5t29.5 12.5t29 -12.5t11 -32.5z" />
    <glyph glyph-name="uni300A" unicode="&#x300a;" horiz-adv-x="674" 
d="M371 689l-203 -382l205 -391l-139 -76l-234 463l235 462zM460 307l206 -391l-139 -76l-235 463l235 462l137 -76z" />
    <glyph glyph-name="uni300B" unicode="&#x300b;" horiz-adv-x="673" 
d="M146 766l234 -463l-234 -463l-137 76l203 383l-205 391zM438 766l235 -463l-235 -463l-136 76l203 383l-205 391z" />
    <glyph glyph-name="uni300C" unicode="&#x300c;" horiz-adv-x="400" 
d="M66 302v453h323v-132h-165v-321h-158z" />
    <glyph glyph-name="uni300D" unicode="&#x300d;" horiz-adv-x="386" 
d="M331 303v-453h-322v131h165v322h157z" />
    <glyph glyph-name="uni300E" unicode="&#x300e;" horiz-adv-x="577" 
d="M68 173v582h477v-294h-164v-288h-313zM191 288h80v275h150v77h-230v-352z" />
    <glyph glyph-name="uni300F" unicode="&#x300f;" horiz-adv-x="567" 
d="M506 431v-581h-477v294h163v287h314zM382 316h-79v-274h-151v-77h230v351z" />
    <glyph glyph-name="uni3010" unicode="&#x3010;" horiz-adv-x="402" 
d="M68 -150v905h348q-187 -209 -187 -451q0 -247 187 -454h-348z" />
    <glyph glyph-name="uni3011" unicode="&#x3011;" horiz-adv-x="402" 
d="M333 754v-904h-347q187 209 187 450q0 244 -187 454h347z" />
    <glyph glyph-name="uni3014" unicode="&#x3014;" horiz-adv-x="365" 
d="M200 120l161 -180l-110 -100l-206 227v473l208 225l107 -101l-160 -169v-375z" />
    <glyph glyph-name="uni3015" unicode="&#x3015;" horiz-adv-x="365" 
d="M114 765l206 -228v-472l-208 -226l-107 101l161 169v375l-162 181z" />
    <glyph glyph-name="uniE000" unicode="&#xe000;" horiz-adv-x="747" 
d="M296 0v281h-268v140h268v282h154v-282h268v-140h-268v-281h-154z" />
    <glyph glyph-name="uniE001" unicode="&#xe001;" horiz-adv-x="803" 
d="M57 281v140h690v-140h-690z" />
    <glyph glyph-name="uniE002" unicode="&#xe002;" horiz-adv-x="789" 
d="M133 -16l-105 104l262 263l-258 262l106 106l258 -261l259 261l105 -102l-261 -264l258 -263l-107 -106l-258 263z" />
    <glyph glyph-name="uniE003" unicode="&#xe003;" horiz-adv-x="849" 
d="M333 -15l-321 410l120 98l208 -264l386 503l114 -92z" />
    <glyph glyph-name="uniE004" unicode="&#xe004;" horiz-adv-x="937" 
d="M82 529v138h773v-138h-773zM82 281v135h773v-135h-773zM82 30v137h773v-137h-773z" />
    <glyph glyph-name="uniE005" unicode="&#xe005;" horiz-adv-x="849" 
d="M74 0v692h700v-692h-700zM215 129h418v434h-418v-434z" />
    <glyph glyph-name="uniE006" unicode="&#xe006;" horiz-adv-x="849" 
d="M432 158l-185 270l100 73l29 -43q23 -32 29.5 -65t6.5 -99h57q0 64 8 98.5t35 71.5l195 255l101 -77zM77 0v692h448v-129h-307v-434h418v196h141v-325h-700z" />
    <glyph glyph-name="uniE007" unicode="&#xe007;" horiz-adv-x="849" 
d="M74 0v692h700v-692h-700zM215 129h418v434h-418v-434zM336 258v177h177v-177h-177z" />
    <glyph glyph-name="uniE008" unicode="&#xe008;" horiz-adv-x="778" 
d="M390 169l-328 327l117 115l25 -28q39 -40 39 -143v-27h62v474h170v-474h63l-1 29q0 101 40 142l25 27l116 -115zM39 0v169h700v-169h-700z" />
    <glyph glyph-name="uniE009" unicode="&#xe009;" horiz-adv-x="778" 
d="M390 251l-328 328l117 115l25 -27q39 -43 39 -144v-28h62v475h170v-475h63l-1 29q0 102 40 143l25 27l116 -115zM39 0v169h700v-169h-700z" />
    <glyph glyph-name="uniF8FF" unicode="&#xf8ff;" horiz-adv-x="885" 
d="M736 99l-49 -21q37 -79 51 -142l-21 -11q-77 6 -112.5 42.5t-35.5 115.5q0 42 12 117h-59q-10 -83 -32 -132q-39 16 -63.5 57.5t-31.5 90.5q-13 75 -28 100q-14 21 -33 32t-59 24q-37 12 -61.5 30t-48.5 52l95 71l-29 29q-27 -4 -52 -4q-55 0 -92 24t-37 62q0 36 19 57
t53 21q31 0 58.5 -19t65.5 -68l47 39q-51 51 -64 68.5t-16 45.5q0 24 18.5 38.5t50.5 14.5q36 0 57 -20.5t21 -56.5q0 -57 -30 -120l33 -34l46 34q55 -27 102 -74q77 -77 116 -157q147 -97 193 -281q15 -58 15 -127l-44 -8q-23 70 -55 110z" />
    <glyph glyph-name="Ccedilla.ss04" horiz-adv-x="772" 
d="M469 -13l-9 -8q-20 -17 -66 -33l16 -34q26 14 52 14q32 0 52 -18t20 -52q0 -42 -36.5 -70.5t-106.5 -28.5q-43 0 -79 18t-56 40l58 69q38 -38 73 -38q37 0 37 25q0 10 -9 17.5t-24 7.5t-28 -5l-36 48l46 46q-154 10 -246 109t-92 254q-2 157 104.5 264t270.5 105
q128 0 219.5 -61t121.5 -163l-181 -62q-40 135 -163 135q-80 0 -125.5 -57.5t-45.5 -159.5q0 -100 45.5 -157t125.5 -57q121 0 166 135l179 -65q-33 -91 -106 -148t-177 -70z" />
    <glyph glyph-name="G.ss03" horiz-adv-x="791" 
d="M36 346q-2 158 105.5 266t273.5 105q140 0 226 -59.5t116 -151.5l-184 -65q-42 125 -161 125q-82 0 -131 -59.5t-49 -162.5q0 -99 48 -158.5t128 -59.5q60 0 97 28t45 77h-169v140h367q2 -26 2 -43q0 -150 -89 -247.5t-253 -97.5q-170 0 -271 97t-101 266z" />
    <glyph glyph-name="Gbreve.ss03" horiz-adv-x="791" 
d="M36 346q-2 158 105.5 266t273.5 105q140 0 226 -59.5t116 -151.5l-184 -65q-42 125 -161 125q-82 0 -131 -59.5t-49 -162.5q0 -99 48 -158.5t128 -59.5q60 0 97 28t45 77h-169v140h367q2 -26 2 -43q0 -150 -89 -247.5t-253 -97.5q-170 0 -271 97t-101 266zM207 902h124
q2 -22 23.5 -42t60.5 -20q37 0 59 20t24 42h124q-5 -69 -56.5 -112.5t-150.5 -43.5q-101 0 -153 43.5t-55 112.5z" />
    <glyph glyph-name="Gcircumflex.ss03" horiz-adv-x="791" 
d="M36 346q-2 158 105.5 266t273.5 105q140 0 226 -59.5t116 -151.5l-184 -65q-42 125 -161 125q-82 0 -131 -59.5t-49 -162.5q0 -99 48 -158.5t128 -59.5q60 0 97 28t45 77h-169v140h367q2 -26 2 -43q0 -150 -89 -247.5t-253 -97.5q-170 0 -271 97t-101 266zM181 764
l124 138h218l123 -138h-157l-75 72l-76 -72h-157z" />
    <glyph glyph-name="uni0122.ss03" horiz-adv-x="791" 
d="M36 346q-2 158 105.5 266t273.5 105q140 0 226 -59.5t116 -151.5l-184 -65q-42 125 -161 125q-82 0 -131 -59.5t-49 -162.5q0 -99 48 -158.5t128 -59.5q60 0 97 28t45 77h-169v140h367q2 -26 2 -43q0 -150 -89 -247.5t-253 -97.5q-170 0 -271 97t-101 266zM345 -353
l91 147h-89v149h161v-149l-90 -147h-73z" />
    <glyph glyph-name="Gdotaccent.ss03" horiz-adv-x="791" 
d="M36 346q-2 158 105.5 266t273.5 105q140 0 226 -59.5t116 -151.5l-184 -65q-42 125 -161 125q-82 0 -131 -59.5t-49 -162.5q0 -99 48 -158.5t128 -59.5q60 0 97 28t45 77h-169v140h367q2 -26 2 -43q0 -150 -89 -247.5t-253 -97.5q-170 0 -271 97t-101 266zM330 761v147
h167v-147h-167z" />
    <glyph glyph-name="Scedilla.ss04" horiz-adv-x="708" 
d="M418 -14l-8 -7q-20 -17 -66 -33l15 -34q28 14 53 14q32 0 51.5 -18t19.5 -52q0 -42 -35.5 -70.5t-106.5 -28.5q-43 0 -80 18t-55 40l58 69q36 -38 72 -38q38 0 38 25q0 10 -9.5 17.5t-24.5 7.5t-27 -5l-36 48l45 45q-128 7 -204.5 65.5t-95.5 149.5l185 48
q10 -54 48.5 -88.5t101.5 -34.5q58 0 87.5 20.5t29.5 55.5q0 59 -95 73l-87 11q-119 15 -177 66.5t-58 147.5q0 95 80.5 157t215.5 62q129 0 208.5 -52.5t103.5 -139.5l-184 -47q-31 99 -132 99q-50 0 -75.5 -20t-25.5 -52q0 -56 82 -66l87 -11q122 -15 188 -71t66 -148
q0 -91 -65 -150.5t-188 -72.5z" />
    <glyph glyph-name="uni0162.ss04" horiz-adv-x="665" 
d="M427 0l-29 -21q-18 -10 -75 -31l15 -33q25 13 51 13q31 0 50 -17.5t19 -49.5q0 -41 -34.5 -68.5t-103.5 -27.5q-41 0 -76.5 18t-53.5 38l56 67q35 -37 70 -37q37 0 37 24q0 10 -9 17t-24 7q-18 0 -27 -4l-33 52l56 53h-79v556h-226v144h643v-144h-227v-556z" />
    <glyph glyph-name="a.salt" horiz-adv-x="637" 
d="M31 250q0 120 54.5 194t143.5 74q111 0 160 -117h68q-38 57 -38 100h160v-501h-160q0 44 38 101h-68q-49 -117 -162 -117q-88 0 -142 74t-54 192zM410 250q0 71 -26.5 108.5t-72.5 37.5q-98 0 -98 -146q0 -72 26 -108t72 -36t72.5 37.5t26.5 106.5z" />
    <glyph glyph-name="aacute.salt" horiz-adv-x="637" 
d="M31 250q0 120 54.5 194t143.5 74q111 0 160 -117h68q-38 57 -38 100h160v-501h-160q0 44 38 101h-68q-49 -117 -162 -117q-88 0 -142 74t-54 192zM410 250q0 71 -26.5 108.5t-72.5 37.5q-98 0 -98 -146q0 -72 26 -108t72 -36t72.5 37.5t26.5 106.5zM254 566l50 154h182
l-118 -154h-114z" />
    <glyph glyph-name="abreve.salt" horiz-adv-x="637" 
d="M31 250q0 120 54.5 194t143.5 74q111 0 160 -117h68q-38 57 -38 100h160v-501h-160q0 44 38 101h-68q-49 -117 -162 -117q-88 0 -142 74t-54 192zM410 250q0 71 -26.5 108.5t-72.5 37.5q-98 0 -98 -146q0 -72 26 -108t72 -36t72.5 37.5t26.5 106.5zM121 704h113
q2 -21 22 -41t54 -20q35 0 54.5 19.5t21.5 41.5h112q-5 -68 -51 -110.5t-137 -42.5t-138.5 43t-50.5 110z" />
    <glyph glyph-name="acircumflex.salt" horiz-adv-x="637" 
d="M31 250q0 120 54.5 194t143.5 74q111 0 160 -117h68q-38 57 -38 100h160v-501h-160q0 44 38 101h-68q-49 -117 -162 -117q-88 0 -142 74t-54 192zM410 250q0 71 -26.5 108.5t-72.5 37.5q-98 0 -98 -146q0 -72 26 -108t72 -36t72.5 37.5t26.5 106.5zM97 566l113 138h198
l112 -138h-142l-69 72l-68 -72h-144z" />
    <glyph glyph-name="adieresis.salt" horiz-adv-x="637" 
d="M31 250q0 120 54.5 194t143.5 74q111 0 160 -117h68q-38 57 -38 100h160v-501h-160q0 44 38 101h-68q-49 -117 -162 -117q-88 0 -142 74t-54 192zM410 250q0 71 -26.5 108.5t-72.5 37.5q-98 0 -98 -146q0 -72 26 -108t72 -36t72.5 37.5t26.5 106.5zM116 572v132h155v-132
h-155zM349 572v132h155v-132h-155z" />
    <glyph glyph-name="uni0227.salt" horiz-adv-x="637" 
d="M31 250q0 120 54.5 194t143.5 74q111 0 160 -117h68q-38 57 -38 100h160v-501h-160q0 44 38 101h-68q-49 -117 -162 -117q-88 0 -142 74t-54 192zM410 250q0 71 -26.5 108.5t-72.5 37.5q-98 0 -98 -146q0 -72 26 -108t72 -36t72.5 37.5t26.5 106.5zM226 563v147h167v-147
h-167z" />
    <glyph glyph-name="uni1EA1.salt" horiz-adv-x="637" 
d="M31 250q0 120 54.5 194t143.5 74q111 0 160 -117h68q-38 57 -38 100h160v-501h-160q0 44 38 101h-68q-49 -117 -162 -117q-88 0 -142 74t-54 192zM410 250q0 71 -26.5 108.5t-72.5 37.5q-98 0 -98 -146q0 -72 26 -108t72 -36t72.5 37.5t26.5 106.5zM222 -205v147h167
v-147h-167z" />
    <glyph glyph-name="agrave.salt" horiz-adv-x="637" 
d="M31 250q0 120 54.5 194t143.5 74q111 0 160 -117h68q-38 57 -38 100h160v-501h-160q0 44 38 101h-68q-49 -117 -162 -117q-88 0 -142 74t-54 192zM410 250q0 71 -26.5 108.5t-72.5 37.5q-98 0 -98 -146q0 -72 26 -108t72 -36t72.5 37.5t26.5 106.5zM252 566l-117 154h182
l50 -154h-115z" />
    <glyph glyph-name="amacron.salt" horiz-adv-x="637" 
d="M31 250q0 120 54.5 194t143.5 74q111 0 160 -117h68q-38 57 -38 100h160v-501h-160q0 44 38 101h-68q-49 -117 -162 -117q-88 0 -142 74t-54 192zM410 250q0 71 -26.5 108.5t-72.5 37.5q-98 0 -98 -146q0 -72 26 -108t72 -36t72.5 37.5t26.5 106.5zM147 578v106h327v-106
h-327z" />
    <glyph glyph-name="aogonek.salt" horiz-adv-x="637" 
d="M504 -103q28 0 75 15v-106q-47 -19 -97 -19q-64 0 -100.5 28t-36.5 75q0 66 86 110h-12q0 44 38 101h-68q-49 -117 -162 -117q-88 0 -142 74t-54 192q0 120 54.5 194t143.5 74q111 0 160 -117h68q-38 57 -38 100h160v-501q-124 -33 -124 -73q0 -30 49 -30zM410 250
q0 71 -26.5 108.5t-72.5 37.5q-98 0 -98 -146q0 -72 26 -108t72 -36t72.5 37.5t26.5 106.5z" />
    <glyph glyph-name="aring.salt" horiz-adv-x="637" 
d="M31 250q0 120 54.5 194t143.5 74q111 0 160 -117h68q-38 57 -38 100h160v-501h-160q0 44 38 101h-68q-49 -117 -162 -117q-88 0 -142 74t-54 192zM410 250q0 71 -26.5 108.5t-72.5 37.5q-98 0 -98 -146q0 -72 26 -108t72 -36t72.5 37.5t26.5 106.5zM176 673
q0 56 40.5 93.5t93.5 37.5q55 0 94.5 -37t39.5 -92q0 -54 -39.5 -90t-94.5 -36q-54 0 -94 35.5t-40 88.5zM355 676q0 21 -13 33.5t-32 12.5q-20 0 -32.5 -12.5t-12.5 -33.5q0 -20 12.5 -33t32.5 -13t32.5 13t12.5 33z" />
    <glyph glyph-name="aringacute.salt" horiz-adv-x="637" 
d="M31 250q0 120 54.5 194t143.5 74q111 0 160 -117h68q-38 57 -38 100h160v-501h-160q0 44 38 101h-68q-49 -117 -162 -117q-88 0 -142 74t-54 192zM410 250q0 71 -26.5 108.5t-72.5 37.5q-98 0 -98 -146q0 -72 26 -108t72 -36t72.5 37.5t26.5 106.5zM255 825l49 123h179
l-116 -123h-112zM177 666q0 56 40.5 93.5t94.5 37.5t93.5 -37t39.5 -92q0 -54 -39.5 -90t-93.5 -36t-94.5 35.5t-40.5 88.5zM357 669q0 21 -13 33.5t-32 12.5q-20 0 -33 -12.5t-13 -33.5q0 -20 13 -33t33 -13q19 0 32 13t13 33z" />
    <glyph glyph-name="atilde.salt" horiz-adv-x="637" 
d="M31 250q0 120 54.5 194t143.5 74q111 0 160 -117h68q-38 57 -38 100h160v-501h-160q0 44 38 101h-68q-49 -117 -162 -117q-88 0 -142 74t-54 192zM410 250q0 71 -26.5 108.5t-72.5 37.5q-98 0 -98 -146q0 -72 26 -108t72 -36t72.5 37.5t26.5 106.5zM310 583l-24 14
q-31 18 -48 18q-35 0 -37 -49h-112q-2 69 33.5 108t99.5 39q42 0 89 -26l24 -15q30 -17 49 -17q35 0 37 49h109q4 -148 -129 -148q-45 0 -91 27z" />
    <glyph glyph-name="ccedilla.ss04" horiz-adv-x="583" 
d="M367 -11l-10 -9q-21 -19 -64 -32l16 -33q23 13 50 13q31 0 50 -17.5t19 -49.5q0 -41 -34.5 -68.5t-102.5 -27.5q-42 0 -78 17.5t-53 38.5l56 67q35 -37 70 -37q37 0 37 24q0 10 -9 17t-24 7q-18 0 -27 -4l-34 46l43 44q-110 9 -176.5 81t-66.5 184q0 119 78 193.5
t198 74.5q96 0 164 -45t91 -119l-164 -48q-23 87 -95 87q-46 0 -72.5 -36.5t-26.5 -104.5q0 -67 27.5 -105t72.5 -38q72 0 98 92l167 -41q-22 -69 -73.5 -113.5t-126.5 -57.5z" />
    <glyph glyph-name="g.ss02" horiz-adv-x="637" 
d="M19 -53l177 40q26 -77 110 -77q50 0 77.5 25.5t28.5 70.5q1 64 39 114h-68q-48 -111 -154 -111q-88 0 -143 70.5t-55 182.5q0 113 55 184.5t143 71.5q112 0 160 -119h68q-38 65 -38 102h161v-454q0 -134 -70 -196.5t-213 -62.5q-131 0 -197 45q-64 45 -81 114zM408 261
q0 64 -25 98t-71 34q-96 0 -96 -132q0 -65 25.5 -98.5t70.5 -33.5t70.5 35t25.5 97z" />
    <glyph glyph-name="gbreve.ss02" horiz-adv-x="637" 
d="M19 -53l177 40q26 -77 110 -77q50 0 77.5 25.5t28.5 70.5q1 64 39 114h-68q-48 -111 -154 -111q-88 0 -143 70.5t-55 182.5q0 113 55 184.5t143 71.5q112 0 160 -119h68q-38 65 -38 102h161v-454q0 -134 -70 -196.5t-213 -62.5q-131 0 -197 45q-64 45 -81 114zM408 261
q0 64 -25 98t-71 34q-96 0 -96 -132q0 -65 25.5 -98.5t70.5 -33.5t70.5 35t25.5 97zM137 704h113q2 -21 22 -41t54 -20q35 0 54.5 19.5t21.5 41.5h112q-5 -68 -51 -110.5t-137 -42.5t-138.5 43t-50.5 110z" />
    <glyph glyph-name="gcircumflex.ss02" horiz-adv-x="637" 
d="M19 -53l177 40q26 -77 110 -77q50 0 77.5 25.5t28.5 70.5q1 64 39 114h-68q-48 -111 -154 -111q-88 0 -143 70.5t-55 182.5q0 113 55 184.5t143 71.5q112 0 160 -119h68q-38 65 -38 102h161v-454q0 -134 -70 -196.5t-213 -62.5q-131 0 -197 45q-64 45 -81 114zM408 261
q0 64 -25 98t-71 34q-96 0 -96 -132q0 -65 25.5 -98.5t70.5 -33.5t70.5 35t25.5 97zM113 566l113 138h198l112 -138h-142l-69 72l-68 -72h-144z" />
    <glyph glyph-name="uni0123.ss02" horiz-adv-x="637" 
d="M19 -53l177 40q26 -77 110 -77q50 0 77.5 25.5t28.5 70.5q1 64 39 114h-68q-48 -111 -154 -111q-88 0 -143 70.5t-55 182.5q0 113 55 184.5t143 71.5q112 0 160 -119h68q-38 65 -38 102h161v-454q0 -134 -70 -196.5t-213 -62.5q-131 0 -197 45q-64 45 -81 114zM408 261
q0 64 -25 98t-71 34q-96 0 -96 -132q0 -65 25.5 -98.5t70.5 -33.5t70.5 35t25.5 97zM407 861l-91 -148h89v-148h-161v148l90 148h73z" />
    <glyph glyph-name="gdotaccent.ss02" horiz-adv-x="637" 
d="M19 -53l177 40q26 -77 110 -77q50 0 77.5 25.5t28.5 70.5q1 64 39 114h-68q-48 -111 -154 -111q-88 0 -143 70.5t-55 182.5q0 113 55 184.5t143 71.5q112 0 160 -119h68q-38 65 -38 102h161v-454q0 -134 -70 -196.5t-213 -62.5q-131 0 -197 45q-64 45 -81 114zM408 261
q0 64 -25 98t-71 34q-96 0 -96 -132q0 -65 25.5 -98.5t70.5 -33.5t70.5 35t25.5 97zM241 563v147h167v-147h-167z" />
    <glyph glyph-name="i.locl" horiz-adv-x="291" 
d="M54 563v148h182v-148h-182zM57 0v501h177v-501h-177z" />
    <glyph glyph-name="scedilla.ss04" horiz-adv-x="545" 
d="M342 -10l-11 -10q-21 -19 -64 -32l15 -33q25 13 51 13q31 0 50 -17.5t19 -49.5q0 -41 -34.5 -68.5t-103.5 -27.5q-41 0 -76.5 18t-53.5 38l55 67q37 -37 71 -37q36 0 36 24q0 10 -8.5 17t-23.5 7q-18 0 -27 -4l-35 46l45 44q-97 6 -156 47t-71 103l160 33q2 -25 25 -49
t71 -24q32 0 50 12t18 32q0 36 -59 48l-66 12q-93 17 -135 52.5t-42 104.5q0 72 61 117t168 45q98 0 155.5 -36.5t73.5 -88.5l-151 -45q-9 29 -32 46t-55 17q-29 0 -44.5 -11.5t-15.5 -30.5q0 -18 14.5 -27.5t51.5 -16.5l71 -12q180 -32 180 -160q0 -66 -45.5 -108
t-131.5 -55z" />
    <glyph glyph-name="uni0163.ss04" horiz-adv-x="448" 
d="M333 0l-22 -20q-21 -19 -64 -32l15 -33q25 13 51 13q31 0 50 -17.5t19 -49.5q0 -41 -34.5 -68.5t-103.5 -27.5q-41 0 -76.5 18t-53.5 38l55 67q37 -37 71 -37q36 0 36 24q0 10 -8.5 17t-23.5 7q-18 0 -27 -4l-35 46l60 59q-62 4 -95.5 42t-33.5 102v235h-101v122h101v155
h173v-155h120v-122h-120v-208q0 -39 39 -39h105v-132h-97z" />
    <glyph glyph-name="zero.onum" horiz-adv-x="676" 
d="M34 250q0 117 87 192.5t217 75.5t217 -75.5t87 -192.5q2 -115 -87 -192t-217 -75q-128 -2 -216.5 75t-87.5 192zM458 250q0 68 -35 106t-85 38q-51 0 -85.5 -38t-34.5 -106q0 -69 34.5 -105.5t85.5 -36.5t85.5 37t34.5 105z" />
    <glyph glyph-name="one.onum" horiz-adv-x="447" 
d="M208 0v179q0 98 38 168h-67q-38 -159 -147 -165v180q139 9 197 139h154v-501h-175z" />
    <glyph glyph-name="two.onum" horiz-adv-x="564" 
d="M45 0v146q184 65 242 100.5t61 80.5q0 29 -18 46t-49 17q-70 0 -76 -96l-168 24q3 88 71 144t180 56q106 0 168 -46.5t62 -113.5q0 -83 -80 -134q-32 -20 -91 -44q-42 -16 -165 -58l27 -57q103 63 231 63h80v-128h-475z" />
    <glyph glyph-name="three.onum" horiz-adv-x="610" 
d="M18 2l178 31q12 -107 105 -107q44 0 70.5 22.5t26.5 61.5q0 38 -26.5 62t-71.5 24h-74v128h67q42 0 69 22t27 59q0 36 -23.5 57t-62.5 21q-43 0 -68.5 -26t-27.5 -71l-170 27q10 86 80.5 146t186.5 60q117 0 185.5 -50.5t68.5 -126.5q0 -71 -50.5 -109.5t-143.5 -40.5
v-59q103 0 157.5 -44t54.5 -117q0 -81 -75.5 -132.5t-195.5 -51.5q-127 0 -199 58t-88 156z" />
    <glyph glyph-name="four.onum" horiz-adv-x="658" 
d="M366 -195v195h-344v132l263 369h246v-374h104v-127h-104v-195h-165zM324 127h42v64q0 56 11 87.5t41 77.5l-51 32l-3 -4l-186 -266l-6 -8l49 -35q21 29 41.5 40.5t61.5 11.5z" />
    <glyph glyph-name="five.onum" horiz-adv-x="598" 
d="M25 -21l160 46q6 -44 34 -72t73 -28q44 0 71.5 28t27.5 78q0 47 -28 75.5t-70 28.5q-56 0 -91 -48l-162 25l55 389h444v-140h-319l-13 -86q-11 -64 -51 -110h71q37 86 138 86q83 0 144.5 -58.5t61.5 -162.5q0 -109 -74 -175.5t-198 -66.5q-113 0 -184 52.5t-90 138.5z
" />
    <glyph glyph-name="six.onum" horiz-adv-x="626" 
d="M37 314q-2 182 95 293.5t243 109.5q102 0 173 -30v-144q-78 32 -148 32q-99 0 -159 -60t-69 -175h57q15 57 54 88.5t98 31.5q86 0 150.5 -61t64.5 -166q0 -114 -77.5 -182t-190.5 -68q-138 -2 -215 96t-76 235zM423 232q0 45 -29.5 74t-72.5 29q-44 0 -73 -29t-29 -74
q0 -50 29 -80.5t73 -30.5t73 31t29 80z" />
    <glyph glyph-name="seven.onum" horiz-adv-x="549" 
d="M422 365l15 9l-33 53q-86 -65 -217 -66h-173v140h517v-179q-119 -77 -181 -216t-62 -301h-179q0 141 51 254q85 189 262 306z" />
    <glyph glyph-name="eight.onum" horiz-adv-x="623" 
d="M37 174q0 72 55.5 112.5t144.5 43.5v59q-181 11 -181 146q0 75 69.5 128t185.5 53t185.5 -52.5t69.5 -128.5q0 -135 -180 -146v-59q92 -4 145.5 -43.5t53.5 -112.5q0 -85 -75 -138t-199 -53q-123 0 -198.5 52.5t-75.5 138.5zM405 504q0 37 -26 60t-67 23q-43 0 -69 -23
t-26 -60q0 -39 26 -62t69 -23q42 0 67.5 23t25.5 62zM413 208q0 40 -28 66t-73 26q-46 0 -74 -26t-28 -66q0 -43 27 -68.5t75 -25.5q46 0 73.5 25.5t27.5 68.5z" />
    <glyph glyph-name="nine.onum" horiz-adv-x="638" 
d="M80 -184v143q75 -29 152 -29q96 0 158 60.5t64 154.5h-56q-18 -50 -57.5 -77.5t-93.5 -27.5q-85 0 -147.5 59.5t-62.5 167.5q0 114 77.5 182.5t192.5 68.5q137 0 217 -94.5t80 -239.5q0 -187 -95 -291.5t-259 -104.5q-100 0 -170 28zM416 268q0 50 -29.5 81.5t-73.5 31.5
t-74.5 -31.5t-30.5 -81.5q0 -44 31 -74t74 -30q44 0 73.5 29.5t29.5 74.5z" />
    <glyph glyph-name="zero.tnum" 
d="M21 347q0 170 79.5 270t209.5 100q131 0 211 -100t80 -270t-79.5 -267t-211.5 -97q-130 0 -209.5 97.5t-79.5 266.5zM418 350q0 219 -108 219q-106 0 -106 -219t106 -219q108 0 108 219z" />
    <glyph glyph-name="one.tnum" 
d="M444 148h137v-148h-515v148h205v223q0 99 36 168h-65q-23 -82 -59.5 -123.5t-99.5 -44.5v182q155 12 207 147h154v-552z" />
    <glyph glyph-name="two.tnum" 
d="M52 0v179q201 104 270 166.5t71 131.5q0 42 -23.5 67.5t-62.5 25.5q-93 0 -95 -136l-170 25q2 104 71.5 181t199.5 77q117 0 187 -61t70 -161q0 -93 -63 -167q-25 -29 -69 -59q-44 -28 -89 -50l-122 -57l-47 -22l28 -58q97 65 218 65h145v-147h-519z" />
    <glyph glyph-name="three.tnum" 
d="M25 194l176 38q14 -104 104 -104q43 0 67.5 21.5t24.5 58.5t-25 58.5t-69 21.5h-71v131h70q37 0 61.5 21t24.5 56q0 33 -23.5 54t-59.5 21q-37 0 -59.5 -23.5t-26.5 -67.5l-171 29q9 92 79.5 150t181.5 58q110 0 180 -51.5t70 -126.5q0 -72 -50 -110t-141 -40v-59
q100 -3 154.5 -45.5t54.5 -110.5q0 -89 -70.5 -140t-196.5 -51q-122 0 -195.5 54.5t-89.5 156.5z" />
    <glyph glyph-name="four.tnum" 
d="M335 0v152h-309v147l243 401h219v-410h93v-138h-93v-152h-153zM335 290v63q0 102 49 180l-47 32l-4 -4l-170 -281l-5 -9l44 -34q21 28 40 40.5t56 12.5h37z" />
    <glyph glyph-name="five.tnum" 
d="M38 176l159 43q26 -91 106 -91q43 0 69 26.5t26 74.5q0 47 -27 73.5t-67 26.5q-63 0 -89 -55l-158 29l55 397h436v-148h-313l-8 -55q-8 -55 -22.5 -84t-42.5 -61h72q42 91 143 91q82 0 140 -57.5t58 -161.5q0 -112 -69 -176.5t-196 -64.5q-111 0 -182 54t-90 139z" />
    <glyph glyph-name="six.tnum" 
d="M35 323q0 187 94.5 290.5t247.5 103.5q98 0 167 -30v-154q-75 31 -152 31q-96 0 -156 -57.5t-67 -167.5h55q12 57 53 89.5t103 32.5q85 0 147.5 -60t62.5 -165q0 -117 -74.5 -185t-188.5 -68q-71 -1 -128.5 27t-92.5 76.5t-53 109t-18 127.5zM418 234q0 46 -28 74.5
t-71 28.5q-47 0 -72.5 -27.5t-25.5 -75.5q0 -47 27.5 -76t70.5 -29t71 29t28 76z" />
    <glyph glyph-name="seven.tnum" 
d="M460 556l15 9l-33 53q-80 -66 -201 -66h-187v148h517v-186q-121 -81 -182.5 -217t-59.5 -297h-192q-1 200 98 336q98 136 225 220z" />
    <glyph glyph-name="eight.tnum" 
d="M37 174q0 72 54.5 112.5t141.5 43.5v59q-178 11 -178 146q0 76 69 128.5t187 52.5q116 0 186.5 -52.5t70.5 -128.5q0 -135 -177 -146v-59q90 -4 141.5 -43.5t51.5 -112.5q0 -85 -75 -138t-198 -53q-124 0 -199 52.5t-75 138.5zM401 500q0 35 -25.5 57.5t-64.5 22.5
q-41 0 -66.5 -22t-25.5 -58q0 -38 25 -60t67 -22q40 0 65 22t25 60zM409 214q0 39 -27.5 62.5t-71.5 23.5q-45 0 -71.5 -23.5t-26.5 -62.5q0 -40 26.5 -63.5t71.5 -23.5t72 23.5t27 63.5z" />
    <glyph glyph-name="nine.tnum" 
d="M69 12v155q81 -32 161 -32q106 0 163 81q42 62 42 134h-55q-16 -52 -55.5 -80t-95.5 -28q-81 0 -138.5 58.5t-57.5 163.5q0 116 74.5 184.5t184.5 68.5q112 0 196 -79q95 -85 95 -262q0 -189 -91 -291t-255 -102q-96 0 -168 29zM396 468q0 45 -27 73.5t-69 28.5
t-69 -28.5t-27 -73.5q0 -44 28 -72.5t68 -28.5q41 0 68.5 28.5t27.5 72.5z" />
    <glyph glyph-name="zero.subs" horiz-adv-x="437" 
d="M40 89q0 95 48 152t130 57t130.5 -57t48.5 -152t-48.5 -151t-130.5 -56t-130 56t-48 151zM266 90q0 110 -48 110q-47 0 -47 -110q0 -108 47 -108q48 0 48 108z" />
    <glyph glyph-name="one.subs" horiz-adv-x="322" 
d="M139 -108v171q0 64 31 126h-47q-12 -52 -32.5 -76t-57.5 -25v121q92 0 120 80h110v-397h-124z" />
    <glyph glyph-name="two.subs" horiz-adv-x="406" 
d="M46 -108v111q110 54 150 86.5t40 69.5q0 19 -10 30t-27 11q-43 0 -41 -70l-119 12q0 66 44.5 111t123.5 45q69 0 112 -34t43 -88q0 -58 -45 -99q-37 -33 -144 -75l-38 -16l19 -41q74 46 141 46h66v-99h-315z" />
    <glyph glyph-name="three.subs" horiz-adv-x="403" 
d="M31 6l120 24q8 -50 49 -50q18 0 29 9t11 25q0 33 -45 33h-28v89h28q19 0 30 9t11 24q0 14 -9.5 23t-24.5 9q-35 0 -37 -47l-121 16q5 57 48 92.5t110 35.5q68 0 110 -27t42 -71q0 -82 -118 -84v-41q61 0 94 -23t33 -65q0 -47 -43 -76t-117 -29t-119.5 33.5t-52.5 90.5z
" />
    <glyph glyph-name="four.subs" horiz-adv-x="427" 
d="M42 6l120 24q8 -50 49 -50q18 0 29 9t11 25q0 33 -45 33h-28v89h28q19 0 30 9t11 24q0 14 -9.5 23t-24.5 9q-35 0 -37 -47l-121 16q5 57 48 92.5t110 35.5q68 0 110 -27t42 -71q0 -82 -118 -84v-41q61 0 94 -23t33 -65q0 -47 -43 -76t-117 -29t-119.5 33.5t-52.5 90.5z
" />
    <glyph glyph-name="five.subs" horiz-adv-x="404" 
d="M33 -2l115 27q11 -45 48 -45q21 0 33.5 12t12.5 33q0 20 -12 32.5t-30 12.5q-28 0 -39 -27l-112 19l34 227h268v-99h-180l-3 -21q-4 -41 -35 -73h49q15 53 76 53q44 0 76 -32t32 -89q0 -66 -45.5 -106t-119.5 -40q-70 0 -114.5 32.5t-53.5 83.5z" />
    <glyph glyph-name="six.subs" horiz-adv-x="411" 
d="M39 73q0 104 54.5 164.5t148.5 60.5q67 0 105 -21v-105q-50 27 -103 27q-50 0 -79.5 -27.5t-32.5 -80.5h39q14 67 85 67q46 0 81.5 -32.5t35.5 -93.5q0 -67 -44.5 -108.5t-115.5 -41.5q-82 0 -128 54.5t-46 136.5zM250 27q0 21 -11.5 34t-30.5 13q-18 0 -29.5 -13
t-11.5 -34t11.5 -34t29.5 -13q19 0 30.5 13.5t11.5 33.5z" />
    <glyph glyph-name="seven.subs" horiz-adv-x="369" 
d="M253 192l18 10l-23 37q-66 -49 -142 -49h-74v99h307v-115q-63 -39 -97.5 -113.5t-33.5 -168.5l-131 -1q-2 112 50 184q53 73 126 117z" />
    <glyph glyph-name="eight.subs" horiz-adv-x="411" 
d="M39 -10q0 39 29.5 62.5t83.5 25.5v42q-49 1 -76 21t-27 56q0 47 42.5 74t113.5 27q70 0 113.5 -27t43.5 -74q0 -36 -28 -56t-76 -21v-42q52 -3 82.5 -26.5t30.5 -61.5q0 -49 -45.5 -78.5t-120.5 -29.5q-76 0 -121 29t-45 79zM242 170q0 16 -10 25.5t-27 9.5
q-37 0 -37 -35q0 -36 37 -36t37 36zM246 18q0 39 -41 39t-41 -39q0 -18 11 -28.5t30 -10.5t30 10.5t11 28.5z" />
    <glyph glyph-name="nine.subs" horiz-adv-x="412" 
d="M60 -98v105q58 -23 112 -23q52 0 82 32q27 30 28 73h-40q-18 -64 -87 -64q-45 0 -80 35.5t-35 91.5q0 65 43.5 105.5t113.5 40.5q67 0 117 -44q59 -53 59 -151q0 -106 -54 -163.5t-152 -57.5q-66 0 -107 20zM242 154q0 21 -11.5 33.5t-29.5 12.5t-29 -13t-11 -33
t11 -32.5t29 -12.5t29.5 12.5t11.5 32.5z" />
    <glyph glyph-name="zero.dnom" horiz-adv-x="437" 
d="M40 197q0 95 48 152t130 57t130.5 -57t48.5 -152t-48.5 -151t-130.5 -56t-130 56t-48 151zM266 198q0 110 -48 110q-47 0 -47 -110q0 -108 47 -108q48 0 48 108z" />
    <glyph glyph-name="one.dnom" horiz-adv-x="322" 
d="M139 0v171q0 64 31 126h-47q-12 -52 -32.5 -76t-57.5 -25v121q92 0 120 80h110v-397h-124z" />
    <glyph glyph-name="two.dnom" horiz-adv-x="406" 
d="M46 0v111q110 54 150 86.5t40 69.5q0 19 -10 30t-27 11q-43 0 -41 -70l-119 12q0 66 44.5 111t123.5 45q69 0 112 -34t43 -88q0 -58 -45 -99q-37 -33 -144 -75l-38 -16l19 -41q74 46 141 46h66v-99h-315z" />
    <glyph glyph-name="three.dnom" horiz-adv-x="403" 
d="M31 114l120 24q8 -50 49 -50q18 0 29 9t11 25q0 33 -45 33h-28v89h28q19 0 30 9t11 24q0 14 -9.5 23t-24.5 9q-35 0 -37 -47l-121 16q5 57 48 92.5t110 35.5q68 0 110 -27t42 -71q0 -82 -118 -84v-41q61 0 94 -23t33 -65q0 -47 -43 -76t-117 -29t-119.5 33.5t-52.5 90.5z
" />
    <glyph glyph-name="four.dnom" horiz-adv-x="427" 
d="M222 0v82h-191v108l146 207h157v-222h56v-93h-56v-82h-112zM222 175v26q0 39 45 87l-34 25l-113 -160l32 -21q26 43 59 43h11z" />
    <glyph glyph-name="five.dnom" horiz-adv-x="404" 
d="M33 106l115 27q11 -45 48 -45q21 0 33.5 12t12.5 33q0 20 -12 32.5t-30 12.5q-28 0 -39 -27l-112 19l34 227h268v-99h-180l-3 -21q-4 -41 -35 -73h49q15 53 76 53q44 0 76 -32t32 -89q0 -66 -45.5 -106t-119.5 -40q-70 0 -114.5 32.5t-53.5 83.5z" />
    <glyph glyph-name="six.dnom" horiz-adv-x="411" 
d="M39 181q0 104 54.5 164.5t148.5 60.5q67 0 105 -21v-105q-50 27 -103 27q-50 0 -79.5 -27.5t-32.5 -80.5h39q14 67 85 67q46 0 81.5 -32.5t35.5 -93.5q0 -67 -44.5 -108.5t-115.5 -41.5q-82 0 -128 54.5t-46 136.5zM250 135q0 21 -11.5 34t-30.5 13q-18 0 -29.5 -13
t-11.5 -34t11.5 -34t29.5 -13q19 0 30.5 13.5t11.5 33.5z" />
    <glyph glyph-name="seven.dnom" horiz-adv-x="369" 
d="M253 300l18 10l-23 37q-66 -49 -142 -49h-74v99h307v-115q-63 -39 -97.5 -113.5t-33.5 -168.5l-131 -1q-2 112 50 184q53 73 126 117z" />
    <glyph glyph-name="eight.dnom" horiz-adv-x="411" 
d="M39 98q0 39 29.5 62.5t83.5 25.5v42q-49 1 -76 21t-27 56q0 47 42.5 74t113.5 27q70 0 113.5 -27t43.5 -74q0 -36 -28 -56t-76 -21v-42q52 -3 82.5 -26.5t30.5 -61.5q0 -49 -45.5 -78.5t-120.5 -29.5q-76 0 -121 29t-45 79zM242 278q0 16 -10 25.5t-27 9.5q-37 0 -37 -35
q0 -36 37 -36t37 36zM246 126q0 39 -41 39t-41 -39q0 -18 11 -28.5t30 -10.5t30 10.5t11 28.5z" />
    <glyph glyph-name="nine.dnom" horiz-adv-x="412" 
d="M60 10v105q58 -23 112 -23q52 0 82 32q27 30 28 73h-40q-18 -64 -87 -64q-45 0 -80 35.5t-35 91.5q0 65 43.5 105.5t113.5 40.5q67 0 117 -44q59 -53 59 -151q0 -106 -54 -163.5t-152 -57.5q-66 0 -107 20zM242 262q0 21 -11.5 33.5t-29.5 12.5t-29 -13t-11 -33t11 -32.5
t29 -12.5t29.5 12.5t11.5 32.5z" />
    <glyph glyph-name="zero.numr" horiz-adv-x="437" 
d="M40 500q0 95 48 152t130 57t130.5 -57t48.5 -152t-48.5 -151t-130.5 -56t-130 56t-48 151zM266 501q0 110 -48 110q-47 0 -47 -110q0 -108 47 -108q48 0 48 108z" />
    <glyph glyph-name="one.numr" horiz-adv-x="322" 
d="M139 303v171q0 64 31 126h-47q-12 -52 -32.5 -76t-57.5 -25v121q92 0 120 80h110v-397h-124z" />
    <glyph glyph-name="two.numr" horiz-adv-x="406" 
d="M46 303v111q110 54 150 86.5t40 69.5q0 19 -10 30t-27 11q-43 0 -41 -70l-119 12q0 66 44.5 111t123.5 45q69 0 112 -34t43 -88q0 -59 -45 -99q-37 -33 -144 -75l-38 -16l19 -41q74 46 141 46h66v-99h-315z" />
    <glyph glyph-name="three.numr" horiz-adv-x="403" 
d="M31 417l120 24q8 -50 49 -50q18 0 29 9t11 25q0 33 -45 33h-28v89h28q19 0 30 9t11 24q0 14 -9.5 23t-24.5 9q-35 0 -37 -47l-121 16q5 57 48 92.5t110 35.5q68 0 110 -27t42 -71q0 -82 -118 -84v-41q61 0 94 -23t33 -65q0 -47 -43 -76t-117 -29t-119.5 33.5t-52.5 90.5z
" />
    <glyph glyph-name="four.numr" horiz-adv-x="427" 
d="M223 303v82h-191v108l146 207h157v-222h56v-93h-56v-82h-112zM223 478v26q0 39 45 87l-34 25l-113 -160l32 -21q26 43 59 43h11z" />
    <glyph glyph-name="five.numr" horiz-adv-x="404" 
d="M33 409l115 27q11 -45 48 -45q21 0 33.5 12t12.5 33q0 20 -12 32.5t-30 12.5q-28 0 -39 -27l-112 19l34 227h268v-99h-180l-3 -21q-4 -41 -35 -73h49q15 53 76 53q44 0 76 -32t32 -89q0 -66 -45.5 -106t-119.5 -40q-70 0 -114.5 32.5t-53.5 83.5z" />
    <glyph glyph-name="six.numr" horiz-adv-x="411" 
d="M39 484q0 104 54.5 164.5t148.5 60.5q67 0 105 -21v-105q-50 27 -103 27q-50 0 -79.5 -27.5t-32.5 -80.5h39q14 67 85 67q46 0 81.5 -32.5t35.5 -93.5q0 -67 -44.5 -108.5t-115.5 -41.5q-82 0 -128 54.5t-46 136.5zM250 438q0 21 -11.5 34t-30.5 13q-18 0 -29.5 -13
t-11.5 -34t11.5 -34t29.5 -13q19 0 30.5 13.5t11.5 33.5z" />
    <glyph glyph-name="seven.numr" horiz-adv-x="369" 
d="M253 603l18 10l-23 37q-66 -49 -142 -49h-74v99h307v-115q-63 -39 -97.5 -113.5t-33.5 -168.5l-131 -1q-2 112 50 184q53 74 126 117z" />
    <glyph glyph-name="eight.numr" horiz-adv-x="411" 
d="M39 401q0 39 29.5 62.5t83.5 25.5v42q-49 1 -76 21t-27 56q0 47 42.5 74t113.5 27q70 0 113.5 -27t43.5 -74q0 -36 -28 -56t-76 -21v-42q52 -3 82.5 -26.5t30.5 -61.5q0 -49 -45.5 -78.5t-120.5 -29.5q-76 0 -121 29t-45 79zM242 581q0 16 -10 25.5t-27 9.5
q-37 0 -37 -35q0 -36 37 -36t37 36zM246 429q0 39 -41 39t-41 -39q0 -18 11 -28.5t30 -10.5t30 10.5t11 28.5z" />
    <glyph glyph-name="nine.numr" horiz-adv-x="412" 
d="M60 313v105q58 -23 112 -23q52 0 82 32q27 30 28 73h-40q-18 -64 -87 -64q-45 0 -80 35.5t-35 91.5q0 65 43.5 105.5t113.5 40.5q67 0 117 -44q59 -53 59 -151q0 -106 -54 -163.5t-152 -57.5q-66 0 -107 20zM242 565q0 21 -11.5 33.5t-29.5 12.5t-29 -13t-11 -33
t11 -32.5t29 -12.5t29.5 12.5t11.5 32.5z" />
    <glyph glyph-name="comma.ss04" horiz-adv-x="301" 
d="M53 -175l57 93q20 30 37 46t44 29l-27 43q-42 -36 -84 -36h-25v177h192v-177l-107 -175h-87z" />
    <glyph glyph-name="semicolon.ss04" horiz-adv-x="300" 
d="M53 -175l57 93q20 30 37 46t44 29l-27 43q-42 -36 -84 -36h-25v177h192v-177l-107 -175h-87zM53 341v177h193v-177h-193z" />
    <glyph glyph-name="exclamdown.case" horiz-adv-x="318" 
d="M256 700v-177h-194v177h194zM205 441l49 -282v-160h-189v160l49 282h91z" />
    <glyph glyph-name="questiondown.case" horiz-adv-x="588" 
d="M400 700v-177h-192v177h192zM292 272q-38 -25 -53 -43.5t-15 -43.5q0 -29 20 -46t53 -17q82 0 86 108l180 -26q-5 -98 -75 -159t-198 -61q-124 0 -190 51t-66 128q0 59 29 97t90 78q39 25 55 48t16 55h162q0 -65 -20 -99.5t-74 -69.5z" />
    <glyph glyph-name="period.tnum" 
d="M199 0v212h223v-212h-223z" />
    <glyph glyph-name="comma.tnum" 
d="M197 -210l126 210h-124v212h223v-212l-124 -210h-101z" />
    <glyph glyph-name="colon.tnum" 
d="M199 384v212h223v-212h-223zM198 0v212h224v-212h-224z" />
    <glyph glyph-name="semicolon.tnum" 
d="M200 384v212h223v-212h-223zM196 -210l126 210h-123v212h223v-212l-124 -210h-102z" />
    <glyph glyph-name="semicolon.tnum_ss04" 
d="M204 384v212h224v-212h-224zM202 -210l67 111q22 37 42 56.5t51 34.5l-32 51q-49 -43 -97 -43h-29v212h223v-212l-124 -210h-101z" />
    <glyph glyph-name="numbersign.tnum" 
d="M60 0l7 38q12 64 101 141l-43 42q-54 -63 -90 -63h-10v131h93l25 123h-83v139h110l30 149h137l-6 -30q-11 -64 -100 -141l43 -42q33 39 54 51.5t52 12.5h14l30 149h136l-6 -30q-11 -65 -99 -141l43 -42q54 64 90 64h7v-139h-93l-24 -123h82v-131h-109l-32 -158h-136l8 38
q11 64 100 141l-44 42q-33 -38 -54 -50.5t-52 -12.5h-13l-33 -158h-135zM254 289h87l25 123h-87z" />
    <glyph glyph-name="parenleft.case" horiz-adv-x="366" 
d="M38 353q0 90 16.5 169t50.5 145.5t94 106t139 41.5v-141q-86 -14 -117 -103q-30 -90 -30 -223q0 -129 31 -216q32 -89 116 -102v-140q-79 4 -139 44t-94 106t-50.5 144.5t-16.5 168.5z" />
    <glyph glyph-name="parenright.case" horiz-adv-x="367" 
d="M329 353q0 -91 -16.5 -170t-51 -145t-94 -105.5t-138.5 -41.5v141q86 12 116 102q31 90 31 223q0 129 -31 216q-32 90 -116 103v139q79 -4 138.5 -43.5t94 -105.5t51 -144.5t16.5 -168.5z" />
    <glyph glyph-name="braceleft.case" horiz-adv-x="391" 
d="M107 65v149q0 44 -18.5 60.5t-62.5 16.5v123q45 0 63 13.5t18 55.5v157q0 90 35.5 127.5t125.5 37.5h95v-118h-41q-34 0 -48 -14t-14 -50v-119q0 -65 -33.5 -92.5t-108.5 -28.5v-57q74 -1 108 -29.5t34 -93.5v-120q0 -38 14 -51.5t48 -13.5h41v-118h-95
q-90 0 -125.5 37.5t-35.5 127.5z" />
    <glyph glyph-name="braceright.case" horiz-adv-x="391" 
d="M284 641v-150q0 -44 18 -60t62 -16v-123q-43 0 -61.5 -14.5t-18.5 -54.5v-158q0 -90 -35.5 -127.5t-125.5 -37.5h-96v118h41q35 0 48.5 14t13.5 51v118q0 64 34 92t108 29v57q-74 1 -108 29.5t-34 93.5v121q0 37 -13.5 51t-48.5 14h-41v117h96q90 0 125.5 -37.5
t35.5 -126.5z" />
    <glyph glyph-name="bracketleft.case" horiz-adv-x="383" 
d="M74 -100v905h283v-125h-126v-655h126v-125h-283z" />
    <glyph glyph-name="bracketright.case" horiz-adv-x="383" 
d="M309 805v-905h-282v125h125v656h-125v124h282z" />
    <glyph glyph-name="angleleft.case" horiz-adv-x="395" 
d="M179 356l205 -390l-139 -76l-234 462l235 463l136 -76z" />
    <glyph glyph-name="angleright.case" horiz-adv-x="395" 
d="M150 815l234 -462l-235 -463l-136 75l203 384l-205 390z" />
    <glyph glyph-name="uni3010.case" horiz-adv-x="411" 
d="M74 -100v905h348q-187 -209 -187 -451q0 -247 187 -454h-348z" />
    <glyph glyph-name="uni3011.case" horiz-adv-x="411" 
d="M336 805v-905h-347q187 209 187 451q0 244 -187 454h347z" />
    <glyph glyph-name="uni300C.case" horiz-adv-x="402" 
d="M65 352v453h323v-132h-165v-321h-158z" />
    <glyph glyph-name="uni300D.case" horiz-adv-x="398" 
d="M337 354v-453h-322v132h165v321h157z" />
    <glyph glyph-name="uni300A.case" horiz-adv-x="687" 
d="M382 739l-203 -382l205 -391l-139 -76l-234 463l235 462zM471 357l206 -391l-139 -76l-235 463l235 462l137 -76z" />
    <glyph glyph-name="uni300B.case" horiz-adv-x="687" 
d="M150 816l234 -463l-235 -462l-136 75l203 383l-205 391zM442 816l235 -463l-235 -462l-136 75l203 383l-205 391z" />
    <glyph glyph-name="uni3014.case" horiz-adv-x="374" 
d="M204 170l161 -180l-110 -100l-206 227v473l208 225l107 -101l-160 -169v-375z" />
    <glyph glyph-name="uni3015.case" horiz-adv-x="373" 
d="M118 815l206 -227v-472l-208 -226l-107 101l160 169v375l-161 180z" />
    <glyph glyph-name="uni300E.case" horiz-adv-x="586" 
d="M74 223v582h477v-294h-164v-288h-313zM197 338h80v275h150v77h-230v-352z" />
    <glyph glyph-name="uni300F.case" horiz-adv-x="578" 
d="M510 481v-582h-477v294h164v288h313zM387 366h-79v-275h-151v-76h230v351z" />
    <glyph glyph-name="hyphen.case" horiz-adv-x="499" 
d="M57 298v147h385v-147h-385z" />
    <glyph glyph-name="uni00AD.case" horiz-adv-x="499" 
d="M57 298v147h385v-147h-385z" />
    <glyph glyph-name="endash.case" horiz-adv-x="670" 
d="M58 304v133h555v-133h-555z" />
    <glyph glyph-name="emdash.case" horiz-adv-x="907" 
d="M58 306v131h791v-131h-791z" />
    <glyph glyph-name="quotesinglbase.ss04" horiz-adv-x="289" 
d="M52 -167l54 89q19 29 35 44t42 28l-26 40q-40 -34 -79 -34h-25v168h183v-168l-101 -167h-83z" />
    <glyph glyph-name="quotedblbase.ss04" horiz-adv-x="525" 
d="M52 -167l54 89q19 29 35 44t42 28l-26 40q-40 -34 -79 -34h-25v168h183v-168l-101 -167h-83zM288 -167l54 89q19 29 35 44t42 28l-26 40q-40 -34 -79 -34h-25v168h183v-168l-101 -167h-83z" />
    <glyph glyph-name="quotedblleft.ss04" horiz-adv-x="514" 
d="M229 701l-55 -89q-18 -29 -34 -44t-42 -27l26 -41q40 34 79 34h25v-168h-184v168l102 167h83zM465 701l-55 -89q-30 -49 -76 -71l26 -41q37 34 79 34h24v-168h-183v168l102 167h83z" />
    <glyph glyph-name="quotedblright.ss04" horiz-adv-x="506" 
d="M52 365l54 89q19 29 35 44t42 28l-26 40q-40 -34 -79 -34h-25v168h183v-168l-101 -167h-83zM288 365l54 89q19 29 35 44t42 28l-26 40q-40 -34 -79 -34h-25v168h183v-168l-101 -167h-83z" />
    <glyph glyph-name="quoteleft.ss04" horiz-adv-x="278" 
d="M229 701l-55 -89q-18 -29 -34 -44t-42 -27l26 -41q40 34 79 34h25v-168h-184v168l102 167h83z" />
    <glyph glyph-name="quoteright.ss04" horiz-adv-x="271" 
d="M52 365l54 89q19 29 35 44t42 28l-26 40q-40 -34 -79 -34h-25v168h183v-168l-101 -167h-83z" />
    <glyph glyph-name="guillemotleft.case" horiz-adv-x="656" 
d="M349 582l-149 -245l145 -241h-171l-143 243l144 243h174zM614 582l-151 -245l147 -241h-171l-144 243l146 243h173z" />
    <glyph glyph-name="guillemotright.case" horiz-adv-x="657" 
d="M217 582l144 -244l-146 -242h-173l150 245l-147 241h172zM482 582l143 -243l-145 -243h-173l149 245l-145 241h171z" />
    <glyph glyph-name="guilsinglleft.case" horiz-adv-x="392" 
d="M350 582l-151 -245l147 -241h-171l-144 244l146 242h173z" />
    <glyph glyph-name="guilsinglright.case" horiz-adv-x="393" 
d="M217 582l144 -244l-146 -242h-173l150 244l-147 242h172z" />
    <glyph glyph-name="space.tnum" 
 />
    <glyph glyph-name="_525" horiz-adv-x="601" 
d="M355 -14v-101h-94v102q-103 15 -163.5 85.5t-60.5 177.5q0 106 61.5 176.5t162.5 87.5v110h94v-109q80 -10 136 -52.5t77 -108.5l-164 -48q-23 87 -95 87q-46 0 -73 -36.5t-27 -104.5q0 -67 28 -105t73 -38q72 0 98 92l167 -41q-24 -75 -80.5 -120t-139.5 -54z" />
    <glyph glyph-name="_528" horiz-adv-x="652" 
d="M281 -92v81q-106 10 -171 68t-82 145l167 48q10 -55 44.5 -89t91.5 -34q52 0 79 20.5t27 55.5q0 59 -86 73l-79 12q-108 15 -160.5 66.5t-52.5 146.5q0 85 59.5 144.5t162.5 71.5v82h105v-83q91 -12 147.5 -61.5t74.5 -126.5l-166 -47q-26 100 -119 100q-44 0 -67.5 -20
t-23.5 -52q0 -56 74 -67l79 -10q109 -15 169 -71.5t60 -148.5q0 -90 -59 -150t-169 -72v-82h-105z" />
    <glyph glyph-name="_536" horiz-adv-x="1186" 
d="M1155 400h-140l-14 -59h115v-91h-137l-61 -250h-199l-62 255q-17 85 -21 156t-6 168h-64q0 -88 -5 -166q-4 -65 -23 -158l-64 -255h-204l-62 250h-132v91h109l-15 59h-141v92h118l-52 208h189l41 -214q21 -117 23 -349h64v16q0 171 20 280l61 267h207l59 -267
q23 -124 22 -296h64q2 239 22 349l42 214h179l-50 -208h117v-92z" />
    <glyph glyph-name="uni20BF.tnum" 
d="M416 2v-106h-103v104h-46v-104h-102v104h-118v700h118v95h102v-95h46v95h103v-97q85 -9 131.5 -51.5t46.5 -103.5q0 -68 -48.5 -106.5t-136.5 -40.5v-60q97 -1 151.5 -40.5t54.5 -116.5q0 -73 -53 -119.5t-146 -57.5zM419 491q0 66 -84 66h-112v-133h112q84 0 84 67z
M433 218q0 37 -25.5 56.5t-70.5 19.5h-114v-151h114q96 0 96 75z" />
    <glyph glyph-name="cent.tnum" 
d="M271 -115v102q-98 15 -157 86t-59 177q0 107 60.5 177.5t155.5 86.5v110h94v-109q77 -10 131 -54t72 -108l-146 -46q-17 56 -57 74v-127q0 -85 -43 -125l35 -37q49 32 67 108l151 -40q-21 -72 -76 -118t-134 -56v-101h-94zM271 125v119q0 90 42 129l-34 39
q-72 -54 -72 -153q0 -101 64 -134z" />
    <glyph glyph-name="currency.tnum" 
d="M130 74l-104 103l75 73q-27 51 -27 107q0 55 24 102l-73 74l104 103l75 -74q49 24 106 24q58 0 105 -24l76 75l104 -102l-75 -76q25 -44 25 -102q0 -56 -26 -106l77 -75l-105 -103l-79 77q-51 -23 -102 -23q-52 0 -103 23zM398 356q0 39 -25 66t-63 27q-39 0 -64 -27
t-25 -66q0 -38 25 -64.5t64 -26.5q38 0 63 26.5t25 64.5z" />
    <glyph glyph-name="dollar.tnum" 
d="M266 -92v81q-101 12 -163 69t-79 143l153 47q7 -42 30.5 -73t58.5 -40v152l-17 4q-100 17 -147 67.5t-47 145.5q0 83 56.5 142t154.5 71v82h102v-82q86 -12 141 -62t73 -125l-143 -44q-20 73 -71 91v-149l25 -6q196 -45 196 -212q0 -89 -57.5 -148.5t-163.5 -71.5v-82
h-102zM266 448v25q0 77 44 110l-27 43q-77 -32 -77 -103q0 -55 60 -75zM435 192q0 60 -68 79v-24q0 -77 -43 -110l28 -45q83 32 83 100z" />
    <glyph glyph-name="Euro.tnum" 
d="M93 218h-61v96h49v31v30h-49v97h59q24 114 91.5 179.5t161.5 65.5q96 0 165 -59.5t85 -165.5l-152 -38q-9 57 -37.5 90t-71.5 33q-76 0 -123 -111l43 -30q30 36 67 36h31v-97h-111q-1 -13 -1 -30q0 -18 1 -31h111v-96h-31q-38 0 -67 36l-43 -31q43 -102 123 -102
q44 0 70 32.5t39 99.5l154 -48q-28 -108 -93 -165t-160 -57t-161.5 61.5t-88.5 173.5z" />
    <glyph glyph-name="uni20BA.tnum" 
d="M125 0v54q0 79 55 150l-48 32q-33 -65 -66 -83l-25 -13v129l84 45v62l-84 -45v129l84 46v197h168v-40q0 -41 -40 -94l49 -30q32 79 94 111l76 40v-128l-179 -95v-63l179 95v-129l-179 -95v-115h23q51 0 94 43t65 110l142 -80q-78 -233 -358 -233h-134z" />
    <glyph glyph-name="uni20BD.tnum" 
d="M372 275h-111v-53h193v-113h-193v-109h-162v109h-63v113h63v53h-63v123h63v302h260q108 0 173 -60t65 -160q0 -92 -64 -148.5t-161 -56.5zM261 556v-158h77q40 0 64 21.5t24 56.5q0 36 -23.5 58t-64.5 22h-77z" />
    <glyph glyph-name="uni20B9.tnum" 
d="M306 0l-31 158q-12 57 -35 77.5t-78 20.5h-105v138h137q43 0 70 23.5t27 64.5q0 40 -27 63t-70 23h-137v132h521v-116h-55q-79 0 -154 46l-27 -53q39 -14 66 -45t36 -72h134v-109h-110h-207v-59h18q85 0 127.5 -30t60.5 -108l35 -154h-196z" />
    <glyph glyph-name="sterling.tnum" 
d="M412 147h165v-147h-519v151q49 8 87.5 40t38.5 74q0 12 -3 24h-122v103h61q-38 57 -38 119q0 93 70 149.5t171 56.5q98 0 166.5 -51.5t81.5 -149.5l-170 -39q-4 48 -25.5 73t-54.5 25t-53 -19.5t-20 -54.5q0 -41 44 -109h151v-103h-117v-3q0 -50 -36 -85.5t-112 -66.5
l30 -58q90 71 204 71z" />
    <glyph glyph-name="uni20A9.tnum" 
d="M594 385h-67l-6 -66h73v-101h-81l-19 -218h-153l-1 81l-1 63l-2 166h-56q0 -13 -0.5 -35t-1 -58.5t-0.5 -64.5l-1 -71l-2 -81h-155l-17 218h-78v101h71l-5 66h-66v101h58l-17 214h127v-80q0 -76 -8 -289q-1 -33 -3.5 -93.5t-3.5 -81.5h56q0 102 15 264l1 18l6 68h106
l6 -68q4 -39 11 -145q4 -57 4 -137h55q0 6 -1 23t-2 55t-2 73q-8 238 -8 313v80h128l-18 -214h58v-101z" />
    <glyph glyph-name="yen.tnum" 
d="M646 700l-181 -296h102v-102h-164v-62h163v-98h-163v-142h-183v142h-163v98h163v62h-163v102h100l-182 296h203l60 -110q29 -58 37 -103.5t9 -128.5h60q0 77 10 131t39 108l55 103h198z" />
    <glyph glyph-name="_579" 
d="M146 88l-91 93l163 165l-164 166l92 93l165 -166l163 165l91 -92l-164 -165l164 -166l-92 -93l-163 165z" />
    <glyph glyph-name="plus.tnum" 
d="M241 91v196h-194v134h194v196h138v-196h194v-134h-194v-196h-138z" />
    <glyph glyph-name="minus.tnum" 
d="M69 286v134h482v-134h-482z" />
    <glyph glyph-name="multiply.tnum" 
d="M145 93l-91 92l164 162l-165 163l93 92l164 -164l164 162l91 -90l-164 -162l164 -163l-92 -92l-164 163z" />
    <glyph glyph-name="divide.tnum" 
d="M230 478v147h160v-147h-160zM61 288v130h498v-130h-498zM230 81v148h160v-148h-160z" />
    <glyph glyph-name="equal.tnum" 
d="M72 401v134h476v-134h-476zM72 165v133h476v-133h-476z" />
    <glyph glyph-name="notequal.tnum" 
d="M109 85l41 80h-79v133h148l23 44q16 33 71 80l-35 45q-53 -66 -129 -66h-78v134h270l43 83h121l-44 -83h87v-134h-156l-22 -43q-14 -31 -70 -81l34 -45q53 66 125 66h89v-133h-277l-42 -80h-120z" />
    <glyph glyph-name="greater.tnum" 
d="M81 73v150l152 52q117 38 238 42v57q-110 1 -237 43l-153 51v153l481 -165v-218z" />
    <glyph glyph-name="less.tnum" 
d="M539 621v-150l-153 -52q-121 -39 -238 -43v-56q115 -4 237 -43l154 -51v-153l-482 165v218z" />
    <glyph glyph-name="greaterequal.tnum" 
d="M75 228v137l123 23q88 16 267 18v56q-168 0 -267 17l-123 21v144l476 -101v-207zM75 76v131h476v-131h-476z" />
    <glyph glyph-name="lessequal.tnum" 
d="M545 229l-476 100v207l476 108v-137l-123 -23q-88 -16 -267 -18v-56q155 0 267 -16l123 -22v-143zM69 76v131h476v-131h-476z" />
    <glyph glyph-name="plusminus.tnum" 
d="M250 252v114h-174v123h174v127h125v-127h174v-123h-174v-114h-125zM68 76v131h477v-131h-477z" />
    <glyph glyph-name="approxequal.tnum" 
d="M312 382l-37 21q-35 20 -60 20q-52 0 -83 -58l-102 74q25 60 71 93.5t104 33.5q52 0 107 -31l37 -21q32 -18 56 -18q51 0 83 61l103 -77q-25 -60 -71.5 -93t-104.5 -33q-54 0 -103 28zM312 146l-37 21q-37 20 -60 20q-52 0 -83 -58l-102 74q25 60 71 93.5t104 33.5
q52 0 107 -31l37 -22q33 -17 56 -17q51 0 83 60l103 -75q-25 -60 -71.5 -94t-104.5 -34q-53 0 -103 29z" />
    <glyph glyph-name="logicalnot.tnum" 
d="M415 150v140h-349v136h474v-276h-125z" />
    <glyph glyph-name="percent.tnum" 
d="M6 554q0 74 38.5 118.5t106.5 44.5q67 0 104 -45t37 -118q0 -76 -37 -120.5t-104 -44.5t-106 45t-39 120zM69 0l377 700h105l-376 -700h-106zM196 554q0 82 -46 82q-47 0 -47 -82q0 -85 47 -85q46 0 46 85zM328 148q0 75 38.5 119.5t106.5 44.5t105 -45t37 -119
q0 -75 -37 -120t-105 -45q-67 0 -106 45t-39 120zM519 148q0 83 -46 83q-22 0 -35 -22t-13 -61q0 -85 47 -85t47 85z" />
    <glyph glyph-name="perthousand.tnum" 
d="M7 554q0 74 32 118.5t88 44.5q55 0 86 -45t31 -118q0 -74 -31 -119.5t-86 -45.5t-87.5 45t-32.5 120zM399 700h87l-385 -700h-87zM96 554q0 -45 6.5 -64.5t23.5 -19.5q29 0 29 84q0 82 -28 82q-31 0 -31 -82zM614 148q0 -76 -28.5 -120.5t-79.5 -44.5q-43 0 -70 36
q-27 -36 -69 -36q-49 0 -79.5 45.5t-30.5 119.5q0 73 30 118t80 45q43 0 69 -30q26 30 70 30q51 0 79.5 -44.5t28.5 -118.5zM398 148q0 82 -27 82q-28 0 -28 -82q0 -46 6 -65t21 -19q17 0 22.5 19t5.5 65zM528 148q0 44 -6 63t-21 19q-29 0 -29 -82q0 -84 28 -84
q17 0 22.5 19t5.5 65z" />
    <glyph glyph-name="at.case" horiz-adv-x="958" 
d="M34 335q-2 129 64 230t172 152.5t228 49.5q123 1 224.5 -45.5t161.5 -134.5t58 -198q0 -120 -65.5 -193t-151.5 -73q-55 0 -87 28.5t-37 72.5h-41q-32 -101 -130 -101q-65 0 -106.5 62t-41.5 154q0 87 41.5 145.5t107.5 58.5q95 0 129 -101h49q-22 42 -24 89h105v-258
q0 -36 33 -36q34 0 57 39.5t23 112.5q0 118 -83.5 188t-223.5 70q-141 0 -230.5 -82t-89.5 -229q0 -151 86 -231.5t242 -80.5q145 0 263 58l52 -111q-133 -67 -313 -67q-217 0 -344.5 114t-127.5 317zM561 340q0 46 -18.5 73.5t-51.5 27.5t-51.5 -27.5t-18.5 -74.5
q0 -48 18.5 -77t51.5 -29t51.5 29.5t18.5 77.5z" />
    <glyph glyph-name="registered.case" horiz-adv-x="890" 
d="M35 351q-3 165 119 285.5t289 117.5q168 3 291.5 -117.5t120.5 -285.5q2 -108 -54 -203t-152 -149.5t-206 -52.5q-109 -2 -204 52.5t-150.5 149.5t-53.5 203zM741 351q2 125 -84 213t-212 86q-126 2 -212 -86t-84 -213q-2 -124 84.5 -213.5t211.5 -86.5
q125 -3 211.5 86.5t84.5 213.5zM281 148v414h212q58 0 95 -27.5t37 -72.5q0 -84 -114 -95v-38q47 0 69 -20t29 -66l15 -95h-110l-11 92q-6 40 -22.5 57.5t-49.5 17.5h-46v-167h-104zM385 389h71q61 0 61 49q0 48 -62 48h-70v-97z" />
    <glyph glyph-name="section.tnum" 
d="M73 -24l151 32q13 -79 82 -79q32 0 50 16t18 41q0 45 -55 61l-143 48q-74 25 -106 55t-32 81q0 54 35.5 88t104.5 41v56q-89 32 -89 122q0 74 61.5 126.5t158.5 52.5q95 0 152.5 -48t69.5 -127l-148 -35q-17 77 -78 77q-28 0 -45 -16.5t-17 -41.5q0 -22 12.5 -36.5
t47.5 -25.5l142 -46q138 -44 138 -138q0 -53 -36 -86t-108 -39v-55q94 -36 94 -132q0 -80 -61.5 -128.5t-166.5 -48.5q-100 0 -160.5 49.5t-71.5 135.5zM427 230q0 41 -49 58l-103 37l-37 13q-49 -24 -49 -58q0 -38 53 -56l97 -35q19 -5 41 -15q47 24 47 56z" />
    <glyph glyph-name="degree.tnum" 
d="M106 599q0 84 58.5 141t145.5 57q89 0 146.5 -56.5t57.5 -141.5t-57.5 -141t-146.5 -56q-90 0 -147 56.5t-57 140.5zM385 601q0 34 -21 56t-53 22q-33 0 -54.5 -22t-21.5 -56q0 -37 21.5 -59t54.5 -22t53.5 22.5t20.5 58.5z" />
    <glyph glyph-name="_645" horiz-adv-x="0" 
d="M-164 405l91 147h-89v149h161v-149l-90 -147h-73z" />
    <glyph glyph-name="_650" horiz-adv-x="277" 
d="M104 832l49 123h179l-116 -123h-112zM26 673q0 56 40.5 93.5t94.5 37.5t93.5 -37t39.5 -92q0 -54 -39.5 -90t-93.5 -36t-94.5 35.5t-40.5 88.5zM206 676q0 21 -13 33.5t-32 12.5q-20 0 -33 -12.5t-13 -33.5q0 -20 13 -33t33 -13q19 0 32 13t13 33z" />
    <glyph glyph-name="uni0327.ss04" horiz-adv-x="0" 
d="M-283 -179l55 67q37 -37 71 -37q36 0 36 24q0 10 -8.5 17t-23.5 7q-18 0 -27 -4l-35 46l72 71l82 -10l-25 -22q-21 -19 -64 -32l15 -33q25 13 51 13q31 0 50 -17.5t19 -49.5q0 -41 -34.5 -68.5t-103.5 -27.5q-41 0 -76.5 18t-53.5 38z" />
    <glyph glyph-name="cedilla.ss04" horiz-adv-x="375" 
d="M54 -179l55 68q36 -34 71 -34q36 0 36 22t-32 22q-14 0 -27 -3l-35 45l72 71l82 -10l-28 -25l-28 -24l11 -1q37 -2 64 -24.5t27 -63.5q0 -42 -34.5 -70.5t-103.5 -28.5q-41 0 -76.5 18t-53.5 38z" />
    <glyph glyph-name="_673" horiz-adv-x="0" 
d="M-398 566v132h170v-132h-170zM-142 566v132h171v-132h-171z" />
    <glyph glyph-name="_674" horiz-adv-x="0" 
d="M-165 563v147h167v-147h-167z" />
    <glyph glyph-name="_675" horiz-adv-x="0" 
d="M-130 566l-129 154h200l55 -154h-126z" />
    <glyph glyph-name="_676" horiz-adv-x="0" 
d="M-226 566l55 154h200l-130 -154h-125z" />
    <glyph glyph-name="_677" horiz-adv-x="0" 
d="M-446 566l54 154h200l-129 -154h-125zM-216 566l54 154h200l-129 -154h-125z" />
    <glyph glyph-name="_678" horiz-adv-x="0" 
d="M-465 566l124 138h218l123 -138h-157l-75 72l-76 -72h-157z" />
    <glyph glyph-name="_679" horiz-adv-x="0" 
d="M-20 704l-124 -138h-218l-123 138h157l76 -73l75 73h157z" />
    <glyph glyph-name="_680" horiz-adv-x="0" 
d="M-421 704h124q2 -22 23.5 -42t60.5 -20q37 0 59 20t24 42h124q-5 -69 -56.5 -112.5t-150.5 -43.5q-101 0 -153 43.5t-55 112.5z" />
    <glyph glyph-name="_681" horiz-adv-x="0" 
d="M-293 676q0 60 44 101t102 41t101 -40t43 -100t-42 -98.5t-102 -38.5q-59 0 -102.5 38.5t-43.5 96.5zM-99 679q0 22 -14 36t-34 14q-22 0 -36 -14t-14 -36t14 -36.5t36 -14.5q21 0 34.5 14.5t13.5 36.5z" />
    <glyph glyph-name="_682" horiz-adv-x="277" 
d="M99 823l49 123h179l-116 -123h-112zM21 664q0 56 40.5 93.5t94.5 37.5t93.5 -37t39.5 -92q0 -54 -39.5 -90t-93.5 -36t-94.5 35.5t-40.5 88.5zM201 667q0 21 -13 33.5t-32 12.5q-20 0 -33 -12.5t-13 -33.5q0 -20 13 -33t33 -13q19 0 32 13t13 33z" />
    <glyph glyph-name="_683" horiz-adv-x="0" 
d="M-233 582l-26 14q-34 19 -52 19q-38 0 -40 -50h-120q-2 71 35.5 109.5t107.5 38.5q46 0 96 -26l26 -15q33 -17 53 -17q38 0 40 49h116q4 -148 -138 -148q-49 0 -98 26z" />
    <glyph glyph-name="_684" horiz-adv-x="0" 
d="M-381 573v105h369v-105h-369z" />
    <glyph glyph-name="_685" horiz-adv-x="0" 
d="M-166 -205v147h167v-147h-167z" />
    <glyph glyph-name="NULL" horiz-adv-x="0" 
 />
    </font>
</defs>
</svg>
