<?xml version="1.0" standalone="no"?>
<!DOCTYPE svg PUBLIC "-//W3C//DTD SVG 1.1//EN" "http://www.w3.org/Graphics/SVG/1.1/DTD/svg11.dtd" >
<svg xmlns="http://www.w3.org/2000/svg" xmlns:xlink="http://www.w3.org/1999/xlink" version="1.1">
<metadata>
Created by FontForge 20170731 at Tue Mar 12 05:31:09 2019
 By Aleksey,,,
Copyright 2019 Dinamo (Johannes Breyer, Fabian Harb) &#38; Erkin Karamemet. All rights reserved.
</metadata>
<defs>
<font id="WhyteInktrap-Regular" horiz-adv-x="620" >
  <font-face 
    font-family="Whyte Inktrap"
    font-weight="400"
    font-stretch="normal"
    units-per-em="1000"
    panose-1="2 11 0 4 5 1 1 2 1 3"
    ascent="800"
    descent="-200"
    x-height="496"
    cap-height="700"
    bbox="-420 -313 1167 1130"
    underline-thickness="24"
    underline-position="-97"
    unicode-range="U+000D-FB02"
  />
<missing-glyph horiz-adv-x="699" 
d="M101 0v701h498v-701h-498zM184 79h332v543h-332v-543z" />
    <glyph glyph-name="fi" unicode="fi" horiz-adv-x="625" 
d="M543 496v-496h-94v418h-228v-418h-95v418h-107v78h107v73q0 131 125 131h116v-81h-97q-26 0 -37.5 -11.5t-11.5 -37.5v-74h322zM446 700h99v-112h-99v112z" />
    <glyph glyph-name="fl" unicode="fl" horiz-adv-x="625" 
d="M543 700v-700h-94v619h-179q-26 0 -37.5 -11.5t-11.5 -37.5v-74h128v-78h-128v-418h-95v418h-107v78h107v73q0 131 125 131h292z" />
    <glyph glyph-name="f_f" unicode="ff" horiz-adv-x="687" 
d="M543 570v-74h128v-78h-128v-418h-94v418h-228v-418h-95v418h-107v78h107v73q0 131 125 131h116v-81h-97q-26 0 -37.5 -11.5t-11.5 -37.5v-74h228v73q0 131 125 131h116v-81h-97q-26 0 -38 -11.5t-12 -37.5z" />
    <glyph glyph-name="f_f_i" unicode="ffi" horiz-adv-x="947" 
d="M866 496v-496h-95v418h-228v-418h-94v418h-228v-418h-95v418h-107v78h107v73q0 131 125 131h116v-81h-97q-26 0 -37.5 -11.5t-11.5 -37.5v-74h228v73q0 131 125 131h116v-81h-97q-26 0 -38 -11.5t-12 -37.5v-74h323zM768 700h100v-112h-100v112z" />
    <glyph glyph-name="f_f_l" unicode="ffl" horiz-adv-x="948" 
d="M866 700v-700h-94v619h-179q-26 0 -38 -11.5t-12 -37.5v-74h128v-78h-128v-418h-94v418h-228v-418h-95v418h-107v78h107v73q0 131 125 131h116v-81h-97q-26 0 -37.5 -11.5t-11.5 -37.5v-74h228v73q0 131 125 131h292z" />
    <glyph glyph-name=".notdef" horiz-adv-x="699" 
d="M101 0v701h498v-701h-498zM184 79h332v543h-332v-543z" />
    <glyph glyph-name=".null" horiz-adv-x="0" 
 />
    <glyph glyph-name="nonmarkingreturn" horiz-adv-x="333" 
 />
    <glyph glyph-name="CR" unicode="&#xd;" horiz-adv-x="255" 
 />
    <glyph glyph-name="space" unicode=" " horiz-adv-x="255" 
 />
    <glyph glyph-name="exclam" unicode="!" horiz-adv-x="272" 
d="M112 223l-26 269v208h101v-211l-30 -266h-45zM73 0v130h127v-130h-127z" />
    <glyph glyph-name="quotedbl" unicode="&#x22;" horiz-adv-x="398" 
d="M85 424l-24 189v87h99v-87l-25 -189h-50zM263 424l-24 189v87h99v-87l-25 -189h-50z" />
    <glyph glyph-name="numbersign" unicode="#" horiz-adv-x="715" 
d="M118 0l18 87q6 33 20 54t46 43l-23 35q-23 -17 -42 -22.5t-51 -5.5h-50v81h138l34 159h-123v84h140l39 185h88l-17 -82q-6 -32 -20 -53t-46 -43l23 -35q21 17 41 22.5t55 5.5h80l39 185h89l-16 -82q-9 -34 -21 -53.5t-46 -42.5l24 -35q21 17 40 22.5t52 5.5h51v-84h-140
l-34 -159h123v-81h-139l-40 -191h-89l19 87q7 33 21 54t46 43l-24 35q-22 -17 -41.5 -22.5t-54.5 -5.5h-80l-41 -191h-88zM263 272h155l34 159h-156z" />
    <glyph glyph-name="dollar" unicode="$" horiz-adv-x="608" 
d="M267 -104v92q-89 11 -149 61.5t-85 129.5l92 42q16 -56 52.5 -93.5t89.5 -49.5v241l-22 5q-88 19 -133 65t-45 127q0 77 55.5 132t144.5 64v92h78v-92q83 -8 137.5 -56t72.5 -106l-89 -42q-35 95 -121 114v-223l29 -7q191 -51 191 -197q0 -87 -58 -143t-162 -65v-91h-78z
M267 417v90q0 45 6 69t30 49l-20 31q-59 -14 -89.5 -49t-30.5 -87q0 -46 23 -67.5t81 -35.5zM466 190q0 44 -28.5 70t-92.5 42v-107q0 -74 -35 -113l21 -31q63 15 99 51.5t36 87.5z" />
    <glyph glyph-name="percent" unicode="%" horiz-adv-x="883" 
d="M143 0l499 700h96l-498 -700h-97zM515 204q0 93 46 149.5t120 56.5q75 0 120 -56.5t45 -149.5q0 -97 -43.5 -153t-121.5 -56q-77 0 -121.5 56t-44.5 153zM762 204q0 61 -22.5 99t-58.5 38q-35 0 -58 -38t-23 -99q0 -66 21.5 -103t59.5 -37t59.5 37t21.5 103zM36 502
q0 93 46 149.5t120 56.5q75 0 120 -56.5t45 -149.5q0 -97 -43.5 -153t-121.5 -56q-77 0 -121.5 56t-44.5 153zM283 502q0 61 -22.5 99t-58.5 38q-35 0 -58 -38t-23 -99q0 -66 21.5 -103t59.5 -37t59.5 37t21.5 103z" />
    <glyph glyph-name="ampersand" unicode="&#x26;" horiz-adv-x="662" 
d="M44 180q0 118 125 195q-42 85 -42 162q0 82 48 129.5t124 47.5q75 0 119.5 -43t44.5 -107q0 -73 -54 -125.5t-153 -59.5l-4 -41q25 -6 44 -20t48 -44q47 -50 108 -97q39 65 57 154l90 -28q-26 -104 -72 -176q56 -34 125 -62l-32 -78q-69 24 -148 74q-81 -75 -199 -75
q-104 0 -166.5 55t-62.5 139zM244 418l33 19q97 56 97 128q0 30 -20 52t-57 22q-39 0 -60.5 -27t-21.5 -73q0 -57 29 -121zM421 101v38q-75 4 -151 91q-27 32 -60 76q-69 -49 -69 -116q0 -54 37.5 -88.5t100.5 -34.5q78 0 142 34z" />
    <glyph glyph-name="quotesingle" unicode="'" horiz-adv-x="220" 
d="M85 424l-24 189v87h99v-87l-25 -189h-50z" />
    <glyph glyph-name="parenleft" unicode="(" horiz-adv-x="321" 
d="M49 299q-1 114 23 210.5t81 168.5t141 87v-85q-78 -21 -118 -126t-40 -252q0 -95 15.5 -172.5t52 -134.5t90.5 -71v-84q-64 12 -112.5 55t-77 107t-42 139t-13.5 158z" />
    <glyph glyph-name="parenright" unicode=")" horiz-adv-x="321" 
d="M272 306q1 -114 -23 -210.5t-81 -168.5t-141 -87v85q78 21 118 126t40 252q0 95 -15.5 172.5t-52 134.5t-90.5 71v84q64 -12 112.5 -55t77 -107t42 -139t13.5 -158z" />
    <glyph glyph-name="asterisk" unicode="*" horiz-adv-x="542" 
d="M198 383l-76 45l23 35q34 52 87 82l-20 39q-49 -29 -118 -29h-42v84l152 -7l-80 123l75 46l16 -32q35 -66 35 -115h42q-1 53 30 113l17 33l77 -44l-82 -124l156 7v-84h-42q-70 0 -119 28l-20 -38q52 -30 83 -80l25 -37l-79 -43l-68 132z" />
    <glyph glyph-name="plus" unicode="+" horiz-adv-x="607" 
d="M258 85v222h-221v91h221v222h91v-222h222v-91h-222v-222h-91z" />
    <glyph glyph-name="comma" unicode="," horiz-adv-x="272" 
d="M63 -140l79 140h-68v130h127v-130l-77 -140h-61z" />
    <glyph glyph-name="hyphen" unicode="-" horiz-adv-x="424" 
d="M67 262v97h289v-97h-289z" />
    <glyph glyph-name="period" unicode="." horiz-adv-x="262" 
d="M67 0v130h128v-130h-128z" />
    <glyph glyph-name="slash" unicode="/" horiz-adv-x="426" 
d="M31 -104l269 909h94l-269 -909h-94z" />
    <glyph glyph-name="zero" unicode="0" horiz-adv-x="674" 
d="M57 353q0 169 79.5 265t201.5 96q121 0 200 -96t79 -265q0 -174 -76 -270.5t-203 -96.5q-129 0 -205 96t-76 271zM512 353q0 124 -47.5 198t-126.5 74q-80 0 -128 -74t-48 -198q0 -134 46.5 -206t129.5 -72q82 0 128 72t46 206z" />
    <glyph glyph-name="one" unicode="1" horiz-adv-x="417" 
d="M217 0v472q0 63 19 110h-46q-19 -59 -61 -95.5t-101 -44.5v104q142 32 207 154h80v-700h-98z" />
    <glyph glyph-name="two" unicode="2" horiz-adv-x="584" 
d="M60 0v109q119 75 188 127q168 128 168 250q0 64 -36.5 101.5t-90.5 37.5q-59 0 -96.5 -42t-37.5 -113l-101 13q2 103 65.5 167t170.5 64q106 0 168.5 -60.5t62.5 -156.5q0 -110 -73 -195q-77 -90 -306 -217l25 -38q67 45 149 45h213v-92h-469z" />
    <glyph glyph-name="three" unicode="3" horiz-adv-x="589" 
d="M45 200l105 22q3 -69 42 -109t103 -40q58 0 95.5 32.5t37.5 87.5q0 54 -38 87t-98 33h-49v85h49q52 0 88.5 32t36.5 83q0 50 -35.5 82t-86.5 32q-55 0 -90 -34.5t-40 -91.5l-102 19q6 84 69 139t163 55q102 0 162.5 -52t60.5 -132q0 -68 -44.5 -107t-113.5 -44v-41
q73 -3 122 -44.5t49 -116.5q0 -82 -65 -136.5t-171 -54.5q-108 0 -175 58t-75 156z" />
    <glyph glyph-name="four" unicode="4" horiz-adv-x="593" 
d="M358 0v189h-329v94l277 417h149v-426h103v-85h-103v-189h-97zM358 274v179q0 53 10.5 86t33.5 66l-38 25l-236 -356l-8 -12l35 -27q20 21 41.5 30t66.5 9h95z" />
    <glyph glyph-name="five" unicode="5" horiz-adv-x="597" 
d="M46 162l100 33q14 -58 54.5 -90t97.5 -32q66 0 104.5 39t38.5 104t-38.5 103.5t-104.5 38.5q-45 0 -81.5 -21t-55.5 -53l-101 17l60 399h403v-92h-329l-18 -112q-11 -62 -22 -92q-12 -30 -33 -57h51q50 95 155 95q98 0 157.5 -60.5t59.5 -162.5q0 -105 -66 -169t-174 -64
q-105 0 -173 48.5t-85 127.5z" />
    <glyph glyph-name="six" unicode="6" horiz-adv-x="613" 
d="M56 326q-2 172 88 281t248 107q76 0 133 -21v-97q-64 23 -127 23q-120 0 -194 -78t-75 -226h41q13 58 60 98.5t117 40.5q97 0 158.5 -64.5t61.5 -159.5q0 -105 -66.5 -174.5t-179.5 -69.5q-122 0 -193.5 89.5t-71.5 250.5zM463 221q0 65 -41 106.5t-101 41.5
q-62 0 -102 -40.5t-40 -107.5t40 -107.5t102 -40.5q60 0 101 41t41 107z" />
    <glyph glyph-name="seven" unicode="7" horiz-adv-x="521" 
d="M416 608l12 11l-26 35q-61 -46 -142 -46h-235v92h475v-109q-148 -126 -203.5 -261t-56.5 -330h-111q0 187 74 341.5t213 266.5z" />
    <glyph glyph-name="eight" unicode="8" horiz-adv-x="605" 
d="M56 181q0 71 49 113.5t127 47.5v41q-72 5 -114.5 43.5t-42.5 104.5q0 80 63 131.5t165 51.5q101 0 164.5 -52t63.5 -131q0 -66 -42.5 -104.5t-114.5 -43.5v-41q79 -5 127 -47t48 -114q0 -85 -64.5 -140t-181.5 -55t-182 55t-65 140zM431 520q0 47 -36 77.5t-92 30.5
t-92 -30.5t-36 -77.5q0 -52 35.5 -82t92.5 -30q55 0 91.5 30.5t36.5 81.5zM445 194q0 55 -39 88t-104 33q-58 0 -100 -35t-42 -86q0 -55 39 -88t103 -33q66 0 104.5 33t38.5 88z" />
    <glyph glyph-name="nine" unicode="9" horiz-adv-x="604" 
d="M85 7v102q62 -25 132 -25q136 0 198 101q21 36 34 87.5t12 97.5h-41q-15 -47 -59 -80.5t-105 -33.5q-92 0 -150.5 61.5t-58.5 152.5q0 104 64.5 174t171.5 70t178 -72q87 -89 87 -267q0 -179 -83.5 -284t-243.5 -105q-82 0 -136 21zM425 483q0 64 -39 104t-98 40
q-58 0 -97.5 -40t-39.5 -104q0 -63 39.5 -102.5t97.5 -39.5q59 0 98 39.5t39 102.5z" />
    <glyph glyph-name="colon" unicode=":" horiz-adv-x="262" 
d="M67 367v130h128v-130h-128zM67 0v130h128v-130h-128z" />
    <glyph glyph-name="semicolon" unicode=";" horiz-adv-x="277" 
d="M77 367v130h128v-130h-128zM65 -140l79 140h-68v130h127v-130l-77 -140h-61z" />
    <glyph glyph-name="less" unicode="&#x3c;" horiz-adv-x="643" 
d="M574 630v-103l-304 -116q-93 -33 -169 -38v-42q83 -5 169 -38l304 -117v-106l-534 209v141z" />
    <glyph glyph-name="equal" unicode="=" horiz-adv-x="678" 
d="M71 414v91h535v-91h-535zM71 195v91h535v-91h-535z" />
    <glyph glyph-name="greater" unicode="&#x3e;" horiz-adv-x="644" 
d="M70 70v103l304 116q93 33 168 38v42q-82 5 -168 38l-304 116v107l534 -209v-142z" />
    <glyph glyph-name="question" unicode="?" horiz-adv-x="497" 
d="M274 395q45 39 63 64.5t20 64.5q0 47 -30 75t-78 28q-57 0 -88 -37.5t-31 -108.5l-96 15q1 103 58.5 160t156.5 57q90 0 149.5 -51t59.5 -135q0 -54 -27 -97.5t-91 -95.5q-37 -31 -49 -53.5t-12 -57.5h-92q0 62 20 97t67 75zM170 0v130h127v-130h-127z" />
    <glyph glyph-name="at" unicode="@" horiz-adv-x="895" 
d="M45 298q-1 186 116.5 302t299.5 114q174 2 290 -106.5t114 -270.5q0 -115 -54.5 -187.5t-135.5 -72.5q-92 0 -98 85h-33q-31 -87 -119 -87q-74 0 -119.5 60.5t-45.5 152.5q0 93 47 155.5t119 62.5q83 0 116 -79h37q-16 39 -16 67h77v-305q0 -37 40 -37q42 0 68.5 52
t26.5 135q0 132 -86 214.5t-228 82.5q-148 0 -237 -90.5t-89 -247.5t88.5 -247.5t241.5 -90.5q141 0 245 65l36 -72q-121 -71 -281 -71q-196 0 -308 112t-112 304zM563 301q0 61 -29 98.5t-78 37.5t-79 -39.5t-30 -102.5q0 -64 28.5 -105.5t75.5 -41.5q50 0 81 42.5
t31 110.5z" />
    <glyph glyph-name="A" unicode="A" horiz-adv-x="691" 
d="M562 0l-65 185h-308l-66 -185h-108l263 700h138l258 -700h-112zM222 276h243l-68 191q-31 93 -32 163h-42q-4 -82 -32 -163z" />
    <glyph glyph-name="B" unicode="B" horiz-adv-x="702" 
d="M100 0v700h307q105 0 161.5 -46t56.5 -119q0 -67 -41 -104.5t-109 -42.5v-41q75 -3 124 -44t49 -115q0 -90 -64.5 -139t-166.5 -49h-317zM200 408h195q57 0 91.5 28t34.5 76q0 47 -33 71.5t-93 24.5h-195v-200zM200 92h203q64 0 101.5 31t37.5 83q0 53 -37 82.5
t-102 29.5h-203v-226z" />
    <glyph glyph-name="C" unicode="C" horiz-adv-x="736" 
d="M50 356q-2 152 96.5 256.5t246.5 101.5q121 0 201.5 -60.5t105.5 -146.5l-100 -36q-19 61 -69 106q-47 46 -138 46q-107 0 -171.5 -71.5t-64.5 -194.5q0 -126 65 -202.5t171 -76.5q86 0 135.5 40.5t75.5 117.5l97 -37q-27 -94 -107.5 -153.5t-200.5 -59.5
q-156 -2 -250.5 104.5t-92.5 265.5z" />
    <glyph glyph-name="D" unicode="D" horiz-adv-x="735" 
d="M100 0v700h246q150 0 243.5 -96t93.5 -251q0 -164 -92.5 -258.5t-250.5 -94.5h-240zM200 92h125q253 0 253 260q0 120 -63 188t-183 68h-132v-516z" />
    <glyph glyph-name="E" unicode="E" horiz-adv-x="644" 
d="M100 0v700h495v-92h-395v-200h293v-91h-293v-225h395v-92h-495z" />
    <glyph glyph-name="F" unicode="F" horiz-adv-x="633" 
d="M100 0v700h508v-92h-408v-222h321v-92h-321v-294h-100z" />
    <glyph glyph-name="G" unicode="G" horiz-adv-x="780" 
d="M51 351q-3 153 102.5 259t248.5 104q120 0 202 -59.5t113 -150.5l-102 -41q-59 158 -216 158q-99 0 -170 -73.5t-71 -196.5q0 -127 65.5 -200.5t172.5 -73.5q92 0 151.5 53t64.5 123h-242v92h345v-345h-97q0 73 39 149h-47q-22 -59 -80 -112q-56 -51 -162 -51
q-141 0 -229 99.5t-88 265.5z" />
    <glyph glyph-name="H" unicode="H" horiz-adv-x="767" 
d="M100 0v700h100v-292h367v292h100v-700h-100v316h-367v-316h-100z" />
    <glyph glyph-name="I" unicode="I" horiz-adv-x="300" 
d="M100 0v700h100v-700h-100z" />
    <glyph glyph-name="J" unicode="J" horiz-adv-x="508" 
d="M18 211l103 25q0 -82 23 -121.5t74 -39.5t74.5 37.5t23.5 116.5v471h100v-474q0 -240 -197 -240q-95 0 -147 59.5t-54 165.5z" />
    <glyph glyph-name="K" unicode="K" horiz-adv-x="683" 
d="M562 0l-269 340l-93 -96v-244h-100v700h100v-165q0 -56 -10.5 -89.5t-35.5 -62.5l31 -29l323 346h135l-280 -288l330 -412h-131z" />
    <glyph glyph-name="L" unicode="L" horiz-adv-x="587" 
d="M100 0v700h100v-606h377v-94h-477z" />
    <glyph glyph-name="M" unicode="M" horiz-adv-x="946" 
d="M100 0v700h168l156 -401q28 -72 32 -185h42q2 64 7 99q8 41 25 86l152 401h164v-700h-99v363q0 135 48 251l-42 16l-243 -630h-71l-246 630l-42 -16q49 -114 49 -251v-363h-100z" />
    <glyph glyph-name="N" unicode="N" horiz-adv-x="809" 
d="M100 0v700h152l368 -579l36 25q-28 42 -37.5 79.5t-9.5 104.5v370h100v-700h-125l-390 616l-36 -23q42 -80 42 -203v-390h-100z" />
    <glyph glyph-name="O" unicode="O" horiz-adv-x="802" 
d="M50 350q-2 159 100 262.5t252 101.5q150 2 250.5 -101.5t98.5 -262.5q2 -159 -98.5 -262.5t-250.5 -101.5q-150 -2 -252 101.5t-100 262.5zM645 350q0 119 -66.5 196t-177.5 77q-112 0 -178 -76.5t-66 -196.5q0 -121 66 -197t178 -76t178 76t66 197z" />
    <glyph glyph-name="P" unicode="P" horiz-adv-x="648" 
d="M100 0v700h284q108 0 171 -58.5t63 -154.5t-63 -155t-172 -59h-183v-273h-100zM200 360h165q71 0 109 35t38 92q0 56 -38 88.5t-109 32.5h-165v-248z" />
    <glyph glyph-name="Q" unicode="Q" horiz-adv-x="815" 
d="M50 350q-2 159 100 262.5t252 101.5q150 2 250.5 -101.5t98.5 -262.5q0 -130 -66 -224q54 -48 115 -48v-92q-123 0 -157 105h-39q-34 -47 -88 -76t-117 -29q-150 -2 -250 101.5t-99 262.5zM559 134l-16 20q-46 58 -80 83.5t-84 28.5q-9 0 -16 -1v95q18 2 32 2
q67 0 126 -51q44 -43 63 -124h39q22 69 22 163q0 119 -66.5 196t-177.5 77q-112 0 -178 -76.5t-66 -196.5q0 -121 66 -197t178 -76q93 0 158 57z" />
    <glyph glyph-name="R" unicode="R" horiz-adv-x="690" 
d="M100 0v700h299q104 0 165 -53.5t61 -136.5q0 -81 -52 -118q-51 -36 -128 -41v-42q75 -1 109.5 -30.5t49.5 -102.5l34 -176h-109l-29 167q-10 66 -46.5 94t-108.5 28h-145v-289h-100zM200 379h184q64 0 100 29.5t36 85.5t-36 85t-100 29h-184v-229z" />
    <glyph glyph-name="S" unicode="S" horiz-adv-x="626" 
d="M35 180l96 44q48 -148 194 -148q70 0 109 30.5t39 81.5q0 44 -30.5 70.5t-96.5 40.5l-93 21q-91 19 -137 66t-46 129q0 87 67.5 143t176.5 56q101 0 166.5 -49.5t86.5 -115.5l-94 -43q-17 49 -56 83q-39 36 -112 36q-63 0 -99 -29t-36 -76q0 -42 26.5 -65.5t84.5 -36.5
l96 -21q95 -21 148 -72t53 -128q0 -95 -68.5 -153t-190.5 -58q-110 0 -184.5 53t-99.5 141z" />
    <glyph glyph-name="T" unicode="T" horiz-adv-x="624" 
d="M257 0v608h-247v92h603v-92h-256v-608h-100z" />
    <glyph glyph-name="U" unicode="U" horiz-adv-x="727" 
d="M90 271v429h100v-415q0 -100 43.5 -153t129.5 -53t129.5 54t43.5 152v415h100v-429q0 -136 -70.5 -210.5t-202.5 -74.5q-130 0 -201.5 72t-71.5 213z" />
    <glyph glyph-name="V" unicode="V" horiz-adv-x="658" 
d="M255 0l-226 700h111l143 -462q20 -67 25 -157h42q1 73 26 156l145 463h110l-228 -700h-148z" />
    <glyph glyph-name="W" unicode="W" horiz-adv-x="992" 
d="M204 0l-167 700h105l88 -394q19 -79 21 -212h42q3 104 30 199l115 407h122l118 -445q19 -69 21 -161h43q3 138 21 216l93 390h105l-181 -700h-128l-113 422q-19 74 -21 190h-43q-2 -121 -20 -190l-121 -422h-130z" />
    <glyph glyph-name="X" unicode="X" horiz-adv-x="655" 
d="M7 0l259 365l-239 335h125l99 -143q29 -43 40 -75.5t13 -78.5h42q3 39 14 73q11 30 44 78l102 146h119l-235 -331l259 -369h-125l-121 179q-31 45 -39.5 75t-10.5 76h-43q-1 -37 -14 -70t-46 -81l-123 -179h-120z" />
    <glyph glyph-name="Y" unicode="Y" horiz-adv-x="646" 
d="M275 0v293l-254 407h120l118 -197q45 -75 46 -155h42q1 80 44 156l111 196h119l-246 -403v-297h-100z" />
    <glyph glyph-name="Z" unicode="Z" horiz-adv-x="631" 
d="M42 0v138l451 485l-30 31q-53 -46 -133 -46h-271v92h520v-126l-460 -495l30 -32q24 23 52 34t80 11h315v-92h-554z" />
    <glyph glyph-name="bracketleft" unicode="[" horiz-adv-x="337" 
d="M89 -150v905h220v-76h-132v-753h132v-76h-220z" />
    <glyph glyph-name="backslash" unicode="\" horiz-adv-x="428" 
d="M301 -104l-269 909h95l269 -909h-95z" />
    <glyph glyph-name="bracketright" unicode="]" horiz-adv-x="337" 
d="M248 755v-905h-220v76h132v753h-132v76h220z" />
    <glyph glyph-name="asciicircum" unicode="^" horiz-adv-x="525" 
d="M43 334l156 366h127l156 -366h-103l-60 153q-31 75 -36 160h-41q-5 -76 -36 -160l-60 -153h-103z" />
    <glyph glyph-name="underscore" unicode="_" horiz-adv-x="618" 
d="M54 -149v86h510v-86h-510z" />
    <glyph glyph-name="grave" unicode="`" horiz-adv-x="537" 
d="M240 567l-110 141h121l50 -141h-61z" />
    <glyph glyph-name="a" unicode="a" horiz-adv-x="543" 
d="M50 128q0 94 86 139q85 46 226 57v15q0 92 -104 92q-102 0 -130 -90l-88 30q15 58 72 98.5t146 40.5q97 0 147.5 -45.5t50.5 -128.5v-227q0 -17 6 -22.5t23 -5.5h51v-81h-41q-56 0 -75.5 22t-19.5 82h-38q-15 -54 -54.5 -86t-99.5 -32q-73 0 -115.5 38t-42.5 104z
M362 205v51q-215 -21 -215 -120q0 -34 22.5 -53.5t65.5 -19.5q53 0 90 37t37 105z" />
    <glyph glyph-name="b" unicode="b" horiz-adv-x="583" 
d="M175 107h-53q45 -63 45 -107h-85v700h94v-115q0 -70 -13.5 -112t-42.5 -84h55q43 121 161 121q88 0 144.5 -71.5t56.5 -189.5q0 -119 -56.5 -191t-144.5 -72q-67 0 -102.5 33t-58.5 88zM440 249q0 181 -133 181q-62 0 -99.5 -46.5t-37.5 -134.5t37.5 -135.5t99.5 -47.5
q133 0 133 183z" />
    <glyph glyph-name="c" unicode="c" horiz-adv-x="532" 
d="M44 249q0 114 68 187.5t172 73.5q79 0 134 -40t75 -104l-88 -30q-32 93 -122 93q-61 0 -101 -47.5t-40 -132.5q0 -88 39 -135t103 -47q99 0 132 107l89 -31q-27 -74 -84 -115.5t-136 -41.5q-109 0 -175 71.5t-66 191.5z" />
    <glyph glyph-name="d" unicode="d" horiz-adv-x="583" 
d="M45 249q0 117 57 189t145 72q118 0 160 -121h55q-55 77 -55 196v115h94v-700h-85q0 44 45 107h-53q-23 -55 -58.5 -88t-102.5 -33q-88 0 -145 72t-57 191zM412 249q0 88 -37 134.5t-100 46.5q-132 0 -132 -181q0 -183 132 -183q62 0 99.5 47.5t37.5 135.5z" />
    <glyph glyph-name="e" unicode="e" horiz-adv-x="538" 
d="M45 246q0 119 63 191.5t162 72.5t160 -69t61 -176q0 -19 -3 -41h-349q3 -80 40.5 -119.5t96.5 -39.5q89 0 130 95l86 -31q-26 -69 -82.5 -106t-135.5 -37q-105 0 -167 68.5t-62 191.5zM141 299h252q-1 63 -36 99.5t-87 36.5q-51 0 -87 -37t-42 -99z" />
    <glyph glyph-name="f" unicode="f" horiz-adv-x="364" 
d="M126 0v418h-107v78h107v73q0 131 125 131h116v-81h-97q-26 0 -37.5 -11.5t-11.5 -37.5v-74h128v-78h-128v-418h-95z" />
    <glyph glyph-name="g" unicode="g" horiz-adv-x="591" 
d="M34 -105q0 67 69 97v35q-49 20 -49 62q0 57 74 88v35q-54 43 -54 124q0 72 54 123t136 51q128 0 167 -96h35q3 37 23 59.5t53 22.5h34v-78h-41q-33 0 -46 -13t-16 -54l-2 -24q-6 -84 -59.5 -133.5t-137.5 -49.5q-64 0 -94 18q-44 -18 -44 -47q0 -32 44 -32h216
q72 0 115.5 -38.5t43.5 -100.5q0 -66 -44.5 -102.5t-113.5 -36.5h-243q-59 0 -89.5 27t-30.5 63zM381 326q0 48 -29.5 79t-77.5 31t-77.5 -30.5t-29.5 -79.5q0 -50 29 -79.5t78 -29.5t78 29.5t29 79.5zM192 -115h193q75 0 75 58q0 31 -19 44t-56 13h-232q-36 -23 -36 -63
q0 -29 18 -40.5t57 -11.5z" />
    <glyph glyph-name="h" unicode="h" horiz-adv-x="582" 
d="M82 0v700h94v-136q-1 -69 -13 -106t-39 -77h51q15 50 57 89.5t102 39.5q86 0 129.5 -48.5t43.5 -137.5v-324h-94v303q0 125 -104 125q-60 0 -90 -36q-27 -32 -35 -73t-8 -105v-214h-94z" />
    <glyph glyph-name="i" unicode="i" horiz-adv-x="257" 
d="M78 588v112h100v-112h-100zM82 0v496h94v-496h-94z" />
    <glyph glyph-name="j" unicode="j" horiz-adv-x="265" 
d="M87 588v112h100v-112h-100zM-38 -195v84h79q48 0 48 48v559h95v-569q0 -122 -126 -122h-96z" />
    <glyph glyph-name="k" unicode="k" horiz-adv-x="570" 
d="M449 0l-183 228l-90 -84v-144h-94v700h94v-285q0 -66 -10 -95t-43 -59l30 -31l276 266h123l-220 -206l237 -290h-120z" />
    <glyph glyph-name="l" unicode="l" horiz-adv-x="257" 
d="M82 0v700h94v-700h-94z" />
    <glyph glyph-name="m" unicode="m" horiz-adv-x="890" 
d="M82 0v496h87q0 -45 -38 -101h50q36 115 138 115q52 0 89.5 -30.5t51.5 -84.5h40q11 46 51 80.5t94 34.5q77 0 123 -49.5t46 -134.5v-326h-94v303q0 124 -104 124q-54 0 -81 -32q-25 -28 -33 -65.5t-8 -95.5v-234h-92v303q0 124 -105 124q-53 0 -80 -32q-41 -47 -41 -161
v-234h-94z" />
    <glyph glyph-name="n" unicode="n" horiz-adv-x="582" 
d="M82 0v496h90q0 -42 -48 -115h51q15 50 57 89.5t102 39.5q86 0 129.5 -48.5t43.5 -137.5v-324h-94v303q0 125 -104 125q-60 0 -90 -36q-27 -32 -35 -73t-8 -105v-214h-94z" />
    <glyph glyph-name="o" unicode="o" horiz-adv-x="558" 
d="M43 248q0 112 67 187t169 75t168.5 -75t66.5 -187t-67 -187t-168 -75q-100 0 -168 75t-68 187zM417 246q0 89 -37.5 136t-100.5 47q-64 0 -101 -47t-37 -136q0 -87 36.5 -133t101.5 -46q64 0 101 46.5t37 132.5z" />
    <glyph glyph-name="p" unicode="p" horiz-adv-x="583" 
d="M82 -195v691h85q0 -42 -44 -107h52q23 55 58.5 88t102.5 33q88 0 144.5 -72t56.5 -190t-56.5 -190t-144.5 -72q-119 0 -161 121h-55q28 -45 41.5 -86t14.5 -110v-106h-94zM440 247q0 183 -133 183q-62 0 -99.5 -48t-37.5 -135q0 -88 37.5 -134.5t99.5 -46.5
q133 0 133 181z" />
    <glyph glyph-name="q" unicode="q" horiz-adv-x="583" 
d="M407 -195v106q0 69 13 110t42 86h-55q-42 -121 -160 -121q-88 0 -145 72t-57 190t57 190t145 72q67 0 102.5 -33t58.5 -88h52q-44 59 -44 107h85v-691h-94zM412 247q0 87 -37.5 135t-99.5 48q-132 0 -132 -183q0 -181 132 -181q63 0 100 46.5t37 134.5z" />
    <glyph glyph-name="r" unicode="r" horiz-adv-x="401" 
d="M82 0v496h91q0 -59 -53 -142h54q38 149 164 149q25 0 47 -5v-97q-32 5 -53 5q-156 0 -156 -185v-221h-94z" />
    <glyph glyph-name="s" unicode="s" horiz-adv-x="497" 
d="M35 128l89 29q25 -94 130 -94q106 0 106 69q0 55 -89 73l-60 11q-77 16 -116.5 47.5t-39.5 95.5q0 66 54 108.5t133 42.5q81 0 132.5 -34.5t69.5 -91.5l-83 -32q-30 84 -120 84q-46 0 -71 -19.5t-25 -47.5q0 -26 17 -40t67 -24l59 -12q64 -12 116 -47q52 -34 52 -106
q0 -71 -54 -112.5t-149 -41.5q-82 0 -142.5 38t-75.5 104z" />
    <glyph glyph-name="t" unicode="t" horiz-adv-x="401" 
d="M130 122v296h-113v78h113v155h94v-155h134v-78h-134v-288q0 -49 49 -49h104v-81h-123q-124 0 -124 122z" />
    <glyph glyph-name="u" unicode="u" horiz-adv-x="577" 
d="M75 170v326h94v-303q0 -126 102 -126q57 0 85 34q45 54 45 179v216h94v-496h-89q0 48 46 116h-52q-46 -130 -158 -130q-81 0 -124 49t-43 135z" />
    <glyph glyph-name="v" unicode="v" horiz-adv-x="499" 
d="M192 0l-169 496h99l86 -272q21 -66 22 -156h42q4 96 22 156l82 272h96l-163 -496h-117z" />
    <glyph glyph-name="w" unicode="w" horiz-adv-x="832" 
d="M185 0l-162 496h98l70 -231q16 -52 20 -88q6 -50 7 -94h41q6 101 30 177l72 236h110l78 -258q19 -62 23 -155h42q1 100 28 185l71 228h99l-167 -496h-111l-70 230q-27 90 -28 189h-44q-1 -101 -28 -188l-72 -231h-107z" />
    <glyph glyph-name="x" unicode="x" horiz-adv-x="495" 
d="M17 0l173 254l-164 242h111l50 -78q35 -53 37 -125h41q1 52 49 125l50 78h104l-166 -243l177 -253h-114l-58 88q-36 53 -37 123h-41q-1 -50 -50 -123l-59 -88h-103z" />
    <glyph glyph-name="y" unicode="y" horiz-adv-x="509" 
d="M386 496h99l-194 -566q-26 -72 -58.5 -98.5t-98.5 -26.5h-103v84h100q28 0 43.5 10t24.5 36l25 70l-219 491h105l103 -246q24 -55 26 -150h42q1 77 21 139z" />
    <glyph glyph-name="z" unicode="z" horiz-adv-x="490" 
d="M42 0v94l295 332l-29 31q-39 -42 -104 -42h-153v81h390v-82l-306 -345l30 -29q37 41 109 41h180v-81h-412z" />
    <glyph glyph-name="braceleft" unicode="{" horiz-adv-x="342" 
d="M123 11v125q0 69 -19 95.5t-80 26.5v84q61 0 80 26t19 94v132q0 80 30 120.5t97 40.5h62v-76h-39q-33 0 -47.5 -17.5t-14.5 -57.5v-156q0 -68 -26 -95t-93 -32v-40q67 -5 93 -32.5t26 -96.5v-151q0 -40 14.5 -57.5t47.5 -17.5h39v-76h-62q-127 0 -127 161z" />
    <glyph glyph-name="bar" unicode="|" horiz-adv-x="267" 
d="M89 -104v909h88v-909h-88z" />
    <glyph glyph-name="braceright" unicode="}" horiz-adv-x="342" 
d="M219 590v-126q0 -69 19 -95t80 -26v-85q-62 0 -80.5 -25t-18.5 -95v-132q0 -80 -30.5 -120t-97.5 -40h-61v75h39q33 0 47.5 18t14.5 57v156q0 69 25.5 95.5t93.5 31.5v41q-67 5 -93 32.5t-26 96.5v151q0 40 -14.5 57.5t-47.5 17.5h-39v75h61q67 0 97.5 -40t30.5 -120z
" />
    <glyph glyph-name="asciitilde" unicode="~" horiz-adv-x="646" 
d="M328 302l-32 14q-52 24 -83 24q-48 0 -95 -50l-54 69q31 37 73 57.5t81 20.5q40 0 101 -27l32 -14q52 -24 84 -24q47 0 95 50l54 -70q-31 -37 -73 -57.5t-81 -20.5q-38 0 -102 28z" />
    <glyph glyph-name="uni00A0" unicode="&#xa0;" horiz-adv-x="255" 
 />
    <glyph glyph-name="exclamdown" unicode="&#xa1;" horiz-adv-x="269" 
d="M198 563v-130h-128v130h128zM158 340l27 -269v-208h-102v211l30 266h45z" />
    <glyph glyph-name="cent" unicode="&#xa2;" horiz-adv-x="545" 
d="M246 -119v108q-90 14 -144 84t-54 176q0 100 55.5 171.5t142.5 85.5v110h72v-108q62 -8 111 -44.5t73 -90.5l-87 -34q-32 74 -97 86v-218q0 -59 -6 -86.5t-29 -56.5l22 -28q87 43 117 138l89 -31q-24 -65 -74 -106.5t-119 -49.5v-106h-72zM246 73v208q0 58 6 88t28 56
l-22 29q-112 -58 -112 -205q0 -71 26.5 -116t73.5 -60z" />
    <glyph glyph-name="sterling" unicode="&#xa3;" horiz-adv-x="582" 
d="M314 92h218v-92h-473v88q41 10 84 40q42 28 42 92q0 45 -22 88h-102v78h53q-36 58 -36 117q0 96 67 153t164 57q82 0 147.5 -50.5t78.5 -141.5l-100 -24q-10 65 -47 97t-86 32q-53 0 -86.5 -33t-33.5 -91q0 -54 39 -116h179v-78h-137q13 -33 13 -77q0 -89 -116 -140
l23 -41q61 42 131 42z" />
    <glyph glyph-name="currency" unicode="&#xa4;" horiz-adv-x="649" 
d="M120 84l-62 62l81 80q-36 55 -36 125t37 127l-82 82l62 61l83 -81q58 35 123 35q64 0 120 -36l83 82l62 -61l-83 -82q39 -56 39 -126q0 -73 -38 -125l82 -81l-62 -62l-83 83q-58 -39 -120 -39q-66 0 -124 37zM455 352q0 60 -37 98t-92 38q-57 0 -94 -38.5t-37 -98.5
t37 -97.5t94 -37.5q55 0 92 38.5t37 97.5z" />
    <glyph glyph-name="yen" unicode="&#xa5;" horiz-adv-x="663" 
d="M632 700l-199 -306h135v-77h-183v-79h183v-77h-183v-161h-100v161h-188v77h188v79h-188v77h137l-203 306h120l119 -196q41 -66 45 -156h42q4 96 39 157l117 195h119z" />
    <glyph glyph-name="brokenbar" unicode="&#xa6;" horiz-adv-x="267" 
d="M89 409v396h88v-396h-88zM89 -104v396h88v-396h-88z" />
    <glyph glyph-name="section" unicode="&#xa7;" horiz-adv-x="607" 
d="M71 -44l99 37q29 -113 129 -113q53 0 82 23t29 60q0 36 -20 56t-66 35l-153 50q-134 40 -134 140q0 50 35.5 84.5t102.5 44.5v41q-43 24 -62.5 54t-19.5 74q0 71 55.5 121.5t150.5 50.5q96 0 155 -46.5t72 -117.5l-99 -37q-28 112 -128 112q-48 0 -75 -23.5t-27 -59.5
q0 -40 18 -58t66 -33l154 -49q63 -21 99.5 -56.5t36.5 -79.5q0 -53 -37.5 -89.5t-102.5 -42.5v-42q83 -41 83 -128q0 -73 -57.5 -123t-157.5 -50q-97 0 -155.5 46.5t-72.5 118.5zM466 237q0 29 -19 47.5t-60 31.5l-94 30l-54 18q-99 -46 -99 -96q0 -54 79 -79l94 -29l53 -19
q49 23 74.5 45.5t25.5 50.5z" />
    <glyph glyph-name="dieresis" unicode="&#xa8;" horiz-adv-x="563" 
d="M132 587v103h101v-103h-101zM329 587v103h101v-103h-101z" />
    <glyph glyph-name="copyright" unicode="&#xa9;" horiz-adv-x="875" 
d="M47 359q-4 156 114 273t277 114q104 2 195 -51t144 -143.5t51 -192.5q3 -157 -114 -272.5t-276 -112.5q-105 -2 -196 50.5t-144 142t-51 192.5zM753 359q2 129 -91.5 224.5t-223.5 92.5q-130 3 -224 -92.5t-92 -224.5q-2 -129 91.5 -223.5t224.5 -92.5q130 -2 223.5 92.5
t91.5 223.5zM244 367q0 90 57 147t143 57q64 0 109 -32t62 -88l-68 -17q-29 78 -107 78q-54 0 -87.5 -42t-33.5 -111q0 -68 32.5 -107t87.5 -39q41 0 71.5 25.5t41.5 67.5l70 -21q-17 -62 -65.5 -99t-116.5 -37q-91 0 -143.5 58.5t-52.5 159.5z" />
    <glyph glyph-name="ordfeminine" unicode="&#xaa;" horiz-adv-x="503" 
d="M48 501q0 97 47 153t116 56q84 0 122 -82h36q-16 33 -16 72h76v-401h-76q0 40 16 73h-36q-38 -83 -122 -83q-68 0 -115.5 58.5t-47.5 153.5zM350 501q0 66 -29.5 102.5t-76.5 36.5t-76.5 -36.5t-29.5 -102.5q0 -64 30 -103t76 -39t76 39t30 103z" />
    <glyph glyph-name="guillemotleft" unicode="&#xab;" horiz-adv-x="533" 
d="M276 470l-132 -214l135 -220h-104l-133 217l133 217h101zM354 256l136 -220h-104l-134 217l134 217h101z" />
    <glyph glyph-name="logicalnot" unicode="&#xac;" horiz-adv-x="674" 
d="M506 158v151h-440v90h531v-241h-91z" />
    <glyph glyph-name="uni00AD" unicode="&#xad;" horiz-adv-x="424" 
d="M67 262v97h289v-97h-289z" />
    <glyph glyph-name="registered" unicode="&#xae;" horiz-adv-x="572" 
d="M46 508q0 99 69.5 168.5t170.5 69.5t171 -69.5t70 -168.5q0 -100 -70 -170t-171 -70q-100 0 -170 70t-70 170zM467 508q0 78 -52 130.5t-129 52.5t-128 -52.5t-51 -130.5q0 -80 51 -133t128 -53t129 53t52 133zM199 393v228h114q34 0 55 -15t21 -41q0 -51 -69 -53v-20
q52 -2 57 -46l8 -53h-58l-8 52q-3 24 -11 32t-30 8h-25v-92h-54zM253 525h42q38 0 38 29q0 27 -38 27h-42v-56z" />
    <glyph glyph-name="macron" unicode="&#xaf;" horiz-adv-x="346" 
d="M23 591v72h306v-72h-306z" />
    <glyph glyph-name="degree" unicode="&#xb0;" horiz-adv-x="429" 
d="M43 605q0 71 49 119.5t122 48.5q74 0 123 -48.5t49 -119.5q0 -72 -49 -119.5t-124 -47.5q-73 0 -121.5 48t-48.5 119zM300 606q0 41 -23.5 66t-62.5 25q-38 0 -62 -25.5t-24 -65.5q0 -42 24 -68.5t62 -26.5q39 0 62.5 26t23.5 69z" />
    <glyph glyph-name="plusminus" unicode="&#xb1;" horiz-adv-x="688" 
d="M300 243v139h-222v89h222v149h90v-149h222v-89h-222v-139h-90zM76 85v91h535v-91h-535z" />
    <glyph glyph-name="twosuperior" unicode="&#xb2;" horiz-adv-x="375" 
d="M48 392v74q101 62 145.5 104.5t47.5 94.5q0 30 -15.5 47.5t-40.5 17.5q-26 0 -42 -20.5t-16 -55.5v-9l-83 10q-2 64 38 104t104 40q63 0 101.5 -35.5t38.5 -91.5q0 -64 -47 -113q-43 -43 -155 -97l17 -31q53 32 109 32h80v-71h-282z" />
    <glyph glyph-name="threesuperior" unicode="&#xb3;" horiz-adv-x="376" 
d="M39 516l83 16q1 -37 18.5 -58.5t47.5 -21.5q26 0 42 15t16 40q0 54 -68 54h-29v67h29q30 0 46 14t16 38q0 22 -14 36.5t-37 14.5q-27 0 -42.5 -18.5t-15.5 -51.5l-83 14q0 55 40 89.5t101 34.5q60 0 97 -28.5t37 -72.5q0 -36 -23.5 -58.5t-64.5 -26.5v-31q46 -2 71 -25
t25 -61q0 -50 -39.5 -81t-102.5 -31q-65 0 -106 36.5t-44 95.5z" />
    <glyph glyph-name="acute" unicode="&#xb4;" horiz-adv-x="350" 
d="M128 567l49 141h124l-112 -141h-61z" />
    <glyph glyph-name="mu" unicode="&#xb5;" horiz-adv-x="605" 
d="M93 -195v691h94v-303q0 -126 102 -126q56 0 85 35q45 54 45 178v216h94v-496h-91q1 46 46 116h-51q-49 -130 -161 -130q-40 0 -69 13v-194h-94z" />
    <glyph glyph-name="paragraph" unicode="&#xb6;" horiz-adv-x="662" 
d="M278 700h335v-76h-76v-819h-89v819h-96v-819h-89v466h-19q-88 0 -151 62t-63 149q0 100 71 159t177 59z" />
    <glyph glyph-name="periodcentered" unicode="&#xb7;" horiz-adv-x="262" 
d="M67 281v130h128v-130h-128z" />
    <glyph glyph-name="cedilla" unicode="&#xb8;" horiz-adv-x="357" 
d="M40 -169l39 50q31 -35 74 -35q46 0 46 31q0 14 -12 22t-31 8q-22 0 -35 -6l-28 37l58 62h66l-27 -24l-25 -25h15q38 0 64 -22t26 -58q0 -38 -30 -62.5t-82 -24.5q-78 0 -118 47z" />
    <glyph glyph-name="onesuperior" unicode="&#xb9;" horiz-adv-x="286" 
d="M134 392v225q0 46 17 88h-34q-24 -72 -85 -73v73q79 14 116 86h67v-399h-81z" />
    <glyph glyph-name="ordmasculine" unicode="&#xba;" horiz-adv-x="478" 
d="M45 500q0 90 56 150t138 60t138 -60t56 -150t-56 -150.5t-138 -60.5q-81 0 -137.5 61t-56.5 150zM341 500q0 67 -27 103.5t-75 36.5t-75 -37t-27 -103t27.5 -103.5t74.5 -37.5q48 0 75 37.5t27 103.5z" />
    <glyph glyph-name="guillemotright" unicode="&#xbb;" horiz-adv-x="533" 
d="M147 470l134 -218l-134 -216h-101l133 213l-136 221h104zM358 470l133 -218l-133 -216h-101l132 213l-135 221h104z" />
    <glyph glyph-name="onequarter" unicode="&#xbc;" horiz-adv-x="843" 
d="M137 301v225q0 46 17 88h-34q-24 -72 -85 -73v73q79 14 116 86h67v-399h-81zM80 0l499 700h96l-498 -700h-97zM677 0v103h-183v62l159 234h100v-230h55v-66h-55v-103h-76zM677 169v46q0 51 37 90l-27 19l-121 -173l25 -18q27 36 66 36h20z" />
    <glyph glyph-name="onehalf" unicode="&#xbd;" horiz-adv-x="831" 
d="M136 301v225q0 46 17 88h-34q-24 -72 -85 -73v73q79 14 116 86h67v-399h-81zM79 0l499 700h96l-498 -700h-97zM508 0v74q101 62 145.5 104.5t47.5 94.5q0 30 -15.5 47.5t-40.5 17.5q-26 0 -42 -20.5t-16 -55.5v-9l-83 10q-2 64 38 104t104 40q63 0 101.5 -35.5
t38.5 -91.5q0 -64 -47 -113q-43 -43 -155 -97l17 -31q53 32 109 32h80v-71h-282z" />
    <glyph glyph-name="threequarters" unicode="&#xbe;" horiz-adv-x="931" 
d="M38 425l83 16q1 -37 18.5 -58.5t47.5 -21.5q26 0 42 15t16 40q0 54 -68 54h-29v67h29q30 0 46 14t16 38q0 22 -14 36.5t-37 14.5q-27 0 -42.5 -18.5t-15.5 -51.5l-83 14q0 55 40 89.5t101 34.5q60 0 97 -28.5t37 -72.5q0 -36 -23.5 -58.5t-64.5 -26.5v-31q46 -2 71 -25
t25 -61q0 -50 -39.5 -81t-102.5 -31q-65 0 -106 36.5t-44 95.5zM168 0l499 700h96l-498 -700h-97zM765 0v103h-183v62l159 234h100v-230h55v-66h-55v-103h-76zM765 169v46q0 51 37 90l-27 19l-121 -173l25 -18q27 36 66 36h20z" />
    <glyph glyph-name="questiondown" unicode="&#xbf;" horiz-adv-x="496" 
d="M327 563v-130h-127v130h127zM223 168q-46 -40 -65 -65.5t-19 -63.5q0 -47 30 -75t79 -28q57 0 87.5 37.5t31.5 108.5l95 -15q0 -103 -57.5 -160t-156.5 -57q-91 0 -150.5 51t-59.5 135q0 54 27.5 97.5t91.5 95.5q37 32 49 54t12 57h92q0 -62 -20 -97t-67 -75z" />
    <glyph glyph-name="Agrave" unicode="&#xc0;" horiz-adv-x="691" 
d="M562 0l-65 185h-308l-66 -185h-108l263 700h138l258 -700h-112zM222 276h243l-68 191q-31 93 -32 163h-42q-4 -82 -32 -163zM316 770l-121 142h134l54 -142h-67z" />
    <glyph glyph-name="Aacute" unicode="&#xc1;" horiz-adv-x="691" 
d="M562 0l-65 185h-308l-66 -185h-108l263 700h138l258 -700h-112zM222 276h243l-68 191q-31 93 -32 163h-42q-4 -82 -32 -163zM314 770l54 142h137l-124 -142h-67z" />
    <glyph glyph-name="Acircumflex" unicode="&#xc2;" horiz-adv-x="691" 
d="M562 0l-65 185h-308l-66 -185h-108l263 700h138l258 -700h-112zM222 276h243l-68 191q-31 93 -32 163h-42q-4 -82 -32 -163zM153 770l118 123h149l119 -123h-103l-90 73l-90 -73h-103z" />
    <glyph glyph-name="Atilde" unicode="&#xc3;" horiz-adv-x="691" 
d="M562 0l-65 185h-308l-66 -185h-108l263 700h138l258 -700h-112zM222 276h243l-68 191q-31 93 -32 163h-42q-4 -82 -32 -163zM357 786l-33 19q-34 17 -47 17q-42 0 -42 -52h-81q0 59 32 91.5t87 32.5q42 0 85 -24l31 -18q33 -18 48 -18q38 0 44 47h80q0 -59 -31.5 -90.5
t-87.5 -31.5q-38 0 -85 27z" />
    <glyph glyph-name="Adieresis" unicode="&#xc4;" horiz-adv-x="691" 
d="M562 0l-65 185h-308l-66 -185h-108l263 700h138l258 -700h-112zM222 276h243l-68 191q-31 93 -32 163h-42q-4 -82 -32 -163zM183 770v103h111v-103h-111zM399 770v103h112v-103h-112z" />
    <glyph glyph-name="Aring" unicode="&#xc5;" horiz-adv-x="691" 
d="M562 0l-65 185h-308l-66 -185h-108l263 700h138l258 -700h-112zM222 276h243l-68 191q-31 93 -32 163h-42q-4 -82 -32 -163zM223 880q0 49 36 83.5t87 34.5q49 0 85 -35.5t36 -85.5q0 -51 -35.5 -85.5t-85.5 -34.5q-51 0 -87 35.5t-36 87.5zM402 877q0 25 -16.5 42.5
t-39.5 17.5q-24 0 -40.5 -17t-16.5 -40q0 -27 15.5 -44.5t41.5 -17.5q22 0 39 18t17 41z" />
    <glyph glyph-name="AE" unicode="&#xc6;" horiz-adv-x="923" 
d="M872 608h-334v-193h248v-91h-248v-232h334v-92h-433v191h-232l-104 -191h-120l401 700h488v-92zM458 630h-47q-19 -103 -66 -186l-89 -162h183v194q0 85 19 154z" />
    <glyph glyph-name="Ccedilla" unicode="&#xc7;" horiz-adv-x="736" 
d="M445 -11l-15 -13l-25 -25h15q38 0 64 -22t26 -58q0 -38 -30.5 -62.5t-82.5 -24.5q-77 0 -117 47l39 50q31 -35 74 -35q45 0 45 31q0 14 -12 22t-30 8q-22 0 -35 -6l-28 37l45 48q-151 6 -239.5 110t-88.5 260q-2 152 96.5 256.5t246.5 101.5q121 0 201.5 -60.5
t105.5 -146.5l-100 -36q-19 61 -69 106q-47 46 -138 46q-107 0 -171.5 -71.5t-64.5 -194.5q0 -126 65 -202.5t171 -76.5q86 0 135.5 40.5t75.5 117.5l97 -37q-25 -83 -91 -141t-165 -69z" />
    <glyph glyph-name="Egrave" unicode="&#xc8;" horiz-adv-x="644" 
d="M100 0v700h495v-92h-395v-200h293v-91h-293v-225h395v-92h-495zM316 770l-121 142h134l54 -142h-67z" />
    <glyph glyph-name="Eacute" unicode="&#xc9;" horiz-adv-x="644" 
d="M100 0v700h495v-92h-395v-200h293v-91h-293v-225h395v-92h-495zM314 770l54 142h137l-124 -142h-67z" />
    <glyph glyph-name="Ecircumflex" unicode="&#xca;" horiz-adv-x="644" 
d="M100 0v700h495v-92h-395v-200h293v-91h-293v-225h395v-92h-495zM153 770l118 123h149l119 -123h-103l-90 73l-90 -73h-103z" />
    <glyph glyph-name="Edieresis" unicode="&#xcb;" horiz-adv-x="644" 
d="M100 0v700h495v-92h-395v-200h293v-91h-293v-225h395v-92h-495zM183 770v103h111v-103h-111zM399 770v103h112v-103h-112z" />
    <glyph glyph-name="Igrave" unicode="&#xcc;" horiz-adv-x="300" 
d="M100 0v700h100v-700h-100zM119 770l-121 142h134l54 -142h-67z" />
    <glyph glyph-name="Iacute" unicode="&#xcd;" horiz-adv-x="300" 
d="M100 0v700h100v-700h-100zM117 770l54 142h137l-124 -142h-67z" />
    <glyph glyph-name="Icircumflex" unicode="&#xce;" horiz-adv-x="300" 
d="M100 0v700h100v-700h-100zM-44 770l118 123h149l119 -123h-103l-90 73l-90 -73h-103z" />
    <glyph glyph-name="Idieresis" unicode="&#xcf;" horiz-adv-x="300" 
d="M100 0v700h100v-700h-100zM-15 770v103h111v-103h-111zM201 770v103h112v-103h-112z" />
    <glyph glyph-name="Eth" unicode="&#xd0;" horiz-adv-x="741" 
d="M689 353q0 -164 -92.5 -258.5t-250.5 -94.5h-240v325h-78v81h78v294h246q150 0 243.5 -96t93.5 -251zM584 352q0 120 -63 188t-183 68h-132v-202h152v-81h-152v-233h126q252 0 252 260z" />
    <glyph glyph-name="Ntilde" unicode="&#xd1;" horiz-adv-x="809" 
d="M100 0v700h152l368 -579l36 25q-28 42 -37.5 79.5t-9.5 104.5v370h100v-700h-125l-390 616l-36 -23q42 -80 42 -203v-390h-100zM420 786l-33 19q-34 17 -47 17q-42 0 -42 -52h-81q0 59 32 91.5t87 32.5q42 0 85 -24l31 -18q33 -18 48 -18q38 0 44 47h80
q0 -59 -31.5 -90.5t-87.5 -31.5q-39 0 -85 27z" />
    <glyph glyph-name="Ograve" unicode="&#xd2;" horiz-adv-x="802" 
d="M50 350q-2 159 100 262.5t252 101.5q150 2 250.5 -101.5t98.5 -262.5q2 -159 -98.5 -262.5t-250.5 -101.5q-150 -2 -252 101.5t-100 262.5zM645 350q0 119 -66.5 196t-177.5 77q-112 0 -178 -76.5t-66 -196.5q0 -121 66 -197t178 -76t178 76t66 197zM371 770l-121 142
h134l54 -142h-67z" />
    <glyph glyph-name="Oacute" unicode="&#xd3;" horiz-adv-x="802" 
d="M50 350q-2 159 100 262.5t252 101.5q150 2 250.5 -101.5t98.5 -262.5q2 -159 -98.5 -262.5t-250.5 -101.5q-150 -2 -252 101.5t-100 262.5zM645 350q0 119 -66.5 196t-177.5 77q-112 0 -178 -76.5t-66 -196.5q0 -121 66 -197t178 -76t178 76t66 197zM369 770l54 142h137
l-124 -142h-67z" />
    <glyph glyph-name="Ocircumflex" unicode="&#xd4;" horiz-adv-x="802" 
d="M50 350q-2 159 100 262.5t252 101.5q150 2 250.5 -101.5t98.5 -262.5q2 -159 -98.5 -262.5t-250.5 -101.5q-150 -2 -252 101.5t-100 262.5zM645 350q0 119 -66.5 196t-177.5 77q-112 0 -178 -76.5t-66 -196.5q0 -121 66 -197t178 -76t178 76t66 197zM208 770l118 123h149
l119 -123h-103l-90 73l-90 -73h-103z" />
    <glyph glyph-name="Otilde" unicode="&#xd5;" horiz-adv-x="802" 
d="M50 350q-2 159 100 262.5t252 101.5q150 2 250.5 -101.5t98.5 -262.5q2 -159 -98.5 -262.5t-250.5 -101.5q-150 -2 -252 101.5t-100 262.5zM645 350q0 119 -66.5 196t-177.5 77q-112 0 -178 -76.5t-66 -196.5q0 -121 66 -197t178 -76t178 76t66 197zM412 786l-33 19
q-34 17 -47 17q-42 0 -42 -52h-81q0 59 32 91.5t87 32.5q42 0 85 -24l31 -18q33 -18 48 -18q38 0 44 47h80q0 -59 -31.5 -90.5t-87.5 -31.5q-39 0 -85 27z" />
    <glyph glyph-name="Odieresis" unicode="&#xd6;" horiz-adv-x="802" 
d="M50 350q-2 159 100 262.5t252 101.5q150 2 250.5 -101.5t98.5 -262.5q2 -159 -98.5 -262.5t-250.5 -101.5q-150 -2 -252 101.5t-100 262.5zM645 350q0 119 -66.5 196t-177.5 77q-112 0 -178 -76.5t-66 -196.5q0 -121 66 -197t178 -76t178 76t66 197zM237 770v103h111
v-103h-111zM453 770v103h112v-103h-112z" />
    <glyph glyph-name="multiply" unicode="&#xd7;" horiz-adv-x="602" 
d="M121 109l-61 61l179 180l-180 179l63 63l180 -179l178 178l62 -61l-178 -178l179 -181l-64 -63l-179 180z" />
    <glyph glyph-name="Oslash" unicode="&#xd8;" horiz-adv-x="806" 
d="M148 -34l-70 55l63 77q-90 101 -90 252q-2 159 100 262.5t251 101.5q109 0 196 -56l62 76l71 -57l-65 -78q86 -100 86 -249q2 -159 -99 -263t-251 -102q-107 0 -193 56zM205 177l242 296q32 39 57.5 54.5t58.5 17.5v44q-23 14 -68.5 24t-91.5 10q-112 0 -179 -76.5
t-67 -195.5q0 -101 48 -174zM646 349q0 98 -45 170l-247 -302q-27 -32 -52 -46.5t-58 -17.5v-44q55 -32 161 -32q109 0 175 76t66 196z" />
    <glyph glyph-name="Ugrave" unicode="&#xd9;" horiz-adv-x="727" 
d="M90 271v429h100v-415q0 -100 43.5 -153t129.5 -53t129.5 54t43.5 152v415h100v-429q0 -136 -70.5 -210.5t-202.5 -74.5q-130 0 -201.5 72t-71.5 213zM336 770l-121 142h134l54 -142h-67z" />
    <glyph glyph-name="Uacute" unicode="&#xda;" horiz-adv-x="727" 
d="M90 271v429h100v-415q0 -100 43.5 -153t129.5 -53t129.5 54t43.5 152v415h100v-429q0 -136 -70.5 -210.5t-202.5 -74.5q-130 0 -201.5 72t-71.5 213zM333 770l54 142h137l-124 -142h-67z" />
    <glyph glyph-name="Ucircumflex" unicode="&#xdb;" horiz-adv-x="727" 
d="M90 271v429h100v-415q0 -100 43.5 -153t129.5 -53t129.5 54t43.5 152v415h100v-429q0 -136 -70.5 -210.5t-202.5 -74.5q-130 0 -201.5 72t-71.5 213zM173 770l118 123h149l119 -123h-103l-90 73l-90 -73h-103z" />
    <glyph glyph-name="Udieresis" unicode="&#xdc;" horiz-adv-x="727" 
d="M90 271v429h100v-415q0 -100 43.5 -153t129.5 -53t129.5 54t43.5 152v415h100v-429q0 -136 -70.5 -210.5t-202.5 -74.5q-130 0 -201.5 72t-71.5 213zM202 770v103h111v-103h-111zM418 770v103h112v-103h-112z" />
    <glyph glyph-name="Yacute" unicode="&#xdd;" horiz-adv-x="646" 
d="M275 0v293l-254 407h120l118 -197q45 -75 46 -155h42q1 80 44 156l111 196h119l-246 -403v-297h-100zM291 770l54 142h137l-124 -142h-67z" />
    <glyph glyph-name="Thorn" unicode="&#xde;" horiz-adv-x="674" 
d="M632 360q0 -90 -67.5 -152t-165.5 -62h-199v-146h-100v700h100v-127h199q99 0 166 -60t67 -153zM526 360q0 57 -37.5 89.5t-105.5 32.5h-183v-245h183q67 0 105 33.5t38 89.5z" />
    <glyph glyph-name="germandbls" unicode="&#xdf;" horiz-adv-x="601" 
d="M255 0v84q33 -6 62 -6q66 0 104 32.5t38 91.5q0 57 -42 91.5t-104 34.5h-46v79h25q58 0 94 32.5t36 86.5q0 49 -33.5 78.5t-86.5 29.5q-57 0 -91.5 -37.5t-34.5 -100.5v-496h-94v497q0 101 59.5 159t163.5 58q94 0 152.5 -48t58.5 -125q0 -60 -39 -99.5t-98 -45.5v-45
q73 -2 126.5 -44.5t53.5 -118.5q0 -92 -62.5 -143.5t-166.5 -51.5q-40 0 -75 7z" />
    <glyph glyph-name="agrave" unicode="&#xe0;" horiz-adv-x="543" 
d="M50 128q0 94 86 139q85 46 226 57v15q0 92 -104 92q-102 0 -130 -90l-88 30q15 58 72 98.5t146 40.5q97 0 147.5 -45.5t50.5 -128.5v-227q0 -17 6 -22.5t23 -5.5h51v-81h-41q-56 0 -75.5 22t-19.5 82h-38q-15 -54 -54.5 -86t-99.5 -32q-73 0 -115.5 38t-42.5 104z
M362 205v51q-215 -21 -215 -120q0 -34 22.5 -53.5t65.5 -19.5q53 0 90 37t37 105zM230 567l-110 141h121l50 -141h-61z" />
    <glyph glyph-name="aacute" unicode="&#xe1;" horiz-adv-x="543" 
d="M50 128q0 94 86 139q85 46 226 57v15q0 92 -104 92q-102 0 -130 -90l-88 30q15 58 72 98.5t146 40.5q97 0 147.5 -45.5t50.5 -128.5v-227q0 -17 6 -22.5t23 -5.5h51v-81h-41q-56 0 -75.5 22t-19.5 82h-38q-15 -54 -54.5 -86t-99.5 -32q-73 0 -115.5 38t-42.5 104z
M362 205v51q-215 -21 -215 -120q0 -34 22.5 -53.5t65.5 -19.5q53 0 90 37t37 105zM231 567l49 141h124l-112 -141h-61z" />
    <glyph glyph-name="acircumflex" unicode="&#xe2;" horiz-adv-x="543" 
d="M50 128q0 94 86 139q85 46 226 57v15q0 92 -104 92q-102 0 -130 -90l-88 30q15 58 72 98.5t146 40.5q97 0 147.5 -45.5t50.5 -128.5v-227q0 -17 6 -22.5t23 -5.5h51v-81h-41q-56 0 -75.5 22t-19.5 82h-38q-15 -54 -54.5 -86t-99.5 -32q-73 0 -115.5 38t-42.5 104z
M362 205v51q-215 -21 -215 -120q0 -34 22.5 -53.5t65.5 -19.5q53 0 90 37t37 105zM87 567l107 123h136l107 -123h-93l-82 73l-82 -73h-93z" />
    <glyph glyph-name="atilde" unicode="&#xe3;" horiz-adv-x="543" 
d="M50 128q0 94 86 139q85 46 226 57v15q0 92 -104 92q-102 0 -130 -90l-88 30q15 58 72 98.5t146 40.5q97 0 147.5 -45.5t50.5 -128.5v-227q0 -17 6 -22.5t23 -5.5h51v-81h-41q-56 0 -75.5 22t-19.5 82h-38q-15 -54 -54.5 -86t-99.5 -32q-73 0 -115.5 38t-42.5 104z
M362 205v51q-215 -21 -215 -120q0 -34 22.5 -53.5t65.5 -19.5q53 0 90 37t37 105zM261 595l-30 19q-27 17 -42 17q-18 0 -28.5 -13.5t-10.5 -37.5h-74q0 59 29.5 91t79.5 32q39 0 77 -24l28 -17q28 -18 43 -18q19 0 28.5 10.5t12.5 35.5h73q0 -59 -29 -90.5t-79 -31.5
q-35 0 -78 27z" />
    <glyph glyph-name="adieresis" unicode="&#xe4;" horiz-adv-x="543" 
d="M50 128q0 94 86 139q85 46 226 57v15q0 92 -104 92q-102 0 -130 -90l-88 30q15 58 72 98.5t146 40.5q97 0 147.5 -45.5t50.5 -128.5v-227q0 -17 6 -22.5t23 -5.5h51v-81h-41q-56 0 -75.5 22t-19.5 82h-38q-15 -54 -54.5 -86t-99.5 -32q-73 0 -115.5 38t-42.5 104z
M362 205v51q-215 -21 -215 -120q0 -34 22.5 -53.5t65.5 -19.5q53 0 90 37t37 105zM112 587v103h101v-103h-101zM309 587v103h101v-103h-101z" />
    <glyph glyph-name="aring" unicode="&#xe5;" horiz-adv-x="543" 
d="M50 128q0 94 86 139q85 46 226 57v15q0 92 -104 92q-102 0 -130 -90l-88 30q15 58 72 98.5t146 40.5q97 0 147.5 -45.5t50.5 -128.5v-227q0 -17 6 -22.5t23 -5.5h51v-81h-41q-56 0 -75.5 22t-19.5 82h-38q-15 -54 -54.5 -86t-99.5 -32q-73 0 -115.5 38t-42.5 104z
M362 205v51q-215 -21 -215 -120q0 -34 22.5 -53.5t65.5 -19.5q53 0 90 37t37 105zM146 667q0 47 34 79.5t82 32.5q47 0 81.5 -33.5t34.5 -80.5q0 -49 -34.5 -82t-81.5 -33q-49 0 -82.5 33.5t-33.5 83.5zM316 665q0 23 -16.5 39.5t-37.5 16.5q-23 0 -38.5 -16t-15.5 -38
q0 -25 15 -42t39 -17q21 0 37.5 17t16.5 40z" />
    <glyph glyph-name="ae" unicode="&#xe6;" horiz-adv-x="847" 
d="M50 129q0 169 312 195v15q0 92 -107 92q-97 0 -126 -90l-87 30q16 58 70 98.5t138 40.5q65 0 104.5 -30.5t50.5 -69.5h38q14 40 50 70t94 30q94 0 153 -68.5t59 -177.5q0 -16 -2 -40h-350q4 -80 41 -119.5t97 -39.5q91 0 130 95l86 -31q-27 -69 -83.5 -106t-134.5 -37
q-72 0 -117 34t-58 85h-39q-12 -45 -49 -82t-115 -37q-72 0 -113.5 38t-41.5 105zM450 296h252q-1 66 -35.5 102.5t-87.5 36.5q-51 0 -87 -37.5t-42 -101.5zM362 205v52q-216 -19 -216 -121q0 -34 23 -53.5t65 -19.5q54 0 91 37t37 105z" />
    <glyph glyph-name="ccedilla" unicode="&#xe7;" horiz-adv-x="532" 
d="M320 -12l-13 -12l-26 -25h15q39 0 64.5 -21.5t25.5 -58.5q0 -38 -30 -62.5t-82 -24.5q-80 0 -117 47l38 50q31 -35 75 -35q45 0 45 31q0 14 -12 22t-31 8q-22 0 -35 -6l-28 37l47 49q-97 11 -154.5 81t-57.5 181q0 114 68 187.5t172 73.5q79 0 134 -40t75 -104l-88 -30
q-32 93 -122 93q-61 0 -101 -47.5t-40 -132.5q0 -88 39 -135t103 -47q99 0 132 107l89 -31q-50 -137 -185 -155z" />
    <glyph glyph-name="egrave" unicode="&#xe8;" horiz-adv-x="538" 
d="M45 246q0 119 63 191.5t162 72.5t160 -69t61 -176q0 -19 -3 -41h-349q3 -80 40.5 -119.5t96.5 -39.5q89 0 130 95l86 -31q-26 -69 -82.5 -106t-135.5 -37q-105 0 -167 68.5t-62 191.5zM141 299h252q-1 63 -36 99.5t-87 36.5q-51 0 -87 -37t-42 -99zM240 567l-110 141h121
l50 -141h-61z" />
    <glyph glyph-name="eacute" unicode="&#xe9;" horiz-adv-x="538" 
d="M45 246q0 119 63 191.5t162 72.5t160 -69t61 -176q0 -19 -3 -41h-349q3 -80 40.5 -119.5t96.5 -39.5q89 0 130 95l86 -31q-26 -69 -82.5 -106t-135.5 -37q-105 0 -167 68.5t-62 191.5zM141 299h252q-1 63 -36 99.5t-87 36.5q-51 0 -87 -37t-42 -99zM241 567l49 141h124
l-112 -141h-61z" />
    <glyph glyph-name="ecircumflex" unicode="&#xea;" horiz-adv-x="538" 
d="M45 246q0 119 63 191.5t162 72.5t160 -69t61 -176q0 -19 -3 -41h-349q3 -80 40.5 -119.5t96.5 -39.5q89 0 130 95l86 -31q-26 -69 -82.5 -106t-135.5 -37q-105 0 -167 68.5t-62 191.5zM141 299h252q-1 63 -36 99.5t-87 36.5q-51 0 -87 -37t-42 -99zM96 567l107 123h136
l107 -123h-93l-82 73l-82 -73h-93z" />
    <glyph glyph-name="edieresis" unicode="&#xeb;" horiz-adv-x="538" 
d="M45 246q0 119 63 191.5t162 72.5t160 -69t61 -176q0 -19 -3 -41h-349q3 -80 40.5 -119.5t96.5 -39.5q89 0 130 95l86 -31q-26 -69 -82.5 -106t-135.5 -37q-105 0 -167 68.5t-62 191.5zM141 299h252q-1 63 -36 99.5t-87 36.5q-51 0 -87 -37t-42 -99zM121 587v103h101v-103
h-101zM318 587v103h101v-103h-101z" />
    <glyph glyph-name="igrave" unicode="&#xec;" horiz-adv-x="257" 
d="M82 0v496h94v-496h-94zM98 567l-110 141h121l50 -141h-61z" />
    <glyph glyph-name="iacute" unicode="&#xed;" horiz-adv-x="257" 
d="M82 0v496h94v-496h-94zM99 567l49 141h124l-112 -141h-61z" />
    <glyph glyph-name="icircumflex" unicode="&#xee;" horiz-adv-x="257" 
d="M82 0v496h94v-496h-94zM-46 567l107 123h136l107 -123h-93l-82 73l-82 -73h-93z" />
    <glyph glyph-name="idieresis" unicode="&#xef;" horiz-adv-x="257" 
d="M82 0v496h94v-496h-94zM-20 587v103h101v-103h-101zM177 587v103h101v-103h-101z" />
    <glyph glyph-name="eth" unicode="&#xf0;" horiz-adv-x="579" 
d="M522 326q0 -161 -66 -250.5t-182 -89.5q-107 0 -168 67.5t-61 172.5q0 96 56.5 161.5t146.5 65.5q61 0 100 -30t54 -78h43q-1 130 -78 213l-82 -67l-40 53l69 57q-56 32 -120 32q-59 0 -112 -19v81q55 19 124 19q103 0 179 -55l73 59l42 -50l-67 -55q89 -107 89 -287z
M406 220q0 69 -36 110.5t-96 41.5q-59 0 -95 -42t-36 -110q0 -70 35.5 -111.5t95.5 -41.5t96 41.5t36 111.5z" />
    <glyph glyph-name="ntilde" unicode="&#xf1;" horiz-adv-x="582" 
d="M82 0v496h90q0 -42 -48 -115h51q15 50 57 89.5t102 39.5q86 0 129.5 -48.5t43.5 -137.5v-324h-94v303q0 125 -104 125q-60 0 -90 -36q-27 -32 -35 -73t-8 -105v-214h-94zM297 595l-30 19q-27 17 -42 17q-18 0 -28.5 -13.5t-10.5 -37.5h-74q0 59 29.5 91t79.5 32
q39 0 77 -24l28 -17q28 -18 43 -18q19 0 28.5 10.5t12.5 35.5h73q0 -59 -29 -90.5t-79 -31.5q-35 0 -78 27z" />
    <glyph glyph-name="ograve" unicode="&#xf2;" horiz-adv-x="558" 
d="M43 248q0 112 67 187t169 75t168.5 -75t66.5 -187t-67 -187t-168 -75q-100 0 -168 75t-68 187zM417 246q0 89 -37.5 136t-100.5 47q-64 0 -101 -47t-37 -136q0 -87 36.5 -133t101.5 -46q64 0 101 46.5t37 132.5zM248 567l-110 141h121l50 -141h-61z" />
    <glyph glyph-name="oacute" unicode="&#xf3;" horiz-adv-x="558" 
d="M43 248q0 112 67 187t169 75t168.5 -75t66.5 -187t-67 -187t-168 -75q-100 0 -168 75t-68 187zM417 246q0 89 -37.5 136t-100.5 47q-64 0 -101 -47t-37 -136q0 -87 36.5 -133t101.5 -46q64 0 101 46.5t37 132.5zM248 567l49 141h124l-112 -141h-61z" />
    <glyph glyph-name="ocircumflex" unicode="&#xf4;" horiz-adv-x="558" 
d="M43 248q0 112 67 187t169 75t168.5 -75t66.5 -187t-67 -187t-168 -75q-100 0 -168 75t-68 187zM417 246q0 89 -37.5 136t-100.5 47q-64 0 -101 -47t-37 -136q0 -87 36.5 -133t101.5 -46q64 0 101 46.5t37 132.5zM104 567l107 123h136l107 -123h-93l-82 73l-82 -73h-93z
" />
    <glyph glyph-name="otilde" unicode="&#xf5;" horiz-adv-x="558" 
d="M43 248q0 112 67 187t169 75t168.5 -75t66.5 -187t-67 -187t-168 -75q-100 0 -168 75t-68 187zM417 246q0 89 -37.5 136t-100.5 47q-64 0 -101 -47t-37 -136q0 -87 36.5 -133t101.5 -46q64 0 101 46.5t37 132.5zM278 595l-30 19q-27 17 -42 17q-18 0 -28.5 -13.5
t-10.5 -37.5h-74q0 59 29.5 91t79.5 32q39 0 77 -24l28 -17q28 -18 43 -18q19 0 28.5 10.5t12.5 35.5h73q0 -59 -29 -90.5t-79 -31.5q-34 0 -78 27z" />
    <glyph glyph-name="odieresis" unicode="&#xf6;" horiz-adv-x="558" 
d="M43 248q0 112 67 187t169 75t168.5 -75t66.5 -187t-67 -187t-168 -75q-100 0 -168 75t-68 187zM417 246q0 89 -37.5 136t-100.5 47q-64 0 -101 -47t-37 -136q0 -87 36.5 -133t101.5 -46q64 0 101 46.5t37 132.5zM129 587v103h101v-103h-101zM326 587v103h101v-103h-101z
" />
    <glyph glyph-name="divide" unicode="&#xf7;" horiz-adv-x="648" 
d="M261 493v127h127v-127h-127zM57 307v91h534v-91h-534zM261 85v127h127v-127h-127z" />
    <glyph glyph-name="oslash" unicode="&#xf8;" horiz-adv-x="566" 
d="M148 31l-39 -48l-52 42l44 54q-53 67 -53 169q0 112 66.5 187t168.5 75q79 0 136 -45l39 47l51 -41l-43 -53q53 -72 53 -170q0 -114 -67 -188t-168 -74q-79 0 -136 45zM162 152l142 174q21 26 39.5 35t46.5 9v39q-46 22 -99 22q-68 0 -106.5 -48.5t-38.5 -135.5
q0 -59 16 -95zM421 246q0 59 -17 98l-141 -174q-22 -26 -41 -36.5t-45 -10.5v-39q35 -19 91 -19q75 0 114 46t39 135z" />
    <glyph glyph-name="ugrave" unicode="&#xf9;" horiz-adv-x="577" 
d="M75 170v326h94v-303q0 -126 102 -126q57 0 85 34q45 54 45 179v216h94v-496h-89q0 48 46 116h-52q-46 -130 -158 -130q-81 0 -124 49t-43 135zM253 567l-110 141h121l50 -141h-61z" />
    <glyph glyph-name="uacute" unicode="&#xfa;" horiz-adv-x="577" 
d="M75 170v326h94v-303q0 -126 102 -126q57 0 85 34q45 54 45 179v216h94v-496h-89q0 48 46 116h-52q-46 -130 -158 -130q-81 0 -124 49t-43 135zM254 567l49 141h124l-112 -141h-61z" />
    <glyph glyph-name="ucircumflex" unicode="&#xfb;" horiz-adv-x="577" 
d="M75 170v326h94v-303q0 -126 102 -126q57 0 85 34q45 54 45 179v216h94v-496h-89q0 48 46 116h-52q-46 -130 -158 -130q-81 0 -124 49t-43 135zM109 567l107 123h136l107 -123h-93l-82 73l-82 -73h-93z" />
    <glyph glyph-name="udieresis" unicode="&#xfc;" horiz-adv-x="577" 
d="M75 170v326h94v-303q0 -126 102 -126q57 0 85 34q45 54 45 179v216h94v-496h-89q0 48 46 116h-52q-46 -130 -158 -130q-81 0 -124 49t-43 135zM134 587v103h101v-103h-101zM331 587v103h101v-103h-101z" />
    <glyph glyph-name="yacute" unicode="&#xfd;" horiz-adv-x="509" 
d="M386 496h99l-194 -566q-26 -72 -58.5 -98.5t-98.5 -26.5h-103v84h100q28 0 43.5 10t24.5 36l25 70l-219 491h105l103 -246q24 -55 26 -150h42q1 77 21 139zM218 567l49 141h124l-112 -141h-61z" />
    <glyph glyph-name="thorn" unicode="&#xfe;" horiz-adv-x="583" 
d="M82 -195v895h94v-115q0 -70 -13.5 -112t-42.5 -84h55q43 121 161 121q88 0 144.5 -72t56.5 -190t-56.5 -190t-144.5 -72q-119 0 -161 121h-55q28 -45 41.5 -86t14.5 -110v-106h-94zM440 249q0 181 -133 181q-62 0 -99.5 -46.5t-37.5 -134.5t37.5 -135.5t99.5 -47.5
q133 0 133 183z" />
    <glyph glyph-name="ydieresis" unicode="&#xff;" horiz-adv-x="509" 
d="M386 496h99l-194 -566q-26 -72 -58.5 -98.5t-98.5 -26.5h-103v84h100q28 0 43.5 10t24.5 36l25 70l-219 491h105l103 -246q24 -55 26 -150h42q1 77 21 139zM99 587v103h101v-103h-101zM296 587v103h101v-103h-101z" />
    <glyph glyph-name="Amacron" unicode="&#x100;" horiz-adv-x="691" 
d="M562 0l-65 185h-308l-66 -185h-108l263 700h138l258 -700h-112zM222 276h243l-68 191q-31 93 -32 163h-42q-4 -82 -32 -163zM180 788v72h337v-72h-337z" />
    <glyph glyph-name="amacron" unicode="&#x101;" horiz-adv-x="543" 
d="M50 128q0 94 86 139q85 46 226 57v15q0 92 -104 92q-102 0 -130 -90l-88 30q15 58 72 98.5t146 40.5q97 0 147.5 -45.5t50.5 -128.5v-227q0 -17 6 -22.5t23 -5.5h51v-81h-41q-56 0 -75.5 22t-19.5 82h-38q-15 -54 -54.5 -86t-99.5 -32q-73 0 -115.5 38t-42.5 104z
M362 205v51q-215 -21 -215 -120q0 -34 22.5 -53.5t65.5 -19.5q53 0 90 37t37 105zM108 591v72h306v-72h-306z" />
    <glyph glyph-name="Abreve" unicode="&#x102;" horiz-adv-x="691" 
d="M562 0l-65 185h-308l-66 -185h-108l263 700h138l258 -700h-112zM222 276h243l-68 191q-31 93 -32 163h-42q-4 -82 -32 -163zM180 893h86q3 -30 24 -48t56 -18t55.5 18t23.5 48h86q0 -54 -43.5 -94t-121.5 -40q-79 0 -122.5 39.5t-43.5 94.5z" />
    <glyph glyph-name="abreve" unicode="&#x103;" horiz-adv-x="543" 
d="M50 128q0 94 86 139q85 46 226 57v15q0 92 -104 92q-102 0 -130 -90l-88 30q15 58 72 98.5t146 40.5q97 0 147.5 -45.5t50.5 -128.5v-227q0 -17 6 -22.5t23 -5.5h51v-81h-41q-56 0 -75.5 22t-19.5 82h-38q-15 -54 -54.5 -86t-99.5 -32q-73 0 -115.5 38t-42.5 104z
M362 205v51q-215 -21 -215 -120q0 -34 22.5 -53.5t65.5 -19.5q53 0 90 37t37 105zM110 690h79q2 -30 21 -48t51 -18t50.5 18t21.5 48h78q0 -54 -39.5 -94t-110.5 -40q-72 0 -110.5 39.5t-40.5 94.5z" />
    <glyph glyph-name="Aogonek" unicode="&#x104;" horiz-adv-x="691" 
d="M630 -132q16 0 44 6v-72q-30 -8 -57 -8q-56 0 -89 23t-33 67q0 68 82 116h-15l-65 185h-308l-66 -185h-108l263 700h138l258 -700q-104 -39 -104 -91q0 -41 60 -41zM222 276h243l-68 191q-31 93 -32 163h-42q-4 -82 -32 -163z" />
    <glyph glyph-name="aogonek" unicode="&#x105;" horiz-adv-x="543" 
d="M432 -91q0 -41 60 -41q16 0 44 6v-72q-30 -8 -57 -8q-56 0 -89 23t-33 67q0 72 91 121q-27 8 -37.5 30.5t-10.5 68.5h-38q-15 -54 -54.5 -86t-99.5 -32q-73 0 -115.5 38t-42.5 104q0 94 86 139q85 46 226 57v15q0 92 -104 92q-102 0 -130 -90l-88 30q15 58 72 98.5
t146 40.5q97 0 147.5 -45.5t50.5 -128.5v-227q0 -17 6 -22.5t23 -5.5h51v-81q-104 -39 -104 -91zM362 205v51q-215 -21 -215 -120q0 -34 22.5 -53.5t65.5 -19.5q53 0 90 37t37 105z" />
    <glyph glyph-name="Cacute" unicode="&#x106;" horiz-adv-x="736" 
d="M50 356q-2 152 96.5 256.5t246.5 101.5q121 0 201.5 -60.5t105.5 -146.5l-100 -36q-19 61 -69 106q-47 46 -138 46q-107 0 -171.5 -71.5t-64.5 -194.5q0 -126 65 -202.5t171 -76.5q86 0 135.5 40.5t75.5 117.5l97 -37q-27 -94 -107.5 -153.5t-200.5 -59.5
q-156 -2 -250.5 104.5t-92.5 265.5zM366 770l54 142h137l-124 -142h-67z" />
    <glyph glyph-name="cacute" unicode="&#x107;" horiz-adv-x="532" 
d="M44 249q0 114 68 187.5t172 73.5q79 0 134 -40t75 -104l-88 -30q-32 93 -122 93q-61 0 -101 -47.5t-40 -132.5q0 -88 39 -135t103 -47q99 0 132 107l89 -31q-27 -74 -84 -115.5t-136 -41.5q-109 0 -175 71.5t-66 191.5zM254 567l49 141h124l-112 -141h-61z" />
    <glyph glyph-name="Ccircumflex" unicode="&#x108;" horiz-adv-x="736" 
d="M50 356q-2 152 96.5 256.5t246.5 101.5q121 0 201.5 -60.5t105.5 -146.5l-100 -36q-19 61 -69 106q-47 46 -138 46q-107 0 -171.5 -71.5t-64.5 -194.5q0 -126 65 -202.5t171 -76.5q86 0 135.5 40.5t75.5 117.5l97 -37q-27 -94 -107.5 -153.5t-200.5 -59.5
q-156 -2 -250.5 104.5t-92.5 265.5zM205 770l118 123h149l119 -123h-103l-90 73l-90 -73h-103z" />
    <glyph glyph-name="ccircumflex" unicode="&#x109;" horiz-adv-x="532" 
d="M44 249q0 114 68 187.5t172 73.5q79 0 134 -40t75 -104l-88 -30q-32 93 -122 93q-61 0 -101 -47.5t-40 -132.5q0 -88 39 -135t103 -47q99 0 132 107l89 -31q-27 -74 -84 -115.5t-136 -41.5q-109 0 -175 71.5t-66 191.5zM110 567l107 123h136l107 -123h-93l-82 73l-82 -73
h-93z" />
    <glyph glyph-name="Cdotaccent" unicode="&#x10a;" horiz-adv-x="736" 
d="M50 356q-2 152 96.5 256.5t246.5 101.5q121 0 201.5 -60.5t105.5 -146.5l-100 -36q-19 61 -69 106q-47 46 -138 46q-107 0 -171.5 -71.5t-64.5 -194.5q0 -126 65 -202.5t171 -76.5q86 0 135.5 40.5t75.5 117.5l97 -37q-27 -94 -107.5 -153.5t-200.5 -59.5
q-156 -2 -250.5 104.5t-92.5 265.5zM348 770v112h100v-112h-100z" />
    <glyph glyph-name="cdotaccent" unicode="&#x10b;" horiz-adv-x="532" 
d="M44 249q0 114 68 187.5t172 73.5q79 0 134 -40t75 -104l-88 -30q-32 93 -122 93q-61 0 -101 -47.5t-40 -132.5q0 -88 39 -135t103 -47q99 0 132 107l89 -31q-27 -74 -84 -115.5t-136 -41.5q-109 0 -175 71.5t-66 191.5zM234 588v112h100v-112h-100z" />
    <glyph glyph-name="Ccaron" unicode="&#x10c;" horiz-adv-x="736" 
d="M50 356q-2 152 96.5 256.5t246.5 101.5q121 0 201.5 -60.5t105.5 -146.5l-100 -36q-19 61 -69 106q-47 46 -138 46q-107 0 -171.5 -71.5t-64.5 -194.5q0 -126 65 -202.5t171 -76.5q86 0 135.5 40.5t75.5 117.5l97 -37q-27 -94 -107.5 -153.5t-200.5 -59.5
q-156 -2 -250.5 104.5t-92.5 265.5zM590 891l-118 -123h-149l-118 123h102l90 -73l90 73h103z" />
    <glyph glyph-name="ccaron" unicode="&#x10d;" horiz-adv-x="532" 
d="M44 249q0 114 68 187.5t172 73.5q79 0 134 -40t75 -104l-88 -30q-32 93 -122 93q-61 0 -101 -47.5t-40 -132.5q0 -88 39 -135t103 -47q99 0 132 107l89 -31q-27 -74 -84 -115.5t-136 -41.5q-109 0 -175 71.5t-66 191.5zM216 567l-107 123h93l82 -74l82 74h93l-108 -123
h-135z" />
    <glyph glyph-name="Dcaron" unicode="&#x10e;" horiz-adv-x="735" 
d="M100 0v700h246q150 0 243.5 -96t93.5 -251q0 -164 -92.5 -258.5t-250.5 -94.5h-240zM200 92h125q253 0 253 260q0 120 -63 188t-183 68h-132v-516zM508 891l-118 -123h-149l-118 123h102l90 -73l90 73h103z" />
    <glyph glyph-name="dcaron" unicode="&#x10f;" horiz-adv-x="622" 
d="M45 249q0 117 57 189t145 72q118 0 160 -121h55q-55 77 -55 196v115h94v-700h-85q0 44 45 107h-53q-23 -55 -58.5 -88t-102.5 -33q-88 0 -145 72t-57 191zM412 249q0 88 -37 134.5t-100 46.5q-132 0 -132 -181q0 -183 132 -183q62 0 99.5 47.5t37.5 135.5zM557 472
l67 118h-58v111h108v-111l-66 -118h-51z" />
    <glyph glyph-name="Dcroat" unicode="&#x110;" horiz-adv-x="741" 
d="M689 353q0 -164 -92.5 -258.5t-250.5 -94.5h-240v325h-78v81h78v294h246q150 0 243.5 -96t93.5 -251zM584 352q0 120 -63 188t-183 68h-132v-202h152v-81h-152v-233h126q252 0 252 260z" />
    <glyph glyph-name="dcroat" unicode="&#x111;" horiz-adv-x="583" 
d="M580 625v-67h-79v-558h-85q0 44 45 107h-53q-23 -55 -58.5 -88t-102.5 -33q-88 0 -145 72t-57 191q0 117 57 189t145 72q118 0 160 -121h55q-50 70 -55 169h-169v67h169v75h94v-75h79zM412 249q0 88 -37 134.5t-100 46.5q-132 0 -132 -181q0 -183 132 -183
q62 0 99.5 47.5t37.5 135.5z" />
    <glyph glyph-name="Emacron" unicode="&#x112;" horiz-adv-x="644" 
d="M100 0v700h495v-92h-395v-200h293v-91h-293v-225h395v-92h-495zM180 788v72h337v-72h-337z" />
    <glyph glyph-name="emacron" unicode="&#x113;" horiz-adv-x="538" 
d="M45 246q0 119 63 191.5t162 72.5t160 -69t61 -176q0 -19 -3 -41h-349q3 -80 40.5 -119.5t96.5 -39.5q89 0 130 95l86 -31q-26 -69 -82.5 -106t-135.5 -37q-105 0 -167 68.5t-62 191.5zM141 299h252q-1 63 -36 99.5t-87 36.5q-51 0 -87 -37t-42 -99zM117 591v72h306v-72
h-306z" />
    <glyph glyph-name="Ebreve" unicode="&#x114;" horiz-adv-x="644" 
d="M100 0v700h495v-92h-395v-200h293v-91h-293v-225h395v-92h-495zM180 893h86q3 -30 24 -48t56 -18t55.5 18t23.5 48h86q0 -54 -43.5 -94t-121.5 -40q-79 0 -122.5 39.5t-43.5 94.5z" />
    <glyph glyph-name="ebreve" unicode="&#x115;" horiz-adv-x="538" 
d="M45 246q0 119 63 191.5t162 72.5t160 -69t61 -176q0 -19 -3 -41h-349q3 -80 40.5 -119.5t96.5 -39.5q89 0 130 95l86 -31q-26 -69 -82.5 -106t-135.5 -37q-105 0 -167 68.5t-62 191.5zM141 299h252q-1 63 -36 99.5t-87 36.5q-51 0 -87 -37t-42 -99zM119 690h79
q2 -30 21 -48t51 -18t50.5 18t21.5 48h78q0 -54 -39.5 -94t-110.5 -40q-72 0 -110.5 39.5t-40.5 94.5z" />
    <glyph glyph-name="Edotaccent" unicode="&#x116;" horiz-adv-x="644" 
d="M100 0v700h495v-92h-395v-200h293v-91h-293v-225h395v-92h-495zM297 770v112h100v-112h-100z" />
    <glyph glyph-name="edotaccent" unicode="&#x117;" horiz-adv-x="538" 
d="M45 246q0 119 63 191.5t162 72.5t160 -69t61 -176q0 -19 -3 -41h-349q3 -80 40.5 -119.5t96.5 -39.5q89 0 130 95l86 -31q-26 -69 -82.5 -106t-135.5 -37q-105 0 -167 68.5t-62 191.5zM141 299h252q-1 63 -36 99.5t-87 36.5q-51 0 -87 -37t-42 -99zM220 588v112h100v-112
h-100z" />
    <glyph glyph-name="Eogonek" unicode="&#x118;" horiz-adv-x="644" 
d="M595 608h-395v-200h293v-91h-293v-225h395v-92q-104 -39 -104 -91q0 -41 60 -41q15 0 44 6v-72q-32 -8 -57 -8q-57 0 -89.5 23t-32.5 67q0 68 82 116h-398v700h495v-92z" />
    <glyph glyph-name="eogonek" unicode="&#x119;" horiz-adv-x="538" 
d="M270 510q99 0 160 -69t61 -176q0 -19 -3 -41h-349q3 -80 40.5 -119.5t96.5 -39.5q89 0 130 95l86 -31q-36 -98 -132 -131q-101 -38 -101 -87q0 -43 60 -43q15 0 44 6v-72q-30 -8 -57 -8q-57 0 -89.5 23.5t-32.5 67.5q0 58 58 103q-92 11 -144.5 78.5t-52.5 179.5
q0 119 63 191.5t162 72.5zM141 299h252q-1 63 -36 99.5t-87 36.5q-51 0 -87 -37t-42 -99z" />
    <glyph glyph-name="Ecaron" unicode="&#x11a;" horiz-adv-x="644" 
d="M100 0v700h495v-92h-395v-200h293v-91h-293v-225h395v-92h-495zM539 891l-118 -123h-149l-118 123h102l90 -73l90 73h103z" />
    <glyph glyph-name="ecaron" unicode="&#x11b;" horiz-adv-x="538" 
d="M45 246q0 119 63 191.5t162 72.5t160 -69t61 -176q0 -19 -3 -41h-349q3 -80 40.5 -119.5t96.5 -39.5q89 0 130 95l86 -31q-26 -69 -82.5 -106t-135.5 -37q-105 0 -167 68.5t-62 191.5zM141 299h252q-1 63 -36 99.5t-87 36.5q-51 0 -87 -37t-42 -99zM202 567l-107 123h93
l82 -74l82 74h93l-108 -123h-135z" />
    <glyph glyph-name="Gcircumflex" unicode="&#x11c;" horiz-adv-x="780" 
d="M51 351q-3 153 102.5 259t248.5 104q120 0 202 -59.5t113 -150.5l-102 -41q-59 158 -216 158q-99 0 -170 -73.5t-71 -196.5q0 -127 65.5 -200.5t172.5 -73.5q92 0 151.5 53t64.5 123h-242v92h345v-345h-97q0 73 39 149h-47q-22 -59 -80 -112q-56 -51 -162 -51
q-141 0 -229 99.5t-88 265.5zM215 770l118 123h149l119 -123h-103l-90 73l-90 -73h-103z" />
    <glyph glyph-name="gcircumflex" unicode="&#x11d;" horiz-adv-x="588" 
d="M34 -105q0 67 69 97v35q-49 20 -49 62q0 57 74 88v35q-54 43 -54 124q0 72 54 123t136 51q128 0 167 -96h35q3 37 23 59.5t53 22.5h34v-78h-41q-33 0 -46 -13t-16 -54l-2 -24q-6 -84 -59.5 -133.5t-137.5 -49.5q-64 0 -94 18q-44 -18 -44 -47q0 -32 44 -32h216
q72 0 115.5 -38.5t43.5 -100.5q0 -66 -44.5 -102.5t-113.5 -36.5h-243q-59 0 -89.5 27t-30.5 63zM381 326q0 48 -29.5 79t-77.5 31t-77.5 -30.5t-29.5 -79.5q0 -50 29 -79.5t78 -29.5t78 29.5t29 79.5zM192 -115h193q75 0 75 58q0 31 -19 44t-56 13h-232q-36 -23 -36 -63
q0 -29 18 -40.5t57 -11.5zM97 567l107 123h136l107 -123h-93l-82 73l-82 -73h-93z" />
    <glyph glyph-name="Gbreve" unicode="&#x11e;" horiz-adv-x="780" 
d="M51 351q-3 153 102.5 259t248.5 104q120 0 202 -59.5t113 -150.5l-102 -41q-59 158 -216 158q-99 0 -170 -73.5t-71 -196.5q0 -127 65.5 -200.5t172.5 -73.5q92 0 151.5 53t64.5 123h-242v92h345v-345h-97q0 73 39 149h-47q-22 -59 -80 -112q-56 -51 -162 -51
q-141 0 -229 99.5t-88 265.5zM242 893h86q3 -30 24 -48t56 -18t55.5 18t23.5 48h86q0 -54 -43.5 -94t-121.5 -40q-79 0 -122.5 39.5t-43.5 94.5z" />
    <glyph glyph-name="gbreve" unicode="&#x11f;" horiz-adv-x="588" 
d="M34 -105q0 67 69 97v35q-49 20 -49 62q0 57 74 88v35q-54 43 -54 124q0 72 54 123t136 51q128 0 167 -96h35q3 37 23 59.5t53 22.5h34v-78h-41q-33 0 -46 -13t-16 -54l-2 -24q-6 -84 -59.5 -133.5t-137.5 -49.5q-64 0 -94 18q-44 -18 -44 -47q0 -32 44 -32h216
q72 0 115.5 -38.5t43.5 -100.5q0 -66 -44.5 -102.5t-113.5 -36.5h-243q-59 0 -89.5 27t-30.5 63zM381 326q0 48 -29.5 79t-77.5 31t-77.5 -30.5t-29.5 -79.5q0 -50 29 -79.5t78 -29.5t78 29.5t29 79.5zM192 -115h193q75 0 75 58q0 31 -19 44t-56 13h-232q-36 -23 -36 -63
q0 -29 18 -40.5t57 -11.5zM120 690h79q2 -30 21 -48t51 -18t50.5 18t21.5 48h78q0 -54 -39.5 -94t-110.5 -40q-72 0 -110.5 39.5t-40.5 94.5z" />
    <glyph glyph-name="Gdotaccent" unicode="&#x120;" horiz-adv-x="780" 
d="M51 351q-3 153 102.5 259t248.5 104q120 0 202 -59.5t113 -150.5l-102 -41q-59 158 -216 158q-99 0 -170 -73.5t-71 -196.5q0 -127 65.5 -200.5t172.5 -73.5q92 0 151.5 53t64.5 123h-242v92h345v-345h-97q0 73 39 149h-47q-22 -59 -80 -112q-56 -51 -162 -51
q-141 0 -229 99.5t-88 265.5zM358 770v112h100v-112h-100z" />
    <glyph glyph-name="gdotaccent" unicode="&#x121;" horiz-adv-x="588" 
d="M34 -105q0 67 69 97v35q-49 20 -49 62q0 57 74 88v35q-54 43 -54 124q0 72 54 123t136 51q128 0 167 -96h35q3 37 23 59.5t53 22.5h34v-78h-41q-33 0 -46 -13t-16 -54l-2 -24q-6 -84 -59.5 -133.5t-137.5 -49.5q-64 0 -94 18q-44 -18 -44 -47q0 -32 44 -32h216
q72 0 115.5 -38.5t43.5 -100.5q0 -66 -44.5 -102.5t-113.5 -36.5h-243q-59 0 -89.5 27t-30.5 63zM381 326q0 48 -29.5 79t-77.5 31t-77.5 -30.5t-29.5 -79.5q0 -50 29 -79.5t78 -29.5t78 29.5t29 79.5zM192 -115h193q75 0 75 58q0 31 -19 44t-56 13h-232q-36 -23 -36 -63
q0 -29 18 -40.5t57 -11.5zM221 588v112h100v-112h-100z" />
    <glyph glyph-name="uni0122" unicode="&#x122;" horiz-adv-x="780" 
d="M51 351q-3 153 102.5 259t248.5 104q120 0 202 -59.5t113 -150.5l-102 -41q-59 158 -216 158q-99 0 -170 -73.5t-71 -196.5q0 -127 65.5 -200.5t172.5 -73.5q92 0 151.5 53t64.5 123h-242v92h345v-345h-97q0 73 39 149h-47q-22 -59 -80 -112q-56 -51 -162 -51
q-141 0 -229 99.5t-88 265.5zM339 -313l67 118h-58v111h108v-111l-66 -118h-51z" />
    <glyph glyph-name="uni0123" unicode="&#x123;" horiz-adv-x="588" 
d="M34 -105q0 67 69 97v35q-49 20 -49 62q0 57 74 88v35q-54 43 -54 124q0 72 54 123t136 51q128 0 167 -96h35q3 37 23 59.5t53 22.5h34v-78h-41q-33 0 -46 -13t-16 -54l-2 -24q-6 -84 -59.5 -133.5t-137.5 -49.5q-64 0 -94 18q-44 -18 -44 -47q0 -32 44 -32h216
q72 0 115.5 -38.5t43.5 -100.5q0 -66 -44.5 -102.5t-113.5 -36.5h-243q-59 0 -89.5 27t-30.5 63zM381 326q0 48 -29.5 79t-77.5 31t-77.5 -30.5t-29.5 -79.5q0 -50 29 -79.5t78 -29.5t78 29.5t29 79.5zM192 -115h193q75 0 75 58q0 31 -19 44t-56 13h-232q-36 -23 -36 -63
q0 -29 18 -40.5t57 -11.5zM337 817l-67 -119h58v-111h-108v111l66 119h51z" />
    <glyph glyph-name="Hcircumflex" unicode="&#x124;" horiz-adv-x="767" 
d="M100 0v700h100v-292h367v292h100v-700h-100v316h-367v-316h-100zM190 770l118 123h149l119 -123h-103l-90 73l-90 -73h-103z" />
    <glyph glyph-name="hcircumflex" unicode="&#x125;" horiz-adv-x="582" 
d="M82 0v700h94v-136q-1 -69 -13 -106t-39 -77h51q15 50 57 89.5t102 39.5q86 0 129.5 -48.5t43.5 -137.5v-324h-94v303q0 125 -104 125q-60 0 -90 -36q-27 -32 -35 -73t-8 -105v-214h-94zM125 771l107 123h136l107 -123h-93l-82 73l-82 -73h-93z" />
    <glyph glyph-name="Hbar" unicode="&#x126;" horiz-adv-x="790" 
d="M763 610v-77h-85v-533h-100v316h-368v-316h-99v533h-85v77h85v90h99v-90h368v90h100v-90h85zM578 408v125h-368v-125h368z" />
    <glyph glyph-name="hbar" unicode="&#x127;" horiz-adv-x="582" 
d="M507 324v-324h-94v303q0 125 -104 125q-60 0 -90 -36q-27 -32 -35 -73t-8 -105v-214h-94v558h-72v67h72v75h94v-75h176v-67h-176q-1 -46 -8.5 -79.5t-16 -51t-27.5 -46.5h51q15 50 57 89.5t102 39.5q86 0 129.5 -48.5t43.5 -137.5z" />
    <glyph glyph-name="Itilde" unicode="&#x128;" horiz-adv-x="300" 
d="M100 0v700h100v-700h-100zM160 786l-33 19q-34 17 -47 17q-42 0 -42 -52h-81q0 59 32 91.5t87 32.5q42 0 85 -24l31 -18q33 -18 48 -18q38 0 44 47h80q0 -59 -31.5 -90.5t-87.5 -31.5q-39 0 -85 27z" />
    <glyph glyph-name="itilde" unicode="&#x129;" horiz-adv-x="257" 
d="M82 0v496h94v-496h-94zM129 595l-30 19q-27 17 -42 17q-18 0 -28.5 -13.5t-10.5 -37.5h-74q0 59 29.5 91t79.5 32q39 0 77 -24l28 -17q28 -18 43 -18q19 0 28.5 10.5t12.5 35.5h73q0 -59 -29 -90.5t-79 -31.5q-35 0 -78 27z" />
    <glyph glyph-name="Imacron" unicode="&#x12a;" horiz-adv-x="300" 
d="M100 0v700h100v-700h-100zM-18 788v72h337v-72h-337z" />
    <glyph glyph-name="imacron" unicode="&#x12b;" horiz-adv-x="257" 
d="M82 0v496h94v-496h-94zM-24 591v72h306v-72h-306z" />
    <glyph glyph-name="Ibreve" unicode="&#x12c;" horiz-adv-x="300" 
d="M100 0v700h100v-700h-100zM-17 893h86q3 -30 24 -48t56 -18t55.5 18t23.5 48h86q0 -54 -43.5 -94t-121.5 -40q-79 0 -122.5 39.5t-43.5 94.5z" />
    <glyph glyph-name="ibreve" unicode="&#x12d;" horiz-adv-x="257" 
d="M82 0v496h94v-496h-94zM-23 690h79q2 -30 21 -48t51 -18t50.5 18t21.5 48h78q0 -54 -39.5 -94t-110.5 -40q-72 0 -110.5 39.5t-40.5 94.5z" />
    <glyph glyph-name="Iogonek" unicode="&#x12e;" horiz-adv-x="300" 
d="M156 -132q16 0 44 6v-72q-30 -8 -57 -8q-56 0 -89 23t-33 67q0 68 82 116h-3v700h100v-699v-1q-104 -40 -104 -91q0 -41 60 -41z" />
    <glyph glyph-name="iogonek" unicode="&#x12f;" horiz-adv-x="258" 
d="M80 700h100v-112h-100v112zM83 1v495h94v-496q-104 -39 -104 -91q0 -41 60 -41q15 0 44 6v-72q-32 -8 -57 -8q-57 0 -89.5 23t-32.5 67q0 70 85 117z" />
    <glyph glyph-name="Idotaccent" unicode="&#x130;" horiz-adv-x="300" 
d="M100 0v700h100v-700h-100zM99 770v112h100v-112h-100z" />
    <glyph glyph-name="dotlessi" unicode="&#x131;" horiz-adv-x="257" 
d="M82 0v496h94v-496h-94z" />
    <glyph glyph-name="IJ" unicode="&#x132;" horiz-adv-x="808" 
d="M100 0v700h100v-700h-100zM319 211l103 25q0 -82 23 -121.5t74 -39.5t74.5 37.5t23.5 116.5v471h100v-474q0 -240 -197 -240q-95 0 -147 59.5t-54 165.5z" />
    <glyph glyph-name="ij" unicode="&#x133;" horiz-adv-x="522" 
d="M78 588v112h100v-112h-100zM82 0v496h94v-496h-94zM344 588v112h100v-112h-100zM219 -195v84h79q48 0 48 48v559h95v-569q0 -122 -126 -122h-96z" />
    <glyph glyph-name="Jcircumflex" unicode="&#x134;" horiz-adv-x="508" 
d="M18 211l103 25q0 -82 23 -121.5t74 -39.5t74.5 37.5t23.5 116.5v471h100v-474q0 -240 -197 -240q-95 0 -147 59.5t-54 165.5zM171 770l118 123h149l119 -123h-103l-90 73l-90 -73h-103z" />
    <glyph glyph-name="jcircumflex" unicode="&#x135;" horiz-adv-x="265" 
d="M-38 -195v84h79q48 0 48 48v559h95v-569q0 -122 -126 -122h-96zM-38 567l107 123h136l107 -123h-93l-82 73l-82 -73h-93z" />
    <glyph glyph-name="uni0136" unicode="&#x136;" horiz-adv-x="683" 
d="M562 0l-269 340l-93 -96v-244h-100v700h100v-165q0 -56 -10.5 -89.5t-35.5 -62.5l31 -29l323 346h135l-280 -288l330 -412h-131zM319 -313l67 118h-58v111h108v-111l-66 -118h-51z" />
    <glyph glyph-name="uni0137" unicode="&#x137;" horiz-adv-x="570" 
d="M449 0l-183 228l-90 -84v-144h-94v700h94v-285q0 -66 -10 -95t-43 -59l30 -31l276 266h123l-220 -206l237 -290h-120zM250 -313l67 118h-58v111h108v-111l-66 -118h-51z" />
    <glyph glyph-name="Lacute" unicode="&#x139;" horiz-adv-x="587" 
d="M100 0v700h100v-606h377v-94h-477zM116 770l54 142h137l-124 -142h-67z" />
    <glyph glyph-name="lacute" unicode="&#x13a;" horiz-adv-x="257" 
d="M82 0v700h94v-700h-94zM98 771l49 141h124l-112 -141h-61z" />
    <glyph glyph-name="uni013B" unicode="&#x13b;" horiz-adv-x="587" 
d="M100 0v700h100v-606h377v-94h-477zM273 -313l67 118h-58v111h108v-111l-66 -118h-51z" />
    <glyph glyph-name="uni013C" unicode="&#x13c;" horiz-adv-x="257" 
d="M82 0v700h94v-700h-94zM66 -313l67 118h-58v111h108v-111l-66 -118h-51z" />
    <glyph glyph-name="Lcaron" unicode="&#x13d;" horiz-adv-x="588" 
d="M309 448l73 131h-64v122h120v-122l-73 -131h-56zM100 0v700h100v-606h377v-94h-477z" />
    <glyph glyph-name="lcaron" unicode="&#x13e;" horiz-adv-x="296" 
d="M82 0v700h94v-700h-94zM232 472l67 118h-58v111h108v-111l-66 -118h-51z" />
    <glyph glyph-name="Ldot" unicode="&#x13f;" horiz-adv-x="590" 
d="M100 0v700h100v-606h377v-94h-477zM363 310v130h128v-130h-128z" />
    <glyph glyph-name="ldot" unicode="&#x140;" horiz-adv-x="395" 
d="M82 0v700h94v-700h-94zM262 290v130h128v-130h-128z" />
    <glyph glyph-name="Lslash" unicode="&#x141;" 
d="M232 94h378v-94h-477v253l-91 -51v92l91 52v354h99v-298l221 125v-91l-221 -126v-216z" />
    <glyph glyph-name="lslash" unicode="&#x142;" horiz-adv-x="324" 
d="M298 508v-86l-86 -56v-366h-94v306l-79 -51v85l79 51v309h94v-248z" />
    <glyph glyph-name="Nacute" unicode="&#x143;" horiz-adv-x="809" 
d="M100 0v700h152l368 -579l36 25q-28 42 -37.5 79.5t-9.5 104.5v370h100v-700h-125l-390 616l-36 -23q42 -80 42 -203v-390h-100zM377 770l54 142h137l-124 -142h-67z" />
    <glyph glyph-name="nacute" unicode="&#x144;" horiz-adv-x="582" 
d="M82 0v496h90q0 -42 -48 -115h51q15 50 57 89.5t102 39.5q86 0 129.5 -48.5t43.5 -137.5v-324h-94v303q0 125 -104 125q-60 0 -90 -36q-27 -32 -35 -73t-8 -105v-214h-94zM267 567l49 141h124l-112 -141h-61z" />
    <glyph glyph-name="uni0145" unicode="&#x145;" horiz-adv-x="809" 
d="M100 0v700h152l368 -579l36 25q-28 42 -37.5 79.5t-9.5 104.5v370h100v-700h-125l-390 616l-36 -23q42 -80 42 -203v-390h-100zM342 -313l67 118h-58v111h108v-111l-66 -118h-51z" />
    <glyph glyph-name="uni0146" unicode="&#x146;" horiz-adv-x="582" 
d="M82 0v496h90q0 -42 -48 -115h51q15 50 57 89.5t102 39.5q86 0 129.5 -48.5t43.5 -137.5v-324h-94v303q0 125 -104 125q-60 0 -90 -36q-27 -32 -35 -73t-8 -105v-214h-94zM232 -313l67 118h-58v111h108v-111l-66 -118h-51z" />
    <glyph glyph-name="Ncaron" unicode="&#x147;" horiz-adv-x="809" 
d="M100 0v700h152l368 -579l36 25q-28 42 -37.5 79.5t-9.5 104.5v370h100v-700h-125l-390 616l-36 -23q42 -80 42 -203v-390h-100zM602 891l-118 -123h-149l-118 123h102l90 -73l90 73h103z" />
    <glyph glyph-name="ncaron" unicode="&#x148;" horiz-adv-x="582" 
d="M82 0v496h90q0 -42 -48 -115h51q15 50 57 89.5t102 39.5q86 0 129.5 -48.5t43.5 -137.5v-324h-94v303q0 125 -104 125q-60 0 -90 -36q-27 -32 -35 -73t-8 -105v-214h-94zM228 567l-107 123h93l82 -74l82 74h93l-108 -123h-135z" />
    <glyph glyph-name="Eng" unicode="&#x14a;" horiz-adv-x="809" 
d="M487 -195v90h53q33 0 51 19t18 52v32l-415 618l-36 -23q42 -80 42 -203v-390h-100v700h152l350 -523l18 -27l37 25q-29 46 -38.5 81.5t-9.5 101.5v342h100v-736q0 -77 -41.5 -118t-113.5 -41h-67z" />
    <glyph glyph-name="eng" unicode="&#x14b;" horiz-adv-x="582" 
d="M285 -195v84h79q26 0 37.5 11.5t11.5 37.5v365q0 125 -104 125q-60 0 -90 -36q-27 -32 -35 -73t-8 -105v-214h-94v496h90q0 -42 -48 -115h51q15 50 57 89.5t102 39.5q86 0 129.5 -48.5t43.5 -138.5v-396q0 -122 -126 -122h-96z" />
    <glyph glyph-name="Omacron" unicode="&#x14c;" horiz-adv-x="802" 
d="M50 350q-2 159 100 262.5t252 101.5q150 2 250.5 -101.5t98.5 -262.5q2 -159 -98.5 -262.5t-250.5 -101.5q-150 -2 -252 101.5t-100 262.5zM645 350q0 119 -66.5 196t-177.5 77q-112 0 -178 -76.5t-66 -196.5q0 -121 66 -197t178 -76t178 76t66 197zM234 788v72h337v-72
h-337z" />
    <glyph glyph-name="omacron" unicode="&#x14d;" horiz-adv-x="558" 
d="M43 248q0 112 67 187t169 75t168.5 -75t66.5 -187t-67 -187t-168 -75q-100 0 -168 75t-68 187zM417 246q0 89 -37.5 136t-100.5 47q-64 0 -101 -47t-37 -136q0 -87 36.5 -133t101.5 -46q64 0 101 46.5t37 132.5zM125 591v72h306v-72h-306z" />
    <glyph glyph-name="Obreve" unicode="&#x14e;" horiz-adv-x="802" 
d="M50 350q-2 159 100 262.5t252 101.5q150 2 250.5 -101.5t98.5 -262.5q2 -159 -98.5 -262.5t-250.5 -101.5q-150 -2 -252 101.5t-100 262.5zM645 350q0 119 -66.5 196t-177.5 77q-112 0 -178 -76.5t-66 -196.5q0 -121 66 -197t178 -76t178 76t66 197zM234 893h86
q3 -30 24 -48t56 -18t55.5 18t23.5 48h86q0 -54 -43.5 -94t-121.5 -40q-79 0 -122.5 39.5t-43.5 94.5z" />
    <glyph glyph-name="obreve" unicode="&#x14f;" horiz-adv-x="558" 
d="M43 248q0 112 67 187t169 75t168.5 -75t66.5 -187t-67 -187t-168 -75q-100 0 -168 75t-68 187zM417 246q0 89 -37.5 136t-100.5 47q-64 0 -101 -47t-37 -136q0 -87 36.5 -133t101.5 -46q64 0 101 46.5t37 132.5zM127 690h79q2 -30 21 -48t51 -18t50.5 18t21.5 48h78
q0 -54 -39.5 -94t-110.5 -40q-72 0 -110.5 39.5t-40.5 94.5z" />
    <glyph glyph-name="Ohungarumlaut" unicode="&#x150;" horiz-adv-x="802" 
d="M50 350q-2 159 100 262.5t252 101.5q150 2 250.5 -101.5t98.5 -262.5q2 -159 -98.5 -262.5t-250.5 -101.5q-150 -2 -252 101.5t-100 262.5zM645 350q0 119 -66.5 196t-177.5 77q-112 0 -178 -76.5t-66 -196.5q0 -121 66 -197t178 -76t178 76t66 197zM284 770l56 142h136
l-124 -142h-68zM461 770l55 142h137l-124 -142h-68z" />
    <glyph glyph-name="ohungarumlaut" unicode="&#x151;" horiz-adv-x="558" 
d="M43 248q0 112 67 187t169 75t168.5 -75t66.5 -187t-67 -187t-168 -75q-100 0 -168 75t-68 187zM417 246q0 89 -37.5 136t-100.5 47q-64 0 -101 -47t-37 -136q0 -87 36.5 -133t101.5 -46q64 0 101 46.5t37 132.5zM168 567l50 141h124l-113 -141h-61zM328 567l50 141h124
l-112 -141h-62z" />
    <glyph glyph-name="OE" unicode="&#x152;" horiz-adv-x="1205" 
d="M51 349q-2 159 90.5 263t224.5 102q102 0 155 -47q52 -46 74 -98h47q-21 50 -19 131h532v-92h-432v-192h313v-89h-313v-235h432v-92h-532q-2 78 19 131h-47q-21 -52 -74 -99q-52 -46 -154 -46q-133 -3 -225.5 101t-90.5 262zM628 350q0 121 -64.5 197t-171.5 76
t-171.5 -76t-64.5 -197t63.5 -197t172.5 -76q107 0 171.5 76t64.5 197z" />
    <glyph glyph-name="oe" unicode="&#x153;" horiz-adv-x="911" 
d="M43 248q0 112 61 187t155 75q71 0 120 -37t65 -92h39q13 53 57 91t106 38q99 0 158.5 -69t59.5 -174q0 -21 -3 -43h-350q4 -77 38.5 -118t93.5 -41q97 0 135 95l86 -31q-57 -143 -216 -143q-65 0 -111 37t-62 91h-40q-19 -58 -64 -93t-112 -35q-95 0 -155.5 72t-60.5 190
zM514 296h251q0 66 -34.5 102.5t-92.5 36.5q-49 0 -84.5 -37.5t-39.5 -101.5zM417 246q0 87 -38 135t-98 48q-65 0 -102.5 -47t-37.5 -136q0 -86 37.5 -132.5t102.5 -46.5q60 0 98 46.5t38 132.5z" />
    <glyph glyph-name="Racute" unicode="&#x154;" horiz-adv-x="690" 
d="M100 0v700h299q104 0 165 -53.5t61 -136.5q0 -81 -52 -118q-51 -36 -128 -41v-42q75 -1 109.5 -30.5t49.5 -102.5l34 -176h-109l-29 167q-10 66 -46.5 94t-108.5 28h-145v-289h-100zM200 379h184q64 0 100 29.5t36 85.5t-36 85t-100 29h-184v-229zM308 770l54 142h137
l-124 -142h-67z" />
    <glyph glyph-name="racute" unicode="&#x155;" horiz-adv-x="401" 
d="M82 0v496h91q0 -59 -53 -142h54q38 149 164 149q25 0 47 -5v-97q-32 5 -53 5q-156 0 -156 -185v-221h-94zM202 567l49 141h124l-112 -141h-61z" />
    <glyph glyph-name="uni0156" unicode="&#x156;" horiz-adv-x="690" 
d="M100 0v700h299q104 0 165 -53.5t61 -136.5q0 -81 -52 -118q-51 -36 -128 -41v-42q75 -1 109.5 -30.5t49.5 -102.5l34 -176h-109l-29 167q-10 66 -46.5 94t-108.5 28h-145v-289h-100zM200 379h184q64 0 100 29.5t36 85.5t-36 85t-100 29h-184v-229zM293 -313l67 118h-58
v111h108v-111l-66 -118h-51z" />
    <glyph glyph-name="uni0157" unicode="&#x157;" horiz-adv-x="401" 
d="M82 0v496h91q0 -59 -53 -142h54q38 149 164 149q25 0 47 -5v-97q-32 5 -53 5q-156 0 -156 -185v-221h-94zM68 -313l67 118h-58v111h108v-111l-66 -118h-51z" />
    <glyph glyph-name="Rcaron" unicode="&#x158;" horiz-adv-x="690" 
d="M100 0v700h299q104 0 165 -53.5t61 -136.5q0 -81 -52 -118q-51 -36 -128 -41v-42q75 -1 109.5 -30.5t49.5 -102.5l34 -176h-109l-29 167q-10 66 -46.5 94t-108.5 28h-145v-289h-100zM200 379h184q64 0 100 29.5t36 85.5t-36 85t-100 29h-184v-229zM533 891l-118 -123
h-149l-118 123h102l90 -73l90 73h103z" />
    <glyph glyph-name="rcaron" unicode="&#x159;" horiz-adv-x="401" 
d="M82 0v496h91q0 -59 -53 -142h54q38 149 164 149q25 0 47 -5v-97q-32 5 -53 5q-156 0 -156 -185v-221h-94zM164 567l-107 123h93l82 -74l82 74h93l-108 -123h-135z" />
    <glyph glyph-name="Sacute" unicode="&#x15a;" horiz-adv-x="626" 
d="M35 180l96 44q48 -148 194 -148q70 0 109 30.5t39 81.5q0 44 -30.5 70.5t-96.5 40.5l-93 21q-91 19 -137 66t-46 129q0 87 67.5 143t176.5 56q101 0 166.5 -49.5t86.5 -115.5l-94 -43q-17 49 -56 83q-39 36 -112 36q-63 0 -99 -29t-36 -76q0 -42 26.5 -65.5t84.5 -36.5
l96 -21q95 -21 148 -72t53 -128q0 -95 -68.5 -153t-190.5 -58q-110 0 -184.5 53t-99.5 141zM275 770l54 142h137l-124 -142h-67z" />
    <glyph glyph-name="sacute" unicode="&#x15b;" horiz-adv-x="497" 
d="M35 128l89 29q25 -94 130 -94q106 0 106 69q0 55 -89 73l-60 11q-77 16 -116.5 47.5t-39.5 95.5q0 66 54 108.5t133 42.5q81 0 132.5 -34.5t69.5 -91.5l-83 -32q-30 84 -120 84q-46 0 -71 -19.5t-25 -47.5q0 -26 17 -40t67 -24l59 -12q64 -12 116 -47q52 -34 52 -106
q0 -71 -54 -112.5t-149 -41.5q-82 0 -142.5 38t-75.5 104zM226 567l49 141h124l-112 -141h-61z" />
    <glyph glyph-name="Scircumflex" unicode="&#x15c;" horiz-adv-x="626" 
d="M35 180l96 44q48 -148 194 -148q70 0 109 30.5t39 81.5q0 44 -30.5 70.5t-96.5 40.5l-93 21q-91 19 -137 66t-46 129q0 87 67.5 143t176.5 56q101 0 166.5 -49.5t86.5 -115.5l-94 -43q-17 49 -56 83q-39 36 -112 36q-63 0 -99 -29t-36 -76q0 -42 26.5 -65.5t84.5 -36.5
l96 -21q95 -21 148 -72t53 -128q0 -95 -68.5 -153t-190.5 -58q-110 0 -184.5 53t-99.5 141zM114 770l118 123h149l119 -123h-103l-90 73l-90 -73h-103z" />
    <glyph glyph-name="scircumflex" unicode="&#x15d;" horiz-adv-x="497" 
d="M35 128l89 29q25 -94 130 -94q106 0 106 69q0 55 -89 73l-60 11q-77 16 -116.5 47.5t-39.5 95.5q0 66 54 108.5t133 42.5q81 0 132.5 -34.5t69.5 -91.5l-83 -32q-30 84 -120 84q-46 0 -71 -19.5t-25 -47.5q0 -26 17 -40t67 -24l59 -12q64 -12 116 -47q52 -34 52 -106
q0 -71 -54 -112.5t-149 -41.5q-82 0 -142.5 38t-75.5 104zM82 567l107 123h136l107 -123h-93l-82 73l-82 -73h-93z" />
    <glyph glyph-name="Scedilla" unicode="&#x15e;" horiz-adv-x="626" 
d="M349 -13l-12 -11l-25 -25h15q37 0 63.5 -22t26.5 -58q0 -38 -31 -62.5t-82 -24.5q-77 0 -117 47l39 50q31 -35 74 -35q45 0 45 31q0 14 -12 22t-31 8q-22 0 -34 -6l-28 37l46 49q-98 9 -163 60.5t-88 132.5l96 44q48 -148 194 -148q70 0 109 30.5t39 81.5
q0 44 -30.5 70.5t-96.5 40.5l-93 21q-91 19 -137 66t-46 129q0 87 67.5 143t176.5 56q101 0 166.5 -49.5t86.5 -115.5l-94 -43q-17 49 -56 83q-39 36 -112 36q-63 0 -99 -29t-36 -76q0 -42 26.5 -65.5t84.5 -36.5l96 -21q95 -21 148 -72t53 -128q0 -89 -60 -146t-169 -64z
" />
    <glyph glyph-name="scedilla" unicode="&#x15f;" horiz-adv-x="497" 
d="M290 -12l-14 -12l-25 -25h15q39 0 64.5 -21.5t25.5 -58.5q0 -38 -30 -62.5t-82 -24.5q-78 0 -118 47l39 50q31 -35 74 -35q46 0 46 31q0 14 -12 22t-31 8q-22 0 -35 -6l-28 37l46 49q-74 6 -125 43t-65 98l89 29q25 -94 130 -94q106 0 106 69q0 55 -89 73l-60 11
q-77 16 -116.5 47.5t-39.5 95.5q0 66 54 108.5t133 42.5q81 0 132.5 -34.5t69.5 -91.5l-83 -32q-30 84 -120 84q-46 0 -71 -19.5t-25 -47.5q0 -26 17 -40t67 -24l59 -12q64 -12 116 -47q52 -34 52 -106q0 -64 -43.5 -104t-122.5 -48z" />
    <glyph glyph-name="Scaron" unicode="&#x160;" horiz-adv-x="626" 
d="M35 180l96 44q48 -148 194 -148q70 0 109 30.5t39 81.5q0 44 -30.5 70.5t-96.5 40.5l-93 21q-91 19 -137 66t-46 129q0 87 67.5 143t176.5 56q101 0 166.5 -49.5t86.5 -115.5l-94 -43q-17 49 -56 83q-39 36 -112 36q-63 0 -99 -29t-36 -76q0 -42 26.5 -65.5t84.5 -36.5
l96 -21q95 -21 148 -72t53 -128q0 -95 -68.5 -153t-190.5 -58q-110 0 -184.5 53t-99.5 141zM500 891l-118 -123h-149l-118 123h102l90 -73l90 73h103z" />
    <glyph glyph-name="scaron" unicode="&#x161;" horiz-adv-x="497" 
d="M35 128l89 29q25 -94 130 -94q106 0 106 69q0 55 -89 73l-60 11q-77 16 -116.5 47.5t-39.5 95.5q0 66 54 108.5t133 42.5q81 0 132.5 -34.5t69.5 -91.5l-83 -32q-30 84 -120 84q-46 0 -71 -19.5t-25 -47.5q0 -26 17 -40t67 -24l59 -12q64 -12 116 -47q52 -34 52 -106
q0 -71 -54 -112.5t-149 -41.5q-82 0 -142.5 38t-75.5 104zM188 567l-107 123h93l82 -74l82 74h93l-108 -123h-135z" />
    <glyph glyph-name="uni0162" unicode="&#x162;" horiz-adv-x="624" 
d="M357 0l-26 -24l-25 -25h14q39 0 64.5 -21.5t25.5 -58.5q0 -38 -30 -62.5t-82 -24.5q-77 0 -117 47l39 50q31 -35 74 -35q45 0 45 31q0 14 -12 22t-31 8q-22 0 -35 -6l-28 37l59 62h-35v608h-247v92h603v-92h-256v-608z" />
    <glyph glyph-name="uni0163" unicode="&#x163;" horiz-adv-x="401" 
d="M130 122v296h-113v78h113v155h94v-155h134v-78h-134v-288q0 -49 49 -49h104v-81h-123q-124 0 -124 122zM135 -169l39 50q31 -35 74 -35q46 0 46 31q0 14 -12 22t-31 8q-21 0 -35 -6l-28 37l58 62h66l-27 -24l-25 -25h15q37 0 63.5 -22t26.5 -58q0 -38 -30 -62.5
t-82 -24.5q-78 0 -118 47z" />
    <glyph glyph-name="Tcaron" unicode="&#x164;" horiz-adv-x="624" 
d="M257 0v608h-247v92h603v-92h-256v-608h-100zM499 891l-118 -123h-149l-118 123h102l90 -73l90 73h103z" />
    <glyph glyph-name="tcaron" unicode="&#x165;" horiz-adv-x="401" 
d="M130 122v296h-113v78h113v155h94v-155h134v-78h-134v-288q0 -49 49 -49h104v-81h-123q-124 0 -124 122zM313 539l67 118h-58v111h108v-111l-66 -118h-51z" />
    <glyph glyph-name="Tbar" unicode="&#x166;" horiz-adv-x="641" 
d="M623 608h-256v-184h158v-80h-158v-344h-100v344h-159v80h159v184h-248v92h604v-92z" />
    <glyph glyph-name="tbar" unicode="&#x167;" horiz-adv-x="413" 
d="M283 81h104v-81h-123q-124 0 -124 122v136h-114v75h114v85h-114v78h114v155h94v-155h134v-78h-134v-85h134v-75h-134v-128q0 -26 11.5 -37.5t37.5 -11.5z" />
    <glyph glyph-name="Utilde" unicode="&#x168;" horiz-adv-x="727" 
d="M90 271v429h100v-415q0 -100 43.5 -153t129.5 -53t129.5 54t43.5 152v415h100v-429q0 -136 -70.5 -210.5t-202.5 -74.5q-130 0 -201.5 72t-71.5 213zM376 786l-33 19q-34 17 -47 17q-42 0 -42 -52h-81q0 59 32 91.5t87 32.5q42 0 85 -24l31 -18q33 -18 48 -18q38 0 44 47
h80q0 -59 -31.5 -90.5t-87.5 -31.5q-39 0 -85 27z" />
    <glyph glyph-name="utilde" unicode="&#x169;" horiz-adv-x="577" 
d="M75 170v326h94v-303q0 -126 102 -126q57 0 85 34q45 54 45 179v216h94v-496h-89q0 48 46 116h-52q-46 -130 -158 -130q-81 0 -124 49t-43 135zM284 595l-30 19q-27 17 -42 17q-18 0 -28.5 -13.5t-10.5 -37.5h-74q0 59 29.5 91t79.5 32q39 0 77 -24l28 -17q29 -18 43 -18
q19 0 28.5 10.5t12.5 35.5h73q0 -59 -29 -90.5t-79 -31.5q-34 0 -78 27z" />
    <glyph glyph-name="Umacron" unicode="&#x16a;" horiz-adv-x="727" 
d="M90 271v429h100v-415q0 -100 43.5 -153t129.5 -53t129.5 54t43.5 152v415h100v-429q0 -136 -70.5 -210.5t-202.5 -74.5q-130 0 -201.5 72t-71.5 213zM199 788v72h337v-72h-337z" />
    <glyph glyph-name="umacron" unicode="&#x16b;" horiz-adv-x="577" 
d="M75 170v326h94v-303q0 -126 102 -126q57 0 85 34q45 54 45 179v216h94v-496h-89q0 48 46 116h-52q-46 -130 -158 -130q-81 0 -124 49t-43 135zM131 591v72h306v-72h-306z" />
    <glyph glyph-name="Ubreve" unicode="&#x16c;" horiz-adv-x="727" 
d="M90 271v429h100v-415q0 -100 43.5 -153t129.5 -53t129.5 54t43.5 152v415h100v-429q0 -136 -70.5 -210.5t-202.5 -74.5q-130 0 -201.5 72t-71.5 213zM199 893h86q3 -30 24 -48t56 -18t55.5 18t23.5 48h86q0 -54 -43.5 -94t-121.5 -40q-79 0 -122.5 39.5t-43.5 94.5z" />
    <glyph glyph-name="ubreve" unicode="&#x16d;" horiz-adv-x="577" 
d="M75 170v326h94v-303q0 -126 102 -126q57 0 85 34q45 54 45 179v216h94v-496h-89q0 48 46 116h-52q-46 -130 -158 -130q-81 0 -124 49t-43 135zM132 690h79q2 -30 21 -48t51 -18t50.5 18t21.5 48h78q0 -54 -39.5 -94t-110.5 -40q-72 0 -110.5 39.5t-40.5 94.5z" />
    <glyph glyph-name="Uring" unicode="&#x16e;" horiz-adv-x="727" 
d="M90 271v429h100v-415q0 -100 43.5 -153t129.5 -53t129.5 54t43.5 152v415h100v-429q0 -136 -70.5 -210.5t-202.5 -74.5q-130 0 -201.5 72t-71.5 213zM242 880q0 49 36 83.5t87 34.5q49 0 85 -35.5t36 -85.5q0 -51 -35.5 -85.5t-85.5 -34.5q-51 0 -87 35.5t-36 87.5z
M421 877q0 25 -16.5 42.5t-39.5 17.5q-24 0 -40.5 -17t-16.5 -40q0 -27 15.5 -44.5t41.5 -17.5q22 0 39 18t17 41z" />
    <glyph glyph-name="uring" unicode="&#x16f;" horiz-adv-x="577" 
d="M75 170v326h94v-303q0 -126 102 -126q57 0 85 34q45 54 45 179v216h94v-496h-89q0 48 46 116h-52q-46 -130 -158 -130q-81 0 -124 49t-43 135zM168 667q0 47 34 79.5t82 32.5q47 0 81.5 -33.5t34.5 -80.5q0 -49 -34.5 -82t-81.5 -33q-49 0 -82.5 33.5t-33.5 83.5z
M338 665q0 23 -16.5 39.5t-37.5 16.5q-23 0 -38.5 -16t-15.5 -38q0 -25 15 -42t39 -17q21 0 37.5 17t16.5 40z" />
    <glyph glyph-name="Uhungarumlaut" unicode="&#x170;" horiz-adv-x="727" 
d="M90 271v429h100v-415q0 -100 43.5 -153t129.5 -53t129.5 54t43.5 152v415h100v-429q0 -136 -70.5 -210.5t-202.5 -74.5q-130 0 -201.5 72t-71.5 213zM249 770l56 142h136l-124 -142h-68zM426 770l55 142h137l-124 -142h-68z" />
    <glyph glyph-name="uhungarumlaut" unicode="&#x171;" horiz-adv-x="577" 
d="M75 170v326h94v-303q0 -126 102 -126q57 0 85 34q45 54 45 179v216h94v-496h-89q0 48 46 116h-52q-46 -130 -158 -130q-81 0 -124 49t-43 135zM173 567l50 141h124l-113 -141h-61zM333 567l50 141h124l-112 -141h-62z" />
    <glyph glyph-name="Uogonek" unicode="&#x172;" horiz-adv-x="727" 
d="M287 -116q0 57 55 102q-121 6 -186.5 78.5t-65.5 206.5v429h100v-415q0 -100 43.5 -153t129.5 -53t129.5 54t43.5 152v415h100v-429q0 -217 -172 -272q-103 -34 -103 -88q0 -43 61 -43q15 0 44 6v-72q-30 -8 -58 -8q-56 0 -88.5 23.5t-32.5 66.5z" />
    <glyph glyph-name="uogonek" unicode="&#x173;" horiz-adv-x="577" 
d="M391 -91q0 -41 60 -41q15 0 44 6v-72q-30 -8 -57 -8q-56 0 -89 23t-33 67q0 72 90 120q5 51 46 112h-52q-46 -130 -158 -130q-81 0 -124 49t-43 135v326h94v-303q0 -126 102 -126q57 0 85 34q45 54 45 179v216h94v-496q-104 -39 -104 -91z" />
    <glyph glyph-name="Wcircumflex" unicode="&#x174;" horiz-adv-x="992" 
d="M204 0l-167 700h105l88 -394q19 -79 21 -212h42q3 104 30 199l115 407h122l118 -445q19 -69 21 -161h43q3 138 21 216l93 390h105l-181 -700h-128l-113 422q-19 74 -21 190h-43q-2 -121 -20 -190l-121 -422h-130zM305 770l118 123h149l119 -123h-103l-90 73l-90 -73h-103
z" />
    <glyph glyph-name="wcircumflex" unicode="&#x175;" horiz-adv-x="832" 
d="M185 0l-162 496h98l70 -231q16 -52 20 -88q6 -50 7 -94h41q6 101 30 177l72 236h110l78 -258q19 -62 23 -155h42q1 100 28 185l71 228h99l-167 -496h-111l-70 230q-27 90 -28 189h-44q-1 -101 -28 -188l-72 -231h-107zM241 567l107 123h136l107 -123h-93l-82 73l-82 -73
h-93z" />
    <glyph glyph-name="Ycircumflex" unicode="&#x176;" horiz-adv-x="646" 
d="M275 0v293l-254 407h120l118 -197q45 -75 46 -155h42q1 80 44 156l111 196h119l-246 -403v-297h-100zM131 770l118 123h149l119 -123h-103l-90 73l-90 -73h-103z" />
    <glyph glyph-name="ycircumflex" unicode="&#x177;" horiz-adv-x="509" 
d="M386 496h99l-194 -566q-26 -72 -58.5 -98.5t-98.5 -26.5h-103v84h100q28 0 43.5 10t24.5 36l25 70l-219 491h105l103 -246q24 -55 26 -150h42q1 77 21 139zM73 567l107 123h136l107 -123h-93l-82 73l-82 -73h-93z" />
    <glyph glyph-name="Ydieresis" unicode="&#x178;" horiz-adv-x="646" 
d="M275 0v293l-254 407h120l118 -197q45 -75 46 -155h42q1 80 44 156l111 196h119l-246 -403v-297h-100zM160 770v103h111v-103h-111zM376 770v103h112v-103h-112z" />
    <glyph glyph-name="Zacute" unicode="&#x179;" horiz-adv-x="631" 
d="M42 0v138l451 485l-30 31q-53 -46 -133 -46h-271v92h520v-126l-460 -495l30 -32q24 23 52 34t80 11h315v-92h-554zM286 770l54 142h137l-124 -142h-67z" />
    <glyph glyph-name="zacute" unicode="&#x17a;" horiz-adv-x="490" 
d="M42 0v94l295 332l-29 31q-39 -42 -104 -42h-153v81h390v-82l-306 -345l30 -29q37 41 109 41h180v-81h-412zM216 567l49 141h124l-112 -141h-61z" />
    <glyph glyph-name="Zdotaccent" unicode="&#x17b;" horiz-adv-x="631" 
d="M42 0v138l451 485l-30 31q-53 -46 -133 -46h-271v92h520v-126l-460 -495l30 -32q24 23 52 34t80 11h315v-92h-554zM269 770v112h100v-112h-100z" />
    <glyph glyph-name="zdotaccent" unicode="&#x17c;" horiz-adv-x="490" 
d="M42 0v94l295 332l-29 31q-39 -42 -104 -42h-153v81h390v-82l-306 -345l30 -29q37 41 109 41h180v-81h-412zM196 588v112h100v-112h-100z" />
    <glyph glyph-name="Zcaron" unicode="&#x17d;" horiz-adv-x="631" 
d="M42 0v138l451 485l-30 31q-53 -46 -133 -46h-271v92h520v-126l-460 -495l30 -32q24 23 52 34t80 11h315v-92h-554zM511 891l-118 -123h-149l-118 123h102l90 -73l90 73h103z" />
    <glyph glyph-name="zcaron" unicode="&#x17e;" horiz-adv-x="490" 
d="M42 0v94l295 332l-29 31q-39 -42 -104 -42h-153v81h390v-82l-306 -345l30 -29q37 41 109 41h180v-81h-412zM178 567l-107 123h93l82 -74l82 74h93l-108 -123h-135z" />
    <glyph glyph-name="florin" unicode="&#x192;" horiz-adv-x="467" 
d="M-57 -192v83q35 -13 68 -13q82 0 100 101l37 214q17 104 72 146l-23 34q-39 -23 -93 -23h-56v77h141l21 122q15 82 56 122t112 40q29 0 72 -8v-85q-30 5 -55 5q-43 0 -61.5 -20.5t-27.5 -71.5l-18 -104h126v-77h-140l-66 -381q-15 -86 -62.5 -130.5t-118.5 -44.5
q-47 0 -84 14z" />
    <glyph glyph-name="uni01E2" unicode="&#x1e2;" horiz-adv-x="923" 
d="M872 608h-334v-193h248v-91h-248v-232h334v-92h-433v191h-232l-104 -191h-120l401 700h488v-92zM458 630h-47q-19 -103 -66 -186l-89 -162h183v194q0 85 19 154zM421 788v72h337v-72h-337z" />
    <glyph glyph-name="uni01E3" unicode="&#x1e3;" horiz-adv-x="847" 
d="M50 129q0 169 312 195v15q0 92 -107 92q-97 0 -126 -90l-87 30q16 58 70 98.5t138 40.5q65 0 104.5 -30.5t50.5 -69.5h38q14 40 50 70t94 30q94 0 153 -68.5t59 -177.5q0 -16 -2 -40h-350q4 -80 41 -119.5t97 -39.5q91 0 130 95l86 -31q-27 -69 -83.5 -106t-134.5 -37
q-72 0 -117 34t-58 85h-39q-12 -45 -49 -82t-115 -37q-72 0 -113.5 38t-41.5 105zM450 296h252q-1 66 -35.5 102.5t-87.5 36.5q-51 0 -87 -37.5t-42 -101.5zM362 205v52q-216 -19 -216 -121q0 -34 23 -53.5t65 -19.5q54 0 91 37t37 105zM272 591v72h306v-72h-306z" />
    <glyph glyph-name="Aringacute" unicode="&#x1fa;" horiz-adv-x="691" 
d="M562 0l-65 185h-308l-66 -185h-108l263 700h138l258 -700h-112zM222 276h243l-68 191q-31 93 -32 163h-42q-4 -82 -32 -163zM318 993l50 137h124l-112 -137h-62zM232 861q0 47 34.5 79.5t82.5 32.5q47 0 81.5 -33.5t34.5 -80.5q0 -49 -34.5 -82t-81.5 -33q-49 0 -83 34
t-34 83zM403 859q0 23 -16.5 39.5t-37.5 16.5q-23 0 -39 -16t-16 -38q0 -25 15.5 -42t39.5 -17q21 0 37.5 17t16.5 40z" />
    <glyph glyph-name="aringacute" unicode="&#x1fb;" horiz-adv-x="543" 
d="M50 128q0 94 86 139q85 46 226 57v15q0 92 -104 92q-102 0 -130 -90l-88 30q15 58 72 98.5t146 40.5q97 0 147.5 -45.5t50.5 -128.5v-227q0 -17 6 -22.5t23 -5.5h51v-81h-41q-56 0 -75.5 22t-19.5 82h-38q-15 -54 -54.5 -86t-99.5 -32q-73 0 -115.5 38t-42.5 104z
M362 205v51q-215 -21 -215 -120q0 -34 22.5 -53.5t65.5 -19.5q53 0 90 37t37 105zM231 799l50 137h124l-112 -137h-62zM145 667q0 47 34.5 79.5t82.5 32.5q47 0 81.5 -33.5t34.5 -80.5q0 -49 -34.5 -82t-81.5 -33q-49 0 -83 34t-34 83zM316 665q0 23 -16.5 39.5t-37.5 16.5
q-23 0 -39 -16t-16 -38q0 -25 15.5 -42t39.5 -17q21 0 37.5 17t16.5 40z" />
    <glyph glyph-name="AEacute" unicode="&#x1fc;" horiz-adv-x="923" 
d="M872 608h-334v-193h248v-91h-248v-232h334v-92h-433v191h-232l-104 -191h-120l401 700h488v-92zM458 630h-47q-19 -103 -66 -186l-89 -162h183v194q0 85 19 154zM556 770l54 142h137l-124 -142h-67z" />
    <glyph glyph-name="aeacute" unicode="&#x1fd;" horiz-adv-x="847" 
d="M50 129q0 169 312 195v15q0 92 -107 92q-97 0 -126 -90l-87 30q16 58 70 98.5t138 40.5q65 0 104.5 -30.5t50.5 -69.5h38q14 40 50 70t94 30q94 0 153 -68.5t59 -177.5q0 -16 -2 -40h-350q4 -80 41 -119.5t97 -39.5q91 0 130 95l86 -31q-27 -69 -83.5 -106t-134.5 -37
q-72 0 -117 34t-58 85h-39q-12 -45 -49 -82t-115 -37q-72 0 -113.5 38t-41.5 105zM450 296h252q-1 66 -35.5 102.5t-87.5 36.5q-51 0 -87 -37.5t-42 -101.5zM362 205v52q-216 -19 -216 -121q0 -34 23 -53.5t65 -19.5q54 0 91 37t37 105zM395 567l49 141h124l-112 -141h-61z
" />
    <glyph glyph-name="Oslashacute" unicode="&#x1fe;" horiz-adv-x="806" 
d="M148 -34l-70 55l63 77q-90 101 -90 252q-2 159 100 262.5t251 101.5q109 0 196 -56l62 76l71 -57l-65 -78q86 -100 86 -249q2 -159 -99 -263t-251 -102q-107 0 -193 56zM205 177l242 296q32 39 57.5 54.5t58.5 17.5v44q-23 14 -68.5 24t-91.5 10q-112 0 -179 -76.5
t-67 -195.5q0 -101 48 -174zM646 349q0 98 -45 170l-247 -302q-27 -32 -52 -46.5t-58 -17.5v-44q55 -32 161 -32q109 0 175 76t66 196zM369 770l54 142h137l-124 -142h-67z" />
    <glyph glyph-name="oslashacute" unicode="&#x1ff;" horiz-adv-x="565" 
d="M148 31l-39 -48l-52 42l44 54q-53 67 -53 169q0 112 66.5 187t168.5 75q79 0 136 -45l39 47l51 -41l-43 -53q53 -72 53 -170q0 -114 -67 -188t-168 -74q-79 0 -136 45zM162 152l142 174q21 26 39.5 35t46.5 9v39q-46 22 -99 22q-68 0 -106.5 -48.5t-38.5 -135.5
q0 -59 16 -95zM421 246q0 59 -17 98l-141 -174q-22 -26 -41 -36.5t-45 -10.5v-39q35 -19 91 -19q75 0 114 46t39 135zM257 567l49 141h124l-112 -141h-61z" />
    <glyph glyph-name="uni0218" unicode="&#x218;" horiz-adv-x="626" 
d="M35 180l96 44q48 -148 194 -148q70 0 109 30.5t39 81.5q0 44 -30.5 70.5t-96.5 40.5l-93 21q-91 19 -137 66t-46 129q0 87 67.5 143t176.5 56q101 0 166.5 -49.5t86.5 -115.5l-94 -43q-17 49 -56 83q-39 36 -112 36q-63 0 -99 -29t-36 -76q0 -42 26.5 -65.5t84.5 -36.5
l96 -21q95 -21 148 -72t53 -128q0 -95 -68.5 -153t-190.5 -58q-110 0 -184.5 53t-99.5 141zM251 -313l67 118h-58v111h108v-111l-66 -118h-51z" />
    <glyph glyph-name="uni0219" unicode="&#x219;" horiz-adv-x="497" 
d="M35 128l89 29q25 -94 130 -94q106 0 106 69q0 55 -89 73l-60 11q-77 16 -116.5 47.5t-39.5 95.5q0 66 54 108.5t133 42.5q81 0 132.5 -34.5t69.5 -91.5l-83 -32q-30 84 -120 84q-46 0 -71 -19.5t-25 -47.5q0 -26 17 -40t67 -24l59 -12q64 -12 116 -47q52 -34 52 -106
q0 -71 -54 -112.5t-149 -41.5q-82 0 -142.5 38t-75.5 104zM191 -313l67 118h-58v111h108v-111l-66 -118h-51z" />
    <glyph glyph-name="uni021A" unicode="&#x21a;" horiz-adv-x="624" 
d="M257 0v608h-247v92h603v-92h-256v-608h-100zM245 -313l67 118h-58v111h108v-111l-66 -118h-51z" />
    <glyph glyph-name="uni021B" unicode="&#x21b;" horiz-adv-x="401" 
d="M130 122v296h-113v78h113v155h94v-155h134v-78h-134v-288q0 -49 49 -49h104v-81h-123q-124 0 -124 122zM199 -313l67 118h-58v111h108v-111l-66 -118h-51z" />
    <glyph glyph-name="uni0226" unicode="&#x226;" horiz-adv-x="691" 
d="M562 0l-65 185h-308l-66 -185h-108l263 700h138l258 -700h-112zM222 276h243l-68 191q-31 93 -32 163h-42q-4 -82 -32 -163zM297 770v112h100v-112h-100z" />
    <glyph glyph-name="uni0227" unicode="&#x227;" horiz-adv-x="543" 
d="M50 128q0 94 86 139q85 46 226 57v15q0 92 -104 92q-102 0 -130 -90l-88 30q15 58 72 98.5t146 40.5q97 0 147.5 -45.5t50.5 -128.5v-227q0 -17 6 -22.5t23 -5.5h51v-81h-41q-56 0 -75.5 22t-19.5 82h-38q-15 -54 -54.5 -86t-99.5 -32q-73 0 -115.5 38t-42.5 104z
M362 205v51q-215 -21 -215 -120q0 -34 22.5 -53.5t65.5 -19.5q53 0 90 37t37 105zM211 588v112h100v-112h-100z" />
    <glyph glyph-name="uni0232" unicode="&#x232;" horiz-adv-x="646" 
d="M275 0v293l-254 407h120l118 -197q45 -75 46 -155h42q1 80 44 156l111 196h119l-246 -403v-297h-100zM157 788v72h337v-72h-337z" />
    <glyph glyph-name="uni0233" unicode="&#x233;" horiz-adv-x="509" 
d="M386 496h99l-194 -566q-26 -72 -58.5 -98.5t-98.5 -26.5h-103v84h100q28 0 43.5 10t24.5 36l25 70l-219 491h105l103 -246q24 -55 26 -150h42q1 77 21 139zM94 591v72h306v-72h-306z" />
    <glyph glyph-name="uni0237" unicode="&#x237;" horiz-adv-x="265" 
d="M-38 -195v84h79q48 0 48 48v559h95v-569q0 -122 -126 -122h-96z" />
    <glyph glyph-name="circumflex" unicode="&#x2c6;" horiz-adv-x="427" 
d="M8 567l107 123h136l107 -123h-93l-82 73l-82 -73h-93z" />
    <glyph glyph-name="caron" unicode="&#x2c7;" horiz-adv-x="427" 
d="M108 567l-107 123h93l82 -74l82 74h93l-108 -123h-135z" />
    <glyph glyph-name="breve" unicode="&#x2d8;" horiz-adv-x="370" 
d="M32 690h79q2 -30 21 -48t51 -18t50.5 18t21.5 48h78q0 -54 -39.5 -94t-110.5 -40q-72 0 -110.5 39.5t-40.5 94.5z" />
    <glyph glyph-name="dotaccent" unicode="&#x2d9;" horiz-adv-x="315" 
d="M88 588v112h100v-112h-100z" />
    <glyph glyph-name="ring" unicode="&#x2da;" horiz-adv-x="353" 
d="M61 667q0 47 34 79.5t82 32.5q47 0 81.5 -33.5t34.5 -80.5q0 -49 -34.5 -82t-81.5 -33q-49 0 -82.5 33.5t-33.5 83.5zM231 665q0 23 -16.5 39.5t-37.5 16.5q-23 0 -38.5 -16t-15.5 -38q0 -25 15 -42t39 -17q21 0 37.5 17t16.5 40z" />
    <glyph glyph-name="ogonek" unicode="&#x2db;" horiz-adv-x="344" 
d="M42 -116q0 46 38 83.5t125 69.5l16 -37q-104 -39 -104 -91q0 -41 60 -41q16 0 44 6v-72q-30 -8 -57 -8q-56 0 -89 23t-33 67z" />
    <glyph glyph-name="tilde" unicode="&#x2dc;" horiz-adv-x="374" 
d="M200 595l-30 19q-27 17 -42 17q-18 0 -28.5 -13.5t-10.5 -37.5h-74q0 59 29.5 91t79.5 32q39 0 77 -24l28 -17q29 -18 43 -18q19 0 28.5 10.5t12.5 35.5h73q0 -59 -29 -90.5t-79 -31.5q-34 0 -78 27z" />
    <glyph glyph-name="hungarumlaut" unicode="&#x2dd;" horiz-adv-x="655" 
d="M143 567l50 141h124l-113 -141h-61zM303 567l50 141h124l-112 -141h-62z" />
    <glyph glyph-name="gravecomb" unicode="&#x300;" horiz-adv-x="0" 
d="M-84 567l-110 141h121l50 -141h-61z" />
    <glyph glyph-name="acutecomb" unicode="&#x301;" horiz-adv-x="0" 
d="M-192 567l49 141h124l-112 -141h-61z" />
    <glyph glyph-name="uni0302" unicode="&#x302;" horiz-adv-x="0" 
d="M-390 567l107 123h136l107 -123h-93l-82 73l-82 -73h-93z" />
    <glyph glyph-name="tildecomb" unicode="&#x303;" horiz-adv-x="0" 
d="M-209 595l-30 19q-27 17 -42 17q-18 0 -28.5 -13.5t-10.5 -37.5h-74q0 59 29.5 91t79.5 32q39 0 77 -24l28 -17q28 -18 43 -18q19 0 28.5 10.5t12.5 35.5h73q0 -59 -29 -90.5t-79 -31.5q-35 0 -78 27z" />
    <glyph glyph-name="uni0304" unicode="&#x304;" horiz-adv-x="0" 
d="M-344 591v72h306v-72h-306z" />
    <glyph glyph-name="uni0306" unicode="&#x306;" horiz-adv-x="0" 
d="M-342 690h79q2 -30 21 -48t51 -18t50.5 18t21.5 48h78q0 -54 -39.5 -94t-110.5 -40q-72 0 -110.5 39.5t-40.5 94.5z" />
    <glyph glyph-name="uni0307" unicode="&#x307;" horiz-adv-x="0" 
d="M-121 588v112h100v-112h-100z" />
    <glyph glyph-name="uni0308" unicode="&#x308;" horiz-adv-x="0" 
d="M-332 587v103h101v-103h-101zM-135 587v103h101v-103h-101z" />
    <glyph glyph-name="uni030A" unicode="&#x30a;" horiz-adv-x="0" 
d="M-252 667q0 47 34 79.5t82 32.5q47 0 81.5 -33.5t34.5 -80.5q0 -49 -34.5 -82t-81.5 -33q-49 0 -82.5 33.5t-33.5 83.5zM-82 665q0 23 -16.5 39.5t-37.5 16.5q-23 0 -38.5 -16t-15.5 -38q0 -25 15 -42t39 -17q21 0 37.5 17t16.5 40z" />
    <glyph glyph-name="uni030B" unicode="&#x30b;" horiz-adv-x="0" 
d="M-369 567l50 141h124l-113 -141h-61zM-209 567l50 141h124l-112 -141h-62z" />
    <glyph glyph-name="uni030C" unicode="&#x30c;" horiz-adv-x="0" 
d="M-299 567l-107 123h93l82 -74l82 74h93l-108 -123h-135z" />
    <glyph glyph-name="uni0312" unicode="&#x312;" horiz-adv-x="0" 
d="M8 817l-67 -119h58v-111h-108v111l66 119h51z" />
    <glyph glyph-name="dotbelowcomb" unicode="&#x323;" horiz-adv-x="0" 
d="M-120 -195v112h100v-112h-100z" />
    <glyph glyph-name="uni0326" unicode="&#x326;" horiz-adv-x="0" 
d="M-138 -313l67 118h-58v111h108v-111l-66 -118h-51z" />
    <glyph glyph-name="uni0327" unicode="&#x327;" horiz-adv-x="0" 
d="M-267 -169l39 50q31 -35 74 -35q46 0 46 31q0 14 -12 22t-31 8q-21 0 -35 -6l-28 37l58 62h66l-27 -24l-25 -25h15q37 0 63.5 -22t26.5 -58q0 -38 -30 -62.5t-82 -24.5q-78 0 -118 47z" />
    <glyph glyph-name="uni0328" unicode="&#x328;" horiz-adv-x="0" 
d="M-222 -116q0 46 38 83.5t125 69.5l16 -37q-104 -39 -104 -91q0 -41 60 -41q15 0 44 6v-72q-30 -8 -57 -8q-56 0 -89 23t-33 67z" />
    <glyph glyph-name="uni0394" unicode="&#x394;" horiz-adv-x="690" 
d="M416 700l258 -700h-659l263 700h138zM156 92h374l-133 375q-31 93 -32 163h-42q-4 -82 -32 -163z" />
    <glyph glyph-name="uni03A9" unicode="&#x3a9;" horiz-adv-x="808" 
d="M71 0v92h46q47 0 143 -39l16 40q-213 67 -213 279q-3 144 97 244.5t244 97.5q143 3 242.5 -97.5t97.5 -244.5q0 -212 -214 -279l16 -40q93 39 143 39h43v-92h-283v110q88 15 138.5 85t50.5 173q0 108 -64.5 181.5t-170.5 73.5q-104 0 -169.5 -73.5t-65.5 -181.5
q0 -103 49.5 -172.5t136.5 -85.5v-110h-283z" />
    <glyph glyph-name="uni03BC" unicode="&#x3bc;" horiz-adv-x="583" 
d="M82 -195v691h94v-303q0 -126 102 -126q56 0 85 35q45 54 45 178v216h94v-496h-94q0 44 45 116h-51q-46 -130 -158 -130q-39 0 -68 13v-194h-94z" />
    <glyph glyph-name="pi" unicode="&#x3c0;" horiz-adv-x="637" 
d="M124 0v415h-104v81h566v-81h-105v-286q0 -48 52 -48h64v-81h-79q-131 0 -131 108v307h-169v-415h-94z" />
    <glyph glyph-name="Wgrave" unicode="&#x1e80;" horiz-adv-x="992" 
d="M204 0l-167 700h105l88 -394q19 -79 21 -212h42q3 104 30 199l115 407h122l118 -445q19 -69 21 -161h43q3 138 21 216l93 390h105l-181 -700h-128l-113 422q-19 74 -21 190h-43q-2 -121 -20 -190l-121 -422h-130zM468 770l-121 142h134l54 -142h-67z" />
    <glyph glyph-name="wgrave" unicode="&#x1e81;" horiz-adv-x="832" 
d="M185 0l-162 496h98l70 -231q16 -52 20 -88q6 -50 7 -94h41q6 101 30 177l72 236h110l78 -258q19 -62 23 -155h42q1 100 28 185l71 228h99l-167 -496h-111l-70 230q-27 90 -28 189h-44q-1 -101 -28 -188l-72 -231h-107zM385 567l-110 141h121l50 -141h-61z" />
    <glyph glyph-name="Wacute" unicode="&#x1e82;" horiz-adv-x="992" 
d="M204 0l-167 700h105l88 -394q19 -79 21 -212h42q3 104 30 199l115 407h122l118 -445q19 -69 21 -161h43q3 138 21 216l93 390h105l-181 -700h-128l-113 422q-19 74 -21 190h-43q-2 -121 -20 -190l-121 -422h-130zM466 770l54 142h137l-124 -142h-67z" />
    <glyph glyph-name="wacute" unicode="&#x1e83;" horiz-adv-x="832" 
d="M185 0l-162 496h98l70 -231q16 -52 20 -88q6 -50 7 -94h41q6 101 30 177l72 236h110l78 -258q19 -62 23 -155h42q1 100 28 185l71 228h99l-167 -496h-111l-70 230q-27 90 -28 189h-44q-1 -101 -28 -188l-72 -231h-107zM386 567l49 141h124l-112 -141h-61z" />
    <glyph glyph-name="Wdieresis" unicode="&#x1e84;" horiz-adv-x="992" 
d="M204 0l-167 700h105l88 -394q19 -79 21 -212h42q3 104 30 199l115 407h122l118 -445q19 -69 21 -161h43q3 138 21 216l93 390h105l-181 -700h-128l-113 422q-19 74 -21 190h-43q-2 -121 -20 -190l-121 -422h-130zM334 770v103h111v-103h-111zM550 770v103h112v-103h-112z
" />
    <glyph glyph-name="wdieresis" unicode="&#x1e85;" horiz-adv-x="832" 
d="M185 0l-162 496h98l70 -231q16 -52 20 -88q6 -50 7 -94h41q6 101 30 177l72 236h110l78 -258q19 -62 23 -155h42q1 100 28 185l71 228h99l-167 -496h-111l-70 230q-27 90 -28 189h-44q-1 -101 -28 -188l-72 -231h-107zM267 587v103h101v-103h-101zM464 587v103h101v-103
h-101z" />
    <glyph glyph-name="uni1E9E" unicode="&#x1e9e;" horiz-adv-x="712" 
d="M265 18v94q43 -22 69 -29t80 -7q62 0 103 33.5t41 89.5q0 52 -38.5 85t-108.5 33h-109v91h93q57 0 91.5 28t34.5 76q0 46 -33.5 71t-92.5 25h-195v-608h-100v700h307q107 0 162.5 -45.5t55.5 -121.5q0 -66 -41 -103t-109 -42v-41q79 0 133.5 -43.5t54.5 -117.5
q0 -87 -66.5 -143.5t-176.5 -56.5q-96 0 -155 32z" />
    <glyph glyph-name="uni1EA0" unicode="&#x1ea0;" horiz-adv-x="691" 
d="M562 0l-65 185h-308l-66 -185h-108l263 700h138l258 -700h-112zM222 276h243l-68 191q-31 93 -32 163h-42q-4 -82 -32 -163zM292 -195v112h100v-112h-100z" />
    <glyph glyph-name="uni1EA1" unicode="&#x1ea1;" horiz-adv-x="543" 
d="M50 128q0 94 86 139q85 46 226 57v15q0 92 -104 92q-102 0 -130 -90l-88 30q15 58 72 98.5t146 40.5q97 0 147.5 -45.5t50.5 -128.5v-227q0 -17 6 -22.5t23 -5.5h51v-81h-41q-56 0 -75.5 22t-19.5 82h-38q-15 -54 -54.5 -86t-99.5 -32q-73 0 -115.5 38t-42.5 104z
M362 205v51q-215 -21 -215 -120q0 -34 22.5 -53.5t65.5 -19.5q53 0 90 37t37 105zM212 -195v112h100v-112h-100z" />
    <glyph glyph-name="uni1EB8" unicode="&#x1eb8;" horiz-adv-x="644" 
d="M100 0v700h495v-92h-395v-200h293v-91h-293v-225h395v-92h-495zM297 -195v112h100v-112h-100z" />
    <glyph glyph-name="uni1EB9" unicode="&#x1eb9;" horiz-adv-x="538" 
d="M45 246q0 119 63 191.5t162 72.5t160 -69t61 -176q0 -19 -3 -41h-349q3 -80 40.5 -119.5t96.5 -39.5q89 0 130 95l86 -31q-26 -69 -82.5 -106t-135.5 -37q-105 0 -167 68.5t-62 191.5zM141 299h252q-1 63 -36 99.5t-87 36.5q-51 0 -87 -37t-42 -99zM225 -195v112h100
v-112h-100z" />
    <glyph glyph-name="uni1ECA" unicode="&#x1eca;" horiz-adv-x="300" 
d="M100 0v700h100v-700h-100zM99 -195v112h100v-112h-100z" />
    <glyph glyph-name="uni1ECB" unicode="&#x1ecb;" horiz-adv-x="257" 
d="M78 588v112h100v-112h-100zM82 0v496h93v-496h-93zM78 -195v112h100v-112h-100z" />
    <glyph glyph-name="uni1ECC" unicode="&#x1ecc;" horiz-adv-x="802" 
d="M50 350q-2 159 100 262.5t252 101.5q150 2 250.5 -101.5t98.5 -262.5q2 -159 -98.5 -262.5t-250.5 -101.5q-150 -2 -252 101.5t-100 262.5zM645 350q0 119 -66.5 196t-177.5 77q-112 0 -178 -76.5t-66 -196.5q0 -121 66 -197t178 -76t178 76t66 197zM353 -195v112h100
v-112h-100z" />
    <glyph glyph-name="uni1ECD" unicode="&#x1ecd;" horiz-adv-x="558" 
d="M43 248q0 112 67 187t169 75t168.5 -75t66.5 -187t-67 -187t-168 -75q-100 0 -168 75t-68 187zM417 246q0 89 -37.5 136t-100.5 47q-64 0 -101 -47t-37 -136q0 -87 36.5 -133t101.5 -46q64 0 101 46.5t37 132.5zM228 -195v112h100v-112h-100z" />
    <glyph glyph-name="uni1EE4" unicode="&#x1ee4;" horiz-adv-x="727" 
d="M90 271v429h100v-415q0 -100 43.5 -153t129.5 -53t129.5 54t43.5 152v415h100v-429q0 -136 -70.5 -210.5t-202.5 -74.5q-130 0 -201.5 72t-71.5 213zM315 -195v112h100v-112h-100z" />
    <glyph glyph-name="uni1EE5" unicode="&#x1ee5;" horiz-adv-x="577" 
d="M75 170v326h94v-303q0 -126 102 -126q57 0 85 34q45 54 45 179v216h94v-496h-89q0 48 46 116h-52q-46 -130 -158 -130q-81 0 -124 49t-43 135zM234 -195v112h100v-112h-100z" />
    <glyph glyph-name="Ygrave" unicode="&#x1ef2;" horiz-adv-x="646" 
d="M275 0v293l-254 407h120l118 -197q45 -75 46 -155h42q1 80 44 156l111 196h119l-246 -403v-297h-100zM294 770l-121 142h134l54 -142h-67z" />
    <glyph glyph-name="ygrave" unicode="&#x1ef3;" horiz-adv-x="509" 
d="M386 496h99l-194 -566q-26 -72 -58.5 -98.5t-98.5 -26.5h-103v84h100q28 0 43.5 10t24.5 36l25 70l-219 491h105l103 -246q24 -55 26 -150h42q1 77 21 139zM217 567l-110 141h121l50 -141h-61z" />
    <glyph glyph-name="uni2002" unicode="&#x2002;" horiz-adv-x="500" 
 />
    <glyph glyph-name="uni2003" unicode="&#x2003;" horiz-adv-x="1000" 
 />
    <glyph glyph-name="uni2009" unicode="&#x2009;" horiz-adv-x="125" 
 />
    <glyph glyph-name="endash" unicode="&#x2013;" horiz-adv-x="626" 
d="M72 267v86h482v-86h-482z" />
    <glyph glyph-name="emdash" unicode="&#x2014;" horiz-adv-x="940" 
d="M72 267v86h797v-86h-797z" />
    <glyph glyph-name="quoteleft" unicode="&#x2018;" horiz-adv-x="253" 
d="M193 700l-74 -133h64v-124h-121v124l74 133h57z" />
    <glyph glyph-name="quoteright" unicode="&#x2019;" horiz-adv-x="245" 
d="M64 444l74 133h-65v124h121v-124l-74 -133h-56z" />
    <glyph glyph-name="quotesinglbase" unicode="&#x201a;" horiz-adv-x="262" 
d="M63 -133l74 133h-65v124h121v-124l-74 -133h-56z" />
    <glyph glyph-name="quotedblleft" unicode="&#x201c;" horiz-adv-x="437" 
d="M193 700l-74 -133h64v-124h-121v124l74 133h57zM377 700l-74 -133h64v-124h-121v124l74 133h57z" />
    <glyph glyph-name="quotedblright" unicode="&#x201d;" horiz-adv-x="429" 
d="M64 444l74 133h-65v124h121v-124l-74 -133h-56zM248 444l74 133h-65v124h121v-124l-74 -133h-56z" />
    <glyph glyph-name="quotedblbase" unicode="&#x201e;" horiz-adv-x="446" 
d="M63 -133l74 133h-65v124h121v-124l-74 -133h-56zM247 -133l74 133h-65v124h121v-124l-74 -133h-56z" />
    <glyph glyph-name="dagger" unicode="&#x2020;" horiz-adv-x="563" 
d="M231 -104v509h-200v92h200v203h101v-203h200v-92h-200v-509h-101z" />
    <glyph glyph-name="daggerdbl" unicode="&#x2021;" horiz-adv-x="604" 
d="M251 -104v203h-200v91h200v215h-200v92h200v203h101v-203h200v-92h-200v-215h200v-91h-200v-203h-101z" />
    <glyph glyph-name="bullet" unicode="&#x2022;" horiz-adv-x="524" 
d="M73 349q0 79 56 135t133 56q78 0 134 -56t56 -135q0 -76 -56.5 -132t-133.5 -56t-133 56t-56 132z" />
    <glyph glyph-name="ellipsis" unicode="&#x2026;" horiz-adv-x="732" 
d="M67 0v130h128v-130h-128zM302 0v130h128v-130h-128zM537 0v130h128v-130h-128z" />
    <glyph glyph-name="perthousand" unicode="&#x2030;" horiz-adv-x="1126" 
d="M202 293q-77 0 -121.5 56t-44.5 153q0 93 45.5 149.5t120.5 56.5t120 -56.5t45 -149.5q0 -97 -44 -153t-121 -56zM642 700h96l-498 -700h-97zM202 362q38 0 59 37t21 103q0 62 -22 99.5t-58 37.5t-58.5 -38t-22.5 -99q0 -66 21.5 -103t59.5 -37zM1095 204
q0 -97 -44.5 -153t-120.5 -56q-81 0 -125 59q-42 -59 -123 -59q-78 0 -122 56t-44 153q0 93 45.5 149.5t120.5 56.5q79 0 123 -61q44 61 125 61q74 0 119.5 -56.5t45.5 -149.5zM762 204q0 61 -22.5 99t-57.5 38q-37 0 -59 -37.5t-22 -99.5q0 -66 21.5 -103t59.5 -37
q37 0 58.5 37t21.5 103zM1010 204q0 61 -22.5 99t-57.5 38q-37 0 -59 -37.5t-22 -99.5q0 -66 21.5 -103t59.5 -37q37 0 58.5 37t21.5 103z" />
    <glyph glyph-name="guilsinglleft" unicode="&#x2039;" horiz-adv-x="322" 
d="M144 256l135 -220h-104l-133 217l133 217h101z" />
    <glyph glyph-name="guilsinglright" unicode="&#x203a;" horiz-adv-x="322" 
d="M147 470l133 -218l-133 -216h-101l132 213l-135 221h104z" />
    <glyph glyph-name="fraction" unicode="&#x2044;" horiz-adv-x="183" 
d="M-207 0l499 700h96l-498 -700h-97z" />
    <glyph glyph-name="uni2070" unicode="&#x2070;" horiz-adv-x="420" 
d="M44 593q0 93 46 149.5t120 56.5q75 0 120 -56.5t45 -149.5q0 -97 -43.5 -153t-121.5 -56q-77 0 -121.5 56t-44.5 153zM291 593q0 61 -22.5 99t-58.5 38q-35 0 -58 -38t-23 -99q0 -66 21.5 -103t59.5 -37t59.5 37t21.5 103z" />
    <glyph glyph-name="uni2074" unicode="&#x2074;" horiz-adv-x="379" 
d="M213 392v103h-183v62l159 234h100v-230h55v-66h-55v-103h-76zM213 561v46q0 51 37 90l-27 19l-121 -173l25 -18q27 36 66 36h20z" />
    <glyph glyph-name="uni2075" unicode="&#x2075;" horiz-adv-x="384" 
d="M40 497l80 21q5 -31 24 -48.5t46 -17.5q30 0 47.5 19t17.5 50q0 30 -17.5 47.5t-45.5 17.5q-42 0 -59 -42l-85 13l35 234h246v-70h-180l-5 -37q-6 -52 -40 -86h41q18 53 79 53q49 0 82.5 -35t33.5 -92q0 -62 -41 -101t-106 -39q-63 0 -105 31t-48 82z" />
    <glyph glyph-name="uni2076" unicode="&#x2076;" horiz-adv-x="389" 
d="M44 578q0 101 53.5 161t144.5 60q52 0 84 -17v-75q-45 20 -92 20q-50 0 -85 -35.5t-38 -95.5h32q7 29 29.5 45.5t56.5 16.5q51 0 85 -36t34 -94q0 -64 -40.5 -104t-105.5 -40q-73 0 -115.5 52t-42.5 142zM264 522q0 30 -17.5 49.5t-44.5 19.5q-28 0 -45.5 -19.5
t-17.5 -49.5q0 -31 17.5 -50.5t45.5 -19.5q27 0 44.5 19.5t17.5 50.5z" />
    <glyph glyph-name="uni2077" unicode="&#x2077;" horiz-adv-x="345" 
d="M236 721l13 9l-20 27q-28 -21 -47 -28.5t-57 -7.5h-94v70h285v-73q-82 -66 -111.5 -140t-29.5 -186h-88q-1 105 38 192t111 137z" />
    <glyph glyph-name="uni2078" unicode="&#x2078;" horiz-adv-x="384" 
d="M45 496q0 36 26 59.5t68 27.5v32q-84 5 -84 80q0 45 38.5 74.5t97.5 29.5q60 0 98.5 -29.5t38.5 -74.5q0 -36 -23.5 -57t-60.5 -23v-32q41 -3 67.5 -27t26.5 -60q0 -51 -40 -81.5t-107 -30.5q-66 0 -106 31t-40 81zM246 681q0 23 -15 36.5t-39 13.5q-25 0 -39.5 -13.5
t-14.5 -36.5q0 -25 15 -42.5t39 -17.5t39 17.5t15 42.5zM254 509q0 26 -17 42t-46 16q-28 0 -44.5 -16t-16.5 -42q0 -27 16 -42t45 -15q30 0 46.5 15.5t16.5 41.5z" />
    <glyph glyph-name="uni2079" unicode="&#x2079;" horiz-adv-x="385" 
d="M62 401v79q41 -21 87 -21q64 0 101 49q28 39 26 88h-31q-6 -28 -29 -47t-55 -19q-51 0 -85.5 36.5t-34.5 90.5q0 62 40 102t102 40q65 0 106 -42q51 -52 51 -152q0 -104 -50.5 -162.5t-139.5 -58.5q-48 0 -88 17zM246 664q0 30 -17 48.5t-43 18.5t-43 -18.5t-17 -48.5
t17 -48t43 -18t43 18t17 48z" />
    <glyph glyph-name="uni20A9" unicode="&#x20a9;" horiz-adv-x="1086" 
d="M1049 390h-123l-19 -73h111v-72h-129l-64 -245h-128l-65 245h-185l-69 -245h-130l-59 245h-120v72h103l-17 73h-118v72h101l-57 238h106l53 -238h176l66 238h122l63 -238h178l56 238h105l-62 -238h105v-72zM562 612h-42q-3 -88 -14 -150h70q-13 63 -14 150zM256 390
l16 -73h103l21 73h-140zM468 317h145l-20 73h-105zM810 317l17 73h-140l19 -73h104zM356 245h-70q8 -48 9 -151h42q1 76 19 151zM795 245h-71q19 -79 20 -151h42q2 103 9 151z" />
    <glyph glyph-name="Euro" unicode="&#x20ac;" horiz-adv-x="711" 
d="M134 234h-92v78h81q-2 30 -2 42q0 13 2 39h-81v77h92q26 115 98 179.5t179 64.5q101 0 167 -54t87 -138l-98 -33q-14 62 -54 100t-109 38q-135 0 -199 -175l33 -19q17 21 40.5 29t75.5 8h98v-77h-234q-1 -15 -1 -43q0 -25 1 -38h234v-78h-98q-51 0 -75 9t-42 31l-31 -22
q60 -179 199 -179q72 0 108.5 37.5t55.5 108.5l99 -37q-23 -87 -92.5 -141.5t-169.5 -54.5q-110 0 -180.5 65.5t-91.5 182.5z" />
    <glyph glyph-name="uni20B9" unicode="&#x20b9;" horiz-adv-x="571" 
d="M363 647l-19 -41q51 -13 77 -48h107v-79h-85q-12 -123 -172 -129v-41q76 -1 111 -31t53 -102l44 -176h-110l-38 167q-17 68 -52.5 95t-111.5 27h-110v90h150q56 0 92 26t43 74h-285v79h275q-29 63 -125 63h-150v79h471v-79h-55q-65 0 -110 26z" />
    <glyph glyph-name="uni20BA" unicode="&#x20ba;" horiz-adv-x="615" 
d="M152 0v140q0 68 32 119l-39 18q-17 -43 -50 -62l-34 -20v89l91 52v69l-91 -51v89l91 53v205h99v-65q0 -54 -29 -98l40 -18q19 48 77 81l134 76v-90l-222 -126v-69l222 127v-91l-222 -126v-207l16 1q70 3 130.5 54.5t84.5 155.5l101 -38q-73 -268 -383 -268h-48z" />
    <glyph glyph-name="uni20BD" unicode="&#x20bd;" horiz-adv-x="632" 
d="M358 277h-133v-68h192v-79h-192v-130h-100v130h-74v79h74v68h-74v86h74v337h233q109 0 171.5 -58.5t62.5 -154.5q0 -94 -63 -152t-171 -58zM225 608v-245h116q71 0 108.5 34t37.5 90q0 57 -37.5 89t-108.5 32h-116z" />
    <glyph glyph-name="uni20BF" unicode="&#x20bf;" horiz-adv-x="673" 
d="M437 2v-107h-76v105h-60v-105h-76v105h-124v700h124v104h76v-104h60v104h76v-107q81 -10 124.5 -54.5t43.5 -107.5q0 -67 -41.5 -104.5t-108.5 -42.5v-41q74 -3 123.5 -44t49.5 -115q0 -81 -52 -129t-139 -57zM200 608v-200h175q57 0 91.5 28t34.5 76q0 47 -33 71.5
t-93 24.5h-175zM521 206q0 53 -36.5 82.5t-101.5 29.5h-183v-226h183q64 0 101 30.5t37 83.5z" />
    <glyph glyph-name="uni2113" unicode="&#x2113;" horiz-adv-x="472" 
d="M105 140v62q-37 -4 -72 -6v80q34 2 72 7v274q0 66 41.5 111.5t113.5 45.5q87 0 134 -52t47 -142q0 -97 -58.5 -179t-179.5 -119v-84q0 -66 57 -66q60 0 79 94l85 -45q-14 -65 -58 -100t-107 -35q-68 0 -111 39.5t-43 114.5zM338 518q0 51 -20.5 81t-57.5 30
q-57 0 -57 -81v-89q0 -56 -9.5 -89.5t-41.5 -69.5l24 -30q162 84 162 248z" />
    <glyph glyph-name="uni2116" unicode="&#x2116;" horiz-adv-x="1200" 
d="M104 0v700h152l368 -579l36 25q-28 42 -37.5 79.5t-9.5 104.5v370h100v-700h-125l-390 616l-36 -23q42 -80 42 -203v-390h-100zM779 500q0 90 56 150t138 60t138 -60t56 -150t-56 -150.5t-138 -60.5q-81 0 -137.5 61t-56.5 150zM1075 500q0 67 -27 103.5t-75 36.5
t-75 -37t-27 -103t27.5 -103.5t74.5 -37.5q48 0 75 37.5t27 103.5z" />
    <glyph glyph-name="uni2117" unicode="&#x2117;" horiz-adv-x="875" 
d="M47 359q-4 156 114 273t277 114q104 2 195 -51t144 -143.5t51 -192.5q3 -157 -114 -272.5t-276 -112.5q-105 -2 -196 50.5t-144 142t-51 192.5zM753 359q2 129 -91.5 224.5t-223.5 92.5q-130 3 -224 -92.5t-92 -224.5q-2 -129 91.5 -223.5t224.5 -92.5q130 -2 223.5 92.5
t91.5 223.5zM314 164v403h167q57 0 100 -33t43 -93t-42.5 -93.5t-100.5 -33.5h-96v-150h-71zM385 373h77q89 0 89 67q0 65 -89 65h-77v-132z" />
    <glyph glyph-name="trademark" unicode="&#x2122;" horiz-adv-x="921" 
d="M156 323v309h-122v68h322v-68h-123v-309h-77zM405 323v377h124l54 -164q15 -42 20 -74q3 -21 5 -68h33q2 47 5 68q5 30 19 74l53 164h120v-377h-76v136q0 71 32 157l7 17l-34 12l-5 -14l-101 -308h-74l-106 305l-5 16l-33 -14q1 -8 6 -15q32 -81 32 -157v-135h-76z" />
    <glyph glyph-name="Omega" unicode="&#x2126;" horiz-adv-x="797" 
d="M66 0v92h46q56 0 143 -41l16 42q-214 67 -214 279q-2 144 98 244.5t243 97.5q144 3 243 -97.5t97 -244.5q0 -212 -214 -279l17 -42q84 41 143 41h45v-92h-285v110q87 15 137.5 85t50.5 173q0 108 -64.5 181.5t-169.5 73.5q-106 0 -170.5 -73.5t-64.5 -181.5
q0 -103 50 -172t136 -86v-110h-283z" />
    <glyph glyph-name="onethird" unicode="&#x2153;" horiz-adv-x="832" 
d="M137 301v225q0 46 17 88h-34q-24 -72 -85 -73v73q79 14 116 86h67v-399h-81zM80 0l499 700h96l-498 -700h-97zM499 124l83 16q1 -37 18.5 -58.5t47.5 -21.5q26 0 42 15t16 40q0 54 -68 54h-29v67h29q30 0 46 14t16 38q0 22 -14 36.5t-37 14.5q-27 0 -42.5 -18.5
t-15.5 -51.5l-83 14q0 55 40 89.5t101 34.5q60 0 97 -28.5t37 -72.5q0 -36 -23.5 -58.5t-64.5 -26.5v-31q46 -2 71 -25t25 -61q0 -50 -39.5 -81t-102.5 -31q-65 0 -106 36.5t-44 95.5z" />
    <glyph glyph-name="twothirds" unicode="&#x2154;" horiz-adv-x="921" 
d="M50 301v74q101 62 145.5 104.5t47.5 94.5q0 30 -15.5 47.5t-40.5 17.5q-26 0 -42 -20.5t-16 -55.5v-9l-83 10q-2 64 38 104t104 40q63 0 101.5 -35.5t38.5 -91.5q0 -64 -47 -113q-43 -43 -155 -97l17 -31q53 32 109 32h80v-71h-282zM170 0l499 700h96l-498 -700h-97z
M590 124l83 16q1 -37 18.5 -58.5t47.5 -21.5q26 0 42 15t16 40q0 54 -68 54h-29v67h29q30 0 46 14t16 38q0 22 -14 36.5t-37 14.5q-27 0 -42.5 -18.5t-15.5 -51.5l-83 14q0 55 40 89.5t101 34.5q60 0 97 -28.5t37 -72.5q0 -36 -23.5 -58.5t-64.5 -26.5v-31q46 -2 71 -25
t25 -61q0 -50 -39.5 -81t-102.5 -31q-65 0 -106 36.5t-44 95.5z" />
    <glyph glyph-name="uni2155" unicode="&#x2155;" horiz-adv-x="842" 
d="M137 301v225q0 46 17 88h-34q-24 -72 -85 -73v73q79 14 116 86h67v-399h-81zM80 0l499 700h96l-498 -700h-97zM496 105l80 21q5 -31 24 -48.5t46 -17.5q30 0 47.5 19t17.5 50q0 30 -17.5 47.5t-45.5 17.5q-42 0 -59 -42l-85 13l35 234h246v-70h-180l-5 -37
q-6 -52 -40 -86h41q18 53 79 53q49 0 82.5 -35t33.5 -92q0 -62 -41 -101t-106 -39q-63 0 -105 31t-48 82z" />
    <glyph glyph-name="uni2156" unicode="&#x2156;" horiz-adv-x="930" 
d="M49 301v74q101 62 145.5 104.5t47.5 94.5q0 30 -15.5 47.5t-40.5 17.5q-26 0 -42 -20.5t-16 -55.5v-9l-83 10q-2 64 38 104t104 40q63 0 101.5 -35.5t38.5 -91.5q0 -64 -47 -113q-43 -43 -155 -97l17 -31q53 32 109 32h80v-71h-282zM170 0l499 700h96l-498 -700h-97z
M586 105l80 21q5 -31 24 -48.5t46 -17.5q30 0 47.5 19t17.5 50q0 30 -17.5 47.5t-45.5 17.5q-42 0 -59 -42l-85 13l35 234h246v-70h-180l-5 -37q-6 -52 -40 -86h41q18 53 79 53q49 0 82.5 -35t33.5 -92q0 -62 -41 -101t-106 -39q-63 0 -105 31t-48 82z" />
    <glyph glyph-name="uni2157" unicode="&#x2157;" horiz-adv-x="927" 
d="M36 425l83 16q1 -37 18.5 -58.5t47.5 -21.5q26 0 42 15t16 40q0 54 -68 54h-29v67h29q30 0 46 14t16 38q0 22 -14 36.5t-37 14.5q-27 0 -42.5 -18.5t-15.5 -51.5l-83 14q0 55 40 89.5t101 34.5q60 0 97 -28.5t37 -72.5q0 -36 -23.5 -58.5t-64.5 -26.5v-31q46 -2 71 -25
t25 -61q0 -50 -39.5 -81t-102.5 -31q-65 0 -106 36.5t-44 95.5zM166 0l499 700h96l-498 -700h-97zM582 105l80 21q5 -31 24 -48.5t46 -17.5q30 0 47.5 19t17.5 50q0 30 -17.5 47.5t-45.5 17.5q-42 0 -59 -42l-85 13l35 234h246v-70h-180l-5 -37q-6 -52 -40 -86h41
q18 53 79 53q49 0 82.5 -35t33.5 -92q0 -62 -41 -101t-106 -39q-63 0 -105 31t-48 82z" />
    <glyph glyph-name="uni2158" unicode="&#x2158;" horiz-adv-x="933" 
d="M215 301v103h-183v62l159 234h100v-230h55v-66h-55v-103h-76zM215 470v46q0 51 37 90l-27 19l-121 -173l25 -18q27 36 66 36h20zM167 0l499 700h96l-498 -700h-97zM583 105l80 21q5 -31 24 -48.5t46 -17.5q30 0 47.5 19t17.5 50q0 30 -17.5 47.5t-45.5 17.5
q-43 0 -59 -42l-85 13l35 234h246v-70h-180l-5 -37q-6 -52 -40 -86h41q18 53 79 53q49 0 82.5 -35t33.5 -92q0 -62 -41 -101t-106 -39q-63 0 -105 31t-48 82z" />
    <glyph glyph-name="uni2159" unicode="&#x2159;" horiz-adv-x="833" 
d="M137 301v225q0 46 17 88h-34q-24 -72 -85 -73v73q79 14 116 86h67v-399h-81zM80 0l499 700h96l-498 -700h-97zM505 186q0 101 53.5 161t144.5 60q52 0 84 -17v-75q-45 20 -92 20q-50 0 -85 -35.5t-38 -95.5h32q7 29 29.5 45.5t56.5 16.5q51 0 85 -36t34 -94
q0 -64 -40.5 -104t-105.5 -40q-73 0 -115.5 52t-42.5 142zM725 130q0 30 -17.5 49.5t-44.5 19.5q-28 0 -45.5 -19.5t-17.5 -49.5q0 -31 17.5 -50.5t45.5 -19.5q27 0 44.5 19.5t17.5 50.5z" />
    <glyph glyph-name="uni215A" unicode="&#x215a;" horiz-adv-x="940" 
d="M35 406l80 21q5 -31 24 -48.5t46 -17.5q30 0 47.5 19t17.5 50q0 30 -17.5 47.5t-45.5 17.5q-43 0 -59 -42l-85 13l35 234h246v-70h-180l-5 -37q-6 -52 -40 -86h41q18 53 79 53q49 0 82.5 -35t33.5 -92q0 -62 -41 -101t-106 -39q-63 0 -105 31t-48 82zM171 0l499 700h96
l-498 -700h-97zM596 186q0 101 53.5 161t144.5 60q52 0 84 -17v-75q-45 20 -92 20q-50 0 -85 -35.5t-38 -95.5h32q7 29 29.5 45.5t56.5 16.5q51 0 85 -36t34 -94q0 -64 -40.5 -104t-105.5 -40q-73 0 -115.5 52t-42.5 142zM816 130q0 30 -17.5 49.5t-44.5 19.5
q-28 0 -45.5 -19.5t-17.5 -49.5q0 -31 17.5 -50.5t45.5 -19.5q27 0 44.5 19.5t17.5 50.5z" />
    <glyph glyph-name="oneeighth" unicode="&#x215b;" horiz-adv-x="838" 
d="M137 301v225q0 46 17 88h-34q-24 -72 -85 -73v73q79 14 116 86h67v-399h-81zM80 0l499 700h96l-498 -700h-97zM505 104q0 36 26 59.5t68 27.5v32q-84 5 -84 80q0 45 38.5 74.5t97.5 29.5q60 0 98.5 -29.5t38.5 -74.5q0 -36 -23.5 -57t-60.5 -23v-32q41 -3 67.5 -27
t26.5 -60q0 -51 -40 -81.5t-107 -30.5q-66 0 -106 31t-40 81zM706 289q0 23 -15 36.5t-39 13.5q-25 0 -39.5 -13.5t-14.5 -36.5q0 -25 15 -42.5t39 -17.5t39 17.5t15 42.5zM714 117q0 26 -17 42t-46 16q-28 0 -44.5 -16t-16.5 -42q0 -27 16 -42t45 -15q30 0 46.5 15.5
t16.5 41.5z" />
    <glyph glyph-name="threeeighths" unicode="&#x215c;" horiz-adv-x="923" 
d="M36 425l83 16q1 -37 18.5 -58.5t47.5 -21.5q26 0 42 15t16 40q0 54 -68 54h-29v67h29q30 0 46 14t16 38q0 22 -14 36.5t-37 14.5q-27 0 -42.5 -18.5t-15.5 -51.5l-83 14q0 55 40 89.5t101 34.5q60 0 97 -28.5t37 -72.5q0 -36 -23.5 -58.5t-64.5 -26.5v-31q46 -2 71 -25
t25 -61q0 -50 -39.5 -81t-102.5 -31q-65 0 -106 36.5t-44 95.5zM166 0l499 700h96l-498 -700h-97zM591 104q0 36 26 59.5t68 27.5v32q-84 5 -84 80q0 45 38.5 74.5t97.5 29.5q60 0 98.5 -29.5t38.5 -74.5q0 -36 -23.5 -57t-60.5 -23v-32q41 -3 67.5 -27t26.5 -60
q0 -51 -40 -81.5t-107 -30.5q-66 0 -106 31t-40 81zM792 289q0 23 -15 36.5t-39 13.5q-25 0 -39.5 -13.5t-14.5 -36.5q0 -25 15 -42.5t39 -17.5t39 17.5t15 42.5zM800 117q0 26 -17 42t-46 16q-28 0 -44.5 -16t-16.5 -42q0 -27 16 -42t45 -15q30 0 46.5 15.5t16.5 41.5z" />
    <glyph glyph-name="fiveeighths" unicode="&#x215d;" horiz-adv-x="929" 
d="M35 406l80 21q5 -31 24 -48.5t46 -17.5q30 0 47.5 19t17.5 50q0 30 -17.5 47.5t-45.5 17.5q-43 0 -59 -42l-85 13l35 234h246v-70h-180l-5 -37q-6 -52 -40 -86h41q18 53 79 53q49 0 82.5 -35t33.5 -92q0 -62 -41 -101t-106 -39q-63 0 -105 31t-48 82zM171 0l499 700h96
l-498 -700h-97zM596 104q0 36 26 59.5t68 27.5v32q-84 5 -84 80q0 45 38.5 74.5t97.5 29.5q60 0 98.5 -29.5t38.5 -74.5q0 -36 -23.5 -57t-60.5 -23v-32q41 -3 67.5 -27t26.5 -60q0 -51 -40 -81.5t-107 -30.5q-66 0 -106 31t-40 81zM797 289q0 23 -15 36.5t-39 13.5
q-25 0 -39.5 -13.5t-14.5 -36.5q0 -25 15 -42.5t39 -17.5t39 17.5t15 42.5zM805 117q0 26 -17 42t-46 16q-28 0 -44.5 -16t-16.5 -42q0 -27 16 -42t45 -15q30 0 46.5 15.5t16.5 41.5z" />
    <glyph glyph-name="seveneighths" unicode="&#x215e;" horiz-adv-x="829" 
d="M241 630l13 9l-20 27q-28 -21 -47 -28.5t-57 -7.5h-94v70h285v-73q-82 -66 -111.5 -140t-29.5 -186h-88q-1 105 38 192t111 137zM71 0l499 700h96l-498 -700h-97zM496 104q0 36 26 59.5t68 27.5v32q-84 5 -84 80q0 45 38.5 74.5t97.5 29.5q60 0 98.5 -29.5t38.5 -74.5
q0 -36 -23.5 -57t-60.5 -23v-32q41 -3 67.5 -27t26.5 -60q0 -51 -40 -81.5t-107 -30.5q-66 0 -106 31t-40 81zM697 289q0 23 -15 36.5t-39 13.5q-25 0 -39.5 -13.5t-14.5 -36.5q0 -25 15 -42.5t39 -17.5t39 17.5t15 42.5zM705 117q0 26 -17 42t-46 16q-28 0 -44.5 -16
t-16.5 -42q0 -27 16 -42t45 -15q30 0 46.5 15.5t16.5 41.5z" />
    <glyph glyph-name="uni215F" unicode="&#x215f;" horiz-adv-x="370" 
d="M132 301v225q0 46 17 88h-34q-24 -72 -85 -73v73q79 14 116 86h67v-399h-81zM75 0l499 700h96l-498 -700h-97z" />
    <glyph glyph-name="arrowleft" unicode="&#x2190;" horiz-adv-x="836" 
d="M791 302h-611v-43q42 -3 69.5 -13.5t57.5 -40.5l89 -88l-68 -67l-300 300l300 300l68 -67l-85 -84q-33 -33 -60 -43t-71 -16v-42h611v-96z" />
    <glyph glyph-name="arrowup" unicode="&#x2191;" horiz-adv-x="652" 
d="M278 0v611h-43q-3 -42 -13.5 -69.5t-40.5 -57.5l-88 -89l-67 68l300 300l300 -300l-67 -68l-84 85q-32 32 -43.5 60.5t-14.5 70.5h-43v-611h-96z" />
    <glyph glyph-name="arrowright" unicode="&#x2192;" horiz-adv-x="836" 
d="M45 398h611v42q-44 5 -70.5 15t-56.5 40l-89 88l68 67l300 -300l-300 -300l-68 67l85 84q32 32 60.5 43.5t70.5 14.5v43h-611v96z" />
    <glyph glyph-name="arrowdown" unicode="&#x2193;" horiz-adv-x="652" 
d="M374 700v-611h43q3 42 13.5 69.5t40.5 57.5l88 89l67 -68l-300 -300l-300 300l67 68l84 -85q32 -32 43.5 -60.5t14.5 -70.5h43v611h96z" />
    <glyph glyph-name="uni2196" unicode="&#x2196;" horiz-adv-x="663" 
d="M632 213l-68 -67l-414 414l-30 -30q21 -28 28.5 -40t15 -35t8.5 -54v-125h-96v424h424v-95h-119q-33 1 -57.5 8.5t-37.5 15.5t-39 28l-30 -30z" />
    <glyph glyph-name="uni2197" unicode="&#x2197;" horiz-adv-x="662" 
d="M99 145l-68 67l414 414l-29 30q-49 -36 -72 -43q-24 -8 -57 -9h-125v96h424v-424h-95v119q1 48 12 73t40 61l-30 30z" />
    <glyph glyph-name="uni2198" unicode="&#x2198;" horiz-adv-x="656" 
d="M26 487l68 68l414 -414l30 29q-36 49 -43 72q-8 24 -9 57v125h96v-424h-424v95h119q48 -1 73 -12t61 -40l30 30z" />
    <glyph glyph-name="uni2199" unicode="&#x2199;" horiz-adv-x="656" 
d="M562 556l67 -68l-414 -414l30 -30q28 21 40 28.5t35 15t54 8.5h125v-96h-424v424h95v-119q-1 -33 -8.5 -57.5t-15.5 -37.5t-28 -39l29 -30z" />
    <glyph glyph-name="uni21A4" unicode="&#x21a4;" horiz-adv-x="902" 
d="M700 609h92v-518h-92v211h-520v-43q42 -3 69 -13.5t59 -40.5l88 -88l-67 -67l-300 300l300 300l67 -67l-84 -84q-33 -33 -60 -43.5t-72 -15.5v-42h520v211z" />
    <glyph glyph-name="uni21A5" unicode="&#x21a5;" horiz-adv-x="664" 
d="M378 612v-520h211v-92h-518v92h211v520h-43q-3 -42 -13.5 -69t-40.5 -59l-88 -88l-67 67l300 300l300 -300l-67 -67l-84 84q-33 33 -43.5 60t-15.5 72h-42z" />
    <glyph glyph-name="uni21A6" unicode="&#x21a6;" horiz-adv-x="900" 
d="M573 650l300 -300l-300 -300l-68 68l85 83q33 33 60 43.5t72 15.5v42h-520v-211h-92v518h92v-211h520v43q-42 3 -69.5 13.5t-58.5 40.5l-89 88z" />
    <glyph glyph-name="uni21A7" unicode="&#x21a7;" horiz-adv-x="664" 
d="M567 305l67 -68l-300 -300l-300 300l68 68l83 -85q33 -33 43.5 -60t15.5 -72h42v520h-211v92h518v-92h-211v-520h43q3 42 13.5 69.5t40.5 58.5z" />
    <glyph glyph-name="uni21B0" unicode="&#x21b0;" horiz-adv-x="860" 
d="M180 398h612v-398h-99v302h-513v-43q42 -3 69 -13.5t59 -40.5l88 -88l-68 -67l-299 300l299 300l68 -67l-84 -84q-34 -33 -61 -43.5t-71 -15.5v-42z" />
    <glyph glyph-name="uni21B1" unicode="&#x21b1;" horiz-adv-x="860" 
d="M532 650l299 -300l-299 -300l-69 67l85 84q34 32 62.5 43.5t69.5 14.5v43h-513v-302h-99v398h612v42q-44 5 -70.5 15t-57.5 40l-89 88z" />
    <glyph glyph-name="uni21B2" unicode="&#x21b2;" horiz-adv-x="860" 
d="M693 700h99v-398h-612v-42q31 -4 46 -7t37.5 -14.5t44.5 -32.5l88 -88l-68 -68l-299 301l299 299l68 -67l-84 -84q-35 -32 -63 -43.5t-69 -14.5v-43h513v302z" />
    <glyph glyph-name="uni21B3" unicode="&#x21b3;" horiz-adv-x="860" 
d="M532 650l299 -300l-299 -300l-69 68l85 84q35 32 61.5 42.5t70.5 15.5v42h-612v398h99v-302h513v43q-42 3 -69.5 13.5t-58.5 40.5l-89 88z" />
    <glyph glyph-name="partialdiff" unicode="&#x2202;" horiz-adv-x="608" 
d="M44 229q0 95 61 160t151 65q122 0 163 -108h44q-1 121 -72.5 197t-180.5 76q-66 0 -126 -22v98q59 19 133 19q161 0 249.5 -107t88.5 -280q0 -161 -72 -251t-192 -90q-114 0 -180.5 69t-66.5 174zM433 220q0 66 -41 107.5t-102 41.5q-60 0 -101 -41.5t-41 -106.5
q0 -66 41 -107t102 -41q62 0 102 40.5t40 106.5z" />
    <glyph glyph-name="Delta" unicode="&#x2206;" horiz-adv-x="712" 
d="M427 700l258 -700h-659l263 700h138zM167 92h374l-132 375q-32 88 -33 163h-42q-1 -74 -32 -163z" />
    <glyph glyph-name="product" unicode="&#x220f;" horiz-adv-x="737" 
d="M700 700v-92h-92v-712h-100v712h-279v-712h-100v712h-91v92h662z" />
    <glyph glyph-name="summation" unicode="&#x2211;" horiz-adv-x="583" 
d="M40 -104v90l262 310l-258 305v99h492v-92h-205q-100 0 -149 49l-30 -30l15 -18l262 -311l-278 -329l30 -31q48 50 150 50h215v-92h-506z" />
    <glyph glyph-name="minus" unicode="&#x2212;" horiz-adv-x="677" 
d="M72 308v91h534v-91h-534z" />
    <glyph glyph-name="uni2215" unicode="&#x2215;" horiz-adv-x="349" 
d="M-8 -104l269 909h94l-269 -909h-94z" />
    <glyph glyph-name="radical" unicode="&#x221a;" horiz-adv-x="628" 
d="M240 -104l-138 408h-87v91h158l87 -275q19 -60 23 -156h42q5 106 21 156l180 580h106l-267 -804h-125z" />
    <glyph glyph-name="infinity" unicode="&#x221e;" horiz-adv-x="848" 
d="M52 353q0 77 55 132.5t129 55.5q58 0 105.5 -37.5t63.5 -107.5h39q17 71 63 108t105 37q75 0 129 -55t54 -133t-54 -132.5t-129 -54.5q-60 0 -106 36.5t-62 107.5h-39q-16 -70 -63.5 -107t-105.5 -37q-74 0 -129 55t-55 132zM377 355q-36 54 -66 78t-65 24
q-44 0 -73 -30.5t-29 -73.5t29 -73t73 -30q36 0 63.5 22t67.5 83zM704 353q0 43 -29.5 73.5t-72.5 30.5q-36 0 -65.5 -23t-66.5 -79q42 -62 69 -83.5t63 -21.5q43 0 72.5 30t29.5 73z" />
    <glyph glyph-name="integral" unicode="&#x222b;" horiz-adv-x="367" 
d="M9 -195v88h75q23 0 36.5 15t13.5 43v618q0 60 32.5 95.5t93.5 35.5h96v-87h-74q-23 0 -36.5 -15.5t-13.5 -42.5v-619q0 -60 -32.5 -95.5t-94.5 -35.5h-96z" />
    <glyph glyph-name="approxequal" unicode="&#x2248;" horiz-adv-x="653" 
d="M330 400l-32 14q-52 24 -83 24q-48 0 -95 -50l-54 69q31 37 73 57.5t81 20.5q40 0 101 -27l32 -14q52 -24 84 -24q47 0 95 50l54 -70q-31 -37 -73 -57.5t-81 -20.5q-38 0 -102 28zM330 179l-32 14q-52 24 -83 24q-48 0 -95 -50l-54 69q31 37 73 57.5t81 20.5
q40 0 101 -27l32 -14q52 -24 84 -24q47 0 95 50l54 -70q-31 -37 -73 -57.5t-81 -20.5q-38 0 -102 28z" />
    <glyph glyph-name="notequal" unicode="&#x2260;" horiz-adv-x="678" 
d="M126 85l68 110h-123v91h177l33 54q24 37 75 70l-23 35q-47 -31 -104 -31h-158v91h310l71 115h99l-70 -115h125v-91h-180l-32 -54q-24 -38 -77 -71l24 -36q48 33 104 33h161v-91h-313l-67 -110h-100z" />
    <glyph glyph-name="lessequal" unicode="&#x2264;" horiz-adv-x="687" 
d="M607 204l-535 136v149l535 137v-96l-301 -72q-84 -19 -172 -20v-42q94 -2 172 -21l301 -70v-101zM72 85v91h535v-91h-535z" />
    <glyph glyph-name="greaterequal" unicode="&#x2265;" horiz-adv-x="687" 
d="M80 204v96l300 72q75 16 173 21v41q-94 2 -173 21l-300 71v100l535 -136v-149zM80 85v91h535v-91h-535z" />
    <glyph glyph-name="angleleft" unicode="&#x2329;" horiz-adv-x="342" 
d="M321 726l-206 -423l205 -429l-78 -38l-223 464l224 465z" />
    <glyph glyph-name="angleright" unicode="&#x232a;" horiz-adv-x="338" 
d="M99 766l223 -465l-224 -465l-78 39l206 424l-205 429z" />
    <glyph glyph-name="uni2460" unicode="&#x2460;" horiz-adv-x="853" 
d="M44 359q-3 154 111.5 267.5t270.5 110.5q158 3 271.5 -110.5t110.5 -267.5q2 -100 -49 -188t-140.5 -139.5t-192.5 -49.5q-156 -3 -270.5 110.5t-111.5 266.5zM733 359q3 127 -87.5 219t-218.5 90q-129 2 -219.5 -90t-88.5 -219q-2 -126 88.5 -217.5t219.5 -89.5
q129 -2 218.5 89.5t87.5 217.5zM402 161v224q0 48 17 88h-34q-20 -69 -85 -73v74q80 12 116 86h67v-399h-81z" />
    <glyph glyph-name="uni2461" unicode="&#x2461;" horiz-adv-x="853" 
d="M44 359q-3 154 111.5 267.5t270.5 110.5q158 3 271.5 -110.5t110.5 -267.5q2 -100 -49 -188t-140.5 -139.5t-192.5 -49.5q-156 -3 -270.5 110.5t-111.5 266.5zM733 359q3 127 -87.5 219t-218.5 90q-129 2 -219.5 -90t-88.5 -219q-2 -126 88.5 -217.5t219.5 -89.5
q129 -2 218.5 89.5t87.5 217.5zM286 161v74q101 61 145.5 104t47.5 95q0 29 -15 46.5t-41 17.5t-42 -20t-16 -55l1 -10l-83 11q-3 63 36.5 103t104.5 40q63 0 101.5 -35t38.5 -92q0 -66 -46 -113q-43 -43 -156 -97l17 -30q54 31 109 31h80v-70h-282z" />
    <glyph glyph-name="uni2462" unicode="&#x2462;" horiz-adv-x="853" 
d="M44 359q-3 154 111.5 267.5t270.5 110.5q158 3 271.5 -110.5t110.5 -267.5q2 -100 -49 -188t-140.5 -139.5t-192.5 -49.5q-156 -3 -270.5 110.5t-111.5 266.5zM733 359q3 127 -87.5 219t-218.5 90q-129 2 -219.5 -90t-88.5 -219q-2 -126 88.5 -217.5t219.5 -89.5
q129 -2 218.5 89.5t87.5 217.5zM275 285l83 15q1 -37 18 -58t48 -21q26 0 42 14.5t16 39.5q0 55 -68 55h-29v66h29q30 0 46 14t16 38q0 23 -14 37t-37 14q-27 0 -42.5 -18.5t-15.5 -50.5l-83 14q0 54 40 88.5t101 34.5q59 0 96.5 -28t37.5 -72q0 -36 -23.5 -59t-64.5 -26
v-32q45 -2 70 -25t25 -60q0 -51 -38.5 -82t-102.5 -31q-66 0 -107.5 36.5t-42.5 96.5z" />
    <glyph glyph-name="uni2463" unicode="&#x2463;" horiz-adv-x="853" 
d="M44 359q-3 154 111.5 267.5t270.5 110.5q158 3 271.5 -110.5t110.5 -267.5q2 -100 -49 -188t-140.5 -139.5t-192.5 -49.5q-156 -3 -270.5 110.5t-111.5 266.5zM733 359q3 127 -87.5 219t-218.5 90q-129 2 -219.5 -90t-88.5 -219q-2 -126 88.5 -217.5t219.5 -89.5
q129 -2 218.5 89.5t87.5 217.5zM431 161v102h-183v63l159 234h100v-230h55v-67h-55v-102h-76zM431 330v45q0 53 37 90l-27 19l-122 -173l26 -18q26 37 66 37h20z" />
    <glyph glyph-name="uni2464" unicode="&#x2464;" horiz-adv-x="853" 
d="M44 359q-3 154 111.5 267.5t270.5 110.5q158 3 271.5 -110.5t110.5 -267.5q2 -100 -49 -188t-140.5 -139.5t-192.5 -49.5q-156 -3 -270.5 110.5t-111.5 266.5zM733 359q3 127 -87.5 219t-218.5 90q-129 2 -219.5 -90t-88.5 -219q-2 -126 88.5 -217.5t219.5 -89.5
q129 -2 218.5 89.5t87.5 217.5zM267 265l80 22q12 -66 70 -66q30 0 47.5 19t17.5 50q0 30 -17.5 47t-45.5 17q-42 0 -59 -41l-85 13l36 234h245v-71h-180l-5 -36q-6 -51 -40 -87h41q18 53 79 53q49 0 82.5 -35t33.5 -92q0 -62 -41 -101t-106 -39q-63 0 -105 31t-48 82z" />
    <glyph glyph-name="uni2465" unicode="&#x2465;" horiz-adv-x="853" 
d="M44 359q-3 154 111.5 267.5t270.5 110.5q158 3 271.5 -110.5t110.5 -267.5q2 -100 -49 -188t-140.5 -139.5t-192.5 -49.5q-156 -3 -270.5 110.5t-111.5 266.5zM733 359q3 127 -87.5 219t-218.5 90q-129 2 -219.5 -90t-88.5 -219q-2 -126 88.5 -217.5t219.5 -89.5
q129 -2 218.5 89.5t87.5 217.5zM260 346q0 103 52.5 162t145.5 59q54 0 84 -16v-76q-41 20 -93 20q-50 0 -84.5 -35t-38.5 -95h32q7 28 30 44.5t56 16.5q52 0 85.5 -36t33.5 -94q0 -64 -40.5 -104t-105.5 -40q-73 0 -115 52.5t-42 141.5zM479 290q0 31 -17 50.5t-45 19.5
t-45.5 -19.5t-17.5 -50.5t17.5 -50t45.5 -19q27 0 44.5 19.5t17.5 49.5z" />
    <glyph glyph-name="uni2466" unicode="&#x2466;" horiz-adv-x="853" 
d="M44 359q-3 154 111.5 267.5t270.5 110.5q158 3 271.5 -110.5t110.5 -267.5q2 -100 -49 -188t-140.5 -139.5t-192.5 -49.5q-156 -3 -270.5 110.5t-111.5 266.5zM733 359q3 127 -87.5 219t-218.5 90q-129 2 -219.5 -90t-88.5 -219q-2 -126 88.5 -217.5t219.5 -89.5
q129 -2 218.5 89.5t87.5 217.5zM498 489l12 9l-20 27q-29 -21 -47.5 -28.5t-56.5 -7.5h-94v71h286v-74q-82 -65 -112.5 -140t-28.5 -185h-88q-1 105 38 191.5t111 136.5z" />
    <glyph glyph-name="uni2467" unicode="&#x2467;" horiz-adv-x="853" 
d="M44 359q-3 154 111.5 267.5t270.5 110.5q158 3 271.5 -110.5t110.5 -267.5q2 -100 -49 -188t-140.5 -139.5t-192.5 -49.5q-156 -3 -270.5 110.5t-111.5 266.5zM733 359q3 127 -87.5 219t-218.5 90q-129 2 -219.5 -90t-88.5 -219q-2 -126 88.5 -217.5t219.5 -89.5
q129 -2 218.5 89.5t87.5 217.5zM279 264q0 36 26 60t68 28v31q-84 6 -84 81q0 46 38 74.5t98 28.5t98.5 -28.5t38.5 -74.5q0 -36 -23.5 -57t-60.5 -24v-31q41 -4 67.5 -28t26.5 -60q0 -51 -40 -81.5t-107 -30.5q-66 0 -106 31t-40 81zM479 450q0 22 -14.5 36t-38.5 14
t-39 -14t-15 -36q0 -25 15 -42.5t39 -17.5t38.5 17.5t14.5 42.5zM488 277q0 27 -17 42.5t-46 15.5q-28 0 -44.5 -15.5t-16.5 -42.5q0 -26 16 -41t45 -15q30 0 46.5 15t16.5 41z" />
    <glyph glyph-name="uni2468" unicode="&#x2468;" horiz-adv-x="853" 
d="M44 359q-3 154 111.5 267.5t270.5 110.5q158 3 271.5 -110.5t110.5 -267.5q2 -100 -49 -188t-140.5 -139.5t-192.5 -49.5q-156 -3 -270.5 110.5t-111.5 266.5zM733 359q3 127 -87.5 219t-218.5 90q-129 2 -219.5 -90t-88.5 -219q-2 -126 88.5 -217.5t219.5 -89.5
q129 -2 218.5 89.5t87.5 217.5zM308 169v80q40 -22 87 -22q65 0 100 49q27 35 27 89h-31q-7 -30 -29.5 -48t-55.5 -18q-49 0 -84 36.5t-35 90.5q0 62 39.5 101.5t102.5 39.5q65 0 106 -42q51 -53 51 -151q0 -104 -50.5 -163t-139.5 -59q-48 0 -88 17zM491 432
q0 30 -16.5 48.5t-43.5 18.5q-26 0 -42.5 -18.5t-16.5 -48.5q0 -29 16.5 -47.5t42.5 -18.5q27 0 43.5 18.5t16.5 47.5z" />
    <glyph glyph-name="uni24EA" unicode="&#x24ea;" horiz-adv-x="853" 
d="M44 359q-3 154 111.5 267.5t270.5 110.5q158 3 271.5 -110.5t110.5 -267.5q2 -100 -49 -188t-140.5 -139.5t-192.5 -49.5q-156 -3 -270.5 110.5t-111.5 266.5zM733 359q3 127 -87.5 219t-218.5 90q-129 2 -219.5 -90t-88.5 -219q-2 -126 88.5 -217.5t219.5 -89.5
q129 -2 218.5 89.5t87.5 217.5zM261 361q0 94 45.5 150t120.5 56t120 -56t45 -150q0 -96 -44.5 -152.5t-120.5 -56.5q-78 0 -122 56t-44 153zM507 361q0 61 -22.5 99t-57.5 38q-37 0 -59 -37.5t-22 -99.5q0 -66 21.5 -102.5t59.5 -36.5q37 0 58.5 37t21.5 102z" />
    <glyph glyph-name="uni24FF" unicode="&#x24ff;" horiz-adv-x="853" 
d="M808 359q2 -100 -49 -188t-140.5 -139.5t-192.5 -49.5q-156 -3 -270.5 110.5t-111.5 266.5q-3 154 111.5 267.5t270.5 110.5q158 3 271.5 -110.5t110.5 -267.5zM261 361q0 -97 44 -153t122 -56q76 0 120.5 56.5t44.5 152.5q0 94 -45 150t-120 56t-120.5 -56t-45.5 -150z
M507 361q0 -65 -21.5 -102t-58.5 -37q-38 0 -59.5 36.5t-21.5 102.5q0 62 22 99.5t59 37.5q35 0 57.5 -38t22.5 -99z" />
    <glyph glyph-name="lozenge" unicode="&#x25ca;" horiz-adv-x="648" 
d="M250 -1l-216 347l219 354h146l215 -349l-218 -352h-146zM500 350l-116 188q-37 63 -37 108h-45q0 -49 -38 -108l-117 -188l115 -185q40 -63 40 -112h45q0 50 38 109z" />
    <glyph glyph-name="uni274C" unicode="&#x274c;" horiz-adv-x="776" 
d="M94 -14l-65 64l294 299l-295 298l68 68l294 -298l294 298l65 -64l-295 -299l294 -299l-67 -67l-294 298z" />
    <glyph glyph-name="uni2776" unicode="&#x2776;" horiz-adv-x="853" 
d="M808 359q2 -100 -49 -188t-140.5 -139.5t-192.5 -49.5q-156 -3 -270.5 110.5t-111.5 266.5q-3 154 111.5 267.5t270.5 110.5q158 3 271.5 -110.5t110.5 -267.5zM402 385v-224h81v399h-67q-36 -74 -116 -86v-74q65 4 85 73h34q-17 -40 -17 -88z" />
    <glyph glyph-name="uni2777" unicode="&#x2777;" horiz-adv-x="853" 
d="M808 359q2 -100 -49 -188t-140.5 -139.5t-192.5 -49.5q-156 -3 -270.5 110.5t-111.5 266.5q-3 154 111.5 267.5t270.5 110.5q158 3 271.5 -110.5t110.5 -267.5zM286 235v-74h282v70h-80q-55 0 -109 -31l-17 30q113 54 156 97q46 47 46 113q0 57 -38.5 92t-101.5 35
q-65 0 -104.5 -40t-36.5 -103l83 -11l-1 10q0 35 16 55t42 20t41 -17.5t15 -46.5q-3 -52 -47.5 -95t-145.5 -104z" />
    <glyph glyph-name="uni2778" unicode="&#x2778;" horiz-adv-x="853" 
d="M808 359q2 -100 -49 -188t-140.5 -139.5t-192.5 -49.5q-156 -3 -270.5 110.5t-111.5 266.5q-3 154 111.5 267.5t270.5 110.5q158 3 271.5 -110.5t110.5 -267.5zM275 285q1 -60 42.5 -96.5t107.5 -36.5q64 0 102.5 31t38.5 82q0 37 -25 60t-70 25v32q41 3 64.5 26t23.5 59
q0 44 -37.5 72t-96.5 28q-61 0 -101 -34.5t-40 -88.5l83 -14q0 32 15.5 50.5t42.5 18.5q23 0 37 -14t14 -37q0 -24 -16 -38t-46 -14h-29v-66h29q68 0 68 -55q0 -25 -16 -39.5t-42 -14.5q-31 0 -48 21t-18 58z" />
    <glyph glyph-name="uni2779" unicode="&#x2779;" horiz-adv-x="853" 
d="M808 359q2 -100 -49 -188t-140.5 -139.5t-192.5 -49.5q-156 -3 -270.5 110.5t-111.5 266.5q-3 154 111.5 267.5t270.5 110.5q158 3 271.5 -110.5t110.5 -267.5zM431 263v-102h76v102h55v67h-55v230h-100l-159 -234v-63h183zM431 375v-45h-20q-40 0 -66 -37l-26 18
l122 173l27 -19q-37 -37 -37 -90z" />
    <glyph glyph-name="uni277A" unicode="&#x277a;" horiz-adv-x="853" 
d="M808 359q2 -100 -49 -188t-140.5 -139.5t-192.5 -49.5q-156 -3 -270.5 110.5t-111.5 266.5q-3 154 111.5 267.5t270.5 110.5q158 3 271.5 -110.5t110.5 -267.5zM267 265q6 -51 48 -82t105 -31q65 0 106 39t41 101q0 57 -33.5 92t-82.5 35q-61 0 -79 -53h-41q34 36 40 87
l5 36h180v71h-245l-36 -234l85 -13q17 41 59 41q28 0 45.5 -17t17.5 -47q0 -31 -17.5 -50t-47.5 -19q-58 0 -70 66z" />
    <glyph glyph-name="uni277B" unicode="&#x277b;" horiz-adv-x="853" 
d="M808 359q2 -100 -49 -188t-140.5 -139.5t-192.5 -49.5q-156 -3 -270.5 110.5t-111.5 266.5q-3 154 111.5 267.5t270.5 110.5q158 3 271.5 -110.5t110.5 -267.5zM260 346q0 -89 42 -141.5t115 -52.5q65 0 105.5 40t40.5 104q0 58 -33.5 94t-85.5 36q-33 0 -56 -16.5
t-30 -44.5h-32q4 60 38.5 95t84.5 35q52 0 93 -20v76q-30 16 -84 16q-93 0 -145.5 -59t-52.5 -162zM479 290q0 -30 -17.5 -49.5t-44.5 -19.5q-28 0 -45.5 19t-17.5 50t17.5 50.5t45.5 19.5t45 -19.5t17 -50.5z" />
    <glyph glyph-name="uni277C" unicode="&#x277c;" horiz-adv-x="853" 
d="M808 359q2 -100 -49 -188t-140.5 -139.5t-192.5 -49.5q-156 -3 -270.5 110.5t-111.5 266.5q-3 154 111.5 267.5t270.5 110.5q158 3 271.5 -110.5t110.5 -267.5zM498 489q-72 -50 -111 -136.5t-38 -191.5h88q-2 110 28.5 185t112.5 140v74h-286v-71h94q38 0 56.5 7.5
t47.5 28.5l20 -27z" />
    <glyph glyph-name="uni277D" unicode="&#x277d;" horiz-adv-x="853" 
d="M808 359q2 -100 -49 -188t-140.5 -139.5t-192.5 -49.5q-156 -3 -270.5 110.5t-111.5 266.5q-3 154 111.5 267.5t270.5 110.5q158 3 271.5 -110.5t110.5 -267.5zM279 264q0 -50 40 -81t106 -31q67 0 107 30.5t40 81.5q0 36 -26.5 60t-67.5 28v31q37 3 60.5 24t23.5 57
q0 46 -38.5 74.5t-98.5 28.5t-98 -28.5t-38 -74.5q0 -75 84 -81v-31q-42 -4 -68 -28t-26 -60zM479 450q0 -25 -14.5 -42.5t-38.5 -17.5t-39 17.5t-15 42.5q0 22 15 36t39 14t38.5 -14t14.5 -36zM488 277q0 -26 -16.5 -41t-46.5 -15q-29 0 -45 15t-16 41q0 27 16.5 42.5
t44.5 15.5q29 0 46 -15.5t17 -42.5z" />
    <glyph glyph-name="uni277E" unicode="&#x277e;" horiz-adv-x="853" 
d="M808 359q2 -100 -49 -188t-140.5 -139.5t-192.5 -49.5q-156 -3 -270.5 110.5t-111.5 266.5q-3 154 111.5 267.5t270.5 110.5q158 3 271.5 -110.5t110.5 -267.5zM310 169q40 -17 87 -17q90 0 140.5 58.5t50.5 163.5q0 98 -51 151q-40 42 -106 42q-63 0 -102.5 -39.5
t-39.5 -101.5q0 -54 35 -90.5t84 -36.5q33 0 55.5 18t29.5 48h31q0 -54 -27 -89q-35 -49 -101 -49q-46 0 -86 22v-80zM493 432q0 -29 -17 -47.5t-43 -18.5t-42.5 18.5t-16.5 47.5q0 30 16.5 48.5t42.5 18.5t43 -18.5t17 -48.5z" />
    <glyph glyph-name="uni300A" unicode="&#x300a;" horiz-adv-x="557" 
d="M321 726l-206 -423l205 -429l-78 -38l-223 464l224 465zM536 726l-206 -422l206 -430l-79 -38l-222 464l223 465z" />
    <glyph glyph-name="uni300B" unicode="&#x300b;" horiz-adv-x="553" 
d="M99 765l222 -464l-223 -465l-78 39l206 422l-205 430zM314 765l223 -464l-224 -465l-78 39l206 423l-205 429z" />
    <glyph glyph-name="uni300C" unicode="&#x300c;" horiz-adv-x="361" 
d="M85 312v443h261v-78h-172v-365h-89z" />
    <glyph glyph-name="uni300D" unicode="&#x300d;" horiz-adv-x="341" 
d="M271 293v-443h-261v78h172v365h89z" />
    <glyph glyph-name="uni300E" unicode="&#x300e;" horiz-adv-x="496" 
d="M89 219v536h371v-210h-163v-326h-208zM166 294h61v317h159v69h-220v-386z" />
    <glyph glyph-name="uni300F" unicode="&#x300f;" horiz-adv-x="483" 
d="M405 386v-536h-371v210h163v326h208zM329 311h-61v-317h-160v-69h221v386z" />
    <glyph glyph-name="uni3010" unicode="&#x3010;" horiz-adv-x="361" 
d="M89 -150v905h271q-97 -110 -142 -220t-45 -234t44.5 -232t142.5 -219h-271z" />
    <glyph glyph-name="uni3011" unicode="&#x3011;" horiz-adv-x="361" 
d="M272 755v-905h-271q97 110 142 220t45 234t-44.5 232t-142.5 219h271z" />
    <glyph glyph-name="uni3014" unicode="&#x3014;" horiz-adv-x="311" 
d="M151 55l145 -160l-66 -59l-167 186v557l167 186l62 -58l-141 -156v-496z" />
    <glyph glyph-name="uni3015" unicode="&#x3015;" horiz-adv-x="311" 
d="M81 766l167 -187v-556l-167 -187l-61 59l140 155v497l-145 160z" />
    <glyph glyph-name="uniE000" unicode="&#xe000;" horiz-adv-x="757" 
d="M330 0v305h-296v90h296v306h97v-306h297v-90h-297v-305h-97z" />
    <glyph glyph-name="uniE001" unicode="&#xe001;" horiz-adv-x="833" 
d="M71 305v90h690v-90h-690z" />
    <glyph glyph-name="uniE002" unicode="&#xe002;" horiz-adv-x="791" 
d="M101 -14l-65 64l294 299l-295 298l68 68l294 -298l294 298l65 -64l-295 -299l294 -299l-67 -67l-294 298z" />
    <glyph glyph-name="uniE003" unicode="&#xe003;" horiz-adv-x="901" 
d="M361 -15l-322 414l77 61l249 -319l429 563l74 -60z" />
    <glyph glyph-name="uniE004" unicode="&#xe004;" horiz-adv-x="937" 
d="M82 583v91h773v-91h-773zM82 307v91h773v-91h-773zM82 30v91h773v-91h-773z" />
    <glyph glyph-name="uniE005" unicode="&#xe005;" horiz-adv-x="901" 
d="M101 0v699h699v-699h-699zM197 86h507v527h-507v-527z" />
    <glyph glyph-name="uniE006" unicode="&#xe006;" horiz-adv-x="901" 
d="M452 159l-180 290l77 49l58 -96q18 -29 24.5 -55.5t7.5 -72.5h42q1 44 9 69q7 26 31 59l226 312l73 -54zM101 0v699h452v-86h-356v-527h507v242h96v-328h-699z" />
    <glyph glyph-name="uniE007" unicode="&#xe007;" horiz-adv-x="901" 
d="M101 0v699h699v-699h-699zM197 86h507v527h-507v-527zM387 285v130h127v-130h-127z" />
    <glyph glyph-name="uniE008" unicode="&#xe008;" horiz-adv-x="760" 
d="M381 96h349v-96h-700v96h349l-272 270l67 68l66 -67q27 -29 36 -54t14 -69h43v531h95v-531h42q5 46 14.5 71.5t39.5 55.5l62 63l67 -68z" />
    <glyph glyph-name="uniE009" unicode="&#xe009;" horiz-adv-x="760" 
d="M380 192l-273 271l67 67l66 -67q27 -27 36 -52t14 -70h43v531h95v-531h42q5 45 14 69t40 57l62 63l67 -67zM30 0v96h700v-96h-700z" />
    <glyph glyph-name="uniF8FF" unicode="&#xf8ff;" horiz-adv-x="783" 
d="M652 92l-32 -16q28 -65 36 -102l-16 -12q-56 0 -86.5 31.5t-30.5 93.5q0 26 8 84h-47v-19q0 -48 -20 -84q-32 14 -66 75.5t-43 104.5q-19 104 -33 123q-22 31 -84 49q-10 3 -17.5 6t-14.5 8t-11 7.5t-11.5 9.5t-9.5 10t-11 13t-12 14l71 54l-28 28q-25 -5 -41 -5
q-42 0 -72.5 19t-30.5 46q0 28 15 44.5t42 16.5q24 0 44.5 -14.5t51.5 -51.5l33 28q-38 41 -50 58.5t-12 33.5t15 27t39 11q59 0 59 -72q0 -41 -21 -81l31 -32l44 32q59 -27 115.5 -102t84.5 -138q125 -121 169 -249q23 -69 23 -127l-33 -5q-30 63 -48 83z" />
    <glyph glyph-name="Ccedilla.ss04" horiz-adv-x="736" 
d="M445 -11l-7 -7q-24 -22 -52 -32l13 -27q20 13 44 13q30 0 48.5 -17.5t18.5 -47.5q0 -38 -29.5 -62.5t-80.5 -24.5q-77 0 -120 47l39 50q34 -37 76 -37q43 0 43 31q0 15 -12 23.5t-30 8.5q-22 0 -35 -6l-28 37l45 48q-151 6 -239.5 110t-88.5 260q-2 152 96.5 256.5
t246.5 101.5q121 0 201.5 -60.5t105.5 -146.5l-100 -36q-19 61 -69 106q-47 46 -138 46q-107 0 -171.5 -71.5t-64.5 -194.5q0 -126 65 -202.5t171 -76.5q86 0 135.5 40.5t75.5 117.5l97 -37q-25 -83 -91 -141t-165 -69z" />
    <glyph glyph-name="G.ss03" horiz-adv-x="766" 
d="M51 351q-2 153 102.5 259t248.5 104q121 0 202 -59.5t112 -150.5l-101 -41q-59 158 -216 158q-99 0 -170 -73.5t-71 -196.5q0 -125 64.5 -199.5t165.5 -74.5q92 0 146 46.5t63 129.5h-227v92h339q1 -13 1 -30q0 -148 -86 -238.5t-235 -90.5q-154 0 -246 99t-92 266z" />
    <glyph glyph-name="Gbreve.ss03" horiz-adv-x="766" 
d="M51 351q-2 153 102.5 259t248.5 104q121 0 202 -59.5t112 -150.5l-101 -41q-59 158 -216 158q-99 0 -170 -73.5t-71 -196.5q0 -125 64.5 -199.5t165.5 -74.5q92 0 146 46.5t63 129.5h-227v92h339q1 -13 1 -30q0 -148 -86 -238.5t-235 -90.5q-154 0 -246 99t-92 266z
M239 893h86q3 -30 24 -48t56 -18t55.5 18t23.5 48h86q0 -54 -43.5 -94t-121.5 -40q-79 0 -122.5 39.5t-43.5 94.5z" />
    <glyph glyph-name="Gcircumflex.ss03" horiz-adv-x="766" 
d="M51 351q-2 153 102.5 259t248.5 104q121 0 202 -59.5t112 -150.5l-101 -41q-59 158 -216 158q-99 0 -170 -73.5t-71 -196.5q0 -125 64.5 -199.5t165.5 -74.5q92 0 146 46.5t63 129.5h-227v92h339q1 -13 1 -30q0 -148 -86 -238.5t-235 -90.5q-154 0 -246 99t-92 266z
M212 770l118 123h149l119 -123h-103l-90 73l-90 -73h-103z" />
    <glyph glyph-name="uni0122.ss03" horiz-adv-x="766" 
d="M51 351q-2 153 102.5 259t248.5 104q121 0 202 -59.5t112 -150.5l-101 -41q-59 158 -216 158q-99 0 -170 -73.5t-71 -196.5q0 -125 64.5 -199.5t165.5 -74.5q92 0 146 46.5t63 129.5h-227v92h339q1 -13 1 -30q0 -148 -86 -238.5t-235 -90.5q-154 0 -246 99t-92 266z
M339 -313l67 118h-58v111h108v-111l-66 -118h-51z" />
    <glyph glyph-name="Gdotaccent.ss03" horiz-adv-x="766" 
d="M51 351q-2 153 102.5 259t248.5 104q121 0 202 -59.5t112 -150.5l-101 -41q-59 158 -216 158q-99 0 -170 -73.5t-71 -196.5q0 -125 64.5 -199.5t165.5 -74.5q92 0 146 46.5t63 129.5h-227v92h339q1 -13 1 -30q0 -148 -86 -238.5t-235 -90.5q-154 0 -246 99t-92 266z
M355 770v112h100v-112h-100z" />
    <glyph glyph-name="Scedilla.ss04" horiz-adv-x="626" 
d="M349 -13l-5 -5q-22 -22 -51 -32l13 -27q20 13 44 13q30 0 48.5 -17.5t18.5 -47.5q0 -38 -29.5 -62.5t-80.5 -24.5q-77 0 -120 47l39 50q34 -37 76 -37q43 0 43 31q0 15 -12 23.5t-31 8.5q-22 0 -34 -6l-28 37l46 49q-98 9 -163 60.5t-88 132.5l96 44q48 -148 194 -148
q70 0 109 30.5t39 81.5q0 44 -30.5 70.5t-96.5 40.5l-93 21q-91 19 -137 66t-46 129q0 87 67.5 143t176.5 56q101 0 166.5 -49.5t86.5 -115.5l-94 -43q-17 49 -56 83q-39 36 -112 36q-63 0 -99 -29t-36 -76q0 -42 26.5 -65.5t84.5 -36.5l96 -21q95 -21 148 -72t53 -128
q0 -89 -60 -146t-169 -64z" />
    <glyph glyph-name="uni0162.ss04" horiz-adv-x="624" 
d="M357 0l-19 -18q-23 -21 -51 -32l13 -27q20 13 44 13q30 0 48 -17.5t18 -47.5q0 -38 -29 -62.5t-80 -24.5q-77 0 -120 47l39 50q31 -37 75 -37t44 31q0 15 -12 23.5t-31 8.5q-22 0 -35 -6l-28 37l59 62h-35v608h-247v92h603v-92h-256v-608z" />
    <glyph glyph-name="a.salt" horiz-adv-x="583" 
d="M45 249q0 117 57 189t145 72q67 0 102.5 -33t58.5 -88h53q-45 61 -45 107h85v-496h-85q0 44 45 107h-53q-23 -55 -58.5 -88t-102.5 -33q-88 0 -145 72t-57 191zM412 249q0 86 -37.5 133.5t-99.5 47.5q-132 0 -132 -181q0 -183 132 -183q62 0 99.5 47.5t37.5 135.5z" />
    <glyph glyph-name="aacute.salt" horiz-adv-x="583" 
d="M45 249q0 117 57 189t145 72q67 0 102.5 -33t58.5 -88h53q-45 61 -45 107h85v-496h-85q0 44 45 107h-53q-23 -55 -58.5 -88t-102.5 -33q-88 0 -145 72t-57 191zM412 249q0 86 -37.5 133.5t-99.5 47.5q-132 0 -132 -181q0 -183 132 -183q62 0 99.5 47.5t37.5 135.5z
M248 567l49 141h124l-112 -141h-61z" />
    <glyph glyph-name="abreve.salt" horiz-adv-x="583" 
d="M45 249q0 117 57 189t145 72q67 0 102.5 -33t58.5 -88h53q-45 61 -45 107h85v-496h-85q0 44 45 107h-53q-23 -55 -58.5 -88t-102.5 -33q-88 0 -145 72t-57 191zM412 249q0 86 -37.5 133.5t-99.5 47.5q-132 0 -132 -181q0 -183 132 -183q62 0 99.5 47.5t37.5 135.5z
M127 690h79q2 -30 21 -48t51 -18t50.5 18t21.5 48h78q0 -54 -39.5 -94t-110.5 -40q-72 0 -110.5 39.5t-40.5 94.5z" />
    <glyph glyph-name="acircumflex.salt" horiz-adv-x="583" 
d="M45 249q0 117 57 189t145 72q67 0 102.5 -33t58.5 -88h53q-45 61 -45 107h85v-496h-85q0 44 45 107h-53q-23 -55 -58.5 -88t-102.5 -33q-88 0 -145 72t-57 191zM412 249q0 86 -37.5 133.5t-99.5 47.5q-132 0 -132 -181q0 -183 132 -183q62 0 99.5 47.5t37.5 135.5z
M104 567l107 123h136l107 -123h-93l-82 73l-82 -73h-93z" />
    <glyph glyph-name="adieresis.salt" horiz-adv-x="583" 
d="M45 249q0 117 57 189t145 72q67 0 102.5 -33t58.5 -88h53q-45 61 -45 107h85v-496h-85q0 44 45 107h-53q-23 -55 -58.5 -88t-102.5 -33q-88 0 -145 72t-57 191zM412 249q0 86 -37.5 133.5t-99.5 47.5q-132 0 -132 -181q0 -183 132 -183q62 0 99.5 47.5t37.5 135.5z
M129 587v103h101v-103h-101zM326 587v103h101v-103h-101z" />
    <glyph glyph-name="uni0227.salt" horiz-adv-x="583" 
d="M45 249q0 117 57 189t145 72q67 0 102.5 -33t58.5 -88h53q-45 61 -45 107h85v-496h-85q0 44 45 107h-53q-23 -55 -58.5 -88t-102.5 -33q-88 0 -145 72t-57 191zM412 249q0 86 -37.5 133.5t-99.5 47.5q-132 0 -132 -181q0 -183 132 -183q62 0 99.5 47.5t37.5 135.5z
M228 588v112h100v-112h-100z" />
    <glyph glyph-name="uni1EA1.salt" horiz-adv-x="583" 
d="M45 249q0 117 57 189t145 72q67 0 102.5 -33t58.5 -88h53q-45 61 -45 107h85v-496h-85q0 44 45 107h-53q-23 -55 -58.5 -88t-102.5 -33q-88 0 -145 72t-57 191zM412 249q0 86 -37.5 133.5t-99.5 47.5q-132 0 -132 -181q0 -183 132 -183q62 0 99.5 47.5t37.5 135.5z
M224 -195v112h100v-112h-100z" />
    <glyph glyph-name="agrave.salt" horiz-adv-x="583" 
d="M45 249q0 117 57 189t145 72q67 0 102.5 -33t58.5 -88h53q-45 61 -45 107h85v-496h-85q0 44 45 107h-53q-23 -55 -58.5 -88t-102.5 -33q-88 0 -145 72t-57 191zM412 249q0 86 -37.5 133.5t-99.5 47.5q-132 0 -132 -181q0 -183 132 -183q62 0 99.5 47.5t37.5 135.5z
M248 567l-110 141h121l50 -141h-61z" />
    <glyph glyph-name="amacron.salt" horiz-adv-x="583" 
d="M45 249q0 117 57 189t145 72q67 0 102.5 -33t58.5 -88h53q-45 61 -45 107h85v-496h-85q0 44 45 107h-53q-23 -55 -58.5 -88t-102.5 -33q-88 0 -145 72t-57 191zM412 249q0 86 -37.5 133.5t-99.5 47.5q-132 0 -132 -181q0 -183 132 -183q62 0 99.5 47.5t37.5 135.5z
M125 591v72h306v-72h-306z" />
    <glyph glyph-name="aogonek.salt" horiz-adv-x="583" 
d="M397 -91q0 -41 60 -41q15 0 44 6v-72q-30 -8 -57 -8q-56 0 -89 23t-33 67q0 73 94 123q5 44 45 100h-53q-23 -55 -58.5 -88t-102.5 -33q-88 0 -145 72t-57 191q0 117 57 189t145 72q67 0 102.5 -33t58.5 -88h53q-45 61 -45 107h85v-496q-104 -39 -104 -91zM412 249
q0 86 -37.5 133.5t-99.5 47.5q-132 0 -132 -181q0 -183 132 -183q62 0 99.5 47.5t37.5 135.5z" />
    <glyph glyph-name="aring.salt" horiz-adv-x="583" 
d="M45 249q0 117 57 189t145 72q67 0 102.5 -33t58.5 -88h53q-45 61 -45 107h85v-496h-85q0 44 45 107h-53q-23 -55 -58.5 -88t-102.5 -33q-88 0 -145 72t-57 191zM412 249q0 86 -37.5 133.5t-99.5 47.5q-132 0 -132 -181q0 -183 132 -183q62 0 99.5 47.5t37.5 135.5z
M164 667q0 47 34 79.5t82 32.5q47 0 81.5 -33.5t34.5 -80.5q0 -49 -34.5 -82t-81.5 -33q-49 0 -82.5 33.5t-33.5 83.5zM334 665q0 23 -16.5 39.5t-37.5 16.5q-23 0 -38.5 -16t-15.5 -38q0 -25 15 -42t39 -17q21 0 37.5 17t16.5 40z" />
    <glyph glyph-name="aringacute.salt" horiz-adv-x="583" 
d="M45 249q0 117 57 189t145 72q67 0 102.5 -33t58.5 -88h53q-45 61 -45 107h85v-496h-85q0 44 45 107h-53q-23 -55 -58.5 -88t-102.5 -33q-88 0 -145 72t-57 191zM412 249q0 86 -37.5 133.5t-99.5 47.5q-132 0 -132 -181q0 -183 132 -183q62 0 99.5 47.5t37.5 135.5z
M252 798l50 137h124l-112 -137h-62zM166 666q0 47 34.5 79.5t82.5 32.5q47 0 81.5 -33.5t34.5 -80.5q0 -49 -34.5 -82t-81.5 -33q-49 0 -83 34t-34 83zM337 664q0 23 -16.5 39.5t-37.5 16.5q-23 0 -39 -16t-16 -38q0 -25 15.5 -42t39.5 -17q21 0 37.5 17t16.5 40z" />
    <glyph glyph-name="atilde.salt" horiz-adv-x="583" 
d="M45 249q0 117 57 189t145 72q67 0 102.5 -33t58.5 -88h53q-45 61 -45 107h85v-496h-85q0 44 45 107h-53q-23 -55 -58.5 -88t-102.5 -33q-88 0 -145 72t-57 191zM412 249q0 86 -37.5 133.5t-99.5 47.5q-132 0 -132 -181q0 -183 132 -183q62 0 99.5 47.5t37.5 135.5z
M278 595l-30 19q-27 17 -42 17q-18 0 -28.5 -13.5t-10.5 -37.5h-74q0 59 29.5 91t79.5 32q39 0 77 -24l28 -17q28 -18 43 -18q19 0 28.5 10.5t12.5 35.5h73q0 -59 -29 -90.5t-79 -31.5q-34 0 -78 27z" />
    <glyph glyph-name="ccedilla.ss04" horiz-adv-x="532" 
d="M320 -12l-6 -6q-23 -22 -51 -32l13 -27q19 13 43 13q30 0 48.5 -17.5t18.5 -47.5q0 -38 -29 -62.5t-81 -24.5q-38 0 -70 13.5t-49 33.5l38 50q34 -37 76 -37q44 0 44 31q0 15 -12 23.5t-31 8.5q-22 0 -35 -6l-28 37l47 49q-97 11 -154.5 81t-57.5 181q0 114 68 187.5
t172 73.5q79 0 134 -40t75 -104l-88 -30q-32 93 -122 93q-61 0 -101 -47.5t-40 -132.5q0 -88 39 -135t103 -47q99 0 132 107l89 -31q-50 -137 -185 -155z" />
    <glyph glyph-name="g.ss02" horiz-adv-x="582" 
d="M29 -54l92 31q25 -105 143 -105q62 0 102 33.5t41 85.5q4 72 51 135h-52q-23 -53 -58.5 -85t-100.5 -32q-88 0 -145 68.5t-57 179.5q0 112 57.5 182.5t144.5 70.5q67 0 102.5 -33t58.5 -88h53q-45 61 -45 107h84v-476q0 -107 -63.5 -167.5t-172.5 -60.5q-97 0 -158 39.5
t-77 114.5zM412 257q0 81 -38 127t-99 46q-63 0 -97.5 -43t-34.5 -130q0 -171 132 -171q62 0 99.5 45t37.5 126z" />
    <glyph glyph-name="gbreve.ss02" horiz-adv-x="582" 
d="M29 -54l92 31q25 -105 143 -105q62 0 102 33.5t41 85.5q4 72 51 135h-52q-23 -53 -58.5 -85t-100.5 -32q-88 0 -145 68.5t-57 179.5q0 112 57.5 182.5t144.5 70.5q67 0 102.5 -33t58.5 -88h53q-45 61 -45 107h84v-476q0 -107 -63.5 -167.5t-172.5 -60.5q-97 0 -158 39.5
t-77 114.5zM412 257q0 81 -38 127t-99 46q-63 0 -97.5 -43t-34.5 -130q0 -171 132 -171q62 0 99.5 45t37.5 126zM128 690h79q2 -30 21 -48t51 -18t50.5 18t21.5 48h78q0 -54 -39.5 -94t-110.5 -40q-72 0 -110.5 39.5t-40.5 94.5z" />
    <glyph glyph-name="gcircumflex.ss02" horiz-adv-x="582" 
d="M29 -54l92 31q25 -105 143 -105q62 0 102 33.5t41 85.5q4 72 51 135h-52q-23 -53 -58.5 -85t-100.5 -32q-88 0 -145 68.5t-57 179.5q0 112 57.5 182.5t144.5 70.5q67 0 102.5 -33t58.5 -88h53q-45 61 -45 107h84v-476q0 -107 -63.5 -167.5t-172.5 -60.5q-97 0 -158 39.5
t-77 114.5zM412 257q0 81 -38 127t-99 46q-63 0 -97.5 -43t-34.5 -130q0 -171 132 -171q62 0 99.5 45t37.5 126zM105 567l107 123h136l107 -123h-93l-82 73l-82 -73h-93z" />
    <glyph glyph-name="uni0123.ss02" horiz-adv-x="582" 
d="M29 -54l92 31q25 -105 143 -105q62 0 102 33.5t41 85.5q4 72 51 135h-52q-23 -53 -58.5 -85t-100.5 -32q-88 0 -145 68.5t-57 179.5q0 112 57.5 182.5t144.5 70.5q67 0 102.5 -33t58.5 -88h53q-45 61 -45 107h84v-476q0 -107 -63.5 -167.5t-172.5 -60.5q-97 0 -158 39.5
t-77 114.5zM412 257q0 81 -38 127t-99 46q-63 0 -97.5 -43t-34.5 -130q0 -171 132 -171q62 0 99.5 45t37.5 126zM344 817l-67 -119h58v-111h-108v111l66 119h51z" />
    <glyph glyph-name="gdotaccent.ss02" horiz-adv-x="582" 
d="M29 -54l92 31q25 -105 143 -105q62 0 102 33.5t41 85.5q4 72 51 135h-52q-23 -53 -58.5 -85t-100.5 -32q-88 0 -145 68.5t-57 179.5q0 112 57.5 182.5t144.5 70.5q67 0 102.5 -33t58.5 -88h53q-45 61 -45 107h84v-476q0 -107 -63.5 -167.5t-172.5 -60.5q-97 0 -158 39.5
t-77 114.5zM412 257q0 81 -38 127t-99 46q-63 0 -97.5 -43t-34.5 -130q0 -171 132 -171q62 0 99.5 45t37.5 126zM229 588v112h100v-112h-100z" />
    <glyph glyph-name="i.locl" horiz-adv-x="257" 
d="M78 588v112h100v-112h-100zM82 0v496h94v-496h-94z" />
    <glyph glyph-name="scedilla.ss04" horiz-adv-x="497" 
d="M290 -12l-6 -6q-24 -22 -52 -32l14 -27q19 13 43 13q30 0 48.5 -17.5t18.5 -47.5q0 -38 -29 -62.5t-81 -24.5q-77 0 -120 47l39 50q34 -37 76 -37q44 0 44 31q0 15 -12 23.5t-31 8.5q-22 0 -35 -6l-28 37l46 49q-74 6 -125 43t-65 98l89 29q25 -94 130 -94q106 0 106 69
q0 55 -89 73l-60 11q-77 16 -116.5 47.5t-39.5 95.5q0 66 54 108.5t133 42.5q81 0 132.5 -34.5t69.5 -91.5l-83 -32q-30 84 -120 84q-46 0 -71 -19.5t-25 -47.5q0 -26 17 -40t67 -24l59 -12q64 -12 116 -47q52 -34 52 -106q0 -64 -43.5 -104t-122.5 -48z" />
    <glyph glyph-name="uni0163.ss04" horiz-adv-x="401" 
d="M130 122v296h-113v78h113v155h94v-155h134v-78h-134v-288q0 -49 49 -49h104v-81h-123q-124 0 -124 122zM135 -169l39 50q34 -37 76 -37q44 0 44 31q0 15 -12 23.5t-31 8.5q-21 0 -35 -6l-28 37l58 62h66l-19 -18q-24 -22 -52 -32l14 -27q19 13 43 13q30 0 48.5 -17.5
t18.5 -47.5q0 -38 -29.5 -62.5t-80.5 -24.5q-77 0 -120 47z" />
    <glyph glyph-name="zero.onum" horiz-adv-x="632" 
d="M49 249q0 112 77 186.5t190 74.5q114 0 190.5 -74.5t76.5 -186.5q0 -114 -76.5 -188.5t-190.5 -74.5t-190.5 75t-76.5 188zM485 249q0 82 -46 131t-123 49q-76 0 -122.5 -49.5t-46.5 -130.5q0 -83 46.5 -132.5t122.5 -49.5q77 0 123 49t46 133z" />
    <glyph glyph-name="one.onum" horiz-adv-x="377" 
d="M201 0v266q0 60 18 108h-45q-13 -47 -50 -86.5t-85 -46.5v101q57 12 103.5 52.5t72.5 101.5h78v-496h-92z" />
    <glyph glyph-name="two.onum" horiz-adv-x="514" 
d="M59 0v96q159 70 228.5 122t69.5 114q0 45 -27.5 71t-73.5 26q-45 0 -73.5 -27t-32.5 -75l-97 15q8 76 63 122t141 46q89 0 143.5 -48.5t54.5 -114.5q0 -94 -85 -158q-60 -45 -220 -113l24 -38q63 43 148 43h140v-81h-403z" />
    <glyph glyph-name="three.onum" horiz-adv-x="553" 
d="M36 -1l98 22q2 -69 38.5 -109t102.5 -40q62 0 96 32.5t34 89.5q0 55 -36.5 87.5t-95.5 32.5h-50v84h48q52 0 88.5 33t36.5 84t-35 82.5t-85 31.5q-54 0 -88.5 -35.5t-39.5 -90.5l-94 13q8 85 67 139.5t155 54.5t156 -51.5t60 -128.5q0 -69 -44.5 -107.5t-113.5 -43.5v-41
q74 -3 121 -44t47 -117q0 -80 -60.5 -133t-165.5 -53q-103 0 -167.5 57t-72.5 151z" />
    <glyph glyph-name="four.onum" horiz-adv-x="586" 
d="M361 -195v195h-330v83l287 413h136v-415h103v-81h-103v-195h-93zM264 81h97v177q0 41 7 65q10 38 40 80l-38 25l-6 -9l-235 -338l-7 -12l35 -27q22 22 42 30.5t65 8.5z" />
    <glyph glyph-name="five.onum" horiz-adv-x="557" 
d="M45 -37l94 30q11 -53 49 -87t91 -34q65 0 102 39.5t37 106.5q0 65 -37.5 104t-101.5 39q-85 0 -134 -80l-100 15l60 400h382v-84h-310l-20 -125q-15 -95 -54 -141h53q46 96 153 96q86 0 147 -62t61 -158q0 -102 -65.5 -166.5t-166.5 -64.5q-99 0 -160 46t-80 126z" />
    <glyph glyph-name="six.onum" horiz-adv-x="601" 
d="M53 319q-2 172 87 284.5t244 110.5q74 0 133 -19v-93q-63 23 -126 23q-117 0 -194 -81t-78 -229h40q13 61 58 100t118 39q97 0 159.5 -64.5t62.5 -160.5q0 -104 -66 -173.5t-178 -69.5q-121 0 -190.5 86.5t-69.5 246.5zM460 220q0 67 -43 109.5t-104 42.5
q-63 0 -105.5 -43t-42.5 -109q0 -69 42 -111t106 -42q62 0 104.5 42.5t42.5 110.5z" />
    <glyph glyph-name="seven.onum" horiz-adv-x="515" 
d="M407 412l13 10l-26 36q-63 -46 -148 -46h-227v84h475v-98q-149 -126 -204.5 -261.5t-56.5 -331.5h-99q0 197 66 344t207 263z" />
    <glyph glyph-name="eight.onum" horiz-adv-x="583" 
d="M54 181q0 72 47.5 114t126.5 47v41q-71 5 -114.5 43.5t-43.5 104.5q0 80 61 131.5t161 51.5t160.5 -51t60.5 -132q0 -67 -42.5 -105t-115.5 -43v-41q79 -5 127 -47t48 -114q0 -86 -63 -140.5t-175 -54.5t-175 54t-63 141zM418 520q0 49 -35.5 81t-90.5 32t-90.5 -32
t-35.5 -81q0 -50 35.5 -80.5t90.5 -30.5t90.5 30.5t35.5 80.5zM433 193q0 53 -39 88t-102 35t-102 -35t-39 -88q0 -56 38.5 -91t102.5 -35t102.5 34.5t38.5 91.5z" />
    <glyph glyph-name="nine.onum" horiz-adv-x="601" 
d="M86 -190v96q63 -23 126 -23q122 0 190 74.5t63 198.5h-40q-15 -47 -58 -80.5t-100 -33.5q-93 0 -154.5 65t-61.5 160q0 103 65.5 173t174.5 70q121 0 191.5 -88.5t70.5 -247.5q0 -174 -86.5 -278.5t-247.5 -104.5q-74 0 -133 19zM433 275q0 67 -40 108.5t-102 41.5
q-61 0 -102 -41.5t-41 -108.5q0 -64 41 -105.5t102 -41.5t101.5 41t40.5 106z" />
    <glyph glyph-name="zero.tnum" 
d="M30 353q0 169 79.5 265t201.5 96q121 0 200 -96t79 -265q0 -174 -76 -270.5t-203 -96.5q-129 0 -205 96t-76 271zM485 353q0 124 -47.5 198t-126.5 74q-80 0 -128 -74t-48 -198q0 -134 46.5 -206t129.5 -72q82 0 128 72t46 206z" />
    <glyph glyph-name="one.tnum" 
d="M397 92h166v-92h-469v92h205v380q0 63 19 110h-46q-19 -59 -61 -95.5t-101 -44.5v104q142 32 207 154h80v-608z" />
    <glyph glyph-name="two.tnum" 
d="M78 0v109q119 75 188 127q168 128 168 250q0 64 -36.5 101.5t-90.5 37.5q-59 0 -96.5 -42t-37.5 -113l-101 13q2 103 65.5 167t170.5 64q106 0 168.5 -60.5t62.5 -156.5q0 -110 -73 -195q-77 -90 -306 -217l25 -38q67 45 149 45h213v-92h-469z" />
    <glyph glyph-name="three.tnum" 
d="M60 200l105 22q3 -69 42 -109t103 -40q58 0 95.5 32.5t37.5 87.5q0 54 -38 87t-98 33h-49v85h49q52 0 88.5 32t36.5 83q0 50 -35.5 82t-86.5 32q-55 0 -90 -34.5t-40 -91.5l-102 19q6 84 69 139t163 55q102 0 162.5 -52t60.5 -132q0 -68 -44.5 -107t-113.5 -44v-41
q73 -3 122 -44.5t49 -116.5q0 -82 -65 -136.5t-171 -54.5q-108 0 -175 58t-75 156z" />
    <glyph glyph-name="four.tnum" 
d="M370 0v189h-326v94l274 417h147v-426h101v-85h-101v-189h-95zM370 274v179q0 91 43 152l-38 25l-5 -9l-227 -347l-9 -12l35 -27q20 21 41.5 30t64.5 9h95z" />
    <glyph glyph-name="five.tnum" 
d="M58 162l100 33q14 -58 54.5 -90t97.5 -32q66 0 104.5 39t38.5 104t-38.5 103.5t-104.5 38.5q-45 0 -81.5 -21t-55.5 -53l-101 17l60 399h403v-92h-329l-18 -112q-11 -62 -22 -92q-12 -30 -33 -57h51q50 95 155 95q98 0 157.5 -60.5t59.5 -162.5q0 -105 -66 -169t-174 -64
q-105 0 -173 48.5t-85 127.5z" />
    <glyph glyph-name="six.tnum" 
d="M59 326q-2 172 88 281t248 107q76 0 133 -21v-97q-64 23 -127 23q-120 0 -194 -78t-75 -226h41q13 58 60 98.5t117 40.5q97 0 158.5 -64.5t61.5 -159.5q0 -105 -66.5 -174.5t-179.5 -69.5q-122 0 -193.5 89.5t-71.5 250.5zM466 221q0 65 -41 106.5t-101 41.5
q-62 0 -102 -40.5t-40 -107.5t40 -107.5t102 -40.5q60 0 101 41t41 107z" />
    <glyph glyph-name="seven.tnum" 
d="M468 608l12 11l-26 35q-61 -46 -142 -46h-235v92h475v-109q-148 -126 -203.5 -261t-56.5 -330h-111q0 187 74 341.5t213 266.5z" />
    <glyph glyph-name="eight.tnum" 
d="M63 181q0 71 49 113.5t127 47.5v41q-72 5 -114.5 43.5t-42.5 104.5q0 80 63 131.5t165 51.5q101 0 164.5 -52t63.5 -131q0 -66 -42.5 -104.5t-114.5 -43.5v-41q79 -5 127 -47t48 -114q0 -85 -64.5 -140t-181.5 -55t-182 55t-65 140zM438 520q0 47 -36 77.5t-92 30.5
t-92 -30.5t-36 -77.5q0 -52 35.5 -82t92.5 -30q55 0 91.5 30.5t36.5 81.5zM452 194q0 55 -39 88t-104 33q-58 0 -100 -35t-42 -86q0 -55 39 -88t103 -33q66 0 104.5 33t38.5 88z" />
    <glyph glyph-name="nine.tnum" 
d="M93 7v102q62 -25 132 -25q136 0 198 101q21 36 34 87.5t12 97.5h-41q-15 -47 -59 -80.5t-105 -33.5q-92 0 -150.5 61.5t-58.5 152.5q0 104 64.5 174t171.5 70t178 -72q87 -89 87 -267q0 -179 -83.5 -284t-243.5 -105q-82 0 -136 21zM433 483q0 64 -39 104t-98 40
q-58 0 -97.5 -40t-39.5 -104q0 -63 39.5 -102.5t97.5 -39.5q59 0 98 39.5t39 102.5z" />
    <glyph glyph-name="zero.subs" horiz-adv-x="420" 
d="M44 93q0 93 46 149.5t120 56.5q75 0 120 -56.5t45 -149.5q0 -97 -43.5 -153t-121.5 -56q-77 0 -121.5 56t-44.5 153zM291 93q0 61 -22.5 99t-58.5 38q-35 0 -58 -38t-23 -99q0 -66 21.5 -103t59.5 -37t59.5 37t21.5 103z" />
    <glyph glyph-name="one.subs" horiz-adv-x="286" 
d="M134 -108v225q0 46 17 88h-34q-24 -72 -85 -73v73q79 14 116 86h67v-399h-81z" />
    <glyph glyph-name="two.subs" horiz-adv-x="375" 
d="M48 -108v74q101 62 145.5 104.5t47.5 94.5q0 30 -15.5 47.5t-40.5 17.5q-26 0 -42 -20.5t-16 -55.5v-9l-83 10q-2 64 38 104t104 40q63 0 101.5 -35.5t38.5 -91.5q0 -64 -47 -113q-43 -43 -155 -97l17 -31q53 32 109 32h80v-71h-282z" />
    <glyph glyph-name="three.subs" horiz-adv-x="376" 
d="M39 16l83 16q1 -37 18.5 -58.5t47.5 -21.5q26 0 42 15t16 40q0 54 -68 54h-29v67h29q30 0 46 14t16 38q0 22 -14 36.5t-37 14.5q-27 0 -42.5 -18.5t-15.5 -51.5l-83 14q0 55 40 89.5t101 34.5q60 0 97 -28.5t37 -72.5q0 -36 -23.5 -58.5t-64.5 -26.5v-31q46 -2 71 -25
t25 -61q0 -50 -39.5 -81t-102.5 -31q-65 0 -106 36.5t-44 95.5z" />
    <glyph glyph-name="four.subs" horiz-adv-x="379" 
d="M40 16l83 16q1 -37 18.5 -58.5t47.5 -21.5q26 0 42 15t16 40q0 54 -68 54h-29v67h29q30 0 46 14t16 38q0 22 -14 36.5t-37 14.5q-27 0 -42.5 -18.5t-15.5 -51.5l-83 14q0 55 40 89.5t101 34.5q60 0 97 -28.5t37 -72.5q0 -36 -23.5 -58.5t-64.5 -26.5v-31q46 -2 71 -25
t25 -61q0 -50 -39.5 -81t-102.5 -31q-65 0 -106 36.5t-44 95.5z" />
    <glyph glyph-name="five.subs" horiz-adv-x="384" 
d="M41 -3l80 21q5 -31 24 -48.5t46 -17.5q30 0 47.5 19t17.5 50q0 30 -17.5 47.5t-45.5 17.5q-43 0 -59 -42l-85 13l35 234h246v-70h-180l-5 -37q-6 -52 -40 -86h41q18 53 79 53q49 0 82.5 -35t33.5 -92q0 -62 -41 -101t-106 -39q-63 0 -105 31t-48 82z" />
    <glyph glyph-name="six.subs" horiz-adv-x="389" 
d="M44 78q0 101 53.5 161t144.5 60q52 0 84 -17v-75q-45 20 -92 20q-50 0 -85 -35.5t-38 -95.5h32q7 29 29.5 45.5t56.5 16.5q51 0 85 -36t34 -94q0 -64 -40.5 -104t-105.5 -40q-73 0 -115.5 52t-42.5 142zM264 22q0 30 -17.5 49.5t-44.5 19.5q-28 0 -45.5 -19.5
t-17.5 -49.5q0 -31 17.5 -50.5t45.5 -19.5q27 0 44.5 19.5t17.5 50.5z" />
    <glyph glyph-name="seven.subs" horiz-adv-x="345" 
d="M236 221l13 9l-20 27q-28 -21 -47 -28.5t-57 -7.5h-94v70h285v-73q-82 -66 -111.5 -140t-29.5 -186h-88q-1 105 38 192t111 137z" />
    <glyph glyph-name="eight.subs" horiz-adv-x="384" 
d="M45 -4q0 36 26 59.5t68 27.5v32q-84 5 -84 80q0 45 38.5 74.5t97.5 29.5q60 0 98.5 -29.5t38.5 -74.5q0 -36 -23.5 -57t-60.5 -23v-32q41 -3 67.5 -27t26.5 -60q0 -51 -40 -81.5t-107 -30.5q-66 0 -106 31t-40 81zM246 181q0 23 -15 36.5t-39 13.5q-25 0 -39.5 -13.5
t-14.5 -36.5q0 -25 15 -42.5t39 -17.5t39 17.5t15 42.5zM254 9q0 26 -17 42t-46 16q-28 0 -44.5 -16t-16.5 -42q0 -27 16 -42t45 -15q30 0 46.5 15.5t16.5 41.5z" />
    <glyph glyph-name="nine.subs" horiz-adv-x="385" 
d="M62 -99v79q41 -21 87 -21q64 0 101 49q28 39 26 88h-31q-6 -28 -29 -47t-55 -19q-51 0 -85.5 36.5t-34.5 90.5q0 62 40 102t102 40q65 0 106 -42q51 -53 51 -152q0 -104 -50.5 -162.5t-139.5 -58.5q-48 0 -88 17zM246 164q0 30 -17 48.5t-43 18.5t-43 -18.5t-17 -48.5
t17 -48t43 -18t43 18t17 48z" />
    <glyph glyph-name="zero.dnom" horiz-adv-x="420" 
d="M44 201q0 93 46 149.5t120 56.5q75 0 120 -56.5t45 -149.5q0 -97 -43.5 -153t-121.5 -56q-77 0 -121.5 56t-44.5 153zM291 201q0 61 -22.5 99t-58.5 38q-35 0 -58 -38t-23 -99q0 -66 21.5 -103t59.5 -37t59.5 37t21.5 103z" />
    <glyph glyph-name="one.dnom" horiz-adv-x="286" 
d="M134 0v225q0 46 17 88h-34q-24 -72 -85 -73v73q79 14 116 86h67v-399h-81z" />
    <glyph glyph-name="two.dnom" horiz-adv-x="375" 
d="M48 0v74q101 62 145.5 104.5t47.5 94.5q0 30 -15.5 47.5t-40.5 17.5q-26 0 -42 -20.5t-16 -55.5v-9l-83 10q-2 64 38 104t104 40q63 0 101.5 -35.5t38.5 -91.5q0 -64 -47 -113q-43 -43 -155 -97l17 -31q53 32 109 32h80v-71h-282z" />
    <glyph glyph-name="three.dnom" horiz-adv-x="376" 
d="M39 124l83 16q1 -37 18.5 -58.5t47.5 -21.5q26 0 42 15t16 40q0 54 -68 54h-29v67h29q30 0 46 14t16 38q0 22 -14 36.5t-37 14.5q-27 0 -42.5 -18.5t-15.5 -51.5l-83 14q0 55 40 89.5t101 34.5q60 0 97 -28.5t37 -72.5q0 -36 -23.5 -58.5t-64.5 -26.5v-31q46 -2 71 -25
t25 -61q0 -50 -39.5 -81t-102.5 -31q-65 0 -106 36.5t-44 95.5z" />
    <glyph glyph-name="four.dnom" horiz-adv-x="379" 
d="M213 0v103h-183v62l159 234h100v-230h55v-66h-55v-103h-76zM213 169v46q0 51 37 90l-27 19l-121 -173l25 -18q27 36 66 36h20z" />
    <glyph glyph-name="five.dnom" horiz-adv-x="384" 
d="M41 105l80 21q5 -31 24 -48.5t46 -17.5q30 0 47.5 19t17.5 50q0 30 -17.5 47.5t-45.5 17.5q-43 0 -59 -42l-85 13l35 234h246v-70h-180l-5 -37q-6 -52 -40 -86h41q18 53 79 53q49 0 82.5 -35t33.5 -92q0 -62 -41 -101t-106 -39q-63 0 -105 31t-48 82z" />
    <glyph glyph-name="six.dnom" horiz-adv-x="389" 
d="M44 186q0 101 53.5 161t144.5 60q52 0 84 -17v-75q-45 20 -92 20q-50 0 -85 -35.5t-38 -95.5h32q7 29 29.5 45.5t56.5 16.5q51 0 85 -36t34 -94q0 -64 -40.5 -104t-105.5 -40q-73 0 -115.5 52t-42.5 142zM264 130q0 30 -17.5 49.5t-44.5 19.5q-28 0 -45.5 -19.5
t-17.5 -49.5q0 -31 17.5 -50.5t45.5 -19.5q27 0 44.5 19.5t17.5 50.5z" />
    <glyph glyph-name="seven.dnom" horiz-adv-x="345" 
d="M236 329l13 9l-20 27q-28 -21 -47 -28.5t-57 -7.5h-94v70h285v-73q-82 -66 -111.5 -140t-29.5 -186h-88q-1 105 38 192t111 137z" />
    <glyph glyph-name="eight.dnom" horiz-adv-x="384" 
d="M45 104q0 36 26 59.5t68 27.5v32q-84 5 -84 80q0 45 38.5 74.5t97.5 29.5q60 0 98.5 -29.5t38.5 -74.5q0 -36 -23.5 -57t-60.5 -23v-32q41 -3 67.5 -27t26.5 -60q0 -51 -40 -81.5t-107 -30.5q-66 0 -106 31t-40 81zM246 289q0 23 -15 36.5t-39 13.5q-25 0 -39.5 -13.5
t-14.5 -36.5q0 -25 15 -42.5t39 -17.5t39 17.5t15 42.5zM254 117q0 26 -17 42t-46 16q-28 0 -44.5 -16t-16.5 -42q0 -27 16 -42t45 -15q30 0 46.5 15.5t16.5 41.5z" />
    <glyph glyph-name="nine.dnom" horiz-adv-x="385" 
d="M62 9v79q41 -21 87 -21q64 0 101 49q28 39 26 88h-31q-6 -28 -29 -47t-55 -19q-51 0 -85.5 36.5t-34.5 90.5q0 62 40 102t102 40q65 0 106 -42q51 -53 51 -152q0 -104 -50.5 -162.5t-139.5 -58.5q-48 0 -88 17zM246 272q0 30 -17 48.5t-43 18.5t-43 -18.5t-17 -48.5
t17 -48t43 -18t43 18t17 48z" />
    <glyph glyph-name="zero.numr" horiz-adv-x="420" 
d="M44 502q0 93 46 149.5t120 56.5q75 0 120 -56.5t45 -149.5q0 -97 -43.5 -153t-121.5 -56q-77 0 -121.5 56t-44.5 153zM291 502q0 61 -22.5 99t-58.5 38q-35 0 -58 -38t-23 -99q0 -66 21.5 -103t59.5 -37t59.5 37t21.5 103z" />
    <glyph glyph-name="one.numr" horiz-adv-x="286" 
d="M134 301v225q0 46 17 88h-34q-24 -72 -85 -73v73q79 14 116 86h67v-399h-81z" />
    <glyph glyph-name="two.numr" horiz-adv-x="375" 
d="M48 301v74q101 62 145.5 104.5t47.5 94.5q0 30 -15.5 47.5t-40.5 17.5q-26 0 -42 -20.5t-16 -55.5v-9l-83 10q-2 64 38 104t104 40q63 0 101.5 -35.5t38.5 -91.5q0 -64 -47 -113q-43 -43 -155 -97l17 -31q53 32 109 32h80v-71h-282z" />
    <glyph glyph-name="three.numr" horiz-adv-x="376" 
d="M39 425l83 16q1 -37 18.5 -58.5t47.5 -21.5q26 0 42 15t16 40q0 54 -68 54h-29v67h29q30 0 46 14t16 38q0 22 -14 36.5t-37 14.5q-27 0 -42.5 -18.5t-15.5 -51.5l-83 14q0 55 40 89.5t101 34.5q60 0 97 -28.5t37 -72.5q0 -36 -23.5 -58.5t-64.5 -26.5v-31q46 -2 71 -25
t25 -61q0 -50 -39.5 -81t-102.5 -31q-65 0 -106 36.5t-44 95.5z" />
    <glyph glyph-name="four.numr" horiz-adv-x="379" 
d="M213 301v103h-183v62l159 234h100v-230h55v-66h-55v-103h-76zM213 470v46q0 51 37 90l-27 19l-121 -173l25 -18q27 36 66 36h20z" />
    <glyph glyph-name="five.numr" horiz-adv-x="384" 
d="M41 406l80 21q5 -31 24 -48.5t46 -17.5q30 0 47.5 19t17.5 50q0 30 -17.5 47.5t-45.5 17.5q-43 0 -59 -42l-85 13l35 234h246v-70h-180l-5 -37q-6 -52 -40 -86h41q18 53 79 53q49 0 82.5 -35t33.5 -92q0 -62 -41 -101t-106 -39q-63 0 -105 31t-48 82z" />
    <glyph glyph-name="six.numr" horiz-adv-x="389" 
d="M44 487q0 101 53.5 161t144.5 60q52 0 84 -17v-75q-45 20 -92 20q-50 0 -85 -35.5t-38 -95.5h32q7 29 29.5 45.5t56.5 16.5q51 0 85 -36t34 -94q0 -64 -40.5 -104t-105.5 -40q-73 0 -115.5 52t-42.5 142zM264 431q0 30 -17.5 49.5t-44.5 19.5q-28 0 -45.5 -19.5
t-17.5 -49.5q0 -31 17.5 -50.5t45.5 -19.5q27 0 44.5 19.5t17.5 50.5z" />
    <glyph glyph-name="seven.numr" horiz-adv-x="345" 
d="M236 630l13 9l-20 27q-28 -21 -47 -28.5t-57 -7.5h-94v70h285v-73q-82 -66 -111.5 -140t-29.5 -186h-88q-1 105 38 192t111 137z" />
    <glyph glyph-name="eight.numr" horiz-adv-x="384" 
d="M45 405q0 36 26 59.5t68 27.5v32q-84 5 -84 80q0 45 38.5 74.5t97.5 29.5q60 0 98.5 -29.5t38.5 -74.5q0 -36 -23.5 -57t-60.5 -23v-32q41 -3 67.5 -27t26.5 -60q0 -51 -40 -81.5t-107 -30.5q-66 0 -106 31t-40 81zM246 590q0 23 -15 36.5t-39 13.5q-25 0 -39.5 -13.5
t-14.5 -36.5q0 -25 15 -42.5t39 -17.5t39 17.5t15 42.5zM254 418q0 26 -17 42t-46 16q-28 0 -44.5 -16t-16.5 -42q0 -27 16 -42t45 -15q30 0 46.5 15.5t16.5 41.5z" />
    <glyph glyph-name="nine.numr" horiz-adv-x="385" 
d="M62 310v79q41 -21 87 -21q64 0 101 49q28 39 26 88h-31q-6 -28 -29 -47t-55 -19q-51 0 -85.5 36.5t-34.5 90.5q0 62 40 102t102 40q65 0 106 -42q51 -52 51 -152q0 -104 -50.5 -162.5t-139.5 -58.5q-48 0 -88 17zM246 573q0 30 -17 48.5t-43 18.5t-43 -18.5t-17 -48.5
t17 -48t43 -18t43 18t17 48z" />
    <glyph glyph-name="comma.ss04" horiz-adv-x="272" 
d="M63 -140l34 60q18 31 32.5 46t37.5 28l-20 30q-27 -24 -58 -24h-15v130h127v-130l-76 -140h-62z" />
    <glyph glyph-name="semicolon.ss04" horiz-adv-x="275" 
d="M65 -140l34 60q18 31 32.5 46t37.5 28l-20 30q-27 -24 -58 -24h-15v130h127v-130l-76 -140h-62zM76 366v130h128v-130h-128z" />
    <glyph glyph-name="exclamdown.case" horiz-adv-x="293" 
d="M210 700v-130h-128v130h128zM170 477l27 -269v-208h-102v211l30 266h45z" />
    <glyph glyph-name="questiondown.case" horiz-adv-x="496" 
d="M327 700v-130h-127v130h127zM223 305q-46 -40 -65 -65.5t-19 -63.5q0 -47 30 -75t79 -28q57 0 87.5 37.5t31.5 108.5l95 -15q0 -103 -57.5 -160t-156.5 -57q-91 0 -150.5 51t-59.5 135q0 54 27.5 97.5t91.5 95.5q37 32 49 54t12 57h92q0 -62 -20 -97t-67 -75z" />
    <glyph glyph-name="period.tnum" 
d="M233 0v156h153v-156h-153z" />
    <glyph glyph-name="comma.tnum" 
d="M222 -167l94 167h-82v156h153v-156l-93 -167h-72z" />
    <glyph glyph-name="colon.tnum" 
d="M233 384v157h153v-157h-153zM233 0v156h153v-156h-153z" />
    <glyph glyph-name="semicolon.tnum" 
d="M236 384v157h153v-157h-153zM224 -167l94 167h-82v156h153v-156l-93 -167h-72z" />
    <glyph glyph-name="semicolon.tnum_ss04" 
d="M237 385v157h153v-157h-153zM226 -167l40 71q23 38 40 56.5t44 32.5l-24 36q-34 -29 -69 -29h-19v156h153v-156l-92 -167h-73z" />
    <glyph glyph-name="numbersign.tnum" 
d="M89 0l19 86q6 32 20 53.5t47 43.5l-23 35q-41 -27 -99 -27h-23v81h116l34 159h-119v84h136l39 185h88l-17 -81q-6 -32 -20.5 -53.5t-47.5 -43.5l23 -35q42 28 102 28h38l39 185h88l-17 -81q-7 -32 -20.5 -53.5t-47.5 -43.5l24 -35q41 28 98 28h24v-84h-117l-34 -159h121
v-81h-137l-40 -191h-89l18 87q6 31 20.5 52.5t46.5 43.5l-23 35q-41 -27 -102 -27h-37l-39 -191h-89zM234 272h117l34 159h-117z" />
    <glyph glyph-name="parenleft.case" horiz-adv-x="328" 
d="M52 349q-1 114 23 210.5t81 168.5t141 87v-85q-78 -21 -118 -126t-40 -252q0 -95 15.5 -172.5t52 -134.5t90.5 -71v-84q-64 12 -112.5 55t-77 107t-42 139t-13.5 158z" />
    <glyph glyph-name="parenright.case" horiz-adv-x="328" 
d="M275 356q1 -115 -22.5 -211t-80.5 -168t-142 -87v86q79 20 118.5 125t39.5 252q0 95 -15.5 172.5t-52 134.5t-90.5 71v84q64 -12 113 -55t77 -107t41.5 -139t13.5 -158z" />
    <glyph glyph-name="braceleft.case" horiz-adv-x="355" 
d="M134 61v125q0 69 -19 95.5t-80 26.5v84q61 0 80 26t19 94v132q0 80 30 120.5t97 40.5h62v-76h-39q-33 0 -47.5 -17.5t-14.5 -57.5v-156q0 -68 -26 -95t-93 -32v-40q67 -5 93 -32.5t26 -96.5v-151q0 -40 14.5 -57.5t47.5 -17.5h39v-76h-62q-127 0 -127 161z" />
    <glyph glyph-name="braceright.case" horiz-adv-x="355" 
d="M222 646v-126q0 -69 19 -95.5t80 -26.5v-84q-62 0 -80.5 -25t-18.5 -95v-132q0 -80 -30.5 -120.5t-97.5 -40.5h-61v76h39q62 0 62 75v156q0 68 26 95t92 32v40q-66 5 -92 33t-26 96v151q0 40 -15 57.5t-47 17.5h-39v76h61q67 0 97.5 -40t30.5 -120z" />
    <glyph glyph-name="bracketleft.case" horiz-adv-x="351" 
d="M100 -100v905h220v-76h-132v-753h132v-76h-220z" />
    <glyph glyph-name="bracketright.case" horiz-adv-x="351" 
d="M250 805v-905h-219v77h132v752h-132v76h219z" />
    <glyph glyph-name="angleleft.case" horiz-adv-x="351" 
d="M328 776l-206 -423l205 -429l-78 -38l-223 464l224 465z" />
    <glyph glyph-name="angleright.case" horiz-adv-x="352" 
d="M103 816l223 -464l-224 -465l-78 39l206 423l-206 429z" />
    <glyph glyph-name="uni3010.case" horiz-adv-x="375" 
d="M100 -100v905h271q-97 -110 -142 -220t-45 -234t44.5 -232t142.5 -219h-271z" />
    <glyph glyph-name="uni3011.case" horiz-adv-x="375" 
d="M274 805v-905h-271q97 111 142 220.5t45 233.5t-44.5 232t-142.5 219h271z" />
    <glyph glyph-name="uni300C.case" horiz-adv-x="354" 
d="M78 362v443h261v-78h-172v-365h-89z" />
    <glyph glyph-name="uni300D.case" horiz-adv-x="358" 
d="M279 345v-444h-260v78h171v366h89z" />
    <glyph glyph-name="uni300A.case" horiz-adv-x="567" 
d="M328 776l-206 -423l205 -429l-78 -38l-223 464l224 465zM543 776l-206 -422l206 -430l-79 -38l-222 464l223 465z" />
    <glyph glyph-name="uni300B.case" horiz-adv-x="568" 
d="M104 816l222 -464l-223 -465l-79 39l206 422l-205 430zM319 816l223 -464l-224 -465l-78 39l206 423l-206 429z" />
    <glyph glyph-name="uni3014.case" horiz-adv-x="319" 
d="M155 105l145 -160l-66 -59l-167 186v557l167 186l62 -58l-141 -156v-496z" />
    <glyph glyph-name="uni3015.case" horiz-adv-x="318" 
d="M84 816l167 -187v-556l-167 -186l-61 58l140 156v496l-145 160z" />
    <glyph glyph-name="uni300E.case" horiz-adv-x="492" 
d="M82 269v536h371v-210h-163v-326h-208zM159 344h61v317h159v69h-220v-386z" />
    <glyph glyph-name="uni300F.case" horiz-adv-x="501" 
d="M409 437v-536h-371v209h163v327h208zM333 362h-62v-317h-159v-69h221v386z" />
    <glyph glyph-name="hyphen.case" horiz-adv-x="432" 
d="M71 311v97h289v-97h-289z" />
    <glyph glyph-name="uni00AD.case" horiz-adv-x="432" 
d="M71 311v97h289v-97h-289z" />
    <glyph glyph-name="endash.case" horiz-adv-x="629" 
d="M73 317v86h482v-86h-482z" />
    <glyph glyph-name="emdash.case" horiz-adv-x="944" 
d="M73 317v86h797v-86h-797z" />
    <glyph glyph-name="quotesinglbase.ss04" horiz-adv-x="262" 
d="M63 -133l31 57q17 30 31 44.5t36 26.5l-19 28q-28 -23 -55 -23h-15v124h121v-124l-73 -133h-57z" />
    <glyph glyph-name="quotedblbase.ss04" horiz-adv-x="446" 
d="M63 -133l31 57q17 30 31 44.5t36 26.5l-19 28q-28 -23 -55 -23h-15v124h121v-124l-73 -133h-57zM247 -133l31 57q17 30 31 44.5t36 26.5l-19 28q-28 -23 -55 -23h-15v124h121v-124l-73 -133h-57z" />
    <glyph glyph-name="quotedblleft.ss04" horiz-adv-x="437" 
d="M193 700l-32 -56q-17 -31 -31 -45t-36 -26l19 -29q25 23 55 23h15v-124h-121v124l73 133h58zM377 700l-32 -56q-17 -31 -31 -45t-36 -26l19 -29q25 23 55 23h15v-124h-121v124l73 133h58z" />
    <glyph glyph-name="quotedblright.ss04" horiz-adv-x="429" 
d="M64 444l31 57q17 30 31 44.5t36 26.5l-19 28q-28 -23 -55 -23h-15v124h121v-124l-73 -133h-57zM248 444l31 57q17 30 31 44.5t36 26.5l-19 28q-28 -23 -55 -23h-15v124h121v-124l-73 -133h-57z" />
    <glyph glyph-name="quoteleft.ss04" horiz-adv-x="253" 
d="M193 700l-32 -56q-17 -31 -31 -45t-36 -26l19 -29q25 23 55 23h15v-124h-121v124l73 133h58z" />
    <glyph glyph-name="quoteright.ss04" horiz-adv-x="245" 
d="M64 444l31 57q17 30 31 44.5t36 26.5l-19 28q-28 -23 -55 -23h-15v124h121v-124l-73 -133h-57z" />
    <glyph glyph-name="guillemotleft.case" horiz-adv-x="562" 
d="M284 568l-132 -214l135 -220h-104l-133 217l133 217h101zM362 354l136 -220h-104l-134 217l134 217h101z" />
    <glyph glyph-name="guillemotright.case" horiz-adv-x="562" 
d="M168 568l134 -217l-134 -217h-101l133 214l-136 220h104zM379 568l133 -217l-133 -217h-101l132 214l-135 220h104z" />
    <glyph glyph-name="guilsinglleft.case" horiz-adv-x="352" 
d="M152 354l135 -220h-104l-133 217l133 217h101z" />
    <glyph glyph-name="guilsinglright.case" horiz-adv-x="352" 
d="M168 568l134 -217l-134 -217h-100l132 214l-136 220h104z" />
    <glyph glyph-name="space.tnum" 
 />
    <glyph glyph-name="uni20BF.tnum" 
d="M410 2v-107h-76v105h-60v-105h-76v105h-124v700h124v104h76v-104h60v104h76v-107q81 -10 124.5 -54.5t43.5 -107.5q0 -67 -41.5 -104.5t-108.5 -42.5v-41q74 -3 123.5 -44t49.5 -115q0 -81 -52 -129t-139 -57zM173 608v-200h175q57 0 91.5 28t34.5 76q0 47 -33 71.5
t-93 24.5h-175zM494 206q0 53 -36.5 82.5t-101.5 29.5h-183v-226h183q64 0 101 30.5t37 83.5z" />
    <glyph glyph-name="cent.tnum" 
d="M283 -119v108q-90 14 -144 84t-54 176q0 100 55.5 171.5t142.5 85.5v110h72v-108q62 -8 111 -44.5t73 -90.5l-87 -34q-32 74 -97 86v-218q0 -59 -6 -86.5t-29 -56.5l22 -28q87 43 117 138l89 -31q-24 -65 -74 -106.5t-119 -49.5v-106h-72zM283 73v208q0 58 6 88t28 56
l-22 29q-112 -58 -112 -205q0 -71 26.5 -116t73.5 -60z" />
    <glyph glyph-name="currency.tnum" 
d="M105 84l-62 62l81 80q-36 55 -36 125t37 127l-82 82l62 61l83 -81q58 35 123 35q64 0 120 -36l83 82l62 -61l-83 -82q39 -56 39 -126q0 -73 -38 -125l82 -81l-62 -62l-83 83q-59 -39 -120 -39q-66 0 -124 37zM440 352q0 60 -37 98t-92 38q-57 0 -94 -38.5t-37 -98.5
t37 -97.5t94 -37.5q55 0 92 38.5t37 97.5z" />
    <glyph glyph-name="dollar.tnum" 
d="M273 -104v92q-89 11 -149 61.5t-85 129.5l92 42q16 -56 52.5 -93.5t89.5 -49.5v241l-22 5q-88 19 -133 65t-45 127q0 77 55.5 132t144.5 64v92h78v-92q83 -8 137.5 -56t72.5 -106l-89 -42q-35 95 -121 114v-223l29 -7q191 -51 191 -197q0 -87 -58 -143t-162 -65v-91h-78z
M273 417v90q0 45 6 69t30 49l-20 31q-59 -14 -89.5 -49t-30.5 -87q0 -46 23 -67.5t81 -35.5zM472 190q0 44 -28.5 70t-92.5 42v-107q0 -74 -35 -113l21 -31q63 15 99 51.5t36 87.5z" />
    <glyph glyph-name="Euro.tnum" 
d="M110 234h-81v78h71q-2 28 -2 42q0 15 2 39h-71v77h80q23 112 88.5 178t159.5 66q91 0 152 -54.5t78 -138.5l-94 -29q-30 133 -140 133q-118 0 -176 -171l30 -22q20 22 39.5 30t64.5 8h82v-77h-203q-2 -30 -2 -43q0 -12 2 -38h203v-78h-86q-45 0 -64 7t-38 30l-28 -21
q54 -175 176 -175q62 0 93 35.5t49 105.5l94 -32q-22 -89 -83.5 -143.5t-151.5 -54.5q-97 0 -159.5 66.5t-84.5 181.5z" />
    <glyph glyph-name="uni20BA.tnum" 
d="M156 0v140q0 65 32 119l-38 18q-17 -43 -50 -62l-34 -20v89l90 52v69l-90 -51v89l90 53v205h99v-65q0 -54 -29 -98l40 -18q19 48 76 81l133 76v-90l-220 -126v-69l220 127v-91l-220 -126v-207l16 1q69 3 129.5 54.5t83.5 155.5l100 -38q-32 -117 -119 -192
q-86 -76 -260 -76h-49z" />
    <glyph glyph-name="uni20BD.tnum" 
d="M352 277h-132v-68h191v-79h-191v-130h-99v130h-74v79h74v68h-74v86h74v337h231q108 0 169.5 -58t61.5 -155q0 -94 -62 -152t-169 -58zM220 608v-245h114q70 0 108 34t38 90q0 57 -37 89t-109 32h-114z" />
    <glyph glyph-name="uni20B9.tnum" 
d="M387 647l-19 -41q51 -13 77 -48h107v-79h-85q-12 -123 -172 -129v-41q76 -1 111 -31t53 -102l44 -176h-110l-38 167q-17 68 -52.5 95t-111.5 27h-110v90h150q56 0 92 26t43 74h-285v79h275q-29 63 -125 63h-150v79h471v-79h-55q-65 0 -110 26z" />
    <glyph glyph-name="sterling.tnum" 
d="M333 92h218v-92h-473v88q41 10 84 40q42 28 42 92q0 45 -22 88h-102v78h53q-36 58 -36 117q0 96 67 153t164 57q82 0 147.5 -50.5t78.5 -141.5l-100 -24q-10 65 -47 97t-86 32q-53 0 -86.5 -33t-33.5 -91q0 -54 39 -116h179v-78h-137q13 -33 13 -77q0 -89 -116 -140
l23 -41q62 42 131 42z" />
    <glyph glyph-name="uni20A9.tnum" 
d="M601 388h-78l-9 -75h87v-73h-96l-29 -240h-130l-9 180l-7 189h-42q-1 -66 -8 -189l-13 -180h-130l-27 240h-89v73h82l-8 75h-74v73h65l-25 239h96l15 -206q7 -100 9 -398h42q0 70 11 196l18 205h116l16 -205q7 -92 7 -104q2 -54 2 -92h41q3 277 12 398l17 206h98
l-29 -239h69v-73z" />
    <glyph glyph-name="yen.tnum" 
d="M611 700l-199 -306h135v-77h-183v-79h183v-77h-183v-161h-100v161h-188v77h188v79h-188v77h137l-203 306h120l119 -196q41 -66 45 -156h42q4 96 39 157l117 195h119z" />
    <glyph glyph-name="_576" 
d="M130 109l-61 61l179 180l-180 179l63 63l180 -179l178 178l62 -61l-178 -178l179 -181l-64 -63l-179 180z" />
    <glyph glyph-name="plus.tnum" 
d="M264 85v222h-221v91h221v222h91v-222h222v-91h-222v-222h-91z" />
    <glyph glyph-name="minus.tnum" 
d="M69 308v91h481v-91h-481z" />
    <glyph glyph-name="multiply.tnum" 
d="M130 109l-61 61l179 180l-180 179l63 63l180 -179l178 178l62 -61l-178 -178l179 -181l-64 -63l-179 180z" />
    <glyph glyph-name="divide.tnum" 
d="M254 493v127h115v-127h-115zM70 307v91h481v-91h-481zM254 85v127h115v-127h-115z" />
    <glyph glyph-name="equal.tnum" 
d="M68 414v91h482v-91h-482zM68 195v91h482v-91h-482z" />
    <glyph glyph-name="notequal.tnum" 
d="M118 85l61 110h-111v91h160l29 54q23 39 68 70l-20 35q-44 -31 -95 -31h-142v91h280l63 115h89l-62 -115h112v-91h-162l-30 -54q-19 -36 -68 -71l21 -36q44 33 94 33h145v-91h-282l-60 -110h-90z" />
    <glyph glyph-name="greater.tnum" 
d="M84 70v103l274 116q80 33 152 38v42q-74 5 -152 38l-274 116v107l481 -209v-142z" />
    <glyph glyph-name="less.tnum" 
d="M535 630v-103l-273 -116q-85 -33 -153 -38v-42q73 -5 153 -38l273 -117v-106l-481 209v141z" />
    <glyph glyph-name="greaterequal.tnum" 
d="M74 204v96l270 72q69 16 156 21v41q-85 2 -156 21l-270 71v100l481 -136v-149zM74 85v91h481v-91h-481z" />
    <glyph glyph-name="lessequal.tnum" 
d="M546 204l-481 136v149l481 137v-96l-271 -72q-74 -19 -154 -20v-42q86 -2 154 -21l271 -70v-101zM65 85v91h481v-91h-481z" />
    <glyph glyph-name="plusminus.tnum" 
d="M270 243v139h-200v89h200v149h81v-149h200v-89h-200v-139h-81zM68 85v91h482v-91h-482z" />
    <glyph glyph-name="approxequal.tnum" 
d="M313 400l-32 14q-52 24 -83 24q-48 0 -95 -50l-54 69q31 37 73 57.5t81 20.5q40 0 101 -27l32 -14q52 -24 84 -24q47 0 95 50l54 -70q-31 -37 -73 -57.5t-81 -20.5q-38 0 -102 28zM313 179l-32 14q-52 24 -83 24q-48 0 -95 -50l-54 69q31 37 73 57.5t81 20.5
q40 0 101 -27l32 -14q52 -24 84 -24q47 0 95 50l54 -70q-31 -37 -73 -57.5t-81 -20.5q-38 0 -102 28z" />
    <glyph glyph-name="logicalnot.tnum" 
d="M461 158v151h-396v90h478v-241h-82z" />
    <glyph glyph-name="percent.tnum" 
d="M24 550q0 74 37 119t98 45t97 -45.5t36 -118.5q0 -74 -36 -120t-97 -46q-60 0 -97.5 46t-37.5 120zM89 0l362 700h80l-361 -700h-81zM213 550q0 47 -14.5 72.5t-39.5 25.5q-56 0 -56 -98q0 -100 55 -100t55 100zM329 152q0 74 36.5 119t99.5 45q60 0 96 -45.5t36 -118.5
q0 -74 -35.5 -120t-96.5 -46t-98.5 46t-37.5 120zM518 152q0 98 -53 98q-57 0 -57 -98q0 -100 55 -100t55 100z" />
    <glyph glyph-name="perthousand.tnum" 
d="M7 550q0 76 30 120t85 44q54 0 83 -44t29 -120q0 -77 -29 -121.5t-83 -44.5q-53 0 -84 45.5t-31 120.5zM385 700h76l-362 -700h-78zM83 550q0 -53 8.5 -76.5t29.5 -23.5t29 23.5t8 76.5q0 98 -36 98q-39 0 -39 -98zM613 152q0 -77 -27.5 -121.5t-78.5 -44.5q-47 0 -75 40
q-28 -40 -74 -40q-50 0 -79.5 45.5t-29.5 120.5t28.5 119.5t80.5 44.5q47 0 74 -34q25 34 75 34t78 -44t28 -120zM397 152q0 53 -7.5 75.5t-27.5 22.5q-38 0 -38 -98q0 -53 8 -76.5t29 -23.5q20 0 28 23t8 77zM538 152q0 52 -8 75t-28 23q-39 0 -39 -98q0 -53 8.5 -76.5
t29.5 -23.5t29 23.5t8 76.5z" />
    <glyph glyph-name="at.case" horiz-adv-x="902" 
d="M49 348q-1 186 116.5 302t299.5 114q174 2 290 -106.5t114 -270.5q0 -115 -54.5 -187.5t-135.5 -72.5q-92 0 -98 85h-33q-31 -87 -119 -87q-74 0 -119.5 60.5t-45.5 152.5q0 93 47 155.5t119 62.5q83 0 116 -79h37q-16 39 -16 67h77v-305q0 -37 40 -37q42 0 68.5 52
t26.5 135q0 132 -86 214.5t-228 82.5q-148 0 -237 -90.5t-89 -247.5t88.5 -247.5t241.5 -90.5q141 0 245 65l36 -72q-121 -71 -281 -71q-196 0 -308 112t-112 304zM567 351q0 61 -29 98.5t-78 37.5t-79 -39.5t-30 -102.5q0 -64 28.5 -105.5t75.5 -41.5q50 0 81 42.5
t31 110.5z" />
    <glyph glyph-name="registered.case" horiz-adv-x="875" 
d="M47 359q-4 156 114 273t277 114q104 2 195 -51t144 -143.5t51 -192.5q3 -157 -114 -272.5t-276 -112.5q-105 -2 -196 50.5t-144 142t-51 192.5zM753 359q2 129 -91.5 224.5t-223.5 92.5q-130 3 -224 -92.5t-92 -224.5q-2 -129 91.5 -223.5t224.5 -92.5q130 -2 223.5 92.5
t91.5 223.5zM289 164v403h175q60 0 99 -28t39 -76q0 -42 -29.5 -65t-78.5 -26v-33q39 -1 59.5 -20t29.5 -64l21 -91h-78l-17 92q-7 45 -26 60t-60 15h-64v-167h-70zM359 390h92q78 0 78 59q0 57 -78 57h-92v-116z" />
    <glyph glyph-name="section.tnum" 
d="M91 -44l94 37q26 -113 121 -113q49 0 76.5 23t27.5 60q0 36 -19 56t-62 35l-143 50q-127 39 -127 140q0 50 34 84.5t95 44.5v41q-77 47 -77 128q0 72 52 122t143 50q90 0 145.5 -46.5t68.5 -117.5l-94 -37q-25 112 -121 112q-45 0 -70.5 -23t-25.5 -60q0 -39 18 -57.5
t62 -33.5l144 -49q60 -21 94.5 -56.5t34.5 -79.5q0 -53 -35.5 -89.5t-96.5 -42.5v-42q78 -41 78 -128q0 -73 -54 -123t-149 -50q-91 0 -146 46.5t-68 118.5zM463 237q0 29 -18 47.5t-57 31.5l-88 30q-36 12 -50 18q-94 -46 -94 -96q0 -29 17.5 -47.5t56.5 -31.5l88 -29
l51 -19q46 23 70 45.5t24 50.5z" />
    <glyph glyph-name="degree.tnum" 
d="M139 605q0 71 49 119.5t122 48.5q74 0 123 -48.5t49 -119.5q0 -72 -49 -119.5t-124 -47.5q-73 0 -121.5 48t-48.5 119zM396 606q0 41 -23.5 66t-62.5 25q-38 0 -62 -25.5t-24 -65.5q0 -42 24 -68.5t62 -26.5q39 0 62.5 26t23.5 69z" />
    <glyph glyph-name="_642" horiz-adv-x="0" 
d="M-133 472l67 118h-58v111h108v-111l-66 -118h-51z" />
    <glyph glyph-name="_647" horiz-adv-x="277" 
d="M109 799l50 137h124l-112 -137h-62zM23 667q0 47 34.5 79.5t82.5 32.5q47 0 81.5 -33.5t34.5 -80.5q0 -49 -34.5 -82t-81.5 -33q-49 0 -83 34t-34 83zM194 665q0 23 -16.5 39.5t-37.5 16.5q-23 0 -39 -16t-16 -38q0 -25 15.5 -42t39.5 -17q21 0 37.5 17t16.5 40z" />
    <glyph glyph-name="uni0327.ss04" horiz-adv-x="0" 
d="M-267 -169l39 50q34 -37 76 -37q44 0 44 31q0 15 -12 23.5t-31 8.5q-21 0 -35 -6l-28 37l58 62h66l-19 -18q-24 -22 -52 -32l14 -27q19 13 43 13q30 0 48.5 -17.5t18.5 -47.5q0 -38 -29.5 -62.5t-80.5 -24.5q-77 0 -120 47z" />
    <glyph glyph-name="cedilla.ss04" horiz-adv-x="357" 
d="M40 -169l39 50q31 -35 74 -35q46 0 46 31q0 14 -12 22t-31 8q-22 0 -35 -6l-28 37l58 62h66l-27 -24l-25 -25h15q38 0 64 -22t26 -58q0 -38 -30 -62.5t-82 -24.5q-78 0 -118 47z" />
    <glyph glyph-name="_670" horiz-adv-x="0" 
d="M-338 566v103h111v-103h-111zM-122 566v103h112v-103h-112z" />
    <glyph glyph-name="_671" horiz-adv-x="0" 
d="M-116 566v112h100v-112h-100z" />
    <glyph glyph-name="_672" horiz-adv-x="0" 
d="M-81 566l-121 142h134l54 -142h-67z" />
    <glyph glyph-name="_673" horiz-adv-x="0" 
d="M-192 566l54 142h137l-124 -142h-67z" />
    <glyph glyph-name="_674" horiz-adv-x="0" 
d="M-373 566l56 142h136l-124 -142h-68zM-196 566l55 142h137l-124 -142h-68z" />
    <glyph glyph-name="_675" horiz-adv-x="0" 
d="M-409 566l118 123h149l119 -123h-103l-90 73l-90 -73h-103z" />
    <glyph glyph-name="_676" horiz-adv-x="0" 
d="M-35 689l-118 -123h-149l-118 123h102l90 -73l90 73h103z" />
    <glyph glyph-name="_677" horiz-adv-x="0" 
d="M-358 689h86q3 -30 24 -48t56 -18t55.5 18t23.5 48h86q0 -54 -43.5 -94t-121.5 -40q-79 0 -122.5 39.5t-43.5 94.5z" />
    <glyph glyph-name="_678" horiz-adv-x="0" 
d="M-261 676q0 49 36 83.5t87 34.5q49 0 85 -35.5t36 -85.5q0 -51 -35.5 -85.5t-85.5 -34.5q-51 0 -87 35.5t-36 87.5zM-82 673q0 25 -16.5 42.5t-39.5 17.5q-24 0 -40.5 -17t-16.5 -40q0 -27 15.5 -44.5t41.5 -17.5q22 0 39 18t17 41z" />
    <glyph glyph-name="_679" horiz-adv-x="277" 
d="M111 789l50 137h124l-112 -137h-62zM25 657q0 47 34.5 79.5t82.5 32.5q47 0 81.5 -33.5t34.5 -80.5q0 -49 -34.5 -82t-81.5 -33q-49 0 -83 34t-34 83zM196 655q0 23 -16.5 39.5t-37.5 16.5q-23 0 -39 -16t-16 -38q0 -25 15.5 -42t39.5 -17q21 0 37.5 17t16.5 40z" />
    <glyph glyph-name="_680" horiz-adv-x="0" 
d="M-209 582l-33 19q-34 17 -47 17q-42 0 -42 -52h-81q0 59 32 91.5t87 32.5q42 0 85 -24l31 -18q33 -18 48 -18q38 0 44 47h80q0 -59 -31.5 -90.5t-87.5 -31.5q-38 0 -85 27z" />
    <glyph glyph-name="_681" horiz-adv-x="0" 
d="M-360 584v72h337v-72h-337z" />
    <glyph glyph-name="_682" horiz-adv-x="0" 
d="M-120 -195v112h100v-112h-100z" />
    <glyph glyph-name="NULL" horiz-adv-x="0" 
 />
    </font>
</defs>
</svg>
