<?xml version="1.0" encoding="utf-8"?>
<!-- Generator: Adobe Illustrator 24.1.0, SVG Export Plug-In . SVG Version: 6.00 Build 0)  -->
<svg version="1.1" id="Calque_1" xmlns="http://www.w3.org/2000/svg" xmlns:xlink="http://www.w3.org/1999/xlink" x="0px" y="0px"
	 viewBox="0 0 98.4 11.2" style="enable-background:new 0 0 98.4 11.2;" xml:space="preserve">
<style type="text/css">
	.st0{clip-path:url(#SVGID_2_);}
	.st1{clip-path:url(#SVGID_4_);fill:#FFFFFF;}
</style>
<g>
	<defs>
		<path id="SVGID_1_" d="M35.2,2.6h-2.2V5h2.2c0.9,0,1.5-0.4,1.5-1.2C36.8,3,36.2,2.6,35.2,2.6z M77,2l-2.6,3.8l1.8-0.2L76,8.1
			l2.6-3.8l-1.8,0.2L77,2z M51.4,2.6H50v6.3h1.4c2,0,3-1.1,3-3.2C54.3,3.8,53.3,2.6,51.4,2.6z M1,1.1c1.3-1.3,3.5-1.3,4.8,0.1
			c0.6-0.6,1.5-1,2.4-1c1.9,0,3.4,1.5,3.4,3.3c0,3.1-5.3,7.4-5.5,7.5c-0.2,0.1-0.4,0.1-0.6,0C5.3,10.9,0,6.6,0,3.5
			C0,2.6,0.4,1.8,1,1.1z M87.8,1.1c1.3-1.3,3.5-1.3,4.8,0.1c0.6-0.6,1.5-1,2.4-1c1.9,0,3.4,1.5,3.4,3.3c0,3.1-5.3,7.4-5.5,7.5
			c-0.2,0.1-0.4,0.1-0.6,0c-0.2-0.2-5.5-4.5-5.5-7.5C86.8,2.6,87.1,1.8,87.8,1.1z M80.1,0.3v6.4h1.6v2.1h-1.6v2.4h-2.7V8.8h-5.4V6.5
			l4.2-6.3H80.1z M67.7,0.3v2.3h-5.6v1.9h4.3v2.2h-4.3v2.2h5.6v2.3h-8.5V0.3H67.7z M51.5,0.3c3.4,0,5.9,2.1,5.9,5.4
			c0.1,3.3-2.5,5.5-5.6,5.5l-4.8,0V0.3H51.5z M44.8,0.3v10.9h-3V0.3H44.8z M35.9,0.3c2.4,0,3.9,1.1,3.9,2.8c0,0.7-0.2,1.2-0.6,1.6
			c-0.7,0.7-1.8,0.9-3.1,0.9v0.9c2.1,0,3.1,0.4,3.4,2.2l0.5,2.4h-3.2l-0.4-2.5c-0.2-1.1-0.6-1.5-1.8-1.5h-1.7v4h-2.9V0.3H35.9z
			 M20.7,0c2.5,0,4.2,1.4,4.2,3.5c0,1-0.3,1.8-1,2.6c-0.3,0.3-0.7,0.6-1.1,0.9c-0.5,0.3-0.9,0.5-1.4,0.8l-2,0.9L18.5,9L19,9.9
			c1.1-0.7,2.2-1,3.5-1h2.3v2.3h-8.4V8.4C21,6.2,21.9,5.1,22,3.7c0-0.9-0.6-1.5-1.4-1.5c-1.1,0-1.5,0.9-1.5,2.1L16.3,4
			C16.3,2.1,17.7,0,20.7,0z"/>
	</defs>
	<clipPath id="SVGID_2_">
		<use xlink:href="#SVGID_1_"  style="overflow:visible;"/>
	</clipPath>
	<g class="st0">
		<defs>
			<rect id="SVGID_3_" x="-671" y="-114" width="1440" height="6380"/>
		</defs>
		<clipPath id="SVGID_4_">
			<use xlink:href="#SVGID_3_"  style="overflow:visible;"/>
		</clipPath>
		<rect x="-5" y="-5" class="st1" width="108.4" height="21.2"/>
	</g>
</g>
</svg>
