<?xml version="1.0" encoding="utf-8"?>
<!-- Generator: Adobe Illustrator 24.1.0, SVG Export Plug-In . SVG Version: 6.00 Build 0)  -->
<svg version="1.1" id="Calque_1" xmlns="http://www.w3.org/2000/svg" xmlns:xlink="http://www.w3.org/1999/xlink" x="0px" y="0px"
	 viewBox="0 0 719.2 585.9" style="enable-background:new 0 0 719.2 585.9;" xml:space="preserve">
<style type="text/css">
	.st0{fill:#FFFFFF;}
</style>
<path class="st0" d="M708.6,537.8c0.2,0,0.4,0.1,0.6,0.1l0.1-0.8c-0.3,0-0.6-0.1-0.9-0.1c-5.9-24.5-11.9-46.5-17.8-66.6
	c0.2,0,0.4,0,0.7,0.1l0.1-0.9c-0.3,0-0.7-0.1-1-0.1c-5.7-19.5-11.3-37.1-16.4-53.2c-15.9-50.3-27.4-86.7-26.2-123.3
	c-0.5-15.8,1.3-31.5,4.8-48.3c0.1,0,0.1,0,0.2,0l0-0.9c0,0,0,0,0,0c4.7-22,12.2-45.8,21.2-74.1c5.1-16.1,10.7-33.7,16.4-53.3
	c0,0,0.1,0,0.1,0l0-0.3c4.6-15.6,9.3-32.5,13.9-50.8c0.5-0.1,1-0.1,1.5-0.2l-0.1-0.8c-0.4,0.1-0.8,0.1-1.2,0.2
	c4.9-19.5,9.8-40.7,14.5-63.8l0.1-0.6l-0.6,0.1C649,14.6,590.9,34.8,539.5,52.7c-40.2,14-77,26.8-112.3,34.2l-0.4,0c0,0,0,0,0,0.1
	c-22.9,4.8-45.2,7.3-67.2,6.4c-56.2,2.3-113.5-17.6-179.9-40.7C128.4,34.8,70.2,14.6,0.6,0.1L0,0l0.1,0.6c4.6,23,9.5,44.1,14.4,63.6
	c-0.1,0-0.2,0-0.3,0l-0.1,0.8c0.2,0,0.4,0.1,0.6,0.1c4.6,18.1,9.3,34.9,13.8,50.4c-0.2,0-0.5,0-0.7-0.1l-0.1,0.9
	c0.3,0,0.7,0.1,1,0.1c4.2,14.4,8.3,27.7,12.3,40.2c-0.4,0-0.8,0-1.3,0l0,0.9c0.5,0,1,0,1.5,0.1c1.3,4.1,2.6,8.2,3.8,12.2
	c2.1,6.7,4.2,13.2,6.1,19.4c-0.1,0-0.2,0-0.4,0l0,0.9c0.2,0,0.4,0,0.6,0c12.5,40.2,20.9,71.5,19.8,103c0.2,5.8,0.1,11.6-0.3,17.5
	c-0.1,0-0.3,0-0.4,0l0,0.9c0.1,0,0.2,0,0.4,0c-0.9,12.2-3.1,24.5-6.1,37.7c-0.1,0-0.2,0-0.2,0l0,0.9c0,0,0,0,0,0
	c-4.7,19.9-11.5,41.4-19.4,66.4c-1.2,3.7-2.4,7.5-3.6,11.3c-0.3,0-0.6,0-1,0l0,0.9c0.2,0,0.4,0,0.7,0c-2,6.3-4,12.8-6.1,19.6
	c-0.5,0-0.9,0.1-1.4,0.1l0,0.9c0.4,0,0.7,0,1.1-0.1c-4.1,13.2-8.3,27.4-12.5,42.7c-0.5,0-1,0.1-1.5,0.2l0.1,0.9
	c0.4,0,0.8-0.1,1.2-0.1c-1.9,6.9-3.8,14-5.7,21.3c-0.5,0.1-1,0.1-1.6,0.2l0.1,0.8c0.4,0,0.8-0.1,1.2-0.2c-1.9,7.2-3.7,14.7-5.6,22.4
	c0,0,0,0,0,0l0,0c-1.8,7.6-3.7,15.5-5.4,23.6c-0.5,0.1-0.9,0.2-1.4,0.3l0.1,0.8c0.4-0.1,0.7-0.1,1.1-0.2c-1.7,7.7-3.3,15.5-5,23.6
	L0,585.9l0.6-0.1c35.3-7.3,67.7-16.2,97.8-25.5c0,0.1,0,0.1,0,0.2l0.9,0.1c0-0.2,0-0.4,0-0.5c8.6-2.7,17-5.3,25.2-8l0.4,0
	c0,0,0-0.1,0-0.1c8.6-2.8,16.9-5.6,25.1-8.4l0.5,0c0-0.1,0-0.1,0-0.2c8.2-2.8,16.3-5.6,24.2-8.4l0.8,0c0-0.1,0-0.2,0-0.2
	c1.4-0.5,2.8-1,4.2-1.4c35.8-12.5,69-24,100.8-31.6c0,0,0,0,0,0l0.9-0.1c0,0,0-0.1,0-0.1c8.9-2.1,17.8-3.9,26.5-5.4
	c0,0.1,0,0.3,0,0.4l0.9,0c0-0.2,0-0.4,0-0.6c8.7-1.4,17.4-2.4,25.9-3c0,0,0,0.1,0,0.1l0.9,0c0-0.1,0-0.1,0-0.2
	c8.1-0.5,16.1-0.7,24.1-0.3c11.7-0.5,23.4,0,35.3,1.3c0,0,0,0.1,0,0.1l0.8,0c10.3,1.1,20.6,2.9,31.2,5.1c0,0,0,0,0,0l0.3,0
	c11.7,2.5,23.6,5.5,35.7,9c0,0.1,0,0.3,0,0.4l0.9,0.1c0-0.1,0-0.1,0-0.2c12.2,3.5,24.6,7.5,37.3,11.8c0,0.1,0,0.2,0,0.4l0.9,0
	c0,0,0-0.1,0-0.1c12.3,4.1,24.8,8.5,37.7,12.9c2.2,0.8,4.5,1.6,6.8,2.3c0,0.1,0,0.1,0,0.2l0.6,0c15.4,5.4,31.5,10.9,48.2,16.4
	c0,0.2,0,0.5,0,0.7l0.9,0c0-0.1,0-0.3,0-0.4c18.1,5.9,37.2,11.8,57.2,17.4c0,0.4,0.1,0.7,0.1,1l0.8-0.1c0-0.2-0.1-0.5-0.1-0.7
	c20.4,5.7,41.9,11,64.5,15.7l0.6,0.1l-0.1-0.6C715.7,568.4,712.2,552.7,708.6,537.8z M713.1,560.9c-21.6-3.9-42.1-8.3-61.8-13
	c-1-7.2-2-14.1-3-20.9c19,3.9,38.8,7.6,59.5,10.7C709.5,545.1,711.3,552.9,713.1,560.9z M86.4,292.9c0-0.9,0-1.8,0.1-2.6
	c5.1,0,10.2,0,15.4,0c0,0.9,0,1.8-0.1,2.6c0.2,5.7,0.1,11.5-0.2,17.3c-5.1,0-10.3,0.1-15.4,0.1C86.5,304.5,86.6,298.7,86.4,292.9z
	 M227.9,70c18.1,5.9,35.5,11.1,52.6,15.2c-0.8,10.5-1.3,20.9-1.5,31.2c-8.5-1.3-17.1-2.8-25.8-4.5c0.2-10.9,0.6-22.1,1.4-33.5
	l-0.9-0.1c-0.8,11.4-1.2,22.5-1.4,33.4c-8.5-1.6-17-3.4-25.7-5.2C226.7,94.8,227.1,82.6,227.9,70z M604.7,293.8
	c-0.2,5.5-0.1,10.9,0.1,16.4c-12.8-0.1-25.7-0.1-38.5-0.2c-0.2-5.4-0.2-10.9,0-16.3c0-1.1,0-2.3-0.1-3.4c12.8,0,25.6,0,38.4,0
	C604.6,291.5,604.6,292.6,604.7,293.8z M664.6,389.1c-15.4-0.1-30.7-0.3-45.8-0.8c-1.7-7.4-3.4-14.5-4.9-21.4
	c14.8,0.5,29.6,1,44.6,1.6C660.4,375.2,662.4,382,664.6,389.1z M622.7,408.1c1.4,5.6,2.8,11.3,4.2,17.3c-15.2-0.9-30.2-2-45-3.2
	c-1-6-2-11.9-3.1-17.7c14.4,0.8,28.9,1.6,43.6,2.2C622.4,407.1,622.6,407.6,622.7,408.1z M83.4,407.1c5.9-0.2,11.7-0.4,17.6-0.7
	c-1.4,5.9-2.8,12.1-4.2,18.5c-6,0.4-12.1,0.7-18.2,1.1c1.4-5.6,2.8-11,4.2-16.3C83,408.8,83.2,408,83.4,407.1z M102.6,292.9
	c0-0.9,0-1.8,0.1-2.6c5.1,0,10.2,0,15.4,0c0,0.9,0,1.7,0,2.6c0.2,5.7,0.1,11.5-0.2,17.2c-5.1,0-10.3,0-15.4,0.1
	C102.7,304.5,102.8,298.7,102.6,292.9z M253.2,112.8c8.7,1.6,17.3,3.1,25.8,4.5c-0.2,10-0.2,19.8-0.1,29.6
	c-8.4-0.8-16.9-1.8-25.5-2.8C253.2,133.8,253.1,123.4,253.2,112.8z M576.4,191.9c-13.3,0.7-26.5,1.4-39.5,2.2
	c1.2-8.8,2.4-17.8,3.5-27.2c13.5-1.2,27.1-2.5,40.9-3.6c-1.5,8.8-3,17.3-4.4,25.7C576.7,189.9,576.5,190.9,576.4,191.9z
	 M565.3,293.8c-0.2,5.4-0.1,10.8,0,16.3c-12.3,0-24.5-0.1-36.8-0.1c-0.1-5.4-0.1-10.8,0-16.1c0-1.1,0-2.3-0.1-3.4
	c12.2,0,24.5,0,36.8,0C565.3,291.5,565.3,292.6,565.3,293.8z M118.8,292.9c0-0.9,0-1.7,0-2.6c5.4,0,10.8,0,16.3,0
	c0,1.1,0,2.3-0.1,3.4c0.2,5.4,0.1,10.8-0.1,16.3c-5.4,0-10.9,0-16.3,0.1C119,304.4,119,298.7,118.8,292.9z M527.7,293.8
	c-0.2,5.4-0.2,10.8,0,16.1c-12,0-24-0.1-35.9-0.1c-0.1-5.4-0.1-10.7,0.1-16c0-1.1,0-2.2-0.1-3.4c12,0,23.9,0,35.9,0
	C527.7,291.5,527.7,292.6,527.7,293.8z M535.6,390.6c0.5,3.4,0.9,6.9,1.4,10.4c-5-0.3-10-0.7-15-1c-8-0.5-16-1-23.9-1.5
	c-0.4-4.9-0.9-9.8-1.4-14.6c0,0,0-0.1,0-0.1c6.1,0.3,12.3,0.6,18.5,1c6.5,0.3,13.1,0.7,19.7,1C535.2,387.3,535.4,389,535.6,390.6z
	 M429.3,450.8c0-4.3,0-8.6-0.1-12.8c11.5,1,23.1,2.2,34.8,3.7c0.1,4.5,0.2,9.1,0.3,13.8C452.5,453.7,440.9,452.1,429.3,450.8z
	 M135.9,293.8c0-1.1,0-2.3,0.1-3.4c6,0,12,0,18,0c0,1.1,0,2.3-0.1,3.4c0.2,5.4,0.1,10.8,0,16.2c-6,0-12,0-18,0.1
	C136.1,304.6,136.1,299.2,135.9,293.8z M163.5,194c1.4,9.5,2.8,18.7,4,27.6c-6.3-0.2-12.6-0.3-18.9-0.5c-1.5-9.1-3.1-18.5-4.8-28.1
	C150.4,193.3,156.9,193.6,163.5,194z M491,293.8c-0.1,5.3-0.1,10.7-0.1,16c-10.8,0-21.7,0-32.5-0.1c-0.1-5.3-0.1-10.6,0.1-16
	c0-1.1,0-2.2,0-3.3c10.8,0,21.6,0,32.5,0C490.9,291.5,490.9,292.7,491,293.8z M495.9,383.9c0.4,4.8,0.9,9.6,1.3,14.5
	c-11.6-0.7-23.1-1.4-34.5-2.1c-0.3-4.8-0.6-9.5-0.9-14.3c11.3,0.5,22.6,1.1,34.1,1.7C495.9,383.8,495.9,383.8,495.9,383.9z
	 M154.7,293.8c0-1.1,0-2.3,0.1-3.4c6,0,12,0,18,0c0,1.1,0,2.3-0.1,3.4c0.2,5.4,0.2,10.8,0,16.2c-6,0-12,0-18,0.1
	C154.9,304.6,154.9,299.2,154.7,293.8z M457.6,293.8c-0.1,5.3-0.1,10.6-0.1,16c-10.8,0-21.7,0-32.5,0c0-5.6,0-11.2,0-16.8
	c0-0.8,0-1.7,0-2.5c10.8,0,21.7,0,32.5,0C457.6,291.5,457.6,292.7,457.6,293.8z M173.5,293.8c0-1.1,0-2.3,0.1-3.4
	c6.3,0,12.5,0,18.8,0c0,1.3,0,2.6-0.1,3.8c0.2,5.2,0.2,10.5,0.1,15.7c-6.3,0-12.6,0-18.8,0.1C173.7,304.6,173.7,299.2,173.5,293.8z
	 M424.2,292.9c-0.1,5.6-0.1,11.2,0,16.8c-9.6,0-19.3,0-28.9,0c0-6.4,0-12.8,0-19.2c9.6,0,19.3,0,28.9,0
	C424.2,291.3,424.2,292.1,424.2,292.9z M426.3,374.9c0.1,1.6,0.1,3.3,0.2,4.9c-10.4-0.3-20.7-0.6-31.1-0.8c0-5.5,0-10.9,0-16.4
	c10.1,0,20.2,0.1,30.4,0.2C425.9,366.9,426.1,370.9,426.3,374.9z M186.3,385.6c6.2-0.3,12.4-0.6,18.6-1c0.9,0,1.7-0.1,2.6-0.1
	c0,0.5-0.1,0.9-0.1,1.4c-0.5,4.4-0.9,8.9-1.4,13.5c-2.6,0.2-5.1,0.3-7.7,0.5c-4.6,0.3-9.2,0.6-13.9,0.9c0.5-3.5,0.9-7,1.3-10.4
	C185.8,388.8,186.1,387.2,186.3,385.6z M193.2,294.2c0-1.3,0.1-2.6,0.1-3.8c6.6,0,13.1,0,19.7,0c0,1.1,0,2.3-0.1,3.4
	c0.1,5.3,0.1,10.7,0.1,16.1c-6.6,0-13.1,0-19.7,0.1C193.4,304.7,193.4,299.4,193.2,294.2z M208.3,384.5c7.7-0.4,15.3-0.8,22.9-1.2
	c-0.4,4.8-0.9,9.7-1.3,14.6c-7.7,0.5-15.4,1-23.1,1.5c0.5-4.5,0.9-9,1.4-13.4C208.2,385.5,208.2,385,208.3,384.5z M213.7,293.8
	c0-1.1,0-2.3,0.1-3.4c7.4,0,14.8,0,22.2,0c0,0.8,0,1.7,0,2.5c0.1,5.6,0.1,11.2,0.1,16.9c-7.4,0-14.8,0-22.2,0.1
	C213.9,304.5,213.9,299.1,213.7,293.8z M283,344.9c-8.1,0.1-16.1,0.1-24.2,0.2c0.3-5.5,0.5-11,0.7-16.5c8,0,16-0.1,24-0.1
	C283.4,334,283.2,339.4,283,344.9z M284.4,328.5c8.1,0,16.2,0,24.3-0.1c0,5.4,0,10.9,0,16.3c-8.3,0-16.6,0.1-24.9,0.2
	C284.1,339.4,284.3,334,284.4,328.5z M282.9,345.8c-0.2,5.4-0.5,10.9-0.8,16.4c-8.1,0.1-16.2,0.2-24.4,0.3c0.3-5.5,0.7-11,1-16.5
	C266.8,345.9,274.9,345.8,282.9,345.8z M283.8,345.8c8.3-0.1,16.6-0.1,24.9-0.2c0,5.4,0,10.9,0,16.3c-8.5,0.1-17.1,0.1-25.6,0.2
	C283.3,356.7,283.6,351.2,283.8,345.8z M309.5,345.6c8.5,0,16.9-0.1,25.4-0.1c0,5.4,0,10.8,0,16.3c-8.5,0-16.9,0.1-25.4,0.1
	C309.5,356.5,309.5,351,309.5,345.6z M309.5,344.8c0-5.4,0-10.9,0-16.3c8.5,0,16.9,0,25.4,0c0,5.4,0,10.8,0,16.2
	C326.5,344.7,318,344.7,309.5,344.8z M309.6,327.6c0-5.7,0-11.4,0-17.1c8.5,0,16.9,0,25.4,0c0,5.7,0,11.4,0,17.1
	C326.5,327.6,318,327.6,309.6,327.6z M308.7,327.6c-8.1,0-16.2,0-24.3,0.1c0.2-5.7,0.3-11.4,0.3-17.1c8,0,16,0,24,0
	C308.7,316.2,308.7,321.9,308.7,327.6z M283.6,327.7c-8,0-16,0.1-24,0.1c0.2-5.7,0.3-11.5,0.4-17.2c8,0,16,0,24,0
	C283.9,316.3,283.7,322,283.6,327.7z M258.7,327.8c-7.5,0-14.9,0.1-22.4,0.1c0.3-5.8,0.5-11.5,0.6-17.2c7.4,0,14.8,0,22.2,0
	C259,316.3,258.9,322,258.7,327.8z M258.7,328.6c-0.2,5.5-0.4,11-0.7,16.5c-7.6,0.1-15.1,0.2-22.7,0.3c0.4-5.6,0.7-11.2,1-16.7
	C243.7,328.7,251.2,328.7,258.7,328.6z M257.9,346c-0.3,5.4-0.6,10.9-1,16.5c-7.7,0.1-15.4,0.2-23.1,0.4c0.5-5.6,0.9-11.1,1.3-16.6
	C242.7,346.2,250.3,346.1,257.9,346z M256.9,363.3c-0.3,5.1-0.6,10.2-1,15.4c-0.1,0.9-0.1,1.7-0.2,2.6c-7.8,0.4-15.7,0.7-23.6,1.1
	c0-0.3,0-0.5,0.1-0.8c0.5-6,1.1-12,1.6-17.9C241.5,363.6,249.2,363.4,256.9,363.3z M256.8,378.8c0.3-5.2,0.7-10.3,1-15.5
	c8.1-0.1,16.3-0.2,24.4-0.3c-0.2,4.3-0.4,8.7-0.7,13c-0.1,1.4-0.1,2.8-0.2,4.2c-8.2,0.3-16.4,0.7-24.6,1
	C256.6,380.4,256.7,379.6,256.8,378.8z M282.3,376.1c0.2-4.4,0.5-8.8,0.7-13.1c8.6-0.1,17.1-0.2,25.7-0.2c0,5.5,0,11-0.1,16.6
	c-8.8,0.2-17.6,0.5-26.5,0.8C282.2,378.8,282.2,377.5,282.3,376.1z M309.5,362.8c8.5-0.1,17-0.1,25.4-0.1c0,5.4,0,10.8,0,16.3
	c-8.5,0.1-17,0.2-25.5,0.4C309.5,373.8,309.5,368.3,309.5,362.8z M335.8,362.6c9.7,0,19.3,0,28.9,0c0,5.4,0,10.9,0,16.3
	c-1.6,0-3.1,0-4.7,0c-8.1-0.1-16.2-0.1-24.3,0C335.8,373.5,335.8,368.1,335.8,362.6z M335.8,361.8c0-5.4,0-10.8,0-16.3
	c9.6,0,19.3,0,28.9,0c0,5.4,0,10.8,0,16.2C355.1,361.7,345.4,361.7,335.8,361.8z M335.8,344.7c0-5.4,0-10.8,0-16.2
	c9.6,0,19.3,0,28.9,0c0,5.4,0,10.8,0,16.2C355.1,344.6,345.4,344.6,335.8,344.7z M335.8,327.6c0-5.7,0-11.4,0-17.1
	c9.6,0,19.3,0,28.9,0c0,5.7,0,11.4,0,17C355.1,327.6,345.4,327.6,335.8,327.6z M335.8,309.7c0-6.4,0-12.8,0-19.2c7,0,14,0,21.1,0
	c2.6,0,5.2,0,7.8,0c0,6.4,0,12.8,0,19.2C355.1,309.7,345.4,309.7,335.8,309.7z M334.9,309.7c-8.5,0-16.9,0-25.4,0
	c0-6.4,0-12.8,0-19.2c8.4,0,16.9,0,25.4,0C335,296.9,334.9,303.3,334.9,309.7z M308.7,309.7c-8,0-16,0-24,0c0-5.4,0-10.9,0-16.3
	c0-1,0-2,0-2.9c8,0,16,0,24,0C308.7,296.9,308.7,303.3,308.7,309.7z M283.9,309.7c-8,0-16,0-24,0c0.1-5.5,0.1-10.9,0-16.4
	c0-1,0-2,0-2.9c8,0,16,0,23.9,0c0,1,0,1.9,0,2.9C284,298.8,284,304.3,283.9,309.7z M259.1,309.7c-7.4,0-14.8,0-22.2,0
	c0.1-5.6,0.1-11.2-0.1-16.8c0-0.8,0-1.7,0-2.5c7.4,0,14.8,0,22.2,0c0,1,0,2,0,2.9C259.2,298.8,259.2,304.3,259.1,309.7z M236,310.6
	c-0.1,5.7-0.3,11.5-0.6,17.2c-7.4,0-14.8,0.1-22.3,0.1c0.3-5.8,0.5-11.6,0.6-17.3C221.2,310.7,228.6,310.7,236,310.6z M235.4,328.7
	c-0.3,5.5-0.6,11.1-1,16.7c-7.5,0.1-14.9,0.2-22.4,0.3c0.5-5.7,0.8-11.3,1.1-16.9C220.5,328.8,227.9,328.8,235.4,328.7z
	 M234.3,346.3c-0.4,5.5-0.8,11-1.3,16.6c-7.5,0.1-15,0.3-22.6,0.4c0.5-5.6,1-11.2,1.5-16.7C219.4,346.5,226.8,346.4,234.3,346.3z
	 M232.9,363.7c-0.5,5.9-1,11.8-1.6,17.8c0,0.3-0.1,0.6-0.1,0.9c-7.6,0.4-15.2,0.8-22.9,1.2c0.7-6.6,1.3-13.1,2-19.5
	C217.9,364,225.4,363.8,232.9,363.7z M232,383.3c7.9-0.4,15.8-0.8,23.7-1.1c-0.3,4.7-0.6,9.5-0.9,14.3c-8,0.5-16,0.9-24,1.4
	C231.2,393,231.6,388.1,232,383.3z M256.5,382.1c8.3-0.4,16.5-0.7,24.7-1c-0.2,4.7-0.5,9.3-0.7,14c-8.3,0.4-16.5,0.8-24.9,1.3
	C255.9,391.6,256.2,386.8,256.5,382.1z M282.1,381c8.9-0.3,17.7-0.6,26.5-0.8c0,4.6,0,9.2-0.1,13.8c-9,0.3-18.1,0.6-27.2,1
	C281.6,390.4,281.8,385.7,282.1,381z M309.4,380.2c8.5-0.2,17-0.4,25.5-0.4c0,4.6,0,9.1,0,13.7c-8.5,0.1-17,0.3-25.5,0.5
	C309.4,389.4,309.4,384.8,309.4,380.2z M335.8,379.8c8.1-0.1,16.2-0.1,24.3,0c1.6,0,3.1,0,4.7,0c0,4.6,0,9.1,0,13.7
	c-1.6,0-3.1,0-4.7,0c-8.1-0.1-16.2-0.1-24.3,0C335.7,388.9,335.7,384.3,335.8,379.8z M365.6,379.7c9.7,0,19.3,0,28.9,0.2
	c0,4.6,0,9.1,0,13.7c-9.7-0.2-19.3-0.2-29-0.2C365.6,388.9,365.6,384.3,365.6,379.7z M365.6,378.9c0-5.4,0-10.9,0-16.3
	c9.6,0,19.3,0,28.9,0.1c0,5.4,0,10.9,0,16.3C384.9,378.9,375.2,378.8,365.6,378.9z M365.6,361.7c0-5.4,0-10.8,0-16.2
	c9.6,0,19.3,0,28.9,0.1c0,5.4,0,10.8,0,16.3C384.8,361.8,375.2,361.7,365.6,361.7z M365.6,344.6c0-5.4,0-10.8,0-16.2
	c9.6,0,19.2,0,28.9,0c0,5.4,0,10.8,0,16.3C384.8,344.7,375.2,344.7,365.6,344.6z M365.6,327.6c0-5.7,0-11.4,0-17
	c9.6,0,19.2,0,28.9,0c0,5.7,0,11.4,0,17.1C384.8,327.6,375.2,327.6,365.6,327.6z M365.6,309.7c0-6.4,0-12.8,0-19.2
	c9.6,0,19.2,0,28.9,0c0,6.4,0,12.8,0,19.2C384.8,309.7,375.2,309.7,365.6,309.7z M365.6,289.6c0-6.7,0-13.4,0-20.2
	c9.6,0,19.2,0,28.9,0c0,6.7,0,13.5,0,20.2C384.8,289.6,375.2,289.6,365.6,289.6z M364.7,289.6c-9.6,0-19.3,0-28.9,0
	c0-6.7,0-13.4,0-20.2c8.1,0,16.2,0,24.2,0c1.6,0,3.1,0,4.7,0C364.7,276.1,364.7,282.9,364.7,289.6z M335,289.6c-8.5,0-16.9,0-25.4,0
	c0-6.7,0-13.5,0-20.2c8.5,0,16.9,0,25.4,0C334.9,276.1,334.9,282.9,335,289.6z M308.7,289.6c-8,0-16,0-24,0c0.1-6.8,0-13.5-0.1-20.2
	c8,0,16,0,24.1,0C308.7,276.1,308.7,282.9,308.7,289.6z M283.9,289.6c-8,0-16,0-23.9,0c0.1-6.8,0-13.5-0.1-20.3c8,0,16,0,24,0
	C283.9,276.1,284,282.8,283.9,289.6z M259.1,289.6c-7.4,0-14.8,0-22.2,0c0.1-6.8,0-13.5-0.2-20.3c7.4,0,14.9,0,22.3,0.1
	C259.1,276.1,259.2,282.8,259.1,289.6z M236,289.6c-7.4,0-14.8,0-22.2,0c0.1-6.8,0-13.5-0.2-20.4c7.4,0,14.9,0,22.3,0.1
	C236.1,276,236.1,282.8,236,289.6z M212.9,289.6c-6.6,0-13.1,0-19.7,0c0.1-6.8,0-13.6-0.4-20.4c6.6,0,13.2,0,19.8,0.1
	C212.9,276,213,282.8,212.9,289.6z M212.9,310.7c-0.1,5.7-0.3,11.5-0.6,17.3c-6.6,0-13.2,0.1-19.8,0.1c0.4-5.8,0.7-11.6,0.8-17.4
	C199.8,310.7,206.4,310.7,212.9,310.7z M212.2,328.9c-0.3,5.6-0.7,11.2-1.2,16.9c-6.7,0.1-13.4,0.2-20.1,0.3
	c0.6-5.7,1.1-11.4,1.4-17.1C199,328.9,205.6,328.9,212.2,328.9z M211,346.6c-0.4,5.5-0.9,11.1-1.5,16.7c-6.8,0.1-13.7,0.3-20.5,0.5
	c0.7-5.7,1.3-11.3,1.9-16.8C197.6,346.8,204.3,346.7,211,346.6z M209.4,364.2c-0.6,6.4-1.3,13-2,19.5c-0.9,0-1.8,0.1-2.7,0.1
	c-6.1,0.3-12.3,0.6-18.4,1c0.9-6.8,1.7-13.5,2.5-20.2C195.8,364.5,202.6,364.3,209.4,364.2z M198.2,400.8c2.5-0.2,5.1-0.3,7.6-0.5
	c-0.5,5.2-1,10.4-1.5,15.8c-4.8,0.4-9.5,0.8-14.3,1.3c-2.6,0.2-5.2,0.5-7.8,0.7c0.7-5.5,1.4-11,2-16.3
	C188.9,401.4,193.6,401.1,198.2,400.8z M206.7,400.3c7.8-0.5,15.5-1,23.1-1.5c-0.4,5-0.9,10.1-1.2,15.2c-7.8,0.7-15.6,1.3-23.4,2
	C205.6,410.7,206.1,405.4,206.7,400.3z M230.7,398.7c8.1-0.5,16.1-1,24.1-1.4c-0.3,4.9-0.6,9.7-0.8,14.6c-8.1,0.6-16.3,1.3-24.5,2
	C229.8,408.8,230.2,403.8,230.7,398.7z M255.6,397.3c8.3-0.5,16.6-0.9,24.9-1.3c-0.2,4.7-0.4,9.4-0.6,14.2
	c-8.3,0.5-16.7,1.1-25.1,1.7C255,407,255.3,402.1,255.6,397.3z M281.3,395.9c9.1-0.4,18.2-0.8,27.2-1c0,4.6,0,9.2-0.1,13.8
	c-9.2,0.4-18.5,0.8-27.8,1.4C280.9,405.4,281.1,400.6,281.3,395.9z M309.4,394.9c8.5-0.3,17-0.4,25.5-0.5c0,4.6,0,9.1,0,13.7
	c-8.5,0.1-17,0.3-25.5,0.7C309.3,404.1,309.4,399.5,309.4,394.9z M335.7,394.3c8.1-0.1,16.2-0.1,24.3,0c1.6,0,3.1,0,4.7,0
	c0,4.6,0,9.1,0,13.7c-2.1,0-4.3,0-6.4,0c-7.5-0.1-15.1-0.1-22.6,0C335.7,403.4,335.7,398.9,335.7,394.3z M365.6,394.3
	c9.7-0.1,19.3,0,29,0.2c0,4.6,0,9.2,0,13.8c-9.7-0.3-19.3-0.4-29-0.3C365.6,403.4,365.6,398.8,365.6,394.3z M395.4,394.5
	c10.6,0.2,21.1,0.5,31.7,0.9c0.2,4.7,0.4,9.5,0.5,14.2c-10.8-0.6-21.5-1-32.2-1.3C395.4,403.7,395.4,399.1,395.4,394.5z
	 M395.4,393.6c0-4.6,0-9.2,0-13.7c10.4,0.2,20.7,0.4,31.1,0.8c0.2,4.6,0.4,9.3,0.6,13.9C416.5,394.1,405.9,393.8,395.4,393.6z
	 M395.3,361.8c0-5.4,0-10.8,0-16.3c9.9,0,19.8,0.1,29.7,0.2c0.2,5.4,0.4,10.8,0.7,16.3C415.6,361.9,405.4,361.9,395.3,361.8z
	 M395.3,344.7c0-5.4,0-10.8,0-16.3c9.7,0,19.5,0,29.2,0.1c0.1,5.4,0.3,10.9,0.5,16.4C415.1,344.8,405.2,344.7,395.3,344.7z
	 M395.3,327.6c0-5.7,0-11.4,0-17.1c9.6,0,19.3,0,28.9,0c0,5.7,0.1,11.4,0.3,17.1C414.8,327.6,405,327.6,395.3,327.6z M395.3,289.6
	c0-6.7,0-13.4,0-20.2c9.7,0,19.3,0,29,0c-0.1,6.7-0.1,13.5-0.1,20.2C414.6,289.6,404.9,289.6,395.3,289.6z M395.3,268.6
	c0-7.1,0-14.3,0-21.4c9.8,0,19.7-0.1,29.5-0.1c-0.2,7.2-0.4,14.3-0.5,21.5C414.6,268.5,404.9,268.6,395.3,268.6z M394.4,268.6
	c-9.6,0-19.2,0-28.9,0c0-7.1,0-14.3,0-21.4c9.6,0,19.3,0,28.9,0C394.4,254.3,394.4,261.4,394.4,268.6z M364.7,268.6
	c-9.6,0-19.3,0-28.9,0c0-7.1,0-14.3,0-21.4c8.1,0,16.2,0,24.2,0c1.6,0,3.1,0,4.7,0C364.7,254.3,364.7,261.4,364.7,268.6z
	 M334.9,268.6c-8.5,0-16.9,0-25.4,0c0-7.1,0-14.3,0-21.4c8.5,0,16.9,0,25.4,0.1C334.9,254.3,334.9,261.4,334.9,268.6z M308.7,268.5
	c-8,0-16,0-24.1,0c-0.1-7.1-0.3-14.3-0.6-21.5c8.2,0,16.4,0.1,24.7,0.1C308.7,254.2,308.7,261.4,308.7,268.5z M283.8,268.5
	c-8,0-16,0-24,0c-0.2-7.2-0.4-14.4-0.8-21.6c8,0,16.1,0.1,24.1,0.1C283.5,254.2,283.7,261.4,283.8,268.5z M259,268.5
	c-7.4,0-14.8,0-22.3-0.1c-0.2-7.2-0.6-14.4-1.1-21.7c7.5,0.1,15,0.1,22.6,0.2C258.5,254.1,258.8,261.3,259,268.5z M235.8,268.4
	c-7.4,0-14.9,0-22.3-0.1c-0.3-7.2-0.7-14.5-1.2-21.8c7.5,0.1,15,0.1,22.5,0.2C235.2,254,235.6,261.2,235.8,268.4z M212.7,268.3
	c-6.6,0-13.2,0-19.8-0.1c-0.3-7.3-0.9-14.6-1.6-22c6.7,0.1,13.4,0.1,20.1,0.2C212,253.8,212.4,261.1,212.7,268.3z M192.1,268.3
	c-6.3,0-12.6,0-18.9-0.1c-0.4-7.3-1-14.6-1.8-22.1c6.4,0.1,12.7,0.1,19.1,0.2C191.2,253.7,191.7,261,192.1,268.3z M192.1,269.1
	c0.3,6.8,0.4,13.6,0.3,20.4c-6.3,0-12.6,0-18.8,0c0.1-6.8,0-13.6-0.4-20.5C179.5,269.1,185.8,269.1,192.1,269.1z M192.4,310.8
	c-0.1,5.8-0.4,11.5-0.8,17.4c-6.3,0-12.7,0.1-19,0.1c0.4-5.9,0.8-11.7,0.9-17.4C179.8,310.8,186.1,310.8,192.4,310.8z M191.6,329
	c-0.4,5.6-0.9,11.3-1.4,17.1c-6.4,0.1-12.8,0.2-19.2,0.3c0.7-5.8,1.2-11.6,1.7-17.3C178.9,329.1,185.2,329,191.6,329z M190,346.9
	c-0.6,5.5-1.2,11.1-1.9,16.8c-6.5,0.2-13,0.3-19.5,0.5c0.8-5.7,1.5-11.4,2.2-17C177.2,347.2,183.6,347,190,346.9z M188,364.6
	c-0.8,6.6-1.7,13.3-2.5,20.2c-6.6,0.3-13.3,0.7-20,1c1.1-7.1,2.1-14,3-20.7C175,364.9,181.5,364.8,188,364.6z M185.4,385.7
	c-0.2,1.5-0.4,3.1-0.6,4.7c-0.5,3.5-0.9,7-1.4,10.6c-6.8,0.4-13.5,0.9-20.4,1.3c0.4-2.7,0.8-5.4,1.2-8.1c0.4-2.5,0.7-5,1.1-7.5
	C172.1,386.4,178.8,386,185.4,385.7z M183.3,401.8c-0.7,5.3-1.4,10.8-2,16.3c-6.9,0.6-13.8,1.2-20.8,1.8c0.8-5.7,1.6-11.4,2.5-16.9
	C169.7,402.7,176.5,402.2,183.3,401.8z M181.2,419c-0.6,5.2-1.2,10.5-1.8,15.9c-7,0.8-14.1,1.6-21.3,2.4c0.7-5.6,1.5-11.1,2.2-16.5
	C167.3,420.2,174.3,419.6,181.2,419z M182,418.9c2.7-0.2,5.3-0.5,8-0.7c4.7-0.4,9.5-0.8,14.2-1.3c-0.5,5-0.9,10.1-1.3,15.2
	c-6.1,0.7-12.3,1.4-18.5,2.1c-1.4,0.2-2.8,0.3-4.2,0.5C180.8,429.4,181.4,424.1,182,418.9z M205.1,416.9c7.9-0.7,15.7-1.4,23.4-2
	c-0.4,4.8-0.7,9.7-1,14.6c-7.8,0.8-15.7,1.7-23.7,2.6C204.2,426.9,204.6,421.9,205.1,416.9z M229.4,414.8c8.2-0.7,16.4-1.4,24.5-2
	c-0.2,4.6-0.5,9.3-0.7,14c-8.2,0.8-16.5,1.6-24.8,2.5C228.6,424.4,229,419.6,229.4,414.8z M254.7,412.7c8.4-0.6,16.8-1.2,25.1-1.7
	c-0.2,4.5-0.3,9-0.5,13.5c-8.4,0.7-16.8,1.4-25.3,2.2C254.2,422,254.4,417.4,254.7,412.7z M280.6,411c9.3-0.6,18.6-1,27.8-1.4
	c0,4.3,0,8.7-0.1,13.1c-9.4,0.5-18.8,1.1-28.2,1.8C280.3,419.9,280.5,415.4,280.6,411z M309.3,409.5c8.5-0.3,17-0.6,25.5-0.7
	c0,4.3,0,8.6,0,12.9c-8.5,0.1-17,0.4-25.6,0.9C309.3,418.2,309.3,413.9,309.3,409.5z M335.7,408.9c7.5-0.1,15.1-0.1,22.6,0
	c2.1,0,4.3,0,6.4,0c0,4.3,0,8.6,0,12.8c-2.1,0-4.3,0-6.4,0.1c-7.5-0.1-15.1-0.1-22.6,0C335.7,417.4,335.7,413.1,335.7,408.9z
	 M365.6,408.8c9.7,0,19.3,0.1,29,0.3c0,4.3,0,8.6,0,12.9c-9.7-0.3-19.4-0.5-29-0.4C365.6,417.3,365.6,413.1,365.6,408.8z
	 M395.4,409.2c10.7,0.3,21.5,0.8,32.3,1.3c0.1,4.4,0.3,8.9,0.4,13.3c-10.9-0.8-21.8-1.4-32.6-1.7
	C395.5,417.8,395.5,413.5,395.4,409.2z M428.5,410.5c11.4,0.6,22.8,1.4,34.3,2.3c0.2,4.6,0.5,9.3,0.7,14
	c-11.6-1.1-23.1-2.1-34.6-2.9C428.8,419.4,428.7,415,428.5,410.5z M428.5,409.7c-0.2-4.8-0.3-9.5-0.5-14.2c11.3,0.5,22.6,1,33.9,1.6
	c0.3,4.9,0.6,9.9,0.9,14.8C451.3,411.1,439.9,410.3,428.5,409.7z M428,394.6c-0.2-4.7-0.4-9.3-0.6-13.9c11.1,0.4,22.3,0.8,33.6,1.3
	c0.3,4.7,0.6,9.5,0.9,14.2C450.5,395.6,439.2,395.1,428,394.6z M427.3,379.8c-0.1-1.7-0.1-3.3-0.2-5c-0.2-4-0.3-8-0.5-11.9
	c11,0.1,22.1,0.2,33.2,0.4c0.3,5.2,0.7,10.4,1,15.7c0,0.7,0.1,1.4,0.1,2.1C449.6,380.6,438.5,380.2,427.3,379.8z M426.6,362
	c-0.2-5.5-0.5-10.9-0.7-16.3c10.9,0.1,21.9,0.2,32.9,0.3c0.3,5.4,0.6,10.9,1,16.4C448.6,362.3,437.6,362.2,426.6,362z M425.9,344.9
	c-0.2-5.5-0.4-10.9-0.5-16.4c10.9,0,21.7,0.1,32.6,0.1c0.2,5.5,0.4,11,0.7,16.5C447.7,345,436.8,344.9,425.9,344.9z M425.3,327.6
	c-0.1-5.7-0.2-11.4-0.3-17.1c10.8,0,21.7,0,32.5,0c0.1,5.7,0.2,11.4,0.4,17.2C447.1,327.7,436.2,327.7,425.3,327.6z M425.1,289.6
	c-0.1-6.8,0-13.5,0.1-20.2c10.8,0,21.7,0,32.6-0.1c-0.2,6.8-0.2,13.5-0.1,20.2C446.7,289.6,435.9,289.6,425.1,289.6z M425.1,268.5
	c0.1-7.1,0.3-14.3,0.5-21.5c10.9,0,21.9-0.1,32.8-0.2c-0.4,7.2-0.6,14.4-0.8,21.6C446.8,268.5,436,268.5,425.1,268.5z M425.7,246.2
	c0.2-7.1,0.5-14.3,0.8-21.5c11.1-0.1,22.1-0.2,33.2-0.4c-0.5,7.3-0.9,14.6-1.2,21.7C447.6,246.1,436.6,246.1,425.7,246.2z
	 M424.8,246.2c-9.8,0-19.7,0.1-29.5,0.1c0-7.1,0-14.2,0-21.4c10.1,0,20.2-0.1,30.3-0.2C425.4,231.9,425.1,239.1,424.8,246.2z
	 M394.5,246.3c-9.6,0-19.3,0-28.9,0c0-7.1,0-14.2,0-21.3c9.6,0,19.3,0,28.9-0.1C394.5,232,394.5,239.2,394.5,246.3z M364.7,246.3
	c-9.6,0-19.3,0-28.9,0c0-7.1,0-14.2,0-21.4c8.1,0,16.2,0,24.3,0c1.6,0,3.1,0,4.7,0C364.7,232.1,364.7,239.2,364.7,246.3z
	 M334.9,246.3c-8.5,0-16.9,0-25.4-0.1c0-7.1,0-14.3-0.1-21.4c8.5,0.1,17,0.1,25.4,0.1C334.9,232.1,334.9,239.2,334.9,246.3z
	 M308.7,246.2c-8.2,0-16.5-0.1-24.7-0.1c-0.3-7.1-0.6-14.3-1-21.6c8.6,0.1,17.1,0.2,25.6,0.2C308.7,232,308.7,239.1,308.7,246.2z
	 M283.1,246.1c-8,0-16.1-0.1-24.1-0.1c-0.3-7.2-0.8-14.4-1.2-21.8c8.1,0.1,16.3,0.2,24.4,0.3C282.5,231.8,282.9,239,283.1,246.1z
	 M258.1,246c-7.5,0-15-0.1-22.6-0.2c-0.5-7.3-1-14.6-1.7-22c7.7,0.1,15.4,0.3,23,0.4C257.4,231.6,257.8,238.8,258.1,246z
	 M234.7,245.8c-7.5-0.1-15-0.1-22.5-0.2c-0.5-7.3-1.2-14.7-1.9-22.2c7.6,0.2,15.2,0.3,22.7,0.4C233.7,231.3,234.2,238.6,234.7,245.8
	z M211.4,245.7c-6.7-0.1-13.4-0.1-20.1-0.2c-0.7-7.4-1.5-14.9-2.4-22.5c6.9,0.2,13.8,0.3,20.6,0.5
	C210.2,230.9,210.8,238.3,211.4,245.7z M190.4,245.5c-6.4-0.1-12.7-0.1-19.1-0.2c-0.8-7.5-1.8-15-2.8-22.8c6.5,0.2,13,0.3,19.5,0.5
	C188.9,230.6,189.7,238.1,190.4,245.5z M170.5,245.2c-6.1-0.1-12.3-0.1-18.4-0.2c-0.9-7.6-2.1-15.2-3.3-23.1
	c6.3,0.2,12.6,0.4,18.9,0.5C168.7,230.2,169.7,237.8,170.5,245.2z M170.5,246.1c0.8,7.5,1.4,14.8,1.8,22.1c-6,0-12,0-18.1-0.1
	c-0.5-7.3-1.2-14.7-2.1-22.2C158.3,246,164.4,246,170.5,246.1z M172.4,269.1c0.4,6.9,0.5,13.7,0.4,20.5c-6,0-12,0-18,0
	c0.1-6.8-0.1-13.6-0.5-20.5C160.3,269,166.4,269,172.4,269.1z M172.7,310.8c-0.2,5.8-0.5,11.6-0.9,17.5c-6.1,0-12.1,0.1-18.2,0.1
	c0.5-5.9,0.9-11.7,1.1-17.5C160.7,310.9,166.7,310.8,172.7,310.8z M171.7,329.1c-0.5,5.7-1,11.5-1.7,17.3
	c-6.2,0.1-12.3,0.2-18.5,0.4c0.8-5.9,1.4-11.7,2-17.5C159.6,329.2,165.6,329.2,171.7,329.1z M169.9,347.3c-0.6,5.6-1.4,11.2-2.2,17
	c-6.3,0.2-12.6,0.3-18.9,0.5c0.9-5.8,1.8-11.5,2.5-17.1C157.6,347.5,163.7,347.4,169.9,347.3z M167.6,365.1
	c-0.9,6.8-1.9,13.6-3,20.7c-6.5,0.3-12.9,0.6-19.4,0.9c1.3-7.2,2.5-14.2,3.6-21.1C155.1,365.5,161.3,365.3,167.6,365.1z
	 M164.5,386.7c-0.4,2.4-0.7,4.8-1.1,7.3c-0.4,2.7-0.8,5.5-1.2,8.3c-6.6,0.4-13.3,0.8-19.9,1.2c0.3-1.7,0.6-3.5,0.9-5.2
	c0.6-3.6,1.3-7.2,1.9-10.7C151.6,387.3,158,387,164.5,386.7z M162,403.2c-0.8,5.5-1.7,11.2-2.5,16.9c-6.8,0.6-13.6,1.2-20.5,1.7
	c1-5.9,2-11.7,3-17.4C148.8,404,155.4,403.6,162,403.2z M159.5,420.9c-0.8,5.4-1.5,10.9-2.2,16.5c-7,0.8-14,1.6-21.1,2.3
	c0.9-5.8,1.9-11.5,2.8-17.1C145.8,422.1,152.6,421.5,159.5,420.9z M157.1,438.3c-0.7,5.5-1.4,11.1-2,16.8c-7.2,1-14.4,2.1-21.7,3.1
	c0.9-6,1.7-11.9,2.6-17.6C143.1,439.9,150.1,439.1,157.1,438.3z M158,438.2c7.1-0.8,14.2-1.6,21.3-2.4c-0.6,5.3-1.1,10.6-1.6,16.1
	c-7.2,1.1-14.4,2.1-21.7,3.2C156.6,449.3,157.3,443.7,158,438.2z M180.1,435.7c1.5-0.2,2.9-0.3,4.4-0.5c6.2-0.7,12.3-1.4,18.3-2.1
	c-0.4,5-0.7,10.1-1.1,15.2c-6.5,0.9-13,1.9-19.5,2.9c-1.2,0.2-2.5,0.4-3.7,0.5C179,446.3,179.6,440.9,180.1,435.7z M203.7,432.9
	c7.9-0.9,15.8-1.8,23.7-2.6c-0.3,4.8-0.6,9.6-0.8,14.4c-7.9,1.1-15.9,2.2-24,3.4C203,443,203.3,437.9,203.7,432.9z M228.3,430.2
	c8.3-0.9,16.6-1.8,24.9-2.5c-0.2,4.5-0.4,9.1-0.5,13.7c-8.3,1-16.7,2.1-25.2,3.3C227.7,439.8,228,435,228.3,430.2z M254,427.6
	c8.5-0.8,16.9-1.6,25.3-2.2c-0.1,4.3-0.2,8.6-0.3,13c-8.4,0.9-16.9,1.8-25.5,2.9C253.6,436.6,253.8,432.1,254,427.6z M280.1,425.3
	c9.5-0.7,18.9-1.3,28.3-1.8c0,4.1,0,8.3-0.1,12.4c-9.5,0.6-19,1.4-28.5,2.4C279.9,433.9,280,429.6,280.1,425.3z M309.2,423.4
	c8.6-0.4,17.1-0.7,25.6-0.9c0,4,0,8,0,12.1c-8.5,0.2-17.1,0.6-25.6,1.2C309.2,431.7,309.2,427.6,309.2,423.4z M335.7,422.6
	c7.6-0.1,15.1-0.1,22.6,0c2.1,0,4.3,0,6.4-0.1c0,4,0,8,0,12c-1.4,0-2.8,0-4.3,0.1c-8.3-0.2-16.5-0.1-24.8,0.1
	C335.7,430.6,335.7,426.6,335.7,422.6z M365.6,422.5c9.7-0.1,19.3,0.1,29,0.4c0,4,0,8,0,12c-9.7-0.4-19.4-0.6-29.1-0.5
	C365.6,430.5,365.6,426.5,365.6,422.5z M395.5,422.9c10.8,0.4,21.7,1,32.6,1.7c0.1,4.1,0.2,8.2,0.2,12.4c-11-0.9-21.9-1.7-32.8-2.1
	C395.5,430.9,395.5,426.9,395.5,422.9z M429,424.7c11.5,0.8,23,1.8,34.6,2.9c0.2,4.4,0.3,8.7,0.5,13.1c-11.7-1.4-23.3-2.6-34.8-3.6
	C429.1,433,429.1,428.9,429,424.7z M464.4,427.7c11.8,1.1,23.6,2.4,35.6,3.7c0.3,4.7,0.6,9.4,0.9,14.2c-12.1-1.7-24.1-3.3-36-4.8
	C464.7,436.5,464.6,432.1,464.4,427.7z M464.4,426.9c-0.2-4.7-0.4-9.4-0.7-14c11.6,0.9,23.3,1.9,35.1,2.9c0.4,4.9,0.8,9.9,1.1,14.9
	C488,429.3,476.1,428,464.4,426.9z M463.6,412c-0.3-5-0.6-9.9-0.9-14.9c11.4,0.6,22.9,1.3,34.6,2.1c0.5,5.2,0.9,10.4,1.4,15.7
	C486.9,413.9,475.2,412.9,463.6,412z M461.8,381.2c0-0.7-0.1-1.5-0.1-2.2c-0.3-5.3-0.7-10.5-1-15.7c11.1,0.2,22.3,0.3,33.5,0.5
	c0.6,6.3,1.1,12.6,1.7,19C484.4,382.2,473,381.7,461.8,381.2z M460.6,362.4c-0.3-5.5-0.7-11-1-16.4c11,0.1,22,0.2,33,0.4
	c0.4,5.5,0.9,11,1.4,16.6C482.8,362.8,471.7,362.6,460.6,362.4z M459.6,345.2c-0.3-5.5-0.5-11-0.7-16.5c10.9,0,21.8,0.1,32.7,0.2
	c0.3,5.6,0.6,11.1,1.1,16.8C481.6,345.4,470.6,345.3,459.6,345.2z M458.8,327.8c-0.2-5.7-0.3-11.5-0.4-17.2c10.8,0,21.7,0,32.5,0.1
	c0.1,5.7,0.3,11.5,0.6,17.2C480.6,327.9,469.7,327.8,458.8,327.8z M458.4,289.6c-0.1-6.8,0-13.5,0.1-20.3c10.8,0,21.7,0,32.6-0.1
	c-0.2,6.8-0.3,13.6-0.2,20.3C480.1,289.6,469.2,289.6,458.4,289.6z M458.6,268.5c0.2-7.2,0.4-14.4,0.8-21.6
	c11-0.1,21.9-0.1,32.9-0.2c-0.5,7.3-0.9,14.5-1.1,21.7C480.3,268.4,469.4,268.4,458.6,268.5z M459.4,246c0.4-7.2,0.8-14.4,1.2-21.7
	c11.1-0.2,22.3-0.3,33.5-0.5c-0.7,7.4-1.3,14.8-1.8,22.1C481.3,245.9,470.4,246,459.4,246z M460.7,223.4c0.3-4.9,0.6-9.8,0.9-14.8
	c0.2-3.1,0.4-6.3,0.6-9.4c11.3-0.6,22.8-1.2,34.3-1.9c-0.2,2.1-0.4,4.3-0.6,6.4c-0.6,6.5-1.2,12.9-1.8,19.2
	C483,223.1,471.8,223.3,460.7,223.4z M460.8,208.5c-0.3,5-0.6,10-1,14.9c-11.1,0.2-22.2,0.3-33.3,0.4c0.2-4.2,0.4-8.5,0.6-12.8
	c0.2-3.4,0.3-6.9,0.5-10.3c11.2-0.4,22.5-0.9,33.8-1.5C461.2,202.3,461,205.4,460.8,208.5z M426.3,211c-0.2,4.3-0.4,8.6-0.6,12.8
	c-10.1,0.1-20.2,0.2-30.4,0.2c0-7.5,0-14.9,0-22.4c10.4-0.2,20.9-0.5,31.3-0.9C426.6,204.2,426.4,207.6,426.3,211z M394.5,224
	c-9.6,0-19.3,0.1-28.9,0.1c0-7.4,0-14.8,0-22.3c1.6,0,3.2,0,4.8,0c8.1,0,16.1-0.1,24.1-0.2C394.5,209.1,394.5,216.6,394.5,224z
	 M364.7,224.1c-9.6,0-19.3,0-28.9,0c0-7.4,0-14.8,0-22.3c7.5,0.1,15,0.1,22.6,0c2.1,0,4.3,0,6.4,0
	C364.7,209.3,364.7,216.7,364.7,224.1z M334.9,224.1c-8.5,0-16.9-0.1-25.4-0.1c0-7.5,0-15-0.1-22.6c8.5,0.2,17,0.4,25.5,0.4
	C334.9,209.2,334.9,216.7,334.9,224.1z M308.6,223.9c-8.5-0.1-17.1-0.1-25.7-0.2c-0.2-4.3-0.4-8.7-0.7-13.1
	c-0.2-3.4-0.3-6.8-0.5-10.2c8.9,0.4,17.9,0.7,26.8,0.9C308.6,208.9,308.6,216.4,308.6,223.9z M281.5,210.6c0.2,4.4,0.5,8.7,0.7,13.1
	c-8.1-0.1-16.2-0.2-24.4-0.3c-0.3-5.1-0.6-10.3-1-15.5c-0.2-2.9-0.4-5.8-0.6-8.7c8.3,0.4,16.5,0.8,24.7,1.2
	C281.1,203.8,281.3,207.2,281.5,210.6z M255.9,208c0.3,5.2,0.7,10.3,1,15.4c-7.7-0.1-15.4-0.2-23-0.4c-0.5-6.2-1.1-12.5-1.7-18.8
	c-0.2-2.1-0.4-4.2-0.6-6.3c8,0.4,15.9,0.9,23.7,1.3C255.5,202.1,255.7,205.1,255.9,208z M231.3,204.3c0.6,6.3,1.1,12.5,1.6,18.7
	c-7.6-0.1-15.1-0.3-22.7-0.4c-0.7-7-1.4-14-2.1-21.1c-0.2-1.6-0.3-3.3-0.5-5c7.8,0.5,15.5,0.9,23.1,1.3
	C230.9,200,231.1,202.2,231.3,204.3z M207.3,201.6c0.7,7.1,1.4,14.1,2.1,21c-6.9-0.1-13.8-0.3-20.7-0.5c-1-7.9-2-16-3.1-24.1
	c-0.1-0.9-0.2-1.8-0.4-2.7c5,0.3,9.9,0.6,14.9,0.9c2.2,0.1,4.4,0.3,6.6,0.4C206.9,198.2,207.1,199.9,207.3,201.6z M184.8,198.1
	c1.1,8.2,2.1,16.2,3.1,24c-6.5-0.2-13-0.3-19.5-0.5c-1.2-8.9-2.6-18.1-4-27.6c6.7,0.4,13.4,0.8,20.1,1.1
	C184.5,196.1,184.7,197.1,184.8,198.1z M147.7,221c-6.2-0.2-12.5-0.4-18.8-0.6c-1.7-9.2-3.5-18.7-5.5-28.5c6.5,0.3,13,0.6,19.5,0.9
	C144.6,202.6,146.3,211.9,147.7,221z M147.9,221.9c1.3,7.9,2.4,15.6,3.3,23.1c-6.1-0.1-12.2-0.2-18.3-0.2
	c-1.1-7.7-2.3-15.5-3.8-23.4C135.4,221.5,141.6,221.7,147.9,221.9z M151.3,245.9c0.9,7.5,1.6,14.9,2.1,22.3c-6,0-12-0.1-18.1-0.1
	c-0.5-7.4-1.4-14.8-2.4-22.4C139.1,245.7,145.2,245.8,151.3,245.9z M153.5,269c0.4,6.9,0.6,13.7,0.5,20.5c-6,0-12,0-18,0
	c0.1-6.8-0.1-13.7-0.6-20.6C141.4,268.9,147.5,269,153.5,269z M153.8,310.9c-0.2,5.8-0.6,11.6-1.1,17.5c-6,0.1-12.1,0.1-18.2,0.2
	c0.6-5.9,1-11.8,1.3-17.6C141.8,310.9,147.8,310.9,153.8,310.9z M152.6,329.3c-0.5,5.8-1.2,11.6-2,17.5c-6.1,0.1-12.3,0.3-18.4,0.4
	c0.9-6,1.6-11.9,2.2-17.8C140.5,329.4,146.6,329.3,152.6,329.3z M150.5,347.7c-0.8,5.6-1.6,11.3-2.5,17.1
	c-6.2,0.2-12.5,0.4-18.8,0.6c1-5.9,2-11.6,2.8-17.3C138.3,347.9,144.4,347.8,150.5,347.7z M147.9,365.7c-1.1,6.9-2.3,13.9-3.6,21.1
	c-6.4,0.3-12.8,0.5-19.3,0.8c1.4-7.3,2.8-14.4,4-21.3C135.4,366,141.6,365.9,147.9,365.7z M144.2,387.7c-0.6,3.5-1.2,7-1.8,10.5
	c-0.3,1.8-0.6,3.6-0.9,5.4c-6.5,0.4-13.1,0.7-19.7,1.1c0.1-0.7,0.3-1.3,0.4-2c1-4.8,1.9-9.5,2.8-14.2
	C131.3,388.2,137.8,387.9,144.2,387.7z M141.2,404.4c-1,5.7-2,11.5-3,17.5c-6.7,0.5-13.5,1.1-20.2,1.6c1.2-6.1,2.4-12.1,3.6-18
	C128.1,405.1,134.7,404.8,141.2,404.4z M138,422.7c-0.9,5.6-1.9,11.3-2.8,17.1c-6.9,0.7-13.8,1.5-20.8,2.1c1.1-6,2.2-11.9,3.4-17.7
	C124.6,423.8,131.3,423.3,138,422.7z M135.1,440.7c-0.9,5.7-1.8,11.6-2.6,17.6c-7.1,1-14.2,1.9-21.4,2.9c1.1-6.3,2.1-12.4,3.2-18.3
	C121.2,442.2,128.2,441.5,135.1,440.7z M132.3,459.2c-0.8,5.7-1.6,11.5-2.3,17.4c-7.3,1.2-14.6,2.5-22.1,3.7
	c0.9-6.2,1.9-12.3,2.9-18.3C118.1,461.2,125.2,460.2,132.3,459.2z M133.2,459.1c7.3-1,14.6-2,21.8-3.1c-0.6,5.4-1.2,10.9-1.7,16.6
	c-7.4,1.3-14.8,2.6-22.4,3.9C131.6,470.6,132.4,464.8,133.2,459.1z M155.8,455.9c7.3-1.1,14.6-2.1,21.8-3.2
	c-0.5,5.1-0.9,10.4-1.3,15.7c-7.4,1.3-14.8,2.7-22.2,4C154.7,466.8,155.2,461.3,155.8,455.9z M178.5,452.6c1.3-0.2,2.6-0.4,3.9-0.6
	c6.5-1,12.9-1.9,19.3-2.8c-0.3,4.9-0.6,9.8-0.8,14.8c-7.8,1.4-15.7,2.8-23.7,4.3C177.6,462.9,178,457.7,178.5,452.6z M202.6,449
	c8-1.2,16-2.3,24-3.4c-0.2,4.6-0.4,9.3-0.5,14c-8,1.4-16.1,2.8-24.3,4.2C202,458.8,202.3,453.9,202.6,449z M227.4,445.5
	c8.5-1.2,16.8-2.3,25.2-3.3c-0.1,4.4-0.2,8.8-0.3,13.2c-8.4,1.3-16.9,2.6-25.5,4C227,454.8,227.2,450.1,227.4,445.5z M253.5,442.1
	c8.5-1,17-2,25.5-2.9c-0.1,4.2-0.1,8.4-0.1,12.6c-8.5,1-17,2.2-25.6,3.5C253.3,450.9,253.4,446.4,253.5,442.1z M279.8,439.1
	c9.5-1,19-1.8,28.5-2.4c0,4,0,8.1-0.1,12.2c-9.5,0.7-19,1.7-28.6,2.8C279.7,447.5,279.7,443.3,279.8,439.1z M309.2,436.7
	c8.6-0.6,17.1-1,25.6-1.2c0,4,0,8,0,12c-8.5,0.2-17.1,0.7-25.7,1.4C309.1,444.8,309.1,440.7,309.2,436.7z M335.7,435.5
	c8.3-0.2,16.6-0.2,24.8-0.1c1.4,0,2.8,0,4.3-0.1c0,4,0,8,0,11.9c-2.1,0-4.3,0-6.4,0.1c-7.5-0.2-15.1-0.1-22.7,0.1
	C335.7,443.4,335.7,439.4,335.7,435.5z M365.6,435.3c9.7-0.1,19.4,0.1,29.1,0.5c0,4.1,0,8.1,0,12.2c-9.7-0.5-19.4-0.8-29.1-0.7
	C365.6,443.3,365.6,439.3,365.6,435.3z M395.5,435.8c10.9,0.5,21.8,1.2,32.8,2.1c0.1,4.3,0.1,8.5,0.1,12.8c-11-1.2-22-2.1-32.9-2.7
	C395.5,443.9,395.5,439.9,395.5,435.8z M464.9,441.8c11.9,1.4,23.9,3.1,36,4.8c0.3,4.9,0.5,9.9,0.6,15c-12.2-2.1-24.4-4.1-36.4-5.9
	C465.1,450.9,465,446.3,464.9,441.8z M501.8,446.6c12.1,1.7,24.4,3.5,36.8,5.4c1.5,0.2,3,0.4,4.5,0.7c0.5,5.4,1,10.9,1.4,16.5
	c-1.6-0.3-3.2-0.6-4.8-0.9c-12.5-2.3-24.9-4.5-37.2-6.7C502.2,456.6,502,451.6,501.8,446.6z M538.7,451.2c-12.5-1.8-24.8-3.7-37-5.4
	c-0.3-4.8-0.5-9.5-0.9-14.2c10.4,1.2,20.8,2.4,31.3,3.6c3.1,0.4,6.1,0.7,9.2,1.1c0.6,5.1,1.1,10.3,1.6,15.6
	C541.5,451.6,540.1,451.4,538.7,451.2z M532.3,434.3c-10.6-1.2-21.1-2.4-31.5-3.6c-0.3-5-0.7-10-1.1-14.9c8.9,0.8,17.9,1.6,27,2.4
	c4.2,0.4,8.5,0.8,12.7,1.1c0.6,5.2,1.3,10.6,1.9,16C538.3,435,535.3,434.7,532.3,434.3z M526.7,417.4c-9.1-0.8-18.2-1.6-27.2-2.4
	c-0.4-5.3-0.9-10.5-1.4-15.7c7.9,0.5,15.8,1,23.7,1.5c5,0.3,10.1,0.7,15.2,1c0.7,5.5,1.4,11,2.2,16.7
	C535.1,418.1,530.9,417.7,526.7,417.4z M515.3,383.8c-6.3-0.3-12.5-0.6-18.6-1c-0.6-6.4-1.2-12.7-1.7-19c12.4,0.2,24.8,0.5,37.3,0.8
	c0.8,6.6,1.7,13.3,2.6,20.2C528.3,384.5,521.8,384.2,515.3,383.8z M494.9,363c-0.5-5.6-0.9-11.1-1.4-16.6
	c12.2,0.2,24.4,0.4,36.7,0.6c0.6,5.5,1.2,11.1,1.9,16.8C519.6,363.5,507.2,363.2,494.9,363z M493.4,345.6
	c-0.4-5.6-0.8-11.2-1.1-16.8c12.1,0.1,24.1,0.1,36.2,0.2c0.4,5.7,0.9,11.3,1.5,17.1C517.8,345.9,505.6,345.7,493.4,345.6z
	 M492.3,327.9c-0.3-5.8-0.5-11.5-0.6-17.3c12,0,24,0.1,35.9,0.1c0.1,5.8,0.4,11.6,0.8,17.4C516.5,328.1,504.4,328,492.3,327.9z
	 M491.7,289.6c-0.1-6.8,0-13.5,0.2-20.3c12,0,24-0.1,36-0.1c-0.3,6.8-0.4,13.6-0.3,20.4C515.7,289.5,503.7,289.6,491.7,289.6z
	 M492,268.4c0.2-7.2,0.6-14.4,1.1-21.7c12.2-0.1,24.3-0.2,36.5-0.3c-0.7,7.4-1.3,14.7-1.6,22C516,268.3,504,268.4,492,268.4z
	 M493.2,245.8c0.5-7.3,1.1-14.6,1.8-22.1c12.4-0.2,24.8-0.5,37.3-0.8c-1,7.7-1.8,15.1-2.5,22.5C517.5,245.6,505.3,245.7,493.2,245.8
	z M495,222.9c0.6-6.3,1.2-12.7,1.8-19.1c0.2-2.2,0.4-4.3,0.6-6.5c6.4-0.4,12.7-0.7,19.2-1.1c6.4-0.4,12.9-0.8,19.3-1.1
	c-0.1,0.7-0.2,1.4-0.3,2c-1.2,8.6-2.3,17-3.3,25.1C519.8,222.4,507.4,222.6,495,222.9z M516.5,195.2c-6.4,0.4-12.7,0.8-19,1.1
	c0.8-8.5,1.6-17,2.3-25.7c9.2-0.8,18.4-1.7,27.7-2.6c4-0.4,8-0.7,12.1-1.1c-1.1,9.3-2.3,18.4-3.5,27.1
	C529.5,194.5,523,194.9,516.5,195.2z M496.6,196.4c-11.5,0.7-23,1.3-34.3,1.9c0.5-8.1,1-16.3,1.5-24.6c11.6-0.9,23.3-1.9,35.1-3
	C498.2,179.4,497.4,187.9,496.6,196.4z M461.4,198.3c-11.3,0.6-22.6,1.1-33.8,1.5c0.3-7.9,0.7-15.8,0.9-23.7
	c11.4-0.7,22.8-1.4,34.4-2.3C462.4,182,461.9,190.2,461.4,198.3z M426.7,199.9c-10.5,0.4-20.9,0.7-31.4,0.9c0-7.7,0-15.5,0.1-23.2
	c10.7-0.3,21.4-0.8,32.2-1.4C427.4,184.1,427.1,192,426.7,199.9z M394.5,200.8c-9.6,0.2-19.3,0.3-28.9,0.2c0-7.7,0-15.4,0-23.1
	c9.7,0,19.3-0.1,29-0.3C394.6,185.3,394.5,193.1,394.5,200.8z M364.7,201c-2.1,0-4.3,0-6.4,0c-7.5,0.1-15.1,0.1-22.6,0
	c0-7.7,0-15.4,0-23.1c3.8,0,7.5,0.1,11.3,0.1c3.8,0,7.5,0,11.3-0.1c2.1,0,4.3,0,6.4,0C364.7,185.6,364.7,193.3,364.7,201z
	 M334.9,201c-8.5-0.1-17-0.2-25.5-0.4c0-7.8-0.1-15.5-0.1-23.4c8.5,0.3,17,0.6,25.6,0.7C334.9,185.6,334.9,193.3,334.9,201z
	 M308.6,200.5c-8.9-0.2-17.9-0.6-26.8-0.9c-0.4-7.9-0.8-15.9-1.1-23.9c9.3,0.6,18.6,1.1,27.8,1.5
	C308.5,184.9,308.5,192.7,308.6,200.5z M280.9,199.5c-8.2-0.3-16.5-0.7-24.7-1.2c-0.5-8.1-1-16.3-1.5-24.6
	c8.4,0.7,16.8,1.3,25.1,1.8C280.1,183.7,280.5,191.6,280.9,199.5z M255.3,198.3c-7.9-0.4-15.8-0.8-23.7-1.3
	c-0.7-8.4-1.5-16.8-2.1-25.3c8.2,0.7,16.3,1.4,24.4,2C254.3,182,254.8,190.2,255.3,198.3z M230.7,197c-7.7-0.4-15.4-0.9-23.2-1.3
	c-0.9-8.5-1.7-17.2-2.5-26.1c7.9,0.7,15.8,1.4,23.6,2.1C229.2,180.2,229.9,188.7,230.7,197z M206.7,195.6c-2.2-0.1-4.3-0.3-6.5-0.4
	c-5-0.3-10-0.6-15-0.9c-1.1-8.7-2.3-17.7-3.4-27c2.5,0.2,4.9,0.5,7.4,0.7c5,0.5,10,0.9,14.9,1.4
	C204.9,178.4,205.8,187.1,206.7,195.6z M184.3,194.3c-6.7-0.4-13.4-0.8-20.1-1.2c-1.3-9-2.7-18.2-4.1-27.7c7,0.6,13.9,1.3,20.8,1.9
	C182,176.6,183.2,185.6,184.3,194.3z M163.3,193.1c-6.5-0.4-13.1-0.7-19.7-1.1c-0.2-0.9-0.3-1.9-0.5-2.8c-1.5-8.3-3-16.9-4.5-25.7
	c6.9,0.6,13.8,1.2,20.6,1.8C160.6,174.9,162,184.1,163.3,193.1z M142.3,189.4c0.2,0.9,0.3,1.7,0.5,2.6c-6.5-0.3-13-0.6-19.5-0.9
	c-0.4-2-0.8-4.1-1.2-6.1c-1.5-7.5-3-15.2-4.6-23.2c6.8,0.5,13.6,1.1,20.3,1.6C139.3,172.4,140.8,181,142.3,189.4z M121.2,185.1
	c0.4,2,0.8,3.9,1.2,5.9c-6-0.3-12-0.5-18-0.7c-0.8-3.4-1.6-6.8-2.4-10.3c-1.5-6.3-3-12.9-4.5-19.7c6.4,0.4,12.8,0.9,19.1,1.4
	C118.2,169.8,119.7,177.5,121.2,185.1z M122.6,191.9c2,9.8,3.8,19.3,5.5,28.5c-5.7-0.2-11.4-0.4-17.2-0.5c-1.9-9.2-4-18.7-6.3-28.7
	C110.6,191.4,116.6,191.6,122.6,191.9z M128.2,221.3c1.4,8,2.7,15.8,3.8,23.5c-5.5-0.1-11.1-0.2-16.6-0.2
	c-1.2-7.7-2.7-15.6-4.3-23.8C116.8,221,122.5,221.1,128.2,221.3z M132.1,245.6c1,7.6,1.9,15.1,2.4,22.4c-5.4,0-10.9-0.1-16.3-0.1
	c-0.6-7.4-1.5-14.9-2.7-22.6C121.1,245.5,126.6,245.5,132.1,245.6z M134.6,268.9c0.5,6.9,0.7,13.8,0.6,20.6c-5.4,0-10.8,0-16.3,0
	c0.1-6.9-0.1-13.7-0.6-20.7C123.7,268.8,129.1,268.9,134.6,268.9z M135,311c-0.2,5.8-0.7,11.7-1.3,17.6c-5.5,0.1-11,0.1-16.6,0.2
	c0.7-6,1.2-11.9,1.5-17.7C124.1,311,129.5,311,135,311z M133.6,329.5c-0.6,5.9-1.4,11.8-2.3,17.8c-5.7,0.1-11.3,0.3-17,0.4
	c1.1-6.1,1.9-12.1,2.7-18C122.6,329.6,128.1,329.5,133.6,329.5z M131.2,348.1c-0.9,5.7-1.8,11.4-2.9,17.3
	c-5.8,0.2-11.6,0.4-17.5,0.6c1.2-6,2.3-11.8,3.3-17.5C119.9,348.3,125.6,348.2,131.2,348.1z M128.2,366.3c-1.2,7-2.6,14.1-4,21.3
	c-6,0.2-12.1,0.4-18.1,0.6c1.7-7.4,3.2-14.5,4.7-21.4C116.6,366.6,122.4,366.4,128.2,366.3z M124,388.5c-0.9,4.6-1.8,9.2-2.8,14
	c-0.1,0.7-0.3,1.5-0.4,2.2c-6.2,0.3-12.4,0.6-18.7,0.9c1.3-5.6,2.6-11.1,3.8-16.5C111.9,388.9,118,388.7,124,388.5z M120.6,405.5
	c-1.2,5.9-2.4,11.9-3.6,18c-6.4,0.5-12.9,0.9-19.4,1.3c1.4-6.4,2.9-12.5,4.2-18.5C108.2,406.1,114.4,405.8,120.6,405.5z
	 M116.9,424.4c-1.1,5.8-2.2,11.7-3.4,17.7c-6.6,0.7-13.3,1.3-20.1,1.9c1.4-6.3,2.7-12.4,4-18.3C104,425.3,110.5,424.8,116.9,424.4z
	 M113.4,443c-1.1,6-2.2,12.1-3.2,18.3c-6.9,0.9-13.8,1.7-20.8,2.5c1.3-6.5,2.6-12.9,4-19C100,444.2,106.7,443.6,113.4,443z
	 M110,462.2c-1,5.9-2,12-2.9,18.3c-7.1,1.1-14.3,2.3-21.6,3.3c1.2-6.5,2.4-12.9,3.7-19.1C96.1,463.9,103.1,463.1,110,462.2z
	 M106.9,481.4c-0.9,5.9-1.7,12-2.6,18.3c-7.4,1.4-14.8,2.8-22.4,4.2c1.1-6.6,2.2-12.9,3.3-19.1C92.6,483.6,99.8,482.5,106.9,481.4z
	 M107.8,481.2c7.4-1.2,14.8-2.4,22.1-3.7c-0.7,5.7-1.3,11.5-1.9,17.4c-7.5,1.5-15.1,3.1-22.7,4.5
	C106.1,493.2,106.9,487.2,107.8,481.2z M130.8,477.4c7.5-1.3,15-2.6,22.4-3.9c-0.5,5.4-1,10.9-1.4,16.5c-7.6,1.6-15.2,3.2-23,4.8
	C129.5,488.8,130.1,483.1,130.8,477.4z M154,473.3c7.5-1.3,14.9-2.7,22.2-4c-0.4,5.1-0.7,10.3-0.9,15.5c-7.5,1.6-15.1,3.3-22.7,4.9
	C153.1,484.2,153.5,478.7,154,473.3z M177.2,469.1C177.2,469.1,177.2,469.1,177.2,469.1c8-1.5,15.9-2.9,23.7-4.3
	c-0.2,4.8-0.4,9.6-0.5,14.6c-7.9,1.7-16,3.4-24.2,5.2C176.5,479.4,176.8,474.2,177.2,469.1z M201.7,464.7c8.1-1.5,16.2-2.9,24.3-4.2
	c-0.1,4.5-0.2,9.1-0.2,13.7c-8.1,1.6-16.3,3.3-24.6,5.1C201.4,474.3,201.5,469.5,201.7,464.7z M226.9,460.3c8.5-1.4,17-2.8,25.5-4.1
	c0,4.2,0,8.5,0,12.8c-8.4,1.5-17,3.2-25.7,4.9C226.7,469.4,226.8,464.8,226.9,460.3z M253.2,456.2c8.6-1.3,17.1-2.4,25.6-3.5
	c0,4,0,8,0.1,12c-8.5,1.2-17.1,2.6-25.7,4.2C253.2,464.6,253.2,460.4,253.2,456.2z M279.7,452.6c9.6-1.1,19.1-2.1,28.5-2.9
	c0,3.8-0.1,7.6-0.1,11.5c-9.4,0.9-18.8,2-28.4,3.4C279.7,460.6,279.7,456.6,279.7,452.6z M309.1,449.7c8.6-0.7,17.2-1.1,25.7-1.4
	c0,3.7,0,7.4,0,11.2c-8.6,0.3-17.1,0.9-25.8,1.7C309,457.3,309.1,453.5,309.1,449.7z M335.6,448.3c7.6-0.2,15.2-0.2,22.7-0.1
	c2.1-0.1,4.3-0.1,6.4-0.1c0,3.7,0,7.4,0,11.1c-2,0-4,0.1-6,0.1c-7.7-0.2-15.4-0.2-23.1,0.1C335.6,455.7,335.6,452,335.6,448.3z
	 M365.6,448.1c9.7-0.1,19.4,0.2,29.1,0.7c0,3.7,0,7.5,0,11.2c-9.7-0.6-19.4-0.9-29.1-0.8C365.6,455.5,365.6,451.8,365.6,448.1z
	 M395.6,448.9c10.9,0.6,21.8,1.5,32.9,2.7c0,3.9-0.1,7.8-0.1,11.7c-11-1.4-21.9-2.5-32.7-3.2C395.6,456.4,395.6,452.6,395.6,448.9z
	 M429.3,451.7c11.6,1.3,23.3,2.8,35,4.6c0,4.2,0,8.4,0,12.6c-11.9-2.1-23.6-4-35.1-5.5C429.2,459.5,429.3,455.6,429.3,451.7z
	 M465.2,456.4c12,1.8,24.2,3.8,36.4,5.9c0.2,4.6,0.3,9.2,0.3,13.9c-12.5-2.6-24.7-5-36.7-7.2C465.2,464.8,465.2,460.6,465.2,456.4z
	 M502.4,462.5c12.2,2.1,24.6,4.4,37,6.6c1.7,0.3,3.3,0.6,5,0.9c0.4,5.1,0.7,10.2,1,15.5c-1.2-0.3-2.3-0.5-3.5-0.8
	c-13.4-2.9-26.4-5.7-39.2-8.4C502.7,471.7,502.6,467.1,502.4,462.5z M545.3,470.2c14.4,2.6,29,5.2,43.9,7.8
	c0.7,5.6,1.3,11.4,1.9,17.3c-15.2-3.1-30.1-6.3-44.8-9.5C546,480.5,545.7,475.3,545.3,470.2z M545.3,469.3
	c-0.4-5.6-0.9-11.1-1.4-16.5c14.1,2.1,28.3,4.2,42.8,6.2c0.8,5.9,1.6,11.9,2.4,18.1C574.3,474.6,559.7,471.9,545.3,469.3z
	 M543.8,451.9c-0.5-5.3-1-10.5-1.6-15.6c13.8,1.6,27.7,3.2,41.8,4.7c0.9,5.6,1.7,11.3,2.6,17.1C572.1,456.1,557.9,454,543.8,451.9z
	 M542.1,435.4c-0.6-5.4-1.2-10.8-1.9-16c13.5,1.2,27.1,2.4,40.8,3.5c0.9,5.6,1.9,11.3,2.8,17.2C569.8,438.6,555.9,437,542.1,435.4z
	 M540.1,418.6c-0.7-5.7-1.4-11.2-2.2-16.7c13.2,0.9,26.5,1.7,39.9,2.5c1,5.8,2,11.7,3.1,17.7C567.2,421,553.6,419.8,540.1,418.6z
	 M537.9,401c-0.5-3.6-0.9-7.1-1.4-10.5c-0.2-1.6-0.4-3.2-0.6-4.7c12.9,0.7,26,1.3,39.1,1.9c0.6,3.6,1.3,7.3,1.9,11.1
	c0.3,1.6,0.6,3.2,0.8,4.8C564.3,402.7,551,401.9,537.9,401z M535.7,384.9c-0.9-6.9-1.8-13.6-2.6-20.2c12.7,0.3,25.4,0.6,38.2,1
	c1.1,6.9,2.3,13.9,3.5,21.1C561.7,386.2,548.6,385.5,535.7,384.9z M533,363.8c-0.7-5.7-1.4-11.3-1.9-16.8c12.5,0.2,25,0.5,37.6,0.7
	c0.7,5.6,1.6,11.3,2.5,17.1C558.4,364.4,545.6,364.1,533,363.8z M531,346.1c-0.6-5.8-1.1-11.5-1.5-17.1c12.4,0.1,24.7,0.2,37.1,0.3
	c0.5,5.8,1.2,11.6,2,17.6C556,346.6,543.4,346.4,531,346.1z M529.4,328.2c-0.4-5.8-0.7-11.6-0.8-17.4c12.3,0,24.6,0.1,36.8,0.1
	c0.2,5.8,0.6,11.6,1.1,17.5C554.1,328.3,541.7,328.2,529.4,328.2z M528.5,289.5c-0.1-6.8,0-13.6,0.3-20.4c12.3,0,24.6-0.1,36.9-0.1
	c-0.4,6.9-0.6,13.7-0.5,20.5C553,289.5,540.7,289.5,528.5,289.5z M528.9,268.3c0.3-7.3,0.9-14.6,1.6-22c12.5-0.1,24.9-0.3,37.4-0.4
	c-0.9,7.5-1.6,14.9-2.1,22.2C553.5,268.2,541.2,268.2,528.9,268.3z M530.6,245.4c0.7-7.4,1.6-14.9,2.5-22.5
	c12.7-0.3,25.4-0.6,38.2-1c-1.2,7.9-2.4,15.5-3.3,23.1C555.5,245.2,543,245.3,530.6,245.4z M533.2,222.1c1-8.1,2.1-16.4,3.3-25
	c0.1-0.7,0.2-1.5,0.3-2.2c13-0.8,26.2-1.5,39.5-2.2c-1.7,9.7-3.3,19.2-4.8,28.3C558.6,221.4,545.9,221.8,533.2,222.1z M540.5,166
	c1.3-10.4,2.5-21.1,3.5-32.2c14.1-2.1,28.4-4.2,42.9-6.2c-1.7,12.1-3.5,23.7-5.4,34.7C567.6,163.5,554,164.8,540.5,166z
	 M539.6,166.1c-4.1,0.4-8.2,0.8-12.3,1.1c-9.3,0.9-18.5,1.7-27.6,2.5c0.8-9.8,1.5-19.7,2-29.8c11.8-1.7,23.7-3.4,35.8-5.2
	c1.8-0.3,3.7-0.5,5.5-0.8C542.1,145.1,540.9,155.8,539.6,166.1z M498.9,169.8c-11.8,1.1-23.5,2.1-35.1,3c0.5-9.2,0.9-18.5,1.1-28
	c11.9-1.4,23.9-3.1,36-4.8C500.4,150.2,499.7,160.1,498.9,169.8z M462.9,172.9c-11.5,0.9-23,1.7-34.4,2.3c0.3-8.8,0.5-17.7,0.6-26.6
	c11.5-1,23.2-2.3,34.9-3.7C463.8,154.4,463.4,163.7,462.9,172.9z M427.7,175.3c-10.8,0.6-21.5,1.1-32.3,1.4c0-8.6,0-17.2,0.1-25.8
	c10.9-0.5,21.8-1.2,32.8-2.2C428.2,157.6,428,166.5,427.7,175.3z M394.6,176.7c-9.7,0.3-19.3,0.4-29,0.3c0-8.6,0-17.1,0-25.6
	c9.7,0.1,19.3-0.1,29.1-0.5C394.6,159.5,394.6,168.1,394.6,176.7z M364.7,177.1c-2.1,0-4.3,0-6.4,0c-7.5,0.1-15.1,0.1-22.6,0
	c0-8.6,0-17.1,0-25.7c4.3,0.1,8.7,0.2,13,0.2c3.5,0,7,0,10.5-0.1c1.9,0,3.7,0.1,5.6,0.1C364.7,160,364.7,168.5,364.7,177.1z
	 M334.9,177c-8.5-0.1-17-0.4-25.6-0.7c0-8.7-0.1-17.4-0.1-26.2c8.6,0.5,17.1,0.9,25.7,1.1C334.8,159.8,334.8,168.4,334.9,177z
	 M308.4,176.3c-9.3-0.4-18.5-0.9-27.9-1.5c-0.4-8.9-0.6-18-0.8-27.1c9.5,0.9,19,1.7,28.5,2.3C308.4,158.8,308.4,167.6,308.4,176.3z
	 M279.8,146.9c-0.2-9.7-0.2-19.6,0.1-29.5c9.5,1.5,18.9,2.7,28.3,3.6c0.1,9.5,0.1,18.9,0.2,28.2
	C298.8,148.6,289.3,147.8,279.8,146.9z M279,147.6c0.2,9.1,0.4,18.2,0.8,27.1c-8.3-0.5-16.7-1.1-25.1-1.8
	c-0.5-9.3-0.9-18.6-1.2-28.2C262,145.9,270.5,146.8,279,147.6z M253.8,172.9c-8.1-0.6-16.3-1.3-24.4-2c-0.7-9.6-1.4-19.4-1.9-29.4
	c8.4,1.2,16.8,2.3,25.2,3.3C252.9,154.3,253.3,163.6,253.8,172.9z M228.5,170.8c-7.8-0.7-15.7-1.4-23.6-2.1
	c-0.9-9.9-1.7-20.2-2.4-30.8c8.1,1.2,16.1,2.3,24.1,3.4C227.1,151.3,227.7,161.2,228.5,170.8z M204,168.6c-4.9-0.5-9.8-0.9-14.8-1.4
	c-2.5-0.2-5-0.5-7.6-0.7c-1.2-10.3-2.4-21-3.3-32.2c0.8,0.1,1.6,0.2,2.4,0.4c7,1,14,2.1,20.9,3.1C202.3,148.4,203.1,158.7,204,168.6
	z M180.8,166.4c-6.9-0.6-13.8-1.3-20.8-1.9c-1.5-10.7-3-21.8-4.3-33.5c7.3,1.1,14.5,2.1,21.7,3.2
	C178.4,145.4,179.6,156.1,180.8,166.4z M159.1,164.5c-6.8-0.6-13.7-1.2-20.6-1.8c-1.9-11.1-3.7-22.7-5.4-34.8c7.3,1,14.6,2,21.8,3.1
	C156.2,142.6,157.6,153.7,159.1,164.5z M137.7,162.6c-6.7-0.6-13.5-1.1-20.3-1.6c-2.2-11.5-4.4-23.5-6.6-36.1
	c7.2,0.9,14.4,1.9,21.5,2.9C133.9,139.9,135.8,151.5,137.7,162.6z M116.4,160.9c-6.3-0.5-12.7-0.9-19.1-1.4c-2.6-11.6-5.3-24-8-37.3
	c6.9,0.8,13.8,1.6,20.5,2.5C112,137.4,114.2,149.4,116.4,160.9z M96.4,159.4c-6.1-0.4-12.1-0.8-18.3-1.1c-3.1-12-6.2-24.7-9.4-38.3
	c6.6,0.7,13.2,1.4,19.7,2.2C91.1,135.4,93.8,147.8,96.4,159.4z M96.6,160.3c1.6,6.9,3.1,13.5,4.6,19.9c0.8,3.4,1.6,6.7,2.3,10.1
	c-5.7-0.2-11.5-0.4-17.2-0.6c-1.1-4.4-2.3-8.9-3.5-13.5c-1.4-5.5-2.9-11.2-4.4-17C84.5,159.5,90.6,159.9,96.6,160.3z M103.7,191.1
	c2.3,10,4.4,19.5,6.3,28.7c-5.5-0.2-11-0.4-16.5-0.6c-2.1-9.2-4.5-18.7-7.1-28.7C92.2,190.7,98,190.9,103.7,191.1z M110.2,220.7
	c1.7,8.2,3.1,16.1,4.3,23.8c-5.3-0.1-10.6-0.2-15.9-0.2c-1.4-7.8-3-15.8-4.9-24.1C99.2,220.4,104.7,220.6,110.2,220.7z M114.7,245.4
	c1.2,7.7,2.1,15.2,2.7,22.6c-5.2,0-10.3-0.1-15.5-0.1c-0.7-7.4-1.7-15-3-22.7C104.1,245.2,109.4,245.3,114.7,245.4z M117.4,268.8
	c0.5,6.9,0.7,13.8,0.6,20.7c-5.1,0-10.2,0-15.4,0c0.1-6.9-0.2-13.8-0.8-20.7C107.1,268.8,112.2,268.8,117.4,268.8z M117.8,311
	c-0.3,5.9-0.8,11.7-1.5,17.7c-5.2,0.1-10.4,0.1-15.7,0.2c0.8-6,1.4-11.9,1.7-17.8C107.5,311.1,112.6,311.1,117.8,311z M116.2,329.6
	c-0.7,5.9-1.6,11.9-2.7,18c-5.3,0.1-10.7,0.3-16,0.4c1.2-6.2,2.2-12.3,3-18.3C105.7,329.7,110.9,329.7,116.2,329.6z M113.3,348.5
	c-1,5.7-2.1,11.5-3.3,17.5c-5.5,0.2-11,0.4-16.5,0.6c1.4-6,2.6-11.9,3.8-17.6C102.7,348.8,108,348.6,113.3,348.5z M109.8,366.8
	c-1.4,6.9-3,14-4.7,21.4c-5.6,0.2-11.3,0.3-17,0.4c1.8-7.3,3.6-14.4,5.2-21.3C98.9,367.2,104.4,367,109.8,366.8z M105,389.1
	c-1.2,5.4-2.5,10.8-3.8,16.5c-5.8,0.2-11.7,0.5-17.5,0.7c1.5-5.7,2.9-11.3,4.3-16.7C93.7,389.4,99.3,389.3,105,389.1z M96.6,425.8
	c-1.3,5.9-2.7,12-4,18.3c-6.3,0.5-12.6,1.1-18.9,1.6c1.6-6.5,3.2-12.7,4.7-18.8C84.5,426.5,90.5,426.2,96.6,425.8z M92.4,444.9
	c-1.3,6.1-2.6,12.5-4,19c-6.5,0.7-13,1.5-19.7,2.1c1.6-6.7,3.1-13.3,4.7-19.6C79.8,446,86.1,445.5,92.4,444.9z M88.2,464.8
	c-1.2,6.2-2.5,12.6-3.7,19.1c-6.7,1-13.6,1.9-20.5,2.8c1.5-6.8,2.9-13.4,4.4-19.8C75.2,466.3,81.7,465.6,88.2,464.8z M84.4,484.8
	c-1.1,6.2-2.2,12.6-3.3,19.2c-7,1.2-14.1,2.4-21.3,3.6c1.3-6.8,2.7-13.5,4.1-19.9C70.8,486.8,77.7,485.8,84.4,484.8z M81,504.9
	c-1,6.5-2.1,13.1-3,19.9c-7.3,1.5-14.6,3-22.1,4.5c1.3-7.1,2.5-14.1,3.8-20.8C66.9,507.3,74,506.1,81,504.9z M81.9,504.7
	c7.6-1.3,15-2.7,22.4-4.2c-0.8,6.1-1.6,12.4-2.3,18.9c-7.6,1.7-15.3,3.5-23.2,5.1C79.8,517.8,80.8,511.2,81.9,504.7z M105.1,500.4
	c7.7-1.5,15.2-3,22.7-4.5c-0.6,5.8-1.1,11.8-1.6,17.9c-7.6,1.9-15.4,3.7-23.4,5.5C103.6,512.8,104.4,506.5,105.1,500.4z
	 M128.8,495.7c7.7-1.6,15.4-3.2,23-4.8c-0.4,5.5-0.7,11.1-1,16.8c-7.7,2-15.6,3.9-23.6,5.9C127.6,507.4,128.2,501.5,128.8,495.7z
	 M152.6,490.6c7.6-1.6,15.2-3.3,22.7-4.9c-0.2,5.1-0.4,10.4-0.6,15.7c-7.6,2-15.3,3.9-23.2,5.9C151.9,501.7,152.2,496.1,152.6,490.6
	z M176.2,485.5c8.2-1.8,16.2-3.5,24.2-5.2c-0.1,4.8-0.2,9.7-0.2,14.6c-7.7,2-15.6,4-23.6,6.1c-0.3,0.1-0.6,0.2-1,0.3
	C175.8,495.9,175.9,490.7,176.2,485.5z M201.2,480.1c8.3-1.8,16.5-3.5,24.6-5.1c0,4.5,0,8.9,0.1,13.5c-8.2,2-16.5,4-24.9,6.2
	C201.1,489.8,201.1,484.9,201.2,480.1z M226.7,474.8c8.7-1.7,17.2-3.4,25.7-4.9c0,4.1,0.1,8.3,0.2,12.5c-8.5,1.8-17.1,3.8-25.8,5.9
	C226.7,483.8,226.7,479.3,226.7,474.8z M253.2,469.8c8.7-1.5,17.2-2.9,25.7-4.2c0.1,3.8,0.1,7.7,0.3,11.6
	c-8.5,1.5-17.1,3.2-25.8,5.1C253.3,478,253.2,473.9,253.2,469.8z M279.8,465.5c9.5-1.4,19-2.5,28.4-3.4c0,3.6-0.1,7.2-0.1,10.8
	c-9.3,1.1-18.6,2.5-28,4.1C279.9,473.1,279.8,469.3,279.8,465.5z M309,462c8.6-0.8,17.2-1.4,25.8-1.7c0,3.5,0,6.9,0,10.4
	c-8.6,0.4-17.2,1.1-25.8,2.1C309,469.2,309,465.6,309,462z M335.6,460.3c7.7-0.3,15.4-0.3,23.1-0.1c2-0.1,4-0.1,6-0.1
	c0,3.4,0,6.9,0,10.3c-1.6,0-3.1,0.1-4.7,0.1c-8.2-0.3-16.3-0.2-24.5,0.2C335.6,467.2,335.6,463.7,335.6,460.3z M365.6,460.1
	c9.7-0.1,19.4,0.2,29.1,0.8c0,3.4,0,6.9,0,10.4c-9.8-0.7-19.5-1-29.2-0.9C365.6,466.9,365.6,463.5,365.6,460.1z M395.6,461
	c10.8,0.7,21.7,1.8,32.7,3.2c-0.1,3.6-0.1,7.2-0.3,10.9c-10.9-1.6-21.7-2.9-32.4-3.7C395.6,467.9,395.6,464.4,395.6,461z
	 M429.1,464.3c11.6,1.5,23.3,3.4,35.2,5.5c0,3.9-0.1,7.9-0.2,11.9c-11.9-2.5-23.6-4.7-35.2-6.5C429,471.5,429.1,467.9,429.1,464.3z
	 M465.2,469.9c12,2.2,24.3,4.6,36.7,7.2c0.1,4.4,0.1,8.8,0,13.3c-12.6-3.1-24.9-6-37-8.6C465.1,477.8,465.1,473.9,465.2,469.9z
	 M502.8,477.3c12.7,2.6,25.6,5.5,39,8.3c1.2,0.3,2.5,0.5,3.7,0.8c0.3,5,0.5,10,0.6,15.2c-0.9-0.2-1.7-0.4-2.6-0.7
	c-13.9-3.6-27.5-7.1-40.7-10.4C502.8,486.1,502.8,481.7,502.8,477.3z M546.4,486.6c14.7,3.2,29.7,6.4,44.9,9.5
	c0.6,5.6,1.1,11.4,1.6,17.3c-15.9-3.9-31.2-7.8-45.9-11.6C546.8,496.7,546.6,491.6,546.4,486.6z M592.1,496.3
	c16.8,3.4,34,6.8,51.8,9.8c1.1,6.4,2.2,12.9,3.3,19.7c-18.6-3.9-36.4-8-53.5-12.2C593.2,507.8,592.7,502,592.1,496.3z M592,495.5
	c-0.6-5.9-1.2-11.7-1.9-17.3c16.3,2.8,32.9,5.4,50.1,7.8c1.2,6.3,2.4,12.7,3.6,19.3C626,502.2,608.8,498.9,592,495.5z M590,477.2
	c-0.8-6.2-1.6-12.2-2.4-18.2c15.8,2.2,31.9,4.3,48.3,6.1c1.4,6.4,2.7,13.1,4.1,19.9C622.9,482.7,606.3,480,590,477.2z M587.5,458.2
	c-0.8-5.8-1.7-11.5-2.6-17.1c15.3,1.6,30.8,3.1,46.7,4.5c1.4,6.1,2.8,12.3,4.2,18.8C619.3,462.5,603.2,460.4,587.5,458.2z
	 M584.8,440.2c-0.9-5.9-1.9-11.6-2.8-17.2c14.8,1.2,29.8,2.3,45.1,3.2c1.4,6,2.9,12.1,4.3,18.5C615.6,443.3,600,441.8,584.8,440.2z
	 M578.6,403.5c-0.3-1.7-0.6-3.4-0.9-5c-0.6-3.7-1.3-7.3-1.9-10.9c14,0.6,28.1,1.1,42.3,1.5c1.3,5.4,2.6,10.9,4,16.5
	C607.4,405.1,592.9,404.3,578.6,403.5z M619,389.2c15.1,0.4,30.4,0.7,45.8,0.8l0-0.2c1.7,5.6,3.5,11.3,5.4,17.2
	c-15.9-0.2-31.7-0.7-47.2-1.3C621.6,400.1,620.3,394.6,619,389.2z M617.9,388.3c-14.2-0.4-28.3-0.9-42.2-1.5
	c-1.2-7.2-2.4-14.2-3.5-21.1c13.6,0.4,27.2,0.8,40.9,1.3C614.5,373.9,616.2,381,617.9,388.3z M572,364.8c-0.9-5.8-1.7-11.5-2.5-17.1
	c13.2,0.3,26.5,0.6,39.9,0.9c1,5.7,2.2,11.5,3.5,17.4C599.2,365.6,585.5,365.2,572,364.8z M569.4,346.9c-0.8-5.9-1.4-11.8-2-17.6
	c13,0.1,26,0.2,39,0.4c0.7,5.9,1.7,12,2.8,18.1C595.9,347.4,582.6,347.1,569.4,346.9z M567.4,328.4c-0.5-5.9-0.9-11.7-1.1-17.5
	c12.9,0,25.7,0.1,38.6,0.2c0.3,5.9,0.8,11.8,1.5,17.7C593.3,328.7,580.3,328.6,567.4,328.4z M566.1,289.5
	c-0.1-6.8,0.1-13.6,0.5-20.5c12.9-0.1,25.8-0.1,38.7-0.2c-0.6,6.9-0.9,13.8-0.8,20.7C591.7,289.5,578.9,289.5,566.1,289.5z
	 M566.7,268.1c0.5-7.3,1.2-14.7,2.1-22.3c13.2-0.2,26.3-0.3,39.5-0.5c-1.3,7.7-2.2,15.2-2.9,22.6C592.5,268,579.6,268.1,566.7,268.1
	z M568.9,245c0.9-7.6,2-15.2,3.3-23.1c13.6-0.4,27.2-0.8,40.9-1.3c-1.8,8.2-3.3,16.1-4.6,23.8C595.2,244.7,582,244.8,568.9,245z
	 M572.3,221c1.5-9.2,3.1-18.6,4.8-28.3c14.1-0.7,28.4-1.3,42.8-1.8c-2.4,10.1-4.7,19.6-6.7,28.9C599.5,220.2,585.9,220.7,572.3,221z
	 M577.2,191.8c0.2-0.9,0.3-1.9,0.5-2.8c1.5-8.4,3-17,4.5-25.9c14.9-1.2,29.9-2.4,45.2-3.4c-1.6,6.8-3.2,13.4-4.8,19.7
	c-0.9,3.6-1.7,7.1-2.5,10.5C605.7,190.5,591.4,191.1,577.2,191.8z M582.3,162.3c1.9-11.1,3.7-22.7,5.4-34.8
	c15.8-2.2,31.9-4.2,48.4-6.1c-2.8,13.3-5.7,25.8-8.5,37.5C612.3,159.9,597.2,161.1,582.3,162.3z M587.9,126.6
	c1.8-13.1,3.5-26.8,4.9-41.4c16.8-3.6,34.3-7.2,52.4-10.5c-2.8,16.3-5.7,31.6-8.8,45.9C619.8,122.4,603.7,124.5,587.9,126.6z
	 M587,126.7c-14.5,2-28.8,4.1-42.9,6.2c1.1-11.9,2-24.4,2.5-37.4c14.5-3.3,29.6-6.7,45.2-10.1C590.5,99.9,588.8,113.7,587,126.7z
	 M543.2,133c-1.9,0.3-3.8,0.6-5.7,0.8c-12,1.8-23.9,3.5-35.6,5.2c0.6-10.9,0.9-22.1,1-33.7c13.3-2.9,26.8-6,40.8-9.2
	c0.7-0.2,1.4-0.3,2.1-0.5C545.2,108.7,544.3,121.1,543.2,133z M501,139.2c-12.1,1.7-24.1,3.3-36.1,4.8c0.3-10.1,0.3-20.4,0.2-30.9
	c12.1-2.3,24.3-4.8,36.8-7.5C501.9,117.1,501.5,128.3,501,139.2z M464.1,144.1c-11.7,1.4-23.3,2.7-34.9,3.7
	c0.1-9.5,0.1-19.1-0.1-28.8c11.6-1.6,23.3-3.5,35.1-5.7C464.4,123.7,464.3,134,464.1,144.1z M428.3,147.8c-11,1-21.9,1.7-32.8,2.2
	c0-9.2,0.1-18.4,0.1-27.6c10.8-0.7,21.7-1.8,32.6-3.3C428.5,128.7,428.5,138.3,428.3,147.8z M394.7,150c-9.7,0.4-19.4,0.6-29.1,0.5
	c0-9.1,0-18.2,0-27.4c1.5,0,3,0,4.5,0c8.2,0,16.5-0.3,24.7-0.8C394.7,131.7,394.7,140.9,394.7,150z M364.7,150.6
	c-1.9,0-3.7,0-5.6-0.1c-7.8,0.2-15.7,0.1-23.5-0.1c0-9.1,0-18.3-0.1-27.5c4.8,0.2,9.6,0.3,14.4,0.3c3.3,0,6.7,0,10-0.1
	c1.6,0,3.2,0.1,4.7,0.1C364.7,132.3,364.7,141.4,364.7,150.6z M334.8,150.4c-8.5-0.2-17.1-0.6-25.7-1.1c-0.1-9.3-0.1-18.7-0.2-28.2
	c8.6,0.9,17.2,1.5,25.8,1.8C334.8,132.1,334.8,141.3,334.8,150.4z M309,120.2c-0.1-9.6-0.1-19.3-0.2-29.1l-0.9,0
	c0.1,9.7,0.2,19.4,0.2,29c-9.3-1-18.7-2.2-28.2-3.6c0.2-10.2,0.7-20.6,1.5-31.1c18.1,4.3,35.8,7.3,53.3,8.5c0,9.4,0,18.8,0.1,28.2
	C326.2,121.7,317.6,121.1,309,120.2z M252.4,112.6c-0.2,10.6-0.1,21,0.2,31.2c-8.3-1-16.7-2.1-25.2-3.3c-0.5-10.8-0.8-21.8-0.8-33.2
	C235.4,109.3,243.9,111,252.4,112.6z M226.6,140.5c-8-1.1-16-2.2-24.1-3.4c-0.7-11.3-1.2-23.1-1.4-35.2c8.4,1.9,16.6,3.7,24.7,5.4
	C225.8,118.6,226.1,129.7,226.6,140.5z M201.6,136.9c-6.9-1-13.8-2-20.7-3c-0.9-0.1-1.7-0.3-2.6-0.4c-1-12-1.9-24.4-2.4-37.4
	c0.2,0,0.4,0.1,0.6,0.1c8.1,1.8,16,3.7,23.8,5.4C200.4,113.8,200.9,125.6,201.6,136.9z M177.4,133.4c-7.2-1.1-14.4-2.1-21.7-3.2
	c-1.4-12.5-2.6-25.7-3.5-39.5c7.8,1.7,15.4,3.5,22.8,5.2C175.5,108.9,176.4,121.4,177.4,133.4z M154.8,130.1
	c-7.2-1-14.5-2.1-21.8-3.1c-1.8-13.1-3.5-27-4.9-41.6c7.9,1.7,15.6,3.4,23.2,5.1C152.2,104.3,153.4,117.5,154.8,130.1z M132.1,126.8
	c-7.1-1-14.3-1.9-21.5-2.9c-2.3-13.7-4.4-28.2-6.3-43.6c7.8,1.6,15.4,3.2,23,4.8C128.6,99.8,130.3,113.7,132.1,126.8z M109.7,123.9
	c-6.8-0.9-13.6-1.7-20.6-2.5C86.3,107.1,83.5,92,81,75.8c7.6,1.4,15,2.9,22.4,4.4C105.3,95.6,107.4,110.1,109.7,123.9z M88.3,121.2
	c-6.5-0.8-13.1-1.5-19.7-2.2c-3.4-14.7-6.8-30.4-10-47.3c7.3,1.2,14.5,2.5,21.5,3.8C82.7,91.8,85.4,107,88.3,121.2z M58.4,70.9
	c-3.4-18.1-6.6-37.5-9.5-58.5c8.1,2.1,16.1,4.3,23.9,6.5c2,19.9,4.4,38.5,7.1,55.8C72.9,73.4,65.7,72.1,58.4,70.9z M57.5,70.7
	c-7.1-1.2-14.2-2.3-21.5-3.4c-4.1-18.8-8.2-39.1-11.8-61.1c8.1,1.9,16.1,3.9,23.9,5.9C50.9,33.1,54.1,52.6,57.5,70.7z M57.7,71.6
	c3.2,16.9,6.6,32.7,10,47.4c-6.5-0.7-13-1.3-19.6-1.9c-4-15.1-8-31.4-11.9-49C43.4,69.3,50.6,70.4,57.7,71.6z M67.9,119.9
	c3.2,13.7,6.3,26.4,9.4,38.4c-6-0.3-12.1-0.7-18.2-0.9C55.6,145.1,52,132,48.3,118C54.9,118.6,61.4,119.2,67.9,119.9z M77.5,159.1
	c1.5,6,3,11.7,4.5,17.3c1.2,4.5,2.3,8.9,3.4,13.3c-5.7-0.2-11.4-0.3-17.2-0.4c-1.5-5.4-3.1-10.9-4.8-16.7c-1.3-4.7-2.7-9.5-4.1-14.5
	C65.4,158.5,71.5,158.8,77.5,159.1z M85.6,190.6c2.6,10,4.9,19.5,7.1,28.7c-5.5-0.2-11-0.4-16.5-0.6c-2.3-9-4.9-18.5-7.7-28.5
	C74.2,190.3,79.9,190.4,85.6,190.6z M92.9,220.1c1.9,8.3,3.6,16.3,4.9,24.1c-5.3-0.1-10.6-0.2-15.8-0.3c-1.5-7.9-3.4-16-5.5-24.5
	C81.9,219.8,87.4,220,92.9,220.1z M97.9,245.1c1.3,7.7,2.4,15.3,3,22.7c-5.2,0-10.3-0.1-15.5-0.1c-0.7-7.5-1.9-15.1-3.4-22.9
	C87.4,245,92.7,245,97.9,245.1z M101,268.7c0.6,7,0.9,13.9,0.8,20.7c-5.1,0-10.3,0-15.4,0c0.1-6.9-0.2-13.8-0.9-20.8
	C90.7,268.7,95.9,268.7,101,268.7z M101.5,311.1c-0.3,5.9-0.9,11.8-1.7,17.8c-5.2,0.1-10.4,0.1-15.6,0.2c0.9-6.1,1.5-12,1.9-17.9
	C91.2,311.2,96.3,311.1,101.5,311.1z M99.6,329.8c-0.8,6-1.8,12.1-3,18.3c-5.3,0.1-10.7,0.3-16,0.4c1.3-6.3,2.5-12.5,3.4-18.5
	C89.2,329.9,94.4,329.8,99.6,329.8z M96.4,348.9c-1.1,5.8-2.4,11.6-3.8,17.7c-5.5,0.2-11,0.4-16.5,0.6c1.6-6.1,3-12,4.2-17.8
	C85.8,349.2,91.1,349.1,96.4,348.9z M92.5,367.4c-1.6,6.9-3.3,13.9-5.2,21.2c-5.6,0.1-11.3,0.2-16.9,0.3c2-7.2,3.9-14.2,5.6-20.9
	C81.5,367.8,87,367.6,92.5,367.4z M87.1,389.5c-1.4,5.4-2.8,11-4.3,16.7c-5.8,0.2-11.6,0.4-17.5,0.5c1.7-5.8,3.3-11.5,4.8-16.9
	C75.8,389.8,81.4,389.7,87.1,389.5z M82.6,407.1c-0.2,0.8-0.4,1.6-0.6,2.4c-1.4,5.3-2.8,10.9-4.3,16.6c-6,0.3-12,0.6-18.1,0.9
	c1.3-4.7,2.6-9.2,3.9-13.7c0.5-1.9,1.1-3.8,1.6-5.6C70.9,407.5,76.8,407.3,82.6,407.1z M77.5,426.9c-1.5,6.1-3.1,12.3-4.7,18.8
	c-6.2,0.5-12.5,0.9-18.8,1.3c1.8-6.6,3.6-13,5.4-19.2C65.4,427.5,71.4,427.2,77.5,426.9z M72.5,446.5c-1.6,6.3-3.1,12.9-4.7,19.6
	c-6.5,0.7-13,1.3-19.6,1.8c1.8-6.9,3.6-13.7,5.4-20.1C60,447.5,66.3,447,72.5,446.5z M67.6,467c-1.5,6.4-3,13-4.4,19.9
	c-6.7,0.9-13.5,1.7-20.4,2.5c1.7-7.1,3.5-13.9,5.2-20.5C54.6,468.3,61.2,467.7,67.6,467z M63,487.8c-1.4,6.5-2.7,13.1-4.1,19.9
	c-7,1.1-14,2.2-21.2,3.2c1.6-7.1,3.2-14,4.9-20.6C49.5,489.5,56.3,488.7,63,487.8z M58.7,508.6c-1.3,6.7-2.6,13.7-3.8,20.8
	c-7.3,1.4-14.6,2.7-22.1,4c1.5-7.4,3.1-14.6,4.7-21.6C44.7,510.8,51.8,509.8,58.7,508.6z M54.7,530.3c-1.2,6.8-2.3,13.8-3.5,21
	c-7.5,1.7-15.2,3.4-23,4.9c1.4-7.5,2.9-14.8,4.3-21.9C40.1,533.1,47.5,531.7,54.7,530.3z M51.2,552.2c-1.1,7-2.1,14.1-3.1,21.5
	c-7.8,2-15.8,4-23.9,5.9c1.3-7.7,2.6-15.2,4-22.5C35.9,555.6,43.6,554,51.2,552.2z M52,552c7.8-1.8,15.5-3.6,23-5.5
	c-0.8,6.6-1.6,13.4-2.3,20.4c-7.8,2.2-15.8,4.4-23.9,6.5C49.9,566.2,51,559,52,552z M52.2,551.1c1.1-7.2,2.3-14.2,3.5-21
	c7.5-1.4,14.9-2.9,22.2-4.5c-0.9,6.5-1.8,13.1-2.6,20C67.7,547.5,60,549.4,52.2,551.1z M78.7,525.5c7.9-1.7,15.6-3.4,23.2-5.1
	c-0.7,6.1-1.3,12.4-1.8,18.8c-7.8,2.1-15.8,4.2-24,6.2C76.9,538.6,77.8,532,78.7,525.5z M102.8,520.2c7.9-1.8,15.7-3.7,23.4-5.6
	c-0.5,5.8-0.9,11.7-1.2,17.7c-7.9,2.2-15.9,4.5-24,6.7C101.5,532.5,102.1,526.3,102.8,520.2z M127.1,514.4c8-2,15.9-3.9,23.6-5.9
	c-0.3,5.4-0.5,10.9-0.6,16.5c-7.9,2.3-15.9,4.7-24.2,7C126.2,526,126.6,520.1,127.1,514.4z M151.5,508.3c7.9-2,15.6-4,23.2-6
	c-0.1,5-0.2,10.1-0.2,15.3c-7.7,2.3-15.6,4.7-23.6,7.1C151.1,519.1,151.3,513.7,151.5,508.3z M175.6,502.1c0.4-0.1,0.8-0.2,1.2-0.3
	c7.9-2,15.7-4.1,23.4-6c0,4.6,0.1,9.4,0.2,14.1c-7.9,2.4-16,4.8-24.2,7.3c-0.2,0.1-0.5,0.1-0.7,0.2
	C175.4,512.2,175.5,507.1,175.6,502.1z M201,495.6c8.4-2.1,16.7-4.2,24.9-6.2c0.1,4.3,0.2,8.6,0.4,13c-8.3,2.3-16.6,4.8-25.2,7.3
	C201.1,504.9,201,500.2,201,495.6z M226.4,503.3c0.2,4.2,0.4,8.5,0.7,12.8l0.1,0c-8.4,2.7-16.9,5.6-25.5,8.6
	c-0.2-4.8-0.3-9.5-0.4-14.1C209.7,508,218.1,505.6,226.4,503.3z M227.2,503c8.8-2.4,17.4-4.8,25.9-6.9c0.2,3.9,0.4,7.7,0.7,11.7
	c-8.5,2.5-17.1,5.2-25.9,8C227.6,511.5,227.4,507.3,227.2,503z M227.2,502.2c-0.2-4.4-0.3-8.7-0.4-13c8.7-2.1,17.3-4.1,25.8-5.9
	c0.1,4,0.3,8,0.5,12C244.6,497.4,235.9,499.7,227.2,502.2z M253.4,483.1c8.7-1.9,17.3-3.6,25.8-5.1c0.1,3.7,0.3,7.4,0.5,11.2
	c-8.5,1.7-17.1,3.7-25.8,5.9C253.7,491,253.6,487,253.4,483.1z M280.1,477.9c9.4-1.6,18.7-3,28-4.1c0,3.5-0.1,7.1-0.1,10.6
	c-9,1.2-18.2,2.8-27.4,4.6C280.4,485.3,280.2,481.6,280.1,477.9z M308.9,473.7c8.7-1,17.2-1.7,25.8-2.1c0,3.4,0,6.8,0,10.3
	c-8.6,0.4-17.2,1.3-25.9,2.4C308.9,480.7,308.9,477.2,308.9,473.7z M335.6,471.5c8.2-0.4,16.3-0.4,24.5-0.2c1.6,0,3.1-0.1,4.7-0.1
	c0,3.4,0,6.8,0,10.2c-2,0-4,0.1-6,0.1c-7.7-0.3-15.5-0.2-23.2,0.2C335.6,478.4,335.6,474.9,335.6,471.5z M365.6,471.2
	c9.7-0.1,19.4,0.2,29.2,0.9c0,3.5,0,7,0,10.6c-9.8-0.9-19.5-1.3-29.2-1.2C365.6,478,365.6,474.6,365.6,471.2z M395.7,472.2
	c10.7,0.8,21.5,2.1,32.3,3.7c-0.1,3.8-0.3,7.5-0.5,11.3c-10.7-1.9-21.3-3.5-31.8-4.4C395.7,479.3,395.7,475.7,395.7,472.2z
	 M428.9,476.1c11.6,1.8,23.3,4,35.2,6.5c-0.1,4.1-0.3,8.3-0.5,12.5c-11.9-3-23.6-5.6-35.2-7.7C428.6,483.6,428.7,479.8,428.9,476.1z
	 M464.9,482.7c12.1,2.6,24.4,5.5,37,8.6c0,4.6-0.1,9.3-0.3,14.1c-12.7-3.7-25-7.1-37.2-10.1C464.6,491.1,464.8,486.9,464.9,482.7z
	 M502.8,491.5c13.2,3.3,26.6,6.7,40.5,10.3c0.9,0.2,1.9,0.5,2.8,0.7c0.2,5.3,0.2,10.7,0.3,16.2c-1.7-0.5-3.3-1-5-1.5
	c-13.3-4-26.3-7.9-38.9-11.6C502.6,500.9,502.7,496.1,502.8,491.5z M547,502.8c14.7,3.8,30,7.7,45.9,11.6c0.5,6,0.9,12.1,1.3,18.4
	c-16.3-4.6-31.9-9.3-46.9-13.8C547.2,513.5,547.1,508.1,547,502.8z M593.8,514.6c17.1,4.2,35,8.3,53.6,12.2c1.1,6.8,2.1,13.7,3,20.9
	c-19.3-4.7-37.7-9.6-55.4-14.6C594.7,526.7,594.3,520.6,593.8,514.6z M648.1,526c-1.1-6.7-2.1-13.3-3.3-19.7
	c18.3,3.1,37.3,6,57.2,8.4c1.8,7.1,3.7,14.4,5.5,22C686.9,533.6,667.1,530,648.1,526z M701.8,513.8c-19.9-2.4-38.8-5.3-57.1-8.4
	c-1.2-6.6-2.4-13.1-3.6-19.3c17.6,2.5,35.6,4.7,54.5,6.5l0.1-0.9c-18.9-1.8-37.1-4-54.7-6.5c-1.3-6.8-2.7-13.5-4.1-19.9
	c17.1,1.9,34.7,3.6,52.9,4.9C693.7,483.8,697.7,498.3,701.8,513.8z M689.4,469.3c-18.1-1.3-35.7-3-52.8-4.9
	c-1.4-6.5-2.8-12.7-4.2-18.8c16.4,1.4,33.1,2.5,50.3,3.3l0-0.9c-17.2-0.8-34-2-50.5-3.4c-1.5-6.4-2.9-12.5-4.3-18.5
	c15.7,0.9,31.7,1.7,48,2.2l0-0.9c-16.4-0.5-32.4-1.2-48.2-2.2c-1.4-6-2.9-11.9-4.2-17.5c-0.1-0.4-0.2-0.8-0.3-1.3
	c15.5,0.6,31.3,1.1,47.3,1.3c0.9,2.8,1.8,5.7,2.7,8.6C678.2,432.5,683.8,450,689.4,469.3z M658.3,367.7c-15-0.6-29.8-1.1-44.6-1.6
	c-1.3-6-2.4-11.8-3.5-17.5c14.1,0.3,28.3,0.7,42.6,1.1l0-0.9c-14.3-0.4-28.6-0.8-42.7-1.1c-1.1-6.2-2-12.2-2.8-18.1
	c14,0.1,28,0.3,42.1,0.5l0-0.9c-14.1-0.2-28.2-0.3-42.2-0.5c-0.7-6-1.3-11.9-1.6-17.7c13.7,0.1,27.5,0.1,41.2,0.2l0-0.9
	c-13.7-0.1-27.5-0.1-41.2-0.2c-0.3-5.5-0.3-11-0.1-16.4c0-1.1-0.1-2.3-0.1-3.4c13.8,0,27.6,0,41.5,0c0,0.9,0,1.8,0.1,2.6
	C646.1,316.7,650.7,340.3,658.3,367.7z M646.9,289.4c-13.8,0-27.6,0-41.5,0c-0.1-6.9,0.2-13.7,0.8-20.7c13.9-0.1,27.8-0.1,41.7-0.2
	C647.2,275.6,646.8,282.5,646.9,289.4z M648,267.7c-13.9,0.1-27.8,0.2-41.7,0.2c0.6-7.4,1.6-14.9,2.9-22.6
	c14.2-0.2,28.4-0.4,42.6-0.7C650.1,252.5,648.8,260.2,648,267.7z M609.3,244.5c1.3-7.7,2.9-15.7,4.6-23.9c14.6-0.5,29.3-1,44.1-1.6
	c-2.4,8.6-4.4,16.8-6.1,24.8C637.7,244,623.5,244.3,609.3,244.5z M673.2,169.4c-5.6,17.8-10.7,33.8-14.8,48.8
	c-14.8,0.6-29.6,1.1-44.2,1.6c2-9.2,4.3-18.8,6.7-28.9c14.8-0.5,29.7-0.8,44.9-1l0-0.9c-15,0.1-29.9,0.5-44.6,0.9
	c0.8-3.4,1.6-6.8,2.5-10.3c1.6-6.4,3.2-13.1,4.8-20c15.9-1,32-1.8,48.5-2.3l0-0.9c-16.4,0.5-32.5,1.3-48.2,2.3
	c2.8-11.7,5.7-24.2,8.5-37.6c17-1.9,34.4-3.6,52.4-4.8C683.8,135.8,678.2,153.3,673.2,169.4z M689.7,115.6c-18,1.3-35.5,3-52.5,4.8
	c3-14.3,6-29.6,8.8-45.9c18.5-3.4,37.6-6.5,57.5-9.1C698.9,83.5,694.3,100.1,689.7,115.6z M703.7,64.5c-19.9,2.6-39,5.7-57.5,9.1
	c3-17.6,5.7-36.5,8-56.8l-0.4,0c20.4-5.7,41.8-11,64.4-15.7C713.5,24,708.6,45.1,703.7,64.5z M539.8,53.5
	c34.3-11.9,71.7-24.9,113.4-36.6c-2.3,20.3-5,39.2-8,56.8c-18.2,3.3-35.6,6.9-52.5,10.5c1.4-15.5,2.6-31.9,3.2-49.5l-0.9,0
	c-0.6,17.7-1.8,34.2-3.2,49.7c-15.7,3.4-30.8,6.8-45.3,10.1c0.6-13.6,0.8-27.8,0.5-42.8l-0.9,0c0.3,15,0.1,29.3-0.5,43
	c-0.8,0.2-1.6,0.4-2.4,0.5c-13.9,3.2-27.4,6.3-40.6,9.1c0-12-0.2-24.4-1-37.3l-0.9,0c0.7,13,1,25.4,1,37.4
	c-12.5,2.7-24.8,5.3-36.9,7.5c-0.2-10.8-0.6-21.8-1.4-33.1l-0.9,0.1c0.8,11.3,1.2,22.3,1.4,33.1c-11.9,2.2-23.6,4.1-35.2,5.7
	c-0.2-10-0.6-20.2-1.3-30.4C463,80.2,499.7,67.4,539.8,53.5z M428.2,118.2c-11,1.5-21.8,2.6-32.6,3.3c0-9.5,0.1-19,0.1-28.6
	c10.3-1.1,20.6-2.9,31.1-5C427.6,98.1,428,108.2,428.2,118.2z M350.6,94.4c3,0,6-0.1,9-0.2c11.7,0.5,23.4,0,35.3-1.3
	c0,9.6-0.1,19.1-0.1,28.6c-9.7,0.6-19.4,0.9-29.2,0.8c0-9.3,0-18.5,0-27.8h-0.9c0,9.2,0,18.5,0,27.7c-1.6,0-3.2-0.1-4.7-0.1
	c-8.1,0.2-16.3,0.2-24.4-0.1c0-9.4,0-18.7-0.1-28.1C340.6,94.3,345.6,94.4,350.6,94.4z M227.2,69.8l-0.1,0
	c-0.8,12.6-1.2,24.8-1.2,36.6c-8.1-1.7-16.3-3.6-24.7-5.4c-0.2-12.5,0-25.4,0.6-38.8l-0.9,0c-0.6,13.4-0.7,26.2-0.6,38.6
	c-7.7-1.7-15.6-3.5-23.6-5.4c-0.3-0.1-0.5-0.1-0.8-0.2c-0.5-13.3-0.6-27.1-0.3-41.6l-0.9,0C174.4,68,174.5,81.8,175,95
	c-7.5-1.7-15.1-3.4-22.9-5.2c-0.9-14.4-1.5-29.6-1.5-45.6l-0.9,0c0.1,16,0.6,31.1,1.5,45.4c-7.6-1.7-15.3-3.4-23.2-5.1
	c-1.4-15.3-2.5-31.5-3.1-48.9l-0.9,0c0.6,17.3,1.7,33.4,3.1,48.6c-7.5-1.6-15.2-3.2-23-4.8c-2-16.3-3.7-33.7-4.9-52.4l-0.9,0.1
	c1.2,18.6,2.9,35.9,4.9,52.2c-7.4-1.5-14.8-3-22.4-4.4c-2.7-17.3-5.2-35.9-7.2-55.8c38.7,11.1,73.5,23.2,105.7,34.4
	C195.9,59.2,211.7,64.7,227.2,69.8z M1.1,1.1C8.6,2.7,16,4.3,23.3,6c3.7,22,7.7,42.3,11.8,61.1c-6.5-1-13-1.9-19.6-2.7
	C10.6,45,5.7,24,1.1,1.1z M15.7,65.3c6.6,0.9,13.1,1.8,19.6,2.7c3.9,17.6,7.9,33.9,11.9,49c-5.8-0.5-11.7-1-17.6-1.4
	C25,100.1,20.3,83.4,15.7,65.3z M29.8,116.5c5.9,0.4,11.8,0.9,17.6,1.4c3.7,14,7.3,27.1,10.8,39.3c-5.3-0.2-10.7-0.4-16.1-0.6
	C38.1,144.2,34,130.9,29.8,116.5z M46.1,169.4c-1.2-3.9-2.5-7.8-3.7-11.9c5.4,0.2,10.8,0.4,16.1,0.6c1.4,5,2.8,10,4.2,14.7
	c1.6,5.6,3.2,11.1,4.7,16.4c-5-0.1-10-0.2-15.1-0.2C50.3,182.7,48.2,176.2,46.1,169.4z M67.6,190.1c2.8,10,5.4,19.5,7.7,28.5
	c-4.7-0.2-9.4-0.3-14.1-0.5l0,0.9c4.8,0.2,9.5,0.4,14.3,0.5c2.1,8.5,4,16.6,5.5,24.5c-4.6-0.1-9.2-0.1-13.8-0.2
	c-3.5-16.5-8.6-34.1-14.8-53.8C57.6,190,62.6,190,67.6,190.1z M72.3,292.9c0.5-15.8-1.3-31.5-4.8-48.3c4.6,0.1,9.2,0.1,13.8,0.2
	c1.5,7.8,2.6,15.4,3.4,22.9c-4.4,0-8.7,0-13.1-0.1l0,0.9c4.4,0,8.8,0,13.2,0.1c0.7,7,1,13.9,0.9,20.8c-4.4,0-8.8,0-13.2,0l0,0.9
	c4.4,0,8.8,0,13.2,0c0,0.9,0,1.8-0.1,2.6c0.2,5.8,0.1,11.6-0.3,17.4c-4.4,0-8.9,0-13.3,0.1C72.3,304.6,72.5,298.8,72.3,292.9z
	 M85.2,311.2c-0.4,5.9-1,11.9-1.9,17.9c-4.5,0.1-9,0.1-13.6,0.1c1-6.1,1.7-12.1,2.2-18C76.3,311.2,80.8,311.2,85.2,311.2z
	 M69.6,330.1c4.5-0.1,9-0.1,13.6-0.1c-0.9,6.1-2.1,12.2-3.4,18.5c-4.6,0.1-9.3,0.3-14,0.4C67.3,342.5,68.5,336.2,69.6,330.1z
	 M46.1,416.5c7.9-25.1,14.8-46.8,19.5-66.7c4.7-0.1,9.3-0.3,14-0.4c-1.2,5.8-2.7,11.7-4.2,17.8c-4.7,0.2-9.4,0.3-14.1,0.5l0,0.9
	c4.6-0.2,9.2-0.3,13.8-0.5c-1.7,6.7-3.6,13.7-5.6,20.9c-4.7,0.1-9.5,0.1-14.2,0.1l0,0.9c4.7,0,9.3-0.1,14-0.1
	c-1.5,5.5-3.1,11.1-4.8,16.9c-5,0.1-10.1,0.2-15.2,0.3l0,0.9c5-0.1,10-0.2,14.9-0.3c-0.5,1.8-1,3.5-1.5,5.4c-1.3,4.5-2.6,9.2-4,13.9
	c-5.3,0.2-10.7,0.4-16.1,0.6C43.8,423.8,44.9,420.1,46.1,416.5z M42.3,428.4c5.4-0.2,10.8-0.4,16.1-0.6c-1.8,6.2-3.6,12.6-5.4,19.2
	c-5.6,0.3-11.2,0.7-16.8,0.9C38.3,441.2,40.3,434.7,42.3,428.4z M52.8,447.9c-1.8,6.5-3.6,13.2-5.4,20.2c-5.8,0.5-11.7,1-17.6,1.4
	c2.1-7.1,4.2-14,6.2-20.6C41.6,448.6,47.2,448.3,52.8,447.9z M29.6,469.9l0,0.4c5.9-0.4,11.7-0.9,17.5-1.4
	c-1.7,6.6-3.5,13.5-5.2,20.6c-6.1,0.7-12.2,1.3-18.4,1.9C25.5,484,27.6,476.8,29.6,469.9z M23.2,492.3c6.2-0.6,12.4-1.3,18.5-1.9
	c-1.6,6.7-3.3,13.6-4.9,20.7c-6.3,0.9-12.8,1.7-19.3,2.5C19.4,506.3,21.3,499.2,23.2,492.3z M17.3,514.5c6.5-0.8,13-1.6,19.3-2.5
	c-1.6,7-3.2,14.2-4.7,21.6c-6.7,1.1-13.4,2.2-20.2,3.3C13.5,529.2,15.4,521.7,17.3,514.5z M11.5,537.8c6.8-1,13.6-2.1,20.3-3.3
	c-1.5,7.1-2.9,14.4-4.3,22c-7,1.4-14,2.8-21.2,4.1C7.9,552.7,9.7,545.1,11.5,537.8z M6,561.4c7.2-1.3,14.3-2.6,21.2-4.1
	c-1.4,7.3-2.7,14.8-4,22.5c-7.3,1.7-14.6,3.3-22.2,4.9C2.7,576.8,4.4,569,6,561.4z M73.7,566.7c0.7-7,1.5-13.8,2.3-20.4
	c8.2-2,16.2-4.1,24-6.2c-0.5,6.3-1,12.7-1.5,19.2C90.4,561.9,82.2,564.3,73.7,566.7z M100.9,539.9c8.2-2.2,16.2-4.4,24.1-6.7
	c-0.3,5.9-0.6,11.9-0.8,18c-8.1,2.6-16.3,5.3-24.7,7.9C99.8,552.5,100.3,546.1,100.9,539.9z M125.8,533c8.2-2.4,16.3-4.7,24.2-7.1
	c-0.1,5.5-0.2,11-0.3,16.7c-8.1,2.8-16.3,5.5-24.8,8.3C125.2,544.8,125.5,538.8,125.8,533z M150.9,525.6c8-2.4,15.9-4.8,23.7-7.1
	c0,5.1,0,10.2,0.2,15.4c-7.9,2.7-15.9,5.5-24.1,8.3C150.6,536.7,150.7,531.1,150.9,525.6z M179.4,532.4c-1.3,0.4-2.6,0.9-3.9,1.4
	c-0.1-5.2-0.2-10.4-0.2-15.4c0.3-0.1,0.7-0.2,1-0.3c8.1-2.4,16.1-4.8,24-7.2c0.1,4.7,0.2,9.4,0.4,14.1
	C193.8,527.4,186.7,529.8,179.4,532.4z M254.6,507.6c-0.3-3.9-0.5-7.8-0.7-11.6c8.7-2.2,17.3-4.1,25.8-5.9c0.2,3.5,0.4,7.1,0.7,10.6
	C272,502.7,263.3,505,254.6,507.6z M281.3,500.5c-0.3-3.5-0.5-7.1-0.7-10.6c9.2-1.9,18.3-3.4,27.3-4.6c0,3.3-0.1,6.6-0.1,9.9
	C299.1,496.5,290.3,498.4,281.3,500.5z M308.8,495c0-3.3,0.1-6.6,0.1-9.8c8.7-1.2,17.3-2,25.9-2.4c0,3.1,0,6.2,0,9.3
	C326.1,492.6,317.5,493.6,308.8,495z M335.5,491.9c0-3.1,0-6.2,0-9.3c7.8-0.4,15.5-0.5,23.2-0.2c2-0.1,4-0.1,6-0.1c0,3,0,6.1,0,9.1
	c-1.7,0-3.4,0.1-5.1,0.1C351.6,491.3,343.6,491.4,335.5,491.9z M368.7,491.4c-1,0-2,0-3,0c0-3,0-6.1,0-9.1
	c9.7-0.1,19.4,0.4,29.2,1.3c0,3.1,0,6.2,0,9.3C386.1,491.9,377.4,491.4,368.7,491.4z M395.7,493c0-3.1,0-6.2,0-9.3
	c10.5,1,21.1,2.5,31.8,4.4c-0.2,3.3-0.4,6.6-0.6,9.9C416.4,495.8,406,494.1,395.7,493z M427.7,498.2c0.2-3.3,0.4-6.6,0.6-9.9
	c11.6,2.1,23.3,4.7,35.2,7.7c-0.2,3.7-0.4,7.4-0.7,11.1C451,503.6,439.3,500.6,427.7,498.2z M463.7,507.3c0.3-3.8,0.5-7.5,0.7-11.2
	c12.2,3,24.5,6.5,37.2,10.1c-0.1,4.2-0.3,8.5-0.5,12.8C488.3,514.8,475.9,510.8,463.7,507.3z M539.8,532.4c-13-4.5-25.6-8.9-37.9-13
	c0.2-4.3,0.4-8.6,0.5-12.8c12.6,3.6,25.5,7.5,38.7,11.5c1.7,0.5,3.5,1.1,5.2,1.6c0,4.9,0,9.9-0.1,15
	C544.1,533.9,542,533.1,539.8,532.4z M547.1,534.9c0.1-5.1,0.1-10.1,0.1-15.1c15,4.5,30.7,9.2,47,13.8c0.3,5.7,0.6,11.6,0.8,17.5
	C578.4,545.7,562.5,540.2,547.1,534.9z M595.9,551.5c-0.2-6-0.5-11.8-0.8-17.6c17.7,5,36.1,10,55.4,14.6c0.9,6.6,1.7,13.4,2.5,20.3
	C633.1,563.3,614.1,557.4,595.9,551.5z M653.9,569.1c-0.8-7-1.6-13.7-2.5-20.4c19.7,4.7,40.3,9.2,61.9,13c1.6,7.5,3.3,15.1,4.9,23
	C695.6,580.1,674.2,574.7,653.9,569.1z"/>
</svg>
