<?xml version="1.0" encoding="utf-8"?>
<!-- Generator: Adobe Illustrator 24.1.0, SVG Export Plug-In . SVG Version: 6.00 Build 0)  -->
<svg version="1.1" id="Calque_1" xmlns="http://www.w3.org/2000/svg" xmlns:xlink="http://www.w3.org/1999/xlink" x="0px" y="0px"
	 width="600px" height="442.623px" viewBox="0 0 600 442.623" style="enable-background:new 0 0 600 442.623;" xml:space="preserve"
	>
<style type="text/css">
	.st0{fill:#FFFFFF;}
</style>
<g>
	<g>
		<path class="st0" d="M555.738,442.623H44.262C19.855,442.623,0,422.768,0,398.361V44.262C0,19.855,19.855,0,44.262,0h511.475
			C580.145,0,600,19.855,600,44.262v354.098C600,422.768,580.145,442.623,555.738,442.623z M44.262,9.836
			c-18.981,0-34.426,15.446-34.426,34.426v354.098c0,18.981,15.446,34.426,34.426,34.426h511.475
			c18.981,0,34.426-15.446,34.426-34.426V44.262c0-18.981-15.446-34.426-34.426-34.426H44.262z"/>
	</g>
	<g>
		<path class="st0" d="M354.127,196.019v15.177h42.964v16.859h-42.964v16.859h48.118l22.338-25.289l-20.626-23.607H354.127z
			 M486.451,263.465h-25.78l-22.338-28.662l-25.78,28.662h-77.331V179.16h79.052l24.059,26.98l25.78-26.98h24.059l-37.81,42.148
			L486.451,263.465z M316.327,263.465h-18.905v-65.764l-29.213,65.764h-17.184l-29.213-65.764v65.764h-39.521l-6.885-18.551h-41.243
			l-6.875,18.551H104.95l36.089-84.305h29.213l32.656,79.249V179.16h32.656l25.78,57.334l24.059-57.334h32.656v84.305H316.327z
			 M524.261,162.291h-70.456l-17.184,18.551l-15.472-18.551H271.641l-13.751,30.354l-13.741-30.354h-60.148v13.485l-6.875-13.485
			h-51.551L75.737,280.324h60.148l6.875-18.551h17.184l6.875,18.551h67.023v-13.485l5.154,13.485h34.367l5.154-15.177v15.177
			h137.479l17.184-18.551l15.472,18.551h70.456l-44.685-59.016L524.261,162.291z M141.038,226.363h27.492l-13.751-33.728
			L141.038,226.363z"/>
	</g>
</g>
</svg>
