<?xml version="1.0" encoding="utf-8"?>
<!-- Generator: Adobe Illustrator 24.1.0, SVG Export Plug-In . SVG Version: 6.00 Build 0)  -->
<svg version="1.1" id="Calque_1" xmlns="http://www.w3.org/2000/svg" xmlns:xlink="http://www.w3.org/1999/xlink" x="0px" y="0px"
	 viewBox="0 0 171.3 61" style="enable-background:new 0 0 171.3 61;" xml:space="preserve">
<style type="text/css">
	.st0{fill:#323232;}
	.st1{fill-rule:evenodd;clip-rule:evenodd;fill:#323232;}
</style>
<path class="st0" d="M76.5,1.6l-0.4,0c-4.6,0.6-9,1.6-13,3c1.5,0.7,3.1,1.3,4.6,1.9C70.3,4.3,73.3,2.7,76.5,1.6z M95.2,1.6L95.2,1.6
	c3.2,1.1,6.1,2.8,8.6,4.9c1.5-0.5,3-1.1,4.5-1.8C104.2,3.3,99.8,2.2,95.2,1.6z M82.8,1.2l-0.3,0c-5.1,0.6-9.8,2.6-13.7,5.7
	c3.1,1,6.2,1.8,9.4,2.2C79.4,5.4,81,2.6,82.8,1.2z M88.7,1.2L88.7,1.2c1.8,1.5,3.4,4.2,4.6,7.9c3.2-0.5,6.3-1.2,9.4-2.2
	C98.7,3.7,93.9,1.7,88.7,1.2z M85.7,1L85.7,1c-2.4,0-4.8,3.1-6.5,8.2c4.3,0.5,8.7,0.5,13.1,0C90.5,4.1,88.2,1,85.7,1L85.7,1z
	 M109.6,5.1l0.1-0.1c-1.7,0.8-3.3,1.5-5,2.1c2.3,2,4.2,4.4,5.8,7c3.8-0.7,7.6-1.5,11.4-2.5C118.4,9.1,114.3,6.9,109.6,5.1z M61.8,5
	c-4.7,1.7-8.9,4-12.4,6.6l-0.6-0.2c4,1.1,8.1,2,12.2,2.7c1.6-2.6,3.5-5,5.8-7c-1.5-0.6-3.1-1.2-4.6-1.9L61.8,5L61.8,5z M103.6,7.6
	l-0.1,0c-3.2,1.1-6.5,1.9-9.9,2.4c0.6,1.8,1,3.9,1.4,6.1c4.8-0.3,9.6-0.9,14.4-1.7C107.8,11.8,105.9,9.5,103.6,7.6z M67.9,7.6
	l-0.1,0.1c-2.2,1.9-4.1,4.2-5.7,6.7c4.8,0.8,9.6,1.4,14.4,1.7c0.4-2.2,0.9-4.2,1.4-6.1C74.5,9.5,71.2,8.7,67.9,7.6z M92.6,10.2
	l-0.3,0c-4.4,0.5-8.9,0.5-13.4,0c-0.6,1.8-1,3.8-1.4,6c5.5,0.3,11,0.3,16.6,0C93.6,14,93.1,12,92.6,10.2z M122.8,12.5l0.1,0
	c-3.9,1.1-7.9,2-12,2.7c1.2,2.1,2.1,4.4,2.7,6.9c5.1-0.3,10.2-0.6,15.2-1l0.9-0.1l-0.2-0.3C128.1,17.7,125.8,14.9,122.8,12.5z
	 M48.5,12.3c-3,2.5-5.5,5.2-7.1,8.3l-0.2,0.3l0.9,0.1c5.1,0.4,10.2,0.8,15.4,1l0,0.4c0.6-2.6,1.6-5,2.9-7.3
	c-3.8-0.7-7.5-1.5-11.2-2.5l-0.7-0.2L48.5,12.3z M110,15.3l-1,0.2c-4.6,0.8-9.2,1.3-13.8,1.6c0.3,1.8,0.5,3.6,0.7,5.6
	c5.6-0.1,11.3-0.3,16.9-0.6C112.1,19.7,111.2,17.4,110,15.3z M61.5,15.3l-0.1,0.2c-1.1,2-2,4.2-2.6,6.5c5.6,0.3,11.2,0.5,16.9,0.6
	l0-0.3c0.2-1.8,0.4-3.6,0.7-5.3C71.3,16.8,66.4,16.2,61.5,15.3z M94.2,17.1l-0.4,0c-5.5,0.3-11,0.3-16.5,0c-0.3,1.7-0.5,3.6-0.7,5.5
	c6.1,0.1,12.2,0.1,18.3,0C94.7,20.7,94.5,18.9,94.2,17.1z M85.7,0l0.3,0c20.8,0.1,38.8,8.6,45,20.9l0.1,0.3l-0.4,0.7l-1.6,0.1
	c-28.8,2.4-59.6,2.4-88.4-0.1l-0.3,0L40,21l0.1-0.2C46.3,8.5,64.7,0,85.6,0L85.7,0z M94.9,38.3c-6.1-0.1-12.2-0.1-18.3,0
	c0.2,1.9,0.4,3.8,0.7,5.5c5.6-0.3,11.3-0.3,16.9,0c0.3-1.7,0.5-3.5,0.7-5.3L94.9,38.3z M95.9,38.3l0,0.4c-0.2,1.8-0.4,3.6-0.6,5.2
	c5,0.3,9.9,0.9,14.8,1.7c1.2-2.1,2.1-4.3,2.8-6.7C107.2,38.6,101.5,38.4,95.9,38.3z M75.6,38.3l-1.9,0c-5,0.1-10,0.3-15,0.5
	c0.6,2.4,1.6,4.7,2.8,6.8c4.9-0.8,9.8-1.4,14.8-1.7C76,42.1,75.8,40.3,75.6,38.3z M111.1,45.7l-0.1,0.1c3.8,0.7,7.5,1.5,11.2,2.5
	l0.6,0.2c3-2.4,5.3-5.2,6.9-8.1l0.2-0.3L129,40c-4.3-0.4-8.7-0.7-13.1-0.9l-2.1-0.5C113.2,41.1,112.3,43.5,111.1,45.7z M57.7,39
	L56,39c-5.1,0.3-10.2,0.6-15.2,1.1l0.5,0l0.2,0.3c1.7,3,4.1,5.8,7.1,8.3l0-0.1c3.9-1.1,7.9-2,12-2.7C59.3,43.7,58.3,41.4,57.7,39z
	 M77.9,44.8l-0.4,0c0.4,2.2,0.9,4.2,1.4,6c4.5-0.6,9.1-0.6,13.7,0c0.6-1.8,1-3.8,1.4-6C88.6,44.5,83.3,44.5,77.9,44.8z M95,44.9
	L95,45.2c-0.4,2.1-0.8,4-1.4,5.8c3.4,0.5,6.7,1.3,10,2.4c2.3-1.9,4.2-4.2,5.8-6.8C104.7,45.8,99.9,45.2,95,44.9z M76.5,44.9l-0.6,0
	c-4.6,0.3-9.2,0.9-13.8,1.6c1.6,2.6,3.6,4.9,5.8,6.8c3.3-1.1,6.6-1.9,10-2.4C77.3,49.1,76.8,47.1,76.5,44.9z M110.5,46.8l-0.2,0.3
	c-1.5,2.5-3.4,4.8-5.6,6.7c1.6,0.6,3.1,1.2,4.6,1.9l0.3,0.2c4.7-1.7,8.8-4,12.3-6.6l0.9,0.2C118.7,48.4,114.6,47.5,110.5,46.8z
	 M61,46.8l-0.5,0.1c-3.7,0.7-7.4,1.5-11,2.5l-0.1,0C52.8,52,57,54.2,61.8,56l0,0c1.7-0.8,3.3-1.5,5-2.1C64.5,51.8,62.6,49.4,61,46.8
	z M103.8,54.5l-0.2,0.2c-2.5,2-5.4,3.6-8.4,4.7c4.6-0.6,9-1.6,13.1-3C106.8,55.7,105.3,55.1,103.8,54.5z M67.7,54.5l-0.5,0.2
	c-1.4,0.5-2.8,1.1-4.1,1.7c4.1,1.4,8.7,2.5,13.4,3C73.3,58.3,70.3,56.7,67.7,54.5z M93.3,51.9l-0.1,0.2c-1.2,3.6-2.8,6.3-4.5,7.7
	c5.2-0.6,10-2.6,14-5.7C99.6,53.1,96.5,52.4,93.3,51.9z M78.2,51.9L77.8,52c-3,0.5-6.1,1.2-9,2.2c4,3.1,8.8,5.1,14,5.7
	C81,58.4,79.4,55.6,78.2,51.9z M79.6,51.7l-0.4,0.1c1.7,5.1,4.1,8.2,6.5,8.2l0,0l0.1,0c2.4-0.1,4.7-3.2,6.4-8.2
	C88.1,51.3,83.8,51.3,79.6,51.7z M85.6,61c-20.9,0-39.2-8.5-45.4-20.8L40,40l0.3-0.8l1.7-0.1c28.8-2.4,59.6-2.4,88.4,0.1l0.2,0
	l0.4,0.7l-0.1,0.3C124.9,52.5,106.5,61,85.6,61l0.5,0l-0.3,0H85.6z"/>
<path class="st1" d="M145.4,27.7h-3.8v2.5h3.8c0.3,0,0.6,0,0.9-0.1c0.3-0.1,0.5-0.2,0.6-0.4c0.2-0.2,0.2-0.4,0.2-0.6
	c0-0.3-0.1-0.5-0.2-0.7s-0.3-0.3-0.6-0.4C146,27.8,145.7,27.7,145.4,27.7z M80.5,27.7h-3.8v2.5h3.8c0.3,0,0.6,0,0.9-0.1
	s0.5-0.2,0.6-0.4s0.2-0.4,0.2-0.6c0-0.3-0.1-0.5-0.2-0.7c-0.1-0.2-0.3-0.3-0.6-0.4C81.1,27.8,80.8,27.7,80.5,27.7z M108.7,27.7h-3.8
	v2.5h3.8c0.3,0,0.6,0,0.9-0.1c0.3-0.1,0.5-0.2,0.6-0.4s0.2-0.4,0.2-0.6c0-0.3-0.1-0.5-0.2-0.7c-0.1-0.2-0.3-0.3-0.6-0.4
	C109.4,27.8,109.1,27.7,108.7,27.7z M69.3,27.7h-3.6v2.9h3.6c0.4,0,0.7-0.1,0.9-0.2c0.3-0.1,0.5-0.3,0.6-0.5
	c0.2-0.2,0.2-0.5,0.2-0.7c0-0.3-0.1-0.5-0.2-0.7c-0.2-0.2-0.4-0.4-0.6-0.5C70,27.7,69.7,27.7,69.3,27.7z M123.1,27.9H120v5.2h3.1
	c0.6,0,1.2-0.1,1.7-0.3c0.5-0.2,0.9-0.5,1.1-0.9c0.3-0.4,0.4-0.9,0.4-1.4c0-0.5-0.1-1-0.4-1.4c-0.3-0.4-0.6-0.7-1.1-0.9
	C124.3,28,123.7,27.9,123.1,27.9z M91.5,27.7c-0.7,0-1.4,0.1-2,0.3c-0.6,0.2-1,0.6-1.3,1c-0.3,0.4-0.5,0.9-0.5,1.5s0.2,1,0.5,1.5
	c0.3,0.4,0.8,0.8,1.3,1c0.6,0.2,1.2,0.4,2,0.4s1.4-0.1,1.9-0.4c0.6-0.2,1-0.6,1.3-1c0.3-0.4,0.5-0.9,0.5-1.5s-0.2-1-0.5-1.5
	c-0.3-0.4-0.8-0.8-1.3-1C92.9,27.8,92.2,27.7,91.5,27.7z M123.3,26.2c1,0,1.9,0.2,2.7,0.5c0.8,0.4,1.4,0.9,1.8,1.5
	c0.4,0.6,0.6,1.4,0.6,2.2c0,0.8-0.2,1.6-0.6,2.2c-0.4,0.6-1,1.1-1.8,1.5c-0.8,0.4-1.7,0.5-2.7,0.5h-5.6v-8.5H123.3z M70,26.2
	c0.7,0,1.3,0.1,1.8,0.4s0.9,0.6,1.2,1c0.3,0.4,0.4,0.9,0.4,1.5c0,0.6-0.1,1.1-0.4,1.5c-0.3,0.4-0.7,0.8-1.2,1S70.7,32,70,32h-4.2
	v2.7h-2.3v-8.5H70z M32.5,26.2l2.8,6.6l2.7-6.6h2.8l2.7,6.6l2.8-6.6h2.4l-3.7,8.5h-2.7l-2.8-6.6l-2.7,6.6h-2.7l-3.8-8.5H32.5z
	 M138.3,26.2v1.6h-6.5v1.9h6v1.4h-6v2.1h6.6v1.6h-8.8v-8.5H138.3z M116.5,26.2v8.5h-2.3v-8.5H116.5z M29.7,26.2v1.6h-6.5v1.9h6v1.4
	h-6v2.1h6.6v1.6H21v-8.5H29.7z M146,26.2c0.7,0,1.3,0.1,1.8,0.3s0.9,0.5,1.2,0.9c0.3,0.4,0.4,0.9,0.4,1.4c0,0.4-0.1,0.8-0.3,1.1
	c-0.2,0.3-0.5,0.6-0.8,0.9c-0.4,0.2-0.8,0.4-1.2,0.5c0.1,0.1,0.3,0.2,0.4,0.3c0.1,0.1,0.2,0.3,0.3,0.5l0.6,1.1
	c0.1,0.1,0.2,0.2,0.2,0.3c0.1,0.1,0.2,0.1,0.3,0.1c0.1,0,0.2,0,0.4-0.1c0.1-0.1,0.2-0.2,0.3-0.3l0.5,1c-0.2,0.2-0.5,0.4-0.9,0.6
	c-0.4,0.1-0.7,0.2-1.1,0.2c-0.3,0-0.6-0.1-0.9-0.2c-0.3-0.1-0.5-0.3-0.6-0.4c-0.2-0.2-0.3-0.4-0.5-0.6l-0.6-1.3
	c-0.2-0.3-0.3-0.5-0.6-0.6c-0.2-0.1-0.5-0.2-0.8-0.2h-2.8v3.1h-2.3v-8.5H146z M81.1,26.2c0.7,0,1.3,0.1,1.8,0.3s0.9,0.5,1.2,0.9
	s0.4,0.9,0.4,1.4c0,0.4-0.1,0.8-0.3,1.1c-0.2,0.3-0.5,0.6-0.8,0.9c-0.4,0.2-0.8,0.4-1.2,0.5c0.1,0.1,0.3,0.2,0.4,0.3
	c0.1,0.1,0.2,0.3,0.3,0.5l0.6,1.1c0.1,0.1,0.2,0.2,0.2,0.3c0.1,0.1,0.2,0.1,0.3,0.1c0.1,0,0.2,0,0.4-0.1c0.1-0.1,0.2-0.2,0.3-0.3
	l0.5,1c-0.2,0.2-0.5,0.4-0.9,0.6c-0.4,0.1-0.7,0.2-1.1,0.2c-0.3,0-0.6-0.1-0.9-0.2c-0.3-0.1-0.5-0.3-0.6-0.4s-0.3-0.4-0.5-0.6
	l-0.6-1.3c-0.2-0.3-0.3-0.5-0.6-0.6c-0.2-0.1-0.5-0.2-0.8-0.2h-2.8v3.1h-2.3v-8.5H81.1z M109.4,26.2c0.7,0,1.3,0.1,1.8,0.3
	c0.5,0.2,0.9,0.5,1.2,0.9c0.3,0.4,0.4,0.9,0.4,1.4c0,0.4-0.1,0.8-0.3,1.1c-0.2,0.3-0.5,0.6-0.8,0.9c-0.4,0.2-0.8,0.4-1.2,0.5
	c0.1,0.1,0.3,0.2,0.4,0.3c0.1,0.1,0.2,0.3,0.3,0.5l0.6,1.1c0.1,0.1,0.2,0.2,0.2,0.3c0.1,0.1,0.2,0.1,0.3,0.1c0.1,0,0.2,0,0.4-0.1
	c0.1-0.1,0.2-0.2,0.3-0.3l0.5,1c-0.2,0.2-0.5,0.4-0.9,0.6c-0.4,0.1-0.7,0.2-1.1,0.2c-0.3,0-0.6-0.1-0.9-0.2
	c-0.3-0.1-0.5-0.3-0.6-0.4c-0.2-0.2-0.3-0.4-0.5-0.6l-0.6-1.3c-0.2-0.3-0.3-0.5-0.6-0.6c-0.2-0.1-0.5-0.2-0.8-0.2h-2.8v3.1h-2.3
	v-8.5H109.4z M91.5,26c1.2,0,2.2,0.2,3.2,0.6c0.9,0.4,1.6,0.9,2.1,1.6c0.5,0.7,0.8,1.5,0.8,2.4c0,0.9-0.3,1.7-0.8,2.4
	c-0.5,0.7-1.2,1.2-2.1,1.6c-0.9,0.4-2,0.6-3.2,0.6c-1.2,0-2.2-0.2-3.2-0.6c-0.9-0.4-1.6-0.9-2.1-1.6c-0.5-0.7-0.8-1.5-0.8-2.4
	c0-0.9,0.3-1.7,0.8-2.4c0.5-0.7,1.2-1.2,2.1-1.6C89.3,26.2,90.3,26,91.5,26z M53.6,26c0.6,0,1.2,0.1,1.8,0.2
	c0.6,0.1,1.1,0.3,1.6,0.5c0.5,0.2,0.8,0.4,1.1,0.7l-0.9,1.4c-0.3-0.4-0.8-0.7-1.5-0.9c-0.6-0.2-1.3-0.3-2-0.3
	c-0.5,0-0.9,0.1-1.2,0.1s-0.6,0.2-0.8,0.4c-0.2,0.2-0.3,0.3-0.3,0.5c0,0.2,0.1,0.4,0.3,0.5c0.2,0.1,0.5,0.2,0.9,0.3
	c0.4,0.1,0.9,0.1,1.5,0.2c1,0.1,1.8,0.2,2.5,0.4c0.7,0.2,1.2,0.4,1.6,0.8c0.4,0.4,0.6,0.8,0.6,1.5c0,0.6-0.2,1.1-0.6,1.5
	c-0.4,0.4-1,0.8-1.7,1c-0.7,0.2-1.5,0.4-2.4,0.4c-0.7,0-1.5-0.1-2.2-0.2c-0.7-0.2-1.3-0.4-1.9-0.7c-0.6-0.3-1-0.6-1.3-1l1.1-1.3
	c0.2,0.3,0.6,0.6,1,0.8c0.5,0.2,1,0.4,1.5,0.6c0.6,0.1,1.2,0.2,1.8,0.2c0.5,0,0.9,0,1.2-0.1c0.4-0.1,0.6-0.2,0.8-0.4
	c0.2-0.2,0.3-0.3,0.3-0.5c0-0.2-0.1-0.4-0.4-0.6s-0.5-0.2-0.9-0.3c-0.4-0.1-0.9-0.1-1.5-0.2c-1-0.1-1.8-0.2-2.4-0.4
	c-0.6-0.1-1.1-0.4-1.5-0.7c-0.4-0.3-0.6-0.8-0.6-1.5c0-0.6,0.2-1.1,0.6-1.5c0.4-0.4,0.9-0.7,1.6-0.9S52.7,26,53.6,26z"/>
<path class="st1" d="M6.7,22.5l-0.6,6.5l4.7-1.5l-6.7,11L4.7,32L0,33.4L6.7,22.5z M167.2,22.5l-0.6,6.5l4.7-1.5l-6.7,11l0.6-6.5
	l-4.7,1.5L167.2,22.5z"/>
</svg>
