<?xml version="1.0" encoding="utf-8"?>
<!-- Generator: Adobe Illustrator 24.1.0, SVG Export Plug-In . SVG Version: 6.00 Build 0)  -->
<svg version="1.1" id="Calque_1" xmlns="http://www.w3.org/2000/svg" xmlns:xlink="http://www.w3.org/1999/xlink" x="0px" y="0px"
	 viewBox="0 0 171.3 61" style="enable-background:new 0 0 171.3 61;" xml:space="preserve">
<style type="text/css">
	.st0{clip-path:url(#SVGID_33_);}
	.st1{clip-path:url(#SVGID_34_);}
	.st2{clip-path:url(#SVGID_35_);}
	.st3{clip-path:url(#SVGID_36_);}
	.st4{clip-path:url(#SVGID_37_);}
	.st5{clip-path:url(#SVGID_38_);}
	.st6{clip-path:url(#SVGID_39_);}
	.st7{clip-path:url(#SVGID_40_);}
	.st8{clip-path:url(#SVGID_41_);}
	.st9{clip-path:url(#SVGID_42_);}
	.st10{clip-path:url(#SVGID_43_);}
	.st11{clip-path:url(#SVGID_44_);}
	.st12{clip-path:url(#SVGID_45_);}
	.st13{clip-path:url(#SVGID_46_);}
	.st14{clip-path:url(#SVGID_47_);}
	.st15{clip-path:url(#SVGID_48_);}
	.st16{clip-path:url(#SVGID_49_);}
	.st17{clip-path:url(#SVGID_50_);}
	.st18{clip-path:url(#SVGID_51_);}
	.st19{clip-path:url(#SVGID_52_);}
	.st20{clip-path:url(#SVGID_53_);}
	.st21{clip-path:url(#SVGID_54_);}
	.st22{clip-path:url(#SVGID_55_);}
	.st23{clip-path:url(#SVGID_56_);}
	.st24{clip-path:url(#SVGID_57_);}
	.st25{clip-path:url(#SVGID_58_);}
	.st26{clip-path:url(#SVGID_59_);}
	.st27{clip-path:url(#SVGID_60_);}
	.st28{clip-path:url(#SVGID_61_);}
	.st29{clip-path:url(#SVGID_62_);}
	.st30{clip-path:url(#SVGID_63_);}
	.st31{clip-path:url(#SVGID_64_);}
	.st32{clip-path:url(#SVGID_66_);}
	.st33{fill:#323232;}
	.st34{clip-path:url(#SVGID_84_);}
	.st35{clip-path:url(#SVGID_85_);}
	.st36{clip-path:url(#SVGID_86_);}
	.st37{clip-path:url(#SVGID_87_);}
	.st38{clip-path:url(#SVGID_88_);}
	.st39{clip-path:url(#SVGID_89_);}
	.st40{clip-path:url(#SVGID_90_);}
	.st41{clip-path:url(#SVGID_91_);}
	.st42{clip-path:url(#SVGID_92_);}
	.st43{clip-path:url(#SVGID_93_);}
	.st44{clip-path:url(#SVGID_94_);}
	.st45{clip-path:url(#SVGID_95_);}
	.st46{clip-path:url(#SVGID_96_);}
	.st47{clip-path:url(#SVGID_97_);}
	.st48{clip-path:url(#SVGID_98_);}
	.st49{clip-path:url(#SVGID_99_);}
	.st50{clip-path:url(#SVGID_100_);}
	.st51{clip-path:url(#SVGID_102_);}
	.st52{clip-path:url(#SVGID_105_);}
	.st53{clip-path:url(#SVGID_106_);}
	.st54{clip-path:url(#SVGID_108_);}
</style>
<g>
	<defs>
		<path id="SVGID_1_" d="M76.5,1.6l-0.4,0c-4.6,0.6-9,1.6-13,3c1.5,0.7,3.1,1.3,4.6,1.9C70.3,4.3,73.3,2.7,76.5,1.6z"/>
	</defs>
	<defs>
		<path id="SVGID_2_" d="M95.2,1.6L95.2,1.6c3.2,1.1,6.1,2.8,8.6,4.9c1.5-0.5,3-1.1,4.5-1.8C104.2,3.3,99.8,2.2,95.2,1.6z"/>
	</defs>
	<defs>
		<path id="SVGID_3_" d="M82.8,1.2l-0.3,0c-5.1,0.6-9.8,2.6-13.7,5.7c3.1,1,6.2,1.8,9.4,2.2C79.4,5.4,81,2.6,82.8,1.2z"/>
	</defs>
	<defs>
		<path id="SVGID_4_" d="M88.7,1.2L88.7,1.2c1.8,1.5,3.4,4.2,4.6,7.9c3.2-0.5,6.3-1.2,9.4-2.2C98.7,3.7,93.9,1.7,88.7,1.2z"/>
	</defs>
	<defs>
		<path id="SVGID_5_" d="M85.7,1L85.7,1c-2.4,0-4.8,3.1-6.5,8.2c4.3,0.5,8.7,0.5,13.1,0C90.5,4.1,88.2,1,85.7,1L85.7,1z"/>
	</defs>
	<defs>
		<path id="SVGID_6_" d="M109.6,5.1l0.1-0.1c-1.7,0.8-3.3,1.5-5,2.1c2.3,2,4.2,4.4,5.8,7c3.8-0.7,7.6-1.5,11.4-2.5
			C118.4,9.1,114.3,6.9,109.6,5.1z"/>
	</defs>
	<defs>
		<path id="SVGID_7_" d="M61.8,5c-4.7,1.7-8.9,4-12.4,6.6l-0.6-0.2c4,1.1,8.1,2,12.2,2.7c1.6-2.6,3.5-5,5.8-7
			c-1.5-0.6-3.1-1.2-4.6-1.9L61.8,5L61.8,5z"/>
	</defs>
	<defs>
		<path id="SVGID_8_" d="M103.6,7.6l-0.1,0c-3.2,1.1-6.5,1.9-9.9,2.4c0.6,1.8,1,3.9,1.4,6.1c4.8-0.3,9.6-0.9,14.4-1.7
			C107.8,11.8,105.9,9.5,103.6,7.6z"/>
	</defs>
	<defs>
		<path id="SVGID_9_" d="M67.9,7.6l-0.1,0.1c-2.2,1.9-4.1,4.2-5.7,6.7c4.8,0.8,9.6,1.4,14.4,1.7c0.4-2.2,0.9-4.2,1.4-6.1
			C74.5,9.5,71.2,8.7,67.9,7.6z"/>
	</defs>
	<defs>
		<path id="SVGID_10_" d="M92.6,10.2l-0.3,0c-4.4,0.5-8.9,0.5-13.4,0c-0.6,1.8-1,3.8-1.4,6c5.5,0.3,11,0.3,16.6,0
			C93.6,14,93.1,12,92.6,10.2z"/>
	</defs>
	<defs>
		<path id="SVGID_11_" d="M122.8,12.5l0.1,0c-3.9,1.1-7.9,2-12,2.7c1.2,2.1,2.1,4.4,2.7,6.9c5.1-0.3,10.2-0.6,15.2-1l0.9-0.1
			l-0.2-0.3C128.1,17.7,125.8,14.9,122.8,12.5z"/>
	</defs>
	<defs>
		<path id="SVGID_12_" d="M48.5,12.3c-3,2.5-5.5,5.2-7.1,8.3l-0.2,0.3l0.9,0.1c5.1,0.4,10.2,0.8,15.4,1l0,0.4c0.6-2.6,1.6-5,2.9-7.3
			c-3.8-0.7-7.5-1.5-11.2-2.5l-0.7-0.2L48.5,12.3z"/>
	</defs>
	<defs>
		<path id="SVGID_13_" d="M110,15.3l-1,0.2c-4.6,0.8-9.2,1.3-13.8,1.6c0.3,1.8,0.5,3.6,0.7,5.6c5.6-0.1,11.3-0.3,16.9-0.6
			C112.1,19.7,111.2,17.4,110,15.3z"/>
	</defs>
	<defs>
		<path id="SVGID_14_" d="M61.5,15.3l-0.1,0.2c-1.1,2-2,4.2-2.6,6.5c5.6,0.3,11.2,0.5,16.9,0.6l0-0.3c0.2-1.8,0.4-3.6,0.7-5.3
			C71.3,16.8,66.4,16.2,61.5,15.3z"/>
	</defs>
	<defs>
		<path id="SVGID_15_" d="M94.2,17.1l-0.4,0c-5.5,0.3-11,0.3-16.5,0c-0.3,1.7-0.5,3.6-0.7,5.5c6.1,0.1,12.2,0.1,18.3,0
			C94.7,20.7,94.5,18.9,94.2,17.1z"/>
	</defs>
	<defs>
		<path id="SVGID_16_" d="M85.7,0l0.3,0c20.8,0.1,38.8,8.6,45,20.9l0.1,0.3l-0.4,0.7l-1.6,0.1c-28.8,2.4-59.6,2.4-88.4-0.1l-0.3,0
			L40,21l0.1-0.2C46.3,8.5,64.7,0,85.6,0L85.7,0z"/>
	</defs>
	<defs>
		<path id="SVGID_17_" d="M94.9,38.3c-6.1-0.1-12.2-0.1-18.3,0c0.2,1.9,0.4,3.8,0.7,5.5c5.6-0.3,11.3-0.3,16.9,0
			c0.3-1.7,0.5-3.5,0.7-5.3L94.9,38.3z"/>
	</defs>
	<defs>
		<path id="SVGID_18_" d="M95.9,38.3l0,0.4c-0.2,1.8-0.4,3.6-0.6,5.2c5,0.3,9.9,0.9,14.8,1.7c1.2-2.1,2.1-4.3,2.8-6.7
			C107.2,38.6,101.5,38.4,95.9,38.3z"/>
	</defs>
	<defs>
		<path id="SVGID_19_" d="M75.6,38.3l-1.9,0c-5,0.1-10,0.3-15,0.5c0.6,2.4,1.6,4.7,2.8,6.8c4.9-0.8,9.8-1.4,14.8-1.7
			C76,42.1,75.8,40.3,75.6,38.3z"/>
	</defs>
	<defs>
		<path id="SVGID_20_" d="M111.1,45.7l-0.1,0.1c3.8,0.7,7.5,1.5,11.2,2.5l0.6,0.2c3-2.4,5.3-5.2,6.9-8.1l0.2-0.3L129,40
			c-4.3-0.4-8.7-0.7-13.1-0.9l-2.1-0.5C113.2,41.1,112.3,43.5,111.1,45.7z"/>
	</defs>
	<defs>
		<path id="SVGID_21_" d="M57.7,39L56,39c-5.1,0.3-10.2,0.6-15.2,1.1l0.5,0l0.2,0.3c1.7,3,4.1,5.8,7.1,8.3l0-0.1
			c3.9-1.1,7.9-2,12-2.7C59.3,43.7,58.3,41.4,57.7,39z"/>
	</defs>
	<defs>
		<path id="SVGID_22_" d="M77.9,44.8l-0.4,0c0.4,2.2,0.9,4.2,1.4,6c4.5-0.6,9.1-0.6,13.7,0c0.6-1.8,1-3.8,1.4-6
			C88.6,44.5,83.3,44.5,77.9,44.8z"/>
	</defs>
	<defs>
		<path id="SVGID_23_" d="M95,44.9L95,45.2c-0.4,2.1-0.8,4-1.4,5.8c3.4,0.5,6.7,1.3,10,2.4c2.3-1.9,4.2-4.2,5.8-6.8
			C104.7,45.8,99.9,45.2,95,44.9z"/>
	</defs>
	<defs>
		<path id="SVGID_24_" d="M76.5,44.9l-0.6,0c-4.6,0.3-9.2,0.9-13.8,1.6c1.6,2.6,3.6,4.9,5.8,6.8c3.3-1.1,6.6-1.9,10-2.4
			C77.3,49.1,76.8,47.1,76.5,44.9z"/>
	</defs>
	<defs>
		<path id="SVGID_25_" d="M110.5,46.8l-0.2,0.3c-1.5,2.5-3.4,4.8-5.6,6.7c1.6,0.6,3.1,1.2,4.6,1.9l0.3,0.2c4.7-1.7,8.8-4,12.3-6.6
			l0.9,0.2C118.7,48.4,114.6,47.5,110.5,46.8z"/>
	</defs>
	<defs>
		<path id="SVGID_26_" d="M61,46.8l-0.5,0.1c-3.7,0.7-7.4,1.5-11,2.5l-0.1,0C52.8,52,57,54.2,61.8,56l0,0c1.7-0.8,3.3-1.5,5-2.1
			C64.5,51.8,62.6,49.4,61,46.8z"/>
	</defs>
	<defs>
		<path id="SVGID_27_" d="M103.8,54.5l-0.2,0.2c-2.5,2-5.4,3.6-8.4,4.7c4.6-0.6,9-1.6,13.1-3C106.8,55.7,105.3,55.1,103.8,54.5z"/>
	</defs>
	<defs>
		<path id="SVGID_28_" d="M67.7,54.5l-0.5,0.2c-1.4,0.5-2.8,1.1-4.1,1.7c4.1,1.4,8.7,2.5,13.4,3C73.3,58.3,70.3,56.7,67.7,54.5z"/>
	</defs>
	<defs>
		<path id="SVGID_29_" d="M93.3,51.9l-0.1,0.2c-1.2,3.6-2.8,6.3-4.5,7.7c5.2-0.6,10-2.6,14-5.7C99.6,53.1,96.5,52.4,93.3,51.9z"/>
	</defs>
	<defs>
		<path id="SVGID_30_" d="M78.2,51.9L77.8,52c-3,0.5-6.1,1.2-9,2.2c4,3.1,8.8,5.1,14,5.7C81,58.4,79.4,55.6,78.2,51.9z"/>
	</defs>
	<defs>
		<path id="SVGID_31_" d="M79.6,51.7l-0.4,0.1c1.7,5.1,4.1,8.2,6.5,8.2l0,0l0.1,0c2.4-0.1,4.7-3.2,6.4-8.2
			C88.1,51.3,83.8,51.3,79.6,51.7z"/>
	</defs>
	<defs>
		<path id="SVGID_32_" d="M85.6,61c-20.9,0-39.2-8.5-45.4-20.8L40,40l0.3-0.8l1.7-0.1c28.8-2.4,59.6-2.4,88.4,0.1l0.2,0l0.4,0.7
			l-0.1,0.3C124.9,52.5,106.5,61,85.6,61l0.5,0l-0.3,0H85.6z"/>
	</defs>
	<use xlink:href="#SVGID_1_"  style="overflow:visible;fill:#323232;"/>
	<use xlink:href="#SVGID_2_"  style="overflow:visible;fill:#323232;"/>
	<use xlink:href="#SVGID_3_"  style="overflow:visible;fill:#323232;"/>
	<use xlink:href="#SVGID_4_"  style="overflow:visible;fill:#323232;"/>
	<use xlink:href="#SVGID_5_"  style="overflow:visible;fill:#323232;"/>
	<use xlink:href="#SVGID_6_"  style="overflow:visible;fill:#323232;"/>
	<use xlink:href="#SVGID_7_"  style="overflow:visible;fill:#323232;"/>
	<use xlink:href="#SVGID_8_"  style="overflow:visible;fill:#323232;"/>
	<use xlink:href="#SVGID_9_"  style="overflow:visible;fill:#323232;"/>
	<use xlink:href="#SVGID_10_"  style="overflow:visible;fill:#323232;"/>
	<use xlink:href="#SVGID_11_"  style="overflow:visible;fill:#323232;"/>
	<use xlink:href="#SVGID_12_"  style="overflow:visible;fill:#323232;"/>
	<use xlink:href="#SVGID_13_"  style="overflow:visible;fill:#323232;"/>
	<use xlink:href="#SVGID_14_"  style="overflow:visible;fill:#323232;"/>
	<use xlink:href="#SVGID_15_"  style="overflow:visible;fill:#323232;"/>
	<use xlink:href="#SVGID_16_"  style="overflow:visible;fill:#323232;"/>
	<use xlink:href="#SVGID_17_"  style="overflow:visible;fill:#323232;"/>
	<use xlink:href="#SVGID_18_"  style="overflow:visible;fill:#323232;"/>
	<use xlink:href="#SVGID_19_"  style="overflow:visible;fill:#323232;"/>
	<use xlink:href="#SVGID_20_"  style="overflow:visible;fill:#323232;"/>
	<use xlink:href="#SVGID_21_"  style="overflow:visible;fill:#323232;"/>
	<use xlink:href="#SVGID_22_"  style="overflow:visible;fill:#323232;"/>
	<use xlink:href="#SVGID_23_"  style="overflow:visible;fill:#323232;"/>
	<use xlink:href="#SVGID_24_"  style="overflow:visible;fill:#323232;"/>
	<use xlink:href="#SVGID_25_"  style="overflow:visible;fill:#323232;"/>
	<use xlink:href="#SVGID_26_"  style="overflow:visible;fill:#323232;"/>
	<use xlink:href="#SVGID_27_"  style="overflow:visible;fill:#323232;"/>
	<use xlink:href="#SVGID_28_"  style="overflow:visible;fill:#323232;"/>
	<use xlink:href="#SVGID_29_"  style="overflow:visible;fill:#323232;"/>
	<use xlink:href="#SVGID_30_"  style="overflow:visible;fill:#323232;"/>
	<use xlink:href="#SVGID_31_"  style="overflow:visible;fill:#323232;"/>
	<use xlink:href="#SVGID_32_"  style="overflow:visible;fill:#323232;"/>
	<clipPath id="SVGID_33_">
		<use xlink:href="#SVGID_1_"  style="overflow:visible;"/>
	</clipPath>
	<clipPath id="SVGID_34_" class="st0">
		<use xlink:href="#SVGID_2_"  style="overflow:visible;"/>
	</clipPath>
	<clipPath id="SVGID_35_" class="st1">
		<use xlink:href="#SVGID_3_"  style="overflow:visible;"/>
	</clipPath>
	<clipPath id="SVGID_36_" class="st2">
		<use xlink:href="#SVGID_4_"  style="overflow:visible;"/>
	</clipPath>
	<clipPath id="SVGID_37_" class="st3">
		<use xlink:href="#SVGID_5_"  style="overflow:visible;"/>
	</clipPath>
	<clipPath id="SVGID_38_" class="st4">
		<use xlink:href="#SVGID_6_"  style="overflow:visible;"/>
	</clipPath>
	<clipPath id="SVGID_39_" class="st5">
		<use xlink:href="#SVGID_7_"  style="overflow:visible;"/>
	</clipPath>
	<clipPath id="SVGID_40_" class="st6">
		<use xlink:href="#SVGID_8_"  style="overflow:visible;"/>
	</clipPath>
	<clipPath id="SVGID_41_" class="st7">
		<use xlink:href="#SVGID_9_"  style="overflow:visible;"/>
	</clipPath>
	<clipPath id="SVGID_42_" class="st8">
		<use xlink:href="#SVGID_10_"  style="overflow:visible;"/>
	</clipPath>
	<clipPath id="SVGID_43_" class="st9">
		<use xlink:href="#SVGID_11_"  style="overflow:visible;"/>
	</clipPath>
	<clipPath id="SVGID_44_" class="st10">
		<use xlink:href="#SVGID_12_"  style="overflow:visible;"/>
	</clipPath>
	<clipPath id="SVGID_45_" class="st11">
		<use xlink:href="#SVGID_13_"  style="overflow:visible;"/>
	</clipPath>
	<clipPath id="SVGID_46_" class="st12">
		<use xlink:href="#SVGID_14_"  style="overflow:visible;"/>
	</clipPath>
	<clipPath id="SVGID_47_" class="st13">
		<use xlink:href="#SVGID_15_"  style="overflow:visible;"/>
	</clipPath>
	<clipPath id="SVGID_48_" class="st14">
		<use xlink:href="#SVGID_16_"  style="overflow:visible;"/>
	</clipPath>
	<clipPath id="SVGID_49_" class="st15">
		<use xlink:href="#SVGID_17_"  style="overflow:visible;"/>
	</clipPath>
	<clipPath id="SVGID_50_" class="st16">
		<use xlink:href="#SVGID_18_"  style="overflow:visible;"/>
	</clipPath>
	<clipPath id="SVGID_51_" class="st17">
		<use xlink:href="#SVGID_19_"  style="overflow:visible;"/>
	</clipPath>
	<clipPath id="SVGID_52_" class="st18">
		<use xlink:href="#SVGID_20_"  style="overflow:visible;"/>
	</clipPath>
	<clipPath id="SVGID_53_" class="st19">
		<use xlink:href="#SVGID_21_"  style="overflow:visible;"/>
	</clipPath>
	<clipPath id="SVGID_54_" class="st20">
		<use xlink:href="#SVGID_22_"  style="overflow:visible;"/>
	</clipPath>
	<clipPath id="SVGID_55_" class="st21">
		<use xlink:href="#SVGID_23_"  style="overflow:visible;"/>
	</clipPath>
	<clipPath id="SVGID_56_" class="st22">
		<use xlink:href="#SVGID_24_"  style="overflow:visible;"/>
	</clipPath>
	<clipPath id="SVGID_57_" class="st23">
		<use xlink:href="#SVGID_25_"  style="overflow:visible;"/>
	</clipPath>
	<clipPath id="SVGID_58_" class="st24">
		<use xlink:href="#SVGID_26_"  style="overflow:visible;"/>
	</clipPath>
	<clipPath id="SVGID_59_" class="st25">
		<use xlink:href="#SVGID_27_"  style="overflow:visible;"/>
	</clipPath>
	<clipPath id="SVGID_60_" class="st26">
		<use xlink:href="#SVGID_28_"  style="overflow:visible;"/>
	</clipPath>
	<clipPath id="SVGID_61_" class="st27">
		<use xlink:href="#SVGID_29_"  style="overflow:visible;"/>
	</clipPath>
	<clipPath id="SVGID_62_" class="st28">
		<use xlink:href="#SVGID_30_"  style="overflow:visible;"/>
	</clipPath>
	<clipPath id="SVGID_63_" class="st29">
		<use xlink:href="#SVGID_31_"  style="overflow:visible;"/>
	</clipPath>
	<clipPath id="SVGID_64_" class="st30">
		<use xlink:href="#SVGID_32_"  style="overflow:visible;"/>
	</clipPath>
	<g class="st31">
		<defs>
			<rect id="SVGID_65_" x="-634" y="-4768" width="1440" height="6380"/>
		</defs>
		<use xlink:href="#SVGID_65_"  style="overflow:visible;fill:#323232;"/>
		<clipPath id="SVGID_66_">
			<use xlink:href="#SVGID_65_"  style="overflow:visible;"/>
		</clipPath>
		<g class="st32">
			<rect x="35" y="-5" class="st33" width="101.1" height="71"/>
		</g>
	</g>
</g>
<g>
	<defs>
		<path id="SVGID_67_" d="M145.4,27.7h-3.8v2.5h3.8c0.3,0,0.6,0,0.9-0.1c0.3-0.1,0.5-0.2,0.6-0.4c0.2-0.2,0.2-0.4,0.2-0.6
			c0-0.3-0.1-0.5-0.2-0.7s-0.3-0.3-0.6-0.4C146,27.8,145.7,27.7,145.4,27.7z"/>
	</defs>
	<defs>
		<path id="SVGID_68_" d="M80.5,27.7h-3.8v2.5h3.8c0.3,0,0.6,0,0.9-0.1s0.5-0.2,0.6-0.4s0.2-0.4,0.2-0.6c0-0.3-0.1-0.5-0.2-0.7
			c-0.1-0.2-0.3-0.3-0.6-0.4C81.1,27.8,80.8,27.7,80.5,27.7z"/>
	</defs>
	<defs>
		<path id="SVGID_69_" d="M108.7,27.7h-3.8v2.5h3.8c0.3,0,0.6,0,0.9-0.1c0.3-0.1,0.5-0.2,0.6-0.4s0.2-0.4,0.2-0.6
			c0-0.3-0.1-0.5-0.2-0.7c-0.1-0.2-0.3-0.3-0.6-0.4C109.4,27.8,109.1,27.7,108.7,27.7z"/>
	</defs>
	<defs>
		<path id="SVGID_70_" d="M69.3,27.7h-3.6v2.9h3.6c0.4,0,0.7-0.1,0.9-0.2c0.3-0.1,0.5-0.3,0.6-0.5c0.2-0.2,0.2-0.5,0.2-0.7
			c0-0.3-0.1-0.5-0.2-0.7c-0.2-0.2-0.4-0.4-0.6-0.5C70,27.7,69.7,27.7,69.3,27.7z"/>
	</defs>
	<defs>
		<path id="SVGID_71_" d="M123.1,27.9H120v5.2h3.1c0.6,0,1.2-0.1,1.7-0.3c0.5-0.2,0.9-0.5,1.1-0.9c0.3-0.4,0.4-0.9,0.4-1.4
			c0-0.5-0.1-1-0.4-1.4c-0.3-0.4-0.6-0.7-1.1-0.9C124.3,28,123.7,27.9,123.1,27.9z"/>
	</defs>
	<defs>
		<path id="SVGID_72_" d="M91.5,27.7c-0.7,0-1.4,0.1-2,0.3c-0.6,0.2-1,0.6-1.3,1c-0.3,0.4-0.5,0.9-0.5,1.5s0.2,1,0.5,1.5
			c0.3,0.4,0.8,0.8,1.3,1c0.6,0.2,1.2,0.4,2,0.4s1.4-0.1,1.9-0.4c0.6-0.2,1-0.6,1.3-1c0.3-0.4,0.5-0.9,0.5-1.5s-0.2-1-0.5-1.5
			c-0.3-0.4-0.8-0.8-1.3-1C92.9,27.8,92.2,27.7,91.5,27.7z"/>
	</defs>
	<defs>
		<path id="SVGID_73_" d="M123.3,26.2c1,0,1.9,0.2,2.7,0.5c0.8,0.4,1.4,0.9,1.8,1.5c0.4,0.6,0.6,1.4,0.6,2.2c0,0.8-0.2,1.6-0.6,2.2
			c-0.4,0.6-1,1.1-1.8,1.5c-0.8,0.4-1.7,0.5-2.7,0.5h-5.6v-8.5H123.3z"/>
	</defs>
	<defs>
		<path id="SVGID_74_" d="M70,26.2c0.7,0,1.3,0.1,1.8,0.4s0.9,0.6,1.2,1c0.3,0.4,0.4,0.9,0.4,1.5c0,0.6-0.1,1.1-0.4,1.5
			c-0.3,0.4-0.7,0.8-1.2,1S70.7,32,70,32h-4.2v2.7h-2.3v-8.5H70z"/>
	</defs>
	<defs>
		<polygon id="SVGID_75_" points="32.5,26.2 35.3,32.9 37.9,26.2 40.7,26.2 43.4,32.9 46.2,26.2 48.6,26.2 44.8,34.8 42.1,34.8 
			39.3,28.1 36.6,34.8 33.8,34.8 30.1,26.2 		"/>
	</defs>
	<defs>
		<polygon id="SVGID_76_" points="138.3,26.2 138.3,27.8 131.8,27.8 131.8,29.7 137.8,29.7 137.8,31.1 131.8,31.1 131.8,33.2 
			138.4,33.2 138.4,34.8 129.6,34.8 129.6,26.2 		"/>
	</defs>
	<defs>
		<rect id="SVGID_77_" x="114.2" y="26.2" width="2.3" height="8.5"/>
	</defs>
	<defs>
		<polygon id="SVGID_78_" points="29.7,26.2 29.7,27.8 23.3,27.8 23.3,29.7 29.2,29.7 29.2,31.1 23.3,31.1 23.3,33.2 29.8,33.2 
			29.8,34.8 21,34.8 21,26.2 		"/>
	</defs>
	<defs>
		<path id="SVGID_79_" d="M146,26.2c0.7,0,1.3,0.1,1.8,0.3s0.9,0.5,1.2,0.9c0.3,0.4,0.4,0.9,0.4,1.4c0,0.4-0.1,0.8-0.3,1.1
			c-0.2,0.3-0.5,0.6-0.8,0.9c-0.4,0.2-0.8,0.4-1.2,0.5c0.1,0.1,0.3,0.2,0.4,0.3c0.1,0.1,0.2,0.3,0.3,0.5l0.6,1.1
			c0.1,0.1,0.2,0.2,0.2,0.3c0.1,0.1,0.2,0.1,0.3,0.1c0.1,0,0.2,0,0.4-0.1c0.1-0.1,0.2-0.2,0.3-0.3l0.5,1c-0.2,0.2-0.5,0.4-0.9,0.6
			c-0.4,0.1-0.7,0.2-1.1,0.2c-0.3,0-0.6-0.1-0.9-0.2c-0.3-0.1-0.5-0.3-0.6-0.4c-0.2-0.2-0.3-0.4-0.5-0.6l-0.6-1.3
			c-0.2-0.3-0.3-0.5-0.6-0.6c-0.2-0.1-0.5-0.2-0.8-0.2h-2.8v3.1h-2.3v-8.5H146z"/>
	</defs>
	<defs>
		<path id="SVGID_80_" d="M81.1,26.2c0.7,0,1.3,0.1,1.8,0.3s0.9,0.5,1.2,0.9s0.4,0.9,0.4,1.4c0,0.4-0.1,0.8-0.3,1.1
			c-0.2,0.3-0.5,0.6-0.8,0.9c-0.4,0.2-0.8,0.4-1.2,0.5c0.1,0.1,0.3,0.2,0.4,0.3c0.1,0.1,0.2,0.3,0.3,0.5l0.6,1.1
			c0.1,0.1,0.2,0.2,0.2,0.3c0.1,0.1,0.2,0.1,0.3,0.1c0.1,0,0.2,0,0.4-0.1c0.1-0.1,0.2-0.2,0.3-0.3l0.5,1c-0.2,0.2-0.5,0.4-0.9,0.6
			c-0.4,0.1-0.7,0.2-1.1,0.2c-0.3,0-0.6-0.1-0.9-0.2c-0.3-0.1-0.5-0.3-0.6-0.4s-0.3-0.4-0.5-0.6l-0.6-1.3c-0.2-0.3-0.3-0.5-0.6-0.6
			c-0.2-0.1-0.5-0.2-0.8-0.2h-2.8v3.1h-2.3v-8.5H81.1z"/>
	</defs>
	<defs>
		<path id="SVGID_81_" d="M109.4,26.2c0.7,0,1.3,0.1,1.8,0.3c0.5,0.2,0.9,0.5,1.2,0.9c0.3,0.4,0.4,0.9,0.4,1.4
			c0,0.4-0.1,0.8-0.3,1.1c-0.2,0.3-0.5,0.6-0.8,0.9c-0.4,0.2-0.8,0.4-1.2,0.5c0.1,0.1,0.3,0.2,0.4,0.3c0.1,0.1,0.2,0.3,0.3,0.5
			l0.6,1.1c0.1,0.1,0.2,0.2,0.2,0.3c0.1,0.1,0.2,0.1,0.3,0.1c0.1,0,0.2,0,0.4-0.1c0.1-0.1,0.2-0.2,0.3-0.3l0.5,1
			c-0.2,0.2-0.5,0.4-0.9,0.6c-0.4,0.1-0.7,0.2-1.1,0.2c-0.3,0-0.6-0.1-0.9-0.2c-0.3-0.1-0.5-0.3-0.6-0.4c-0.2-0.2-0.3-0.4-0.5-0.6
			l-0.6-1.3c-0.2-0.3-0.3-0.5-0.6-0.6c-0.2-0.1-0.5-0.2-0.8-0.2h-2.8v3.1h-2.3v-8.5H109.4z"/>
	</defs>
	<defs>
		<path id="SVGID_82_" d="M91.5,26c1.2,0,2.2,0.2,3.2,0.6c0.9,0.4,1.6,0.9,2.1,1.6c0.5,0.7,0.8,1.5,0.8,2.4c0,0.9-0.3,1.7-0.8,2.4
			c-0.5,0.7-1.2,1.2-2.1,1.6c-0.9,0.4-2,0.6-3.2,0.6c-1.2,0-2.2-0.2-3.2-0.6c-0.9-0.4-1.6-0.9-2.1-1.6c-0.5-0.7-0.8-1.5-0.8-2.4
			c0-0.9,0.3-1.7,0.8-2.4c0.5-0.7,1.2-1.2,2.1-1.6C89.3,26.2,90.3,26,91.5,26z"/>
	</defs>
	<defs>
		<path id="SVGID_83_" d="M53.6,26c0.6,0,1.2,0.1,1.8,0.2c0.6,0.1,1.1,0.3,1.6,0.5c0.5,0.2,0.8,0.4,1.1,0.7l-0.9,1.4
			c-0.3-0.4-0.8-0.7-1.5-0.9c-0.6-0.2-1.3-0.3-2-0.3c-0.5,0-0.9,0.1-1.2,0.1s-0.6,0.2-0.8,0.4c-0.2,0.2-0.3,0.3-0.3,0.5
			c0,0.2,0.1,0.4,0.3,0.5c0.2,0.1,0.5,0.2,0.9,0.3c0.4,0.1,0.9,0.1,1.5,0.2c1,0.1,1.8,0.2,2.5,0.4c0.7,0.2,1.2,0.4,1.6,0.8
			c0.4,0.4,0.6,0.8,0.6,1.5c0,0.6-0.2,1.1-0.6,1.5c-0.4,0.4-1,0.8-1.7,1c-0.7,0.2-1.5,0.4-2.4,0.4c-0.7,0-1.5-0.1-2.2-0.2
			c-0.7-0.2-1.3-0.4-1.9-0.7c-0.6-0.3-1-0.6-1.3-1l1.1-1.3c0.2,0.3,0.6,0.6,1,0.8c0.5,0.2,1,0.4,1.5,0.6c0.6,0.1,1.2,0.2,1.8,0.2
			c0.5,0,0.9,0,1.2-0.1c0.4-0.1,0.6-0.2,0.8-0.4c0.2-0.2,0.3-0.3,0.3-0.5c0-0.2-0.1-0.4-0.4-0.6s-0.5-0.2-0.9-0.3
			c-0.4-0.1-0.9-0.1-1.5-0.2c-1-0.1-1.8-0.2-2.4-0.4c-0.6-0.1-1.1-0.4-1.5-0.7c-0.4-0.3-0.6-0.8-0.6-1.5c0-0.6,0.2-1.1,0.6-1.5
			c0.4-0.4,0.9-0.7,1.6-0.9S52.7,26,53.6,26z"/>
	</defs>
	<use xlink:href="#SVGID_67_"  style="overflow:visible;fill:#323232;"/>
	<use xlink:href="#SVGID_68_"  style="overflow:visible;fill:#323232;"/>
	<use xlink:href="#SVGID_69_"  style="overflow:visible;fill:#323232;"/>
	<use xlink:href="#SVGID_70_"  style="overflow:visible;fill:#323232;"/>
	<use xlink:href="#SVGID_71_"  style="overflow:visible;fill:#323232;"/>
	<use xlink:href="#SVGID_72_"  style="overflow:visible;fill:#323232;"/>
	<use xlink:href="#SVGID_73_"  style="overflow:visible;fill:#323232;"/>
	<use xlink:href="#SVGID_74_"  style="overflow:visible;fill:#323232;"/>
	<use xlink:href="#SVGID_75_"  style="overflow:visible;fill:#323232;"/>
	<use xlink:href="#SVGID_76_"  style="overflow:visible;fill:#323232;"/>
	<use xlink:href="#SVGID_77_"  style="overflow:visible;fill:#323232;"/>
	<use xlink:href="#SVGID_78_"  style="overflow:visible;fill:#323232;"/>
	<use xlink:href="#SVGID_79_"  style="overflow:visible;fill:#323232;"/>
	<use xlink:href="#SVGID_80_"  style="overflow:visible;fill:#323232;"/>
	<use xlink:href="#SVGID_81_"  style="overflow:visible;fill:#323232;"/>
	<use xlink:href="#SVGID_82_"  style="overflow:visible;fill:#323232;"/>
	<use xlink:href="#SVGID_83_"  style="overflow:visible;fill:#323232;"/>
	<clipPath id="SVGID_84_">
		<use xlink:href="#SVGID_67_"  style="overflow:visible;"/>
	</clipPath>
	<clipPath id="SVGID_85_" class="st34">
		<use xlink:href="#SVGID_68_"  style="overflow:visible;"/>
	</clipPath>
	<clipPath id="SVGID_86_" class="st35">
		<use xlink:href="#SVGID_69_"  style="overflow:visible;"/>
	</clipPath>
	<clipPath id="SVGID_87_" class="st36">
		<use xlink:href="#SVGID_70_"  style="overflow:visible;"/>
	</clipPath>
	<clipPath id="SVGID_88_" class="st37">
		<use xlink:href="#SVGID_71_"  style="overflow:visible;"/>
	</clipPath>
	<clipPath id="SVGID_89_" class="st38">
		<use xlink:href="#SVGID_72_"  style="overflow:visible;"/>
	</clipPath>
	<clipPath id="SVGID_90_" class="st39">
		<use xlink:href="#SVGID_73_"  style="overflow:visible;"/>
	</clipPath>
	<clipPath id="SVGID_91_" class="st40">
		<use xlink:href="#SVGID_74_"  style="overflow:visible;"/>
	</clipPath>
	<clipPath id="SVGID_92_" class="st41">
		<use xlink:href="#SVGID_75_"  style="overflow:visible;"/>
	</clipPath>
	<clipPath id="SVGID_93_" class="st42">
		<use xlink:href="#SVGID_76_"  style="overflow:visible;"/>
	</clipPath>
	<clipPath id="SVGID_94_" class="st43">
		<use xlink:href="#SVGID_77_"  style="overflow:visible;"/>
	</clipPath>
	<clipPath id="SVGID_95_" class="st44">
		<use xlink:href="#SVGID_78_"  style="overflow:visible;"/>
	</clipPath>
	<clipPath id="SVGID_96_" class="st45">
		<use xlink:href="#SVGID_79_"  style="overflow:visible;"/>
	</clipPath>
	<clipPath id="SVGID_97_" class="st46">
		<use xlink:href="#SVGID_80_"  style="overflow:visible;"/>
	</clipPath>
	<clipPath id="SVGID_98_" class="st47">
		<use xlink:href="#SVGID_81_"  style="overflow:visible;"/>
	</clipPath>
	<clipPath id="SVGID_99_" class="st48">
		<use xlink:href="#SVGID_82_"  style="overflow:visible;"/>
	</clipPath>
	<clipPath id="SVGID_100_" class="st49">
		<use xlink:href="#SVGID_83_"  style="overflow:visible;"/>
	</clipPath>
	<g class="st50">
		<defs>
			<rect id="SVGID_101_" x="-634" y="-4768" width="1440" height="6380"/>
		</defs>
		<use xlink:href="#SVGID_101_"  style="overflow:visible;fill:#323232;"/>
		<clipPath id="SVGID_102_">
			<use xlink:href="#SVGID_101_"  style="overflow:visible;"/>
		</clipPath>
		<g class="st51">
			<rect x="16" y="21" class="st33" width="139.3" height="19"/>
		</g>
	</g>
</g>
<g>
	<defs>
		<polygon id="SVGID_103_" points="6.7,22.5 6.1,28.9 10.8,27.5 4.2,38.4 4.7,32 0,33.4 		"/>
	</defs>
	<defs>
		<polygon id="SVGID_104_" points="167.2,22.5 166.6,28.9 171.3,27.5 164.7,38.4 165.2,32 160.5,33.4 		"/>
	</defs>
	<use xlink:href="#SVGID_103_"  style="overflow:visible;fill:#323232;"/>
	<use xlink:href="#SVGID_104_"  style="overflow:visible;fill:#323232;"/>
	<clipPath id="SVGID_105_">
		<use xlink:href="#SVGID_103_"  style="overflow:visible;"/>
	</clipPath>
	<clipPath id="SVGID_106_" class="st52">
		<use xlink:href="#SVGID_104_"  style="overflow:visible;"/>
	</clipPath>
	<g class="st53">
		<defs>
			<rect id="SVGID_107_" x="-634" y="-4768" width="1440" height="6380"/>
		</defs>
		<use xlink:href="#SVGID_107_"  style="overflow:visible;fill:#323232;"/>
		<clipPath id="SVGID_108_">
			<use xlink:href="#SVGID_107_"  style="overflow:visible;"/>
		</clipPath>
		<g class="st54">
			<rect x="-5" y="17.5" class="st33" width="181.3" height="26"/>
		</g>
	</g>
</g>
</svg>
