<?xml version="1.0" encoding="utf-8"?>
<!-- Generator: Adobe Illustrator 24.1.0, SVG Export Plug-In . SVG Version: 6.00 Build 0)  -->
<svg version="1.1" id="Calque_1" xmlns="http://www.w3.org/2000/svg" xmlns:xlink="http://www.w3.org/1999/xlink" x="0px" y="0px"
	 viewBox="0 0 962 842" style="enable-background:new 0 0 962 842;" xml:space="preserve">
<style type="text/css">
	.st0{fill-rule:evenodd;clip-rule:evenodd;fill:#323232;}
</style>
<rect id="Rectangle" y="60" class="st0" width="2" height="2"/>
<rect id="Rectangle-Copy-2" x="60" y="60" class="st0" width="2" height="2"/>
<rect id="Rectangle-Copy-7" x="120" y="60" class="st0" width="2" height="2"/>
<rect id="Rectangle-Copy-8" x="180" y="60" class="st0" width="2" height="2"/>
<rect id="Rectangle-Copy-9" x="240" y="60" class="st0" width="2" height="2"/>
<rect id="Rectangle-Copy-10" x="300" y="60" class="st0" width="2" height="2"/>
<rect id="Rectangle-Copy-11" x="360" y="60" class="st0" width="2" height="2"/>
<rect id="Rectangle-Copy-12" x="420" y="60" class="st0" width="2" height="2"/>
<rect id="Rectangle-Copy-13" x="480" y="60" class="st0" width="2" height="2"/>
<rect id="Rectangle-Copy-14" x="540" y="60" class="st0" width="2" height="2"/>
<rect id="Rectangle-Copy-15" x="600" y="60" class="st0" width="2" height="2"/>
<rect id="Rectangle-Copy-16" x="660" y="60" class="st0" width="2" height="2"/>
<rect id="Rectangle-Copy-17" x="720" y="60" class="st0" width="2" height="2"/>
<rect id="Rectangle-Copy-18" x="780" y="60" class="st0" width="2" height="2"/>
<rect id="Rectangle-Copy-19" x="840" y="60" class="st0" width="2" height="2"/>
<rect id="Rectangle-Copy-20" x="900" y="60" class="st0" width="2" height="2"/>
<rect id="Rectangle-Copy-21" x="960" y="60" class="st0" width="2" height="2"/>
<rect id="Rectangle_1_" y="120" class="st0" width="2" height="2"/>
<rect id="Rectangle-Copy-2_1_" x="60" y="120" class="st0" width="2" height="2"/>
<rect id="Rectangle-Copy-7_1_" x="120" y="120" class="st0" width="2" height="2"/>
<rect id="Rectangle-Copy-8_1_" x="180" y="120" class="st0" width="2" height="2"/>
<rect id="Rectangle-Copy-9_1_" x="240" y="120" class="st0" width="2" height="2"/>
<rect id="Rectangle-Copy-10_1_" x="300" y="120" class="st0" width="2" height="2"/>
<rect id="Rectangle-Copy-11_1_" x="360" y="120" class="st0" width="2" height="2"/>
<rect id="Rectangle-Copy-12_1_" x="420" y="120" class="st0" width="2" height="2"/>
<rect id="Rectangle-Copy-13_1_" x="480" y="120" class="st0" width="2" height="2"/>
<rect id="Rectangle-Copy-14_1_" x="540" y="120" class="st0" width="2" height="2"/>
<rect id="Rectangle-Copy-15_1_" x="600" y="120" class="st0" width="2" height="2"/>
<rect id="Rectangle-Copy-16_1_" x="660" y="120" class="st0" width="2" height="2"/>
<rect id="Rectangle-Copy-17_1_" x="720" y="120" class="st0" width="2" height="2"/>
<rect id="Rectangle-Copy-18_1_" x="780" y="120" class="st0" width="2" height="2"/>
<rect id="Rectangle-Copy-19_1_" x="840" y="120" class="st0" width="2" height="2"/>
<rect id="Rectangle-Copy-20_1_" x="900" y="120" class="st0" width="2" height="2"/>
<rect id="Rectangle-Copy-21_1_" x="960" y="120" class="st0" width="2" height="2"/>
<rect id="Rectangle_2_" y="180" class="st0" width="2" height="2"/>
<rect id="Rectangle-Copy-2_2_" x="60" y="180" class="st0" width="2" height="2"/>
<rect id="Rectangle-Copy-7_2_" x="120" y="180" class="st0" width="2" height="2"/>
<rect id="Rectangle-Copy-8_2_" x="180" y="180" class="st0" width="2" height="2"/>
<rect id="Rectangle-Copy-9_2_" x="240" y="180" class="st0" width="2" height="2"/>
<rect id="Rectangle-Copy-10_2_" x="300" y="180" class="st0" width="2" height="2"/>
<rect id="Rectangle-Copy-11_2_" x="360" y="180" class="st0" width="2" height="2"/>
<rect id="Rectangle-Copy-12_2_" x="420" y="180" class="st0" width="2" height="2"/>
<rect id="Rectangle-Copy-13_2_" x="480" y="180" class="st0" width="2" height="2"/>
<rect id="Rectangle-Copy-14_2_" x="540" y="180" class="st0" width="2" height="2"/>
<rect id="Rectangle-Copy-15_2_" x="600" y="180" class="st0" width="2" height="2"/>
<rect id="Rectangle-Copy-16_2_" x="660" y="180" class="st0" width="2" height="2"/>
<rect id="Rectangle-Copy-17_2_" x="720" y="180" class="st0" width="2" height="2"/>
<rect id="Rectangle-Copy-18_2_" x="780" y="180" class="st0" width="2" height="2"/>
<rect id="Rectangle-Copy-19_2_" x="840" y="180" class="st0" width="2" height="2"/>
<rect id="Rectangle-Copy-20_2_" x="900" y="180" class="st0" width="2" height="2"/>
<rect id="Rectangle-Copy-21_2_" x="960" y="180" class="st0" width="2" height="2"/>
<rect id="Rectangle_3_" y="240" class="st0" width="2" height="2"/>
<rect id="Rectangle-Copy-2_3_" x="60" y="240" class="st0" width="2" height="2"/>
<rect id="Rectangle-Copy-7_3_" x="120" y="240" class="st0" width="2" height="2"/>
<rect id="Rectangle-Copy-8_3_" x="180" y="240" class="st0" width="2" height="2"/>
<rect id="Rectangle-Copy-9_3_" x="240" y="240" class="st0" width="2" height="2"/>
<rect id="Rectangle-Copy-10_3_" x="300" y="240" class="st0" width="2" height="2"/>
<rect id="Rectangle-Copy-11_3_" x="360" y="240" class="st0" width="2" height="2"/>
<rect id="Rectangle-Copy-12_3_" x="420" y="240" class="st0" width="2" height="2"/>
<rect id="Rectangle-Copy-13_3_" x="480" y="240" class="st0" width="2" height="2"/>
<rect id="Rectangle-Copy-14_3_" x="540" y="240" class="st0" width="2" height="2"/>
<rect id="Rectangle-Copy-15_3_" x="600" y="240" class="st0" width="2" height="2"/>
<rect id="Rectangle-Copy-16_3_" x="660" y="240" class="st0" width="2" height="2"/>
<rect id="Rectangle-Copy-17_3_" x="720" y="240" class="st0" width="2" height="2"/>
<rect id="Rectangle-Copy-18_3_" x="780" y="240" class="st0" width="2" height="2"/>
<rect id="Rectangle-Copy-19_3_" x="840" y="240" class="st0" width="2" height="2"/>
<rect id="Rectangle-Copy-20_3_" x="900" y="240" class="st0" width="2" height="2"/>
<rect id="Rectangle-Copy-21_3_" x="960" y="240" class="st0" width="2" height="2"/>
<rect id="Rectangle_4_" y="300" class="st0" width="2" height="2"/>
<rect id="Rectangle-Copy-2_4_" x="60" y="300" class="st0" width="2" height="2"/>
<rect id="Rectangle-Copy-7_4_" x="120" y="300" class="st0" width="2" height="2"/>
<rect id="Rectangle-Copy-8_4_" x="180" y="300" class="st0" width="2" height="2"/>
<rect id="Rectangle-Copy-9_4_" x="240" y="300" class="st0" width="2" height="2"/>
<rect id="Rectangle-Copy-10_4_" x="300" y="300" class="st0" width="2" height="2"/>
<rect id="Rectangle-Copy-11_4_" x="360" y="300" class="st0" width="2" height="2"/>
<rect id="Rectangle-Copy-12_4_" x="420" y="300" class="st0" width="2" height="2"/>
<rect id="Rectangle-Copy-13_4_" x="480" y="300" class="st0" width="2" height="2"/>
<rect id="Rectangle-Copy-14_4_" x="540" y="300" class="st0" width="2" height="2"/>
<rect id="Rectangle-Copy-15_4_" x="600" y="300" class="st0" width="2" height="2"/>
<rect id="Rectangle-Copy-16_4_" x="660" y="300" class="st0" width="2" height="2"/>
<rect id="Rectangle-Copy-17_4_" x="720" y="300" class="st0" width="2" height="2"/>
<rect id="Rectangle-Copy-18_4_" x="780" y="300" class="st0" width="2" height="2"/>
<rect id="Rectangle-Copy-19_4_" x="840" y="300" class="st0" width="2" height="2"/>
<rect id="Rectangle-Copy-20_4_" x="900" y="300" class="st0" width="2" height="2"/>
<rect id="Rectangle-Copy-21_4_" x="960" y="300" class="st0" width="2" height="2"/>
<rect id="Rectangle_5_" y="360" class="st0" width="2" height="2"/>
<rect id="Rectangle-Copy-2_5_" x="60" y="360" class="st0" width="2" height="2"/>
<rect id="Rectangle-Copy-7_5_" x="120" y="360" class="st0" width="2" height="2"/>
<rect id="Rectangle-Copy-8_5_" x="180" y="360" class="st0" width="2" height="2"/>
<rect id="Rectangle-Copy-9_5_" x="240" y="360" class="st0" width="2" height="2"/>
<rect id="Rectangle-Copy-10_5_" x="300" y="360" class="st0" width="2" height="2"/>
<rect id="Rectangle-Copy-11_5_" x="360" y="360" class="st0" width="2" height="2"/>
<rect id="Rectangle-Copy-12_5_" x="420" y="360" class="st0" width="2" height="2"/>
<rect id="Rectangle-Copy-13_5_" x="480" y="360" class="st0" width="2" height="2"/>
<rect id="Rectangle-Copy-14_5_" x="540" y="360" class="st0" width="2" height="2"/>
<rect id="Rectangle-Copy-15_5_" x="600" y="360" class="st0" width="2" height="2"/>
<rect id="Rectangle-Copy-16_5_" x="660" y="360" class="st0" width="2" height="2"/>
<rect id="Rectangle-Copy-17_5_" x="720" y="360" class="st0" width="2" height="2"/>
<rect id="Rectangle-Copy-18_5_" x="780" y="360" class="st0" width="2" height="2"/>
<rect id="Rectangle-Copy-19_5_" x="840" y="360" class="st0" width="2" height="2"/>
<rect id="Rectangle-Copy-20_5_" x="900" y="360" class="st0" width="2" height="2"/>
<rect id="Rectangle-Copy-21_5_" x="960" y="360" class="st0" width="2" height="2"/>
<rect id="Rectangle_6_" y="420" class="st0" width="2" height="2"/>
<rect id="Rectangle-Copy-2_6_" x="60" y="420" class="st0" width="2" height="2"/>
<rect id="Rectangle-Copy-7_6_" x="120" y="420" class="st0" width="2" height="2"/>
<rect id="Rectangle-Copy-8_6_" x="180" y="420" class="st0" width="2" height="2"/>
<rect id="Rectangle-Copy-9_6_" x="240" y="420" class="st0" width="2" height="2"/>
<rect id="Rectangle-Copy-10_6_" x="300" y="420" class="st0" width="2" height="2"/>
<rect id="Rectangle-Copy-11_6_" x="360" y="420" class="st0" width="2" height="2"/>
<rect id="Rectangle-Copy-12_6_" x="420" y="420" class="st0" width="2" height="2"/>
<rect id="Rectangle-Copy-13_6_" x="480" y="420" class="st0" width="2" height="2"/>
<rect id="Rectangle-Copy-14_6_" x="540" y="420" class="st0" width="2" height="2"/>
<rect id="Rectangle-Copy-15_6_" x="600" y="420" class="st0" width="2" height="2"/>
<rect id="Rectangle-Copy-16_6_" x="660" y="420" class="st0" width="2" height="2"/>
<rect id="Rectangle-Copy-17_6_" x="720" y="420" class="st0" width="2" height="2"/>
<rect id="Rectangle-Copy-18_6_" x="780" y="420" class="st0" width="2" height="2"/>
<rect id="Rectangle-Copy-19_6_" x="840" y="420" class="st0" width="2" height="2"/>
<rect id="Rectangle-Copy-20_6_" x="900" y="420" class="st0" width="2" height="2"/>
<rect id="Rectangle-Copy-21_6_" x="960" y="420" class="st0" width="2" height="2"/>
<rect id="Rectangle_7_" y="480" class="st0" width="2" height="2"/>
<rect id="Rectangle-Copy-2_7_" x="60" y="480" class="st0" width="2" height="2"/>
<rect id="Rectangle-Copy-7_7_" x="120" y="480" class="st0" width="2" height="2"/>
<rect id="Rectangle-Copy-8_7_" x="180" y="480" class="st0" width="2" height="2"/>
<rect id="Rectangle-Copy-9_7_" x="240" y="480" class="st0" width="2" height="2"/>
<rect id="Rectangle-Copy-10_7_" x="300" y="480" class="st0" width="2" height="2"/>
<rect id="Rectangle-Copy-11_7_" x="360" y="480" class="st0" width="2" height="2"/>
<rect id="Rectangle-Copy-12_7_" x="420" y="480" class="st0" width="2" height="2"/>
<rect id="Rectangle-Copy-13_7_" x="480" y="480" class="st0" width="2" height="2"/>
<rect id="Rectangle-Copy-14_7_" x="540" y="480" class="st0" width="2" height="2"/>
<rect id="Rectangle-Copy-15_7_" x="600" y="480" class="st0" width="2" height="2"/>
<rect id="Rectangle-Copy-16_7_" x="660" y="480" class="st0" width="2" height="2"/>
<rect id="Rectangle-Copy-17_7_" x="720" y="480" class="st0" width="2" height="2"/>
<rect id="Rectangle-Copy-18_7_" x="780" y="480" class="st0" width="2" height="2"/>
<rect id="Rectangle-Copy-19_7_" x="840" y="480" class="st0" width="2" height="2"/>
<rect id="Rectangle-Copy-20_7_" x="900" y="480" class="st0" width="2" height="2"/>
<rect id="Rectangle-Copy-21_7_" x="960" y="480" class="st0" width="2" height="2"/>
<rect id="Rectangle_8_" y="540" class="st0" width="2" height="2"/>
<rect id="Rectangle-Copy-2_8_" x="60" y="540" class="st0" width="2" height="2"/>
<rect id="Rectangle-Copy-7_8_" x="120" y="540" class="st0" width="2" height="2"/>
<rect id="Rectangle-Copy-8_8_" x="180" y="540" class="st0" width="2" height="2"/>
<rect id="Rectangle-Copy-9_8_" x="240" y="540" class="st0" width="2" height="2"/>
<rect id="Rectangle-Copy-10_8_" x="300" y="540" class="st0" width="2" height="2"/>
<rect id="Rectangle-Copy-11_8_" x="360" y="540" class="st0" width="2" height="2"/>
<rect id="Rectangle-Copy-12_8_" x="420" y="540" class="st0" width="2" height="2"/>
<rect id="Rectangle-Copy-13_8_" x="480" y="540" class="st0" width="2" height="2"/>
<rect id="Rectangle-Copy-14_8_" x="540" y="540" class="st0" width="2" height="2"/>
<rect id="Rectangle-Copy-15_8_" x="600" y="540" class="st0" width="2" height="2"/>
<rect id="Rectangle-Copy-16_8_" x="660" y="540" class="st0" width="2" height="2"/>
<rect id="Rectangle-Copy-17_8_" x="720" y="540" class="st0" width="2" height="2"/>
<rect id="Rectangle-Copy-18_8_" x="780" y="540" class="st0" width="2" height="2"/>
<rect id="Rectangle-Copy-19_8_" x="840" y="540" class="st0" width="2" height="2"/>
<rect id="Rectangle-Copy-20_8_" x="900" y="540" class="st0" width="2" height="2"/>
<rect id="Rectangle-Copy-21_8_" x="960" y="540" class="st0" width="2" height="2"/>
<rect id="Rectangle_9_" y="600" class="st0" width="2" height="2"/>
<rect id="Rectangle-Copy-2_9_" x="60" y="600" class="st0" width="2" height="2"/>
<rect id="Rectangle-Copy-7_9_" x="120" y="600" class="st0" width="2" height="2"/>
<rect id="Rectangle-Copy-8_9_" x="180" y="600" class="st0" width="2" height="2"/>
<rect id="Rectangle-Copy-9_9_" x="240" y="600" class="st0" width="2" height="2"/>
<rect id="Rectangle-Copy-10_9_" x="300" y="600" class="st0" width="2" height="2"/>
<rect id="Rectangle-Copy-11_9_" x="360" y="600" class="st0" width="2" height="2"/>
<rect id="Rectangle-Copy-12_9_" x="420" y="600" class="st0" width="2" height="2"/>
<rect id="Rectangle-Copy-13_9_" x="480" y="600" class="st0" width="2" height="2"/>
<rect id="Rectangle-Copy-14_9_" x="540" y="600" class="st0" width="2" height="2"/>
<rect id="Rectangle-Copy-15_9_" x="600" y="600" class="st0" width="2" height="2"/>
<rect id="Rectangle-Copy-16_9_" x="660" y="600" class="st0" width="2" height="2"/>
<rect id="Rectangle-Copy-17_9_" x="720" y="600" class="st0" width="2" height="2"/>
<rect id="Rectangle-Copy-18_9_" x="780" y="600" class="st0" width="2" height="2"/>
<rect id="Rectangle-Copy-19_9_" x="840" y="600" class="st0" width="2" height="2"/>
<rect id="Rectangle-Copy-20_9_" x="900" y="600" class="st0" width="2" height="2"/>
<rect id="Rectangle-Copy-21_9_" x="960" y="600" class="st0" width="2" height="2"/>
<rect id="Rectangle_10_" y="660" class="st0" width="2" height="2"/>
<rect id="Rectangle-Copy-2_10_" x="60" y="660" class="st0" width="2" height="2"/>
<rect id="Rectangle-Copy-7_10_" x="120" y="660" class="st0" width="2" height="2"/>
<rect id="Rectangle-Copy-8_10_" x="180" y="660" class="st0" width="2" height="2"/>
<rect id="Rectangle-Copy-9_10_" x="240" y="660" class="st0" width="2" height="2"/>
<rect id="Rectangle-Copy-10_10_" x="300" y="660" class="st0" width="2" height="2"/>
<rect id="Rectangle-Copy-11_10_" x="360" y="660" class="st0" width="2" height="2"/>
<rect id="Rectangle-Copy-12_10_" x="420" y="660" class="st0" width="2" height="2"/>
<rect id="Rectangle-Copy-13_10_" x="480" y="660" class="st0" width="2" height="2"/>
<rect id="Rectangle-Copy-14_10_" x="540" y="660" class="st0" width="2" height="2"/>
<rect id="Rectangle-Copy-15_10_" x="600" y="660" class="st0" width="2" height="2"/>
<rect id="Rectangle-Copy-16_10_" x="660" y="660" class="st0" width="2" height="2"/>
<rect id="Rectangle-Copy-17_10_" x="720" y="660" class="st0" width="2" height="2"/>
<rect id="Rectangle-Copy-18_10_" x="780" y="660" class="st0" width="2" height="2"/>
<rect id="Rectangle-Copy-19_10_" x="840" y="660" class="st0" width="2" height="2"/>
<rect id="Rectangle-Copy-20_10_" x="900" y="660" class="st0" width="2" height="2"/>
<rect id="Rectangle-Copy-21_10_" x="960" y="660" class="st0" width="2" height="2"/>
<rect id="Rectangle_11_" y="720" class="st0" width="2" height="2"/>
<rect id="Rectangle-Copy-2_11_" x="60" y="720" class="st0" width="2" height="2"/>
<rect id="Rectangle-Copy-7_11_" x="120" y="720" class="st0" width="2" height="2"/>
<rect id="Rectangle-Copy-8_11_" x="180" y="720" class="st0" width="2" height="2"/>
<rect id="Rectangle-Copy-9_11_" x="240" y="720" class="st0" width="2" height="2"/>
<rect id="Rectangle-Copy-10_11_" x="300" y="720" class="st0" width="2" height="2"/>
<rect id="Rectangle-Copy-11_11_" x="360" y="720" class="st0" width="2" height="2"/>
<rect id="Rectangle-Copy-12_11_" x="420" y="720" class="st0" width="2" height="2"/>
<rect id="Rectangle-Copy-13_11_" x="480" y="720" class="st0" width="2" height="2"/>
<rect id="Rectangle-Copy-14_11_" x="540" y="720" class="st0" width="2" height="2"/>
<rect id="Rectangle-Copy-15_11_" x="600" y="720" class="st0" width="2" height="2"/>
<rect id="Rectangle-Copy-16_11_" x="660" y="720" class="st0" width="2" height="2"/>
<rect id="Rectangle-Copy-17_11_" x="720" y="720" class="st0" width="2" height="2"/>
<rect id="Rectangle-Copy-18_11_" x="780" y="720" class="st0" width="2" height="2"/>
<rect id="Rectangle-Copy-19_11_" x="840" y="720" class="st0" width="2" height="2"/>
<rect id="Rectangle-Copy-20_11_" x="900" y="720" class="st0" width="2" height="2"/>
<rect id="Rectangle-Copy-21_11_" x="960" y="720" class="st0" width="2" height="2"/>
<rect id="Rectangle_12_" y="780" class="st0" width="2" height="2"/>
<rect id="Rectangle-Copy-2_12_" x="60" y="780" class="st0" width="2" height="2"/>
<rect id="Rectangle-Copy-7_12_" x="120" y="780" class="st0" width="2" height="2"/>
<rect id="Rectangle-Copy-8_12_" x="180" y="780" class="st0" width="2" height="2"/>
<rect id="Rectangle-Copy-9_12_" x="240" y="780" class="st0" width="2" height="2"/>
<rect id="Rectangle-Copy-10_12_" x="300" y="780" class="st0" width="2" height="2"/>
<rect id="Rectangle-Copy-11_12_" x="360" y="780" class="st0" width="2" height="2"/>
<rect id="Rectangle-Copy-12_12_" x="420" y="780" class="st0" width="2" height="2"/>
<rect id="Rectangle-Copy-13_12_" x="480" y="780" class="st0" width="2" height="2"/>
<rect id="Rectangle-Copy-14_12_" x="540" y="780" class="st0" width="2" height="2"/>
<rect id="Rectangle-Copy-15_12_" x="600" y="780" class="st0" width="2" height="2"/>
<rect id="Rectangle-Copy-16_12_" x="660" y="780" class="st0" width="2" height="2"/>
<rect id="Rectangle-Copy-17_12_" x="720" y="780" class="st0" width="2" height="2"/>
<rect id="Rectangle-Copy-18_12_" x="780" y="780" class="st0" width="2" height="2"/>
<rect id="Rectangle-Copy-19_12_" x="840" y="780" class="st0" width="2" height="2"/>
<rect id="Rectangle-Copy-20_12_" x="900" y="780" class="st0" width="2" height="2"/>
<rect id="Rectangle-Copy-21_12_" x="960" y="780" class="st0" width="2" height="2"/>
<rect id="Rectangle_13_" y="840" class="st0" width="2" height="2"/>
<rect id="Rectangle-Copy-2_13_" x="60" y="840" class="st0" width="2" height="2"/>
<rect id="Rectangle-Copy-7_13_" x="120" y="840" class="st0" width="2" height="2"/>
<rect id="Rectangle-Copy-8_13_" x="180" y="840" class="st0" width="2" height="2"/>
<rect id="Rectangle-Copy-9_13_" x="240" y="840" class="st0" width="2" height="2"/>
<rect id="Rectangle-Copy-10_13_" x="300" y="840" class="st0" width="2" height="2"/>
<rect id="Rectangle-Copy-11_13_" x="360" y="840" class="st0" width="2" height="2"/>
<rect id="Rectangle-Copy-12_13_" x="420" y="840" class="st0" width="2" height="2"/>
<rect id="Rectangle-Copy-13_13_" x="480" y="840" class="st0" width="2" height="2"/>
<rect id="Rectangle-Copy-14_13_" x="540" y="840" class="st0" width="2" height="2"/>
<rect id="Rectangle-Copy-15_13_" x="600" y="840" class="st0" width="2" height="2"/>
<rect id="Rectangle-Copy-16_13_" x="660" y="840" class="st0" width="2" height="2"/>
<rect id="Rectangle-Copy-17_13_" x="720" y="840" class="st0" width="2" height="2"/>
<rect id="Rectangle-Copy-18_13_" x="780" y="840" class="st0" width="2" height="2"/>
<rect id="Rectangle-Copy-19_13_" x="840" y="840" class="st0" width="2" height="2"/>
<rect id="Rectangle-Copy-20_13_" x="900" y="840" class="st0" width="2" height="2"/>
<rect id="Rectangle-Copy-21_13_" x="960" y="840" class="st0" width="2" height="2"/>
<rect id="Rectangle_14_" class="st0" width="2" height="2"/>
<rect id="Rectangle-Copy-2_14_" x="60" class="st0" width="2" height="2"/>
<rect id="Rectangle-Copy-7_14_" x="120" class="st0" width="2" height="2"/>
<rect id="Rectangle-Copy-8_14_" x="180" class="st0" width="2" height="2"/>
<rect id="Rectangle-Copy-9_14_" x="240" class="st0" width="2" height="2"/>
<rect id="Rectangle-Copy-10_14_" x="300" class="st0" width="2" height="2"/>
<rect id="Rectangle-Copy-11_14_" x="360" class="st0" width="2" height="2"/>
<rect id="Rectangle-Copy-12_14_" x="420" class="st0" width="2" height="2"/>
<rect id="Rectangle-Copy-13_14_" x="480" class="st0" width="2" height="2"/>
<rect id="Rectangle-Copy-14_14_" x="540" class="st0" width="2" height="2"/>
<rect id="Rectangle-Copy-15_14_" x="600" class="st0" width="2" height="2"/>
<rect id="Rectangle-Copy-16_14_" x="660" class="st0" width="2" height="2"/>
<rect id="Rectangle-Copy-17_14_" x="720" class="st0" width="2" height="2"/>
<rect id="Rectangle-Copy-18_14_" x="780" class="st0" width="2" height="2"/>
<rect id="Rectangle-Copy-19_14_" x="840" class="st0" width="2" height="2"/>
<rect id="Rectangle-Copy-20_14_" x="900" class="st0" width="2" height="2"/>
<rect id="Rectangle-Copy-21_14_" x="960" class="st0" width="2" height="2"/>
</svg>
