<?xml version="1.0" encoding="utf-8"?>
<!-- Generator: Adobe Illustrator 24.1.0, SVG Export Plug-In . SVG Version: 6.00 Build 0)  -->
<svg version="1.1" id="Calque_1" xmlns="http://www.w3.org/2000/svg" xmlns:xlink="http://www.w3.org/1999/xlink" x="0px" y="0px"
	 viewBox="0 0 75.9 132.9" style="enable-background:new 0 0 75.9 132.9;" xml:space="preserve">
<style type="text/css">
	.st0{fill:#323232;}
</style>
<g>
	<path class="st0" d="M0,37.9h38c-10.5,0-19,8.5-19,19C19,46.4,10.5,37.9,0,37.9z M0,56.9h38c-10.5,0-19,8.5-19,19
		C19,65.4,10.5,56.9,0,56.9z M0,75.9h38c-10.5,0-19,8.5-19,19C19,84.4,10.5,75.9,0,75.9z M0,94.9h38c-10.5,0-19,8.5-19,19
		C19,103.4,10.5,94.9,0,94.9z M0,113.9h38c-10.5,0-19,8.5-19,19C19,122.4,10.5,113.9,0,113.9z"/>
</g>
<g>
	<path class="st0" d="M38,94.9c10.5,0,19-8.5,19-19c0,10.5,8.5,19,19,19H38z M38,75.9c10.5,0,19-8.5,19-19c0,10.5,8.5,19,19,19H38z
		 M38,57c10.5,0,19-8.5,19-19c0,10.5,8.5,19,19,19H38z M38,38c10.5,0,19-8.5,19-19c0,10.5,8.5,19,19,19H38z M38,19
		c10.5,0,19-8.5,19-19c0,10.5,8.5,19,19,19H38z"/>
</g>
</svg>
