<?xml version="1.0" encoding="utf-8"?>
<!-- Generator: Adobe Illustrator 24.1.0, SVG Export Plug-In . SVG Version: 6.00 Build 0)  -->
<svg version="1.1" id="Calque_1" xmlns="http://www.w3.org/2000/svg" xmlns:xlink="http://www.w3.org/1999/xlink" x="0px" y="0px"
	 width="600px" height="443.478px" viewBox="0 0 600 443.478" style="enable-background:new 0 0 600 443.478;" xml:space="preserve"
	>
<style type="text/css">
	.st0{fill:#FFFFFF;}
</style>
<g id="paypal">
	<path class="st0" d="M107.974,179.439c6.587,0,12.822,0,16.03,3.757c1.917,2.257,2.504,5.583,1.774,10.187
		c-1.996,13.109-12.013,13.109-21.691,13.109H98.57l3.861-24.483c0.235-1.474,1.513-2.57,3.013-2.57H107.974z M369.579,179.433
		c6.474,0.01,11.972,0.308,14.929,3.762c1.917,2.257,2.504,5.583,1.774,10.187c-1.996,13.109-12.013,13.109-21.691,13.109h-5.504
		l3.861-24.483c0.235-1.474,1.513-2.57,3.013-2.57L369.579,179.433z M191.739,209.87c4.957,0,8.987,1.643,11.648,4.774
		c2.674,3.143,3.73,7.526,2.961,12.365c-1.683,9.991-9.613,16.696-19.735,16.696c-5.074,0-9.131-1.63-11.739-4.722
		c-2.583-3.065-3.561-7.422-2.739-12.287C173.713,216.796,181.774,209.87,191.739,209.87z M452.243,209.87
		c4.97,0,9,1.643,11.648,4.774c2.674,3.143,3.73,7.526,2.961,12.365c-1.683,9.991-9.613,16.696-19.735,16.696
		c-5.061,0-9.13-1.63-11.739-4.722c-2.583-3.065-3.561-7.422-2.739-12.287C434.217,216.796,442.278,209.87,452.243,209.87z
		 M531.743,159.17c1.865,0,3.3,1.67,3.013,3.522l-14.791,93.665c-0.391,2.465-2.517,4.278-5.009,4.278h-15.078
		c-1.865,0-3.3-1.67-3.013-3.522l14.987-95.374c0.235-1.487,1.513-2.57,3.013-2.57H531.743z M484.8,256.357
		c-0.391,2.465-2.517,4.278-5.009,4.278h-15.757c-1.865,0-3.3-1.67-3.013-3.522l0.783-4.865c0,0-8.635,10.004-24.209,10.004
		c-9.078,0-16.696-2.609-22.03-8.896c-5.804-6.835-8.178-16.63-6.509-26.87c3.209-20.53,19.722-35.178,39.039-35.178
		c16.813,0,20.178,6.639,21.887,9.104l0.77-4.891c0.235-1.487,1.513-2.57,3.013-2.57h17.491c1.865,0,3.3,1.67,3.013,3.522
		L484.8,256.357z M371.778,226.8h-11.557c-2.491,0-4.617,1.813-5.009,4.278l-4.187,26.556c-0.274,1.722-1.761,3-3.509,3h-18.743
		c-1.865,0-3.3-1.67-3.013-3.522l14.765-93.652c0.391-2.465,2.517-4.278,5.009-4.278h36.522c12.222,0,21.43,3.222,26.622,9.326
		c4.722,5.556,6.287,13.487,4.657,23.569C409.722,215.152,395.843,226.8,371.778,226.8z M263.752,284.309h-17.557
		c-2.465,0-3.913-2.791-2.478-4.8l18.209-25.696l-19.356-56.817c-0.678-1.97,0.796-4.03,2.883-4.03h17.283
		c2.244,0,4.213,1.474,4.865,3.626l10.278,34.317l24.248-35.713c0.939-1.396,2.517-2.23,4.2-2.23h17.583
		c2.452,0,3.9,2.765,2.504,4.787l-58.461,84.378C266.974,283.487,265.422,284.309,263.752,284.309z M224.283,256.357
		c-0.391,2.465-2.517,4.278-5.009,4.278h-15.756c-1.865,0-3.3-1.67-3.013-3.522l0.783-4.865c0,0-8.635,10.004-24.209,10.004
		c-9.078,0-16.696-2.609-22.031-8.896c-5.804-6.835-8.178-16.63-6.509-26.87c3.209-20.53,19.722-35.178,39.039-35.178
		c16.813,0,20.178,6.652,21.887,9.104l0.77-4.891c0.235-1.487,1.513-2.57,3.013-2.57h17.491c1.865,0,3.3,1.67,3.013,3.522
		L224.283,256.357z M111.274,226.8H99.717c-2.491,0-4.617,1.813-5.009,4.278l-3.991,25.265c-0.391,2.465-2.517,4.278-5.009,4.278
		H68.27c-1.865,0-3.3-1.67-3.013-3.522l14.765-93.652c0.391-2.465,2.517-4.278,5.009-4.278h36.522
		c12.222,0,21.43,3.222,26.622,9.326c4.722,5.557,6.287,13.487,4.657,23.57C149.217,215.152,135.326,226.8,111.274,226.8z
		 M547.826,0H52.174C23.4,0,0,23.4,0,52.174v339.13c0,28.774,23.4,52.174,52.174,52.174h495.652c28.774,0,52.174-23.4,52.174-52.174
		V52.174C600,23.4,576.6,0,547.826,0z"/>
</g>
</svg>
