<?xml version="1.0" encoding="utf-8"?>
<!-- Generator: Adobe Illustrator 25.4.1, SVG Export Plug-In . SVG Version: 6.00 Build 0)  -->
<svg version="1.1" id="Calque_1" xmlns="http://www.w3.org/2000/svg" xmlns:xlink="http://www.w3.org/1999/xlink" x="0px" y="0px"
	 viewBox="0 0 2634 410.6" style="enable-background:new 0 0 2634 410.6;" xml:space="preserve">
<path d="M2634,64.2c0,29.9-24.2,54.2-54.2,54.2s-54.2-24.2-54.2-54.2c0-29.9,24.2-52.8,54.2-52.8C2609.7,10,2634,34.2,2634,64.2z
	 M2538.5,64.2c0,24.2,17.1,42.8,41.3,42.8c22.8,0,39.9-18.5,39.9-42.8c0-24.2-17.1-42.8-41.4-42.8
	C2555.6,21.4,2538.5,39.9,2538.5,64.2z M2571.2,91.2h-12.8V38.5c4.3-1.4,11.4-1.4,20-1.4c10,0,14.3,1.4,18.5,4.3
	c2.9,2.9,5.7,7.1,5.7,11.4c0,5.7-4.3,10-11.4,12.8c5.7,1.4,8.6,5.7,10,12.8c1.4,8.6,2.9,11.4,4.3,12.8h-12.8
	c-1.4-1.4-2.9-7.1-4.3-12.8c-1.4-5.7-4.3-8.6-11.4-8.6h-5.7V91.2z M2571.2,61.3h5.7c7.1,0,12.8-2.9,12.8-7.1c0-4.3-2.9-8.6-11.4-8.6
	h-7.1V61.3z"/>
<path d="M2425.8,239.5V10h-135.4l-149.7,225.3v82.7h191v85.5h94.1v-85.5h57v-77L2425.8,239.5z M2280.4,289.4l7.1-89.8l-64.2,7.1
	l91.2-135.4l-7.1,89.8l64.2-7.1L2280.4,289.4z"/>
<path d="M1935.4,0c-99.8,0-171.1,78.4-171.1,206.7s69.9,203.9,171.1,203.9c101.2,0,172.5-74.1,172.5-203.9
	C2106.5,77,2036.6,0,1935.4,0z M1935.4,327.9c-35.6,0-62.7-29.9-62.7-122.6s27.1-122.6,62.7-122.6s64.2,31.4,64.2,122.6
	C1998.1,298,1971,327.9,1935.4,327.9z"/>
<path d="M1667.3,10h-135.4l-151.1,223.8v82.7h191V402h94.1v-85.5h57v-77h-57L1667.3,10z M1520.5,289.4l7.1-89.8l-64.2,7.1
	l91.2-135.4l-7.1,89.8l64.2-7.1L1520.5,289.4z"/>
<path d="M1030.8,402h303.7v-84.1h-199.6v-77h154v-78.4h-154V92.7h199.6V10h-303.7V402z"/>
<path d="M759.9,10H600.2V402h162.5c116.9,0,208.2-75.6,208.2-198.2C970.9,81.3,879.7,10,759.9,10z M755.6,317.9h-49.9V92.7H757
	c68.4,0,102.7,44.2,102.7,111.2C861.1,278,825.5,317.9,755.6,317.9z"/>
<path d="M520.4,10H413.5V402h106.9V10z"/>
<path d="M215.3,235.2V201c52.8-1.4,128.3-8.6,128.3-91.2c0-61.3-49.9-101.2-136.9-101.2H0v392.1h105.5v-144h59.9
	c39.9,0,57,14.3,62.7,54.2l15.7,89.8h112.6l-17.1-85.5C323.6,250.9,288,236.7,215.3,235.2z M182.5,181.1h-78.4V91.2h78.4
	c31.4,0,52.8,14.3,52.8,44.2C235.2,165.4,212.4,181.1,182.5,181.1z"/>
</svg>
