<?xml version="1.0" encoding="utf-8"?>
<!-- Generator: Adobe Illustrator 24.1.0, SVG Export Plug-In . SVG Version: 6.00 Build 0)  -->
<svg version="1.1" id="Calque_1" xmlns="http://www.w3.org/2000/svg" xmlns:xlink="http://www.w3.org/1999/xlink" x="0px" y="0px"
	 viewBox="0 0 1141 343" style="enable-background:new 0 0 1141 343;" xml:space="preserve">
<style type="text/css">
	.st0{fill:#FFFFFF;}
</style>
<g>
	<path class="st0" d="M1125.9,220.7v-0.3c2.3-0.7,3.9-2.3,3.9-4.4c0-1.9-0.8-3.4-1.8-4.2c-1.4-0.8-3-1.4-6.6-1.4
		c-3.1,0-5.5,0.2-7.2,0.7V230h4.4v-7.6h2.1c2.4,0,3.5,0.9,3.9,3c0.6,2.2,0.9,3.9,1.5,4.6h4.7c-0.5-0.7-0.8-1.8-1.4-4.7
		C1128.8,222.8,1127.7,221.4,1125.9,220.7z M1120.8,219.2h-2.1v-5.4c0.4-0.2,1.2-0.3,2.4-0.3c2.8,0,4.1,1.1,4.1,2.9
		C1125.2,218.4,1123.2,219.2,1120.8,219.2z"/>
	<path class="st0" d="M1121.6,201c-10.9,0-19.6,8.4-19.6,18.9c0,10.7,8.7,19.1,19.6,19.1c11,0,19.4-8.4,19.4-19.1
		C1141,209.5,1132.6,201.1,1121.6,201z M1121.7,235c-8.5,0-14.8-6.7-14.8-15.1c0-8.3,6.2-15,14.7-15.1c8.4,0,14.6,6.8,14.6,15.2
		C1136.2,228.3,1130.1,235,1121.7,235z"/>
</g>
<g>
	<path class="st0" d="M269.8,200H213v139h57.8c41.6,0,74.2-26.6,74.2-70.3C345,225.4,312.6,200,269.8,200z M268.2,309.3h-17.6v-79.7
		H269c24.2,0,36.8,15.8,36.8,39.6C305.8,295.2,293.2,309.3,268.2,309.3z"/>
	<polygon class="st0" points="368,339 475,339 475,309.4 404.5,309.4 404.5,281.8 459,281.8 459,254.2 404.5,254.2 404.5,229.6 
		475,229.6 475,200 368,200 	"/>
	<path class="st0" d="M893.2,198c-35.4,0-60.2,27.5-60.2,73.1c0,46.1,24.7,71.9,60.2,71.9c35.8,0,60.8-26.1,60.8-71.9
		S929,198,893.2,198z M893.2,313.7c-12.5,0-22.2-10.6-22.2-43.2c0-31.8,9.5-43.2,22.2-43.2c12.9,0,22.6,11.2,22.6,43.2
		C915.7,303,905.8,313.7,893.2,313.7z"/>
	<rect x="146" y="200" class="st0" width="38" height="139"/>
	<path class="st0" d="M573.9,280.2v-11.9c18.7-0.4,45.4-3.2,45.4-32.2c0-21.8-17.6-36.1-48.4-36.1H498v139h37v-51.3h21.1
		c14.2,0,19.9,5.2,22.1,19.3l5.3,32H623l-5.9-30.4C612.2,285.6,599.6,280.4,573.9,280.2z M562.4,261H535v-31.8h27.4
		c11.1,0,18.8,5.2,18.7,15.7C581.1,255.4,573.3,261,562.4,261z"/>
	<rect x="641" y="304" class="st0" width="38" height="35"/>
	<path class="st0" d="M797.7,200L797.7,200l-47.9,0L697,279.6v29.2h67.4V339h33.3v-30.2H818v-27.2h-20.3V200z M746.1,299.1l2.8-31.9
		l-22.7,2.5l31.9-48.2l-2.8,31.9l22.7-2.5L746.1,299.1z"/>
	<path class="st0" d="M1065.7,200L1065.7,200l-47.9,0L965,279.6v29.2h67.4V339h33.3v-30.1h20.3v-27.2h-20.3V200z M1014.1,299.1
		l2.8-31.9l-22.7,2.5l31.9-48.2l-2.8,31.9l22.7-2.5L1014.1,299.1z"/>
	<path class="st0" d="M75.9,280.2v-11.9c18.7-0.4,45.4-3.2,45.4-32.2c0-21.8-17.6-36.1-48.4-36.1H0v139h36.9v-51.3h21.2
		c14.2,0,19.9,5.2,22.1,19.3l5.3,32H125l-5.9-30.4C114.2,285.6,101.5,280.4,75.9,280.2z M64.3,261H36.9v-31.8h27.5
		c11,0,18.7,5.2,18.6,15.7C83,255.4,75.2,261,64.3,261z"/>
</g>
<g>
	<polygon class="st0" points="368,96 404.5,96 404.5,78.9 475,78.9 475,49 368,49 	"/>
	<rect x="146" y="49" class="st0" width="38" height="47"/>
	<path class="st0" d="M893.2,74.4c9.2,0,16.7,5.8,20.4,20.6H952c-7.2-31.8-29.3-50-58.8-50c-29.1,0-51.1,18.3-58.2,50h38.2
		C876.7,80.2,884.2,74.4,893.2,74.4z"/>
	<polygon class="st0" points="757.8,70.8 755.6,96 798,96 798,49 749.3,49 718,96 740.9,96 	"/>
	<polygon class="st0" points="1026.8,70.8 1024.6,96 1067,96 1067,49 1018.3,49 987,96 1009.9,96 	"/>
	<path class="st0" d="M36.9,78.6h27.4c11,0,18.7,5.2,18.7,15.8c0,0.5-0.1,1-0.2,1.6h36.8c0.9-3.1,1.4-6.5,1.4-10.5
		c0-22-17.6-36.5-48.3-36.5H0v47h36.9V78.6z"/>
	<path class="st0" d="M251.4,78.9h18.3c15.2,0,25.8,6.4,31.5,17.1H342c-9.1-30-36.8-47-71.5-47H214v47h37.4V78.9z"/>
	<path class="st0" d="M534.8,78.6h27.4c11,0,18.7,5.2,18.7,15.8c0,0.5,0,1-0.1,1.6h36.8c0.9-3.1,1.4-6.5,1.4-10.5
		c0-22-17.6-36.5-48.3-36.5H498v47h36.8V78.6z"/>
</g>
<g>
	<rect x="146" y="3" class="st0" width="38" height="27"/>
	<rect x="368" y="3" class="st0" width="107" height="27"/>
	<polygon class="st0" points="797,3 748.6,3 731,30 797,30 	"/>
	<path class="st0" d="M892.2,0c-22,0-39.8,11.1-50.2,31h101C932.5,11.1,914.4,0,892.2,0z"/>
	<polygon class="st0" points="1067,3 1018.6,3 1001,30 1067,30 	"/>
	<path class="st0" d="M73,3H0v27h120C115.4,13.4,98.9,3,73,3z"/>
	<path class="st0" d="M571,3h-73v27h120C613.4,13.4,596.9,3,571,3z"/>
	<path class="st0" d="M270.7,3H214v27h118C318.6,12.6,296.6,3,270.7,3z"/>
</g>
<g>
	<path class="st0" d="M269.8,113H213v69h37.6v-38.9H269c23.9,0,36.4,15.6,36.8,38.9H345C344.6,138.5,312.4,113,269.8,113z"/>
	<polygon class="st0" points="368,182.1 459,182.1 459,168.1 404.5,168.1 404.5,143.1 475,143.1 475,113.1 368,113.1 	"/>
	<rect x="146" y="113" class="st0" width="38" height="69"/>
	<path class="st0" d="M893.2,109c-34.9,0-59.4,27.4-60.2,73h38c0.3-31.5,9.7-42.9,22.2-42.9c12.7,0,22.3,11.3,22.6,42.9H954
		C953.2,136.2,928.5,109,893.2,109z"/>
	<polygon class="st0" points="1028.5,134.9 1025.7,167.3 1048.9,164.7 1037.4,182 1069,182 1069,113 1020.1,113 974,182 997.1,182 	
		"/>
	<polygon class="st0" points="757.5,134.9 754.7,167.3 777.9,164.7 766.3,182 798,182 798,113 749.1,113 703,182 726.1,182 	"/>
	<path class="st0" d="M121,149.7c0-22.2-17.6-36.7-48.3-36.7H0v69h83.3C100.9,180.7,121,175.3,121,149.7z M64.3,174.9H36.9v-32.3
		h27.4c11,0,18.7,5.2,18.7,15.9S75.1,174.9,64.3,174.9z"/>
	<path class="st0" d="M619,149.7c0-22.2-17.6-36.7-48.3-36.7H498v69h83.3C598.9,180.7,619,175.3,619,149.7z M562.3,174.9h-27.4
		v-32.3h27.4c11,0,18.7,5.2,18.7,15.9S573.1,174.9,562.3,174.9z"/>
</g>
</svg>
