<?xml version="1.0" encoding="utf-8"?>
<!-- Generator: Adobe Illustrator 24.1.0, SVG Export Plug-In . SVG Version: 6.00 Build 0)  -->
<svg version="1.1" id="Calque_1" xmlns="http://www.w3.org/2000/svg" xmlns:xlink="http://www.w3.org/1999/xlink" x="0px" y="0px"
	 viewBox="0 0 1141 343" style="enable-background:new 0 0 1141 343;" xml:space="preserve">
<style type="text/css">
	.st0{fill:#FFFFFF;}
</style>
<g>
	<path class="st0" d="M1067,3v27h-66l17.6-27H1067z M797,3v27h-66l17.6-27H797z M571,3c25.9,0,42.4,10.4,47,27H498V3H571z M475,3v27
		H368V3H475z M270.7,3c25.9,0,47.9,9.6,61.3,27H214V3H270.7z M184,3v27h-38V3H184z M73,3c25.9,0,42.4,10.4,47,27H0V3H73z M892.2,0
		c22.2,0,40.3,11.1,50.8,31H842C852.4,11.1,870.2,0,892.2,0z M893.2,45c29.5,0,51.6,18.2,58.8,50h-38.4
		c-3.7-14.8-11.2-20.6-20.4-20.6c-9,0-16.5,5.8-20,20.6H835C842.1,63.3,864.1,45,893.2,45z M570.7,49c30.7,0,48.3,14.5,48.3,36.5
		c0,4-0.5,7.4-1.4,10.5h-36.8c0.1-0.6,0.1-1.1,0.1-1.6c0-10.6-7.7-15.8-18.7-15.8h-27.4V96H498V49H570.7z M184,49v47h-38V49H184z
		 M270.5,49c34.7,0,62.4,17,71.5,47h-40.8c-5.7-10.7-16.3-17.1-31.5-17.1h-18.3V96H214V49H270.5z M475,49v29.9h-70.5V96H368V49H475z
		 M72.7,49c30.7,0,48.3,14.5,48.3,36.5c0,4-0.5,7.4-1.4,10.5H82.8c0.1-0.6,0.2-1.1,0.2-1.6c0-10.6-7.7-15.8-18.7-15.8H36.9V96H0V49
		H72.7z M798,49v47h-42.4l2.2-25.2L740.9,96H718l31.3-47H798z M1067,49v47h-42.4l2.2-25.2L1009.9,96H987l31.3-47H1067z M64.3,142.6
		H36.9v32.3h27.4c10.8,0,18.7-5.7,18.7-16.4C83,147.8,75.3,142.6,64.3,142.6z M562.3,142.6h-27.4v32.3h27.4
		c10.8,0,18.7-5.7,18.7-16.4C581,147.8,573.3,142.6,562.3,142.6z M72.7,113c30.7,0,48.3,14.5,48.3,36.7c0,25.6-20.1,31-37.7,32.3H0
		v-69H72.7z M1069,113v69h-31.6l11.5-17.3l-23.2,2.6l2.8-32.4L997.1,182H974l46.1-69H1069z M570.7,113c30.7,0,48.3,14.5,48.3,36.7
		c0,25.6-20.1,31-37.7,32.3H498v-69H570.7z M475,113v30.1h-70.5v25H459v14h-91v-69H475z M893.2,109c35.3,0,60,27.2,60.8,73h-38.2
		c-0.3-31.6-9.9-42.9-22.6-42.9c-12.5,0-21.9,11.4-22.2,42.9h-38C833.8,136.4,858.3,109,893.2,109z M184,113v69h-38v-69H184z
		 M798,113v69h-31.7l11.6-17.3l-23.2,2.6l2.8-32.4L726.1,182H703l46.1-69H798z M269.8,113c42.6,0,74.8,25.5,75.2,69h-39.2
		c-0.4-23.3-12.9-38.9-36.8-38.9h-18.4V182H213v-69H269.8z M1121.1,213.5c-1.2,0-2,0.1-2.4,0.3v5.4h2.1c2.4,0,4.4-0.8,4.4-2.8
		C1125.2,214.6,1123.9,213.5,1121.1,213.5z M1121.4,210.4c3.6,0,5.2,0.6,6.6,1.4c1,0.8,1.8,2.3,1.8,4.2c0,2.1-1.6,3.7-3.9,4.4v0.3
		c1.8,0.7,2.9,2.1,3.5,4.6c0.6,2.9,0.9,4,1.4,4.7h-4.7c-0.6-0.7-0.9-2.4-1.5-4.6c-0.4-2.1-1.5-3-3.9-3h-2.1v7.6h-4.4v-18.9
		C1115.9,210.6,1118.3,210.4,1121.4,210.4z M1121.6,204.8c-8.5,0.1-14.7,6.8-14.7,15.1c0,8.4,6.3,15.1,14.8,15.1
		c8.4,0,14.5-6.7,14.5-15C1136.2,211.6,1130,204.8,1121.6,204.8z M1121.6,201c11,0.1,19.4,8.5,19.4,18.9c0,10.7-8.4,19.1-19.4,19.1
		c-10.9,0-19.6-8.4-19.6-19.1C1102,209.4,1110.7,201,1121.6,201z M562.4,229.2H535V261h27.4c10.9,0,18.7-5.6,18.7-16.1
		C581.2,234.4,573.5,229.2,562.4,229.2z M64.4,229.2H36.9V261h27.4c10.9,0,18.7-5.6,18.7-16.1C83.1,234.4,75.4,229.2,64.4,229.2z
		 M1026.1,221.5l-31.9,48.2l22.7-2.5l-2.8,31.9l31.9-48.2l-22.7,2.5L1026.1,221.5z M758.1,221.5l-31.9,48.2l22.7-2.5l-2.8,31.9
		l31.9-48.2l-22.7,2.5L758.1,221.5z M269,229.6h-18.4v79.7h17.6c25,0,37.6-14.1,37.6-40.1C305.8,245.4,293.2,229.6,269,229.6z
		 M893.2,227.3c-12.7,0-22.2,11.4-22.2,43.2c0,32.6,9.7,43.2,22.2,43.2c12.6,0,22.5-10.7,22.6-43.2
		C915.8,238.5,906.1,227.3,893.2,227.3z M797.7,200v81.6H818v27.2h-20.3V339h-33.3v-30.2H697v-29.2l52.8-79.6H797.7z M1065.7,200
		v81.7h20.3v27.2h-20.3V339h-33.3v-30.2H965v-29.2l52.8-79.6H1065.7z M679,304v35h-38v-35H679z M570.9,200
		c30.8,0,48.4,14.3,48.4,36.1c0,29-26.7,31.8-45.4,32.2v11.9c25.7,0.2,38.3,5.4,43.2,28.4L623,339h-39.5l-5.3-32
		c-2.2-14.1-7.9-19.3-22.1-19.3h-21.1V339H498V200H570.9z M475,200v29.6h-70.5v24.6H459v27.6h-54.5v27.6H475V339H368V200H475z
		 M269.8,200c42.8,0,75.2,25.4,75.2,68.7c0,43.7-32.6,70.3-74.2,70.3H213V200H269.8z M184,200v139h-38V200H184z M72.9,200
		c30.8,0,48.4,14.3,48.4,36.1c0,29-26.7,31.8-45.4,32.2v11.9c25.6,0.2,38.3,5.4,43.2,28.4L125,339H85.5l-5.3-32
		c-2.2-14.1-7.9-19.3-22.1-19.3H36.9V339H0V200H72.9z M893.2,198c35.8,0,60.8,27.3,60.8,73.1c0,45.8-25,71.9-60.8,71.9
		c-35.5,0-60.2-25.8-60.2-71.9C833,225.5,857.8,198,893.2,198z"/>
</g>
</svg>
