<?xml version="1.0" encoding="utf-8"?>
<!-- Generator: Adobe Illustrator 24.1.0, SVG Export Plug-In . SVG Version: 6.00 Build 0)  -->
<svg version="1.1" id="Calque_1" xmlns="http://www.w3.org/2000/svg" xmlns:xlink="http://www.w3.org/1999/xlink" x="0px" y="0px"
	 viewBox="0 0 3204.3 410.6" style="enable-background:new 0 0 3204.3 410.6;" xml:space="preserve">
<style type="text/css">
	.st0{fill:#111111;}
</style>
<polygon class="st0" points="1029.8,401.1 1333.1,401.1 1333.1,317.8 1133.3,317.8 1133.3,240 1287.7,240 1287.7,162.2 
	1133.3,162.2 1133.3,92.9 1333.1,92.9 1333.1,9.5 1029.8,9.5 "/>
<path class="st0" d="M759.1,9.5H600.2v391.6h161.7c116.4,0,207.6-75,207.6-198C969.5,81.1,878.8,9.5,759.1,9.5z M754.6,317.2h-49.2
	V92.9h51.5c67.7,0,102.9,44.8,102.9,111.3C859.8,277.5,824.6,317.2,754.6,317.2z"/>
<rect x="413.4" y="9.5" class="st0" width="106.3" height="391.6"/>
<path class="st0" d="M214.8,235.5V202c53.1-1.1,128.7-8.9,128.7-90.6c0-61.5-49.8-101.8-137.1-101.8H0v391.6h104.6V256.8h59.9
	c40.3,0,56.5,14.5,62.7,54.3l15.1,90.1h111.9l-16.8-85.6C323.4,250.6,287.6,236.1,214.8,235.5z M182.4,181.3h-77.8V91.8h77.8
	c31.3,0,53.2,14.5,53.2,44.2S213.1,181.3,182.4,181.3z"/>
<rect x="1802.3" y="302.1" class="st0" width="108" height="99"/>
<path class="st0" d="M1612.7,235.5V202c53.1-1.1,128.7-8.9,128.7-90.6c0-61.5-49.8-101.8-137.1-101.8h-206.4v391.6h104.6V256.8h59.9
	c40.3,0,56.5,14.5,62.7,54.3l15.1,90.1H1752l-16.8-85.6C1721.3,250.6,1685.5,236.1,1612.7,235.5z M1580.3,181.3h-77.8V91.8h77.8
	c31.3,0,53.2,14.5,53.2,44.2S1611.1,181.3,1580.3,181.3z"/>
<path class="st0" d="M3149.9,10.5c-30.4,0-54.7,23.6-54.7,53.1c0,30.1,24.3,53.7,54.7,53.7c30.8,0,54.4-23.6,54.4-53.7
	C3204.3,34.1,3180.7,10.5,3149.9,10.5z M3150.3,106c-24,0-41.4-18.8-41.4-42.4c0-23.3,17.5-42.4,41.1-42.4
	c23.6,0,40.8,19.1,40.8,42.7C3190.7,87.2,3173.6,106,3150.3,106z"/>
<path class="st0" d="M2997.2,9.5h-136l-149.9,224.3v82.2h191.3v85h94.6v-85h57.6v-76.6h-57.6V9.5z M2850.7,288.7l7.9-89.8l-64.6,7
	l90.8-135.8l-7.9,89.8l64.6-7L2850.7,288.7z"/>
<path class="st0" d="M3162.2,65.2v-0.6c6.5-1.9,11-6.5,11-12.3c0-5.2-2.3-9.4-5.2-11.7c-3.9-2.3-8.4-3.9-18.5-3.9
	c-8.7,0-15.5,0.6-20.4,1.6v53.1h12.3V70.1h5.8c6.8,0,10,2.6,11,8.4c1.6,6.2,2.6,11,4.2,13h13.3c-1.3-1.9-2.3-5.2-3.9-13.3
	C3170.3,71,3167.4,67.2,3162.2,65.2z M3147.7,61.3h-5.8V46.1c1.3-0.3,3.6-0.6,6.8-0.6c7.8,0,11.3,3.2,11.3,8.1
	C3160,59.1,3154.5,61.3,3147.7,61.3z"/>
<path class="st0" d="M2506.1,0C2405.9,0,2336,77.8,2336,207c0,130.4,69.9,203.6,170.1,203.6c101.3,0,171.8-73.8,171.8-203.6
	C2677.8,77.2,2607.3,0,2506.1,0z M2506.1,327.8c-35.3,0-62.7-30.2-62.7-122.5c0-90.1,26.9-122.5,62.7-122.5
	c36.4,0,63.8,31.9,63.8,122.5C2569.9,297.6,2541.9,327.8,2506.1,327.8z"/>
<path class="st0" d="M2238.7,9.5h-136l-149.9,224.3v82.2h191.3v85h94.6v-85h57.6v-76.6h-57.6V9.5z M2092.2,288.7l7.9-89.8l-64.6,7
	l90.8-135.8l-7.9,89.8l64.6-7L2092.2,288.7z"/>
</svg>
