<?xml version="1.0" encoding="utf-8"?>
<!-- Generator: Adobe Illustrator 25.4.1, SVG Export Plug-In . SVG Version: 6.00 Build 0)  -->
<svg version="1.1" id="Calque_1" xmlns="http://www.w3.org/2000/svg" xmlns:xlink="http://www.w3.org/1999/xlink" x="0px" y="0px"
	 viewBox="0 0 959.9 959.9" style="enable-background:new 0 0 959.9 959.9;" xml:space="preserve">
<path style="fill:#FFFFFF;" d="M943.2,479.9c-0.1-0.1-0.6-0.8-1.4-1.9h-447l387.5-68.3c-0.7-0.8-1.5-1.5-2.2-2.3l-385.7,68
	L825.1,355c-0.7-0.7-1.5-1.3-2.2-2L493.4,473L772.2,312c-0.8-0.6-1.5-1.1-2.3-1.7L492.1,470.7l230-193c-0.8-0.5-1.6-1-2.3-1.5
	L490.4,468.7l183.2-218.4c-0.8-0.4-1.6-0.8-2.4-1.2L488.4,467l137.4-238.1c-0.8-0.3-1.6-0.6-2.5-1L486.2,465.7L578,213.3
	c-0.8-0.2-1.7-0.4-2.5-0.7l-91.8,252.2l46.1-261.3c-0.9-0.1-1.7-0.2-2.6-0.4l-46.1,261.2V200c-0.4,0-0.8,0-1.2,0c-0.5,0-1,0-1.4,0
	v264.3l-46.1-261.2c-0.9,0.1-1.7,0.2-2.6,0.4l46.1,261.3l-91.8-252.1c-0.8,0.2-1.7,0.4-2.5,0.7l91.8,252.4L336.3,228
	c-0.8,0.3-1.6,0.6-2.5,1l137.4,238L288.4,249.2c-0.8,0.4-1.6,0.8-2.4,1.2l183.2,218.3L240,276.3c-0.8,0.5-1.6,1-2.3,1.5l229.9,192.9
	L189.9,310.4c-0.8,0.6-1.5,1.1-2.3,1.7L466.2,473L136.9,353.1c-0.8,0.7-1.5,1.3-2.2,2l330.6,120.3l-385.5-68
	c-0.7,0.8-1.5,1.5-2.2,2.3L464.9,478H18.1c-1,1.3-1.5,1.9-1.5,1.9s0.2,0.2,0.5,0.7h447.7L76.6,549.1c0.7,0.8,1.5,1.5,2.2,2.3
	l386.5-68.2L133.7,603.9c0.7,0.7,1.5,1.3,2.2,2l330.3-120.2L186.6,647.1c0.8,0.6,1.5,1.1,2.3,1.7l278.6-160.8L236.8,681.5
	c0.8,0.5,1.6,1,2.3,1.5l230.1-193.1L285.3,709.1c0.8,0.4,1.6,0.8,2.4,1.2l183.5-218.7l-138,239c0.8,0.3,1.6,0.6,2.5,1l137.8-238.7
	l-92.3,253.5c0.8,0.2,1.7,0.4,2.5,0.7l92.2-253.3l-46.3,262.5c0.9,0.1,1.7,0.2,2.6,0.4l46.3-262.4v265.6c0.5,0,0.9,0,1.4,0
	c0.4,0,0.8,0,1.2,0V494.3l46.3,262.4c0.9-0.1,1.7-0.2,2.6-0.4l-46.3-262.5l92.2,253.3c0.8-0.2,1.7-0.4,2.5-0.7l-92.3-253.6
	L624,731.7c0.8-0.3,1.6-0.6,2.5-1l-138-239.1L672,710.4c0.8-0.4,1.6-0.8,2.4-1.2l-184-219.2l230.2,193.2c0.8-0.5,1.6-1,2.3-1.5
	L492.1,487.9l278.7,160.9c0.8-0.6,1.5-1.1,2.3-1.7L493.4,485.7l330.4,120.3c0.7-0.7,1.5-1.3,2.2-2L494.3,483.2l386.7,68.2
	c0.7-0.8,1.5-1.5,2.2-2.3l-388.5-68.5h447.9C943.1,480.2,943.2,479.9,943.2,479.9L943.2,479.9L943.2,479.9z"/>
<path style="fill:#FFFFFF;" d="M479.9,959.9c-64.8,0-127.6-12.7-186.8-37.7C236,898,184.7,863.4,140.6,819.3
	c-44.1-44.1-78.7-95.4-102.9-152.6C12.7,607.6,0,544.7,0,479.9s12.7-127.6,37.7-186.8C61.9,236,96.5,184.6,140.6,140.6
	C184.7,96.5,236,61.9,293.1,37.7C352.3,12.7,415.1,0,479.9,0s127.6,12.7,186.8,37.7c57.1,24.2,108.5,58.8,152.6,102.9
	S898,236,922.2,293.1c25,59.2,37.7,122,37.7,186.8s-12.7,127.6-37.7,186.8c-24.2,57.2-58.8,108.5-102.9,152.6
	c-44.1,44.1-95.4,78.7-152.6,102.9C607.6,947.2,544.7,959.9,479.9,959.9z M479.9,2.4c-64.5,0-127,12.6-185.9,37.5
	C237.2,64,186.1,98.4,142.3,142.2C98.4,186.1,64,237.2,39.9,294C15,352.9,2.4,415.5,2.4,479.9c0,64.5,12.6,127,37.5,185.9
	C64,722.7,98.4,773.8,142.3,817.6c43.9,43.9,94.9,78.3,151.8,102.3c58.9,24.9,121.4,37.5,185.9,37.5c64.5,0,127-12.6,185.9-37.5
	c56.9-24.1,107.9-58.5,151.8-102.3s78.3-94.9,102.3-151.8c24.9-58.9,37.5-121.4,37.5-185.9c0-64.5-12.6-127-37.5-185.9
	c-24.1-56.9-58.5-107.9-102.3-151.8S722.7,64,665.8,39.9C607,15,544.4,2.4,479.9,2.4z"/>
</svg>
