<?xml version="1.0" encoding="utf-8"?>
<!-- Generator: Adobe Illustrator 24.1.0, SVG Export Plug-In . SVG Version: 6.00 Build 0)  -->
<svg version="1.1" id="Calque_1" xmlns="http://www.w3.org/2000/svg" xmlns:xlink="http://www.w3.org/1999/xlink" x="0px" y="0px"
	 width="601px" height="444.478px" viewBox="0 0 601 444.478" style="enable-background:new 0 0 601 444.478;" xml:space="preserve"
	>
<style type="text/css">
	.st0{fill:#FFFFFF;}
</style>
<g id="stripe">
	<path class="st0" d="M318.856,137.457l-30.922,6.461v24.868l30.922-6.583V137.457z M477.645,200.724
		c7.516,0,15.523,5.729,15.523,19.504h-31.784l0.052-1.829C462.155,205.944,470.237,200.724,477.645,200.724z M375.768,203.04
		c11.211,0,18.971,12.434,18.971,28.403c0,16.335-7.638,28.525-18.971,28.525c-7.267,0-11.579-2.56-14.536-5.729l-0.122-45.226
		l0.905-0.936C365.139,205.055,369.386,203.04,375.768,203.04z M279.874,177.862c-4.585-1.471-18.112-3.408-25.077,9.209
		l-1.971-9.021h-26.609v106.664h30.797v-72.288l1.126-1.326c7.352-7.89,18.651-6.287,22.279-5.013V178.05L279.874,177.862z
		 M318.857,178.05h-30.922v106.664h30.922V178.05z M477.769,175.978c-29.32,0-47.058,24.624-47.058,55.587
		c0,36.692,20.942,55.221,50.999,55.221c14.66,0,25.746-3.291,34.123-7.924v-24.38l-2.316,1.09
		c-7.829,3.499-16.777,5.614-27.865,5.614c-11.949,0-22.543-4.145-23.897-18.529h60.238l0.008-0.693
		c0.043-2.258,0.238-7.556,0.238-10.156C522.239,200.602,506.964,175.978,477.769,175.978z M120.399,175.978
		c-25.007,0-41.638,12.922-41.638,34.498c0,33.645,46.812,28.28,46.812,42.787c0,5.606-4.928,7.435-11.826,7.435
		c-10.225,0-23.283-4.143-33.63-9.752v29.014l3.44,1.379c10.323,3.89,20.656,5.568,30.191,5.568
		c25.623,0,43.239-12.555,43.239-34.375c-0.123-36.327-47.058-29.866-47.058-43.519c0-4.754,3.942-6.583,10.471-6.583
		c9.362,0,21.188,2.804,30.551,7.802v-28.647l-3.404-1.252C138.478,177.23,129.487,175.978,120.399,175.978z M193.203,151.597
		l-30.058,6.339l-0.123,97.643l0.048,1.849c0.9,17.093,14.254,29.48,31.857,29.48c10.101,0,17.493-1.829,21.558-4.023v-24.746
		l-0.445,0.171c-4.773,1.761-22.961,6.42-22.961-11.02v-43.275h23.406V178.05H193.08L193.203,151.597z M383.159,175.978
		c-12.072,0-19.833,5.607-24.145,9.508l-1.6-7.558h-27.101v142.137l30.797-6.461l0.122-34.498l0.983,0.698
		c4.407,3.093,10.756,6.982,20.821,6.982c22.052,0,42.132-17.554,42.132-56.197C425.043,195.238,404.717,175.978,383.159,175.978z
		 M548.326,0.5C577.1,0.5,600.5,23.9,600.5,52.674v339.13c0,28.774-23.4,52.174-52.174,52.174H52.674
		c-28.774,0-52.174-23.4-52.174-52.174V52.674C0.5,23.9,23.9,0.5,52.674,0.5H548.326z"/>
</g>
</svg>
