<?xml version="1.0" encoding="utf-8"?>
<!-- Generator: Adobe Illustrator 24.1.0, SVG Export Plug-In . SVG Version: 6.00 Build 0)  -->
<svg version="1.1" id="Calque_1" xmlns="http://www.w3.org/2000/svg" xmlns:xlink="http://www.w3.org/1999/xlink" x="0px" y="0px"
	 width="600px" height="443.478px" viewBox="0 0 600 443.478" style="enable-background:new 0 0 600 443.478;" xml:space="preserve"
	>
<style type="text/css">
	.st0{fill:none;}
</style>
<path class="st0" d="M318.356,136.957l-30.922,6.461v24.868l30.922-6.583V136.957z M477.145,200.224
	c7.516,0,15.523,5.729,15.523,19.504h-31.784l0.052-1.829C461.655,205.444,469.737,200.224,477.145,200.224z M375.268,202.54
	c11.211,0,18.971,12.434,18.971,28.403c0,16.335-7.638,28.525-18.971,28.525c-7.267,0-11.579-2.56-14.536-5.729l-0.122-45.226
	l0.905-0.936C364.639,204.555,368.886,202.54,375.268,202.54z M279.374,177.362c-4.585-1.471-18.112-3.408-25.077,9.209
	l-1.971-9.021h-26.609v106.664h30.797v-72.288l1.126-1.326c7.352-7.89,18.651-6.287,22.279-5.013V177.55L279.374,177.362z
	 M318.357,177.55h-30.922v106.664h30.922V177.55z M477.269,175.478c-29.32,0-47.058,24.624-47.058,55.587
	c0,36.692,20.942,55.221,50.999,55.221c14.66,0,25.746-3.291,34.123-7.924v-24.38l-2.316,1.09
	c-7.829,3.499-16.777,5.614-27.865,5.614c-11.949,0-22.543-4.145-23.897-18.529h60.238l0.008-0.693
	c0.043-2.258,0.238-7.556,0.238-10.156C521.739,200.102,506.464,175.478,477.269,175.478z M119.899,175.478
	c-25.007,0-41.638,12.922-41.638,34.498c0,33.645,46.812,28.28,46.812,42.787c0,5.606-4.928,7.435-11.826,7.435
	c-10.225,0-23.283-4.143-33.63-9.752v29.014l3.44,1.379c10.323,3.89,20.656,5.568,30.191,5.568
	c25.623,0,43.239-12.555,43.239-34.375c-0.123-36.327-47.058-29.866-47.058-43.519c0-4.754,3.942-6.583,10.471-6.583
	c9.362,0,21.188,2.804,30.551,7.802v-28.647l-3.404-1.252C137.978,176.73,128.987,175.478,119.899,175.478z M192.703,151.097
	l-30.058,6.339l-0.123,97.643l0.048,1.849c0.9,17.093,14.254,29.48,31.857,29.48c10.101,0,17.493-1.829,21.558-4.023v-24.746
	l-0.445,0.171c-4.773,1.761-22.961,6.42-22.961-11.02v-43.275h23.406V177.55H192.58L192.703,151.097z M382.659,175.478
	c-12.072,0-19.833,5.607-24.145,9.508l-1.6-7.558h-27.101v142.137l30.797-6.461l0.122-34.498l0.983,0.698
	c4.407,3.093,10.756,6.982,20.821,6.982c22.052,0,42.132-17.554,42.132-56.197C424.543,194.738,404.217,175.478,382.659,175.478z
	 M547.826,0C576.6,0,600,23.4,600,52.174v339.13c0,28.774-23.4,52.174-52.174,52.174H52.174C23.4,443.478,0,420.078,0,391.304
	V52.174C0,23.4,23.4,0,52.174,0H547.826z"/>
</svg>
