<?xml version="1.0" encoding="utf-8"?>
<!-- Generator: Adobe Illustrator 24.1.0, SVG Export Plug-In . SVG Version: 6.00 Build 0)  -->
<svg version="1.1" id="Calque_1" xmlns="http://www.w3.org/2000/svg" xmlns:xlink="http://www.w3.org/1999/xlink" x="0px" y="0px"
	 width="600px" height="442.623px" viewBox="0 0 600 442.623" style="enable-background:new 0 0 600 442.623;" xml:space="preserve"
	>
<style type="text/css">
	.st0{fill:#FFFFFF;}
</style>
<g>
	<g>
		<polygon class="st0" points="243.137,278.632 274.287,278.632 293.792,164.278 262.622,164.278 		"/>
	</g>
	<g>
		<path class="st0" d="M356.635,210.193c-10.898-5.292-17.567-8.823-17.498-14.174c0-4.751,5.646-9.836,17.852-9.836
			c9.984-0.157,18.03,1.879,26.125,5.705l4.23-24.787c-6.187-2.321-15.866-4.81-27.944-4.81c-30.797,0-52.495,15.511-52.672,37.741
			c-0.177,16.426,15.492,25.593,27.315,31.062c12.128,5.607,16.21,9.177,16.151,14.184c-0.079,7.662-9.689,11.164-18.649,11.164
			c-13.83,0-20.803-2.134-33.354-7.82l-4.377,25.603c7.279,3.187,20.744,5.961,34.721,6.098c32.764,0,54.03-15.334,54.275-39.069
			C382.917,228.252,374.615,218.347,356.635,210.193z"/>
	</g>
	<g>
		<path class="st0" d="M428.822,238.088c1.289-3.295,14.016-35.961,16.554-42.875c4.21,19.711,0.108,0.59,9.325,42.875H428.822z
			 M467.261,164.386h-24.089c-7.466,0-13.043,2.036-16.318,9.482l-46.288,104.793h32.725c0,0,5.351-14.095,6.561-17.184
			c3.58,0,35.37,0.049,39.915,0.049c0.934,4.003,3.797,17.134,3.797,17.134h28.918L467.261,164.386z"/>
	</g>
	<g>
		<path class="st0" d="M216.992,164.366l-30.511,77.98l-3.256-15.846l-10.928-52.544c-1.889-7.239-7.357-9.403-14.125-9.649H107.91
			l-0.393,2.38c12.226,2.961,23.154,7.229,32.734,12.541l27.708,99.315l32.98-0.039l49.072-114.128h-33.02V164.366z"/>
	</g>
	<path class="st0" d="M555.738,442.623H44.262C19.855,442.623,0,422.768,0,398.361V44.262C0,19.855,19.855,0,44.262,0h511.475
		C580.145,0,600,19.855,600,44.262v354.098C600,422.768,580.145,442.623,555.738,442.623z M44.262,9.836
		c-18.981,0-34.426,15.446-34.426,34.426v354.098c0,18.981,15.446,34.426,34.426,34.426h511.475
		c18.981,0,34.426-15.446,34.426-34.426V44.262c0-18.981-15.446-34.426-34.426-34.426H44.262z"/>
</g>
</svg>
